<?xml version="1.0" encoding="UTF-8"?>
<!DOCTYPE svg PUBLIC "-//W3C//DTD SVG 1.1//EN"
    "http://www.w3.org/Graphics/SVG/1.1/DTD/svg11.dtd"><svg xmlns="http://www.w3.org/2000/svg" height="2756.3382" stroke-opacity="1" viewBox="0 0 1272 2756" font-size="1" width="1271.6213" xmlns:xlink="http://www.w3.org/1999/xlink" stroke="rgb(0,0,0)" version="1.1"><defs></defs><g stroke-linejoin="miter" stroke-opacity="1.0" fill-opacity="0.5" stroke="rgb(0,0,0)" stroke-width="0.37795275590551186" fill="rgb(0,0,0)" stroke-linecap="butt" stroke-miterlimit="10.0"><path d="M 3.9685,2519.5725 c 0.0000,-1.7263 0.2744,-3.4783 0.8492 -5.1959c 31.8298,-95.1293 63.6596,-190.2586 95.4894 -285.3879c 2.2347,-6.6788 8.4889,-11.1811 15.5316 -11.1811c 91.4859,-0.0000 182.9718,-0.0000 274.4577 -0.0000c 3.6793,-0.0000 7.2513,1.2388 10.1405 3.5169c 64.7386,51.0442 146.5341,81.5225 235.3737 81.5225c 88.8396,-0.0000 170.6351,-30.4783 235.3737 -81.5225c 2.8892,-2.2780 6.4613,-3.5169 10.1405 -3.5169c 91.4859,-0.0000 182.9719,-0.0000 274.4577 -0.0000c 7.0427,-0.0000 13.2969,4.5023 15.5316 11.1811c 31.8298,95.1293 63.6597,190.2586 95.4894 285.3879c 0.5747,1.7176 0.8492,3.4696 0.8492 5.1959c 0.0000,6.2119 -3.5540,12.0917 -9.4613 14.8453c -154.7613,72.1395 -309.5227,144.2789 -464.2840 216.4184c -2.1669,1.0101 -4.5287,1.5335 -6.9195 1.5335c -50.3925,-0.0000 -100.7849,-0.0000 -151.1774 -0.0000c -50.3925,-0.0000 -100.7849,-0.0000 -151.1774 -0.0000c -2.3908,-0.0000 -4.7526,-0.5234 -6.9195 -1.5335c -154.7613,-72.1395 -309.5227,-144.2789 -464.2840 -216.4184c -5.9073,-2.7536 -9.4613,-8.6334 -9.4613 -14.8453ZM 18.4595,2515.7938 c 0.0000,3.1311 2.5382,5.6693 5.6693 5.6693c 3.1310,-0.0000 5.6693,-2.5382 5.6693 -5.6693c 0.0000,-3.1310 -2.5382,-5.6693 -5.6693 -5.6693c -3.1311,-0.0000 -5.6693,2.5382 -5.6693 5.6693ZM 113.9489,2237.9650 c 0.0000,3.1311 2.5382,5.6693 5.6693 5.6693c 3.1311,-0.0000 5.6693,-2.5382 5.6693 -5.6693c 0.0000,-3.1310 -2.5382,-5.6693 -5.6693 -5.6693c -3.1310,-0.0000 -5.6693,2.5382 -5.6693 5.6693ZM 478.9640,2732.2122 c 0.0000,3.1311 2.5382,5.6693 5.6693 5.6693c 3.1310,-0.0000 5.6693,-2.5382 5.6693 -5.6693c 0.0000,-3.1310 -2.5382,-5.6693 -5.6693 -5.6693c -3.1311,-0.0000 -5.6693,2.5382 -5.6693 5.6693ZM 573.4484,2313.5555 c 0.0000,3.1311 2.5382,5.6693 5.6693 5.6693c 3.1311,-0.0000 5.6693,-2.5382 5.6693 -5.6693c 0.0000,-3.1310 -2.5382,-5.6693 -5.6693 -5.6693c -3.1310,-0.0000 -5.6693,2.5382 -5.6693 5.6693ZM 686.8343,2313.5555 c 0.0000,3.1311 2.5382,5.6693 5.6693 5.6693c 3.1310,-0.0000 5.6693,-2.5382 5.6693 -5.6693c 0.0000,-3.1310 -2.5382,-5.6693 -5.6693 -5.6693c -3.1311,-0.0000 -5.6693,2.5382 -5.6693 5.6693ZM 781.3188,2732.2122 c 0.0000,3.1311 2.5382,5.6693 5.6693 5.6693c 3.1311,-0.0000 5.6693,-2.5382 5.6693 -5.6693c 0.0000,-3.1310 -2.5382,-5.6693 -5.6693 -5.6693c -3.1310,-0.0000 -5.6693,2.5382 -5.6693 5.6693ZM 1146.3338,2237.9650 c 0.0000,3.1311 2.5382,5.6693 5.6693 5.6693c 3.1310,-0.0000 5.6693,-2.5382 5.6693 -5.6693c 0.0000,-3.1310 -2.5382,-5.6693 -5.6693 -5.6693c -3.1311,-0.0000 -5.6693,2.5382 -5.6693 5.6693ZM 1241.8233,2515.7938 c 0.0000,3.1311 2.5382,5.6693 5.6693 5.6693c 3.1311,-0.0000 5.6693,-2.5382 5.6693 -5.6693c 0.0000,-3.1310 -2.5382,-5.6693 -5.6693 -5.6693c -3.1310,-0.0000 -5.6693,2.5382 -5.6693 5.6693Z"/></g><g stroke-linejoin="miter" stroke-opacity="1.0" fill-opacity="0.5" stroke="rgb(0,0,0)" stroke-width="0.37795275590551186" fill="rgb(255,0,0)" stroke-linecap="butt" stroke-miterlimit="10.0"><path d="M 3.9685,1966.1127 c 0.0000,-1.7263 0.2744,-3.4783 0.8492 -5.1959c 31.8298,-95.1293 63.6596,-190.2586 95.4894 -285.3879c 2.2347,-6.6788 8.4889,-11.1811 15.5316 -11.1811c 91.4859,-0.0000 182.9718,-0.0000 274.4577 -0.0000c 3.6793,-0.0000 7.2513,1.2388 10.1405 3.5169c 49.4805,39.0137 108.9252,66.0133 173.8634 76.5732c 4.5881,0.7461 9.2035,1.4101 13.8449 1.9905c 12.5600,1.5706 25.3093,2.5288 38.2166 2.8437c 0.0000,0.0384 0.0000,0.0767 0.0000 0.1151c 1.2598,-0.0000 2.5197,-0.0000 3.7796 -0.0000c 0.0000,1.2598 0.0000,2.5197 0.0000 3.7795c -1.2598,-0.0000 -2.5197,-0.0000 -3.7796 -0.0000c 0.0000,0.3376 0.0000,0.6752 0.0000 1.0127c 0.0000,0.9223 0.0000,1.8445 0.0000 2.7668c 1.2598,-0.0000 2.5197,-0.0000 3.7796 -0.0000c 0.0000,1.2598 0.0000,2.5197 0.0000 3.7795c -1.2598,-0.0000 -2.5197,-0.0000 -3.7796 -0.0000c 0.0000,0.3376 0.0000,0.6752 0.0000 1.0127c 0.0000,0.9223 0.0000,1.8446 0.0000 2.7668c 1.2598,-0.0000 2.5197,-0.0000 3.7796 -0.0000c 0.0000,1.2598 0.0000,2.5197 0.0000 3.7795c -1.2598,-0.0000 -2.5197,-0.0000 -3.7796 -0.0000c 0.0000,0.3376 0.0000,0.6752 0.0000 1.0127c 0.0000,0.9223 0.0000,1.8446 0.0000 2.7668c 1.2598,-0.0000 2.5197,-0.0000 3.7796 -0.0000c 0.0000,1.2598 0.0000,2.5197 0.0000 3.7795c -1.2598,-0.0000 -2.5197,-0.0000 -3.7796 -0.0000c 0.0000,0.3376 0.0000,0.6752 0.0000 1.0127c 0.0000,0.9223 0.0000,1.8446 0.0000 2.7668c 1.2598,-0.0000 2.5197,-0.0000 3.7796 -0.0000c 0.0000,0.6299 0.0000,1.2598 0.0000 1.8898c 3.7795,-0.0000 7.5591,-0.0000 11.3386 -0.0000c 0.0000,-0.6299 0.0000,-1.2598 0.0000 -1.8898c 1.2598,-0.0000 2.5197,-0.0000 3.7796 -0.0000c 0.0000,-1.2598 0.0000,-2.5197 0.0000 -3.7796c -1.2598,-0.0000 -2.5197,-0.0000 -3.7796 -0.0000c 0.0000,-1.2598 0.0000,-2.5197 0.0000 -3.7795c 1.2598,-0.0000 2.5197,-0.0000 3.7796 -0.0000c 0.0000,-1.2598 0.0000,-2.5197 0.0000 -3.7796c -1.2598,-0.0000 -2.5197,-0.0000 -3.7796 -0.0000c 0.0000,-1.2598 0.0000,-2.5197 0.0000 -3.7795c 1.2598,-0.0000 2.5197,-0.0000 3.7796 -0.0000c 0.0000,-1.2598 0.0000,-2.5197 0.0000 -3.7796c -1.2598,-0.0000 -2.5197,-0.0000 -3.7796 -0.0000c 0.0000,-1.2598 0.0000,-2.5197 0.0000 -3.7795c 1.2598,-0.0000 2.5197,-0.0000 3.7796 -0.0000c 0.0000,-1.2598 0.0000,-2.5197 0.0000 -3.7796c -1.2598,-0.0000 -2.5197,-0.0000 -3.7796 -0.0000c 0.0000,-1.2598 0.0000,-2.5197 0.0000 -3.7795c 1.2598,-0.0000 2.5197,-0.0000 3.7796 -0.0000c 0.0000,-0.0384 0.0000,-0.0767 0.0000 -0.1151c 12.9073,-0.3149 25.6566,-1.2731 38.2166 -2.8437c 4.6413,-0.5804 9.2568,-1.2444 13.8449 -1.9905c 64.9382,-10.5598 124.3829,-37.5595 173.8634 -76.5732c 2.8892,-2.2780 6.4613,-3.5169 10.1405 -3.5169c 91.4859,-0.0000 182.9719,-0.0000 274.4577 -0.0000c 7.0427,-0.0000 13.2969,4.5023 15.5316 11.1811c 31.8298,95.1293 63.6597,190.2586 95.4894 285.3879c 0.5747,1.7176 0.8492,3.4696 0.8492 5.1959c 0.0000,6.2119 -3.5540,12.0917 -9.4613 14.8453c -154.7613,72.1395 -309.5227,144.2789 -464.2840 216.4184c -2.1669,1.0101 -4.5287,1.5335 -6.9195 1.5335c -50.3925,-0.0000 -100.7849,-0.0000 -151.1774 -0.0000c -50.3925,-0.0000 -100.7849,-0.0000 -151.1774 -0.0000c -2.3908,-0.0000 -4.7526,-0.5234 -6.9195 -1.5335c -154.7613,-72.1395 -309.5227,-144.2789 -464.2840 -216.4184c -5.9073,-2.7536 -9.4613,-8.6334 -9.4613 -14.8453ZM 18.4595,1962.3340 c 0.0000,3.1311 2.5382,5.6693 5.6693 5.6693c 3.1310,-0.0000 5.6693,-2.5382 5.6693 -5.6693c 0.0000,-3.1310 -2.5382,-5.6693 -5.6693 -5.6693c -3.1311,-0.0000 -5.6693,2.5382 -5.6693 5.6693ZM 35.6650,1950.7085 c 2.9901,2.9673 4.8417,7.0801 4.8417 11.6255c 0.0000,3.9404 -1.3916,7.5558 -3.7100 10.3815c 1.2809,1.2215 2.8105,2.2498 4.5550 3.0109c 144.7230,63.1384 289.4461,126.2767 434.1691 189.4151c 2.6051,-1.7476 5.7398,-2.7670 9.1125 -2.7670c 6.0622,-0.0000 11.3550,3.2936 14.1869 8.1890c 45.6634,-0.0000 91.3270,-0.0000 136.9905 -0.0000c 45.6635,-0.0000 91.3270,-0.0000 136.9905 -0.0000c 2.8319,-4.8954 8.1247,-8.1890 14.1869 -8.1890c 3.3727,-0.0000 6.5073,1.0195 9.1125 2.7670c 144.7230,-63.1384 289.4461,-126.2767 434.1691 -189.4151c 1.7445,-0.7611 3.2742,-1.7894 4.5550 -3.0109c -2.3184,-2.8258 -3.7100,-6.4412 -3.7100 -10.3815c 0.0000,-4.5453 1.8516,-8.6582 4.8417 -11.6255c -29.5554,-82.6730 -59.1110,-165.3460 -88.6665 -248.0190c -0.3854,-1.0780 -0.8960,-2.0926 -1.5135 -3.0316c -2.9318,-1.2061 -5.4366,-3.2382 -7.2245 -5.8068c -1.8895,-0.7489 -3.9550,-1.1570 -6.0968 -1.1570c -87.3815,-0.0000 -174.7631,-0.0000 -262.1447 -0.0000c -3.5142,-0.0000 -6.9260,1.1075 -9.6856 3.1439c -43.6229,32.1916 -95.3543,55.2331 -151.8361 66.0130c -0.8758,8.2199 -7.8327,14.6227 -16.2850 14.6227c -4.4006,-0.0000 -8.3959,-1.7356 -11.3386 -4.5595c 0.0000,7.9240 0.0000,15.8481 0.0000 23.7721c 0.0000,4.1747 -3.3843,7.5591 -7.5591 7.5591c -25.1968,-0.0000 -50.3937,-0.0000 -75.5905 -0.0000c -4.1747,-0.0000 -7.5591,-3.3843 -7.5591 -7.5591c 0.0000,-1.3775 0.0000,-2.7550 0.0000 -4.1325c 0.0000,-6.5465 0.0000,-13.0930 0.0000 -19.6395c -2.9427,2.8240 -6.9380,4.5595 -11.3386 4.5595c -8.4523,-0.0000 -15.4092,-6.4028 -16.2850 -14.6227c -56.4819,-10.7799 -108.2132,-33.8213 -151.8361 -66.0130c -2.7596,-2.0364 -6.1714,-3.1439 -9.6856 -3.1439c -87.3815,-0.0000 -174.7631,-0.0000 -262.1447 -0.0000c -2.1418,-0.0000 -4.2073,0.4081 -6.0968 1.1570c -1.7879,2.5685 -4.2927,4.6007 -7.2245 5.8068c -0.6175,0.9389 -1.1281,1.9535 -1.5135 3.0315c -29.5555,82.6730 -59.1110,165.3460 -88.6665 248.0190ZM 113.9489,1684.5052 c 0.0000,3.1311 2.5382,5.6693 5.6693 5.6693c 3.1311,-0.0000 5.6693,-2.5382 5.6693 -5.6693c 0.0000,-3.1310 -2.5382,-5.6693 -5.6693 -5.6693c -3.1310,-0.0000 -5.6693,2.5382 -5.6693 5.6693ZM 478.9640,2178.7524 c 0.0000,3.1311 2.5382,5.6693 5.6693 5.6693c 3.1310,-0.0000 5.6693,-2.5382 5.6693 -5.6693c 0.0000,-3.1310 -2.5382,-5.6693 -5.6693 -5.6693c -3.1311,-0.0000 -5.6693,2.5382 -5.6693 5.6693ZM 573.4484,1760.0958 c 0.0000,3.1311 2.5382,5.6693 5.6693 5.6693c 3.1311,-0.0000 5.6693,-2.5382 5.6693 -5.6693c 0.0000,-3.1310 -2.5382,-5.6693 -5.6693 -5.6693c -3.1310,-0.0000 -5.6693,2.5382 -5.6693 5.6693ZM 686.8343,1760.0958 c 0.0000,3.1311 2.5382,5.6693 5.6693 5.6693c 3.1310,-0.0000 5.6693,-2.5382 5.6693 -5.6693c 0.0000,-3.1310 -2.5382,-5.6693 -5.6693 -5.6693c -3.1311,-0.0000 -5.6693,2.5382 -5.6693 5.6693ZM 781.3188,2178.7524 c 0.0000,3.1311 2.5382,5.6693 5.6693 5.6693c 3.1311,-0.0000 5.6693,-2.5382 5.6693 -5.6693c 0.0000,-3.1310 -2.5382,-5.6693 -5.6693 -5.6693c -3.1310,-0.0000 -5.6693,2.5382 -5.6693 5.6693ZM 1146.3338,1684.5052 c 0.0000,3.1311 2.5382,5.6693 5.6693 5.6693c 3.1310,-0.0000 5.6693,-2.5382 5.6693 -5.6693c 0.0000,-3.1310 -2.5382,-5.6693 -5.6693 -5.6693c -3.1311,-0.0000 -5.6693,2.5382 -5.6693 5.6693ZM 1241.8233,1962.3340 c 0.0000,3.1311 2.5382,5.6693 5.6693 5.6693c 3.1311,-0.0000 5.6693,-2.5382 5.6693 -5.6693c 0.0000,-3.1310 -2.5382,-5.6693 -5.6693 -5.6693c -3.1310,-0.0000 -5.6693,2.5382 -5.6693 5.6693Z"/></g><g stroke-linejoin="miter" stroke-opacity="1.0" fill-opacity="0.5" stroke="rgb(0,0,0)" stroke-width="0.37795275590551186" fill="rgb(255,0,0)" stroke-linecap="butt" stroke-miterlimit="10.0"><path d="M 3.9685,1412.6530 c 0.0000,-1.7263 0.2744,-3.4783 0.8492 -5.1959c 31.8298,-95.1293 63.6596,-190.2586 95.4894 -285.3879c 2.2347,-6.6788 8.4889,-11.1811 15.5316 -11.1811c 91.4859,-0.0000 182.9718,-0.0000 274.4577 -0.0000c 3.6793,-0.0000 7.2513,1.2388 10.1405 3.5169c 49.4805,39.0137 108.9252,66.0133 173.8634 76.5732c 4.5881,0.7461 9.2035,1.4101 13.8449 1.9905c 15.6159,1.9527 31.5244,2.9588 47.6654 2.9588c 16.1410,-0.0000 32.0495,-1.0061 47.6654 -2.9588c 4.6413,-0.5804 9.2568,-1.2444 13.8449 -1.9905c 64.9382,-10.5598 124.3829,-37.5595 173.8634 -76.5732c 2.8892,-2.2780 6.4613,-3.5169 10.1405 -3.5169c 91.4859,-0.0000 182.9719,-0.0000 274.4577 -0.0000c 7.0427,-0.0000 13.2969,4.5023 15.5316 11.1811c 31.8298,95.1293 63.6597,190.2586 95.4894 285.3879c 0.5747,1.7176 0.8492,3.4696 0.8492 5.1959c 0.0000,6.2119 -3.5540,12.0917 -9.4613 14.8453c -154.7613,72.1395 -309.5227,144.2789 -464.2840 216.4184c -2.1669,1.0101 -4.5287,1.5335 -6.9195 1.5335c -50.3925,-0.0000 -100.7849,-0.0000 -151.1774 -0.0000c -50.3925,-0.0000 -100.7849,-0.0000 -151.1774 -0.0000c -2.3908,-0.0000 -4.7526,-0.5234 -6.9195 -1.5335c -154.7613,-72.1395 -309.5227,-144.2789 -464.2840 -216.4184c -5.9073,-2.7536 -9.4613,-8.6334 -9.4613 -14.8453ZM 18.4595,1408.8743 c 0.0000,3.1311 2.5382,5.6693 5.6693 5.6693c 3.1310,-0.0000 5.6693,-2.5382 5.6693 -5.6693c 0.0000,-3.1310 -2.5382,-5.6693 -5.6693 -5.6693c -3.1311,-0.0000 -5.6693,2.5382 -5.6693 5.6693ZM 35.6650,1397.2488 c 2.9901,2.9673 4.8417,7.0801 4.8417 11.6255c 0.0000,3.9404 -1.3916,7.5558 -3.7100 10.3815c 1.2809,1.2215 2.8105,2.2498 4.5550 3.0109c 144.7230,63.1384 289.4461,126.2767 434.1691 189.4151c 2.6051,-1.7476 5.7398,-2.7670 9.1125 -2.7670c 6.0622,-0.0000 11.3550,3.2936 14.1869 8.1890c 45.6634,-0.0000 91.3270,-0.0000 136.9905 -0.0000c 45.6635,-0.0000 91.3270,-0.0000 136.9905 -0.0000c 2.8319,-4.8954 8.1247,-8.1890 14.1869 -8.1890c 3.3727,-0.0000 6.5073,1.0195 9.1125 2.7670c 144.7230,-63.1384 289.4461,-126.2767 434.1691 -189.4151c 1.7445,-0.7611 3.2742,-1.7894 4.5550 -3.0109c -2.3184,-2.8258 -3.7100,-6.4412 -3.7100 -10.3815c 0.0000,-4.5453 1.8516,-8.6582 4.8417 -11.6255c -29.5554,-82.6730 -59.1110,-165.3460 -88.6665 -248.0190c -0.3854,-1.0780 -0.8960,-2.0926 -1.5135 -3.0316c -2.9318,-1.2061 -5.4366,-3.2382 -7.2245 -5.8068c -1.8895,-0.7489 -3.9550,-1.1570 -6.0968 -1.1570c -87.3815,-0.0000 -174.7631,-0.0000 -262.1447 -0.0000c -3.5142,-0.0000 -6.9260,1.1075 -9.6856 3.1439c -43.6229,32.1916 -95.3543,55.2331 -151.8361 66.0130c -0.8758,8.2199 -7.8327,14.6227 -16.2850 14.6227c -4.4006,-0.0000 -8.3959,-1.7356 -11.3386 -4.5595c 0.0000,7.9240 0.0000,15.8481 0.0000 23.7721c 0.0000,4.1747 -3.3843,7.5591 -7.5591 7.5591c -9.4488,-0.0000 -18.8976,-0.0000 -28.3464 -0.0000c 0.0000,-0.3150 0.0000,-0.6299 0.0000 -0.9449c -1.2598,-0.0000 -2.5197,-0.0000 -3.7796 -0.0000c 0.0000,-1.2598 0.0000,-2.5197 0.0000 -3.7796c 1.2598,-0.0000 2.5197,-0.0000 3.7796 -0.0000c 0.0000,-1.2598 0.0000,-2.5197 0.0000 -3.7795c -1.2598,-0.0000 -2.5197,-0.0000 -3.7796 -0.0000c 0.0000,-1.2598 0.0000,-2.5197 0.0000 -3.7796c 1.2598,-0.0000 2.5197,-0.0000 3.7796 -0.0000c 0.0000,-1.2598 0.0000,-2.5197 0.0000 -3.7795c -1.2598,-0.0000 -2.5197,-0.0000 -3.7796 -0.0000c 0.0000,-1.2598 0.0000,-2.5197 0.0000 -3.7796c 1.2598,-0.0000 2.5197,-0.0000 3.7796 -0.0000c 0.0000,-1.2598 0.0000,-2.5197 0.0000 -3.7795c -1.2598,-0.0000 -2.5197,-0.0000 -3.7796 -0.0000c 0.0000,-1.2598 0.0000,-2.5197 0.0000 -3.7796c 1.2598,-0.0000 2.5197,-0.0000 3.7796 -0.0000c 0.0000,-1.2598 0.0000,-2.5197 0.0000 -3.7795c -6.2992,-0.0000 -12.5984,-0.0000 -18.8977 -0.0000c 0.0000,0.3376 0.0000,0.6752 0.0000 1.0127c 0.0000,0.9223 0.0000,1.8446 0.0000 2.7668c 1.2598,-0.0000 2.5197,-0.0000 3.7796 -0.0000c 0.0000,1.2598 0.0000,2.5197 0.0000 3.7796c -1.2598,-0.0000 -2.5197,-0.0000 -3.7796 -0.0000c 0.0000,0.3376 0.0000,0.6752 0.0000 1.0127c 0.0000,0.9223 0.0000,1.8446 0.0000 2.7668c 1.2598,-0.0000 2.5197,-0.0000 3.7796 -0.0000c 0.0000,1.2598 0.0000,2.5197 0.0000 3.7796c -1.2598,-0.0000 -2.5197,-0.0000 -3.7796 -0.0000c 0.0000,0.3376 0.0000,0.6752 0.0000 1.0127c 0.0000,0.9223 0.0000,1.8446 0.0000 2.7668c 1.2598,-0.0000 2.5197,-0.0000 3.7796 -0.0000c 0.0000,1.2598 0.0000,2.5197 0.0000 3.7796c -1.2598,-0.0000 -2.5197,-0.0000 -3.7796 -0.0000c 0.0000,0.3376 0.0000,0.6752 0.0000 1.0127c 0.0000,0.9223 0.0000,1.8446 0.0000 2.7668c 1.2598,-0.0000 2.5197,-0.0000 3.7796 -0.0000c 0.0000,1.2598 0.0000,2.5197 0.0000 3.7796c -1.2598,-0.0000 -2.5197,-0.0000 -3.7796 -0.0000c 0.0000,0.3150 0.0000,0.6299 0.0000 0.9449c -9.4488,-0.0000 -18.8976,-0.0000 -28.3464 -0.0000c -4.1747,-0.0000 -7.5591,-3.3843 -7.5591 -7.5591c 0.0000,-1.3775 0.0000,-2.7550 0.0000 -4.1325c 0.0000,-6.5465 0.0000,-13.0930 0.0000 -19.6395c -2.9427,2.8240 -6.9380,4.5595 -11.3386 4.5595c -8.4523,-0.0000 -15.4092,-6.4028 -16.2850 -14.6227c -56.4819,-10.7799 -108.2132,-33.8213 -151.8361 -66.0130c -2.7596,-2.0364 -6.1714,-3.1439 -9.6856 -3.1439c -87.3815,-0.0000 -174.7631,-0.0000 -262.1447 -0.0000c -2.1418,-0.0000 -4.2073,0.4081 -6.0968 1.1570c -1.7879,2.5685 -4.2927,4.6007 -7.2245 5.8068c -0.6175,0.9389 -1.1281,1.9535 -1.5135 3.0315c -29.5555,82.6730 -59.1110,165.3460 -88.6665 248.0190ZM 113.9489,1131.0455 c 0.0000,3.1311 2.5382,5.6693 5.6693 5.6693c 3.1311,-0.0000 5.6693,-2.5382 5.6693 -5.6693c 0.0000,-3.1310 -2.5382,-5.6693 -5.6693 -5.6693c -3.1310,-0.0000 -5.6693,2.5382 -5.6693 5.6693ZM 478.9640,1625.2926 c 0.0000,3.1311 2.5382,5.6693 5.6693 5.6693c 3.1310,-0.0000 5.6693,-2.5382 5.6693 -5.6693c 0.0000,-3.1310 -2.5382,-5.6693 -5.6693 -5.6693c -3.1311,-0.0000 -5.6693,2.5382 -5.6693 5.6693ZM 573.4484,1206.6360 c 0.0000,3.1311 2.5382,5.6693 5.6693 5.6693c 3.1311,-0.0000 5.6693,-2.5382 5.6693 -5.6693c 0.0000,-3.1310 -2.5382,-5.6693 -5.6693 -5.6693c -3.1310,-0.0000 -5.6693,2.5382 -5.6693 5.6693ZM 686.8343,1206.6360 c 0.0000,3.1311 2.5382,5.6693 5.6693 5.6693c 3.1310,-0.0000 5.6693,-2.5382 5.6693 -5.6693c 0.0000,-3.1310 -2.5382,-5.6693 -5.6693 -5.6693c -3.1311,-0.0000 -5.6693,2.5382 -5.6693 5.6693ZM 781.3188,1625.2926 c 0.0000,3.1311 2.5382,5.6693 5.6693 5.6693c 3.1311,-0.0000 5.6693,-2.5382 5.6693 -5.6693c 0.0000,-3.1310 -2.5382,-5.6693 -5.6693 -5.6693c -3.1310,-0.0000 -5.6693,2.5382 -5.6693 5.6693ZM 1146.3338,1131.0455 c 0.0000,3.1311 2.5382,5.6693 5.6693 5.6693c 3.1310,-0.0000 5.6693,-2.5382 5.6693 -5.6693c 0.0000,-3.1310 -2.5382,-5.6693 -5.6693 -5.6693c -3.1311,-0.0000 -5.6693,2.5382 -5.6693 5.6693ZM 1241.8233,1408.8743 c 0.0000,3.1311 2.5382,5.6693 5.6693 5.6693c 3.1311,-0.0000 5.6693,-2.5382 5.6693 -5.6693c 0.0000,-3.1310 -2.5382,-5.6693 -5.6693 -5.6693c -3.1310,-0.0000 -5.6693,2.5382 -5.6693 5.6693Z"/></g><g stroke-linejoin="miter" stroke-opacity="1.0" fill-opacity="0.5" stroke="rgb(0,0,0)" stroke-width="0.37795275590551186" fill="rgb(0,0,0)" stroke-linecap="butt" stroke-miterlimit="10.0"><path d="M 3.9685,859.1932 c 0.0000,-1.7263 0.2744,-3.4783 0.8492 -5.1959c 31.8298,-95.1293 63.6596,-190.2586 95.4894 -285.3879c 2.2347,-6.6788 8.4889,-11.1811 15.5316 -11.1811c 91.4859,-0.0000 182.9718,-0.0000 274.4577 -0.0000c 3.6793,-0.0000 7.2513,1.2388 10.1405 3.5169c 64.7386,51.0442 146.5341,81.5225 235.3737 81.5225c 88.8396,-0.0000 170.6351,-30.4783 235.3737 -81.5225c 2.8892,-2.2780 6.4613,-3.5169 10.1405 -3.5169c 91.4859,-0.0000 182.9719,-0.0000 274.4577 -0.0000c 7.0427,-0.0000 13.2969,4.5023 15.5316 11.1811c 31.8298,95.1293 63.6597,190.2586 95.4894 285.3879c 0.5747,1.7176 0.8492,3.4696 0.8492 5.1959c 0.0000,6.2119 -3.5540,12.0917 -9.4613 14.8453c -154.7613,72.1395 -309.5227,144.2789 -464.2840 216.4184c -2.1669,1.0101 -4.5287,1.5335 -6.9195 1.5335c -50.3925,-0.0000 -100.7849,-0.0000 -151.1774 -0.0000c -50.3925,-0.0000 -100.7849,-0.0000 -151.1774 -0.0000c -2.3908,-0.0000 -4.7526,-0.5234 -6.9195 -1.5335c -154.7613,-72.1395 -309.5227,-144.2789 -464.2840 -216.4184c -5.9073,-2.7536 -9.4613,-8.6334 -9.4613 -14.8453ZM 18.4595,855.4145 c 0.0000,3.1311 2.5382,5.6693 5.6693 5.6693c 3.1310,-0.0000 5.6693,-2.5382 5.6693 -5.6693c 0.0000,-3.1310 -2.5382,-5.6693 -5.6693 -5.6693c -3.1311,-0.0000 -5.6693,2.5382 -5.6693 5.6693ZM 54.6742,848.1725 c 0.9711,0.3250 1.9421,0.6499 2.9132 0.9748c -0.3919,1.1714 -0.7839,2.3428 -1.1758 3.5142c 16.6905,5.5845 33.3810,11.1691 50.0715 16.7537c 0.3919,-1.1714 0.7839,-2.3428 1.1758 -3.5142c 0.9710,0.3249 1.9421,0.6499 2.9132 0.9748c 1.3992,-4.1817 2.7983,-8.3634 4.1975 -12.5451c -0.9711,-0.3250 -1.9422,-0.6499 -2.9133 -0.9748c 2.0024,-5.9843 4.0047,-11.9687 6.0070 -17.9530c 0.9711,0.3249 1.9422,0.6498 2.9132 0.9748c 1.3992,-4.1817 2.7984,-8.3634 4.1975 -12.5451c -0.9711,-0.3249 -1.9421,-0.6498 -2.9132 -0.9748c 0.3919,-1.1713 0.7839,-2.3427 1.1758 -3.5141c -16.6905,-5.5845 -33.3810,-11.1691 -50.0715 -16.7537c -0.3919,1.1714 -0.7839,2.3428 -1.1758 3.5142c -0.9710,-0.3250 -1.9421,-0.6499 -2.9132 -0.9748c -1.3992,4.1817 -2.7984,8.3634 -4.1975 12.5451c 0.9711,0.3249 1.9422,0.6499 2.9132 0.9748c -2.0023,5.9843 -4.0046,11.9686 -6.0070 17.9530c -0.9711,-0.3249 -1.9422,-0.6499 -2.9132 -0.9748c -1.3992,4.1817 -2.7984,8.3634 -4.1975 12.5451ZM 77.4602,780.0725 c 0.9711,0.3249 1.9422,0.6498 2.9133 0.9748c -0.3919,1.1713 -0.7839,2.3427 -1.1758 3.5141c 16.6905,5.5846 33.3810,11.1691 50.0715 16.7537c 0.3919,-1.1714 0.7839,-2.3428 1.1758 -3.5141c 0.9711,0.3249 1.9422,0.6498 2.9133 0.9747c 1.3992,-4.1817 2.7983,-8.3634 4.1975 -12.5451c -0.9710,-0.3249 -1.9421,-0.6498 -2.9132 -0.9748c 2.0023,-5.9843 4.0047,-11.9686 6.0070 -17.9530c 0.9710,0.3249 1.9421,0.6499 2.9132 0.9748c 1.3992,-4.1817 2.7983,-8.3634 4.1975 -12.5451c -0.9711,-0.3249 -1.9422,-0.6499 -2.9132 -0.9748c 0.3919,-1.1714 0.7839,-2.3428 1.1758 -3.5142c -16.6905,-5.5845 -33.3810,-11.1691 -50.0715 -16.7537c -0.3919,1.1714 -0.7839,2.3428 -1.1758 3.5142c -0.9711,-0.3249 -1.9422,-0.6499 -2.9132 -0.9748c -1.3992,4.1817 -2.7984,8.3634 -4.1975 12.5451c 0.9711,0.3250 1.9421,0.6499 2.9132 0.9748c -2.0023,5.9843 -4.0046,11.9687 -6.0070 17.9530c -0.9710,-0.3249 -1.9421,-0.6498 -2.9132 -0.9748c -1.3992,4.1817 -2.7983,8.3634 -4.1975 12.5451ZM 100.2461,711.9723 c 0.9711,0.3249 1.9422,0.6499 2.9132 0.9748c -0.3919,1.1714 -0.7839,2.3428 -1.1758 3.5142c 16.6905,5.5845 33.3810,11.1691 50.0715 16.7536c 0.3919,-1.1713 0.7839,-2.3427 1.1758 -3.5141c 0.9711,0.3249 1.9421,0.6499 2.9132 0.9748c 1.3992,-4.1817 2.7984,-8.3634 4.1975 -12.5451c -0.9711,-0.3250 -1.9422,-0.6499 -2.9132 -0.9748c 2.0023,-5.9843 4.0046,-11.9687 6.0070 -17.9530c 0.9711,0.3249 1.9422,0.6498 2.9133 0.9748c 1.3992,-4.1817 2.7983,-8.3634 4.1975 -12.5451c -0.9710,-0.3249 -1.9421,-0.6498 -2.9132 -0.9748c 0.3919,-1.1714 0.7839,-2.3427 1.1758 -3.5141c -16.6905,-5.5846 -33.3810,-11.1691 -50.0715 -16.7537c -0.3919,1.1714 -0.7839,2.3428 -1.1758 3.5141c -0.9710,-0.3249 -1.9421,-0.6498 -2.9132 -0.9748c -1.3992,4.1817 -2.7983,8.3634 -4.1975 12.5451c 0.9711,0.3249 1.9422,0.6498 2.9133 0.9748c -2.0024,5.9843 -4.0047,11.9686 -6.0070 17.9530c -0.9711,-0.3250 -1.9421,-0.6499 -2.9132 -0.9748c -1.3992,4.1817 -2.7984,8.3634 -4.1975 12.5451ZM 113.9489,577.5857 c 0.0000,3.1311 2.5382,5.6693 5.6693 5.6693c 3.1311,-0.0000 5.6693,-2.5382 5.6693 -5.6693c 0.0000,-3.1310 -2.5382,-5.6693 -5.6693 -5.6693c -3.1310,-0.0000 -5.6693,2.5382 -5.6693 5.6693ZM 123.0321,643.8722 c 0.9710,0.3250 1.9421,0.6499 2.9132 0.9748c -0.3919,1.1714 -0.7839,2.3428 -1.1758 3.5142c 16.6905,5.5845 33.3810,11.1691 50.0715 16.7537c 0.3919,-1.1714 0.7839,-2.3428 1.1758 -3.5142c 0.9710,0.3250 1.9421,0.6499 2.9132 0.9748c 1.3992,-4.1817 2.7983,-8.3634 4.1975 -12.5451c -0.9710,-0.3249 -1.9421,-0.6499 -2.9132 -0.9748c 2.0023,-5.9843 4.0047,-11.9686 6.0070 -17.9530c 0.9711,0.3249 1.9421,0.6499 2.9132 0.9748c 1.3992,-4.1817 2.7984,-8.3634 4.1975 -12.5451c -0.9711,-0.3250 -1.9422,-0.6499 -2.9132 -0.9748c 0.3919,-1.1714 0.7839,-2.3428 1.1758 -3.5142c -16.6905,-5.5845 -33.3810,-11.1691 -50.0715 -16.7537c -0.3919,1.1714 -0.7839,2.3428 -1.1758 3.5142c -0.9711,-0.3250 -1.9421,-0.6499 -2.9132 -0.9748c -1.3992,4.1817 -2.7984,8.3634 -4.1975 12.5451c 0.9711,0.3249 1.9422,0.6499 2.9132 0.9748c -2.0023,5.9843 -4.0046,11.9686 -6.0070 17.9530c -0.9711,-0.3249 -1.9422,-0.6499 -2.9133 -0.9748c -1.3992,4.1817 -2.7983,8.3634 -4.1975 12.5451ZM 123.9736,867.3743 c 0.9710,0.3249 1.9421,0.6499 2.9132 0.9748c -0.3919,1.1714 -0.7839,2.3428 -1.1758 3.5142c 16.6905,5.5845 33.3810,11.1691 50.0715 16.7536c 0.3919,-1.1713 0.7839,-2.3427 1.1758 -3.5141c 0.9710,0.3249 1.9421,0.6499 2.9132 0.9748c 1.3992,-4.1817 2.7983,-8.3634 4.1975 -12.5451c -0.9711,-0.3250 -1.9422,-0.6499 -2.9133 -0.9748c 2.0024,-5.9843 4.0047,-11.9687 6.0070 -17.9530c 0.9711,0.3249 1.9422,0.6498 2.9132 0.9748c 1.3992,-4.1817 2.7984,-8.3634 4.1975 -12.5451c -0.9711,-0.3249 -1.9421,-0.6498 -2.9132 -0.9748c 0.3919,-1.1714 0.7839,-2.3427 1.1758 -3.5141c -16.6905,-5.5845 -33.3810,-11.1691 -50.0715 -16.7537c -0.3919,1.1714 -0.7839,2.3428 -1.1758 3.5141c -0.9710,-0.3249 -1.9421,-0.6498 -2.9132 -0.9747c -1.3992,4.1817 -2.7984,8.3634 -4.1975 12.5451c 0.9711,0.3249 1.9422,0.6498 2.9132 0.9748c -2.0023,5.9843 -4.0046,11.9686 -6.0070 17.9530c -0.9711,-0.3250 -1.9422,-0.6499 -2.9132 -0.9748c -1.3992,4.1817 -2.7984,8.3634 -4.1975 12.5451ZM 146.7595,799.2742 c 0.9711,0.3249 1.9422,0.6498 2.9133 0.9747c -0.3919,1.1714 -0.7839,2.3428 -1.1758 3.5142c 16.6905,5.5845 33.3810,11.1691 50.0715 16.7537c 0.3919,-1.1714 0.7839,-2.3428 1.1758 -3.5142c 0.9711,0.3250 1.9422,0.6499 2.9133 0.9748c 1.3992,-4.1817 2.7983,-8.3634 4.1975 -12.5451c -0.9710,-0.3249 -1.9421,-0.6499 -2.9132 -0.9748c 2.0023,-5.9843 4.0047,-11.9686 6.0070 -17.9530c 0.9710,0.3249 1.9421,0.6499 2.9132 0.9748c 1.3992,-4.1817 2.7983,-8.3634 4.1975 -12.5451c -0.9711,-0.3250 -1.9422,-0.6499 -2.9133 -0.9748c 0.3919,-1.1714 0.7839,-2.3428 1.1758 -3.5142c -16.6905,-5.5845 -33.3810,-11.1691 -50.0715 -16.7537c -0.3919,1.1714 -0.7839,2.3428 -1.1758 3.5142c -0.9711,-0.3249 -1.9422,-0.6499 -2.9132 -0.9748c -1.3992,4.1817 -2.7984,8.3634 -4.1975 12.5451c 0.9710,0.3250 1.9421,0.6499 2.9132 0.9748c -2.0023,5.9843 -4.0046,11.9686 -6.0070 17.9530c -0.9710,-0.3249 -1.9421,-0.6498 -2.9132 -0.9748c -1.3992,4.1817 -2.7983,8.3634 -4.1975 12.5451ZM 169.5455,731.1741 c 0.9711,0.3249 1.9421,0.6499 2.9132 0.9748c -0.3919,1.1714 -0.7839,2.3428 -1.1758 3.5141c 16.6905,5.5846 33.3810,11.1691 50.0715 16.7537c 0.3919,-1.1714 0.7839,-2.3427 1.1758 -3.5141c 0.9711,0.3249 1.9421,0.6498 2.9132 0.9748c 1.3992,-4.1817 2.7984,-8.3634 4.1975 -12.5451c -0.9711,-0.3249 -1.9422,-0.6498 -2.9132 -0.9748c 2.0023,-5.9843 4.0046,-11.9686 6.0070 -17.9530c 0.9711,0.3250 1.9422,0.6499 2.9133 0.9748c 1.3992,-4.1817 2.7983,-8.3634 4.1975 -12.5451c -0.9710,-0.3249 -1.9421,-0.6499 -2.9132 -0.9748c 0.3919,-1.1714 0.7839,-2.3428 1.1758 -3.5141c -16.6905,-5.5846 -33.3810,-11.1691 -50.0715 -16.7537c -0.3919,1.1714 -0.7839,2.3427 -1.1758 3.5141c -0.9710,-0.3249 -1.9421,-0.6498 -2.9132 -0.9748c -1.3992,4.1817 -2.7983,8.3634 -4.1975 12.5451c 0.9711,0.3249 1.9422,0.6498 2.9133 0.9748c -2.0024,5.9843 -4.0047,11.9686 -6.0070 17.9530c -0.9711,-0.3250 -1.9422,-0.6499 -2.9132 -0.9748c -1.3992,4.1817 -2.7984,8.3634 -4.1975 12.5451ZM 192.3315,663.0740 c 0.9710,0.3250 1.9421,0.6499 2.9132 0.9748c -0.3919,1.1714 -0.7839,2.3428 -1.1758 3.5142c 16.6905,5.5845 33.3810,11.1691 50.0715 16.7537c 0.3919,-1.1714 0.7839,-2.3428 1.1758 -3.5142c 0.9710,0.3249 1.9421,0.6499 2.9132 0.9748c 1.3992,-4.1817 2.7983,-8.3634 4.1975 -12.5451c -0.9710,-0.3250 -1.9421,-0.6499 -2.9132 -0.9748c 2.0023,-5.9843 4.0047,-11.9687 6.0070 -17.9530c 0.9711,0.3249 1.9421,0.6498 2.9132 0.9748c 1.3992,-4.1817 2.7984,-8.3634 4.1975 -12.5451c -0.9711,-0.3249 -1.9422,-0.6498 -2.9132 -0.9747c 0.3919,-1.1714 0.7839,-2.3428 1.1758 -3.5142c -16.6905,-5.5845 -33.3810,-11.1691 -50.0715 -16.7537c -0.3919,1.1714 -0.7839,2.3428 -1.1758 3.5142c -0.9711,-0.3250 -1.9422,-0.6499 -2.9132 -0.9748c -1.3992,4.1817 -2.7984,8.3634 -4.1975 12.5451c 0.9711,0.3249 1.9421,0.6499 2.9132 0.9748c -2.0023,5.9843 -4.0046,11.9686 -6.0070 17.9530c -0.9711,-0.3249 -1.9422,-0.6499 -2.9133 -0.9748c -1.3992,4.1817 -2.7983,8.3634 -4.1975 12.5451ZM 195.6714,879.4076 c 0.9711,0.3250 1.9422,0.6499 2.9133 0.9748c -0.3919,1.1714 -0.7839,2.3428 -1.1758 3.5142c 16.6905,5.5845 33.3810,11.1691 50.0715 16.7537c 0.3919,-1.1714 0.7839,-2.3428 1.1758 -3.5142c 0.9711,0.3250 1.9422,0.6499 2.9133 0.9748c 1.3992,-4.1817 2.7983,-8.3634 4.1975 -12.5451c -0.9710,-0.3249 -1.9421,-0.6499 -2.9132 -0.9748c 2.0023,-5.9843 4.0047,-11.9686 6.0070 -17.9530c 0.9710,0.3249 1.9421,0.6499 2.9132 0.9748c 1.3992,-4.1817 2.7984,-8.3634 4.1975 -12.5451c -0.9711,-0.3250 -1.9422,-0.6499 -2.9132 -0.9748c 0.3919,-1.1714 0.7839,-2.3428 1.1758 -3.5142c -16.6905,-5.5845 -33.3810,-11.1691 -50.0715 -16.7537c -0.3919,1.1714 -0.7839,2.3428 -1.1758 3.5142c -0.9711,-0.3250 -1.9422,-0.6499 -2.9132 -0.9748c -1.3992,4.1817 -2.7984,8.3634 -4.1975 12.5451c 0.9711,0.3249 1.9421,0.6499 2.9132 0.9748c -2.0023,5.9843 -4.0046,11.9686 -6.0070 17.9530c -0.9710,-0.3249 -1.9421,-0.6499 -2.9132 -0.9748c -1.3992,4.1817 -2.7983,8.3634 -4.1975 12.5451ZM 218.4574,811.3075 c 0.9711,0.3249 1.9422,0.6498 2.9132 0.9748c -0.3919,1.1714 -0.7839,2.3427 -1.1758 3.5141c 16.6905,5.5846 33.3810,11.1691 50.0715 16.7537c 0.3919,-1.1714 0.7839,-2.3428 1.1758 -3.5141c 0.9711,0.3249 1.9421,0.6498 2.9132 0.9748c 1.3992,-4.1817 2.7984,-8.3634 4.1975 -12.5451c -0.9711,-0.3249 -1.9422,-0.6498 -2.9132 -0.9748c 2.0023,-5.9843 4.0046,-11.9686 6.0070 -17.9530c 0.9711,0.3250 1.9422,0.6499 2.9133 0.9748c 1.3992,-4.1817 2.7983,-8.3634 4.1975 -12.5451c -0.9710,-0.3249 -1.9421,-0.6499 -2.9132 -0.9748c 0.3919,-1.1714 0.7839,-2.3428 1.1758 -3.5142c -16.6905,-5.5845 -33.3810,-11.1691 -50.0715 -16.7536c -0.3919,1.1713 -0.7839,2.3427 -1.1758 3.5141c -0.9710,-0.3249 -1.9421,-0.6498 -2.9132 -0.9748c -1.3992,4.1817 -2.7983,8.3634 -4.1975 12.5451c 0.9711,0.3250 1.9422,0.6499 2.9133 0.9748c -2.0024,5.9843 -4.0047,11.9687 -6.0070 17.9530c -0.9711,-0.3249 -1.9422,-0.6498 -2.9132 -0.9748c -1.3992,4.1817 -2.7984,8.3634 -4.1975 12.5451ZM 241.2434,743.2074 c 0.9710,0.3249 1.9421,0.6499 2.9132 0.9748c -0.3919,1.1714 -0.7839,2.3428 -1.1758 3.5142c 16.6905,5.5845 33.3810,11.1691 50.0715 16.7537c 0.3919,-1.1714 0.7839,-2.3428 1.1758 -3.5142c 0.9710,0.3249 1.9421,0.6499 2.9132 0.9748c 1.3992,-4.1817 2.7983,-8.3634 4.1975 -12.5451c -0.9711,-0.3250 -1.9422,-0.6499 -2.9133 -0.9748c 2.0024,-5.9843 4.0047,-11.9687 6.0070 -17.9530c 0.9711,0.3249 1.9421,0.6498 2.9132 0.9748c 1.3992,-4.1817 2.7984,-8.3634 4.1975 -12.5451c -0.9711,-0.3249 -1.9422,-0.6498 -2.9132 -0.9748c 0.3919,-1.1713 0.7839,-2.3427 1.1758 -3.5141c -16.6905,-5.5846 -33.3810,-11.1691 -50.0715 -16.7537c -0.3919,1.1714 -0.7839,2.3428 -1.1758 3.5142c -0.9711,-0.3250 -1.9421,-0.6499 -2.9132 -0.9748c -1.3992,4.1817 -2.7984,8.3634 -4.1975 12.5451c 0.9711,0.3249 1.9422,0.6499 2.9132 0.9748c -2.0023,5.9843 -4.0046,11.9686 -6.0070 17.9530c -0.9711,-0.3249 -1.9422,-0.6499 -2.9133 -0.9748c -1.3992,4.1817 -2.7983,8.3634 -4.1975 12.5451ZM 264.0293,675.1074 c 0.9711,0.3249 1.9422,0.6498 2.9132 0.9748c -0.3919,1.1713 -0.7839,2.3427 -1.1758 3.5141c 16.6905,5.5845 33.3810,11.1691 50.0715 16.7537c 0.3919,-1.1714 0.7839,-2.3428 1.1758 -3.5142c 0.9711,0.3250 1.9422,0.6499 2.9132 0.9748c 1.3992,-4.1817 2.7984,-8.3634 4.1975 -12.5451c -0.9711,-0.3249 -1.9421,-0.6499 -2.9132 -0.9748c 2.0023,-5.9843 4.0046,-11.9686 6.0070 -17.9530c 0.9710,0.3249 1.9421,0.6499 2.9132 0.9748c 1.3992,-4.1817 2.7983,-8.3634 4.1975 -12.5451c -0.9711,-0.3250 -1.9422,-0.6499 -2.9133 -0.9748c 0.3919,-1.1714 0.7839,-2.3428 1.1758 -3.5142c -16.6905,-5.5845 -33.3810,-11.1691 -50.0715 -16.7537c -0.3919,1.1714 -0.7839,2.3428 -1.1758 3.5142c -0.9711,-0.3249 -1.9422,-0.6499 -2.9133 -0.9748c -1.3992,4.1817 -2.7983,8.3634 -4.1975 12.5451c 0.9710,0.3250 1.9421,0.6499 2.9132 0.9748c -2.0023,5.9843 -4.0047,11.9687 -6.0070 17.9530c -0.9711,-0.3249 -1.9421,-0.6498 -2.9132 -0.9748c -1.3992,4.1817 -2.7983,8.3634 -4.1975 12.5451ZM 269.7678,884.2725 c 0.9710,0.3249 1.9421,0.6499 2.9132 0.9748c -0.3919,1.1714 -0.7839,2.3428 -1.1758 3.5142c 16.6905,5.5845 33.3810,11.1691 50.0715 16.7537c 0.3919,-1.1714 0.7839,-2.3428 1.1758 -3.5142c 0.9710,0.3249 1.9421,0.6499 2.9132 0.9748c 1.3992,-4.1817 2.7983,-8.3634 4.1975 -12.5451c -0.9711,-0.3250 -1.9422,-0.6499 -2.9132 -0.9748c 2.0023,-5.9843 4.0046,-11.9687 6.0070 -17.9530c 0.9711,0.3249 1.9422,0.6498 2.9132 0.9748c 1.3992,-4.1817 2.7984,-8.3634 4.1975 -12.5451c -0.9711,-0.3249 -1.9421,-0.6498 -2.9132 -0.9748c 0.3919,-1.1714 0.7839,-2.3427 1.1758 -3.5141c -16.6905,-5.5845 -33.3810,-11.1691 -50.0715 -16.7537c -0.3919,1.1714 -0.7839,2.3428 -1.1758 3.5141c -0.9711,-0.3249 -1.9421,-0.6498 -2.9132 -0.9747c -1.3992,4.1817 -2.7984,8.3634 -4.1975 12.5451c 0.9711,0.3249 1.9422,0.6498 2.9132 0.9748c -2.0023,5.9843 -4.0046,11.9686 -6.0070 17.9530c -0.9711,-0.3250 -1.9422,-0.6499 -2.9132 -0.9748c -1.3992,4.1817 -2.7984,8.3634 -4.1975 12.5451ZM 292.5538,816.1724 c 0.9711,0.3249 1.9422,0.6498 2.9133 0.9747c -0.3919,1.1714 -0.7839,2.3428 -1.1758 3.5142c 16.6905,5.5845 33.3810,11.1691 50.0715 16.7537c 0.3919,-1.1714 0.7839,-2.3428 1.1758 -3.5142c 0.9711,0.3250 1.9422,0.6499 2.9132 0.9748c 1.3992,-4.1817 2.7984,-8.3634 4.1975 -12.5451c -0.9710,-0.3249 -1.9421,-0.6499 -2.9132 -0.9748c 2.0023,-5.9843 4.0047,-11.9686 6.0070 -17.9530c 0.9710,0.3249 1.9421,0.6499 2.9132 0.9748c 1.3992,-4.1817 2.7984,-8.3634 4.1975 -12.5451c -0.9711,-0.3250 -1.9422,-0.6499 -2.9132 -0.9748c 0.3919,-1.1714 0.7839,-2.3428 1.1758 -3.5142c -16.6905,-5.5845 -33.3810,-11.1691 -50.0715 -16.7537c -0.3919,1.1714 -0.7839,2.3428 -1.1758 3.5142c -0.9711,-0.3249 -1.9422,-0.6499 -2.9132 -0.9748c -1.3992,4.1817 -2.7984,8.3634 -4.1975 12.5451c 0.9710,0.3250 1.9421,0.6499 2.9132 0.9748c -2.0023,5.9843 -4.0046,11.9686 -6.0070 17.9530c -0.9710,-0.3249 -1.9421,-0.6498 -2.9132 -0.9748c -1.3992,4.1817 -2.7983,8.3634 -4.1975 12.5451ZM 315.3398,748.0723 c 0.9711,0.3249 1.9421,0.6499 2.9132 0.9748c -0.3919,1.1714 -0.7839,2.3428 -1.1758 3.5141c 16.6905,5.5846 33.3810,11.1691 50.0715 16.7537c 0.3919,-1.1714 0.7839,-2.3427 1.1758 -3.5141c 0.9711,0.3249 1.9421,0.6498 2.9132 0.9748c 1.3992,-4.1817 2.7984,-8.3634 4.1975 -12.5451c -0.9711,-0.3249 -1.9422,-0.6498 -2.9132 -0.9748c 2.0023,-5.9843 4.0046,-11.9686 6.0070 -17.9530c 0.9711,0.3250 1.9422,0.6499 2.9133 0.9748c 1.3992,-4.1817 2.7983,-8.3634 4.1975 -12.5451c -0.9710,-0.3249 -1.9421,-0.6499 -2.9132 -0.9748c 0.3919,-1.1714 0.7839,-2.3428 1.1758 -3.5141c -16.6905,-5.5846 -33.3810,-11.1691 -50.0715 -16.7537c -0.3919,1.1714 -0.7839,2.3427 -1.1758 3.5141c -0.9710,-0.3249 -1.9421,-0.6498 -2.9132 -0.9748c -1.3992,4.1817 -2.7983,8.3634 -4.1975 12.5451c 0.9711,0.3249 1.9422,0.6498 2.9133 0.9748c -2.0024,5.9843 -4.0047,11.9686 -6.0070 17.9530c -0.9711,-0.3250 -1.9422,-0.6499 -2.9132 -0.9748c -1.3992,4.1817 -2.7984,8.3634 -4.1975 12.5451ZM 330.6723,928.5638 c 0.9711,0.3250 1.9422,0.6499 2.9133 0.9748c -0.3919,1.1714 -0.7839,2.3428 -1.1758 3.5142c 16.6905,5.5845 33.3810,11.1691 50.0715 16.7537c 0.3919,-1.1714 0.7839,-2.3428 1.1758 -3.5142c 0.9711,0.3250 1.9422,0.6499 2.9132 0.9748c 1.3992,-4.1817 2.7984,-8.3634 4.1975 -12.5451c -0.9710,-0.3249 -1.9421,-0.6499 -2.9132 -0.9748c 2.0023,-5.9843 4.0046,-11.9686 6.0070 -17.9530c 0.9710,0.3249 1.9421,0.6499 2.9132 0.9748c 1.3992,-4.1817 2.7983,-8.3634 4.1975 -12.5451c -0.9711,-0.3249 -1.9422,-0.6498 -2.9133 -0.9747c 0.3919,-1.1714 0.7839,-2.3428 1.1758 -3.5142c -16.6905,-5.5845 -33.3810,-11.1691 -50.0715 -16.7537c -0.3919,1.1714 -0.7839,2.3428 -1.1758 3.5142c -0.9711,-0.3250 -1.9422,-0.6499 -2.9133 -0.9748c -1.3992,4.1817 -2.7983,8.3634 -4.1975 12.5451c 0.9710,0.3249 1.9421,0.6499 2.9132 0.9748c -2.0023,5.9843 -4.0046,11.9686 -6.0070 17.9530c -0.9710,-0.3249 -1.9421,-0.6499 -2.9132 -0.9748c -1.3992,4.1817 -2.7983,8.3634 -4.1975 12.5451ZM 338.1258,679.9722 c 0.9710,0.3250 1.9421,0.6499 2.9132 0.9748c -0.3919,1.1714 -0.7839,2.3428 -1.1758 3.5142c 16.6905,5.5845 33.3810,11.1691 50.0715 16.7537c 0.3919,-1.1714 0.7839,-2.3428 1.1758 -3.5142c 0.9711,0.3249 1.9422,0.6499 2.9133 0.9748c 1.3992,-4.1817 2.7983,-8.3634 4.1975 -12.5451c -0.9710,-0.3250 -1.9421,-0.6499 -2.9132 -0.9748c 2.0024,-5.9843 4.0047,-11.9687 6.0070 -17.9530c 0.9711,0.3249 1.9421,0.6498 2.9132 0.9748c 1.3992,-4.1817 2.7984,-8.3634 4.1975 -12.5451c -0.9711,-0.3249 -1.9422,-0.6498 -2.9132 -0.9747c 0.3919,-1.1714 0.7839,-2.3428 1.1758 -3.5142c -16.6905,-5.5845 -33.3810,-11.1691 -50.0715 -16.7537c -0.3919,1.1714 -0.7839,2.3428 -1.1758 3.5142c -0.9711,-0.3250 -1.9422,-0.6499 -2.9132 -0.9748c -1.3992,4.1817 -2.7984,8.3634 -4.1975 12.5451c 0.9711,0.3249 1.9421,0.6499 2.9132 0.9748c -2.0023,5.9843 -4.0046,11.9686 -6.0070 17.9530c -0.9711,-0.3249 -1.9422,-0.6499 -2.9133 -0.9748c -1.3992,4.1817 -2.7983,8.3634 -4.1975 12.5451ZM 353.4583,860.4637 c 0.9711,0.3249 1.9421,0.6498 2.9132 0.9748c -0.3919,1.1713 -0.7839,2.3427 -1.1758 3.5141c 16.6905,5.5846 33.3810,11.1691 50.0715 16.7537c 0.3919,-1.1714 0.7839,-2.3428 1.1758 -3.5141c 0.9711,0.3249 1.9421,0.6498 2.9132 0.9748c 1.3992,-4.1817 2.7984,-8.3634 4.1975 -12.5451c -0.9711,-0.3249 -1.9422,-0.6498 -2.9132 -0.9748c 2.0023,-5.9843 4.0046,-11.9686 6.0070 -17.9530c 0.9711,0.3250 1.9422,0.6499 2.9133 0.9748c 1.3992,-4.1817 2.7983,-8.3634 4.1975 -12.5451c -0.9710,-0.3249 -1.9421,-0.6499 -2.9132 -0.9748c 0.3919,-1.1714 0.7839,-2.3428 1.1758 -3.5142c -16.6905,-5.5845 -33.3810,-11.1691 -50.0715 -16.7537c -0.3919,1.1714 -0.7839,2.3428 -1.1758 3.5142c -0.9710,-0.3249 -1.9421,-0.6499 -2.9132 -0.9748c -1.3992,4.1817 -2.7983,8.3634 -4.1975 12.5451c 0.9711,0.3250 1.9422,0.6499 2.9133 0.9748c -2.0024,5.9843 -4.0047,11.9687 -6.0070 17.9530c -0.9711,-0.3249 -1.9422,-0.6498 -2.9132 -0.9748c -1.3992,4.1817 -2.7984,8.3634 -4.1975 12.5451ZM 376.2443,792.3636 c 0.9710,0.3249 1.9421,0.6499 2.9132 0.9748c -0.3919,1.1714 -0.7839,2.3428 -1.1758 3.5142c 16.6905,5.5845 33.3810,11.1691 50.0715 16.7537c 0.3919,-1.1714 0.7839,-2.3428 1.1758 -3.5142c 0.9711,0.3249 1.9422,0.6499 2.9133 0.9748c 1.3992,-4.1817 2.7983,-8.3634 4.1975 -12.5451c -0.9710,-0.3250 -1.9421,-0.6499 -2.9132 -0.9748c 2.0023,-5.9843 4.0047,-11.9687 6.0070 -17.9530c 0.9711,0.3249 1.9421,0.6498 2.9132 0.9748c 1.3992,-4.1817 2.7984,-8.3634 4.1975 -12.5451c -0.9711,-0.3249 -1.9422,-0.6498 -2.9132 -0.9748c 0.3919,-1.1714 0.7839,-2.3427 1.1758 -3.5141c -16.6905,-5.5845 -33.3810,-11.1691 -50.0715 -16.7537c -0.3919,1.1714 -0.7839,2.3428 -1.1758 3.5141c -0.9711,-0.3249 -1.9422,-0.6498 -2.9132 -0.9747c -1.3992,4.1817 -2.7984,8.3634 -4.1975 12.5451c 0.9711,0.3249 1.9421,0.6498 2.9132 0.9748c -2.0023,5.9843 -4.0046,11.9686 -6.0070 17.9530c -0.9711,-0.3250 -1.9422,-0.6499 -2.9133 -0.9748c -1.3992,4.1817 -2.7983,8.3634 -4.1975 12.5451ZM 392.7761,969.2708 c 0.9711,0.3249 1.9422,0.6498 2.9132 0.9748c -0.3919,1.1714 -0.7839,2.3427 -1.1758 3.5141c 16.6905,5.5846 33.3810,11.1691 50.0715 16.7537c 0.3919,-1.1714 0.7839,-2.3428 1.1758 -3.5141c 0.9711,0.3249 1.9422,0.6498 2.9132 0.9748c 1.3992,-4.1817 2.7984,-8.3634 4.1975 -12.5451c -0.9711,-0.3249 -1.9421,-0.6498 -2.9132 -0.9748c 2.0023,-5.9843 4.0046,-11.9686 6.0070 -17.9530c 0.9710,0.3250 1.9421,0.6499 2.9132 0.9748c 1.3992,-4.1817 2.7983,-8.3634 4.1975 -12.5451c -0.9711,-0.3249 -1.9422,-0.6499 -2.9133 -0.9748c 0.3919,-1.1714 0.7839,-2.3428 1.1758 -3.5141c -16.6905,-5.5846 -33.3810,-11.1691 -50.0715 -16.7537c -0.3919,1.1713 -0.7839,2.3427 -1.1758 3.5141c -0.9711,-0.3249 -1.9422,-0.6499 -2.9133 -0.9748c -1.3992,4.1817 -2.7983,8.3634 -4.1975 12.5451c 0.9710,0.3249 1.9421,0.6498 2.9132 0.9747c -2.0023,5.9843 -4.0047,11.9687 -6.0070 17.9530c -0.9711,-0.3249 -1.9421,-0.6498 -2.9132 -0.9747c -1.3992,4.1817 -2.7984,8.3634 -4.1975 12.5451ZM 399.0303,724.2635 c 0.9711,0.3250 1.9422,0.6499 2.9132 0.9748c -0.3919,1.1714 -0.7839,2.3428 -1.1758 3.5142c 16.6905,5.5845 33.3810,11.1691 50.0715 16.7537c 0.3919,-1.1714 0.7839,-2.3428 1.1758 -3.5142c 0.9711,0.3250 1.9422,0.6499 2.9132 0.9748c 1.3992,-4.1817 2.7984,-8.3634 4.1975 -12.5451c -0.9711,-0.3249 -1.9422,-0.6499 -2.9132 -0.9748c 2.0023,-5.9843 4.0046,-11.9686 6.0070 -17.9530c 0.9710,0.3249 1.9421,0.6499 2.9132 0.9748c 1.3992,-4.1817 2.7983,-8.3634 4.1975 -12.5451c -0.9710,-0.3250 -1.9421,-0.6499 -2.9132 -0.9748c 0.3919,-1.1714 0.7839,-2.3428 1.1758 -3.5142c -16.6905,-5.5845 -33.3810,-11.1691 -50.0715 -16.7537c -0.3919,1.1714 -0.7839,2.3428 -1.1758 3.5142c -0.9711,-0.3249 -1.9422,-0.6499 -2.9133 -0.9748c -1.3992,4.1817 -2.7983,8.3634 -4.1975 12.5451c 0.9710,0.3250 1.9421,0.6499 2.9132 0.9748c -2.0023,5.9843 -4.0047,11.9686 -6.0070 17.9530c -0.9711,-0.3249 -1.9421,-0.6498 -2.9132 -0.9748c -1.3992,4.1817 -2.7984,8.3634 -4.1975 12.5451ZM 415.5621,901.1707 c 0.9711,0.3250 1.9421,0.6499 2.9132 0.9748c -0.3919,1.1714 -0.7839,2.3428 -1.1758 3.5142c 16.6905,5.5845 33.3810,11.1691 50.0715 16.7537c 0.3919,-1.1714 0.7839,-2.3428 1.1758 -3.5142c 0.9710,0.3249 1.9421,0.6499 2.9132 0.9748c 1.3992,-4.1817 2.7983,-8.3634 4.1975 -12.5451c -0.9711,-0.3250 -1.9422,-0.6499 -2.9132 -0.9748c 2.0023,-5.9843 4.0046,-11.9687 6.0070 -17.9530c 0.9711,0.3249 1.9422,0.6498 2.9132 0.9748c 1.3992,-4.1817 2.7984,-8.3634 4.1975 -12.5451c -0.9711,-0.3249 -1.9421,-0.6498 -2.9132 -0.9748c 0.3919,-1.1713 0.7839,-2.3427 1.1758 -3.5141c -16.6905,-5.5845 -33.3810,-11.1691 -50.0715 -16.7537c -0.3919,1.1714 -0.7839,2.3428 -1.1758 3.5141c -0.9711,-0.3249 -1.9421,-0.6498 -2.9132 -0.9747c -1.3992,4.1817 -2.7984,8.3634 -4.1975 12.5451c 0.9711,0.3249 1.9422,0.6499 2.9132 0.9748c -2.0023,5.9843 -4.0046,11.9686 -6.0070 17.9530c -0.9711,-0.3249 -1.9422,-0.6499 -2.9132 -0.9748c -1.3992,4.1817 -2.7984,8.3634 -4.1975 12.5451ZM 438.3481,833.0707 c 0.9711,0.3249 1.9422,0.6498 2.9133 0.9748c -0.3919,1.1713 -0.7839,2.3427 -1.1758 3.5141c 16.6905,5.5845 33.3810,11.1691 50.0715 16.7537c 0.3919,-1.1714 0.7839,-2.3428 1.1758 -3.5142c 0.9711,0.3250 1.9422,0.6499 2.9133 0.9748c 1.3992,-4.1817 2.7983,-8.3634 4.1975 -12.5451c -0.9710,-0.3249 -1.9421,-0.6499 -2.9132 -0.9748c 2.0023,-5.9843 4.0047,-11.9686 6.0070 -17.9530c 0.9710,0.3249 1.9421,0.6499 2.9132 0.9748c 1.3992,-4.1817 2.7983,-8.3634 4.1975 -12.5451c -0.9711,-0.3250 -1.9422,-0.6499 -2.9132 -0.9748c 0.3919,-1.1714 0.7839,-2.3428 1.1758 -3.5142c -16.6905,-5.5845 -33.3810,-11.1691 -50.0715 -16.7537c -0.3919,1.1714 -0.7839,2.3428 -1.1758 3.5142c -0.9711,-0.3249 -1.9422,-0.6499 -2.9132 -0.9748c -1.3992,4.1817 -2.7984,8.3634 -4.1975 12.5451c 0.9711,0.3250 1.9421,0.6499 2.9132 0.9748c -2.0023,5.9843 -4.0046,11.9686 -6.0070 17.9530c -0.9710,-0.3249 -1.9421,-0.6498 -2.9132 -0.9748c -1.3992,4.1817 -2.7983,8.3634 -4.1975 12.5451ZM 449.4833,1026.1069 c 0.9710,0.3249 1.9421,0.6498 2.9132 0.9748c -0.3919,1.1713 -0.7839,2.3427 -1.1758 3.5141c 16.6905,5.5846 33.3810,11.1691 50.0715 16.7537c 0.3919,-1.1714 0.7839,-2.3428 1.1758 -3.5141c 0.9710,0.3249 1.9421,0.6498 2.9132 0.9747c 1.3992,-4.1817 2.7983,-8.3634 4.1975 -12.5451c -0.9710,-0.3249 -1.9421,-0.6498 -2.9132 -0.9748c 2.0023,-5.9843 4.0047,-11.9686 6.0070 -17.9530c 0.9711,0.3250 1.9421,0.6499 2.9132 0.9748c 1.3992,-4.1817 2.7984,-8.3634 4.1975 -12.5451c -0.9711,-0.3249 -1.9422,-0.6499 -2.9132 -0.9748c 0.3919,-1.1714 0.7839,-2.3428 1.1758 -3.5142c -16.6905,-5.5845 -33.3810,-11.1691 -50.0715 -16.7537c -0.3919,1.1714 -0.7839,2.3428 -1.1758 3.5142c -0.9711,-0.3249 -1.9422,-0.6499 -2.9132 -0.9748c -1.3992,4.1817 -2.7984,8.3634 -4.1975 12.5451c 0.9711,0.3250 1.9421,0.6499 2.9132 0.9748c -2.0023,5.9843 -4.0046,11.9687 -6.0070 17.9530c -0.9711,-0.3249 -1.9422,-0.6498 -2.9133 -0.9748c -1.3992,4.1817 -2.7983,8.3634 -4.1975 12.5451ZM 461.1341,764.9705 c 0.9711,0.3249 1.9422,0.6499 2.9132 0.9748c -0.3919,1.1714 -0.7839,2.3428 -1.1758 3.5141c 16.6905,5.5846 33.3810,11.1691 50.0715 16.7537c 0.3919,-1.1713 0.7839,-2.3427 1.1758 -3.5141c 0.9711,0.3249 1.9421,0.6498 2.9132 0.9748c 1.3992,-4.1817 2.7984,-8.3634 4.1975 -12.5451c -0.9711,-0.3249 -1.9422,-0.6498 -2.9132 -0.9748c 2.0023,-5.9843 4.0046,-11.9686 6.0070 -17.9530c 0.9711,0.3250 1.9422,0.6499 2.9132 0.9748c 1.3992,-4.1817 2.7984,-8.3634 4.1975 -12.5451c -0.9710,-0.3249 -1.9421,-0.6499 -2.9132 -0.9748c 0.3919,-1.1714 0.7839,-2.3428 1.1758 -3.5141c -16.6905,-5.5846 -33.3810,-11.1691 -50.0715 -16.7537c -0.3919,1.1714 -0.7839,2.3427 -1.1758 3.5141c -0.9710,-0.3249 -1.9421,-0.6498 -2.9132 -0.9748c -1.3992,4.1817 -2.7983,8.3634 -4.1975 12.5451c 0.9711,0.3249 1.9422,0.6498 2.9133 0.9748c -2.0024,5.9843 -4.0047,11.9686 -6.0070 17.9530c -0.9711,-0.3250 -1.9422,-0.6499 -2.9132 -0.9748c -1.3992,4.1817 -2.7984,8.3634 -4.1975 12.5451ZM 472.2692,958.0067 c 0.9711,0.3249 1.9422,0.6499 2.9132 0.9748c -0.3919,1.1714 -0.7839,2.3428 -1.1758 3.5142c 16.6905,5.5845 33.3810,11.1691 50.0715 16.7536c 0.3919,-1.1713 0.7839,-2.3427 1.1758 -3.5141c 0.9711,0.3249 1.9422,0.6499 2.9132 0.9748c 1.3992,-4.1817 2.7984,-8.3634 4.1975 -12.5451c -0.9711,-0.3250 -1.9422,-0.6499 -2.9132 -0.9748c 2.0023,-5.9843 4.0046,-11.9687 6.0070 -17.9530c 0.9710,0.3249 1.9421,0.6498 2.9132 0.9748c 1.3992,-4.1817 2.7983,-8.3634 4.1975 -12.5451c -0.9710,-0.3249 -1.9421,-0.6498 -2.9132 -0.9748c 0.3919,-1.1714 0.7839,-2.3427 1.1758 -3.5141c -16.6905,-5.5846 -33.3810,-11.1691 -50.0715 -16.7537c -0.3919,1.1714 -0.7839,2.3428 -1.1758 3.5141c -0.9711,-0.3249 -1.9422,-0.6498 -2.9133 -0.9747c -1.3992,4.1817 -2.7983,8.3634 -4.1975 12.5451c 0.9710,0.3249 1.9421,0.6498 2.9132 0.9748c -2.0023,5.9843 -4.0047,11.9686 -6.0070 17.9530c -0.9711,-0.3250 -1.9421,-0.6499 -2.9132 -0.9748c -1.3992,4.1817 -2.7984,8.3634 -4.1975 12.5451ZM 478.9640,1071.8329 c 0.0000,3.1311 2.5382,5.6693 5.6693 5.6693c 3.1310,-0.0000 5.6693,-2.5382 5.6693 -5.6693c 0.0000,-3.1310 -2.5382,-5.6693 -5.6693 -5.6693c -3.1311,-0.0000 -5.6693,2.5382 -5.6693 5.6693ZM 528.9763,1014.8428 c 0.9711,0.3249 1.9422,0.6499 2.9133 0.9748c -0.3919,1.1714 -0.7839,2.3428 -1.1758 3.5141c 16.6905,5.5846 33.3810,11.1691 50.0715 16.7537c 0.3919,-1.1713 0.7839,-2.3427 1.1758 -3.5141c 0.9711,0.3249 1.9422,0.6499 2.9133 0.9748c 1.3992,-4.1817 2.7983,-8.3634 4.1975 -12.5451c -0.9710,-0.3249 -1.9421,-0.6498 -2.9132 -0.9748c 2.0023,-5.9843 4.0047,-11.9686 6.0070 -17.9530c 0.9710,0.3250 1.9421,0.6499 2.9132 0.9748c 1.3992,-4.1817 2.7983,-8.3634 4.1975 -12.5451c -0.9711,-0.3249 -1.9422,-0.6499 -2.9132 -0.9748c 0.3919,-1.1714 0.7839,-2.3428 1.1758 -3.5141c -16.6905,-5.5846 -33.3810,-11.1691 -50.0715 -16.7537c -0.3919,1.1714 -0.7839,2.3427 -1.1758 3.5141c -0.9711,-0.3249 -1.9422,-0.6498 -2.9132 -0.9748c -1.3992,4.1817 -2.7984,8.3634 -4.1975 12.5451c 0.9711,0.3249 1.9421,0.6498 2.9132 0.9748c -2.0023,5.9843 -4.0046,11.9686 -6.0070 17.9530c -0.9710,-0.3250 -1.9421,-0.6499 -2.9132 -0.9748c -1.3992,4.1817 -2.7983,8.3634 -4.1975 12.5451ZM 573.4484,653.1763 c 0.0000,3.1311 2.5382,5.6693 5.6693 5.6693c 3.1311,-0.0000 5.6693,-2.5382 5.6693 -5.6693c 0.0000,-3.1310 -2.5382,-5.6693 -5.6693 -5.6693c -3.1310,-0.0000 -5.6693,2.5382 -5.6693 5.6693ZM 672.3449,990.5028 c 1.3992,4.1817 2.7984,8.3634 4.1975 12.5451c 0.9711,-0.3249 1.9422,-0.6498 2.9132 -0.9748c 2.0023,5.9843 4.0047,11.9687 6.0070 17.9530c -0.9711,0.3250 -1.9422,0.6499 -2.9132 0.9748c 1.3992,4.1817 2.7983,8.3634 4.1975 12.5451c 0.9711,-0.3249 1.9422,-0.6499 2.9133 -0.9748c 0.3919,1.1714 0.7839,2.3428 1.1758 3.5141c 16.6905,-5.5845 33.3810,-11.1691 50.0715 -16.7537c -0.3919,-1.1713 -0.7839,-2.3427 -1.1758 -3.5141c 0.9711,-0.3249 1.9422,-0.6499 2.9133 -0.9748c -1.3992,-4.1817 -2.7984,-8.3634 -4.1975 -12.5451c -0.9711,0.3249 -1.9422,0.6498 -2.9132 0.9748c -2.0024,-5.9843 -4.0047,-11.9687 -6.0070 -17.9530c 0.9711,-0.3250 1.9421,-0.6499 2.9132 -0.9748c -1.3992,-4.1817 -2.7983,-8.3634 -4.1975 -12.5451c -0.9710,0.3250 -1.9421,0.6499 -2.9132 0.9748c -0.3919,-1.1714 -0.7839,-2.3427 -1.1758 -3.5141c -16.6905,5.5845 -33.3810,11.1691 -50.0715 16.7537c 0.3919,1.1713 0.7839,2.3427 1.1758 3.5141c -0.9710,0.3249 -1.9421,0.6499 -2.9132 0.9748ZM 686.8343,653.1763 c 0.0000,3.1311 2.5382,5.6693 5.6693 5.6693c 3.1310,-0.0000 5.6693,-2.5382 5.6693 -5.6693c 0.0000,-3.1310 -2.5382,-5.6693 -5.6693 -5.6693c -3.1311,-0.0000 -5.6693,2.5382 -5.6693 5.6693ZM 729.0521,933.6667 c 1.3992,4.1817 2.7983,8.3634 4.1975 12.5451c 0.9711,-0.3250 1.9422,-0.6499 2.9132 -0.9748c 2.0024,5.9843 4.0047,11.9686 6.0070 17.9530c -0.9710,0.3249 -1.9421,0.6498 -2.9132 0.9748c 1.3992,4.1817 2.7983,8.3634 4.1975 12.5451c 0.9710,-0.3249 1.9421,-0.6499 2.9132 -0.9748c 0.3919,1.1714 0.7839,2.3428 1.1758 3.5141c 16.6905,-5.5845 33.3810,-11.1691 50.0715 -16.7536c -0.3919,-1.1714 -0.7839,-2.3428 -1.1758 -3.5142c 0.9710,-0.3249 1.9421,-0.6499 2.9132 -0.9748c -1.3992,-4.1817 -2.7984,-8.3634 -4.1975 -12.5451c -0.9711,0.3249 -1.9421,0.6498 -2.9132 0.9748c -2.0023,-5.9843 -4.0047,-11.9687 -6.0070 -17.9530c 0.9711,-0.3250 1.9422,-0.6499 2.9132 -0.9748c -1.3992,-4.1817 -2.7983,-8.3634 -4.1975 -12.5451c -0.9711,0.3249 -1.9422,0.6498 -2.9133 0.9747c -0.3919,-1.1713 -0.7839,-2.3427 -1.1758 -3.5141c -16.6905,5.5845 -33.3810,11.1691 -50.0715 16.7537c 0.3919,1.1714 0.7839,2.3427 1.1758 3.5141c -0.9711,0.3250 -1.9422,0.6499 -2.9132 0.9748ZM 740.1872,740.6306 c 1.3992,4.1817 2.7983,8.3634 4.1975 12.5451c 0.9710,-0.3249 1.9421,-0.6498 2.9132 -0.9748c 2.0023,5.9843 4.0046,11.9687 6.0070 17.9530c -0.9710,0.3250 -1.9421,0.6499 -2.9132 0.9748c 1.3992,4.1817 2.7984,8.3634 4.1975 12.5451c 0.9711,-0.3250 1.9421,-0.6499 2.9132 -0.9748c 0.3919,1.1714 0.7839,2.3428 1.1758 3.5141c 16.6905,-5.5845 33.3810,-11.1691 50.0715 -16.7537c -0.3919,-1.1713 -0.7839,-2.3427 -1.1758 -3.5141c 0.9710,-0.3249 1.9421,-0.6499 2.9132 -0.9748c -1.3992,-4.1817 -2.7984,-8.3634 -4.1975 -12.5451c -0.9710,0.3249 -1.9421,0.6498 -2.9132 0.9748c -2.0023,-5.9843 -4.0046,-11.9687 -6.0070 -17.9530c 0.9711,-0.3250 1.9422,-0.6499 2.9133 -0.9748c -1.3992,-4.1817 -2.7984,-8.3634 -4.1975 -12.5451c -0.9711,0.3250 -1.9422,0.6499 -2.9132 0.9748c -0.3919,-1.1714 -0.7839,-2.3427 -1.1758 -3.5141c -16.6905,5.5845 -33.3810,11.1691 -50.0715 16.7537c 0.3919,1.1713 0.7839,2.3427 1.1758 3.5141c -0.9711,0.3249 -1.9422,0.6499 -2.9132 0.9748ZM 751.8380,1001.7669 c 1.3992,4.1817 2.7984,8.3634 4.1975 12.5451c 0.9711,-0.3249 1.9421,-0.6498 2.9132 -0.9748c 2.0023,5.9843 4.0047,11.9687 6.0070 17.9530c -0.9711,0.3250 -1.9422,0.6499 -2.9132 0.9748c 1.3992,4.1817 2.7983,8.3634 4.1975 12.5451c 0.9711,-0.3249 1.9422,-0.6498 2.9132 -0.9747c 0.3919,1.1713 0.7839,2.3427 1.1758 3.5141c 16.6905,-5.5845 33.3810,-11.1691 50.0715 -16.7537c -0.3919,-1.1714 -0.7839,-2.3428 -1.1758 -3.5141c 0.9711,-0.3250 1.9422,-0.6499 2.9132 -0.9748c -1.3992,-4.1817 -2.7983,-8.3634 -4.1975 -12.5451c -0.9711,0.3250 -1.9422,0.6499 -2.9133 0.9748c -2.0023,-5.9843 -4.0046,-11.9686 -6.0070 -17.9530c 0.9711,-0.3249 1.9421,-0.6498 2.9132 -0.9748c -1.3992,-4.1817 -2.7983,-8.3634 -4.1975 -12.5451c -0.9710,0.3249 -1.9421,0.6499 -2.9132 0.9748c -0.3919,-1.1714 -0.7839,-2.3428 -1.1758 -3.5142c -16.6905,5.5846 -33.3810,11.1691 -50.0715 16.7537c 0.3919,1.1714 0.7839,2.3428 1.1758 3.5142c -0.9710,0.3249 -1.9421,0.6499 -2.9132 0.9748ZM 762.9732,808.7307 c 1.3992,4.1817 2.7984,8.3634 4.1975 12.5451c 0.9711,-0.3249 1.9422,-0.6499 2.9132 -0.9748c 2.0023,5.9843 4.0047,11.9686 6.0070 17.9530c -0.9711,0.3249 -1.9422,0.6499 -2.9132 0.9748c 1.3992,4.1817 2.7983,8.3634 4.1975 12.5451c 0.9711,-0.3249 1.9422,-0.6498 2.9133 -0.9748c 0.3919,1.1714 0.7839,2.3428 1.1758 3.5142c 16.6905,-5.5845 33.3810,-11.1691 50.0715 -16.7537c -0.3919,-1.1714 -0.7839,-2.3428 -1.1758 -3.5141c 0.9711,-0.3250 1.9422,-0.6499 2.9133 -0.9748c -1.3992,-4.1817 -2.7984,-8.3634 -4.1975 -12.5451c -0.9711,0.3250 -1.9422,0.6499 -2.9132 0.9748c -2.0024,-5.9843 -4.0047,-11.9686 -6.0070 -17.9530c 0.9711,-0.3249 1.9421,-0.6498 2.9132 -0.9748c -1.3992,-4.1817 -2.7983,-8.3634 -4.1975 -12.5451c -0.9710,0.3249 -1.9421,0.6499 -2.9132 0.9748c -0.3919,-1.1714 -0.7839,-2.3428 -1.1758 -3.5142c -16.6905,5.5846 -33.3810,11.1691 -50.0715 16.7537c 0.3919,1.1714 0.7839,2.3428 1.1758 3.5142c -0.9710,0.3249 -1.9421,0.6498 -2.9132 0.9748ZM 781.3188,1071.8329 c 0.0000,3.1311 2.5382,5.6693 5.6693 5.6693c 3.1311,-0.0000 5.6693,-2.5382 5.6693 -5.6693c 0.0000,-3.1310 -2.5382,-5.6693 -5.6693 -5.6693c -3.1310,-0.0000 -5.6693,2.5382 -5.6693 5.6693ZM 785.7592,876.8307 c 1.3992,4.1817 2.7983,8.3634 4.1975 12.5451c 0.9710,-0.3250 1.9421,-0.6499 2.9132 -0.9748c 2.0023,5.9843 4.0046,11.9686 6.0070 17.9530c -0.9710,0.3249 -1.9421,0.6498 -2.9132 0.9748c 1.3992,4.1817 2.7984,8.3634 4.1975 12.5451c 0.9711,-0.3249 1.9422,-0.6499 2.9132 -0.9748c 0.3919,1.1714 0.7839,2.3428 1.1758 3.5142c 16.6905,-5.5846 33.3810,-11.1691 50.0715 -16.7537c -0.3919,-1.1714 -0.7839,-2.3428 -1.1758 -3.5142c 0.9711,-0.3249 1.9421,-0.6498 2.9132 -0.9748c -1.3992,-4.1817 -2.7983,-8.3634 -4.1975 -12.5451c -0.9710,0.3249 -1.9421,0.6499 -2.9132 0.9748c -2.0023,-5.9843 -4.0046,-11.9687 -6.0070 -17.9530c 0.9710,-0.3249 1.9421,-0.6499 2.9132 -0.9748c -1.3992,-4.1817 -2.7984,-8.3634 -4.1975 -12.5451c -0.9711,0.3249 -1.9421,0.6498 -2.9132 0.9747c -0.3919,-1.1713 -0.7839,-2.3427 -1.1758 -3.5141c -16.6905,5.5845 -33.3810,11.1691 -50.0715 16.7537c 0.3919,1.1714 0.7839,2.3428 1.1758 3.5141c -0.9711,0.3250 -1.9421,0.6499 -2.9132 0.9748ZM 802.2910,699.9235 c 1.3992,4.1817 2.7983,8.3634 4.1975 12.5451c 0.9711,-0.3249 1.9422,-0.6499 2.9132 -0.9748c 2.0024,5.9843 4.0047,11.9686 6.0070 17.9530c -0.9710,0.3249 -1.9421,0.6499 -2.9132 0.9748c 1.3992,4.1817 2.7984,8.3634 4.1975 12.5451c 0.9710,-0.3249 1.9421,-0.6498 2.9132 -0.9748c 0.3919,1.1714 0.7839,2.3428 1.1758 3.5142c 16.6905,-5.5845 33.3810,-11.1691 50.0715 -16.7537c -0.3919,-1.1714 -0.7839,-2.3428 -1.1758 -3.5142c 0.9710,-0.3249 1.9421,-0.6498 2.9132 -0.9748c -1.3992,-4.1817 -2.7984,-8.3634 -4.1975 -12.5451c -0.9711,0.3250 -1.9421,0.6499 -2.9132 0.9748c -2.0023,-5.9843 -4.0047,-11.9686 -6.0070 -17.9530c 0.9711,-0.3249 1.9422,-0.6498 2.9132 -0.9748c -1.3992,-4.1817 -2.7983,-8.3634 -4.1975 -12.5451c -0.9711,0.3249 -1.9422,0.6499 -2.9133 0.9748c -0.3919,-1.1714 -0.7839,-2.3428 -1.1758 -3.5142c -16.6905,5.5846 -33.3810,11.1691 -50.0715 16.7537c 0.3919,1.1714 0.7839,2.3428 1.1758 3.5142c -0.9711,0.3249 -1.9422,0.6498 -2.9132 0.9748ZM 808.5451,944.9308 c 1.3992,4.1817 2.7984,8.3634 4.1975 12.5451c 0.9711,-0.3249 1.9422,-0.6498 2.9132 -0.9748c 2.0024,5.9843 4.0047,11.9687 6.0070 17.9530c -0.9711,0.3250 -1.9421,0.6499 -2.9132 0.9748c 1.3992,4.1817 2.7983,8.3634 4.1975 12.5451c 0.9710,-0.3250 1.9421,-0.6499 2.9132 -0.9748c 0.3919,1.1713 0.7839,2.3427 1.1758 3.5141c 16.6905,-5.5845 33.3810,-11.1691 50.0715 -16.7537c -0.3919,-1.1714 -0.7839,-2.3427 -1.1758 -3.5141c 0.9710,-0.3250 1.9421,-0.6499 2.9132 -0.9748c -1.3992,-4.1817 -2.7984,-8.3634 -4.1975 -12.5451c -0.9711,0.3249 -1.9421,0.6498 -2.9132 0.9747c -2.0023,-5.9843 -4.0047,-11.9686 -6.0070 -17.9530c 0.9711,-0.3249 1.9422,-0.6498 2.9132 -0.9747c -1.3992,-4.1817 -2.7983,-8.3634 -4.1975 -12.5451c -0.9711,0.3249 -1.9422,0.6499 -2.9133 0.9748c -0.3919,-1.1714 -0.7839,-2.3428 -1.1758 -3.5141c -16.6905,5.5845 -33.3810,11.1691 -50.0715 16.7537c 0.3919,1.1713 0.7839,2.3427 1.1758 3.5141c -0.9711,0.3249 -1.9422,0.6499 -2.9133 0.9748ZM 825.0770,768.0236 c 1.3992,4.1817 2.7984,8.3634 4.1975 12.5451c 0.9711,-0.3250 1.9421,-0.6499 2.9132 -0.9748c 2.0023,5.9843 4.0047,11.9686 6.0070 17.9530c -0.9711,0.3249 -1.9422,0.6498 -2.9132 0.9748c 1.3992,4.1817 2.7983,8.3634 4.1975 12.5451c 0.9711,-0.3249 1.9422,-0.6499 2.9133 -0.9748c 0.3919,1.1714 0.7839,2.3428 1.1758 3.5142c 16.6905,-5.5846 33.3810,-11.1691 50.0715 -16.7537c -0.3919,-1.1714 -0.7839,-2.3428 -1.1758 -3.5142c 0.9711,-0.3249 1.9422,-0.6499 2.9132 -0.9748c -1.3992,-4.1817 -2.7983,-8.3634 -4.1975 -12.5451c -0.9711,0.3249 -1.9422,0.6498 -2.9133 0.9748c -2.0023,-5.9843 -4.0046,-11.9687 -6.0070 -17.9530c 0.9711,-0.3250 1.9421,-0.6499 2.9132 -0.9748c -1.3992,-4.1817 -2.7983,-8.3634 -4.1975 -12.5451c -0.9710,0.3249 -1.9421,0.6498 -2.9132 0.9747c -0.3919,-1.1713 -0.7839,-2.3427 -1.1758 -3.5141c -16.6905,5.5845 -33.3810,11.1691 -50.0715 16.7537c 0.3919,1.1714 0.7839,2.3427 1.1758 3.5141c -0.9710,0.3250 -1.9421,0.6499 -2.9132 0.9748ZM 847.8630,836.1237 c 1.3992,4.1817 2.7983,8.3634 4.1975 12.5451c 0.9711,-0.3249 1.9422,-0.6498 2.9133 -0.9748c 2.0023,5.9843 4.0046,11.9687 6.0070 17.9530c -0.9710,0.3250 -1.9421,0.6499 -2.9132 0.9748c 1.3992,4.1817 2.7984,8.3634 4.1975 12.5451c 0.9711,-0.3250 1.9421,-0.6499 2.9132 -0.9748c 0.3919,1.1713 0.7839,2.3427 1.1758 3.5141c 16.6905,-5.5845 33.3810,-11.1691 50.0715 -16.7537c -0.3919,-1.1714 -0.7839,-2.3428 -1.1758 -3.5141c 0.9711,-0.3250 1.9421,-0.6499 2.9132 -0.9748c -1.3992,-4.1817 -2.7983,-8.3634 -4.1975 -12.5451c -0.9710,0.3250 -1.9421,0.6499 -2.9132 0.9748c -2.0023,-5.9843 -4.0046,-11.9686 -6.0070 -17.9530c 0.9711,-0.3249 1.9422,-0.6498 2.9133 -0.9748c -1.3992,-4.1817 -2.7984,-8.3634 -4.1975 -12.5451c -0.9711,0.3249 -1.9422,0.6499 -2.9132 0.9748c -0.3919,-1.1714 -0.7839,-2.3428 -1.1758 -3.5142c -16.6905,5.5846 -33.3810,11.1691 -50.0715 16.7537c 0.3919,1.1714 0.7839,2.3428 1.1758 3.5142c -0.9711,0.3249 -1.9422,0.6499 -2.9132 0.9748ZM 863.1955,655.6322 c 1.3992,4.1817 2.7984,8.3634 4.1975 12.5451c 0.9711,-0.3250 1.9421,-0.6499 2.9132 -0.9748c 2.0023,5.9843 4.0046,11.9686 6.0070 17.9530c -0.9711,0.3249 -1.9422,0.6498 -2.9132 0.9748c 1.3992,4.1817 2.7983,8.3634 4.1975 12.5451c 0.9711,-0.3249 1.9422,-0.6499 2.9133 -0.9748c 0.3919,1.1714 0.7839,2.3428 1.1758 3.5142c 16.6905,-5.5846 33.3810,-11.1691 50.0715 -16.7537c -0.3919,-1.1714 -0.7839,-2.3428 -1.1758 -3.5142c 0.9711,-0.3249 1.9422,-0.6498 2.9132 -0.9748c -1.3992,-4.1817 -2.7983,-8.3634 -4.1975 -12.5451c -0.9711,0.3249 -1.9422,0.6499 -2.9133 0.9748c -2.0023,-5.9843 -4.0046,-11.9686 -6.0070 -17.9530c 0.9711,-0.3249 1.9421,-0.6499 2.9132 -0.9748c -1.3992,-4.1817 -2.7984,-8.3634 -4.1975 -12.5451c -0.9710,0.3249 -1.9421,0.6498 -2.9132 0.9748c -0.3919,-1.1714 -0.7839,-2.3428 -1.1758 -3.5142c -16.6905,5.5845 -33.3810,11.1691 -50.0715 16.7537c 0.3919,1.1714 0.7839,2.3428 1.1758 3.5142c -0.9710,0.3249 -1.9421,0.6498 -2.9132 0.9747ZM 870.6489,904.2238 c 1.3992,4.1817 2.7984,8.3634 4.1975 12.5451c 0.9711,-0.3249 1.9422,-0.6499 2.9132 -0.9748c 2.0024,5.9843 4.0047,11.9686 6.0070 17.9530c -0.9711,0.3249 -1.9422,0.6499 -2.9132 0.9748c 1.3992,4.1817 2.7983,8.3634 4.1975 12.5451c 0.9710,-0.3249 1.9421,-0.6498 2.9132 -0.9748c 0.3919,1.1714 0.7839,2.3428 1.1758 3.5142c 16.6905,-5.5846 33.3810,-11.1691 50.0715 -16.7537c -0.3919,-1.1714 -0.7839,-2.3428 -1.1758 -3.5142c 0.9711,-0.3249 1.9422,-0.6498 2.9133 -0.9748c -1.3992,-4.1817 -2.7984,-8.3634 -4.1975 -12.5451c -0.9711,0.3249 -1.9422,0.6499 -2.9132 0.9748c -2.0024,-5.9843 -4.0047,-11.9686 -6.0070 -17.9530c 0.9711,-0.3249 1.9422,-0.6499 2.9132 -0.9748c -1.3992,-4.1817 -2.7983,-8.3634 -4.1975 -12.5451c -0.9711,0.3249 -1.9422,0.6498 -2.9133 0.9748c -0.3919,-1.1714 -0.7839,-2.3428 -1.1758 -3.5142c -16.6905,5.5845 -33.3810,11.1691 -50.0715 16.7537c 0.3919,1.1714 0.7839,2.3428 1.1758 3.5142c -0.9711,0.3249 -1.9422,0.6498 -2.9133 0.9747ZM 885.9815,723.7323 c 1.3992,4.1817 2.7983,8.3634 4.1975 12.5451c 0.9711,-0.3249 1.9422,-0.6498 2.9133 -0.9748c 2.0023,5.9843 4.0046,11.9687 6.0070 17.9530c -0.9710,0.3250 -1.9421,0.6499 -2.9132 0.9748c 1.3992,4.1817 2.7984,8.3634 4.1975 12.5451c 0.9711,-0.3250 1.9421,-0.6499 2.9132 -0.9748c 0.3919,1.1714 0.7839,2.3427 1.1758 3.5141c 16.6905,-5.5845 33.3810,-11.1691 50.0715 -16.7537c -0.3919,-1.1713 -0.7839,-2.3427 -1.1758 -3.5141c 0.9711,-0.3249 1.9421,-0.6499 2.9132 -0.9748c -1.3992,-4.1817 -2.7984,-8.3634 -4.1975 -12.5451c -0.9710,0.3249 -1.9421,0.6498 -2.9132 0.9748c -2.0023,-5.9843 -4.0046,-11.9687 -6.0070 -17.9530c 0.9711,-0.3250 1.9422,-0.6499 2.9133 -0.9748c -1.3992,-4.1817 -2.7984,-8.3634 -4.1975 -12.5451c -0.9711,0.3250 -1.9422,0.6499 -2.9132 0.9748c -0.3919,-1.1714 -0.7839,-2.3427 -1.1758 -3.5141c -16.6905,5.5845 -33.3810,11.1691 -50.0715 16.7537c 0.3919,1.1713 0.7839,2.3427 1.1758 3.5141c -0.9711,0.3249 -1.9422,0.6499 -2.9132 0.9748ZM 908.7674,791.8324 c 1.3992,4.1817 2.7984,8.3634 4.1975 12.5451c 0.9711,-0.3249 1.9422,-0.6499 2.9132 -0.9748c 2.0023,5.9843 4.0047,11.9686 6.0070 17.9530c -0.9711,0.3249 -1.9422,0.6499 -2.9132 0.9748c 1.3992,4.1817 2.7983,8.3634 4.1975 12.5451c 0.9710,-0.3249 1.9421,-0.6498 2.9132 -0.9748c 0.3919,1.1714 0.7839,2.3428 1.1758 3.5142c 16.6905,-5.5845 33.3810,-11.1691 50.0715 -16.7537c -0.3919,-1.1714 -0.7839,-2.3428 -1.1758 -3.5142c 0.9711,-0.3249 1.9422,-0.6498 2.9133 -0.9747c -1.3992,-4.1817 -2.7984,-8.3634 -4.1975 -12.5451c -0.9711,0.3250 -1.9422,0.6499 -2.9132 0.9748c -2.0024,-5.9843 -4.0047,-11.9686 -6.0070 -17.9530c 0.9711,-0.3249 1.9422,-0.6498 2.9132 -0.9748c -1.3992,-4.1817 -2.7983,-8.3634 -4.1975 -12.5451c -0.9710,0.3249 -1.9421,0.6499 -2.9132 0.9748c -0.3919,-1.1714 -0.7839,-2.3428 -1.1758 -3.5142c -16.6905,5.5846 -33.3810,11.1691 -50.0715 16.7537c 0.3919,1.1714 0.7839,2.3428 1.1758 3.5142c -0.9710,0.3249 -1.9421,0.6498 -2.9132 0.9748ZM 931.5534,859.9325 c 1.3992,4.1817 2.7983,8.3634 4.1975 12.5451c 0.9710,-0.3250 1.9421,-0.6499 2.9132 -0.9748c 2.0023,5.9843 4.0046,11.9686 6.0070 17.9530c -0.9710,0.3249 -1.9421,0.6498 -2.9132 0.9748c 1.3992,4.1817 2.7984,8.3634 4.1975 12.5451c 0.9711,-0.3249 1.9422,-0.6499 2.9132 -0.9748c 0.3919,1.1714 0.7839,2.3428 1.1758 3.5142c 16.6905,-5.5846 33.3810,-11.1691 50.0715 -16.7537c -0.3919,-1.1714 -0.7839,-2.3428 -1.1758 -3.5142c 0.9711,-0.3249 1.9422,-0.6499 2.9132 -0.9748c -1.3992,-4.1817 -2.7983,-8.3634 -4.1975 -12.5451c -0.9710,0.3249 -1.9421,0.6498 -2.9132 0.9748c -2.0023,-5.9843 -4.0046,-11.9687 -6.0070 -17.9530c 0.9710,-0.3250 1.9421,-0.6499 2.9132 -0.9748c -1.3992,-4.1817 -2.7984,-8.3634 -4.1975 -12.5451c -0.9711,0.3249 -1.9421,0.6498 -2.9132 0.9747c -0.3919,-1.1713 -0.7839,-2.3427 -1.1758 -3.5141c -16.6905,5.5845 -33.3810,11.1691 -50.0715 16.7537c 0.3919,1.1714 0.7839,2.3427 1.1758 3.5141c -0.9711,0.3250 -1.9421,0.6499 -2.9132 0.9748ZM 937.2919,650.7674 c 1.3992,4.1817 2.7984,8.3634 4.1975 12.5451c 0.9711,-0.3249 1.9422,-0.6499 2.9132 -0.9748c 2.0024,5.9843 4.0047,11.9686 6.0070 17.9530c -0.9711,0.3249 -1.9421,0.6499 -2.9132 0.9748c 1.3992,4.1817 2.7983,8.3634 4.1975 12.5451c 0.9710,-0.3249 1.9421,-0.6498 2.9132 -0.9748c 0.3919,1.1714 0.7839,2.3428 1.1758 3.5142c 16.6905,-5.5845 33.3810,-11.1691 50.0715 -16.7537c -0.3919,-1.1714 -0.7839,-2.3428 -1.1758 -3.5141c 0.9710,-0.3250 1.9421,-0.6499 2.9132 -0.9748c -1.3992,-4.1817 -2.7984,-8.3634 -4.1975 -12.5451c -0.9711,0.3250 -1.9421,0.6499 -2.9132 0.9748c -2.0023,-5.9843 -4.0047,-11.9686 -6.0070 -17.9530c 0.9711,-0.3249 1.9422,-0.6498 2.9132 -0.9748c -1.3992,-4.1817 -2.7983,-8.3634 -4.1975 -12.5451c -0.9711,0.3249 -1.9422,0.6499 -2.9133 0.9748c -0.3919,-1.1714 -0.7839,-2.3428 -1.1758 -3.5142c -16.6905,5.5846 -33.3810,11.1691 -50.0715 16.7537c 0.3919,1.1714 0.7839,2.3428 1.1758 3.5142c -0.9711,0.3249 -1.9422,0.6498 -2.9133 0.9748ZM 960.0779,718.8674 c 1.3992,4.1817 2.7984,8.3634 4.1975 12.5451c 0.9711,-0.3250 1.9421,-0.6499 2.9132 -0.9748c 2.0023,5.9843 4.0046,11.9686 6.0070 17.9530c -0.9711,0.3249 -1.9422,0.6498 -2.9133 0.9748c 1.3992,4.1817 2.7984,8.3634 4.1975 12.5451c 0.9711,-0.3249 1.9422,-0.6499 2.9132 -0.9748c 0.3919,1.1714 0.7839,2.3428 1.1758 3.5142c 16.6905,-5.5846 33.3810,-11.1691 50.0715 -16.7537c -0.3919,-1.1714 -0.7839,-2.3428 -1.1758 -3.5142c 0.9711,-0.3249 1.9422,-0.6499 2.9132 -0.9748c -1.3992,-4.1817 -2.7983,-8.3634 -4.1975 -12.5451c -0.9711,0.3249 -1.9422,0.6499 -2.9133 0.9748c -2.0023,-5.9843 -4.0046,-11.9687 -6.0070 -17.9530c 0.9710,-0.3249 1.9421,-0.6499 2.9132 -0.9748c -1.3992,-4.1817 -2.7984,-8.3634 -4.1975 -12.5451c -0.9711,0.3249 -1.9421,0.6498 -2.9132 0.9748c -0.3919,-1.1714 -0.7839,-2.3428 -1.1758 -3.5142c -16.6905,5.5845 -33.3810,11.1691 -50.0715 16.7537c 0.3919,1.1714 0.7839,2.3428 1.1758 3.5141c -0.9710,0.3250 -1.9421,0.6499 -2.9132 0.9748ZM 982.8639,786.9675 c 1.3992,4.1817 2.7983,8.3634 4.1975 12.5451c 0.9711,-0.3249 1.9422,-0.6498 2.9133 -0.9748c 2.0023,5.9843 4.0046,11.9687 6.0070 17.9530c -0.9710,0.3250 -1.9421,0.6499 -2.9132 0.9748c 1.3992,4.1817 2.7984,8.3634 4.1975 12.5451c 0.9711,-0.3250 1.9421,-0.6499 2.9132 -0.9748c 0.3919,1.1713 0.7839,2.3427 1.1758 3.5141c 16.6905,-5.5845 33.3810,-11.1691 50.0715 -16.7537c -0.3919,-1.1714 -0.7839,-2.3427 -1.1758 -3.5141c 0.9710,-0.3250 1.9421,-0.6499 2.9132 -0.9748c -1.3992,-4.1817 -2.7984,-8.3634 -4.1975 -12.5451c -0.9710,0.3250 -1.9421,0.6499 -2.9132 0.9748c -2.0023,-5.9843 -4.0046,-11.9686 -6.0070 -17.9530c 0.9711,-0.3249 1.9422,-0.6498 2.9133 -0.9748c -1.3992,-4.1817 -2.7984,-8.3634 -4.1975 -12.5451c -0.9711,0.3250 -1.9422,0.6499 -2.9132 0.9748c -0.3919,-1.1714 -0.7839,-2.3428 -1.1758 -3.5141c -16.6905,5.5845 -33.3810,11.1691 -50.0715 16.7536c 0.3919,1.1714 0.7839,2.3428 1.1758 3.5142c -0.9711,0.3249 -1.9422,0.6499 -2.9132 0.9748ZM 1005.6498,855.0676 c 1.3992,4.1817 2.7984,8.3634 4.1975 12.5451c 0.9711,-0.3249 1.9422,-0.6499 2.9132 -0.9748c 2.0023,5.9843 4.0047,11.9686 6.0070 17.9530c -0.9711,0.3249 -1.9422,0.6499 -2.9132 0.9748c 1.3992,4.1817 2.7983,8.3634 4.1975 12.5451c 0.9711,-0.3249 1.9422,-0.6498 2.9133 -0.9748c 0.3919,1.1714 0.7839,2.3428 1.1758 3.5142c 16.6905,-5.5845 33.3810,-11.1691 50.0715 -16.7537c -0.3919,-1.1714 -0.7839,-2.3428 -1.1758 -3.5142c 0.9711,-0.3249 1.9422,-0.6498 2.9133 -0.9748c -1.3992,-4.1817 -2.7984,-8.3634 -4.1975 -12.5451c -0.9711,0.3249 -1.9422,0.6499 -2.9132 0.9748c -2.0024,-5.9843 -4.0047,-11.9686 -6.0070 -17.9530c 0.9711,-0.3249 1.9421,-0.6499 2.9132 -0.9748c -1.3992,-4.1817 -2.7983,-8.3634 -4.1975 -12.5451c -0.9710,0.3249 -1.9421,0.6498 -2.9132 0.9748c -0.3919,-1.1714 -0.7839,-2.3428 -1.1758 -3.5142c -16.6905,5.5845 -33.3810,11.1691 -50.0715 16.7537c 0.3919,1.1714 0.7839,2.3428 1.1758 3.5142c -0.9710,0.3249 -1.9421,0.6498 -2.9132 0.9748ZM 1008.9898,638.7340 c 1.3992,4.1817 2.7984,8.3634 4.1975 12.5451c 0.9711,-0.3250 1.9421,-0.6499 2.9132 -0.9748c 2.0023,5.9843 4.0047,11.9686 6.0070 17.9530c -0.9711,0.3249 -1.9422,0.6498 -2.9132 0.9748c 1.3992,4.1817 2.7983,8.3634 4.1975 12.5451c 0.9711,-0.3249 1.9422,-0.6499 2.9132 -0.9748c 0.3919,1.1714 0.7839,2.3428 1.1758 3.5142c 16.6905,-5.5846 33.3810,-11.1691 50.0715 -16.7537c -0.3919,-1.1714 -0.7839,-2.3428 -1.1758 -3.5142c 0.9711,-0.3249 1.9422,-0.6498 2.9132 -0.9748c -1.3992,-4.1817 -2.7983,-8.3634 -4.1975 -12.5451c -0.9711,0.3249 -1.9422,0.6499 -2.9133 0.9748c -2.0023,-5.9843 -4.0046,-11.9686 -6.0070 -17.9530c 0.9711,-0.3249 1.9421,-0.6499 2.9132 -0.9748c -1.3992,-4.1817 -2.7983,-8.3634 -4.1975 -12.5451c -0.9710,0.3249 -1.9421,0.6498 -2.9132 0.9748c -0.3919,-1.1714 -0.7839,-2.3428 -1.1758 -3.5142c -16.6905,5.5845 -33.3810,11.1691 -50.0715 16.7537c 0.3919,1.1714 0.7839,2.3428 1.1758 3.5142c -0.9710,0.3249 -1.9421,0.6498 -2.9132 0.9747ZM 1031.7758,706.8341 c 1.3992,4.1817 2.7983,8.3634 4.1975 12.5451c 0.9711,-0.3249 1.9422,-0.6498 2.9133 -0.9748c 2.0023,5.9843 4.0046,11.9687 6.0070 17.9530c -0.9710,0.3250 -1.9421,0.6499 -2.9132 0.9748c 1.3992,4.1817 2.7984,8.3634 4.1975 12.5451c 0.9711,-0.3250 1.9421,-0.6499 2.9132 -0.9748c 0.3919,1.1714 0.7839,2.3427 1.1758 3.5141c 16.6905,-5.5845 33.3810,-11.1691 50.0715 -16.7537c -0.3919,-1.1713 -0.7839,-2.3427 -1.1758 -3.5141c 0.9711,-0.3249 1.9421,-0.6499 2.9132 -0.9748c -1.3992,-4.1817 -2.7983,-8.3634 -4.1975 -12.5451c -0.9710,0.3249 -1.9421,0.6498 -2.9132 0.9748c -2.0023,-5.9843 -4.0046,-11.9687 -6.0070 -17.9530c 0.9711,-0.3250 1.9422,-0.6499 2.9133 -0.9748c -1.3992,-4.1817 -2.7984,-8.3634 -4.1975 -12.5451c -0.9711,0.3250 -1.9422,0.6499 -2.9132 0.9748c -0.3919,-1.1714 -0.7839,-2.3427 -1.1758 -3.5141c -16.6905,5.5845 -33.3810,11.1691 -50.0715 16.7537c 0.3919,1.1713 0.7839,2.3427 1.1758 3.5141c -0.9711,0.3249 -1.9422,0.6499 -2.9132 0.9748ZM 1054.5617,774.9342 c 1.3992,4.1817 2.7984,8.3634 4.1975 12.5451c 0.9711,-0.3249 1.9422,-0.6499 2.9132 -0.9748c 2.0023,5.9843 4.0047,11.9686 6.0070 17.9530c -0.9711,0.3249 -1.9422,0.6499 -2.9132 0.9748c 1.3992,4.1817 2.7983,8.3634 4.1975 12.5451c 0.9711,-0.3249 1.9422,-0.6498 2.9133 -0.9748c 0.3919,1.1714 0.7839,2.3428 1.1758 3.5142c 16.6905,-5.5845 33.3810,-11.1691 50.0715 -16.7537c -0.3919,-1.1714 -0.7839,-2.3428 -1.1758 -3.5142c 0.9711,-0.3249 1.9422,-0.6498 2.9133 -0.9747c -1.3992,-4.1817 -2.7984,-8.3634 -4.1975 -12.5451c -0.9711,0.3250 -1.9422,0.6499 -2.9132 0.9748c -2.0024,-5.9843 -4.0047,-11.9686 -6.0070 -17.9530c 0.9711,-0.3249 1.9422,-0.6498 2.9132 -0.9748c -1.3992,-4.1817 -2.7983,-8.3634 -4.1975 -12.5451c -0.9710,0.3249 -1.9421,0.6499 -2.9132 0.9748c -0.3919,-1.1714 -0.7839,-2.3428 -1.1758 -3.5142c -16.6905,5.5846 -33.3810,11.1691 -50.0715 16.7537c 0.3919,1.1714 0.7839,2.3428 1.1758 3.5142c -0.9711,0.3249 -1.9422,0.6498 -2.9133 0.9748ZM 1077.3477,843.0343 c 1.3992,4.1817 2.7983,8.3634 4.1975 12.5451c 0.9710,-0.3250 1.9421,-0.6499 2.9132 -0.9748c 2.0023,5.9843 4.0046,11.9686 6.0070 17.9530c -0.9711,0.3249 -1.9422,0.6498 -2.9133 0.9748c 1.3992,4.1817 2.7984,8.3634 4.1975 12.5451c 0.9711,-0.3249 1.9422,-0.6499 2.9132 -0.9748c 0.3919,1.1714 0.7839,2.3428 1.1758 3.5141c 16.6905,-5.5845 33.3810,-11.1691 50.0715 -16.7536c -0.3919,-1.1714 -0.7839,-2.3428 -1.1758 -3.5142c 0.9711,-0.3249 1.9422,-0.6499 2.9132 -0.9748c -1.3992,-4.1817 -2.7983,-8.3634 -4.1975 -12.5451c -0.9710,0.3249 -1.9421,0.6498 -2.9132 0.9748c -2.0023,-5.9843 -4.0046,-11.9687 -6.0070 -17.9530c 0.9710,-0.3250 1.9421,-0.6499 2.9132 -0.9748c -1.3992,-4.1817 -2.7984,-8.3634 -4.1975 -12.5451c -0.9711,0.3249 -1.9422,0.6498 -2.9132 0.9747c -0.3919,-1.1713 -0.7839,-2.3427 -1.1758 -3.5141c -16.6905,5.5845 -33.3810,11.1691 -50.0715 16.7537c 0.3919,1.1714 0.7839,2.3427 1.1758 3.5141c -0.9711,0.3250 -1.9421,0.6499 -2.9132 0.9748ZM 1078.2891,619.5323 c 1.3992,4.1817 2.7984,8.3634 4.1975 12.5451c 0.9711,-0.3249 1.9421,-0.6499 2.9132 -0.9748c 2.0023,5.9843 4.0047,11.9686 6.0070 17.9530c -0.9711,0.3249 -1.9422,0.6499 -2.9132 0.9748c 1.3992,4.1817 2.7983,8.3634 4.1975 12.5451c 0.9711,-0.3249 1.9422,-0.6498 2.9132 -0.9748c 0.3919,1.1714 0.7839,2.3428 1.1758 3.5142c 16.6905,-5.5845 33.3810,-11.1691 50.0715 -16.7537c -0.3919,-1.1714 -0.7839,-2.3428 -1.1758 -3.5142c 0.9711,-0.3249 1.9422,-0.6498 2.9132 -0.9748c -1.3992,-4.1817 -2.7983,-8.3634 -4.1975 -12.5451c -0.9711,0.3249 -1.9422,0.6499 -2.9133 0.9748c -2.0023,-5.9843 -4.0046,-11.9686 -6.0070 -17.9530c 0.9710,-0.3249 1.9421,-0.6499 2.9132 -0.9748c -1.3992,-4.1817 -2.7984,-8.3634 -4.1975 -12.5451c -0.9711,0.3249 -1.9421,0.6498 -2.9132 0.9748c -0.3919,-1.1714 -0.7839,-2.3428 -1.1758 -3.5142c -16.6905,5.5846 -33.3810,11.1691 -50.0715 16.7537c 0.3919,1.1714 0.7839,2.3428 1.1758 3.5142c -0.9710,0.3249 -1.9421,0.6498 -2.9132 0.9748ZM 1101.0751,687.6323 c 1.3992,4.1817 2.7983,8.3634 4.1975 12.5451c 0.9711,-0.3250 1.9422,-0.6499 2.9133 -0.9748c 2.0023,5.9843 4.0046,11.9686 6.0070 17.9530c -0.9710,0.3249 -1.9421,0.6498 -2.9132 0.9748c 1.3992,4.1817 2.7984,8.3634 4.1975 12.5451c 0.9711,-0.3249 1.9421,-0.6499 2.9132 -0.9748c 0.3919,1.1714 0.7839,2.3428 1.1758 3.5141c 16.6905,-5.5845 33.3810,-11.1691 50.0715 -16.7536c -0.3919,-1.1714 -0.7839,-2.3428 -1.1758 -3.5142c 0.9710,-0.3249 1.9421,-0.6499 2.9132 -0.9748c -1.3992,-4.1817 -2.7983,-8.3634 -4.1975 -12.5451c -0.9711,0.3249 -1.9421,0.6498 -2.9132 0.9748c -2.0023,-5.9843 -4.0046,-11.9687 -6.0070 -17.9530c 0.9711,-0.3250 1.9422,-0.6499 2.9133 -0.9748c -1.3992,-4.1817 -2.7984,-8.3634 -4.1975 -12.5451c -0.9711,0.3250 -1.9422,0.6499 -2.9132 0.9748c -0.3919,-1.1713 -0.7839,-2.3427 -1.1758 -3.5141c -16.6905,5.5845 -33.3810,11.1691 -50.0715 16.7537c 0.3919,1.1714 0.7839,2.3427 1.1758 3.5141c -0.9711,0.3250 -1.9422,0.6499 -2.9132 0.9748ZM 1123.8611,755.7325 c 1.3992,4.1817 2.7984,8.3634 4.1975 12.5451c 0.9711,-0.3249 1.9422,-0.6499 2.9132 -0.9748c 2.0023,5.9843 4.0047,11.9687 6.0070 17.9530c -0.9711,0.3250 -1.9422,0.6499 -2.9132 0.9748c 1.3992,4.1817 2.7983,8.3634 4.1975 12.5451c 0.9711,-0.3249 1.9422,-0.6498 2.9133 -0.9747c 0.3919,1.1713 0.7839,2.3427 1.1758 3.5141c 16.6905,-5.5845 33.3810,-11.1691 50.0715 -16.7537c -0.3919,-1.1714 -0.7839,-2.3428 -1.1758 -3.5141c 0.9711,-0.3250 1.9422,-0.6499 2.9133 -0.9748c -1.3992,-4.1817 -2.7984,-8.3634 -4.1975 -12.5451c -0.9711,0.3250 -1.9422,0.6499 -2.9132 0.9748c -2.0024,-5.9843 -4.0047,-11.9686 -6.0070 -17.9530c 0.9711,-0.3249 1.9421,-0.6498 2.9132 -0.9748c -1.3992,-4.1817 -2.7983,-8.3634 -4.1975 -12.5451c -0.9710,0.3249 -1.9421,0.6499 -2.9132 0.9748c -0.3919,-1.1714 -0.7839,-2.3428 -1.1758 -3.5142c -16.6905,5.5846 -33.3810,11.1691 -50.0715 16.7537c 0.3919,1.1714 0.7839,2.3428 1.1758 3.5142c -0.9710,0.3249 -1.9421,0.6499 -2.9132 0.9748ZM 1146.3338,577.5857 c 0.0000,3.1311 2.5382,5.6693 5.6693 5.6693c 3.1310,-0.0000 5.6693,-2.5382 5.6693 -5.6693c 0.0000,-3.1310 -2.5382,-5.6693 -5.6693 -5.6693c -3.1311,-0.0000 -5.6693,2.5382 -5.6693 5.6693ZM 1146.6471,823.8325 c 1.3992,4.1817 2.7983,8.3634 4.1975 12.5451c 0.9710,-0.3250 1.9421,-0.6499 2.9132 -0.9748c 2.0023,5.9843 4.0046,11.9686 6.0070 17.9530c -0.9711,0.3249 -1.9422,0.6498 -2.9133 0.9748c 1.3992,4.1817 2.7984,8.3634 4.1975 12.5451c 0.9711,-0.3249 1.9422,-0.6499 2.9132 -0.9748c 0.3919,1.1714 0.7839,2.3428 1.1758 3.5142c 16.6905,-5.5846 33.3810,-11.1691 50.0715 -16.7537c -0.3919,-1.1714 -0.7839,-2.3428 -1.1758 -3.5142c 0.9711,-0.3249 1.9421,-0.6498 2.9132 -0.9748c -1.3992,-4.1817 -2.7983,-8.3634 -4.1975 -12.5451c -0.9710,0.3249 -1.9421,0.6499 -2.9132 0.9748c -2.0023,-5.9843 -4.0046,-11.9686 -6.0070 -17.9530c 0.9710,-0.3249 1.9421,-0.6499 2.9132 -0.9748c -1.3992,-4.1817 -2.7984,-8.3634 -4.1975 -12.5451c -0.9711,0.3249 -1.9422,0.6498 -2.9132 0.9748c -0.3919,-1.1714 -0.7839,-2.3428 -1.1758 -3.5142c -16.6905,5.5845 -33.3810,11.1691 -50.0715 16.7537c 0.3919,1.1714 0.7839,2.3428 1.1758 3.5141c -0.9711,0.3250 -1.9421,0.6499 -2.9132 0.9748ZM 1241.8233,855.4145 c 0.0000,3.1311 2.5382,5.6693 5.6693 5.6693c 3.1311,-0.0000 5.6693,-2.5382 5.6693 -5.6693c 0.0000,-3.1310 -2.5382,-5.6693 -5.6693 -5.6693c -3.1310,-0.0000 -5.6693,2.5382 -5.6693 5.6693Z"/></g><g stroke-linejoin="miter" stroke-opacity="1.0" fill-opacity="0.5" stroke="rgb(0,0,0)" stroke-width="0.37795275590551186" fill="rgb(255,0,0)" stroke-linecap="butt" stroke-miterlimit="10.0"><path d="M 537.5429,276.6751 c 0.0023,-19.1804 5.4858,-37.0557 14.9675 -52.1676c 2.2271,-0.0778 4.4542,-0.1555 6.6812 -0.2333c -9.4513,13.7960 -15.2733,30.2740 -16.0901 48.0580c -1.8529,1.4476 -3.7057,2.8952 -5.5586 4.3428ZM 537.7719,283.4242 c 1.7558,-1.3718 3.5116,-2.7435 5.2674 -4.1153c 0.2389,8.5326 1.6294,16.7771 4.0217 24.5837c 14.2009,-10.3176 28.4018,-20.6351 42.6027 -30.9527c 3.9949,-1.2980 7.9898,-2.5961 11.9848 -3.8941c 2.7241,-0.8851 5.4482,-1.7702 8.1723 -2.6554c 0.0000,2.6230 0.0000,5.2460 0.0000 7.8690c 0.0000,4.2252 0.0000,8.4504 0.0000 12.6757c -0.8794,-0.2857 -1.7588,-0.5715 -2.6382 -0.8572c -0.8676,-2.6702 -1.7352,-5.3404 -2.6028 -8.0106c -7.2564,5.2721 -14.5128,10.5442 -21.7692 15.8163c 7.2985,-0.0000 14.5969,-0.0000 21.8954 -0.0000c 1.7050,0.5540 3.4099,1.1080 5.1149 1.6619c 0.0000,3.7512 0.0000,7.5024 0.0000 11.2537c -20.6054,-0.0000 -41.2107,-0.0000 -61.8161 -0.0000c 2.5477,7.4248 6.0107,14.4243 10.2541 20.8640c -0.6479,2.2594 -1.2958,4.5189 -1.9436 6.7783c -10.5642,-14.5099 -17.2525,-32.0229 -18.5433 -51.0173ZM 556.2944,218.9127 c 10.7643,-14.7959 25.5577,-26.4719 42.7681 -33.4159c 1.8462,1.2452 3.6923,2.4905 5.5385 3.7357c -7.9179,2.8267 -15.3393,6.6984 -22.0981 11.4491c 14.1961,10.3141 28.3922,20.6282 42.5884 30.9423c 2.4690,3.3983 4.9380,6.7966 7.4070 10.1949c 1.6836,2.3173 3.3672,4.6345 5.0508 6.9518c -2.4946,0.8106 -4.9892,1.6211 -7.4839 2.4317c -4.0184,1.3057 -8.0368,2.6113 -12.0553 3.9170c 0.0000,-0.9247 0.0000,-1.8494 0.0000 -2.7740c 2.2714,-1.6503 4.5428,-3.3006 6.8142 -4.9508c -7.2564,-5.2721 -14.5128,-10.5442 -21.7692 -15.8163c 2.2553,6.9412 4.5107,13.8825 6.7660 20.8237c 0.0000,1.7927 0.0000,3.5854 0.0000 5.3782c -3.5676,1.1592 -7.1352,2.3184 -10.7029 3.4776c -6.3652,-19.5902 -12.7305,-39.1804 -19.0957 -58.7706c -6.2096,4.6777 -11.8130,10.1171 -16.6714 16.1792c -2.3521,0.0821 -4.7043,0.1643 -7.0564 0.2464ZM 560.4704,339.7568 c 0.6135,-2.1397 1.2271,-4.2794 1.8406 -6.4191c 10.4305,13.5071 24.5014,24.0595 40.7428 30.1874c 0.8045,2.2104 1.6091,4.4209 2.4136 6.6313c -17.7466,-5.7556 -33.2802,-16.4235 -44.9970 -30.3996ZM 605.4047,183.1896 c 9.5744,-3.1123 19.7937,-4.7945 30.4060 -4.7945c 8.2278,-0.0000 16.2193,1.0112 23.8572 2.9160c 0.7614,2.0919 1.5228,4.1839 2.2842 6.2758c -8.2915,-2.4294 -17.0643,-3.7325 -26.1414 -3.7325c -8.4998,-0.0000 -16.7328,1.1426 -24.5536 3.2827c -1.9508,-1.3158 -3.9016,-2.6316 -5.8524 -3.9475ZM 609.6692,365.7387 c 7.8229,2.2921 16.0742,3.5816 24.6054 3.7200c -5.4216,-16.6860 -10.8432,-33.3720 -16.2648 -50.0580c 0.0000,-4.2005 0.0000,-8.4010 0.0000 -12.6015c 0.0000,-2.8643 0.0000,-5.7286 0.0000 -8.5929c 2.4946,0.8106 4.9893,1.6211 7.4839 2.4317c 4.0184,1.3057 8.0369,2.6113 12.0553 3.9170c -0.5435,0.7481 -1.0870,1.4962 -1.6305 2.2442c -2.8076,-0.0000 -5.6152,-0.0000 -8.4228 -0.0000c 2.7717,8.5304 5.5434,17.0609 8.3151 25.5913c 2.2554,-6.9412 4.5107,-13.8825 6.7660 -20.8237c 1.0537,-1.4503 2.1075,-2.9007 3.1612 -4.3510c 3.5676,1.1592 7.1353,2.3184 10.7029 3.4776c -6.3647,19.5885 -12.7294,39.1770 -19.0940 58.7655c 7.9561,-0.1291 15.6687,-1.2593 23.0176 -3.2702c 1.9508,1.3158 3.9016,2.6316 5.8524 3.9475c -9.5744,3.1123 -19.7937,4.7945 -30.4060 4.7945c -8.2278,-0.0000 -16.2193,-1.0112 -23.8572 -2.9160c -0.7614,-2.0919 -1.5228,-4.1839 -2.2842 -6.2758ZM 618.0098,263.7297 c 3.8014,-1.2351 7.6027,-2.4703 11.4041 -3.7054c -3.8014,2.7618 -7.6027,5.5237 -11.4041 8.2855c 0.0000,-1.5267 0.0000,-3.0534 -0.0000 -4.5801ZM 618.0098,277.6050 c 1.4520,4.4688 2.9040,8.9375 4.3560 13.4063c -1.4520,-0.4718 -2.9040,-0.9436 -4.3560 -1.4153c 0.0000,-3.9970 0.0000,-7.9940 -0.0000 -11.9909ZM 631.2060,293.8836 c 4.6987,-0.0000 9.3974,-0.0000 14.0962 -0.0000c -0.8974,1.2351 -1.7947,2.4703 -2.6921 3.7054c -3.8013,-1.2351 -7.6027,-2.4703 -11.4040 -3.7054ZM 638.2540,257.1520 c 1.4520,-0.4718 2.9040,-0.9436 4.3560 -1.4153c 2.3494,3.2336 4.6987,6.4672 7.0481 9.7009c -3.8013,-2.7618 -7.6027,-5.5237 -11.4040 -8.2855ZM 639.1232,237.0055 c 16.6651,-12.1079 33.3302,-24.2158 49.9954 -36.3238c -6.3168,-4.4400 -13.2124,-8.1123 -20.5511 -10.8812c -0.8045,-2.2104 -1.6091,-4.4209 -2.4136 -6.6313c 17.7466,5.7556 33.2802,16.4235 44.9970 30.3996c -0.6135,2.1397 -1.2271,4.2794 -1.8406 6.4191c -5.0929,-6.5951 -11.0536,-12.4857 -17.7112 -17.5009c -5.4222,16.6877 -10.8443,33.3754 -16.2665 50.0631c -2.4690,3.3983 -4.9380,6.7966 -7.4070 10.1949c -1.6836,2.3173 -3.3672,4.6345 -5.0508 6.9518c -1.5418,-2.1221 -3.0835,-4.2441 -4.6253 -6.3662c -2.4835,-3.4183 -4.9671,-6.8366 -7.4506 -10.2548c 0.8794,-0.2857 1.7588,-0.5715 2.6383 -0.8572c 2.2714,1.6503 4.5428,3.3005 6.8142 4.9508c 2.7717,-8.5304 5.5434,-17.0608 8.3151 -25.5913c -5.9046,4.2899 -11.8091,8.5798 -17.7137 12.8697c -1.7050,0.5540 -3.4100,1.1080 -5.1150 1.6620c -2.2049,-3.0348 -4.4098,-6.0696 -6.6147 -9.1044ZM 650.7657,286.3637 c 1.4520,-4.4687 2.9040,-8.9375 4.3559 -13.4062c 0.8974,1.2351 1.7947,2.4702 2.6921 3.7054c -2.3494,3.2336 -4.6987,6.4672 -7.0481 9.7009ZM 650.7990,300.2498 c 1.5418,-2.1221 3.0835,-4.2441 4.6253 -6.3662c 2.4835,-3.4183 4.9671,-6.8366 7.4506 -10.2548c 0.5435,0.7481 1.0870,1.4962 1.6305 2.2442c -0.8676,2.6702 -1.7352,5.3404 -2.6028 8.0106c 8.9694,-0.0000 17.9388,-0.0000 26.9083 -0.0000c -5.9046,-4.2899 -11.8091,-8.5799 -17.7137 -12.8698c -1.0537,-1.4503 -2.1075,-2.9007 -3.1612 -4.3510c 2.2049,-3.0348 4.4098,-6.0696 6.6147 -9.1044c 16.6699,12.1114 33.3398,24.2228 50.0097 36.3342c 2.2345,-7.2917 3.5950,-14.9655 3.9594 -22.8992c 1.8529,-1.4476 3.7057,-2.8952 5.5586 -4.3428c 0.0000,0.0041 0.0000,0.0082 0.0000 0.0123c 0.0000,19.1605 -5.4838,37.0402 -14.9675 52.1553c -2.2271,0.0778 -4.4542,0.1555 -6.6812 0.2333c 4.6707,-6.8178 8.4550,-14.2905 11.1869 -22.2522c -17.5535,-0.0000 -35.1070,-0.0000 -52.6605 -0.0000c -3.9949,-1.2980 -7.9899,-2.5961 -11.9848 -3.8941c -2.7241,-0.8851 -5.4482,-1.7702 -8.1723 -2.6554ZM 667.0204,364.0930 c 16.3570,-5.8394 30.5951,-16.1388 41.2501 -29.4337c 2.3521,-0.0821 4.7043,-0.1643 7.0564 -0.2464c -10.7643,14.7959 -25.5577,26.4719 -42.7681 33.4159c -1.8462,-1.2452 -3.6923,-2.4905 -5.5385 -3.7357ZM 713.3625,225.6624 c 0.6479,-2.2594 1.2958,-4.5189 1.9436 -6.7783c 10.5642,14.5099 17.2525,32.0229 18.5433 51.0173c -1.7558,1.3718 -3.5116,2.7435 -5.2674 4.1153c -0.4992,-17.8323 -6.0286,-34.4066 -15.2196 -48.3543ZM 3.9685,305.7335 c -0.0000,6.2119 3.5540,12.0917 9.4613 14.8453c 154.7613,72.1395 309.5227,144.2789 464.2840 216.4184c 2.1669,1.0101 4.5287,1.5335 6.9195 1.5335c 50.3925,-0.0000 100.7849,-0.0000 151.1774 0.0000c 50.3925,-0.0000 100.7849,-0.0000 151.1774 0.0000c 2.3908,-0.0000 4.7526,-0.5234 6.9195 -1.5335c 154.7613,-72.1395 309.5227,-144.2789 464.2840 -216.4184c 5.9073,-2.7536 9.4613,-8.6334 9.4613 -14.8453c 0.0000,-1.7263 -0.2744,-3.4783 -0.8492 -5.1959c -31.8298,-95.1293 -63.6596,-190.2586 -95.4894 -285.3879c -2.2347,-6.6788 -8.4889,-11.1811 -15.5316 -11.1811c -91.4859,-0.0000 -182.9718,-0.0000 -274.4577 0.0000c -3.6793,-0.0000 -7.2513,1.2388 -10.1405 3.5169c -64.7386,51.0442 -146.5341,81.5225 -235.3737 81.5225c -88.8396,-0.0000 -170.6351,-30.4783 -235.3737 -81.5225c -2.8892,-2.2780 -6.4613,-3.5169 -10.1405 -3.5169c -91.4859,-0.0000 -182.9719,-0.0000 -274.4577 0.0000c -7.0427,-0.0000 -13.2969,4.5023 -15.5316 11.1811c -31.8298,95.1293 -63.6597,190.2586 -95.4894 285.3879c -0.5747,1.7176 -0.8492,3.4696 -0.8492 5.1959ZM 18.4595,301.9548 c 0.0000,-3.1310 2.5382,-5.6693 5.6693 -5.6693c 3.1310,-0.0000 5.6693,2.5382 5.6693 5.6693c 0.0000,3.1311 -2.5382,5.6693 -5.6693 5.6693c -3.1311,-0.0000 -5.6693,-2.5382 -5.6693 -5.6693ZM 38.8786,306.0589 c -0.0000,-0.3976 0.0632,-0.8020 0.1963 -1.1998c 7.5953,-22.7001 15.1907,-45.4001 22.7860 -68.1001c 0.2878,-0.8602 0.5756,-1.7204 0.8634 -2.5806c 7.3071,-21.8386 14.6142,-43.6773 21.9214 -65.5159c 0.0004,-0.0012 0.0008,-0.0024 0.0012 -0.0036c 0.2879,-0.8602 0.5757,-1.7204 0.8635 -2.5806c 7.3071,-21.8387 14.6143,-43.6774 21.9214 -65.5161c 0.0004,-0.0011 0.0007,-0.0022 0.0011 -0.0033c 0.2878,-0.8602 0.5756,-1.7205 0.8635 -2.5806c 7.5953,-22.7001 15.1906,-45.4001 22.7859 -68.1001c 0.6623,-1.9795 2.8040,-3.0473 4.7835 -2.3849c 21.5053,7.1956 43.0106,14.3911 64.5158 21.5867c 0.6623,-1.9795 2.8040,-3.0473 4.7835 -2.3850c 21.5053,7.1956 43.0106,14.3912 64.5159 21.5867c 0.7995,-2.3895 1.5990,-4.7790 2.3985 -7.1685c 0.6623,-1.9795 2.8040,-3.0473 4.7835 -2.3849c 21.5053,7.1956 43.0106,14.3911 64.5159 21.5867c 1.5990,-4.7790 3.1980,-9.5579 4.7970 -14.3369c 0.6623,-1.9795 2.8040,-3.0473 4.7835 -2.3850c 23.5603,7.8832 47.1205,15.7663 70.6807 23.6495c 1.5817,0.5292 2.5813,2.0029 2.5813 3.5837c 0.0000,0.3976 -0.0632,0.8020 -0.1963 1.1998c -1.9988,5.9737 -3.9976,11.9474 -5.9963 17.9211c 21.5053,7.1956 43.0106,14.3911 64.5159 21.5867c 1.5817,0.5292 2.5813,2.0029 2.5813 3.5837c 0.0000,0.3976 -0.0632,0.8020 -0.1963 1.1998c -1.5990,4.7790 -3.1980,9.5579 -4.7970 14.3369c 21.5053,7.1956 43.0106,14.3911 64.5159 21.5867c 1.5817,0.5292 2.5813,2.0029 2.5813 3.5837c 0.0000,0.3976 -0.0632,0.8019 -0.1963 1.1998c -7.5953,22.7000 -15.1906,45.4001 -22.7860 68.1001c -0.2878,0.8602 -0.5756,1.7205 -0.8634 2.5807c -0.0006,0.0018 -0.0013,0.0037 -0.0019 0.0055c -7.3069,21.8380 -14.6138,43.6760 -21.9207 65.5140c -0.2879,0.8602 -0.5757,1.7204 -0.8635 2.5806c -3.1101,9.2951 -6.2202,18.5901 -9.3303 27.8852c 21.5053,7.1956 43.0106,14.3912 64.5159 21.5867c 1.5817,0.5292 2.5813,2.0029 2.5813 3.5837c 0.0000,0.3976 -0.0632,0.8020 -0.1963 1.1998c -3.3979,10.1553 -6.7958,20.3105 -10.1937 30.4658c 21.5053,7.1956 43.0106,14.3912 64.5159 21.5867c 1.5817,0.5292 2.5813,2.0029 2.5813 3.5837c 0.0000,0.3976 -0.0632,0.8019 -0.1963 1.1998c -7.8831,23.5602 -15.7662,47.1205 -23.6494 70.6807c -0.6623,1.9795 -2.8040,3.0473 -4.7835 2.3850c -21.5053,-7.1956 -43.0106,-14.3911 -64.5159 -21.5867c -3.3979,10.1552 -6.7958,20.3105 -10.1937 30.4658c -0.6623,1.9795 -2.8040,3.0473 -4.7835 2.3850c -23.5602,-7.8832 -47.1205,-15.7663 -70.6807 -23.6495c -1.5817,-0.5292 -2.5813,-2.0029 -2.5813 -3.5837c 0.0000,-0.3976 0.0632,-0.8020 0.1963 -1.1998c 3.3979,-10.1553 6.7958,-20.3106 10.1937 -30.4659c -21.5053,-7.1956 -43.0106,-14.3911 -64.5159 -21.5867c -1.5817,-0.5292 -2.5813,-2.0029 -2.5813 -3.5837c 0.0000,-0.3976 0.0632,-0.8019 0.1963 -1.1998c 1.5990,-4.7790 3.1980,-9.5579 4.7971 -14.3369c -21.5053,-7.1956 -43.0106,-14.3911 -64.5159 -21.5867c -1.5817,-0.5292 -2.5813,-2.0029 -2.5813 -3.5837c 0.0000,-0.3976 0.0632,-0.8020 0.1963 -1.1998c 1.9987,-5.9737 3.9975,-11.9474 5.9963 -17.9211c -19.4503,-6.5080 -38.9007,-13.0160 -58.3510 -19.5240c -1.5990,4.7790 -3.1980,9.5579 -4.7970 14.3369c -0.6623,1.9795 -2.8040,3.0473 -4.7835 2.3849c -21.5053,-7.1956 -43.0106,-14.3911 -64.5159 -21.5867c -0.7995,2.3895 -1.5990,4.7790 -2.3985 7.1685c -0.6623,1.9795 -2.8040,3.0473 -4.7835 2.3849c -21.5053,-7.1956 -43.0106,-14.3911 -64.5159 -21.5867c -0.6623,1.9795 -2.8040,3.0473 -4.7835 2.3849c -23.5602,-7.8831 -47.1205,-15.7663 -70.6807 -23.6494c -1.5817,-0.5292 -2.5813,-2.0029 -2.5813 -3.5837ZM 113.9489,24.1260 c 0.0000,-3.1310 2.5382,-5.6693 5.6693 -5.6693c 3.1311,-0.0000 5.6693,2.5382 5.6693 5.6693c 0.0000,3.1311 -2.5382,5.6693 -5.6693 5.6693c -3.1310,-0.0000 -5.6693,-2.5382 -5.6693 -5.6693ZM 478.9640,518.3731 c 0.0000,-3.1310 2.5382,-5.6693 5.6693 -5.6693c 3.1310,-0.0000 5.6693,2.5382 5.6693 5.6693c 0.0000,3.1311 -2.5382,5.6693 -5.6693 5.6693c -3.1311,-0.0000 -5.6693,-2.5382 -5.6693 -5.6693ZM 573.4484,99.7165 c 0.0000,-3.1310 2.5382,-5.6693 5.6693 -5.6693c 3.1311,-0.0000 5.6693,2.5382 5.6693 5.6693c 0.0000,3.1311 -2.5382,5.6693 -5.6693 5.6693c -3.1310,-0.0000 -5.6693,-2.5382 -5.6693 -5.6693ZM 656.5493,425.6969 c -0.0000,-1.5808 0.9996,-3.0545 2.5813 -3.5837c 21.5053,-7.1956 43.0106,-14.3911 64.5159 -21.5867c -3.3979,-10.1553 -6.7958,-20.3105 -10.1937 -30.4658c -0.1331,-0.3978 -0.1963,-0.8022 -0.1963 -1.1998c 0.0000,-1.5808 0.9996,-3.0545 2.5813 -3.5837c 21.5053,-7.1956 43.0106,-14.3912 64.5159 -21.5867c -3.1101,-9.2951 -6.2202,-18.5901 -9.3303 -27.8852c -0.2878,-0.8602 -0.5756,-1.7204 -0.8635 -2.5806c -0.0004,-0.0011 -0.0007,-0.0022 -0.0011 -0.0033c -7.3071,-21.8387 -14.6143,-43.6774 -21.9214 -65.5161c -0.2878,-0.8602 -0.5756,-1.7205 -0.8634 -2.5807c -7.5954,-22.7000 -15.1907,-45.4001 -22.7860 -68.1001c -0.1331,-0.3978 -0.1963,-0.8022 -0.1963 -1.1998c 0.0000,-1.5808 0.9996,-3.0545 2.5813 -3.5837c 21.5053,-7.1956 43.0106,-14.3912 64.5159 -21.5867c -1.5990,-4.7789 -3.1980,-9.5579 -4.7970 -14.3369c -0.1331,-0.3978 -0.1963,-0.8021 -0.1963 -1.1998c 0.0000,-1.5808 0.9996,-3.0545 2.5813 -3.5837c 21.5053,-7.1956 43.0106,-14.3911 64.5159 -21.5867c -1.9987,-5.9737 -3.9975,-11.9474 -5.9963 -17.9211c -0.1331,-0.3978 -0.1963,-0.8021 -0.1963 -1.1998c 0.0000,-1.5808 0.9996,-3.0545 2.5813 -3.5837c 23.5602,-7.8831 47.1205,-15.7663 70.6807 -23.6495c 1.9795,-0.6623 4.1211,0.4055 4.7835 2.3850c 1.5990,4.7790 3.1980,9.5579 4.7970 14.3369c 21.5053,-7.1956 43.0106,-14.3911 64.5159 -21.5867c 1.9795,-0.6623 4.1211,0.4055 4.7835 2.3849c 0.7995,2.3895 1.5990,4.7790 2.3985 7.1685c 21.5053,-7.1956 43.0106,-14.3911 64.5159 -21.5867c 1.9795,-0.6623 4.1211,0.4055 4.7835 2.3850c 21.5053,-7.1956 43.0106,-14.3911 64.5158 -21.5867c 1.9795,-0.6623 4.1212,0.4054 4.7835 2.3849c 7.5953,22.7001 15.1906,45.4001 22.7859 68.1001c 0.2879,0.8602 0.5757,1.7204 0.8635 2.5806c 7.3075,21.8398 14.6150,43.6797 21.9225 65.5194c 0.2878,0.8602 0.5756,1.7205 0.8635 2.5806c 7.3070,21.8383 14.6140,43.6767 21.9210 65.5150c 0.0005,0.0015 0.0010,0.0030 0.0015 0.0045c 0.2878,0.8602 0.5756,1.7204 0.8634 2.5806c 7.5953,22.7001 15.1907,45.4001 22.7860 68.1001c 0.1331,0.3978 0.1963,0.8021 0.1963 1.1998c 0.0000,1.5808 -0.9996,3.0545 -2.5813 3.5837c -23.5602,7.8831 -47.1205,15.7663 -70.6807 23.6494c -1.9795,0.6623 -4.1212,-0.4055 -4.7835 -2.3849c -21.5053,7.1956 -43.0106,14.3911 -64.5159 21.5867c -1.9795,0.6623 -4.1212,-0.4055 -4.7835 -2.3849c -0.7995,-2.3895 -1.5990,-4.7790 -2.3985 -7.1685c -21.5053,7.1956 -43.0106,14.3911 -64.5159 21.5867c -1.9795,0.6623 -4.1211,-0.4054 -4.7835 -2.3849c -1.5990,-4.7790 -3.1980,-9.5579 -4.7970 -14.3369c -19.4503,6.5080 -38.9007,13.0160 -58.3510 19.5240c 1.9987,5.9737 3.9975,11.9474 5.9963 17.9211c 0.1331,0.3978 0.1963,0.8021 0.1963 1.1998c 0.0000,1.5808 -0.9996,3.0545 -2.5813 3.5837c -21.5053,7.1956 -43.0106,14.3911 -64.5159 21.5867c 1.5990,4.7790 3.1980,9.5579 4.7971 14.3369c 0.1331,0.3978 0.1963,0.8022 0.1963 1.1998c 0.0000,1.5808 -0.9996,3.0545 -2.5813 3.5837c -21.5053,7.1956 -43.0106,14.3911 -64.5159 21.5867c 3.3979,10.1553 6.7958,20.3106 10.1937 30.4659c 0.1331,0.3978 0.1963,0.8022 0.1963 1.1998c 0.0000,1.5808 -0.9996,3.0545 -2.5813 3.5837c -23.5602,7.8832 -47.1205,15.7663 -70.6807 23.6495c -1.9795,0.6623 -4.1211,-0.4055 -4.7835 -2.3850c -3.3979,-10.1553 -6.7958,-20.3105 -10.1937 -30.4658c -21.5053,7.1956 -43.0106,14.3911 -64.5159 21.5867c -1.9795,0.6623 -4.1211,-0.4055 -4.7835 -2.3850c -7.8832,-23.5602 -15.7663,-47.1205 -23.6494 -70.6807c -0.1331,-0.3978 -0.1963,-0.8022 -0.1963 -1.1998ZM 686.8343,99.7165 c 0.0000,-3.1310 2.5382,-5.6693 5.6693 -5.6693c 3.1310,-0.0000 5.6693,2.5382 5.6693 5.6693c 0.0000,3.1311 -2.5382,5.6693 -5.6693 5.6693c -3.1311,-0.0000 -5.6693,-2.5382 -5.6693 -5.6693ZM 781.3188,518.3731 c 0.0000,-3.1310 2.5382,-5.6693 5.6693 -5.6693c 3.1311,-0.0000 5.6693,2.5382 5.6693 5.6693c 0.0000,3.1311 -2.5382,5.6693 -5.6693 5.6693c -3.1310,-0.0000 -5.6693,-2.5382 -5.6693 -5.6693ZM 1146.3338,24.1260 c 0.0000,-3.1310 2.5382,-5.6693 5.6693 -5.6693c 3.1310,-0.0000 5.6693,2.5382 5.6693 5.6693c 0.0000,3.1311 -2.5382,5.6693 -5.6693 5.6693c -3.1311,-0.0000 -5.6693,-2.5382 -5.6693 -5.6693ZM 1241.8233,301.9548 c 0.0000,-3.1310 2.5382,-5.6693 5.6693 -5.6693c 3.1311,-0.0000 5.6693,2.5382 5.6693 5.6693c 0.0000,3.1311 -2.5382,5.6693 -5.6693 5.6693c -3.1310,-0.0000 -5.6693,-2.5382 -5.6693 -5.6693Z"/></g></svg>