<?xml version="1.0" encoding="UTF-8"?>
<!DOCTYPE svg PUBLIC "-//W3C//DTD SVG 1.1//EN"
    "http://www.w3.org/Graphics/SVG/1.1/DTD/svg11.dtd"><svg xmlns="http://www.w3.org/2000/svg" height="1466.4012" stroke-opacity="1" viewBox="0 0 687 1466" font-size="1" width="687.1954" xmlns:xlink="http://www.w3.org/1999/xlink" stroke="rgb(0,0,0)" version="1.1"><defs></defs><g stroke-linejoin="miter" stroke-opacity="1.0" fill-opacity="0.5" stroke="rgb(0,0,0)" stroke-width="0.37795275590551186" fill="rgb(0,0,0)" stroke-linecap="butt" stroke-miterlimit="10.0"><path d="M 3.9685,1432.1914 c 0.0004,-23.9371 0.0008,-47.8741 0.0012 -71.8110c 0.0000,-0.9073 0.0000,-1.8144 0.0001 -2.7215c 0.0004,-23.0299 0.0008,-46.0598 0.0012 -69.0897c 0.0000,-0.0000 0.0000,-0.0001 0.0000 -0.0001c 0.0000,-0.9072 0.0000,-1.8143 0.0001 -2.7215c 0.0004,-23.0299 0.0008,-46.0598 0.0012 -69.0897c 0.0000,-0.0000 0.0000,-0.0001 0.0000 -0.0001c 0.0000,-0.9071 0.0000,-1.8142 0.0000 -2.7213c 0.0000,-0.0015 0.0000,-0.0030 0.0000 -0.0045c 0.0004,-23.9355 0.0008,-47.8710 0.0013 -71.8065c 0.0003,-16.6078 13.6290,-30.2360 30.2367 -30.2357c 23.9370,0.0004 47.8740,0.0008 71.8110 0.0013c 0.9071,-0.0000 1.8142,-0.0000 2.7213 0.0000c 0.0015,-0.0000 0.0031,-0.0000 0.0046 -0.0000c 23.0284,0.0004 46.0568,0.0008 69.0852 0.0012c 0.9071,0.0000 1.8142,0.0000 2.7213 0.0001c 0.0015,-0.0000 0.0031,-0.0000 0.0046 -0.0000c 23.0284,0.0004 46.0568,0.0008 69.0852 0.0012c 0.9071,-0.0000 1.8143,0.0000 2.7215 0.0001c 11.5150,0.0002 23.0299,0.0004 34.5449 0.0006c 18.8960,-0.0000 37.7920,-0.0000 56.6880 -0.0000c 18.5273,-0.0000 37.0547,-0.0000 55.5820 -0.0000c 0.3687,-0.0000 0.7373,-0.0000 1.1059 -0.0000c 11.5150,-0.0002 23.0300,-0.0004 34.5449 -0.0006c 0.9071,-0.0000 1.8143,-0.0001 2.7215 -0.0001c 23.0284,-0.0004 46.0568,-0.0008 69.0852 -0.0012c 0.0015,-0.0000 0.0031,-0.0000 0.0046 -0.0000c 0.9071,-0.0000 1.8142,-0.0000 2.7213 -0.0001c 23.0284,-0.0004 46.0568,-0.0008 69.0852 -0.0012c 0.0015,-0.0000 0.0031,-0.0000 0.0046 -0.0000c 0.9071,-0.0000 1.8142,-0.0000 2.7213 -0.0000c 23.9370,-0.0004 47.8740,-0.0008 71.8110 -0.0013c 16.6078,-0.0003 30.2364,13.6279 30.2367 30.2357c 0.0004,23.9355 0.0008,47.8710 0.0013 71.8065c 0.0000,0.0015 0.0000,0.0030 0.0000 0.0045c 0.0000,0.9071 0.0000,1.8141 0.0000 2.7213c 0.0000,-0.0000 0.0000,0.0000 0.0000 0.0001c 0.0004,23.0299 0.0008,46.0598 0.0012 69.0897c 0.0000,0.9072 0.0000,1.8143 0.0001 2.7215c 0.0000,-0.0000 0.0000,0.0000 0.0000 0.0001c 0.0004,23.0299 0.0008,46.0598 0.0012 69.0897c 0.0000,0.9072 0.0000,1.8143 0.0001 2.7215c 0.0000,0.0000 0.0000,0.0001 0.0000 0.0001c 0.0004,23.9370 0.0008,47.8740 0.0012 71.8110c 0.0000,0.0000 0.0000,0.0000 0.0000 0.0001c 0.0000,16.6076 -13.6280,30.2359 -30.2357 30.2362c -23.9370,0.0004 -47.8740,0.0008 -71.8110 0.0012c -0.9071,0.0000 -1.8142,0.0000 -2.7213 0.0001c -23.0299,0.0004 -46.0599,0.0008 -69.0898 0.0012c -0.9072,0.0000 -1.8143,0.0000 -2.7215 0.0001c -0.0019,-0.0000 -0.0037,-0.0000 -0.0055 -0.0000c -23.0279,0.0004 -46.0558,0.0008 -69.0838 0.0012c -0.9071,0.0000 -1.8143,0.0000 -2.7215 0.0000c -0.0017,-0.0000 -0.0034,-0.0000 -0.0051 -0.0000c -11.5134,0.0002 -23.0267,0.0004 -34.5400 0.0006c -0.4542,-0.0000 -0.9085,-0.0000 -1.3627 -0.0000c -11.9676,0.0002 -23.9351,0.0004 -35.9027 0.0006c -0.0655,-0.0000 -0.1309,-0.0002 -0.1962 -0.0006c -6.4108,-0.0000 -12.8216,-0.0000 -19.2324 -0.0000c -6.4108,-0.0000 -12.8216,-0.0000 -19.2324 -0.0000c -0.0654,0.0004 -0.1308,0.0006 -0.1962 0.0006c -12.4218,-0.0002 -24.8436,-0.0004 -37.2654 -0.0006c -11.5134,-0.0002 -23.0267,-0.0004 -34.5400 -0.0006c -0.0017,-0.0000 -0.0034,-0.0000 -0.0051 -0.0000c -0.9071,-0.0000 -1.8143,-0.0000 -2.7215 -0.0000c -23.0279,-0.0004 -46.0558,-0.0008 -69.0838 -0.0012c -0.0019,-0.0000 -0.0037,-0.0000 -0.0055 -0.0000c -0.9072,-0.0000 -1.8143,-0.0000 -2.7215 -0.0001c -23.0299,-0.0004 -46.0598,-0.0008 -69.0898 -0.0012c -0.9071,-0.0000 -1.8142,-0.0000 -2.7213 -0.0001c -23.9370,-0.0004 -47.8740,-0.0008 -71.8110 -0.0012c -16.6077,-0.0003 -30.2357,-13.6287 -30.2357 -30.2362ZM 17.1278,1443.5989 c 0.0000,3.1311 2.5382,5.6693 5.6693 5.6693c 3.1311,-0.0000 5.6693,-2.5382 5.6693 -5.6693c 0.0000,-3.1311 -2.5382,-5.6693 -5.6693 -5.6693c -3.1311,-0.0000 -5.6693,2.5382 -5.6693 5.6693ZM 17.1332,1130.8182 c 0.0000,3.1311 2.5382,5.6693 5.6693 5.6693c 3.1311,-0.0000 5.6693,-2.5382 5.6693 -5.6693c 0.0000,-3.1311 -2.5382,-5.6693 -5.6693 -5.6693c -3.1311,-0.0000 -5.6693,2.5382 -5.6693 5.6693ZM 281.2346,1447.7297 c 0.0000,3.1311 2.5382,5.6693 5.6693 5.6693c 3.1311,-0.0000 5.6693,-2.5382 5.6693 -5.6693c 0.0000,-3.1311 -2.5382,-5.6693 -5.6693 -5.6693c -3.1311,-0.0000 -5.6693,2.5382 -5.6693 5.6693ZM 309.5820,1126.6966 c 0.0000,3.1311 2.5382,5.6693 5.6693 5.6693c 3.1311,-0.0000 5.6693,-2.5382 5.6693 -5.6693c 0.0000,-3.1311 -2.5382,-5.6693 -5.6693 -5.6693c -3.1311,-0.0000 -5.6693,2.5382 -5.6693 5.6693ZM 366.2749,1126.6966 c 0.0000,3.1311 2.5382,5.6693 5.6693 5.6693c 3.1311,-0.0000 5.6693,-2.5382 5.6693 -5.6693c 0.0000,-3.1311 -2.5382,-5.6693 -5.6693 -5.6693c -3.1311,-0.0000 -5.6693,2.5382 -5.6693 5.6693ZM 394.6223,1447.7297 c 0.0000,3.1311 2.5382,5.6693 5.6693 5.6693c 3.1311,-0.0000 5.6693,-2.5382 5.6693 -5.6693c 0.0000,-3.1311 -2.5382,-5.6693 -5.6693 -5.6693c -3.1311,-0.0000 -5.6693,2.5382 -5.6693 5.6693ZM 658.7236,1130.8182 c 0.0000,3.1311 2.5382,5.6693 5.6693 5.6693c 3.1311,-0.0000 5.6693,-2.5382 5.6693 -5.6693c 0.0000,-3.1311 -2.5382,-5.6693 -5.6693 -5.6693c -3.1311,-0.0000 -5.6693,2.5382 -5.6693 5.6693ZM 658.7291,1443.5989 c 0.0000,3.1311 2.5382,5.6693 5.6693 5.6693c 3.1311,-0.0000 5.6693,-2.5382 5.6693 -5.6693c 0.0000,-3.1311 -2.5382,-5.6693 -5.6693 -5.6693c -3.1311,-0.0000 -5.6693,2.5382 -5.6693 5.6693Z"/></g><g stroke-linejoin="miter" stroke-opacity="1.0" fill-opacity="0.5" stroke="rgb(0,0,0)" stroke-width="0.37795275590551186" fill="rgb(255,255,0)" stroke-linecap="butt" stroke-miterlimit="10.0"><path d="M 3.9685,1062.8510 c 0.0004,-23.9371 0.0008,-47.8741 0.0012 -71.8110c 0.0000,-0.9073 0.0000,-1.8144 0.0001 -2.7215c 0.0004,-23.0299 0.0008,-46.0598 0.0012 -69.0897c 0.0000,-0.0000 0.0000,-0.0001 0.0000 -0.0001c 0.0000,-0.9072 0.0000,-1.8143 0.0001 -2.7215c 0.0004,-23.0299 0.0008,-46.0598 0.0012 -69.0897c 0.0000,-0.0000 0.0000,-0.0001 0.0000 -0.0001c 0.0000,-0.9071 0.0000,-1.8142 0.0000 -2.7213c 0.0000,-0.0015 0.0000,-0.0030 0.0000 -0.0045c 0.0004,-23.9355 0.0008,-47.8710 0.0013 -71.8065c 0.0001,-4.2135 0.8774,-8.2353 2.4580 -11.8914c 3.0689,-7.0985 8.7891,-12.8184 15.8878 -15.8869c 3.6560,-1.5804 7.6776,-2.4574 11.8909 -2.4574c 23.9370,0.0004 47.8740,0.0008 71.8110 0.0013c 0.9071,-0.0000 1.8142,-0.0000 2.7213 0.0000c 0.0015,-0.0000 0.0031,-0.0000 0.0046 -0.0000c 23.0284,0.0004 46.0568,0.0008 69.0852 0.0012c 0.9071,0.0000 1.8142,0.0000 2.7213 0.0001c 0.0015,-0.0000 0.0031,-0.0000 0.0046 -0.0000c 23.0284,0.0004 46.0568,0.0008 69.0852 0.0012c 0.9071,-0.0000 1.8143,0.0000 2.7215 0.0001c 11.5150,0.0002 23.0299,0.0004 34.5449 0.0006c 7.0389,-0.0000 14.0778,-0.0000 21.1167 -0.0000c 4.8166,-0.0000 9.6331,-0.0000 14.4497 -0.0000c 7.0405,-0.0000 14.0811,-0.0000 21.1216 -0.0000c 7.0405,-0.0000 14.0811,-0.0000 21.1216 -0.0000c 4.8166,-0.0000 9.6331,-0.0000 14.4497 -0.0000c 6.6702,-0.0000 13.3405,-0.0000 20.0107 -0.0000c 0.3687,-0.0000 0.7373,-0.0000 1.1059 -0.0000c 11.5150,-0.0002 23.0300,-0.0004 34.5449 -0.0006c 0.9071,-0.0000 1.8143,-0.0001 2.7215 -0.0001c 23.0284,-0.0004 46.0568,-0.0008 69.0852 -0.0012c 0.0015,-0.0000 0.0031,-0.0000 0.0046 -0.0000c 0.9071,-0.0000 1.8142,-0.0000 2.7213 -0.0001c 23.0284,-0.0004 46.0568,-0.0008 69.0852 -0.0012c 0.0015,-0.0000 0.0031,-0.0000 0.0046 -0.0000c 0.9071,-0.0000 1.8142,-0.0000 2.7213 -0.0000c 23.9370,-0.0004 47.8740,-0.0008 71.8110 -0.0013c 4.2133,-0.0001 8.2350,0.8770 11.8909 2.4574c 7.0987,3.0685 12.8189,8.7885 15.8878 15.8869c 1.5806,3.6561 2.4580,7.6778 2.4580 11.8914c 0.0004,23.9355 0.0008,47.8710 0.0013 71.8065c 0.0000,0.0015 0.0000,0.0030 0.0000 0.0045c 0.0000,0.9071 0.0000,1.8141 0.0000 2.7213c 0.0000,-0.0000 0.0000,0.0000 0.0000 0.0001c 0.0004,23.0299 0.0008,46.0598 0.0012 69.0897c 0.0000,0.9072 0.0000,1.8143 0.0001 2.7215c 0.0000,-0.0000 0.0000,0.0000 0.0000 0.0001c 0.0004,23.0299 0.0008,46.0598 0.0012 69.0897c 0.0000,0.9072 0.0000,1.8143 0.0001 2.7215c 0.0000,0.0000 0.0000,0.0001 0.0000 0.0001c 0.0004,23.9370 0.0008,47.8740 0.0012 71.8110c 0.0000,0.0000 0.0000,0.0000 0.0000 0.0001c 0.0000,4.2134 -0.8772,8.2350 -2.4576 11.8910c -3.0687,7.0986 -8.7887,12.8187 -15.8873 15.8875c -3.6559,1.5805 -7.6775,2.4577 -11.8908 2.4578c -23.9370,0.0004 -47.8740,0.0008 -71.8110 0.0012c -0.9071,0.0000 -1.8142,0.0000 -2.7213 0.0001c -23.0299,0.0004 -46.0599,0.0008 -69.0898 0.0012c -0.9072,0.0000 -1.8143,0.0000 -2.7215 0.0001c -0.0019,-0.0000 -0.0037,-0.0000 -0.0055 -0.0000c -23.0279,0.0004 -46.0558,0.0008 -69.0838 0.0012c -0.9071,0.0000 -1.8143,0.0000 -2.7215 0.0000c -0.0017,-0.0000 -0.0034,-0.0000 -0.0051 -0.0000c -9.1051,0.0002 -18.2101,0.0003 -27.3152 0.0005c -2.4083,0.0000 -4.8166,0.0001 -7.2249 0.0001c -0.4542,-0.0000 -0.9085,-0.0000 -1.3627 -0.0000c -1.9541,0.0000 -3.9081,0.0001 -5.8622 0.0001c -10.0135,0.0002 -20.0270,0.0004 -30.0405 0.0005c -0.0655,-0.0000 -0.1309,-0.0002 -0.1962 -0.0006c -6.4108,-0.0000 -12.8216,-0.0000 -19.2324 -0.0000c -6.4108,-0.0000 -12.8216,-0.0000 -19.2324 -0.0000c -0.0654,0.0004 -0.1308,0.0006 -0.1962 0.0006c -10.0135,-0.0002 -20.0271,-0.0003 -30.0406 -0.0005c -2.4083,-0.0000 -4.8166,-0.0001 -7.2249 -0.0001c -2.4083,-0.0000 -4.8166,-0.0001 -7.2249 -0.0001c -9.1051,-0.0002 -18.2101,-0.0003 -27.3152 -0.0005c -0.0017,-0.0000 -0.0034,-0.0000 -0.0051 -0.0000c -0.9071,-0.0000 -1.8143,-0.0000 -2.7215 -0.0000c -23.0279,-0.0004 -46.0558,-0.0008 -69.0838 -0.0012c -0.0019,-0.0000 -0.0037,-0.0000 -0.0055 -0.0000c -0.9072,-0.0000 -1.8143,-0.0000 -2.7215 -0.0001c -23.0299,-0.0004 -46.0598,-0.0008 -69.0898 -0.0012c -0.9071,-0.0000 -1.8142,-0.0000 -2.7213 -0.0001c -23.9370,-0.0004 -47.8740,-0.0008 -71.8110 -0.0012c -4.2133,-0.0001 -8.2349,-0.8773 -11.8908 -2.4578c -7.0986,-3.0688 -12.8186,-8.7889 -15.8873 -15.8875c -1.5804,-3.6560 -2.4576,-7.6776 -2.4576 -11.8910ZM 17.1278,1074.2585 c 0.0000,3.1311 2.5382,5.6693 5.6693 5.6693c 3.1311,-0.0000 5.6693,-2.5382 5.6693 -5.6693c 0.0000,-3.1311 -2.5382,-5.6693 -5.6693 -5.6693c -3.1311,-0.0000 -5.6693,2.5382 -5.6693 5.6693ZM 17.1332,761.4777 c 0.0000,3.1311 2.5382,5.6693 5.6693 5.6693c 3.1311,-0.0000 5.6693,-2.5382 5.6693 -5.6693c 0.0000,-3.1311 -2.5382,-5.6693 -5.6693 -5.6693c -3.1311,-0.0000 -5.6693,2.5382 -5.6693 5.6693ZM 26.6459,1058.3353 c 5.9540,1.4340 10.6406,6.1207 12.0744 12.0748c 22.4318,0.0004 44.8636,0.0008 67.2954 0.0012c 0.9071,-0.0000 1.8142,0.0000 2.7213 0.0000c 23.0299,0.0004 46.0598,0.0008 69.0898 0.0012c 0.9071,0.0000 1.8142,0.0000 2.7213 0.0000c 0.0067,-0.0000 0.0133,-0.0000 0.0200 -0.0000c 23.0279,0.0004 46.0558,0.0008 69.0838 0.0012c 0.9071,0.0000 1.8142,0.0000 2.7213 0.0001c 0.0069,-0.0000 0.0138,-0.0000 0.0207 -0.0001c 6.7339,0.0001 13.4677,0.0002 20.2015 0.0004c 2.8001,-5.0131 8.1584,-8.4028 14.3084 -8.4028c 6.1502,-0.0000 11.5087,3.3900 14.3087 8.4033c 7.6623,0.0001 15.3245,0.0003 22.9868 0.0004c 0.0338,-0.0000 0.0676,-0.0002 0.1014 -0.0007c 6.4323,-0.0000 12.8647,-0.0000 19.2970 -0.0000c 6.4323,-0.0000 12.8647,-0.0000 19.2970 -0.0000c 0.0337,0.0005 0.0675,0.0007 0.1014 0.0007c 7.6623,-0.0001 15.3245,-0.0003 22.9868 -0.0004c 2.8001,-5.0134 8.1585,-8.4033 14.3087 -8.4033c 6.1500,-0.0000 11.5083,3.3898 14.3084 8.4028c 6.7338,-0.0001 13.4677,-0.0002 20.2015 -0.0004c 0.0069,0.0000 0.0138,0.0001 0.0207 0.0001c 0.9071,-0.0000 1.8142,-0.0000 2.7213 -0.0001c 23.0279,-0.0004 46.0558,-0.0008 69.0838 -0.0012c 0.0067,0.0000 0.0133,0.0000 0.0200 0.0000c 0.9071,-0.0000 1.8142,-0.0000 2.7213 -0.0000c 23.0299,-0.0004 46.0598,-0.0008 69.0898 -0.0012c 0.9071,-0.0000 1.8142,-0.0000 2.7213 -0.0000c 22.4318,-0.0004 44.8636,-0.0008 67.2954 -0.0012c 1.4338,-5.9541 6.1204,-10.6408 12.0744 -12.0748c -0.0004,-22.4318 -0.0008,-44.8636 -0.0012 -67.2954c 0.0000,-0.0000 0.0000,-0.0000 0.0000 -0.0001c 0.0000,-0.9071 -0.0000,-1.8142 -0.0000 -2.7213c -0.0004,-23.0299 -0.0008,-46.0598 -0.0012 -69.0897c 0.0000,-0.0000 0.0000,-0.0000 0.0000 -0.0001c 0.0000,-0.9071 -0.0000,-1.8142 -0.0000 -2.7213c -0.0004,-23.0299 -0.0008,-46.0598 -0.0012 -69.0897c 0.0000,-0.0000 0.0000,-0.0000 0.0000 -0.0001c 0.0000,-0.9071 -0.0000,-1.8142 -0.0000 -2.7213c 0.0000,-0.0015 0.0000,-0.0030 0.0000 -0.0045c -0.0004,-22.4303 -0.0008,-44.8606 -0.0012 -67.2910c -5.9541,-1.4338 -10.6408,-6.1204 -12.0748 -12.0744c -22.4318,0.0004 -44.8636,0.0008 -67.2955 0.0012c -0.9071,-0.0000 -1.8142,0.0000 -2.7213 0.0000c -0.0015,-0.0000 -0.0031,-0.0000 -0.0046 -0.0000c -23.0284,0.0004 -46.0568,0.0008 -69.0852 0.0012c -0.9071,-0.0000 -1.8142,0.0000 -2.7213 0.0000c -0.0016,-0.0000 -0.0031,-0.0000 -0.0046 -0.0000c -23.0284,0.0004 -46.0568,0.0008 -69.0852 0.0012c -0.9071,0.0000 -1.8142,0.0000 -2.7213 0.0001c -11.5150,0.0002 -23.0299,0.0004 -34.5449 0.0006c -4.6778,-0.0000 -9.3555,-0.0000 -14.0333 -0.0000c -2.8001,5.0133 -8.1585,8.4032 -14.3086 8.4032c -6.1501,-0.0000 -11.5085,-3.3899 -14.3086 -8.4032c -4.6793,-0.0000 -9.3585,-0.0000 -14.0378 -0.0000c -4.6793,-0.0000 -9.3586,-0.0000 -14.0378 -0.0000c -2.8001,5.0133 -8.1585,8.4032 -14.3086 8.4032c -6.1502,-0.0000 -11.5086,-3.3899 -14.3086 -8.4032c -4.6778,-0.0000 -9.3555,-0.0000 -14.0333 -0.0000c -11.5150,-0.0002 -23.0299,-0.0004 -34.5449 -0.0006c -0.9071,-0.0000 -1.8142,-0.0000 -2.7213 -0.0001c -23.0284,-0.0004 -46.0568,-0.0008 -69.0852 -0.0012c -0.0015,-0.0000 -0.0030,-0.0000 -0.0046 -0.0000c -0.9071,-0.0000 -1.8141,-0.0000 -2.7213 -0.0000c -23.0284,-0.0004 -46.0568,-0.0008 -69.0852 -0.0012c -0.0015,-0.0000 -0.0031,-0.0000 -0.0046 -0.0000c -0.9071,-0.0000 -1.8141,-0.0000 -2.7213 -0.0000c -22.4318,-0.0004 -44.8636,-0.0008 -67.2955 -0.0012c -1.4340,5.9540 -6.1208,10.6406 -12.0748 12.0744c -0.0004,22.4289 -0.0008,44.8582 -0.0012 67.2955c 0.0000,0.9070 -0.0000,1.8141 -0.0000 2.7213c -0.0004,23.0299 -0.0008,46.0598 -0.0012 69.0897c 0.0000,0.9071 -0.0000,1.8141 -0.0000 2.7213c -0.0004,23.0299 -0.0008,46.0598 -0.0012 69.0897c 0.0000,0.9071 -0.0000,1.8141 -0.0000 2.7213c -0.0004,22.4317 -0.0008,44.8635 -0.0012 67.2954ZM 281.2346,1078.3892 c 0.0000,3.1311 2.5382,5.6693 5.6693 5.6693c 3.1311,-0.0000 5.6693,-2.5382 5.6693 -5.6693c 0.0000,-3.1311 -2.5382,-5.6693 -5.6693 -5.6693c -3.1311,-0.0000 -5.6693,2.5382 -5.6693 5.6693ZM 309.5820,757.3562 c 0.0000,3.1311 2.5382,5.6693 5.6693 5.6693c 3.1311,-0.0000 5.6693,-2.5382 5.6693 -5.6693c 0.0000,-3.1311 -2.5382,-5.6693 -5.6693 -5.6693c -3.1311,-0.0000 -5.6693,2.5382 -5.6693 5.6693ZM 366.2749,757.3562 c 0.0000,3.1311 2.5382,5.6693 5.6693 5.6693c 3.1311,-0.0000 5.6693,-2.5382 5.6693 -5.6693c 0.0000,-3.1311 -2.5382,-5.6693 -5.6693 -5.6693c -3.1311,-0.0000 -5.6693,2.5382 -5.6693 5.6693ZM 394.6223,1078.3892 c 0.0000,3.1311 2.5382,5.6693 5.6693 5.6693c 3.1311,-0.0000 5.6693,-2.5382 5.6693 -5.6693c 0.0000,-3.1311 -2.5382,-5.6693 -5.6693 -5.6693c -3.1311,-0.0000 -5.6693,2.5382 -5.6693 5.6693ZM 658.7236,761.4777 c 0.0000,3.1311 2.5382,5.6693 5.6693 5.6693c 3.1311,-0.0000 5.6693,-2.5382 5.6693 -5.6693c 0.0000,-3.1311 -2.5382,-5.6693 -5.6693 -5.6693c -3.1311,-0.0000 -5.6693,2.5382 -5.6693 5.6693ZM 658.7291,1074.2585 c 0.0000,3.1311 2.5382,5.6693 5.6693 5.6693c 3.1311,-0.0000 5.6693,-2.5382 5.6693 -5.6693c 0.0000,-3.1311 -2.5382,-5.6693 -5.6693 -5.6693c -3.1311,-0.0000 -5.6693,2.5382 -5.6693 5.6693Z"/></g><g stroke-linejoin="miter" stroke-opacity="1.0" fill-opacity="0.5" stroke="rgb(0,0,0)" stroke-width="0.37795275590551186" fill="rgb(0,0,0)" stroke-linecap="butt" stroke-miterlimit="10.0"><path d="M 3.9685,693.5105 c 0.0004,-23.9371 0.0008,-47.8741 0.0012 -71.8110c 0.0000,-0.9073 0.0000,-1.8144 0.0001 -2.7215c 0.0004,-23.0299 0.0008,-46.0598 0.0012 -69.0897c 0.0000,-0.0000 0.0000,-0.0001 0.0000 -0.0001c 0.0000,-0.9072 0.0000,-1.8143 0.0001 -2.7215c 0.0004,-23.0299 0.0008,-46.0598 0.0012 -69.0897c 0.0000,-0.0000 0.0000,-0.0001 0.0000 -0.0001c 0.0000,-0.9071 0.0000,-1.8142 0.0000 -2.7213c 0.0000,-0.0015 0.0000,-0.0030 0.0000 -0.0045c 0.0004,-23.9355 0.0008,-47.8710 0.0013 -71.8065c 0.0003,-16.6078 13.6290,-30.2360 30.2367 -30.2357c 23.9370,0.0004 47.8740,0.0008 71.8110 0.0013c 0.9071,-0.0000 1.8142,-0.0000 2.7213 0.0000c 0.0015,-0.0000 0.0031,-0.0000 0.0046 -0.0000c 23.0284,0.0004 46.0568,0.0008 69.0852 0.0012c 0.9071,0.0000 1.8142,0.0000 2.7213 0.0001c 0.0015,-0.0000 0.0031,-0.0000 0.0046 -0.0000c 23.0284,0.0004 46.0568,0.0008 69.0852 0.0012c 0.9071,-0.0000 1.8143,0.0000 2.7215 0.0001c 11.5150,0.0002 23.0299,0.0004 34.5449 0.0006c 18.8960,-0.0000 37.7920,-0.0000 56.6880 -0.0000c 18.5273,-0.0000 37.0547,-0.0000 55.5820 -0.0000c 0.3687,-0.0000 0.7373,-0.0000 1.1059 -0.0000c 11.5150,-0.0002 23.0300,-0.0004 34.5449 -0.0006c 0.9071,-0.0000 1.8143,-0.0001 2.7215 -0.0001c 23.0284,-0.0004 46.0568,-0.0008 69.0852 -0.0012c 0.0015,-0.0000 0.0031,-0.0000 0.0046 -0.0000c 0.9071,-0.0000 1.8142,-0.0000 2.7213 -0.0001c 23.0284,-0.0004 46.0568,-0.0008 69.0852 -0.0012c 0.0015,-0.0000 0.0031,-0.0000 0.0046 -0.0000c 0.9071,-0.0000 1.8142,-0.0000 2.7213 -0.0000c 23.9370,-0.0004 47.8740,-0.0008 71.8110 -0.0013c 16.6078,-0.0003 30.2364,13.6279 30.2367 30.2357c 0.0004,23.9355 0.0008,47.8710 0.0013 71.8065c 0.0000,0.0015 0.0000,0.0030 0.0000 0.0045c 0.0000,0.9071 0.0000,1.8141 0.0000 2.7213c 0.0000,-0.0000 0.0000,0.0000 0.0000 0.0001c 0.0004,23.0299 0.0008,46.0598 0.0012 69.0897c 0.0000,0.9072 0.0000,1.8143 0.0001 2.7215c 0.0000,-0.0000 0.0000,0.0000 0.0000 0.0001c 0.0004,23.0299 0.0008,46.0598 0.0012 69.0897c 0.0000,0.9072 0.0000,1.8143 0.0001 2.7215c 0.0000,0.0000 0.0000,0.0001 0.0000 0.0001c 0.0004,23.9370 0.0008,47.8740 0.0012 71.8110c 0.0000,0.0000 0.0000,0.0000 0.0000 0.0001c 0.0000,16.6076 -13.6280,30.2359 -30.2357 30.2362c -23.9370,0.0004 -47.8740,0.0008 -71.8110 0.0012c -0.9071,0.0000 -1.8142,0.0000 -2.7213 0.0001c -23.0299,0.0004 -46.0599,0.0008 -69.0898 0.0012c -0.9072,0.0000 -1.8143,0.0000 -2.7215 0.0001c -0.0019,-0.0000 -0.0037,-0.0000 -0.0055 -0.0000c -23.0279,0.0004 -46.0558,0.0008 -69.0838 0.0012c -0.9071,0.0000 -1.8143,0.0000 -2.7215 0.0000c -0.0017,-0.0000 -0.0034,-0.0000 -0.0051 -0.0000c -11.5134,0.0002 -23.0267,0.0004 -34.5400 0.0006c -0.4542,-0.0000 -0.9085,-0.0000 -1.3627 -0.0000c -11.9676,0.0002 -23.9351,0.0004 -35.9027 0.0006c -0.0655,-0.0000 -0.1309,-0.0002 -0.1962 -0.0006c -6.4108,-0.0000 -12.8216,-0.0000 -19.2324 -0.0000c -6.4108,-0.0000 -12.8216,-0.0000 -19.2324 -0.0000c -0.0654,0.0004 -0.1308,0.0006 -0.1962 0.0006c -12.4218,-0.0002 -24.8436,-0.0004 -37.2654 -0.0006c -11.5134,-0.0002 -23.0267,-0.0004 -34.5400 -0.0006c -0.0017,-0.0000 -0.0034,-0.0000 -0.0051 -0.0000c -0.9071,-0.0000 -1.8143,-0.0000 -2.7215 -0.0000c -23.0279,-0.0004 -46.0558,-0.0008 -69.0838 -0.0012c -0.0019,-0.0000 -0.0037,-0.0000 -0.0055 -0.0000c -0.9072,-0.0000 -1.8143,-0.0000 -2.7215 -0.0001c -23.0299,-0.0004 -46.0598,-0.0008 -69.0898 -0.0012c -0.9071,-0.0000 -1.8142,-0.0000 -2.7213 -0.0001c -23.9370,-0.0004 -47.8740,-0.0008 -71.8110 -0.0012c -16.6077,-0.0003 -30.2357,-13.6287 -30.2357 -30.2362ZM 17.1278,704.9180 c 0.0000,3.1311 2.5382,5.6693 5.6693 5.6693c 3.1311,-0.0000 5.6693,-2.5382 5.6693 -5.6693c 0.0000,-3.1311 -2.5382,-5.6693 -5.6693 -5.6693c -3.1311,-0.0000 -5.6693,2.5382 -5.6693 5.6693ZM 17.1332,392.1373 c 0.0000,3.1311 2.5382,5.6693 5.6693 5.6693c 3.1311,-0.0000 5.6693,-2.5382 5.6693 -5.6693c 0.0000,-3.1311 -2.5382,-5.6693 -5.6693 -5.6693c -3.1311,-0.0000 -5.6693,2.5382 -5.6693 5.6693ZM 41.9993,678.9389 c 1.0240,0.0000 2.0480,0.0000 3.0720 0.0001c -0.0000,1.2352 -0.0001,2.4704 -0.0001 3.7056c 17.6000,0.0003 35.2000,0.0006 52.8000 0.0009c 0.0000,-1.2352 0.0000,-2.4704 0.0001 -3.7056c 1.0240,0.0000 2.0480,0.0000 3.0720 0.0001c 0.0001,-4.4096 0.0002,-8.8191 0.0002 -13.2287c -1.0240,-0.0000 -2.0480,-0.0000 -3.0720 -0.0001c 0.0001,-6.3104 0.0002,-12.6209 0.0003 -18.9313c 1.0240,0.0000 2.0480,0.0000 3.0720 0.0001c 0.0001,-4.4096 0.0002,-8.8191 0.0002 -13.2287c -1.0240,-0.0000 -2.0480,-0.0000 -3.0720 -0.0001c 0.0000,-1.2352 0.0000,-2.4704 0.0001 -3.7056c -17.6000,-0.0003 -35.2000,-0.0006 -52.8000 -0.0009c -0.0000,1.2352 -0.0000,2.4704 -0.0001 3.7056c -1.0240,-0.0000 -2.0480,-0.0000 -3.0720 -0.0001c -0.0001,4.4096 -0.0002,8.8191 -0.0002 13.2287c 1.0240,0.0000 2.0480,0.0000 3.0720 0.0001c -0.0001,6.3104 -0.0002,12.6209 -0.0003 18.9313c -1.0240,-0.0000 -2.0480,-0.0000 -3.0720 -0.0001c -0.0001,4.4096 -0.0002,8.8191 -0.0002 13.2287ZM 42.0006,607.1279 c 1.0240,0.0000 2.0480,0.0000 3.0720 0.0001c -0.0000,1.2352 -0.0000,2.4704 -0.0001 3.7056c 17.6000,0.0003 35.2000,0.0006 52.8000 0.0009c 0.0000,-1.2352 0.0000,-2.4704 0.0001 -3.7056c 1.0240,0.0000 2.0480,0.0000 3.0720 0.0001c 0.0001,-4.4096 0.0002,-8.8191 0.0002 -13.2287c -1.0240,-0.0000 -2.0480,-0.0000 -3.0720 -0.0001c 0.0001,-6.3104 0.0002,-12.6209 0.0003 -18.9313c 1.0240,0.0000 2.0480,0.0000 3.0720 0.0001c 0.0001,-4.4096 0.0002,-8.8191 0.0002 -13.2287c -1.0240,-0.0000 -2.0480,-0.0000 -3.0720 -0.0001c 0.0000,-1.2352 0.0000,-2.4704 0.0001 -3.7056c -17.6000,-0.0003 -35.2000,-0.0006 -52.8000 -0.0009c -0.0000,1.2352 -0.0000,2.4704 -0.0001 3.7056c -1.0240,-0.0000 -2.0480,-0.0000 -3.0720 -0.0001c -0.0001,4.4096 -0.0002,8.8191 -0.0002 13.2287c 1.0240,0.0000 2.0480,0.0000 3.0720 0.0001c -0.0001,6.3104 -0.0002,12.6209 -0.0003 18.9313c -1.0240,-0.0000 -2.0480,-0.0000 -3.0720 -0.0001c -0.0001,4.4096 -0.0002,8.8191 -0.0002 13.2287ZM 42.0018,535.3168 c 1.0240,0.0000 2.0480,0.0000 3.0720 0.0001c -0.0000,1.2352 -0.0000,2.4704 -0.0001 3.7056c 17.6000,0.0003 35.2000,0.0006 52.8000 0.0009c 0.0000,-1.2352 0.0000,-2.4704 0.0001 -3.7056c 1.0240,0.0000 2.0480,0.0000 3.0720 0.0001c 0.0001,-4.4096 0.0002,-8.8191 0.0002 -13.2287c -1.0240,-0.0000 -2.0480,-0.0000 -3.0720 -0.0001c 0.0001,-6.3104 0.0002,-12.6208 0.0003 -18.9313c 1.0240,0.0000 2.0480,0.0000 3.0720 0.0001c 0.0001,-4.4096 0.0002,-8.8191 0.0002 -13.2287c -1.0240,-0.0000 -2.0480,-0.0000 -3.0720 -0.0001c 0.0000,-1.2352 0.0001,-2.4704 0.0001 -3.7056c -17.6000,-0.0003 -35.2000,-0.0006 -52.8000 -0.0009c -0.0000,1.2352 -0.0000,2.4704 -0.0001 3.7056c -1.0240,-0.0000 -2.0480,-0.0000 -3.0720 -0.0001c -0.0001,4.4096 -0.0002,8.8191 -0.0002 13.2287c 1.0240,0.0000 2.0480,0.0000 3.0720 0.0001c -0.0001,6.3104 -0.0002,12.6209 -0.0003 18.9313c -1.0240,-0.0000 -2.0480,-0.0000 -3.0720 -0.0001c -0.0001,4.4096 -0.0002,8.8191 -0.0002 13.2287ZM 42.0031,463.5058 c 1.0240,0.0000 2.0480,0.0000 3.0720 0.0001c -0.0000,1.2352 -0.0000,2.4704 -0.0001 3.7056c 17.6000,0.0003 35.2000,0.0006 52.8000 0.0009c 0.0000,-1.2352 0.0000,-2.4704 0.0001 -3.7056c 1.0240,0.0000 2.0480,0.0000 3.0720 0.0001c 0.0001,-4.4096 0.0002,-8.8191 0.0002 -13.2287c -1.0240,-0.0000 -2.0480,-0.0000 -3.0720 -0.0001c 0.0001,-6.3104 0.0002,-12.6208 0.0003 -18.9313c 1.0240,0.0000 2.0480,0.0000 3.0720 0.0001c 0.0001,-4.4096 0.0002,-8.8191 0.0002 -13.2287c -1.0240,-0.0000 -2.0480,-0.0000 -3.0720 -0.0001c 0.0000,-1.2352 0.0000,-2.4704 0.0001 -3.7056c -17.6000,-0.0003 -35.2000,-0.0006 -52.8000 -0.0009c -0.0000,1.2352 -0.0000,2.4704 -0.0001 3.7056c -1.0240,-0.0000 -2.0480,-0.0000 -3.0720 -0.0001c -0.0001,4.4096 -0.0002,8.8191 -0.0002 13.2287c 1.0240,0.0000 2.0480,0.0000 3.0720 0.0001c -0.0001,6.3104 -0.0002,12.6209 -0.0003 18.9313c -1.0240,-0.0000 -2.0480,-0.0000 -3.0720 -0.0001c -0.0001,4.4096 -0.0002,8.8191 -0.0002 13.2287ZM 113.8104,678.9401 c 1.0240,0.0000 2.0480,0.0000 3.0720 0.0001c -0.0000,1.2352 -0.0000,2.4704 -0.0001 3.7056c 17.6000,0.0003 35.2000,0.0006 52.8000 0.0009c 0.0000,-1.2352 0.0000,-2.4704 0.0001 -3.7056c 1.0240,0.0000 2.0480,0.0000 3.0720 0.0001c 0.0001,-4.4096 0.0002,-8.8191 0.0002 -13.2287c -1.0240,-0.0000 -2.0480,-0.0000 -3.0720 -0.0001c 0.0001,-6.3104 0.0002,-12.6209 0.0003 -18.9313c 1.0240,0.0000 2.0480,0.0000 3.0720 0.0001c 0.0001,-4.4096 0.0002,-8.8191 0.0002 -13.2287c -1.0240,-0.0000 -2.0480,-0.0000 -3.0720 -0.0001c 0.0000,-1.2352 0.0001,-2.4704 0.0001 -3.7056c -17.6000,-0.0003 -35.2000,-0.0006 -52.8000 -0.0009c -0.0000,1.2352 -0.0000,2.4704 -0.0001 3.7056c -1.0240,-0.0000 -2.0480,-0.0000 -3.0720 -0.0001c -0.0001,4.4096 -0.0002,8.8191 -0.0002 13.2287c 1.0240,0.0000 2.0480,0.0000 3.0720 0.0001c -0.0001,6.3104 -0.0002,12.6208 -0.0003 18.9313c -1.0240,-0.0000 -2.0480,-0.0000 -3.0720 -0.0001c -0.0001,4.4096 -0.0002,8.8191 -0.0002 13.2287ZM 113.8116,607.1291 c 1.0240,0.0000 2.0480,0.0000 3.0720 0.0001c -0.0000,1.2352 -0.0000,2.4704 -0.0001 3.7056c 17.6000,0.0003 35.2000,0.0006 52.8000 0.0009c 0.0000,-1.2352 0.0000,-2.4704 0.0001 -3.7056c 1.0240,0.0000 2.0480,0.0000 3.0720 0.0001c 0.0001,-4.4096 0.0002,-8.8191 0.0002 -13.2287c -1.0240,-0.0000 -2.0480,-0.0000 -3.0720 -0.0001c 0.0001,-6.3104 0.0002,-12.6208 0.0003 -18.9313c 1.0240,0.0000 2.0480,0.0000 3.0720 0.0001c 0.0001,-4.4096 0.0002,-8.8191 0.0002 -13.2287c -1.0240,-0.0000 -2.0480,-0.0000 -3.0720 -0.0001c 0.0000,-1.2352 0.0000,-2.4704 0.0001 -3.7056c -17.6000,-0.0003 -35.2000,-0.0006 -52.8000 -0.0009c -0.0000,1.2352 -0.0000,2.4704 -0.0001 3.7056c -1.0240,-0.0000 -2.0480,-0.0000 -3.0720 -0.0001c -0.0001,4.4096 -0.0002,8.8191 -0.0002 13.2287c 1.0240,0.0000 2.0480,0.0000 3.0720 0.0001c -0.0001,6.3104 -0.0002,12.6209 -0.0003 18.9313c -1.0240,-0.0000 -2.0480,-0.0000 -3.0720 -0.0001c -0.0001,4.4096 -0.0002,8.8191 -0.0002 13.2287ZM 113.8129,535.3181 c 1.0240,0.0000 2.0480,0.0000 3.0720 0.0001c -0.0000,1.2352 -0.0000,2.4704 -0.0001 3.7056c 17.6000,0.0003 35.2000,0.0006 52.8000 0.0009c 0.0000,-1.2352 0.0000,-2.4704 0.0001 -3.7056c 1.0240,0.0000 2.0480,0.0000 3.0720 0.0001c 0.0001,-4.4096 0.0002,-8.8191 0.0002 -13.2287c -1.0240,-0.0000 -2.0480,-0.0000 -3.0720 -0.0001c 0.0001,-6.3104 0.0002,-12.6209 0.0003 -18.9313c 1.0240,0.0000 2.0480,0.0000 3.0720 0.0001c 0.0001,-4.4096 0.0002,-8.8191 0.0002 -13.2287c -1.0240,-0.0000 -2.0480,-0.0000 -3.0720 -0.0001c 0.0000,-1.2352 0.0000,-2.4704 0.0001 -3.7056c -17.6000,-0.0003 -35.2000,-0.0006 -52.8000 -0.0009c -0.0000,1.2352 -0.0000,2.4704 -0.0001 3.7056c -1.0240,-0.0000 -2.0480,-0.0000 -3.0720 -0.0001c -0.0001,4.4096 -0.0002,8.8191 -0.0002 13.2287c 1.0240,0.0000 2.0480,0.0000 3.0720 0.0001c -0.0001,6.3104 -0.0002,12.6209 -0.0003 18.9313c -1.0240,-0.0000 -2.0480,-0.0000 -3.0720 -0.0001c -0.0001,4.4096 -0.0002,8.8191 -0.0002 13.2287ZM 113.8141,463.5071 c 1.0240,0.0000 2.0480,0.0000 3.0720 0.0001c -0.0000,1.2352 -0.0000,2.4704 -0.0001 3.7056c 17.6000,0.0003 35.2000,0.0006 52.8000 0.0009c 0.0000,-1.2352 0.0000,-2.4704 0.0001 -3.7056c 1.0240,0.0000 2.0480,0.0000 3.0720 0.0001c 0.0001,-4.4096 0.0002,-8.8191 0.0002 -13.2287c -1.0240,-0.0000 -2.0480,-0.0000 -3.0720 -0.0001c 0.0001,-6.3104 0.0002,-12.6208 0.0003 -18.9313c 1.0240,0.0000 2.0480,0.0000 3.0720 0.0001c 0.0001,-4.4096 0.0002,-8.8191 0.0002 -13.2287c -1.0240,-0.0000 -2.0480,-0.0000 -3.0720 -0.0001c 0.0000,-1.2352 0.0000,-2.4704 0.0001 -3.7056c -17.6000,-0.0003 -35.2000,-0.0006 -52.8000 -0.0009c -0.0000,1.2352 -0.0000,2.4704 -0.0001 3.7056c -1.0240,-0.0000 -2.0480,-0.0000 -3.0720 -0.0001c -0.0001,4.4096 -0.0002,8.8191 -0.0002 13.2287c 1.0240,0.0000 2.0480,0.0000 3.0720 0.0001c -0.0001,6.3104 -0.0002,12.6209 -0.0003 18.9313c -1.0240,-0.0000 -2.0480,-0.0000 -3.0720 -0.0001c -0.0001,4.4096 -0.0002,8.8192 -0.0002 13.2287ZM 185.6214,678.9414 c 1.0240,0.0000 2.0480,0.0000 3.0720 0.0001c -0.0000,1.2352 -0.0000,2.4704 -0.0001 3.7056c 17.6000,0.0003 35.2000,0.0006 52.8000 0.0009c 0.0000,-1.2352 0.0000,-2.4704 0.0001 -3.7056c 1.0240,0.0000 2.0480,0.0000 3.0720 0.0001c 0.0001,-4.4096 0.0002,-8.8191 0.0002 -13.2287c -1.0240,-0.0000 -2.0480,-0.0000 -3.0720 -0.0001c 0.0001,-6.3104 0.0002,-12.6209 0.0003 -18.9313c 1.0240,0.0000 2.0480,0.0000 3.0720 0.0001c 0.0001,-4.4096 0.0002,-8.8191 0.0002 -13.2287c -1.0240,-0.0000 -2.0480,-0.0000 -3.0720 -0.0001c 0.0000,-1.2352 0.0000,-2.4704 0.0001 -3.7056c -17.6000,-0.0003 -35.2000,-0.0006 -52.8000 -0.0009c -0.0000,1.2352 -0.0000,2.4704 -0.0001 3.7056c -1.0240,-0.0000 -2.0480,-0.0000 -3.0720 -0.0001c -0.0001,4.4096 -0.0002,8.8191 -0.0002 13.2287c 1.0240,0.0000 2.0480,0.0000 3.0720 0.0001c -0.0001,6.3104 -0.0002,12.6208 -0.0003 18.9313c -1.0240,-0.0000 -2.0480,-0.0000 -3.0720 -0.0001c -0.0001,4.4096 -0.0002,8.8191 -0.0002 13.2287ZM 185.6226,607.1304 c 1.0240,0.0000 2.0480,0.0000 3.0720 0.0001c -0.0000,1.2352 -0.0001,2.4704 -0.0001 3.7056c 17.6000,0.0003 35.2000,0.0006 52.8000 0.0009c 0.0000,-1.2352 0.0000,-2.4704 0.0001 -3.7056c 1.0240,0.0000 2.0480,0.0000 3.0720 0.0001c 0.0001,-4.4096 0.0002,-8.8191 0.0002 -13.2287c -1.0240,-0.0000 -2.0480,-0.0000 -3.0720 -0.0001c 0.0001,-6.3104 0.0002,-12.6209 0.0003 -18.9313c 1.0240,0.0000 2.0480,0.0000 3.0720 0.0001c 0.0001,-4.4096 0.0002,-8.8191 0.0002 -13.2287c -1.0240,-0.0000 -2.0480,-0.0000 -3.0720 -0.0001c 0.0000,-1.2352 0.0000,-2.4704 0.0001 -3.7056c -17.6000,-0.0003 -35.2000,-0.0006 -52.8000 -0.0009c -0.0000,1.2352 -0.0000,2.4704 -0.0001 3.7056c -1.0240,-0.0000 -2.0480,-0.0000 -3.0720 -0.0001c -0.0001,4.4096 -0.0002,8.8191 -0.0002 13.2287c 1.0240,0.0000 2.0480,0.0000 3.0720 0.0001c -0.0001,6.3104 -0.0002,12.6209 -0.0003 18.9313c -1.0240,-0.0000 -2.0480,-0.0000 -3.0720 -0.0001c -0.0001,4.4096 -0.0002,8.8191 -0.0002 13.2287ZM 185.6239,535.3193 c 1.0240,0.0000 2.0480,0.0000 3.0720 0.0001c -0.0000,1.2352 -0.0000,2.4704 -0.0001 3.7056c 17.6000,0.0003 35.2000,0.0006 52.8000 0.0009c 0.0000,-1.2352 0.0000,-2.4704 0.0001 -3.7056c 1.0240,0.0000 2.0480,0.0000 3.0720 0.0001c 0.0001,-4.4096 0.0002,-8.8191 0.0002 -13.2287c -1.0240,-0.0000 -2.0480,-0.0000 -3.0720 -0.0001c 0.0001,-6.3104 0.0002,-12.6208 0.0003 -18.9313c 1.0240,0.0000 2.0480,0.0000 3.0720 0.0001c 0.0001,-4.4096 0.0002,-8.8191 0.0002 -13.2287c -1.0240,-0.0000 -2.0480,-0.0000 -3.0720 -0.0001c 0.0000,-1.2352 0.0000,-2.4704 0.0001 -3.7056c -17.6000,-0.0003 -35.2000,-0.0006 -52.8000 -0.0009c -0.0000,1.2352 -0.0000,2.4704 -0.0001 3.7056c -1.0240,-0.0000 -2.0480,-0.0000 -3.0720 -0.0001c -0.0001,4.4096 -0.0002,8.8191 -0.0002 13.2287c 1.0240,0.0000 2.0480,0.0000 3.0720 0.0001c -0.0001,6.3104 -0.0002,12.6209 -0.0003 18.9313c -1.0240,-0.0000 -2.0480,-0.0000 -3.0720 -0.0001c -0.0001,4.4096 -0.0002,8.8192 -0.0002 13.2287ZM 185.6251,463.5083 c 1.0240,0.0000 2.0480,0.0000 3.0720 0.0001c -0.0000,1.2352 -0.0000,2.4704 -0.0001 3.7056c 17.6000,0.0003 35.2000,0.0006 52.8000 0.0009c 0.0000,-1.2352 0.0000,-2.4704 0.0001 -3.7056c 1.0240,0.0000 2.0480,0.0000 3.0720 0.0001c 0.0001,-4.4096 0.0002,-8.8191 0.0002 -13.2287c -1.0240,-0.0000 -2.0480,-0.0000 -3.0720 -0.0001c 0.0001,-6.3104 0.0002,-12.6209 0.0003 -18.9313c 1.0240,0.0000 2.0480,0.0000 3.0720 0.0001c 0.0001,-4.4096 0.0002,-8.8191 0.0002 -13.2287c -1.0240,-0.0000 -2.0480,-0.0000 -3.0720 -0.0001c 0.0000,-1.2352 0.0000,-2.4704 0.0001 -3.7056c -17.6000,-0.0003 -35.2000,-0.0006 -52.8000 -0.0009c -0.0000,1.2352 -0.0001,2.4704 -0.0001 3.7056c -1.0240,-0.0000 -2.0480,-0.0000 -3.0720 -0.0001c -0.0001,4.4096 -0.0002,8.8191 -0.0002 13.2287c 1.0240,0.0000 2.0480,0.0000 3.0720 0.0001c -0.0001,6.3104 -0.0002,12.6208 -0.0003 18.9313c -1.0240,-0.0000 -2.0480,-0.0000 -3.0720 -0.0001c -0.0001,4.4096 -0.0002,8.8191 -0.0002 13.2287ZM 257.4324,678.9426 c 1.0240,0.0000 2.0480,0.0000 3.0720 0.0001c -0.0000,1.2352 -0.0000,2.4704 -0.0001 3.7056c 17.6000,0.0003 35.2000,0.0006 52.8000 0.0009c 0.0000,-1.2352 0.0000,-2.4704 0.0001 -3.7056c 1.0240,0.0000 2.0480,0.0000 3.0720 0.0001c 0.0001,-4.4096 0.0002,-8.8192 0.0002 -13.2287c -1.0240,-0.0000 -2.0480,-0.0000 -3.0720 -0.0001c 0.0001,-6.3104 0.0002,-12.6208 0.0003 -18.9313c 1.0240,0.0000 2.0480,0.0000 3.0720 0.0001c 0.0001,-4.4096 0.0002,-8.8191 0.0002 -13.2287c -1.0240,-0.0000 -2.0480,-0.0000 -3.0720 -0.0001c 0.0000,-1.2352 0.0000,-2.4704 0.0001 -3.7056c -17.6000,-0.0003 -35.2000,-0.0006 -52.8000 -0.0009c -0.0000,1.2352 -0.0000,2.4704 -0.0001 3.7056c -1.0240,-0.0000 -2.0480,-0.0000 -3.0720 -0.0001c -0.0001,4.4096 -0.0002,8.8191 -0.0002 13.2287c 1.0240,0.0000 2.0480,0.0000 3.0720 0.0001c -0.0001,6.3104 -0.0002,12.6209 -0.0003 18.9313c -1.0240,-0.0000 -2.0480,-0.0000 -3.0720 -0.0001c -0.0001,4.4096 -0.0002,8.8191 -0.0002 13.2287ZM 257.4337,607.1316 c 1.0240,0.0000 2.0480,0.0000 3.0720 0.0001c -0.0000,1.2352 -0.0000,2.4704 -0.0001 3.7056c 17.6000,0.0003 35.2000,0.0006 52.8000 0.0009c 0.0000,-1.2352 0.0000,-2.4704 0.0001 -3.7056c 1.0240,0.0000 2.0480,0.0000 3.0720 0.0001c 0.0001,-4.4096 0.0002,-8.8191 0.0002 -13.2287c -1.0240,-0.0000 -2.0480,-0.0000 -3.0720 -0.0001c 0.0001,-6.3104 0.0002,-12.6208 0.0003 -18.9313c 1.0240,0.0000 2.0480,0.0000 3.0720 0.0001c 0.0001,-4.4096 0.0002,-8.8191 0.0002 -13.2287c -1.0240,-0.0000 -2.0480,-0.0000 -3.0720 -0.0001c 0.0000,-1.2352 0.0000,-2.4704 0.0001 -3.7056c -17.6000,-0.0003 -35.2000,-0.0006 -52.8000 -0.0009c -0.0000,1.2352 -0.0001,2.4704 -0.0001 3.7056c -1.0240,-0.0000 -2.0480,-0.0000 -3.0720 -0.0001c -0.0001,4.4096 -0.0002,8.8191 -0.0002 13.2287c 1.0240,0.0000 2.0480,0.0000 3.0720 0.0001c -0.0001,6.3104 -0.0002,12.6209 -0.0003 18.9313c -1.0240,-0.0000 -2.0480,-0.0000 -3.0720 -0.0001c -0.0001,4.4096 -0.0002,8.8192 -0.0002 13.2287ZM 257.4349,535.3206 c 1.0240,0.0000 2.0480,0.0000 3.0720 0.0001c -0.0000,1.2352 -0.0001,2.4704 -0.0001 3.7056c 17.6000,0.0003 35.2000,0.0006 52.8000 0.0009c 0.0000,-1.2352 0.0001,-2.4704 0.0001 -3.7056c 1.0240,0.0000 2.0480,0.0000 3.0720 0.0001c 0.0001,-4.4096 0.0002,-8.8191 0.0002 -13.2287c -1.0240,-0.0000 -2.0480,-0.0000 -3.0720 -0.0001c 0.0001,-6.3104 0.0002,-12.6209 0.0003 -18.9313c 1.0240,0.0000 2.0480,0.0000 3.0720 0.0001c 0.0001,-4.4096 0.0002,-8.8191 0.0002 -13.2287c -1.0240,-0.0000 -2.0480,-0.0000 -3.0720 -0.0001c 0.0000,-1.2352 0.0000,-2.4704 0.0001 -3.7056c -17.6000,-0.0003 -35.2000,-0.0006 -52.8000 -0.0009c -0.0000,1.2352 -0.0000,2.4704 -0.0001 3.7056c -1.0240,-0.0000 -2.0480,-0.0000 -3.0720 -0.0001c -0.0001,4.4096 -0.0002,8.8191 -0.0002 13.2287c 1.0240,0.0000 2.0480,0.0000 3.0720 0.0001c -0.0001,6.3104 -0.0002,12.6208 -0.0003 18.9313c -1.0240,-0.0000 -2.0480,-0.0000 -3.0720 -0.0001c -0.0001,4.4096 -0.0002,8.8191 -0.0002 13.2287ZM 257.4362,463.5096 c 1.0240,0.0000 2.0480,0.0000 3.0720 0.0001c -0.0000,1.2352 -0.0000,2.4704 -0.0001 3.7056c 17.6000,0.0003 35.2000,0.0006 52.8000 0.0009c 0.0000,-1.2352 0.0000,-2.4704 0.0001 -3.7056c 1.0240,0.0000 2.0480,0.0000 3.0720 0.0001c 0.0001,-4.4096 0.0002,-8.8191 0.0002 -13.2287c -1.0240,-0.0000 -2.0480,-0.0000 -3.0720 -0.0001c 0.0001,-6.3104 0.0002,-12.6209 0.0003 -18.9313c 1.0240,0.0000 2.0480,0.0000 3.0720 0.0001c 0.0001,-4.4096 0.0002,-8.8191 0.0002 -13.2287c -1.0240,-0.0000 -2.0480,-0.0000 -3.0720 -0.0001c 0.0000,-1.2352 0.0000,-2.4704 0.0001 -3.7056c -17.6000,-0.0003 -35.2000,-0.0006 -52.8000 -0.0009c -0.0000,1.2352 -0.0000,2.4704 -0.0001 3.7056c -1.0240,-0.0000 -2.0480,-0.0000 -3.0720 -0.0001c -0.0001,4.4096 -0.0002,8.8192 -0.0002 13.2287c 1.0240,0.0000 2.0480,0.0000 3.0720 0.0001c -0.0001,6.3104 -0.0002,12.6208 -0.0003 18.9313c -1.0240,-0.0000 -2.0480,-0.0000 -3.0720 -0.0001c -0.0001,4.4096 -0.0002,8.8191 -0.0002 13.2287ZM 281.2346,709.0488 c 0.0000,3.1311 2.5382,5.6693 5.6693 5.6693c 3.1311,-0.0000 5.6693,-2.5382 5.6693 -5.6693c 0.0000,-3.1311 -2.5382,-5.6693 -5.6693 -5.6693c -3.1311,-0.0000 -5.6693,2.5382 -5.6693 5.6693ZM 309.5820,388.0157 c 0.0000,3.1311 2.5382,5.6693 5.6693 5.6693c 3.1311,-0.0000 5.6693,-2.5382 5.6693 -5.6693c 0.0000,-3.1311 -2.5382,-5.6693 -5.6693 -5.6693c -3.1311,-0.0000 -5.6693,2.5382 -5.6693 5.6693ZM 366.2749,388.0157 c 0.0000,3.1311 2.5382,5.6693 5.6693 5.6693c 3.1311,-0.0000 5.6693,-2.5382 5.6693 -5.6693c 0.0000,-3.1311 -2.5382,-5.6693 -5.6693 -5.6693c -3.1311,-0.0000 -5.6693,2.5382 -5.6693 5.6693ZM 370.8145,418.1219 c 0.0001,4.4096 0.0002,8.8191 0.0002 13.2287c 1.0240,-0.0000 2.0480,-0.0000 3.0720 -0.0001c 0.0001,6.3104 0.0002,12.6208 0.0003 18.9313c -1.0240,0.0000 -2.0480,0.0000 -3.0720 0.0001c 0.0001,4.4096 0.0002,8.8191 0.0002 13.2287c 1.0240,-0.0000 2.0480,-0.0000 3.0720 -0.0001c 0.0000,1.2352 0.0000,2.4704 0.0001 3.7056c 17.6000,-0.0003 35.2000,-0.0006 52.8000 -0.0009c -0.0000,-1.2352 -0.0000,-2.4704 -0.0001 -3.7056c 1.0240,-0.0000 2.0480,-0.0000 3.0720 -0.0001c -0.0001,-4.4096 -0.0002,-8.8191 -0.0002 -13.2287c -1.0240,0.0000 -2.0480,0.0000 -3.0720 0.0001c -0.0001,-6.3104 -0.0002,-12.6208 -0.0003 -18.9313c 1.0240,-0.0000 2.0480,-0.0000 3.0720 -0.0001c -0.0001,-4.4096 -0.0002,-8.8191 -0.0002 -13.2287c -1.0240,0.0000 -2.0480,0.0000 -3.0720 0.0001c -0.0000,-1.2352 -0.0000,-2.4704 -0.0001 -3.7056c -17.6000,0.0003 -35.2000,0.0006 -52.8000 0.0009c 0.0000,1.2352 0.0000,2.4704 0.0001 3.7056c -1.0240,0.0000 -2.0480,0.0000 -3.0720 0.0001ZM 370.8157,489.9329 c 0.0001,4.4096 0.0002,8.8191 0.0002 13.2287c 1.0240,-0.0000 2.0480,-0.0000 3.0720 -0.0001c 0.0001,6.3104 0.0002,12.6209 0.0003 18.9313c -1.0240,0.0000 -2.0480,0.0000 -3.0720 0.0001c 0.0001,4.4096 0.0002,8.8191 0.0002 13.2287c 1.0240,-0.0000 2.0480,-0.0000 3.0720 -0.0001c 0.0000,1.2352 0.0001,2.4704 0.0001 3.7056c 17.6000,-0.0003 35.2000,-0.0006 52.8000 -0.0009c -0.0000,-1.2352 -0.0001,-2.4704 -0.0001 -3.7056c 1.0240,-0.0000 2.0480,-0.0000 3.0720 -0.0001c -0.0001,-4.4096 -0.0002,-8.8191 -0.0002 -13.2287c -1.0240,0.0000 -2.0480,0.0000 -3.0720 0.0001c -0.0001,-6.3104 -0.0002,-12.6209 -0.0003 -18.9313c 1.0240,-0.0000 2.0480,-0.0000 3.0720 -0.0001c -0.0001,-4.4096 -0.0002,-8.8191 -0.0002 -13.2287c -1.0240,0.0000 -2.0480,0.0000 -3.0720 0.0001c -0.0000,-1.2352 -0.0000,-2.4704 -0.0001 -3.7056c -17.6000,0.0003 -35.2000,0.0006 -52.8000 0.0009c 0.0000,1.2352 0.0000,2.4704 0.0001 3.7056c -1.0240,0.0000 -2.0480,0.0000 -3.0720 0.0001ZM 370.8170,561.7439 c 0.0001,4.4096 0.0002,8.8191 0.0002 13.2287c 1.0240,-0.0000 2.0480,-0.0000 3.0720 -0.0001c 0.0001,6.3104 0.0002,12.6209 0.0003 18.9313c -1.0240,0.0000 -2.0480,0.0000 -3.0720 0.0001c 0.0001,4.4096 0.0002,8.8191 0.0002 13.2287c 1.0240,-0.0000 2.0480,-0.0000 3.0720 -0.0001c 0.0000,1.2352 0.0000,2.4704 0.0001 3.7056c 17.6000,-0.0003 35.2000,-0.0006 52.8000 -0.0009c -0.0000,-1.2352 -0.0000,-2.4704 -0.0001 -3.7056c 1.0240,-0.0000 2.0480,-0.0000 3.0720 -0.0001c -0.0001,-4.4096 -0.0002,-8.8191 -0.0002 -13.2287c -1.0240,0.0000 -2.0480,0.0000 -3.0720 0.0001c -0.0001,-6.3104 -0.0002,-12.6209 -0.0003 -18.9313c 1.0240,-0.0000 2.0480,-0.0000 3.0720 -0.0001c -0.0001,-4.4096 -0.0002,-8.8191 -0.0002 -13.2287c -1.0240,0.0000 -2.0480,0.0000 -3.0720 0.0001c -0.0000,-1.2352 -0.0000,-2.4704 -0.0001 -3.7056c -17.6000,0.0003 -35.2000,0.0006 -52.8000 0.0009c 0.0000,1.2352 0.0001,2.4704 0.0001 3.7056c -1.0240,0.0000 -2.0480,0.0000 -3.0720 0.0001ZM 370.8182,633.5550 c 0.0001,4.4096 0.0002,8.8191 0.0002 13.2287c 1.0240,-0.0000 2.0480,-0.0000 3.0720 -0.0001c 0.0001,6.3104 0.0002,12.6208 0.0003 18.9313c -1.0240,0.0000 -2.0480,0.0000 -3.0720 0.0001c 0.0001,4.4096 0.0002,8.8191 0.0002 13.2287c 1.0240,-0.0000 2.0480,-0.0000 3.0720 -0.0001c 0.0000,1.2352 0.0000,2.4704 0.0001 3.7056c 17.6000,-0.0003 35.2000,-0.0006 52.8000 -0.0009c -0.0000,-1.2352 -0.0000,-2.4704 -0.0001 -3.7056c 1.0240,-0.0000 2.0480,-0.0000 3.0720 -0.0001c -0.0001,-4.4096 -0.0002,-8.8191 -0.0002 -13.2287c -1.0240,0.0000 -2.0480,0.0000 -3.0720 0.0001c -0.0001,-6.3104 -0.0002,-12.6208 -0.0003 -18.9313c 1.0240,-0.0000 2.0480,-0.0000 3.0720 -0.0001c -0.0001,-4.4096 -0.0002,-8.8191 -0.0002 -13.2287c -1.0240,0.0000 -2.0480,0.0000 -3.0720 0.0001c -0.0000,-1.2352 -0.0000,-2.4704 -0.0001 -3.7056c -17.6000,0.0003 -35.2000,0.0006 -52.8000 0.0009c 0.0000,1.2352 0.0000,2.4704 0.0001 3.7056c -1.0240,0.0000 -2.0480,0.0000 -3.0720 0.0001ZM 394.6223,709.0488 c 0.0000,3.1311 2.5382,5.6693 5.6693 5.6693c 3.1311,-0.0000 5.6693,-2.5382 5.6693 -5.6693c 0.0000,-3.1311 -2.5382,-5.6693 -5.6693 -5.6693c -3.1311,-0.0000 -5.6693,2.5382 -5.6693 5.6693ZM 442.6255,418.1206 c 0.0001,4.4096 0.0002,8.8191 0.0002 13.2287c 1.0240,-0.0000 2.0480,-0.0000 3.0720 -0.0001c 0.0001,6.3104 0.0002,12.6209 0.0003 18.9313c -1.0240,0.0000 -2.0480,0.0000 -3.0720 0.0001c 0.0001,4.4096 0.0002,8.8191 0.0002 13.2287c 1.0240,-0.0000 2.0480,-0.0000 3.0720 -0.0001c 0.0000,1.2352 0.0000,2.4704 0.0001 3.7056c 17.6000,-0.0003 35.2000,-0.0006 52.8000 -0.0009c -0.0000,-1.2352 -0.0000,-2.4704 -0.0001 -3.7056c 1.0240,-0.0000 2.0480,-0.0000 3.0720 -0.0001c -0.0001,-4.4096 -0.0002,-8.8191 -0.0002 -13.2287c -1.0240,0.0000 -2.0480,0.0000 -3.0720 0.0001c -0.0001,-6.3104 -0.0002,-12.6209 -0.0003 -18.9313c 1.0240,-0.0000 2.0480,-0.0000 3.0720 -0.0001c -0.0001,-4.4096 -0.0002,-8.8191 -0.0002 -13.2287c -1.0240,0.0000 -2.0480,0.0000 -3.0720 0.0001c -0.0000,-1.2352 -0.0000,-2.4704 -0.0001 -3.7056c -17.6000,0.0003 -35.2000,0.0006 -52.8000 0.0009c 0.0000,1.2352 0.0000,2.4704 0.0001 3.7056c -1.0240,0.0000 -2.0480,0.0000 -3.0720 0.0001ZM 442.6268,489.9316 c 0.0001,4.4096 0.0002,8.8191 0.0002 13.2287c 1.0240,-0.0000 2.0480,-0.0000 3.0720 -0.0001c 0.0001,6.3104 0.0002,12.6209 0.0003 18.9313c -1.0240,0.0000 -2.0480,0.0000 -3.0720 0.0001c 0.0001,4.4096 0.0002,8.8191 0.0002 13.2287c 1.0240,-0.0000 2.0480,-0.0000 3.0720 -0.0001c 0.0000,1.2352 0.0000,2.4704 0.0001 3.7056c 17.6000,-0.0003 35.2000,-0.0006 52.8000 -0.0009c -0.0000,-1.2352 -0.0000,-2.4704 -0.0001 -3.7056c 1.0240,-0.0000 2.0480,-0.0000 3.0720 -0.0001c -0.0001,-4.4096 -0.0002,-8.8191 -0.0002 -13.2287c -1.0240,0.0000 -2.0480,0.0000 -3.0720 0.0001c -0.0001,-6.3104 -0.0002,-12.6209 -0.0003 -18.9313c 1.0240,-0.0000 2.0480,-0.0000 3.0720 -0.0001c -0.0001,-4.4096 -0.0002,-8.8191 -0.0002 -13.2287c -1.0240,0.0000 -2.0480,0.0000 -3.0720 0.0001c -0.0000,-1.2352 -0.0000,-2.4704 -0.0001 -3.7056c -17.6000,0.0003 -35.2000,0.0006 -52.8000 0.0009c 0.0000,1.2352 0.0000,2.4704 0.0001 3.7056c -1.0240,0.0000 -2.0480,0.0000 -3.0720 0.0001ZM 442.6280,561.7427 c 0.0001,4.4096 0.0002,8.8191 0.0002 13.2287c 1.0240,-0.0000 2.0480,-0.0000 3.0720 -0.0001c 0.0001,6.3104 0.0002,12.6208 0.0003 18.9313c -1.0240,0.0000 -2.0480,0.0000 -3.0720 0.0001c 0.0001,4.4096 0.0002,8.8191 0.0002 13.2287c 1.0240,-0.0000 2.0480,-0.0000 3.0720 -0.0001c 0.0000,1.2352 0.0001,2.4704 0.0001 3.7056c 17.6000,-0.0003 35.2000,-0.0006 52.8000 -0.0009c -0.0000,-1.2352 -0.0000,-2.4704 -0.0001 -3.7056c 1.0240,-0.0000 2.0480,-0.0000 3.0720 -0.0001c -0.0001,-4.4096 -0.0002,-8.8191 -0.0002 -13.2287c -1.0240,0.0000 -2.0480,0.0000 -3.0720 0.0001c -0.0001,-6.3104 -0.0002,-12.6208 -0.0003 -18.9313c 1.0240,-0.0000 2.0480,-0.0000 3.0720 -0.0001c -0.0001,-4.4096 -0.0002,-8.8191 -0.0002 -13.2287c -1.0240,0.0000 -2.0480,0.0000 -3.0720 0.0001c -0.0000,-1.2352 -0.0000,-2.4704 -0.0001 -3.7056c -17.6000,0.0003 -35.2000,0.0006 -52.8000 0.0009c 0.0000,1.2352 0.0000,2.4704 0.0001 3.7056c -1.0240,0.0000 -2.0480,0.0000 -3.0720 0.0001ZM 442.6293,633.5537 c 0.0001,4.4096 0.0002,8.8191 0.0002 13.2287c 1.0240,-0.0000 2.0480,-0.0000 3.0720 -0.0001c 0.0001,6.3104 0.0002,12.6209 0.0003 18.9313c -1.0240,0.0000 -2.0480,0.0000 -3.0720 0.0001c 0.0001,4.4096 0.0002,8.8191 0.0002 13.2287c 1.0240,-0.0000 2.0480,-0.0000 3.0720 -0.0001c 0.0000,1.2352 0.0000,2.4704 0.0001 3.7056c 17.6000,-0.0003 35.2000,-0.0006 52.8000 -0.0009c -0.0000,-1.2352 -0.0000,-2.4704 -0.0001 -3.7056c 1.0240,-0.0000 2.0480,-0.0000 3.0720 -0.0001c -0.0001,-4.4096 -0.0002,-8.8191 -0.0002 -13.2287c -1.0240,0.0000 -2.0480,0.0000 -3.0720 0.0001c -0.0001,-6.3104 -0.0002,-12.6208 -0.0003 -18.9313c 1.0240,-0.0000 2.0480,-0.0000 3.0720 -0.0001c -0.0001,-4.4096 -0.0002,-8.8192 -0.0002 -13.2287c -1.0240,0.0000 -2.0480,0.0000 -3.0720 0.0001c -0.0000,-1.2352 -0.0000,-2.4704 -0.0001 -3.7056c -17.6000,0.0003 -35.2000,0.0006 -52.8000 0.0009c 0.0000,1.2352 0.0000,2.4704 0.0001 3.7056c -1.0240,0.0000 -2.0480,0.0000 -3.0720 0.0001ZM 514.4365,418.1194 c 0.0001,4.4096 0.0002,8.8191 0.0002 13.2287c 1.0240,-0.0000 2.0480,-0.0000 3.0720 -0.0001c 0.0001,6.3104 0.0002,12.6209 0.0003 18.9313c -1.0240,0.0000 -2.0480,0.0000 -3.0720 0.0001c 0.0001,4.4096 0.0002,8.8191 0.0002 13.2287c 1.0240,-0.0000 2.0480,-0.0000 3.0720 -0.0001c 0.0000,1.2352 0.0000,2.4704 0.0001 3.7056c 17.6000,-0.0003 35.2000,-0.0006 52.8000 -0.0009c -0.0000,-1.2352 -0.0000,-2.4704 -0.0001 -3.7056c 1.0240,-0.0000 2.0480,-0.0000 3.0720 -0.0001c -0.0001,-4.4096 -0.0002,-8.8192 -0.0002 -13.2287c -1.0240,0.0000 -2.0480,0.0000 -3.0720 0.0001c -0.0001,-6.3104 -0.0002,-12.6209 -0.0003 -18.9313c 1.0240,-0.0000 2.0480,-0.0000 3.0720 -0.0001c -0.0001,-4.4096 -0.0002,-8.8191 -0.0002 -13.2287c -1.0240,0.0000 -2.0480,0.0000 -3.0720 0.0001c -0.0000,-1.2352 -0.0000,-2.4704 -0.0001 -3.7056c -17.6000,0.0003 -35.2000,0.0006 -52.8000 0.0009c 0.0000,1.2352 0.0000,2.4704 0.0001 3.7056c -1.0240,0.0000 -2.0480,0.0000 -3.0720 0.0001ZM 514.4378,489.9304 c 0.0001,4.4096 0.0002,8.8191 0.0002 13.2287c 1.0240,-0.0000 2.0480,-0.0000 3.0720 -0.0001c 0.0001,6.3104 0.0002,12.6209 0.0003 18.9313c -1.0240,0.0000 -2.0480,0.0000 -3.0720 0.0001c 0.0001,4.4096 0.0002,8.8191 0.0002 13.2287c 1.0240,-0.0000 2.0480,-0.0000 3.0720 -0.0001c 0.0000,1.2352 0.0000,2.4704 0.0001 3.7056c 17.6000,-0.0003 35.2000,-0.0006 52.8000 -0.0009c -0.0000,-1.2352 -0.0000,-2.4704 -0.0001 -3.7056c 1.0240,-0.0000 2.0480,-0.0000 3.0720 -0.0001c -0.0001,-4.4096 -0.0002,-8.8191 -0.0002 -13.2287c -1.0240,0.0000 -2.0480,0.0000 -3.0720 0.0001c -0.0001,-6.3104 -0.0002,-12.6208 -0.0003 -18.9313c 1.0240,-0.0000 2.0480,-0.0000 3.0720 -0.0001c -0.0001,-4.4096 -0.0002,-8.8191 -0.0002 -13.2287c -1.0240,0.0000 -2.0480,0.0000 -3.0720 0.0001c -0.0000,-1.2352 -0.0000,-2.4704 -0.0001 -3.7056c -17.6000,0.0003 -35.2000,0.0006 -52.8000 0.0009c 0.0000,1.2352 0.0000,2.4704 0.0001 3.7056c -1.0240,0.0000 -2.0480,0.0000 -3.0720 0.0001ZM 514.4390,561.7414 c 0.0001,4.4096 0.0002,8.8191 0.0002 13.2287c 1.0240,-0.0000 2.0480,-0.0000 3.0720 -0.0001c 0.0001,6.3104 0.0002,12.6209 0.0003 18.9313c -1.0240,0.0000 -2.0480,0.0000 -3.0720 0.0001c 0.0001,4.4096 0.0002,8.8191 0.0002 13.2287c 1.0240,-0.0000 2.0480,-0.0000 3.0720 -0.0001c 0.0000,1.2352 0.0000,2.4704 0.0001 3.7056c 17.6000,-0.0003 35.2000,-0.0006 52.8000 -0.0009c -0.0000,-1.2352 -0.0000,-2.4704 -0.0001 -3.7056c 1.0240,-0.0000 2.0480,-0.0000 3.0720 -0.0001c -0.0001,-4.4096 -0.0002,-8.8191 -0.0002 -13.2287c -1.0240,0.0000 -2.0480,0.0000 -3.0720 0.0001c -0.0001,-6.3104 -0.0002,-12.6209 -0.0003 -18.9313c 1.0240,-0.0000 2.0480,-0.0000 3.0720 -0.0001c -0.0001,-4.4096 -0.0002,-8.8192 -0.0002 -13.2287c -1.0240,0.0000 -2.0480,0.0000 -3.0720 0.0001c -0.0000,-1.2352 -0.0000,-2.4704 -0.0001 -3.7056c -17.6000,0.0003 -35.2000,0.0006 -52.8000 0.0009c 0.0000,1.2352 0.0000,2.4704 0.0001 3.7056c -1.0240,0.0000 -2.0480,0.0000 -3.0720 0.0001ZM 514.4403,633.5524 c 0.0001,4.4096 0.0002,8.8191 0.0002 13.2287c 1.0240,-0.0000 2.0480,-0.0000 3.0720 -0.0001c 0.0001,6.3104 0.0002,12.6208 0.0003 18.9313c -1.0240,0.0000 -2.0480,0.0000 -3.0720 0.0001c 0.0001,4.4096 0.0002,8.8191 0.0002 13.2287c 1.0240,-0.0000 2.0480,-0.0000 3.0720 -0.0001c 0.0000,1.2352 0.0000,2.4704 0.0001 3.7056c 17.6000,-0.0003 35.2000,-0.0006 52.8000 -0.0009c -0.0000,-1.2352 -0.0000,-2.4704 -0.0001 -3.7056c 1.0240,-0.0000 2.0480,-0.0000 3.0720 -0.0001c -0.0001,-4.4096 -0.0002,-8.8191 -0.0002 -13.2287c -1.0240,0.0000 -2.0480,0.0000 -3.0720 0.0001c -0.0001,-6.3104 -0.0002,-12.6209 -0.0003 -18.9313c 1.0240,-0.0000 2.0480,-0.0000 3.0720 -0.0001c -0.0001,-4.4096 -0.0002,-8.8191 -0.0002 -13.2287c -1.0240,0.0000 -2.0480,0.0000 -3.0720 0.0001c -0.0000,-1.2352 -0.0001,-2.4704 -0.0001 -3.7056c -17.6000,0.0003 -35.2000,0.0006 -52.8000 0.0009c 0.0000,1.2352 0.0000,2.4704 0.0001 3.7056c -1.0240,0.0000 -2.0480,0.0000 -3.0720 0.0001ZM 586.2476,418.1181 c 0.0001,4.4096 0.0002,8.8191 0.0002 13.2287c 1.0240,-0.0000 2.0480,-0.0000 3.0720 -0.0001c 0.0001,6.3104 0.0002,12.6209 0.0003 18.9313c -1.0240,0.0000 -2.0480,0.0000 -3.0720 0.0001c 0.0001,4.4096 0.0002,8.8191 0.0002 13.2287c 1.0240,-0.0000 2.0480,-0.0000 3.0720 -0.0001c 0.0000,1.2352 0.0000,2.4704 0.0001 3.7056c 17.6000,-0.0003 35.2000,-0.0006 52.8000 -0.0009c -0.0000,-1.2352 -0.0000,-2.4704 -0.0001 -3.7056c 1.0240,-0.0000 2.0480,-0.0000 3.0720 -0.0001c -0.0001,-4.4096 -0.0002,-8.8191 -0.0002 -13.2287c -1.0240,0.0000 -2.0480,0.0000 -3.0720 0.0001c -0.0001,-6.3104 -0.0002,-12.6209 -0.0003 -18.9313c 1.0240,-0.0000 2.0480,-0.0000 3.0720 -0.0001c -0.0001,-4.4096 -0.0002,-8.8191 -0.0002 -13.2287c -1.0240,0.0000 -2.0480,0.0000 -3.0720 0.0001c -0.0000,-1.2352 -0.0000,-2.4704 -0.0001 -3.7056c -17.6000,0.0003 -35.2000,0.0006 -52.8000 0.0009c 0.0000,1.2352 0.0000,2.4704 0.0001 3.7056c -1.0240,0.0000 -2.0480,0.0000 -3.0720 0.0001ZM 586.2488,489.9291 c 0.0001,4.4096 0.0002,8.8191 0.0002 13.2287c 1.0240,-0.0000 2.0480,-0.0000 3.0720 -0.0001c 0.0001,6.3104 0.0002,12.6209 0.0003 18.9313c -1.0240,0.0000 -2.0480,0.0000 -3.0720 0.0001c 0.0001,4.4096 0.0002,8.8192 0.0002 13.2287c 1.0240,-0.0000 2.0480,-0.0000 3.0720 -0.0001c 0.0000,1.2352 0.0000,2.4704 0.0001 3.7056c 17.6000,-0.0003 35.2000,-0.0006 52.8000 -0.0009c -0.0000,-1.2352 -0.0000,-2.4704 -0.0001 -3.7056c 1.0240,-0.0000 2.0480,-0.0000 3.0720 -0.0001c -0.0001,-4.4096 -0.0002,-8.8191 -0.0002 -13.2287c -1.0240,0.0000 -2.0480,0.0000 -3.0720 0.0001c -0.0001,-6.3104 -0.0002,-12.6209 -0.0003 -18.9313c 1.0240,-0.0000 2.0480,-0.0000 3.0720 -0.0001c -0.0001,-4.4096 -0.0002,-8.8192 -0.0002 -13.2287c -1.0240,0.0000 -2.0480,0.0000 -3.0720 0.0001c -0.0000,-1.2352 -0.0001,-2.4704 -0.0001 -3.7056c -17.6000,0.0003 -35.2000,0.0006 -52.8000 0.0009c 0.0000,1.2352 0.0000,2.4704 0.0001 3.7056c -1.0240,0.0000 -2.0480,0.0000 -3.0720 0.0001ZM 586.2500,561.7402 c 0.0001,4.4096 0.0002,8.8191 0.0002 13.2287c 1.0240,-0.0000 2.0480,-0.0000 3.0720 -0.0001c 0.0001,6.3104 0.0002,12.6208 0.0003 18.9313c -1.0240,0.0000 -2.0480,0.0000 -3.0720 0.0001c 0.0001,4.4096 0.0002,8.8191 0.0002 13.2287c 1.0240,-0.0000 2.0480,-0.0000 3.0720 -0.0001c 0.0000,1.2352 0.0000,2.4704 0.0001 3.7056c 17.6000,-0.0003 35.2000,-0.0006 52.8000 -0.0009c -0.0000,-1.2352 -0.0000,-2.4704 -0.0001 -3.7056c 1.0240,-0.0000 2.0480,-0.0000 3.0720 -0.0001c -0.0001,-4.4096 -0.0002,-8.8191 -0.0002 -13.2287c -1.0240,0.0000 -2.0480,0.0000 -3.0720 0.0001c -0.0001,-6.3104 -0.0002,-12.6208 -0.0003 -18.9313c 1.0240,-0.0000 2.0480,-0.0000 3.0720 -0.0001c -0.0001,-4.4096 -0.0002,-8.8191 -0.0002 -13.2287c -1.0240,0.0000 -2.0480,0.0000 -3.0720 0.0001c -0.0000,-1.2352 -0.0000,-2.4704 -0.0001 -3.7056c -17.6000,0.0003 -35.2000,0.0006 -52.8000 0.0009c 0.0000,1.2352 0.0000,2.4704 0.0001 3.7056c -1.0240,0.0000 -2.0480,0.0000 -3.0720 0.0001ZM 586.2513,633.5512 c 0.0001,4.4096 0.0002,8.8191 0.0002 13.2287c 1.0240,-0.0000 2.0480,-0.0000 3.0720 -0.0001c 0.0001,6.3104 0.0002,12.6209 0.0003 18.9313c -1.0240,0.0000 -2.0480,0.0000 -3.0720 0.0001c 0.0001,4.4096 0.0002,8.8191 0.0002 13.2287c 1.0240,-0.0000 2.0480,-0.0000 3.0720 -0.0001c 0.0000,1.2352 0.0000,2.4704 0.0001 3.7056c 17.6000,-0.0003 35.2000,-0.0006 52.8000 -0.0009c -0.0000,-1.2352 -0.0000,-2.4704 -0.0001 -3.7056c 1.0240,-0.0000 2.0480,-0.0000 3.0720 -0.0001c -0.0001,-4.4096 -0.0002,-8.8192 -0.0002 -13.2287c -1.0240,0.0000 -2.0480,0.0000 -3.0720 0.0001c -0.0001,-6.3104 -0.0002,-12.6209 -0.0003 -18.9313c 1.0240,-0.0000 2.0480,-0.0000 3.0720 -0.0001c -0.0001,-4.4096 -0.0002,-8.8191 -0.0002 -13.2287c -1.0240,0.0000 -2.0480,0.0000 -3.0720 0.0001c -0.0000,-1.2352 -0.0000,-2.4704 -0.0001 -3.7056c -17.6000,0.0003 -35.2000,0.0006 -52.8000 0.0009c 0.0000,1.2352 0.0000,2.4704 0.0001 3.7056c -1.0240,0.0000 -2.0480,0.0000 -3.0720 0.0001ZM 658.7236,392.1373 c 0.0000,3.1311 2.5382,5.6693 5.6693 5.6693c 3.1311,-0.0000 5.6693,-2.5382 5.6693 -5.6693c 0.0000,-3.1311 -2.5382,-5.6693 -5.6693 -5.6693c -3.1311,-0.0000 -5.6693,2.5382 -5.6693 5.6693ZM 658.7291,704.9180 c 0.0000,3.1311 2.5382,5.6693 5.6693 5.6693c 3.1311,-0.0000 5.6693,-2.5382 5.6693 -5.6693c 0.0000,-3.1311 -2.5382,-5.6693 -5.6693 -5.6693c -3.1311,-0.0000 -5.6693,2.5382 -5.6693 5.6693Z"/></g><g stroke-linejoin="miter" stroke-opacity="1.0" fill-opacity="0.5" stroke="rgb(0,0,0)" stroke-width="0.37795275590551186" fill="rgb(0,0,255)" stroke-linecap="butt" stroke-miterlimit="10.0"><path d="M 3.9685,324.1700 c 0.0004,-23.9371 0.0008,-47.8741 0.0012 -71.8110c 0.0000,-0.9073 0.0000,-1.8144 0.0001 -2.7215c 0.0004,-23.0299 0.0008,-46.0598 0.0012 -69.0897c 0.0000,-0.0000 0.0000,-0.0001 0.0000 -0.0001c 0.0000,-0.9072 0.0000,-1.8143 0.0001 -2.7215c 0.0004,-23.0299 0.0008,-46.0598 0.0012 -69.0897c 0.0000,-0.0000 0.0000,-0.0001 0.0000 -0.0001c 0.0000,-0.9071 0.0000,-1.8142 0.0000 -2.7213c 0.0000,-0.0015 0.0000,-0.0030 0.0000 -0.0045c 0.0004,-23.9355 0.0008,-47.8710 0.0013 -71.8065c 0.0003,-16.6078 13.6290,-30.2360 30.2367 -30.2357c 23.9370,0.0004 47.8740,0.0008 71.8110 0.0013c 0.9071,-0.0000 1.8142,-0.0000 2.7213 0.0000c 0.0015,-0.0000 0.0031,-0.0000 0.0046 -0.0000c 23.0284,0.0004 46.0568,0.0008 69.0852 0.0012c 0.9071,0.0000 1.8142,0.0000 2.7213 0.0001c 0.0015,-0.0000 0.0031,-0.0000 0.0046 -0.0000c 23.0284,0.0004 46.0568,0.0008 69.0852 0.0012c 0.9071,-0.0000 1.8143,0.0000 2.7215 0.0001c 11.5150,0.0002 23.0299,0.0004 34.5449 0.0006c 18.8960,-0.0000 37.7920,-0.0000 56.6880 -0.0000c 18.5273,-0.0000 37.0547,-0.0000 55.5820 -0.0000c 0.3687,-0.0000 0.7373,-0.0000 1.1059 -0.0000c 11.5150,-0.0002 23.0300,-0.0004 34.5449 -0.0006c 0.9071,-0.0000 1.8143,-0.0001 2.7215 -0.0001c 23.0284,-0.0004 46.0568,-0.0008 69.0852 -0.0012c 0.0015,-0.0000 0.0031,-0.0000 0.0046 -0.0000c 0.9071,-0.0000 1.8142,-0.0000 2.7213 -0.0001c 23.0284,-0.0004 46.0568,-0.0008 69.0852 -0.0012c 0.0015,-0.0000 0.0031,-0.0000 0.0046 -0.0000c 0.9071,-0.0000 1.8142,-0.0000 2.7213 -0.0000c 23.9370,-0.0004 47.8740,-0.0008 71.8110 -0.0013c 16.6078,-0.0003 30.2364,13.6279 30.2367 30.2357c 0.0004,23.9355 0.0008,47.8710 0.0013 71.8065c 0.0000,0.0015 0.0000,0.0030 0.0000 0.0045c 0.0000,0.9071 0.0000,1.8141 0.0000 2.7213c 0.0000,-0.0000 0.0000,0.0000 0.0000 0.0001c 0.0004,23.0299 0.0008,46.0598 0.0012 69.0897c 0.0000,0.9072 0.0000,1.8143 0.0001 2.7215c 0.0000,-0.0000 0.0000,0.0000 0.0000 0.0001c 0.0004,23.0299 0.0008,46.0598 0.0012 69.0897c 0.0000,0.9072 0.0000,1.8143 0.0001 2.7215c 0.0000,0.0000 0.0000,0.0001 0.0000 0.0001c 0.0004,23.9370 0.0008,47.8740 0.0012 71.8110c 0.0000,0.0000 0.0000,0.0000 0.0000 0.0001c 0.0000,16.6076 -13.6280,30.2359 -30.2357 30.2362c -23.9370,0.0004 -47.8740,0.0008 -71.8110 0.0012c -0.9071,0.0000 -1.8142,0.0000 -2.7213 0.0001c -23.0299,0.0004 -46.0599,0.0008 -69.0898 0.0012c -0.9072,0.0000 -1.8143,0.0000 -2.7215 0.0001c -0.0019,-0.0000 -0.0037,-0.0000 -0.0055 -0.0000c -23.0279,0.0004 -46.0558,0.0008 -69.0838 0.0012c -0.9071,0.0000 -1.8143,0.0000 -2.7215 0.0000c -0.0017,-0.0000 -0.0034,-0.0000 -0.0051 -0.0000c -11.5134,0.0002 -23.0267,0.0004 -34.5400 0.0006c -0.4542,-0.0000 -0.9085,-0.0000 -1.3627 -0.0000c -11.9676,0.0002 -23.9351,0.0004 -35.9027 0.0006c -0.0655,-0.0000 -0.1309,-0.0002 -0.1962 -0.0006c -6.4108,-0.0000 -12.8216,-0.0000 -19.2324 -0.0000c -6.4108,-0.0000 -12.8216,-0.0000 -19.2324 -0.0000c -0.0654,0.0004 -0.1308,0.0006 -0.1962 0.0006c -12.4218,-0.0002 -24.8436,-0.0004 -37.2654 -0.0006c -11.5134,-0.0002 -23.0267,-0.0004 -34.5400 -0.0006c -0.0017,-0.0000 -0.0034,-0.0000 -0.0051 -0.0000c -0.9071,-0.0000 -1.8143,-0.0000 -2.7215 -0.0000c -23.0279,-0.0004 -46.0558,-0.0008 -69.0838 -0.0012c -0.0019,-0.0000 -0.0037,-0.0000 -0.0055 -0.0000c -0.9072,-0.0000 -1.8143,-0.0000 -2.7215 -0.0001c -23.0299,-0.0004 -46.0598,-0.0008 -69.0898 -0.0012c -0.9071,-0.0000 -1.8142,-0.0000 -2.7213 -0.0001c -23.9370,-0.0004 -47.8740,-0.0008 -71.8110 -0.0012c -16.6077,-0.0003 -30.2357,-13.6287 -30.2357 -30.2362ZM 17.1278,335.5776 c 0.0000,3.1311 2.5382,5.6693 5.6693 5.6693c 3.1311,-0.0000 5.6693,-2.5382 5.6693 -5.6693c 0.0000,-3.1311 -2.5382,-5.6693 -5.6693 -5.6693c -3.1311,-0.0000 -5.6693,2.5382 -5.6693 5.6693ZM 17.1332,22.7968 c 0.0000,3.1311 2.5382,5.6693 5.6693 5.6693c 3.1311,-0.0000 5.6693,-2.5382 5.6693 -5.6693c 0.0000,-3.1311 -2.5382,-5.6693 -5.6693 -5.6693c -3.1311,-0.0000 -5.6693,2.5382 -5.6693 5.6693ZM 30.4254,324.1700 c 0.0000,0.0000 0.0000,0.0000 0.0000 0.0001c 0.0000,2.0873 1.6921,3.7795 3.7795 3.7795c 23.9370,0.0004 47.8740,0.0008 71.8110 0.0013c 0.9071,0.0000 1.8142,0.0000 2.7213 0.0000c 23.0299,0.0004 46.0599,0.0008 69.0898 0.0012c 0.9071,0.0000 1.8142,0.0000 2.7213 0.0001c 0.0020,-0.0000 0.0040,-0.0000 0.0060 -0.0000c 23.0279,0.0004 46.0558,0.0008 69.0838 0.0012c 0.9071,0.0000 1.8142,0.0000 2.7213 0.0001c 0.0019,-0.0000 0.0037,-0.0000 0.0056 -0.0000c 23.9352,0.0004 47.8703,0.0008 71.8054 0.0013c 2.0874,0.0000 3.7796,-1.6921 3.7796 -3.7795c 0.0004,-23.9370 0.0008,-47.8740 0.0012 -71.8110c 0.0000,-0.9071 0.0000,-1.8142 0.0001 -2.7213c 0.0000,-0.0000 0.0000,-0.0000 0.0000 -0.0001c 0.0004,-23.0299 0.0008,-46.0598 0.0012 -69.0897c 0.0000,-0.9071 0.0000,-1.8142 0.0000 -2.7213c 0.0000,-0.0000 0.0000,-0.0000 0.0000 -0.0001c 0.0004,-23.0299 0.0008,-46.0598 0.0012 -69.0897c 0.0000,-0.9071 0.0000,-1.8142 0.0000 -2.7213c 0.0000,-0.0000 0.0000,-0.0000 0.0000 -0.0001c 0.0004,-23.9370 0.0008,-47.8740 0.0013 -71.8110c -0.0000,-2.0874 -1.6921,-3.7796 -3.7795 -3.7796c -23.9370,-0.0004 -47.8740,-0.0008 -71.8110 -0.0013c -0.9071,-0.0000 -1.8142,-0.0000 -2.7213 -0.0001c -23.0284,-0.0004 -46.0568,-0.0008 -69.0852 -0.0012c -0.0015,-0.0000 -0.0031,-0.0000 -0.0046 -0.0000c -0.9071,-0.0000 -1.8142,-0.0000 -2.7213 -0.0000c -23.0284,-0.0004 -46.0568,-0.0008 -69.0852 -0.0012c -0.0015,-0.0000 -0.0031,-0.0000 -0.0046 -0.0000c -0.9071,-0.0000 -1.8142,-0.0000 -2.7213 -0.0000c -23.9370,-0.0004 -47.8740,-0.0008 -71.8110 -0.0012c -2.0874,-0.0000 -3.7796,1.6921 -3.7796 3.7795c -0.0004,23.9355 -0.0008,47.8710 -0.0012 71.8065c 0.0000,0.0015 0.0000,0.0030 0.0000 0.0045c -0.0000,0.9071 -0.0000,1.8142 -0.0000 2.7213c 0.0000,0.0000 0.0000,0.0000 0.0000 0.0001c -0.0004,23.0299 -0.0008,46.0598 -0.0012 69.0897c -0.0000,0.9071 -0.0000,1.8142 -0.0001 2.7213c 0.0000,0.0000 0.0000,0.0000 0.0000 0.0001c -0.0004,23.0299 -0.0008,46.0598 -0.0012 69.0897c -0.0000,0.9071 -0.0000,1.8142 -0.0001 2.7213c 0.0000,0.0000 0.0000,0.0000 0.0000 0.0001c -0.0004,23.9370 -0.0008,47.8740 -0.0013 71.8110ZM 281.2346,339.7083 c 0.0000,3.1311 2.5382,5.6693 5.6693 5.6693c 3.1311,-0.0000 5.6693,-2.5382 5.6693 -5.6693c 0.0000,-3.1311 -2.5382,-5.6693 -5.6693 -5.6693c -3.1311,-0.0000 -5.6693,2.5382 -5.6693 5.6693ZM 309.5820,18.6753 c 0.0000,3.1311 2.5382,5.6693 5.6693 5.6693c 3.1311,-0.0000 5.6693,-2.5382 5.6693 -5.6693c 0.0000,-3.1311 -2.5382,-5.6693 -5.6693 -5.6693c -3.1311,-0.0000 -5.6693,2.5382 -5.6693 5.6693ZM 359.2406,34.2098 c 0.0004,23.9370 0.0008,47.8740 0.0013 71.8110c 0.0000,0.0000 0.0000,0.0000 0.0000 0.0001c 0.0000,0.9071 0.0000,1.8142 0.0000 2.7213c 0.0004,23.0299 0.0008,46.0598 0.0012 69.0897c 0.0000,0.0000 0.0000,0.0000 0.0000 0.0001c 0.0000,0.9071 0.0000,1.8142 0.0000 2.7213c 0.0004,23.0299 0.0008,46.0598 0.0012 69.0897c 0.0000,0.0000 0.0000,0.0000 0.0000 0.0001c 0.0000,0.9071 0.0000,1.8142 0.0001 2.7213c 0.0004,23.9370 0.0008,47.8740 0.0012 71.8110c 0.0000,2.0874 1.6922,3.7795 3.7796 3.7795c 23.9351,-0.0004 47.8703,-0.0008 71.8054 -0.0013c 0.0019,0.0000 0.0037,0.0000 0.0056 0.0000c 0.9071,-0.0000 1.8142,-0.0000 2.7213 -0.0001c 23.0279,-0.0004 46.0558,-0.0008 69.0838 -0.0012c 0.0020,0.0000 0.0040,0.0000 0.0060 0.0000c 0.9071,-0.0000 1.8142,-0.0000 2.7213 -0.0001c 23.0299,-0.0004 46.0598,-0.0008 69.0898 -0.0012c 0.9071,-0.0000 1.8142,-0.0000 2.7213 -0.0000c 23.9370,-0.0004 47.8740,-0.0008 71.8110 -0.0013c 2.0874,-0.0000 3.7795,-1.6922 3.7795 -3.7795c 0.0000,-0.0000 0.0000,-0.0000 0.0000 -0.0001c -0.0004,-23.9370 -0.0008,-47.8740 -0.0013 -71.8110c 0.0000,-0.0000 0.0000,-0.0000 0.0000 -0.0001c -0.0000,-0.9071 -0.0000,-1.8142 -0.0001 -2.7213c -0.0004,-23.0299 -0.0008,-46.0598 -0.0012 -69.0897c 0.0000,-0.0000 0.0000,-0.0000 0.0000 -0.0001c -0.0000,-0.9071 -0.0000,-1.8142 -0.0001 -2.7213c -0.0004,-23.0299 -0.0008,-46.0598 -0.0012 -69.0897c 0.0000,-0.0000 0.0000,-0.0000 0.0000 -0.0001c -0.0000,-0.9071 -0.0000,-1.8142 -0.0000 -2.7213c 0.0000,-0.0015 0.0000,-0.0030 0.0000 -0.0045c -0.0004,-23.9355 -0.0008,-47.8710 -0.0012 -71.8065c -0.0000,-2.0874 -1.6922,-3.7795 -3.7796 -3.7795c -23.9370,0.0004 -47.8740,0.0008 -71.8110 0.0012c -0.9071,0.0000 -1.8142,0.0000 -2.7213 0.0000c -0.0015,-0.0000 -0.0031,-0.0000 -0.0046 -0.0000c -23.0284,0.0004 -46.0568,0.0008 -69.0852 0.0012c -0.9071,0.0000 -1.8142,0.0000 -2.7213 0.0000c -0.0015,-0.0000 -0.0031,-0.0000 -0.0046 -0.0000c -23.0284,0.0004 -46.0568,0.0008 -69.0852 0.0012c -0.9071,0.0000 -1.8142,0.0000 -2.7213 0.0001c -23.9370,0.0004 -47.8740,0.0008 -71.8110 0.0013c -2.0873,0.0000 -3.7794,1.6921 -3.7795 3.7796ZM 366.2749,18.6753 c 0.0000,3.1311 2.5382,5.6693 5.6693 5.6693c 3.1311,-0.0000 5.6693,-2.5382 5.6693 -5.6693c 0.0000,-3.1311 -2.5382,-5.6693 -5.6693 -5.6693c -3.1311,-0.0000 -5.6693,2.5382 -5.6693 5.6693ZM 394.6223,339.7083 c 0.0000,3.1311 2.5382,5.6693 5.6693 5.6693c 3.1311,-0.0000 5.6693,-2.5382 5.6693 -5.6693c 0.0000,-3.1311 -2.5382,-5.6693 -5.6693 -5.6693c -3.1311,-0.0000 -5.6693,2.5382 -5.6693 5.6693ZM 658.7236,22.7968 c 0.0000,3.1311 2.5382,5.6693 5.6693 5.6693c 3.1311,-0.0000 5.6693,-2.5382 5.6693 -5.6693c 0.0000,-3.1311 -2.5382,-5.6693 -5.6693 -5.6693c -3.1311,-0.0000 -5.6693,2.5382 -5.6693 5.6693ZM 658.7291,335.5776 c 0.0000,3.1311 2.5382,5.6693 5.6693 5.6693c 3.1311,-0.0000 5.6693,-2.5382 5.6693 -5.6693c 0.0000,-3.1311 -2.5382,-5.6693 -5.6693 -5.6693c -3.1311,-0.0000 -5.6693,2.5382 -5.6693 5.6693Z"/></g></svg>