<?xml version="1.0" encoding="UTF-8"?>
<!DOCTYPE svg PUBLIC "-//W3C//DTD SVG 1.1//EN"
    "http://www.w3.org/Graphics/SVG/1.1/DTD/svg11.dtd"><svg xmlns="http://www.w3.org/2000/svg" height="2230.9922" stroke-opacity="1" viewBox="0 0 597 2231" font-size="1" width="597.4866" xmlns:xlink="http://www.w3.org/1999/xlink" stroke="rgb(0,0,0)" version="1.1"><defs></defs><defs><linearGradient x2="38.9962" y1="0.0000" gradientUnits="userSpaceOnUse" spreadMethod="pad" gradientTransform="matrix(3.7795,-0.0000,0.0000,-3.7795,16.2520,2120.9387)" id="gradient0" y2="-60.0000" x1="-38.9962"><stop stop-opacity="1.0000" offset="0.0000" stop-color="rgb(128,128,128)"/><stop stop-opacity="1.0000" offset="0.5000" stop-color="rgb(255,255,255)"/><stop stop-opacity="1.0000" offset="1.0000" stop-color="rgb(128,128,128)"/></linearGradient></defs><g stroke-linejoin="miter" stroke-opacity="1.0" fill-opacity="1" stroke="rgb(0,0,0)" stroke-width="0.7559055118110237" fill="url(#gradient0)" stroke-linecap="butt" stroke-miterlimit="10.0"><path d="M 3.9685,1809.8142 c 0.0000,-6.7840 5.4995,-12.2835 12.2835 -12.2835c 188.3275,-0.0000 376.6551,-0.0000 564.9827 -0.0000c 6.7840,-0.0000 12.2835,5.4995 12.2835 12.2835c 0.0000,115.8677 0.0000,231.7354 0.0000 347.6032c 0.0000,6.2311 -4.6656,11.4751 -10.8544 12.2001c -163.1307,19.1076 -326.2614,38.2153 -489.3921 57.3229c -0.4743,0.0555 -0.9515,0.0834 -1.4290 0.0834c -25.1969,-0.0000 -50.3937,-0.0000 -75.5906 -0.0000c -6.7840,-0.0000 -12.2835,-5.4995 -12.2835 -12.2835c 0.0000,-134.9753 0.0000,-269.9506 -0.0000 -404.9260ZM 86.1732,1809.8142 c 0.0000,3.1311 2.5382,5.6693 5.6693 5.6693c 3.1311,-0.0000 5.6693,-2.5382 5.6693 -5.6693c 0.0000,-3.1310 -2.5382,-5.6693 -5.6693 -5.6693c -3.1311,-0.0000 -5.6693,2.5382 -5.6693 5.6693ZM 86.1732,2214.7403 c 0.0000,3.1311 2.5382,5.6693 5.6693 5.6693c 3.1311,-0.0000 5.6693,-2.5382 5.6693 -5.6693c 0.0000,-3.1311 -2.5382,-5.6693 -5.6693 -5.6693c -3.1311,-0.0000 -5.6693,2.5382 -5.6693 5.6693ZM 571.7858,1813.5938 c 0.0000,3.1311 2.5382,5.6693 5.6693 5.6693c 3.1310,-0.0000 5.6693,-2.5382 5.6693 -5.6693c 0.0000,-3.1311 -2.5382,-5.6693 -5.6693 -5.6693c -3.1311,-0.0000 -5.6693,2.5382 -5.6693 5.6693ZM 571.7858,2153.6379 c 0.0000,3.1311 2.5382,5.6693 5.6693 5.6693c 3.1310,-0.0000 5.6693,-2.5382 5.6693 -5.6693c 0.0000,-3.1311 -2.5382,-5.6693 -5.6693 -5.6693c -3.1311,-0.0000 -5.6693,2.5382 -5.6693 5.6693Z"/></g><g stroke-linejoin="miter" stroke-opacity="1.0" fill-opacity="0.5" stroke="rgb(0,0,0)" stroke-width="0.7559055118110237" fill="rgb(255,255,0)" stroke-linecap="butt" stroke-miterlimit="10.0"><path d="M 3.9685,1809.8142 c 0.0000,-6.7839 5.4995,-12.2834 12.2835 -12.2834c 21.5857,-0.0000 43.1715,-0.0000 64.7573 -0.0000c 7.2221,-0.0000 14.4444,-0.0000 21.6665 -0.0000c 157.1890,-0.0000 314.3780,-0.0000 471.5669 -0.0000c 2.1416,-0.0000 4.2832,-0.0000 6.4248 -0.0000c 0.1891,-0.0000 0.3781,-0.0000 0.5671 -0.0000c 6.7840,-0.0000 12.2835,5.4995 12.2835 12.2834c 0.0000,0.1890 0.0000,0.3779 0.0000 0.5668c 0.0000,2.1418 0.0000,4.2836 0.0000 6.4254c 0.0000,111.2062 0.0000,222.4125 0.0000 333.6187c 0.0000,2.1418 0.0000,4.2836 0.0000 6.4254c 0.0000,0.1889 0.0000,0.3779 0.0000 0.5668c 0.0000,6.2311 -4.6657,11.4751 -10.8545 12.2001c -159.5442,18.6875 -319.0883,37.3751 -478.6325 56.0626c -3.5865,0.4201 -7.1731,0.8402 -10.7596 1.2603c -0.4743,0.0556 -0.9515,0.0834 -1.4290 0.0834c -3.6111,-0.0000 -7.2222,-0.0000 -10.8333 -0.0000c -21.5858,-0.0000 -43.1715,-0.0000 -64.7573 -0.0000c -6.7840,-0.0000 -12.2835,-5.4994 -12.2835 -12.2834c 0.0000,-134.9753 0.0000,-269.9507 -0.0000 -404.9260ZM 27.5907,1831.1943 c 0.0000,120.7220 0.0000,241.4440 0.0000 362.1660c 0.0000,6.0676 5.0764,10.9863 11.3385 10.9863c 13.4185,-0.0000 26.8369,-0.0000 40.2554 -0.0000c 3.0038,-3.6539 7.5588,-5.9842 12.6580 -5.9842c 5.0992,-0.0000 9.6542,2.3304 12.6579 5.9842c 1.4013,-0.0000 2.8027,-0.0000 4.2040 -0.0000c 0.4408,-0.0000 0.8812,-0.0249 1.3191 -0.0746c 150.3543,-17.0642 300.7086,-34.1283 451.0629 -51.1924c 0.2281,-6.8100 4.6138,-12.5665 10.6994 -14.8119c 0.0000,-102.3578 0.0000,-204.7156 0.0000 -307.0735c 0.0000,-0.7983 -0.0878,-1.5768 -0.2547 -2.3266c -3.9828,-1.5459 -7.2108,-4.6046 -8.9786 -8.4707c -0.6822,-0.1241 -1.3859,-0.1890 -2.1052 -0.1890c -151.9823,-0.0000 -303.9646,-0.0000 -455.9469 -0.0000c -3.0038,3.6539 -7.5588,5.9843 -12.6580 5.9843c -5.0993,-0.0000 -9.6542,-2.3304 -12.6580 -5.9843c -13.4185,-0.0000 -26.8370,-0.0000 -40.2554 -0.0000c -6.2621,-0.0000 -11.3385,4.9187 -11.3385 10.9863ZM 86.1733,1809.8143 c 0.0000,3.1311 2.5382,5.6693 5.6693 5.6693c 3.1311,-0.0000 5.6693,-2.5382 5.6693 -5.6693c 0.0000,-3.1311 -2.5382,-5.6693 -5.6693 -5.6693c -3.1310,-0.0000 -5.6693,2.5382 -5.6693 5.6693ZM 86.1733,2214.7403 c 0.0000,3.1311 2.5382,5.6693 5.6693 5.6693c 3.1311,-0.0000 5.6693,-2.5382 5.6693 -5.6693c 0.0000,-3.1311 -2.5382,-5.6693 -5.6693 -5.6693c -3.1310,-0.0000 -5.6693,2.5382 -5.6693 5.6693ZM 571.7858,1813.5938 c 0.0000,3.1311 2.5382,5.6693 5.6693 5.6693c 3.1311,-0.0000 5.6693,-2.5382 5.6693 -5.6693c 0.0000,-3.1311 -2.5382,-5.6693 -5.6693 -5.6693c -3.1311,-0.0000 -5.6693,2.5382 -5.6693 5.6693ZM 571.7858,2153.6379 c 0.0000,3.1311 2.5382,5.6693 5.6693 5.6693c 3.1311,-0.0000 5.6693,-2.5382 5.6693 -5.6693c 0.0000,-3.1311 -2.5382,-5.6693 -5.6693 -5.6693c -3.1311,-0.0000 -5.6693,2.5382 -5.6693 5.6693Z"/></g><g stroke-linejoin="miter" stroke-opacity="1.0" fill-opacity="0.5" stroke="rgb(0,0,0)" stroke-width="0.7559055118110237" fill="rgb(0,128,0)" stroke-linecap="butt" stroke-miterlimit="10.0"><path d="M 3.9685,1809.8142 c 0.0000,-6.7840 5.4995,-12.2835 12.2835 -12.2835c 188.3275,-0.0000 376.6551,-0.0000 564.9827 -0.0000c 6.7840,-0.0000 12.2835,5.4995 12.2835 12.2835c 0.0000,115.8677 0.0000,231.7354 0.0000 347.6032c 0.0000,6.2311 -4.6656,11.4751 -10.8544 12.2001c -163.1307,19.1076 -326.2614,38.2153 -489.3921 57.3229c -0.4743,0.0555 -0.9515,0.0834 -1.4290 0.0834c -25.1969,-0.0000 -50.3937,-0.0000 -75.5906 -0.0000c -6.7840,-0.0000 -12.2835,-5.4995 -12.2835 -12.2835c 0.0000,-134.9753 0.0000,-269.9506 -0.0000 -404.9260ZM 62.3706,2062.3388 c 0.0000,4.4096 0.0000,8.8192 0.0000 13.2287c 1.0240,-0.0000 2.0480,-0.0000 3.0720 -0.0000c 0.0000,6.3105 0.0000,12.6209 0.0000 18.9313c -1.0240,-0.0000 -2.0480,-0.0000 -3.0720 -0.0000c 0.0000,4.4096 0.0000,8.8192 0.0000 13.2287c 1.0240,-0.0000 2.0480,-0.0000 3.0720 -0.0000c 0.0000,1.2352 0.0000,2.4704 0.0000 3.7057c 17.6000,-0.0000 35.2000,-0.0000 52.8000 -0.0000c 0.0000,-1.2352 0.0000,-2.4704 0.0000 -3.7057c 1.0240,-0.0000 2.0480,-0.0000 3.0720 -0.0000c 0.0000,-4.4096 0.0000,-8.8192 0.0000 -13.2287c -1.0240,-0.0000 -2.0480,-0.0000 -3.0720 -0.0000c 0.0000,-6.3104 0.0000,-12.6208 0.0000 -18.9313c 1.0240,-0.0000 2.0480,-0.0000 3.0720 -0.0000c 0.0000,-4.4096 0.0000,-8.8192 0.0000 -13.2287c -1.0240,-0.0000 -2.0480,-0.0000 -3.0720 -0.0000c 0.0000,-1.2352 0.0000,-2.4704 0.0000 -3.7056c -17.6000,-0.0000 -35.2000,-0.0000 -52.8000 -0.0000c 0.0000,1.2352 0.0000,2.4704 0.0000 3.7056c -1.0240,-0.0000 -2.0480,-0.0000 -3.0720 -0.0000ZM 62.3706,2134.1498 c 0.0000,4.4096 0.0000,8.8192 0.0000 13.2287c 1.0240,-0.0000 2.0480,-0.0000 3.0720 -0.0000c 0.0000,6.3104 0.0000,12.6208 0.0000 18.9313c -1.0240,-0.0000 -2.0480,-0.0000 -3.0720 -0.0000c 0.0000,4.4096 0.0000,8.8192 0.0000 13.2287c 1.0240,-0.0000 2.0480,-0.0000 3.0720 -0.0000c 0.0000,1.2352 0.0000,2.4704 0.0000 3.7056c 17.6000,-0.0000 35.2000,-0.0000 52.8000 -0.0000c 0.0000,-1.2352 0.0000,-2.4704 0.0000 -3.7056c 1.0240,-0.0000 2.0480,-0.0000 3.0720 -0.0000c 0.0000,-4.4096 0.0000,-8.8192 0.0000 -13.2287c -1.0240,-0.0000 -2.0480,-0.0000 -3.0720 -0.0000c 0.0000,-6.3105 0.0000,-12.6209 0.0000 -18.9313c 1.0240,-0.0000 2.0480,-0.0000 3.0720 -0.0000c 0.0000,-4.4096 0.0000,-8.8192 0.0000 -13.2287c -1.0240,-0.0000 -2.0480,-0.0000 -3.0720 -0.0000c 0.0000,-1.2352 0.0000,-2.4704 0.0000 -3.7057c -17.6000,-0.0000 -35.2000,-0.0000 -52.8000 -0.0000c 0.0000,1.2352 0.0000,2.4704 0.0000 3.7057c -1.0240,-0.0000 -2.0480,-0.0000 -3.0720 -0.0000ZM 86.1732,1809.8142 c 0.0000,3.1311 2.5382,5.6693 5.6693 5.6693c 3.1311,-0.0000 5.6693,-2.5382 5.6693 -5.6693c 0.0000,-3.1310 -2.5382,-5.6693 -5.6693 -5.6693c -3.1311,-0.0000 -5.6693,2.5382 -5.6693 5.6693ZM 86.1732,2214.7403 c 0.0000,3.1311 2.5382,5.6693 5.6693 5.6693c 3.1311,-0.0000 5.6693,-2.5382 5.6693 -5.6693c 0.0000,-3.1311 -2.5382,-5.6693 -5.6693 -5.6693c -3.1311,-0.0000 -5.6693,2.5382 -5.6693 5.6693ZM 134.1816,1882.8112 c 0.0000,4.4096 0.0000,8.8192 0.0000 13.2287c 1.0240,-0.0000 2.0480,-0.0000 3.0720 -0.0000c 0.0000,6.3104 0.0000,12.6209 0.0000 18.9313c -1.0240,-0.0000 -2.0479,-0.0000 -3.0720 -0.0000c 0.0000,4.4096 0.0000,8.8192 0.0000 13.2287c 1.0240,-0.0000 2.0480,-0.0000 3.0720 -0.0000c 0.0000,1.2352 0.0000,2.4704 0.0000 3.7056c 17.6000,-0.0000 35.2000,-0.0000 52.8000 -0.0000c 0.0000,-1.2352 0.0000,-2.4704 0.0000 -3.7056c 1.0240,-0.0000 2.0480,-0.0000 3.0720 -0.0000c 0.0000,-4.4096 0.0000,-8.8192 0.0000 -13.2287c -1.0240,-0.0000 -2.0480,-0.0000 -3.0720 -0.0000c 0.0000,-6.3104 0.0000,-12.6209 0.0000 -18.9313c 1.0240,-0.0000 2.0480,-0.0000 3.0720 -0.0000c 0.0000,-4.4096 0.0000,-8.8192 0.0000 -13.2287c -1.0240,-0.0000 -2.0480,-0.0000 -3.0720 -0.0000c 0.0000,-1.2352 0.0000,-2.4704 0.0000 -3.7057c -17.6000,-0.0000 -35.2000,-0.0000 -52.8000 -0.0000c 0.0000,1.2352 0.0000,2.4704 0.0000 3.7057c -1.0240,-0.0000 -2.0479,-0.0000 -3.0720 -0.0000ZM 134.1816,1954.6223 c 0.0000,4.4095 0.0000,8.8191 0.0000 13.2287c 1.0240,-0.0000 2.0480,-0.0000 3.0720 -0.0000c 0.0000,6.3105 0.0000,12.6209 0.0000 18.9313c -1.0240,-0.0000 -2.0479,-0.0000 -3.0720 -0.0000c 0.0000,4.4095 0.0000,8.8191 0.0000 13.2287c 1.0240,-0.0000 2.0480,-0.0000 3.0720 -0.0000c 0.0000,1.2352 0.0000,2.4704 0.0000 3.7057c 17.6000,-0.0000 35.2000,-0.0000 52.8000 -0.0000c 0.0000,-1.2352 0.0000,-2.4704 0.0000 -3.7057c 1.0240,-0.0000 2.0480,-0.0000 3.0720 -0.0000c 0.0000,-4.4096 0.0000,-8.8192 0.0000 -13.2287c -1.0240,-0.0000 -2.0480,-0.0000 -3.0720 -0.0000c 0.0000,-6.3105 0.0000,-12.6209 0.0000 -18.9313c 1.0240,-0.0000 2.0480,-0.0000 3.0720 -0.0000c 0.0000,-4.4096 0.0000,-8.8192 0.0000 -13.2287c -1.0240,-0.0000 -2.0480,-0.0000 -3.0720 -0.0000c 0.0000,-1.2352 0.0000,-2.4704 0.0000 -3.7057c -17.6000,-0.0000 -35.2000,-0.0000 -52.8000 -0.0000c 0.0000,1.2352 0.0000,2.4704 0.0000 3.7057c -1.0240,-0.0000 -2.0479,-0.0000 -3.0720 0.0000ZM 134.1816,2026.4333 c 0.0000,4.4096 0.0000,8.8192 0.0000 13.2287c 1.0240,-0.0000 2.0480,-0.0000 3.0720 -0.0000c 0.0000,6.3104 0.0000,12.6209 0.0000 18.9313c -1.0240,-0.0000 -2.0479,-0.0000 -3.0720 -0.0000c 0.0000,4.4096 0.0000,8.8192 0.0000 13.2287c 1.0240,-0.0000 2.0480,-0.0000 3.0720 -0.0000c 0.0000,1.2352 0.0000,2.4704 0.0000 3.7056c 17.6000,-0.0000 35.2000,-0.0000 52.8000 -0.0000c 0.0000,-1.2352 0.0000,-2.4704 0.0000 -3.7056c 1.0240,-0.0000 2.0480,-0.0000 3.0720 -0.0000c 0.0000,-4.4096 0.0000,-8.8192 0.0000 -13.2287c -1.0240,-0.0000 -2.0480,-0.0000 -3.0720 -0.0000c 0.0000,-6.3104 0.0000,-12.6209 0.0000 -18.9313c 1.0240,-0.0000 2.0480,-0.0000 3.0720 -0.0000c 0.0000,-4.4096 0.0000,-8.8192 0.0000 -13.2287c -1.0240,-0.0000 -2.0480,-0.0000 -3.0720 -0.0000c 0.0000,-1.2352 0.0000,-2.4704 0.0000 -3.7056c -17.6000,-0.0000 -35.2000,-0.0000 -52.8000 -0.0000c 0.0000,1.2352 0.0000,2.4704 0.0000 3.7056c -1.0240,-0.0000 -2.0479,-0.0000 -3.0720 -0.0000ZM 134.1816,2098.2443 c 0.0000,4.4096 0.0000,8.8192 0.0000 13.2287c 1.0240,-0.0000 2.0480,-0.0000 3.0720 -0.0000c 0.0000,6.3105 0.0000,12.6209 0.0000 18.9313c -1.0240,-0.0000 -2.0479,-0.0000 -3.0720 -0.0000c 0.0000,4.4095 0.0000,8.8191 0.0000 13.2287c 1.0240,-0.0000 2.0480,-0.0000 3.0720 -0.0000c 0.0000,1.2352 0.0000,2.4704 0.0000 3.7057c 17.6000,-0.0000 35.2000,-0.0000 52.8000 -0.0000c 0.0000,-1.2352 0.0000,-2.4704 0.0000 -3.7057c 1.0240,-0.0000 2.0480,-0.0000 3.0720 -0.0000c 0.0000,-4.4096 0.0000,-8.8192 0.0000 -13.2287c -1.0240,-0.0000 -2.0480,-0.0000 -3.0720 -0.0000c 0.0000,-6.3105 0.0000,-12.6209 0.0000 -18.9313c 1.0240,-0.0000 2.0480,-0.0000 3.0720 -0.0000c 0.0000,-4.4095 0.0000,-8.8191 0.0000 -13.2287c -1.0240,-0.0000 -2.0480,-0.0000 -3.0720 -0.0000c 0.0000,-1.2352 0.0000,-2.4704 0.0000 -3.7057c -17.6000,-0.0000 -35.2000,-0.0000 -52.8000 -0.0000c 0.0000,1.2352 0.0000,2.4704 0.0000 3.7057c -1.0240,-0.0000 -2.0479,-0.0000 -3.0720 -0.0000ZM 205.9926,1863.9136 c 0.0000,4.4096 0.0000,8.8192 0.0000 13.2287c 1.0240,-0.0000 2.0480,-0.0000 3.0720 -0.0000c 0.0000,6.3104 0.0000,12.6209 0.0000 18.9313c -1.0240,-0.0000 -2.0480,-0.0000 -3.0720 -0.0000c 0.0000,4.4096 0.0000,8.8192 0.0000 13.2287c 1.0240,-0.0000 2.0480,-0.0000 3.0720 -0.0000c 0.0000,1.2352 0.0000,2.4704 0.0000 3.7057c 17.6000,-0.0000 35.2000,-0.0000 52.8000 -0.0000c 0.0000,-1.2352 0.0000,-2.4704 0.0000 -3.7057c 1.0240,-0.0000 2.0480,-0.0000 3.0720 -0.0000c 0.0000,-4.4096 0.0000,-8.8192 0.0000 -13.2287c -1.0240,-0.0000 -2.0480,-0.0000 -3.0720 -0.0000c 0.0000,-6.3104 0.0000,-12.6209 0.0000 -18.9313c 1.0240,-0.0000 2.0480,-0.0000 3.0720 -0.0000c 0.0000,-4.4096 0.0000,-8.8192 0.0000 -13.2287c -1.0240,-0.0000 -2.0480,-0.0000 -3.0720 -0.0000c 0.0000,-1.2352 0.0000,-2.4704 0.0000 -3.7056c -17.6000,-0.0000 -35.2000,-0.0000 -52.8000 -0.0000c 0.0000,1.2352 0.0000,2.4704 0.0000 3.7056c -1.0240,-0.0000 -2.0480,-0.0000 -3.0720 0.0000ZM 205.9926,1935.7246 c 0.0000,4.4096 0.0000,8.8192 0.0000 13.2287c 1.0240,-0.0000 2.0480,-0.0000 3.0720 -0.0000c 0.0000,6.3104 0.0000,12.6208 0.0000 18.9313c -1.0240,-0.0000 -2.0480,-0.0000 -3.0720 -0.0000c 0.0000,4.4096 0.0000,8.8192 0.0000 13.2287c 1.0240,-0.0000 2.0480,-0.0000 3.0720 -0.0000c 0.0000,1.2352 0.0000,2.4704 0.0000 3.7056c 17.6000,-0.0000 35.2000,-0.0000 52.8000 -0.0000c 0.0000,-1.2352 0.0000,-2.4704 0.0000 -3.7056c 1.0240,-0.0000 2.0480,-0.0000 3.0720 -0.0000c 0.0000,-4.4096 0.0000,-8.8192 0.0000 -13.2287c -1.0240,-0.0000 -2.0480,-0.0000 -3.0720 -0.0000c 0.0000,-6.3105 0.0000,-12.6209 0.0000 -18.9313c 1.0240,-0.0000 2.0480,-0.0000 3.0720 -0.0000c 0.0000,-4.4096 0.0000,-8.8192 0.0000 -13.2287c -1.0240,-0.0000 -2.0480,-0.0000 -3.0720 -0.0000c 0.0000,-1.2352 0.0000,-2.4704 0.0000 -3.7057c -17.6000,-0.0000 -35.2000,-0.0000 -52.8000 -0.0000c 0.0000,1.2352 0.0000,2.4704 0.0000 3.7057c -1.0240,-0.0000 -2.0480,-0.0000 -3.0720 -0.0000ZM 205.9926,2007.5356 c 0.0000,4.4096 0.0000,8.8192 0.0000 13.2287c 1.0240,-0.0000 2.0480,-0.0000 3.0720 -0.0000c 0.0000,6.3105 0.0000,12.6209 0.0000 18.9313c -1.0240,-0.0000 -2.0480,-0.0000 -3.0720 -0.0000c 0.0000,4.4096 0.0000,8.8192 0.0000 13.2287c 1.0240,-0.0000 2.0480,-0.0000 3.0720 -0.0000c 0.0000,1.2352 0.0000,2.4704 0.0000 3.7057c 17.6000,-0.0000 35.2000,-0.0000 52.8000 -0.0000c 0.0000,-1.2352 0.0000,-2.4704 0.0000 -3.7057c 1.0240,-0.0000 2.0480,-0.0000 3.0720 -0.0000c 0.0000,-4.4096 0.0000,-8.8192 0.0000 -13.2287c -1.0240,-0.0000 -2.0480,-0.0000 -3.0720 -0.0000c 0.0000,-6.3104 0.0000,-12.6208 0.0000 -18.9313c 1.0240,-0.0000 2.0480,-0.0000 3.0720 -0.0000c 0.0000,-4.4096 0.0000,-8.8192 0.0000 -13.2287c -1.0240,-0.0000 -2.0480,-0.0000 -3.0720 -0.0000c 0.0000,-1.2352 0.0000,-2.4704 0.0000 -3.7056c -17.6000,-0.0000 -35.2000,-0.0000 -52.8000 -0.0000c 0.0000,1.2352 0.0000,2.4704 0.0000 3.7056c -1.0240,-0.0000 -2.0480,-0.0000 -3.0720 0.0000ZM 205.9926,2079.3467 c 0.0000,4.4096 0.0000,8.8192 0.0000 13.2287c 1.0240,-0.0000 2.0480,-0.0000 3.0720 -0.0000c 0.0000,6.3104 0.0000,12.6208 0.0000 18.9313c -1.0240,-0.0000 -2.0480,-0.0000 -3.0720 -0.0000c 0.0000,4.4096 0.0000,8.8192 0.0000 13.2287c 1.0240,-0.0000 2.0480,-0.0000 3.0720 -0.0000c 0.0000,1.2352 0.0000,2.4704 0.0000 3.7056c 17.6000,-0.0000 35.2000,-0.0000 52.8000 -0.0000c 0.0000,-1.2352 0.0000,-2.4704 0.0000 -3.7056c 1.0240,-0.0000 2.0480,-0.0000 3.0720 -0.0000c 0.0000,-4.4096 0.0000,-8.8192 0.0000 -13.2287c -1.0240,-0.0000 -2.0480,-0.0000 -3.0720 -0.0000c 0.0000,-6.3105 0.0000,-12.6209 0.0000 -18.9313c 1.0240,-0.0000 2.0480,-0.0000 3.0720 -0.0000c 0.0000,-4.4096 0.0000,-8.8192 0.0000 -13.2287c -1.0240,-0.0000 -2.0480,-0.0000 -3.0720 -0.0000c 0.0000,-1.2352 0.0000,-2.4704 0.0000 -3.7057c -17.6000,-0.0000 -35.2000,-0.0000 -52.8000 -0.0000c 0.0000,1.2352 0.0000,2.4704 0.0000 3.7057c -1.0240,-0.0000 -2.0480,-0.0000 -3.0720 -0.0000ZM 277.8036,1841.2364 c 0.0000,4.4096 0.0000,8.8192 0.0000 13.2287c 1.0240,-0.0000 2.0480,-0.0000 3.0720 -0.0000c 0.0000,6.3104 0.0000,12.6209 0.0000 18.9313c -1.0240,-0.0000 -2.0480,-0.0000 -3.0720 -0.0000c 0.0000,4.4096 0.0000,8.8192 0.0000 13.2287c 1.0240,-0.0000 2.0480,-0.0000 3.0720 -0.0000c 0.0000,1.2352 0.0000,2.4704 0.0000 3.7056c 17.6000,-0.0000 35.1999,-0.0000 52.7999 -0.0000c 0.0000,-1.2352 0.0000,-2.4704 0.0000 -3.7056c 1.0240,-0.0000 2.0480,-0.0000 3.0720 -0.0000c 0.0000,-4.4096 0.0000,-8.8192 0.0000 -13.2287c -1.0240,-0.0000 -2.0480,-0.0000 -3.0720 -0.0000c 0.0000,-6.3104 0.0000,-12.6209 0.0000 -18.9313c 1.0240,-0.0000 2.0480,-0.0000 3.0720 -0.0000c 0.0000,-4.4096 0.0000,-8.8192 0.0000 -13.2287c -1.0240,-0.0000 -2.0480,-0.0000 -3.0720 -0.0000c 0.0000,-1.2352 0.0000,-2.4704 0.0000 -3.7056c -17.6000,-0.0000 -35.1999,-0.0000 -52.7999 -0.0000c 0.0000,1.2352 0.0000,2.4704 0.0000 3.7056c -1.0240,-0.0000 -2.0480,-0.0000 -3.0720 -0.0000ZM 277.8036,1913.0475 c 0.0000,4.4096 0.0000,8.8192 0.0000 13.2287c 1.0240,-0.0000 2.0480,-0.0000 3.0720 -0.0000c 0.0000,6.3104 0.0000,12.6208 0.0000 18.9313c -1.0240,-0.0000 -2.0480,-0.0000 -3.0720 -0.0000c 0.0000,4.4096 0.0000,8.8192 0.0000 13.2287c 1.0240,-0.0000 2.0480,-0.0000 3.0720 -0.0000c 0.0000,1.2352 0.0000,2.4704 0.0000 3.7056c 17.6000,-0.0000 35.1999,-0.0000 52.7999 -0.0000c 0.0000,-1.2352 0.0000,-2.4704 0.0000 -3.7056c 1.0240,-0.0000 2.0480,-0.0000 3.0720 -0.0000c 0.0000,-4.4096 0.0000,-8.8192 0.0000 -13.2287c -1.0240,-0.0000 -2.0480,-0.0000 -3.0720 -0.0000c 0.0000,-6.3105 0.0000,-12.6209 0.0000 -18.9313c 1.0240,-0.0000 2.0480,-0.0000 3.0720 -0.0000c 0.0000,-4.4096 0.0000,-8.8192 0.0000 -13.2287c -1.0240,-0.0000 -2.0480,-0.0000 -3.0720 -0.0000c 0.0000,-1.2352 0.0000,-2.4704 0.0000 -3.7057c -17.6000,-0.0000 -35.1999,-0.0000 -52.7999 -0.0000c 0.0000,1.2352 0.0000,2.4704 0.0000 3.7057c -1.0240,-0.0000 -2.0480,-0.0000 -3.0720 -0.0000ZM 277.8036,1984.8585 c 0.0000,4.4096 0.0000,8.8192 0.0000 13.2287c 1.0240,-0.0000 2.0480,-0.0000 3.0720 -0.0000c 0.0000,6.3105 0.0000,12.6209 0.0000 18.9313c -1.0240,-0.0000 -2.0480,-0.0000 -3.0720 -0.0000c 0.0000,4.4096 0.0000,8.8192 0.0000 13.2287c 1.0240,-0.0000 2.0480,-0.0000 3.0720 -0.0000c 0.0000,1.2352 0.0000,2.4704 0.0000 3.7057c 17.6000,-0.0000 35.1999,-0.0000 52.7999 -0.0000c 0.0000,-1.2352 0.0000,-2.4704 0.0000 -3.7057c 1.0240,-0.0000 2.0480,-0.0000 3.0720 -0.0000c 0.0000,-4.4096 0.0000,-8.8192 0.0000 -13.2287c -1.0240,-0.0000 -2.0480,-0.0000 -3.0720 -0.0000c 0.0000,-6.3104 0.0000,-12.6208 0.0000 -18.9313c 1.0240,-0.0000 2.0480,-0.0000 3.0720 -0.0000c 0.0000,-4.4096 0.0000,-8.8192 0.0000 -13.2287c -1.0240,-0.0000 -2.0480,-0.0000 -3.0720 -0.0000c 0.0000,-1.2352 0.0000,-2.4704 0.0000 -3.7056c -17.6000,-0.0000 -35.1999,-0.0000 -52.7999 -0.0000c 0.0000,1.2352 0.0000,2.4704 0.0000 3.7056c -1.0240,-0.0000 -2.0480,-0.0000 -3.0720 -0.0000ZM 277.8036,2056.6695 c 0.0000,4.4096 0.0000,8.8192 0.0000 13.2287c 1.0240,-0.0000 2.0480,-0.0000 3.0720 -0.0000c 0.0000,6.3104 0.0000,12.6208 0.0000 18.9313c -1.0240,-0.0000 -2.0480,-0.0000 -3.0720 -0.0000c 0.0000,4.4096 0.0000,8.8192 0.0000 13.2287c 1.0240,-0.0000 2.0480,-0.0000 3.0720 -0.0000c 0.0000,1.2352 0.0000,2.4704 0.0000 3.7056c 17.6000,-0.0000 35.1999,-0.0000 52.7999 -0.0000c 0.0000,-1.2352 0.0000,-2.4704 0.0000 -3.7056c 1.0240,-0.0000 2.0480,-0.0000 3.0720 -0.0000c 0.0000,-4.4096 0.0000,-8.8192 0.0000 -13.2287c -1.0240,-0.0000 -2.0480,-0.0000 -3.0720 -0.0000c 0.0000,-6.3105 0.0000,-12.6209 0.0000 -18.9313c 1.0240,-0.0000 2.0480,-0.0000 3.0720 -0.0000c 0.0000,-4.4096 0.0000,-8.8192 0.0000 -13.2287c -1.0240,-0.0000 -2.0480,-0.0000 -3.0720 -0.0000c 0.0000,-1.2352 0.0000,-2.4704 0.0000 -3.7057c -17.6000,-0.0000 -35.1999,-0.0000 -52.7999 -0.0000c 0.0000,1.2352 0.0000,2.4704 0.0000 3.7057c -1.0240,-0.0000 -2.0480,-0.0000 -3.0720 -0.0000ZM 349.6146,1860.1341 c 0.0000,4.4096 0.0000,8.8192 0.0000 13.2287c 1.0240,-0.0000 2.0480,-0.0000 3.0720 -0.0000c 0.0000,6.3104 0.0000,12.6209 0.0000 18.9313c -1.0240,-0.0000 -2.0480,-0.0000 -3.0720 -0.0000c 0.0000,4.4096 0.0000,8.8192 0.0000 13.2287c 1.0240,-0.0000 2.0480,-0.0000 3.0720 -0.0000c 0.0000,1.2352 0.0000,2.4704 0.0000 3.7056c 17.6000,-0.0000 35.2000,-0.0000 52.8000 -0.0000c 0.0000,-1.2352 0.0000,-2.4704 0.0000 -3.7056c 1.0240,-0.0000 2.0480,-0.0000 3.0720 -0.0000c 0.0000,-4.4096 0.0000,-8.8192 0.0000 -13.2287c -1.0240,-0.0000 -2.0480,-0.0000 -3.0720 -0.0000c 0.0000,-6.3104 0.0000,-12.6209 0.0000 -18.9313c 1.0240,-0.0000 2.0480,-0.0000 3.0720 -0.0000c 0.0000,-4.4096 0.0000,-8.8192 0.0000 -13.2287c -1.0240,-0.0000 -2.0480,-0.0000 -3.0720 -0.0000c 0.0000,-1.2352 0.0000,-2.4704 0.0000 -3.7057c -17.6000,-0.0000 -35.2000,-0.0000 -52.8000 -0.0000c 0.0000,1.2352 0.0000,2.4704 0.0000 3.7057c -1.0240,-0.0000 -2.0480,-0.0000 -3.0720 0.0000ZM 349.6146,1931.9451 c 0.0000,4.4096 0.0000,8.8192 0.0000 13.2287c 1.0240,-0.0000 2.0480,-0.0000 3.0720 -0.0000c 0.0000,6.3105 0.0000,12.6209 0.0000 18.9313c -1.0240,-0.0000 -2.0480,-0.0000 -3.0720 -0.0000c 0.0000,4.4096 0.0000,8.8192 0.0000 13.2287c 1.0240,-0.0000 2.0480,-0.0000 3.0720 -0.0000c 0.0000,1.2352 0.0000,2.4704 0.0000 3.7057c 17.6000,-0.0000 35.2000,-0.0000 52.8000 -0.0000c 0.0000,-1.2352 0.0000,-2.4704 0.0000 -3.7057c 1.0240,-0.0000 2.0480,-0.0000 3.0720 -0.0000c 0.0000,-4.4096 0.0000,-8.8192 0.0000 -13.2287c -1.0240,-0.0000 -2.0480,-0.0000 -3.0720 -0.0000c 0.0000,-6.3104 0.0000,-12.6208 0.0000 -18.9313c 1.0240,-0.0000 2.0480,-0.0000 3.0720 -0.0000c 0.0000,-4.4096 0.0000,-8.8192 0.0000 -13.2287c -1.0240,-0.0000 -2.0480,-0.0000 -3.0720 -0.0000c 0.0000,-1.2352 0.0000,-2.4704 0.0000 -3.7056c -17.6000,-0.0000 -35.2000,-0.0000 -52.8000 -0.0000c 0.0000,1.2352 0.0000,2.4704 0.0000 3.7056c -1.0240,-0.0000 -2.0480,-0.0000 -3.0720 0.0000ZM 349.6146,2003.7561 c 0.0000,4.4096 0.0000,8.8192 0.0000 13.2287c 1.0240,-0.0000 2.0480,-0.0000 3.0720 -0.0000c 0.0000,6.3104 0.0000,12.6209 0.0000 18.9313c -1.0240,-0.0000 -2.0480,-0.0000 -3.0720 -0.0000c 0.0000,4.4096 0.0000,8.8192 0.0000 13.2287c 1.0240,-0.0000 2.0480,-0.0000 3.0720 -0.0000c 0.0000,1.2352 0.0000,2.4704 0.0000 3.7056c 17.6000,-0.0000 35.2000,-0.0000 52.8000 -0.0000c 0.0000,-1.2352 0.0000,-2.4704 0.0000 -3.7056c 1.0240,-0.0000 2.0480,-0.0000 3.0720 -0.0000c 0.0000,-4.4096 0.0000,-8.8192 0.0000 -13.2287c -1.0240,-0.0000 -2.0480,-0.0000 -3.0720 -0.0000c 0.0000,-6.3104 0.0000,-12.6209 0.0000 -18.9313c 1.0240,-0.0000 2.0480,-0.0000 3.0720 -0.0000c 0.0000,-4.4096 0.0000,-8.8192 0.0000 -13.2287c -1.0240,-0.0000 -2.0480,-0.0000 -3.0720 -0.0000c 0.0000,-1.2352 0.0000,-2.4704 0.0000 -3.7057c -17.6000,-0.0000 -35.2000,-0.0000 -52.8000 -0.0000c 0.0000,1.2352 0.0000,2.4704 0.0000 3.7057c -1.0240,-0.0000 -2.0480,-0.0000 -3.0720 -0.0000ZM 349.6146,2075.5671 c 0.0000,4.4096 0.0000,8.8192 0.0000 13.2287c 1.0240,-0.0000 2.0480,-0.0000 3.0720 -0.0000c 0.0000,6.3105 0.0000,12.6209 0.0000 18.9313c -1.0240,-0.0000 -2.0480,-0.0000 -3.0720 -0.0000c 0.0000,4.4095 0.0000,8.8191 0.0000 13.2287c 1.0240,-0.0000 2.0480,-0.0000 3.0720 -0.0000c 0.0000,1.2352 0.0000,2.4704 0.0000 3.7057c 17.6000,-0.0000 35.2000,-0.0000 52.8000 -0.0000c 0.0000,-1.2352 0.0000,-2.4704 0.0000 -3.7057c 1.0240,-0.0000 2.0480,-0.0000 3.0720 -0.0000c 0.0000,-4.4096 0.0000,-8.8192 0.0000 -13.2287c -1.0240,-0.0000 -2.0480,-0.0000 -3.0720 -0.0000c 0.0000,-6.3105 0.0000,-12.6209 0.0000 -18.9313c 1.0240,-0.0000 2.0480,-0.0000 3.0720 -0.0000c 0.0000,-4.4096 0.0000,-8.8192 0.0000 -13.2287c -1.0240,-0.0000 -2.0480,-0.0000 -3.0720 -0.0000c 0.0000,-1.2352 0.0000,-2.4704 0.0000 -3.7056c -17.6000,-0.0000 -35.2000,-0.0000 -52.8000 -0.0000c 0.0000,1.2352 0.0000,2.4704 0.0000 3.7056c -1.0240,-0.0000 -2.0480,-0.0000 -3.0720 -0.0000ZM 421.4256,1871.4727 c 0.0000,4.4096 0.0000,8.8192 0.0000 13.2287c 1.0240,-0.0000 2.0480,-0.0000 3.0720 -0.0000c 0.0000,6.3104 0.0000,12.6209 0.0000 18.9313c -1.0240,-0.0000 -2.0480,-0.0000 -3.0720 -0.0000c 0.0000,4.4096 0.0000,8.8192 0.0000 13.2287c 1.0240,-0.0000 2.0480,-0.0000 3.0720 -0.0000c 0.0000,1.2352 0.0000,2.4704 0.0000 3.7056c 17.6000,-0.0000 35.1999,-0.0000 52.7999 -0.0000c 0.0000,-1.2352 0.0000,-2.4704 0.0000 -3.7056c 1.0240,-0.0000 2.0480,-0.0000 3.0720 -0.0000c 0.0000,-4.4096 0.0000,-8.8192 0.0000 -13.2287c -1.0240,-0.0000 -2.0480,-0.0000 -3.0720 -0.0000c 0.0000,-6.3104 0.0000,-12.6209 0.0000 -18.9313c 1.0240,-0.0000 2.0480,-0.0000 3.0720 -0.0000c 0.0000,-4.4096 0.0000,-8.8192 0.0000 -13.2287c -1.0240,-0.0000 -2.0480,-0.0000 -3.0720 -0.0000c 0.0000,-1.2352 0.0000,-2.4704 0.0000 -3.7057c -17.6000,-0.0000 -35.1999,-0.0000 -52.7999 -0.0000c 0.0000,1.2352 0.0000,2.4704 0.0000 3.7057c -1.0240,-0.0000 -2.0480,-0.0000 -3.0720 -0.0000ZM 421.4256,1943.2837 c 0.0000,4.4096 0.0000,8.8192 0.0000 13.2287c 1.0240,-0.0000 2.0480,-0.0000 3.0720 -0.0000c 0.0000,6.3105 0.0000,12.6209 0.0000 18.9313c -1.0240,-0.0000 -2.0480,-0.0000 -3.0720 -0.0000c 0.0000,4.4096 0.0000,8.8192 0.0000 13.2287c 1.0240,-0.0000 2.0480,-0.0000 3.0720 -0.0000c 0.0000,1.2352 0.0000,2.4704 0.0000 3.7057c 17.6000,-0.0000 35.1999,-0.0000 52.7999 -0.0000c 0.0000,-1.2352 0.0000,-2.4704 0.0000 -3.7057c 1.0240,-0.0000 2.0480,-0.0000 3.0720 -0.0000c 0.0000,-4.4096 0.0000,-8.8192 0.0000 -13.2287c -1.0240,-0.0000 -2.0480,-0.0000 -3.0720 -0.0000c 0.0000,-6.3104 0.0000,-12.6208 0.0000 -18.9313c 1.0240,-0.0000 2.0480,-0.0000 3.0720 -0.0000c 0.0000,-4.4096 0.0000,-8.8192 0.0000 -13.2287c -1.0240,-0.0000 -2.0480,-0.0000 -3.0720 -0.0000c 0.0000,-1.2352 0.0000,-2.4704 0.0000 -3.7056c -17.6000,-0.0000 -35.1999,-0.0000 -52.7999 -0.0000c 0.0000,1.2352 0.0000,2.4704 0.0000 3.7056c -1.0240,-0.0000 -2.0480,-0.0000 -3.0720 -0.0000ZM 421.4256,2015.0947 c 0.0000,4.4096 0.0000,8.8192 0.0000 13.2287c 1.0240,-0.0000 2.0480,-0.0000 3.0720 -0.0000c 0.0000,6.3104 0.0000,12.6209 0.0000 18.9313c -1.0240,-0.0000 -2.0480,-0.0000 -3.0720 -0.0000c 0.0000,4.4096 0.0000,8.8192 0.0000 13.2287c 1.0240,-0.0000 2.0480,-0.0000 3.0720 -0.0000c 0.0000,1.2352 0.0000,2.4704 0.0000 3.7056c 17.6000,-0.0000 35.1999,-0.0000 52.7999 -0.0000c 0.0000,-1.2352 0.0000,-2.4704 0.0000 -3.7056c 1.0240,-0.0000 2.0480,-0.0000 3.0720 -0.0000c 0.0000,-4.4096 0.0000,-8.8192 0.0000 -13.2287c -1.0240,-0.0000 -2.0480,-0.0000 -3.0720 -0.0000c 0.0000,-6.3104 0.0000,-12.6209 0.0000 -18.9313c 1.0240,-0.0000 2.0480,-0.0000 3.0720 -0.0000c 0.0000,-4.4096 0.0000,-8.8192 0.0000 -13.2287c -1.0240,-0.0000 -2.0480,-0.0000 -3.0720 -0.0000c 0.0000,-1.2352 0.0000,-2.4704 0.0000 -3.7057c -17.6000,-0.0000 -35.1999,-0.0000 -52.7999 -0.0000c 0.0000,1.2352 0.0000,2.4704 0.0000 3.7057c -1.0240,-0.0000 -2.0480,-0.0000 -3.0720 -0.0000ZM 421.4256,2086.9058 c 0.0000,4.4096 0.0000,8.8191 0.0000 13.2287c 1.0240,-0.0000 2.0480,-0.0000 3.0720 -0.0000c 0.0000,6.3105 0.0000,12.6209 0.0000 18.9313c -1.0240,-0.0000 -2.0480,-0.0000 -3.0720 -0.0000c 0.0000,4.4095 0.0000,8.8191 0.0000 13.2287c 1.0240,-0.0000 2.0480,-0.0000 3.0720 -0.0000c 0.0000,1.2352 0.0000,2.4704 0.0000 3.7057c 17.6000,-0.0000 35.1999,-0.0000 52.7999 -0.0000c 0.0000,-1.2352 0.0000,-2.4704 0.0000 -3.7057c 1.0240,-0.0000 2.0480,-0.0000 3.0720 -0.0000c 0.0000,-4.4096 0.0000,-8.8192 0.0000 -13.2287c -1.0240,-0.0000 -2.0480,-0.0000 -3.0720 -0.0000c 0.0000,-6.3105 0.0000,-12.6209 0.0000 -18.9313c 1.0240,-0.0000 2.0480,-0.0000 3.0720 -0.0000c 0.0000,-4.4096 0.0000,-8.8191 0.0000 -13.2287c -1.0240,-0.0000 -2.0480,-0.0000 -3.0720 -0.0000c 0.0000,-1.2352 0.0000,-2.4704 0.0000 -3.7057c -17.6000,-0.0000 -35.1999,-0.0000 -52.7999 -0.0000c 0.0000,1.2352 0.0000,2.4704 0.0000 3.7057c -1.0240,-0.0000 -2.0480,-0.0000 -3.0720 -0.0000ZM 493.2367,1875.2522 c 0.0000,4.4096 0.0000,8.8192 0.0000 13.2287c 1.0240,-0.0000 2.0480,-0.0000 3.0720 -0.0000c 0.0000,6.3104 0.0000,12.6209 0.0000 18.9313c -1.0240,-0.0000 -2.0480,-0.0000 -3.0720 -0.0000c 0.0000,4.4096 0.0000,8.8192 0.0000 13.2287c 1.0240,-0.0000 2.0480,-0.0000 3.0720 -0.0000c 0.0000,1.2352 0.0000,2.4704 0.0000 3.7057c 17.6000,-0.0000 35.2000,-0.0000 52.8000 -0.0000c 0.0000,-1.2352 0.0000,-2.4704 0.0000 -3.7057c 1.0240,-0.0000 2.0480,-0.0000 3.0720 -0.0000c 0.0000,-4.4096 0.0000,-8.8192 0.0000 -13.2287c -1.0240,-0.0000 -2.0480,-0.0000 -3.0720 -0.0000c 0.0000,-6.3104 0.0000,-12.6209 0.0000 -18.9313c 1.0240,-0.0000 2.0480,-0.0000 3.0720 -0.0000c 0.0000,-4.4096 0.0000,-8.8192 0.0000 -13.2287c -1.0240,-0.0000 -2.0480,-0.0000 -3.0720 -0.0000c 0.0000,-1.2352 0.0000,-2.4704 0.0000 -3.7056c -17.6000,-0.0000 -35.2000,-0.0000 -52.8000 -0.0000c 0.0000,1.2352 0.0000,2.4704 0.0000 3.7056c -1.0240,-0.0000 -2.0480,-0.0000 -3.0720 -0.0000ZM 493.2367,1947.0632 c 0.0000,4.4096 0.0000,8.8192 0.0000 13.2287c 1.0240,-0.0000 2.0480,-0.0000 3.0720 -0.0000c 0.0000,6.3104 0.0000,12.6208 0.0000 18.9313c -1.0240,-0.0000 -2.0480,-0.0000 -3.0720 -0.0000c 0.0000,4.4096 0.0000,8.8192 0.0000 13.2287c 1.0240,-0.0000 2.0480,-0.0000 3.0720 -0.0000c 0.0000,1.2352 0.0000,2.4704 0.0000 3.7056c 17.6000,-0.0000 35.2000,-0.0000 52.8000 -0.0000c 0.0000,-1.2352 0.0000,-2.4704 0.0000 -3.7056c 1.0240,-0.0000 2.0480,-0.0000 3.0720 -0.0000c 0.0000,-4.4096 0.0000,-8.8192 0.0000 -13.2287c -1.0240,-0.0000 -2.0480,-0.0000 -3.0720 -0.0000c 0.0000,-6.3105 0.0000,-12.6209 0.0000 -18.9313c 1.0240,-0.0000 2.0480,-0.0000 3.0720 -0.0000c 0.0000,-4.4096 0.0000,-8.8192 0.0000 -13.2287c -1.0240,-0.0000 -2.0480,-0.0000 -3.0720 -0.0000c 0.0000,-1.2352 0.0000,-2.4704 0.0000 -3.7057c -17.6000,-0.0000 -35.2000,-0.0000 -52.8000 -0.0000c 0.0000,1.2352 0.0000,2.4704 0.0000 3.7057c -1.0240,-0.0000 -2.0480,-0.0000 -3.0720 -0.0000ZM 493.2367,2018.8742 c 0.0000,4.4096 0.0000,8.8192 0.0000 13.2287c 1.0240,-0.0000 2.0480,-0.0000 3.0720 -0.0000c 0.0000,6.3105 0.0000,12.6209 0.0000 18.9313c -1.0240,-0.0000 -2.0480,-0.0000 -3.0720 -0.0000c 0.0000,4.4096 0.0000,8.8192 0.0000 13.2287c 1.0240,-0.0000 2.0480,-0.0000 3.0720 -0.0000c 0.0000,1.2352 0.0000,2.4704 0.0000 3.7057c 17.6000,-0.0000 35.2000,-0.0000 52.8000 -0.0000c 0.0000,-1.2352 0.0000,-2.4704 0.0000 -3.7057c 1.0240,-0.0000 2.0480,-0.0000 3.0720 -0.0000c 0.0000,-4.4096 0.0000,-8.8192 0.0000 -13.2287c -1.0240,-0.0000 -2.0480,-0.0000 -3.0720 -0.0000c 0.0000,-6.3104 0.0000,-12.6208 0.0000 -18.9313c 1.0240,-0.0000 2.0480,-0.0000 3.0720 -0.0000c 0.0000,-4.4096 0.0000,-8.8192 0.0000 -13.2287c -1.0240,-0.0000 -2.0480,-0.0000 -3.0720 -0.0000c 0.0000,-1.2352 0.0000,-2.4704 0.0000 -3.7056c -17.6000,-0.0000 -35.2000,-0.0000 -52.8000 -0.0000c 0.0000,1.2352 0.0000,2.4704 0.0000 3.7056c -1.0240,-0.0000 -2.0480,-0.0000 -3.0720 -0.0000ZM 493.2367,2090.6853 c 0.0000,4.4096 0.0000,8.8192 0.0000 13.2287c 1.0240,-0.0000 2.0480,-0.0000 3.0720 -0.0000c 0.0000,6.3104 0.0000,12.6209 0.0000 18.9313c -1.0240,-0.0000 -2.0480,-0.0000 -3.0720 -0.0000c 0.0000,4.4096 0.0000,8.8192 0.0000 13.2287c 1.0240,-0.0000 2.0480,-0.0000 3.0720 -0.0000c 0.0000,1.2352 0.0000,2.4704 0.0000 3.7056c 17.6000,-0.0000 35.2000,-0.0000 52.8000 -0.0000c 0.0000,-1.2352 0.0000,-2.4704 0.0000 -3.7056c 1.0240,-0.0000 2.0480,-0.0000 3.0720 -0.0000c 0.0000,-4.4096 0.0000,-8.8192 0.0000 -13.2287c -1.0240,-0.0000 -2.0480,-0.0000 -3.0720 -0.0000c 0.0000,-6.3104 0.0000,-12.6209 0.0000 -18.9313c 1.0240,-0.0000 2.0480,-0.0000 3.0720 -0.0000c 0.0000,-4.4096 0.0000,-8.8192 0.0000 -13.2287c -1.0240,-0.0000 -2.0480,-0.0000 -3.0720 -0.0000c 0.0000,-1.2352 0.0000,-2.4704 0.0000 -3.7057c -17.6000,-0.0000 -35.2000,-0.0000 -52.8000 -0.0000c 0.0000,1.2352 0.0000,2.4704 0.0000 3.7057c -1.0240,-0.0000 -2.0480,-0.0000 -3.0720 -0.0000ZM 571.7858,1813.5938 c 0.0000,3.1311 2.5382,5.6693 5.6693 5.6693c 3.1310,-0.0000 5.6693,-2.5382 5.6693 -5.6693c 0.0000,-3.1311 -2.5382,-5.6693 -5.6693 -5.6693c -3.1311,-0.0000 -5.6693,2.5382 -5.6693 5.6693ZM 571.7858,2153.6379 c 0.0000,3.1311 2.5382,5.6693 5.6693 5.6693c 3.1310,-0.0000 5.6693,-2.5382 5.6693 -5.6693c 0.0000,-3.1311 -2.5382,-5.6693 -5.6693 -5.6693c -3.1311,-0.0000 -5.6693,2.5382 -5.6693 5.6693Z"/></g><g stroke-linejoin="miter" stroke-opacity="1.0" fill-opacity="0.5" stroke="rgb(0,0,0)" stroke-width="0.7559055118110237" fill="rgb(0,0,255)" stroke-linecap="butt" stroke-miterlimit="10.0"><path d="M 3.9685,1809.8142 c 0.0000,-6.7840 5.4995,-12.2835 12.2835 -12.2835c 188.3275,-0.0000 376.6551,-0.0000 564.9827 -0.0000c 6.7840,-0.0000 12.2835,5.4995 12.2835 12.2835c 0.0000,115.8677 0.0000,231.7354 0.0000 347.6032c 0.0000,6.2311 -4.6656,11.4751 -10.8544 12.2001c -163.1307,19.1076 -326.2614,38.2153 -489.3921 57.3229c -0.4743,0.0555 -0.9515,0.0834 -1.4290 0.0834c -25.1969,-0.0000 -50.3937,-0.0000 -75.5906 -0.0000c -6.7840,-0.0000 -12.2835,-5.4995 -12.2835 -12.2835c 0.0000,-134.9753 0.0000,-269.9506 -0.0000 -404.9260ZM 50.7969,2047.7670 c 0.0000,23.9370 0.0000,47.8740 0.0000 71.8110c 0.0000,0.9071 0.0000,1.8142 0.0000 2.7213c 0.0000,23.9370 0.0000,47.8740 0.0000 71.8110c 0.0000,2.0874 1.6921,3.7795 3.7795 3.7795c 24.8441,-0.0000 49.6882,-0.0000 74.5323 -0.0000c 2.0874,-0.0000 3.7795,-1.6921 3.7795 -3.7795c 0.0000,-10.7087 0.0000,-21.4173 0.0000 -32.1260c 22.6772,-0.0000 45.3543,-0.0000 68.0315 -0.0000c 2.0874,-0.0000 3.7796,-1.6921 3.7796 -3.7795c 0.0000,-5.0394 0.0000,-10.0787 0.0000 -15.1181c 22.6772,-0.0000 45.3543,-0.0000 68.0315 -0.0000c 2.0874,-0.0000 3.7795,-1.6922 3.7795 -3.7796c 0.0000,-6.2992 0.0000,-12.5984 0.0000 -18.8976c 20.5102,-0.0000 41.0205,-0.0000 61.5307 -0.0000c 0.0000,5.0394 0.0000,10.0787 0.0000 15.1181c 0.0000,2.0874 1.6921,3.7795 3.7795 3.7795c 22.6772,-0.0000 45.3543,-0.0000 68.0315 -0.0000c 0.0000,2.5197 0.0000,5.0394 0.0000 7.5591c 0.0000,2.0874 1.6922,3.7795 3.7796 3.7795c 22.6772,-0.0000 45.3543,-0.0000 68.0315 -0.0000c 0.0000,2.0874 1.6921,3.7796 3.7795 3.7796c 24.8441,-0.0000 49.6882,-0.0000 74.5323 -0.0000c 2.0874,-0.0000 3.7795,-1.6922 3.7795 -3.7796c 0.0000,-23.9370 0.0000,-47.8740 0.0000 -71.8110c 0.0000,-0.9071 0.0000,-1.8142 0.0000 -2.7213c 0.0000,-23.0299 0.0000,-46.0598 0.0000 -69.0898c 0.0000,-0.9071 0.0000,-1.8142 0.0000 -2.7212c 0.0000,-23.0299 0.0000,-46.0599 0.0000 -69.0898c 0.0000,-0.9071 0.0000,-1.8142 0.0000 -2.7213c 0.0000,-23.9370 0.0000,-47.8740 0.0000 -71.8110c 0.0000,-2.0874 -1.6921,-3.7796 -3.7795 -3.7796c -22.6772,-0.0000 -45.3543,-0.0000 -68.0315 -0.0000c 0.0000,-2.0873 -1.6922,-3.7795 -3.7795 -3.7795c -22.6772,-0.0000 -45.3544,-0.0000 -68.0315 -0.0000c 0.0000,-2.5197 0.0000,-5.0394 0.0000 -7.5591c 0.0000,-2.0873 -1.6921,-3.7795 -3.7795 -3.7795c -22.6772,-0.0000 -45.3543,-0.0000 -68.0315 -0.0000c 0.0000,-5.0394 0.0000,-10.0787 0.0000 -15.1181c 0.0000,-2.0874 -1.6922,-3.7796 -3.7796 -3.7796c -24.8440,-0.0000 -49.6882,-0.0000 -74.5322 -0.0000c -2.0874,-0.0000 -3.7796,1.6922 -3.7796 3.7796c 0.0000,6.2992 0.0000,12.5984 0.0000 18.8976c -22.6772,-0.0000 -45.3543,-0.0000 -68.0315 -0.0000c -2.0874,-0.0000 -3.7795,1.6922 -3.7795 3.7796c 0.0000,5.0394 0.0000,10.0787 0.0000 15.1181c -22.6772,-0.0000 -45.3543,-0.0000 -68.0315 -0.0000c -2.0873,-0.0000 -3.7795,1.6922 -3.7795 3.7795c 0.0000,23.9370 0.0000,47.8740 0.0000 71.8110c 0.0000,0.9071 0.0000,1.8142 0.0000 2.7212c 0.0000,23.0299 0.0000,46.0599 0.0000 69.0898c 0.0000,0.9071 0.0000,1.8142 0.0000 2.7212c 0.0000,9.8015 0.0000,19.6031 0.0000 29.4047c -22.6772,-0.0000 -45.3543,-0.0000 -68.0315 -0.0000c -2.0874,-0.0000 -3.7795,1.6921 -3.7795 3.7795ZM 86.1732,1809.8142 c 0.0000,3.1311 2.5382,5.6693 5.6693 5.6693c 3.1311,-0.0000 5.6693,-2.5382 5.6693 -5.6693c 0.0000,-3.1310 -2.5382,-5.6693 -5.6693 -5.6693c -3.1311,-0.0000 -5.6693,2.5382 -5.6693 5.6693ZM 86.1732,2214.7403 c 0.0000,3.1311 2.5382,5.6693 5.6693 5.6693c 3.1311,-0.0000 5.6693,-2.5382 5.6693 -5.6693c 0.0000,-3.1311 -2.5382,-5.6693 -5.6693 -5.6693c -3.1311,-0.0000 -5.6693,2.5382 -5.6693 5.6693ZM 571.7858,1813.5938 c 0.0000,3.1311 2.5382,5.6693 5.6693 5.6693c 3.1310,-0.0000 5.6693,-2.5382 5.6693 -5.6693c 0.0000,-3.1311 -2.5382,-5.6693 -5.6693 -5.6693c -3.1311,-0.0000 -5.6693,2.5382 -5.6693 5.6693ZM 571.7858,2153.6379 c 0.0000,3.1311 2.5382,5.6693 5.6693 5.6693c 3.1310,-0.0000 5.6693,-2.5382 5.6693 -5.6693c 0.0000,-3.1311 -2.5382,-5.6693 -5.6693 -5.6693c -3.1311,-0.0000 -5.6693,2.5382 -5.6693 5.6693Z"/></g><defs><linearGradient x2="38.9962" y1="0.0000" gradientUnits="userSpaceOnUse" spreadMethod="pad" gradientTransform="matrix(3.7795,-0.0000,0.0000,-3.7795,16.2520,1672.5481)" id="gradient8" y2="-60.0000" x1="-38.9962"><stop stop-opacity="1.0000" offset="0.0000" stop-color="rgb(128,128,128)"/><stop stop-opacity="1.0000" offset="0.5000" stop-color="rgb(255,255,255)"/><stop stop-opacity="1.0000" offset="1.0000" stop-color="rgb(128,128,128)"/></linearGradient></defs><g stroke-linejoin="miter" stroke-opacity="1.0" fill-opacity="1" stroke="rgb(0,0,0)" stroke-width="0.7559055118110237" fill="url(#gradient8)" stroke-linecap="butt" stroke-miterlimit="10.0"><path d="M 3.9685,1361.4237 c 0.0000,-6.7840 5.4995,-12.2835 12.2835 -12.2835c 188.3275,-0.0000 376.6551,-0.0000 564.9827 -0.0000c 6.7840,-0.0000 12.2835,5.4995 12.2835 12.2835c 0.0000,115.8677 0.0000,231.7354 0.0000 347.6032c 0.0000,6.2311 -4.6656,11.4751 -10.8544 12.2001c -163.1307,19.1076 -326.2614,38.2153 -489.3921 57.3229c -0.4743,0.0555 -0.9515,0.0834 -1.4290 0.0834c -25.1969,-0.0000 -50.3937,-0.0000 -75.5906 -0.0000c -6.7840,-0.0000 -12.2835,-5.4995 -12.2835 -12.2835c 0.0000,-134.9753 0.0000,-269.9506 -0.0000 -404.9260ZM 86.1732,1361.4237 c 0.0000,3.1311 2.5382,5.6693 5.6693 5.6693c 3.1311,-0.0000 5.6693,-2.5382 5.6693 -5.6693c 0.0000,-3.1310 -2.5382,-5.6693 -5.6693 -5.6693c -3.1311,-0.0000 -5.6693,2.5382 -5.6693 5.6693ZM 86.1732,1766.3497 c 0.0000,3.1311 2.5382,5.6693 5.6693 5.6693c 3.1311,-0.0000 5.6693,-2.5382 5.6693 -5.6693c 0.0000,-3.1311 -2.5382,-5.6693 -5.6693 -5.6693c -3.1311,-0.0000 -5.6693,2.5382 -5.6693 5.6693ZM 571.7858,1365.2032 c 0.0000,3.1311 2.5382,5.6693 5.6693 5.6693c 3.1310,-0.0000 5.6693,-2.5382 5.6693 -5.6693c 0.0000,-3.1311 -2.5382,-5.6693 -5.6693 -5.6693c -3.1311,-0.0000 -5.6693,2.5382 -5.6693 5.6693ZM 571.7858,1705.2473 c 0.0000,3.1311 2.5382,5.6693 5.6693 5.6693c 3.1310,-0.0000 5.6693,-2.5382 5.6693 -5.6693c 0.0000,-3.1311 -2.5382,-5.6693 -5.6693 -5.6693c -3.1311,-0.0000 -5.6693,2.5382 -5.6693 5.6693Z"/></g><g stroke-linejoin="miter" stroke-opacity="1.0" fill-opacity="0.5" stroke="rgb(0,0,0)" stroke-width="0.7559055118110237" fill="rgb(255,255,0)" stroke-linecap="butt" stroke-miterlimit="10.0"><path d="M 3.9685,913.0331 c 0.0000,-6.7839 5.4995,-12.2834 12.2835 -12.2834c 21.5857,-0.0000 43.1715,-0.0000 64.7573 -0.0000c 7.2221,-0.0000 14.4444,-0.0000 21.6665 -0.0000c 157.1890,-0.0000 314.3780,-0.0000 471.5669 -0.0000c 2.1416,-0.0000 4.2832,-0.0000 6.4248 -0.0000c 0.1891,-0.0000 0.3781,-0.0000 0.5671 -0.0000c 6.7840,-0.0000 12.2835,5.4995 12.2835 12.2834c 0.0000,0.1890 0.0000,0.3779 0.0000 0.5668c 0.0000,2.1418 0.0000,4.2836 0.0000 6.4254c 0.0000,111.2062 0.0000,222.4125 0.0000 333.6187c 0.0000,2.1418 0.0000,4.2836 0.0000 6.4254c 0.0000,0.1889 0.0000,0.3779 0.0000 0.5668c 0.0000,6.2311 -4.6657,11.4751 -10.8545 12.2001c -159.5442,18.6875 -319.0883,37.3751 -478.6325 56.0626c -3.5865,0.4201 -7.1731,0.8402 -10.7596 1.2603c -0.4743,0.0556 -0.9515,0.0834 -1.4290 0.0834c -3.6111,-0.0000 -7.2222,-0.0000 -10.8333 -0.0000c -21.5858,-0.0000 -43.1715,-0.0000 -64.7573 -0.0000c -6.7840,-0.0000 -12.2835,-5.4994 -12.2835 -12.2834c 0.0000,-134.9753 0.0000,-269.9507 -0.0000 -404.9260ZM 27.5907,934.4131 c 0.0000,120.7220 0.0000,241.4440 0.0000 362.1660c 0.0000,6.0676 5.0764,10.9863 11.3385 10.9863c 13.4185,-0.0000 26.8369,-0.0000 40.2554 -0.0000c 3.0038,-3.6539 7.5588,-5.9842 12.6580 -5.9842c 5.0992,-0.0000 9.6542,2.3304 12.6579 5.9842c 1.4013,-0.0000 2.8027,-0.0000 4.2040 -0.0000c 0.4408,-0.0000 0.8812,-0.0249 1.3191 -0.0746c 150.3543,-17.0642 300.7086,-34.1283 451.0629 -51.1924c 0.2281,-6.8100 4.6138,-12.5665 10.6994 -14.8119c 0.0000,-102.3578 0.0000,-204.7156 0.0000 -307.0735c 0.0000,-0.7983 -0.0878,-1.5768 -0.2547 -2.3266c -3.9828,-1.5459 -7.2108,-4.6046 -8.9786 -8.4707c -0.6822,-0.1241 -1.3859,-0.1890 -2.1052 -0.1890c -151.9823,-0.0000 -303.9646,-0.0000 -455.9469 -0.0000c -3.0038,3.6539 -7.5588,5.9843 -12.6580 5.9843c -5.0993,-0.0000 -9.6542,-2.3304 -12.6580 -5.9843c -13.4185,-0.0000 -26.8370,-0.0000 -40.2554 -0.0000c -6.2621,-0.0000 -11.3385,4.9187 -11.3385 10.9863ZM 86.1733,913.0331 c 0.0000,3.1311 2.5382,5.6693 5.6693 5.6693c 3.1311,-0.0000 5.6693,-2.5382 5.6693 -5.6693c 0.0000,-3.1311 -2.5382,-5.6693 -5.6693 -5.6693c -3.1310,-0.0000 -5.6693,2.5382 -5.6693 5.6693ZM 86.1733,1317.9591 c 0.0000,3.1311 2.5382,5.6693 5.6693 5.6693c 3.1311,-0.0000 5.6693,-2.5382 5.6693 -5.6693c 0.0000,-3.1311 -2.5382,-5.6693 -5.6693 -5.6693c -3.1310,-0.0000 -5.6693,2.5382 -5.6693 5.6693ZM 571.7858,916.8127 c 0.0000,3.1311 2.5382,5.6693 5.6693 5.6693c 3.1311,-0.0000 5.6693,-2.5382 5.6693 -5.6693c 0.0000,-3.1311 -2.5382,-5.6693 -5.6693 -5.6693c -3.1311,-0.0000 -5.6693,2.5382 -5.6693 5.6693ZM 571.7858,1256.8568 c 0.0000,3.1311 2.5382,5.6693 5.6693 5.6693c 3.1311,-0.0000 5.6693,-2.5382 5.6693 -5.6693c 0.0000,-3.1311 -2.5382,-5.6693 -5.6693 -5.6693c -3.1311,-0.0000 -5.6693,2.5382 -5.6693 5.6693Z"/></g><g stroke-linejoin="miter" stroke-opacity="1.0" fill-opacity="0.5" stroke="rgb(0,0,0)" stroke-width="0.7559055118110237" fill="rgb(0,128,0)" stroke-linecap="butt" stroke-miterlimit="10.0"><path d="M 3.9685,464.6425 c 0.0000,-6.7840 5.4995,-12.2835 12.2835 -12.2835c 188.3275,-0.0000 376.6551,-0.0000 564.9827 -0.0000c 6.7840,-0.0000 12.2835,5.4995 12.2835 12.2835c 0.0000,115.8677 0.0000,231.7354 0.0000 347.6032c 0.0000,6.2311 -4.6656,11.4751 -10.8544 12.2001c -163.1307,19.1076 -326.2614,38.2153 -489.3921 57.3229c -0.4743,0.0555 -0.9515,0.0834 -1.4290 0.0834c -25.1969,-0.0000 -50.3937,-0.0000 -75.5906 -0.0000c -6.7840,-0.0000 -12.2835,-5.4995 -12.2835 -12.2835c 0.0000,-134.9753 0.0000,-269.9506 -0.0000 -404.9260ZM 62.3706,717.1671 c 0.0000,4.4096 0.0000,8.8192 0.0000 13.2287c 1.0240,-0.0000 2.0480,-0.0000 3.0720 -0.0000c 0.0000,6.3105 0.0000,12.6209 0.0000 18.9313c -1.0240,-0.0000 -2.0480,-0.0000 -3.0720 -0.0000c 0.0000,4.4096 0.0000,8.8192 0.0000 13.2287c 1.0240,-0.0000 2.0480,-0.0000 3.0720 -0.0000c 0.0000,1.2352 0.0000,2.4704 0.0000 3.7057c 17.6000,-0.0000 35.2000,-0.0000 52.8000 -0.0000c 0.0000,-1.2352 0.0000,-2.4704 0.0000 -3.7057c 1.0240,-0.0000 2.0480,-0.0000 3.0720 -0.0000c 0.0000,-4.4096 0.0000,-8.8192 0.0000 -13.2287c -1.0240,-0.0000 -2.0480,-0.0000 -3.0720 -0.0000c 0.0000,-6.3104 0.0000,-12.6208 0.0000 -18.9313c 1.0240,-0.0000 2.0480,-0.0000 3.0720 -0.0000c 0.0000,-4.4096 0.0000,-8.8192 0.0000 -13.2287c -1.0240,-0.0000 -2.0480,-0.0000 -3.0720 -0.0000c 0.0000,-1.2352 0.0000,-2.4704 0.0000 -3.7056c -17.6000,-0.0000 -35.2000,-0.0000 -52.8000 -0.0000c 0.0000,1.2352 0.0000,2.4704 0.0000 3.7056c -1.0240,-0.0000 -2.0480,-0.0000 -3.0720 -0.0000ZM 62.3706,788.9781 c 0.0000,4.4096 0.0000,8.8192 0.0000 13.2287c 1.0240,-0.0000 2.0480,-0.0000 3.0720 -0.0000c 0.0000,6.3104 0.0000,12.6208 0.0000 18.9313c -1.0240,-0.0000 -2.0480,-0.0000 -3.0720 -0.0000c 0.0000,4.4096 0.0000,8.8192 0.0000 13.2287c 1.0240,-0.0000 2.0480,-0.0000 3.0720 -0.0000c 0.0000,1.2352 0.0000,2.4704 0.0000 3.7056c 17.6000,-0.0000 35.2000,-0.0000 52.8000 -0.0000c 0.0000,-1.2352 0.0000,-2.4704 0.0000 -3.7056c 1.0240,-0.0000 2.0480,-0.0000 3.0720 -0.0000c 0.0000,-4.4096 0.0000,-8.8192 0.0000 -13.2287c -1.0240,-0.0000 -2.0480,-0.0000 -3.0720 -0.0000c 0.0000,-6.3105 0.0000,-12.6209 0.0000 -18.9313c 1.0240,-0.0000 2.0480,-0.0000 3.0720 -0.0000c 0.0000,-4.4096 0.0000,-8.8192 0.0000 -13.2287c -1.0240,-0.0000 -2.0480,-0.0000 -3.0720 -0.0000c 0.0000,-1.2352 0.0000,-2.4704 0.0000 -3.7057c -17.6000,-0.0000 -35.2000,-0.0000 -52.8000 -0.0000c 0.0000,1.2352 0.0000,2.4704 0.0000 3.7057c -1.0240,-0.0000 -2.0480,-0.0000 -3.0720 -0.0000ZM 86.1732,464.6425 c 0.0000,3.1311 2.5382,5.6693 5.6693 5.6693c 3.1311,-0.0000 5.6693,-2.5382 5.6693 -5.6693c 0.0000,-3.1310 -2.5382,-5.6693 -5.6693 -5.6693c -3.1311,-0.0000 -5.6693,2.5382 -5.6693 5.6693ZM 86.1732,869.5686 c 0.0000,3.1311 2.5382,5.6693 5.6693 5.6693c 3.1311,-0.0000 5.6693,-2.5382 5.6693 -5.6693c 0.0000,-3.1311 -2.5382,-5.6693 -5.6693 -5.6693c -3.1311,-0.0000 -5.6693,2.5382 -5.6693 5.6693ZM 134.1816,537.6395 c 0.0000,4.4096 0.0000,8.8192 0.0000 13.2287c 1.0240,-0.0000 2.0480,-0.0000 3.0720 -0.0000c 0.0000,6.3104 0.0000,12.6209 0.0000 18.9313c -1.0240,-0.0000 -2.0479,-0.0000 -3.0720 -0.0000c 0.0000,4.4096 0.0000,8.8192 0.0000 13.2287c 1.0240,-0.0000 2.0480,-0.0000 3.0720 -0.0000c 0.0000,1.2352 0.0000,2.4704 0.0000 3.7056c 17.6000,-0.0000 35.2000,-0.0000 52.8000 -0.0000c 0.0000,-1.2352 0.0000,-2.4704 0.0000 -3.7056c 1.0240,-0.0000 2.0480,-0.0000 3.0720 -0.0000c 0.0000,-4.4096 0.0000,-8.8192 0.0000 -13.2287c -1.0240,-0.0000 -2.0480,-0.0000 -3.0720 -0.0000c 0.0000,-6.3104 0.0000,-12.6209 0.0000 -18.9313c 1.0240,-0.0000 2.0480,-0.0000 3.0720 -0.0000c 0.0000,-4.4096 0.0000,-8.8192 0.0000 -13.2287c -1.0240,-0.0000 -2.0480,-0.0000 -3.0720 -0.0000c 0.0000,-1.2352 0.0000,-2.4704 0.0000 -3.7057c -17.6000,-0.0000 -35.2000,-0.0000 -52.8000 -0.0000c 0.0000,1.2352 0.0000,2.4704 0.0000 3.7057c -1.0240,-0.0000 -2.0479,-0.0000 -3.0720 -0.0000ZM 134.1816,609.4506 c 0.0000,4.4095 0.0000,8.8191 0.0000 13.2287c 1.0240,-0.0000 2.0480,-0.0000 3.0720 -0.0000c 0.0000,6.3105 0.0000,12.6209 0.0000 18.9313c -1.0240,-0.0000 -2.0479,-0.0000 -3.0720 -0.0000c 0.0000,4.4095 0.0000,8.8191 0.0000 13.2287c 1.0240,-0.0000 2.0480,-0.0000 3.0720 -0.0000c 0.0000,1.2352 0.0000,2.4704 0.0000 3.7057c 17.6000,-0.0000 35.2000,-0.0000 52.8000 -0.0000c 0.0000,-1.2352 0.0000,-2.4704 0.0000 -3.7057c 1.0240,-0.0000 2.0480,-0.0000 3.0720 -0.0000c 0.0000,-4.4096 0.0000,-8.8192 0.0000 -13.2287c -1.0240,-0.0000 -2.0480,-0.0000 -3.0720 -0.0000c 0.0000,-6.3105 0.0000,-12.6209 0.0000 -18.9313c 1.0240,-0.0000 2.0480,-0.0000 3.0720 -0.0000c 0.0000,-4.4096 0.0000,-8.8192 0.0000 -13.2287c -1.0240,-0.0000 -2.0480,-0.0000 -3.0720 -0.0000c 0.0000,-1.2352 0.0000,-2.4704 0.0000 -3.7057c -17.6000,-0.0000 -35.2000,-0.0000 -52.8000 -0.0000c 0.0000,1.2352 0.0000,2.4704 0.0000 3.7057c -1.0240,-0.0000 -2.0479,-0.0000 -3.0720 0.0000ZM 134.1816,681.2616 c 0.0000,4.4096 0.0000,8.8192 0.0000 13.2287c 1.0240,-0.0000 2.0480,-0.0000 3.0720 -0.0000c 0.0000,6.3104 0.0000,12.6209 0.0000 18.9313c -1.0240,-0.0000 -2.0479,-0.0000 -3.0720 -0.0000c 0.0000,4.4096 0.0000,8.8192 0.0000 13.2287c 1.0240,-0.0000 2.0480,-0.0000 3.0720 -0.0000c 0.0000,1.2352 0.0000,2.4704 0.0000 3.7056c 17.6000,-0.0000 35.2000,-0.0000 52.8000 -0.0000c 0.0000,-1.2352 0.0000,-2.4704 0.0000 -3.7056c 1.0240,-0.0000 2.0480,-0.0000 3.0720 -0.0000c 0.0000,-4.4096 0.0000,-8.8192 0.0000 -13.2287c -1.0240,-0.0000 -2.0480,-0.0000 -3.0720 -0.0000c 0.0000,-6.3104 0.0000,-12.6209 0.0000 -18.9313c 1.0240,-0.0000 2.0480,-0.0000 3.0720 -0.0000c 0.0000,-4.4096 0.0000,-8.8192 0.0000 -13.2287c -1.0240,-0.0000 -2.0480,-0.0000 -3.0720 -0.0000c 0.0000,-1.2352 0.0000,-2.4704 0.0000 -3.7056c -17.6000,-0.0000 -35.2000,-0.0000 -52.8000 -0.0000c 0.0000,1.2352 0.0000,2.4704 0.0000 3.7056c -1.0240,-0.0000 -2.0479,-0.0000 -3.0720 -0.0000ZM 134.1816,753.0726 c 0.0000,4.4096 0.0000,8.8192 0.0000 13.2287c 1.0240,-0.0000 2.0480,-0.0000 3.0720 -0.0000c 0.0000,6.3105 0.0000,12.6209 0.0000 18.9313c -1.0240,-0.0000 -2.0479,-0.0000 -3.0720 -0.0000c 0.0000,4.4095 0.0000,8.8191 0.0000 13.2287c 1.0240,-0.0000 2.0480,-0.0000 3.0720 -0.0000c 0.0000,1.2352 0.0000,2.4704 0.0000 3.7057c 17.6000,-0.0000 35.2000,-0.0000 52.8000 -0.0000c 0.0000,-1.2352 0.0000,-2.4704 0.0000 -3.7057c 1.0240,-0.0000 2.0480,-0.0000 3.0720 -0.0000c 0.0000,-4.4096 0.0000,-8.8192 0.0000 -13.2287c -1.0240,-0.0000 -2.0480,-0.0000 -3.0720 -0.0000c 0.0000,-6.3105 0.0000,-12.6209 0.0000 -18.9313c 1.0240,-0.0000 2.0480,-0.0000 3.0720 -0.0000c 0.0000,-4.4095 0.0000,-8.8191 0.0000 -13.2287c -1.0240,-0.0000 -2.0480,-0.0000 -3.0720 -0.0000c 0.0000,-1.2352 0.0000,-2.4704 0.0000 -3.7057c -17.6000,-0.0000 -35.2000,-0.0000 -52.8000 -0.0000c 0.0000,1.2352 0.0000,2.4704 0.0000 3.7057c -1.0240,-0.0000 -2.0479,-0.0000 -3.0720 -0.0000ZM 205.9926,518.7419 c 0.0000,4.4096 0.0000,8.8192 0.0000 13.2287c 1.0240,-0.0000 2.0480,-0.0000 3.0720 -0.0000c 0.0000,6.3104 0.0000,12.6209 0.0000 18.9313c -1.0240,-0.0000 -2.0480,-0.0000 -3.0720 -0.0000c 0.0000,4.4096 0.0000,8.8192 0.0000 13.2287c 1.0240,-0.0000 2.0480,-0.0000 3.0720 -0.0000c 0.0000,1.2352 0.0000,2.4704 0.0000 3.7057c 17.6000,-0.0000 35.2000,-0.0000 52.8000 -0.0000c 0.0000,-1.2352 0.0000,-2.4704 0.0000 -3.7057c 1.0240,-0.0000 2.0480,-0.0000 3.0720 -0.0000c 0.0000,-4.4096 0.0000,-8.8192 0.0000 -13.2287c -1.0240,-0.0000 -2.0480,-0.0000 -3.0720 -0.0000c 0.0000,-6.3104 0.0000,-12.6209 0.0000 -18.9313c 1.0240,-0.0000 2.0480,-0.0000 3.0720 -0.0000c 0.0000,-4.4096 0.0000,-8.8192 0.0000 -13.2287c -1.0240,-0.0000 -2.0480,-0.0000 -3.0720 -0.0000c 0.0000,-1.2352 0.0000,-2.4704 0.0000 -3.7056c -17.6000,-0.0000 -35.2000,-0.0000 -52.8000 -0.0000c 0.0000,1.2352 0.0000,2.4704 0.0000 3.7056c -1.0240,-0.0000 -2.0480,-0.0000 -3.0720 0.0000ZM 205.9926,590.5529 c 0.0000,4.4096 0.0000,8.8192 0.0000 13.2287c 1.0240,-0.0000 2.0480,-0.0000 3.0720 -0.0000c 0.0000,6.3104 0.0000,12.6208 0.0000 18.9313c -1.0240,-0.0000 -2.0480,-0.0000 -3.0720 -0.0000c 0.0000,4.4096 0.0000,8.8192 0.0000 13.2287c 1.0240,-0.0000 2.0480,-0.0000 3.0720 -0.0000c 0.0000,1.2352 0.0000,2.4704 0.0000 3.7056c 17.6000,-0.0000 35.2000,-0.0000 52.8000 -0.0000c 0.0000,-1.2352 0.0000,-2.4704 0.0000 -3.7056c 1.0240,-0.0000 2.0480,-0.0000 3.0720 -0.0000c 0.0000,-4.4096 0.0000,-8.8192 0.0000 -13.2287c -1.0240,-0.0000 -2.0480,-0.0000 -3.0720 -0.0000c 0.0000,-6.3105 0.0000,-12.6209 0.0000 -18.9313c 1.0240,-0.0000 2.0480,-0.0000 3.0720 -0.0000c 0.0000,-4.4096 0.0000,-8.8192 0.0000 -13.2287c -1.0240,-0.0000 -2.0480,-0.0000 -3.0720 -0.0000c 0.0000,-1.2352 0.0000,-2.4704 0.0000 -3.7057c -17.6000,-0.0000 -35.2000,-0.0000 -52.8000 -0.0000c 0.0000,1.2352 0.0000,2.4704 0.0000 3.7057c -1.0240,-0.0000 -2.0480,-0.0000 -3.0720 -0.0000ZM 205.9926,662.3639 c 0.0000,4.4096 0.0000,8.8192 0.0000 13.2287c 1.0240,-0.0000 2.0480,-0.0000 3.0720 -0.0000c 0.0000,6.3105 0.0000,12.6209 0.0000 18.9313c -1.0240,-0.0000 -2.0480,-0.0000 -3.0720 -0.0000c 0.0000,4.4096 0.0000,8.8192 0.0000 13.2287c 1.0240,-0.0000 2.0480,-0.0000 3.0720 -0.0000c 0.0000,1.2352 0.0000,2.4704 0.0000 3.7057c 17.6000,-0.0000 35.2000,-0.0000 52.8000 -0.0000c 0.0000,-1.2352 0.0000,-2.4704 0.0000 -3.7057c 1.0240,-0.0000 2.0480,-0.0000 3.0720 -0.0000c 0.0000,-4.4096 0.0000,-8.8192 0.0000 -13.2287c -1.0240,-0.0000 -2.0480,-0.0000 -3.0720 -0.0000c 0.0000,-6.3104 0.0000,-12.6208 0.0000 -18.9313c 1.0240,-0.0000 2.0480,-0.0000 3.0720 -0.0000c 0.0000,-4.4096 0.0000,-8.8192 0.0000 -13.2287c -1.0240,-0.0000 -2.0480,-0.0000 -3.0720 -0.0000c 0.0000,-1.2352 0.0000,-2.4704 0.0000 -3.7056c -17.6000,-0.0000 -35.2000,-0.0000 -52.8000 -0.0000c 0.0000,1.2352 0.0000,2.4704 0.0000 3.7056c -1.0240,-0.0000 -2.0480,-0.0000 -3.0720 0.0000ZM 205.9926,734.1750 c 0.0000,4.4096 0.0000,8.8192 0.0000 13.2287c 1.0240,-0.0000 2.0480,-0.0000 3.0720 -0.0000c 0.0000,6.3104 0.0000,12.6208 0.0000 18.9313c -1.0240,-0.0000 -2.0480,-0.0000 -3.0720 -0.0000c 0.0000,4.4096 0.0000,8.8192 0.0000 13.2287c 1.0240,-0.0000 2.0480,-0.0000 3.0720 -0.0000c 0.0000,1.2352 0.0000,2.4704 0.0000 3.7056c 17.6000,-0.0000 35.2000,-0.0000 52.8000 -0.0000c 0.0000,-1.2352 0.0000,-2.4704 0.0000 -3.7056c 1.0240,-0.0000 2.0480,-0.0000 3.0720 -0.0000c 0.0000,-4.4096 0.0000,-8.8192 0.0000 -13.2287c -1.0240,-0.0000 -2.0480,-0.0000 -3.0720 -0.0000c 0.0000,-6.3105 0.0000,-12.6209 0.0000 -18.9313c 1.0240,-0.0000 2.0480,-0.0000 3.0720 -0.0000c 0.0000,-4.4096 0.0000,-8.8192 0.0000 -13.2287c -1.0240,-0.0000 -2.0480,-0.0000 -3.0720 -0.0000c 0.0000,-1.2352 0.0000,-2.4704 0.0000 -3.7057c -17.6000,-0.0000 -35.2000,-0.0000 -52.8000 -0.0000c 0.0000,1.2352 0.0000,2.4704 0.0000 3.7057c -1.0240,-0.0000 -2.0480,-0.0000 -3.0720 -0.0000ZM 277.8036,496.0647 c 0.0000,4.4096 0.0000,8.8192 0.0000 13.2287c 1.0240,-0.0000 2.0480,-0.0000 3.0720 -0.0000c 0.0000,6.3104 0.0000,12.6209 0.0000 18.9313c -1.0240,-0.0000 -2.0480,-0.0000 -3.0720 -0.0000c 0.0000,4.4096 0.0000,8.8192 0.0000 13.2287c 1.0240,-0.0000 2.0480,-0.0000 3.0720 -0.0000c 0.0000,1.2352 0.0000,2.4704 0.0000 3.7056c 17.6000,-0.0000 35.1999,-0.0000 52.7999 -0.0000c 0.0000,-1.2352 0.0000,-2.4704 0.0000 -3.7056c 1.0240,-0.0000 2.0480,-0.0000 3.0720 -0.0000c 0.0000,-4.4096 0.0000,-8.8192 0.0000 -13.2287c -1.0240,-0.0000 -2.0480,-0.0000 -3.0720 -0.0000c 0.0000,-6.3104 0.0000,-12.6209 0.0000 -18.9313c 1.0240,-0.0000 2.0480,-0.0000 3.0720 -0.0000c 0.0000,-4.4096 0.0000,-8.8192 0.0000 -13.2287c -1.0240,-0.0000 -2.0480,-0.0000 -3.0720 -0.0000c 0.0000,-1.2352 0.0000,-2.4704 0.0000 -3.7056c -17.6000,-0.0000 -35.1999,-0.0000 -52.7999 -0.0000c 0.0000,1.2352 0.0000,2.4704 0.0000 3.7056c -1.0240,-0.0000 -2.0480,-0.0000 -3.0720 -0.0000ZM 277.8036,567.8758 c 0.0000,4.4096 0.0000,8.8192 0.0000 13.2287c 1.0240,-0.0000 2.0480,-0.0000 3.0720 -0.0000c 0.0000,6.3104 0.0000,12.6208 0.0000 18.9313c -1.0240,-0.0000 -2.0480,-0.0000 -3.0720 -0.0000c 0.0000,4.4096 0.0000,8.8192 0.0000 13.2287c 1.0240,-0.0000 2.0480,-0.0000 3.0720 -0.0000c 0.0000,1.2352 0.0000,2.4704 0.0000 3.7056c 17.6000,-0.0000 35.1999,-0.0000 52.7999 -0.0000c 0.0000,-1.2352 0.0000,-2.4704 0.0000 -3.7056c 1.0240,-0.0000 2.0480,-0.0000 3.0720 -0.0000c 0.0000,-4.4096 0.0000,-8.8192 0.0000 -13.2287c -1.0240,-0.0000 -2.0480,-0.0000 -3.0720 -0.0000c 0.0000,-6.3105 0.0000,-12.6209 0.0000 -18.9313c 1.0240,-0.0000 2.0480,-0.0000 3.0720 -0.0000c 0.0000,-4.4096 0.0000,-8.8192 0.0000 -13.2287c -1.0240,-0.0000 -2.0480,-0.0000 -3.0720 -0.0000c 0.0000,-1.2352 0.0000,-2.4704 0.0000 -3.7057c -17.6000,-0.0000 -35.1999,-0.0000 -52.7999 -0.0000c 0.0000,1.2352 0.0000,2.4704 0.0000 3.7057c -1.0240,-0.0000 -2.0480,-0.0000 -3.0720 -0.0000ZM 277.8036,639.6868 c 0.0000,4.4096 0.0000,8.8192 0.0000 13.2287c 1.0240,-0.0000 2.0480,-0.0000 3.0720 -0.0000c 0.0000,6.3105 0.0000,12.6209 0.0000 18.9313c -1.0240,-0.0000 -2.0480,-0.0000 -3.0720 -0.0000c 0.0000,4.4096 0.0000,8.8192 0.0000 13.2287c 1.0240,-0.0000 2.0480,-0.0000 3.0720 -0.0000c 0.0000,1.2352 0.0000,2.4704 0.0000 3.7057c 17.6000,-0.0000 35.1999,-0.0000 52.7999 -0.0000c 0.0000,-1.2352 0.0000,-2.4704 0.0000 -3.7057c 1.0240,-0.0000 2.0480,-0.0000 3.0720 -0.0000c 0.0000,-4.4096 0.0000,-8.8192 0.0000 -13.2287c -1.0240,-0.0000 -2.0480,-0.0000 -3.0720 -0.0000c 0.0000,-6.3104 0.0000,-12.6208 0.0000 -18.9313c 1.0240,-0.0000 2.0480,-0.0000 3.0720 -0.0000c 0.0000,-4.4096 0.0000,-8.8192 0.0000 -13.2287c -1.0240,-0.0000 -2.0480,-0.0000 -3.0720 -0.0000c 0.0000,-1.2352 0.0000,-2.4704 0.0000 -3.7056c -17.6000,-0.0000 -35.1999,-0.0000 -52.7999 -0.0000c 0.0000,1.2352 0.0000,2.4704 0.0000 3.7056c -1.0240,-0.0000 -2.0480,-0.0000 -3.0720 -0.0000ZM 277.8036,711.4978 c 0.0000,4.4096 0.0000,8.8192 0.0000 13.2287c 1.0240,-0.0000 2.0480,-0.0000 3.0720 -0.0000c 0.0000,6.3104 0.0000,12.6208 0.0000 18.9313c -1.0240,-0.0000 -2.0480,-0.0000 -3.0720 -0.0000c 0.0000,4.4096 0.0000,8.8192 0.0000 13.2287c 1.0240,-0.0000 2.0480,-0.0000 3.0720 -0.0000c 0.0000,1.2352 0.0000,2.4704 0.0000 3.7056c 17.6000,-0.0000 35.1999,-0.0000 52.7999 -0.0000c 0.0000,-1.2352 0.0000,-2.4704 0.0000 -3.7056c 1.0240,-0.0000 2.0480,-0.0000 3.0720 -0.0000c 0.0000,-4.4096 0.0000,-8.8192 0.0000 -13.2287c -1.0240,-0.0000 -2.0480,-0.0000 -3.0720 -0.0000c 0.0000,-6.3105 0.0000,-12.6209 0.0000 -18.9313c 1.0240,-0.0000 2.0480,-0.0000 3.0720 -0.0000c 0.0000,-4.4096 0.0000,-8.8192 0.0000 -13.2287c -1.0240,-0.0000 -2.0480,-0.0000 -3.0720 -0.0000c 0.0000,-1.2352 0.0000,-2.4704 0.0000 -3.7057c -17.6000,-0.0000 -35.1999,-0.0000 -52.7999 -0.0000c 0.0000,1.2352 0.0000,2.4704 0.0000 3.7057c -1.0240,-0.0000 -2.0480,-0.0000 -3.0720 -0.0000ZM 349.6146,514.9624 c 0.0000,4.4096 0.0000,8.8192 0.0000 13.2287c 1.0240,-0.0000 2.0480,-0.0000 3.0720 -0.0000c 0.0000,6.3104 0.0000,12.6209 0.0000 18.9313c -1.0240,-0.0000 -2.0480,-0.0000 -3.0720 -0.0000c 0.0000,4.4096 0.0000,8.8192 0.0000 13.2287c 1.0240,-0.0000 2.0480,-0.0000 3.0720 -0.0000c 0.0000,1.2352 0.0000,2.4704 0.0000 3.7056c 17.6000,-0.0000 35.2000,-0.0000 52.8000 -0.0000c 0.0000,-1.2352 0.0000,-2.4704 0.0000 -3.7056c 1.0240,-0.0000 2.0480,-0.0000 3.0720 -0.0000c 0.0000,-4.4096 0.0000,-8.8192 0.0000 -13.2287c -1.0240,-0.0000 -2.0480,-0.0000 -3.0720 -0.0000c 0.0000,-6.3104 0.0000,-12.6209 0.0000 -18.9313c 1.0240,-0.0000 2.0480,-0.0000 3.0720 -0.0000c 0.0000,-4.4096 0.0000,-8.8192 0.0000 -13.2287c -1.0240,-0.0000 -2.0480,-0.0000 -3.0720 -0.0000c 0.0000,-1.2352 0.0000,-2.4704 0.0000 -3.7057c -17.6000,-0.0000 -35.2000,-0.0000 -52.8000 -0.0000c 0.0000,1.2352 0.0000,2.4704 0.0000 3.7057c -1.0240,-0.0000 -2.0480,-0.0000 -3.0720 0.0000ZM 349.6146,586.7734 c 0.0000,4.4096 0.0000,8.8192 0.0000 13.2287c 1.0240,-0.0000 2.0480,-0.0000 3.0720 -0.0000c 0.0000,6.3105 0.0000,12.6209 0.0000 18.9313c -1.0240,-0.0000 -2.0480,-0.0000 -3.0720 -0.0000c 0.0000,4.4096 0.0000,8.8192 0.0000 13.2287c 1.0240,-0.0000 2.0480,-0.0000 3.0720 -0.0000c 0.0000,1.2352 0.0000,2.4704 0.0000 3.7057c 17.6000,-0.0000 35.2000,-0.0000 52.8000 -0.0000c 0.0000,-1.2352 0.0000,-2.4704 0.0000 -3.7057c 1.0240,-0.0000 2.0480,-0.0000 3.0720 -0.0000c 0.0000,-4.4096 0.0000,-8.8192 0.0000 -13.2287c -1.0240,-0.0000 -2.0480,-0.0000 -3.0720 -0.0000c 0.0000,-6.3104 0.0000,-12.6208 0.0000 -18.9313c 1.0240,-0.0000 2.0480,-0.0000 3.0720 -0.0000c 0.0000,-4.4096 0.0000,-8.8192 0.0000 -13.2287c -1.0240,-0.0000 -2.0480,-0.0000 -3.0720 -0.0000c 0.0000,-1.2352 0.0000,-2.4704 0.0000 -3.7056c -17.6000,-0.0000 -35.2000,-0.0000 -52.8000 -0.0000c 0.0000,1.2352 0.0000,2.4704 0.0000 3.7056c -1.0240,-0.0000 -2.0480,-0.0000 -3.0720 0.0000ZM 349.6146,658.5844 c 0.0000,4.4096 0.0000,8.8192 0.0000 13.2287c 1.0240,-0.0000 2.0480,-0.0000 3.0720 -0.0000c 0.0000,6.3104 0.0000,12.6209 0.0000 18.9313c -1.0240,-0.0000 -2.0480,-0.0000 -3.0720 -0.0000c 0.0000,4.4096 0.0000,8.8192 0.0000 13.2287c 1.0240,-0.0000 2.0480,-0.0000 3.0720 -0.0000c 0.0000,1.2352 0.0000,2.4704 0.0000 3.7056c 17.6000,-0.0000 35.2000,-0.0000 52.8000 -0.0000c 0.0000,-1.2352 0.0000,-2.4704 0.0000 -3.7056c 1.0240,-0.0000 2.0480,-0.0000 3.0720 -0.0000c 0.0000,-4.4096 0.0000,-8.8192 0.0000 -13.2287c -1.0240,-0.0000 -2.0480,-0.0000 -3.0720 -0.0000c 0.0000,-6.3104 0.0000,-12.6209 0.0000 -18.9313c 1.0240,-0.0000 2.0480,-0.0000 3.0720 -0.0000c 0.0000,-4.4096 0.0000,-8.8192 0.0000 -13.2287c -1.0240,-0.0000 -2.0480,-0.0000 -3.0720 -0.0000c 0.0000,-1.2352 0.0000,-2.4704 0.0000 -3.7057c -17.6000,-0.0000 -35.2000,-0.0000 -52.8000 -0.0000c 0.0000,1.2352 0.0000,2.4704 0.0000 3.7057c -1.0240,-0.0000 -2.0480,-0.0000 -3.0720 -0.0000ZM 349.6146,730.3954 c 0.0000,4.4096 0.0000,8.8192 0.0000 13.2287c 1.0240,-0.0000 2.0480,-0.0000 3.0720 -0.0000c 0.0000,6.3105 0.0000,12.6209 0.0000 18.9313c -1.0240,-0.0000 -2.0480,-0.0000 -3.0720 -0.0000c 0.0000,4.4095 0.0000,8.8191 0.0000 13.2287c 1.0240,-0.0000 2.0480,-0.0000 3.0720 -0.0000c 0.0000,1.2352 0.0000,2.4704 0.0000 3.7057c 17.6000,-0.0000 35.2000,-0.0000 52.8000 -0.0000c 0.0000,-1.2352 0.0000,-2.4704 0.0000 -3.7057c 1.0240,-0.0000 2.0480,-0.0000 3.0720 -0.0000c 0.0000,-4.4096 0.0000,-8.8192 0.0000 -13.2287c -1.0240,-0.0000 -2.0480,-0.0000 -3.0720 -0.0000c 0.0000,-6.3105 0.0000,-12.6209 0.0000 -18.9313c 1.0240,-0.0000 2.0480,-0.0000 3.0720 -0.0000c 0.0000,-4.4096 0.0000,-8.8192 0.0000 -13.2287c -1.0240,-0.0000 -2.0480,-0.0000 -3.0720 -0.0000c 0.0000,-1.2352 0.0000,-2.4704 0.0000 -3.7056c -17.6000,-0.0000 -35.2000,-0.0000 -52.8000 -0.0000c 0.0000,1.2352 0.0000,2.4704 0.0000 3.7056c -1.0240,-0.0000 -2.0480,-0.0000 -3.0720 -0.0000ZM 421.4256,526.3010 c 0.0000,4.4096 0.0000,8.8192 0.0000 13.2287c 1.0240,-0.0000 2.0480,-0.0000 3.0720 -0.0000c 0.0000,6.3104 0.0000,12.6209 0.0000 18.9313c -1.0240,-0.0000 -2.0480,-0.0000 -3.0720 -0.0000c 0.0000,4.4096 0.0000,8.8192 0.0000 13.2287c 1.0240,-0.0000 2.0480,-0.0000 3.0720 -0.0000c 0.0000,1.2352 0.0000,2.4704 0.0000 3.7056c 17.6000,-0.0000 35.1999,-0.0000 52.7999 -0.0000c 0.0000,-1.2352 0.0000,-2.4704 0.0000 -3.7056c 1.0240,-0.0000 2.0480,-0.0000 3.0720 -0.0000c 0.0000,-4.4096 0.0000,-8.8192 0.0000 -13.2287c -1.0240,-0.0000 -2.0480,-0.0000 -3.0720 -0.0000c 0.0000,-6.3104 0.0000,-12.6209 0.0000 -18.9313c 1.0240,-0.0000 2.0480,-0.0000 3.0720 -0.0000c 0.0000,-4.4096 0.0000,-8.8192 0.0000 -13.2287c -1.0240,-0.0000 -2.0480,-0.0000 -3.0720 -0.0000c 0.0000,-1.2352 0.0000,-2.4704 0.0000 -3.7057c -17.6000,-0.0000 -35.1999,-0.0000 -52.7999 -0.0000c 0.0000,1.2352 0.0000,2.4704 0.0000 3.7057c -1.0240,-0.0000 -2.0480,-0.0000 -3.0720 -0.0000ZM 421.4256,598.1120 c 0.0000,4.4096 0.0000,8.8192 0.0000 13.2287c 1.0240,-0.0000 2.0480,-0.0000 3.0720 -0.0000c 0.0000,6.3105 0.0000,12.6209 0.0000 18.9313c -1.0240,-0.0000 -2.0480,-0.0000 -3.0720 -0.0000c 0.0000,4.4096 0.0000,8.8192 0.0000 13.2287c 1.0240,-0.0000 2.0480,-0.0000 3.0720 -0.0000c 0.0000,1.2352 0.0000,2.4704 0.0000 3.7057c 17.6000,-0.0000 35.1999,-0.0000 52.7999 -0.0000c 0.0000,-1.2352 0.0000,-2.4704 0.0000 -3.7057c 1.0240,-0.0000 2.0480,-0.0000 3.0720 -0.0000c 0.0000,-4.4096 0.0000,-8.8192 0.0000 -13.2287c -1.0240,-0.0000 -2.0480,-0.0000 -3.0720 -0.0000c 0.0000,-6.3104 0.0000,-12.6208 0.0000 -18.9313c 1.0240,-0.0000 2.0480,-0.0000 3.0720 -0.0000c 0.0000,-4.4096 0.0000,-8.8192 0.0000 -13.2287c -1.0240,-0.0000 -2.0480,-0.0000 -3.0720 -0.0000c 0.0000,-1.2352 0.0000,-2.4704 0.0000 -3.7056c -17.6000,-0.0000 -35.1999,-0.0000 -52.7999 -0.0000c 0.0000,1.2352 0.0000,2.4704 0.0000 3.7056c -1.0240,-0.0000 -2.0480,-0.0000 -3.0720 -0.0000ZM 421.4256,669.9230 c 0.0000,4.4096 0.0000,8.8192 0.0000 13.2287c 1.0240,-0.0000 2.0480,-0.0000 3.0720 -0.0000c 0.0000,6.3104 0.0000,12.6209 0.0000 18.9313c -1.0240,-0.0000 -2.0480,-0.0000 -3.0720 -0.0000c 0.0000,4.4096 0.0000,8.8192 0.0000 13.2287c 1.0240,-0.0000 2.0480,-0.0000 3.0720 -0.0000c 0.0000,1.2352 0.0000,2.4704 0.0000 3.7056c 17.6000,-0.0000 35.1999,-0.0000 52.7999 -0.0000c 0.0000,-1.2352 0.0000,-2.4704 0.0000 -3.7056c 1.0240,-0.0000 2.0480,-0.0000 3.0720 -0.0000c 0.0000,-4.4096 0.0000,-8.8192 0.0000 -13.2287c -1.0240,-0.0000 -2.0480,-0.0000 -3.0720 -0.0000c 0.0000,-6.3104 0.0000,-12.6209 0.0000 -18.9313c 1.0240,-0.0000 2.0480,-0.0000 3.0720 -0.0000c 0.0000,-4.4096 0.0000,-8.8192 0.0000 -13.2287c -1.0240,-0.0000 -2.0480,-0.0000 -3.0720 -0.0000c 0.0000,-1.2352 0.0000,-2.4704 0.0000 -3.7057c -17.6000,-0.0000 -35.1999,-0.0000 -52.7999 -0.0000c 0.0000,1.2352 0.0000,2.4704 0.0000 3.7057c -1.0240,-0.0000 -2.0480,-0.0000 -3.0720 -0.0000ZM 421.4256,741.7341 c 0.0000,4.4096 0.0000,8.8191 0.0000 13.2287c 1.0240,-0.0000 2.0480,-0.0000 3.0720 -0.0000c 0.0000,6.3105 0.0000,12.6209 0.0000 18.9313c -1.0240,-0.0000 -2.0480,-0.0000 -3.0720 -0.0000c 0.0000,4.4095 0.0000,8.8191 0.0000 13.2287c 1.0240,-0.0000 2.0480,-0.0000 3.0720 -0.0000c 0.0000,1.2352 0.0000,2.4704 0.0000 3.7057c 17.6000,-0.0000 35.1999,-0.0000 52.7999 -0.0000c 0.0000,-1.2352 0.0000,-2.4704 0.0000 -3.7057c 1.0240,-0.0000 2.0480,-0.0000 3.0720 -0.0000c 0.0000,-4.4096 0.0000,-8.8192 0.0000 -13.2287c -1.0240,-0.0000 -2.0480,-0.0000 -3.0720 -0.0000c 0.0000,-6.3105 0.0000,-12.6209 0.0000 -18.9313c 1.0240,-0.0000 2.0480,-0.0000 3.0720 -0.0000c 0.0000,-4.4096 0.0000,-8.8191 0.0000 -13.2287c -1.0240,-0.0000 -2.0480,-0.0000 -3.0720 -0.0000c 0.0000,-1.2352 0.0000,-2.4704 0.0000 -3.7057c -17.6000,-0.0000 -35.1999,-0.0000 -52.7999 -0.0000c 0.0000,1.2352 0.0000,2.4704 0.0000 3.7057c -1.0240,-0.0000 -2.0480,-0.0000 -3.0720 -0.0000ZM 493.2367,530.0805 c 0.0000,4.4096 0.0000,8.8192 0.0000 13.2287c 1.0240,-0.0000 2.0480,-0.0000 3.0720 -0.0000c 0.0000,6.3104 0.0000,12.6209 0.0000 18.9313c -1.0240,-0.0000 -2.0480,-0.0000 -3.0720 -0.0000c 0.0000,4.4096 0.0000,8.8192 0.0000 13.2287c 1.0240,-0.0000 2.0480,-0.0000 3.0720 -0.0000c 0.0000,1.2352 0.0000,2.4704 0.0000 3.7057c 17.6000,-0.0000 35.2000,-0.0000 52.8000 -0.0000c 0.0000,-1.2352 0.0000,-2.4704 0.0000 -3.7057c 1.0240,-0.0000 2.0480,-0.0000 3.0720 -0.0000c 0.0000,-4.4096 0.0000,-8.8192 0.0000 -13.2287c -1.0240,-0.0000 -2.0480,-0.0000 -3.0720 -0.0000c 0.0000,-6.3104 0.0000,-12.6209 0.0000 -18.9313c 1.0240,-0.0000 2.0480,-0.0000 3.0720 -0.0000c 0.0000,-4.4096 0.0000,-8.8192 0.0000 -13.2287c -1.0240,-0.0000 -2.0480,-0.0000 -3.0720 -0.0000c 0.0000,-1.2352 0.0000,-2.4704 0.0000 -3.7056c -17.6000,-0.0000 -35.2000,-0.0000 -52.8000 -0.0000c 0.0000,1.2352 0.0000,2.4704 0.0000 3.7056c -1.0240,-0.0000 -2.0480,-0.0000 -3.0720 -0.0000ZM 493.2367,601.8915 c 0.0000,4.4096 0.0000,8.8192 0.0000 13.2287c 1.0240,-0.0000 2.0480,-0.0000 3.0720 -0.0000c 0.0000,6.3104 0.0000,12.6208 0.0000 18.9313c -1.0240,-0.0000 -2.0480,-0.0000 -3.0720 -0.0000c 0.0000,4.4096 0.0000,8.8192 0.0000 13.2287c 1.0240,-0.0000 2.0480,-0.0000 3.0720 -0.0000c 0.0000,1.2352 0.0000,2.4704 0.0000 3.7056c 17.6000,-0.0000 35.2000,-0.0000 52.8000 -0.0000c 0.0000,-1.2352 0.0000,-2.4704 0.0000 -3.7056c 1.0240,-0.0000 2.0480,-0.0000 3.0720 -0.0000c 0.0000,-4.4096 0.0000,-8.8192 0.0000 -13.2287c -1.0240,-0.0000 -2.0480,-0.0000 -3.0720 -0.0000c 0.0000,-6.3105 0.0000,-12.6209 0.0000 -18.9313c 1.0240,-0.0000 2.0480,-0.0000 3.0720 -0.0000c 0.0000,-4.4096 0.0000,-8.8192 0.0000 -13.2287c -1.0240,-0.0000 -2.0480,-0.0000 -3.0720 -0.0000c 0.0000,-1.2352 0.0000,-2.4704 0.0000 -3.7057c -17.6000,-0.0000 -35.2000,-0.0000 -52.8000 -0.0000c 0.0000,1.2352 0.0000,2.4704 0.0000 3.7057c -1.0240,-0.0000 -2.0480,-0.0000 -3.0720 -0.0000ZM 493.2367,673.7025 c 0.0000,4.4096 0.0000,8.8192 0.0000 13.2287c 1.0240,-0.0000 2.0480,-0.0000 3.0720 -0.0000c 0.0000,6.3105 0.0000,12.6209 0.0000 18.9313c -1.0240,-0.0000 -2.0480,-0.0000 -3.0720 -0.0000c 0.0000,4.4096 0.0000,8.8192 0.0000 13.2287c 1.0240,-0.0000 2.0480,-0.0000 3.0720 -0.0000c 0.0000,1.2352 0.0000,2.4704 0.0000 3.7057c 17.6000,-0.0000 35.2000,-0.0000 52.8000 -0.0000c 0.0000,-1.2352 0.0000,-2.4704 0.0000 -3.7057c 1.0240,-0.0000 2.0480,-0.0000 3.0720 -0.0000c 0.0000,-4.4096 0.0000,-8.8192 0.0000 -13.2287c -1.0240,-0.0000 -2.0480,-0.0000 -3.0720 -0.0000c 0.0000,-6.3104 0.0000,-12.6208 0.0000 -18.9313c 1.0240,-0.0000 2.0480,-0.0000 3.0720 -0.0000c 0.0000,-4.4096 0.0000,-8.8192 0.0000 -13.2287c -1.0240,-0.0000 -2.0480,-0.0000 -3.0720 -0.0000c 0.0000,-1.2352 0.0000,-2.4704 0.0000 -3.7056c -17.6000,-0.0000 -35.2000,-0.0000 -52.8000 -0.0000c 0.0000,1.2352 0.0000,2.4704 0.0000 3.7056c -1.0240,-0.0000 -2.0480,-0.0000 -3.0720 -0.0000ZM 493.2367,745.5136 c 0.0000,4.4096 0.0000,8.8192 0.0000 13.2287c 1.0240,-0.0000 2.0480,-0.0000 3.0720 -0.0000c 0.0000,6.3104 0.0000,12.6209 0.0000 18.9313c -1.0240,-0.0000 -2.0480,-0.0000 -3.0720 -0.0000c 0.0000,4.4096 0.0000,8.8192 0.0000 13.2287c 1.0240,-0.0000 2.0480,-0.0000 3.0720 -0.0000c 0.0000,1.2352 0.0000,2.4704 0.0000 3.7056c 17.6000,-0.0000 35.2000,-0.0000 52.8000 -0.0000c 0.0000,-1.2352 0.0000,-2.4704 0.0000 -3.7056c 1.0240,-0.0000 2.0480,-0.0000 3.0720 -0.0000c 0.0000,-4.4096 0.0000,-8.8192 0.0000 -13.2287c -1.0240,-0.0000 -2.0480,-0.0000 -3.0720 -0.0000c 0.0000,-6.3104 0.0000,-12.6209 0.0000 -18.9313c 1.0240,-0.0000 2.0480,-0.0000 3.0720 -0.0000c 0.0000,-4.4096 0.0000,-8.8192 0.0000 -13.2287c -1.0240,-0.0000 -2.0480,-0.0000 -3.0720 -0.0000c 0.0000,-1.2352 0.0000,-2.4704 0.0000 -3.7057c -17.6000,-0.0000 -35.2000,-0.0000 -52.8000 -0.0000c 0.0000,1.2352 0.0000,2.4704 0.0000 3.7057c -1.0240,-0.0000 -2.0480,-0.0000 -3.0720 -0.0000ZM 571.7858,468.4221 c 0.0000,3.1311 2.5382,5.6693 5.6693 5.6693c 3.1310,-0.0000 5.6693,-2.5382 5.6693 -5.6693c 0.0000,-3.1311 -2.5382,-5.6693 -5.6693 -5.6693c -3.1311,-0.0000 -5.6693,2.5382 -5.6693 5.6693ZM 571.7858,808.4662 c 0.0000,3.1311 2.5382,5.6693 5.6693 5.6693c 3.1310,-0.0000 5.6693,-2.5382 5.6693 -5.6693c 0.0000,-3.1311 -2.5382,-5.6693 -5.6693 -5.6693c -3.1311,-0.0000 -5.6693,2.5382 -5.6693 5.6693Z"/></g><g stroke-linejoin="miter" stroke-opacity="1.0" fill-opacity="0.5" stroke="rgb(0,0,0)" stroke-width="0.7559055118110237" fill="rgb(0,0,255)" stroke-linecap="butt" stroke-miterlimit="10.0"><path d="M 3.9685,16.2520 c 0.0000,-6.7840 5.4995,-12.2835 12.2835 -12.2835c 188.3275,-0.0000 376.6551,-0.0000 564.9827 -0.0000c 6.7840,-0.0000 12.2835,5.4995 12.2835 12.2835c 0.0000,115.8677 0.0000,231.7354 0.0000 347.6032c 0.0000,6.2311 -4.6656,11.4751 -10.8544 12.2001c -163.1307,19.1076 -326.2614,38.2153 -489.3921 57.3229c -0.4743,0.0555 -0.9515,0.0834 -1.4290 0.0834c -25.1969,-0.0000 -50.3937,-0.0000 -75.5906 -0.0000c -6.7840,-0.0000 -12.2835,-5.4995 -12.2835 -12.2835c 0.0000,-134.9753 0.0000,-269.9506 -0.0000 -404.9260ZM 50.7969,254.2048 c 0.0000,23.9370 0.0000,47.8740 0.0000 71.8110c 0.0000,0.9071 0.0000,1.8142 0.0000 2.7213c 0.0000,23.9370 0.0000,47.8740 0.0000 71.8110c 0.0000,2.0874 1.6921,3.7795 3.7795 3.7795c 24.8441,-0.0000 49.6882,-0.0000 74.5323 -0.0000c 2.0874,-0.0000 3.7795,-1.6921 3.7795 -3.7795c 0.0000,-10.7087 0.0000,-21.4173 0.0000 -32.1260c 22.6772,-0.0000 45.3543,-0.0000 68.0315 -0.0000c 2.0874,-0.0000 3.7796,-1.6921 3.7796 -3.7795c 0.0000,-5.0394 0.0000,-10.0787 0.0000 -15.1181c 22.6772,-0.0000 45.3543,-0.0000 68.0315 -0.0000c 2.0874,-0.0000 3.7795,-1.6922 3.7795 -3.7796c 0.0000,-6.2992 0.0000,-12.5984 0.0000 -18.8976c 20.5102,-0.0000 41.0205,-0.0000 61.5307 -0.0000c 0.0000,5.0394 0.0000,10.0787 0.0000 15.1181c 0.0000,2.0874 1.6921,3.7795 3.7795 3.7795c 22.6772,-0.0000 45.3543,-0.0000 68.0315 -0.0000c 0.0000,2.5197 0.0000,5.0394 0.0000 7.5591c 0.0000,2.0874 1.6922,3.7795 3.7796 3.7795c 22.6772,-0.0000 45.3543,-0.0000 68.0315 -0.0000c 0.0000,2.0874 1.6921,3.7796 3.7795 3.7796c 24.8441,-0.0000 49.6882,-0.0000 74.5323 -0.0000c 2.0874,-0.0000 3.7795,-1.6922 3.7795 -3.7796c 0.0000,-23.9370 0.0000,-47.8740 0.0000 -71.8110c 0.0000,-0.9071 0.0000,-1.8142 0.0000 -2.7213c 0.0000,-23.0299 0.0000,-46.0598 0.0000 -69.0898c 0.0000,-0.9071 0.0000,-1.8142 0.0000 -2.7212c 0.0000,-23.0299 0.0000,-46.0599 0.0000 -69.0898c 0.0000,-0.9071 0.0000,-1.8142 0.0000 -2.7213c 0.0000,-23.9370 0.0000,-47.8740 0.0000 -71.8110c 0.0000,-2.0874 -1.6921,-3.7796 -3.7795 -3.7796c -22.6772,-0.0000 -45.3543,-0.0000 -68.0315 -0.0000c 0.0000,-2.0873 -1.6922,-3.7795 -3.7795 -3.7795c -22.6772,-0.0000 -45.3544,-0.0000 -68.0315 -0.0000c 0.0000,-2.5197 0.0000,-5.0394 0.0000 -7.5591c 0.0000,-2.0873 -1.6921,-3.7795 -3.7795 -3.7795c -22.6772,-0.0000 -45.3543,-0.0000 -68.0315 -0.0000c 0.0000,-5.0394 0.0000,-10.0787 0.0000 -15.1181c 0.0000,-2.0874 -1.6922,-3.7796 -3.7796 -3.7796c -24.8440,-0.0000 -49.6882,-0.0000 -74.5322 -0.0000c -2.0874,-0.0000 -3.7796,1.6922 -3.7796 3.7796c 0.0000,6.2992 0.0000,12.5984 0.0000 18.8976c -22.6772,-0.0000 -45.3543,-0.0000 -68.0315 -0.0000c -2.0874,-0.0000 -3.7795,1.6922 -3.7795 3.7796c 0.0000,5.0394 0.0000,10.0787 0.0000 15.1181c -22.6772,-0.0000 -45.3543,-0.0000 -68.0315 -0.0000c -2.0873,-0.0000 -3.7795,1.6922 -3.7795 3.7795c 0.0000,23.9370 0.0000,47.8740 0.0000 71.8110c 0.0000,0.9071 0.0000,1.8142 0.0000 2.7212c 0.0000,23.0299 0.0000,46.0599 0.0000 69.0898c 0.0000,0.9071 0.0000,1.8142 0.0000 2.7212c 0.0000,9.8015 0.0000,19.6031 0.0000 29.4047c -22.6772,-0.0000 -45.3543,-0.0000 -68.0315 -0.0000c -2.0874,-0.0000 -3.7795,1.6921 -3.7795 3.7795ZM 86.1732,16.2520 c 0.0000,3.1311 2.5382,5.6693 5.6693 5.6693c 3.1311,-0.0000 5.6693,-2.5382 5.6693 -5.6693c 0.0000,-3.1310 -2.5382,-5.6693 -5.6693 -5.6693c -3.1311,-0.0000 -5.6693,2.5382 -5.6693 5.6693ZM 86.1732,421.1780 c 0.0000,3.1311 2.5382,5.6693 5.6693 5.6693c 3.1311,-0.0000 5.6693,-2.5382 5.6693 -5.6693c 0.0000,-3.1311 -2.5382,-5.6693 -5.6693 -5.6693c -3.1311,-0.0000 -5.6693,2.5382 -5.6693 5.6693ZM 571.7858,20.0315 c 0.0000,3.1311 2.5382,5.6693 5.6693 5.6693c 3.1310,-0.0000 5.6693,-2.5382 5.6693 -5.6693c 0.0000,-3.1311 -2.5382,-5.6693 -5.6693 -5.6693c -3.1311,-0.0000 -5.6693,2.5382 -5.6693 5.6693ZM 571.7858,360.0756 c 0.0000,3.1311 2.5382,5.6693 5.6693 5.6693c 3.1310,-0.0000 5.6693,-2.5382 5.6693 -5.6693c 0.0000,-3.1311 -2.5382,-5.6693 -5.6693 -5.6693c -3.1311,-0.0000 -5.6693,2.5382 -5.6693 5.6693Z"/></g></svg>