<?xml version="1.0" encoding="UTF-8"?>
<!DOCTYPE svg PUBLIC "-//W3C//DTD SVG 1.1//EN"
    "http://www.w3.org/Graphics/SVG/1.1/DTD/svg11.dtd"><svg xmlns="http://www.w3.org/2000/svg" height="2567.5886" stroke-opacity="1" viewBox="0 0 596 2568" font-size="1" width="595.5676" xmlns:xlink="http://www.w3.org/1999/xlink" stroke="rgb(0,0,0)" version="1.1"><defs></defs><defs><linearGradient x2="38.8693" y1="0.0000" gradientUnits="userSpaceOnUse" spreadMethod="pad" gradientTransform="matrix(3.7795,-0.0000,0.0000,-3.7795,16.2520,2515.2571)" id="gradient0" y2="-60.0000" x1="-38.8693"><stop stop-opacity="1.0000" offset="0.0000" stop-color="rgb(128,128,128)"/><stop stop-opacity="1.0000" offset="0.5000" stop-color="rgb(255,255,255)"/><stop stop-opacity="1.0000" offset="1.0000" stop-color="rgb(128,128,128)"/></linearGradient></defs><g stroke-linejoin="miter" stroke-opacity="1.0" fill-opacity="1" stroke="rgb(0,0,0)" stroke-width="0.7559055118110237" fill="url(#gradient0)" stroke-linecap="butt" stroke-miterlimit="10.0"><path d="M 3.9685,2079.0913 c 0.0000,-6.7840 5.4995,-12.2834 12.2834 -12.2834c 165.5969,-0.0000 331.1938,-0.0000 496.7907 -0.0000c 5.9611,-0.0000 11.0617,4.2799 12.0969 10.1504c 22.0904,125.2810 44.1809,250.5621 66.2713 375.8431c 0.1270,0.7200 0.1884,1.4371 0.1884 2.1449c 0.0000,5.6184 -3.8689,10.6526 -9.5242 11.9572c -139.2999,32.1341 -278.5998,64.2681 -417.8997 96.4022c -0.9055,0.2089 -1.8318,0.3143 -2.7611 0.3143c -48.3874,-0.0000 -96.7748,-0.0000 -145.1622 -0.0000c -6.7840,-0.0000 -12.2834,-5.4995 -12.2834 -12.2834c 0.0000,-157.4151 0.0000,-314.8302 -0.0000 -472.2453ZM 48.3770,2082.8974 c 0.0000,0.3268 0.0284,0.6581 0.0871 0.9911c 0.5437,3.0835 3.4841,5.1424 6.5676 4.5987c 2.7505,-0.4850 4.6858,-2.8770 4.6858 -5.5765c 0.0000,-0.3268 -0.0284,-0.6581 -0.0871 -0.9911c -0.5437,-3.0835 -3.4841,-5.1424 -6.5676 -4.5987c -2.7505,0.4850 -4.6858,2.8770 -4.6858 5.5765ZM 165.5836,2545.4581 c 0.0000,0.3268 0.0284,0.6581 0.0870 0.9911c 0.5437,3.0835 3.4841,5.1424 6.5676 4.5987c 2.7505,-0.4850 4.6858,-2.8770 4.6858 -5.5765c 0.0000,-0.3268 -0.0284,-0.6581 -0.0870 -0.9911c -0.5437,-3.0835 -3.4841,-5.1424 -6.5676 -4.5987c -2.7505,0.4850 -4.6858,2.8770 -4.6858 5.5765ZM 503.8518,2082.8974 c 0.0000,0.3268 0.0284,0.6581 0.0871 0.9911c 0.5437,3.0835 3.4841,5.1424 6.5676 4.5987c 2.7505,-0.4850 4.6858,-2.8770 4.6858 -5.5765c 0.0000,-0.3268 -0.0284,-0.6581 -0.0871 -0.9911c -0.5437,-3.0835 -3.4841,-5.1424 -6.5676 -4.5987c -2.7505,0.4850 -4.6858,2.8770 -4.6858 5.5765ZM 568.7284,2455.1837 c 0.0000,0.3268 0.0284,0.6581 0.0871 0.9911c 0.5437,3.0835 3.4841,5.1424 6.5676 4.5987c 2.7505,-0.4850 4.6858,-2.8770 4.6858 -5.5765c 0.0000,-0.3268 -0.0284,-0.6581 -0.0871 -0.9911c -0.5437,-3.0835 -3.4841,-5.1424 -6.5676 -4.5987c -2.7505,0.4850 -4.6858,2.8770 -4.6858 5.5765Z"/></g><g stroke-linejoin="miter" stroke-opacity="1.0" fill-opacity="0.5" stroke="rgb(0,0,0)" stroke-width="0.7559055118110237" fill="rgb(255,255,0)" stroke-linecap="butt" stroke-miterlimit="10.0"><path d="M 3.9685,2079.0913 c 0.0000,-6.7840 5.4995,-12.2834 12.2834 -12.2834c 11.5901,-0.0000 23.1802,-0.0000 34.7703 -0.0000c 2.0246,-0.0000 4.0492,-0.0000 6.0737 -0.0000c 149.8004,-0.0000 299.6007,-0.0000 449.4011 -0.0000c 2.0246,-0.0000 4.0491,-0.0000 6.0737 -0.0000c 0.1573,-0.0000 0.3145,-0.0000 0.4718 -0.0000c 5.9611,-0.0000 11.0617,4.2799 12.0968 10.1504c 22.0904,125.2810 44.1809,250.5621 66.2713 375.8432c 0.1270,0.7200 0.1883,1.4371 0.1883 2.1449c 0.0000,2.6867 -0.8847,5.2400 -2.4265 7.3156c -1.6823,2.2648 -4.1468,3.9609 -7.0977 4.6416c -4.7511,1.0960 -9.5022,2.1920 -14.2533 3.2880c -129.5919,29.8946 -259.1838,59.7892 -388.7757 89.6838c -2.8269,0.6521 -5.6538,1.3043 -8.4807 1.9564c -2.1301,0.4914 -4.2601,0.9827 -6.3901 1.4741c -0.9055,0.2089 -1.8318,0.3143 -2.7611 0.3143c -48.3874,-0.0000 -96.7748,-0.0000 -145.1622 -0.0000c -6.7840,-0.0000 -12.2834,-5.4995 -12.2834 -12.2834c 0.0000,-157.4151 0.0000,-314.8303 0.0000 -472.2453ZM 27.5937,2100.6471 c 0.0000,143.0445 0.0000,286.0891 0.0000 429.1337c 0.0000,6.1647 5.0750,11.1621 11.3354 11.1621c 38.8599,-0.0000 77.7197,-0.0000 116.5796 -0.0000c 1.6767,-5.8221 6.5324,-10.4843 12.9012 -11.6073c 7.3582,-1.2975 14.4344,2.5353 17.5590 8.9289c 124.0374,-28.1757 248.0748,-56.3516 372.1122 -84.5274c 0.5785,-6.5415 5.0770,-12.2295 11.4892 -14.1987c -20.3105,-113.4256 -40.6210,-226.8511 -60.9316 -340.2766c -6.1609,-0.3272 -11.6481,-4.1330 -14.1185 -9.7768c -141.8245,-0.0000 -283.6490,-0.0000 -425.4736 -0.0000c -2.1288,4.8399 -6.5578,8.5611 -12.1555 9.5482c -7.5928,1.3388 -14.8853,-2.7849 -17.8458 -9.5482c -0.0387,-0.0000 -0.0775,-0.0000 -0.1163 -0.0000c -6.2603,-0.0000 -11.3354,4.9974 -11.3354 11.1621ZM 48.3770,2082.8975 c 0.0000,0.3268 0.0284,0.6581 0.0871 0.9911c 0.5437,3.0835 3.4841,5.1424 6.5676 4.5987c 2.7505,-0.4850 4.6858,-2.8770 4.6858 -5.5765c 0.0000,-0.3268 -0.0284,-0.6581 -0.0871 -0.9911c -0.5437,-3.0835 -3.4841,-5.1424 -6.5676 -4.5987c -2.7505,0.4850 -4.6858,2.8770 -4.6858 5.5765ZM 165.5836,2545.4581 c 0.0000,0.3268 0.0284,0.6581 0.0871 0.9911c 0.5437,3.0835 3.4841,5.1424 6.5676 4.5987c 2.7505,-0.4850 4.6858,-2.8770 4.6858 -5.5765c 0.0000,-0.3268 -0.0284,-0.6581 -0.0871 -0.9911c -0.5437,-3.0835 -3.4841,-5.1424 -6.5676 -4.5987c -2.7505,0.4850 -4.6858,2.8770 -4.6858 5.5765ZM 503.8518,2082.8975 c 0.0000,0.3268 0.0284,0.6581 0.0871 0.9911c 0.5437,3.0835 3.4841,5.1424 6.5676 4.5987c 2.7505,-0.4850 4.6858,-2.8770 4.6858 -5.5765c 0.0000,-0.3268 -0.0284,-0.6581 -0.0870 -0.9911c -0.5437,-3.0835 -3.4841,-5.1424 -6.5676 -4.5987c -2.7505,0.4850 -4.6858,2.8770 -4.6858 5.5765ZM 568.7284,2455.1837 c 0.0000,0.3268 0.0284,0.6581 0.0871 0.9911c 0.5437,3.0835 3.4841,5.1424 6.5676 4.5987c 2.7505,-0.4850 4.6858,-2.8770 4.6858 -5.5765c 0.0000,-0.3268 -0.0284,-0.6581 -0.0871 -0.9911c -0.5437,-3.0835 -3.4841,-5.1424 -6.5676 -4.5987c -2.7505,0.4850 -4.6858,2.8770 -4.6858 5.5765Z"/></g><g stroke-linejoin="miter" stroke-opacity="1.0" fill-opacity="0.5" stroke="rgb(0,0,0)" stroke-width="0.7559055118110237" fill="rgb(0,128,0)" stroke-linecap="butt" stroke-miterlimit="10.0"><path d="M 3.9685,2079.0913 c 0.0000,-6.7840 5.4995,-12.2834 12.2834 -12.2834c 165.5969,-0.0000 331.1938,-0.0000 496.7907 -0.0000c 5.9611,-0.0000 11.0617,4.2799 12.0969 10.1504c 22.0904,125.2810 44.1809,250.5621 66.2713 375.8431c 0.1270,0.7200 0.1884,1.4371 0.1884 2.1449c 0.0000,5.6184 -3.8689,10.6526 -9.5242 11.9572c -139.2999,32.1341 -278.5998,64.2681 -417.8997 96.4022c -0.9055,0.2089 -1.8318,0.3143 -2.7611 0.3143c -48.3874,-0.0000 -96.7748,-0.0000 -145.1622 -0.0000c -6.7840,-0.0000 -12.2834,-5.4995 -12.2834 -12.2834c 0.0000,-157.4151 0.0000,-314.8302 -0.0000 -472.2453ZM 48.3770,2082.8974 c 0.0000,0.3268 0.0284,0.6581 0.0871 0.9911c 0.5437,3.0835 3.4841,5.1424 6.5676 4.5987c 2.7505,-0.4850 4.6858,-2.8770 4.6858 -5.5765c 0.0000,-0.3268 -0.0284,-0.6581 -0.0871 -0.9911c -0.5437,-3.0835 -3.4841,-5.1424 -6.5676 -4.5987c -2.7505,0.4850 -4.6858,2.8770 -4.6858 5.5765ZM 51.4941,2449.5391 c 0.7658,4.3426 1.5315,8.6851 2.2972 13.0277c 1.0084,-0.1778 2.0169,-0.3557 3.0253 -0.5335c 1.0958,6.2146 2.1916,12.4291 3.2874 18.6437c -1.0084,0.1779 -2.0169,0.3557 -3.0254 0.5335c 0.7658,4.3426 1.5315,8.6852 2.2972 13.0277c 1.0084,-0.1778 2.0169,-0.3556 3.0253 -0.5334c 0.2145,1.2164 0.4290,2.4329 0.6435 3.6493c 17.3326,-3.0562 34.6653,-6.1124 51.9978 -9.1686c -0.2145,-1.2164 -0.4290,-2.4329 -0.6434 -3.6494c 1.0084,-0.1778 2.0169,-0.3556 3.0253 -0.5334c -0.7657,-4.3426 -1.5314,-8.6852 -2.2971 -13.0278c -1.0085,0.1779 -2.0169,0.3557 -3.0254 0.5335c -1.0958,-6.2146 -2.1916,-12.4291 -3.2874 -18.6437c 1.0084,-0.1778 2.0169,-0.3557 3.0253 -0.5335c -0.7657,-4.3426 -1.5314,-8.6851 -2.2971 -13.0277c -1.0085,0.1778 -2.0169,0.3557 -3.0254 0.5335c -0.2145,-1.2164 -0.4290,-2.4329 -0.6435 -3.6493c -17.3326,3.0562 -34.6652,6.1124 -51.9978 9.1686c 0.2145,1.2164 0.4290,2.4329 0.6435 3.6493c -1.0084,0.1778 -2.0169,0.3557 -3.0254 0.5335ZM 78.5697,2189.5490 c 0.7657,4.3426 1.5314,8.6852 2.2972 13.0278c 1.0084,-0.1779 2.0169,-0.3557 3.0253 -0.5335c 1.0958,6.2146 2.1916,12.4291 3.2874 18.6437c -1.0084,0.1778 -2.0169,0.3557 -3.0253 0.5335c 0.7657,4.3426 1.5314,8.6851 2.2972 13.0277c 1.0084,-0.1778 2.0169,-0.3557 3.0253 -0.5335c 0.2145,1.2164 0.4290,2.4329 0.6435 3.6493c 17.3326,-3.0562 34.6652,-6.1124 51.9978 -9.1686c -0.2145,-1.2164 -0.4290,-2.4329 -0.6435 -3.6493c 1.0084,-0.1778 2.0169,-0.3557 3.0254 -0.5335c -0.7657,-4.3426 -1.5315,-8.6851 -2.2972 -13.0277c -1.0084,0.1778 -2.0169,0.3557 -3.0253 0.5335c -1.0958,-6.2146 -2.1916,-12.4291 -3.2874 -18.6437c 1.0084,-0.1779 2.0169,-0.3557 3.0254 -0.5335c -0.7657,-4.3426 -1.5315,-8.6852 -2.2972 -13.0277c -1.0084,0.1778 -2.0169,0.3556 -3.0253 0.5335c -0.2145,-1.2164 -0.4290,-2.4329 -0.6435 -3.6494c -17.3326,3.0562 -34.6652,6.1124 -51.9978 9.1686c 0.2145,1.2164 0.4290,2.4329 0.6434 3.6494c -1.0084,0.1778 -2.0169,0.3556 -3.0253 0.5334ZM 91.0395,2260.2691 c 0.7657,4.3425 1.5315,8.6851 2.2972 13.0277c 1.0084,-0.1778 2.0169,-0.3557 3.0253 -0.5335c 1.0958,6.2146 2.1916,12.4291 3.2874 18.6437c -1.0084,0.1779 -2.0169,0.3557 -3.0254 0.5335c 0.7657,4.3426 1.5315,8.6852 2.2972 13.0277c 1.0084,-0.1778 2.0169,-0.3556 3.0253 -0.5335c 0.2145,1.2165 0.4290,2.4329 0.6435 3.6494c 17.3326,-3.0562 34.6652,-6.1124 51.9978 -9.1686c -0.2145,-1.2164 -0.4290,-2.4329 -0.6434 -3.6494c 1.0084,-0.1778 2.0169,-0.3556 3.0253 -0.5335c -0.7657,-4.3425 -1.5314,-8.6851 -2.2972 -13.0277c -1.0084,0.1779 -2.0169,0.3557 -3.0253 0.5335c -1.0958,-6.2146 -2.1916,-12.4291 -3.2874 -18.6437c 1.0085,-0.1778 2.0169,-0.3557 3.0254 -0.5335c -0.7657,-4.3426 -1.5314,-8.6851 -2.2972 -13.0277c -1.0084,0.1778 -2.0169,0.3557 -3.0253 0.5335c -0.2145,-1.2164 -0.4290,-2.4329 -0.6435 -3.6493c -17.3326,3.0562 -34.6652,6.1124 -51.9978 9.1686c 0.2145,1.2164 0.4290,2.4329 0.6435 3.6493c -1.0084,0.1778 -2.0169,0.3557 -3.0254 0.5335ZM 103.5094,2330.9891 c 0.7658,4.3426 1.5315,8.6852 2.2972 13.0277c 1.0084,-0.1778 2.0169,-0.3556 3.0253 -0.5335c 1.0958,6.2146 2.1916,12.4292 3.2874 18.6437c -1.0084,0.1778 -2.0169,0.3556 -3.0254 0.5335c 0.7658,4.3425 1.5315,8.6851 2.2972 13.0277c 1.0084,-0.1779 2.0169,-0.3557 3.0254 -0.5335c 0.2145,1.2164 0.4290,2.4329 0.6434 3.6493c 17.3326,-3.0562 34.6653,-6.1124 51.9978 -9.1686c -0.2145,-1.2164 -0.4290,-2.4329 -0.6434 -3.6493c 1.0084,-0.1779 2.0169,-0.3557 3.0253 -0.5335c -0.7657,-4.3426 -1.5314,-8.6852 -2.2971 -13.0277c -1.0085,0.1778 -2.0169,0.3556 -3.0254 0.5335c -1.0958,-6.2146 -2.1916,-12.4292 -3.2874 -18.6437c 1.0084,-0.1778 2.0169,-0.3556 3.0253 -0.5335c -0.7657,-4.3425 -1.5314,-8.6851 -2.2971 -13.0277c -1.0085,0.1779 -2.0169,0.3557 -3.0254 0.5335c -0.2145,-1.2164 -0.4290,-2.4329 -0.6435 -3.6493c -17.3326,3.0562 -34.6652,6.1124 -51.9978 9.1686c 0.2145,1.2164 0.4290,2.4329 0.6435 3.6493c -1.0084,0.1779 -2.0169,0.3557 -3.0254 0.5335ZM 115.9792,2401.7092 c 0.7657,4.3425 1.5314,8.6851 2.2971 13.0277c 1.0084,-0.1779 2.0169,-0.3557 3.0254 -0.5335c 1.0958,6.2146 2.1916,12.4291 3.2874 18.6437c -1.0084,0.1778 -2.0169,0.3557 -3.0253 0.5335c 0.7657,4.3426 1.5314,8.6851 2.2971 13.0277c 1.0084,-0.1778 2.0169,-0.3557 3.0254 -0.5335c 0.2145,1.2164 0.4290,2.4329 0.6434 3.6493c 17.3326,-3.0562 34.6653,-6.1124 51.9979 -9.1686c -0.2145,-1.2164 -0.4290,-2.4329 -0.6435 -3.6493c 1.0084,-0.1778 2.0169,-0.3557 3.0253 -0.5335c -0.7657,-4.3426 -1.5314,-8.6851 -2.2971 -13.0277c -1.0084,0.1778 -2.0169,0.3557 -3.0254 0.5335c -1.0958,-6.2146 -2.1916,-12.4291 -3.2874 -18.6437c 1.0084,-0.1779 2.0169,-0.3557 3.0253 -0.5335c -0.7657,-4.3426 -1.5314,-8.6852 -2.2971 -13.0277c -1.0084,0.1778 -2.0169,0.3556 -3.0254 0.5335c -0.2145,-1.2165 -0.4290,-2.4329 -0.6434 -3.6494c -17.3326,3.0562 -34.6653,6.1124 -51.9979 9.1686c 0.2145,1.2164 0.4290,2.4329 0.6435 3.6494c -1.0084,0.1778 -2.0169,0.3556 -3.0253 0.5335ZM 128.4491,2472.4293 c 0.7657,4.3426 1.5314,8.6851 2.2971 13.0277c 1.0085,-0.1778 2.0169,-0.3557 3.0254 -0.5335c 1.0958,6.2146 2.1916,12.4291 3.2874 18.6437c -1.0084,0.1779 -2.0169,0.3557 -3.0253 0.5335c 0.7657,4.3426 1.5314,8.6852 2.2971 13.0277c 1.0085,-0.1778 2.0169,-0.3556 3.0254 -0.5335c 0.2145,1.2164 0.4290,2.4329 0.6435 3.6494c 17.3326,-3.0562 34.6652,-6.1124 51.9978 -9.1686c -0.2145,-1.2164 -0.4290,-2.4329 -0.6435 -3.6494c 1.0084,-0.1778 2.0169,-0.3556 3.0254 -0.5335c -0.7658,-4.3425 -1.5315,-8.6851 -2.2972 -13.0277c -1.0084,0.1779 -2.0169,0.3557 -3.0253 0.5335c -1.0958,-6.2146 -2.1916,-12.4291 -3.2874 -18.6437c 1.0084,-0.1778 2.0169,-0.3557 3.0254 -0.5335c -0.7658,-4.3426 -1.5315,-8.6851 -2.2972 -13.0277c -1.0084,0.1778 -2.0169,0.3557 -3.0254 0.5335c -0.2145,-1.2164 -0.4290,-2.4329 -0.6434 -3.6493c -17.3326,3.0562 -34.6653,6.1124 -51.9978 9.1686c 0.2145,1.2164 0.4290,2.4329 0.6434 3.6493c -1.0084,0.1778 -2.0169,0.3557 -3.0253 0.5335ZM 146.0082,2158.4686 c 0.7658,4.3426 1.5315,8.6851 2.2972 13.0277c 1.0084,-0.1778 2.0169,-0.3556 3.0254 -0.5335c 1.0958,6.2146 2.1915,12.4291 3.2874 18.6437c -1.0084,0.1779 -2.0169,0.3557 -3.0254 0.5335c 0.7658,4.3426 1.5315,8.6852 2.2972 13.0277c 1.0084,-0.1778 2.0169,-0.3556 3.0254 -0.5334c 0.2145,1.2164 0.4290,2.4329 0.6434 3.6493c 17.3326,-3.0562 34.6653,-6.1124 51.9979 -9.1686c -0.2145,-1.2164 -0.4290,-2.4329 -0.6435 -3.6494c 1.0084,-0.1778 2.0169,-0.3556 3.0253 -0.5334c -0.7657,-4.3426 -1.5314,-8.6852 -2.2971 -13.0277c -1.0084,0.1778 -2.0169,0.3556 -3.0254 0.5334c -1.0958,-6.2146 -2.1916,-12.4291 -3.2874 -18.6437c 1.0084,-0.1778 2.0169,-0.3556 3.0253 -0.5335c -0.7657,-4.3425 -1.5314,-8.6851 -2.2971 -13.0277c -1.0085,0.1778 -2.0169,0.3557 -3.0254 0.5335c -0.2145,-1.2164 -0.4290,-2.4329 -0.6435 -3.6493c -17.3326,3.0562 -34.6652,6.1124 -51.9978 9.1686c 0.2145,1.2164 0.4290,2.4329 0.6435 3.6493c -1.0084,0.1778 -2.0169,0.3557 -3.0254 0.5335ZM 158.4780,2229.1887 c 0.7657,4.3426 1.5314,8.6852 2.2971 13.0277c 1.0084,-0.1778 2.0169,-0.3556 3.0254 -0.5335c 1.0958,6.2146 2.1916,12.4292 3.2874 18.6437c -1.0084,0.1778 -2.0169,0.3556 -3.0253 0.5335c 0.7657,4.3425 1.5314,8.6851 2.2971 13.0277c 1.0084,-0.1778 2.0169,-0.3557 3.0254 -0.5335c 0.2145,1.2164 0.4290,2.4329 0.6435 3.6493c 17.3326,-3.0562 34.6652,-6.1124 51.9978 -9.1686c -0.2145,-1.2164 -0.4290,-2.4329 -0.6435 -3.6493c 1.0084,-0.1778 2.0169,-0.3557 3.0254 -0.5335c -0.7658,-4.3426 -1.5315,-8.6851 -2.2972 -13.0277c -1.0084,0.1778 -2.0169,0.3556 -3.0254 0.5335c -1.0958,-6.2146 -2.1916,-12.4292 -3.2874 -18.6437c 1.0084,-0.1778 2.0169,-0.3556 3.0253 -0.5334c -0.7657,-4.3426 -1.5314,-8.6852 -2.2971 -13.0278c -1.0084,0.1779 -2.0169,0.3557 -3.0254 0.5335c -0.2145,-1.2164 -0.4290,-2.4329 -0.6434 -3.6493c -17.3326,3.0562 -34.6653,6.1124 -51.9979 9.1686c 0.2145,1.2164 0.4290,2.4329 0.6435 3.6493c -1.0084,0.1779 -2.0169,0.3557 -3.0253 0.5335ZM 165.5836,2545.4581 c 0.0000,0.3268 0.0284,0.6581 0.0870 0.9911c 0.5437,3.0835 3.4841,5.1424 6.5676 4.5987c 2.7505,-0.4850 4.6858,-2.8770 4.6858 -5.5765c 0.0000,-0.3268 -0.0284,-0.6581 -0.0870 -0.9911c -0.5437,-3.0835 -3.4841,-5.1424 -6.5676 -4.5987c -2.7505,0.4850 -4.6858,2.8770 -4.6858 5.5765ZM 170.9479,2299.9088 c 0.7657,4.3425 1.5314,8.6851 2.2972 13.0277c 1.0084,-0.1779 2.0169,-0.3557 3.0253 -0.5335c 1.0958,6.2146 2.1916,12.4291 3.2874 18.6437c -1.0084,0.1778 -2.0169,0.3557 -3.0253 0.5335c 0.7657,4.3426 1.5314,8.6852 2.2971 13.0277c 1.0085,-0.1778 2.0169,-0.3556 3.0254 -0.5335c 0.2145,1.2164 0.4290,2.4329 0.6435 3.6494c 17.3326,-3.0562 34.6652,-6.1125 51.9978 -9.1687c -0.2145,-1.2164 -0.4290,-2.4329 -0.6435 -3.6493c 1.0084,-0.1778 2.0169,-0.3556 3.0254 -0.5335c -0.7657,-4.3425 -1.5315,-8.6851 -2.2972 -13.0277c -1.0084,0.1778 -2.0169,0.3557 -3.0253 0.5335c -1.0958,-6.2146 -2.1916,-12.4291 -3.2874 -18.6437c 1.0084,-0.1779 2.0169,-0.3557 3.0254 -0.5335c -0.7657,-4.3426 -1.5315,-8.6852 -2.2972 -13.0277c -1.0084,0.1778 -2.0169,0.3556 -3.0253 0.5335c -0.2145,-1.2165 -0.4290,-2.4329 -0.6435 -3.6494c -17.3326,3.0562 -34.6653,6.1124 -51.9978 9.1686c 0.2145,1.2164 0.4290,2.4329 0.6434 3.6494c -1.0084,0.1778 -2.0169,0.3556 -3.0253 0.5335ZM 183.4177,2370.6288 c 0.7657,4.3426 1.5314,8.6851 2.2972 13.0277c 1.0084,-0.1778 2.0169,-0.3557 3.0253 -0.5335c 1.0958,6.2146 2.1916,12.4291 3.2874 18.6437c -1.0084,0.1779 -2.0169,0.3557 -3.0254 0.5335c 0.7657,4.3426 1.5315,8.6852 2.2972 13.0277c 1.0084,-0.1778 2.0169,-0.3556 3.0253 -0.5335c 0.2145,1.2165 0.4290,2.4329 0.6435 3.6494c 17.3326,-3.0562 34.6652,-6.1124 51.9978 -9.1686c -0.2145,-1.2164 -0.4290,-2.4329 -0.6435 -3.6494c 1.0085,-0.1778 2.0169,-0.3556 3.0254 -0.5334c -0.7657,-4.3426 -1.5314,-8.6852 -2.2972 -13.0278c -1.0084,0.1779 -2.0169,0.3557 -3.0253 0.5335c -1.0958,-6.2146 -2.1916,-12.4291 -3.2874 -18.6437c 1.0085,-0.1778 2.0169,-0.3556 3.0254 -0.5335c -0.7657,-4.3425 -1.5314,-8.6851 -2.2972 -13.0277c -1.0084,0.1778 -2.0169,0.3557 -3.0253 0.5335c -0.2145,-1.2164 -0.4290,-2.4329 -0.6435 -3.6493c -17.3326,3.0562 -34.6652,6.1124 -51.9978 9.1686c 0.2145,1.2164 0.4290,2.4329 0.6435 3.6493c -1.0085,0.1778 -2.0169,0.3557 -3.0254 0.5335ZM 195.8876,2441.3488 c 0.7657,4.3426 1.5315,8.6852 2.2972 13.0277c 1.0084,-0.1778 2.0169,-0.3556 3.0253 -0.5335c 1.0958,6.2146 2.1916,12.4292 3.2874 18.6437c -1.0084,0.1778 -2.0169,0.3556 -3.0254 0.5335c 0.7658,4.3425 1.5315,8.6851 2.2972 13.0277c 1.0084,-0.1779 2.0169,-0.3557 3.0253 -0.5335c 0.2145,1.2164 0.4290,2.4329 0.6435 3.6493c 17.3326,-3.0562 34.6653,-6.1124 51.9978 -9.1686c -0.2145,-1.2164 -0.4290,-2.4329 -0.6434 -3.6493c 1.0084,-0.1778 2.0169,-0.3557 3.0253 -0.5335c -0.7657,-4.3426 -1.5314,-8.6852 -2.2971 -13.0277c -1.0085,0.1778 -2.0169,0.3556 -3.0254 0.5335c -1.0958,-6.2146 -2.1916,-12.4292 -3.2874 -18.6437c 1.0084,-0.1778 2.0169,-0.3556 3.0253 -0.5334c -0.7657,-4.3426 -1.5314,-8.6852 -2.2971 -13.0278c -1.0085,0.1779 -2.0169,0.3557 -3.0254 0.5335c -0.2145,-1.2164 -0.4290,-2.4329 -0.6435 -3.6493c -17.3326,3.0562 -34.6652,6.1124 -51.9978 9.1686c 0.2145,1.2164 0.4290,2.4329 0.6435 3.6493c -1.0084,0.1779 -2.0169,0.3557 -3.0254 0.5335ZM 212.7904,2123.6661 c 0.7657,4.3426 1.5314,8.6852 2.2972 13.0277c 1.0084,-0.1778 2.0169,-0.3556 3.0253 -0.5334c 1.0958,6.2146 2.1916,12.4291 3.2874 18.6437c -1.0085,0.1778 -2.0169,0.3556 -3.0254 0.5335c 0.7657,4.3425 1.5314,8.6851 2.2972 13.0277c 1.0084,-0.1778 2.0169,-0.3557 3.0253 -0.5335c 0.2145,1.2164 0.4290,2.4329 0.6435 3.6493c 17.3326,-3.0562 34.6652,-6.1124 51.9978 -9.1686c -0.2145,-1.2164 -0.4290,-2.4329 -0.6435 -3.6493c 1.0085,-0.1778 2.0169,-0.3557 3.0254 -0.5335c -0.7657,-4.3426 -1.5315,-8.6851 -2.2972 -13.0277c -1.0084,0.1778 -2.0169,0.3557 -3.0253 0.5335c -1.0958,-6.2146 -2.1916,-12.4291 -3.2874 -18.6437c 1.0085,-0.1779 2.0169,-0.3557 3.0254 -0.5335c -0.7657,-4.3426 -1.5315,-8.6852 -2.2972 -13.0278c -1.0084,0.1779 -2.0169,0.3557 -3.0253 0.5335c -0.2145,-1.2164 -0.4290,-2.4329 -0.6435 -3.6493c -17.3326,3.0562 -34.6652,6.1124 -51.9978 9.1686c 0.2145,1.2164 0.4290,2.4329 0.6435 3.6493c -1.0085,0.1779 -2.0169,0.3557 -3.0254 0.5335ZM 225.2602,2194.3862 c 0.7657,4.3425 1.5315,8.6851 2.2972 13.0277c 1.0084,-0.1779 2.0169,-0.3557 3.0253 -0.5335c 1.0958,6.2146 2.1916,12.4291 3.2874 18.6437c -1.0084,0.1778 -2.0169,0.3557 -3.0254 0.5335c 0.7657,4.3426 1.5315,8.6851 2.2972 13.0277c 1.0084,-0.1778 2.0169,-0.3556 3.0253 -0.5335c 0.2145,1.2164 0.4290,2.4329 0.6435 3.6494c 17.3326,-3.0562 34.6653,-6.1124 51.9978 -9.1687c -0.2145,-1.2164 -0.4290,-2.4329 -0.6434 -3.6493c 1.0084,-0.1778 2.0169,-0.3556 3.0253 -0.5335c -0.7657,-4.3425 -1.5314,-8.6851 -2.2972 -13.0277c -1.0084,0.1778 -2.0169,0.3557 -3.0253 0.5335c -1.0958,-6.2146 -2.1916,-12.4291 -3.2874 -18.6437c 1.0084,-0.1778 2.0169,-0.3557 3.0253 -0.5335c -0.7657,-4.3426 -1.5314,-8.6852 -2.2972 -13.0277c -1.0084,0.1778 -2.0169,0.3556 -3.0253 0.5335c -0.2145,-1.2164 -0.4290,-2.4329 -0.6435 -3.6494c -17.3326,3.0562 -34.6652,6.1124 -51.9978 9.1686c 0.2145,1.2164 0.4290,2.4329 0.6435 3.6494c -1.0084,0.1778 -2.0169,0.3556 -3.0254 0.5335ZM 237.7301,2265.1062 c 0.7658,4.3426 1.5315,8.6851 2.2972 13.0277c 1.0084,-0.1778 2.0169,-0.3557 3.0254 -0.5335c 1.0958,6.2146 2.1915,12.4291 3.2874 18.6437c -1.0084,0.1779 -2.0169,0.3557 -3.0254 0.5335c 0.7658,4.3426 1.5315,8.6852 2.2972 13.0277c 1.0084,-0.1778 2.0169,-0.3556 3.0254 -0.5334c 0.2145,1.2164 0.4290,2.4329 0.6434 3.6493c 17.3326,-3.0562 34.6653,-6.1124 51.9979 -9.1686c -0.2145,-1.2164 -0.4290,-2.4329 -0.6435 -3.6493c 1.0084,-0.1779 2.0169,-0.3557 3.0253 -0.5335c -0.7657,-4.3426 -1.5314,-8.6852 -2.2971 -13.0278c -1.0084,0.1779 -2.0169,0.3557 -3.0254 0.5335c -1.0958,-6.2146 -2.1916,-12.4291 -3.2874 -18.6437c 1.0084,-0.1778 2.0169,-0.3556 3.0253 -0.5335c -0.7657,-4.3425 -1.5314,-8.6851 -2.2971 -13.0277c -1.0085,0.1778 -2.0169,0.3557 -3.0254 0.5335c -0.2145,-1.2164 -0.4290,-2.4329 -0.6435 -3.6493c -17.3326,3.0562 -34.6652,6.1124 -51.9978 9.1686c 0.2145,1.2164 0.4290,2.4329 0.6435 3.6493c -1.0084,0.1778 -2.0169,0.3557 -3.0254 0.5335ZM 250.2000,2335.8263 c 0.7657,4.3426 1.5314,8.6852 2.2971 13.0277c 1.0084,-0.1778 2.0169,-0.3556 3.0254 -0.5334c 1.0958,6.2146 2.1916,12.4291 3.2874 18.6437c -1.0084,0.1778 -2.0169,0.3556 -3.0253 0.5335c 0.7657,4.3425 1.5314,8.6851 2.2971 13.0277c 1.0084,-0.1779 2.0169,-0.3557 3.0254 -0.5335c 0.2145,1.2164 0.4290,2.4329 0.6435 3.6493c 17.3326,-3.0562 34.6652,-6.1124 51.9978 -9.1686c -0.2145,-1.2164 -0.4290,-2.4329 -0.6435 -3.6493c 1.0084,-0.1778 2.0169,-0.3557 3.0253 -0.5335c -0.7657,-4.3426 -1.5314,-8.6852 -2.2971 -13.0277c -1.0084,0.1778 -2.0169,0.3556 -3.0254 0.5335c -1.0958,-6.2146 -2.1916,-12.4291 -3.2874 -18.6437c 1.0084,-0.1778 2.0169,-0.3556 3.0253 -0.5334c -0.7657,-4.3426 -1.5314,-8.6852 -2.2971 -13.0278c -1.0084,0.1779 -2.0169,0.3557 -3.0254 0.5335c -0.2145,-1.2164 -0.4290,-2.4329 -0.6434 -3.6493c -17.3326,3.0562 -34.6653,6.1124 -51.9979 9.1686c 0.2145,1.2164 0.4290,2.4329 0.6435 3.6493c -1.0084,0.1779 -2.0169,0.3557 -3.0253 0.5335ZM 262.6698,2406.5464 c 0.7657,4.3425 1.5314,8.6851 2.2971 13.0277c 1.0085,-0.1779 2.0169,-0.3557 3.0254 -0.5335c 1.0958,6.2146 2.1916,12.4291 3.2874 18.6437c -1.0084,0.1778 -2.0169,0.3557 -3.0253 0.5335c 0.7657,4.3426 1.5314,8.6851 2.2972 13.0277c 1.0084,-0.1778 2.0169,-0.3556 3.0253 -0.5335c 0.2145,1.2164 0.4290,2.4329 0.6435 3.6494c 17.3326,-3.0562 34.6652,-6.1124 51.9978 -9.1687c -0.2145,-1.2164 -0.4290,-2.4329 -0.6435 -3.6493c 1.0084,-0.1778 2.0169,-0.3556 3.0254 -0.5335c -0.7657,-4.3425 -1.5315,-8.6851 -2.2972 -13.0277c -1.0084,0.1778 -2.0169,0.3557 -3.0253 0.5335c -1.0958,-6.2146 -2.1916,-12.4291 -3.2874 -18.6437c 1.0084,-0.1778 2.0169,-0.3557 3.0254 -0.5335c -0.7658,-4.3426 -1.5315,-8.6852 -2.2972 -13.0277c -1.0084,0.1778 -2.0169,0.3556 -3.0253 0.5335c -0.2145,-1.2165 -0.4290,-2.4329 -0.6435 -3.6494c -17.3326,3.0562 -34.6653,6.1124 -51.9978 9.1686c 0.2145,1.2164 0.4290,2.4329 0.6434 3.6494c -1.0084,0.1778 -2.0169,0.3556 -3.0253 0.5335ZM 286.7920,2129.8068 c 0.7657,4.3426 1.5315,8.6852 2.2972 13.0278c 1.0084,-0.1779 2.0169,-0.3557 3.0253 -0.5335c 1.0958,6.2146 2.1916,12.4291 3.2874 18.6437c -1.0085,0.1778 -2.0169,0.3557 -3.0254 0.5335c 0.7657,4.3425 1.5315,8.6851 2.2972 13.0277c 1.0084,-0.1778 2.0169,-0.3557 3.0253 -0.5335c 0.2145,1.2164 0.4290,2.4329 0.6435 3.6493c 17.3326,-3.0562 34.6652,-6.1124 51.9978 -9.1686c -0.2145,-1.2164 -0.4290,-2.4329 -0.6435 -3.6493c 1.0085,-0.1778 2.0169,-0.3557 3.0254 -0.5335c -0.7657,-4.3426 -1.5314,-8.6851 -2.2972 -13.0277c -1.0084,0.1778 -2.0169,0.3557 -3.0253 0.5335c -1.0958,-6.2146 -2.1916,-12.4291 -3.2874 -18.6437c 1.0085,-0.1779 2.0169,-0.3557 3.0254 -0.5335c -0.7657,-4.3426 -1.5315,-8.6852 -2.2972 -13.0277c -1.0084,0.1778 -2.0169,0.3556 -3.0253 0.5334c -0.2145,-1.2164 -0.4290,-2.4329 -0.6435 -3.6493c -17.3326,3.0562 -34.6652,6.1124 -51.9978 9.1686c 0.2145,1.2164 0.4290,2.4329 0.6434 3.6494c -1.0084,0.1778 -2.0169,0.3556 -3.0253 0.5334ZM 299.2618,2200.5269 c 0.7657,4.3425 1.5315,8.6851 2.2972 13.0277c 1.0084,-0.1778 2.0169,-0.3557 3.0253 -0.5335c 1.0958,6.2146 2.1916,12.4291 3.2874 18.6437c -1.0084,0.1779 -2.0169,0.3557 -3.0254 0.5335c 0.7658,4.3426 1.5315,8.6852 2.2972 13.0277c 1.0084,-0.1778 2.0169,-0.3556 3.0253 -0.5335c 0.2145,1.2165 0.4290,2.4329 0.6435 3.6494c 17.3326,-3.0562 34.6653,-6.1124 51.9978 -9.1686c -0.2145,-1.2164 -0.4290,-2.4329 -0.6434 -3.6494c 1.0084,-0.1778 2.0169,-0.3556 3.0253 -0.5335c -0.7657,-4.3425 -1.5314,-8.6851 -2.2971 -13.0277c -1.0085,0.1779 -2.0169,0.3557 -3.0254 0.5335c -1.0958,-6.2146 -2.1916,-12.4291 -3.2874 -18.6437c 1.0084,-0.1778 2.0169,-0.3557 3.0253 -0.5335c -0.7657,-4.3426 -1.5314,-8.6851 -2.2971 -13.0277c -1.0085,0.1778 -2.0169,0.3556 -3.0254 0.5335c -0.2145,-1.2164 -0.4290,-2.4329 -0.6435 -3.6494c -17.3326,3.0563 -34.6652,6.1125 -51.9978 9.1687c 0.2145,1.2164 0.4290,2.4329 0.6435 3.6493c -1.0084,0.1778 -2.0169,0.3556 -3.0254 0.5335ZM 311.7317,2271.2469 c 0.7657,4.3426 1.5314,8.6851 2.2971 13.0277c 1.0084,-0.1778 2.0169,-0.3556 3.0254 -0.5335c 1.0958,6.2146 2.1916,12.4292 3.2874 18.6437c -1.0084,0.1778 -2.0169,0.3556 -3.0253 0.5334c 0.7657,4.3426 1.5314,8.6852 2.2971 13.0278c 1.0084,-0.1779 2.0169,-0.3557 3.0254 -0.5335c 0.2145,1.2164 0.4290,2.4329 0.6434 3.6493c 17.3326,-3.0562 34.6653,-6.1124 51.9979 -9.1686c -0.2145,-1.2164 -0.4290,-2.4329 -0.6435 -3.6493c 1.0084,-0.1779 2.0169,-0.3557 3.0253 -0.5335c -0.7657,-4.3426 -1.5314,-8.6852 -2.2971 -13.0277c -1.0084,0.1778 -2.0169,0.3556 -3.0254 0.5334c -1.0958,-6.2146 -2.1916,-12.4291 -3.2874 -18.6437c 1.0084,-0.1778 2.0169,-0.3556 3.0253 -0.5335c -0.7657,-4.3425 -1.5314,-8.6851 -2.2971 -13.0277c -1.0084,0.1779 -2.0169,0.3557 -3.0254 0.5335c -0.2145,-1.2164 -0.4290,-2.4329 -0.6435 -3.6493c -17.3326,3.0562 -34.6652,6.1124 -51.9978 9.1686c 0.2145,1.2164 0.4290,2.4329 0.6435 3.6493c -1.0084,0.1779 -2.0169,0.3557 -3.0253 0.5335ZM 324.2015,2341.9670 c 0.7657,4.3426 1.5314,8.6852 2.2971 13.0277c 1.0084,-0.1778 2.0169,-0.3556 3.0254 -0.5334c 1.0958,6.2146 2.1916,12.4291 3.2874 18.6437c -1.0084,0.1778 -2.0169,0.3557 -3.0253 0.5335c 0.7657,4.3425 1.5314,8.6851 2.2971 13.0277c 1.0085,-0.1778 2.0169,-0.3557 3.0254 -0.5335c 0.2145,1.2164 0.4290,2.4329 0.6435 3.6493c 17.3326,-3.0562 34.6652,-6.1124 51.9978 -9.1686c -0.2145,-1.2164 -0.4290,-2.4329 -0.6435 -3.6493c 1.0084,-0.1778 2.0169,-0.3557 3.0254 -0.5335c -0.7658,-4.3426 -1.5315,-8.6851 -2.2972 -13.0277c -1.0084,0.1778 -2.0169,0.3556 -3.0254 0.5335c -1.0958,-6.2146 -2.1915,-12.4291 -3.2874 -18.6437c 1.0084,-0.1779 2.0169,-0.3557 3.0254 -0.5335c -0.7658,-4.3426 -1.5315,-8.6852 -2.2972 -13.0277c -1.0084,0.1778 -2.0169,0.3556 -3.0254 0.5334c -0.2145,-1.2164 -0.4290,-2.4329 -0.6434 -3.6493c -17.3326,3.0562 -34.6653,6.1124 -51.9979 9.1686c 0.2145,1.2164 0.4290,2.4329 0.6435 3.6494c -1.0084,0.1778 -2.0169,0.3556 -3.0253 0.5334ZM 336.6714,2412.6871 c 0.7657,4.3425 1.5314,8.6851 2.2972 13.0277c 1.0084,-0.1778 2.0169,-0.3557 3.0253 -0.5335c 1.0958,6.2146 2.1916,12.4291 3.2874 18.6437c -1.0084,0.1779 -2.0169,0.3557 -3.0253 0.5335c 0.7657,4.3426 1.5314,8.6851 2.2972 13.0277c 1.0084,-0.1778 2.0169,-0.3556 3.0253 -0.5335c 0.2145,1.2164 0.4290,2.4329 0.6435 3.6494c 17.3326,-3.0562 34.6652,-6.1124 51.9978 -9.1686c -0.2145,-1.2165 -0.4290,-2.4329 -0.6435 -3.6494c 1.0084,-0.1778 2.0169,-0.3556 3.0254 -0.5335c -0.7657,-4.3425 -1.5315,-8.6851 -2.2972 -13.0277c -1.0084,0.1779 -2.0169,0.3557 -3.0253 0.5335c -1.0958,-6.2146 -2.1916,-12.4291 -3.2874 -18.6437c 1.0085,-0.1778 2.0169,-0.3557 3.0254 -0.5335c -0.7657,-4.3426 -1.5315,-8.6851 -2.2972 -13.0277c -1.0084,0.1778 -2.0169,0.3556 -3.0253 0.5335c -0.2145,-1.2164 -0.4290,-2.4329 -0.6435 -3.6494c -17.3326,3.0562 -34.6652,6.1124 -51.9978 9.1686c 0.2145,1.2165 0.4290,2.4329 0.6434 3.6494c -1.0084,0.1778 -2.0169,0.3556 -3.0253 0.5335ZM 359.4809,2128.5033 c 0.7658,4.3426 1.5315,8.6852 2.2972 13.0278c 1.0084,-0.1779 2.0169,-0.3557 3.0253 -0.5335c 1.0958,6.2146 2.1916,12.4291 3.2874 18.6437c -1.0084,0.1778 -2.0169,0.3557 -3.0254 0.5335c 0.7658,4.3425 1.5315,8.6851 2.2972 13.0277c 1.0084,-0.1778 2.0169,-0.3557 3.0253 -0.5335c 0.2145,1.2164 0.4290,2.4329 0.6435 3.6493c 17.3326,-3.0562 34.6653,-6.1124 51.9978 -9.1686c -0.2145,-1.2164 -0.4290,-2.4329 -0.6434 -3.6493c 1.0084,-0.1778 2.0169,-0.3557 3.0253 -0.5335c -0.7657,-4.3426 -1.5314,-8.6851 -2.2971 -13.0277c -1.0085,0.1778 -2.0169,0.3557 -3.0254 0.5335c -1.0958,-6.2146 -2.1916,-12.4291 -3.2874 -18.6437c 1.0084,-0.1779 2.0169,-0.3557 3.0253 -0.5335c -0.7657,-4.3426 -1.5314,-8.6852 -2.2972 -13.0277c -1.0084,0.1778 -2.0169,0.3556 -3.0253 0.5334c -0.2145,-1.2164 -0.4290,-2.4329 -0.6435 -3.6493c -17.3326,3.0562 -34.6652,6.1124 -51.9978 9.1686c 0.2145,1.2164 0.4290,2.4329 0.6435 3.6494c -1.0084,0.1778 -2.0169,0.3556 -3.0254 0.5334ZM 371.9508,2199.2234 c 0.7657,4.3425 1.5314,8.6851 2.2971 13.0277c 1.0084,-0.1778 2.0169,-0.3557 3.0254 -0.5335c 1.0958,6.2146 2.1916,12.4291 3.2874 18.6437c -1.0084,0.1779 -2.0169,0.3557 -3.0253 0.5335c 0.7657,4.3426 1.5314,8.6852 2.2971 13.0277c 1.0084,-0.1778 2.0169,-0.3556 3.0254 -0.5335c 0.2145,1.2165 0.4290,2.4329 0.6434 3.6494c 17.3326,-3.0562 34.6653,-6.1124 51.9979 -9.1686c -0.2145,-1.2164 -0.4290,-2.4329 -0.6435 -3.6494c 1.0084,-0.1778 2.0169,-0.3556 3.0253 -0.5335c -0.7657,-4.3425 -1.5314,-8.6851 -2.2971 -13.0277c -1.0084,0.1779 -2.0169,0.3557 -3.0254 0.5335c -1.0958,-6.2146 -2.1916,-12.4291 -3.2874 -18.6437c 1.0084,-0.1778 2.0169,-0.3557 3.0253 -0.5335c -0.7657,-4.3426 -1.5314,-8.6851 -2.2971 -13.0277c -1.0084,0.1778 -2.0169,0.3556 -3.0254 0.5335c -0.2145,-1.2164 -0.4290,-2.4329 -0.6434 -3.6494c -17.3326,3.0563 -34.6653,6.1125 -51.9979 9.1687c 0.2145,1.2164 0.4290,2.4329 0.6435 3.6493c -1.0084,0.1778 -2.0169,0.3556 -3.0253 0.5335ZM 384.4207,2269.9434 c 0.7657,4.3426 1.5314,8.6851 2.2971 13.0277c 1.0084,-0.1778 2.0169,-0.3556 3.0254 -0.5335c 1.0958,6.2146 2.1916,12.4292 3.2874 18.6437c -1.0084,0.1778 -2.0169,0.3556 -3.0253 0.5334c 0.7657,4.3426 1.5314,8.6852 2.2971 13.0278c 1.0085,-0.1779 2.0169,-0.3557 3.0254 -0.5335c 0.2145,1.2164 0.4290,2.4329 0.6435 3.6493c 17.3326,-3.0562 34.6652,-6.1124 51.9978 -9.1686c -0.2145,-1.2164 -0.4290,-2.4329 -0.6435 -3.6493c 1.0084,-0.1779 2.0169,-0.3557 3.0254 -0.5335c -0.7658,-4.3426 -1.5315,-8.6852 -2.2972 -13.0277c -1.0084,0.1778 -2.0169,0.3556 -3.0254 0.5334c -1.0958,-6.2146 -2.1915,-12.4291 -3.2874 -18.6437c 1.0084,-0.1778 2.0169,-0.3556 3.0254 -0.5335c -0.7658,-4.3425 -1.5315,-8.6851 -2.2972 -13.0277c -1.0084,0.1778 -2.0169,0.3557 -3.0254 0.5335c -0.2145,-1.2164 -0.4290,-2.4329 -0.6434 -3.6493c -17.3326,3.0562 -34.6653,6.1124 -51.9978 9.1686c 0.2145,1.2164 0.4290,2.4329 0.6434 3.6493c -1.0084,0.1779 -2.0169,0.3557 -3.0253 0.5335ZM 396.8905,2340.6634 c 0.7657,4.3426 1.5314,8.6852 2.2972 13.0277c 1.0084,-0.1778 2.0169,-0.3556 3.0253 -0.5334c 1.0958,6.2146 2.1916,12.4291 3.2874 18.6437c -1.0084,0.1778 -2.0169,0.3557 -3.0253 0.5335c 0.7657,4.3425 1.5314,8.6851 2.2972 13.0277c 1.0084,-0.1778 2.0169,-0.3557 3.0253 -0.5335c 0.2145,1.2164 0.4290,2.4329 0.6435 3.6493c 17.3326,-3.0562 34.6652,-6.1124 51.9978 -9.1686c -0.2145,-1.2164 -0.4290,-2.4329 -0.6435 -3.6493c 1.0084,-0.1778 2.0169,-0.3557 3.0254 -0.5335c -0.7657,-4.3426 -1.5315,-8.6851 -2.2972 -13.0277c -1.0084,0.1778 -2.0169,0.3556 -3.0253 0.5335c -1.0958,-6.2146 -2.1916,-12.4291 -3.2874 -18.6437c 1.0084,-0.1779 2.0169,-0.3557 3.0254 -0.5335c -0.7657,-4.3426 -1.5315,-8.6852 -2.2972 -13.0277c -1.0084,0.1778 -2.0169,0.3556 -3.0253 0.5334c -0.2145,-1.2164 -0.4290,-2.4329 -0.6435 -3.6493c -17.3326,3.0562 -34.6652,6.1124 -51.9978 9.1686c 0.2145,1.2164 0.4290,2.4329 0.6434 3.6494c -1.0084,0.1778 -2.0169,0.3556 -3.0253 0.5334ZM 409.3604,2411.3835 c 0.7657,4.3425 1.5315,8.6851 2.2972 13.0277c 1.0084,-0.1778 2.0169,-0.3557 3.0253 -0.5335c 1.0958,6.2146 2.1916,12.4291 3.2874 18.6437c -1.0084,0.1779 -2.0169,0.3557 -3.0254 0.5335c 0.7657,4.3426 1.5315,8.6851 2.2972 13.0277c 1.0084,-0.1778 2.0169,-0.3556 3.0253 -0.5335c 0.2145,1.2164 0.4290,2.4329 0.6435 3.6494c 17.3326,-3.0562 34.6652,-6.1124 51.9978 -9.1686c -0.2145,-1.2165 -0.4290,-2.4329 -0.6434 -3.6494c 1.0084,-0.1778 2.0169,-0.3556 3.0253 -0.5335c -0.7657,-4.3425 -1.5314,-8.6851 -2.2972 -13.0277c -1.0084,0.1778 -2.0169,0.3557 -3.0253 0.5335c -1.0958,-6.2146 -2.1916,-12.4291 -3.2874 -18.6437c 1.0085,-0.1778 2.0169,-0.3557 3.0254 -0.5335c -0.7657,-4.3426 -1.5314,-8.6851 -2.2972 -13.0277c -1.0084,0.1778 -2.0169,0.3556 -3.0253 0.5335c -0.2145,-1.2164 -0.4290,-2.4329 -0.6435 -3.6494c -17.3326,3.0562 -34.6652,6.1124 -51.9978 9.1687c 0.2145,1.2164 0.4290,2.4329 0.6435 3.6493c -1.0084,0.1778 -2.0169,0.3556 -3.0254 0.5335ZM 430.8573,2119.7555 c 0.7657,4.3426 1.5314,8.6852 2.2971 13.0277c 1.0084,-0.1778 2.0169,-0.3556 3.0254 -0.5334c 1.0958,6.2146 2.1916,12.4291 3.2874 18.6437c -1.0084,0.1778 -2.0169,0.3556 -3.0253 0.5335c 0.7657,4.3425 1.5314,8.6851 2.2971 13.0277c 1.0084,-0.1778 2.0169,-0.3557 3.0254 -0.5335c 0.2145,1.2164 0.4290,2.4329 0.6434 3.6493c 17.3326,-3.0562 34.6653,-6.1124 51.9979 -9.1686c -0.2145,-1.2164 -0.4290,-2.4329 -0.6435 -3.6493c 1.0084,-0.1778 2.0169,-0.3557 3.0254 -0.5335c -0.7658,-4.3426 -1.5315,-8.6851 -2.2972 -13.0277c -1.0084,0.1778 -2.0169,0.3556 -3.0254 0.5335c -1.0958,-6.2146 -2.1916,-12.4291 -3.2874 -18.6437c 1.0084,-0.1779 2.0169,-0.3557 3.0253 -0.5335c -0.7657,-4.3426 -1.5314,-8.6852 -2.2971 -13.0278c -1.0084,0.1779 -2.0169,0.3557 -3.0254 0.5335c -0.2145,-1.2164 -0.4290,-2.4329 -0.6434 -3.6493c -17.3326,3.0562 -34.6653,6.1124 -51.9979 9.1686c 0.2145,1.2164 0.4290,2.4329 0.6435 3.6493c -1.0084,0.1779 -2.0169,0.3557 -3.0253 0.5335ZM 443.3272,2190.4756 c 0.7657,4.3425 1.5314,8.6851 2.2971 13.0277c 1.0084,-0.1779 2.0169,-0.3557 3.0254 -0.5335c 1.0958,6.2146 2.1916,12.4291 3.2874 18.6437c -1.0084,0.1778 -2.0169,0.3557 -3.0253 0.5335c 0.7657,4.3426 1.5314,8.6851 2.2971 13.0277c 1.0085,-0.1778 2.0169,-0.3556 3.0254 -0.5335c 0.2145,1.2164 0.4290,2.4329 0.6435 3.6494c 17.3326,-3.0562 34.6652,-6.1124 51.9978 -9.1687c -0.2145,-1.2164 -0.4290,-2.4329 -0.6435 -3.6493c 1.0084,-0.1778 2.0169,-0.3556 3.0254 -0.5335c -0.7658,-4.3425 -1.5315,-8.6851 -2.2972 -13.0277c -1.0084,0.1778 -2.0169,0.3557 -3.0253 0.5335c -1.0958,-6.2146 -2.1916,-12.4291 -3.2874 -18.6437c 1.0084,-0.1779 2.0169,-0.3557 3.0254 -0.5335c -0.7657,-4.3426 -1.5315,-8.6852 -2.2972 -13.0277c -1.0084,0.1778 -2.0169,0.3556 -3.0254 0.5335c -0.2145,-1.2164 -0.4290,-2.4329 -0.6434 -3.6494c -17.3326,3.0562 -34.6653,6.1124 -51.9978 9.1686c 0.2145,1.2165 0.4290,2.4329 0.6434 3.6494c -1.0084,0.1778 -2.0169,0.3556 -3.0253 0.5335ZM 455.7970,2261.1957 c 0.7657,4.3426 1.5314,8.6851 2.2972 13.0277c 1.0084,-0.1778 2.0169,-0.3556 3.0253 -0.5335c 1.0958,6.2146 2.1916,12.4291 3.2874 18.6437c -1.0085,0.1779 -2.0169,0.3557 -3.0254 0.5335c 0.7657,4.3426 1.5314,8.6852 2.2972 13.0277c 1.0084,-0.1778 2.0169,-0.3556 3.0253 -0.5334c 0.2145,1.2164 0.4290,2.4329 0.6435 3.6493c 17.3326,-3.0562 34.6652,-6.1124 51.9978 -9.1686c -0.2145,-1.2164 -0.4290,-2.4329 -0.6435 -3.6493c 1.0084,-0.1779 2.0169,-0.3557 3.0254 -0.5335c -0.7657,-4.3426 -1.5315,-8.6852 -2.2972 -13.0277c -1.0084,0.1778 -2.0169,0.3556 -3.0253 0.5334c -1.0958,-6.2146 -2.1916,-12.4291 -3.2874 -18.6437c 1.0085,-0.1778 2.0169,-0.3557 3.0254 -0.5335c -0.7657,-4.3425 -1.5315,-8.6851 -2.2972 -13.0277c -1.0084,0.1778 -2.0169,0.3557 -3.0253 0.5335c -0.2145,-1.2164 -0.4290,-2.4329 -0.6435 -3.6493c -17.3326,3.0562 -34.6652,6.1124 -51.9978 9.1686c 0.2145,1.2164 0.4290,2.4329 0.6434 3.6493c -1.0084,0.1778 -2.0169,0.3557 -3.0253 0.5335ZM 468.2669,2331.9157 c 0.7657,4.3426 1.5315,8.6852 2.2972 13.0277c 1.0084,-0.1778 2.0169,-0.3556 3.0253 -0.5334c 1.0958,6.2146 2.1916,12.4291 3.2874 18.6437c -1.0084,0.1778 -2.0169,0.3556 -3.0254 0.5335c 0.7657,4.3425 1.5315,8.6851 2.2972 13.0277c 1.0084,-0.1779 2.0169,-0.3557 3.0253 -0.5335c 0.2145,1.2164 0.4290,2.4329 0.6435 3.6493c 17.3326,-3.0562 34.6652,-6.1124 51.9978 -9.1686c -0.2145,-1.2164 -0.4290,-2.4329 -0.6434 -3.6493c 1.0084,-0.1779 2.0169,-0.3557 3.0253 -0.5335c -0.7657,-4.3426 -1.5314,-8.6851 -2.2971 -13.0277c -1.0085,0.1778 -2.0169,0.3556 -3.0254 0.5335c -1.0958,-6.2146 -2.1916,-12.4291 -3.2874 -18.6437c 1.0084,-0.1778 2.0169,-0.3556 3.0253 -0.5334c -0.7657,-4.3426 -1.5314,-8.6852 -2.2972 -13.0278c -1.0084,0.1779 -2.0169,0.3557 -3.0253 0.5335c -0.2145,-1.2164 -0.4290,-2.4329 -0.6435 -3.6493c -17.3326,3.0562 -34.6652,6.1124 -51.9978 9.1686c 0.2145,1.2164 0.4290,2.4329 0.6435 3.6493c -1.0084,0.1779 -2.0169,0.3557 -3.0254 0.5335ZM 480.7367,2402.6358 c 0.7658,4.3425 1.5315,8.6851 2.2972 13.0277c 1.0084,-0.1778 2.0169,-0.3557 3.0254 -0.5335c 1.0958,6.2146 2.1916,12.4291 3.2874 18.6437c -1.0084,0.1778 -2.0169,0.3557 -3.0254 0.5335c 0.7658,4.3426 1.5315,8.6851 2.2972 13.0277c 1.0084,-0.1778 2.0169,-0.3556 3.0254 -0.5335c 0.2145,1.2164 0.4290,2.4329 0.6434 3.6494c 17.3326,-3.0562 34.6653,-6.1124 51.9978 -9.1686c -0.2145,-1.2165 -0.4290,-2.4329 -0.6434 -3.6494c 1.0084,-0.1778 2.0169,-0.3557 3.0253 -0.5335c -0.7657,-4.3425 -1.5314,-8.6851 -2.2971 -13.0277c -1.0084,0.1778 -2.0169,0.3557 -3.0254 0.5335c -1.0958,-6.2146 -2.1916,-12.4291 -3.2874 -18.6437c 1.0084,-0.1779 2.0169,-0.3557 3.0253 -0.5335c -0.7657,-4.3426 -1.5314,-8.6852 -2.2971 -13.0277c -1.0085,0.1778 -2.0169,0.3556 -3.0254 0.5335c -0.2145,-1.2165 -0.4290,-2.4329 -0.6435 -3.6494c -17.3326,3.0562 -34.6652,6.1124 -51.9978 9.1686c 0.2145,1.2164 0.4290,2.4329 0.6435 3.6494c -1.0084,0.1778 -2.0169,0.3556 -3.0254 0.5335ZM 503.8518,2082.8974 c 0.0000,0.3268 0.0284,0.6581 0.0871 0.9911c 0.5437,3.0835 3.4841,5.1424 6.5676 4.5987c 2.7505,-0.4850 4.6858,-2.8770 4.6858 -5.5765c 0.0000,-0.3268 -0.0284,-0.6581 -0.0871 -0.9911c -0.5437,-3.0835 -3.4841,-5.1424 -6.5676 -4.5987c -2.7505,0.4850 -4.6858,2.8770 -4.6858 5.5765ZM 568.7284,2455.1837 c 0.0000,0.3268 0.0284,0.6581 0.0871 0.9911c 0.5437,3.0835 3.4841,5.1424 6.5676 4.5987c 2.7505,-0.4850 4.6858,-2.8770 4.6858 -5.5765c 0.0000,-0.3268 -0.0284,-0.6581 -0.0871 -0.9911c -0.5437,-3.0835 -3.4841,-5.1424 -6.5676 -4.5987c -2.7505,0.4850 -4.6858,2.8770 -4.6858 5.5765Z"/></g><g stroke-linejoin="miter" stroke-opacity="1.0" fill-opacity="0.5" stroke="rgb(0,0,0)" stroke-width="0.7559055118110237" fill="rgb(0,0,255)" stroke-linecap="butt" stroke-miterlimit="10.0"><path d="M 3.9685,2079.0913 c 0.0000,-6.7840 5.4995,-12.2834 12.2834 -12.2834c 165.5969,-0.0000 331.1938,-0.0000 496.7907 -0.0000c 5.9611,-0.0000 11.0617,4.2799 12.0969 10.1504c 22.0904,125.2810 44.1809,250.5621 66.2713 375.8431c 0.1270,0.7200 0.1884,1.4371 0.1884 2.1449c 0.0000,5.6184 -3.8689,10.6526 -9.5242 11.9572c -139.2999,32.1341 -278.5998,64.2681 -417.8997 96.4022c -0.9055,0.2089 -1.8318,0.3143 -2.7611 0.3143c -48.3874,-0.0000 -96.7748,-0.0000 -145.1622 -0.0000c -6.7840,-0.0000 -12.2834,-5.4995 -12.2834 -12.2834c 0.0000,-157.4151 0.0000,-314.8302 -0.0000 -472.2453ZM 39.6970,2438.0706 c 0.0000,0.2179 0.0189,0.4388 0.0581 0.6607c 4.0953,23.2260 8.1907,46.4519 12.2861 69.6779c 0.3625,2.0557 2.3227,3.4283 4.3784 3.0658c 22.3326,-3.9378 44.6653,-7.8757 66.9979 -11.8135c 1.8595,10.5460 3.7191,21.0919 5.5786 31.6379c 0.3625,2.0557 2.3227,3.4283 4.3784 3.0658c 23.2260,-4.0953 46.4519,-8.1907 69.6779 -12.2861c 1.8337,-0.3233 3.1239,-1.9180 3.1239 -3.7177c 0.0000,-0.2179 -0.0189,-0.4388 -0.0581 -0.6607c -0.8750,-4.9628 -1.7501,-9.9256 -2.6252 -14.8884c 22.3327,-3.9379 44.6653,-7.8757 66.9980 -11.8135c 1.8337,-0.3234 3.1238,-1.9180 3.1238 -3.7177c 0.0000,-0.2179 -0.0189,-0.4388 -0.0580 -0.6608c -1.0938,-6.2035 -2.1877,-12.4070 -3.2816 -18.6105c 21.4393,-3.7803 42.8787,-7.5607 64.3180 -11.3410c 0.8750,4.9628 1.7501,9.9256 2.6252 14.8884c 0.3625,2.0557 2.3227,3.4283 4.3784 3.0658c 22.3326,-3.9379 44.6653,-7.8757 66.9979 -11.8135c 0.4375,2.4814 0.8750,4.9628 1.3126 7.4442c 0.3625,2.0557 2.3227,3.4283 4.3784 3.0658c 22.3326,-3.9379 44.6653,-7.8757 66.9979 -11.8135c 0.3625,2.0557 2.3227,3.4283 4.3784 3.0658c 23.2260,-4.0953 46.4519,-8.1907 69.6779 -12.2861c 1.8337,-0.3233 3.1238,-1.9180 3.1238 -3.7177c 0.0000,-0.2179 -0.0189,-0.4388 -0.0580 -0.6607c -4.0953,-23.2260 -8.1907,-46.4519 -12.2861 -69.6779c -0.0312,-0.1769 -0.0742,-0.3486 -0.1281 -0.5147c -0.0062,-0.1745 -0.0245,-0.3506 -0.0557 -0.5274c -4.0954,-23.2260 -8.1907,-46.4519 -12.2861 -69.6779c -0.0312,-0.1769 -0.0742,-0.3486 -0.1281 -0.5147c -0.0062,-0.1745 -0.0245,-0.3506 -0.0557 -0.5275c -4.0954,-23.2260 -8.1907,-46.4519 -12.2861 -69.6779c -0.0311,-0.1769 -0.0742,-0.3486 -0.1281 -0.5147c -0.0062,-0.1745 -0.0245,-0.3506 -0.0557 -0.5274c -4.0953,-23.2260 -8.1907,-46.4519 -12.2861 -69.6779c -0.0312,-0.1769 -0.0742,-0.3486 -0.1281 -0.5147c -0.0062,-0.1745 -0.0245,-0.3506 -0.0557 -0.5275c -4.0953,-23.2259 -8.1907,-46.4519 -12.2861 -69.6778c -0.3625,-2.0557 -2.3227,-3.4283 -4.3784 -3.0658c -22.3327,3.9378 -44.6653,7.8757 -66.9979 11.8135c -0.3625,-2.0557 -2.3227,-3.4283 -4.3784 -3.0658c -22.3327,3.9378 -44.6653,7.8757 -66.9980 11.8135c -0.4375,-2.4814 -0.8750,-4.9628 -1.3126 -7.4442c -0.3625,-2.0557 -2.3227,-3.4283 -4.3784 -3.0658c -22.3326,3.9379 -44.6653,7.8757 -66.9979 11.8135c -0.8751,-4.9628 -1.7501,-9.9256 -2.6252 -14.8884c -0.3625,-2.0557 -2.3227,-3.4283 -4.3784 -3.0658c -23.2260,4.0953 -46.4519,8.1907 -69.6779 12.2861c -1.8337,0.3233 -3.1238,1.9180 -3.1238 3.7177c 0.0000,0.2178 0.0189,0.4387 0.0580 0.6607c 1.0938,6.2035 2.1877,12.4070 3.2816 18.6105c -22.3326,3.9379 -44.6653,7.8757 -66.9979 11.8135c -1.8337,0.3234 -3.1239,1.9180 -3.1239 3.7177c 0.0000,0.2179 0.0189,0.4388 0.0581 0.6607c 0.8750,4.9628 1.7501,9.9256 2.6252 14.8885c -22.3327,3.9378 -44.6653,7.8757 -66.9980 11.8135c -1.8337,0.3233 -3.1238,1.9180 -3.1238 3.7177c 0.0000,0.2179 0.0189,0.4388 0.0580 0.6607c 4.0954,23.2260 8.1907,46.4519 12.2861 69.6779c 0.0312,0.1769 0.0742,0.3486 0.1281 0.5147c 0.0062,0.1745 0.0245,0.3506 0.0557 0.5275c 4.0953,23.2260 8.1907,46.4519 12.2861 69.6779c 0.0311,0.1769 0.0742,0.3486 0.1280 0.5147c 0.0062,0.1745 0.0245,0.3507 0.0557 0.5275c 4.0953,23.2259 8.1907,46.4519 12.2861 69.6778c 0.0311,0.1769 0.0742,0.3486 0.1281 0.5147c 0.0062,0.1745 0.0245,0.3506 0.0557 0.5275c 1.8595,10.5460 3.7191,21.0919 5.5786 31.6379c -22.3326,3.9379 -44.6653,7.8757 -66.9979 11.8135c -1.8337,0.3233 -3.1239,1.9180 -3.1239 3.7177ZM 48.3770,2082.8974 c 0.0000,0.3268 0.0284,0.6581 0.0871 0.9911c 0.5437,3.0835 3.4841,5.1424 6.5676 4.5987c 2.7505,-0.4850 4.6858,-2.8770 4.6858 -5.5765c 0.0000,-0.3268 -0.0284,-0.6581 -0.0871 -0.9911c -0.5437,-3.0835 -3.4841,-5.1424 -6.5676 -4.5987c -2.7505,0.4850 -4.6858,2.8770 -4.6858 5.5765ZM 165.5836,2545.4581 c 0.0000,0.3268 0.0284,0.6581 0.0870 0.9911c 0.5437,3.0835 3.4841,5.1424 6.5676 4.5987c 2.7505,-0.4850 4.6858,-2.8770 4.6858 -5.5765c 0.0000,-0.3268 -0.0284,-0.6581 -0.0870 -0.9911c -0.5437,-3.0835 -3.4841,-5.1424 -6.5676 -4.5987c -2.7505,0.4850 -4.6858,2.8770 -4.6858 5.5765ZM 503.8518,2082.8974 c 0.0000,0.3268 0.0284,0.6581 0.0871 0.9911c 0.5437,3.0835 3.4841,5.1424 6.5676 4.5987c 2.7505,-0.4850 4.6858,-2.8770 4.6858 -5.5765c 0.0000,-0.3268 -0.0284,-0.6581 -0.0871 -0.9911c -0.5437,-3.0835 -3.4841,-5.1424 -6.5676 -4.5987c -2.7505,0.4850 -4.6858,2.8770 -4.6858 5.5765ZM 568.7284,2455.1837 c 0.0000,0.3268 0.0284,0.6581 0.0871 0.9911c 0.5437,3.0835 3.4841,5.1424 6.5676 4.5987c 2.7505,-0.4850 4.6858,-2.8770 4.6858 -5.5765c 0.0000,-0.3268 -0.0284,-0.6581 -0.0871 -0.9911c -0.5437,-3.0835 -3.4841,-5.1424 -6.5676 -4.5987c -2.7505,0.4850 -4.6858,2.8770 -4.6858 5.5765Z"/></g><defs><linearGradient x2="38.8693" y1="0.0000" gradientUnits="userSpaceOnUse" spreadMethod="pad" gradientTransform="matrix(3.7795,-0.0000,0.0000,-3.7795,16.2520,1999.5472)" id="gradient8" y2="-60.0000" x1="-38.8693"><stop stop-opacity="1.0000" offset="0.0000" stop-color="rgb(128,128,128)"/><stop stop-opacity="1.0000" offset="0.5000" stop-color="rgb(255,255,255)"/><stop stop-opacity="1.0000" offset="1.0000" stop-color="rgb(128,128,128)"/></linearGradient></defs><g stroke-linejoin="miter" stroke-opacity="1.0" fill-opacity="1" stroke="rgb(0,0,0)" stroke-width="0.7559055118110237" fill="url(#gradient8)" stroke-linecap="butt" stroke-miterlimit="10.0"><path d="M 3.9685,1563.3815 c 0.0000,-6.7840 5.4995,-12.2834 12.2834 -12.2834c 165.5969,-0.0000 331.1938,-0.0000 496.7907 -0.0000c 5.9611,-0.0000 11.0617,4.2799 12.0969 10.1504c 22.0904,125.2810 44.1809,250.5621 66.2713 375.8431c 0.1270,0.7200 0.1884,1.4371 0.1884 2.1449c 0.0000,5.6184 -3.8689,10.6526 -9.5242 11.9572c -139.2999,32.1341 -278.5998,64.2681 -417.8997 96.4022c -0.9055,0.2089 -1.8318,0.3143 -2.7611 0.3143c -48.3874,-0.0000 -96.7748,-0.0000 -145.1622 -0.0000c -6.7840,-0.0000 -12.2834,-5.4995 -12.2834 -12.2834c 0.0000,-157.4151 0.0000,-314.8302 -0.0000 -472.2453ZM 48.3770,1567.1876 c 0.0000,0.3268 0.0284,0.6581 0.0871 0.9911c 0.5437,3.0835 3.4841,5.1424 6.5676 4.5987c 2.7505,-0.4850 4.6858,-2.8770 4.6858 -5.5765c 0.0000,-0.3268 -0.0284,-0.6581 -0.0871 -0.9911c -0.5437,-3.0835 -3.4841,-5.1424 -6.5676 -4.5987c -2.7505,0.4850 -4.6858,2.8770 -4.6858 5.5765ZM 165.5836,2029.7483 c 0.0000,0.3268 0.0284,0.6581 0.0870 0.9911c 0.5437,3.0835 3.4841,5.1424 6.5676 4.5987c 2.7505,-0.4850 4.6858,-2.8770 4.6858 -5.5765c 0.0000,-0.3268 -0.0284,-0.6581 -0.0870 -0.9911c -0.5437,-3.0835 -3.4841,-5.1424 -6.5676 -4.5987c -2.7505,0.4850 -4.6858,2.8770 -4.6858 5.5765ZM 503.8518,1567.1876 c 0.0000,0.3268 0.0284,0.6581 0.0871 0.9911c 0.5437,3.0835 3.4841,5.1424 6.5676 4.5987c 2.7505,-0.4850 4.6858,-2.8770 4.6858 -5.5765c 0.0000,-0.3268 -0.0284,-0.6581 -0.0871 -0.9911c -0.5437,-3.0835 -3.4841,-5.1424 -6.5676 -4.5987c -2.7505,0.4850 -4.6858,2.8770 -4.6858 5.5765ZM 568.7284,1939.4738 c 0.0000,0.3268 0.0284,0.6581 0.0871 0.9911c 0.5437,3.0835 3.4841,5.1424 6.5676 4.5987c 2.7505,-0.4850 4.6858,-2.8770 4.6858 -5.5765c 0.0000,-0.3268 -0.0284,-0.6581 -0.0871 -0.9911c -0.5437,-3.0835 -3.4841,-5.1424 -6.5676 -4.5987c -2.7505,0.4850 -4.6858,2.8770 -4.6858 5.5765Z"/></g><g stroke-linejoin="miter" stroke-opacity="1.0" fill-opacity="0.5" stroke="rgb(0,0,0)" stroke-width="0.7559055118110237" fill="rgb(255,255,0)" stroke-linecap="butt" stroke-miterlimit="10.0"><path d="M 3.9685,1047.6716 c 0.0000,-6.7840 5.4995,-12.2834 12.2834 -12.2834c 11.5901,-0.0000 23.1802,-0.0000 34.7703 -0.0000c 2.0246,-0.0000 4.0492,-0.0000 6.0737 -0.0000c 149.8004,-0.0000 299.6007,-0.0000 449.4011 -0.0000c 2.0246,-0.0000 4.0491,-0.0000 6.0737 -0.0000c 0.1573,-0.0000 0.3145,-0.0000 0.4718 -0.0000c 5.9611,-0.0000 11.0617,4.2799 12.0968 10.1504c 22.0904,125.2810 44.1809,250.5621 66.2713 375.8432c 0.1270,0.7200 0.1883,1.4371 0.1883 2.1449c 0.0000,2.6867 -0.8847,5.2400 -2.4265 7.3156c -1.6823,2.2648 -4.1468,3.9609 -7.0977 4.6416c -4.7511,1.0960 -9.5022,2.1920 -14.2533 3.2880c -129.5919,29.8946 -259.1838,59.7892 -388.7757 89.6838c -2.8269,0.6521 -5.6538,1.3043 -8.4807 1.9564c -2.1301,0.4914 -4.2601,0.9827 -6.3901 1.4741c -0.9055,0.2089 -1.8318,0.3143 -2.7611 0.3143c -48.3874,-0.0000 -96.7748,-0.0000 -145.1622 -0.0000c -6.7840,-0.0000 -12.2834,-5.4995 -12.2834 -12.2834c 0.0000,-157.4151 0.0000,-314.8303 0.0000 -472.2453ZM 27.5937,1069.2274 c 0.0000,143.0445 0.0000,286.0891 0.0000 429.1337c 0.0000,6.1647 5.0750,11.1621 11.3354 11.1621c 38.8599,-0.0000 77.7197,-0.0000 116.5796 -0.0000c 1.6767,-5.8221 6.5324,-10.4843 12.9012 -11.6073c 7.3582,-1.2975 14.4344,2.5353 17.5590 8.9289c 124.0374,-28.1757 248.0748,-56.3516 372.1122 -84.5274c 0.5785,-6.5415 5.0770,-12.2295 11.4892 -14.1987c -20.3105,-113.4256 -40.6210,-226.8511 -60.9316 -340.2766c -6.1609,-0.3272 -11.6481,-4.1330 -14.1185 -9.7768c -141.8245,-0.0000 -283.6490,-0.0000 -425.4736 -0.0000c -2.1288,4.8399 -6.5578,8.5611 -12.1555 9.5482c -7.5928,1.3388 -14.8853,-2.7849 -17.8458 -9.5482c -0.0387,-0.0000 -0.0775,-0.0000 -0.1163 -0.0000c -6.2603,-0.0000 -11.3354,4.9974 -11.3354 11.1621ZM 48.3770,1051.4778 c 0.0000,0.3268 0.0284,0.6581 0.0871 0.9911c 0.5437,3.0835 3.4841,5.1424 6.5676 4.5987c 2.7505,-0.4850 4.6858,-2.8770 4.6858 -5.5765c 0.0000,-0.3268 -0.0284,-0.6581 -0.0871 -0.9911c -0.5437,-3.0835 -3.4841,-5.1424 -6.5676 -4.5987c -2.7505,0.4850 -4.6858,2.8770 -4.6858 5.5765ZM 165.5836,1514.0384 c 0.0000,0.3268 0.0284,0.6581 0.0871 0.9911c 0.5437,3.0835 3.4841,5.1424 6.5676 4.5987c 2.7505,-0.4850 4.6858,-2.8770 4.6858 -5.5765c 0.0000,-0.3268 -0.0284,-0.6581 -0.0871 -0.9911c -0.5437,-3.0835 -3.4841,-5.1424 -6.5676 -4.5987c -2.7505,0.4850 -4.6858,2.8770 -4.6858 5.5765ZM 503.8518,1051.4778 c 0.0000,0.3268 0.0284,0.6581 0.0871 0.9911c 0.5437,3.0835 3.4841,5.1424 6.5676 4.5987c 2.7505,-0.4850 4.6858,-2.8770 4.6858 -5.5765c 0.0000,-0.3268 -0.0284,-0.6581 -0.0870 -0.9911c -0.5437,-3.0835 -3.4841,-5.1424 -6.5676 -4.5987c -2.7505,0.4850 -4.6858,2.8770 -4.6858 5.5765ZM 568.7284,1423.7640 c 0.0000,0.3268 0.0284,0.6581 0.0871 0.9911c 0.5437,3.0835 3.4841,5.1424 6.5676 4.5987c 2.7505,-0.4850 4.6858,-2.8770 4.6858 -5.5765c 0.0000,-0.3268 -0.0284,-0.6581 -0.0871 -0.9911c -0.5437,-3.0835 -3.4841,-5.1424 -6.5676 -4.5987c -2.7505,0.4850 -4.6858,2.8770 -4.6858 5.5765Z"/></g><g stroke-linejoin="miter" stroke-opacity="1.0" fill-opacity="0.5" stroke="rgb(0,0,0)" stroke-width="0.7559055118110237" fill="rgb(0,128,0)" stroke-linecap="butt" stroke-miterlimit="10.0"><path d="M 3.9685,531.9618 c 0.0000,-6.7840 5.4995,-12.2834 12.2834 -12.2834c 165.5969,-0.0000 331.1938,-0.0000 496.7907 -0.0000c 5.9611,-0.0000 11.0617,4.2799 12.0969 10.1504c 22.0904,125.2810 44.1809,250.5621 66.2713 375.8431c 0.1270,0.7200 0.1884,1.4371 0.1884 2.1449c 0.0000,5.6184 -3.8689,10.6526 -9.5242 11.9572c -139.2999,32.1341 -278.5998,64.2681 -417.8997 96.4022c -0.9055,0.2089 -1.8318,0.3143 -2.7611 0.3143c -48.3874,-0.0000 -96.7748,-0.0000 -145.1622 -0.0000c -6.7840,-0.0000 -12.2834,-5.4995 -12.2834 -12.2834c 0.0000,-157.4151 0.0000,-314.8302 -0.0000 -472.2453ZM 48.3770,535.7679 c 0.0000,0.3268 0.0284,0.6581 0.0871 0.9911c 0.5437,3.0835 3.4841,5.1424 6.5676 4.5987c 2.7505,-0.4850 4.6858,-2.8770 4.6858 -5.5765c 0.0000,-0.3268 -0.0284,-0.6581 -0.0871 -0.9911c -0.5437,-3.0835 -3.4841,-5.1424 -6.5676 -4.5987c -2.7505,0.4850 -4.6858,2.8770 -4.6858 5.5765ZM 51.4941,902.4095 c 0.7658,4.3426 1.5315,8.6851 2.2972 13.0277c 1.0084,-0.1778 2.0169,-0.3557 3.0253 -0.5335c 1.0958,6.2146 2.1916,12.4291 3.2874 18.6437c -1.0084,0.1779 -2.0169,0.3557 -3.0254 0.5335c 0.7658,4.3426 1.5315,8.6852 2.2972 13.0277c 1.0084,-0.1778 2.0169,-0.3556 3.0253 -0.5334c 0.2145,1.2164 0.4290,2.4329 0.6435 3.6493c 17.3326,-3.0562 34.6653,-6.1124 51.9978 -9.1686c -0.2145,-1.2164 -0.4290,-2.4329 -0.6434 -3.6494c 1.0084,-0.1778 2.0169,-0.3556 3.0253 -0.5334c -0.7657,-4.3426 -1.5314,-8.6852 -2.2971 -13.0278c -1.0085,0.1779 -2.0169,0.3557 -3.0254 0.5335c -1.0958,-6.2146 -2.1916,-12.4291 -3.2874 -18.6437c 1.0084,-0.1778 2.0169,-0.3557 3.0253 -0.5335c -0.7657,-4.3426 -1.5314,-8.6851 -2.2971 -13.0277c -1.0085,0.1778 -2.0169,0.3557 -3.0254 0.5335c -0.2145,-1.2164 -0.4290,-2.4329 -0.6435 -3.6493c -17.3326,3.0562 -34.6652,6.1124 -51.9978 9.1686c 0.2145,1.2164 0.4290,2.4329 0.6435 3.6493c -1.0084,0.1778 -2.0169,0.3557 -3.0254 0.5335ZM 78.5697,642.4195 c 0.7657,4.3426 1.5314,8.6852 2.2972 13.0278c 1.0084,-0.1779 2.0169,-0.3557 3.0253 -0.5335c 1.0958,6.2146 2.1916,12.4291 3.2874 18.6437c -1.0084,0.1778 -2.0169,0.3557 -3.0253 0.5335c 0.7657,4.3426 1.5314,8.6851 2.2972 13.0277c 1.0084,-0.1778 2.0169,-0.3557 3.0253 -0.5335c 0.2145,1.2164 0.4290,2.4329 0.6435 3.6493c 17.3326,-3.0562 34.6652,-6.1124 51.9978 -9.1686c -0.2145,-1.2164 -0.4290,-2.4329 -0.6435 -3.6493c 1.0084,-0.1778 2.0169,-0.3557 3.0254 -0.5335c -0.7657,-4.3426 -1.5315,-8.6851 -2.2972 -13.0277c -1.0084,0.1778 -2.0169,0.3557 -3.0253 0.5335c -1.0958,-6.2146 -2.1916,-12.4291 -3.2874 -18.6437c 1.0084,-0.1779 2.0169,-0.3557 3.0254 -0.5335c -0.7657,-4.3426 -1.5315,-8.6852 -2.2972 -13.0277c -1.0084,0.1778 -2.0169,0.3556 -3.0253 0.5335c -0.2145,-1.2164 -0.4290,-2.4329 -0.6435 -3.6494c -17.3326,3.0562 -34.6652,6.1124 -51.9978 9.1686c 0.2145,1.2164 0.4290,2.4329 0.6434 3.6494c -1.0084,0.1778 -2.0169,0.3556 -3.0253 0.5334ZM 91.0395,713.1396 c 0.7657,4.3425 1.5315,8.6851 2.2972 13.0277c 1.0084,-0.1778 2.0169,-0.3557 3.0253 -0.5335c 1.0958,6.2146 2.1916,12.4291 3.2874 18.6437c -1.0084,0.1779 -2.0169,0.3557 -3.0254 0.5335c 0.7657,4.3426 1.5315,8.6852 2.2972 13.0277c 1.0084,-0.1778 2.0169,-0.3556 3.0253 -0.5335c 0.2145,1.2165 0.4290,2.4329 0.6435 3.6494c 17.3326,-3.0562 34.6652,-6.1124 51.9978 -9.1686c -0.2145,-1.2164 -0.4290,-2.4329 -0.6434 -3.6494c 1.0084,-0.1778 2.0169,-0.3556 3.0253 -0.5335c -0.7657,-4.3425 -1.5314,-8.6851 -2.2972 -13.0277c -1.0084,0.1779 -2.0169,0.3557 -3.0253 0.5335c -1.0958,-6.2146 -2.1916,-12.4291 -3.2874 -18.6437c 1.0085,-0.1778 2.0169,-0.3557 3.0254 -0.5335c -0.7657,-4.3426 -1.5314,-8.6851 -2.2972 -13.0277c -1.0084,0.1778 -2.0169,0.3557 -3.0253 0.5335c -0.2145,-1.2164 -0.4290,-2.4329 -0.6435 -3.6493c -17.3326,3.0562 -34.6652,6.1124 -51.9978 9.1686c 0.2145,1.2164 0.4290,2.4329 0.6435 3.6493c -1.0084,0.1778 -2.0169,0.3557 -3.0254 0.5335ZM 103.5094,783.8596 c 0.7658,4.3426 1.5315,8.6852 2.2972 13.0277c 1.0084,-0.1778 2.0169,-0.3556 3.0253 -0.5335c 1.0958,6.2146 2.1916,12.4292 3.2874 18.6437c -1.0084,0.1778 -2.0169,0.3556 -3.0254 0.5335c 0.7658,4.3425 1.5315,8.6851 2.2972 13.0277c 1.0084,-0.1779 2.0169,-0.3557 3.0254 -0.5335c 0.2145,1.2164 0.4290,2.4329 0.6434 3.6493c 17.3326,-3.0562 34.6653,-6.1124 51.9978 -9.1686c -0.2145,-1.2164 -0.4290,-2.4329 -0.6434 -3.6493c 1.0084,-0.1779 2.0169,-0.3557 3.0253 -0.5335c -0.7657,-4.3426 -1.5314,-8.6852 -2.2971 -13.0277c -1.0085,0.1778 -2.0169,0.3556 -3.0254 0.5335c -1.0958,-6.2146 -2.1916,-12.4292 -3.2874 -18.6437c 1.0084,-0.1778 2.0169,-0.3556 3.0253 -0.5335c -0.7657,-4.3425 -1.5314,-8.6851 -2.2971 -13.0277c -1.0085,0.1779 -2.0169,0.3557 -3.0254 0.5335c -0.2145,-1.2164 -0.4290,-2.4329 -0.6435 -3.6493c -17.3326,3.0562 -34.6652,6.1124 -51.9978 9.1686c 0.2145,1.2164 0.4290,2.4329 0.6435 3.6493c -1.0084,0.1779 -2.0169,0.3557 -3.0254 0.5335ZM 115.9792,854.5797 c 0.7657,4.3425 1.5314,8.6851 2.2971 13.0277c 1.0084,-0.1779 2.0169,-0.3557 3.0254 -0.5335c 1.0958,6.2146 2.1916,12.4291 3.2874 18.6437c -1.0084,0.1778 -2.0169,0.3557 -3.0253 0.5335c 0.7657,4.3426 1.5314,8.6851 2.2971 13.0277c 1.0084,-0.1778 2.0169,-0.3557 3.0254 -0.5335c 0.2145,1.2164 0.4290,2.4329 0.6434 3.6493c 17.3326,-3.0562 34.6653,-6.1124 51.9979 -9.1686c -0.2145,-1.2164 -0.4290,-2.4329 -0.6435 -3.6493c 1.0084,-0.1778 2.0169,-0.3557 3.0253 -0.5335c -0.7657,-4.3426 -1.5314,-8.6851 -2.2971 -13.0277c -1.0084,0.1778 -2.0169,0.3557 -3.0254 0.5335c -1.0958,-6.2146 -2.1916,-12.4291 -3.2874 -18.6437c 1.0084,-0.1779 2.0169,-0.3557 3.0253 -0.5335c -0.7657,-4.3426 -1.5314,-8.6852 -2.2971 -13.0277c -1.0084,0.1778 -2.0169,0.3556 -3.0254 0.5335c -0.2145,-1.2165 -0.4290,-2.4329 -0.6434 -3.6494c -17.3326,3.0562 -34.6653,6.1124 -51.9979 9.1686c 0.2145,1.2164 0.4290,2.4329 0.6435 3.6494c -1.0084,0.1778 -2.0169,0.3556 -3.0253 0.5335ZM 128.4491,925.2997 c 0.7657,4.3426 1.5314,8.6851 2.2971 13.0277c 1.0085,-0.1778 2.0169,-0.3557 3.0254 -0.5335c 1.0958,6.2146 2.1916,12.4291 3.2874 18.6437c -1.0084,0.1779 -2.0169,0.3557 -3.0253 0.5335c 0.7657,4.3426 1.5314,8.6852 2.2971 13.0277c 1.0085,-0.1778 2.0169,-0.3556 3.0254 -0.5335c 0.2145,1.2164 0.4290,2.4329 0.6435 3.6494c 17.3326,-3.0562 34.6652,-6.1124 51.9978 -9.1686c -0.2145,-1.2164 -0.4290,-2.4329 -0.6435 -3.6494c 1.0084,-0.1778 2.0169,-0.3556 3.0254 -0.5335c -0.7658,-4.3425 -1.5315,-8.6851 -2.2972 -13.0277c -1.0084,0.1779 -2.0169,0.3557 -3.0253 0.5335c -1.0958,-6.2146 -2.1916,-12.4291 -3.2874 -18.6437c 1.0084,-0.1778 2.0169,-0.3557 3.0254 -0.5335c -0.7658,-4.3426 -1.5315,-8.6851 -2.2972 -13.0277c -1.0084,0.1778 -2.0169,0.3557 -3.0254 0.5335c -0.2145,-1.2164 -0.4290,-2.4329 -0.6434 -3.6493c -17.3326,3.0562 -34.6653,6.1124 -51.9978 9.1686c 0.2145,1.2164 0.4290,2.4329 0.6434 3.6493c -1.0084,0.1778 -2.0169,0.3557 -3.0253 0.5335ZM 146.0082,611.3391 c 0.7658,4.3426 1.5315,8.6851 2.2972 13.0277c 1.0084,-0.1778 2.0169,-0.3556 3.0254 -0.5335c 1.0958,6.2146 2.1915,12.4291 3.2874 18.6437c -1.0084,0.1779 -2.0169,0.3557 -3.0254 0.5335c 0.7658,4.3426 1.5315,8.6852 2.2972 13.0277c 1.0084,-0.1778 2.0169,-0.3556 3.0254 -0.5334c 0.2145,1.2164 0.4290,2.4329 0.6434 3.6493c 17.3326,-3.0562 34.6653,-6.1124 51.9979 -9.1686c -0.2145,-1.2164 -0.4290,-2.4329 -0.6435 -3.6494c 1.0084,-0.1778 2.0169,-0.3556 3.0253 -0.5334c -0.7657,-4.3426 -1.5314,-8.6852 -2.2971 -13.0277c -1.0084,0.1778 -2.0169,0.3556 -3.0254 0.5334c -1.0958,-6.2146 -2.1916,-12.4291 -3.2874 -18.6437c 1.0084,-0.1778 2.0169,-0.3556 3.0253 -0.5335c -0.7657,-4.3425 -1.5314,-8.6851 -2.2971 -13.0277c -1.0085,0.1778 -2.0169,0.3557 -3.0254 0.5335c -0.2145,-1.2164 -0.4290,-2.4329 -0.6435 -3.6493c -17.3326,3.0562 -34.6652,6.1124 -51.9978 9.1686c 0.2145,1.2164 0.4290,2.4329 0.6435 3.6493c -1.0084,0.1778 -2.0169,0.3557 -3.0254 0.5335ZM 158.4780,682.0591 c 0.7657,4.3426 1.5314,8.6852 2.2971 13.0277c 1.0084,-0.1778 2.0169,-0.3556 3.0254 -0.5335c 1.0958,6.2146 2.1916,12.4292 3.2874 18.6437c -1.0084,0.1778 -2.0169,0.3556 -3.0253 0.5335c 0.7657,4.3425 1.5314,8.6851 2.2971 13.0277c 1.0084,-0.1778 2.0169,-0.3557 3.0254 -0.5335c 0.2145,1.2164 0.4290,2.4329 0.6435 3.6493c 17.3326,-3.0562 34.6652,-6.1124 51.9978 -9.1686c -0.2145,-1.2164 -0.4290,-2.4329 -0.6435 -3.6493c 1.0084,-0.1778 2.0169,-0.3557 3.0254 -0.5335c -0.7658,-4.3426 -1.5315,-8.6851 -2.2972 -13.0277c -1.0084,0.1778 -2.0169,0.3556 -3.0254 0.5335c -1.0958,-6.2146 -2.1916,-12.4292 -3.2874 -18.6437c 1.0084,-0.1778 2.0169,-0.3556 3.0253 -0.5334c -0.7657,-4.3426 -1.5314,-8.6852 -2.2971 -13.0278c -1.0084,0.1779 -2.0169,0.3557 -3.0254 0.5335c -0.2145,-1.2164 -0.4290,-2.4329 -0.6434 -3.6493c -17.3326,3.0562 -34.6653,6.1124 -51.9979 9.1686c 0.2145,1.2164 0.4290,2.4329 0.6435 3.6493c -1.0084,0.1779 -2.0169,0.3557 -3.0253 0.5335ZM 165.5836,998.3286 c 0.0000,0.3268 0.0284,0.6581 0.0870 0.9911c 0.5437,3.0835 3.4841,5.1424 6.5676 4.5987c 2.7505,-0.4850 4.6858,-2.8770 4.6858 -5.5765c 0.0000,-0.3268 -0.0284,-0.6581 -0.0870 -0.9911c -0.5437,-3.0835 -3.4841,-5.1424 -6.5676 -4.5987c -2.7505,0.4850 -4.6858,2.8770 -4.6858 5.5765ZM 170.9479,752.7792 c 0.7657,4.3425 1.5314,8.6851 2.2972 13.0277c 1.0084,-0.1779 2.0169,-0.3557 3.0253 -0.5335c 1.0958,6.2146 2.1916,12.4291 3.2874 18.6437c -1.0084,0.1778 -2.0169,0.3557 -3.0253 0.5335c 0.7657,4.3426 1.5314,8.6852 2.2971 13.0277c 1.0085,-0.1778 2.0169,-0.3556 3.0254 -0.5335c 0.2145,1.2164 0.4290,2.4329 0.6435 3.6494c 17.3326,-3.0562 34.6652,-6.1125 51.9978 -9.1687c -0.2145,-1.2164 -0.4290,-2.4329 -0.6435 -3.6493c 1.0084,-0.1778 2.0169,-0.3556 3.0254 -0.5335c -0.7657,-4.3425 -1.5315,-8.6851 -2.2972 -13.0277c -1.0084,0.1778 -2.0169,0.3557 -3.0253 0.5335c -1.0958,-6.2146 -2.1916,-12.4291 -3.2874 -18.6437c 1.0084,-0.1779 2.0169,-0.3557 3.0254 -0.5335c -0.7657,-4.3426 -1.5315,-8.6852 -2.2972 -13.0277c -1.0084,0.1778 -2.0169,0.3556 -3.0253 0.5335c -0.2145,-1.2165 -0.4290,-2.4329 -0.6435 -3.6494c -17.3326,3.0562 -34.6653,6.1124 -51.9978 9.1686c 0.2145,1.2164 0.4290,2.4329 0.6434 3.6494c -1.0084,0.1778 -2.0169,0.3556 -3.0253 0.5335ZM 183.4177,823.4993 c 0.7657,4.3426 1.5314,8.6851 2.2972 13.0277c 1.0084,-0.1778 2.0169,-0.3557 3.0253 -0.5335c 1.0958,6.2146 2.1916,12.4291 3.2874 18.6437c -1.0084,0.1779 -2.0169,0.3557 -3.0254 0.5335c 0.7657,4.3426 1.5315,8.6852 2.2972 13.0277c 1.0084,-0.1778 2.0169,-0.3556 3.0253 -0.5335c 0.2145,1.2165 0.4290,2.4329 0.6435 3.6494c 17.3326,-3.0562 34.6652,-6.1124 51.9978 -9.1686c -0.2145,-1.2164 -0.4290,-2.4329 -0.6435 -3.6494c 1.0085,-0.1778 2.0169,-0.3556 3.0254 -0.5334c -0.7657,-4.3426 -1.5314,-8.6852 -2.2972 -13.0278c -1.0084,0.1779 -2.0169,0.3557 -3.0253 0.5335c -1.0958,-6.2146 -2.1916,-12.4291 -3.2874 -18.6437c 1.0085,-0.1778 2.0169,-0.3556 3.0254 -0.5335c -0.7657,-4.3425 -1.5314,-8.6851 -2.2972 -13.0277c -1.0084,0.1778 -2.0169,0.3557 -3.0253 0.5335c -0.2145,-1.2164 -0.4290,-2.4329 -0.6435 -3.6493c -17.3326,3.0562 -34.6652,6.1124 -51.9978 9.1686c 0.2145,1.2164 0.4290,2.4329 0.6435 3.6493c -1.0085,0.1778 -2.0169,0.3557 -3.0254 0.5335ZM 195.8876,894.2193 c 0.7657,4.3426 1.5315,8.6852 2.2972 13.0277c 1.0084,-0.1778 2.0169,-0.3556 3.0253 -0.5335c 1.0958,6.2146 2.1916,12.4292 3.2874 18.6437c -1.0084,0.1778 -2.0169,0.3556 -3.0254 0.5335c 0.7658,4.3425 1.5315,8.6851 2.2972 13.0277c 1.0084,-0.1779 2.0169,-0.3557 3.0253 -0.5335c 0.2145,1.2164 0.4290,2.4329 0.6435 3.6493c 17.3326,-3.0562 34.6653,-6.1124 51.9978 -9.1686c -0.2145,-1.2164 -0.4290,-2.4329 -0.6434 -3.6493c 1.0084,-0.1778 2.0169,-0.3557 3.0253 -0.5335c -0.7657,-4.3426 -1.5314,-8.6852 -2.2971 -13.0277c -1.0085,0.1778 -2.0169,0.3556 -3.0254 0.5335c -1.0958,-6.2146 -2.1916,-12.4292 -3.2874 -18.6437c 1.0084,-0.1778 2.0169,-0.3556 3.0253 -0.5334c -0.7657,-4.3426 -1.5314,-8.6852 -2.2971 -13.0278c -1.0085,0.1779 -2.0169,0.3557 -3.0254 0.5335c -0.2145,-1.2164 -0.4290,-2.4329 -0.6435 -3.6493c -17.3326,3.0562 -34.6652,6.1124 -51.9978 9.1686c 0.2145,1.2164 0.4290,2.4329 0.6435 3.6493c -1.0084,0.1779 -2.0169,0.3557 -3.0254 0.5335ZM 212.7904,576.5366 c 0.7657,4.3426 1.5314,8.6852 2.2972 13.0277c 1.0084,-0.1778 2.0169,-0.3556 3.0253 -0.5334c 1.0958,6.2146 2.1916,12.4291 3.2874 18.6437c -1.0085,0.1778 -2.0169,0.3556 -3.0254 0.5335c 0.7657,4.3425 1.5314,8.6851 2.2972 13.0277c 1.0084,-0.1778 2.0169,-0.3557 3.0253 -0.5335c 0.2145,1.2164 0.4290,2.4329 0.6435 3.6493c 17.3326,-3.0562 34.6652,-6.1124 51.9978 -9.1686c -0.2145,-1.2164 -0.4290,-2.4329 -0.6435 -3.6493c 1.0085,-0.1778 2.0169,-0.3557 3.0254 -0.5335c -0.7657,-4.3426 -1.5315,-8.6851 -2.2972 -13.0277c -1.0084,0.1778 -2.0169,0.3557 -3.0253 0.5335c -1.0958,-6.2146 -2.1916,-12.4291 -3.2874 -18.6437c 1.0085,-0.1779 2.0169,-0.3557 3.0254 -0.5335c -0.7657,-4.3426 -1.5315,-8.6852 -2.2972 -13.0278c -1.0084,0.1779 -2.0169,0.3557 -3.0253 0.5335c -0.2145,-1.2164 -0.4290,-2.4329 -0.6435 -3.6493c -17.3326,3.0562 -34.6652,6.1124 -51.9978 9.1686c 0.2145,1.2164 0.4290,2.4329 0.6435 3.6493c -1.0085,0.1779 -2.0169,0.3557 -3.0254 0.5335ZM 225.2602,647.2567 c 0.7657,4.3425 1.5315,8.6851 2.2972 13.0277c 1.0084,-0.1779 2.0169,-0.3557 3.0253 -0.5335c 1.0958,6.2146 2.1916,12.4291 3.2874 18.6437c -1.0084,0.1778 -2.0169,0.3557 -3.0254 0.5335c 0.7657,4.3426 1.5315,8.6851 2.2972 13.0277c 1.0084,-0.1778 2.0169,-0.3556 3.0253 -0.5335c 0.2145,1.2164 0.4290,2.4329 0.6435 3.6494c 17.3326,-3.0562 34.6653,-6.1124 51.9978 -9.1687c -0.2145,-1.2164 -0.4290,-2.4329 -0.6434 -3.6493c 1.0084,-0.1778 2.0169,-0.3556 3.0253 -0.5335c -0.7657,-4.3425 -1.5314,-8.6851 -2.2972 -13.0277c -1.0084,0.1778 -2.0169,0.3557 -3.0253 0.5335c -1.0958,-6.2146 -2.1916,-12.4291 -3.2874 -18.6437c 1.0084,-0.1778 2.0169,-0.3557 3.0253 -0.5335c -0.7657,-4.3426 -1.5314,-8.6852 -2.2972 -13.0277c -1.0084,0.1778 -2.0169,0.3556 -3.0253 0.5335c -0.2145,-1.2164 -0.4290,-2.4329 -0.6435 -3.6494c -17.3326,3.0562 -34.6652,6.1124 -51.9978 9.1686c 0.2145,1.2164 0.4290,2.4329 0.6435 3.6494c -1.0084,0.1778 -2.0169,0.3556 -3.0254 0.5335ZM 237.7301,717.9767 c 0.7658,4.3426 1.5315,8.6851 2.2972 13.0277c 1.0084,-0.1778 2.0169,-0.3557 3.0254 -0.5335c 1.0958,6.2146 2.1915,12.4291 3.2874 18.6437c -1.0084,0.1779 -2.0169,0.3557 -3.0254 0.5335c 0.7658,4.3426 1.5315,8.6852 2.2972 13.0277c 1.0084,-0.1778 2.0169,-0.3556 3.0254 -0.5334c 0.2145,1.2164 0.4290,2.4329 0.6434 3.6493c 17.3326,-3.0562 34.6653,-6.1124 51.9979 -9.1686c -0.2145,-1.2164 -0.4290,-2.4329 -0.6435 -3.6493c 1.0084,-0.1779 2.0169,-0.3557 3.0253 -0.5335c -0.7657,-4.3426 -1.5314,-8.6852 -2.2971 -13.0278c -1.0084,0.1779 -2.0169,0.3557 -3.0254 0.5335c -1.0958,-6.2146 -2.1916,-12.4291 -3.2874 -18.6437c 1.0084,-0.1778 2.0169,-0.3556 3.0253 -0.5335c -0.7657,-4.3425 -1.5314,-8.6851 -2.2971 -13.0277c -1.0085,0.1778 -2.0169,0.3557 -3.0254 0.5335c -0.2145,-1.2164 -0.4290,-2.4329 -0.6435 -3.6493c -17.3326,3.0562 -34.6652,6.1124 -51.9978 9.1686c 0.2145,1.2164 0.4290,2.4329 0.6435 3.6493c -1.0084,0.1778 -2.0169,0.3557 -3.0254 0.5335ZM 250.2000,788.6968 c 0.7657,4.3426 1.5314,8.6852 2.2971 13.0277c 1.0084,-0.1778 2.0169,-0.3556 3.0254 -0.5334c 1.0958,6.2146 2.1916,12.4291 3.2874 18.6437c -1.0084,0.1778 -2.0169,0.3556 -3.0253 0.5335c 0.7657,4.3425 1.5314,8.6851 2.2971 13.0277c 1.0084,-0.1779 2.0169,-0.3557 3.0254 -0.5335c 0.2145,1.2164 0.4290,2.4329 0.6435 3.6493c 17.3326,-3.0562 34.6652,-6.1124 51.9978 -9.1686c -0.2145,-1.2164 -0.4290,-2.4329 -0.6435 -3.6493c 1.0084,-0.1778 2.0169,-0.3557 3.0253 -0.5335c -0.7657,-4.3426 -1.5314,-8.6852 -2.2971 -13.0277c -1.0084,0.1778 -2.0169,0.3556 -3.0254 0.5335c -1.0958,-6.2146 -2.1916,-12.4291 -3.2874 -18.6437c 1.0084,-0.1778 2.0169,-0.3556 3.0253 -0.5334c -0.7657,-4.3426 -1.5314,-8.6852 -2.2971 -13.0278c -1.0084,0.1779 -2.0169,0.3557 -3.0254 0.5335c -0.2145,-1.2164 -0.4290,-2.4329 -0.6434 -3.6493c -17.3326,3.0562 -34.6653,6.1124 -51.9979 9.1686c 0.2145,1.2164 0.4290,2.4329 0.6435 3.6493c -1.0084,0.1779 -2.0169,0.3557 -3.0253 0.5335ZM 262.6698,859.4168 c 0.7657,4.3425 1.5314,8.6851 2.2971 13.0277c 1.0085,-0.1779 2.0169,-0.3557 3.0254 -0.5335c 1.0958,6.2146 2.1916,12.4291 3.2874 18.6437c -1.0084,0.1778 -2.0169,0.3557 -3.0253 0.5335c 0.7657,4.3426 1.5314,8.6851 2.2972 13.0277c 1.0084,-0.1778 2.0169,-0.3556 3.0253 -0.5335c 0.2145,1.2164 0.4290,2.4329 0.6435 3.6494c 17.3326,-3.0562 34.6652,-6.1124 51.9978 -9.1687c -0.2145,-1.2164 -0.4290,-2.4329 -0.6435 -3.6493c 1.0084,-0.1778 2.0169,-0.3556 3.0254 -0.5335c -0.7657,-4.3425 -1.5315,-8.6851 -2.2972 -13.0277c -1.0084,0.1778 -2.0169,0.3557 -3.0253 0.5335c -1.0958,-6.2146 -2.1916,-12.4291 -3.2874 -18.6437c 1.0084,-0.1778 2.0169,-0.3557 3.0254 -0.5335c -0.7658,-4.3426 -1.5315,-8.6852 -2.2972 -13.0277c -1.0084,0.1778 -2.0169,0.3556 -3.0253 0.5335c -0.2145,-1.2165 -0.4290,-2.4329 -0.6435 -3.6494c -17.3326,3.0562 -34.6653,6.1124 -51.9978 9.1686c 0.2145,1.2164 0.4290,2.4329 0.6434 3.6494c -1.0084,0.1778 -2.0169,0.3556 -3.0253 0.5335ZM 286.7920,582.6773 c 0.7657,4.3426 1.5315,8.6852 2.2972 13.0278c 1.0084,-0.1779 2.0169,-0.3557 3.0253 -0.5335c 1.0958,6.2146 2.1916,12.4291 3.2874 18.6437c -1.0085,0.1778 -2.0169,0.3557 -3.0254 0.5335c 0.7657,4.3425 1.5315,8.6851 2.2972 13.0277c 1.0084,-0.1778 2.0169,-0.3557 3.0253 -0.5335c 0.2145,1.2164 0.4290,2.4329 0.6435 3.6493c 17.3326,-3.0562 34.6652,-6.1124 51.9978 -9.1686c -0.2145,-1.2164 -0.4290,-2.4329 -0.6435 -3.6493c 1.0085,-0.1778 2.0169,-0.3557 3.0254 -0.5335c -0.7657,-4.3426 -1.5314,-8.6851 -2.2972 -13.0277c -1.0084,0.1778 -2.0169,0.3557 -3.0253 0.5335c -1.0958,-6.2146 -2.1916,-12.4291 -3.2874 -18.6437c 1.0085,-0.1779 2.0169,-0.3557 3.0254 -0.5335c -0.7657,-4.3426 -1.5315,-8.6852 -2.2972 -13.0277c -1.0084,0.1778 -2.0169,0.3556 -3.0253 0.5334c -0.2145,-1.2164 -0.4290,-2.4329 -0.6435 -3.6493c -17.3326,3.0562 -34.6652,6.1124 -51.9978 9.1686c 0.2145,1.2164 0.4290,2.4329 0.6434 3.6494c -1.0084,0.1778 -2.0169,0.3556 -3.0253 0.5334ZM 299.2618,653.3974 c 0.7657,4.3425 1.5315,8.6851 2.2972 13.0277c 1.0084,-0.1778 2.0169,-0.3557 3.0253 -0.5335c 1.0958,6.2146 2.1916,12.4291 3.2874 18.6437c -1.0084,0.1779 -2.0169,0.3557 -3.0254 0.5335c 0.7658,4.3426 1.5315,8.6852 2.2972 13.0277c 1.0084,-0.1778 2.0169,-0.3556 3.0253 -0.5335c 0.2145,1.2165 0.4290,2.4329 0.6435 3.6494c 17.3326,-3.0562 34.6653,-6.1124 51.9978 -9.1686c -0.2145,-1.2164 -0.4290,-2.4329 -0.6434 -3.6494c 1.0084,-0.1778 2.0169,-0.3556 3.0253 -0.5335c -0.7657,-4.3425 -1.5314,-8.6851 -2.2971 -13.0277c -1.0085,0.1779 -2.0169,0.3557 -3.0254 0.5335c -1.0958,-6.2146 -2.1916,-12.4291 -3.2874 -18.6437c 1.0084,-0.1778 2.0169,-0.3557 3.0253 -0.5335c -0.7657,-4.3426 -1.5314,-8.6851 -2.2971 -13.0277c -1.0085,0.1778 -2.0169,0.3556 -3.0254 0.5335c -0.2145,-1.2164 -0.4290,-2.4329 -0.6435 -3.6494c -17.3326,3.0563 -34.6652,6.1125 -51.9978 9.1687c 0.2145,1.2164 0.4290,2.4329 0.6435 3.6493c -1.0084,0.1778 -2.0169,0.3556 -3.0254 0.5335ZM 311.7317,724.1174 c 0.7657,4.3426 1.5314,8.6851 2.2971 13.0277c 1.0084,-0.1778 2.0169,-0.3556 3.0254 -0.5335c 1.0958,6.2146 2.1916,12.4292 3.2874 18.6437c -1.0084,0.1778 -2.0169,0.3556 -3.0253 0.5334c 0.7657,4.3426 1.5314,8.6852 2.2971 13.0278c 1.0084,-0.1779 2.0169,-0.3557 3.0254 -0.5335c 0.2145,1.2164 0.4290,2.4329 0.6434 3.6493c 17.3326,-3.0562 34.6653,-6.1124 51.9979 -9.1686c -0.2145,-1.2164 -0.4290,-2.4329 -0.6435 -3.6493c 1.0084,-0.1779 2.0169,-0.3557 3.0253 -0.5335c -0.7657,-4.3426 -1.5314,-8.6852 -2.2971 -13.0277c -1.0084,0.1778 -2.0169,0.3556 -3.0254 0.5334c -1.0958,-6.2146 -2.1916,-12.4291 -3.2874 -18.6437c 1.0084,-0.1778 2.0169,-0.3556 3.0253 -0.5335c -0.7657,-4.3425 -1.5314,-8.6851 -2.2971 -13.0277c -1.0084,0.1779 -2.0169,0.3557 -3.0254 0.5335c -0.2145,-1.2164 -0.4290,-2.4329 -0.6435 -3.6493c -17.3326,3.0562 -34.6652,6.1124 -51.9978 9.1686c 0.2145,1.2164 0.4290,2.4329 0.6435 3.6493c -1.0084,0.1779 -2.0169,0.3557 -3.0253 0.5335ZM 324.2015,794.8374 c 0.7657,4.3426 1.5314,8.6852 2.2971 13.0277c 1.0084,-0.1778 2.0169,-0.3556 3.0254 -0.5334c 1.0958,6.2146 2.1916,12.4291 3.2874 18.6437c -1.0084,0.1778 -2.0169,0.3557 -3.0253 0.5335c 0.7657,4.3425 1.5314,8.6851 2.2971 13.0277c 1.0085,-0.1778 2.0169,-0.3557 3.0254 -0.5335c 0.2145,1.2164 0.4290,2.4329 0.6435 3.6493c 17.3326,-3.0562 34.6652,-6.1124 51.9978 -9.1686c -0.2145,-1.2164 -0.4290,-2.4329 -0.6435 -3.6493c 1.0084,-0.1778 2.0169,-0.3557 3.0254 -0.5335c -0.7658,-4.3426 -1.5315,-8.6851 -2.2972 -13.0277c -1.0084,0.1778 -2.0169,0.3556 -3.0254 0.5335c -1.0958,-6.2146 -2.1915,-12.4291 -3.2874 -18.6437c 1.0084,-0.1779 2.0169,-0.3557 3.0254 -0.5335c -0.7658,-4.3426 -1.5315,-8.6852 -2.2972 -13.0277c -1.0084,0.1778 -2.0169,0.3556 -3.0254 0.5334c -0.2145,-1.2164 -0.4290,-2.4329 -0.6434 -3.6493c -17.3326,3.0562 -34.6653,6.1124 -51.9979 9.1686c 0.2145,1.2164 0.4290,2.4329 0.6435 3.6494c -1.0084,0.1778 -2.0169,0.3556 -3.0253 0.5334ZM 336.6714,865.5575 c 0.7657,4.3425 1.5314,8.6851 2.2972 13.0277c 1.0084,-0.1778 2.0169,-0.3557 3.0253 -0.5335c 1.0958,6.2146 2.1916,12.4291 3.2874 18.6437c -1.0084,0.1779 -2.0169,0.3557 -3.0253 0.5335c 0.7657,4.3426 1.5314,8.6851 2.2972 13.0277c 1.0084,-0.1778 2.0169,-0.3556 3.0253 -0.5335c 0.2145,1.2164 0.4290,2.4329 0.6435 3.6494c 17.3326,-3.0562 34.6652,-6.1124 51.9978 -9.1686c -0.2145,-1.2165 -0.4290,-2.4329 -0.6435 -3.6494c 1.0084,-0.1778 2.0169,-0.3556 3.0254 -0.5335c -0.7657,-4.3425 -1.5315,-8.6851 -2.2972 -13.0277c -1.0084,0.1779 -2.0169,0.3557 -3.0253 0.5335c -1.0958,-6.2146 -2.1916,-12.4291 -3.2874 -18.6437c 1.0085,-0.1778 2.0169,-0.3557 3.0254 -0.5335c -0.7657,-4.3426 -1.5315,-8.6851 -2.2972 -13.0277c -1.0084,0.1778 -2.0169,0.3556 -3.0253 0.5335c -0.2145,-1.2164 -0.4290,-2.4329 -0.6435 -3.6494c -17.3326,3.0562 -34.6652,6.1124 -51.9978 9.1686c 0.2145,1.2165 0.4290,2.4329 0.6434 3.6494c -1.0084,0.1778 -2.0169,0.3556 -3.0253 0.5335ZM 359.4809,581.3737 c 0.7658,4.3426 1.5315,8.6852 2.2972 13.0278c 1.0084,-0.1779 2.0169,-0.3557 3.0253 -0.5335c 1.0958,6.2146 2.1916,12.4291 3.2874 18.6437c -1.0084,0.1778 -2.0169,0.3557 -3.0254 0.5335c 0.7658,4.3425 1.5315,8.6851 2.2972 13.0277c 1.0084,-0.1778 2.0169,-0.3557 3.0253 -0.5335c 0.2145,1.2164 0.4290,2.4329 0.6435 3.6493c 17.3326,-3.0562 34.6653,-6.1124 51.9978 -9.1686c -0.2145,-1.2164 -0.4290,-2.4329 -0.6434 -3.6493c 1.0084,-0.1778 2.0169,-0.3557 3.0253 -0.5335c -0.7657,-4.3426 -1.5314,-8.6851 -2.2971 -13.0277c -1.0085,0.1778 -2.0169,0.3557 -3.0254 0.5335c -1.0958,-6.2146 -2.1916,-12.4291 -3.2874 -18.6437c 1.0084,-0.1779 2.0169,-0.3557 3.0253 -0.5335c -0.7657,-4.3426 -1.5314,-8.6852 -2.2972 -13.0277c -1.0084,0.1778 -2.0169,0.3556 -3.0253 0.5334c -0.2145,-1.2164 -0.4290,-2.4329 -0.6435 -3.6493c -17.3326,3.0562 -34.6652,6.1124 -51.9978 9.1686c 0.2145,1.2164 0.4290,2.4329 0.6435 3.6494c -1.0084,0.1778 -2.0169,0.3556 -3.0254 0.5334ZM 371.9508,652.0938 c 0.7657,4.3425 1.5314,8.6851 2.2971 13.0277c 1.0084,-0.1778 2.0169,-0.3557 3.0254 -0.5335c 1.0958,6.2146 2.1916,12.4291 3.2874 18.6437c -1.0084,0.1779 -2.0169,0.3557 -3.0253 0.5335c 0.7657,4.3426 1.5314,8.6852 2.2971 13.0277c 1.0084,-0.1778 2.0169,-0.3556 3.0254 -0.5335c 0.2145,1.2165 0.4290,2.4329 0.6434 3.6494c 17.3326,-3.0562 34.6653,-6.1124 51.9979 -9.1686c -0.2145,-1.2164 -0.4290,-2.4329 -0.6435 -3.6494c 1.0084,-0.1778 2.0169,-0.3556 3.0253 -0.5335c -0.7657,-4.3425 -1.5314,-8.6851 -2.2971 -13.0277c -1.0084,0.1779 -2.0169,0.3557 -3.0254 0.5335c -1.0958,-6.2146 -2.1916,-12.4291 -3.2874 -18.6437c 1.0084,-0.1778 2.0169,-0.3557 3.0253 -0.5335c -0.7657,-4.3426 -1.5314,-8.6851 -2.2971 -13.0277c -1.0084,0.1778 -2.0169,0.3556 -3.0254 0.5335c -0.2145,-1.2164 -0.4290,-2.4329 -0.6434 -3.6494c -17.3326,3.0563 -34.6653,6.1125 -51.9979 9.1687c 0.2145,1.2164 0.4290,2.4329 0.6435 3.6493c -1.0084,0.1778 -2.0169,0.3556 -3.0253 0.5335ZM 384.4207,722.8139 c 0.7657,4.3426 1.5314,8.6851 2.2971 13.0277c 1.0084,-0.1778 2.0169,-0.3556 3.0254 -0.5335c 1.0958,6.2146 2.1916,12.4292 3.2874 18.6437c -1.0084,0.1778 -2.0169,0.3556 -3.0253 0.5334c 0.7657,4.3426 1.5314,8.6852 2.2971 13.0278c 1.0085,-0.1779 2.0169,-0.3557 3.0254 -0.5335c 0.2145,1.2164 0.4290,2.4329 0.6435 3.6493c 17.3326,-3.0562 34.6652,-6.1124 51.9978 -9.1686c -0.2145,-1.2164 -0.4290,-2.4329 -0.6435 -3.6493c 1.0084,-0.1779 2.0169,-0.3557 3.0254 -0.5335c -0.7658,-4.3426 -1.5315,-8.6852 -2.2972 -13.0277c -1.0084,0.1778 -2.0169,0.3556 -3.0254 0.5334c -1.0958,-6.2146 -2.1915,-12.4291 -3.2874 -18.6437c 1.0084,-0.1778 2.0169,-0.3556 3.0254 -0.5335c -0.7658,-4.3425 -1.5315,-8.6851 -2.2972 -13.0277c -1.0084,0.1778 -2.0169,0.3557 -3.0254 0.5335c -0.2145,-1.2164 -0.4290,-2.4329 -0.6434 -3.6493c -17.3326,3.0562 -34.6653,6.1124 -51.9978 9.1686c 0.2145,1.2164 0.4290,2.4329 0.6434 3.6493c -1.0084,0.1779 -2.0169,0.3557 -3.0253 0.5335ZM 396.8905,793.5339 c 0.7657,4.3426 1.5314,8.6852 2.2972 13.0277c 1.0084,-0.1778 2.0169,-0.3556 3.0253 -0.5334c 1.0958,6.2146 2.1916,12.4291 3.2874 18.6437c -1.0084,0.1778 -2.0169,0.3557 -3.0253 0.5335c 0.7657,4.3425 1.5314,8.6851 2.2972 13.0277c 1.0084,-0.1778 2.0169,-0.3557 3.0253 -0.5335c 0.2145,1.2164 0.4290,2.4329 0.6435 3.6493c 17.3326,-3.0562 34.6652,-6.1124 51.9978 -9.1686c -0.2145,-1.2164 -0.4290,-2.4329 -0.6435 -3.6493c 1.0084,-0.1778 2.0169,-0.3557 3.0254 -0.5335c -0.7657,-4.3426 -1.5315,-8.6851 -2.2972 -13.0277c -1.0084,0.1778 -2.0169,0.3556 -3.0253 0.5335c -1.0958,-6.2146 -2.1916,-12.4291 -3.2874 -18.6437c 1.0084,-0.1779 2.0169,-0.3557 3.0254 -0.5335c -0.7657,-4.3426 -1.5315,-8.6852 -2.2972 -13.0277c -1.0084,0.1778 -2.0169,0.3556 -3.0253 0.5334c -0.2145,-1.2164 -0.4290,-2.4329 -0.6435 -3.6493c -17.3326,3.0562 -34.6652,6.1124 -51.9978 9.1686c 0.2145,1.2164 0.4290,2.4329 0.6434 3.6494c -1.0084,0.1778 -2.0169,0.3556 -3.0253 0.5334ZM 409.3604,864.2540 c 0.7657,4.3425 1.5315,8.6851 2.2972 13.0277c 1.0084,-0.1778 2.0169,-0.3557 3.0253 -0.5335c 1.0958,6.2146 2.1916,12.4291 3.2874 18.6437c -1.0084,0.1779 -2.0169,0.3557 -3.0254 0.5335c 0.7657,4.3426 1.5315,8.6851 2.2972 13.0277c 1.0084,-0.1778 2.0169,-0.3556 3.0253 -0.5335c 0.2145,1.2164 0.4290,2.4329 0.6435 3.6494c 17.3326,-3.0562 34.6652,-6.1124 51.9978 -9.1686c -0.2145,-1.2165 -0.4290,-2.4329 -0.6434 -3.6494c 1.0084,-0.1778 2.0169,-0.3556 3.0253 -0.5335c -0.7657,-4.3425 -1.5314,-8.6851 -2.2972 -13.0277c -1.0084,0.1778 -2.0169,0.3557 -3.0253 0.5335c -1.0958,-6.2146 -2.1916,-12.4291 -3.2874 -18.6437c 1.0085,-0.1778 2.0169,-0.3557 3.0254 -0.5335c -0.7657,-4.3426 -1.5314,-8.6851 -2.2972 -13.0277c -1.0084,0.1778 -2.0169,0.3556 -3.0253 0.5335c -0.2145,-1.2164 -0.4290,-2.4329 -0.6435 -3.6494c -17.3326,3.0562 -34.6652,6.1124 -51.9978 9.1687c 0.2145,1.2164 0.4290,2.4329 0.6435 3.6493c -1.0084,0.1778 -2.0169,0.3556 -3.0254 0.5335ZM 430.8573,572.6260 c 0.7657,4.3426 1.5314,8.6852 2.2971 13.0277c 1.0084,-0.1778 2.0169,-0.3556 3.0254 -0.5334c 1.0958,6.2146 2.1916,12.4291 3.2874 18.6437c -1.0084,0.1778 -2.0169,0.3556 -3.0253 0.5335c 0.7657,4.3425 1.5314,8.6851 2.2971 13.0277c 1.0084,-0.1778 2.0169,-0.3557 3.0254 -0.5335c 0.2145,1.2164 0.4290,2.4329 0.6434 3.6493c 17.3326,-3.0562 34.6653,-6.1124 51.9979 -9.1686c -0.2145,-1.2164 -0.4290,-2.4329 -0.6435 -3.6493c 1.0084,-0.1778 2.0169,-0.3557 3.0254 -0.5335c -0.7658,-4.3426 -1.5315,-8.6851 -2.2972 -13.0277c -1.0084,0.1778 -2.0169,0.3556 -3.0254 0.5335c -1.0958,-6.2146 -2.1916,-12.4291 -3.2874 -18.6437c 1.0084,-0.1779 2.0169,-0.3557 3.0253 -0.5335c -0.7657,-4.3426 -1.5314,-8.6852 -2.2971 -13.0278c -1.0084,0.1779 -2.0169,0.3557 -3.0254 0.5335c -0.2145,-1.2164 -0.4290,-2.4329 -0.6434 -3.6493c -17.3326,3.0562 -34.6653,6.1124 -51.9979 9.1686c 0.2145,1.2164 0.4290,2.4329 0.6435 3.6493c -1.0084,0.1779 -2.0169,0.3557 -3.0253 0.5335ZM 443.3272,643.3461 c 0.7657,4.3425 1.5314,8.6851 2.2971 13.0277c 1.0084,-0.1779 2.0169,-0.3557 3.0254 -0.5335c 1.0958,6.2146 2.1916,12.4291 3.2874 18.6437c -1.0084,0.1778 -2.0169,0.3557 -3.0253 0.5335c 0.7657,4.3426 1.5314,8.6851 2.2971 13.0277c 1.0085,-0.1778 2.0169,-0.3556 3.0254 -0.5335c 0.2145,1.2164 0.4290,2.4329 0.6435 3.6494c 17.3326,-3.0562 34.6652,-6.1124 51.9978 -9.1687c -0.2145,-1.2164 -0.4290,-2.4329 -0.6435 -3.6493c 1.0084,-0.1778 2.0169,-0.3556 3.0254 -0.5335c -0.7658,-4.3425 -1.5315,-8.6851 -2.2972 -13.0277c -1.0084,0.1778 -2.0169,0.3557 -3.0253 0.5335c -1.0958,-6.2146 -2.1916,-12.4291 -3.2874 -18.6437c 1.0084,-0.1779 2.0169,-0.3557 3.0254 -0.5335c -0.7657,-4.3426 -1.5315,-8.6852 -2.2972 -13.0277c -1.0084,0.1778 -2.0169,0.3556 -3.0254 0.5335c -0.2145,-1.2164 -0.4290,-2.4329 -0.6434 -3.6494c -17.3326,3.0562 -34.6653,6.1124 -51.9978 9.1686c 0.2145,1.2165 0.4290,2.4329 0.6434 3.6494c -1.0084,0.1778 -2.0169,0.3556 -3.0253 0.5335ZM 455.7970,714.0661 c 0.7657,4.3426 1.5314,8.6851 2.2972 13.0277c 1.0084,-0.1778 2.0169,-0.3556 3.0253 -0.5335c 1.0958,6.2146 2.1916,12.4291 3.2874 18.6437c -1.0085,0.1779 -2.0169,0.3557 -3.0254 0.5335c 0.7657,4.3426 1.5314,8.6852 2.2972 13.0277c 1.0084,-0.1778 2.0169,-0.3556 3.0253 -0.5334c 0.2145,1.2164 0.4290,2.4329 0.6435 3.6493c 17.3326,-3.0562 34.6652,-6.1124 51.9978 -9.1686c -0.2145,-1.2164 -0.4290,-2.4329 -0.6435 -3.6493c 1.0084,-0.1779 2.0169,-0.3557 3.0254 -0.5335c -0.7657,-4.3426 -1.5315,-8.6852 -2.2972 -13.0277c -1.0084,0.1778 -2.0169,0.3556 -3.0253 0.5334c -1.0958,-6.2146 -2.1916,-12.4291 -3.2874 -18.6437c 1.0085,-0.1778 2.0169,-0.3557 3.0254 -0.5335c -0.7657,-4.3425 -1.5315,-8.6851 -2.2972 -13.0277c -1.0084,0.1778 -2.0169,0.3557 -3.0253 0.5335c -0.2145,-1.2164 -0.4290,-2.4329 -0.6435 -3.6493c -17.3326,3.0562 -34.6652,6.1124 -51.9978 9.1686c 0.2145,1.2164 0.4290,2.4329 0.6434 3.6493c -1.0084,0.1778 -2.0169,0.3557 -3.0253 0.5335ZM 468.2669,784.7862 c 0.7657,4.3426 1.5315,8.6852 2.2972 13.0277c 1.0084,-0.1778 2.0169,-0.3556 3.0253 -0.5334c 1.0958,6.2146 2.1916,12.4291 3.2874 18.6437c -1.0084,0.1778 -2.0169,0.3556 -3.0254 0.5335c 0.7657,4.3425 1.5315,8.6851 2.2972 13.0277c 1.0084,-0.1779 2.0169,-0.3557 3.0253 -0.5335c 0.2145,1.2164 0.4290,2.4329 0.6435 3.6493c 17.3326,-3.0562 34.6652,-6.1124 51.9978 -9.1686c -0.2145,-1.2164 -0.4290,-2.4329 -0.6434 -3.6493c 1.0084,-0.1779 2.0169,-0.3557 3.0253 -0.5335c -0.7657,-4.3426 -1.5314,-8.6851 -2.2971 -13.0277c -1.0085,0.1778 -2.0169,0.3556 -3.0254 0.5335c -1.0958,-6.2146 -2.1916,-12.4291 -3.2874 -18.6437c 1.0084,-0.1778 2.0169,-0.3556 3.0253 -0.5334c -0.7657,-4.3426 -1.5314,-8.6852 -2.2972 -13.0278c -1.0084,0.1779 -2.0169,0.3557 -3.0253 0.5335c -0.2145,-1.2164 -0.4290,-2.4329 -0.6435 -3.6493c -17.3326,3.0562 -34.6652,6.1124 -51.9978 9.1686c 0.2145,1.2164 0.4290,2.4329 0.6435 3.6493c -1.0084,0.1779 -2.0169,0.3557 -3.0254 0.5335ZM 480.7367,855.5063 c 0.7658,4.3425 1.5315,8.6851 2.2972 13.0277c 1.0084,-0.1778 2.0169,-0.3557 3.0254 -0.5335c 1.0958,6.2146 2.1916,12.4291 3.2874 18.6437c -1.0084,0.1778 -2.0169,0.3557 -3.0254 0.5335c 0.7658,4.3426 1.5315,8.6851 2.2972 13.0277c 1.0084,-0.1778 2.0169,-0.3556 3.0254 -0.5335c 0.2145,1.2164 0.4290,2.4329 0.6434 3.6494c 17.3326,-3.0562 34.6653,-6.1124 51.9978 -9.1686c -0.2145,-1.2165 -0.4290,-2.4329 -0.6434 -3.6494c 1.0084,-0.1778 2.0169,-0.3557 3.0253 -0.5335c -0.7657,-4.3425 -1.5314,-8.6851 -2.2971 -13.0277c -1.0084,0.1778 -2.0169,0.3557 -3.0254 0.5335c -1.0958,-6.2146 -2.1916,-12.4291 -3.2874 -18.6437c 1.0084,-0.1779 2.0169,-0.3557 3.0253 -0.5335c -0.7657,-4.3426 -1.5314,-8.6852 -2.2971 -13.0277c -1.0085,0.1778 -2.0169,0.3556 -3.0254 0.5335c -0.2145,-1.2165 -0.4290,-2.4329 -0.6435 -3.6494c -17.3326,3.0562 -34.6652,6.1124 -51.9978 9.1686c 0.2145,1.2164 0.4290,2.4329 0.6435 3.6494c -1.0084,0.1778 -2.0169,0.3556 -3.0254 0.5335ZM 503.8518,535.7679 c 0.0000,0.3268 0.0284,0.6581 0.0871 0.9911c 0.5437,3.0835 3.4841,5.1424 6.5676 4.5987c 2.7505,-0.4850 4.6858,-2.8770 4.6858 -5.5765c 0.0000,-0.3268 -0.0284,-0.6581 -0.0871 -0.9911c -0.5437,-3.0835 -3.4841,-5.1424 -6.5676 -4.5987c -2.7505,0.4850 -4.6858,2.8770 -4.6858 5.5765ZM 568.7284,908.0541 c 0.0000,0.3268 0.0284,0.6581 0.0871 0.9911c 0.5437,3.0835 3.4841,5.1424 6.5676 4.5987c 2.7505,-0.4850 4.6858,-2.8770 4.6858 -5.5765c 0.0000,-0.3268 -0.0284,-0.6581 -0.0871 -0.9911c -0.5437,-3.0835 -3.4841,-5.1424 -6.5676 -4.5987c -2.7505,0.4850 -4.6858,2.8770 -4.6858 5.5765Z"/></g><g stroke-linejoin="miter" stroke-opacity="1.0" fill-opacity="0.5" stroke="rgb(0,0,0)" stroke-width="0.7559055118110237" fill="rgb(0,0,255)" stroke-linecap="butt" stroke-miterlimit="10.0"><path d="M 3.9685,16.2520 c 0.0000,-6.7840 5.4995,-12.2834 12.2834 -12.2834c 165.5969,-0.0000 331.1938,-0.0000 496.7907 -0.0000c 5.9611,-0.0000 11.0617,4.2799 12.0969 10.1504c 22.0904,125.2810 44.1809,250.5621 66.2713 375.8431c 0.1270,0.7200 0.1884,1.4371 0.1884 2.1449c 0.0000,5.6184 -3.8689,10.6526 -9.5242 11.9572c -139.2999,32.1341 -278.5998,64.2681 -417.8997 96.4022c -0.9055,0.2089 -1.8318,0.3143 -2.7611 0.3143c -48.3874,-0.0000 -96.7748,-0.0000 -145.1622 -0.0000c -6.7840,-0.0000 -12.2834,-5.4995 -12.2834 -12.2834c 0.0000,-157.4151 0.0000,-314.8302 -0.0000 -472.2453ZM 39.6970,375.2312 c 0.0000,0.2179 0.0189,0.4388 0.0581 0.6607c 4.0953,23.2260 8.1907,46.4519 12.2861 69.6779c 0.3625,2.0557 2.3227,3.4283 4.3784 3.0658c 22.3326,-3.9378 44.6653,-7.8757 66.9979 -11.8135c 1.8595,10.5460 3.7191,21.0919 5.5786 31.6379c 0.3625,2.0557 2.3227,3.4283 4.3784 3.0658c 23.2260,-4.0953 46.4519,-8.1907 69.6779 -12.2861c 1.8337,-0.3233 3.1239,-1.9180 3.1239 -3.7177c 0.0000,-0.2179 -0.0189,-0.4388 -0.0581 -0.6607c -0.8750,-4.9628 -1.7501,-9.9256 -2.6252 -14.8884c 22.3327,-3.9379 44.6653,-7.8757 66.9980 -11.8135c 1.8337,-0.3234 3.1238,-1.9180 3.1238 -3.7177c 0.0000,-0.2179 -0.0189,-0.4388 -0.0580 -0.6608c -1.0938,-6.2035 -2.1877,-12.4070 -3.2816 -18.6105c 21.4393,-3.7803 42.8787,-7.5607 64.3180 -11.3410c 0.8750,4.9628 1.7501,9.9256 2.6252 14.8884c 0.3625,2.0557 2.3227,3.4283 4.3784 3.0658c 22.3326,-3.9379 44.6653,-7.8757 66.9979 -11.8135c 0.4375,2.4814 0.8750,4.9628 1.3126 7.4442c 0.3625,2.0557 2.3227,3.4283 4.3784 3.0658c 22.3326,-3.9379 44.6653,-7.8757 66.9979 -11.8135c 0.3625,2.0557 2.3227,3.4283 4.3784 3.0658c 23.2260,-4.0953 46.4519,-8.1907 69.6779 -12.2861c 1.8337,-0.3233 3.1238,-1.9180 3.1238 -3.7177c 0.0000,-0.2179 -0.0189,-0.4388 -0.0580 -0.6607c -4.0953,-23.2260 -8.1907,-46.4519 -12.2861 -69.6779c -0.0312,-0.1769 -0.0742,-0.3486 -0.1281 -0.5147c -0.0062,-0.1745 -0.0245,-0.3506 -0.0557 -0.5274c -4.0954,-23.2260 -8.1907,-46.4519 -12.2861 -69.6779c -0.0312,-0.1769 -0.0742,-0.3486 -0.1281 -0.5147c -0.0062,-0.1745 -0.0245,-0.3506 -0.0557 -0.5275c -4.0954,-23.2260 -8.1907,-46.4519 -12.2861 -69.6779c -0.0311,-0.1769 -0.0742,-0.3486 -0.1281 -0.5147c -0.0062,-0.1745 -0.0245,-0.3506 -0.0557 -0.5274c -4.0953,-23.2260 -8.1907,-46.4519 -12.2861 -69.6779c -0.0312,-0.1769 -0.0742,-0.3486 -0.1281 -0.5147c -0.0062,-0.1745 -0.0245,-0.3506 -0.0557 -0.5275c -4.0953,-23.2259 -8.1907,-46.4519 -12.2861 -69.6778c -0.3625,-2.0557 -2.3227,-3.4283 -4.3784 -3.0658c -22.3327,3.9378 -44.6653,7.8757 -66.9979 11.8135c -0.3625,-2.0557 -2.3227,-3.4283 -4.3784 -3.0658c -22.3327,3.9378 -44.6653,7.8757 -66.9980 11.8135c -0.4375,-2.4814 -0.8750,-4.9628 -1.3126 -7.4442c -0.3625,-2.0557 -2.3227,-3.4283 -4.3784 -3.0658c -22.3326,3.9379 -44.6653,7.8757 -66.9979 11.8135c -0.8751,-4.9628 -1.7501,-9.9256 -2.6252 -14.8884c -0.3625,-2.0557 -2.3227,-3.4283 -4.3784 -3.0658c -23.2260,4.0953 -46.4519,8.1907 -69.6779 12.2861c -1.8337,0.3233 -3.1238,1.9180 -3.1238 3.7177c 0.0000,0.2178 0.0189,0.4387 0.0580 0.6607c 1.0938,6.2035 2.1877,12.4070 3.2816 18.6105c -22.3326,3.9379 -44.6653,7.8757 -66.9979 11.8135c -1.8337,0.3234 -3.1239,1.9180 -3.1239 3.7177c 0.0000,0.2179 0.0189,0.4388 0.0581 0.6607c 0.8750,4.9628 1.7501,9.9256 2.6252 14.8885c -22.3327,3.9378 -44.6653,7.8757 -66.9980 11.8135c -1.8337,0.3233 -3.1238,1.9180 -3.1238 3.7177c 0.0000,0.2179 0.0189,0.4388 0.0580 0.6607c 4.0954,23.2260 8.1907,46.4519 12.2861 69.6779c 0.0312,0.1769 0.0742,0.3486 0.1281 0.5147c 0.0062,0.1745 0.0245,0.3506 0.0557 0.5275c 4.0953,23.2260 8.1907,46.4519 12.2861 69.6779c 0.0311,0.1769 0.0742,0.3486 0.1280 0.5147c 0.0062,0.1745 0.0245,0.3507 0.0557 0.5275c 4.0953,23.2259 8.1907,46.4519 12.2861 69.6778c 0.0311,0.1769 0.0742,0.3486 0.1281 0.5147c 0.0062,0.1745 0.0245,0.3506 0.0557 0.5275c 1.8595,10.5460 3.7191,21.0919 5.5786 31.6379c -22.3326,3.9379 -44.6653,7.8757 -66.9979 11.8135c -1.8337,0.3233 -3.1239,1.9180 -3.1239 3.7177ZM 48.3770,20.0581 c 0.0000,0.3268 0.0284,0.6581 0.0871 0.9911c 0.5437,3.0835 3.4841,5.1424 6.5676 4.5987c 2.7505,-0.4850 4.6858,-2.8770 4.6858 -5.5765c 0.0000,-0.3268 -0.0284,-0.6581 -0.0871 -0.9911c -0.5437,-3.0835 -3.4841,-5.1424 -6.5676 -4.5987c -2.7505,0.4850 -4.6858,2.8770 -4.6858 5.5765ZM 165.5836,482.6187 c 0.0000,0.3268 0.0284,0.6581 0.0870 0.9911c 0.5437,3.0835 3.4841,5.1424 6.5676 4.5987c 2.7505,-0.4850 4.6858,-2.8770 4.6858 -5.5765c 0.0000,-0.3268 -0.0284,-0.6581 -0.0870 -0.9911c -0.5437,-3.0835 -3.4841,-5.1424 -6.5676 -4.5987c -2.7505,0.4850 -4.6858,2.8770 -4.6858 5.5765ZM 503.8518,20.0581 c 0.0000,0.3268 0.0284,0.6581 0.0871 0.9911c 0.5437,3.0835 3.4841,5.1424 6.5676 4.5987c 2.7505,-0.4850 4.6858,-2.8770 4.6858 -5.5765c 0.0000,-0.3268 -0.0284,-0.6581 -0.0871 -0.9911c -0.5437,-3.0835 -3.4841,-5.1424 -6.5676 -4.5987c -2.7505,0.4850 -4.6858,2.8770 -4.6858 5.5765ZM 568.7284,392.3443 c 0.0000,0.3268 0.0284,0.6581 0.0871 0.9911c 0.5437,3.0835 3.4841,5.1424 6.5676 4.5987c 2.7505,-0.4850 4.6858,-2.8770 4.6858 -5.5765c 0.0000,-0.3268 -0.0284,-0.6581 -0.0871 -0.9911c -0.5437,-3.0835 -3.4841,-5.1424 -6.5676 -4.5987c -2.7505,0.4850 -4.6858,2.8770 -4.6858 5.5765Z"/></g></svg>