<?xml version="1.0" encoding="UTF-8"?>
<!DOCTYPE svg PUBLIC "-//W3C//DTD SVG 1.1//EN"
    "http://www.w3.org/Graphics/SVG/1.1/DTD/svg11.dtd"><svg xmlns="http://www.w3.org/2000/svg" height="1815.3576" stroke-opacity="1" viewBox="0 0 606 1815" font-size="1" width="605.6756" xmlns:xlink="http://www.w3.org/1999/xlink" stroke="rgb(0,0,0)" version="1.1"><defs></defs><defs><linearGradient x2="39.5379" y1="0.0000" gradientUnits="userSpaceOnUse" spreadMethod="pad" gradientTransform="matrix(3.7795,-0.0000,0.0000,-3.7795,20.3464,1701.2095)" id="gradient0" y2="0.0000" x1="-39.5379"><stop stop-opacity="1.0000" offset="0.0000" stop-color="rgb(128,128,128)"/><stop stop-opacity="1.0000" offset="0.5000" stop-color="rgb(255,255,255)"/><stop stop-opacity="1.0000" offset="1.0000" stop-color="rgb(128,128,128)"/></linearGradient></defs><g stroke-linejoin="miter" stroke-opacity="1.0" fill-opacity="1" stroke="rgb(0,0,0)" stroke-width="0.37795275590551186" fill="url(#gradient0)" stroke-linecap="butt" stroke-miterlimit="10.0"><path d="M 3.9685,1390.0851 c 0.0000,-9.0453 7.3326,-16.3779 16.3779 -16.3779c 188.3275,-0.0000 376.6551,-0.0000 564.9827 -0.0000c 9.0453,-0.0000 16.3779,7.3326 16.3779 16.3779c 0.0000,115.8677 0.0000,231.7354 0.0000 347.6032c 0.0000,8.3082 -6.2208,15.3002 -14.4726 16.2668c -163.1307,19.1076 -326.2614,38.2153 -489.3921 57.3229c -0.6324,0.0741 -1.2686,0.1112 -1.9053 0.1112c -25.1969,-0.0000 -50.3937,-0.0000 -75.5906 -0.0000c -9.0453,-0.0000 -16.3779,-7.3326 -16.3779 -16.3779c 0.0000,-134.9753 0.0000,-269.9506 0.0000 -404.9260ZM 90.2677,1393.8647 c 0.0000,3.1311 2.5382,5.6693 5.6693 5.6693c 3.1311,-0.0000 5.6693,-2.5382 5.6693 -5.6693c 0.0000,-3.1311 -2.5382,-5.6693 -5.6693 -5.6693c -3.1311,-0.0000 -5.6693,2.5382 -5.6693 5.6693ZM 90.2677,1791.2316 c 0.0000,3.1311 2.5382,5.6693 5.6693 5.6693c 3.1311,-0.0000 5.6693,-2.5382 5.6693 -5.6693c 0.0000,-3.1310 -2.5382,-5.6693 -5.6693 -5.6693c -3.1311,-0.0000 -5.6693,2.5382 -5.6693 5.6693ZM 575.8803,1393.8647 c 0.0000,3.1311 2.5382,5.6693 5.6693 5.6693c 3.1310,-0.0000 5.6693,-2.5382 5.6693 -5.6693c 0.0000,-3.1311 -2.5382,-5.6693 -5.6693 -5.6693c -3.1311,-0.0000 -5.6693,2.5382 -5.6693 5.6693ZM 575.8803,1733.9087 c 0.0000,3.1311 2.5382,5.6693 5.6693 5.6693c 3.1310,-0.0000 5.6693,-2.5382 5.6693 -5.6693c 0.0000,-3.1311 -2.5382,-5.6693 -5.6693 -5.6693c -3.1311,-0.0000 -5.6693,2.5382 -5.6693 5.6693Z"/></g><g stroke-linejoin="miter" stroke-opacity="1.0" fill-opacity="0.5" stroke="rgb(0,0,0)" stroke-width="0.37795275590551186" fill="rgb(255,255,0)" stroke-linecap="butt" stroke-miterlimit="10.0"><path d="M 3.9685,933.5055 c 0.0000,-9.0453 7.3326,-16.3779 16.3779 -16.3779c 188.3275,-0.0000 376.6551,-0.0000 564.9827 -0.0000c 9.0453,-0.0000 16.3779,7.3326 16.3779 16.3779c 0.0000,115.8677 0.0000,231.7354 0.0000 347.6032c 0.0000,8.3082 -6.2208,15.3002 -14.4726 16.2668c -163.1307,19.1076 -326.2614,38.2153 -489.3921 57.3229c -0.6324,0.0741 -1.2686,0.1112 -1.9053 0.1112c -25.1969,-0.0000 -50.3937,-0.0000 -75.5906 -0.0000c -9.0453,-0.0000 -16.3779,-7.3326 -16.3779 -16.3779c 0.0000,-134.9753 0.0000,-269.9506 0.0000 -404.9260ZM 27.8883,954.4856 c 0.0000,120.9887 0.0000,241.9773 0.0000 362.9660c 0.0000,8.1080 6.7763,14.6808 15.1353 14.6808c 12.2427,-0.0000 24.4854,-0.0000 36.7281 -0.0000c 1.2120,-7.8490 7.9969,-13.8583 16.1853 -13.8583c 8.1884,-0.0000 14.9733,6.0093 16.1853 13.8583c 0.2521,-0.0000 0.5042,-0.0000 0.7563 -0.0000c 0.5884,-0.0000 1.1764,-0.0333 1.7608 -0.0997c 150.3005,-17.0762 300.6010,-34.1525 450.9016 -51.2287c -0.2420,-1.1199 -0.3694,-2.2825 -0.3694 -3.4748c 0.0000,-8.6156 6.6525,-15.6773 15.1010 -16.3289c 0.0000,-102.1716 0.0000,-204.3432 0.0000 -306.5147c 0.0000,-0.2933 -0.0089,-0.5846 -0.0263 -0.8736c -7.5956,-0.5980 -13.7341,-6.3778 -14.8818 -13.8055c -0.0756,-0.0011 -0.1513,-0.0016 -0.2271 -0.0016c -151.0050,-0.0000 -302.0100,-0.0000 -453.0150 -0.0000c -1.2120,7.8490 -7.9969,13.8583 -16.1853 13.8583c -8.1885,-0.0000 -14.9733,-6.0093 -16.1853 -13.8583c -12.2427,-0.0000 -24.4854,-0.0000 -36.7281 -0.0000c -8.3590,-0.0000 -15.1353,6.5728 -15.1353 14.6808ZM 90.2677,937.2851 c 0.0000,3.1311 2.5382,5.6693 5.6693 5.6693c 3.1311,-0.0000 5.6693,-2.5382 5.6693 -5.6693c 0.0000,-3.1311 -2.5382,-5.6693 -5.6693 -5.6693c -3.1311,-0.0000 -5.6693,2.5382 -5.6693 5.6693ZM 90.2677,1334.6520 c 0.0000,3.1311 2.5382,5.6693 5.6693 5.6693c 3.1311,-0.0000 5.6693,-2.5382 5.6693 -5.6693c 0.0000,-3.1310 -2.5382,-5.6693 -5.6693 -5.6693c -3.1311,-0.0000 -5.6693,2.5382 -5.6693 5.6693ZM 575.8803,937.2851 c 0.0000,3.1311 2.5382,5.6693 5.6693 5.6693c 3.1310,-0.0000 5.6693,-2.5382 5.6693 -5.6693c 0.0000,-3.1311 -2.5382,-5.6693 -5.6693 -5.6693c -3.1311,-0.0000 -5.6693,2.5382 -5.6693 5.6693ZM 575.8803,1277.3292 c 0.0000,3.1311 2.5382,5.6693 5.6693 5.6693c 3.1310,-0.0000 5.6693,-2.5382 5.6693 -5.6693c 0.0000,-3.1311 -2.5382,-5.6693 -5.6693 -5.6693c -3.1311,-0.0000 -5.6693,2.5382 -5.6693 5.6693Z"/></g><g stroke-linejoin="miter" stroke-opacity="1.0" fill-opacity="0.5" stroke="rgb(0,0,0)" stroke-width="0.37795275590551186" fill="rgb(0,0,0)" stroke-linecap="butt" stroke-miterlimit="10.0"><path d="M 3.9685,476.9260 c 0.0000,-9.0453 7.3326,-16.3779 16.3779 -16.3779c 188.3275,-0.0000 376.6551,-0.0000 564.9827 -0.0000c 9.0453,-0.0000 16.3779,7.3326 16.3779 16.3779c 0.0000,115.8677 0.0000,231.7354 0.0000 347.6032c 0.0000,8.3082 -6.2208,15.3002 -14.4726 16.2668c -163.1307,19.1076 -326.2614,38.2153 -489.3921 57.3229c -0.6324,0.0741 -1.2686,0.1112 -1.9053 0.1112c -25.1969,-0.0000 -50.3937,-0.0000 -75.5906 -0.0000c -9.0453,-0.0000 -16.3779,-7.3326 -16.3779 -16.3779c 0.0000,-134.9753 0.0000,-269.9506 0.0000 -404.9260ZM 66.4650,729.4505 c 0.0000,4.4096 0.0000,8.8192 0.0000 13.2287c 1.0240,-0.0000 2.0480,-0.0000 3.0720 -0.0000c 0.0000,6.3105 0.0000,12.6209 0.0000 18.9313c -1.0240,-0.0000 -2.0480,-0.0000 -3.0720 -0.0000c 0.0000,4.4096 0.0000,8.8192 0.0000 13.2287c 1.0240,-0.0000 2.0480,-0.0000 3.0720 -0.0000c 0.0000,1.2352 0.0000,2.4704 0.0000 3.7057c 17.6000,-0.0000 35.2000,-0.0000 52.8000 -0.0000c 0.0000,-1.2352 0.0000,-2.4704 0.0000 -3.7057c 1.0240,-0.0000 2.0480,-0.0000 3.0720 -0.0000c 0.0000,-4.4096 0.0000,-8.8192 0.0000 -13.2287c -1.0240,-0.0000 -2.0480,-0.0000 -3.0720 -0.0000c 0.0000,-6.3104 0.0000,-12.6208 0.0000 -18.9313c 1.0240,-0.0000 2.0480,-0.0000 3.0720 -0.0000c 0.0000,-4.4096 0.0000,-8.8192 0.0000 -13.2287c -1.0240,-0.0000 -2.0480,-0.0000 -3.0720 -0.0000c 0.0000,-1.2352 0.0000,-2.4704 0.0000 -3.7056c -17.6000,-0.0000 -35.2000,-0.0000 -52.8000 -0.0000c 0.0000,1.2352 0.0000,2.4704 0.0000 3.7056c -1.0240,-0.0000 -2.0480,-0.0000 -3.0720 0.0000ZM 66.4650,801.2616 c 0.0000,4.4096 0.0000,8.8192 0.0000 13.2287c 1.0240,-0.0000 2.0480,-0.0000 3.0720 -0.0000c 0.0000,6.3104 0.0000,12.6208 0.0000 18.9313c -1.0240,-0.0000 -2.0480,-0.0000 -3.0720 -0.0000c 0.0000,4.4096 0.0000,8.8192 0.0000 13.2287c 1.0240,-0.0000 2.0480,-0.0000 3.0720 -0.0000c 0.0000,1.2352 0.0000,2.4704 0.0000 3.7056c 17.6000,-0.0000 35.2000,-0.0000 52.8000 -0.0000c 0.0000,-1.2352 0.0000,-2.4704 0.0000 -3.7056c 1.0240,-0.0000 2.0480,-0.0000 3.0720 -0.0000c 0.0000,-4.4096 0.0000,-8.8192 0.0000 -13.2287c -1.0240,-0.0000 -2.0480,-0.0000 -3.0720 -0.0000c 0.0000,-6.3105 0.0000,-12.6209 0.0000 -18.9313c 1.0240,-0.0000 2.0480,-0.0000 3.0720 -0.0000c 0.0000,-4.4096 0.0000,-8.8192 0.0000 -13.2287c -1.0240,-0.0000 -2.0480,-0.0000 -3.0720 -0.0000c 0.0000,-1.2352 0.0000,-2.4704 0.0000 -3.7057c -17.6000,-0.0000 -35.2000,-0.0000 -52.8000 -0.0000c 0.0000,1.2352 0.0000,2.4704 0.0000 3.7057c -1.0240,-0.0000 -2.0480,-0.0000 -3.0720 -0.0000ZM 90.2677,480.7056 c 0.0000,3.1311 2.5382,5.6693 5.6693 5.6693c 3.1311,-0.0000 5.6693,-2.5382 5.6693 -5.6693c 0.0000,-3.1311 -2.5382,-5.6693 -5.6693 -5.6693c -3.1311,-0.0000 -5.6693,2.5382 -5.6693 5.6693ZM 90.2677,878.0725 c 0.0000,3.1311 2.5382,5.6693 5.6693 5.6693c 3.1311,-0.0000 5.6693,-2.5382 5.6693 -5.6693c 0.0000,-3.1310 -2.5382,-5.6693 -5.6693 -5.6693c -3.1311,-0.0000 -5.6693,2.5382 -5.6693 5.6693ZM 138.2760,549.9230 c 0.0000,4.4096 0.0000,8.8192 0.0000 13.2287c 1.0240,-0.0000 2.0480,-0.0000 3.0720 -0.0000c 0.0000,6.3104 0.0000,12.6209 0.0000 18.9313c -1.0240,-0.0000 -2.0479,-0.0000 -3.0720 -0.0000c 0.0000,4.4096 0.0000,8.8192 0.0000 13.2287c 1.0240,-0.0000 2.0480,-0.0000 3.0720 -0.0000c 0.0000,1.2352 0.0000,2.4704 0.0000 3.7056c 17.6000,-0.0000 35.2000,-0.0000 52.8000 -0.0000c 0.0000,-1.2352 0.0000,-2.4704 0.0000 -3.7056c 1.0240,-0.0000 2.0480,-0.0000 3.0720 -0.0000c 0.0000,-4.4096 0.0000,-8.8192 0.0000 -13.2287c -1.0240,-0.0000 -2.0480,-0.0000 -3.0720 -0.0000c 0.0000,-6.3104 0.0000,-12.6209 0.0000 -18.9313c 1.0240,-0.0000 2.0480,-0.0000 3.0720 -0.0000c 0.0000,-4.4096 0.0000,-8.8192 0.0000 -13.2287c -1.0240,-0.0000 -2.0480,-0.0000 -3.0720 -0.0000c 0.0000,-1.2352 0.0000,-2.4704 0.0000 -3.7057c -17.6000,-0.0000 -35.2000,-0.0000 -52.8000 -0.0000c 0.0000,1.2352 0.0000,2.4704 0.0000 3.7057c -1.0240,-0.0000 -2.0479,-0.0000 -3.0720 -0.0000ZM 138.2760,621.7341 c 0.0000,4.4095 0.0000,8.8191 0.0000 13.2287c 1.0240,-0.0000 2.0480,-0.0000 3.0720 -0.0000c 0.0000,6.3105 0.0000,12.6209 0.0000 18.9313c -1.0240,-0.0000 -2.0479,-0.0000 -3.0720 -0.0000c 0.0000,4.4095 0.0000,8.8191 0.0000 13.2287c 1.0240,-0.0000 2.0480,-0.0000 3.0720 -0.0000c 0.0000,1.2352 0.0000,2.4704 0.0000 3.7057c 17.6000,-0.0000 35.2000,-0.0000 52.8000 -0.0000c 0.0000,-1.2352 0.0000,-2.4704 0.0000 -3.7057c 1.0240,-0.0000 2.0480,-0.0000 3.0720 -0.0000c 0.0000,-4.4096 0.0000,-8.8192 0.0000 -13.2287c -1.0240,-0.0000 -2.0480,-0.0000 -3.0720 -0.0000c 0.0000,-6.3105 0.0000,-12.6209 0.0000 -18.9313c 1.0240,-0.0000 2.0480,-0.0000 3.0720 -0.0000c 0.0000,-4.4096 0.0000,-8.8192 0.0000 -13.2287c -1.0240,-0.0000 -2.0480,-0.0000 -3.0720 -0.0000c 0.0000,-1.2352 0.0000,-2.4704 0.0000 -3.7057c -17.6000,-0.0000 -35.2000,-0.0000 -52.8000 -0.0000c 0.0000,1.2352 0.0000,2.4704 0.0000 3.7057c -1.0240,-0.0000 -2.0479,-0.0000 -3.0720 -0.0000ZM 138.2760,693.5450 c 0.0000,4.4096 0.0000,8.8192 0.0000 13.2287c 1.0240,-0.0000 2.0480,-0.0000 3.0720 -0.0000c 0.0000,6.3104 0.0000,12.6209 0.0000 18.9313c -1.0240,-0.0000 -2.0479,-0.0000 -3.0720 -0.0000c 0.0000,4.4096 0.0000,8.8192 0.0000 13.2287c 1.0240,-0.0000 2.0480,-0.0000 3.0720 -0.0000c 0.0000,1.2352 0.0000,2.4704 0.0000 3.7056c 17.6000,-0.0000 35.2000,-0.0000 52.8000 -0.0000c 0.0000,-1.2352 0.0000,-2.4704 0.0000 -3.7056c 1.0240,-0.0000 2.0480,-0.0000 3.0720 -0.0000c 0.0000,-4.4096 0.0000,-8.8192 0.0000 -13.2287c -1.0240,-0.0000 -2.0480,-0.0000 -3.0720 -0.0000c 0.0000,-6.3104 0.0000,-12.6209 0.0000 -18.9313c 1.0240,-0.0000 2.0480,-0.0000 3.0720 -0.0000c 0.0000,-4.4096 0.0000,-8.8192 0.0000 -13.2287c -1.0240,-0.0000 -2.0480,-0.0000 -3.0720 -0.0000c 0.0000,-1.2352 0.0000,-2.4704 0.0000 -3.7056c -17.6000,-0.0000 -35.2000,-0.0000 -52.8000 -0.0000c 0.0000,1.2352 0.0000,2.4704 0.0000 3.7056c -1.0240,-0.0000 -2.0479,-0.0000 -3.0720 -0.0000ZM 138.2760,765.3561 c 0.0000,4.4096 0.0000,8.8192 0.0000 13.2287c 1.0240,-0.0000 2.0480,-0.0000 3.0720 -0.0000c 0.0000,6.3105 0.0000,12.6209 0.0000 18.9313c -1.0240,-0.0000 -2.0479,-0.0000 -3.0720 -0.0000c 0.0000,4.4095 0.0000,8.8191 0.0000 13.2287c 1.0240,-0.0000 2.0480,-0.0000 3.0720 -0.0000c 0.0000,1.2352 0.0000,2.4704 0.0000 3.7057c 17.6000,-0.0000 35.2000,-0.0000 52.8000 -0.0000c 0.0000,-1.2352 0.0000,-2.4704 0.0000 -3.7057c 1.0240,-0.0000 2.0480,-0.0000 3.0720 -0.0000c 0.0000,-4.4096 0.0000,-8.8192 0.0000 -13.2287c -1.0240,-0.0000 -2.0480,-0.0000 -3.0720 -0.0000c 0.0000,-6.3105 0.0000,-12.6209 0.0000 -18.9313c 1.0240,-0.0000 2.0480,-0.0000 3.0720 -0.0000c 0.0000,-4.4095 0.0000,-8.8191 0.0000 -13.2287c -1.0240,-0.0000 -2.0480,-0.0000 -3.0720 -0.0000c 0.0000,-1.2352 0.0000,-2.4704 0.0000 -3.7057c -17.6000,-0.0000 -35.2000,-0.0000 -52.8000 -0.0000c 0.0000,1.2352 0.0000,2.4704 0.0000 3.7057c -1.0240,-0.0000 -2.0479,-0.0000 -3.0720 0.0000ZM 210.0871,531.0253 c 0.0000,4.4096 0.0000,8.8192 0.0000 13.2287c 1.0240,-0.0000 2.0480,-0.0000 3.0720 -0.0000c 0.0000,6.3104 0.0000,12.6209 0.0000 18.9313c -1.0240,-0.0000 -2.0480,-0.0000 -3.0720 -0.0000c 0.0000,4.4096 0.0000,8.8192 0.0000 13.2287c 1.0240,-0.0000 2.0480,-0.0000 3.0720 -0.0000c 0.0000,1.2352 0.0000,2.4704 0.0000 3.7057c 17.6000,-0.0000 35.2000,-0.0000 52.8000 -0.0000c 0.0000,-1.2352 0.0000,-2.4704 0.0000 -3.7057c 1.0240,-0.0000 2.0480,-0.0000 3.0720 -0.0000c 0.0000,-4.4096 0.0000,-8.8192 0.0000 -13.2287c -1.0240,-0.0000 -2.0480,-0.0000 -3.0720 -0.0000c 0.0000,-6.3104 0.0000,-12.6209 0.0000 -18.9313c 1.0240,-0.0000 2.0480,-0.0000 3.0720 -0.0000c 0.0000,-4.4096 0.0000,-8.8192 0.0000 -13.2287c -1.0240,-0.0000 -2.0480,-0.0000 -3.0720 -0.0000c 0.0000,-1.2352 0.0000,-2.4704 0.0000 -3.7056c -17.6000,-0.0000 -35.2000,-0.0000 -52.8000 -0.0000c 0.0000,1.2352 0.0000,2.4704 0.0000 3.7056c -1.0240,-0.0000 -2.0480,-0.0000 -3.0720 -0.0000ZM 210.0871,602.8364 c 0.0000,4.4096 0.0000,8.8192 0.0000 13.2287c 1.0240,-0.0000 2.0480,-0.0000 3.0720 -0.0000c 0.0000,6.3104 0.0000,12.6208 0.0000 18.9313c -1.0240,-0.0000 -2.0480,-0.0000 -3.0720 -0.0000c 0.0000,4.4096 0.0000,8.8192 0.0000 13.2287c 1.0240,-0.0000 2.0480,-0.0000 3.0720 -0.0000c 0.0000,1.2352 0.0000,2.4704 0.0000 3.7056c 17.6000,-0.0000 35.2000,-0.0000 52.8000 -0.0000c 0.0000,-1.2352 0.0000,-2.4704 0.0000 -3.7056c 1.0240,-0.0000 2.0480,-0.0000 3.0720 -0.0000c 0.0000,-4.4096 0.0000,-8.8192 0.0000 -13.2287c -1.0240,-0.0000 -2.0480,-0.0000 -3.0720 -0.0000c 0.0000,-6.3105 0.0000,-12.6209 0.0000 -18.9313c 1.0240,-0.0000 2.0480,-0.0000 3.0720 -0.0000c 0.0000,-4.4096 0.0000,-8.8192 0.0000 -13.2287c -1.0240,-0.0000 -2.0480,-0.0000 -3.0720 -0.0000c 0.0000,-1.2352 0.0000,-2.4704 0.0000 -3.7057c -17.6000,-0.0000 -35.2000,-0.0000 -52.8000 -0.0000c 0.0000,1.2352 0.0000,2.4704 0.0000 3.7057c -1.0240,-0.0000 -2.0480,-0.0000 -3.0720 -0.0000ZM 210.0871,674.6474 c 0.0000,4.4096 0.0000,8.8192 0.0000 13.2287c 1.0240,-0.0000 2.0480,-0.0000 3.0720 -0.0000c 0.0000,6.3105 0.0000,12.6209 0.0000 18.9313c -1.0240,-0.0000 -2.0480,-0.0000 -3.0720 -0.0000c 0.0000,4.4096 0.0000,8.8192 0.0000 13.2287c 1.0240,-0.0000 2.0480,-0.0000 3.0720 -0.0000c 0.0000,1.2352 0.0000,2.4704 0.0000 3.7057c 17.6000,-0.0000 35.2000,-0.0000 52.8000 -0.0000c 0.0000,-1.2352 0.0000,-2.4704 0.0000 -3.7057c 1.0240,-0.0000 2.0480,-0.0000 3.0720 -0.0000c 0.0000,-4.4096 0.0000,-8.8192 0.0000 -13.2287c -1.0240,-0.0000 -2.0480,-0.0000 -3.0720 -0.0000c 0.0000,-6.3104 0.0000,-12.6208 0.0000 -18.9313c 1.0240,-0.0000 2.0480,-0.0000 3.0720 -0.0000c 0.0000,-4.4096 0.0000,-8.8192 0.0000 -13.2287c -1.0240,-0.0000 -2.0480,-0.0000 -3.0720 -0.0000c 0.0000,-1.2352 0.0000,-2.4704 0.0000 -3.7056c -17.6000,-0.0000 -35.2000,-0.0000 -52.8000 -0.0000c 0.0000,1.2352 0.0000,2.4704 0.0000 3.7056c -1.0240,-0.0000 -2.0480,-0.0000 -3.0720 -0.0000ZM 210.0871,746.4584 c 0.0000,4.4096 0.0000,8.8192 0.0000 13.2287c 1.0240,-0.0000 2.0480,-0.0000 3.0720 -0.0000c 0.0000,6.3104 0.0000,12.6208 0.0000 18.9313c -1.0240,-0.0000 -2.0480,-0.0000 -3.0720 -0.0000c 0.0000,4.4096 0.0000,8.8192 0.0000 13.2287c 1.0240,-0.0000 2.0480,-0.0000 3.0720 -0.0000c 0.0000,1.2352 0.0000,2.4704 0.0000 3.7056c 17.6000,-0.0000 35.2000,-0.0000 52.8000 -0.0000c 0.0000,-1.2352 0.0000,-2.4704 0.0000 -3.7056c 1.0240,-0.0000 2.0480,-0.0000 3.0720 -0.0000c 0.0000,-4.4096 0.0000,-8.8192 0.0000 -13.2287c -1.0240,-0.0000 -2.0480,-0.0000 -3.0720 -0.0000c 0.0000,-6.3105 0.0000,-12.6209 0.0000 -18.9313c 1.0240,-0.0000 2.0480,-0.0000 3.0720 -0.0000c 0.0000,-4.4096 0.0000,-8.8192 0.0000 -13.2287c -1.0240,-0.0000 -2.0480,-0.0000 -3.0720 -0.0000c 0.0000,-1.2352 0.0000,-2.4704 0.0000 -3.7057c -17.6000,-0.0000 -35.2000,-0.0000 -52.8000 -0.0000c 0.0000,1.2352 0.0000,2.4704 0.0000 3.7057c -1.0240,-0.0000 -2.0480,-0.0000 -3.0720 0.0000ZM 281.8981,508.3482 c 0.0000,4.4096 0.0000,8.8192 0.0000 13.2287c 1.0240,-0.0000 2.0480,-0.0000 3.0720 -0.0000c 0.0000,6.3104 0.0000,12.6209 0.0000 18.9313c -1.0240,-0.0000 -2.0480,-0.0000 -3.0720 -0.0000c 0.0000,4.4096 0.0000,8.8192 0.0000 13.2287c 1.0240,-0.0000 2.0480,-0.0000 3.0720 -0.0000c 0.0000,1.2352 0.0000,2.4704 0.0000 3.7056c 17.6000,-0.0000 35.1999,-0.0000 52.7999 -0.0000c 0.0000,-1.2352 0.0000,-2.4704 0.0000 -3.7056c 1.0240,-0.0000 2.0480,-0.0000 3.0720 -0.0000c 0.0000,-4.4096 0.0000,-8.8192 0.0000 -13.2287c -1.0240,-0.0000 -2.0480,-0.0000 -3.0720 -0.0000c 0.0000,-6.3104 0.0000,-12.6209 0.0000 -18.9313c 1.0240,-0.0000 2.0480,-0.0000 3.0720 -0.0000c 0.0000,-4.4096 0.0000,-8.8192 0.0000 -13.2287c -1.0240,-0.0000 -2.0480,-0.0000 -3.0720 -0.0000c 0.0000,-1.2352 0.0000,-2.4704 0.0000 -3.7056c -17.6000,-0.0000 -35.1999,-0.0000 -52.7999 -0.0000c 0.0000,1.2352 0.0000,2.4704 0.0000 3.7056c -1.0240,-0.0000 -2.0480,-0.0000 -3.0720 -0.0000ZM 281.8981,580.1592 c 0.0000,4.4096 0.0000,8.8192 0.0000 13.2287c 1.0240,-0.0000 2.0480,-0.0000 3.0720 -0.0000c 0.0000,6.3104 0.0000,12.6208 0.0000 18.9313c -1.0240,-0.0000 -2.0480,-0.0000 -3.0720 -0.0000c 0.0000,4.4096 0.0000,8.8192 0.0000 13.2287c 1.0240,-0.0000 2.0480,-0.0000 3.0720 -0.0000c 0.0000,1.2352 0.0000,2.4704 0.0000 3.7056c 17.6000,-0.0000 35.1999,-0.0000 52.7999 -0.0000c 0.0000,-1.2352 0.0000,-2.4704 0.0000 -3.7056c 1.0240,-0.0000 2.0480,-0.0000 3.0720 -0.0000c 0.0000,-4.4096 0.0000,-8.8192 0.0000 -13.2287c -1.0240,-0.0000 -2.0480,-0.0000 -3.0720 -0.0000c 0.0000,-6.3105 0.0000,-12.6209 0.0000 -18.9313c 1.0240,-0.0000 2.0480,-0.0000 3.0720 -0.0000c 0.0000,-4.4096 0.0000,-8.8192 0.0000 -13.2287c -1.0240,-0.0000 -2.0480,-0.0000 -3.0720 -0.0000c 0.0000,-1.2352 0.0000,-2.4704 0.0000 -3.7057c -17.6000,-0.0000 -35.1999,-0.0000 -52.7999 -0.0000c 0.0000,1.2352 0.0000,2.4704 0.0000 3.7057c -1.0240,-0.0000 -2.0480,-0.0000 -3.0720 -0.0000ZM 281.8981,651.9702 c 0.0000,4.4096 0.0000,8.8192 0.0000 13.2287c 1.0240,-0.0000 2.0480,-0.0000 3.0720 -0.0000c 0.0000,6.3105 0.0000,12.6209 0.0000 18.9313c -1.0240,-0.0000 -2.0480,-0.0000 -3.0720 -0.0000c 0.0000,4.4096 0.0000,8.8192 0.0000 13.2287c 1.0240,-0.0000 2.0480,-0.0000 3.0720 -0.0000c 0.0000,1.2352 0.0000,2.4704 0.0000 3.7057c 17.6000,-0.0000 35.1999,-0.0000 52.7999 -0.0000c 0.0000,-1.2352 0.0000,-2.4704 0.0000 -3.7057c 1.0240,-0.0000 2.0480,-0.0000 3.0720 -0.0000c 0.0000,-4.4096 0.0000,-8.8192 0.0000 -13.2287c -1.0240,-0.0000 -2.0480,-0.0000 -3.0720 -0.0000c 0.0000,-6.3104 0.0000,-12.6208 0.0000 -18.9313c 1.0240,-0.0000 2.0480,-0.0000 3.0720 -0.0000c 0.0000,-4.4096 0.0000,-8.8192 0.0000 -13.2287c -1.0240,-0.0000 -2.0480,-0.0000 -3.0720 -0.0000c 0.0000,-1.2352 0.0000,-2.4704 0.0000 -3.7056c -17.6000,-0.0000 -35.1999,-0.0000 -52.7999 -0.0000c 0.0000,1.2352 0.0000,2.4704 0.0000 3.7056c -1.0240,-0.0000 -2.0480,-0.0000 -3.0720 -0.0000ZM 281.8981,723.7813 c 0.0000,4.4096 0.0000,8.8192 0.0000 13.2287c 1.0240,-0.0000 2.0480,-0.0000 3.0720 -0.0000c 0.0000,6.3104 0.0000,12.6208 0.0000 18.9313c -1.0240,-0.0000 -2.0480,-0.0000 -3.0720 -0.0000c 0.0000,4.4096 0.0000,8.8192 0.0000 13.2287c 1.0240,-0.0000 2.0480,-0.0000 3.0720 -0.0000c 0.0000,1.2352 0.0000,2.4704 0.0000 3.7056c 17.6000,-0.0000 35.1999,-0.0000 52.7999 -0.0000c 0.0000,-1.2352 0.0000,-2.4704 0.0000 -3.7056c 1.0240,-0.0000 2.0480,-0.0000 3.0720 -0.0000c 0.0000,-4.4096 0.0000,-8.8192 0.0000 -13.2287c -1.0240,-0.0000 -2.0480,-0.0000 -3.0720 -0.0000c 0.0000,-6.3105 0.0000,-12.6209 0.0000 -18.9313c 1.0240,-0.0000 2.0480,-0.0000 3.0720 -0.0000c 0.0000,-4.4096 0.0000,-8.8192 0.0000 -13.2287c -1.0240,-0.0000 -2.0480,-0.0000 -3.0720 -0.0000c 0.0000,-1.2352 0.0000,-2.4704 0.0000 -3.7057c -17.6000,-0.0000 -35.1999,-0.0000 -52.7999 -0.0000c 0.0000,1.2352 0.0000,2.4704 0.0000 3.7057c -1.0240,-0.0000 -2.0480,-0.0000 -3.0720 -0.0000ZM 353.7091,527.2458 c 0.0000,4.4096 0.0000,8.8192 0.0000 13.2287c 1.0240,-0.0000 2.0480,-0.0000 3.0720 -0.0000c 0.0000,6.3104 0.0000,12.6209 0.0000 18.9313c -1.0240,-0.0000 -2.0480,-0.0000 -3.0720 -0.0000c 0.0000,4.4096 0.0000,8.8192 0.0000 13.2287c 1.0240,-0.0000 2.0480,-0.0000 3.0720 -0.0000c 0.0000,1.2352 0.0000,2.4704 0.0000 3.7056c 17.6000,-0.0000 35.2000,-0.0000 52.8000 -0.0000c 0.0000,-1.2352 0.0000,-2.4704 0.0000 -3.7056c 1.0240,-0.0000 2.0480,-0.0000 3.0720 -0.0000c 0.0000,-4.4096 0.0000,-8.8192 0.0000 -13.2287c -1.0240,-0.0000 -2.0480,-0.0000 -3.0720 -0.0000c 0.0000,-6.3104 0.0000,-12.6209 0.0000 -18.9313c 1.0240,-0.0000 2.0480,-0.0000 3.0720 -0.0000c 0.0000,-4.4096 0.0000,-8.8192 0.0000 -13.2287c -1.0240,-0.0000 -2.0480,-0.0000 -3.0720 -0.0000c 0.0000,-1.2352 0.0000,-2.4704 0.0000 -3.7057c -17.6000,-0.0000 -35.2000,-0.0000 -52.8000 -0.0000c 0.0000,1.2352 0.0000,2.4704 0.0000 3.7057c -1.0240,-0.0000 -2.0480,-0.0000 -3.0720 -0.0000ZM 353.7091,599.0568 c 0.0000,4.4096 0.0000,8.8192 0.0000 13.2287c 1.0240,-0.0000 2.0480,-0.0000 3.0720 -0.0000c 0.0000,6.3105 0.0000,12.6209 0.0000 18.9313c -1.0240,-0.0000 -2.0480,-0.0000 -3.0720 -0.0000c 0.0000,4.4096 0.0000,8.8192 0.0000 13.2287c 1.0240,-0.0000 2.0480,-0.0000 3.0720 -0.0000c 0.0000,1.2352 0.0000,2.4704 0.0000 3.7057c 17.6000,-0.0000 35.2000,-0.0000 52.8000 -0.0000c 0.0000,-1.2352 0.0000,-2.4704 0.0000 -3.7057c 1.0240,-0.0000 2.0480,-0.0000 3.0720 -0.0000c 0.0000,-4.4096 0.0000,-8.8192 0.0000 -13.2287c -1.0240,-0.0000 -2.0480,-0.0000 -3.0720 -0.0000c 0.0000,-6.3104 0.0000,-12.6208 0.0000 -18.9313c 1.0240,-0.0000 2.0480,-0.0000 3.0720 -0.0000c 0.0000,-4.4096 0.0000,-8.8192 0.0000 -13.2287c -1.0240,-0.0000 -2.0480,-0.0000 -3.0720 -0.0000c 0.0000,-1.2352 0.0000,-2.4704 0.0000 -3.7056c -17.6000,-0.0000 -35.2000,-0.0000 -52.8000 -0.0000c 0.0000,1.2352 0.0000,2.4704 0.0000 3.7056c -1.0240,-0.0000 -2.0480,-0.0000 -3.0720 -0.0000ZM 353.7091,670.8679 c 0.0000,4.4096 0.0000,8.8192 0.0000 13.2287c 1.0240,-0.0000 2.0480,-0.0000 3.0720 -0.0000c 0.0000,6.3104 0.0000,12.6209 0.0000 18.9313c -1.0240,-0.0000 -2.0480,-0.0000 -3.0720 -0.0000c 0.0000,4.4096 0.0000,8.8192 0.0000 13.2287c 1.0240,-0.0000 2.0480,-0.0000 3.0720 -0.0000c 0.0000,1.2352 0.0000,2.4704 0.0000 3.7056c 17.6000,-0.0000 35.2000,-0.0000 52.8000 -0.0000c 0.0000,-1.2352 0.0000,-2.4704 0.0000 -3.7056c 1.0240,-0.0000 2.0480,-0.0000 3.0720 -0.0000c 0.0000,-4.4096 0.0000,-8.8192 0.0000 -13.2287c -1.0240,-0.0000 -2.0480,-0.0000 -3.0720 -0.0000c 0.0000,-6.3104 0.0000,-12.6209 0.0000 -18.9313c 1.0240,-0.0000 2.0480,-0.0000 3.0720 -0.0000c 0.0000,-4.4096 0.0000,-8.8192 0.0000 -13.2287c -1.0240,-0.0000 -2.0480,-0.0000 -3.0720 -0.0000c 0.0000,-1.2352 0.0000,-2.4704 0.0000 -3.7057c -17.6000,-0.0000 -35.2000,-0.0000 -52.8000 -0.0000c 0.0000,1.2352 0.0000,2.4704 0.0000 3.7057c -1.0240,-0.0000 -2.0480,-0.0000 -3.0720 -0.0000ZM 353.7091,742.6789 c 0.0000,4.4096 0.0000,8.8192 0.0000 13.2287c 1.0240,-0.0000 2.0480,-0.0000 3.0720 -0.0000c 0.0000,6.3105 0.0000,12.6209 0.0000 18.9313c -1.0240,-0.0000 -2.0480,-0.0000 -3.0720 -0.0000c 0.0000,4.4095 0.0000,8.8191 0.0000 13.2287c 1.0240,-0.0000 2.0480,-0.0000 3.0720 -0.0000c 0.0000,1.2352 0.0000,2.4704 0.0000 3.7057c 17.6000,-0.0000 35.2000,-0.0000 52.8000 -0.0000c 0.0000,-1.2352 0.0000,-2.4704 0.0000 -3.7057c 1.0240,-0.0000 2.0480,-0.0000 3.0720 -0.0000c 0.0000,-4.4096 0.0000,-8.8192 0.0000 -13.2287c -1.0240,-0.0000 -2.0480,-0.0000 -3.0720 -0.0000c 0.0000,-6.3105 0.0000,-12.6209 0.0000 -18.9313c 1.0240,-0.0000 2.0480,-0.0000 3.0720 -0.0000c 0.0000,-4.4096 0.0000,-8.8192 0.0000 -13.2287c -1.0240,-0.0000 -2.0480,-0.0000 -3.0720 -0.0000c 0.0000,-1.2352 0.0000,-2.4704 0.0000 -3.7056c -17.6000,-0.0000 -35.2000,-0.0000 -52.8000 -0.0000c 0.0000,1.2352 0.0000,2.4704 0.0000 3.7056c -1.0240,-0.0000 -2.0480,-0.0000 -3.0720 -0.0000ZM 425.5201,538.5844 c 0.0000,4.4096 0.0000,8.8192 0.0000 13.2287c 1.0240,-0.0000 2.0480,-0.0000 3.0720 -0.0000c 0.0000,6.3104 0.0000,12.6209 0.0000 18.9313c -1.0240,-0.0000 -2.0480,-0.0000 -3.0720 -0.0000c 0.0000,4.4096 0.0000,8.8192 0.0000 13.2287c 1.0240,-0.0000 2.0480,-0.0000 3.0720 -0.0000c 0.0000,1.2352 0.0000,2.4704 0.0000 3.7056c 17.6000,-0.0000 35.1999,-0.0000 52.7999 -0.0000c 0.0000,-1.2352 0.0000,-2.4704 0.0000 -3.7056c 1.0240,-0.0000 2.0480,-0.0000 3.0720 -0.0000c 0.0000,-4.4096 0.0000,-8.8192 0.0000 -13.2287c -1.0240,-0.0000 -2.0480,-0.0000 -3.0720 -0.0000c 0.0000,-6.3104 0.0000,-12.6209 0.0000 -18.9313c 1.0240,-0.0000 2.0480,-0.0000 3.0720 -0.0000c 0.0000,-4.4096 0.0000,-8.8192 0.0000 -13.2287c -1.0240,-0.0000 -2.0480,-0.0000 -3.0720 -0.0000c 0.0000,-1.2352 0.0000,-2.4704 0.0000 -3.7057c -17.6000,-0.0000 -35.1999,-0.0000 -52.7999 -0.0000c 0.0000,1.2352 0.0000,2.4704 0.0000 3.7057c -1.0240,-0.0000 -2.0480,-0.0000 -3.0720 -0.0000ZM 425.5201,610.3954 c 0.0000,4.4096 0.0000,8.8192 0.0000 13.2287c 1.0240,-0.0000 2.0480,-0.0000 3.0720 -0.0000c 0.0000,6.3105 0.0000,12.6209 0.0000 18.9313c -1.0240,-0.0000 -2.0480,-0.0000 -3.0720 -0.0000c 0.0000,4.4096 0.0000,8.8192 0.0000 13.2287c 1.0240,-0.0000 2.0480,-0.0000 3.0720 -0.0000c 0.0000,1.2352 0.0000,2.4704 0.0000 3.7057c 17.6000,-0.0000 35.1999,-0.0000 52.7999 -0.0000c 0.0000,-1.2352 0.0000,-2.4704 0.0000 -3.7057c 1.0240,-0.0000 2.0480,-0.0000 3.0720 -0.0000c 0.0000,-4.4096 0.0000,-8.8192 0.0000 -13.2287c -1.0240,-0.0000 -2.0480,-0.0000 -3.0720 -0.0000c 0.0000,-6.3104 0.0000,-12.6208 0.0000 -18.9313c 1.0240,-0.0000 2.0480,-0.0000 3.0720 -0.0000c 0.0000,-4.4096 0.0000,-8.8192 0.0000 -13.2287c -1.0240,-0.0000 -2.0480,-0.0000 -3.0720 -0.0000c 0.0000,-1.2352 0.0000,-2.4704 0.0000 -3.7056c -17.6000,-0.0000 -35.1999,-0.0000 -52.7999 -0.0000c 0.0000,1.2352 0.0000,2.4704 0.0000 3.7056c -1.0240,-0.0000 -2.0480,-0.0000 -3.0720 -0.0000ZM 425.5201,682.2065 c 0.0000,4.4096 0.0000,8.8192 0.0000 13.2287c 1.0240,-0.0000 2.0480,-0.0000 3.0720 -0.0000c 0.0000,6.3104 0.0000,12.6209 0.0000 18.9313c -1.0240,-0.0000 -2.0480,-0.0000 -3.0720 -0.0000c 0.0000,4.4096 0.0000,8.8192 0.0000 13.2287c 1.0240,-0.0000 2.0480,-0.0000 3.0720 -0.0000c 0.0000,1.2352 0.0000,2.4704 0.0000 3.7056c 17.6000,-0.0000 35.1999,-0.0000 52.7999 -0.0000c 0.0000,-1.2352 0.0000,-2.4704 0.0000 -3.7056c 1.0240,-0.0000 2.0480,-0.0000 3.0720 -0.0000c 0.0000,-4.4096 0.0000,-8.8192 0.0000 -13.2287c -1.0240,-0.0000 -2.0480,-0.0000 -3.0720 -0.0000c 0.0000,-6.3104 0.0000,-12.6209 0.0000 -18.9313c 1.0240,-0.0000 2.0480,-0.0000 3.0720 -0.0000c 0.0000,-4.4096 0.0000,-8.8192 0.0000 -13.2287c -1.0240,-0.0000 -2.0480,-0.0000 -3.0720 -0.0000c 0.0000,-1.2352 0.0000,-2.4704 0.0000 -3.7057c -17.6000,-0.0000 -35.1999,-0.0000 -52.7999 -0.0000c 0.0000,1.2352 0.0000,2.4704 0.0000 3.7057c -1.0240,-0.0000 -2.0480,-0.0000 -3.0720 -0.0000ZM 425.5201,754.0175 c 0.0000,4.4096 0.0000,8.8191 0.0000 13.2287c 1.0240,-0.0000 2.0480,-0.0000 3.0720 -0.0000c 0.0000,6.3105 0.0000,12.6209 0.0000 18.9313c -1.0240,-0.0000 -2.0480,-0.0000 -3.0720 -0.0000c 0.0000,4.4095 0.0000,8.8191 0.0000 13.2287c 1.0240,-0.0000 2.0480,-0.0000 3.0720 -0.0000c 0.0000,1.2352 0.0000,2.4704 0.0000 3.7057c 17.6000,-0.0000 35.1999,-0.0000 52.7999 -0.0000c 0.0000,-1.2352 0.0000,-2.4704 0.0000 -3.7057c 1.0240,-0.0000 2.0480,-0.0000 3.0720 -0.0000c 0.0000,-4.4096 0.0000,-8.8192 0.0000 -13.2287c -1.0240,-0.0000 -2.0480,-0.0000 -3.0720 -0.0000c 0.0000,-6.3105 0.0000,-12.6209 0.0000 -18.9313c 1.0240,-0.0000 2.0480,-0.0000 3.0720 -0.0000c 0.0000,-4.4096 0.0000,-8.8191 0.0000 -13.2287c -1.0240,-0.0000 -2.0480,-0.0000 -3.0720 -0.0000c 0.0000,-1.2352 0.0000,-2.4704 0.0000 -3.7057c -17.6000,-0.0000 -35.1999,-0.0000 -52.7999 -0.0000c 0.0000,1.2352 0.0000,2.4704 0.0000 3.7057c -1.0240,-0.0000 -2.0480,-0.0000 -3.0720 -0.0000ZM 497.3312,542.3639 c 0.0000,4.4096 0.0000,8.8192 0.0000 13.2287c 1.0240,-0.0000 2.0480,-0.0000 3.0720 -0.0000c 0.0000,6.3104 0.0000,12.6209 0.0000 18.9313c -1.0240,-0.0000 -2.0480,-0.0000 -3.0720 -0.0000c 0.0000,4.4096 0.0000,8.8192 0.0000 13.2287c 1.0240,-0.0000 2.0480,-0.0000 3.0720 -0.0000c 0.0000,1.2352 0.0000,2.4704 0.0000 3.7057c 17.6000,-0.0000 35.2000,-0.0000 52.8000 -0.0000c 0.0000,-1.2352 0.0000,-2.4704 0.0000 -3.7057c 1.0240,-0.0000 2.0480,-0.0000 3.0720 -0.0000c 0.0000,-4.4096 0.0000,-8.8192 0.0000 -13.2287c -1.0240,-0.0000 -2.0480,-0.0000 -3.0720 -0.0000c 0.0000,-6.3104 0.0000,-12.6209 0.0000 -18.9313c 1.0240,-0.0000 2.0480,-0.0000 3.0720 -0.0000c 0.0000,-4.4096 0.0000,-8.8192 0.0000 -13.2287c -1.0240,-0.0000 -2.0480,-0.0000 -3.0720 -0.0000c 0.0000,-1.2352 0.0000,-2.4704 0.0000 -3.7056c -17.6000,-0.0000 -35.2000,-0.0000 -52.8000 -0.0000c 0.0000,1.2352 0.0000,2.4704 0.0000 3.7056c -1.0240,-0.0000 -2.0480,-0.0000 -3.0720 -0.0000ZM 497.3312,614.1750 c 0.0000,4.4096 0.0000,8.8192 0.0000 13.2287c 1.0240,-0.0000 2.0480,-0.0000 3.0720 -0.0000c 0.0000,6.3104 0.0000,12.6208 0.0000 18.9313c -1.0240,-0.0000 -2.0480,-0.0000 -3.0720 -0.0000c 0.0000,4.4096 0.0000,8.8192 0.0000 13.2287c 1.0240,-0.0000 2.0480,-0.0000 3.0720 -0.0000c 0.0000,1.2352 0.0000,2.4704 0.0000 3.7056c 17.6000,-0.0000 35.2000,-0.0000 52.8000 -0.0000c 0.0000,-1.2352 0.0000,-2.4704 0.0000 -3.7056c 1.0240,-0.0000 2.0480,-0.0000 3.0720 -0.0000c 0.0000,-4.4096 0.0000,-8.8192 0.0000 -13.2287c -1.0240,-0.0000 -2.0480,-0.0000 -3.0720 -0.0000c 0.0000,-6.3105 0.0000,-12.6209 0.0000 -18.9313c 1.0240,-0.0000 2.0480,-0.0000 3.0720 -0.0000c 0.0000,-4.4096 0.0000,-8.8192 0.0000 -13.2287c -1.0240,-0.0000 -2.0480,-0.0000 -3.0720 -0.0000c 0.0000,-1.2352 0.0000,-2.4704 0.0000 -3.7057c -17.6000,-0.0000 -35.2000,-0.0000 -52.8000 -0.0000c 0.0000,1.2352 0.0000,2.4704 0.0000 3.7057c -1.0240,-0.0000 -2.0480,-0.0000 -3.0720 -0.0000ZM 497.3312,685.9860 c 0.0000,4.4096 0.0000,8.8192 0.0000 13.2287c 1.0240,-0.0000 2.0480,-0.0000 3.0720 -0.0000c 0.0000,6.3105 0.0000,12.6209 0.0000 18.9313c -1.0240,-0.0000 -2.0480,-0.0000 -3.0720 -0.0000c 0.0000,4.4096 0.0000,8.8192 0.0000 13.2287c 1.0240,-0.0000 2.0480,-0.0000 3.0720 -0.0000c 0.0000,1.2352 0.0000,2.4704 0.0000 3.7057c 17.6000,-0.0000 35.2000,-0.0000 52.8000 -0.0000c 0.0000,-1.2352 0.0000,-2.4704 0.0000 -3.7057c 1.0240,-0.0000 2.0480,-0.0000 3.0720 -0.0000c 0.0000,-4.4096 0.0000,-8.8192 0.0000 -13.2287c -1.0240,-0.0000 -2.0480,-0.0000 -3.0720 -0.0000c 0.0000,-6.3104 0.0000,-12.6208 0.0000 -18.9313c 1.0240,-0.0000 2.0480,-0.0000 3.0720 -0.0000c 0.0000,-4.4096 0.0000,-8.8192 0.0000 -13.2287c -1.0240,-0.0000 -2.0480,-0.0000 -3.0720 -0.0000c 0.0000,-1.2352 0.0000,-2.4704 0.0000 -3.7056c -17.6000,-0.0000 -35.2000,-0.0000 -52.8000 -0.0000c 0.0000,1.2352 0.0000,2.4704 0.0000 3.7056c -1.0240,-0.0000 -2.0480,-0.0000 -3.0720 -0.0000ZM 497.3312,757.7970 c 0.0000,4.4096 0.0000,8.8192 0.0000 13.2287c 1.0240,-0.0000 2.0480,-0.0000 3.0720 -0.0000c 0.0000,6.3104 0.0000,12.6209 0.0000 18.9313c -1.0240,-0.0000 -2.0480,-0.0000 -3.0720 -0.0000c 0.0000,4.4096 0.0000,8.8192 0.0000 13.2287c 1.0240,-0.0000 2.0480,-0.0000 3.0720 -0.0000c 0.0000,1.2352 0.0000,2.4704 0.0000 3.7056c 17.6000,-0.0000 35.2000,-0.0000 52.8000 -0.0000c 0.0000,-1.2352 0.0000,-2.4704 0.0000 -3.7056c 1.0240,-0.0000 2.0480,-0.0000 3.0720 -0.0000c 0.0000,-4.4096 0.0000,-8.8192 0.0000 -13.2287c -1.0240,-0.0000 -2.0480,-0.0000 -3.0720 -0.0000c 0.0000,-6.3104 0.0000,-12.6209 0.0000 -18.9313c 1.0240,-0.0000 2.0480,-0.0000 3.0720 -0.0000c 0.0000,-4.4096 0.0000,-8.8192 0.0000 -13.2287c -1.0240,-0.0000 -2.0480,-0.0000 -3.0720 -0.0000c 0.0000,-1.2352 0.0000,-2.4704 0.0000 -3.7057c -17.6000,-0.0000 -35.2000,-0.0000 -52.8000 -0.0000c 0.0000,1.2352 0.0000,2.4704 0.0000 3.7057c -1.0240,-0.0000 -2.0480,-0.0000 -3.0720 -0.0000ZM 575.8803,480.7056 c 0.0000,3.1311 2.5382,5.6693 5.6693 5.6693c 3.1310,-0.0000 5.6693,-2.5382 5.6693 -5.6693c 0.0000,-3.1311 -2.5382,-5.6693 -5.6693 -5.6693c -3.1311,-0.0000 -5.6693,2.5382 -5.6693 5.6693ZM 575.8803,820.7497 c 0.0000,3.1311 2.5382,5.6693 5.6693 5.6693c 3.1310,-0.0000 5.6693,-2.5382 5.6693 -5.6693c 0.0000,-3.1311 -2.5382,-5.6693 -5.6693 -5.6693c -3.1311,-0.0000 -5.6693,2.5382 -5.6693 5.6693Z"/></g><g stroke-linejoin="miter" stroke-opacity="1.0" fill-opacity="0.5" stroke="rgb(0,0,0)" stroke-width="0.37795275590551186" fill="rgb(0,0,255)" stroke-linecap="butt" stroke-miterlimit="10.0"><path d="M 3.9685,20.3464 c 0.0000,-9.0453 7.3326,-16.3779 16.3779 -16.3779c 188.3275,-0.0000 376.6551,-0.0000 564.9827 -0.0000c 9.0453,-0.0000 16.3779,7.3326 16.3779 16.3779c 0.0000,115.8677 0.0000,231.7354 0.0000 347.6032c 0.0000,8.3082 -6.2208,15.3002 -14.4726 16.2668c -163.1307,19.1076 -326.2614,38.2153 -489.3921 57.3229c -0.6324,0.0741 -1.2686,0.1112 -1.9053 0.1112c -25.1969,-0.0000 -50.3937,-0.0000 -75.5906 -0.0000c -9.0453,-0.0000 -16.3779,-7.3326 -16.3779 -16.3779c 0.0000,-134.9753 0.0000,-269.9506 0.0000 -404.9260ZM 54.8914,258.2992 c 0.0000,23.9370 0.0000,47.8740 0.0000 71.8110c 0.0000,0.9071 0.0000,1.8142 0.0000 2.7213c 0.0000,23.9370 0.0000,47.8740 0.0000 71.8110c 0.0000,2.0874 1.6921,3.7795 3.7795 3.7795c 24.8441,-0.0000 49.6882,-0.0000 74.5323 -0.0000c 2.0874,-0.0000 3.7795,-1.6921 3.7795 -3.7795c 0.0000,-10.7087 0.0000,-21.4173 0.0000 -32.1260c 22.6772,-0.0000 45.3543,-0.0000 68.0315 -0.0000c 2.0874,-0.0000 3.7796,-1.6921 3.7796 -3.7795c 0.0000,-5.0394 0.0000,-10.0787 0.0000 -15.1181c 22.6772,-0.0000 45.3543,-0.0000 68.0315 -0.0000c 2.0874,-0.0000 3.7795,-1.6922 3.7795 -3.7796c 0.0000,-6.2992 0.0000,-12.5984 0.0000 -18.8976c 20.5102,-0.0000 41.0205,-0.0000 61.5307 -0.0000c 0.0000,5.0394 0.0000,10.0787 0.0000 15.1181c 0.0000,2.0874 1.6921,3.7795 3.7795 3.7795c 22.6772,-0.0000 45.3543,-0.0000 68.0315 -0.0000c 0.0000,2.5197 0.0000,5.0394 0.0000 7.5591c 0.0000,2.0874 1.6922,3.7795 3.7796 3.7795c 22.6772,-0.0000 45.3543,-0.0000 68.0315 -0.0000c 0.0000,2.0874 1.6921,3.7796 3.7795 3.7796c 24.8441,-0.0000 49.6882,-0.0000 74.5323 -0.0000c 2.0874,-0.0000 3.7795,-1.6922 3.7795 -3.7796c 0.0000,-23.9370 0.0000,-47.8740 0.0000 -71.8110c 0.0000,-0.9071 0.0000,-1.8142 0.0000 -2.7213c 0.0000,-23.0299 0.0000,-46.0598 0.0000 -69.0898c 0.0000,-0.9071 0.0000,-1.8142 0.0000 -2.7212c 0.0000,-23.0299 0.0000,-46.0599 0.0000 -69.0898c 0.0000,-0.9071 0.0000,-1.8142 0.0000 -2.7213c 0.0000,-23.9370 0.0000,-47.8740 0.0000 -71.8110c 0.0000,-2.0874 -1.6921,-3.7796 -3.7795 -3.7796c -22.6772,-0.0000 -45.3543,-0.0000 -68.0315 -0.0000c 0.0000,-2.0873 -1.6922,-3.7795 -3.7795 -3.7795c -22.6772,-0.0000 -45.3544,-0.0000 -68.0315 -0.0000c 0.0000,-2.5197 0.0000,-5.0394 0.0000 -7.5591c 0.0000,-2.0873 -1.6921,-3.7795 -3.7795 -3.7795c -22.6772,-0.0000 -45.3543,-0.0000 -68.0315 -0.0000c 0.0000,-5.0394 0.0000,-10.0787 0.0000 -15.1181c 0.0000,-2.0874 -1.6922,-3.7796 -3.7796 -3.7796c -24.8440,-0.0000 -49.6882,-0.0000 -74.5322 -0.0000c -2.0874,-0.0000 -3.7796,1.6922 -3.7796 3.7796c 0.0000,6.2992 0.0000,12.5984 0.0000 18.8976c -22.6772,-0.0000 -45.3543,-0.0000 -68.0315 -0.0000c -2.0874,-0.0000 -3.7795,1.6922 -3.7795 3.7796c 0.0000,5.0394 0.0000,10.0787 0.0000 15.1181c -22.6772,-0.0000 -45.3543,-0.0000 -68.0315 -0.0000c -2.0873,-0.0000 -3.7795,1.6922 -3.7795 3.7795c 0.0000,23.9370 0.0000,47.8740 0.0000 71.8110c 0.0000,0.9071 0.0000,1.8142 0.0000 2.7212c 0.0000,23.0299 0.0000,46.0599 0.0000 69.0898c 0.0000,0.9071 0.0000,1.8142 0.0000 2.7212c 0.0000,9.8015 0.0000,19.6031 0.0000 29.4047c -22.6772,-0.0000 -45.3543,-0.0000 -68.0315 -0.0000c -2.0874,-0.0000 -3.7795,1.6921 -3.7795 3.7795ZM 90.2677,24.1260 c 0.0000,3.1311 2.5382,5.6693 5.6693 5.6693c 3.1311,-0.0000 5.6693,-2.5382 5.6693 -5.6693c 0.0000,-3.1311 -2.5382,-5.6693 -5.6693 -5.6693c -3.1311,-0.0000 -5.6693,2.5382 -5.6693 5.6693ZM 90.2677,421.4929 c 0.0000,3.1311 2.5382,5.6693 5.6693 5.6693c 3.1311,-0.0000 5.6693,-2.5382 5.6693 -5.6693c 0.0000,-3.1310 -2.5382,-5.6693 -5.6693 -5.6693c -3.1311,-0.0000 -5.6693,2.5382 -5.6693 5.6693ZM 575.8803,24.1260 c 0.0000,3.1311 2.5382,5.6693 5.6693 5.6693c 3.1310,-0.0000 5.6693,-2.5382 5.6693 -5.6693c 0.0000,-3.1311 -2.5382,-5.6693 -5.6693 -5.6693c -3.1311,-0.0000 -5.6693,2.5382 -5.6693 5.6693ZM 575.8803,364.1701 c 0.0000,3.1311 2.5382,5.6693 5.6693 5.6693c 3.1310,-0.0000 5.6693,-2.5382 5.6693 -5.6693c 0.0000,-3.1311 -2.5382,-5.6693 -5.6693 -5.6693c -3.1311,-0.0000 -5.6693,2.5382 -5.6693 5.6693Z"/></g></svg>