<?xml version="1.0" encoding="UTF-8"?>
<!DOCTYPE svg PUBLIC "-//W3C//DTD SVG 1.1//EN"
    "http://www.w3.org/Graphics/SVG/1.1/DTD/svg11.dtd"><svg xmlns="http://www.w3.org/2000/svg" height="2756.3382" stroke-opacity="1" viewBox="0 0 1272 2756" font-size="1" width="1271.6213" xmlns:xlink="http://www.w3.org/1999/xlink" stroke="rgb(0,0,0)" version="1.1"><defs></defs><g stroke-linejoin="miter" stroke-opacity="1.0" fill-opacity="0.5" stroke="rgb(0,0,0)" stroke-width="0.37795275590551186" fill="rgb(0,0,0)" stroke-linecap="butt" stroke-miterlimit="10.0"><path d="M 3.9685,2519.5725 c 0.0000,-1.7263 0.2744,-3.4783 0.8492 -5.1959c 31.8298,-95.1293 63.6596,-190.2586 95.4894 -285.3879c 2.2347,-6.6788 8.4889,-11.1811 15.5316 -11.1811c 91.4859,-0.0000 182.9718,-0.0000 274.4577 -0.0000c 3.6793,-0.0000 7.2513,1.2388 10.1405 3.5169c 64.7386,51.0442 146.5341,81.5225 235.3737 81.5225c 88.8396,-0.0000 170.6351,-30.4783 235.3737 -81.5225c 2.8892,-2.2780 6.4613,-3.5169 10.1405 -3.5169c 91.4859,-0.0000 182.9719,-0.0000 274.4577 -0.0000c 7.0427,-0.0000 13.2969,4.5023 15.5316 11.1811c 31.8298,95.1293 63.6597,190.2586 95.4894 285.3879c 0.5747,1.7176 0.8492,3.4696 0.8492 5.1959c 0.0000,6.2119 -3.5540,12.0917 -9.4613 14.8453c -154.7613,72.1395 -309.5227,144.2789 -464.2840 216.4184c -2.1669,1.0101 -4.5287,1.5335 -6.9195 1.5335c -50.3925,-0.0000 -100.7849,-0.0000 -151.1774 -0.0000c -50.3925,-0.0000 -100.7849,-0.0000 -151.1774 -0.0000c -2.3908,-0.0000 -4.7526,-0.5234 -6.9195 -1.5335c -154.7613,-72.1395 -309.5227,-144.2789 -464.2840 -216.4184c -5.9073,-2.7536 -9.4613,-8.6334 -9.4613 -14.8453ZM 18.4595,2515.7938 c 0.0000,3.1311 2.5382,5.6693 5.6693 5.6693c 3.1310,-0.0000 5.6693,-2.5382 5.6693 -5.6693c 0.0000,-3.1310 -2.5382,-5.6693 -5.6693 -5.6693c -3.1311,-0.0000 -5.6693,2.5382 -5.6693 5.6693ZM 113.9489,2237.9650 c 0.0000,3.1311 2.5382,5.6693 5.6693 5.6693c 3.1311,-0.0000 5.6693,-2.5382 5.6693 -5.6693c 0.0000,-3.1310 -2.5382,-5.6693 -5.6693 -5.6693c -3.1310,-0.0000 -5.6693,2.5382 -5.6693 5.6693ZM 478.9640,2732.2122 c 0.0000,3.1311 2.5382,5.6693 5.6693 5.6693c 3.1310,-0.0000 5.6693,-2.5382 5.6693 -5.6693c 0.0000,-3.1310 -2.5382,-5.6693 -5.6693 -5.6693c -3.1311,-0.0000 -5.6693,2.5382 -5.6693 5.6693ZM 573.4484,2313.5555 c 0.0000,3.1311 2.5382,5.6693 5.6693 5.6693c 3.1311,-0.0000 5.6693,-2.5382 5.6693 -5.6693c 0.0000,-3.1310 -2.5382,-5.6693 -5.6693 -5.6693c -3.1310,-0.0000 -5.6693,2.5382 -5.6693 5.6693ZM 686.8343,2313.5555 c 0.0000,3.1311 2.5382,5.6693 5.6693 5.6693c 3.1310,-0.0000 5.6693,-2.5382 5.6693 -5.6693c 0.0000,-3.1310 -2.5382,-5.6693 -5.6693 -5.6693c -3.1311,-0.0000 -5.6693,2.5382 -5.6693 5.6693ZM 781.3188,2732.2122 c 0.0000,3.1311 2.5382,5.6693 5.6693 5.6693c 3.1311,-0.0000 5.6693,-2.5382 5.6693 -5.6693c 0.0000,-3.1310 -2.5382,-5.6693 -5.6693 -5.6693c -3.1310,-0.0000 -5.6693,2.5382 -5.6693 5.6693ZM 1146.3338,2237.9650 c 0.0000,3.1311 2.5382,5.6693 5.6693 5.6693c 3.1310,-0.0000 5.6693,-2.5382 5.6693 -5.6693c 0.0000,-3.1310 -2.5382,-5.6693 -5.6693 -5.6693c -3.1311,-0.0000 -5.6693,2.5382 -5.6693 5.6693ZM 1241.8233,2515.7938 c 0.0000,3.1311 2.5382,5.6693 5.6693 5.6693c 3.1311,-0.0000 5.6693,-2.5382 5.6693 -5.6693c 0.0000,-3.1310 -2.5382,-5.6693 -5.6693 -5.6693c -3.1310,-0.0000 -5.6693,2.5382 -5.6693 5.6693Z"/></g><g stroke-linejoin="miter" stroke-opacity="1.0" fill-opacity="0.5" stroke="rgb(0,0,0)" stroke-width="0.37795275590551186" fill="rgb(255,0,0)" stroke-linecap="butt" stroke-miterlimit="10.0"><path d="M 3.9685,1966.1127 c 0.0000,-1.7263 0.2744,-3.4783 0.8492 -5.1959c 31.8298,-95.1293 63.6596,-190.2586 95.4894 -285.3879c 2.2347,-6.6788 8.4889,-11.1811 15.5316 -11.1811c 91.4859,-0.0000 182.9718,-0.0000 274.4577 -0.0000c 3.6793,-0.0000 7.2513,1.2388 10.1405 3.5169c 49.4805,39.0137 108.9252,66.0133 173.8634 76.5732c 4.5881,0.7461 9.2035,1.4101 13.8449 1.9905c 12.5600,1.5706 25.3093,2.5288 38.2166 2.8437c 0.0000,0.0384 0.0000,0.0767 0.0000 0.1151c 1.2598,-0.0000 2.5197,-0.0000 3.7796 -0.0000c 0.0000,1.2598 0.0000,2.5197 0.0000 3.7795c -1.2598,-0.0000 -2.5197,-0.0000 -3.7796 -0.0000c 0.0000,0.3376 0.0000,0.6752 0.0000 1.0127c 0.0000,0.9223 0.0000,1.8445 0.0000 2.7668c 1.2598,-0.0000 2.5197,-0.0000 3.7796 -0.0000c 0.0000,1.2598 0.0000,2.5197 0.0000 3.7795c -1.2598,-0.0000 -2.5197,-0.0000 -3.7796 -0.0000c 0.0000,0.3376 0.0000,0.6752 0.0000 1.0127c 0.0000,0.9223 0.0000,1.8446 0.0000 2.7668c 1.2598,-0.0000 2.5197,-0.0000 3.7796 -0.0000c 0.0000,1.2598 0.0000,2.5197 0.0000 3.7795c -1.2598,-0.0000 -2.5197,-0.0000 -3.7796 -0.0000c 0.0000,0.3376 0.0000,0.6752 0.0000 1.0127c 0.0000,0.9223 0.0000,1.8446 0.0000 2.7668c 1.2598,-0.0000 2.5197,-0.0000 3.7796 -0.0000c 0.0000,1.2598 0.0000,2.5197 0.0000 3.7795c -1.2598,-0.0000 -2.5197,-0.0000 -3.7796 -0.0000c 0.0000,0.3376 0.0000,0.6752 0.0000 1.0127c 0.0000,0.9223 0.0000,1.8446 0.0000 2.7668c 1.2598,-0.0000 2.5197,-0.0000 3.7796 -0.0000c 0.0000,0.6299 0.0000,1.2598 0.0000 1.8898c 3.7795,-0.0000 7.5591,-0.0000 11.3386 -0.0000c 0.0000,-0.6299 0.0000,-1.2598 0.0000 -1.8898c 1.2598,-0.0000 2.5197,-0.0000 3.7796 -0.0000c 0.0000,-1.2598 0.0000,-2.5197 0.0000 -3.7796c -1.2598,-0.0000 -2.5197,-0.0000 -3.7796 -0.0000c 0.0000,-1.2598 0.0000,-2.5197 0.0000 -3.7795c 1.2598,-0.0000 2.5197,-0.0000 3.7796 -0.0000c 0.0000,-1.2598 0.0000,-2.5197 0.0000 -3.7796c -1.2598,-0.0000 -2.5197,-0.0000 -3.7796 -0.0000c 0.0000,-1.2598 0.0000,-2.5197 0.0000 -3.7795c 1.2598,-0.0000 2.5197,-0.0000 3.7796 -0.0000c 0.0000,-1.2598 0.0000,-2.5197 0.0000 -3.7796c -1.2598,-0.0000 -2.5197,-0.0000 -3.7796 -0.0000c 0.0000,-1.2598 0.0000,-2.5197 0.0000 -3.7795c 1.2598,-0.0000 2.5197,-0.0000 3.7796 -0.0000c 0.0000,-1.2598 0.0000,-2.5197 0.0000 -3.7796c -1.2598,-0.0000 -2.5197,-0.0000 -3.7796 -0.0000c 0.0000,-1.2598 0.0000,-2.5197 0.0000 -3.7795c 1.2598,-0.0000 2.5197,-0.0000 3.7796 -0.0000c 0.0000,-0.0384 0.0000,-0.0767 0.0000 -0.1151c 12.9073,-0.3149 25.6566,-1.2731 38.2166 -2.8437c 4.6413,-0.5804 9.2568,-1.2444 13.8449 -1.9905c 64.9382,-10.5598 124.3829,-37.5595 173.8634 -76.5732c 2.8892,-2.2780 6.4613,-3.5169 10.1405 -3.5169c 91.4859,-0.0000 182.9719,-0.0000 274.4577 -0.0000c 7.0427,-0.0000 13.2969,4.5023 15.5316 11.1811c 31.8298,95.1293 63.6597,190.2586 95.4894 285.3879c 0.5747,1.7176 0.8492,3.4696 0.8492 5.1959c 0.0000,6.2119 -3.5540,12.0917 -9.4613 14.8453c -154.7613,72.1395 -309.5227,144.2789 -464.2840 216.4184c -2.1669,1.0101 -4.5287,1.5335 -6.9195 1.5335c -50.3925,-0.0000 -100.7849,-0.0000 -151.1774 -0.0000c -50.3925,-0.0000 -100.7849,-0.0000 -151.1774 -0.0000c -2.3908,-0.0000 -4.7526,-0.5234 -6.9195 -1.5335c -154.7613,-72.1395 -309.5227,-144.2789 -464.2840 -216.4184c -5.9073,-2.7536 -9.4613,-8.6334 -9.4613 -14.8453ZM 18.4595,1962.3340 c 0.0000,3.1311 2.5382,5.6693 5.6693 5.6693c 3.1310,-0.0000 5.6693,-2.5382 5.6693 -5.6693c 0.0000,-3.1310 -2.5382,-5.6693 -5.6693 -5.6693c -3.1311,-0.0000 -5.6693,2.5382 -5.6693 5.6693ZM 35.6650,1950.7085 c 2.9901,2.9673 4.8417,7.0801 4.8417 11.6255c 0.0000,3.9404 -1.3916,7.5558 -3.7100 10.3815c 1.2809,1.2215 2.8105,2.2498 4.5550 3.0109c 144.7230,63.1384 289.4461,126.2767 434.1691 189.4151c 2.6051,-1.7476 5.7398,-2.7670 9.1125 -2.7670c 6.0622,-0.0000 11.3550,3.2936 14.1869 8.1890c 45.6634,-0.0000 91.3270,-0.0000 136.9905 -0.0000c 45.6635,-0.0000 91.3270,-0.0000 136.9905 -0.0000c 2.8319,-4.8954 8.1247,-8.1890 14.1869 -8.1890c 3.3727,-0.0000 6.5073,1.0195 9.1125 2.7670c 144.7230,-63.1384 289.4461,-126.2767 434.1691 -189.4151c 1.7445,-0.7611 3.2742,-1.7894 4.5550 -3.0109c -2.3184,-2.8258 -3.7100,-6.4412 -3.7100 -10.3815c 0.0000,-4.5453 1.8516,-8.6582 4.8417 -11.6255c -29.5554,-82.6730 -59.1110,-165.3460 -88.6665 -248.0190c -0.3854,-1.0780 -0.8960,-2.0926 -1.5135 -3.0316c -2.9318,-1.2061 -5.4366,-3.2382 -7.2245 -5.8068c -1.8895,-0.7489 -3.9550,-1.1570 -6.0968 -1.1570c -87.3815,-0.0000 -174.7631,-0.0000 -262.1447 -0.0000c -3.5142,-0.0000 -6.9260,1.1075 -9.6856 3.1439c -43.6229,32.1916 -95.3543,55.2331 -151.8361 66.0130c -0.8758,8.2199 -7.8327,14.6227 -16.2850 14.6227c -4.4006,-0.0000 -8.3959,-1.7356 -11.3386 -4.5595c 0.0000,7.9240 0.0000,15.8481 0.0000 23.7721c 0.0000,4.1747 -3.3843,7.5591 -7.5591 7.5591c -25.1968,-0.0000 -50.3937,-0.0000 -75.5905 -0.0000c -4.1747,-0.0000 -7.5591,-3.3843 -7.5591 -7.5591c 0.0000,-1.3775 0.0000,-2.7550 0.0000 -4.1325c 0.0000,-6.5465 0.0000,-13.0930 0.0000 -19.6395c -2.9427,2.8240 -6.9380,4.5595 -11.3386 4.5595c -8.4523,-0.0000 -15.4092,-6.4028 -16.2850 -14.6227c -56.4819,-10.7799 -108.2132,-33.8213 -151.8361 -66.0130c -2.7596,-2.0364 -6.1714,-3.1439 -9.6856 -3.1439c -87.3815,-0.0000 -174.7631,-0.0000 -262.1447 -0.0000c -2.1418,-0.0000 -4.2073,0.4081 -6.0968 1.1570c -1.7879,2.5685 -4.2927,4.6007 -7.2245 5.8068c -0.6175,0.9389 -1.1281,1.9535 -1.5135 3.0315c -29.5555,82.6730 -59.1110,165.3460 -88.6665 248.0190ZM 113.9489,1684.5052 c 0.0000,3.1311 2.5382,5.6693 5.6693 5.6693c 3.1311,-0.0000 5.6693,-2.5382 5.6693 -5.6693c 0.0000,-3.1310 -2.5382,-5.6693 -5.6693 -5.6693c -3.1310,-0.0000 -5.6693,2.5382 -5.6693 5.6693ZM 478.9640,2178.7524 c 0.0000,3.1311 2.5382,5.6693 5.6693 5.6693c 3.1310,-0.0000 5.6693,-2.5382 5.6693 -5.6693c 0.0000,-3.1310 -2.5382,-5.6693 -5.6693 -5.6693c -3.1311,-0.0000 -5.6693,2.5382 -5.6693 5.6693ZM 573.4484,1760.0958 c 0.0000,3.1311 2.5382,5.6693 5.6693 5.6693c 3.1311,-0.0000 5.6693,-2.5382 5.6693 -5.6693c 0.0000,-3.1310 -2.5382,-5.6693 -5.6693 -5.6693c -3.1310,-0.0000 -5.6693,2.5382 -5.6693 5.6693ZM 686.8343,1760.0958 c 0.0000,3.1311 2.5382,5.6693 5.6693 5.6693c 3.1310,-0.0000 5.6693,-2.5382 5.6693 -5.6693c 0.0000,-3.1310 -2.5382,-5.6693 -5.6693 -5.6693c -3.1311,-0.0000 -5.6693,2.5382 -5.6693 5.6693ZM 781.3188,2178.7524 c 0.0000,3.1311 2.5382,5.6693 5.6693 5.6693c 3.1311,-0.0000 5.6693,-2.5382 5.6693 -5.6693c 0.0000,-3.1310 -2.5382,-5.6693 -5.6693 -5.6693c -3.1310,-0.0000 -5.6693,2.5382 -5.6693 5.6693ZM 1146.3338,1684.5052 c 0.0000,3.1311 2.5382,5.6693 5.6693 5.6693c 3.1310,-0.0000 5.6693,-2.5382 5.6693 -5.6693c 0.0000,-3.1310 -2.5382,-5.6693 -5.6693 -5.6693c -3.1311,-0.0000 -5.6693,2.5382 -5.6693 5.6693ZM 1241.8233,1962.3340 c 0.0000,3.1311 2.5382,5.6693 5.6693 5.6693c 3.1311,-0.0000 5.6693,-2.5382 5.6693 -5.6693c 0.0000,-3.1310 -2.5382,-5.6693 -5.6693 -5.6693c -3.1310,-0.0000 -5.6693,2.5382 -5.6693 5.6693Z"/></g><g stroke-linejoin="miter" stroke-opacity="1.0" fill-opacity="0.5" stroke="rgb(0,0,0)" stroke-width="0.37795275590551186" fill="rgb(255,0,0)" stroke-linecap="butt" stroke-miterlimit="10.0"><path d="M 3.9685,1412.6530 c 0.0000,-1.7263 0.2744,-3.4783 0.8492 -5.1959c 31.8298,-95.1293 63.6596,-190.2586 95.4894 -285.3879c 2.2347,-6.6788 8.4889,-11.1811 15.5316 -11.1811c 91.4859,-0.0000 182.9718,-0.0000 274.4577 -0.0000c 3.6793,-0.0000 7.2513,1.2388 10.1405 3.5169c 49.4805,39.0137 108.9252,66.0133 173.8634 76.5732c 4.5881,0.7461 9.2035,1.4101 13.8449 1.9905c 15.6159,1.9527 31.5244,2.9588 47.6654 2.9588c 16.1410,-0.0000 32.0495,-1.0061 47.6654 -2.9588c 4.6413,-0.5804 9.2568,-1.2444 13.8449 -1.9905c 64.9382,-10.5598 124.3829,-37.5595 173.8634 -76.5732c 2.8892,-2.2780 6.4613,-3.5169 10.1405 -3.5169c 91.4859,-0.0000 182.9719,-0.0000 274.4577 -0.0000c 7.0427,-0.0000 13.2969,4.5023 15.5316 11.1811c 31.8298,95.1293 63.6597,190.2586 95.4894 285.3879c 0.5747,1.7176 0.8492,3.4696 0.8492 5.1959c 0.0000,6.2119 -3.5540,12.0917 -9.4613 14.8453c -154.7613,72.1395 -309.5227,144.2789 -464.2840 216.4184c -2.1669,1.0101 -4.5287,1.5335 -6.9195 1.5335c -50.3925,-0.0000 -100.7849,-0.0000 -151.1774 -0.0000c -50.3925,-0.0000 -100.7849,-0.0000 -151.1774 -0.0000c -2.3908,-0.0000 -4.7526,-0.5234 -6.9195 -1.5335c -154.7613,-72.1395 -309.5227,-144.2789 -464.2840 -216.4184c -5.9073,-2.7536 -9.4613,-8.6334 -9.4613 -14.8453ZM 18.4595,1408.8743 c 0.0000,3.1311 2.5382,5.6693 5.6693 5.6693c 3.1310,-0.0000 5.6693,-2.5382 5.6693 -5.6693c 0.0000,-3.1310 -2.5382,-5.6693 -5.6693 -5.6693c -3.1311,-0.0000 -5.6693,2.5382 -5.6693 5.6693ZM 35.6650,1397.2488 c 2.9901,2.9673 4.8417,7.0801 4.8417 11.6255c 0.0000,3.9404 -1.3916,7.5558 -3.7100 10.3815c 1.2809,1.2215 2.8105,2.2498 4.5550 3.0109c 144.7230,63.1384 289.4461,126.2767 434.1691 189.4151c 2.6051,-1.7476 5.7398,-2.7670 9.1125 -2.7670c 6.0622,-0.0000 11.3550,3.2936 14.1869 8.1890c 45.6634,-0.0000 91.3270,-0.0000 136.9905 -0.0000c 45.6635,-0.0000 91.3270,-0.0000 136.9905 -0.0000c 2.8319,-4.8954 8.1247,-8.1890 14.1869 -8.1890c 3.3727,-0.0000 6.5073,1.0195 9.1125 2.7670c 144.7230,-63.1384 289.4461,-126.2767 434.1691 -189.4151c 1.7445,-0.7611 3.2742,-1.7894 4.5550 -3.0109c -2.3184,-2.8258 -3.7100,-6.4412 -3.7100 -10.3815c 0.0000,-4.5453 1.8516,-8.6582 4.8417 -11.6255c -29.5554,-82.6730 -59.1110,-165.3460 -88.6665 -248.0190c -0.3854,-1.0780 -0.8960,-2.0926 -1.5135 -3.0316c -2.9318,-1.2061 -5.4366,-3.2382 -7.2245 -5.8068c -1.8895,-0.7489 -3.9550,-1.1570 -6.0968 -1.1570c -87.3815,-0.0000 -174.7631,-0.0000 -262.1447 -0.0000c -3.5142,-0.0000 -6.9260,1.1075 -9.6856 3.1439c -43.6229,32.1916 -95.3543,55.2331 -151.8361 66.0130c -0.8758,8.2199 -7.8327,14.6227 -16.2850 14.6227c -4.4006,-0.0000 -8.3959,-1.7356 -11.3386 -4.5595c 0.0000,7.9240 0.0000,15.8481 0.0000 23.7721c 0.0000,4.1747 -3.3843,7.5591 -7.5591 7.5591c -9.4488,-0.0000 -18.8976,-0.0000 -28.3464 -0.0000c 0.0000,-0.3150 0.0000,-0.6299 0.0000 -0.9449c -1.2598,-0.0000 -2.5197,-0.0000 -3.7796 -0.0000c 0.0000,-1.2598 0.0000,-2.5197 0.0000 -3.7796c 1.2598,-0.0000 2.5197,-0.0000 3.7796 -0.0000c 0.0000,-1.2598 0.0000,-2.5197 0.0000 -3.7795c -1.2598,-0.0000 -2.5197,-0.0000 -3.7796 -0.0000c 0.0000,-1.2598 0.0000,-2.5197 0.0000 -3.7796c 1.2598,-0.0000 2.5197,-0.0000 3.7796 -0.0000c 0.0000,-1.2598 0.0000,-2.5197 0.0000 -3.7795c -1.2598,-0.0000 -2.5197,-0.0000 -3.7796 -0.0000c 0.0000,-1.2598 0.0000,-2.5197 0.0000 -3.7796c 1.2598,-0.0000 2.5197,-0.0000 3.7796 -0.0000c 0.0000,-1.2598 0.0000,-2.5197 0.0000 -3.7795c -1.2598,-0.0000 -2.5197,-0.0000 -3.7796 -0.0000c 0.0000,-1.2598 0.0000,-2.5197 0.0000 -3.7796c 1.2598,-0.0000 2.5197,-0.0000 3.7796 -0.0000c 0.0000,-1.2598 0.0000,-2.5197 0.0000 -3.7795c -6.2992,-0.0000 -12.5984,-0.0000 -18.8977 -0.0000c 0.0000,0.3376 0.0000,0.6752 0.0000 1.0127c 0.0000,0.9223 0.0000,1.8446 0.0000 2.7668c 1.2598,-0.0000 2.5197,-0.0000 3.7796 -0.0000c 0.0000,1.2598 0.0000,2.5197 0.0000 3.7796c -1.2598,-0.0000 -2.5197,-0.0000 -3.7796 -0.0000c 0.0000,0.3376 0.0000,0.6752 0.0000 1.0127c 0.0000,0.9223 0.0000,1.8446 0.0000 2.7668c 1.2598,-0.0000 2.5197,-0.0000 3.7796 -0.0000c 0.0000,1.2598 0.0000,2.5197 0.0000 3.7796c -1.2598,-0.0000 -2.5197,-0.0000 -3.7796 -0.0000c 0.0000,0.3376 0.0000,0.6752 0.0000 1.0127c 0.0000,0.9223 0.0000,1.8446 0.0000 2.7668c 1.2598,-0.0000 2.5197,-0.0000 3.7796 -0.0000c 0.0000,1.2598 0.0000,2.5197 0.0000 3.7796c -1.2598,-0.0000 -2.5197,-0.0000 -3.7796 -0.0000c 0.0000,0.3376 0.0000,0.6752 0.0000 1.0127c 0.0000,0.9223 0.0000,1.8446 0.0000 2.7668c 1.2598,-0.0000 2.5197,-0.0000 3.7796 -0.0000c 0.0000,1.2598 0.0000,2.5197 0.0000 3.7796c -1.2598,-0.0000 -2.5197,-0.0000 -3.7796 -0.0000c 0.0000,0.3150 0.0000,0.6299 0.0000 0.9449c -9.4488,-0.0000 -18.8976,-0.0000 -28.3464 -0.0000c -4.1747,-0.0000 -7.5591,-3.3843 -7.5591 -7.5591c 0.0000,-1.3775 0.0000,-2.7550 0.0000 -4.1325c 0.0000,-6.5465 0.0000,-13.0930 0.0000 -19.6395c -2.9427,2.8240 -6.9380,4.5595 -11.3386 4.5595c -8.4523,-0.0000 -15.4092,-6.4028 -16.2850 -14.6227c -56.4819,-10.7799 -108.2132,-33.8213 -151.8361 -66.0130c -2.7596,-2.0364 -6.1714,-3.1439 -9.6856 -3.1439c -87.3815,-0.0000 -174.7631,-0.0000 -262.1447 -0.0000c -2.1418,-0.0000 -4.2073,0.4081 -6.0968 1.1570c -1.7879,2.5685 -4.2927,4.6007 -7.2245 5.8068c -0.6175,0.9389 -1.1281,1.9535 -1.5135 3.0315c -29.5555,82.6730 -59.1110,165.3460 -88.6665 248.0190ZM 113.9489,1131.0455 c 0.0000,3.1311 2.5382,5.6693 5.6693 5.6693c 3.1311,-0.0000 5.6693,-2.5382 5.6693 -5.6693c 0.0000,-3.1310 -2.5382,-5.6693 -5.6693 -5.6693c -3.1310,-0.0000 -5.6693,2.5382 -5.6693 5.6693ZM 478.9640,1625.2926 c 0.0000,3.1311 2.5382,5.6693 5.6693 5.6693c 3.1310,-0.0000 5.6693,-2.5382 5.6693 -5.6693c 0.0000,-3.1310 -2.5382,-5.6693 -5.6693 -5.6693c -3.1311,-0.0000 -5.6693,2.5382 -5.6693 5.6693ZM 573.4484,1206.6360 c 0.0000,3.1311 2.5382,5.6693 5.6693 5.6693c 3.1311,-0.0000 5.6693,-2.5382 5.6693 -5.6693c 0.0000,-3.1310 -2.5382,-5.6693 -5.6693 -5.6693c -3.1310,-0.0000 -5.6693,2.5382 -5.6693 5.6693ZM 686.8343,1206.6360 c 0.0000,3.1311 2.5382,5.6693 5.6693 5.6693c 3.1310,-0.0000 5.6693,-2.5382 5.6693 -5.6693c 0.0000,-3.1310 -2.5382,-5.6693 -5.6693 -5.6693c -3.1311,-0.0000 -5.6693,2.5382 -5.6693 5.6693ZM 781.3188,1625.2926 c 0.0000,3.1311 2.5382,5.6693 5.6693 5.6693c 3.1311,-0.0000 5.6693,-2.5382 5.6693 -5.6693c 0.0000,-3.1310 -2.5382,-5.6693 -5.6693 -5.6693c -3.1310,-0.0000 -5.6693,2.5382 -5.6693 5.6693ZM 1146.3338,1131.0455 c 0.0000,3.1311 2.5382,5.6693 5.6693 5.6693c 3.1310,-0.0000 5.6693,-2.5382 5.6693 -5.6693c 0.0000,-3.1310 -2.5382,-5.6693 -5.6693 -5.6693c -3.1311,-0.0000 -5.6693,2.5382 -5.6693 5.6693ZM 1241.8233,1408.8743 c 0.0000,3.1311 2.5382,5.6693 5.6693 5.6693c 3.1311,-0.0000 5.6693,-2.5382 5.6693 -5.6693c 0.0000,-3.1310 -2.5382,-5.6693 -5.6693 -5.6693c -3.1310,-0.0000 -5.6693,2.5382 -5.6693 5.6693Z"/></g><g stroke-linejoin="miter" stroke-opacity="1.0" fill-opacity="0.5" stroke="rgb(0,0,0)" stroke-width="0.37795275590551186" fill="rgb(0,0,0)" stroke-linecap="butt" stroke-miterlimit="10.0"><path d="M 3.9685,859.1932 c 0.0000,-1.7263 0.2744,-3.4783 0.8492 -5.1959c 31.8298,-95.1293 63.6596,-190.2586 95.4894 -285.3879c 2.2347,-6.6788 8.4889,-11.1811 15.5316 -11.1811c 91.4859,-0.0000 182.9718,-0.0000 274.4577 -0.0000c 3.6793,-0.0000 7.2513,1.2388 10.1405 3.5169c 64.7386,51.0442 146.5341,81.5225 235.3737 81.5225c 88.8396,-0.0000 170.6351,-30.4783 235.3737 -81.5225c 2.8892,-2.2780 6.4613,-3.5169 10.1405 -3.5169c 91.4859,-0.0000 182.9719,-0.0000 274.4577 -0.0000c 7.0427,-0.0000 13.2969,4.5023 15.5316 11.1811c 31.8298,95.1293 63.6597,190.2586 95.4894 285.3879c 0.5747,1.7176 0.8492,3.4696 0.8492 5.1959c 0.0000,6.2119 -3.5540,12.0917 -9.4613 14.8453c -154.7613,72.1395 -309.5227,144.2789 -464.2840 216.4184c -2.1669,1.0101 -4.5287,1.5335 -6.9195 1.5335c -50.3925,-0.0000 -100.7849,-0.0000 -151.1774 -0.0000c -50.3925,-0.0000 -100.7849,-0.0000 -151.1774 -0.0000c -2.3908,-0.0000 -4.7526,-0.5234 -6.9195 -1.5335c -154.7613,-72.1395 -309.5227,-144.2789 -464.2840 -216.4184c -5.9073,-2.7536 -9.4613,-8.6334 -9.4613 -14.8453ZM 18.4595,855.4145 c 0.0000,3.1311 2.5382,5.6693 5.6693 5.6693c 3.1310,-0.0000 5.6693,-2.5382 5.6693 -5.6693c 0.0000,-3.1310 -2.5382,-5.6693 -5.6693 -5.6693c -3.1311,-0.0000 -5.6693,2.5382 -5.6693 5.6693ZM 54.6742,848.1725 c 0.9711,0.3250 1.9421,0.6499 2.9132 0.9748c -0.3919,1.1714 -0.7839,2.3428 -1.1758 3.5142c 16.6905,5.5845 33.3810,11.1691 50.0715 16.7537c 0.3919,-1.1714 0.7839,-2.3428 1.1758 -3.5142c 0.9710,0.3249 1.9421,0.6499 2.9132 0.9748c 1.3992,-4.1817 2.7983,-8.3634 4.1975 -12.5451c -0.9711,-0.3250 -1.9422,-0.6499 -2.9133 -0.9748c 2.0024,-5.9843 4.0047,-11.9687 6.0070 -17.9530c 0.9711,0.3249 1.9422,0.6498 2.9132 0.9748c 1.3992,-4.1817 2.7984,-8.3634 4.1975 -12.5451c -0.9711,-0.3249 -1.9421,-0.6498 -2.9132 -0.9748c 0.3919,-1.1713 0.7839,-2.3427 1.1758 -3.5141c -16.6905,-5.5845 -33.3810,-11.1691 -50.0715 -16.7537c -0.3919,1.1714 -0.7839,2.3428 -1.1758 3.5142c -0.9710,-0.3250 -1.9421,-0.6499 -2.9132 -0.9748c -1.3992,4.1817 -2.7984,8.3634 -4.1975 12.5451c 0.9711,0.3249 1.9422,0.6499 2.9132 0.9748c -2.0023,5.9843 -4.0046,11.9686 -6.0070 17.9530c -0.9711,-0.3249 -1.9422,-0.6499 -2.9132 -0.9748c -1.3992,4.1817 -2.7984,8.3634 -4.1975 12.5451ZM 77.4602,780.0725 c 0.9711,0.3249 1.9422,0.6498 2.9133 0.9748c -0.3919,1.1713 -0.7839,2.3427 -1.1758 3.5141c 16.6905,5.5846 33.3810,11.1691 50.0715 16.7537c 0.3919,-1.1714 0.7839,-2.3428 1.1758 -3.5141c 0.9711,0.3249 1.9422,0.6498 2.9133 0.9747c 1.3992,-4.1817 2.7983,-8.3634 4.1975 -12.5451c -0.9710,-0.3249 -1.9421,-0.6498 -2.9132 -0.9748c 2.0023,-5.9843 4.0047,-11.9686 6.0070 -17.9530c 0.9710,0.3249 1.9421,0.6499 2.9132 0.9748c 1.3992,-4.1817 2.7983,-8.3634 4.1975 -12.5451c -0.9711,-0.3249 -1.9422,-0.6499 -2.9132 -0.9748c 0.3919,-1.1714 0.7839,-2.3428 1.1758 -3.5142c -16.6905,-5.5845 -33.3810,-11.1691 -50.0715 -16.7537c -0.3919,1.1714 -0.7839,2.3428 -1.1758 3.5142c -0.9711,-0.3249 -1.9422,-0.6499 -2.9132 -0.9748c -1.3992,4.1817 -2.7984,8.3634 -4.1975 12.5451c 0.9711,0.3250 1.9421,0.6499 2.9132 0.9748c -2.0023,5.9843 -4.0046,11.9687 -6.0070 17.9530c -0.9710,-0.3249 -1.9421,-0.6498 -2.9132 -0.9748c -1.3992,4.1817 -2.7983,8.3634 -4.1975 12.5451ZM 100.2461,711.9723 c 0.9711,0.3249 1.9422,0.6499 2.9132 0.9748c -0.3919,1.1714 -0.7839,2.3428 -1.1758 3.5142c 16.6905,5.5845 33.3810,11.1691 50.0715 16.7536c 0.3919,-1.1713 0.7839,-2.3427 1.1758 -3.5141c 0.9711,0.3249 1.9421,0.6499 2.9132 0.9748c 1.3992,-4.1817 2.7984,-8.3634 4.1975 -12.5451c -0.9711,-0.3250 -1.9422,-0.6499 -2.9132 -0.9748c 2.0023,-5.9843 4.0046,-11.9687 6.0070 -17.9530c 0.9711,0.3249 1.9422,0.6498 2.9133 0.9748c 1.3992,-4.1817 2.7983,-8.3634 4.1975 -12.5451c -0.9710,-0.3249 -1.9421,-0.6498 -2.9132 -0.9748c 0.3919,-1.1714 0.7839,-2.3427 1.1758 -3.5141c -16.6905,-5.5846 -33.3810,-11.1691 -50.0715 -16.7537c -0.3919,1.1714 -0.7839,2.3428 -1.1758 3.5141c -0.9710,-0.3249 -1.9421,-0.6498 -2.9132 -0.9748c -1.3992,4.1817 -2.7983,8.3634 -4.1975 12.5451c 0.9711,0.3249 1.9422,0.6498 2.9133 0.9748c -2.0024,5.9843 -4.0047,11.9686 -6.0070 17.9530c -0.9711,-0.3250 -1.9421,-0.6499 -2.9132 -0.9748c -1.3992,4.1817 -2.7984,8.3634 -4.1975 12.5451ZM 113.9489,577.5857 c 0.0000,3.1311 2.5382,5.6693 5.6693 5.6693c 3.1311,-0.0000 5.6693,-2.5382 5.6693 -5.6693c 0.0000,-3.1310 -2.5382,-5.6693 -5.6693 -5.6693c -3.1310,-0.0000 -5.6693,2.5382 -5.6693 5.6693ZM 123.0321,643.8722 c 0.9710,0.3250 1.9421,0.6499 2.9132 0.9748c -0.3919,1.1714 -0.7839,2.3428 -1.1758 3.5142c 16.6905,5.5845 33.3810,11.1691 50.0715 16.7537c 0.3919,-1.1714 0.7839,-2.3428 1.1758 -3.5142c 0.9710,0.3250 1.9421,0.6499 2.9132 0.9748c 1.3992,-4.1817 2.7983,-8.3634 4.1975 -12.5451c -0.9710,-0.3249 -1.9421,-0.6499 -2.9132 -0.9748c 2.0023,-5.9843 4.0047,-11.9686 6.0070 -17.9530c 0.9711,0.3249 1.9421,0.6499 2.9132 0.9748c 1.3992,-4.1817 2.7984,-8.3634 4.1975 -12.5451c -0.9711,-0.3250 -1.9422,-0.6499 -2.9132 -0.9748c 0.3919,-1.1714 0.7839,-2.3428 1.1758 -3.5142c -16.6905,-5.5845 -33.3810,-11.1691 -50.0715 -16.7537c -0.3919,1.1714 -0.7839,2.3428 -1.1758 3.5142c -0.9711,-0.3250 -1.9421,-0.6499 -2.9132 -0.9748c -1.3992,4.1817 -2.7984,8.3634 -4.1975 12.5451c 0.9711,0.3249 1.9422,0.6499 2.9132 0.9748c -2.0023,5.9843 -4.0046,11.9686 -6.0070 17.9530c -0.9711,-0.3249 -1.9422,-0.6499 -2.9133 -0.9748c -1.3992,4.1817 -2.7983,8.3634 -4.1975 12.5451ZM 123.9736,867.3743 c 0.9710,0.3249 1.9421,0.6499 2.9132 0.9748c -0.3919,1.1714 -0.7839,2.3428 -1.1758 3.5142c 16.6905,5.5845 33.3810,11.1691 50.0715 16.7536c 0.3919,-1.1713 0.7839,-2.3427 1.1758 -3.5141c 0.9710,0.3249 1.9421,0.6499 2.9132 0.9748c 1.3992,-4.1817 2.7983,-8.3634 4.1975 -12.5451c -0.9711,-0.3250 -1.9422,-0.6499 -2.9133 -0.9748c 2.0024,-5.9843 4.0047,-11.9687 6.0070 -17.9530c 0.9711,0.3249 1.9422,0.6498 2.9132 0.9748c 1.3992,-4.1817 2.7984,-8.3634 4.1975 -12.5451c -0.9711,-0.3249 -1.9421,-0.6498 -2.9132 -0.9748c 0.3919,-1.1714 0.7839,-2.3427 1.1758 -3.5141c -16.6905,-5.5845 -33.3810,-11.1691 -50.0715 -16.7537c -0.3919,1.1714 -0.7839,2.3428 -1.1758 3.5141c -0.9710,-0.3249 -1.9421,-0.6498 -2.9132 -0.9747c -1.3992,4.1817 -2.7984,8.3634 -4.1975 12.5451c 0.9711,0.3249 1.9422,0.6498 2.9132 0.9748c -2.0023,5.9843 -4.0046,11.9686 -6.0070 17.9530c -0.9711,-0.3250 -1.9422,-0.6499 -2.9132 -0.9748c -1.3992,4.1817 -2.7984,8.3634 -4.1975 12.5451ZM 146.7595,799.2742 c 0.9711,0.3249 1.9422,0.6498 2.9133 0.9747c -0.3919,1.1714 -0.7839,2.3428 -1.1758 3.5142c 16.6905,5.5845 33.3810,11.1691 50.0715 16.7537c 0.3919,-1.1714 0.7839,-2.3428 1.1758 -3.5142c 0.9711,0.3250 1.9422,0.6499 2.9133 0.9748c 1.3992,-4.1817 2.7983,-8.3634 4.1975 -12.5451c -0.9710,-0.3249 -1.9421,-0.6499 -2.9132 -0.9748c 2.0023,-5.9843 4.0047,-11.9686 6.0070 -17.9530c 0.9710,0.3249 1.9421,0.6499 2.9132 0.9748c 1.3992,-4.1817 2.7983,-8.3634 4.1975 -12.5451c -0.9711,-0.3250 -1.9422,-0.6499 -2.9133 -0.9748c 0.3919,-1.1714 0.7839,-2.3428 1.1758 -3.5142c -16.6905,-5.5845 -33.3810,-11.1691 -50.0715 -16.7537c -0.3919,1.1714 -0.7839,2.3428 -1.1758 3.5142c -0.9711,-0.3249 -1.9422,-0.6499 -2.9132 -0.9748c -1.3992,4.1817 -2.7984,8.3634 -4.1975 12.5451c 0.9710,0.3250 1.9421,0.6499 2.9132 0.9748c -2.0023,5.9843 -4.0046,11.9686 -6.0070 17.9530c -0.9710,-0.3249 -1.9421,-0.6498 -2.9132 -0.9748c -1.3992,4.1817 -2.7983,8.3634 -4.1975 12.5451ZM 169.5455,731.1741 c 0.9711,0.3249 1.9421,0.6499 2.9132 0.9748c -0.3919,1.1714 -0.7839,2.3428 -1.1758 3.5141c 16.6905,5.5846 33.3810,11.1691 50.0715 16.7537c 0.3919,-1.1714 0.7839,-2.3427 1.1758 -3.5141c 0.9711,0.3249 1.9421,0.6498 2.9132 0.9748c 1.3992,-4.1817 2.7984,-8.3634 4.1975 -12.5451c -0.9711,-0.3249 -1.9422,-0.6498 -2.9132 -0.9748c 2.0023,-5.9843 4.0046,-11.9686 6.0070 -17.9530c 0.9711,0.3250 1.9422,0.6499 2.9133 0.9748c 1.3992,-4.1817 2.7983,-8.3634 4.1975 -12.5451c -0.9710,-0.3249 -1.9421,-0.6499 -2.9132 -0.9748c 0.3919,-1.1714 0.7839,-2.3428 1.1758 -3.5141c -16.6905,-5.5846 -33.3810,-11.1691 -50.0715 -16.7537c -0.3919,1.1714 -0.7839,2.3427 -1.1758 3.5141c -0.9710,-0.3249 -1.9421,-0.6498 -2.9132 -0.9748c -1.3992,4.1817 -2.7983,8.3634 -4.1975 12.5451c 0.9711,0.3249 1.9422,0.6498 2.9133 0.9748c -2.0024,5.9843 -4.0047,11.9686 -6.0070 17.9530c -0.9711,-0.3250 -1.9422,-0.6499 -2.9132 -0.9748c -1.3992,4.1817 -2.7984,8.3634 -4.1975 12.5451ZM 192.3315,663.0740 c 0.9710,0.3250 1.9421,0.6499 2.9132 0.9748c -0.3919,1.1714 -0.7839,2.3428 -1.1758 3.5142c 16.6905,5.5845 33.3810,11.1691 50.0715 16.7537c 0.3919,-1.1714 0.7839,-2.3428 1.1758 -3.5142c 0.9710,0.3249 1.9421,0.6499 2.9132 0.9748c 1.3992,-4.1817 2.7983,-8.3634 4.1975 -12.5451c -0.9710,-0.3250 -1.9421,-0.6499 -2.9132 -0.9748c 2.0023,-5.9843 4.0047,-11.9687 6.0070 -17.9530c 0.9711,0.3249 1.9421,0.6498 2.9132 0.9748c 1.3992,-4.1817 2.7984,-8.3634 4.1975 -12.5451c -0.9711,-0.3249 -1.9422,-0.6498 -2.9132 -0.9747c 0.3919,-1.1714 0.7839,-2.3428 1.1758 -3.5142c -16.6905,-5.5845 -33.3810,-11.1691 -50.0715 -16.7537c -0.3919,1.1714 -0.7839,2.3428 -1.1758 3.5142c -0.9711,-0.3250 -1.9422,-0.6499 -2.9132 -0.9748c -1.3992,4.1817 -2.7984,8.3634 -4.1975 12.5451c 0.9711,0.3249 1.9421,0.6499 2.9132 0.9748c -2.0023,5.9843 -4.0046,11.9686 -6.0070 17.9530c -0.9711,-0.3249 -1.9422,-0.6499 -2.9133 -0.9748c -1.3992,4.1817 -2.7983,8.3634 -4.1975 12.5451ZM 195.6714,879.4076 c 0.9711,0.3250 1.9422,0.6499 2.9133 0.9748c -0.3919,1.1714 -0.7839,2.3428 -1.1758 3.5142c 16.6905,5.5845 33.3810,11.1691 50.0715 16.7537c 0.3919,-1.1714 0.7839,-2.3428 1.1758 -3.5142c 0.9711,0.3250 1.9422,0.6499 2.9133 0.9748c 1.3992,-4.1817 2.7983,-8.3634 4.1975 -12.5451c -0.9710,-0.3249 -1.9421,-0.6499 -2.9132 -0.9748c 2.0023,-5.9843 4.0047,-11.9686 6.0070 -17.9530c 0.9710,0.3249 1.9421,0.6499 2.9132 0.9748c 1.3992,-4.1817 2.7984,-8.3634 4.1975 -12.5451c -0.9711,-0.3250 -1.9422,-0.6499 -2.9132 -0.9748c 0.3919,-1.1714 0.7839,-2.3428 1.1758 -3.5142c -16.6905,-5.5845 -33.3810,-11.1691 -50.0715 -16.7537c -0.3919,1.1714 -0.7839,2.3428 -1.1758 3.5142c -0.9711,-0.3250 -1.9422,-0.6499 -2.9132 -0.9748c -1.3992,4.1817 -2.7984,8.3634 -4.1975 12.5451c 0.9711,0.3249 1.9421,0.6499 2.9132 0.9748c -2.0023,5.9843 -4.0046,11.9686 -6.0070 17.9530c -0.9710,-0.3249 -1.9421,-0.6499 -2.9132 -0.9748c -1.3992,4.1817 -2.7983,8.3634 -4.1975 12.5451ZM 218.4574,811.3075 c 0.9711,0.3249 1.9422,0.6498 2.9132 0.9748c -0.3919,1.1714 -0.7839,2.3427 -1.1758 3.5141c 16.6905,5.5846 33.3810,11.1691 50.0715 16.7537c 0.3919,-1.1714 0.7839,-2.3428 1.1758 -3.5141c 0.9711,0.3249 1.9421,0.6498 2.9132 0.9748c 1.3992,-4.1817 2.7984,-8.3634 4.1975 -12.5451c -0.9711,-0.3249 -1.9422,-0.6498 -2.9132 -0.9748c 2.0023,-5.9843 4.0046,-11.9686 6.0070 -17.9530c 0.9711,0.3250 1.9422,0.6499 2.9133 0.9748c 1.3992,-4.1817 2.7983,-8.3634 4.1975 -12.5451c -0.9710,-0.3249 -1.9421,-0.6499 -2.9132 -0.9748c 0.3919,-1.1714 0.7839,-2.3428 1.1758 -3.5142c -16.6905,-5.5845 -33.3810,-11.1691 -50.0715 -16.7536c -0.3919,1.1713 -0.7839,2.3427 -1.1758 3.5141c -0.9710,-0.3249 -1.9421,-0.6498 -2.9132 -0.9748c -1.3992,4.1817 -2.7983,8.3634 -4.1975 12.5451c 0.9711,0.3250 1.9422,0.6499 2.9133 0.9748c -2.0024,5.9843 -4.0047,11.9687 -6.0070 17.9530c -0.9711,-0.3249 -1.9422,-0.6498 -2.9132 -0.9748c -1.3992,4.1817 -2.7984,8.3634 -4.1975 12.5451ZM 241.2434,743.2074 c 0.9710,0.3249 1.9421,0.6499 2.9132 0.9748c -0.3919,1.1714 -0.7839,2.3428 -1.1758 3.5142c 16.6905,5.5845 33.3810,11.1691 50.0715 16.7537c 0.3919,-1.1714 0.7839,-2.3428 1.1758 -3.5142c 0.9710,0.3249 1.9421,0.6499 2.9132 0.9748c 1.3992,-4.1817 2.7983,-8.3634 4.1975 -12.5451c -0.9711,-0.3250 -1.9422,-0.6499 -2.9133 -0.9748c 2.0024,-5.9843 4.0047,-11.9687 6.0070 -17.9530c 0.9711,0.3249 1.9421,0.6498 2.9132 0.9748c 1.3992,-4.1817 2.7984,-8.3634 4.1975 -12.5451c -0.9711,-0.3249 -1.9422,-0.6498 -2.9132 -0.9748c 0.3919,-1.1713 0.7839,-2.3427 1.1758 -3.5141c -16.6905,-5.5846 -33.3810,-11.1691 -50.0715 -16.7537c -0.3919,1.1714 -0.7839,2.3428 -1.1758 3.5142c -0.9711,-0.3250 -1.9421,-0.6499 -2.9132 -0.9748c -1.3992,4.1817 -2.7984,8.3634 -4.1975 12.5451c 0.9711,0.3249 1.9422,0.6499 2.9132 0.9748c -2.0023,5.9843 -4.0046,11.9686 -6.0070 17.9530c -0.9711,-0.3249 -1.9422,-0.6499 -2.9133 -0.9748c -1.3992,4.1817 -2.7983,8.3634 -4.1975 12.5451ZM 264.0293,675.1074 c 0.9711,0.3249 1.9422,0.6498 2.9132 0.9748c -0.3919,1.1713 -0.7839,2.3427 -1.1758 3.5141c 16.6905,5.5845 33.3810,11.1691 50.0715 16.7537c 0.3919,-1.1714 0.7839,-2.3428 1.1758 -3.5142c 0.9711,0.3250 1.9422,0.6499 2.9132 0.9748c 1.3992,-4.1817 2.7984,-8.3634 4.1975 -12.5451c -0.9711,-0.3249 -1.9421,-0.6499 -2.9132 -0.9748c 2.0023,-5.9843 4.0046,-11.9686 6.0070 -17.9530c 0.9710,0.3249 1.9421,0.6499 2.9132 0.9748c 1.3992,-4.1817 2.7983,-8.3634 4.1975 -12.5451c -0.9711,-0.3250 -1.9422,-0.6499 -2.9133 -0.9748c 0.3919,-1.1714 0.7839,-2.3428 1.1758 -3.5142c -16.6905,-5.5845 -33.3810,-11.1691 -50.0715 -16.7537c -0.3919,1.1714 -0.7839,2.3428 -1.1758 3.5142c -0.9711,-0.3249 -1.9422,-0.6499 -2.9133 -0.9748c -1.3992,4.1817 -2.7983,8.3634 -4.1975 12.5451c 0.9710,0.3250 1.9421,0.6499 2.9132 0.9748c -2.0023,5.9843 -4.0047,11.9687 -6.0070 17.9530c -0.9711,-0.3249 -1.9421,-0.6498 -2.9132 -0.9748c -1.3992,4.1817 -2.7983,8.3634 -4.1975 12.5451ZM 269.7678,884.2725 c 0.9710,0.3249 1.9421,0.6499 2.9132 0.9748c -0.3919,1.1714 -0.7839,2.3428 -1.1758 3.5142c 16.6905,5.5845 33.3810,11.1691 50.0715 16.7537c 0.3919,-1.1714 0.7839,-2.3428 1.1758 -3.5142c 0.9710,0.3249 1.9421,0.6499 2.9132 0.9748c 1.3992,-4.1817 2.7983,-8.3634 4.1975 -12.5451c -0.9711,-0.3250 -1.9422,-0.6499 -2.9132 -0.9748c 2.0023,-5.9843 4.0046,-11.9687 6.0070 -17.9530c 0.9711,0.3249 1.9422,0.6498 2.9132 0.9748c 1.3992,-4.1817 2.7984,-8.3634 4.1975 -12.5451c -0.9711,-0.3249 -1.9421,-0.6498 -2.9132 -0.9748c 0.3919,-1.1714 0.7839,-2.3427 1.1758 -3.5141c -16.6905,-5.5845 -33.3810,-11.1691 -50.0715 -16.7537c -0.3919,1.1714 -0.7839,2.3428 -1.1758 3.5141c -0.9711,-0.3249 -1.9421,-0.6498 -2.9132 -0.9747c -1.3992,4.1817 -2.7984,8.3634 -4.1975 12.5451c 0.9711,0.3249 1.9422,0.6498 2.9132 0.9748c -2.0023,5.9843 -4.0046,11.9686 -6.0070 17.9530c -0.9711,-0.3250 -1.9422,-0.6499 -2.9132 -0.9748c -1.3992,4.1817 -2.7984,8.3634 -4.1975 12.5451ZM 292.5538,816.1724 c 0.9711,0.3249 1.9422,0.6498 2.9133 0.9747c -0.3919,1.1714 -0.7839,2.3428 -1.1758 3.5142c 16.6905,5.5845 33.3810,11.1691 50.0715 16.7537c 0.3919,-1.1714 0.7839,-2.3428 1.1758 -3.5142c 0.9711,0.3250 1.9422,0.6499 2.9132 0.9748c 1.3992,-4.1817 2.7984,-8.3634 4.1975 -12.5451c -0.9710,-0.3249 -1.9421,-0.6499 -2.9132 -0.9748c 2.0023,-5.9843 4.0047,-11.9686 6.0070 -17.9530c 0.9710,0.3249 1.9421,0.6499 2.9132 0.9748c 1.3992,-4.1817 2.7984,-8.3634 4.1975 -12.5451c -0.9711,-0.3250 -1.9422,-0.6499 -2.9132 -0.9748c 0.3919,-1.1714 0.7839,-2.3428 1.1758 -3.5142c -16.6905,-5.5845 -33.3810,-11.1691 -50.0715 -16.7537c -0.3919,1.1714 -0.7839,2.3428 -1.1758 3.5142c -0.9711,-0.3249 -1.9422,-0.6499 -2.9132 -0.9748c -1.3992,4.1817 -2.7984,8.3634 -4.1975 12.5451c 0.9710,0.3250 1.9421,0.6499 2.9132 0.9748c -2.0023,5.9843 -4.0046,11.9686 -6.0070 17.9530c -0.9710,-0.3249 -1.9421,-0.6498 -2.9132 -0.9748c -1.3992,4.1817 -2.7983,8.3634 -4.1975 12.5451ZM 315.3398,748.0723 c 0.9711,0.3249 1.9421,0.6499 2.9132 0.9748c -0.3919,1.1714 -0.7839,2.3428 -1.1758 3.5141c 16.6905,5.5846 33.3810,11.1691 50.0715 16.7537c 0.3919,-1.1714 0.7839,-2.3427 1.1758 -3.5141c 0.9711,0.3249 1.9421,0.6498 2.9132 0.9748c 1.3992,-4.1817 2.7984,-8.3634 4.1975 -12.5451c -0.9711,-0.3249 -1.9422,-0.6498 -2.9132 -0.9748c 2.0023,-5.9843 4.0046,-11.9686 6.0070 -17.9530c 0.9711,0.3250 1.9422,0.6499 2.9133 0.9748c 1.3992,-4.1817 2.7983,-8.3634 4.1975 -12.5451c -0.9710,-0.3249 -1.9421,-0.6499 -2.9132 -0.9748c 0.3919,-1.1714 0.7839,-2.3428 1.1758 -3.5141c -16.6905,-5.5846 -33.3810,-11.1691 -50.0715 -16.7537c -0.3919,1.1714 -0.7839,2.3427 -1.1758 3.5141c -0.9710,-0.3249 -1.9421,-0.6498 -2.9132 -0.9748c -1.3992,4.1817 -2.7983,8.3634 -4.1975 12.5451c 0.9711,0.3249 1.9422,0.6498 2.9133 0.9748c -2.0024,5.9843 -4.0047,11.9686 -6.0070 17.9530c -0.9711,-0.3250 -1.9422,-0.6499 -2.9132 -0.9748c -1.3992,4.1817 -2.7984,8.3634 -4.1975 12.5451ZM 330.6723,928.5638 c 0.9711,0.3250 1.9422,0.6499 2.9133 0.9748c -0.3919,1.1714 -0.7839,2.3428 -1.1758 3.5142c 16.6905,5.5845 33.3810,11.1691 50.0715 16.7537c 0.3919,-1.1714 0.7839,-2.3428 1.1758 -3.5142c 0.9711,0.3250 1.9422,0.6499 2.9132 0.9748c 1.3992,-4.1817 2.7984,-8.3634 4.1975 -12.5451c -0.9710,-0.3249 -1.9421,-0.6499 -2.9132 -0.9748c 2.0023,-5.9843 4.0046,-11.9686 6.0070 -17.9530c 0.9710,0.3249 1.9421,0.6499 2.9132 0.9748c 1.3992,-4.1817 2.7983,-8.3634 4.1975 -12.5451c -0.9711,-0.3249 -1.9422,-0.6498 -2.9133 -0.9747c 0.3919,-1.1714 0.7839,-2.3428 1.1758 -3.5142c -16.6905,-5.5845 -33.3810,-11.1691 -50.0715 -16.7537c -0.3919,1.1714 -0.7839,2.3428 -1.1758 3.5142c -0.9711,-0.3250 -1.9422,-0.6499 -2.9133 -0.9748c -1.3992,4.1817 -2.7983,8.3634 -4.1975 12.5451c 0.9710,0.3249 1.9421,0.6499 2.9132 0.9748c -2.0023,5.9843 -4.0046,11.9686 -6.0070 17.9530c -0.9710,-0.3249 -1.9421,-0.6499 -2.9132 -0.9748c -1.3992,4.1817 -2.7983,8.3634 -4.1975 12.5451ZM 338.1258,679.9722 c 0.9710,0.3250 1.9421,0.6499 2.9132 0.9748c -0.3919,1.1714 -0.7839,2.3428 -1.1758 3.5142c 16.6905,5.5845 33.3810,11.1691 50.0715 16.7537c 0.3919,-1.1714 0.7839,-2.3428 1.1758 -3.5142c 0.9711,0.3249 1.9422,0.6499 2.9133 0.9748c 1.3992,-4.1817 2.7983,-8.3634 4.1975 -12.5451c -0.9710,-0.3250 -1.9421,-0.6499 -2.9132 -0.9748c 2.0024,-5.9843 4.0047,-11.9687 6.0070 -17.9530c 0.9711,0.3249 1.9421,0.6498 2.9132 0.9748c 1.3992,-4.1817 2.7984,-8.3634 4.1975 -12.5451c -0.9711,-0.3249 -1.9422,-0.6498 -2.9132 -0.9747c 0.3919,-1.1714 0.7839,-2.3428 1.1758 -3.5142c -16.6905,-5.5845 -33.3810,-11.1691 -50.0715 -16.7537c -0.3919,1.1714 -0.7839,2.3428 -1.1758 3.5142c -0.9711,-0.3250 -1.9422,-0.6499 -2.9132 -0.9748c -1.3992,4.1817 -2.7984,8.3634 -4.1975 12.5451c 0.9711,0.3249 1.9421,0.6499 2.9132 0.9748c -2.0023,5.9843 -4.0046,11.9686 -6.0070 17.9530c -0.9711,-0.3249 -1.9422,-0.6499 -2.9133 -0.9748c -1.3992,4.1817 -2.7983,8.3634 -4.1975 12.5451ZM 353.4583,860.4637 c 0.9711,0.3249 1.9421,0.6498 2.9132 0.9748c -0.3919,1.1713 -0.7839,2.3427 -1.1758 3.5141c 16.6905,5.5846 33.3810,11.1691 50.0715 16.7537c 0.3919,-1.1714 0.7839,-2.3428 1.1758 -3.5141c 0.9711,0.3249 1.9421,0.6498 2.9132 0.9748c 1.3992,-4.1817 2.7984,-8.3634 4.1975 -12.5451c -0.9711,-0.3249 -1.9422,-0.6498 -2.9132 -0.9748c 2.0023,-5.9843 4.0046,-11.9686 6.0070 -17.9530c 0.9711,0.3250 1.9422,0.6499 2.9133 0.9748c 1.3992,-4.1817 2.7983,-8.3634 4.1975 -12.5451c -0.9710,-0.3249 -1.9421,-0.6499 -2.9132 -0.9748c 0.3919,-1.1714 0.7839,-2.3428 1.1758 -3.5142c -16.6905,-5.5845 -33.3810,-11.1691 -50.0715 -16.7537c -0.3919,1.1714 -0.7839,2.3428 -1.1758 3.5142c -0.9710,-0.3249 -1.9421,-0.6499 -2.9132 -0.9748c -1.3992,4.1817 -2.7983,8.3634 -4.1975 12.5451c 0.9711,0.3250 1.9422,0.6499 2.9133 0.9748c -2.0024,5.9843 -4.0047,11.9687 -6.0070 17.9530c -0.9711,-0.3249 -1.9422,-0.6498 -2.9132 -0.9748c -1.3992,4.1817 -2.7984,8.3634 -4.1975 12.5451ZM 376.2443,792.3636 c 0.9710,0.3249 1.9421,0.6499 2.9132 0.9748c -0.3919,1.1714 -0.7839,2.3428 -1.1758 3.5142c 16.6905,5.5845 33.3810,11.1691 50.0715 16.7537c 0.3919,-1.1714 0.7839,-2.3428 1.1758 -3.5142c 0.9711,0.3249 1.9422,0.6499 2.9133 0.9748c 1.3992,-4.1817 2.7983,-8.3634 4.1975 -12.5451c -0.9710,-0.3250 -1.9421,-0.6499 -2.9132 -0.9748c 2.0023,-5.9843 4.0047,-11.9687 6.0070 -17.9530c 0.9711,0.3249 1.9421,0.6498 2.9132 0.9748c 1.3992,-4.1817 2.7984,-8.3634 4.1975 -12.5451c -0.9711,-0.3249 -1.9422,-0.6498 -2.9132 -0.9748c 0.3919,-1.1714 0.7839,-2.3427 1.1758 -3.5141c -16.6905,-5.5845 -33.3810,-11.1691 -50.0715 -16.7537c -0.3919,1.1714 -0.7839,2.3428 -1.1758 3.5141c -0.9711,-0.3249 -1.9422,-0.6498 -2.9132 -0.9747c -1.3992,4.1817 -2.7984,8.3634 -4.1975 12.5451c 0.9711,0.3249 1.9421,0.6498 2.9132 0.9748c -2.0023,5.9843 -4.0046,11.9686 -6.0070 17.9530c -0.9711,-0.3250 -1.9422,-0.6499 -2.9133 -0.9748c -1.3992,4.1817 -2.7983,8.3634 -4.1975 12.5451ZM 392.7761,969.2708 c 0.9711,0.3249 1.9422,0.6498 2.9132 0.9748c -0.3919,1.1714 -0.7839,2.3427 -1.1758 3.5141c 16.6905,5.5846 33.3810,11.1691 50.0715 16.7537c 0.3919,-1.1714 0.7839,-2.3428 1.1758 -3.5141c 0.9711,0.3249 1.9422,0.6498 2.9132 0.9748c 1.3992,-4.1817 2.7984,-8.3634 4.1975 -12.5451c -0.9711,-0.3249 -1.9421,-0.6498 -2.9132 -0.9748c 2.0023,-5.9843 4.0046,-11.9686 6.0070 -17.9530c 0.9710,0.3250 1.9421,0.6499 2.9132 0.9748c 1.3992,-4.1817 2.7983,-8.3634 4.1975 -12.5451c -0.9711,-0.3249 -1.9422,-0.6499 -2.9133 -0.9748c 0.3919,-1.1714 0.7839,-2.3428 1.1758 -3.5141c -16.6905,-5.5846 -33.3810,-11.1691 -50.0715 -16.7537c -0.3919,1.1713 -0.7839,2.3427 -1.1758 3.5141c -0.9711,-0.3249 -1.9422,-0.6499 -2.9133 -0.9748c -1.3992,4.1817 -2.7983,8.3634 -4.1975 12.5451c 0.9710,0.3249 1.9421,0.6498 2.9132 0.9747c -2.0023,5.9843 -4.0047,11.9687 -6.0070 17.9530c -0.9711,-0.3249 -1.9421,-0.6498 -2.9132 -0.9747c -1.3992,4.1817 -2.7984,8.3634 -4.1975 12.5451ZM 399.0303,724.2635 c 0.9711,0.3250 1.9422,0.6499 2.9132 0.9748c -0.3919,1.1714 -0.7839,2.3428 -1.1758 3.5142c 16.6905,5.5845 33.3810,11.1691 50.0715 16.7537c 0.3919,-1.1714 0.7839,-2.3428 1.1758 -3.5142c 0.9711,0.3250 1.9422,0.6499 2.9132 0.9748c 1.3992,-4.1817 2.7984,-8.3634 4.1975 -12.5451c -0.9711,-0.3249 -1.9422,-0.6499 -2.9132 -0.9748c 2.0023,-5.9843 4.0046,-11.9686 6.0070 -17.9530c 0.9710,0.3249 1.9421,0.6499 2.9132 0.9748c 1.3992,-4.1817 2.7983,-8.3634 4.1975 -12.5451c -0.9710,-0.3250 -1.9421,-0.6499 -2.9132 -0.9748c 0.3919,-1.1714 0.7839,-2.3428 1.1758 -3.5142c -16.6905,-5.5845 -33.3810,-11.1691 -50.0715 -16.7537c -0.3919,1.1714 -0.7839,2.3428 -1.1758 3.5142c -0.9711,-0.3249 -1.9422,-0.6499 -2.9133 -0.9748c -1.3992,4.1817 -2.7983,8.3634 -4.1975 12.5451c 0.9710,0.3250 1.9421,0.6499 2.9132 0.9748c -2.0023,5.9843 -4.0047,11.9686 -6.0070 17.9530c -0.9711,-0.3249 -1.9421,-0.6498 -2.9132 -0.9748c -1.3992,4.1817 -2.7984,8.3634 -4.1975 12.5451ZM 415.5621,901.1707 c 0.9711,0.3250 1.9421,0.6499 2.9132 0.9748c -0.3919,1.1714 -0.7839,2.3428 -1.1758 3.5142c 16.6905,5.5845 33.3810,11.1691 50.0715 16.7537c 0.3919,-1.1714 0.7839,-2.3428 1.1758 -3.5142c 0.9710,0.3249 1.9421,0.6499 2.9132 0.9748c 1.3992,-4.1817 2.7983,-8.3634 4.1975 -12.5451c -0.9711,-0.3250 -1.9422,-0.6499 -2.9132 -0.9748c 2.0023,-5.9843 4.0046,-11.9687 6.0070 -17.9530c 0.9711,0.3249 1.9422,0.6498 2.9132 0.9748c 1.3992,-4.1817 2.7984,-8.3634 4.1975 -12.5451c -0.9711,-0.3249 -1.9421,-0.6498 -2.9132 -0.9748c 0.3919,-1.1713 0.7839,-2.3427 1.1758 -3.5141c -16.6905,-5.5845 -33.3810,-11.1691 -50.0715 -16.7537c -0.3919,1.1714 -0.7839,2.3428 -1.1758 3.5141c -0.9711,-0.3249 -1.9421,-0.6498 -2.9132 -0.9747c -1.3992,4.1817 -2.7984,8.3634 -4.1975 12.5451c 0.9711,0.3249 1.9422,0.6499 2.9132 0.9748c -2.0023,5.9843 -4.0046,11.9686 -6.0070 17.9530c -0.9711,-0.3249 -1.9422,-0.6499 -2.9132 -0.9748c -1.3992,4.1817 -2.7984,8.3634 -4.1975 12.5451ZM 438.3481,833.0707 c 0.9711,0.3249 1.9422,0.6498 2.9133 0.9748c -0.3919,1.1713 -0.7839,2.3427 -1.1758 3.5141c 16.6905,5.5845 33.3810,11.1691 50.0715 16.7537c 0.3919,-1.1714 0.7839,-2.3428 1.1758 -3.5142c 0.9711,0.3250 1.9422,0.6499 2.9133 0.9748c 1.3992,-4.1817 2.7983,-8.3634 4.1975 -12.5451c -0.9710,-0.3249 -1.9421,-0.6499 -2.9132 -0.9748c 2.0023,-5.9843 4.0047,-11.9686 6.0070 -17.9530c 0.9710,0.3249 1.9421,0.6499 2.9132 0.9748c 1.3992,-4.1817 2.7983,-8.3634 4.1975 -12.5451c -0.9711,-0.3250 -1.9422,-0.6499 -2.9132 -0.9748c 0.3919,-1.1714 0.7839,-2.3428 1.1758 -3.5142c -16.6905,-5.5845 -33.3810,-11.1691 -50.0715 -16.7537c -0.3919,1.1714 -0.7839,2.3428 -1.1758 3.5142c -0.9711,-0.3249 -1.9422,-0.6499 -2.9132 -0.9748c -1.3992,4.1817 -2.7984,8.3634 -4.1975 12.5451c 0.9711,0.3250 1.9421,0.6499 2.9132 0.9748c -2.0023,5.9843 -4.0046,11.9686 -6.0070 17.9530c -0.9710,-0.3249 -1.9421,-0.6498 -2.9132 -0.9748c -1.3992,4.1817 -2.7983,8.3634 -4.1975 12.5451ZM 449.4833,1026.1069 c 0.9710,0.3249 1.9421,0.6498 2.9132 0.9748c -0.3919,1.1713 -0.7839,2.3427 -1.1758 3.5141c 16.6905,5.5846 33.3810,11.1691 50.0715 16.7537c 0.3919,-1.1714 0.7839,-2.3428 1.1758 -3.5141c 0.9710,0.3249 1.9421,0.6498 2.9132 0.9747c 1.3992,-4.1817 2.7983,-8.3634 4.1975 -12.5451c -0.9710,-0.3249 -1.9421,-0.6498 -2.9132 -0.9748c 2.0023,-5.9843 4.0047,-11.9686 6.0070 -17.9530c 0.9711,0.3250 1.9421,0.6499 2.9132 0.9748c 1.3992,-4.1817 2.7984,-8.3634 4.1975 -12.5451c -0.9711,-0.3249 -1.9422,-0.6499 -2.9132 -0.9748c 0.3919,-1.1714 0.7839,-2.3428 1.1758 -3.5142c -16.6905,-5.5845 -33.3810,-11.1691 -50.0715 -16.7537c -0.3919,1.1714 -0.7839,2.3428 -1.1758 3.5142c -0.9711,-0.3249 -1.9422,-0.6499 -2.9132 -0.9748c -1.3992,4.1817 -2.7984,8.3634 -4.1975 12.5451c 0.9711,0.3250 1.9421,0.6499 2.9132 0.9748c -2.0023,5.9843 -4.0046,11.9687 -6.0070 17.9530c -0.9711,-0.3249 -1.9422,-0.6498 -2.9133 -0.9748c -1.3992,4.1817 -2.7983,8.3634 -4.1975 12.5451ZM 461.1341,764.9705 c 0.9711,0.3249 1.9422,0.6499 2.9132 0.9748c -0.3919,1.1714 -0.7839,2.3428 -1.1758 3.5141c 16.6905,5.5846 33.3810,11.1691 50.0715 16.7537c 0.3919,-1.1713 0.7839,-2.3427 1.1758 -3.5141c 0.9711,0.3249 1.9421,0.6498 2.9132 0.9748c 1.3992,-4.1817 2.7984,-8.3634 4.1975 -12.5451c -0.9711,-0.3249 -1.9422,-0.6498 -2.9132 -0.9748c 2.0023,-5.9843 4.0046,-11.9686 6.0070 -17.9530c 0.9711,0.3250 1.9422,0.6499 2.9132 0.9748c 1.3992,-4.1817 2.7984,-8.3634 4.1975 -12.5451c -0.9710,-0.3249 -1.9421,-0.6499 -2.9132 -0.9748c 0.3919,-1.1714 0.7839,-2.3428 1.1758 -3.5141c -16.6905,-5.5846 -33.3810,-11.1691 -50.0715 -16.7537c -0.3919,1.1714 -0.7839,2.3427 -1.1758 3.5141c -0.9710,-0.3249 -1.9421,-0.6498 -2.9132 -0.9748c -1.3992,4.1817 -2.7983,8.3634 -4.1975 12.5451c 0.9711,0.3249 1.9422,0.6498 2.9133 0.9748c -2.0024,5.9843 -4.0047,11.9686 -6.0070 17.9530c -0.9711,-0.3250 -1.9422,-0.6499 -2.9132 -0.9748c -1.3992,4.1817 -2.7984,8.3634 -4.1975 12.5451ZM 472.2692,958.0067 c 0.9711,0.3249 1.9422,0.6499 2.9132 0.9748c -0.3919,1.1714 -0.7839,2.3428 -1.1758 3.5142c 16.6905,5.5845 33.3810,11.1691 50.0715 16.7536c 0.3919,-1.1713 0.7839,-2.3427 1.1758 -3.5141c 0.9711,0.3249 1.9422,0.6499 2.9132 0.9748c 1.3992,-4.1817 2.7984,-8.3634 4.1975 -12.5451c -0.9711,-0.3250 -1.9422,-0.6499 -2.9132 -0.9748c 2.0023,-5.9843 4.0046,-11.9687 6.0070 -17.9530c 0.9710,0.3249 1.9421,0.6498 2.9132 0.9748c 1.3992,-4.1817 2.7983,-8.3634 4.1975 -12.5451c -0.9710,-0.3249 -1.9421,-0.6498 -2.9132 -0.9748c 0.3919,-1.1714 0.7839,-2.3427 1.1758 -3.5141c -16.6905,-5.5846 -33.3810,-11.1691 -50.0715 -16.7537c -0.3919,1.1714 -0.7839,2.3428 -1.1758 3.5141c -0.9711,-0.3249 -1.9422,-0.6498 -2.9133 -0.9747c -1.3992,4.1817 -2.7983,8.3634 -4.1975 12.5451c 0.9710,0.3249 1.9421,0.6498 2.9132 0.9748c -2.0023,5.9843 -4.0047,11.9686 -6.0070 17.9530c -0.9711,-0.3250 -1.9421,-0.6499 -2.9132 -0.9748c -1.3992,4.1817 -2.7984,8.3634 -4.1975 12.5451ZM 478.9640,1071.8329 c 0.0000,3.1311 2.5382,5.6693 5.6693 5.6693c 3.1310,-0.0000 5.6693,-2.5382 5.6693 -5.6693c 0.0000,-3.1310 -2.5382,-5.6693 -5.6693 -5.6693c -3.1311,-0.0000 -5.6693,2.5382 -5.6693 5.6693ZM 528.9763,1014.8428 c 0.9711,0.3249 1.9422,0.6499 2.9133 0.9748c -0.3919,1.1714 -0.7839,2.3428 -1.1758 3.5141c 16.6905,5.5846 33.3810,11.1691 50.0715 16.7537c 0.3919,-1.1713 0.7839,-2.3427 1.1758 -3.5141c 0.9711,0.3249 1.9422,0.6499 2.9133 0.9748c 1.3992,-4.1817 2.7983,-8.3634 4.1975 -12.5451c -0.9710,-0.3249 -1.9421,-0.6498 -2.9132 -0.9748c 2.0023,-5.9843 4.0047,-11.9686 6.0070 -17.9530c 0.9710,0.3250 1.9421,0.6499 2.9132 0.9748c 1.3992,-4.1817 2.7983,-8.3634 4.1975 -12.5451c -0.9711,-0.3249 -1.9422,-0.6499 -2.9132 -0.9748c 0.3919,-1.1714 0.7839,-2.3428 1.1758 -3.5141c -16.6905,-5.5846 -33.3810,-11.1691 -50.0715 -16.7537c -0.3919,1.1714 -0.7839,2.3427 -1.1758 3.5141c -0.9711,-0.3249 -1.9422,-0.6498 -2.9132 -0.9748c -1.3992,4.1817 -2.7984,8.3634 -4.1975 12.5451c 0.9711,0.3249 1.9421,0.6498 2.9132 0.9748c -2.0023,5.9843 -4.0046,11.9686 -6.0070 17.9530c -0.9710,-0.3250 -1.9421,-0.6499 -2.9132 -0.9748c -1.3992,4.1817 -2.7983,8.3634 -4.1975 12.5451ZM 537.5430,830.1226 c 0.0000,54.2717 43.9959,98.2677 98.2677 98.2677c 54.2718,-0.0000 98.2677,-43.9960 98.2677 -98.2677c 0.0000,-54.2718 -43.9959,-98.2678 -98.2677 -98.2678c -54.2718,-0.0000 -98.2677,43.9960 -98.2677 98.2678ZM 573.4484,653.1763 c 0.0000,3.1311 2.5382,5.6693 5.6693 5.6693c 3.1311,-0.0000 5.6693,-2.5382 5.6693 -5.6693c 0.0000,-3.1310 -2.5382,-5.6693 -5.6693 -5.6693c -3.1310,-0.0000 -5.6693,2.5382 -5.6693 5.6693ZM 672.3449,990.5028 c 1.3992,4.1817 2.7984,8.3634 4.1975 12.5451c 0.9711,-0.3249 1.9422,-0.6498 2.9132 -0.9748c 2.0023,5.9843 4.0047,11.9687 6.0070 17.9530c -0.9711,0.3250 -1.9422,0.6499 -2.9132 0.9748c 1.3992,4.1817 2.7983,8.3634 4.1975 12.5451c 0.9711,-0.3249 1.9422,-0.6499 2.9133 -0.9748c 0.3919,1.1714 0.7839,2.3428 1.1758 3.5141c 16.6905,-5.5845 33.3810,-11.1691 50.0715 -16.7537c -0.3919,-1.1713 -0.7839,-2.3427 -1.1758 -3.5141c 0.9711,-0.3249 1.9422,-0.6499 2.9133 -0.9748c -1.3992,-4.1817 -2.7984,-8.3634 -4.1975 -12.5451c -0.9711,0.3249 -1.9422,0.6498 -2.9132 0.9748c -2.0024,-5.9843 -4.0047,-11.9687 -6.0070 -17.9530c 0.9711,-0.3250 1.9421,-0.6499 2.9132 -0.9748c -1.3992,-4.1817 -2.7983,-8.3634 -4.1975 -12.5451c -0.9710,0.3250 -1.9421,0.6499 -2.9132 0.9748c -0.3919,-1.1714 -0.7839,-2.3427 -1.1758 -3.5141c -16.6905,5.5845 -33.3810,11.1691 -50.0715 16.7537c 0.3919,1.1713 0.7839,2.3427 1.1758 3.5141c -0.9710,0.3249 -1.9421,0.6499 -2.9132 0.9748ZM 686.8343,653.1763 c 0.0000,3.1311 2.5382,5.6693 5.6693 5.6693c 3.1310,-0.0000 5.6693,-2.5382 5.6693 -5.6693c 0.0000,-3.1310 -2.5382,-5.6693 -5.6693 -5.6693c -3.1311,-0.0000 -5.6693,2.5382 -5.6693 5.6693ZM 729.0521,933.6667 c 1.3992,4.1817 2.7983,8.3634 4.1975 12.5451c 0.9711,-0.3250 1.9422,-0.6499 2.9132 -0.9748c 2.0024,5.9843 4.0047,11.9686 6.0070 17.9530c -0.9710,0.3249 -1.9421,0.6498 -2.9132 0.9748c 1.3992,4.1817 2.7983,8.3634 4.1975 12.5451c 0.9710,-0.3249 1.9421,-0.6499 2.9132 -0.9748c 0.3919,1.1714 0.7839,2.3428 1.1758 3.5141c 16.6905,-5.5845 33.3810,-11.1691 50.0715 -16.7536c -0.3919,-1.1714 -0.7839,-2.3428 -1.1758 -3.5142c 0.9710,-0.3249 1.9421,-0.6499 2.9132 -0.9748c -1.3992,-4.1817 -2.7984,-8.3634 -4.1975 -12.5451c -0.9711,0.3249 -1.9421,0.6498 -2.9132 0.9748c -2.0023,-5.9843 -4.0047,-11.9687 -6.0070 -17.9530c 0.9711,-0.3250 1.9422,-0.6499 2.9132 -0.9748c -1.3992,-4.1817 -2.7983,-8.3634 -4.1975 -12.5451c -0.9711,0.3249 -1.9422,0.6498 -2.9133 0.9747c -0.3919,-1.1713 -0.7839,-2.3427 -1.1758 -3.5141c -16.6905,5.5845 -33.3810,11.1691 -50.0715 16.7537c 0.3919,1.1714 0.7839,2.3427 1.1758 3.5141c -0.9711,0.3250 -1.9422,0.6499 -2.9132 0.9748ZM 740.1872,740.6306 c 1.3992,4.1817 2.7983,8.3634 4.1975 12.5451c 0.9710,-0.3249 1.9421,-0.6498 2.9132 -0.9748c 2.0023,5.9843 4.0046,11.9687 6.0070 17.9530c -0.9710,0.3250 -1.9421,0.6499 -2.9132 0.9748c 1.3992,4.1817 2.7984,8.3634 4.1975 12.5451c 0.9711,-0.3250 1.9421,-0.6499 2.9132 -0.9748c 0.3919,1.1714 0.7839,2.3428 1.1758 3.5141c 16.6905,-5.5845 33.3810,-11.1691 50.0715 -16.7537c -0.3919,-1.1713 -0.7839,-2.3427 -1.1758 -3.5141c 0.9710,-0.3249 1.9421,-0.6499 2.9132 -0.9748c -1.3992,-4.1817 -2.7984,-8.3634 -4.1975 -12.5451c -0.9710,0.3249 -1.9421,0.6498 -2.9132 0.9748c -2.0023,-5.9843 -4.0046,-11.9687 -6.0070 -17.9530c 0.9711,-0.3250 1.9422,-0.6499 2.9133 -0.9748c -1.3992,-4.1817 -2.7984,-8.3634 -4.1975 -12.5451c -0.9711,0.3250 -1.9422,0.6499 -2.9132 0.9748c -0.3919,-1.1714 -0.7839,-2.3427 -1.1758 -3.5141c -16.6905,5.5845 -33.3810,11.1691 -50.0715 16.7537c 0.3919,1.1713 0.7839,2.3427 1.1758 3.5141c -0.9711,0.3249 -1.9422,0.6499 -2.9132 0.9748ZM 751.8380,1001.7669 c 1.3992,4.1817 2.7984,8.3634 4.1975 12.5451c 0.9711,-0.3249 1.9421,-0.6498 2.9132 -0.9748c 2.0023,5.9843 4.0047,11.9687 6.0070 17.9530c -0.9711,0.3250 -1.9422,0.6499 -2.9132 0.9748c 1.3992,4.1817 2.7983,8.3634 4.1975 12.5451c 0.9711,-0.3249 1.9422,-0.6498 2.9132 -0.9747c 0.3919,1.1713 0.7839,2.3427 1.1758 3.5141c 16.6905,-5.5845 33.3810,-11.1691 50.0715 -16.7537c -0.3919,-1.1714 -0.7839,-2.3428 -1.1758 -3.5141c 0.9711,-0.3250 1.9422,-0.6499 2.9132 -0.9748c -1.3992,-4.1817 -2.7983,-8.3634 -4.1975 -12.5451c -0.9711,0.3250 -1.9422,0.6499 -2.9133 0.9748c -2.0023,-5.9843 -4.0046,-11.9686 -6.0070 -17.9530c 0.9711,-0.3249 1.9421,-0.6498 2.9132 -0.9748c -1.3992,-4.1817 -2.7983,-8.3634 -4.1975 -12.5451c -0.9710,0.3249 -1.9421,0.6499 -2.9132 0.9748c -0.3919,-1.1714 -0.7839,-2.3428 -1.1758 -3.5142c -16.6905,5.5846 -33.3810,11.1691 -50.0715 16.7537c 0.3919,1.1714 0.7839,2.3428 1.1758 3.5142c -0.9710,0.3249 -1.9421,0.6499 -2.9132 0.9748ZM 762.9732,808.7307 c 1.3992,4.1817 2.7984,8.3634 4.1975 12.5451c 0.9711,-0.3249 1.9422,-0.6499 2.9132 -0.9748c 2.0023,5.9843 4.0047,11.9686 6.0070 17.9530c -0.9711,0.3249 -1.9422,0.6499 -2.9132 0.9748c 1.3992,4.1817 2.7983,8.3634 4.1975 12.5451c 0.9711,-0.3249 1.9422,-0.6498 2.9133 -0.9748c 0.3919,1.1714 0.7839,2.3428 1.1758 3.5142c 16.6905,-5.5845 33.3810,-11.1691 50.0715 -16.7537c -0.3919,-1.1714 -0.7839,-2.3428 -1.1758 -3.5141c 0.9711,-0.3250 1.9422,-0.6499 2.9133 -0.9748c -1.3992,-4.1817 -2.7984,-8.3634 -4.1975 -12.5451c -0.9711,0.3250 -1.9422,0.6499 -2.9132 0.9748c -2.0024,-5.9843 -4.0047,-11.9686 -6.0070 -17.9530c 0.9711,-0.3249 1.9421,-0.6498 2.9132 -0.9748c -1.3992,-4.1817 -2.7983,-8.3634 -4.1975 -12.5451c -0.9710,0.3249 -1.9421,0.6499 -2.9132 0.9748c -0.3919,-1.1714 -0.7839,-2.3428 -1.1758 -3.5142c -16.6905,5.5846 -33.3810,11.1691 -50.0715 16.7537c 0.3919,1.1714 0.7839,2.3428 1.1758 3.5142c -0.9710,0.3249 -1.9421,0.6498 -2.9132 0.9748ZM 781.3188,1071.8329 c 0.0000,3.1311 2.5382,5.6693 5.6693 5.6693c 3.1311,-0.0000 5.6693,-2.5382 5.6693 -5.6693c 0.0000,-3.1310 -2.5382,-5.6693 -5.6693 -5.6693c -3.1310,-0.0000 -5.6693,2.5382 -5.6693 5.6693ZM 785.7592,876.8307 c 1.3992,4.1817 2.7983,8.3634 4.1975 12.5451c 0.9710,-0.3250 1.9421,-0.6499 2.9132 -0.9748c 2.0023,5.9843 4.0046,11.9686 6.0070 17.9530c -0.9710,0.3249 -1.9421,0.6498 -2.9132 0.9748c 1.3992,4.1817 2.7984,8.3634 4.1975 12.5451c 0.9711,-0.3249 1.9422,-0.6499 2.9132 -0.9748c 0.3919,1.1714 0.7839,2.3428 1.1758 3.5142c 16.6905,-5.5846 33.3810,-11.1691 50.0715 -16.7537c -0.3919,-1.1714 -0.7839,-2.3428 -1.1758 -3.5142c 0.9711,-0.3249 1.9421,-0.6498 2.9132 -0.9748c -1.3992,-4.1817 -2.7983,-8.3634 -4.1975 -12.5451c -0.9710,0.3249 -1.9421,0.6499 -2.9132 0.9748c -2.0023,-5.9843 -4.0046,-11.9687 -6.0070 -17.9530c 0.9710,-0.3249 1.9421,-0.6499 2.9132 -0.9748c -1.3992,-4.1817 -2.7984,-8.3634 -4.1975 -12.5451c -0.9711,0.3249 -1.9421,0.6498 -2.9132 0.9747c -0.3919,-1.1713 -0.7839,-2.3427 -1.1758 -3.5141c -16.6905,5.5845 -33.3810,11.1691 -50.0715 16.7537c 0.3919,1.1714 0.7839,2.3428 1.1758 3.5141c -0.9711,0.3250 -1.9421,0.6499 -2.9132 0.9748ZM 802.2910,699.9235 c 1.3992,4.1817 2.7983,8.3634 4.1975 12.5451c 0.9711,-0.3249 1.9422,-0.6499 2.9132 -0.9748c 2.0024,5.9843 4.0047,11.9686 6.0070 17.9530c -0.9710,0.3249 -1.9421,0.6499 -2.9132 0.9748c 1.3992,4.1817 2.7984,8.3634 4.1975 12.5451c 0.9710,-0.3249 1.9421,-0.6498 2.9132 -0.9748c 0.3919,1.1714 0.7839,2.3428 1.1758 3.5142c 16.6905,-5.5845 33.3810,-11.1691 50.0715 -16.7537c -0.3919,-1.1714 -0.7839,-2.3428 -1.1758 -3.5142c 0.9710,-0.3249 1.9421,-0.6498 2.9132 -0.9748c -1.3992,-4.1817 -2.7984,-8.3634 -4.1975 -12.5451c -0.9711,0.3250 -1.9421,0.6499 -2.9132 0.9748c -2.0023,-5.9843 -4.0047,-11.9686 -6.0070 -17.9530c 0.9711,-0.3249 1.9422,-0.6498 2.9132 -0.9748c -1.3992,-4.1817 -2.7983,-8.3634 -4.1975 -12.5451c -0.9711,0.3249 -1.9422,0.6499 -2.9133 0.9748c -0.3919,-1.1714 -0.7839,-2.3428 -1.1758 -3.5142c -16.6905,5.5846 -33.3810,11.1691 -50.0715 16.7537c 0.3919,1.1714 0.7839,2.3428 1.1758 3.5142c -0.9711,0.3249 -1.9422,0.6498 -2.9132 0.9748ZM 808.5451,944.9308 c 1.3992,4.1817 2.7984,8.3634 4.1975 12.5451c 0.9711,-0.3249 1.9422,-0.6498 2.9132 -0.9748c 2.0024,5.9843 4.0047,11.9687 6.0070 17.9530c -0.9711,0.3250 -1.9421,0.6499 -2.9132 0.9748c 1.3992,4.1817 2.7983,8.3634 4.1975 12.5451c 0.9710,-0.3250 1.9421,-0.6499 2.9132 -0.9748c 0.3919,1.1713 0.7839,2.3427 1.1758 3.5141c 16.6905,-5.5845 33.3810,-11.1691 50.0715 -16.7537c -0.3919,-1.1714 -0.7839,-2.3427 -1.1758 -3.5141c 0.9710,-0.3250 1.9421,-0.6499 2.9132 -0.9748c -1.3992,-4.1817 -2.7984,-8.3634 -4.1975 -12.5451c -0.9711,0.3249 -1.9421,0.6498 -2.9132 0.9747c -2.0023,-5.9843 -4.0047,-11.9686 -6.0070 -17.9530c 0.9711,-0.3249 1.9422,-0.6498 2.9132 -0.9747c -1.3992,-4.1817 -2.7983,-8.3634 -4.1975 -12.5451c -0.9711,0.3249 -1.9422,0.6499 -2.9133 0.9748c -0.3919,-1.1714 -0.7839,-2.3428 -1.1758 -3.5141c -16.6905,5.5845 -33.3810,11.1691 -50.0715 16.7537c 0.3919,1.1713 0.7839,2.3427 1.1758 3.5141c -0.9711,0.3249 -1.9422,0.6499 -2.9133 0.9748ZM 825.0770,768.0236 c 1.3992,4.1817 2.7984,8.3634 4.1975 12.5451c 0.9711,-0.3250 1.9421,-0.6499 2.9132 -0.9748c 2.0023,5.9843 4.0047,11.9686 6.0070 17.9530c -0.9711,0.3249 -1.9422,0.6498 -2.9132 0.9748c 1.3992,4.1817 2.7983,8.3634 4.1975 12.5451c 0.9711,-0.3249 1.9422,-0.6499 2.9133 -0.9748c 0.3919,1.1714 0.7839,2.3428 1.1758 3.5142c 16.6905,-5.5846 33.3810,-11.1691 50.0715 -16.7537c -0.3919,-1.1714 -0.7839,-2.3428 -1.1758 -3.5142c 0.9711,-0.3249 1.9422,-0.6499 2.9132 -0.9748c -1.3992,-4.1817 -2.7983,-8.3634 -4.1975 -12.5451c -0.9711,0.3249 -1.9422,0.6498 -2.9133 0.9748c -2.0023,-5.9843 -4.0046,-11.9687 -6.0070 -17.9530c 0.9711,-0.3250 1.9421,-0.6499 2.9132 -0.9748c -1.3992,-4.1817 -2.7983,-8.3634 -4.1975 -12.5451c -0.9710,0.3249 -1.9421,0.6498 -2.9132 0.9747c -0.3919,-1.1713 -0.7839,-2.3427 -1.1758 -3.5141c -16.6905,5.5845 -33.3810,11.1691 -50.0715 16.7537c 0.3919,1.1714 0.7839,2.3427 1.1758 3.5141c -0.9710,0.3250 -1.9421,0.6499 -2.9132 0.9748ZM 847.8630,836.1237 c 1.3992,4.1817 2.7983,8.3634 4.1975 12.5451c 0.9711,-0.3249 1.9422,-0.6498 2.9133 -0.9748c 2.0023,5.9843 4.0046,11.9687 6.0070 17.9530c -0.9710,0.3250 -1.9421,0.6499 -2.9132 0.9748c 1.3992,4.1817 2.7984,8.3634 4.1975 12.5451c 0.9711,-0.3250 1.9421,-0.6499 2.9132 -0.9748c 0.3919,1.1713 0.7839,2.3427 1.1758 3.5141c 16.6905,-5.5845 33.3810,-11.1691 50.0715 -16.7537c -0.3919,-1.1714 -0.7839,-2.3428 -1.1758 -3.5141c 0.9711,-0.3250 1.9421,-0.6499 2.9132 -0.9748c -1.3992,-4.1817 -2.7983,-8.3634 -4.1975 -12.5451c -0.9710,0.3250 -1.9421,0.6499 -2.9132 0.9748c -2.0023,-5.9843 -4.0046,-11.9686 -6.0070 -17.9530c 0.9711,-0.3249 1.9422,-0.6498 2.9133 -0.9748c -1.3992,-4.1817 -2.7984,-8.3634 -4.1975 -12.5451c -0.9711,0.3249 -1.9422,0.6499 -2.9132 0.9748c -0.3919,-1.1714 -0.7839,-2.3428 -1.1758 -3.5142c -16.6905,5.5846 -33.3810,11.1691 -50.0715 16.7537c 0.3919,1.1714 0.7839,2.3428 1.1758 3.5142c -0.9711,0.3249 -1.9422,0.6499 -2.9132 0.9748ZM 863.1955,655.6322 c 1.3992,4.1817 2.7984,8.3634 4.1975 12.5451c 0.9711,-0.3250 1.9421,-0.6499 2.9132 -0.9748c 2.0023,5.9843 4.0046,11.9686 6.0070 17.9530c -0.9711,0.3249 -1.9422,0.6498 -2.9132 0.9748c 1.3992,4.1817 2.7983,8.3634 4.1975 12.5451c 0.9711,-0.3249 1.9422,-0.6499 2.9133 -0.9748c 0.3919,1.1714 0.7839,2.3428 1.1758 3.5142c 16.6905,-5.5846 33.3810,-11.1691 50.0715 -16.7537c -0.3919,-1.1714 -0.7839,-2.3428 -1.1758 -3.5142c 0.9711,-0.3249 1.9422,-0.6498 2.9132 -0.9748c -1.3992,-4.1817 -2.7983,-8.3634 -4.1975 -12.5451c -0.9711,0.3249 -1.9422,0.6499 -2.9133 0.9748c -2.0023,-5.9843 -4.0046,-11.9686 -6.0070 -17.9530c 0.9711,-0.3249 1.9421,-0.6499 2.9132 -0.9748c -1.3992,-4.1817 -2.7984,-8.3634 -4.1975 -12.5451c -0.9710,0.3249 -1.9421,0.6498 -2.9132 0.9748c -0.3919,-1.1714 -0.7839,-2.3428 -1.1758 -3.5142c -16.6905,5.5845 -33.3810,11.1691 -50.0715 16.7537c 0.3919,1.1714 0.7839,2.3428 1.1758 3.5142c -0.9710,0.3249 -1.9421,0.6498 -2.9132 0.9747ZM 870.6489,904.2238 c 1.3992,4.1817 2.7984,8.3634 4.1975 12.5451c 0.9711,-0.3249 1.9422,-0.6499 2.9132 -0.9748c 2.0024,5.9843 4.0047,11.9686 6.0070 17.9530c -0.9711,0.3249 -1.9422,0.6499 -2.9132 0.9748c 1.3992,4.1817 2.7983,8.3634 4.1975 12.5451c 0.9710,-0.3249 1.9421,-0.6498 2.9132 -0.9748c 0.3919,1.1714 0.7839,2.3428 1.1758 3.5142c 16.6905,-5.5846 33.3810,-11.1691 50.0715 -16.7537c -0.3919,-1.1714 -0.7839,-2.3428 -1.1758 -3.5142c 0.9711,-0.3249 1.9422,-0.6498 2.9133 -0.9748c -1.3992,-4.1817 -2.7984,-8.3634 -4.1975 -12.5451c -0.9711,0.3249 -1.9422,0.6499 -2.9132 0.9748c -2.0024,-5.9843 -4.0047,-11.9686 -6.0070 -17.9530c 0.9711,-0.3249 1.9422,-0.6499 2.9132 -0.9748c -1.3992,-4.1817 -2.7983,-8.3634 -4.1975 -12.5451c -0.9711,0.3249 -1.9422,0.6498 -2.9133 0.9748c -0.3919,-1.1714 -0.7839,-2.3428 -1.1758 -3.5142c -16.6905,5.5845 -33.3810,11.1691 -50.0715 16.7537c 0.3919,1.1714 0.7839,2.3428 1.1758 3.5142c -0.9711,0.3249 -1.9422,0.6498 -2.9133 0.9747ZM 885.9815,723.7323 c 1.3992,4.1817 2.7983,8.3634 4.1975 12.5451c 0.9711,-0.3249 1.9422,-0.6498 2.9133 -0.9748c 2.0023,5.9843 4.0046,11.9687 6.0070 17.9530c -0.9710,0.3250 -1.9421,0.6499 -2.9132 0.9748c 1.3992,4.1817 2.7984,8.3634 4.1975 12.5451c 0.9711,-0.3250 1.9421,-0.6499 2.9132 -0.9748c 0.3919,1.1714 0.7839,2.3427 1.1758 3.5141c 16.6905,-5.5845 33.3810,-11.1691 50.0715 -16.7537c -0.3919,-1.1713 -0.7839,-2.3427 -1.1758 -3.5141c 0.9711,-0.3249 1.9421,-0.6499 2.9132 -0.9748c -1.3992,-4.1817 -2.7984,-8.3634 -4.1975 -12.5451c -0.9710,0.3249 -1.9421,0.6498 -2.9132 0.9748c -2.0023,-5.9843 -4.0046,-11.9687 -6.0070 -17.9530c 0.9711,-0.3250 1.9422,-0.6499 2.9133 -0.9748c -1.3992,-4.1817 -2.7984,-8.3634 -4.1975 -12.5451c -0.9711,0.3250 -1.9422,0.6499 -2.9132 0.9748c -0.3919,-1.1714 -0.7839,-2.3427 -1.1758 -3.5141c -16.6905,5.5845 -33.3810,11.1691 -50.0715 16.7537c 0.3919,1.1713 0.7839,2.3427 1.1758 3.5141c -0.9711,0.3249 -1.9422,0.6499 -2.9132 0.9748ZM 908.7674,791.8324 c 1.3992,4.1817 2.7984,8.3634 4.1975 12.5451c 0.9711,-0.3249 1.9422,-0.6499 2.9132 -0.9748c 2.0023,5.9843 4.0047,11.9686 6.0070 17.9530c -0.9711,0.3249 -1.9422,0.6499 -2.9132 0.9748c 1.3992,4.1817 2.7983,8.3634 4.1975 12.5451c 0.9710,-0.3249 1.9421,-0.6498 2.9132 -0.9748c 0.3919,1.1714 0.7839,2.3428 1.1758 3.5142c 16.6905,-5.5845 33.3810,-11.1691 50.0715 -16.7537c -0.3919,-1.1714 -0.7839,-2.3428 -1.1758 -3.5142c 0.9711,-0.3249 1.9422,-0.6498 2.9133 -0.9747c -1.3992,-4.1817 -2.7984,-8.3634 -4.1975 -12.5451c -0.9711,0.3250 -1.9422,0.6499 -2.9132 0.9748c -2.0024,-5.9843 -4.0047,-11.9686 -6.0070 -17.9530c 0.9711,-0.3249 1.9422,-0.6498 2.9132 -0.9748c -1.3992,-4.1817 -2.7983,-8.3634 -4.1975 -12.5451c -0.9710,0.3249 -1.9421,0.6499 -2.9132 0.9748c -0.3919,-1.1714 -0.7839,-2.3428 -1.1758 -3.5142c -16.6905,5.5846 -33.3810,11.1691 -50.0715 16.7537c 0.3919,1.1714 0.7839,2.3428 1.1758 3.5142c -0.9710,0.3249 -1.9421,0.6498 -2.9132 0.9748ZM 931.5534,859.9325 c 1.3992,4.1817 2.7983,8.3634 4.1975 12.5451c 0.9710,-0.3250 1.9421,-0.6499 2.9132 -0.9748c 2.0023,5.9843 4.0046,11.9686 6.0070 17.9530c -0.9710,0.3249 -1.9421,0.6498 -2.9132 0.9748c 1.3992,4.1817 2.7984,8.3634 4.1975 12.5451c 0.9711,-0.3249 1.9422,-0.6499 2.9132 -0.9748c 0.3919,1.1714 0.7839,2.3428 1.1758 3.5142c 16.6905,-5.5846 33.3810,-11.1691 50.0715 -16.7537c -0.3919,-1.1714 -0.7839,-2.3428 -1.1758 -3.5142c 0.9711,-0.3249 1.9422,-0.6499 2.9132 -0.9748c -1.3992,-4.1817 -2.7983,-8.3634 -4.1975 -12.5451c -0.9710,0.3249 -1.9421,0.6498 -2.9132 0.9748c -2.0023,-5.9843 -4.0046,-11.9687 -6.0070 -17.9530c 0.9710,-0.3250 1.9421,-0.6499 2.9132 -0.9748c -1.3992,-4.1817 -2.7984,-8.3634 -4.1975 -12.5451c -0.9711,0.3249 -1.9421,0.6498 -2.9132 0.9747c -0.3919,-1.1713 -0.7839,-2.3427 -1.1758 -3.5141c -16.6905,5.5845 -33.3810,11.1691 -50.0715 16.7537c 0.3919,1.1714 0.7839,2.3427 1.1758 3.5141c -0.9711,0.3250 -1.9421,0.6499 -2.9132 0.9748ZM 937.2919,650.7674 c 1.3992,4.1817 2.7984,8.3634 4.1975 12.5451c 0.9711,-0.3249 1.9422,-0.6499 2.9132 -0.9748c 2.0024,5.9843 4.0047,11.9686 6.0070 17.9530c -0.9711,0.3249 -1.9421,0.6499 -2.9132 0.9748c 1.3992,4.1817 2.7983,8.3634 4.1975 12.5451c 0.9710,-0.3249 1.9421,-0.6498 2.9132 -0.9748c 0.3919,1.1714 0.7839,2.3428 1.1758 3.5142c 16.6905,-5.5845 33.3810,-11.1691 50.0715 -16.7537c -0.3919,-1.1714 -0.7839,-2.3428 -1.1758 -3.5141c 0.9710,-0.3250 1.9421,-0.6499 2.9132 -0.9748c -1.3992,-4.1817 -2.7984,-8.3634 -4.1975 -12.5451c -0.9711,0.3250 -1.9421,0.6499 -2.9132 0.9748c -2.0023,-5.9843 -4.0047,-11.9686 -6.0070 -17.9530c 0.9711,-0.3249 1.9422,-0.6498 2.9132 -0.9748c -1.3992,-4.1817 -2.7983,-8.3634 -4.1975 -12.5451c -0.9711,0.3249 -1.9422,0.6499 -2.9133 0.9748c -0.3919,-1.1714 -0.7839,-2.3428 -1.1758 -3.5142c -16.6905,5.5846 -33.3810,11.1691 -50.0715 16.7537c 0.3919,1.1714 0.7839,2.3428 1.1758 3.5142c -0.9711,0.3249 -1.9422,0.6498 -2.9133 0.9748ZM 960.0779,718.8674 c 1.3992,4.1817 2.7984,8.3634 4.1975 12.5451c 0.9711,-0.3250 1.9421,-0.6499 2.9132 -0.9748c 2.0023,5.9843 4.0046,11.9686 6.0070 17.9530c -0.9711,0.3249 -1.9422,0.6498 -2.9133 0.9748c 1.3992,4.1817 2.7984,8.3634 4.1975 12.5451c 0.9711,-0.3249 1.9422,-0.6499 2.9132 -0.9748c 0.3919,1.1714 0.7839,2.3428 1.1758 3.5142c 16.6905,-5.5846 33.3810,-11.1691 50.0715 -16.7537c -0.3919,-1.1714 -0.7839,-2.3428 -1.1758 -3.5142c 0.9711,-0.3249 1.9422,-0.6499 2.9132 -0.9748c -1.3992,-4.1817 -2.7983,-8.3634 -4.1975 -12.5451c -0.9711,0.3249 -1.9422,0.6499 -2.9133 0.9748c -2.0023,-5.9843 -4.0046,-11.9687 -6.0070 -17.9530c 0.9710,-0.3249 1.9421,-0.6499 2.9132 -0.9748c -1.3992,-4.1817 -2.7984,-8.3634 -4.1975 -12.5451c -0.9711,0.3249 -1.9421,0.6498 -2.9132 0.9748c -0.3919,-1.1714 -0.7839,-2.3428 -1.1758 -3.5142c -16.6905,5.5845 -33.3810,11.1691 -50.0715 16.7537c 0.3919,1.1714 0.7839,2.3428 1.1758 3.5141c -0.9710,0.3250 -1.9421,0.6499 -2.9132 0.9748ZM 982.8639,786.9675 c 1.3992,4.1817 2.7983,8.3634 4.1975 12.5451c 0.9711,-0.3249 1.9422,-0.6498 2.9133 -0.9748c 2.0023,5.9843 4.0046,11.9687 6.0070 17.9530c -0.9710,0.3250 -1.9421,0.6499 -2.9132 0.9748c 1.3992,4.1817 2.7984,8.3634 4.1975 12.5451c 0.9711,-0.3250 1.9421,-0.6499 2.9132 -0.9748c 0.3919,1.1713 0.7839,2.3427 1.1758 3.5141c 16.6905,-5.5845 33.3810,-11.1691 50.0715 -16.7537c -0.3919,-1.1714 -0.7839,-2.3427 -1.1758 -3.5141c 0.9710,-0.3250 1.9421,-0.6499 2.9132 -0.9748c -1.3992,-4.1817 -2.7984,-8.3634 -4.1975 -12.5451c -0.9710,0.3250 -1.9421,0.6499 -2.9132 0.9748c -2.0023,-5.9843 -4.0046,-11.9686 -6.0070 -17.9530c 0.9711,-0.3249 1.9422,-0.6498 2.9133 -0.9748c -1.3992,-4.1817 -2.7984,-8.3634 -4.1975 -12.5451c -0.9711,0.3250 -1.9422,0.6499 -2.9132 0.9748c -0.3919,-1.1714 -0.7839,-2.3428 -1.1758 -3.5141c -16.6905,5.5845 -33.3810,11.1691 -50.0715 16.7536c 0.3919,1.1714 0.7839,2.3428 1.1758 3.5142c -0.9711,0.3249 -1.9422,0.6499 -2.9132 0.9748ZM 1005.6498,855.0676 c 1.3992,4.1817 2.7984,8.3634 4.1975 12.5451c 0.9711,-0.3249 1.9422,-0.6499 2.9132 -0.9748c 2.0023,5.9843 4.0047,11.9686 6.0070 17.9530c -0.9711,0.3249 -1.9422,0.6499 -2.9132 0.9748c 1.3992,4.1817 2.7983,8.3634 4.1975 12.5451c 0.9711,-0.3249 1.9422,-0.6498 2.9133 -0.9748c 0.3919,1.1714 0.7839,2.3428 1.1758 3.5142c 16.6905,-5.5845 33.3810,-11.1691 50.0715 -16.7537c -0.3919,-1.1714 -0.7839,-2.3428 -1.1758 -3.5142c 0.9711,-0.3249 1.9422,-0.6498 2.9133 -0.9748c -1.3992,-4.1817 -2.7984,-8.3634 -4.1975 -12.5451c -0.9711,0.3249 -1.9422,0.6499 -2.9132 0.9748c -2.0024,-5.9843 -4.0047,-11.9686 -6.0070 -17.9530c 0.9711,-0.3249 1.9421,-0.6499 2.9132 -0.9748c -1.3992,-4.1817 -2.7983,-8.3634 -4.1975 -12.5451c -0.9710,0.3249 -1.9421,0.6498 -2.9132 0.9748c -0.3919,-1.1714 -0.7839,-2.3428 -1.1758 -3.5142c -16.6905,5.5845 -33.3810,11.1691 -50.0715 16.7537c 0.3919,1.1714 0.7839,2.3428 1.1758 3.5142c -0.9710,0.3249 -1.9421,0.6498 -2.9132 0.9748ZM 1008.9898,638.7340 c 1.3992,4.1817 2.7984,8.3634 4.1975 12.5451c 0.9711,-0.3250 1.9421,-0.6499 2.9132 -0.9748c 2.0023,5.9843 4.0047,11.9686 6.0070 17.9530c -0.9711,0.3249 -1.9422,0.6498 -2.9132 0.9748c 1.3992,4.1817 2.7983,8.3634 4.1975 12.5451c 0.9711,-0.3249 1.9422,-0.6499 2.9132 -0.9748c 0.3919,1.1714 0.7839,2.3428 1.1758 3.5142c 16.6905,-5.5846 33.3810,-11.1691 50.0715 -16.7537c -0.3919,-1.1714 -0.7839,-2.3428 -1.1758 -3.5142c 0.9711,-0.3249 1.9422,-0.6498 2.9132 -0.9748c -1.3992,-4.1817 -2.7983,-8.3634 -4.1975 -12.5451c -0.9711,0.3249 -1.9422,0.6499 -2.9133 0.9748c -2.0023,-5.9843 -4.0046,-11.9686 -6.0070 -17.9530c 0.9711,-0.3249 1.9421,-0.6499 2.9132 -0.9748c -1.3992,-4.1817 -2.7983,-8.3634 -4.1975 -12.5451c -0.9710,0.3249 -1.9421,0.6498 -2.9132 0.9748c -0.3919,-1.1714 -0.7839,-2.3428 -1.1758 -3.5142c -16.6905,5.5845 -33.3810,11.1691 -50.0715 16.7537c 0.3919,1.1714 0.7839,2.3428 1.1758 3.5142c -0.9710,0.3249 -1.9421,0.6498 -2.9132 0.9747ZM 1031.7758,706.8341 c 1.3992,4.1817 2.7983,8.3634 4.1975 12.5451c 0.9711,-0.3249 1.9422,-0.6498 2.9133 -0.9748c 2.0023,5.9843 4.0046,11.9687 6.0070 17.9530c -0.9710,0.3250 -1.9421,0.6499 -2.9132 0.9748c 1.3992,4.1817 2.7984,8.3634 4.1975 12.5451c 0.9711,-0.3250 1.9421,-0.6499 2.9132 -0.9748c 0.3919,1.1714 0.7839,2.3427 1.1758 3.5141c 16.6905,-5.5845 33.3810,-11.1691 50.0715 -16.7537c -0.3919,-1.1713 -0.7839,-2.3427 -1.1758 -3.5141c 0.9711,-0.3249 1.9421,-0.6499 2.9132 -0.9748c -1.3992,-4.1817 -2.7983,-8.3634 -4.1975 -12.5451c -0.9710,0.3249 -1.9421,0.6498 -2.9132 0.9748c -2.0023,-5.9843 -4.0046,-11.9687 -6.0070 -17.9530c 0.9711,-0.3250 1.9422,-0.6499 2.9133 -0.9748c -1.3992,-4.1817 -2.7984,-8.3634 -4.1975 -12.5451c -0.9711,0.3250 -1.9422,0.6499 -2.9132 0.9748c -0.3919,-1.1714 -0.7839,-2.3427 -1.1758 -3.5141c -16.6905,5.5845 -33.3810,11.1691 -50.0715 16.7537c 0.3919,1.1713 0.7839,2.3427 1.1758 3.5141c -0.9711,0.3249 -1.9422,0.6499 -2.9132 0.9748ZM 1054.5617,774.9342 c 1.3992,4.1817 2.7984,8.3634 4.1975 12.5451c 0.9711,-0.3249 1.9422,-0.6499 2.9132 -0.9748c 2.0023,5.9843 4.0047,11.9686 6.0070 17.9530c -0.9711,0.3249 -1.9422,0.6499 -2.9132 0.9748c 1.3992,4.1817 2.7983,8.3634 4.1975 12.5451c 0.9711,-0.3249 1.9422,-0.6498 2.9133 -0.9748c 0.3919,1.1714 0.7839,2.3428 1.1758 3.5142c 16.6905,-5.5845 33.3810,-11.1691 50.0715 -16.7537c -0.3919,-1.1714 -0.7839,-2.3428 -1.1758 -3.5142c 0.9711,-0.3249 1.9422,-0.6498 2.9133 -0.9747c -1.3992,-4.1817 -2.7984,-8.3634 -4.1975 -12.5451c -0.9711,0.3250 -1.9422,0.6499 -2.9132 0.9748c -2.0024,-5.9843 -4.0047,-11.9686 -6.0070 -17.9530c 0.9711,-0.3249 1.9422,-0.6498 2.9132 -0.9748c -1.3992,-4.1817 -2.7983,-8.3634 -4.1975 -12.5451c -0.9710,0.3249 -1.9421,0.6499 -2.9132 0.9748c -0.3919,-1.1714 -0.7839,-2.3428 -1.1758 -3.5142c -16.6905,5.5846 -33.3810,11.1691 -50.0715 16.7537c 0.3919,1.1714 0.7839,2.3428 1.1758 3.5142c -0.9711,0.3249 -1.9422,0.6498 -2.9133 0.9748ZM 1077.3477,843.0343 c 1.3992,4.1817 2.7983,8.3634 4.1975 12.5451c 0.9710,-0.3250 1.9421,-0.6499 2.9132 -0.9748c 2.0023,5.9843 4.0046,11.9686 6.0070 17.9530c -0.9711,0.3249 -1.9422,0.6498 -2.9133 0.9748c 1.3992,4.1817 2.7984,8.3634 4.1975 12.5451c 0.9711,-0.3249 1.9422,-0.6499 2.9132 -0.9748c 0.3919,1.1714 0.7839,2.3428 1.1758 3.5141c 16.6905,-5.5845 33.3810,-11.1691 50.0715 -16.7536c -0.3919,-1.1714 -0.7839,-2.3428 -1.1758 -3.5142c 0.9711,-0.3249 1.9422,-0.6499 2.9132 -0.9748c -1.3992,-4.1817 -2.7983,-8.3634 -4.1975 -12.5451c -0.9710,0.3249 -1.9421,0.6498 -2.9132 0.9748c -2.0023,-5.9843 -4.0046,-11.9687 -6.0070 -17.9530c 0.9710,-0.3250 1.9421,-0.6499 2.9132 -0.9748c -1.3992,-4.1817 -2.7984,-8.3634 -4.1975 -12.5451c -0.9711,0.3249 -1.9422,0.6498 -2.9132 0.9747c -0.3919,-1.1713 -0.7839,-2.3427 -1.1758 -3.5141c -16.6905,5.5845 -33.3810,11.1691 -50.0715 16.7537c 0.3919,1.1714 0.7839,2.3427 1.1758 3.5141c -0.9711,0.3250 -1.9421,0.6499 -2.9132 0.9748ZM 1078.2891,619.5323 c 1.3992,4.1817 2.7984,8.3634 4.1975 12.5451c 0.9711,-0.3249 1.9421,-0.6499 2.9132 -0.9748c 2.0023,5.9843 4.0047,11.9686 6.0070 17.9530c -0.9711,0.3249 -1.9422,0.6499 -2.9132 0.9748c 1.3992,4.1817 2.7983,8.3634 4.1975 12.5451c 0.9711,-0.3249 1.9422,-0.6498 2.9132 -0.9748c 0.3919,1.1714 0.7839,2.3428 1.1758 3.5142c 16.6905,-5.5845 33.3810,-11.1691 50.0715 -16.7537c -0.3919,-1.1714 -0.7839,-2.3428 -1.1758 -3.5142c 0.9711,-0.3249 1.9422,-0.6498 2.9132 -0.9748c -1.3992,-4.1817 -2.7983,-8.3634 -4.1975 -12.5451c -0.9711,0.3249 -1.9422,0.6499 -2.9133 0.9748c -2.0023,-5.9843 -4.0046,-11.9686 -6.0070 -17.9530c 0.9710,-0.3249 1.9421,-0.6499 2.9132 -0.9748c -1.3992,-4.1817 -2.7984,-8.3634 -4.1975 -12.5451c -0.9711,0.3249 -1.9421,0.6498 -2.9132 0.9748c -0.3919,-1.1714 -0.7839,-2.3428 -1.1758 -3.5142c -16.6905,5.5846 -33.3810,11.1691 -50.0715 16.7537c 0.3919,1.1714 0.7839,2.3428 1.1758 3.5142c -0.9710,0.3249 -1.9421,0.6498 -2.9132 0.9748ZM 1101.0751,687.6323 c 1.3992,4.1817 2.7983,8.3634 4.1975 12.5451c 0.9711,-0.3250 1.9422,-0.6499 2.9133 -0.9748c 2.0023,5.9843 4.0046,11.9686 6.0070 17.9530c -0.9710,0.3249 -1.9421,0.6498 -2.9132 0.9748c 1.3992,4.1817 2.7984,8.3634 4.1975 12.5451c 0.9711,-0.3249 1.9421,-0.6499 2.9132 -0.9748c 0.3919,1.1714 0.7839,2.3428 1.1758 3.5141c 16.6905,-5.5845 33.3810,-11.1691 50.0715 -16.7536c -0.3919,-1.1714 -0.7839,-2.3428 -1.1758 -3.5142c 0.9710,-0.3249 1.9421,-0.6499 2.9132 -0.9748c -1.3992,-4.1817 -2.7983,-8.3634 -4.1975 -12.5451c -0.9711,0.3249 -1.9421,0.6498 -2.9132 0.9748c -2.0023,-5.9843 -4.0046,-11.9687 -6.0070 -17.9530c 0.9711,-0.3250 1.9422,-0.6499 2.9133 -0.9748c -1.3992,-4.1817 -2.7984,-8.3634 -4.1975 -12.5451c -0.9711,0.3250 -1.9422,0.6499 -2.9132 0.9748c -0.3919,-1.1713 -0.7839,-2.3427 -1.1758 -3.5141c -16.6905,5.5845 -33.3810,11.1691 -50.0715 16.7537c 0.3919,1.1714 0.7839,2.3427 1.1758 3.5141c -0.9711,0.3250 -1.9422,0.6499 -2.9132 0.9748ZM 1123.8611,755.7325 c 1.3992,4.1817 2.7984,8.3634 4.1975 12.5451c 0.9711,-0.3249 1.9422,-0.6499 2.9132 -0.9748c 2.0023,5.9843 4.0047,11.9687 6.0070 17.9530c -0.9711,0.3250 -1.9422,0.6499 -2.9132 0.9748c 1.3992,4.1817 2.7983,8.3634 4.1975 12.5451c 0.9711,-0.3249 1.9422,-0.6498 2.9133 -0.9747c 0.3919,1.1713 0.7839,2.3427 1.1758 3.5141c 16.6905,-5.5845 33.3810,-11.1691 50.0715 -16.7537c -0.3919,-1.1714 -0.7839,-2.3428 -1.1758 -3.5141c 0.9711,-0.3250 1.9422,-0.6499 2.9133 -0.9748c -1.3992,-4.1817 -2.7984,-8.3634 -4.1975 -12.5451c -0.9711,0.3250 -1.9422,0.6499 -2.9132 0.9748c -2.0024,-5.9843 -4.0047,-11.9686 -6.0070 -17.9530c 0.9711,-0.3249 1.9421,-0.6498 2.9132 -0.9748c -1.3992,-4.1817 -2.7983,-8.3634 -4.1975 -12.5451c -0.9710,0.3249 -1.9421,0.6499 -2.9132 0.9748c -0.3919,-1.1714 -0.7839,-2.3428 -1.1758 -3.5142c -16.6905,5.5846 -33.3810,11.1691 -50.0715 16.7537c 0.3919,1.1714 0.7839,2.3428 1.1758 3.5142c -0.9710,0.3249 -1.9421,0.6499 -2.9132 0.9748ZM 1146.3338,577.5857 c 0.0000,3.1311 2.5382,5.6693 5.6693 5.6693c 3.1310,-0.0000 5.6693,-2.5382 5.6693 -5.6693c 0.0000,-3.1310 -2.5382,-5.6693 -5.6693 -5.6693c -3.1311,-0.0000 -5.6693,2.5382 -5.6693 5.6693ZM 1146.6471,823.8325 c 1.3992,4.1817 2.7983,8.3634 4.1975 12.5451c 0.9710,-0.3250 1.9421,-0.6499 2.9132 -0.9748c 2.0023,5.9843 4.0046,11.9686 6.0070 17.9530c -0.9711,0.3249 -1.9422,0.6498 -2.9133 0.9748c 1.3992,4.1817 2.7984,8.3634 4.1975 12.5451c 0.9711,-0.3249 1.9422,-0.6499 2.9132 -0.9748c 0.3919,1.1714 0.7839,2.3428 1.1758 3.5142c 16.6905,-5.5846 33.3810,-11.1691 50.0715 -16.7537c -0.3919,-1.1714 -0.7839,-2.3428 -1.1758 -3.5142c 0.9711,-0.3249 1.9421,-0.6498 2.9132 -0.9748c -1.3992,-4.1817 -2.7983,-8.3634 -4.1975 -12.5451c -0.9710,0.3249 -1.9421,0.6499 -2.9132 0.9748c -2.0023,-5.9843 -4.0046,-11.9686 -6.0070 -17.9530c 0.9710,-0.3249 1.9421,-0.6499 2.9132 -0.9748c -1.3992,-4.1817 -2.7984,-8.3634 -4.1975 -12.5451c -0.9711,0.3249 -1.9422,0.6498 -2.9132 0.9748c -0.3919,-1.1714 -0.7839,-2.3428 -1.1758 -3.5142c -16.6905,5.5845 -33.3810,11.1691 -50.0715 16.7537c 0.3919,1.1714 0.7839,2.3428 1.1758 3.5141c -0.9711,0.3250 -1.9421,0.6499 -2.9132 0.9748ZM 1241.8233,855.4145 c 0.0000,3.1311 2.5382,5.6693 5.6693 5.6693c 3.1311,-0.0000 5.6693,-2.5382 5.6693 -5.6693c 0.0000,-3.1310 -2.5382,-5.6693 -5.6693 -5.6693c -3.1310,-0.0000 -5.6693,2.5382 -5.6693 5.6693Z"/></g><g stroke-linejoin="miter" stroke-opacity="1.0" fill-opacity="0.5" stroke="rgb(0,0,0)" stroke-width="0.37795275590551186" fill="rgb(255,0,0)" stroke-linecap="butt" stroke-miterlimit="10.0"><path d="M 537.5429,276.6628 c 0.0000,-17.3632 4.5033,-33.6747 12.4055 -47.8301c 2.4845,-0.0868 4.9690,-0.1735 7.4536 -0.2603c -8.6001,13.9922 -13.5599,30.4621 -13.5599 48.0904c 0.0000,0.3309 0.0017,0.6614 0.0052 0.9915c -2.0456,1.5982 -4.0913,3.1965 -6.1369 4.7947c -0.1112,-1.9146 -0.1675,-3.8438 -0.1675 -5.7862ZM 538.2402,288.4302 c 1.9592,-1.5307 3.9185,-3.0614 5.8777 -4.5922c 1.3732,17.7950 7.8109,34.1708 17.8738 47.6884c -0.7149,2.4931 -1.4298,4.9862 -2.1447 7.4793c -11.5922,-14.1084 -19.3308,-31.5032 -21.6068 -50.5755ZM 550.1950,304.4810 c 14.3395,-10.4183 28.6790,-20.8365 43.0184 -31.2547c 3.6876,-1.1982 7.3752,-2.3964 11.0629 -3.5945c 2.5146,-0.8170 5.0291,-1.6341 7.5437 -2.4511c 0.0000,2.4212 0.0000,4.8425 0.0000 7.2637c 0.0000,3.9002 0.0000,7.8004 0.0000 11.7006c -0.8118,-0.2638 -1.6235,-0.5275 -2.4353 -0.7913c -0.8009,-2.4648 -1.6017,-4.9296 -2.4026 -7.3944c -6.6982,4.8666 -13.3965,9.7331 -20.0947 14.5996c 6.7370,-0.0000 13.4741,-0.0000 20.2111 -0.0000c 1.5738,0.5114 3.1476,1.0227 4.7215 1.5341c 0.0000,3.4627 0.0000,6.9253 0.0000 10.3880c -20.5417,-0.0000 -41.0833,-0.0000 -61.6250 0.0000ZM 553.0338,223.6825 c 10.0451,-15.6621 24.4137,-28.2861 41.4211 -36.1874c 2.0592,1.3890 4.1184,2.7779 6.1777 4.1669c -16.0777,6.6613 -29.8561,17.7513 -39.8137 31.7486c -2.5950,0.0906 -5.1901,0.1812 -7.7851 0.2719ZM 563.7942,343.5228 c 0.6846,-2.3876 1.3693,-4.7751 2.0539 -7.1627c 11.1072,13.0047 25.7767,22.8750 42.4979 28.1003c 0.8873,2.4377 1.7745,4.8755 2.6618 7.3132c -18.3833,-4.7805 -34.6735,-14.7499 -47.2136 -28.2508ZM 582.8973,203.8338 c 14.3395,10.4182 28.6790,20.8365 43.0184 31.2547c 2.2791,3.1369 4.5582,6.2738 6.8372 9.4106c 1.5541,2.1390 3.1082,4.2780 4.6622 6.4170c -2.3027,0.7482 -4.6055,1.4964 -6.9082 2.2446c -3.7093,1.2052 -7.4186,2.4105 -11.1279 3.6157c 0.0000,-0.8535 0.0000,-1.7071 0.0000 -2.5606c 2.0967,-1.5233 4.1934,-3.0467 6.2901 -4.5700c -6.6982,-4.8665 -13.3965,-9.7331 -20.0947 -14.5996c 2.0819,6.4073 4.1637,12.8146 6.2456 19.2219c 0.0000,1.6548 0.0000,3.3096 0.0000 4.9645c -3.2932,1.0700 -6.5864,2.1400 -9.8796 3.2101c -6.3477,-19.5363 -12.6955,-39.0726 -19.0432 -58.6089ZM 599.9695,185.1362 c 11.1045,-4.3518 23.1938,-6.7411 35.8412 -6.7411c 6.4845,-0.0000 12.8223,0.6281 18.9560 1.8267c 0.8493,2.3334 1.6986,4.6667 2.5478 7.0001c -6.8983,-1.6525 -14.0989,-2.5276 -21.5038 -2.5276c -10.2765,-0.0000 -20.1594,1.6855 -29.3872 4.7951c -2.1513,-1.4511 -4.3027,-2.9022 -6.4540 -4.3533ZM 614.3069,366.1037 c 6.8983,1.6525 14.0989,2.5276 21.5038 2.5276c 10.2765,-0.0000 20.1594,-1.6855 29.3872 -4.7951c 2.1513,1.4511 4.3027,2.9022 6.4540 4.3533c -11.1045,4.3518 -23.1938,6.7411 -35.8412 6.7411c -6.4845,-0.0000 -12.8223,-0.6281 -18.9560 -1.8267c -0.8493,-2.3334 -1.6985,-4.6667 -2.5478 -7.0001ZM 619.3791,264.7246 c 3.5089,-1.1401 7.0179,-2.2802 10.5268 -3.4204c -3.5089,2.5494 -7.0179,5.0988 -10.5268 7.6482c 0.0000,-1.4093 0.0000,-2.8185 -0.0000 -4.2278ZM 619.3791,277.5325 c 1.3403,4.1250 2.6806,8.2500 4.0209 12.3750c -1.3403,-0.4355 -2.6806,-0.8710 -4.0209 -1.3065c 0.0000,-3.6895 0.0000,-7.3790 -0.0000 -11.0685ZM 619.3791,296.5491 c 2.3027,0.7482 4.6055,1.4964 6.9082 2.2446c 3.7093,1.2052 7.4186,2.4105 11.1280 3.6157c -0.5017,0.6905 -1.0034,1.3811 -1.5051 2.0716c -2.5916,-0.0000 -5.1833,-0.0000 -7.7749 -0.0000c 2.5585,7.8742 5.1170,15.7485 7.6755 23.6227c 2.0819,-6.4073 4.1637,-12.8146 6.2456 -19.2219c 0.9727,-1.3388 1.9454,-2.6776 2.9180 -4.0163c 3.2932,1.0700 6.5864,2.1400 9.8796 3.2100c -6.3477,19.5363 -12.6955,39.0726 -19.0432 58.6089c -5.4772,-16.8571 -10.9544,-33.7142 -16.4316 -50.5712c 0.0000,-3.8774 0.0000,-7.7548 0.0000 -11.6322c 0.0000,-2.6440 0.0000,-5.2879 -0.0000 -7.9319ZM 631.5602,292.5589 c 4.3373,-0.0000 8.6746,-0.0000 13.0118 -0.0000c -0.8283,1.1401 -1.6567,2.2802 -2.4850 3.4204c -3.5089,-1.1401 -7.0179,-2.2802 -10.5268 -3.4204ZM 638.0661,258.6528 c 1.3403,-0.4355 2.6806,-0.8710 4.0209 -1.3065c 2.1686,2.9849 4.3373,5.9698 6.5059 8.9546c -3.5089,-2.5494 -7.0179,-5.0988 -10.5268 -7.6482ZM 638.8684,240.0561 c 16.6186,-12.0741 33.2371,-24.1482 49.8557 -36.2223c -5.4772,16.8571 -10.9544,33.7141 -16.4316 50.5712c -2.2791,3.1369 -4.5582,6.2738 -6.8373 9.4107c -1.5541,2.1390 -3.1082,4.2780 -4.6623 6.4170c -1.4232,-1.9588 -2.8463,-3.9176 -4.2695 -5.8764c -2.2925,-3.1553 -4.5850,-6.3107 -6.8775 -9.4660c 0.8118,-0.2638 1.6235,-0.5275 2.4353 -0.7913c 2.0967,1.5233 4.1934,3.0467 6.2901 4.5700c 2.5585,-7.8742 5.1170,-15.7485 7.6755 -23.6227c -5.4504,3.9599 -10.9007,7.9198 -16.3511 11.8798c -1.5738,0.5114 -3.1477,1.0227 -4.7215 1.5341c -2.0353,-2.8013 -4.0706,-5.6027 -6.1059 -8.4041ZM 649.6153,285.6174 c 1.3403,-4.1250 2.6806,-8.2500 4.0209 -12.3750c 0.8283,1.1401 1.6567,2.2802 2.4850 3.4204c -2.1686,2.9849 -4.3373,5.9698 -6.5059 8.9546ZM 649.6460,298.4354 c 1.4232,-1.9588 2.8463,-3.9176 4.2695 -5.8764c 2.2925,-3.1553 4.5850,-6.3107 6.8775 -9.4660c 0.5017,0.6905 1.0034,1.3811 1.5051 2.0716c -0.8009,2.4648 -1.6017,4.9296 -2.4026 7.3944c 8.2795,-0.0000 16.5589,-0.0000 24.8384 -0.0000c -5.4504,-3.9599 -10.9007,-7.9199 -16.3511 -11.8798c -0.9727,-1.3388 -1.9454,-2.6776 -2.9180 -4.0163c 2.0353,-2.8014 4.0706,-5.6027 6.1059 -8.4041c 16.6186,12.0741 33.2371,24.1482 49.8557 36.2223c -17.7246,-0.0000 -35.4491,-0.0000 -53.1737 -0.0000c -3.6876,-1.1982 -7.3753,-2.3964 -11.0629 -3.5946c -2.5146,-0.8170 -5.0291,-1.6341 -7.5437 -2.4511ZM 660.6135,181.5520 c 18.3833,4.7805 34.6735,14.7499 47.2136 28.2508c -0.6846,2.3876 -1.3692,4.7751 -2.0539 7.1627c -11.1072,-13.0047 -25.7767,-22.8750 -42.4979 -28.1003c -0.8873,-2.4377 -1.7745,-4.8755 -2.6618 -7.3132ZM 670.9887,361.6636 c 16.0777,-6.6613 29.8561,-17.7513 39.8137 -31.7486c 2.5950,-0.0906 5.1901,-0.1812 7.7851 -0.2719c -10.0451,15.6621 -24.4137,28.2861 -41.4211 36.1874c -2.0592,-1.3890 -4.1184,-2.7779 -6.1777 -4.1669ZM 709.6296,221.7992 c 0.7149,-2.4931 1.4298,-4.9862 2.1447 -7.4793c 11.5922,14.1084 19.3308,31.5032 21.6068 50.5755c -1.9592,1.5307 -3.9185,3.0614 -5.8777 4.5922c -1.3732,-17.7950 -7.8109,-34.1708 -17.8738 -47.6884ZM 714.2193,324.7532 c 8.6001,-13.9922 13.5599,-30.4621 13.5599 -48.0904c 0.0000,-0.3309 -0.0017,-0.6614 -0.0052 -0.9915c 2.0456,-1.5982 4.0913,-3.1965 6.1369 -4.7947c 0.1112,1.9146 0.1675,3.8438 0.1675 5.7862c 0.0000,17.3632 -4.5033,33.6747 -12.4055 47.8301c -2.4845,0.0868 -4.9690,0.1735 -7.4536 0.2603ZM 3.9685,305.7335 c -0.0000,6.2119 3.5540,12.0917 9.4613 14.8453c 154.7613,72.1395 309.5227,144.2789 464.2840 216.4184c 2.1669,1.0101 4.5287,1.5335 6.9195 1.5335c 50.3925,-0.0000 100.7849,-0.0000 151.1774 0.0000c 50.3925,-0.0000 100.7849,-0.0000 151.1774 0.0000c 2.3908,-0.0000 4.7526,-0.5234 6.9195 -1.5335c 154.7613,-72.1395 309.5227,-144.2789 464.2840 -216.4184c 5.9073,-2.7536 9.4613,-8.6334 9.4613 -14.8453c 0.0000,-1.7263 -0.2744,-3.4783 -0.8492 -5.1959c -31.8298,-95.1293 -63.6596,-190.2586 -95.4894 -285.3879c -2.2347,-6.6788 -8.4889,-11.1811 -15.5316 -11.1811c -91.4859,-0.0000 -182.9718,-0.0000 -274.4577 0.0000c -3.6793,-0.0000 -7.2513,1.2388 -10.1405 3.5169c -64.7386,51.0442 -146.5341,81.5225 -235.3737 81.5225c -88.8396,-0.0000 -170.6351,-30.4783 -235.3737 -81.5225c -2.8892,-2.2780 -6.4613,-3.5169 -10.1405 -3.5169c -91.4859,-0.0000 -182.9719,-0.0000 -274.4577 0.0000c -7.0427,-0.0000 -13.2969,4.5023 -15.5316 11.1811c -31.8298,95.1293 -63.6597,190.2586 -95.4894 285.3879c -0.5747,1.7176 -0.8492,3.4696 -0.8492 5.1959ZM 18.4595,301.9548 c 0.0000,-3.1310 2.5382,-5.6693 5.6693 -5.6693c 3.1310,-0.0000 5.6693,2.5382 5.6693 5.6693c 0.0000,3.1311 -2.5382,5.6693 -5.6693 5.6693c -3.1311,-0.0000 -5.6693,-2.5382 -5.6693 -5.6693ZM 38.8786,306.0589 c -0.0000,-0.3976 0.0632,-0.8020 0.1963 -1.1998c 7.5953,-22.7001 15.1907,-45.4001 22.7860 -68.1001c 0.2878,-0.8602 0.5756,-1.7204 0.8634 -2.5806c 7.3071,-21.8386 14.6142,-43.6773 21.9214 -65.5159c 0.0004,-0.0012 0.0008,-0.0024 0.0012 -0.0036c 0.2879,-0.8602 0.5757,-1.7204 0.8635 -2.5806c 7.3071,-21.8387 14.6143,-43.6774 21.9214 -65.5161c 0.0004,-0.0011 0.0007,-0.0022 0.0011 -0.0033c 0.2878,-0.8602 0.5756,-1.7205 0.8635 -2.5806c 7.5953,-22.7001 15.1906,-45.4001 22.7859 -68.1001c 0.6623,-1.9795 2.8040,-3.0473 4.7835 -2.3849c 21.5053,7.1956 43.0106,14.3911 64.5158 21.5867c 0.6623,-1.9795 2.8040,-3.0473 4.7835 -2.3850c 21.5053,7.1956 43.0106,14.3912 64.5159 21.5867c 0.7995,-2.3895 1.5990,-4.7790 2.3985 -7.1685c 0.6623,-1.9795 2.8040,-3.0473 4.7835 -2.3849c 21.5053,7.1956 43.0106,14.3911 64.5159 21.5867c 1.5990,-4.7790 3.1980,-9.5579 4.7970 -14.3369c 0.6623,-1.9795 2.8040,-3.0473 4.7835 -2.3850c 23.5603,7.8832 47.1205,15.7663 70.6807 23.6495c 1.5817,0.5292 2.5813,2.0029 2.5813 3.5837c 0.0000,0.3976 -0.0632,0.8020 -0.1963 1.1998c -1.9988,5.9737 -3.9976,11.9474 -5.9963 17.9211c 21.5053,7.1956 43.0106,14.3911 64.5159 21.5867c 1.5817,0.5292 2.5813,2.0029 2.5813 3.5837c 0.0000,0.3976 -0.0632,0.8020 -0.1963 1.1998c -1.5990,4.7790 -3.1980,9.5579 -4.7970 14.3369c 21.5053,7.1956 43.0106,14.3911 64.5159 21.5867c 1.5817,0.5292 2.5813,2.0029 2.5813 3.5837c 0.0000,0.3976 -0.0632,0.8019 -0.1963 1.1998c -7.5953,22.7000 -15.1906,45.4001 -22.7860 68.1001c -0.2878,0.8602 -0.5756,1.7205 -0.8634 2.5807c -0.0006,0.0018 -0.0013,0.0037 -0.0019 0.0055c -7.3069,21.8380 -14.6138,43.6760 -21.9207 65.5140c -0.2879,0.8602 -0.5757,1.7204 -0.8635 2.5806c -3.1101,9.2951 -6.2202,18.5901 -9.3303 27.8852c 21.5053,7.1956 43.0106,14.3912 64.5159 21.5867c 1.5817,0.5292 2.5813,2.0029 2.5813 3.5837c 0.0000,0.3976 -0.0632,0.8020 -0.1963 1.1998c -3.3979,10.1553 -6.7958,20.3105 -10.1937 30.4658c 21.5053,7.1956 43.0106,14.3912 64.5159 21.5867c 1.5817,0.5292 2.5813,2.0029 2.5813 3.5837c 0.0000,0.3976 -0.0632,0.8019 -0.1963 1.1998c -7.8831,23.5602 -15.7662,47.1205 -23.6494 70.6807c -0.6623,1.9795 -2.8040,3.0473 -4.7835 2.3850c -21.5053,-7.1956 -43.0106,-14.3911 -64.5159 -21.5867c -3.3979,10.1552 -6.7958,20.3105 -10.1937 30.4658c -0.6623,1.9795 -2.8040,3.0473 -4.7835 2.3850c -23.5602,-7.8832 -47.1205,-15.7663 -70.6807 -23.6495c -1.5817,-0.5292 -2.5813,-2.0029 -2.5813 -3.5837c 0.0000,-0.3976 0.0632,-0.8020 0.1963 -1.1998c 3.3979,-10.1553 6.7958,-20.3106 10.1937 -30.4659c -21.5053,-7.1956 -43.0106,-14.3911 -64.5159 -21.5867c -1.5817,-0.5292 -2.5813,-2.0029 -2.5813 -3.5837c 0.0000,-0.3976 0.0632,-0.8019 0.1963 -1.1998c 1.5990,-4.7790 3.1980,-9.5579 4.7971 -14.3369c -21.5053,-7.1956 -43.0106,-14.3911 -64.5159 -21.5867c -1.5817,-0.5292 -2.5813,-2.0029 -2.5813 -3.5837c 0.0000,-0.3976 0.0632,-0.8020 0.1963 -1.1998c 1.9987,-5.9737 3.9975,-11.9474 5.9963 -17.9211c -19.4503,-6.5080 -38.9007,-13.0160 -58.3510 -19.5240c -1.5990,4.7790 -3.1980,9.5579 -4.7970 14.3369c -0.6623,1.9795 -2.8040,3.0473 -4.7835 2.3849c -21.5053,-7.1956 -43.0106,-14.3911 -64.5159 -21.5867c -0.7995,2.3895 -1.5990,4.7790 -2.3985 7.1685c -0.6623,1.9795 -2.8040,3.0473 -4.7835 2.3849c -21.5053,-7.1956 -43.0106,-14.3911 -64.5159 -21.5867c -0.6623,1.9795 -2.8040,3.0473 -4.7835 2.3849c -23.5602,-7.8831 -47.1205,-15.7663 -70.6807 -23.6494c -1.5817,-0.5292 -2.5813,-2.0029 -2.5813 -3.5837ZM 113.9489,24.1260 c 0.0000,-3.1310 2.5382,-5.6693 5.6693 -5.6693c 3.1311,-0.0000 5.6693,2.5382 5.6693 5.6693c 0.0000,3.1311 -2.5382,5.6693 -5.6693 5.6693c -3.1310,-0.0000 -5.6693,-2.5382 -5.6693 -5.6693ZM 478.9640,518.3731 c 0.0000,-3.1310 2.5382,-5.6693 5.6693 -5.6693c 3.1310,-0.0000 5.6693,2.5382 5.6693 5.6693c 0.0000,3.1311 -2.5382,5.6693 -5.6693 5.6693c -3.1311,-0.0000 -5.6693,-2.5382 -5.6693 -5.6693ZM 573.4484,99.7165 c 0.0000,-3.1310 2.5382,-5.6693 5.6693 -5.6693c 3.1311,-0.0000 5.6693,2.5382 5.6693 5.6693c 0.0000,3.1311 -2.5382,5.6693 -5.6693 5.6693c -3.1310,-0.0000 -5.6693,-2.5382 -5.6693 -5.6693ZM 656.5493,425.6969 c -0.0000,-1.5808 0.9996,-3.0545 2.5813 -3.5837c 21.5053,-7.1956 43.0106,-14.3911 64.5159 -21.5867c -3.3979,-10.1553 -6.7958,-20.3105 -10.1937 -30.4658c -0.1331,-0.3978 -0.1963,-0.8022 -0.1963 -1.1998c 0.0000,-1.5808 0.9996,-3.0545 2.5813 -3.5837c 21.5053,-7.1956 43.0106,-14.3912 64.5159 -21.5867c -3.1101,-9.2951 -6.2202,-18.5901 -9.3303 -27.8852c -0.2878,-0.8602 -0.5756,-1.7204 -0.8635 -2.5806c -0.0004,-0.0011 -0.0007,-0.0022 -0.0011 -0.0033c -7.3071,-21.8387 -14.6143,-43.6774 -21.9214 -65.5161c -0.2878,-0.8602 -0.5756,-1.7205 -0.8634 -2.5807c -7.5954,-22.7000 -15.1907,-45.4001 -22.7860 -68.1001c -0.1331,-0.3978 -0.1963,-0.8022 -0.1963 -1.1998c 0.0000,-1.5808 0.9996,-3.0545 2.5813 -3.5837c 21.5053,-7.1956 43.0106,-14.3912 64.5159 -21.5867c -1.5990,-4.7789 -3.1980,-9.5579 -4.7970 -14.3369c -0.1331,-0.3978 -0.1963,-0.8021 -0.1963 -1.1998c 0.0000,-1.5808 0.9996,-3.0545 2.5813 -3.5837c 21.5053,-7.1956 43.0106,-14.3911 64.5159 -21.5867c -1.9987,-5.9737 -3.9975,-11.9474 -5.9963 -17.9211c -0.1331,-0.3978 -0.1963,-0.8021 -0.1963 -1.1998c 0.0000,-1.5808 0.9996,-3.0545 2.5813 -3.5837c 23.5602,-7.8831 47.1205,-15.7663 70.6807 -23.6495c 1.9795,-0.6623 4.1211,0.4055 4.7835 2.3850c 1.5990,4.7790 3.1980,9.5579 4.7970 14.3369c 21.5053,-7.1956 43.0106,-14.3911 64.5159 -21.5867c 1.9795,-0.6623 4.1211,0.4055 4.7835 2.3849c 0.7995,2.3895 1.5990,4.7790 2.3985 7.1685c 21.5053,-7.1956 43.0106,-14.3911 64.5159 -21.5867c 1.9795,-0.6623 4.1211,0.4055 4.7835 2.3850c 21.5053,-7.1956 43.0106,-14.3911 64.5158 -21.5867c 1.9795,-0.6623 4.1212,0.4054 4.7835 2.3849c 7.5953,22.7001 15.1906,45.4001 22.7859 68.1001c 0.2879,0.8602 0.5757,1.7204 0.8635 2.5806c 7.3075,21.8398 14.6150,43.6797 21.9225 65.5194c 0.2878,0.8602 0.5756,1.7205 0.8635 2.5806c 7.3070,21.8383 14.6140,43.6767 21.9210 65.5150c 0.0005,0.0015 0.0010,0.0030 0.0015 0.0045c 0.2878,0.8602 0.5756,1.7204 0.8634 2.5806c 7.5953,22.7001 15.1907,45.4001 22.7860 68.1001c 0.1331,0.3978 0.1963,0.8021 0.1963 1.1998c 0.0000,1.5808 -0.9996,3.0545 -2.5813 3.5837c -23.5602,7.8831 -47.1205,15.7663 -70.6807 23.6494c -1.9795,0.6623 -4.1212,-0.4055 -4.7835 -2.3849c -21.5053,7.1956 -43.0106,14.3911 -64.5159 21.5867c -1.9795,0.6623 -4.1212,-0.4055 -4.7835 -2.3849c -0.7995,-2.3895 -1.5990,-4.7790 -2.3985 -7.1685c -21.5053,7.1956 -43.0106,14.3911 -64.5159 21.5867c -1.9795,0.6623 -4.1211,-0.4054 -4.7835 -2.3849c -1.5990,-4.7790 -3.1980,-9.5579 -4.7970 -14.3369c -19.4503,6.5080 -38.9007,13.0160 -58.3510 19.5240c 1.9987,5.9737 3.9975,11.9474 5.9963 17.9211c 0.1331,0.3978 0.1963,0.8021 0.1963 1.1998c 0.0000,1.5808 -0.9996,3.0545 -2.5813 3.5837c -21.5053,7.1956 -43.0106,14.3911 -64.5159 21.5867c 1.5990,4.7790 3.1980,9.5579 4.7971 14.3369c 0.1331,0.3978 0.1963,0.8022 0.1963 1.1998c 0.0000,1.5808 -0.9996,3.0545 -2.5813 3.5837c -21.5053,7.1956 -43.0106,14.3911 -64.5159 21.5867c 3.3979,10.1553 6.7958,20.3106 10.1937 30.4659c 0.1331,0.3978 0.1963,0.8022 0.1963 1.1998c 0.0000,1.5808 -0.9996,3.0545 -2.5813 3.5837c -23.5602,7.8832 -47.1205,15.7663 -70.6807 23.6495c -1.9795,0.6623 -4.1211,-0.4055 -4.7835 -2.3850c -3.3979,-10.1553 -6.7958,-20.3105 -10.1937 -30.4658c -21.5053,7.1956 -43.0106,14.3911 -64.5159 21.5867c -1.9795,0.6623 -4.1211,-0.4055 -4.7835 -2.3850c -7.8832,-23.5602 -15.7663,-47.1205 -23.6494 -70.6807c -0.1331,-0.3978 -0.1963,-0.8022 -0.1963 -1.1998ZM 686.8343,99.7165 c 0.0000,-3.1310 2.5382,-5.6693 5.6693 -5.6693c 3.1310,-0.0000 5.6693,2.5382 5.6693 5.6693c 0.0000,3.1311 -2.5382,5.6693 -5.6693 5.6693c -3.1311,-0.0000 -5.6693,-2.5382 -5.6693 -5.6693ZM 781.3188,518.3731 c 0.0000,-3.1310 2.5382,-5.6693 5.6693 -5.6693c 3.1311,-0.0000 5.6693,2.5382 5.6693 5.6693c 0.0000,3.1311 -2.5382,5.6693 -5.6693 5.6693c -3.1310,-0.0000 -5.6693,-2.5382 -5.6693 -5.6693ZM 1146.3338,24.1260 c 0.0000,-3.1310 2.5382,-5.6693 5.6693 -5.6693c 3.1310,-0.0000 5.6693,2.5382 5.6693 5.6693c 0.0000,3.1311 -2.5382,5.6693 -5.6693 5.6693c -3.1311,-0.0000 -5.6693,-2.5382 -5.6693 -5.6693ZM 1241.8233,301.9548 c 0.0000,-3.1310 2.5382,-5.6693 5.6693 -5.6693c 3.1311,-0.0000 5.6693,2.5382 5.6693 5.6693c 0.0000,3.1311 -2.5382,5.6693 -5.6693 5.6693c -3.1310,-0.0000 -5.6693,-2.5382 -5.6693 -5.6693Z"/></g></svg>