<?xml version="1.0" encoding="UTF-8" standalone="no"?>
<svg
   height="231.1610"
   stroke-opacity="1"
   viewBox="0 0 844 231"
   font-size="1"
   width="843.7426"
   stroke="rgb(0,0,0)"
   version="1.1"
   id="svg226"
   sodipodi:docname="atreus10_a.svg"
   inkscape:version="1.1.1 (3bf5ae0, 2021-09-20)"
   xmlns:inkscape="http://www.inkscape.org/namespaces/inkscape"
   xmlns:sodipodi="http://sodipodi.sourceforge.net/DTD/sodipodi-0.dtd"
   xmlns="http://www.w3.org/2000/svg"
   xmlns:svg="http://www.w3.org/2000/svg">
  <sodipodi:namedview
     id="namedview228"
     pagecolor="#ffffff"
     bordercolor="#666666"
     borderopacity="1.0"
     inkscape:pageshadow="2"
     inkscape:pageopacity="0.0"
     inkscape:pagecheckerboard="0"
     showgrid="false"
     inkscape:zoom="1.4091975"
     inkscape:cx="421.87131"
     inkscape:cy="115.66867"
     inkscape:window-width="1371"
     inkscape:window-height="820"
     inkscape:window-x="0"
     inkscape:window-y="0"
     inkscape:window-maximized="0"
     inkscape:current-layer="svg226" />
  <defs
     id="defs2" />
  <g
     stroke-linejoin="miter"
     stroke-opacity="1.0"
     fill-opacity="0.5"
     stroke="rgb(0,0,0)"
     stroke-width="0.37795275590551186"
     fill="rgb(0,0,0)"
     stroke-linecap="butt"
     stroke-miterlimit="10.0"
     id="g6">
    <path
       d="M 3.9685,104.8747 c 0.0000,-3.1884 0.4961,-6.4044 1.5635 -9.5946c 7.8831,-23.5602 15.7663,-47.1205 23.6494 -70.6807c 5.2697,-15.7496 22.5183,-24.3493 38.2678 -19.0796c 22.7000,7.5953 45.4001,15.1907 68.1001 22.7860c 0.8602,0.2878 1.7204,0.5757 2.5806 0.8635c 0.0015,0.0005 0.0030,0.0010 0.0045 0.0015c 21.8383,7.3070 43.6767,14.6140 65.5150 21.9210c 0.8602,0.2878 1.7204,0.5756 2.5807 0.8635c 21.8398,7.3075 43.6796,14.6150 65.5194 21.9225c 0.8602,0.2878 1.7204,0.5756 2.5806 0.8634c 0.0016,0.0005 0.0032,0.0011 0.0048 0.0016c 10.9183,3.6532 21.8366,7.3064 32.7549 10.9596c 1.9070,-0.0000 3.8139,-0.0000 5.7209 -0.0000c 7.4240,-10.9196 21.5466,-16.1178 34.6342 -11.7388c 11.6945,3.9129 23.3889,7.8258 35.0834 11.7388c 13.1143,-0.0000 26.2286,-0.0000 39.3429 -0.0000c 13.1143,-0.0000 26.2286,-0.0000 39.3429 -0.0000c 11.6945,-3.9129 23.3889,-7.8258 35.0834 -11.7388c 13.0875,-4.3790 27.2101,0.8192 34.6342 11.7388c 1.9070,-0.0000 3.8139,-0.0000 5.7209 -0.0000c 10.9183,-3.6532 21.8366,-7.3064 32.7549 -10.9596c 0.0016,-0.0005 0.0032,-0.0011 0.0048 -0.0016c 0.8602,-0.2878 1.7204,-0.5756 2.5806 -0.8634c 21.8398,-7.3075 43.6796,-14.6150 65.5194 -21.9225c 0.8602,-0.2878 1.7204,-0.5756 2.5807 -0.8635c 21.8383,-7.3070 43.6767,-14.6140 65.5150 -21.9210c 0.0015,-0.0005 0.0030,-0.0010 0.0045 -0.0015c 0.8602,-0.2878 1.7204,-0.5756 2.5806 -0.8635c 22.7000,-7.5953 45.4001,-15.1906 68.1001 -22.7860c 15.7496,-5.2697 32.9981,3.3301 38.2678 19.0796c 7.8832,23.5602 15.7663,47.1205 23.6494 70.6807c 1.0674,3.1902 1.5635,6.4062 1.5635 9.5946c 0.0000,12.6088 -8.0272,24.4520 -20.6431 28.6732c -22.7000,7.5953 -45.4001,15.1906 -68.1001 22.7860c -0.8602,0.2878 -1.7204,0.5756 -2.5806 0.8635c -0.0017,0.0006 -0.0034,0.0012 -0.0051 0.0017c -21.8381,7.3069 -43.6762,14.6139 -65.5143 21.9208c -0.8602,0.2878 -1.7204,0.5757 -2.5806 0.8635c -0.0011,0.0004 -0.0022,0.0007 -0.0033 0.0011c -21.8387,7.3071 -43.6774,14.6143 -65.5162 21.9214c -0.8603,0.2878 -1.7206,0.5757 -2.5808 0.8635c -10.9199,3.6537 -21.8397,7.3075 -32.7596 10.9612c -11.7802,3.9416 -23.5603,7.8832 -35.3405 11.8248c -13.1219,4.3905 -27.2842,-0.8465 -34.6924 -11.8248c -1.8019,-0.0000 -3.6037,-0.0000 -5.4056 -0.0000c -11.8658,3.9702 -23.7316,7.9405 -35.5974 11.9107c -13.1560,4.4019 -27.3580,-0.8739 -34.7502 -11.9107c -3.9443,-0.0000 -7.8886,-0.0000 -11.8329 -0.0000c -3.9443,-0.0000 -7.8886,-0.0000 -11.8329 -0.0000c -7.3922,11.0368 -21.5942,16.3127 -34.7502 11.9107c -11.8658,-3.9702 -23.7316,-7.9405 -35.5974 -11.9107c -1.8019,-0.0000 -3.6037,-0.0000 -5.4056 -0.0000c -7.4082,10.9783 -21.5705,16.2153 -34.6924 11.8248c -11.7802,-3.9416 -23.5603,-7.8832 -35.3405 -11.8248c -10.9199,-3.6537 -21.8397,-7.3075 -32.7596 -10.9612c -0.8603,-0.2878 -1.7206,-0.5757 -2.5808 -0.8635c -21.8387,-7.3071 -43.6774,-14.6143 -65.5162 -21.9214c -0.0011,-0.0004 -0.0022,-0.0007 -0.0033 -0.0011c -0.8602,-0.2878 -1.7204,-0.5757 -2.5806 -0.8635c -21.8381,-7.3069 -43.6762,-14.6139 -65.5143 -21.9208c -0.0017,-0.0006 -0.0034,-0.0012 -0.0051 -0.0017c -0.8602,-0.2878 -1.7204,-0.5756 -2.5806 -0.8635c -22.7000,-7.5953 -45.4001,-15.1906 -68.1001 -22.7860c -12.6159,-4.2213 -20.6431,-16.0644 -20.6431 -28.6732ZM 14.0986,112.0727 c 0.0000,3.1311 2.5382,5.6693 5.6693 5.6693c 3.1311,-0.0000 5.6693,-2.5382 5.6693 -5.6693c 0.0000,-3.1311 -2.5382,-5.6693 -5.6693 -5.6693c -3.1311,-0.0000 -5.6693,2.5382 -5.6693 5.6693ZM 44.9874,19.7556 c 0.0000,3.1311 2.5382,5.6693 5.6693 5.6693c 3.1311,-0.0000 5.6693,-2.5382 5.6693 -5.6693c 0.0000,-3.1311 -2.5382,-5.6693 -5.6693 -5.6693c -3.1311,-0.0000 -5.6693,2.5382 -5.6693 5.6693ZM 310.7159,211.3195 c 0.0000,3.1311 2.5382,5.6693 5.6693 5.6693c 3.1311,-0.0000 5.6693,-2.5382 5.6693 -5.6693c 0.0000,-3.1311 -2.5382,-5.6693 -5.6693 -5.6693c -3.1311,-0.0000 -5.6693,2.5382 -5.6693 5.6693ZM 387.8556,99.6450 c 0.0000,3.1311 2.5382,5.6693 5.6693 5.6693c 3.1311,-0.0000 5.6693,-2.5382 5.6693 -5.6693c 0.0000,-3.1311 -2.5382,-5.6693 -5.6693 -5.6693c -3.1311,-0.0000 -5.6693,2.5382 -5.6693 5.6693ZM 444.5485,99.6450 c 0.0000,3.1311 2.5382,5.6693 5.6693 5.6693c 3.1311,-0.0000 5.6693,-2.5382 5.6693 -5.6693c 0.0000,-3.1311 -2.5382,-5.6693 -5.6693 -5.6693c -3.1311,-0.0000 -5.6693,2.5382 -5.6693 5.6693ZM 521.6881,211.3195 c 0.0000,3.1311 2.5382,5.6693 5.6693 5.6693c 3.1311,-0.0000 5.6693,-2.5382 5.6693 -5.6693c 0.0000,-3.1311 -2.5382,-5.6693 -5.6693 -5.6693c -3.1311,-0.0000 -5.6693,2.5382 -5.6693 5.6693ZM 787.4166,19.7556 c 0.0000,3.1311 2.5382,5.6693 5.6693 5.6693c 3.1311,-0.0000 5.6693,-2.5382 5.6693 -5.6693c 0.0000,-3.1311 -2.5382,-5.6693 -5.6693 -5.6693c -3.1311,-0.0000 -5.6693,2.5382 -5.6693 5.6693ZM 818.3054,112.0727 c 0.0000,3.1311 2.5382,5.6693 5.6693 5.6693c 3.1311,-0.0000 5.6693,-2.5382 5.6693 -5.6693c 0.0000,-3.1311 -2.5382,-5.6693 -5.6693 -5.6693c -3.1311,-0.0000 -5.6693,2.5382 -5.6693 5.6693Z"
       id="path4" />
  </g>
  <g
     stroke-linejoin="miter"
     stroke-opacity="1.0"
     fill-opacity="0.5"
     stroke="rgb(0,0,0)"
     stroke-width="0.37795275590551186"
     fill="rgb(128,128,128)"
     stroke-linecap="butt"
     stroke-miterlimit="10.0"
     id="g10">
    <path
       d="M 28.4696,98.1951 c 6.9284,-20.7069 13.8569,-41.4138 20.7853 -62.1207c 0.4621,0.0392 0.9296,0.0592 1.4019 0.0592c 5.8480,-0.0000 10.9801,-3.0650 13.8776 -7.6762c 21.2732,7.1179 42.5463,14.2358 63.8195 21.3537c 0.8602,0.2878 1.7204,0.5757 2.5806 0.8635c 0.0015,0.0005 0.0030,0.0010 0.0045 0.0015c 21.8383,7.3070 43.6767,14.6140 65.5150 21.9210c 0.8602,0.2878 1.7204,0.5756 2.5806 0.8635c 21.8398,7.3075 43.6796,14.6150 65.5195 21.9225c 0.8602,0.2878 1.7204,0.5756 2.5806 0.8635c 0.0016,0.0005 0.0032,0.0011 0.0048 0.0016c 10.9183,3.6532 21.8366,7.3064 32.7549 10.9596c 9.4854,-0.0000 18.9709,-0.0000 28.4563 -0.0000c 0.7773,-2.3230 1.5545,-4.6459 2.3318 -6.9689c 1.3205,-3.9467 5.6203,-6.0904 9.5670 -4.7699c 11.6945,3.9129 23.3890,7.8259 35.0835 11.7388c 1.2203,-0.0000 2.4405,-0.0000 3.6608 -0.0000c 2.7320,5.2387 8.2139,8.8153 14.5311 8.8153c 6.3172,-0.0000 11.7991,-3.5766 14.5311 -8.8153c 4.6051,-0.0000 9.2102,-0.0000 13.8153 -0.0000c 4.6051,-0.0000 9.2102,-0.0000 13.8153 -0.0000c 2.7321,5.2387 8.2139,8.8153 14.5311 8.8153c 6.3172,-0.0000 11.7991,-3.5766 14.5311 -8.8153c 1.2203,-0.0000 2.4405,-0.0000 3.6608 -0.0000c 11.6945,-3.9129 23.3890,-7.8259 35.0835 -11.7388c 3.9467,-1.3205 8.2464,0.8232 9.5670 4.7699c 0.7772,2.3230 1.5545,4.6459 2.3318 6.9689c 9.4854,-0.0000 18.9709,-0.0000 28.4563 -0.0000c 0.0000,-0.0000 0.0000,-0.0000 0.0000 -0.0000c 10.9183,-3.6532 21.8366,-7.3064 32.7549 -10.9596c 0.0016,-0.0005 0.0032,-0.0011 0.0048 -0.0016c 0.8602,-0.2878 1.7204,-0.5756 2.5806 -0.8635c 21.8398,-7.3075 43.6796,-14.6150 65.5195 -21.9225c 0.8602,-0.2878 1.7204,-0.5757 2.5806 -0.8635c 21.8383,-7.3070 43.6767,-14.6140 65.5150 -21.9210c 0.0015,-0.0005 0.0030,-0.0010 0.0045 -0.0015c 0.8602,-0.2878 1.7204,-0.5757 2.5806 -0.8635c 21.2732,-7.1179 42.5463,-14.2358 63.8195 -21.3537c 2.8975,4.6112 8.0296,7.6762 13.8776 7.6762c 0.4722,-0.0000 0.9398,-0.0200 1.4019 -0.0592c 6.9284,20.7069 13.8568,41.4138 20.7853 62.1207c -4.6112,2.8975 -7.6762,8.0296 -7.6762 13.8776c 0.0000,0.4722 0.0200,0.9398 0.0592 1.4018c -21.2736,7.1180 -42.5471,14.2361 -63.8206 21.3541c -0.8602,0.2878 -1.7204,0.5756 -2.5806 0.8635c -0.0017,0.0006 -0.0034,0.0011 -0.0051 0.0017c -21.8381,7.3069 -43.6762,14.6139 -65.5143 21.9208c -0.8602,0.2878 -1.7204,0.5756 -2.5806 0.8635c -0.0011,0.0004 -0.0022,0.0007 -0.0033 0.0011c -21.8387,7.3071 -43.6774,14.6143 -65.5161 21.9214c -0.8602,0.2878 -1.7204,0.5756 -2.5807 0.8635c -10.9199,3.6538 -21.8398,7.3075 -32.7597 10.9613c -10.3532,3.4641 -20.7065,6.9283 -31.0597 10.3924c -2.8975,-4.6112 -8.0296,-7.6762 -13.8776 -7.6762c -0.4722,-0.0000 -0.9398,0.0200 -1.4019 0.0592c -0.3095,-0.9251 -0.6191,-1.8503 -0.9286 -2.7754c -9.3902,-0.0000 -18.7805,-0.0000 -28.1707 -0.0000c -11.8658,3.9702 -23.7315,7.9404 -35.5972 11.9107c -3.9467,1.3205 -8.2464,-0.8233 -9.5670 -4.7699c -0.7964,-2.3803 -1.5928,-4.7605 -2.3893 -7.1408c -9.1438,-0.0000 -18.2876,-0.0000 -27.4314 -0.0000c -9.1438,-0.0000 -18.2876,-0.0000 -27.4314 -0.0000c -0.7964,2.3803 -1.5928,4.7605 -2.3893 7.1408c -1.3205,3.9466 -5.6203,6.0904 -9.5670 4.7699c -11.8657,-3.9702 -23.7315,-7.9405 -35.5972 -11.9107c -9.3902,-0.0000 -18.7805,-0.0000 -28.1707 -0.0000c -0.3095,0.9251 -0.6191,1.8503 -0.9286 2.7754c -0.4621,-0.0392 -0.9296,-0.0592 -1.4019 -0.0592c -5.8480,-0.0000 -10.9801,3.0650 -13.8776 7.6762c -10.3532,-3.4641 -20.7065,-6.9283 -31.0597 -10.3924c -10.9199,-3.6538 -21.8398,-7.3075 -32.7597 -10.9613c -0.8602,-0.2878 -1.7204,-0.5756 -2.5807 -0.8635c -21.8387,-7.3071 -43.6774,-14.6143 -65.5161 -21.9214c -0.0011,-0.0004 -0.0022,-0.0007 -0.0033 -0.0011c -0.8602,-0.2878 -1.7204,-0.5756 -2.5806 -0.8635c -21.8381,-7.3069 -43.6762,-14.6139 -65.5143 -21.9208c -0.0017,-0.0006 -0.0034,-0.0011 -0.0051 -0.0017c -0.8602,-0.2878 -1.7204,-0.5756 -2.5806 -0.8635c -21.2735,-7.1180 -42.5471,-14.2361 -63.8206 -21.3541c 0.0392,-0.4621 0.0592,-0.9296 0.0592 -1.4018c 0.0000,-5.8480 -3.0650,-10.9801 -7.6762 -13.8776Z"
       id="path8" />
  </g>
  <g
     stroke-linejoin="miter"
     stroke-opacity="1.0"
     fill-opacity="0.5"
     stroke="rgb(0,0,0)"
     stroke-width="0.37795275590551186"
     fill="rgb(255,255,0)"
     stroke-linecap="butt"
     stroke-miterlimit="10.0"
     id="g14">
    <path
       id="path12"
       style="stroke-width:0.377838"
       d="M 55.548828 4.1777344 C 43.809903 5.1112231 33.122945 12.898433 29.171875 24.707031 C 21.291179 48.260046 13.411946 71.814172 5.53125 95.367188 C 4.4641755 98.556415 3.9667969 101.77156 3.9667969 104.95898 C 3.9667969 117.56394 11.991463 129.40303 24.603516 133.62305 C 47.296593 141.21613 69.990516 148.80936 92.683594 156.40234 C 93.543531 156.69016 94.403734 156.97791 95.263672 157.26562 C 95.265371 157.26612 95.265879 157.26698 95.267578 157.26758 C 117.09902 164.57225 138.93028 171.87697 160.76172 179.18164 C 161.62166 179.46935 162.48186 179.75721 163.3418 180.04492 C 163.3429 180.04532 163.3446 180.04452 163.3457 180.04492 C 185.17784 187.34979 207.00976 194.65607 228.8418 201.96094 C 229.70173 202.24865 230.56184 202.53651 231.42188 202.82422 C 242.33844 206.4768 253.25531 210.12866 264.17188 213.78125 C 275.94848 217.72165 287.72535 221.66116 299.50195 225.60156 C 312.61985 229.99072 326.77765 224.7562 334.18359 213.78125 L 339.58789 213.78125 C 351.45007 217.75024 363.31165 221.71851 375.17383 225.6875 C 388.32582 230.08816 402.52412 224.81468 409.91406 213.78125 L 421.74219 213.78125 L 433.57227 213.78125 C 440.96221 224.81468 455.15856 230.08806 468.31055 225.6875 C 480.17273 221.71851 492.03626 217.75024 503.89844 213.78125 L 509.30273 213.78125 C 516.70868 224.7562 530.86648 229.99072 543.98438 225.60156 C 555.76098 221.66116 567.53785 217.72165 579.31445 213.78125 C 590.23102 210.12866 601.14593 206.4768 612.0625 202.82422 C 612.92244 202.53651 613.78254 202.24865 614.64258 201.96094 C 636.47472 194.65607 658.30663 187.34979 680.13867 180.04492 C 680.13977 180.04452 680.14148 180.04532 680.14258 180.04492 C 681.00252 179.75721 681.86272 179.46935 682.72266 179.18164 C 704.5541 171.87697 726.38536 164.57225 748.2168 157.26758 C 748.2185 157.26708 748.22096 157.26622 748.22266 157.26562 C 749.08259 156.97781 749.94084 156.69006 750.80078 156.40234 C 773.49386 148.80926 796.18778 141.21603 818.88086 133.62305 C 831.49291 129.40313 839.51758 117.56394 839.51758 104.95898 C 839.51758 101.77156 839.02215 98.556415 837.95508 95.367188 C 830.07438 71.814172 822.1933 48.260046 814.3125 24.707031 C 809.04441 8.9623342 791.80144 0.36667267 776.05664 5.6347656 C 753.36356 13.227849 730.66964 20.819126 707.97656 28.412109 C 707.11662 28.699922 706.25642 28.987678 705.39648 29.275391 L 705.39258 29.277344 C 683.56094 36.582115 661.73008 43.886635 639.89844 51.191406 C 639.0384 51.479218 638.1783 51.766975 637.31836 52.054688 L 571.81836 73.970703 L 569.23828 74.833984 C 569.23668 74.834484 569.23597 74.835438 569.23438 74.835938 L 536.48828 85.791016 L 530.76953 85.791016 C 523.3477 74.874746 509.22999 69.678976 496.14648 74.056641 C 484.45555 77.968447 472.76515 81.879309 461.07422 85.791016 L 421.74219 85.791016 L 382.41211 85.791016 C 370.72118 81.879209 359.03078 77.968347 347.33984 74.056641 C 334.25623 69.678976 320.13658 74.874746 312.71484 85.791016 L 306.99609 85.791016 L 274.25195 74.835938 C 274.25035 74.835438 274.24769 74.834484 274.24609 74.833984 L 271.66602 73.970703 L 206.16797 52.054688 C 205.30793 51.766875 204.44783 51.479118 203.58789 51.191406 C 181.75625 43.886635 159.92344 36.582115 138.0918 29.277344 L 138.08789 29.275391 C 137.22795 28.987678 136.36775 28.699822 135.50781 28.412109 C 112.81474 20.819126 90.120812 13.227749 67.427734 5.6347656 C 63.49156 4.3177424 59.461803 3.8665715 55.548828 4.1777344 z M 50.640625 14.197266 C 53.77077 14.197266 56.308594 16.735089 56.308594 19.865234 C 56.308594 22.99538 53.77077 25.533203 50.640625 25.533203 C 47.51048 25.533203 44.974609 22.99538 44.974609 19.865234 C 44.974609 16.735089 47.51048 14.197266 50.640625 14.197266 z M 792.84375 14.197266 C 795.9739 14.197266 798.51172 16.735089 798.51172 19.865234 C 798.51172 22.99538 795.9739 25.533203 792.84375 25.533203 C 789.7136 25.533203 787.17578 22.99538 787.17578 19.865234 C 787.17578 16.735089 789.7136 14.197266 792.84375 14.197266 z M 64.513672 28.564453 C 85.780384 35.680182 107.04774 42.79638 128.31445 49.912109 C 129.17439 50.199822 130.03459 50.487678 130.89453 50.775391 L 130.89844 50.775391 C 152.73008 58.080162 174.56289 65.386635 196.39453 72.691406 C 197.25447 72.979118 198.11272 73.266975 198.97266 73.554688 C 220.8059 80.859959 242.63952 88.165432 264.47266 95.470703 C 265.33259 95.758515 266.1928 96.044319 267.05273 96.332031 C 267.05433 96.332531 267.05699 96.333485 267.05859 96.333984 L 299.80273 107.29102 L 328.25 107.29102 C 329.02706 104.96872 329.80507 102.64651 330.58203 100.32422 C 331.90223 96.378722 336.19903 94.23459 340.14453 95.554688 C 351.83546 99.466394 363.52782 103.37931 375.21875 107.29102 L 378.87695 107.29102 C 381.60812 112.52812 387.08902 116.10352 393.4043 116.10352 C 399.71957 116.10352 405.20037 112.52812 407.93164 107.29102 L 421.74219 107.29102 L 435.55273 107.29102 C 438.2839 112.52812 443.7648 116.10352 450.08008 116.10352 C 456.39535 116.10352 461.87626 112.52812 464.60742 107.29102 L 468.26562 107.29102 C 479.95656 103.37931 491.64891 99.466394 503.33984 95.554688 C 507.28534 94.23459 511.58225 96.378722 512.90234 100.32422 C 513.67941 102.64651 514.45731 104.96872 515.23438 107.29102 L 543.68164 107.29102 L 576.42773 96.333984 C 576.42933 96.333485 576.43004 96.332531 576.43164 96.332031 C 577.29158 96.044219 578.15178 95.758415 579.01172 95.470703 C 600.84496 88.165432 622.67858 80.859959 644.51172 73.554688 C 645.37166 73.266875 646.22991 72.979118 647.08984 72.691406 C 668.92148 65.386635 690.7543 58.080162 712.58594 50.775391 L 712.58984 50.775391 C 713.44978 50.487678 714.30998 50.199822 715.16992 49.912109 C 736.43663 42.79638 757.70399 35.680182 778.9707 28.564453 C 781.86732 33.174247 786.99753 36.238281 792.84375 36.238281 C 793.31591 36.238281 793.78218 36.218876 794.24414 36.179688 C 801.17043 56.880273 808.09715 77.580665 815.02344 98.28125 C 810.41364 101.17787 807.34961 106.30808 807.34961 112.1543 C 807.34961 112.62635 807.37097 113.09273 807.41016 113.55469 C 786.14304 120.67052 764.87443 127.78651 743.60742 134.90234 C 742.74748 135.19016 741.88728 135.47791 741.02734 135.76562 C 741.02564 135.76622 741.02514 135.76698 741.02344 135.76758 C 719.192 143.07225 697.36074 150.37697 675.5293 157.68164 C 674.66936 157.96945 673.80916 158.25721 672.94922 158.54492 C 672.94812 158.54532 672.94641 158.54648 672.94531 158.54688 C 651.11327 165.85175 629.28126 173.15607 607.44922 180.46094 C 606.58918 180.74875 605.72908 181.03651 604.86914 181.32422 C 593.95257 184.9769 583.03571 188.63052 572.11914 192.2832 C 561.7691 195.74625 551.42036 199.20883 541.07031 202.67188 C 538.1737 198.06208 533.04348 194.99805 527.19727 194.99805 C 526.72511 194.99805 526.25688 195.01745 525.79492 195.05664 C 525.48552 194.13182 525.17659 193.20802 524.86719 192.2832 L 496.70508 192.2832 C 484.843 196.25219 472.97927 200.22046 461.11719 204.18945 C 457.17169 205.50955 452.87478 203.36727 451.55469 199.42188 C 450.75843 197.0423 449.96217 194.66278 449.16602 192.2832 L 421.74219 192.2832 L 394.32031 192.2832 C 393.52406 194.66278 392.7278 197.0423 391.93164 199.42188 C 390.61144 203.36727 386.31268 205.50955 382.36719 204.18945 C 370.50511 200.22036 358.64343 196.25219 346.78125 192.2832 L 318.61914 192.2832 C 318.30974 193.20802 317.99886 194.13182 317.68945 195.05664 C 317.22749 195.01745 316.76112 194.99805 316.28906 194.99805 C 310.44285 194.99805 305.31263 198.06208 302.41602 202.67188 C 292.06597 199.20883 281.71528 195.74625 271.36523 192.2832 C 260.44866 188.63052 249.5318 184.9769 238.61523 181.32422 C 237.7552 181.03641 236.89509 180.74865 236.03516 180.46094 C 214.20312 173.15607 192.3711 165.85175 170.53906 158.54688 C 170.53796 158.54648 170.53626 158.54532 170.53516 158.54492 C 169.67522 158.25711 168.81697 157.96935 167.95703 157.68164 C 146.12559 150.37697 124.29238 143.07225 102.46094 135.76758 C 102.45924 135.76698 102.45873 135.76622 102.45703 135.76562 C 101.59709 135.47781 100.73689 135.19006 99.876953 134.90234 C 78.609841 127.78651 57.343284 120.67052 36.076172 113.55469 C 36.11536 113.09283 36.134766 112.62635 36.134766 112.1543 C 36.134766 106.30808 33.070731 101.17787 28.460938 98.28125 C 35.387325 77.580665 42.313947 56.880273 49.240234 36.179688 C 49.702193 36.218876 50.168569 36.238281 50.640625 36.238281 C 56.486842 36.238281 61.617055 33.174247 64.513672 28.564453 z M 393.4043 94.0625 C 396.53444 94.0625 399.07227 96.600324 399.07227 99.730469 C 399.07227 102.86061 396.53444 105.39844 393.4043 105.39844 C 390.27415 105.39844 387.73828 102.86061 387.73828 99.730469 C 387.73828 96.600324 390.27415 94.0625 393.4043 94.0625 z M 450.08008 94.0625 C 453.21022 94.0625 455.74805 96.600324 455.74805 99.730469 C 455.74805 102.86061 453.21022 105.39844 450.08008 105.39844 C 446.94993 105.39844 444.41211 102.86061 444.41211 99.730469 C 444.41211 96.600324 446.94993 94.0625 450.08008 94.0625 z M 19.761719 106.48633 C 22.891864 106.48633 25.429688 109.02415 25.429688 112.1543 C 25.429687 115.28444 22.891864 117.82227 19.761719 117.82227 C 16.631574 117.82227 14.09375 115.28444 14.09375 112.1543 C 14.09375 109.02415 16.631574 106.48633 19.761719 106.48633 z M 823.72266 106.48633 C 826.8528 106.48633 829.39062 109.02415 829.39062 112.1543 C 829.39062 115.28444 826.8528 117.82227 823.72266 117.82227 C 820.59251 117.82227 818.05664 115.28444 818.05664 112.1543 C 818.05664 109.02415 820.59251 106.48633 823.72266 106.48633 z M 316.28906 205.70312 C 319.41921 205.70312 321.95703 208.24095 321.95703 211.37109 C 321.95703 214.50124 319.41921 217.03906 316.28906 217.03906 C 313.15892 217.03906 310.62109 214.50124 310.62109 211.37109 C 310.62109 208.24095 313.15892 205.70312 316.28906 205.70312 z M 527.19727 205.70312 C 530.32741 205.70312 532.86328 208.24095 532.86328 211.37109 C 532.86328 214.50124 530.32741 217.03906 527.19727 217.03906 C 524.06712 217.03906 521.5293 214.50124 521.5293 211.37109 C 521.5293 208.24095 524.06712 205.70312 527.19727 205.70312 z "
       transform="matrix(1.0003051,0,0,1.0003051,0,-0.11575579)" />
  </g>
  <path
     id="path16"
     style="fill:#000000;fill-opacity:0.5;stroke:#000000;stroke-width:0.377838;stroke-linecap:butt;stroke-linejoin:miter;stroke-miterlimit:10;stroke-opacity:1"
     d="M 55.548828 4.1777344 C 43.809903 5.1112231 33.122945 12.898433 29.171875 24.707031 C 21.291179 48.260046 13.411946 71.814172 5.53125 95.367188 C 4.4641755 98.556415 3.9667969 101.77156 3.9667969 104.95898 C 3.9667969 117.56394 11.991317 129.40303 24.605469 133.62305 C 47.298546 141.21613 69.992469 148.80936 92.685547 156.40234 C 93.545485 156.69016 94.405687 156.97791 95.265625 157.26562 C 95.267324 157.26662 95.267832 157.26698 95.269531 157.26758 C 117.10097 164.57225 138.93418 171.87697 160.76562 179.18164 C 161.62556 179.46935 162.48381 179.75721 163.34375 180.04492 C 163.34475 180.04522 163.34666 180.04452 163.34766 180.04492 C 185.1798 187.34979 207.01171 194.65607 228.84375 201.96094 C 229.70369 202.24865 230.56379 202.53651 231.42383 202.82422 C 242.3404 206.4768 253.25726 210.12866 264.17383 213.78125 C 275.95044 217.72165 287.7273 221.66116 299.50391 225.60156 C 312.6218 229.99072 326.77961 224.7562 334.18555 213.78125 L 339.58984 213.78125 C 351.45203 217.75024 363.3136 221.71851 375.17578 225.6875 C 388.32777 230.08816 402.52607 224.81468 409.91602 213.78125 L 421.74414 213.78125 L 433.57422 213.78125 C 440.96416 224.81468 455.16051 230.08806 468.3125 225.6875 C 480.17468 221.71851 492.03821 217.75024 503.90039 213.78125 L 509.30469 213.78125 C 516.71063 224.7562 530.86843 229.99072 543.98633 225.60156 C 555.76294 221.66116 567.53785 217.72165 579.31445 213.78125 C 590.23102 210.12866 601.14788 206.4768 612.06445 202.82422 C 612.92439 202.53651 613.78449 202.24865 614.64453 201.96094 C 636.47667 194.65607 658.30858 187.34979 680.14062 180.04492 C 680.14162 180.04462 680.14353 180.04532 680.14453 180.04492 C 681.00447 179.75721 681.86467 179.46935 682.72461 179.18164 C 704.55605 171.87697 726.38731 164.57225 748.21875 157.26758 C 748.22075 157.26658 748.22066 157.26622 748.22266 157.26562 C 749.08259 156.97781 749.9428 156.69006 750.80273 156.40234 C 773.49581 148.80926 796.18974 141.21603 818.88281 133.62305 C 831.49487 129.40313 839.51953 117.56394 839.51953 104.95898 C 839.51953 101.77156 839.02411 98.556415 837.95703 95.367188 C 830.07634 71.814172 822.19525 48.260046 814.31445 24.707031 C 809.04636 8.9623342 791.80339 0.36667267 776.05859 5.6347656 C 753.36552 13.227849 730.67159 20.819126 707.97852 28.412109 C 707.11858 28.699922 706.25838 28.987678 705.39844 29.275391 C 705.39644 29.27589 705.39653 29.276844 705.39453 29.277344 C 683.56289 36.582115 661.73008 43.886635 639.89844 51.191406 C 639.0384 51.479218 638.1783 51.766975 637.31836 52.054688 L 571.82031 73.970703 L 569.24023 74.833984 C 569.23823 74.834484 569.23637 74.835438 569.23438 74.835938 L 536.49023 85.791016 L 530.76953 85.791016 C 523.3477 74.874746 509.22999 69.678976 496.14648 74.056641 C 484.45555 77.968447 472.76515 81.879309 461.07422 85.791016 L 421.74414 85.791016 L 382.41211 85.791016 C 370.72118 81.879209 359.03078 77.968347 347.33984 74.056641 C 334.25623 69.678976 320.13853 74.874746 312.7168 85.791016 L 306.99609 85.791016 L 274.25195 74.835938 C 274.24995 74.835438 274.24809 74.834484 274.24609 74.833984 L 271.66797 73.970703 L 206.16797 52.054688 C 205.30793 51.766875 204.44783 51.479118 203.58789 51.191406 C 181.75625 43.886635 159.92539 36.582115 138.09375 29.277344 C 138.09175 29.276844 138.08989 29.27589 138.08789 29.275391 C 137.22795 28.987678 136.36775 28.699822 135.50781 28.412109 C 112.81474 20.819126 90.120812 13.227749 67.427734 5.6347656 C 63.49156 4.3177424 59.461803 3.8665715 55.548828 4.1777344 z M 50.640625 14.197266 C 53.77077 14.197266 56.308594 16.735089 56.308594 19.865234 C 56.308594 22.99538 53.77077 25.533203 50.640625 25.533203 C 47.51048 25.533203 44.974609 22.99538 44.974609 19.865234 C 44.974609 16.735089 47.51048 14.197266 50.640625 14.197266 z M 792.84375 14.197266 C 795.9739 14.197266 798.51172 16.735089 798.51172 19.865234 C 798.51172 22.99538 795.9739 25.533203 792.84375 25.533203 C 789.7136 25.533203 787.17578 22.99538 787.17578 19.865234 C 787.17578 16.735089 789.7136 14.197266 792.84375 14.197266 z M 64.691406 48.046875 C 81.376816 53.629772 98.062637 59.212025 114.74805 64.794922 C 114.35627 65.965865 113.96405 67.137551 113.57227 68.308594 C 114.54307 68.633495 115.51357 68.958402 116.48438 69.283203 C 115.0857 73.463628 113.68784 77.643794 112.28906 81.824219 C 111.31826 81.499318 110.34776 81.17441 109.37695 80.849609 C 107.37526 86.832084 105.37278 92.8144 103.37109 98.796875 C 104.3419 99.121776 105.3124 99.446683 106.2832 99.771484 C 104.88453 103.95191 103.48666 108.13208 102.08789 112.3125 C 101.11709 111.9876 100.14659 111.66464 99.175781 111.33984 C 98.784001 112.51079 98.39178 113.68052 98 114.85156 C 81.31459 109.26867 64.628769 103.68641 47.943359 98.103516 C 48.33514 96.932573 48.72736 95.760887 49.119141 94.589844 C 48.148437 94.264943 47.177835 93.940035 46.207031 93.615234 C 47.605705 89.43481 49.00357 85.254644 50.402344 81.074219 C 51.373048 81.39912 52.343649 81.724027 53.314453 82.048828 C 55.316143 76.066253 57.318623 70.084038 59.320312 64.101562 C 58.349509 63.776662 57.379007 63.451754 56.408203 63.126953 C 57.806876 58.946528 59.204742 54.766362 60.603516 50.585938 C 61.57422 50.910838 62.546774 51.235746 63.517578 51.560547 C 63.909359 50.389604 64.299626 49.217918 64.691406 48.046875 z M 778.79297 48.046875 C 779.18475 49.217818 779.57697 50.389504 779.96875 51.560547 C 780.93945 51.235646 781.91006 50.910738 782.88086 50.585938 C 784.27953 54.766362 785.67935 58.946528 787.07812 63.126953 C 786.10732 63.451854 785.13487 63.776762 784.16406 64.101562 C 786.16575 70.084038 788.16823 76.066353 790.16992 82.048828 C 791.14063 81.723927 792.11123 81.39902 793.08203 81.074219 C 794.4807 85.254644 795.88052 89.43481 797.2793 93.615234 C 796.30859 93.940135 795.33604 94.265043 794.36523 94.589844 C 794.75701 95.760787 795.14924 96.932473 795.54102 98.103516 C 778.85561 103.68641 762.17174 109.26867 745.48633 114.85156 C 745.09455 113.68062 744.70233 112.50893 744.31055 111.33789 C 743.33974 111.66279 742.36924 111.9877 741.39844 112.3125 C 739.99966 108.13208 738.59995 103.95191 737.20117 99.771484 C 738.17198 99.446583 739.14248 99.121676 740.11328 98.796875 C 738.11159 92.8143 736.11106 86.832084 734.10938 80.849609 C 733.13857 81.17451 732.16612 81.499418 731.19531 81.824219 C 729.79664 77.643794 728.39877 73.463628 727 69.283203 C 727.9708 68.958302 728.94131 68.633395 729.91211 68.308594 C 729.52033 67.137651 729.12811 65.965965 728.73633 64.794922 C 745.42174 59.212025 762.10756 53.629772 778.79297 48.046875 z M 132.77148 70.826172 C 149.45689 76.409069 166.14271 81.991322 182.82812 87.574219 C 182.43634 88.745262 182.04412 89.916848 181.65234 91.087891 C 182.62315 91.412792 183.59365 91.737699 184.56445 92.0625 C 183.16578 96.242925 181.76791 100.42309 180.36914 104.60352 C 179.39844 104.27861 178.42784 103.95371 177.45703 103.62891 C 175.45534 109.61138 173.45286 115.5937 171.45117 121.57617 C 172.42198 121.90107 173.39248 122.22598 174.36328 122.55078 C 172.96461 126.73121 171.56674 130.91137 170.16797 135.0918 C 169.19716 134.7669 168.22471 134.44199 167.25391 134.11719 C 166.86213 135.28813 166.47186 136.45982 166.08008 137.63086 C 149.39467 132.04796 132.70885 126.46571 116.02344 120.88281 C 116.41522 119.71187 116.80744 118.54018 117.19922 117.36914 C 116.22841 117.04424 115.25596 116.71933 114.28516 116.39453 C 115.68383 112.21411 117.08365 108.03394 118.48242 103.85352 C 119.45323 104.17842 120.42373 104.50332 121.39453 104.82812 C 123.39622 98.84565 125.3987 92.863334 127.40039 86.880859 C 126.42959 86.555958 125.45909 86.231051 124.48828 85.90625 C 125.88695 81.725825 127.28482 77.545659 128.68359 73.365234 C 129.6544 73.690135 130.6249 74.015043 131.5957 74.339844 C 131.98748 73.168801 132.3797 71.997215 132.77148 70.826172 z M 710.71289 70.826172 C 711.10467 71.997215 711.49689 73.168801 711.88867 74.339844 C 712.85948 74.014943 713.82998 73.690035 714.80078 73.365234 C 716.19945 77.545659 717.59927 81.725825 718.99805 85.90625 C 718.02724 86.231151 717.05674 86.556058 716.08594 86.880859 C 718.08763 92.863334 720.08815 98.84565 722.08984 104.82812 C 723.06065 104.50322 724.0331 104.17832 725.00391 103.85352 C 726.40258 108.03394 727.80045 112.21411 729.19922 116.39453 C 728.22841 116.71943 727.25791 117.04434 726.28711 117.36914 C 726.67889 118.54008 727.07111 119.71177 727.46289 120.88281 C 710.77748 126.46571 694.09166 132.04796 677.40625 137.63086 C 677.01447 136.45992 676.62225 135.28823 676.23047 134.11719 C 675.25966 134.44209 674.28916 134.767 673.31836 135.0918 C 671.91969 130.91137 670.51987 126.73121 669.12109 122.55078 C 670.0919 122.22588 671.06435 121.90097 672.03516 121.57617 C 670.03347 115.5937 668.03099 109.61138 666.0293 103.62891 C 665.05859 103.95381 664.08799 104.27871 663.11719 104.60352 C 661.71851 100.42309 660.3187 96.242925 658.91992 92.0625 C 659.89073 91.737599 660.86123 91.412692 661.83203 91.087891 C 661.44025 89.916848 661.04998 88.745262 660.6582 87.574219 C 677.34361 81.991322 694.02748 76.409069 710.71289 70.826172 z M 200.85156 93.605469 C 217.53697 99.188366 234.22084 104.77062 250.90625 110.35352 C 250.51447 111.52446 250.1242 112.69614 249.73242 113.86719 C 250.70323 114.19209 251.67373 114.517 252.64453 114.8418 C 251.24586 119.02222 249.84604 123.20239 248.44727 127.38281 C 247.47646 127.05791 246.50596 126.733 245.53516 126.4082 C 243.53347 132.39068 241.53099 138.37299 239.5293 144.35547 C 240.5001 144.68037 241.47256 145.00528 242.44336 145.33008 C 241.04469 149.5105 239.64487 153.69067 238.24609 157.87109 C 237.27529 157.54619 236.30479 157.22129 235.33398 156.89648 C 234.9422 158.06743 234.54998 159.23911 234.1582 160.41016 C 217.47279 154.82726 200.78697 149.24501 184.10156 143.66211 C 184.49334 142.49117 184.88556 141.31948 185.27734 140.14844 C 184.30654 139.82354 183.33604 139.49863 182.36523 139.17383 C 183.76391 134.9934 185.16177 130.81324 186.56055 126.63281 C 187.53135 126.95771 188.50381 127.28262 189.47461 127.60742 C 191.4764 121.62495 193.47683 115.64263 195.47852 109.66016 C 194.50781 109.33526 193.53721 109.01035 192.56641 108.68555 C 193.96508 104.50512 195.3649 100.32496 196.76367 96.144531 C 197.73448 96.469432 198.70498 96.79434 199.67578 97.119141 C 200.06756 95.948198 200.45978 94.776512 200.85156 93.605469 z M 642.63477 93.605469 C 643.02655 94.776412 643.41877 95.948098 643.81055 97.119141 C 644.78135 96.79424 645.75185 96.469332 646.72266 96.144531 C 648.12133 100.32496 649.5192 104.50512 650.91797 108.68555 C 649.94726 109.01045 648.97666 109.33536 648.00586 109.66016 C 650.00755 115.64273 652.01003 121.62495 654.01172 127.60742 C 654.98252 127.28252 655.95302 126.95761 656.92383 126.63281 C 658.3225 130.81324 659.72037 134.9934 661.11914 139.17383 C 660.14834 139.49873 659.17784 139.82364 658.20703 140.14844 C 658.59881 141.31938 658.99103 142.49107 659.38281 143.66211 C 642.6974 149.24501 626.01158 154.82726 609.32617 160.41016 C 608.93439 159.23921 608.54412 158.06753 608.15234 156.89648 C 607.18154 157.22139 606.20909 157.54629 605.23828 157.87109 C 603.83961 153.69067 602.44174 149.5105 601.04297 145.33008 C 602.01377 145.00518 602.98427 144.68027 603.95508 144.35547 C 601.95329 138.37299 599.95091 132.39068 597.94922 126.4082 C 596.97841 126.7331 596.00791 127.05801 595.03711 127.38281 C 593.63844 123.20239 592.24057 119.02222 590.8418 114.8418 C 591.8126 114.5169 592.7831 114.19199 593.75391 113.86719 C 593.36213 112.69624 592.96991 111.52456 592.57812 110.35352 C 609.26354 104.77062 625.94936 99.188366 642.63477 93.605469 z M 393.4043 94.0625 C 396.53444 94.0625 399.07227 96.600324 399.07227 99.730469 C 399.07227 102.86061 396.53444 105.39844 393.4043 105.39844 C 390.27415 105.39844 387.73828 102.86061 387.73828 99.730469 C 387.73828 96.600324 390.27415 94.0625 393.4043 94.0625 z M 450.08008 94.0625 C 453.21022 94.0625 455.74805 96.600324 455.74805 99.730469 C 455.74805 102.86061 453.21022 105.39844 450.08008 105.39844 C 446.94993 105.39844 444.41211 102.86061 444.41211 99.730469 C 444.41211 96.600324 446.94993 94.0625 450.08008 94.0625 z M 19.761719 106.48633 C 22.891864 106.48633 25.429688 109.02415 25.429688 112.1543 C 25.429687 115.28444 22.891864 117.82227 19.761719 117.82227 C 16.631574 117.82227 14.09375 115.28444 14.09375 112.1543 C 14.09375 109.02415 16.631574 106.48633 19.761719 106.48633 z M 823.72266 106.48633 C 826.8528 106.48633 829.39062 109.02415 829.39062 112.1543 C 829.39062 115.28444 826.8528 117.82227 823.72266 117.82227 C 820.59251 117.82227 818.05664 115.28444 818.05664 112.1543 C 818.05664 109.02415 820.59251 106.48633 823.72266 106.48633 z M 268.92969 116.38477 C 285.6151 121.96766 302.30092 127.54992 318.98633 133.13281 C 318.59455 134.30376 318.20233 135.47544 317.81055 136.64648 C 318.78135 136.97139 319.75185 137.29629 320.72266 137.62109 C 319.32398 141.80152 317.92612 145.98168 316.52734 150.16211 C 315.55654 149.83721 314.58604 149.5123 313.61523 149.1875 C 311.61345 155.16998 309.61106 161.15229 307.60938 167.13477 C 308.58008 167.45967 309.55068 167.78457 310.52148 168.10938 C 309.12281 172.2898 307.72495 176.46997 306.32617 180.65039 C 305.35537 180.32549 304.38487 180.00058 303.41406 179.67578 C 303.02228 180.84672 302.63006 182.01841 302.23828 183.18945 C 285.55287 177.60656 268.86705 172.02235 252.18164 166.43945 C 252.57342 165.26851 252.96564 164.09878 253.35742 162.92773 C 252.38662 162.60283 251.41612 162.27793 250.44531 161.95312 C 251.84399 157.7727 253.24185 153.59253 254.64062 149.41211 C 255.61143 149.73701 256.58193 150.06192 257.55273 150.38672 C 259.55452 144.40414 261.5569 138.42193 263.55859 132.43945 C 262.58789 132.11455 261.61729 131.78964 260.64648 131.46484 C 262.04516 127.28442 263.44302 123.1023 264.8418 118.92188 C 265.8126 119.24678 266.7831 119.57168 267.75391 119.89648 C 268.14569 118.72554 268.53791 117.55581 268.92969 116.38477 z M 574.55469 116.38477 C 574.94647 117.55571 575.33869 118.72544 575.73047 119.89648 C 576.70127 119.57158 577.67177 119.24668 578.64258 118.92188 C 580.04125 123.1023 581.44107 127.28442 582.83984 131.46484 C 581.86914 131.78974 580.89854 132.1127 579.92773 132.4375 C 581.92952 138.41998 583.92995 144.40424 585.93164 150.38672 C 586.90244 150.06182 587.87295 149.73691 588.84375 149.41211 C 590.24242 153.59253 591.64224 157.7727 593.04102 161.95312 C 592.07021 162.27803 591.09971 162.60293 590.12891 162.92773 C 590.52069 164.09868 590.91291 165.26841 591.30469 166.43945 C 574.61928 172.02235 557.93346 177.60656 541.24805 183.18945 C 540.85627 182.01851 540.46405 180.84682 540.07227 179.67578 C 539.10146 180.00068 538.13096 180.32559 537.16016 180.65039 C 535.76148 176.46997 534.36166 172.2898 532.96289 168.10938 C 533.93359 167.78447 534.9042 167.45957 535.875 167.13477 C 533.87321 161.15219 531.87278 155.16998 529.87109 149.1875 C 528.90029 149.5124 527.92979 149.83731 526.95898 150.16211 C 525.56031 145.98168 524.16049 141.80152 522.76172 137.62109 C 523.73252 137.29619 524.70302 136.97129 525.67383 136.64648 C 525.28205 135.47554 524.88983 134.30386 524.49805 133.13281 C 541.18346 127.54992 557.86928 121.96766 574.55469 116.38477 z M 344.60156 116.4707 C 361.28697 122.0536 377.97279 127.63585 394.6582 133.21875 C 394.26642 134.38969 393.8742 135.56138 393.48242 136.73242 C 394.45323 137.05732 395.42568 137.38223 396.39648 137.70703 C 394.99781 141.88746 393.59799 146.06762 392.19922 150.24805 C 391.22841 149.92315 390.25791 149.59824 389.28711 149.27344 C 387.28542 155.25591 385.28294 161.23823 383.28125 167.2207 C 384.25205 167.5456 385.22256 167.87051 386.19336 168.19531 C 384.79469 172.37574 383.39682 176.5559 381.99805 180.73633 C 381.02724 180.41143 380.05674 180.08652 379.08594 179.76172 C 378.69416 180.93266 378.30194 182.10435 377.91016 183.27539 C 361.22475 177.69249 344.53893 172.10829 327.85352 166.52539 C 328.2453 165.35445 328.63752 164.18471 329.0293 163.01367 C 328.05859 162.68877 327.08799 162.36386 326.11719 162.03906 C 327.51586 157.85864 328.91373 153.67847 330.3125 149.49805 C 331.2833 149.82295 332.25576 150.14786 333.22656 150.47266 C 335.22825 144.49018 337.22878 138.50787 339.23047 132.52539 C 338.25966 132.20049 337.28916 131.87558 336.31836 131.55078 C 337.71703 127.37036 339.1149 123.19019 340.51367 119.00977 C 341.48438 119.33467 342.45693 119.65762 343.42773 119.98242 C 343.81951 118.81138 344.20978 117.64175 344.60156 116.4707 z M 498.88281 116.4707 C 499.27459 117.64175 499.66681 118.81138 500.05859 119.98242 C 501.0293 119.65752 501.9999 119.33261 502.9707 119.00781 C 504.36938 123.18824 505.76724 127.37036 507.16602 131.55078 C 506.19521 131.87568 505.22471 132.20059 504.25391 132.52539 C 506.2556 138.50787 508.25808 144.49018 510.25977 150.47266 C 511.23057 150.14776 512.20107 149.82285 513.17188 149.49805 C 514.57055 153.67847 515.97037 157.85864 517.36914 162.03906 C 516.39844 162.36396 515.42588 162.68887 514.45508 163.01367 C 514.84686 164.18461 515.23908 165.35435 515.63086 166.52539 C 498.94545 172.10829 482.25963 177.69249 465.57422 183.27539 C 465.18244 182.10445 464.79217 180.93276 464.40039 179.76172 C 463.42959 180.08662 462.45909 180.41153 461.48828 180.73633 C 460.08961 176.5559 458.68979 172.37574 457.29102 168.19531 C 458.26182 167.87041 459.23232 167.5455 460.20312 167.2207 C 458.20144 161.23823 456.20091 155.25591 454.19922 149.27344 C 453.22841 149.59834 452.25596 149.92325 451.28516 150.24805 C 449.88648 146.06762 448.48862 141.88746 447.08984 137.70703 C 448.06065 137.38213 449.03115 137.05722 450.00195 136.73242 C 449.61017 135.56148 449.21795 134.38979 448.82617 133.21875 C 465.51158 127.63585 482.1974 122.0536 498.88281 116.4707 z M 316.28906 205.70312 C 319.41921 205.70312 321.95703 208.24095 321.95703 211.37109 C 321.95703 214.50124 319.41921 217.03906 316.28906 217.03906 C 313.15892 217.03906 310.62109 214.50124 310.62109 211.37109 C 310.62109 208.24095 313.15892 205.70312 316.28906 205.70312 z M 527.19727 205.70312 C 530.32741 205.70312 532.86328 208.24095 532.86328 211.37109 C 532.86328 214.50124 530.32741 217.03906 527.19727 217.03906 C 524.06712 217.03906 521.5293 214.50124 521.5293 211.37109 C 521.5293 208.24095 524.06712 205.70312 527.19727 205.70312 z "
     transform="matrix(1.0003051,0,0,1.0003051,0,-0.11575579)" />
  <path
     id="path20"
     style="fill:#0000ff;fill-opacity:0.5;stroke:#000000;stroke-width:0.377838;stroke-linecap:butt;stroke-linejoin:miter;stroke-miterlimit:10;stroke-opacity:1"
     d="M 55.548828 4.1777344 C 43.809903 5.1112231 33.122945 12.898433 29.171875 24.707031 C 21.291179 48.260046 13.411946 71.814172 5.53125 95.367188 C 4.4641755 98.556415 3.9667969 101.77156 3.9667969 104.95898 C 3.9667969 117.56394 11.991317 129.40303 24.605469 133.62305 C 47.298546 141.21613 69.992469 148.80936 92.685547 156.40234 C 93.545485 156.69016 94.405687 156.97791 95.265625 157.26562 C 95.267324 157.26662 95.269785 157.26698 95.271484 157.26758 C 117.10292 164.57235 138.93418 171.87697 160.76562 179.18164 C 161.62556 179.46935 162.48577 179.75721 163.3457 180.04492 C 163.3457 180.04492 163.34766 180.04492 163.34766 180.04492 C 185.1798 187.34979 207.01171 194.65607 228.84375 201.96094 C 229.70369 202.24865 230.56379 202.53651 231.42383 202.82422 C 242.3404 206.4768 253.25726 210.12866 264.17383 213.78125 C 275.95044 217.72165 287.7273 221.66116 299.50391 225.60156 C 312.6218 229.99072 326.77961 224.7562 334.18555 213.78125 L 339.58984 213.78125 C 351.45203 217.75024 363.3136 221.71851 375.17578 225.6875 C 388.32777 230.08816 402.52607 224.81468 409.91602 213.78125 L 421.74414 213.78125 L 433.57422 213.78125 C 440.96416 224.81468 455.16051 230.08816 468.3125 225.6875 C 480.17468 221.71851 492.03821 217.75024 503.90039 213.78125 L 509.30469 213.78125 C 516.71063 224.7562 530.86843 229.99072 543.98633 225.60156 C 555.76294 221.66116 567.5398 217.72165 579.31641 213.78125 C 590.23298 210.12866 601.14788 206.4768 612.06445 202.82422 C 612.92439 202.53651 613.78449 202.24865 614.64453 201.96094 C 636.47667 194.65607 658.30858 187.34979 680.14062 180.04492 C 680.14162 180.04462 680.14353 180.04532 680.14453 180.04492 C 681.00447 179.75721 681.86467 179.46935 682.72461 179.18164 C 704.55605 171.87697 726.38731 164.57225 748.21875 157.26758 C 748.22075 157.26658 748.22066 157.26622 748.22266 157.26562 C 749.08259 156.97781 749.9428 156.69006 750.80273 156.40234 C 773.49581 148.80926 796.18974 141.21603 818.88281 133.62305 C 831.49487 129.40313 839.51953 117.56394 839.51953 104.95898 C 839.51953 101.77156 839.02411 98.556415 837.95703 95.367188 C 830.07634 71.814172 822.19525 48.260046 814.31445 24.707031 C 809.04636 8.9623342 791.80339 0.36667267 776.05859 5.6347656 C 753.36552 13.227849 730.67159 20.819126 707.97852 28.412109 C 707.11858 28.699922 706.25838 28.987678 705.39844 29.275391 C 705.39644 29.27589 705.39553 29.276844 705.39453 29.277344 C 683.56289 36.582115 661.73008 43.886635 639.89844 51.191406 C 639.0384 51.479218 638.1783 51.766975 637.31836 52.054688 C 615.48512 59.359959 593.65345 66.665432 571.82031 73.970703 C 570.96037 74.258515 570.10017 74.546272 569.24023 74.833984 C 569.23823 74.834484 569.23637 74.835438 569.23438 74.835938 L 536.49023 85.792969 L 530.77148 85.792969 C 523.34965 74.876799 509.22999 69.678976 496.14648 74.056641 C 484.45555 77.968347 472.76515 81.881262 461.07422 85.792969 L 421.74414 85.792969 L 382.41211 85.792969 C 370.72118 81.881262 359.03078 77.968347 347.33984 74.056641 C 334.25623 69.678876 320.13853 74.876699 312.7168 85.792969 L 306.99609 85.792969 L 274.25195 74.835938 C 274.24995 74.835438 274.24809 74.834484 274.24609 74.833984 C 273.38616 74.546172 272.52791 74.258415 271.66797 73.970703 C 249.83473 66.665432 228.00111 59.359959 206.16797 52.054688 C 205.30793 51.766875 204.44783 51.479118 203.58789 51.191406 C 181.75625 43.886635 159.92539 36.582115 138.09375 29.277344 C 138.09175 29.276844 138.08989 29.27589 138.08789 29.275391 C 137.22795 28.987678 136.36775 28.699822 135.50781 28.412109 C 112.81474 20.819126 90.120812 13.227749 67.427734 5.6347656 C 63.49156 4.3177424 59.461803 3.8665715 55.548828 4.1777344 z M 50.640625 14.197266 C 53.77077 14.197266 56.308594 16.735089 56.308594 19.865234 C 56.308594 22.99538 53.77077 25.533203 50.640625 25.533203 C 47.51048 25.533203 44.974609 22.99538 44.974609 19.865234 C 44.974609 16.735089 47.51048 14.197266 50.640625 14.197266 z M 792.84375 14.197266 C 795.9739 14.197266 798.51172 16.735089 798.51172 19.865234 C 798.51172 22.99538 795.9739 25.533203 792.84375 25.533203 C 789.7136 25.533203 787.17578 22.99538 787.17578 19.865234 C 787.17578 16.735089 789.7136 14.197266 792.84375 14.197266 z M 781.52344 31.693359 C 783.86362 33.933476 786.8662 35.486809 790.20898 36.027344 C 797.43688 57.629554 804.66654 79.231874 811.89453 100.83398 C 809.65441 103.17417 808.10108 106.17675 807.56055 109.51953 C 785.84337 116.78601 764.12538 124.05383 742.4082 131.32031 C 741.54827 131.60812 740.68806 131.89588 739.82812 132.18359 C 739.82613 132.18459 739.82622 132.18495 739.82422 132.18555 C 717.99278 139.49022 696.16152 146.79494 674.33008 154.09961 C 673.47014 154.38742 672.60994 154.67518 671.75 154.96289 C 671.749 154.96319 671.74709 154.96249 671.74609 154.96289 C 649.91405 162.26776 628.08204 169.57403 606.25 176.87891 C 605.39006 177.16672 604.53181 177.45448 603.67188 177.74219 L 538.51758 199.54102 C 536.17739 197.3009 533.17286 195.74952 529.83008 195.20898 C 528.02523 189.81493 526.22087 184.41945 524.41602 179.02539 C 502.91727 186.2188 481.41866 193.41206 459.91992 200.60547 C 457.94103 201.26757 455.79882 200.20155 455.13672 198.22266 C 447.25602 174.66964 439.37484 151.11552 431.49414 127.5625 C 431.36108 127.16482 431.29883 126.76076 431.29883 126.36328 L 431.29688 126.36328 C 431.29687 124.78296 432.29769 123.31029 433.87891 122.78125 C 457.43192 114.90055 480.98409 107.01937 504.53711 99.138672 C 506.51601 98.476574 508.65626 99.544541 509.31836 101.52344 C 511.44981 107.89339 513.58154 114.26286 515.71289 120.63281 C 536.3501 113.72772 556.9878 106.82306 577.625 99.917969 C 577.627 99.917469 577.62886 99.916515 577.63086 99.916016 C 578.4908 99.628203 579.34905 99.340447 580.20898 99.052734 C 602.04222 91.747463 623.87584 84.44199 645.70898 77.136719 C 646.56892 76.848907 647.42912 76.56115 648.28906 76.273438 C 670.1207 68.968666 691.95156 61.664147 713.7832 54.359375 C 713.7852 54.358875 713.78806 54.357922 713.78906 54.357422 C 714.649 54.06961 715.5092 53.781853 716.36914 53.494141 L 781.52344 31.693359 z M 61.960938 31.695312 L 127.11523 53.494141 C 127.97517 53.781953 128.83537 54.06971 129.69531 54.357422 C 129.69631 54.357922 129.69822 54.358875 129.69922 54.359375 C 151.53086 61.664147 173.36172 68.968666 195.19336 76.273438 C 196.0533 76.56125 196.9135 76.849007 197.77344 77.136719 C 219.60668 84.44199 241.4403 91.747463 263.27344 99.052734 C 264.13338 99.340547 264.99358 99.628303 265.85352 99.916016 C 265.85552 99.916515 265.85738 99.917469 265.85938 99.917969 C 286.49658 106.82306 307.13233 113.72772 327.76953 120.63281 C 329.90098 114.26286 332.03271 107.89339 334.16406 101.52344 C 334.82626 99.544441 336.96642 98.476574 338.94531 99.138672 C 362.49833 107.01937 386.05245 114.90055 409.60547 122.78125 C 411.18669 123.31029 412.18555 124.78296 412.18555 126.36328 C 412.18555 126.76076 412.12329 127.16482 411.99023 127.5625 C 404.10954 151.11552 396.22835 174.66964 388.34766 198.22266 C 387.68546 200.20165 385.54335 201.26952 383.56445 200.60742 C 362.06571 193.41402 340.5671 186.22075 319.06836 179.02734 C 317.26351 184.4214 315.45915 189.81493 313.6543 195.20898 C 310.31152 195.74942 307.30894 197.3009 304.96875 199.54102 L 239.81445 177.74219 C 238.95452 177.45438 238.09431 177.16662 237.23438 176.87891 C 215.40233 169.57403 193.57032 162.26776 171.73828 154.96289 C 171.73728 154.96259 171.73537 154.96329 171.73438 154.96289 C 170.87444 154.67508 170.01423 154.38732 169.1543 154.09961 C 147.32286 146.79494 125.4916 139.49022 103.66016 132.18555 C 103.65816 132.18455 103.65825 132.18419 103.65625 132.18359 C 102.79631 131.89578 101.93611 131.60802 101.07617 131.32031 C 79.358997 124.05383 57.641003 116.78797 35.923828 109.52148 C 35.383393 106.1787 33.831914 103.17417 31.591797 100.83398 L 31.589844 100.83398 C 38.817739 79.231874 46.047396 57.629454 53.275391 36.027344 C 56.618171 35.486909 59.620751 33.935429 61.960938 31.695312 z M 393.4043 94.0625 C 396.53444 94.0625 399.07227 96.600324 399.07227 99.730469 C 399.07227 102.86061 396.53444 105.39844 393.4043 105.39844 C 390.27415 105.39844 387.73828 102.86061 387.73828 99.730469 C 387.73828 96.600324 390.27415 94.0625 393.4043 94.0625 z M 450.08008 94.0625 C 453.21022 94.0625 455.74805 96.600324 455.74805 99.730469 C 455.74805 102.86061 453.21022 105.39844 450.08008 105.39844 C 446.94993 105.39844 444.41211 102.86061 444.41211 99.730469 C 444.41211 96.600324 446.94993 94.0625 450.08008 94.0625 z M 19.761719 106.48633 C 22.891864 106.48633 25.429688 109.02415 25.429688 112.1543 C 25.429687 115.28444 22.891864 117.82227 19.761719 117.82227 C 16.631574 117.82227 14.09375 115.28444 14.09375 112.1543 C 14.09375 109.02415 16.631574 106.48633 19.761719 106.48633 z M 823.72266 106.48633 C 826.8528 106.48633 829.39062 109.02415 829.39062 112.1543 C 829.39062 115.28444 826.8528 117.82227 823.72266 117.82227 C 820.59251 117.82227 818.05664 115.28444 818.05664 112.1543 C 818.05664 109.02415 820.59251 106.48633 823.72266 106.48633 z M 316.28906 205.70312 C 319.41921 205.70312 321.95703 208.24095 321.95703 211.37109 C 321.95703 214.50124 319.41921 217.03906 316.28906 217.03906 C 313.15892 217.03906 310.62109 214.50124 310.62109 211.37109 C 310.62109 208.24095 313.15892 205.70312 316.28906 205.70312 z M 527.19727 205.70312 C 530.32741 205.70312 532.86328 208.24095 532.86328 211.37109 C 532.86328 214.50124 530.32741 217.03906 527.19727 217.03906 C 524.06712 217.03906 521.5293 214.50124 521.5293 211.37109 C 521.5293 208.24095 524.06712 205.70312 527.19727 205.70312 z "
     transform="matrix(1.0003051,0,0,1.0003051,0,-0.11575579)" />
  <g
     stroke-linejoin="miter"
     stroke-opacity="1.0"
     fill-opacity="0.7"
     stroke="rgb(0,0,0)"
     stroke-width="0.37795275590551186"
     fill="rgb(0,0,0)"
     stroke-linecap="butt"
     stroke-miterlimit="10.0"
     id="g26">
    <path
       d="M 319.1113,164.8976 l 17.5932,-52.5804 c 1.3247,-3.9590 5.6079,-6.0946 9.5670 -4.7699l 52.5804,17.5932 c 3.9590,1.3247 6.0946,5.6079 4.7699 9.5670l -17.5932,52.5804 c -1.3247,3.9590 -5.6079,6.0946 -9.5670 4.7699l -52.5804,-17.5932 c -3.9590,-1.3247 -6.0946,-5.6079 -4.7699 -9.5670Z"
       id="path24" />
  </g>
  <defs
     id="defs35">
    <linearGradient
       x2="5.0000"
       y1="0.0000"
       gradientUnits="userSpaceOnUse"
       spreadMethod="pad"
       gradientTransform="matrix(-3.5842,-1.1993,1.1993,-3.5842,361.3665,149.8025)"
       id="gradient12"
       y2="0.0000"
       x1="-5.0000">
      <stop
         stop-opacity="0.1000"
         offset="0.0000"
         stop-color="rgb(0,0,0)"
         id="stop28" />
      <stop
         stop-opacity="0.1000"
         offset="0.5000"
         stop-color="rgb(255,255,255)"
         id="stop30" />
      <stop
         stop-opacity="0.1000"
         offset="1.0000"
         stop-color="rgb(0,0,0)"
         id="stop32" />
    </linearGradient>
  </defs>
  <g
     stroke-linejoin="miter"
     stroke-opacity="1.0"
     fill-opacity="1"
     stroke="rgb(0,0,0)"
     stroke-width="0.37795275590551186"
     fill="url(#gradient12)"
     stroke-linecap="butt"
     stroke-miterlimit="10.0"
     id="g39">
    <path
       d="M 332.7442,158.1005 l 10.7574,-32.1504 c 1.3247,-3.9590 5.6079,-6.0946 9.5670 -4.7699l 32.1504,10.7574 c 3.9590,1.3247 6.0946,5.6079 4.7699 9.5670l -10.7574,32.1504 c -1.3247,3.9590 -5.6079,6.0946 -9.5670 4.7699l -32.1504,-10.7574 c -3.9590,-1.3247 -6.0946,-5.6079 -4.7699 -9.5670Z"
       id="path37" />
  </g>
  <g
     stroke-linejoin="miter"
     stroke-opacity="1.0"
     fill-opacity="0.7"
     stroke="rgb(0,0,0)"
     stroke-width="0.37795275590551186"
     fill="rgb(0,0,0)"
     stroke-linecap="butt"
     stroke-miterlimit="10.0"
     id="g43">
    <path
       d="M 39.1156,96.4537 l 17.5932,-52.5804 c 1.3247,-3.9590 5.6079,-6.0946 9.5670 -4.7699l 52.5804,17.5932 c 3.9590,1.3247 6.0946,5.6079 4.7699 9.5670l -17.5932,52.5804 c -1.3247,3.9590 -5.6079,6.0946 -9.5670 4.7699l -52.5804,-17.5932 c -3.9590,-1.3247 -6.0946,-5.6079 -4.7699 -9.5670Z"
       id="path41" />
  </g>
  <defs
     id="defs52">
    <linearGradient
       x2="5.0000"
       y1="0.0000"
       gradientUnits="userSpaceOnUse"
       spreadMethod="pad"
       gradientTransform="matrix(-3.5842,-1.1993,1.1993,-3.5842,81.3708,81.3586)"
       id="gradient16"
       y2="0.0000"
       x1="-5.0000">
      <stop
         stop-opacity="0.1000"
         offset="0.0000"
         stop-color="rgb(0,0,0)"
         id="stop45" />
      <stop
         stop-opacity="0.1000"
         offset="0.5000"
         stop-color="rgb(255,255,255)"
         id="stop47" />
      <stop
         stop-opacity="0.1000"
         offset="1.0000"
         stop-color="rgb(0,0,0)"
         id="stop49" />
    </linearGradient>
  </defs>
  <g
     stroke-linejoin="miter"
     stroke-opacity="1.0"
     fill-opacity="1"
     stroke="rgb(0,0,0)"
     stroke-width="0.37795275590551186"
     fill="url(#gradient16)"
     stroke-linecap="butt"
     stroke-miterlimit="10.0"
     id="g56">
    <path
       d="M 52.7485,89.6566 l 10.7574,-32.1504 c 1.3247,-3.9590 5.6079,-6.0946 9.5670 -4.7699l 32.1504,10.7574 c 3.9590,1.3247 6.0946,5.6079 4.7699 9.5670l -10.7574,32.1504 c -1.3247,3.9590 -5.6079,6.0946 -9.5670 4.7699l -32.1504,-10.7574 c -3.9590,-1.3247 -6.0946,-5.6079 -4.7699 -9.5670Z"
       id="path54" />
  </g>
  <g
     stroke-linejoin="miter"
     stroke-opacity="1.0"
     fill-opacity="0.7"
     stroke="rgb(0,0,0)"
     stroke-width="0.37795275590551186"
     fill="rgb(0,0,0)"
     stroke-linecap="butt"
     stroke-miterlimit="10.0"
     id="g60">
    <path
       d="M 107.2157,119.2397 l 17.5932,-52.5804 c 1.3247,-3.9590 5.6079,-6.0946 9.5670 -4.7699l 52.5804,17.5932 c 3.9590,1.3247 6.0946,5.6079 4.7699 9.5670l -17.5932,52.5804 c -1.3247,3.9590 -5.6079,6.0946 -9.5670 4.7699l -52.5804,-17.5932 c -3.9590,-1.3247 -6.0946,-5.6079 -4.7699 -9.5670Z"
       id="path58" />
  </g>
  <defs
     id="defs69">
    <linearGradient
       x2="5.0000"
       y1="0.0000"
       gradientUnits="userSpaceOnUse"
       spreadMethod="pad"
       gradientTransform="matrix(-3.5842,-1.1993,1.1993,-3.5842,149.4709,104.1446)"
       id="gradient20"
       y2="0.0000"
       x1="-5.0000">
      <stop
         stop-opacity="0.1000"
         offset="0.0000"
         stop-color="rgb(0,0,0)"
         id="stop62" />
      <stop
         stop-opacity="0.1000"
         offset="0.5000"
         stop-color="rgb(255,255,255)"
         id="stop64" />
      <stop
         stop-opacity="0.1000"
         offset="1.0000"
         stop-color="rgb(0,0,0)"
         id="stop66" />
    </linearGradient>
  </defs>
  <g
     stroke-linejoin="miter"
     stroke-opacity="1.0"
     fill-opacity="1"
     stroke="rgb(0,0,0)"
     stroke-width="0.37795275590551186"
     fill="url(#gradient20)"
     stroke-linecap="butt"
     stroke-miterlimit="10.0"
     id="g73">
    <path
       d="M 120.8486,112.4426 l 10.7574,-32.1504 c 1.3247,-3.9590 5.6079,-6.0946 9.5670 -4.7699l 32.1504,10.7574 c 3.9590,1.3247 6.0946,5.6079 4.7699 9.5670l -10.7574,32.1504 c -1.3247,3.9590 -5.6079,6.0946 -9.5670 4.7699l -32.1504,-10.7574 c -3.9590,-1.3247 -6.0946,-5.6079 -4.7699 -9.5670Z"
       id="path71" />
  </g>
  <g
     stroke-linejoin="miter"
     stroke-opacity="1.0"
     fill-opacity="0.7"
     stroke="rgb(0,0,0)"
     stroke-width="0.37795275590551186"
     fill="rgb(0,0,0)"
     stroke-linecap="butt"
     stroke-miterlimit="10.0"
     id="g77">
    <path
       d="M 175.3158,142.0257 l 17.5932,-52.5804 c 1.3247,-3.9590 5.6079,-6.0946 9.5670 -4.7699l 52.5804,17.5932 c 3.9590,1.3247 6.0946,5.6079 4.7699 9.5670l -17.5932,52.5804 c -1.3247,3.9590 -5.6079,6.0946 -9.5670 4.7699l -52.5804,-17.5932 c -3.9590,-1.3247 -6.0946,-5.6079 -4.7699 -9.5670Z"
       id="path75" />
  </g>
  <defs
     id="defs86">
    <linearGradient
       x2="5.0000"
       y1="0.0000"
       gradientUnits="userSpaceOnUse"
       spreadMethod="pad"
       gradientTransform="matrix(-3.5842,-1.1993,1.1993,-3.5842,217.5710,126.9305)"
       id="gradient24"
       y2="0.0000"
       x1="-5.0000">
      <stop
         stop-opacity="0.1000"
         offset="0.0000"
         stop-color="rgb(0,0,0)"
         id="stop79" />
      <stop
         stop-opacity="0.1000"
         offset="0.5000"
         stop-color="rgb(255,255,255)"
         id="stop81" />
      <stop
         stop-opacity="0.1000"
         offset="1.0000"
         stop-color="rgb(0,0,0)"
         id="stop83" />
    </linearGradient>
  </defs>
  <g
     stroke-linejoin="miter"
     stroke-opacity="1.0"
     fill-opacity="1"
     stroke="rgb(0,0,0)"
     stroke-width="0.37795275590551186"
     fill="url(#gradient24)"
     stroke-linecap="butt"
     stroke-miterlimit="10.0"
     id="g90">
    <path
       d="M 188.9487,135.2285 l 10.7574,-32.1504 c 1.3247,-3.9590 5.6079,-6.0946 9.5670 -4.7699l 32.1504,10.7574 c 3.9590,1.3247 6.0946,5.6079 4.7699 9.5670l -10.7574,32.1504 c -1.3247,3.9590 -5.6079,6.0946 -9.5670 4.7699l -32.1504,-10.7574 c -3.9590,-1.3247 -6.0946,-5.6079 -4.7699 -9.5670Z"
       id="path88" />
  </g>
  <g
     stroke-linejoin="miter"
     stroke-opacity="1.0"
     fill-opacity="0.7"
     stroke="rgb(0,0,0)"
     stroke-width="0.37795275590551186"
     fill="rgb(0,0,0)"
     stroke-linecap="butt"
     stroke-miterlimit="10.0"
     id="g94">
    <path
       d="M 243.4159,164.8116 l 17.5932,-52.5804 c 1.3247,-3.9590 5.6079,-6.0946 9.5670 -4.7699l 52.5804,17.5932 c 3.9590,1.3247 6.0946,5.6079 4.7699 9.5670l -17.5932,52.5804 c -1.3247,3.9590 -5.6079,6.0946 -9.5670 4.7699l -52.5804,-17.5932 c -3.9590,-1.3247 -6.0946,-5.6079 -4.7699 -9.5670Z"
       id="path92" />
  </g>
  <defs
     id="defs103">
    <linearGradient
       x2="5.0000"
       y1="0.0000"
       gradientUnits="userSpaceOnUse"
       spreadMethod="pad"
       gradientTransform="matrix(-3.5842,-1.1993,1.1993,-3.5842,285.6711,149.7165)"
       id="gradient28"
       y2="0.0000"
       x1="-5.0000">
      <stop
         stop-opacity="0.1000"
         offset="0.0000"
         stop-color="rgb(0,0,0)"
         id="stop96" />
      <stop
         stop-opacity="0.1000"
         offset="0.5000"
         stop-color="rgb(255,255,255)"
         id="stop98" />
      <stop
         stop-opacity="0.1000"
         offset="1.0000"
         stop-color="rgb(0,0,0)"
         id="stop100" />
    </linearGradient>
  </defs>
  <g
     stroke-linejoin="miter"
     stroke-opacity="1.0"
     fill-opacity="1"
     stroke="rgb(0,0,0)"
     stroke-width="0.37795275590551186"
     fill="url(#gradient28)"
     stroke-linecap="butt"
     stroke-miterlimit="10.0"
     id="g107">
    <path
       d="M 257.0488,158.0145 l 10.7574,-32.1504 c 1.3247,-3.9590 5.6079,-6.0946 9.5670 -4.7699l 32.1504,10.7574 c 3.9590,1.3247 6.0946,5.6079 4.7699 9.5670l -10.7574,32.1504 c -1.3247,3.9590 -5.6079,6.0946 -9.5670 4.7699l -32.1504,-10.7574 c -3.9590,-1.3247 -6.0946,-5.6079 -4.7699 -9.5670Z"
       id="path105" />
  </g>
  <g
     stroke-linejoin="miter"
     stroke-opacity="1.0"
     fill-opacity="0.7"
     stroke="rgb(0,0,0)"
     stroke-width="0.37795275590551186"
     fill="rgb(0,0,0)"
     stroke-linecap="butt"
     stroke-miterlimit="10.0"
     id="g111">
    <path
       d="M 524.6313,164.8976 l -17.5932,-52.5804 c -1.3247,-3.9590 -5.6079,-6.0946 -9.5670 -4.7699l -52.5804,17.5932 c -3.9590,1.3247 -6.0946,5.6079 -4.7699 9.5670l 17.5932,52.5804 c 1.3247,3.9590 5.6079,6.0946 9.5670 4.7699l 52.5804,-17.5932 c 3.9590,-1.3247 6.0946,-5.6079 4.7699 -9.5670Z"
       id="path109" />
  </g>
  <defs
     id="defs120">
    <linearGradient
       x2="5.0000"
       y1="0.0000"
       gradientUnits="userSpaceOnUse"
       spreadMethod="pad"
       gradientTransform="matrix(3.5842,-1.1993,-1.1993,-3.5842,482.3761,149.8025)"
       id="gradient32"
       y2="0.0000"
       x1="-5.0000">
      <stop
         stop-opacity="0.1000"
         offset="0.0000"
         stop-color="rgb(0,0,0)"
         id="stop113" />
      <stop
         stop-opacity="0.1000"
         offset="0.5000"
         stop-color="rgb(255,255,255)"
         id="stop115" />
      <stop
         stop-opacity="0.1000"
         offset="1.0000"
         stop-color="rgb(0,0,0)"
         id="stop117" />
    </linearGradient>
  </defs>
  <g
     stroke-linejoin="miter"
     stroke-opacity="1.0"
     fill-opacity="1"
     stroke="rgb(0,0,0)"
     stroke-width="0.37795275590551186"
     fill="url(#gradient32)"
     stroke-linecap="butt"
     stroke-miterlimit="10.0"
     id="g124">
    <path
       d="M 510.9984,158.1005 l -10.7574,-32.1504 c -1.3247,-3.9590 -5.6079,-6.0946 -9.5670 -4.7699l -32.1504,10.7574 c -3.9590,1.3247 -6.0946,5.6079 -4.7699 9.5670l 10.7574,32.1504 c 1.3247,3.9590 5.6079,6.0946 9.5670 4.7699l 32.1504,-10.7574 c 3.9590,-1.3247 6.0946,-5.6079 4.7699 -9.5670Z"
       id="path122" />
  </g>
  <g
     stroke-linejoin="miter"
     stroke-opacity="1.0"
     fill-opacity="0.7"
     stroke="rgb(0,0,0)"
     stroke-width="0.37795275590551186"
     fill="rgb(0,0,0)"
     stroke-linecap="butt"
     stroke-miterlimit="10.0"
     id="g128">
    <path
       d="M 804.6270,96.4537 l -17.5932,-52.5804 c -1.3247,-3.9590 -5.6079,-6.0946 -9.5670 -4.7699l -52.5804,17.5932 c -3.9590,1.3247 -6.0946,5.6079 -4.7699 9.5670l 17.5932,52.5804 c 1.3247,3.9590 5.6079,6.0946 9.5670 4.7699l 52.5804,-17.5932 c 3.9590,-1.3247 6.0946,-5.6079 4.7699 -9.5670Z"
       id="path126" />
  </g>
  <defs
     id="defs137">
    <linearGradient
       x2="5.0000"
       y1="0.0000"
       gradientUnits="userSpaceOnUse"
       spreadMethod="pad"
       gradientTransform="matrix(3.5842,-1.1993,-1.1993,-3.5842,762.3718,81.3586)"
       id="gradient36"
       y2="0.0000"
       x1="-5.0000">
      <stop
         stop-opacity="0.1000"
         offset="0.0000"
         stop-color="rgb(0,0,0)"
         id="stop130" />
      <stop
         stop-opacity="0.1000"
         offset="0.5000"
         stop-color="rgb(255,255,255)"
         id="stop132" />
      <stop
         stop-opacity="0.1000"
         offset="1.0000"
         stop-color="rgb(0,0,0)"
         id="stop134" />
    </linearGradient>
  </defs>
  <g
     stroke-linejoin="miter"
     stroke-opacity="1.0"
     fill-opacity="1"
     stroke="rgb(0,0,0)"
     stroke-width="0.37795275590551186"
     fill="url(#gradient36)"
     stroke-linecap="butt"
     stroke-miterlimit="10.0"
     id="g141">
    <path
       d="M 790.9941,89.6566 l -10.7574,-32.1504 c -1.3247,-3.9590 -5.6079,-6.0946 -9.5670 -4.7699l -32.1504,10.7574 c -3.9590,1.3247 -6.0946,5.6079 -4.7699 9.5670l 10.7574,32.1504 c 1.3247,3.9590 5.6079,6.0946 9.5670 4.7699l 32.1504,-10.7574 c 3.9590,-1.3247 6.0946,-5.6079 4.7699 -9.5670Z"
       id="path139" />
  </g>
  <g
     stroke-linejoin="miter"
     stroke-opacity="1.0"
     fill-opacity="0.7"
     stroke="rgb(0,0,0)"
     stroke-width="0.37795275590551186"
     fill="rgb(0,0,0)"
     stroke-linecap="butt"
     stroke-miterlimit="10.0"
     id="g145">
    <path
       d="M 736.5269,119.2397 l -17.5932,-52.5804 c -1.3247,-3.9590 -5.6079,-6.0946 -9.5670 -4.7699l -52.5804,17.5932 c -3.9590,1.3247 -6.0946,5.6079 -4.7699 9.5670l 17.5932,52.5804 c 1.3247,3.9590 5.6079,6.0946 9.5670 4.7699l 52.5804,-17.5932 c 3.9590,-1.3247 6.0946,-5.6079 4.7699 -9.5670Z"
       id="path143" />
  </g>
  <defs
     id="defs154">
    <linearGradient
       x2="5.0000"
       y1="0.0000"
       gradientUnits="userSpaceOnUse"
       spreadMethod="pad"
       gradientTransform="matrix(3.5842,-1.1993,-1.1993,-3.5842,694.2717,104.1446)"
       id="gradient40"
       y2="0.0000"
       x1="-5.0000">
      <stop
         stop-opacity="0.1000"
         offset="0.0000"
         stop-color="rgb(0,0,0)"
         id="stop147" />
      <stop
         stop-opacity="0.1000"
         offset="0.5000"
         stop-color="rgb(255,255,255)"
         id="stop149" />
      <stop
         stop-opacity="0.1000"
         offset="1.0000"
         stop-color="rgb(0,0,0)"
         id="stop151" />
    </linearGradient>
  </defs>
  <g
     stroke-linejoin="miter"
     stroke-opacity="1.0"
     fill-opacity="1"
     stroke="rgb(0,0,0)"
     stroke-width="0.37795275590551186"
     fill="url(#gradient40)"
     stroke-linecap="butt"
     stroke-miterlimit="10.0"
     id="g158">
    <path
       d="M 722.8940,112.4426 l -10.7574,-32.1504 c -1.3247,-3.9590 -5.6079,-6.0946 -9.5670 -4.7699l -32.1504,10.7574 c -3.9590,1.3247 -6.0946,5.6079 -4.7699 9.5670l 10.7574,32.1504 c 1.3247,3.9590 5.6079,6.0946 9.5670 4.7699l 32.1504,-10.7574 c 3.9590,-1.3247 6.0946,-5.6079 4.7699 -9.5670Z"
       id="path156" />
  </g>
  <g
     stroke-linejoin="miter"
     stroke-opacity="1.0"
     fill-opacity="0.7"
     stroke="rgb(0,0,0)"
     stroke-width="0.37795275590551186"
     fill="rgb(0,0,0)"
     stroke-linecap="butt"
     stroke-miterlimit="10.0"
     id="g162">
    <path
       d="M 668.4268,142.0257 l -17.5932,-52.5804 c -1.3247,-3.9590 -5.6079,-6.0946 -9.5670 -4.7699l -52.5804,17.5932 c -3.9590,1.3247 -6.0946,5.6079 -4.7699 9.5670l 17.5932,52.5804 c 1.3247,3.9590 5.6079,6.0946 9.5670 4.7699l 52.5804,-17.5932 c 3.9590,-1.3247 6.0946,-5.6079 4.7699 -9.5670Z"
       id="path160" />
  </g>
  <defs
     id="defs171">
    <linearGradient
       x2="5.0000"
       y1="0.0000"
       gradientUnits="userSpaceOnUse"
       spreadMethod="pad"
       gradientTransform="matrix(3.5842,-1.1993,-1.1993,-3.5842,626.1716,126.9305)"
       id="gradient44"
       y2="0.0000"
       x1="-5.0000">
      <stop
         stop-opacity="0.1000"
         offset="0.0000"
         stop-color="rgb(0,0,0)"
         id="stop164" />
      <stop
         stop-opacity="0.1000"
         offset="0.5000"
         stop-color="rgb(255,255,255)"
         id="stop166" />
      <stop
         stop-opacity="0.1000"
         offset="1.0000"
         stop-color="rgb(0,0,0)"
         id="stop168" />
    </linearGradient>
  </defs>
  <g
     stroke-linejoin="miter"
     stroke-opacity="1.0"
     fill-opacity="1"
     stroke="rgb(0,0,0)"
     stroke-width="0.37795275590551186"
     fill="url(#gradient44)"
     stroke-linecap="butt"
     stroke-miterlimit="10.0"
     id="g175">
    <path
       d="M 654.7939,135.2285 l -10.7574,-32.1504 c -1.3247,-3.9590 -5.6079,-6.0946 -9.5670 -4.7699l -32.1504,10.7574 c -3.9590,1.3247 -6.0946,5.6079 -4.7699 9.5670l 10.7574,32.1504 c 1.3247,3.9590 5.6079,6.0946 9.5670 4.7699l 32.1504,-10.7574 c 3.9590,-1.3247 6.0946,-5.6079 4.7699 -9.5670Z"
       id="path173" />
  </g>
  <g
     stroke-linejoin="miter"
     stroke-opacity="1.0"
     fill-opacity="0.7"
     stroke="rgb(0,0,0)"
     stroke-width="0.37795275590551186"
     fill="rgb(0,0,0)"
     stroke-linecap="butt"
     stroke-miterlimit="10.0"
     id="g179">
    <path
       d="M 600.3267,164.8116 l -17.5932,-52.5804 c -1.3247,-3.9590 -5.6079,-6.0946 -9.5670 -4.7699l -52.5804,17.5932 c -3.9590,1.3247 -6.0946,5.6079 -4.7699 9.5670l 17.5932,52.5804 c 1.3247,3.9590 5.6079,6.0946 9.5670 4.7699l 52.5804,-17.5932 c 3.9590,-1.3247 6.0946,-5.6079 4.7699 -9.5670Z"
       id="path177" />
  </g>
  <defs
     id="defs188">
    <linearGradient
       x2="5.0000"
       y1="0.0000"
       gradientUnits="userSpaceOnUse"
       spreadMethod="pad"
       gradientTransform="matrix(3.5842,-1.1993,-1.1993,-3.5842,558.0715,149.7165)"
       id="gradient48"
       y2="0.0000"
       x1="-5.0000">
      <stop
         stop-opacity="0.1000"
         offset="0.0000"
         stop-color="rgb(0,0,0)"
         id="stop181" />
      <stop
         stop-opacity="0.1000"
         offset="0.5000"
         stop-color="rgb(255,255,255)"
         id="stop183" />
      <stop
         stop-opacity="0.1000"
         offset="1.0000"
         stop-color="rgb(0,0,0)"
         id="stop185" />
    </linearGradient>
  </defs>
  <g
     stroke-linejoin="miter"
     stroke-opacity="1.0"
     fill-opacity="1"
     stroke="rgb(0,0,0)"
     stroke-width="0.37795275590551186"
     fill="url(#gradient48)"
     stroke-linecap="butt"
     stroke-miterlimit="10.0"
     id="g192">
    <path
       d="M 586.6938,158.0145 l -10.7574,-32.1504 c -1.3247,-3.9590 -5.6079,-6.0946 -9.5670 -4.7699l -32.1504,10.7574 c -3.9590,1.3247 -6.0946,5.6079 -4.7699 9.5670l 10.7574,32.1504 c 1.3247,3.9590 5.6079,6.0946 9.5670 4.7699l 32.1504,-10.7574 c 3.9590,-1.3247 6.0946,-5.6079 4.7699 -9.5670Z"
       id="path190" />
  </g>
  <g
     stroke-linejoin="miter"
     stroke-opacity="1.0"
     fill-opacity="0.7"
     stroke="rgb(0,0,0)"
     stroke-width="0.37795275590551186"
     fill="rgb(0,0,0)"
     stroke-linecap="butt"
     stroke-miterlimit="10.0"
     id="g196">
    <path
       d="M 43.0193,32.9840 l -7.6374,-13.2283 l 7.6374,-13.2283 l 15.2748,-0.0000 l 7.6374,13.2283 l -7.6374,13.2283 Z"
       id="path194" />
  </g>
  <g
     stroke-linejoin="miter"
     stroke-opacity="1.0"
     fill-opacity="0.7"
     stroke="rgb(0,0,0)"
     stroke-width="0.37795275590551186"
     fill="rgb(0,0,0)"
     stroke-linecap="butt"
     stroke-miterlimit="10.0"
     id="g200">
    <path
       d="M 385.8875,112.8734 l -7.6374,-13.2283 l 7.6374,-13.2283 l 15.2748,-0.0000 l 7.6374,13.2283 l -7.6374,13.2283 Z"
       id="path198" />
  </g>
  <g
     stroke-linejoin="miter"
     stroke-opacity="1.0"
     fill-opacity="0.7"
     stroke="rgb(0,0,0)"
     stroke-width="0.37795275590551186"
     fill="rgb(0,0,0)"
     stroke-linecap="butt"
     stroke-miterlimit="10.0"
     id="g204">
    <path
       d="M 12.1305,125.3011 l -7.6374,-13.2283 l 7.6374,-13.2283 l 15.2748,-0.0000 l 7.6374,13.2283 l -7.6374,13.2283 Z"
       id="path202" />
  </g>
  <g
     stroke-linejoin="miter"
     stroke-opacity="1.0"
     fill-opacity="0.7"
     stroke="rgb(0,0,0)"
     stroke-width="0.37795275590551186"
     fill="rgb(0,0,0)"
     stroke-linecap="butt"
     stroke-miterlimit="10.0"
     id="g208">
    <path
       d="M 308.7478,224.5478 l -7.6374,-13.2283 l 7.6374,-13.2283 l 15.2748,-0.0000 l 7.6374,13.2283 l -7.6374,13.2283 Z"
       id="path206" />
  </g>
  <g
     stroke-linejoin="miter"
     stroke-opacity="1.0"
     fill-opacity="0.7"
     stroke="rgb(0,0,0)"
     stroke-width="0.37795275590551186"
     fill="rgb(0,0,0)"
     stroke-linecap="butt"
     stroke-miterlimit="10.0"
     id="g212">
    <path
       d="M 800.7233,32.9840 l 7.6374,-13.2283 l -7.6374,-13.2283 l -15.2748,-0.0000 l -7.6374,13.2283 l 7.6374,13.2283 Z"
       id="path210" />
  </g>
  <g
     stroke-linejoin="miter"
     stroke-opacity="1.0"
     fill-opacity="0.7"
     stroke="rgb(0,0,0)"
     stroke-width="0.37795275590551186"
     fill="rgb(0,0,0)"
     stroke-linecap="butt"
     stroke-miterlimit="10.0"
     id="g216">
    <path
       d="M 457.8551,112.8734 l 7.6374,-13.2283 l -7.6374,-13.2283 l -15.2748,-0.0000 l -7.6374,13.2283 l 7.6374,13.2283 Z"
       id="path214" />
  </g>
  <g
     stroke-linejoin="miter"
     stroke-opacity="1.0"
     fill-opacity="0.7"
     stroke="rgb(0,0,0)"
     stroke-width="0.37795275590551186"
     fill="rgb(0,0,0)"
     stroke-linecap="butt"
     stroke-miterlimit="10.0"
     id="g220">
    <path
       d="M 831.6121,125.3011 l 7.6374,-13.2283 l -7.6374,-13.2283 l -15.2748,-0.0000 l -7.6374,13.2283 l 7.6374,13.2283 Z"
       id="path218" />
  </g>
  <g
     stroke-linejoin="miter"
     stroke-opacity="1.0"
     fill-opacity="0.7"
     stroke="rgb(0,0,0)"
     stroke-width="0.37795275590551186"
     fill="rgb(0,0,0)"
     stroke-linecap="butt"
     stroke-miterlimit="10.0"
     id="g224">
    <path
       d="M 534.9948,224.5478 l 7.6374,-13.2283 l -7.6374,-13.2283 l -15.2748,-0.0000 l -7.6374,13.2283 l 7.6374,13.2283 Z"
       id="path222" />
  </g>
</svg>
