<?xml version="1.0" encoding="UTF-8"?>
<!DOCTYPE svg PUBLIC "-//W3C//DTD SVG 1.1//EN"
    "http://www.w3.org/Graphics/SVG/1.1/DTD/svg11.dtd"><svg xmlns="http://www.w3.org/2000/svg" height="2453.1381" stroke-opacity="1" viewBox="0 0 596 2453" font-size="1" width="595.5673" xmlns:xlink="http://www.w3.org/1999/xlink" stroke="rgb(0,0,0)" version="1.1"><defs></defs><defs><linearGradient x2="38.8693" y1="0.0000" gradientUnits="userSpaceOnUse" spreadMethod="pad" gradientTransform="matrix(3.7795,-0.0000,0.0000,-3.7795,16.2520,2352.9766)" id="gradient0" y2="-60.0000" x1="-38.8693"><stop stop-opacity="1.0000" offset="0.0000" stop-color="rgb(128,128,128)"/><stop stop-opacity="1.0000" offset="0.5000" stop-color="rgb(255,255,255)"/><stop stop-opacity="1.0000" offset="1.0000" stop-color="rgb(128,128,128)"/></linearGradient></defs><g stroke-linejoin="miter" stroke-opacity="1.0" fill-opacity="1" stroke="rgb(0,0,0)" stroke-width="0.7559055118110237" fill="url(#gradient0)" stroke-linecap="butt" stroke-miterlimit="10.0"><path d="M 3.9685,1987.5309 c 0.0000,-6.7840 5.4995,-12.2835 12.2835 -12.2835c 169.7535,-0.0000 339.5070,-0.0000 509.2605 -0.0000c 5.9611,-0.0000 11.0617,4.2799 12.0969 10.1505c 17.9338,101.7077 35.8676,203.4154 53.8014 305.1231c 0.1267,0.7185 0.1880,1.4347 0.1880 2.1423c 0.0000,5.3385 -3.4924,10.1826 -8.7661 11.7594c -160.7949,48.0773 -321.5899,96.1547 -482.3848 144.2321c -1.1417,0.3414 -2.3271,0.5148 -3.5188 0.5148c -26.8924,-0.0000 -53.7847,-0.0000 -80.6771 -0.0000c -6.7840,-0.0000 -12.2835,-5.4995 -12.2835 -12.2835c 0.0000,-149.7851 0.0000,-299.5701 0.0000 -449.3552ZM 48.3770,1991.3370 c 0.0000,0.3268 0.0284,0.6581 0.0871 0.9911c 0.5437,3.0835 3.4842,5.1424 6.5676 4.5987c 2.7505,-0.4850 4.6858,-2.8770 4.6858 -5.5765c 0.0000,-0.3268 -0.0284,-0.6581 -0.0871 -0.9911c -0.5437,-3.0835 -3.4842,-5.1424 -6.5676 -4.5987c -2.7505,0.4850 -4.6858,2.8770 -4.6858 5.5765ZM 101.0985,2431.0076 c 0.0000,0.3268 0.0284,0.6581 0.0870 0.9911c 0.5437,3.0835 3.4842,5.1424 6.5676 4.5987c 2.7505,-0.4850 4.6858,-2.8770 4.6858 -5.5765c 0.0000,-0.3268 -0.0284,-0.6581 -0.0871 -0.9911c -0.5437,-3.0835 -3.4842,-5.1424 -6.5676 -4.5987c -2.7505,0.4850 -4.6858,2.8770 -4.6858 5.5765ZM 516.3217,1991.3370 c 0.0000,0.3268 0.0284,0.6581 0.0871 0.9911c 0.5437,3.0835 3.4841,5.1424 6.5676 4.5987c 2.7505,-0.4850 4.6858,-2.8770 4.6858 -5.5765c 0.0000,-0.3268 -0.0284,-0.6581 -0.0871 -0.9911c -0.5437,-3.0835 -3.4841,-5.1424 -6.5676 -4.5987c -2.7505,0.4850 -4.6858,2.8770 -4.6858 5.5765ZM 568.7284,2292.9032 c 0.0000,0.3268 0.0284,0.6581 0.0871 0.9911c 0.5437,3.0835 3.4842,5.1424 6.5676 4.5987c 2.7505,-0.4850 4.6858,-2.8770 4.6858 -5.5766c 0.0000,-0.3268 -0.0283,-0.6581 -0.0870 -0.9911c -0.5437,-3.0835 -3.4842,-5.1424 -6.5676 -4.5987c -2.7505,0.4850 -4.6858,2.8770 -4.6858 5.5766Z"/></g><g stroke-linejoin="miter" stroke-opacity="1.0" fill-opacity="0.5" stroke="rgb(0,0,0)" stroke-width="0.7559055118110237" fill="rgb(255,255,0)" stroke-linecap="butt" stroke-miterlimit="10.0"><path d="M 3.9685,1987.5309 c 0.0000,-6.7840 5.4995,-12.2835 12.2835 -12.2835c 11.5901,-0.0000 23.1801,-0.0000 34.7702 -0.0000c 2.0246,-0.0000 4.0492,-0.0000 6.0738 -0.0000c 153.9570,-0.0000 307.9139,-0.0000 461.8710 -0.0000c 2.0246,-0.0000 4.0492,-0.0000 6.0737 -0.0000c 0.1573,-0.0000 0.3145,-0.0000 0.4718 -0.0000c 5.9611,-0.0000 11.0617,4.2799 12.0969 10.1505c 17.9338,101.7077 35.8677,203.4154 53.8015 305.1230c 0.1266,0.7185 0.1880,1.4347 0.1880 2.1422c 0.0000,2.6815 -0.8811,5.2382 -2.4265 7.3188c -1.5313,2.0617 -3.7148,3.6558 -6.3396 4.4406c -4.5153,1.3501 -9.0307,2.7001 -13.5461 4.0502c -150.6965,45.0580 -301.3931,90.1159 -452.0896 135.1739c -4.0713,1.2173 -8.1427,2.4346 -12.2140 3.6520c -1.5117,0.4520 -3.0234,0.9040 -4.5351 1.3560c -1.1417,0.3414 -2.3271,0.5148 -3.5188 0.5148c -26.8923,-0.0000 -53.7847,-0.0000 -80.6771 -0.0000c -6.7840,-0.0000 -12.2835,-5.4995 -12.2835 -12.2835c 0.0000,-149.7851 0.0000,-299.5702 -0.0000 -449.3552ZM 27.5937,2009.0326 c 0.0000,135.4506 0.0000,270.9012 0.0000 406.3519c 0.0000,6.1348 5.0750,11.1080 11.3354 11.1080c 17.3648,-0.0000 34.7296,-0.0000 52.0944 -0.0000c 1.6767,-5.8221 6.5324,-10.4843 12.9012 -11.6073c 7.6215,-1.3439 14.9404,2.8162 17.8791 9.6249c 145.5441,-42.6442 291.0883,-85.2883 436.6323 -127.9324c -0.0622,-0.2716 -0.1178,-0.5462 -0.1667 -0.8237c -0.1696,-0.9619 -0.2516,-1.9191 -0.2516 -2.8632c 0.0000,-6.8305 4.2888,-12.9795 10.6925 -15.3423c -16.1900,-89.9757 -32.3801,-179.9517 -48.5701 -269.9274c -5.7628,-0.6531 -10.8100,-4.3500 -13.1502 -9.6963c -145.9812,-0.0000 -291.9624,-0.0000 -437.9435 -0.0000c -2.1288,4.8399 -6.5577,8.5611 -12.1555 9.5482c -7.5928,1.3389 -14.8854,-2.7849 -17.8458 -9.5482c -0.0388,-0.0000 -0.0775,-0.0000 -0.1163 -0.0000c -6.2604,-0.0000 -11.3354,4.9732 -11.3354 11.1080ZM 48.3770,1991.3370 c 0.0000,0.3268 0.0284,0.6581 0.0871 0.9911c 0.5437,3.0835 3.4841,5.1424 6.5676 4.5987c 2.7505,-0.4850 4.6858,-2.8770 4.6858 -5.5765c 0.0000,-0.3268 -0.0284,-0.6581 -0.0871 -0.9911c -0.5437,-3.0835 -3.4842,-5.1424 -6.5677 -4.5987c -2.7505,0.4850 -4.6858,2.8770 -4.6858 5.5765ZM 101.0985,2431.0076 c 0.0000,0.3268 0.0284,0.6581 0.0871 0.9911c 0.5437,3.0835 3.4841,5.1424 6.5676 4.5987c 2.7505,-0.4850 4.6858,-2.8770 4.6858 -5.5765c 0.0000,-0.3268 -0.0284,-0.6581 -0.0871 -0.9911c -0.5437,-3.0835 -3.4842,-5.1424 -6.5676 -4.5987c -2.7505,0.4850 -4.6858,2.8770 -4.6858 5.5765ZM 516.3217,1991.3370 c 0.0000,0.3268 0.0284,0.6581 0.0871 0.9911c 0.5437,3.0835 3.4841,5.1424 6.5676 4.5987c 2.7505,-0.4850 4.6858,-2.8770 4.6858 -5.5765c 0.0000,-0.3268 -0.0284,-0.6581 -0.0871 -0.9911c -0.5437,-3.0835 -3.4841,-5.1424 -6.5676 -4.5987c -2.7505,0.4850 -4.6858,2.8770 -4.6858 5.5765ZM 568.7284,2292.9032 c 0.0000,0.3268 0.0284,0.6581 0.0871 0.9911c 0.5437,3.0835 3.4841,5.1424 6.5676 4.5987c 2.7505,-0.4850 4.6858,-2.8770 4.6858 -5.5765c 0.0000,-0.3268 -0.0284,-0.6581 -0.0871 -0.9911c -0.5437,-3.0835 -3.4841,-5.1424 -6.5676 -4.5987c -2.7505,0.4850 -4.6858,2.8770 -4.6858 5.5765Z"/></g><g stroke-linejoin="miter" stroke-opacity="1.0" fill-opacity="0.5" stroke="rgb(0,0,0)" stroke-width="0.7559055118110237" fill="rgb(0,128,0)" stroke-linecap="butt" stroke-miterlimit="10.0"><path d="M 3.9685,1987.5309 c 0.0000,-6.7840 5.4995,-12.2835 12.2835 -12.2835c 169.7535,-0.0000 339.5070,-0.0000 509.2605 -0.0000c 5.9611,-0.0000 11.0617,4.2799 12.0969 10.1505c 17.9338,101.7077 35.8676,203.4154 53.8014 305.1231c 0.1267,0.7185 0.1880,1.4347 0.1880 2.1423c 0.0000,5.3385 -3.4924,10.1826 -8.7661 11.7594c -160.7949,48.0773 -321.5899,96.1547 -482.3848 144.2321c -1.1417,0.3414 -2.3271,0.5148 -3.5188 0.5148c -26.8924,-0.0000 -53.7847,-0.0000 -80.6771 -0.0000c -6.7840,-0.0000 -12.2835,-5.4995 -12.2835 -12.2835c 0.0000,-149.7851 0.0000,-299.5701 0.0000 -449.3552ZM 48.3770,1991.3370 c 0.0000,0.3268 0.0284,0.6581 0.0871 0.9911c 0.5437,3.0835 3.4842,5.1424 6.5676 4.5987c 2.7505,-0.4850 4.6858,-2.8770 4.6858 -5.5765c 0.0000,-0.3268 -0.0284,-0.6581 -0.0871 -0.9911c -0.5437,-3.0835 -3.4842,-5.1424 -6.5676 -4.5987c -2.7505,0.4850 -4.6858,2.8770 -4.6858 5.5765ZM 51.4941,2287.2586 c 0.7657,4.3426 1.5314,8.6852 2.2971 13.0277c 1.0084,-0.1778 2.0169,-0.3556 3.0254 -0.5335c 1.0958,6.2146 2.1916,12.4291 3.2874 18.6437c -1.0084,0.1778 -2.0169,0.3557 -3.0254 0.5335c 0.7657,4.3426 1.5314,8.6852 2.2972 13.0277c 1.0084,-0.1778 2.0169,-0.3556 3.0253 -0.5335c 0.2145,1.2165 0.4290,2.4329 0.6435 3.6494c 17.3326,-3.0562 34.6652,-6.1124 51.9978 -9.1686c -0.2145,-1.2165 -0.4290,-2.4329 -0.6435 -3.6494c 1.0084,-0.1778 2.0169,-0.3556 3.0254 -0.5335c -0.7657,-4.3426 -1.5314,-8.6851 -2.2972 -13.0277c -1.0084,0.1778 -2.0169,0.3557 -3.0253 0.5335c -1.0958,-6.2146 -2.1916,-12.4291 -3.2874 -18.6437c 1.0084,-0.1778 2.0169,-0.3556 3.0253 -0.5335c -0.7657,-4.3426 -1.5314,-8.6851 -2.2971 -13.0277c -1.0084,0.1778 -2.0169,0.3556 -3.0254 0.5335c -0.2144,-1.2165 -0.4290,-2.4329 -0.6435 -3.6494c -17.3326,3.0562 -34.6653,6.1124 -51.9978 9.1686c 0.2145,1.2164 0.4290,2.4329 0.6435 3.6494c -1.0084,0.1778 -2.0169,0.3556 -3.0253 0.5334ZM 63.9640,2357.9787 c 0.7657,4.3426 1.5314,8.6851 2.2971 13.0277c 1.0084,-0.1778 2.0169,-0.3557 3.0254 -0.5335c 1.0958,6.2146 2.1916,12.4291 3.2874 18.6437c -1.0084,0.1778 -2.0169,0.3556 -3.0254 0.5335c 0.7657,4.3426 1.5314,8.6851 2.2972 13.0277c 1.0084,-0.1778 2.0169,-0.3557 3.0253 -0.5335c 0.2145,1.2164 0.4290,2.4329 0.6435 3.6493c 17.3326,-3.0562 34.6652,-6.1124 51.9978 -9.1686c -0.2145,-1.2164 -0.4290,-2.4329 -0.6435 -3.6493c 1.0084,-0.1778 2.0169,-0.3557 3.0254 -0.5335c -0.7657,-4.3426 -1.5314,-8.6852 -2.2972 -13.0277c -1.0084,0.1778 -2.0169,0.3556 -3.0253 0.5335c -1.0958,-6.2146 -2.1916,-12.4291 -3.2874 -18.6437c 1.0084,-0.1778 2.0169,-0.3557 3.0253 -0.5335c -0.7657,-4.3426 -1.5314,-8.6852 -2.2971 -13.0277c -1.0084,0.1778 -2.0169,0.3556 -3.0254 0.5335c -0.2145,-1.2165 -0.4290,-2.4329 -0.6435 -3.6494c -17.3326,3.0562 -34.6653,6.1124 -51.9978 9.1686c 0.2144,1.2165 0.4290,2.4329 0.6435 3.6494c -1.0084,0.1778 -2.0169,0.3556 -3.0253 0.5335ZM 91.0395,2097.9886 c 0.7657,4.3426 1.5314,8.6852 2.2972 13.0277c 1.0084,-0.1778 2.0169,-0.3556 3.0253 -0.5335c 1.0958,6.2146 2.1916,12.4291 3.2874 18.6437c -1.0084,0.1778 -2.0169,0.3557 -3.0253 0.5335c 0.7657,4.3426 1.5314,8.6852 2.2971 13.0277c 1.0084,-0.1778 2.0169,-0.3556 3.0254 -0.5335c 0.2144,1.2165 0.4290,2.4329 0.6435 3.6494c 17.3326,-3.0562 34.6652,-6.1125 51.9978 -9.1686c -0.2145,-1.2165 -0.4290,-2.4329 -0.6435 -3.6494c 1.0084,-0.1778 2.0169,-0.3556 3.0253 -0.5335c -0.7657,-4.3426 -1.5314,-8.6851 -2.2971 -13.0277c -1.0085,0.1778 -2.0169,0.3557 -3.0254 0.5335c -1.0958,-6.2146 -2.1916,-12.4291 -3.2874 -18.6437c 1.0084,-0.1778 2.0169,-0.3556 3.0253 -0.5335c -0.7657,-4.3426 -1.5314,-8.6851 -2.2971 -13.0277c -1.0084,0.1778 -2.0169,0.3557 -3.0253 0.5335c -0.2145,-1.2164 -0.4290,-2.4329 -0.6435 -3.6493c -17.3326,3.0562 -34.6652,6.1124 -51.9978 9.1686c 0.2145,1.2164 0.4290,2.4329 0.6435 3.6493c -1.0084,0.1778 -2.0169,0.3557 -3.0254 0.5335ZM 101.0985,2431.0076 c 0.0000,0.3268 0.0284,0.6581 0.0870 0.9911c 0.5437,3.0835 3.4842,5.1424 6.5676 4.5987c 2.7505,-0.4850 4.6858,-2.8770 4.6858 -5.5765c 0.0000,-0.3268 -0.0284,-0.6581 -0.0871 -0.9911c -0.5437,-3.0835 -3.4842,-5.1424 -6.5676 -4.5987c -2.7505,0.4850 -4.6858,2.8770 -4.6858 5.5765ZM 103.5094,2168.7087 c 0.7657,4.3426 1.5314,8.6851 2.2972 13.0277c 1.0084,-0.1778 2.0169,-0.3556 3.0253 -0.5335c 1.0958,6.2146 2.1916,12.4291 3.2874 18.6437c -1.0084,0.1778 -2.0169,0.3556 -3.0253 0.5335c 0.7657,4.3426 1.5314,8.6851 2.2971 13.0277c 1.0084,-0.1778 2.0169,-0.3556 3.0253 -0.5335c 0.2145,1.2165 0.4290,2.4329 0.6435 3.6494c 17.3326,-3.0562 34.6652,-6.1124 51.9978 -9.1686c -0.2145,-1.2164 -0.4290,-2.4329 -0.6435 -3.6493c 1.0084,-0.1778 2.0169,-0.3557 3.0253 -0.5335c -0.7657,-4.3426 -1.5314,-8.6851 -2.2971 -13.0277c -1.0085,0.1778 -2.0169,0.3556 -3.0254 0.5335c -1.0958,-6.2146 -2.1916,-12.4291 -3.2874 -18.6437c 1.0084,-0.1778 2.0169,-0.3557 3.0253 -0.5335c -0.7657,-4.3426 -1.5314,-8.6852 -2.2971 -13.0277c -1.0084,0.1778 -2.0169,0.3556 -3.0253 0.5335c -0.2145,-1.2165 -0.4290,-2.4329 -0.6435 -3.6494c -17.3326,3.0562 -34.6652,6.1124 -51.9978 9.1686c 0.2145,1.2164 0.4290,2.4329 0.6435 3.6494c -1.0084,0.1778 -2.0169,0.3556 -3.0254 0.5335ZM 115.9792,2239.4287 c 0.7657,4.3426 1.5314,8.6851 2.2972 13.0277c 1.0084,-0.1778 2.0169,-0.3557 3.0253 -0.5335c 1.0958,6.2146 2.1916,12.4291 3.2874 18.6437c -1.0084,0.1778 -2.0169,0.3556 -3.0253 0.5335c 0.7657,4.3426 1.5314,8.6851 2.2971 13.0277c 1.0084,-0.1778 2.0169,-0.3557 3.0253 -0.5335c 0.2145,1.2164 0.4290,2.4329 0.6435 3.6493c 17.3326,-3.0562 34.6652,-6.1124 51.9978 -9.1686c -0.2145,-1.2164 -0.4290,-2.4329 -0.6435 -3.6493c 1.0084,-0.1778 2.0169,-0.3557 3.0253 -0.5335c -0.7657,-4.3426 -1.5314,-8.6852 -2.2972 -13.0277c -1.0084,0.1778 -2.0169,0.3556 -3.0253 0.5335c -1.0958,-6.2146 -2.1916,-12.4291 -3.2874 -18.6437c 1.0084,-0.1778 2.0169,-0.3557 3.0253 -0.5335c -0.7657,-4.3426 -1.5314,-8.6852 -2.2971 -13.0277c -1.0084,0.1778 -2.0169,0.3556 -3.0253 0.5335c -0.2145,-1.2165 -0.4290,-2.4329 -0.6435 -3.6494c -17.3326,3.0562 -34.6652,6.1125 -51.9978 9.1686c 0.2145,1.2165 0.4290,2.4329 0.6435 3.6494c -1.0085,0.1778 -2.0169,0.3556 -3.0254 0.5335ZM 128.4491,2310.1488 c 0.7657,4.3426 1.5314,8.6852 2.2972 13.0277c 1.0084,-0.1778 2.0169,-0.3556 3.0253 -0.5335c 1.0958,6.2146 2.1916,12.4291 3.2874 18.6437c -1.0084,0.1778 -2.0169,0.3556 -3.0253 0.5335c 0.7657,4.3426 1.5314,8.6852 2.2971 13.0277c 1.0084,-0.1778 2.0169,-0.3556 3.0253 -0.5335c 0.2145,1.2164 0.4290,2.4329 0.6435 3.6494c 17.3326,-3.0562 34.6652,-6.1125 51.9978 -9.1686c -0.2145,-1.2165 -0.4290,-2.4329 -0.6435 -3.6494c 1.0084,-0.1778 2.0169,-0.3556 3.0253 -0.5335c -0.7657,-4.3426 -1.5314,-8.6852 -2.2971 -13.0277c -1.0085,0.1778 -2.0169,0.3556 -3.0254 0.5335c -1.0958,-6.2146 -2.1916,-12.4291 -3.2874 -18.6437c 1.0084,-0.1778 2.0169,-0.3556 3.0253 -0.5335c -0.7657,-4.3426 -1.5314,-8.6852 -2.2971 -13.0277c -1.0084,0.1778 -2.0169,0.3557 -3.0253 0.5335c -0.2145,-1.2164 -0.4290,-2.4329 -0.6435 -3.6493c -17.3326,3.0562 -34.6652,6.1124 -51.9978 9.1686c 0.2145,1.2165 0.4290,2.4329 0.6435 3.6494c -1.0085,0.1778 -2.0169,0.3556 -3.0254 0.5335ZM 158.4780,2066.9082 c 0.7657,4.3426 1.5314,8.6852 2.2971 13.0277c 1.0085,-0.1778 2.0169,-0.3557 3.0254 -0.5335c 1.0958,6.2146 2.1916,12.4291 3.2874 18.6437c -1.0084,0.1778 -2.0169,0.3556 -3.0253 0.5335c 0.7657,4.3426 1.5314,8.6851 2.2971 13.0277c 1.0084,-0.1778 2.0169,-0.3557 3.0253 -0.5335c 0.2145,1.2164 0.4290,2.4329 0.6435 3.6493c 17.3326,-3.0562 34.6652,-6.1124 51.9978 -9.1686c -0.2145,-1.2164 -0.4290,-2.4329 -0.6435 -3.6493c 1.0084,-0.1778 2.0169,-0.3557 3.0253 -0.5335c -0.7657,-4.3426 -1.5314,-8.6852 -2.2971 -13.0277c -1.0085,0.1778 -2.0169,0.3556 -3.0254 0.5335c -1.0958,-6.2146 -2.1916,-12.4291 -3.2874 -18.6437c 1.0084,-0.1778 2.0169,-0.3556 3.0253 -0.5335c -0.7657,-4.3426 -1.5314,-8.6852 -2.2971 -13.0277c -1.0084,0.1778 -2.0169,0.3556 -3.0253 0.5335c -0.2145,-1.2165 -0.4290,-2.4329 -0.6435 -3.6494c -17.3326,3.0562 -34.6652,6.1125 -51.9978 9.1686c 0.2145,1.2165 0.4290,2.4329 0.6435 3.6494c -1.0085,0.1778 -2.0169,0.3556 -3.0254 0.5335ZM 170.9479,2137.6283 c 0.7657,4.3426 1.5314,8.6852 2.2972 13.0277c 1.0084,-0.1778 2.0169,-0.3556 3.0253 -0.5335c 1.0958,6.2146 2.1916,12.4291 3.2874 18.6437c -1.0084,0.1778 -2.0169,0.3556 -3.0253 0.5335c 0.7657,4.3426 1.5314,8.6852 2.2971 13.0277c 1.0084,-0.1778 2.0169,-0.3556 3.0253 -0.5335c 0.2145,1.2164 0.4290,2.4329 0.6435 3.6494c 17.3326,-3.0562 34.6652,-6.1125 51.9978 -9.1686c -0.2145,-1.2165 -0.4290,-2.4329 -0.6435 -3.6494c 1.0085,-0.1778 2.0169,-0.3556 3.0254 -0.5335c -0.7657,-4.3426 -1.5314,-8.6852 -2.2971 -13.0277c -1.0085,0.1778 -2.0169,0.3556 -3.0254 0.5335c -1.0958,-6.2146 -2.1916,-12.4291 -3.2874 -18.6437c 1.0084,-0.1778 2.0169,-0.3556 3.0253 -0.5335c -0.7657,-4.3426 -1.5314,-8.6851 -2.2971 -13.0277c -1.0084,0.1778 -2.0169,0.3557 -3.0253 0.5335c -0.2145,-1.2164 -0.4290,-2.4329 -0.6435 -3.6493c -17.3326,3.0562 -34.6652,6.1124 -51.9978 9.1686c 0.2145,1.2164 0.4290,2.4329 0.6435 3.6493c -1.0084,0.1778 -2.0169,0.3557 -3.0253 0.5335ZM 183.4177,2208.3483 c 0.7657,4.3426 1.5314,8.6852 2.2972 13.0277c 1.0084,-0.1778 2.0169,-0.3556 3.0253 -0.5335c 1.0958,6.2146 2.1916,12.4291 3.2874 18.6437c -1.0084,0.1778 -2.0169,0.3557 -3.0253 0.5335c 0.7657,4.3426 1.5314,8.6852 2.2971 13.0277c 1.0084,-0.1778 2.0169,-0.3556 3.0253 -0.5335c 0.2145,1.2165 0.4290,2.4329 0.6435 3.6494c 17.3326,-3.0562 34.6652,-6.1124 51.9978 -9.1686c -0.2145,-1.2165 -0.4290,-2.4329 -0.6435 -3.6494c 1.0085,-0.1778 2.0169,-0.3556 3.0254 -0.5335c -0.7657,-4.3426 -1.5314,-8.6851 -2.2972 -13.0277c -1.0084,0.1778 -2.0169,0.3557 -3.0253 0.5335c -1.0958,-6.2146 -2.1916,-12.4291 -3.2874 -18.6437c 1.0084,-0.1778 2.0169,-0.3556 3.0253 -0.5335c -0.7657,-4.3426 -1.5314,-8.6851 -2.2971 -13.0277c -1.0084,0.1778 -2.0169,0.3557 -3.0253 0.5335c -0.2145,-1.2164 -0.4290,-2.4329 -0.6435 -3.6493c -17.3326,3.0562 -34.6652,6.1124 -51.9978 9.1686c 0.2145,1.2164 0.4290,2.4329 0.6435 3.6493c -1.0084,0.1778 -2.0169,0.3557 -3.0253 0.5335ZM 195.8876,2279.0684 c 0.7657,4.3426 1.5314,8.6851 2.2971 13.0277c 1.0085,-0.1778 2.0169,-0.3557 3.0254 -0.5335c 1.0958,6.2146 2.1916,12.4291 3.2874 18.6437c -1.0084,0.1778 -2.0169,0.3556 -3.0253 0.5335c 0.7657,4.3426 1.5314,8.6851 2.2971 13.0277c 1.0084,-0.1778 2.0169,-0.3557 3.0253 -0.5335c 0.2145,1.2164 0.4290,2.4329 0.6435 3.6493c 17.3326,-3.0562 34.6652,-6.1124 51.9978 -9.1686c -0.2145,-1.2164 -0.4290,-2.4329 -0.6435 -3.6493c 1.0084,-0.1778 2.0169,-0.3557 3.0254 -0.5335c -0.7657,-4.3426 -1.5314,-8.6852 -2.2972 -13.0277c -1.0084,0.1778 -2.0169,0.3556 -3.0253 0.5335c -1.0958,-6.2146 -2.1916,-12.4291 -3.2874 -18.6437c 1.0084,-0.1778 2.0169,-0.3557 3.0253 -0.5335c -0.7657,-4.3426 -1.5314,-8.6852 -2.2971 -13.0277c -1.0084,0.1778 -2.0169,0.3556 -3.0253 0.5335c -0.2145,-1.2165 -0.4290,-2.4329 -0.6435 -3.6494c -17.3326,3.0562 -34.6652,6.1125 -51.9978 9.1686c 0.2145,1.2165 0.4290,2.4329 0.6435 3.6494c -1.0084,0.1778 -2.0169,0.3556 -3.0253 0.5335ZM 225.2603,2032.1057 c 0.7657,4.3426 1.5314,8.6852 2.2971 13.0277c 1.0084,-0.1778 2.0169,-0.3556 3.0253 -0.5335c 1.0958,6.2146 2.1916,12.4291 3.2874 18.6437c -1.0085,0.1778 -2.0169,0.3556 -3.0254 0.5335c 0.7657,4.3426 1.5314,8.6851 2.2971 13.0277c 1.0085,-0.1778 2.0169,-0.3556 3.0254 -0.5335c 0.2145,1.2164 0.4290,2.4329 0.6435 3.6493c 17.3326,-3.0562 34.6653,-6.1124 51.9979 -9.1686c -0.2145,-1.2164 -0.4290,-2.4329 -0.6435 -3.6493c 1.0084,-0.1778 2.0169,-0.3556 3.0253 -0.5335c -0.7657,-4.3426 -1.5314,-8.6852 -2.2971 -13.0277c -1.0084,0.1778 -2.0169,0.3556 -3.0253 0.5335c -1.0958,-6.2146 -2.1916,-12.4291 -3.2874 -18.6437c 1.0084,-0.1778 2.0169,-0.3556 3.0253 -0.5335c -0.7657,-4.3426 -1.5314,-8.6852 -2.2972 -13.0277c -1.0084,0.1778 -2.0169,0.3556 -3.0253 0.5335c -0.2145,-1.2165 -0.4290,-2.4329 -0.6435 -3.6494c -17.3326,3.0562 -34.6653,6.1125 -51.9979 9.1686c 0.2145,1.2165 0.4290,2.4329 0.6435 3.6494c -1.0084,0.1778 -2.0169,0.3556 -3.0253 0.5335ZM 237.7301,2102.8258 c 0.7657,4.3426 1.5314,8.6852 2.2971 13.0277c 1.0084,-0.1778 2.0169,-0.3556 3.0253 -0.5335c 1.0958,6.2146 2.1916,12.4291 3.2874 18.6437c -1.0084,0.1778 -2.0169,0.3557 -3.0253 0.5335c 0.7657,4.3426 1.5314,8.6852 2.2971 13.0277c 1.0085,-0.1778 2.0169,-0.3556 3.0254 -0.5335c 0.2145,1.2165 0.4290,2.4329 0.6435 3.6494c 17.3326,-3.0562 34.6653,-6.1125 51.9978 -9.1686c -0.2144,-1.2165 -0.4290,-2.4329 -0.6435 -3.6494c 1.0084,-0.1778 2.0169,-0.3556 3.0253 -0.5335c -0.7657,-4.3426 -1.5314,-8.6851 -2.2971 -13.0277c -1.0084,0.1778 -2.0169,0.3557 -3.0253 0.5335c -1.0958,-6.2146 -2.1916,-12.4291 -3.2874 -18.6437c 1.0084,-0.1778 2.0169,-0.3556 3.0253 -0.5335c -0.7657,-4.3426 -1.5314,-8.6851 -2.2972 -13.0277c -1.0084,0.1778 -2.0169,0.3557 -3.0253 0.5335c -0.2145,-1.2164 -0.4290,-2.4329 -0.6435 -3.6493c -17.3326,3.0562 -34.6652,6.1124 -51.9978 9.1686c 0.2145,1.2164 0.4290,2.4329 0.6435 3.6493c -1.0084,0.1778 -2.0169,0.3557 -3.0253 0.5335ZM 250.2000,2173.5458 c 0.7657,4.3426 1.5314,8.6852 2.2971 13.0277c 1.0084,-0.1778 2.0169,-0.3556 3.0253 -0.5335c 1.0958,6.2146 2.1916,12.4291 3.2874 18.6437c -1.0084,0.1778 -2.0169,0.3557 -3.0253 0.5335c 0.7657,4.3426 1.5314,8.6852 2.2971 13.0277c 1.0084,-0.1778 2.0169,-0.3556 3.0254 -0.5335c 0.2145,1.2165 0.4290,2.4329 0.6435 3.6494c 17.3326,-3.0562 34.6653,-6.1124 51.9978 -9.1686c -0.2144,-1.2165 -0.4290,-2.4329 -0.6435 -3.6494c 1.0084,-0.1778 2.0169,-0.3556 3.0253 -0.5335c -0.7657,-4.3426 -1.5314,-8.6851 -2.2971 -13.0277c -1.0084,0.1778 -2.0169,0.3556 -3.0253 0.5334c -1.0958,-6.2146 -2.1916,-12.4291 -3.2874 -18.6437c 1.0085,-0.1778 2.0169,-0.3556 3.0254 -0.5334c -0.7657,-4.3426 -1.5314,-8.6852 -2.2972 -13.0277c -1.0084,0.1778 -2.0169,0.3556 -3.0253 0.5334c -0.2145,-1.2164 -0.4290,-2.4329 -0.6435 -3.6493c -17.3326,3.0562 -34.6652,6.1124 -51.9978 9.1686c 0.2145,1.2164 0.4290,2.4329 0.6435 3.6493c -1.0084,0.1778 -2.0169,0.3557 -3.0253 0.5335ZM 262.6698,2244.2659 c 0.7657,4.3426 1.5314,8.6851 2.2972 13.0277c 1.0084,-0.1778 2.0169,-0.3557 3.0253 -0.5335c 1.0958,6.2146 2.1916,12.4291 3.2874 18.6437c -1.0084,0.1778 -2.0169,0.3556 -3.0253 0.5335c 0.7657,4.3426 1.5314,8.6851 2.2971 13.0277c 1.0085,-0.1778 2.0169,-0.3557 3.0254 -0.5335c 0.2145,1.2164 0.4290,2.4329 0.6435 3.6493c 17.3326,-3.0562 34.6653,-6.1124 51.9978 -9.1686c -0.2144,-1.2164 -0.4290,-2.4329 -0.6435 -3.6493c 1.0084,-0.1778 2.0169,-0.3557 3.0253 -0.5335c -0.7657,-4.3426 -1.5314,-8.6852 -2.2971 -13.0277c -1.0084,0.1778 -2.0169,0.3556 -3.0253 0.5335c -1.0958,-6.2146 -2.1916,-12.4291 -3.2874 -18.6437c 1.0085,-0.1778 2.0169,-0.3556 3.0254 -0.5335c -0.7657,-4.3426 -1.5314,-8.6852 -2.2972 -13.0277c -1.0084,0.1778 -2.0169,0.3556 -3.0253 0.5335c -0.2145,-1.2165 -0.4290,-2.4329 -0.6435 -3.6494c -17.3326,3.0562 -34.6653,6.1125 -51.9979 9.1686c 0.2145,1.2165 0.4290,2.4329 0.6435 3.6494c -1.0084,0.1778 -2.0169,0.3556 -3.0254 0.5335ZM 299.2618,2038.2464 c 0.7657,4.3426 1.5314,8.6852 2.2972 13.0277c 1.0084,-0.1778 2.0169,-0.3556 3.0253 -0.5335c 1.0958,6.2146 2.1916,12.4291 3.2874 18.6437c -1.0084,0.1778 -2.0169,0.3557 -3.0253 0.5335c 0.7657,4.3426 1.5314,8.6852 2.2971 13.0277c 1.0084,-0.1778 2.0169,-0.3556 3.0253 -0.5335c 0.2145,1.2165 0.4290,2.4329 0.6435 3.6494c 17.3326,-3.0562 34.6652,-6.1124 51.9978 -9.1686c -0.2145,-1.2165 -0.4290,-2.4329 -0.6435 -3.6494c 1.0084,-0.1778 2.0169,-0.3556 3.0253 -0.5335c -0.7657,-4.3426 -1.5314,-8.6851 -2.2971 -13.0277c -1.0085,0.1778 -2.0169,0.3556 -3.0254 0.5334c -1.0958,-6.2146 -2.1916,-12.4291 -3.2874 -18.6437c 1.0084,-0.1778 2.0169,-0.3556 3.0253 -0.5335c -0.7657,-4.3426 -1.5314,-8.6851 -2.2971 -13.0277c -1.0084,0.1778 -2.0169,0.3556 -3.0253 0.5334c -0.2145,-1.2164 -0.4290,-2.4329 -0.6435 -3.6493c -17.3326,3.0562 -34.6652,6.1124 -51.9978 9.1686c 0.2145,1.2164 0.4290,2.4329 0.6435 3.6493c -1.0084,0.1778 -2.0169,0.3557 -3.0254 0.5335ZM 311.7317,2108.9665 c 0.7657,4.3426 1.5314,8.6851 2.2972 13.0277c 1.0084,-0.1778 2.0169,-0.3557 3.0253 -0.5335c 1.0958,6.2146 2.1916,12.4291 3.2874 18.6437c -1.0084,0.1778 -2.0169,0.3556 -3.0253 0.5335c 0.7657,4.3426 1.5314,8.6851 2.2971 13.0277c 1.0084,-0.1778 2.0169,-0.3556 3.0253 -0.5334c 0.2145,1.2164 0.4290,2.4329 0.6435 3.6493c 17.3326,-3.0562 34.6652,-6.1124 51.9978 -9.1686c -0.2145,-1.2164 -0.4290,-2.4329 -0.6435 -3.6493c 1.0084,-0.1778 2.0169,-0.3557 3.0253 -0.5335c -0.7657,-4.3426 -1.5314,-8.6852 -2.2972 -13.0277c -1.0084,0.1778 -2.0169,0.3556 -3.0253 0.5335c -1.0958,-6.2146 -2.1916,-12.4291 -3.2874 -18.6437c 1.0084,-0.1778 2.0169,-0.3557 3.0253 -0.5335c -0.7657,-4.3426 -1.5314,-8.6852 -2.2971 -13.0277c -1.0084,0.1778 -2.0169,0.3556 -3.0253 0.5335c -0.2145,-1.2165 -0.4290,-2.4329 -0.6435 -3.6494c -17.3326,3.0562 -34.6652,6.1124 -51.9978 9.1686c 0.2145,1.2165 0.4290,2.4329 0.6435 3.6494c -1.0085,0.1778 -2.0169,0.3556 -3.0254 0.5335ZM 324.2015,2179.6865 c 0.7657,4.3426 1.5314,8.6852 2.2972 13.0277c 1.0084,-0.1778 2.0169,-0.3556 3.0253 -0.5335c 1.0958,6.2146 2.1916,12.4291 3.2874 18.6437c -1.0084,0.1778 -2.0169,0.3556 -3.0253 0.5335c 0.7657,4.3426 1.5314,8.6852 2.2971 13.0277c 1.0084,-0.1778 2.0169,-0.3556 3.0253 -0.5335c 0.2145,1.2164 0.4290,2.4329 0.6435 3.6493c 17.3326,-3.0562 34.6652,-6.1124 51.9978 -9.1686c -0.2145,-1.2164 -0.4290,-2.4329 -0.6435 -3.6493c 1.0084,-0.1778 2.0169,-0.3556 3.0253 -0.5335c -0.7657,-4.3426 -1.5314,-8.6852 -2.2972 -13.0277c -1.0084,0.1778 -2.0169,0.3556 -3.0253 0.5335c -1.0958,-6.2146 -2.1916,-12.4291 -3.2874 -18.6437c 1.0084,-0.1778 2.0169,-0.3556 3.0253 -0.5335c -0.7657,-4.3426 -1.5314,-8.6852 -2.2971 -13.0277c -1.0084,0.1778 -2.0169,0.3556 -3.0253 0.5335c -0.2145,-1.2165 -0.4290,-2.4329 -0.6435 -3.6494c -17.3326,3.0562 -34.6652,6.1125 -51.9978 9.1686c 0.2145,1.2165 0.4290,2.4329 0.6435 3.6494c -1.0085,0.1778 -2.0169,0.3556 -3.0254 0.5335ZM 336.6714,2250.4066 c 0.7657,4.3426 1.5314,8.6852 2.2972 13.0277c 1.0084,-0.1778 2.0169,-0.3556 3.0253 -0.5335c 1.0958,6.2146 2.1916,12.4291 3.2874 18.6437c -1.0084,0.1778 -2.0169,0.3557 -3.0253 0.5335c 0.7657,4.3426 1.5314,8.6852 2.2971 13.0277c 1.0084,-0.1778 2.0169,-0.3556 3.0253 -0.5335c 0.2145,1.2165 0.4290,2.4329 0.6435 3.6494c 17.3326,-3.0562 34.6652,-6.1125 51.9978 -9.1686c -0.2145,-1.2165 -0.4290,-2.4329 -0.6435 -3.6494c 1.0085,-0.1778 2.0169,-0.3556 3.0254 -0.5335c -0.7657,-4.3426 -1.5314,-8.6851 -2.2971 -13.0277c -1.0085,0.1778 -2.0169,0.3557 -3.0254 0.5335c -1.0958,-6.2146 -2.1916,-12.4291 -3.2874 -18.6437c 1.0084,-0.1778 2.0169,-0.3556 3.0253 -0.5335c -0.7657,-4.3426 -1.5314,-8.6851 -2.2971 -13.0277c -1.0084,0.1778 -2.0169,0.3557 -3.0253 0.5335c -0.2145,-1.2164 -0.4290,-2.4329 -0.6435 -3.6493c -17.3326,3.0562 -34.6652,6.1124 -51.9978 9.1686c 0.2145,1.2164 0.4290,2.4329 0.6435 3.6493c -1.0084,0.1778 -2.0169,0.3557 -3.0253 0.5335ZM 371.9508,2036.9429 c 0.7657,4.3426 1.5314,8.6852 2.2971 13.0277c 1.0084,-0.1778 2.0169,-0.3556 3.0254 -0.5335c 1.0958,6.2146 2.1916,12.4291 3.2874 18.6437c -1.0084,0.1778 -2.0169,0.3556 -3.0254 0.5335c 0.7657,4.3426 1.5314,8.6851 2.2972 13.0277c 1.0084,-0.1778 2.0169,-0.3557 3.0253 -0.5335c 0.2145,1.2164 0.4290,2.4329 0.6435 3.6493c 17.3326,-3.0562 34.6652,-6.1124 51.9978 -9.1686c -0.2145,-1.2164 -0.4290,-2.4329 -0.6435 -3.6493c 1.0084,-0.1778 2.0169,-0.3557 3.0254 -0.5335c -0.7657,-4.3426 -1.5314,-8.6852 -2.2972 -13.0277c -1.0084,0.1778 -2.0169,0.3556 -3.0253 0.5335c -1.0958,-6.2146 -2.1916,-12.4291 -3.2874 -18.6437c 1.0084,-0.1778 2.0169,-0.3556 3.0253 -0.5335c -0.7657,-4.3426 -1.5314,-8.6852 -2.2971 -13.0277c -1.0084,0.1778 -2.0169,0.3556 -3.0254 0.5335c -0.2145,-1.2165 -0.4290,-2.4329 -0.6435 -3.6494c -17.3326,3.0562 -34.6652,6.1125 -51.9978 9.1686c 0.2145,1.2165 0.4290,2.4329 0.6435 3.6494c -1.0084,0.1778 -2.0169,0.3556 -3.0253 0.5335ZM 384.4207,2107.6629 c 0.7657,4.3426 1.5314,8.6852 2.2971 13.0277c 1.0084,-0.1778 2.0169,-0.3556 3.0254 -0.5335c 1.0958,6.2146 2.1916,12.4291 3.2874 18.6437c -1.0084,0.1778 -2.0169,0.3556 -3.0254 0.5335c 0.7657,4.3426 1.5314,8.6852 2.2972 13.0277c 1.0084,-0.1778 2.0169,-0.3556 3.0253 -0.5335c 0.2145,1.2165 0.4290,2.4329 0.6435 3.6494c 17.3326,-3.0562 34.6652,-6.1125 51.9978 -9.1686c -0.2145,-1.2165 -0.4290,-2.4329 -0.6435 -3.6494c 1.0084,-0.1778 2.0169,-0.3556 3.0254 -0.5335c -0.7657,-4.3426 -1.5314,-8.6851 -2.2972 -13.0277c -1.0084,0.1778 -2.0169,0.3556 -3.0253 0.5335c -1.0958,-6.2146 -2.1916,-12.4291 -3.2874 -18.6437c 1.0084,-0.1778 2.0169,-0.3556 3.0253 -0.5335c -0.7657,-4.3426 -1.5314,-8.6851 -2.2971 -13.0277c -1.0084,0.1778 -2.0169,0.3557 -3.0254 0.5335c -0.2145,-1.2164 -0.4290,-2.4329 -0.6435 -3.6493c -17.3326,3.0562 -34.6653,6.1124 -51.9978 9.1686c 0.2145,1.2164 0.4290,2.4329 0.6435 3.6493c -1.0084,0.1778 -2.0169,0.3557 -3.0253 0.5335ZM 396.8905,2178.3830 c 0.7657,4.3426 1.5314,8.6852 2.2971 13.0277c 1.0084,-0.1778 2.0169,-0.3556 3.0254 -0.5335c 1.0958,6.2146 2.1916,12.4291 3.2874 18.6437c -1.0084,0.1778 -2.0169,0.3557 -3.0254 0.5335c 0.7657,4.3426 1.5314,8.6852 2.2972 13.0277c 1.0084,-0.1778 2.0169,-0.3556 3.0253 -0.5335c 0.2145,1.2165 0.4290,2.4329 0.6435 3.6494c 17.3326,-3.0562 34.6652,-6.1124 51.9978 -9.1686c -0.2145,-1.2165 -0.4290,-2.4329 -0.6435 -3.6494c 1.0084,-0.1778 2.0169,-0.3556 3.0254 -0.5335c -0.7657,-4.3426 -1.5314,-8.6851 -2.2972 -13.0277c -1.0084,0.1778 -2.0169,0.3557 -3.0253 0.5335c -1.0958,-6.2146 -2.1916,-12.4291 -3.2874 -18.6437c 1.0084,-0.1778 2.0169,-0.3556 3.0253 -0.5335c -0.7657,-4.3426 -1.5314,-8.6851 -2.2971 -13.0277c -1.0084,0.1778 -2.0169,0.3556 -3.0254 0.5335c -0.2144,-1.2165 -0.4290,-2.4329 -0.6435 -3.6494c -17.3326,3.0562 -34.6653,6.1124 -51.9978 9.1686c 0.2145,1.2164 0.4290,2.4329 0.6435 3.6494c -1.0084,0.1778 -2.0169,0.3556 -3.0253 0.5334ZM 409.3604,2249.1031 c 0.7657,4.3426 1.5314,8.6851 2.2971 13.0277c 1.0084,-0.1778 2.0169,-0.3557 3.0254 -0.5335c 1.0958,6.2146 2.1916,12.4291 3.2874 18.6437c -1.0084,0.1778 -2.0169,0.3556 -3.0254 0.5335c 0.7657,4.3426 1.5314,8.6851 2.2972 13.0277c 1.0084,-0.1778 2.0169,-0.3556 3.0253 -0.5334c 0.2145,1.2164 0.4290,2.4329 0.6435 3.6493c 17.3326,-3.0562 34.6652,-6.1124 51.9978 -9.1686c -0.2145,-1.2164 -0.4290,-2.4329 -0.6435 -3.6493c 1.0084,-0.1778 2.0169,-0.3557 3.0254 -0.5335c -0.7657,-4.3426 -1.5314,-8.6852 -2.2972 -13.0277c -1.0084,0.1778 -2.0169,0.3556 -3.0253 0.5335c -1.0958,-6.2146 -2.1916,-12.4291 -3.2874 -18.6437c 1.0084,-0.1778 2.0169,-0.3557 3.0253 -0.5335c -0.7657,-4.3426 -1.5314,-8.6852 -2.2971 -13.0277c -1.0084,0.1778 -2.0169,0.3556 -3.0254 0.5335c -0.2145,-1.2165 -0.4290,-2.4329 -0.6435 -3.6494c -17.3326,3.0562 -34.6653,6.1124 -51.9978 9.1686c 0.2144,1.2165 0.4290,2.4329 0.6435 3.6494c -1.0084,0.1778 -2.0169,0.3556 -3.0253 0.5335ZM 443.3272,2028.1951 c 0.7657,4.3426 1.5314,8.6852 2.2971 13.0277c 1.0084,-0.1778 2.0169,-0.3556 3.0253 -0.5335c 1.0958,6.2146 2.1916,12.4291 3.2874 18.6437c -1.0084,0.1778 -2.0169,0.3557 -3.0254 0.5335c 0.7657,4.3426 1.5314,8.6852 2.2972 13.0277c 1.0084,-0.1778 2.0169,-0.3556 3.0253 -0.5335c 0.2145,1.2165 0.4290,2.4329 0.6435 3.6494c 17.3326,-3.0562 34.6653,-6.1124 51.9979 -9.1686c -0.2145,-1.2165 -0.4290,-2.4329 -0.6435 -3.6494c 1.0084,-0.1778 2.0169,-0.3556 3.0253 -0.5335c -0.7657,-4.3426 -1.5314,-8.6851 -2.2971 -13.0277c -1.0084,0.1778 -2.0169,0.3557 -3.0253 0.5335c -1.0958,-6.2146 -2.1916,-12.4291 -3.2874 -18.6437c 1.0084,-0.1778 2.0169,-0.3556 3.0253 -0.5335c -0.7657,-4.3426 -1.5314,-8.6851 -2.2971 -13.0277c -1.0085,0.1778 -2.0169,0.3556 -3.0254 0.5334c -0.2145,-1.2164 -0.4290,-2.4329 -0.6435 -3.6493c -17.3326,3.0562 -34.6653,6.1124 -51.9979 9.1686c 0.2145,1.2164 0.4290,2.4329 0.6435 3.6493c -1.0084,0.1778 -2.0169,0.3557 -3.0253 0.5335ZM 455.7971,2098.9152 c 0.7657,4.3426 1.5314,8.6851 2.2971 13.0277c 1.0084,-0.1778 2.0169,-0.3557 3.0253 -0.5335c 1.0958,6.2146 2.1916,12.4291 3.2874 18.6437c -1.0085,0.1778 -2.0169,0.3556 -3.0254 0.5335c 0.7657,4.3426 1.5314,8.6851 2.2972 13.0277c 1.0084,-0.1778 2.0169,-0.3557 3.0253 -0.5335c 0.2145,1.2164 0.4290,2.4329 0.6435 3.6493c 17.3326,-3.0562 34.6653,-6.1124 51.9979 -9.1686c -0.2145,-1.2164 -0.4290,-2.4329 -0.6435 -3.6493c 1.0084,-0.1778 2.0169,-0.3557 3.0253 -0.5335c -0.7657,-4.3426 -1.5314,-8.6852 -2.2971 -13.0277c -1.0084,0.1778 -2.0169,0.3556 -3.0253 0.5335c -1.0958,-6.2146 -2.1916,-12.4291 -3.2874 -18.6437c 1.0084,-0.1778 2.0169,-0.3557 3.0253 -0.5335c -0.7657,-4.3426 -1.5314,-8.6852 -2.2971 -13.0277c -1.0085,0.1778 -2.0169,0.3556 -3.0254 0.5335c -0.2145,-1.2165 -0.4290,-2.4329 -0.6435 -3.6494c -17.3326,3.0562 -34.6653,6.1124 -51.9979 9.1686c 0.2145,1.2165 0.4290,2.4329 0.6435 3.6494c -1.0084,0.1778 -2.0169,0.3556 -3.0253 0.5335ZM 468.2669,2169.6353 c 0.7657,4.3426 1.5314,8.6852 2.2971 13.0277c 1.0084,-0.1778 2.0169,-0.3556 3.0253 -0.5335c 1.0958,6.2146 2.1916,12.4291 3.2874 18.6437c -1.0085,0.1778 -2.0169,0.3556 -3.0254 0.5335c 0.7657,4.3426 1.5314,8.6851 2.2971 13.0277c 1.0085,-0.1778 2.0169,-0.3556 3.0254 -0.5335c 0.2145,1.2164 0.4290,2.4329 0.6435 3.6494c 17.3326,-3.0562 34.6653,-6.1125 51.9979 -9.1686c -0.2145,-1.2165 -0.4290,-2.4329 -0.6435 -3.6494c 1.0084,-0.1778 2.0169,-0.3557 3.0253 -0.5335c -0.7657,-4.3426 -1.5314,-8.6852 -2.2971 -13.0277c -1.0084,0.1778 -2.0169,0.3556 -3.0253 0.5335c -1.0958,-6.2146 -2.1916,-12.4291 -3.2874 -18.6437c 1.0084,-0.1778 2.0169,-0.3556 3.0253 -0.5335c -0.7657,-4.3426 -1.5314,-8.6852 -2.2972 -13.0277c -1.0084,0.1778 -2.0169,0.3556 -3.0253 0.5335c -0.2145,-1.2164 -0.4290,-2.4329 -0.6435 -3.6494c -17.3326,3.0562 -34.6653,6.1125 -51.9979 9.1686c 0.2145,1.2165 0.4290,2.4329 0.6435 3.6494c -1.0084,0.1778 -2.0169,0.3556 -3.0253 0.5335ZM 480.7368,2240.3553 c 0.7657,4.3426 1.5314,8.6852 2.2971 13.0277c 1.0084,-0.1778 2.0169,-0.3556 3.0253 -0.5335c 1.0958,6.2146 2.1916,12.4291 3.2874 18.6437c -1.0084,0.1778 -2.0169,0.3557 -3.0253 0.5335c 0.7657,4.3426 1.5314,8.6852 2.2971 13.0277c 1.0085,-0.1778 2.0169,-0.3556 3.0254 -0.5335c 0.2145,1.2165 0.4290,2.4329 0.6435 3.6494c 17.3326,-3.0562 34.6653,-6.1124 51.9978 -9.1686c -0.2144,-1.2165 -0.4290,-2.4329 -0.6435 -3.6494c 1.0084,-0.1778 2.0169,-0.3556 3.0253 -0.5335c -0.7657,-4.3426 -1.5314,-8.6851 -2.2971 -13.0277c -1.0084,0.1778 -2.0169,0.3557 -3.0253 0.5335c -1.0958,-6.2146 -2.1916,-12.4291 -3.2874 -18.6437c 1.0084,-0.1778 2.0169,-0.3556 3.0253 -0.5335c -0.7657,-4.3426 -1.5314,-8.6851 -2.2972 -13.0277c -1.0084,0.1778 -2.0169,0.3557 -3.0253 0.5335c -0.2145,-1.2164 -0.4290,-2.4329 -0.6435 -3.6493c -17.3326,3.0562 -34.6653,6.1124 -51.9979 9.1686c 0.2145,1.2164 0.4290,2.4329 0.6435 3.6493c -1.0084,0.1778 -2.0169,0.3557 -3.0253 0.5335ZM 516.3217,1991.3370 c 0.0000,0.3268 0.0284,0.6581 0.0871 0.9911c 0.5437,3.0835 3.4841,5.1424 6.5676 4.5987c 2.7505,-0.4850 4.6858,-2.8770 4.6858 -5.5765c 0.0000,-0.3268 -0.0284,-0.6581 -0.0871 -0.9911c -0.5437,-3.0835 -3.4841,-5.1424 -6.5676 -4.5987c -2.7505,0.4850 -4.6858,2.8770 -4.6858 5.5765ZM 568.7284,2292.9032 c 0.0000,0.3268 0.0284,0.6581 0.0871 0.9911c 0.5437,3.0835 3.4842,5.1424 6.5676 4.5987c 2.7505,-0.4850 4.6858,-2.8770 4.6858 -5.5766c 0.0000,-0.3268 -0.0283,-0.6581 -0.0870 -0.9911c -0.5437,-3.0835 -3.4842,-5.1424 -6.5676 -4.5987c -2.7505,0.4850 -4.6858,2.8770 -4.6858 5.5766Z"/></g><g stroke-linejoin="miter" stroke-opacity="1.0" fill-opacity="0.5" stroke="rgb(0,0,0)" stroke-width="0.7559055118110237" fill="rgb(0,0,255)" stroke-linecap="butt" stroke-miterlimit="10.0"><path d="M 3.9685,1987.5309 c 0.0000,-6.7840 5.4995,-12.2835 12.2835 -12.2835c 169.7535,-0.0000 339.5070,-0.0000 509.2605 -0.0000c 5.9611,-0.0000 11.0617,4.2799 12.0969 10.1505c 17.9338,101.7077 35.8676,203.4154 53.8014 305.1231c 0.1267,0.7185 0.1880,1.4347 0.1880 2.1423c 0.0000,5.3385 -3.4924,10.1826 -8.7661 11.7594c -160.7949,48.0773 -321.5899,96.1547 -482.3848 144.2321c -1.1417,0.3414 -2.3271,0.5148 -3.5188 0.5148c -26.8924,-0.0000 -53.7847,-0.0000 -80.6771 -0.0000c -6.7840,-0.0000 -12.2835,-5.4995 -12.2835 -12.2835c 0.0000,-149.7851 0.0000,-299.5701 0.0000 -449.3552ZM 39.6970,2275.7901 c 0.0000,0.2179 0.0189,0.4388 0.0581 0.6608c 4.0954,23.2259 8.1907,46.4519 12.2861 69.6778c 0.0312,0.1769 0.0742,0.3486 0.1281 0.5147c 0.0062,0.1745 0.0245,0.3506 0.0557 0.5275c 4.0954,23.2259 8.1907,46.4519 12.2861 69.6779c 0.3624,2.0556 2.3227,3.4282 4.3784 3.0658c 23.2259,-4.0954 46.4519,-8.1907 69.6778 -12.2861c 1.8337,-0.3233 3.1239,-1.9180 3.1239 -3.7177c 0.0000,-0.2179 -0.0189,-0.4388 -0.0581 -0.6608c -1.8595,-10.5460 -3.7191,-21.0919 -5.5786 -31.6379c 22.3327,-3.9379 44.6653,-7.8757 66.9979 -11.8135c 1.8337,-0.3233 3.1239,-1.9180 3.1239 -3.7177c 0.0000,-0.2179 -0.0189,-0.4387 -0.0580 -0.6607c -0.8751,-4.9628 -1.7502,-9.9256 -2.6252 -14.8884c 22.3327,-3.9379 44.6653,-7.8757 66.9979 -11.8136c 1.8337,-0.3233 3.1239,-1.9180 3.1239 -3.7177c 0.0000,-0.2179 -0.0189,-0.4388 -0.0581 -0.6608c -1.0938,-6.2035 -2.1877,-12.4070 -3.2815 -18.6105c 21.4394,-3.7803 42.8787,-7.5607 64.3180 -11.3410c 0.8751,4.9628 1.7502,9.9256 2.6252 14.8884c 0.3625,2.0557 2.3227,3.4283 4.3784 3.0658c 22.3327,-3.9379 44.6653,-7.8757 66.9980 -11.8135c 0.4376,2.4814 0.8751,4.9628 1.3126 7.4442c 0.3624,2.0556 2.3227,3.4282 4.3784 3.0658c 22.3327,-3.9379 44.6653,-7.8757 66.9980 -11.8136c 0.3624,2.0557 2.3227,3.4283 4.3784 3.0658c 23.2259,-4.0954 46.4519,-8.1907 69.6778 -12.2861c 1.8337,-0.3233 3.1239,-1.9180 3.1239 -3.7177c 0.0000,-0.2179 -0.0189,-0.4387 -0.0581 -0.6607c -4.0954,-23.2260 -8.1907,-46.4519 -12.2861 -69.6779c -0.0312,-0.1768 -0.0741,-0.3486 -0.1280 -0.5147c -0.0062,-0.1745 -0.0245,-0.3506 -0.0557 -0.5274c -4.0954,-23.2260 -8.1907,-46.4519 -12.2861 -69.6779c -0.0312,-0.1769 -0.0742,-0.3486 -0.1281 -0.5147c -0.0062,-0.1745 -0.0245,-0.3506 -0.0557 -0.5275c -4.0954,-23.2259 -8.1907,-46.4519 -12.2861 -69.6778c -0.0312,-0.1769 -0.0742,-0.3487 -0.1281 -0.5148c -0.0062,-0.1745 -0.0245,-0.3506 -0.0557 -0.5274c -4.0954,-23.2259 -8.1907,-46.4519 -12.2861 -69.6779c -0.3625,-2.0556 -2.3228,-3.4282 -4.3784 -3.0658c -22.3327,3.9379 -44.6653,7.8757 -66.9980 11.8136c -0.3625,-2.0557 -2.3228,-3.4283 -4.3784 -3.0658c -22.3327,3.9379 -44.6653,7.8757 -66.9980 11.8135c -0.4376,-2.4814 -0.8751,-4.9628 -1.3126 -7.4442c -0.3625,-2.0556 -2.3227,-3.4282 -4.3784 -3.0658c -22.3327,3.9379 -44.6653,7.8757 -66.9980 11.8136c -0.8751,-4.9628 -1.7501,-9.9256 -2.6252 -14.8884c -0.3624,-2.0557 -2.3227,-3.4283 -4.3784 -3.0658c -23.2259,4.0954 -46.4519,8.1907 -69.6778 12.2861c -1.8337,0.3233 -3.1239,1.9180 -3.1239 3.7177c 0.0000,0.2179 0.0189,0.4387 0.0581 0.6607c 1.0938,6.2036 2.1877,12.4071 3.2815 18.6106c -22.3327,3.9379 -44.6653,7.8757 -66.9979 11.8135c -1.8337,0.3233 -3.1239,1.9180 -3.1239 3.7177c 0.0000,0.2179 0.0189,0.4387 0.0581 0.6607c 0.8751,4.9628 1.7501,9.9256 2.6252 14.8884c -22.3327,3.9379 -44.6653,7.8757 -66.9980 11.8136c -1.8337,0.3233 -3.1239,1.9180 -3.1239 3.7177c 0.0000,0.2179 0.0189,0.4388 0.0581 0.6608c 4.0954,23.2259 8.1907,46.4519 12.2861 69.6778c 0.0312,0.1769 0.0742,0.3486 0.1281 0.5147c 0.0062,0.1745 0.0245,0.3506 0.0557 0.5275c 4.0953,23.2259 8.1907,46.4519 12.2861 69.6778c 0.0312,0.1769 0.0742,0.3487 0.1281 0.5148c 0.0062,0.1745 0.0245,0.3506 0.0557 0.5274c 1.8595,10.5460 3.7191,21.0919 5.5786 31.6379c -22.3327,3.9379 -44.6653,7.8757 -66.9980 11.8136c -1.8336,0.3233 -3.1239,1.9180 -3.1239 3.7177ZM 48.3770,1991.3370 c 0.0000,0.3268 0.0284,0.6581 0.0871 0.9911c 0.5437,3.0835 3.4842,5.1424 6.5676 4.5987c 2.7505,-0.4850 4.6858,-2.8770 4.6858 -5.5765c 0.0000,-0.3268 -0.0284,-0.6581 -0.0871 -0.9911c -0.5437,-3.0835 -3.4842,-5.1424 -6.5676 -4.5987c -2.7505,0.4850 -4.6858,2.8770 -4.6858 5.5765ZM 101.0985,2431.0076 c 0.0000,0.3268 0.0284,0.6581 0.0870 0.9911c 0.5437,3.0835 3.4842,5.1424 6.5676 4.5987c 2.7505,-0.4850 4.6858,-2.8770 4.6858 -5.5765c 0.0000,-0.3268 -0.0284,-0.6581 -0.0871 -0.9911c -0.5437,-3.0835 -3.4842,-5.1424 -6.5676 -4.5987c -2.7505,0.4850 -4.6858,2.8770 -4.6858 5.5765ZM 516.3217,1991.3370 c 0.0000,0.3268 0.0284,0.6581 0.0871 0.9911c 0.5437,3.0835 3.4841,5.1424 6.5676 4.5987c 2.7505,-0.4850 4.6858,-2.8770 4.6858 -5.5765c 0.0000,-0.3268 -0.0284,-0.6581 -0.0871 -0.9911c -0.5437,-3.0835 -3.4841,-5.1424 -6.5676 -4.5987c -2.7505,0.4850 -4.6858,2.8770 -4.6858 5.5765ZM 568.7284,2292.9032 c 0.0000,0.3268 0.0284,0.6581 0.0871 0.9911c 0.5437,3.0835 3.4842,5.1424 6.5676 4.5987c 2.7505,-0.4850 4.6858,-2.8770 4.6858 -5.5766c 0.0000,-0.3268 -0.0283,-0.6581 -0.0870 -0.9911c -0.5437,-3.0835 -3.4842,-5.1424 -6.5676 -4.5987c -2.7505,0.4850 -4.6858,2.8770 -4.6858 5.5766Z"/></g><defs><linearGradient x2="38.8693" y1="0.0000" gradientUnits="userSpaceOnUse" spreadMethod="pad" gradientTransform="matrix(3.7795,-0.0000,0.0000,-3.7795,16.2520,1860.1569)" id="gradient8" y2="-60.0000" x1="-38.8693"><stop stop-opacity="1.0000" offset="0.0000" stop-color="rgb(128,128,128)"/><stop stop-opacity="1.0000" offset="0.5000" stop-color="rgb(255,255,255)"/><stop stop-opacity="1.0000" offset="1.0000" stop-color="rgb(128,128,128)"/></linearGradient></defs><g stroke-linejoin="miter" stroke-opacity="1.0" fill-opacity="1" stroke="rgb(0,0,0)" stroke-width="0.7559055118110237" fill="url(#gradient8)" stroke-linecap="butt" stroke-miterlimit="10.0"><path d="M 3.9685,1494.7112 c 0.0000,-6.7840 5.4995,-12.2835 12.2835 -12.2835c 169.7535,-0.0000 339.5070,-0.0000 509.2605 -0.0000c 5.9611,-0.0000 11.0617,4.2799 12.0969 10.1505c 17.9338,101.7077 35.8676,203.4154 53.8014 305.1231c 0.1267,0.7185 0.1880,1.4347 0.1880 2.1423c 0.0000,5.3385 -3.4924,10.1826 -8.7661 11.7594c -160.7949,48.0773 -321.5899,96.1547 -482.3848 144.2321c -1.1417,0.3414 -2.3271,0.5148 -3.5188 0.5148c -26.8924,-0.0000 -53.7847,-0.0000 -80.6771 -0.0000c -6.7840,-0.0000 -12.2835,-5.4995 -12.2835 -12.2835c 0.0000,-149.7851 0.0000,-299.5701 0.0000 -449.3552ZM 48.3770,1498.5173 c 0.0000,0.3268 0.0284,0.6581 0.0871 0.9911c 0.5437,3.0835 3.4842,5.1424 6.5676 4.5987c 2.7505,-0.4850 4.6858,-2.8770 4.6858 -5.5765c 0.0000,-0.3268 -0.0284,-0.6581 -0.0871 -0.9911c -0.5437,-3.0835 -3.4842,-5.1424 -6.5676 -4.5987c -2.7505,0.4850 -4.6858,2.8770 -4.6858 5.5765ZM 101.0985,1938.1878 c 0.0000,0.3268 0.0284,0.6581 0.0870 0.9911c 0.5437,3.0835 3.4842,5.1424 6.5676 4.5987c 2.7505,-0.4850 4.6858,-2.8770 4.6858 -5.5765c 0.0000,-0.3268 -0.0284,-0.6581 -0.0871 -0.9911c -0.5437,-3.0835 -3.4842,-5.1424 -6.5676 -4.5987c -2.7505,0.4850 -4.6858,2.8770 -4.6858 5.5765ZM 516.3217,1498.5173 c 0.0000,0.3268 0.0284,0.6581 0.0871 0.9911c 0.5437,3.0835 3.4841,5.1424 6.5676 4.5987c 2.7505,-0.4850 4.6858,-2.8770 4.6858 -5.5765c 0.0000,-0.3268 -0.0284,-0.6581 -0.0871 -0.9911c -0.5437,-3.0835 -3.4841,-5.1424 -6.5676 -4.5987c -2.7505,0.4850 -4.6858,2.8770 -4.6858 5.5765ZM 568.7284,1800.0835 c 0.0000,0.3268 0.0284,0.6581 0.0871 0.9911c 0.5437,3.0835 3.4842,5.1424 6.5676 4.5987c 2.7505,-0.4850 4.6858,-2.8770 4.6858 -5.5766c 0.0000,-0.3268 -0.0283,-0.6581 -0.0870 -0.9911c -0.5437,-3.0835 -3.4842,-5.1424 -6.5676 -4.5987c -2.7505,0.4850 -4.6858,2.8770 -4.6858 5.5766Z"/></g><g stroke-linejoin="miter" stroke-opacity="1.0" fill-opacity="0.5" stroke="rgb(0,0,0)" stroke-width="0.7559055118110237" fill="rgb(255,255,0)" stroke-linecap="butt" stroke-miterlimit="10.0"><path d="M 3.9685,1001.8914 c 0.0000,-6.7840 5.4995,-12.2835 12.2835 -12.2835c 11.5901,-0.0000 23.1801,-0.0000 34.7702 -0.0000c 2.0246,-0.0000 4.0492,-0.0000 6.0738 -0.0000c 153.9570,-0.0000 307.9139,-0.0000 461.8710 -0.0000c 2.0246,-0.0000 4.0492,-0.0000 6.0737 -0.0000c 0.1573,-0.0000 0.3145,-0.0000 0.4718 -0.0000c 5.9611,-0.0000 11.0617,4.2799 12.0969 10.1505c 17.9338,101.7077 35.8677,203.4154 53.8015 305.1230c 0.1266,0.7185 0.1880,1.4347 0.1880 2.1422c 0.0000,2.6815 -0.8811,5.2382 -2.4265 7.3188c -1.5313,2.0617 -3.7148,3.6558 -6.3396 4.4406c -4.5153,1.3501 -9.0307,2.7001 -13.5461 4.0502c -150.6965,45.0580 -301.3931,90.1159 -452.0896 135.1739c -4.0713,1.2173 -8.1427,2.4346 -12.2140 3.6520c -1.5117,0.4520 -3.0234,0.9040 -4.5351 1.3560c -1.1417,0.3414 -2.3271,0.5148 -3.5188 0.5148c -26.8923,-0.0000 -53.7847,-0.0000 -80.6771 -0.0000c -6.7840,-0.0000 -12.2835,-5.4995 -12.2835 -12.2835c 0.0000,-149.7851 0.0000,-299.5702 -0.0000 -449.3552ZM 27.5937,1023.3931 c 0.0000,135.4506 0.0000,270.9012 0.0000 406.3519c 0.0000,6.1348 5.0750,11.1080 11.3354 11.1080c 17.3648,-0.0000 34.7296,-0.0000 52.0944 -0.0000c 1.6767,-5.8221 6.5324,-10.4843 12.9012 -11.6073c 7.6215,-1.3439 14.9404,2.8162 17.8791 9.6249c 145.5441,-42.6442 291.0883,-85.2883 436.6323 -127.9324c -0.0622,-0.2716 -0.1178,-0.5462 -0.1667 -0.8237c -0.1696,-0.9619 -0.2516,-1.9191 -0.2516 -2.8632c 0.0000,-6.8305 4.2888,-12.9795 10.6925 -15.3423c -16.1900,-89.9757 -32.3801,-179.9517 -48.5701 -269.9274c -5.7628,-0.6531 -10.8100,-4.3500 -13.1502 -9.6963c -145.9812,-0.0000 -291.9624,-0.0000 -437.9435 -0.0000c -2.1288,4.8399 -6.5577,8.5611 -12.1555 9.5482c -7.5928,1.3389 -14.8854,-2.7849 -17.8458 -9.5482c -0.0388,-0.0000 -0.0775,-0.0000 -0.1163 -0.0000c -6.2604,-0.0000 -11.3354,4.9732 -11.3354 11.1080ZM 48.3770,1005.6975 c 0.0000,0.3268 0.0284,0.6581 0.0871 0.9911c 0.5437,3.0835 3.4841,5.1424 6.5676 4.5987c 2.7505,-0.4850 4.6858,-2.8770 4.6858 -5.5765c 0.0000,-0.3268 -0.0284,-0.6581 -0.0871 -0.9911c -0.5437,-3.0835 -3.4842,-5.1424 -6.5677 -4.5987c -2.7505,0.4850 -4.6858,2.8770 -4.6858 5.5765ZM 101.0985,1445.3681 c 0.0000,0.3268 0.0284,0.6581 0.0871 0.9911c 0.5437,3.0835 3.4841,5.1424 6.5676 4.5987c 2.7505,-0.4850 4.6858,-2.8770 4.6858 -5.5765c 0.0000,-0.3268 -0.0284,-0.6581 -0.0871 -0.9911c -0.5437,-3.0835 -3.4842,-5.1424 -6.5676 -4.5987c -2.7505,0.4850 -4.6858,2.8770 -4.6858 5.5765ZM 516.3217,1005.6975 c 0.0000,0.3268 0.0284,0.6581 0.0871 0.9911c 0.5437,3.0835 3.4841,5.1424 6.5676 4.5987c 2.7505,-0.4850 4.6858,-2.8770 4.6858 -5.5765c 0.0000,-0.3268 -0.0284,-0.6581 -0.0871 -0.9911c -0.5437,-3.0835 -3.4841,-5.1424 -6.5676 -4.5987c -2.7505,0.4850 -4.6858,2.8770 -4.6858 5.5765ZM 568.7284,1307.2637 c 0.0000,0.3268 0.0284,0.6581 0.0871 0.9911c 0.5437,3.0835 3.4841,5.1424 6.5676 4.5987c 2.7505,-0.4850 4.6858,-2.8770 4.6858 -5.5765c 0.0000,-0.3268 -0.0284,-0.6581 -0.0871 -0.9911c -0.5437,-3.0835 -3.4841,-5.1424 -6.5676 -4.5987c -2.7505,0.4850 -4.6858,2.8770 -4.6858 5.5765Z"/></g><g stroke-linejoin="miter" stroke-opacity="1.0" fill-opacity="0.5" stroke="rgb(0,0,0)" stroke-width="0.7559055118110237" fill="rgb(0,128,0)" stroke-linecap="butt" stroke-miterlimit="10.0"><path d="M 3.9685,509.0717 c 0.0000,-6.7840 5.4995,-12.2835 12.2835 -12.2835c 169.7535,-0.0000 339.5070,-0.0000 509.2605 -0.0000c 5.9611,-0.0000 11.0617,4.2799 12.0969 10.1505c 17.9338,101.7077 35.8676,203.4154 53.8014 305.1231c 0.1267,0.7185 0.1880,1.4347 0.1880 2.1423c 0.0000,5.3385 -3.4924,10.1826 -8.7661 11.7594c -160.7949,48.0773 -321.5899,96.1547 -482.3848 144.2321c -1.1417,0.3414 -2.3271,0.5148 -3.5188 0.5148c -26.8924,-0.0000 -53.7847,-0.0000 -80.6771 -0.0000c -6.7840,-0.0000 -12.2835,-5.4995 -12.2835 -12.2835c 0.0000,-149.7851 0.0000,-299.5701 0.0000 -449.3552ZM 48.3770,512.8778 c 0.0000,0.3268 0.0284,0.6581 0.0871 0.9911c 0.5437,3.0835 3.4842,5.1424 6.5676 4.5987c 2.7505,-0.4850 4.6858,-2.8770 4.6858 -5.5765c 0.0000,-0.3268 -0.0284,-0.6581 -0.0871 -0.9911c -0.5437,-3.0835 -3.4842,-5.1424 -6.5676 -4.5987c -2.7505,0.4850 -4.6858,2.8770 -4.6858 5.5765ZM 51.4941,808.7994 c 0.7657,4.3426 1.5314,8.6852 2.2971 13.0277c 1.0084,-0.1778 2.0169,-0.3556 3.0254 -0.5335c 1.0958,6.2146 2.1916,12.4291 3.2874 18.6437c -1.0084,0.1778 -2.0169,0.3557 -3.0254 0.5335c 0.7657,4.3426 1.5314,8.6852 2.2972 13.0277c 1.0084,-0.1778 2.0169,-0.3556 3.0253 -0.5335c 0.2145,1.2165 0.4290,2.4329 0.6435 3.6494c 17.3326,-3.0562 34.6652,-6.1124 51.9978 -9.1686c -0.2145,-1.2165 -0.4290,-2.4329 -0.6435 -3.6494c 1.0084,-0.1778 2.0169,-0.3556 3.0254 -0.5335c -0.7657,-4.3426 -1.5314,-8.6851 -2.2972 -13.0277c -1.0084,0.1778 -2.0169,0.3557 -3.0253 0.5335c -1.0958,-6.2146 -2.1916,-12.4291 -3.2874 -18.6437c 1.0084,-0.1778 2.0169,-0.3556 3.0253 -0.5335c -0.7657,-4.3426 -1.5314,-8.6851 -2.2971 -13.0277c -1.0084,0.1778 -2.0169,0.3556 -3.0254 0.5335c -0.2144,-1.2165 -0.4290,-2.4329 -0.6435 -3.6494c -17.3326,3.0562 -34.6653,6.1124 -51.9978 9.1686c 0.2145,1.2164 0.4290,2.4329 0.6435 3.6494c -1.0084,0.1778 -2.0169,0.3556 -3.0253 0.5334ZM 63.9640,879.5195 c 0.7657,4.3426 1.5314,8.6851 2.2971 13.0277c 1.0084,-0.1778 2.0169,-0.3557 3.0254 -0.5335c 1.0958,6.2146 2.1916,12.4291 3.2874 18.6437c -1.0084,0.1778 -2.0169,0.3556 -3.0254 0.5335c 0.7657,4.3426 1.5314,8.6851 2.2972 13.0277c 1.0084,-0.1778 2.0169,-0.3557 3.0253 -0.5335c 0.2145,1.2164 0.4290,2.4329 0.6435 3.6493c 17.3326,-3.0562 34.6652,-6.1124 51.9978 -9.1686c -0.2145,-1.2164 -0.4290,-2.4329 -0.6435 -3.6493c 1.0084,-0.1778 2.0169,-0.3557 3.0254 -0.5335c -0.7657,-4.3426 -1.5314,-8.6852 -2.2972 -13.0277c -1.0084,0.1778 -2.0169,0.3556 -3.0253 0.5335c -1.0958,-6.2146 -2.1916,-12.4291 -3.2874 -18.6437c 1.0084,-0.1778 2.0169,-0.3557 3.0253 -0.5335c -0.7657,-4.3426 -1.5314,-8.6852 -2.2971 -13.0277c -1.0084,0.1778 -2.0169,0.3556 -3.0254 0.5335c -0.2145,-1.2165 -0.4290,-2.4329 -0.6435 -3.6494c -17.3326,3.0562 -34.6653,6.1124 -51.9978 9.1686c 0.2144,1.2165 0.4290,2.4329 0.6435 3.6494c -1.0084,0.1778 -2.0169,0.3556 -3.0253 0.5335ZM 91.0395,619.5294 c 0.7657,4.3426 1.5314,8.6852 2.2972 13.0277c 1.0084,-0.1778 2.0169,-0.3556 3.0253 -0.5335c 1.0958,6.2146 2.1916,12.4291 3.2874 18.6437c -1.0084,0.1778 -2.0169,0.3557 -3.0253 0.5335c 0.7657,4.3426 1.5314,8.6852 2.2971 13.0277c 1.0084,-0.1778 2.0169,-0.3556 3.0254 -0.5335c 0.2144,1.2165 0.4290,2.4329 0.6435 3.6494c 17.3326,-3.0562 34.6652,-6.1125 51.9978 -9.1686c -0.2145,-1.2165 -0.4290,-2.4329 -0.6435 -3.6494c 1.0084,-0.1778 2.0169,-0.3556 3.0253 -0.5335c -0.7657,-4.3426 -1.5314,-8.6851 -2.2971 -13.0277c -1.0085,0.1778 -2.0169,0.3557 -3.0254 0.5335c -1.0958,-6.2146 -2.1916,-12.4291 -3.2874 -18.6437c 1.0084,-0.1778 2.0169,-0.3556 3.0253 -0.5335c -0.7657,-4.3426 -1.5314,-8.6851 -2.2971 -13.0277c -1.0084,0.1778 -2.0169,0.3557 -3.0253 0.5335c -0.2145,-1.2164 -0.4290,-2.4329 -0.6435 -3.6493c -17.3326,3.0562 -34.6652,6.1124 -51.9978 9.1686c 0.2145,1.2164 0.4290,2.4329 0.6435 3.6493c -1.0084,0.1778 -2.0169,0.3557 -3.0254 0.5335ZM 101.0985,952.5483 c 0.0000,0.3268 0.0284,0.6581 0.0870 0.9911c 0.5437,3.0835 3.4842,5.1424 6.5676 4.5987c 2.7505,-0.4850 4.6858,-2.8770 4.6858 -5.5765c 0.0000,-0.3268 -0.0284,-0.6581 -0.0871 -0.9911c -0.5437,-3.0835 -3.4842,-5.1424 -6.5676 -4.5987c -2.7505,0.4850 -4.6858,2.8770 -4.6858 5.5765ZM 103.5094,690.2495 c 0.7657,4.3426 1.5314,8.6851 2.2972 13.0277c 1.0084,-0.1778 2.0169,-0.3556 3.0253 -0.5335c 1.0958,6.2146 2.1916,12.4291 3.2874 18.6437c -1.0084,0.1778 -2.0169,0.3556 -3.0253 0.5335c 0.7657,4.3426 1.5314,8.6851 2.2971 13.0277c 1.0084,-0.1778 2.0169,-0.3556 3.0253 -0.5335c 0.2145,1.2165 0.4290,2.4329 0.6435 3.6494c 17.3326,-3.0562 34.6652,-6.1124 51.9978 -9.1686c -0.2145,-1.2164 -0.4290,-2.4329 -0.6435 -3.6493c 1.0084,-0.1778 2.0169,-0.3557 3.0253 -0.5335c -0.7657,-4.3426 -1.5314,-8.6851 -2.2971 -13.0277c -1.0085,0.1778 -2.0169,0.3556 -3.0254 0.5335c -1.0958,-6.2146 -2.1916,-12.4291 -3.2874 -18.6437c 1.0084,-0.1778 2.0169,-0.3557 3.0253 -0.5335c -0.7657,-4.3426 -1.5314,-8.6852 -2.2971 -13.0277c -1.0084,0.1778 -2.0169,0.3556 -3.0253 0.5335c -0.2145,-1.2165 -0.4290,-2.4329 -0.6435 -3.6494c -17.3326,3.0562 -34.6652,6.1124 -51.9978 9.1686c 0.2145,1.2164 0.4290,2.4329 0.6435 3.6494c -1.0084,0.1778 -2.0169,0.3556 -3.0254 0.5335ZM 115.9792,760.9695 c 0.7657,4.3426 1.5314,8.6851 2.2972 13.0277c 1.0084,-0.1778 2.0169,-0.3557 3.0253 -0.5335c 1.0958,6.2146 2.1916,12.4291 3.2874 18.6437c -1.0084,0.1778 -2.0169,0.3556 -3.0253 0.5335c 0.7657,4.3426 1.5314,8.6851 2.2971 13.0277c 1.0084,-0.1778 2.0169,-0.3557 3.0253 -0.5335c 0.2145,1.2164 0.4290,2.4329 0.6435 3.6493c 17.3326,-3.0562 34.6652,-6.1124 51.9978 -9.1686c -0.2145,-1.2164 -0.4290,-2.4329 -0.6435 -3.6493c 1.0084,-0.1778 2.0169,-0.3557 3.0253 -0.5335c -0.7657,-4.3426 -1.5314,-8.6852 -2.2972 -13.0277c -1.0084,0.1778 -2.0169,0.3556 -3.0253 0.5335c -1.0958,-6.2146 -2.1916,-12.4291 -3.2874 -18.6437c 1.0084,-0.1778 2.0169,-0.3557 3.0253 -0.5335c -0.7657,-4.3426 -1.5314,-8.6852 -2.2971 -13.0277c -1.0084,0.1778 -2.0169,0.3556 -3.0253 0.5335c -0.2145,-1.2165 -0.4290,-2.4329 -0.6435 -3.6494c -17.3326,3.0562 -34.6652,6.1125 -51.9978 9.1686c 0.2145,1.2165 0.4290,2.4329 0.6435 3.6494c -1.0085,0.1778 -2.0169,0.3556 -3.0254 0.5335ZM 128.4491,831.6896 c 0.7657,4.3426 1.5314,8.6852 2.2972 13.0277c 1.0084,-0.1778 2.0169,-0.3556 3.0253 -0.5335c 1.0958,6.2146 2.1916,12.4291 3.2874 18.6437c -1.0084,0.1778 -2.0169,0.3556 -3.0253 0.5335c 0.7657,4.3426 1.5314,8.6852 2.2971 13.0277c 1.0084,-0.1778 2.0169,-0.3556 3.0253 -0.5335c 0.2145,1.2164 0.4290,2.4329 0.6435 3.6494c 17.3326,-3.0562 34.6652,-6.1125 51.9978 -9.1686c -0.2145,-1.2165 -0.4290,-2.4329 -0.6435 -3.6494c 1.0084,-0.1778 2.0169,-0.3556 3.0253 -0.5335c -0.7657,-4.3426 -1.5314,-8.6852 -2.2971 -13.0277c -1.0085,0.1778 -2.0169,0.3556 -3.0254 0.5335c -1.0958,-6.2146 -2.1916,-12.4291 -3.2874 -18.6437c 1.0084,-0.1778 2.0169,-0.3556 3.0253 -0.5335c -0.7657,-4.3426 -1.5314,-8.6852 -2.2971 -13.0277c -1.0084,0.1778 -2.0169,0.3557 -3.0253 0.5335c -0.2145,-1.2164 -0.4290,-2.4329 -0.6435 -3.6493c -17.3326,3.0562 -34.6652,6.1124 -51.9978 9.1686c 0.2145,1.2165 0.4290,2.4329 0.6435 3.6494c -1.0085,0.1778 -2.0169,0.3556 -3.0254 0.5335ZM 158.4780,588.4490 c 0.7657,4.3426 1.5314,8.6852 2.2971 13.0277c 1.0085,-0.1778 2.0169,-0.3557 3.0254 -0.5335c 1.0958,6.2146 2.1916,12.4291 3.2874 18.6437c -1.0084,0.1778 -2.0169,0.3556 -3.0253 0.5335c 0.7657,4.3426 1.5314,8.6851 2.2971 13.0277c 1.0084,-0.1778 2.0169,-0.3557 3.0253 -0.5335c 0.2145,1.2164 0.4290,2.4329 0.6435 3.6493c 17.3326,-3.0562 34.6652,-6.1124 51.9978 -9.1686c -0.2145,-1.2164 -0.4290,-2.4329 -0.6435 -3.6493c 1.0084,-0.1778 2.0169,-0.3557 3.0253 -0.5335c -0.7657,-4.3426 -1.5314,-8.6852 -2.2971 -13.0277c -1.0085,0.1778 -2.0169,0.3556 -3.0254 0.5335c -1.0958,-6.2146 -2.1916,-12.4291 -3.2874 -18.6437c 1.0084,-0.1778 2.0169,-0.3556 3.0253 -0.5335c -0.7657,-4.3426 -1.5314,-8.6852 -2.2971 -13.0277c -1.0084,0.1778 -2.0169,0.3556 -3.0253 0.5335c -0.2145,-1.2165 -0.4290,-2.4329 -0.6435 -3.6494c -17.3326,3.0562 -34.6652,6.1125 -51.9978 9.1686c 0.2145,1.2165 0.4290,2.4329 0.6435 3.6494c -1.0085,0.1778 -2.0169,0.3556 -3.0254 0.5335ZM 170.9479,659.1691 c 0.7657,4.3426 1.5314,8.6852 2.2972 13.0277c 1.0084,-0.1778 2.0169,-0.3556 3.0253 -0.5335c 1.0958,6.2146 2.1916,12.4291 3.2874 18.6437c -1.0084,0.1778 -2.0169,0.3556 -3.0253 0.5335c 0.7657,4.3426 1.5314,8.6852 2.2971 13.0277c 1.0084,-0.1778 2.0169,-0.3556 3.0253 -0.5335c 0.2145,1.2164 0.4290,2.4329 0.6435 3.6494c 17.3326,-3.0562 34.6652,-6.1125 51.9978 -9.1686c -0.2145,-1.2165 -0.4290,-2.4329 -0.6435 -3.6494c 1.0085,-0.1778 2.0169,-0.3556 3.0254 -0.5335c -0.7657,-4.3426 -1.5314,-8.6852 -2.2971 -13.0277c -1.0085,0.1778 -2.0169,0.3556 -3.0254 0.5335c -1.0958,-6.2146 -2.1916,-12.4291 -3.2874 -18.6437c 1.0084,-0.1778 2.0169,-0.3556 3.0253 -0.5335c -0.7657,-4.3426 -1.5314,-8.6851 -2.2971 -13.0277c -1.0084,0.1778 -2.0169,0.3557 -3.0253 0.5335c -0.2145,-1.2164 -0.4290,-2.4329 -0.6435 -3.6493c -17.3326,3.0562 -34.6652,6.1124 -51.9978 9.1686c 0.2145,1.2164 0.4290,2.4329 0.6435 3.6493c -1.0084,0.1778 -2.0169,0.3557 -3.0253 0.5335ZM 183.4177,729.8891 c 0.7657,4.3426 1.5314,8.6852 2.2972 13.0277c 1.0084,-0.1778 2.0169,-0.3556 3.0253 -0.5335c 1.0958,6.2146 2.1916,12.4291 3.2874 18.6437c -1.0084,0.1778 -2.0169,0.3557 -3.0253 0.5335c 0.7657,4.3426 1.5314,8.6852 2.2971 13.0277c 1.0084,-0.1778 2.0169,-0.3556 3.0253 -0.5335c 0.2145,1.2165 0.4290,2.4329 0.6435 3.6494c 17.3326,-3.0562 34.6652,-6.1124 51.9978 -9.1686c -0.2145,-1.2165 -0.4290,-2.4329 -0.6435 -3.6494c 1.0085,-0.1778 2.0169,-0.3556 3.0254 -0.5335c -0.7657,-4.3426 -1.5314,-8.6851 -2.2972 -13.0277c -1.0084,0.1778 -2.0169,0.3557 -3.0253 0.5335c -1.0958,-6.2146 -2.1916,-12.4291 -3.2874 -18.6437c 1.0084,-0.1778 2.0169,-0.3556 3.0253 -0.5335c -0.7657,-4.3426 -1.5314,-8.6851 -2.2971 -13.0277c -1.0084,0.1778 -2.0169,0.3557 -3.0253 0.5335c -0.2145,-1.2164 -0.4290,-2.4329 -0.6435 -3.6493c -17.3326,3.0562 -34.6652,6.1124 -51.9978 9.1686c 0.2145,1.2164 0.4290,2.4329 0.6435 3.6493c -1.0084,0.1778 -2.0169,0.3557 -3.0253 0.5335ZM 195.8876,800.6092 c 0.7657,4.3426 1.5314,8.6851 2.2971 13.0277c 1.0085,-0.1778 2.0169,-0.3557 3.0254 -0.5335c 1.0958,6.2146 2.1916,12.4291 3.2874 18.6437c -1.0084,0.1778 -2.0169,0.3556 -3.0253 0.5335c 0.7657,4.3426 1.5314,8.6851 2.2971 13.0277c 1.0084,-0.1778 2.0169,-0.3557 3.0253 -0.5335c 0.2145,1.2164 0.4290,2.4329 0.6435 3.6493c 17.3326,-3.0562 34.6652,-6.1124 51.9978 -9.1686c -0.2145,-1.2164 -0.4290,-2.4329 -0.6435 -3.6493c 1.0084,-0.1778 2.0169,-0.3557 3.0254 -0.5335c -0.7657,-4.3426 -1.5314,-8.6852 -2.2972 -13.0277c -1.0084,0.1778 -2.0169,0.3556 -3.0253 0.5335c -1.0958,-6.2146 -2.1916,-12.4291 -3.2874 -18.6437c 1.0084,-0.1778 2.0169,-0.3557 3.0253 -0.5335c -0.7657,-4.3426 -1.5314,-8.6852 -2.2971 -13.0277c -1.0084,0.1778 -2.0169,0.3556 -3.0253 0.5335c -0.2145,-1.2165 -0.4290,-2.4329 -0.6435 -3.6494c -17.3326,3.0562 -34.6652,6.1125 -51.9978 9.1686c 0.2145,1.2165 0.4290,2.4329 0.6435 3.6494c -1.0084,0.1778 -2.0169,0.3556 -3.0253 0.5335ZM 225.2603,553.6465 c 0.7657,4.3426 1.5314,8.6852 2.2971 13.0277c 1.0084,-0.1778 2.0169,-0.3556 3.0253 -0.5335c 1.0958,6.2146 2.1916,12.4291 3.2874 18.6437c -1.0085,0.1778 -2.0169,0.3556 -3.0254 0.5335c 0.7657,4.3426 1.5314,8.6851 2.2971 13.0277c 1.0085,-0.1778 2.0169,-0.3556 3.0254 -0.5335c 0.2145,1.2164 0.4290,2.4329 0.6435 3.6493c 17.3326,-3.0562 34.6653,-6.1124 51.9979 -9.1686c -0.2145,-1.2164 -0.4290,-2.4329 -0.6435 -3.6493c 1.0084,-0.1778 2.0169,-0.3556 3.0253 -0.5335c -0.7657,-4.3426 -1.5314,-8.6852 -2.2971 -13.0277c -1.0084,0.1778 -2.0169,0.3556 -3.0253 0.5335c -1.0958,-6.2146 -2.1916,-12.4291 -3.2874 -18.6437c 1.0084,-0.1778 2.0169,-0.3556 3.0253 -0.5335c -0.7657,-4.3426 -1.5314,-8.6852 -2.2972 -13.0277c -1.0084,0.1778 -2.0169,0.3556 -3.0253 0.5335c -0.2145,-1.2165 -0.4290,-2.4329 -0.6435 -3.6494c -17.3326,3.0562 -34.6653,6.1125 -51.9979 9.1686c 0.2145,1.2165 0.4290,2.4329 0.6435 3.6494c -1.0084,0.1778 -2.0169,0.3556 -3.0253 0.5335ZM 237.7301,624.3666 c 0.7657,4.3426 1.5314,8.6852 2.2971 13.0277c 1.0084,-0.1778 2.0169,-0.3556 3.0253 -0.5335c 1.0958,6.2146 2.1916,12.4291 3.2874 18.6437c -1.0084,0.1778 -2.0169,0.3557 -3.0253 0.5335c 0.7657,4.3426 1.5314,8.6852 2.2971 13.0277c 1.0085,-0.1778 2.0169,-0.3556 3.0254 -0.5335c 0.2145,1.2165 0.4290,2.4329 0.6435 3.6494c 17.3326,-3.0562 34.6653,-6.1125 51.9978 -9.1686c -0.2144,-1.2165 -0.4290,-2.4329 -0.6435 -3.6494c 1.0084,-0.1778 2.0169,-0.3556 3.0253 -0.5335c -0.7657,-4.3426 -1.5314,-8.6851 -2.2971 -13.0277c -1.0084,0.1778 -2.0169,0.3557 -3.0253 0.5335c -1.0958,-6.2146 -2.1916,-12.4291 -3.2874 -18.6437c 1.0084,-0.1778 2.0169,-0.3556 3.0253 -0.5335c -0.7657,-4.3426 -1.5314,-8.6851 -2.2972 -13.0277c -1.0084,0.1778 -2.0169,0.3557 -3.0253 0.5335c -0.2145,-1.2164 -0.4290,-2.4329 -0.6435 -3.6493c -17.3326,3.0562 -34.6652,6.1124 -51.9978 9.1686c 0.2145,1.2164 0.4290,2.4329 0.6435 3.6493c -1.0084,0.1778 -2.0169,0.3557 -3.0253 0.5335ZM 250.2000,695.0866 c 0.7657,4.3426 1.5314,8.6852 2.2971 13.0277c 1.0084,-0.1778 2.0169,-0.3556 3.0253 -0.5335c 1.0958,6.2146 2.1916,12.4291 3.2874 18.6437c -1.0084,0.1778 -2.0169,0.3557 -3.0253 0.5335c 0.7657,4.3426 1.5314,8.6852 2.2971 13.0277c 1.0084,-0.1778 2.0169,-0.3556 3.0254 -0.5335c 0.2145,1.2165 0.4290,2.4329 0.6435 3.6494c 17.3326,-3.0562 34.6653,-6.1124 51.9978 -9.1686c -0.2144,-1.2165 -0.4290,-2.4329 -0.6435 -3.6494c 1.0084,-0.1778 2.0169,-0.3556 3.0253 -0.5335c -0.7657,-4.3426 -1.5314,-8.6851 -2.2971 -13.0277c -1.0084,0.1778 -2.0169,0.3556 -3.0253 0.5334c -1.0958,-6.2146 -2.1916,-12.4291 -3.2874 -18.6437c 1.0085,-0.1778 2.0169,-0.3556 3.0254 -0.5334c -0.7657,-4.3426 -1.5314,-8.6852 -2.2972 -13.0277c -1.0084,0.1778 -2.0169,0.3556 -3.0253 0.5334c -0.2145,-1.2164 -0.4290,-2.4329 -0.6435 -3.6493c -17.3326,3.0562 -34.6652,6.1124 -51.9978 9.1686c 0.2145,1.2164 0.4290,2.4329 0.6435 3.6493c -1.0084,0.1778 -2.0169,0.3557 -3.0253 0.5335ZM 262.6698,765.8067 c 0.7657,4.3426 1.5314,8.6851 2.2972 13.0277c 1.0084,-0.1778 2.0169,-0.3557 3.0253 -0.5335c 1.0958,6.2146 2.1916,12.4291 3.2874 18.6437c -1.0084,0.1778 -2.0169,0.3556 -3.0253 0.5335c 0.7657,4.3426 1.5314,8.6851 2.2971 13.0277c 1.0085,-0.1778 2.0169,-0.3557 3.0254 -0.5335c 0.2145,1.2164 0.4290,2.4329 0.6435 3.6493c 17.3326,-3.0562 34.6653,-6.1124 51.9978 -9.1686c -0.2144,-1.2164 -0.4290,-2.4329 -0.6435 -3.6493c 1.0084,-0.1778 2.0169,-0.3557 3.0253 -0.5335c -0.7657,-4.3426 -1.5314,-8.6852 -2.2971 -13.0277c -1.0084,0.1778 -2.0169,0.3556 -3.0253 0.5335c -1.0958,-6.2146 -2.1916,-12.4291 -3.2874 -18.6437c 1.0085,-0.1778 2.0169,-0.3556 3.0254 -0.5335c -0.7657,-4.3426 -1.5314,-8.6852 -2.2972 -13.0277c -1.0084,0.1778 -2.0169,0.3556 -3.0253 0.5335c -0.2145,-1.2165 -0.4290,-2.4329 -0.6435 -3.6494c -17.3326,3.0562 -34.6653,6.1125 -51.9979 9.1686c 0.2145,1.2165 0.4290,2.4329 0.6435 3.6494c -1.0084,0.1778 -2.0169,0.3556 -3.0254 0.5335ZM 299.2618,559.7872 c 0.7657,4.3426 1.5314,8.6852 2.2972 13.0277c 1.0084,-0.1778 2.0169,-0.3556 3.0253 -0.5335c 1.0958,6.2146 2.1916,12.4291 3.2874 18.6437c -1.0084,0.1778 -2.0169,0.3557 -3.0253 0.5335c 0.7657,4.3426 1.5314,8.6852 2.2971 13.0277c 1.0084,-0.1778 2.0169,-0.3556 3.0253 -0.5335c 0.2145,1.2165 0.4290,2.4329 0.6435 3.6494c 17.3326,-3.0562 34.6652,-6.1124 51.9978 -9.1686c -0.2145,-1.2165 -0.4290,-2.4329 -0.6435 -3.6494c 1.0084,-0.1778 2.0169,-0.3556 3.0253 -0.5335c -0.7657,-4.3426 -1.5314,-8.6851 -2.2971 -13.0277c -1.0085,0.1778 -2.0169,0.3556 -3.0254 0.5334c -1.0958,-6.2146 -2.1916,-12.4291 -3.2874 -18.6437c 1.0084,-0.1778 2.0169,-0.3556 3.0253 -0.5335c -0.7657,-4.3426 -1.5314,-8.6851 -2.2971 -13.0277c -1.0084,0.1778 -2.0169,0.3556 -3.0253 0.5334c -0.2145,-1.2164 -0.4290,-2.4329 -0.6435 -3.6493c -17.3326,3.0562 -34.6652,6.1124 -51.9978 9.1686c 0.2145,1.2164 0.4290,2.4329 0.6435 3.6493c -1.0084,0.1778 -2.0169,0.3557 -3.0254 0.5335ZM 311.7317,630.5073 c 0.7657,4.3426 1.5314,8.6851 2.2972 13.0277c 1.0084,-0.1778 2.0169,-0.3557 3.0253 -0.5335c 1.0958,6.2146 2.1916,12.4291 3.2874 18.6437c -1.0084,0.1778 -2.0169,0.3556 -3.0253 0.5335c 0.7657,4.3426 1.5314,8.6851 2.2971 13.0277c 1.0084,-0.1778 2.0169,-0.3556 3.0253 -0.5334c 0.2145,1.2164 0.4290,2.4329 0.6435 3.6493c 17.3326,-3.0562 34.6652,-6.1124 51.9978 -9.1686c -0.2145,-1.2164 -0.4290,-2.4329 -0.6435 -3.6493c 1.0084,-0.1778 2.0169,-0.3557 3.0253 -0.5335c -0.7657,-4.3426 -1.5314,-8.6852 -2.2972 -13.0277c -1.0084,0.1778 -2.0169,0.3556 -3.0253 0.5335c -1.0958,-6.2146 -2.1916,-12.4291 -3.2874 -18.6437c 1.0084,-0.1778 2.0169,-0.3557 3.0253 -0.5335c -0.7657,-4.3426 -1.5314,-8.6852 -2.2971 -13.0277c -1.0084,0.1778 -2.0169,0.3556 -3.0253 0.5335c -0.2145,-1.2165 -0.4290,-2.4329 -0.6435 -3.6494c -17.3326,3.0562 -34.6652,6.1124 -51.9978 9.1686c 0.2145,1.2165 0.4290,2.4329 0.6435 3.6494c -1.0085,0.1778 -2.0169,0.3556 -3.0254 0.5335ZM 324.2015,701.2273 c 0.7657,4.3426 1.5314,8.6852 2.2972 13.0277c 1.0084,-0.1778 2.0169,-0.3556 3.0253 -0.5335c 1.0958,6.2146 2.1916,12.4291 3.2874 18.6437c -1.0084,0.1778 -2.0169,0.3556 -3.0253 0.5335c 0.7657,4.3426 1.5314,8.6852 2.2971 13.0277c 1.0084,-0.1778 2.0169,-0.3556 3.0253 -0.5335c 0.2145,1.2164 0.4290,2.4329 0.6435 3.6493c 17.3326,-3.0562 34.6652,-6.1124 51.9978 -9.1686c -0.2145,-1.2164 -0.4290,-2.4329 -0.6435 -3.6493c 1.0084,-0.1778 2.0169,-0.3556 3.0253 -0.5335c -0.7657,-4.3426 -1.5314,-8.6852 -2.2972 -13.0277c -1.0084,0.1778 -2.0169,0.3556 -3.0253 0.5335c -1.0958,-6.2146 -2.1916,-12.4291 -3.2874 -18.6437c 1.0084,-0.1778 2.0169,-0.3556 3.0253 -0.5335c -0.7657,-4.3426 -1.5314,-8.6852 -2.2971 -13.0277c -1.0084,0.1778 -2.0169,0.3556 -3.0253 0.5335c -0.2145,-1.2165 -0.4290,-2.4329 -0.6435 -3.6494c -17.3326,3.0562 -34.6652,6.1125 -51.9978 9.1686c 0.2145,1.2165 0.4290,2.4329 0.6435 3.6494c -1.0085,0.1778 -2.0169,0.3556 -3.0254 0.5335ZM 336.6714,771.9473 c 0.7657,4.3426 1.5314,8.6852 2.2972 13.0277c 1.0084,-0.1778 2.0169,-0.3556 3.0253 -0.5335c 1.0958,6.2146 2.1916,12.4291 3.2874 18.6437c -1.0084,0.1778 -2.0169,0.3557 -3.0253 0.5335c 0.7657,4.3426 1.5314,8.6852 2.2971 13.0277c 1.0084,-0.1778 2.0169,-0.3556 3.0253 -0.5335c 0.2145,1.2165 0.4290,2.4329 0.6435 3.6494c 17.3326,-3.0562 34.6652,-6.1125 51.9978 -9.1686c -0.2145,-1.2165 -0.4290,-2.4329 -0.6435 -3.6494c 1.0085,-0.1778 2.0169,-0.3556 3.0254 -0.5335c -0.7657,-4.3426 -1.5314,-8.6851 -2.2971 -13.0277c -1.0085,0.1778 -2.0169,0.3557 -3.0254 0.5335c -1.0958,-6.2146 -2.1916,-12.4291 -3.2874 -18.6437c 1.0084,-0.1778 2.0169,-0.3556 3.0253 -0.5335c -0.7657,-4.3426 -1.5314,-8.6851 -2.2971 -13.0277c -1.0084,0.1778 -2.0169,0.3557 -3.0253 0.5335c -0.2145,-1.2164 -0.4290,-2.4329 -0.6435 -3.6493c -17.3326,3.0562 -34.6652,6.1124 -51.9978 9.1686c 0.2145,1.2164 0.4290,2.4329 0.6435 3.6493c -1.0084,0.1778 -2.0169,0.3557 -3.0253 0.5335ZM 371.9508,558.4837 c 0.7657,4.3426 1.5314,8.6852 2.2971 13.0277c 1.0084,-0.1778 2.0169,-0.3556 3.0254 -0.5335c 1.0958,6.2146 2.1916,12.4291 3.2874 18.6437c -1.0084,0.1778 -2.0169,0.3556 -3.0254 0.5335c 0.7657,4.3426 1.5314,8.6851 2.2972 13.0277c 1.0084,-0.1778 2.0169,-0.3557 3.0253 -0.5335c 0.2145,1.2164 0.4290,2.4329 0.6435 3.6493c 17.3326,-3.0562 34.6652,-6.1124 51.9978 -9.1686c -0.2145,-1.2164 -0.4290,-2.4329 -0.6435 -3.6493c 1.0084,-0.1778 2.0169,-0.3557 3.0254 -0.5335c -0.7657,-4.3426 -1.5314,-8.6852 -2.2972 -13.0277c -1.0084,0.1778 -2.0169,0.3556 -3.0253 0.5335c -1.0958,-6.2146 -2.1916,-12.4291 -3.2874 -18.6437c 1.0084,-0.1778 2.0169,-0.3556 3.0253 -0.5335c -0.7657,-4.3426 -1.5314,-8.6852 -2.2971 -13.0277c -1.0084,0.1778 -2.0169,0.3556 -3.0254 0.5335c -0.2145,-1.2165 -0.4290,-2.4329 -0.6435 -3.6494c -17.3326,3.0562 -34.6652,6.1125 -51.9978 9.1686c 0.2145,1.2165 0.4290,2.4329 0.6435 3.6494c -1.0084,0.1778 -2.0169,0.3556 -3.0253 0.5335ZM 384.4207,629.2037 c 0.7657,4.3426 1.5314,8.6852 2.2971 13.0277c 1.0084,-0.1778 2.0169,-0.3556 3.0254 -0.5335c 1.0958,6.2146 2.1916,12.4291 3.2874 18.6437c -1.0084,0.1778 -2.0169,0.3556 -3.0254 0.5335c 0.7657,4.3426 1.5314,8.6852 2.2972 13.0277c 1.0084,-0.1778 2.0169,-0.3556 3.0253 -0.5335c 0.2145,1.2165 0.4290,2.4329 0.6435 3.6494c 17.3326,-3.0562 34.6652,-6.1125 51.9978 -9.1686c -0.2145,-1.2165 -0.4290,-2.4329 -0.6435 -3.6494c 1.0084,-0.1778 2.0169,-0.3556 3.0254 -0.5335c -0.7657,-4.3426 -1.5314,-8.6851 -2.2972 -13.0277c -1.0084,0.1778 -2.0169,0.3556 -3.0253 0.5335c -1.0958,-6.2146 -2.1916,-12.4291 -3.2874 -18.6437c 1.0084,-0.1778 2.0169,-0.3556 3.0253 -0.5335c -0.7657,-4.3426 -1.5314,-8.6851 -2.2971 -13.0277c -1.0084,0.1778 -2.0169,0.3557 -3.0254 0.5335c -0.2145,-1.2164 -0.4290,-2.4329 -0.6435 -3.6493c -17.3326,3.0562 -34.6653,6.1124 -51.9978 9.1686c 0.2145,1.2164 0.4290,2.4329 0.6435 3.6493c -1.0084,0.1778 -2.0169,0.3557 -3.0253 0.5335ZM 396.8905,699.9238 c 0.7657,4.3426 1.5314,8.6852 2.2971 13.0277c 1.0084,-0.1778 2.0169,-0.3556 3.0254 -0.5335c 1.0958,6.2146 2.1916,12.4291 3.2874 18.6437c -1.0084,0.1778 -2.0169,0.3557 -3.0254 0.5335c 0.7657,4.3426 1.5314,8.6852 2.2972 13.0277c 1.0084,-0.1778 2.0169,-0.3556 3.0253 -0.5335c 0.2145,1.2165 0.4290,2.4329 0.6435 3.6494c 17.3326,-3.0562 34.6652,-6.1124 51.9978 -9.1686c -0.2145,-1.2165 -0.4290,-2.4329 -0.6435 -3.6494c 1.0084,-0.1778 2.0169,-0.3556 3.0254 -0.5335c -0.7657,-4.3426 -1.5314,-8.6851 -2.2972 -13.0277c -1.0084,0.1778 -2.0169,0.3557 -3.0253 0.5335c -1.0958,-6.2146 -2.1916,-12.4291 -3.2874 -18.6437c 1.0084,-0.1778 2.0169,-0.3556 3.0253 -0.5335c -0.7657,-4.3426 -1.5314,-8.6851 -2.2971 -13.0277c -1.0084,0.1778 -2.0169,0.3556 -3.0254 0.5335c -0.2144,-1.2165 -0.4290,-2.4329 -0.6435 -3.6494c -17.3326,3.0562 -34.6653,6.1124 -51.9978 9.1686c 0.2145,1.2164 0.4290,2.4329 0.6435 3.6494c -1.0084,0.1778 -2.0169,0.3556 -3.0253 0.5334ZM 409.3604,770.6438 c 0.7657,4.3426 1.5314,8.6851 2.2971 13.0277c 1.0084,-0.1778 2.0169,-0.3557 3.0254 -0.5335c 1.0958,6.2146 2.1916,12.4291 3.2874 18.6437c -1.0084,0.1778 -2.0169,0.3556 -3.0254 0.5335c 0.7657,4.3426 1.5314,8.6851 2.2972 13.0277c 1.0084,-0.1778 2.0169,-0.3556 3.0253 -0.5334c 0.2145,1.2164 0.4290,2.4329 0.6435 3.6493c 17.3326,-3.0562 34.6652,-6.1124 51.9978 -9.1686c -0.2145,-1.2164 -0.4290,-2.4329 -0.6435 -3.6493c 1.0084,-0.1778 2.0169,-0.3557 3.0254 -0.5335c -0.7657,-4.3426 -1.5314,-8.6852 -2.2972 -13.0277c -1.0084,0.1778 -2.0169,0.3556 -3.0253 0.5335c -1.0958,-6.2146 -2.1916,-12.4291 -3.2874 -18.6437c 1.0084,-0.1778 2.0169,-0.3557 3.0253 -0.5335c -0.7657,-4.3426 -1.5314,-8.6852 -2.2971 -13.0277c -1.0084,0.1778 -2.0169,0.3556 -3.0254 0.5335c -0.2145,-1.2165 -0.4290,-2.4329 -0.6435 -3.6494c -17.3326,3.0562 -34.6653,6.1124 -51.9978 9.1686c 0.2144,1.2165 0.4290,2.4329 0.6435 3.6494c -1.0084,0.1778 -2.0169,0.3556 -3.0253 0.5335ZM 443.3272,549.7359 c 0.7657,4.3426 1.5314,8.6852 2.2971 13.0277c 1.0084,-0.1778 2.0169,-0.3556 3.0253 -0.5335c 1.0958,6.2146 2.1916,12.4291 3.2874 18.6437c -1.0084,0.1778 -2.0169,0.3557 -3.0254 0.5335c 0.7657,4.3426 1.5314,8.6852 2.2972 13.0277c 1.0084,-0.1778 2.0169,-0.3556 3.0253 -0.5335c 0.2145,1.2165 0.4290,2.4329 0.6435 3.6494c 17.3326,-3.0562 34.6653,-6.1124 51.9979 -9.1686c -0.2145,-1.2165 -0.4290,-2.4329 -0.6435 -3.6494c 1.0084,-0.1778 2.0169,-0.3556 3.0253 -0.5335c -0.7657,-4.3426 -1.5314,-8.6851 -2.2971 -13.0277c -1.0084,0.1778 -2.0169,0.3557 -3.0253 0.5335c -1.0958,-6.2146 -2.1916,-12.4291 -3.2874 -18.6437c 1.0084,-0.1778 2.0169,-0.3556 3.0253 -0.5335c -0.7657,-4.3426 -1.5314,-8.6851 -2.2971 -13.0277c -1.0085,0.1778 -2.0169,0.3556 -3.0254 0.5334c -0.2145,-1.2164 -0.4290,-2.4329 -0.6435 -3.6493c -17.3326,3.0562 -34.6653,6.1124 -51.9979 9.1686c 0.2145,1.2164 0.4290,2.4329 0.6435 3.6493c -1.0084,0.1778 -2.0169,0.3557 -3.0253 0.5335ZM 455.7971,620.4560 c 0.7657,4.3426 1.5314,8.6851 2.2971 13.0277c 1.0084,-0.1778 2.0169,-0.3557 3.0253 -0.5335c 1.0958,6.2146 2.1916,12.4291 3.2874 18.6437c -1.0085,0.1778 -2.0169,0.3556 -3.0254 0.5335c 0.7657,4.3426 1.5314,8.6851 2.2972 13.0277c 1.0084,-0.1778 2.0169,-0.3557 3.0253 -0.5335c 0.2145,1.2164 0.4290,2.4329 0.6435 3.6493c 17.3326,-3.0562 34.6653,-6.1124 51.9979 -9.1686c -0.2145,-1.2164 -0.4290,-2.4329 -0.6435 -3.6493c 1.0084,-0.1778 2.0169,-0.3557 3.0253 -0.5335c -0.7657,-4.3426 -1.5314,-8.6852 -2.2971 -13.0277c -1.0084,0.1778 -2.0169,0.3556 -3.0253 0.5335c -1.0958,-6.2146 -2.1916,-12.4291 -3.2874 -18.6437c 1.0084,-0.1778 2.0169,-0.3557 3.0253 -0.5335c -0.7657,-4.3426 -1.5314,-8.6852 -2.2971 -13.0277c -1.0085,0.1778 -2.0169,0.3556 -3.0254 0.5335c -0.2145,-1.2165 -0.4290,-2.4329 -0.6435 -3.6494c -17.3326,3.0562 -34.6653,6.1124 -51.9979 9.1686c 0.2145,1.2165 0.4290,2.4329 0.6435 3.6494c -1.0084,0.1778 -2.0169,0.3556 -3.0253 0.5335ZM 468.2669,691.1760 c 0.7657,4.3426 1.5314,8.6852 2.2971 13.0277c 1.0084,-0.1778 2.0169,-0.3556 3.0253 -0.5335c 1.0958,6.2146 2.1916,12.4291 3.2874 18.6437c -1.0085,0.1778 -2.0169,0.3556 -3.0254 0.5335c 0.7657,4.3426 1.5314,8.6851 2.2971 13.0277c 1.0085,-0.1778 2.0169,-0.3556 3.0254 -0.5335c 0.2145,1.2164 0.4290,2.4329 0.6435 3.6494c 17.3326,-3.0562 34.6653,-6.1125 51.9979 -9.1686c -0.2145,-1.2165 -0.4290,-2.4329 -0.6435 -3.6494c 1.0084,-0.1778 2.0169,-0.3557 3.0253 -0.5335c -0.7657,-4.3426 -1.5314,-8.6852 -2.2971 -13.0277c -1.0084,0.1778 -2.0169,0.3556 -3.0253 0.5335c -1.0958,-6.2146 -2.1916,-12.4291 -3.2874 -18.6437c 1.0084,-0.1778 2.0169,-0.3556 3.0253 -0.5335c -0.7657,-4.3426 -1.5314,-8.6852 -2.2972 -13.0277c -1.0084,0.1778 -2.0169,0.3556 -3.0253 0.5335c -0.2145,-1.2164 -0.4290,-2.4329 -0.6435 -3.6494c -17.3326,3.0562 -34.6653,6.1125 -51.9979 9.1686c 0.2145,1.2165 0.4290,2.4329 0.6435 3.6494c -1.0084,0.1778 -2.0169,0.3556 -3.0253 0.5335ZM 480.7368,761.8961 c 0.7657,4.3426 1.5314,8.6852 2.2971 13.0277c 1.0084,-0.1778 2.0169,-0.3556 3.0253 -0.5335c 1.0958,6.2146 2.1916,12.4291 3.2874 18.6437c -1.0084,0.1778 -2.0169,0.3557 -3.0253 0.5335c 0.7657,4.3426 1.5314,8.6852 2.2971 13.0277c 1.0085,-0.1778 2.0169,-0.3556 3.0254 -0.5335c 0.2145,1.2165 0.4290,2.4329 0.6435 3.6494c 17.3326,-3.0562 34.6653,-6.1124 51.9978 -9.1686c -0.2144,-1.2165 -0.4290,-2.4329 -0.6435 -3.6494c 1.0084,-0.1778 2.0169,-0.3556 3.0253 -0.5335c -0.7657,-4.3426 -1.5314,-8.6851 -2.2971 -13.0277c -1.0084,0.1778 -2.0169,0.3557 -3.0253 0.5335c -1.0958,-6.2146 -2.1916,-12.4291 -3.2874 -18.6437c 1.0084,-0.1778 2.0169,-0.3556 3.0253 -0.5335c -0.7657,-4.3426 -1.5314,-8.6851 -2.2972 -13.0277c -1.0084,0.1778 -2.0169,0.3557 -3.0253 0.5335c -0.2145,-1.2164 -0.4290,-2.4329 -0.6435 -3.6493c -17.3326,3.0562 -34.6653,6.1124 -51.9979 9.1686c 0.2145,1.2164 0.4290,2.4329 0.6435 3.6493c -1.0084,0.1778 -2.0169,0.3557 -3.0253 0.5335ZM 516.3217,512.8778 c 0.0000,0.3268 0.0284,0.6581 0.0871 0.9911c 0.5437,3.0835 3.4841,5.1424 6.5676 4.5987c 2.7505,-0.4850 4.6858,-2.8770 4.6858 -5.5765c 0.0000,-0.3268 -0.0284,-0.6581 -0.0871 -0.9911c -0.5437,-3.0835 -3.4841,-5.1424 -6.5676 -4.5987c -2.7505,0.4850 -4.6858,2.8770 -4.6858 5.5765ZM 568.7284,814.4440 c 0.0000,0.3268 0.0284,0.6581 0.0871 0.9911c 0.5437,3.0835 3.4842,5.1424 6.5676 4.5987c 2.7505,-0.4850 4.6858,-2.8770 4.6858 -5.5766c 0.0000,-0.3268 -0.0283,-0.6581 -0.0870 -0.9911c -0.5437,-3.0835 -3.4842,-5.1424 -6.5676 -4.5987c -2.7505,0.4850 -4.6858,2.8770 -4.6858 5.5766Z"/></g><g stroke-linejoin="miter" stroke-opacity="1.0" fill-opacity="0.5" stroke="rgb(0,0,0)" stroke-width="0.7559055118110237" fill="rgb(0,0,255)" stroke-linecap="butt" stroke-miterlimit="10.0"><path d="M 3.9685,16.2520 c 0.0000,-6.7840 5.4995,-12.2835 12.2835 -12.2835c 169.7535,-0.0000 339.5070,-0.0000 509.2605 -0.0000c 5.9611,-0.0000 11.0617,4.2799 12.0969 10.1505c 17.9338,101.7077 35.8676,203.4154 53.8014 305.1231c 0.1267,0.7185 0.1880,1.4347 0.1880 2.1423c 0.0000,5.3385 -3.4924,10.1826 -8.7661 11.7594c -160.7949,48.0773 -321.5899,96.1547 -482.3848 144.2321c -1.1417,0.3414 -2.3271,0.5148 -3.5188 0.5148c -26.8924,-0.0000 -53.7847,-0.0000 -80.6771 -0.0000c -6.7840,-0.0000 -12.2835,-5.4995 -12.2835 -12.2835c 0.0000,-149.7851 0.0000,-299.5701 0.0000 -449.3552ZM 39.6970,304.5111 c 0.0000,0.2179 0.0189,0.4388 0.0581 0.6608c 4.0954,23.2259 8.1907,46.4519 12.2861 69.6778c 0.0312,0.1769 0.0742,0.3486 0.1281 0.5147c 0.0062,0.1745 0.0245,0.3506 0.0557 0.5275c 4.0954,23.2259 8.1907,46.4519 12.2861 69.6779c 0.3624,2.0556 2.3227,3.4282 4.3784 3.0658c 23.2259,-4.0954 46.4519,-8.1907 69.6778 -12.2861c 1.8337,-0.3233 3.1239,-1.9180 3.1239 -3.7177c 0.0000,-0.2179 -0.0189,-0.4388 -0.0581 -0.6608c -1.8595,-10.5460 -3.7191,-21.0919 -5.5786 -31.6379c 22.3327,-3.9379 44.6653,-7.8757 66.9979 -11.8135c 1.8337,-0.3233 3.1239,-1.9180 3.1239 -3.7177c 0.0000,-0.2179 -0.0189,-0.4387 -0.0580 -0.6607c -0.8751,-4.9628 -1.7502,-9.9256 -2.6252 -14.8884c 22.3327,-3.9379 44.6653,-7.8757 66.9979 -11.8136c 1.8337,-0.3233 3.1239,-1.9180 3.1239 -3.7177c 0.0000,-0.2179 -0.0189,-0.4388 -0.0581 -0.6608c -1.0938,-6.2035 -2.1877,-12.4070 -3.2815 -18.6105c 21.4394,-3.7803 42.8787,-7.5607 64.3180 -11.3410c 0.8751,4.9628 1.7502,9.9256 2.6252 14.8884c 0.3625,2.0557 2.3227,3.4283 4.3784 3.0658c 22.3327,-3.9379 44.6653,-7.8757 66.9980 -11.8135c 0.4376,2.4814 0.8751,4.9628 1.3126 7.4442c 0.3624,2.0556 2.3227,3.4282 4.3784 3.0658c 22.3327,-3.9379 44.6653,-7.8757 66.9980 -11.8136c 0.3624,2.0557 2.3227,3.4283 4.3784 3.0658c 23.2259,-4.0954 46.4519,-8.1907 69.6778 -12.2861c 1.8337,-0.3233 3.1239,-1.9180 3.1239 -3.7177c 0.0000,-0.2179 -0.0189,-0.4387 -0.0581 -0.6607c -4.0954,-23.2260 -8.1907,-46.4519 -12.2861 -69.6779c -0.0312,-0.1768 -0.0741,-0.3486 -0.1280 -0.5147c -0.0062,-0.1745 -0.0245,-0.3506 -0.0557 -0.5274c -4.0954,-23.2260 -8.1907,-46.4519 -12.2861 -69.6779c -0.0312,-0.1769 -0.0742,-0.3486 -0.1281 -0.5147c -0.0062,-0.1745 -0.0245,-0.3506 -0.0557 -0.5275c -4.0954,-23.2259 -8.1907,-46.4519 -12.2861 -69.6778c -0.0312,-0.1769 -0.0742,-0.3487 -0.1281 -0.5148c -0.0062,-0.1745 -0.0245,-0.3506 -0.0557 -0.5274c -4.0954,-23.2259 -8.1907,-46.4519 -12.2861 -69.6779c -0.3625,-2.0556 -2.3228,-3.4282 -4.3784 -3.0658c -22.3327,3.9379 -44.6653,7.8757 -66.9980 11.8136c -0.3625,-2.0557 -2.3228,-3.4283 -4.3784 -3.0658c -22.3327,3.9379 -44.6653,7.8757 -66.9980 11.8135c -0.4376,-2.4814 -0.8751,-4.9628 -1.3126 -7.4442c -0.3625,-2.0556 -2.3227,-3.4282 -4.3784 -3.0658c -22.3327,3.9379 -44.6653,7.8757 -66.9980 11.8136c -0.8751,-4.9628 -1.7501,-9.9256 -2.6252 -14.8884c -0.3624,-2.0557 -2.3227,-3.4283 -4.3784 -3.0658c -23.2259,4.0954 -46.4519,8.1907 -69.6778 12.2861c -1.8337,0.3233 -3.1239,1.9180 -3.1239 3.7177c 0.0000,0.2179 0.0189,0.4387 0.0581 0.6607c 1.0938,6.2036 2.1877,12.4071 3.2815 18.6106c -22.3327,3.9379 -44.6653,7.8757 -66.9979 11.8135c -1.8337,0.3233 -3.1239,1.9180 -3.1239 3.7177c 0.0000,0.2179 0.0189,0.4387 0.0581 0.6607c 0.8751,4.9628 1.7501,9.9256 2.6252 14.8884c -22.3327,3.9379 -44.6653,7.8757 -66.9980 11.8136c -1.8337,0.3233 -3.1239,1.9180 -3.1239 3.7177c 0.0000,0.2179 0.0189,0.4388 0.0581 0.6608c 4.0954,23.2259 8.1907,46.4519 12.2861 69.6778c 0.0312,0.1769 0.0742,0.3486 0.1281 0.5147c 0.0062,0.1745 0.0245,0.3506 0.0557 0.5275c 4.0953,23.2259 8.1907,46.4519 12.2861 69.6778c 0.0312,0.1769 0.0742,0.3487 0.1281 0.5148c 0.0062,0.1745 0.0245,0.3506 0.0557 0.5274c 1.8595,10.5460 3.7191,21.0919 5.5786 31.6379c -22.3327,3.9379 -44.6653,7.8757 -66.9980 11.8136c -1.8336,0.3233 -3.1239,1.9180 -3.1239 3.7177ZM 48.3770,20.0581 c 0.0000,0.3268 0.0284,0.6581 0.0871 0.9911c 0.5437,3.0835 3.4842,5.1424 6.5676 4.5987c 2.7505,-0.4850 4.6858,-2.8770 4.6858 -5.5765c 0.0000,-0.3268 -0.0284,-0.6581 -0.0871 -0.9911c -0.5437,-3.0835 -3.4842,-5.1424 -6.5676 -4.5987c -2.7505,0.4850 -4.6858,2.8770 -4.6858 5.5765ZM 101.0985,459.7286 c 0.0000,0.3268 0.0284,0.6581 0.0870 0.9911c 0.5437,3.0835 3.4842,5.1424 6.5676 4.5987c 2.7505,-0.4850 4.6858,-2.8770 4.6858 -5.5765c 0.0000,-0.3268 -0.0284,-0.6581 -0.0871 -0.9911c -0.5437,-3.0835 -3.4842,-5.1424 -6.5676 -4.5987c -2.7505,0.4850 -4.6858,2.8770 -4.6858 5.5765ZM 516.3217,20.0581 c 0.0000,0.3268 0.0284,0.6581 0.0871 0.9911c 0.5437,3.0835 3.4841,5.1424 6.5676 4.5987c 2.7505,-0.4850 4.6858,-2.8770 4.6858 -5.5765c 0.0000,-0.3268 -0.0284,-0.6581 -0.0871 -0.9911c -0.5437,-3.0835 -3.4841,-5.1424 -6.5676 -4.5987c -2.7505,0.4850 -4.6858,2.8770 -4.6858 5.5765ZM 568.7284,321.6243 c 0.0000,0.3268 0.0284,0.6581 0.0871 0.9911c 0.5437,3.0835 3.4842,5.1424 6.5676 4.5987c 2.7505,-0.4850 4.6858,-2.8770 4.6858 -5.5766c 0.0000,-0.3268 -0.0283,-0.6581 -0.0870 -0.9911c -0.5437,-3.0835 -3.4842,-5.1424 -6.5676 -4.5987c -2.7505,0.4850 -4.6858,2.8770 -4.6858 5.5766Z"/></g></svg>