<?xml version="1.0" encoding="UTF-8"?>
<!DOCTYPE svg PUBLIC "-//W3C//DTD SVG 1.1//EN"
    "http://www.w3.org/Graphics/SVG/1.1/DTD/svg11.dtd"><svg xmlns="http://www.w3.org/2000/svg" height="2309.7322" stroke-opacity="1" viewBox="0 0 606 2310" font-size="1" width="605.6756" xmlns:xlink="http://www.w3.org/1999/xlink" stroke="rgb(0,0,0)" version="1.1"><defs></defs><defs><linearGradient x2="39.5379" y1="0.0000" gradientUnits="userSpaceOnUse" spreadMethod="pad" gradientTransform="matrix(3.7795,-0.0000,0.0000,-3.7795,20.3464,2191.8046)" id="gradient0" y2="0.0000" x1="-39.5379"><stop stop-opacity="1.0000" offset="0.0000" stop-color="rgb(128,128,128)"/><stop stop-opacity="1.0000" offset="0.5000" stop-color="rgb(255,255,255)"/><stop stop-opacity="1.0000" offset="1.0000" stop-color="rgb(128,128,128)"/></linearGradient></defs><g stroke-linejoin="miter" stroke-opacity="1.0" fill-opacity="1" stroke="rgb(0,0,0)" stroke-width="0.37795275590551186" fill="url(#gradient0)" stroke-linecap="butt" stroke-miterlimit="10.0"><path d="M 3.9685,1876.9007 c 0.0000,-9.0453 7.3326,-16.3779 16.3779 -16.3779c 188.3275,-0.0000 376.6551,-0.0000 564.9827 -0.0000c 9.0453,-0.0000 16.3779,7.3326 16.3779 16.3779c 0.0000,117.1276 0.0000,234.2552 0.0000 351.3827c 0.0000,8.2607 -6.1518,15.2283 -14.3489 16.2518c -163.1307,20.3675 -326.2614,40.7349 -489.3921 61.1024c -0.6731,0.0840 -1.3508,0.1262 -2.0291 0.1262c -25.1969,-0.0000 -50.3937,-0.0000 -75.5906 -0.0000c -9.0453,-0.0000 -16.3779,-7.3326 -16.3779 -16.3779c 0.0000,-137.4950 0.0000,-274.9900 0.0000 -412.4850ZM 90.2677,1880.6802 c 0.0000,3.1311 2.5382,5.6693 5.6693 5.6693c 3.1311,-0.0000 5.6693,-2.5382 5.6693 -5.6693c 0.0000,-3.1310 -2.5382,-5.6693 -5.6693 -5.6693c -3.1311,-0.0000 -5.6693,2.5382 -5.6693 5.6693ZM 90.2677,2285.6062 c 0.0000,3.1311 2.5382,5.6693 5.6693 5.6693c 3.1311,-0.0000 5.6693,-2.5382 5.6693 -5.6693c 0.0000,-3.1311 -2.5382,-5.6693 -5.6693 -5.6693c -3.1311,-0.0000 -5.6693,2.5382 -5.6693 5.6693ZM 575.8803,1880.6802 c 0.0000,3.1311 2.5382,5.6693 5.6693 5.6693c 3.1310,-0.0000 5.6693,-2.5382 5.6693 -5.6693c 0.0000,-3.1310 -2.5382,-5.6693 -5.6693 -5.6693c -3.1311,-0.0000 -5.6693,2.5382 -5.6693 5.6693ZM 575.8803,2224.5039 c 0.0000,3.1311 2.5382,5.6693 5.6693 5.6693c 3.1310,-0.0000 5.6693,-2.5382 5.6693 -5.6693c 0.0000,-3.1311 -2.5382,-5.6693 -5.6693 -5.6693c -3.1311,-0.0000 -5.6693,2.5382 -5.6693 5.6693Z"/></g><g stroke-linejoin="miter" stroke-opacity="1.0" fill-opacity="0.5" stroke="rgb(0,0,0)" stroke-width="0.37795275590551186" fill="rgb(255,255,0)" stroke-linecap="butt" stroke-miterlimit="10.0"><path d="M 3.9685,1412.7621 c 0.0000,-9.0453 7.3326,-16.3779 16.3779 -16.3779c 188.3275,-0.0000 376.6551,-0.0000 564.9827 -0.0000c 9.0453,-0.0000 16.3779,7.3326 16.3779 16.3779c 0.0000,117.1276 0.0000,234.2552 0.0000 351.3827c 0.0000,8.2607 -6.1518,15.2283 -14.3489 16.2518c -163.1307,20.3675 -326.2614,40.7349 -489.3921 61.1024c -0.6731,0.0840 -1.3508,0.1262 -2.0291 0.1262c -25.1969,-0.0000 -50.3937,-0.0000 -75.5906 -0.0000c -9.0453,-0.0000 -16.3779,-7.3326 -16.3779 -16.3779c 0.0000,-137.4950 0.0000,-274.9900 0.0000 -412.4850ZM 33.8683,1439.0232 c 0.0000,119.9877 0.0000,239.9753 0.0000 359.9630c 0.0000,7.8935 6.6372,14.2925 14.8246 14.2925c 11.0191,-0.0000 22.0381,-0.0000 33.0572 -0.0000c 2.8318,-4.8954 8.1247,-8.1890 14.1869 -8.1890c 6.0622,-0.0000 11.3550,3.2936 14.1869 8.1890c 2.3300,-0.0000 4.6601,-0.0000 6.9901 -0.0000c 0.6140,-0.0000 1.2274,-0.0368 1.8366 -0.1101c 147.6585,-17.7741 295.3169,-35.5481 442.9754 -53.3222c 1.1474,-0.1381 2.2505,-0.4003 3.2957 -0.7715c 0.4775,-6.1264 4.3260,-11.3067 9.6923 -13.6876c 0.0000,-102.1214 0.0000,-204.2428 0.0000 -306.3642c 0.0000,-7.8935 -6.6372,-14.2925 -14.8246 -14.2925c -149.9885,-0.0000 -299.9770,-0.0000 -449.9655 -0.0000c -2.8319,4.8954 -8.1247,8.1890 -14.1869 8.1890c -6.0622,-0.0000 -11.3551,-3.2936 -14.1869 -8.1890c -11.0191,-0.0000 -22.0381,-0.0000 -33.0572 -0.0000c -8.1874,-0.0000 -14.8246,6.3990 -14.8246 14.2925ZM 90.2677,1416.5416 c 0.0000,3.1311 2.5382,5.6693 5.6693 5.6693c 3.1311,-0.0000 5.6693,-2.5382 5.6693 -5.6693c 0.0000,-3.1310 -2.5382,-5.6693 -5.6693 -5.6693c -3.1311,-0.0000 -5.6693,2.5382 -5.6693 5.6693ZM 90.2677,1821.4677 c 0.0000,3.1311 2.5382,5.6693 5.6693 5.6693c 3.1311,-0.0000 5.6693,-2.5382 5.6693 -5.6693c 0.0000,-3.1311 -2.5382,-5.6693 -5.6693 -5.6693c -3.1311,-0.0000 -5.6693,2.5382 -5.6693 5.6693ZM 575.8803,1416.5416 c 0.0000,3.1311 2.5382,5.6693 5.6693 5.6693c 3.1310,-0.0000 5.6693,-2.5382 5.6693 -5.6693c 0.0000,-3.1310 -2.5382,-5.6693 -5.6693 -5.6693c -3.1311,-0.0000 -5.6693,2.5382 -5.6693 5.6693ZM 575.8803,1760.3653 c 0.0000,3.1311 2.5382,5.6693 5.6693 5.6693c 3.1310,-0.0000 5.6693,-2.5382 5.6693 -5.6693c 0.0000,-3.1311 -2.5382,-5.6693 -5.6693 -5.6693c -3.1311,-0.0000 -5.6693,2.5382 -5.6693 5.6693Z"/></g><g stroke-linejoin="miter" stroke-opacity="1.0" fill-opacity="0.5" stroke="rgb(0,0,0)" stroke-width="0.37795275590551186" fill="rgb(255,255,0)" stroke-linecap="butt" stroke-miterlimit="10.0"><path d="M 3.9685,948.6236 c 0.0000,-9.0453 7.3326,-16.3779 16.3779 -16.3779c 188.3275,-0.0000 376.6551,-0.0000 564.9827 -0.0000c 9.0453,-0.0000 16.3779,7.3326 16.3779 16.3779c 0.0000,117.1276 0.0000,234.2552 0.0000 351.3827c 0.0000,8.2607 -6.1518,15.2283 -14.3489 16.2518c -163.1307,20.3675 -326.2614,40.7349 -489.3921 61.1024c -0.6731,0.0840 -1.3508,0.1262 -2.0291 0.1262c -25.1969,-0.0000 -50.3937,-0.0000 -75.5906 -0.0000c -9.0453,-0.0000 -16.3779,-7.3326 -16.3779 -16.3779c 0.0000,-137.4950 0.0000,-274.9900 0.0000 -412.4850ZM 33.8683,974.8846 c 0.0000,119.9877 0.0000,239.9753 0.0000 359.9630c 0.0000,7.8935 6.6372,14.2925 14.8246 14.2925c 11.0191,-0.0000 22.0381,-0.0000 33.0572 -0.0000c 2.8318,-4.8954 8.1247,-8.1890 14.1869 -8.1890c 6.0622,-0.0000 11.3550,3.2936 14.1869 8.1890c 2.3300,-0.0000 4.6601,-0.0000 6.9901 -0.0000c 0.6140,-0.0000 1.2274,-0.0368 1.8366 -0.1101c 147.6585,-17.7741 295.3169,-35.5481 442.9754 -53.3222c 1.1474,-0.1381 2.2505,-0.4003 3.2957 -0.7715c 0.4775,-6.1264 4.3260,-11.3067 9.6923 -13.6876c 0.0000,-102.1214 0.0000,-204.2428 0.0000 -306.3642c 0.0000,-7.8935 -6.6372,-14.2925 -14.8246 -14.2925c -149.9885,-0.0000 -299.9770,-0.0000 -449.9655 -0.0000c -2.8319,4.8954 -8.1247,8.1890 -14.1869 8.1890c -6.0622,-0.0000 -11.3551,-3.2936 -14.1869 -8.1890c -11.0191,-0.0000 -22.0381,-0.0000 -33.0572 -0.0000c -8.1874,-0.0000 -14.8246,6.3990 -14.8246 14.2925ZM 90.2677,952.4031 c 0.0000,3.1311 2.5382,5.6693 5.6693 5.6693c 3.1311,-0.0000 5.6693,-2.5382 5.6693 -5.6693c 0.0000,-3.1310 -2.5382,-5.6693 -5.6693 -5.6693c -3.1311,-0.0000 -5.6693,2.5382 -5.6693 5.6693ZM 90.2677,1357.3291 c 0.0000,3.1311 2.5382,5.6693 5.6693 5.6693c 3.1311,-0.0000 5.6693,-2.5382 5.6693 -5.6693c 0.0000,-3.1311 -2.5382,-5.6693 -5.6693 -5.6693c -3.1311,-0.0000 -5.6693,2.5382 -5.6693 5.6693ZM 575.8803,952.4031 c 0.0000,3.1311 2.5382,5.6693 5.6693 5.6693c 3.1310,-0.0000 5.6693,-2.5382 5.6693 -5.6693c 0.0000,-3.1310 -2.5382,-5.6693 -5.6693 -5.6693c -3.1311,-0.0000 -5.6693,2.5382 -5.6693 5.6693ZM 575.8803,1296.2267 c 0.0000,3.1311 2.5382,5.6693 5.6693 5.6693c 3.1310,-0.0000 5.6693,-2.5382 5.6693 -5.6693c 0.0000,-3.1311 -2.5382,-5.6693 -5.6693 -5.6693c -3.1311,-0.0000 -5.6693,2.5382 -5.6693 5.6693Z"/></g><g stroke-linejoin="miter" stroke-opacity="1.0" fill-opacity="0.5" stroke="rgb(0,0,0)" stroke-width="0.37795275590551186" fill="rgb(0,0,0)" stroke-linecap="butt" stroke-miterlimit="10.0"><path d="M 3.9685,484.4850 c 0.0000,-9.0453 7.3326,-16.3779 16.3779 -16.3779c 188.3275,-0.0000 376.6551,-0.0000 564.9827 -0.0000c 9.0453,-0.0000 16.3779,7.3326 16.3779 16.3779c 0.0000,117.1276 0.0000,234.2552 0.0000 351.3827c 0.0000,8.2607 -6.1518,15.2283 -14.3489 16.2518c -163.1307,20.3675 -326.2614,40.7349 -489.3921 61.1024c -0.6731,0.0840 -1.3508,0.1262 -2.0291 0.1262c -25.1969,-0.0000 -50.3937,-0.0000 -75.5906 -0.0000c -9.0453,-0.0000 -16.3779,-7.3326 -16.3779 -16.3779c 0.0000,-137.4950 0.0000,-274.9900 0.0000 -412.4850ZM 66.4650,740.7891 c 0.0000,4.4096 0.0000,8.8192 0.0000 13.2287c 1.0240,-0.0000 2.0480,-0.0000 3.0720 -0.0000c 0.0000,6.3105 0.0000,12.6209 0.0000 18.9313c -1.0240,-0.0000 -2.0480,-0.0000 -3.0720 -0.0000c 0.0000,4.4096 0.0000,8.8192 0.0000 13.2287c 1.0240,-0.0000 2.0480,-0.0000 3.0720 -0.0000c 0.0000,1.2352 0.0000,2.4704 0.0000 3.7057c 17.6000,-0.0000 35.2000,-0.0000 52.8000 -0.0000c 0.0000,-1.2352 0.0000,-2.4704 0.0000 -3.7057c 1.0240,-0.0000 2.0480,-0.0000 3.0720 -0.0000c 0.0000,-4.4096 0.0000,-8.8192 0.0000 -13.2287c -1.0240,-0.0000 -2.0480,-0.0000 -3.0720 -0.0000c 0.0000,-6.3104 0.0000,-12.6208 0.0000 -18.9313c 1.0240,-0.0000 2.0480,-0.0000 3.0720 -0.0000c 0.0000,-4.4096 0.0000,-8.8192 0.0000 -13.2287c -1.0240,-0.0000 -2.0480,-0.0000 -3.0720 -0.0000c 0.0000,-1.2352 0.0000,-2.4704 0.0000 -3.7056c -17.6000,-0.0000 -35.2000,-0.0000 -52.8000 -0.0000c 0.0000,1.2352 0.0000,2.4704 0.0000 3.7056c -1.0240,-0.0000 -2.0480,-0.0000 -3.0720 0.0000ZM 66.4650,812.6001 c 0.0000,4.4096 0.0000,8.8192 0.0000 13.2287c 1.0240,-0.0000 2.0480,-0.0000 3.0720 -0.0000c 0.0000,6.3104 0.0000,12.6208 0.0000 18.9313c -1.0240,-0.0000 -2.0480,-0.0000 -3.0720 -0.0000c 0.0000,4.4096 0.0000,8.8192 0.0000 13.2287c 1.0240,-0.0000 2.0480,-0.0000 3.0720 -0.0000c 0.0000,1.2352 0.0000,2.4704 0.0000 3.7056c 17.6000,-0.0000 35.2000,-0.0000 52.8000 -0.0000c 0.0000,-1.2352 0.0000,-2.4704 0.0000 -3.7056c 1.0240,-0.0000 2.0480,-0.0000 3.0720 -0.0000c 0.0000,-4.4096 0.0000,-8.8192 0.0000 -13.2287c -1.0240,-0.0000 -2.0480,-0.0000 -3.0720 -0.0000c 0.0000,-6.3105 0.0000,-12.6209 0.0000 -18.9313c 1.0240,-0.0000 2.0480,-0.0000 3.0720 -0.0000c 0.0000,-4.4096 0.0000,-8.8192 0.0000 -13.2287c -1.0240,-0.0000 -2.0480,-0.0000 -3.0720 -0.0000c 0.0000,-1.2352 0.0000,-2.4704 0.0000 -3.7057c -17.6000,-0.0000 -35.2000,-0.0000 -52.8000 -0.0000c 0.0000,1.2352 0.0000,2.4704 0.0000 3.7057c -1.0240,-0.0000 -2.0480,-0.0000 -3.0720 -0.0000ZM 90.2677,488.2645 c 0.0000,3.1311 2.5382,5.6693 5.6693 5.6693c 3.1311,-0.0000 5.6693,-2.5382 5.6693 -5.6693c 0.0000,-3.1310 -2.5382,-5.6693 -5.6693 -5.6693c -3.1311,-0.0000 -5.6693,2.5382 -5.6693 5.6693ZM 90.2677,893.1905 c 0.0000,3.1311 2.5382,5.6693 5.6693 5.6693c 3.1311,-0.0000 5.6693,-2.5382 5.6693 -5.6693c 0.0000,-3.1311 -2.5382,-5.6693 -5.6693 -5.6693c -3.1311,-0.0000 -5.6693,2.5382 -5.6693 5.6693ZM 138.2760,561.2615 c 0.0000,4.4096 0.0000,8.8192 0.0000 13.2287c 1.0240,-0.0000 2.0480,-0.0000 3.0720 -0.0000c 0.0000,6.3104 0.0000,12.6209 0.0000 18.9313c -1.0240,-0.0000 -2.0479,-0.0000 -3.0720 -0.0000c 0.0000,4.4096 0.0000,8.8192 0.0000 13.2287c 1.0240,-0.0000 2.0480,-0.0000 3.0720 -0.0000c 0.0000,1.2352 0.0000,2.4704 0.0000 3.7056c 17.6000,-0.0000 35.2000,-0.0000 52.8000 -0.0000c 0.0000,-1.2352 0.0000,-2.4704 0.0000 -3.7056c 1.0240,-0.0000 2.0480,-0.0000 3.0720 -0.0000c 0.0000,-4.4096 0.0000,-8.8192 0.0000 -13.2287c -1.0240,-0.0000 -2.0480,-0.0000 -3.0720 -0.0000c 0.0000,-6.3104 0.0000,-12.6209 0.0000 -18.9313c 1.0240,-0.0000 2.0480,-0.0000 3.0720 -0.0000c 0.0000,-4.4096 0.0000,-8.8192 0.0000 -13.2287c -1.0240,-0.0000 -2.0480,-0.0000 -3.0720 -0.0000c 0.0000,-1.2352 0.0000,-2.4704 0.0000 -3.7057c -17.6000,-0.0000 -35.2000,-0.0000 -52.8000 -0.0000c 0.0000,1.2352 0.0000,2.4704 0.0000 3.7057c -1.0240,-0.0000 -2.0479,-0.0000 -3.0720 -0.0000ZM 138.2760,633.0726 c 0.0000,4.4095 0.0000,8.8191 0.0000 13.2287c 1.0240,-0.0000 2.0480,-0.0000 3.0720 -0.0000c 0.0000,6.3105 0.0000,12.6209 0.0000 18.9313c -1.0240,-0.0000 -2.0479,-0.0000 -3.0720 -0.0000c 0.0000,4.4095 0.0000,8.8191 0.0000 13.2287c 1.0240,-0.0000 2.0480,-0.0000 3.0720 -0.0000c 0.0000,1.2352 0.0000,2.4704 0.0000 3.7057c 17.6000,-0.0000 35.2000,-0.0000 52.8000 -0.0000c 0.0000,-1.2352 0.0000,-2.4704 0.0000 -3.7057c 1.0240,-0.0000 2.0480,-0.0000 3.0720 -0.0000c 0.0000,-4.4096 0.0000,-8.8192 0.0000 -13.2287c -1.0240,-0.0000 -2.0480,-0.0000 -3.0720 -0.0000c 0.0000,-6.3105 0.0000,-12.6209 0.0000 -18.9313c 1.0240,-0.0000 2.0480,-0.0000 3.0720 -0.0000c 0.0000,-4.4096 0.0000,-8.8192 0.0000 -13.2287c -1.0240,-0.0000 -2.0480,-0.0000 -3.0720 -0.0000c 0.0000,-1.2352 0.0000,-2.4704 0.0000 -3.7057c -17.6000,-0.0000 -35.2000,-0.0000 -52.8000 -0.0000c 0.0000,1.2352 0.0000,2.4704 0.0000 3.7057c -1.0240,-0.0000 -2.0479,-0.0000 -3.0720 -0.0000ZM 138.2760,704.8836 c 0.0000,4.4096 0.0000,8.8192 0.0000 13.2287c 1.0240,-0.0000 2.0480,-0.0000 3.0720 -0.0000c 0.0000,6.3104 0.0000,12.6209 0.0000 18.9313c -1.0240,-0.0000 -2.0479,-0.0000 -3.0720 -0.0000c 0.0000,4.4096 0.0000,8.8192 0.0000 13.2287c 1.0240,-0.0000 2.0480,-0.0000 3.0720 -0.0000c 0.0000,1.2352 0.0000,2.4704 0.0000 3.7056c 17.6000,-0.0000 35.2000,-0.0000 52.8000 -0.0000c 0.0000,-1.2352 0.0000,-2.4704 0.0000 -3.7056c 1.0240,-0.0000 2.0480,-0.0000 3.0720 -0.0000c 0.0000,-4.4096 0.0000,-8.8192 0.0000 -13.2287c -1.0240,-0.0000 -2.0480,-0.0000 -3.0720 -0.0000c 0.0000,-6.3104 0.0000,-12.6209 0.0000 -18.9313c 1.0240,-0.0000 2.0480,-0.0000 3.0720 -0.0000c 0.0000,-4.4096 0.0000,-8.8192 0.0000 -13.2287c -1.0240,-0.0000 -2.0480,-0.0000 -3.0720 -0.0000c 0.0000,-1.2352 0.0000,-2.4704 0.0000 -3.7056c -17.6000,-0.0000 -35.2000,-0.0000 -52.8000 -0.0000c 0.0000,1.2352 0.0000,2.4704 0.0000 3.7056c -1.0240,-0.0000 -2.0479,-0.0000 -3.0720 -0.0000ZM 138.2760,776.6946 c 0.0000,4.4096 0.0000,8.8192 0.0000 13.2287c 1.0240,-0.0000 2.0480,-0.0000 3.0720 -0.0000c 0.0000,6.3105 0.0000,12.6209 0.0000 18.9313c -1.0240,-0.0000 -2.0479,-0.0000 -3.0720 -0.0000c 0.0000,4.4095 0.0000,8.8191 0.0000 13.2287c 1.0240,-0.0000 2.0480,-0.0000 3.0720 -0.0000c 0.0000,1.2352 0.0000,2.4704 0.0000 3.7057c 17.6000,-0.0000 35.2000,-0.0000 52.8000 -0.0000c 0.0000,-1.2352 0.0000,-2.4704 0.0000 -3.7057c 1.0240,-0.0000 2.0480,-0.0000 3.0720 -0.0000c 0.0000,-4.4096 0.0000,-8.8192 0.0000 -13.2287c -1.0240,-0.0000 -2.0480,-0.0000 -3.0720 -0.0000c 0.0000,-6.3105 0.0000,-12.6209 0.0000 -18.9313c 1.0240,-0.0000 2.0480,-0.0000 3.0720 -0.0000c 0.0000,-4.4095 0.0000,-8.8191 0.0000 -13.2287c -1.0240,-0.0000 -2.0480,-0.0000 -3.0720 -0.0000c 0.0000,-1.2352 0.0000,-2.4704 0.0000 -3.7057c -17.6000,-0.0000 -35.2000,-0.0000 -52.8000 -0.0000c 0.0000,1.2352 0.0000,2.4704 0.0000 3.7057c -1.0240,-0.0000 -2.0479,-0.0000 -3.0720 0.0000ZM 210.0871,542.3639 c 0.0000,4.4096 0.0000,8.8192 0.0000 13.2287c 1.0240,-0.0000 2.0480,-0.0000 3.0720 -0.0000c 0.0000,6.3104 0.0000,12.6209 0.0000 18.9313c -1.0240,-0.0000 -2.0480,-0.0000 -3.0720 -0.0000c 0.0000,4.4096 0.0000,8.8192 0.0000 13.2287c 1.0240,-0.0000 2.0480,-0.0000 3.0720 -0.0000c 0.0000,1.2352 0.0000,2.4704 0.0000 3.7057c 17.6000,-0.0000 35.2000,-0.0000 52.8000 -0.0000c 0.0000,-1.2352 0.0000,-2.4704 0.0000 -3.7057c 1.0240,-0.0000 2.0480,-0.0000 3.0720 -0.0000c 0.0000,-4.4096 0.0000,-8.8192 0.0000 -13.2287c -1.0240,-0.0000 -2.0480,-0.0000 -3.0720 -0.0000c 0.0000,-6.3104 0.0000,-12.6209 0.0000 -18.9313c 1.0240,-0.0000 2.0480,-0.0000 3.0720 -0.0000c 0.0000,-4.4096 0.0000,-8.8192 0.0000 -13.2287c -1.0240,-0.0000 -2.0480,-0.0000 -3.0720 -0.0000c 0.0000,-1.2352 0.0000,-2.4704 0.0000 -3.7056c -17.6000,-0.0000 -35.2000,-0.0000 -52.8000 -0.0000c 0.0000,1.2352 0.0000,2.4704 0.0000 3.7056c -1.0240,-0.0000 -2.0480,-0.0000 -3.0720 -0.0000ZM 210.0871,614.1749 c 0.0000,4.4096 0.0000,8.8192 0.0000 13.2287c 1.0240,-0.0000 2.0480,-0.0000 3.0720 -0.0000c 0.0000,6.3104 0.0000,12.6208 0.0000 18.9313c -1.0240,-0.0000 -2.0480,-0.0000 -3.0720 -0.0000c 0.0000,4.4096 0.0000,8.8192 0.0000 13.2287c 1.0240,-0.0000 2.0480,-0.0000 3.0720 -0.0000c 0.0000,1.2352 0.0000,2.4704 0.0000 3.7056c 17.6000,-0.0000 35.2000,-0.0000 52.8000 -0.0000c 0.0000,-1.2352 0.0000,-2.4704 0.0000 -3.7056c 1.0240,-0.0000 2.0480,-0.0000 3.0720 -0.0000c 0.0000,-4.4096 0.0000,-8.8192 0.0000 -13.2287c -1.0240,-0.0000 -2.0480,-0.0000 -3.0720 -0.0000c 0.0000,-6.3105 0.0000,-12.6209 0.0000 -18.9313c 1.0240,-0.0000 2.0480,-0.0000 3.0720 -0.0000c 0.0000,-4.4096 0.0000,-8.8192 0.0000 -13.2287c -1.0240,-0.0000 -2.0480,-0.0000 -3.0720 -0.0000c 0.0000,-1.2352 0.0000,-2.4704 0.0000 -3.7057c -17.6000,-0.0000 -35.2000,-0.0000 -52.8000 -0.0000c 0.0000,1.2352 0.0000,2.4704 0.0000 3.7057c -1.0240,-0.0000 -2.0480,-0.0000 -3.0720 -0.0000ZM 210.0871,685.9859 c 0.0000,4.4096 0.0000,8.8192 0.0000 13.2287c 1.0240,-0.0000 2.0480,-0.0000 3.0720 -0.0000c 0.0000,6.3105 0.0000,12.6209 0.0000 18.9313c -1.0240,-0.0000 -2.0480,-0.0000 -3.0720 -0.0000c 0.0000,4.4096 0.0000,8.8192 0.0000 13.2287c 1.0240,-0.0000 2.0480,-0.0000 3.0720 -0.0000c 0.0000,1.2352 0.0000,2.4704 0.0000 3.7057c 17.6000,-0.0000 35.2000,-0.0000 52.8000 -0.0000c 0.0000,-1.2352 0.0000,-2.4704 0.0000 -3.7057c 1.0240,-0.0000 2.0480,-0.0000 3.0720 -0.0000c 0.0000,-4.4096 0.0000,-8.8192 0.0000 -13.2287c -1.0240,-0.0000 -2.0480,-0.0000 -3.0720 -0.0000c 0.0000,-6.3104 0.0000,-12.6208 0.0000 -18.9313c 1.0240,-0.0000 2.0480,-0.0000 3.0720 -0.0000c 0.0000,-4.4096 0.0000,-8.8192 0.0000 -13.2287c -1.0240,-0.0000 -2.0480,-0.0000 -3.0720 -0.0000c 0.0000,-1.2352 0.0000,-2.4704 0.0000 -3.7056c -17.6000,-0.0000 -35.2000,-0.0000 -52.8000 -0.0000c 0.0000,1.2352 0.0000,2.4704 0.0000 3.7056c -1.0240,-0.0000 -2.0480,-0.0000 -3.0720 -0.0000ZM 210.0871,757.7970 c 0.0000,4.4096 0.0000,8.8192 0.0000 13.2287c 1.0240,-0.0000 2.0480,-0.0000 3.0720 -0.0000c 0.0000,6.3104 0.0000,12.6208 0.0000 18.9313c -1.0240,-0.0000 -2.0480,-0.0000 -3.0720 -0.0000c 0.0000,4.4096 0.0000,8.8192 0.0000 13.2287c 1.0240,-0.0000 2.0480,-0.0000 3.0720 -0.0000c 0.0000,1.2352 0.0000,2.4704 0.0000 3.7056c 17.6000,-0.0000 35.2000,-0.0000 52.8000 -0.0000c 0.0000,-1.2352 0.0000,-2.4704 0.0000 -3.7056c 1.0240,-0.0000 2.0480,-0.0000 3.0720 -0.0000c 0.0000,-4.4096 0.0000,-8.8192 0.0000 -13.2287c -1.0240,-0.0000 -2.0480,-0.0000 -3.0720 -0.0000c 0.0000,-6.3105 0.0000,-12.6209 0.0000 -18.9313c 1.0240,-0.0000 2.0480,-0.0000 3.0720 -0.0000c 0.0000,-4.4096 0.0000,-8.8192 0.0000 -13.2287c -1.0240,-0.0000 -2.0480,-0.0000 -3.0720 -0.0000c 0.0000,-1.2352 0.0000,-2.4704 0.0000 -3.7057c -17.6000,-0.0000 -35.2000,-0.0000 -52.8000 -0.0000c 0.0000,1.2352 0.0000,2.4704 0.0000 3.7057c -1.0240,-0.0000 -2.0480,-0.0000 -3.0720 0.0000ZM 281.8981,519.6867 c 0.0000,4.4096 0.0000,8.8192 0.0000 13.2287c 1.0240,-0.0000 2.0480,-0.0000 3.0720 -0.0000c 0.0000,6.3104 0.0000,12.6209 0.0000 18.9313c -1.0240,-0.0000 -2.0480,-0.0000 -3.0720 -0.0000c 0.0000,4.4096 0.0000,8.8192 0.0000 13.2287c 1.0240,-0.0000 2.0480,-0.0000 3.0720 -0.0000c 0.0000,1.2352 0.0000,2.4704 0.0000 3.7056c 17.6000,-0.0000 35.1999,-0.0000 52.7999 -0.0000c 0.0000,-1.2352 0.0000,-2.4704 0.0000 -3.7056c 1.0240,-0.0000 2.0480,-0.0000 3.0720 -0.0000c 0.0000,-4.4096 0.0000,-8.8192 0.0000 -13.2287c -1.0240,-0.0000 -2.0480,-0.0000 -3.0720 -0.0000c 0.0000,-6.3104 0.0000,-12.6209 0.0000 -18.9313c 1.0240,-0.0000 2.0480,-0.0000 3.0720 -0.0000c 0.0000,-4.4096 0.0000,-8.8192 0.0000 -13.2287c -1.0240,-0.0000 -2.0480,-0.0000 -3.0720 -0.0000c 0.0000,-1.2352 0.0000,-2.4704 0.0000 -3.7056c -17.6000,-0.0000 -35.1999,-0.0000 -52.7999 -0.0000c 0.0000,1.2352 0.0000,2.4704 0.0000 3.7056c -1.0240,-0.0000 -2.0480,-0.0000 -3.0720 -0.0000ZM 281.8981,591.4978 c 0.0000,4.4096 0.0000,8.8192 0.0000 13.2287c 1.0240,-0.0000 2.0480,-0.0000 3.0720 -0.0000c 0.0000,6.3104 0.0000,12.6208 0.0000 18.9313c -1.0240,-0.0000 -2.0480,-0.0000 -3.0720 -0.0000c 0.0000,4.4096 0.0000,8.8192 0.0000 13.2287c 1.0240,-0.0000 2.0480,-0.0000 3.0720 -0.0000c 0.0000,1.2352 0.0000,2.4704 0.0000 3.7056c 17.6000,-0.0000 35.1999,-0.0000 52.7999 -0.0000c 0.0000,-1.2352 0.0000,-2.4704 0.0000 -3.7056c 1.0240,-0.0000 2.0480,-0.0000 3.0720 -0.0000c 0.0000,-4.4096 0.0000,-8.8192 0.0000 -13.2287c -1.0240,-0.0000 -2.0480,-0.0000 -3.0720 -0.0000c 0.0000,-6.3105 0.0000,-12.6209 0.0000 -18.9313c 1.0240,-0.0000 2.0480,-0.0000 3.0720 -0.0000c 0.0000,-4.4096 0.0000,-8.8192 0.0000 -13.2287c -1.0240,-0.0000 -2.0480,-0.0000 -3.0720 -0.0000c 0.0000,-1.2352 0.0000,-2.4704 0.0000 -3.7057c -17.6000,-0.0000 -35.1999,-0.0000 -52.7999 -0.0000c 0.0000,1.2352 0.0000,2.4704 0.0000 3.7057c -1.0240,-0.0000 -2.0480,-0.0000 -3.0720 -0.0000ZM 281.8981,663.3088 c 0.0000,4.4096 0.0000,8.8192 0.0000 13.2287c 1.0240,-0.0000 2.0480,-0.0000 3.0720 -0.0000c 0.0000,6.3105 0.0000,12.6209 0.0000 18.9313c -1.0240,-0.0000 -2.0480,-0.0000 -3.0720 -0.0000c 0.0000,4.4096 0.0000,8.8192 0.0000 13.2287c 1.0240,-0.0000 2.0480,-0.0000 3.0720 -0.0000c 0.0000,1.2352 0.0000,2.4704 0.0000 3.7057c 17.6000,-0.0000 35.1999,-0.0000 52.7999 -0.0000c 0.0000,-1.2352 0.0000,-2.4704 0.0000 -3.7057c 1.0240,-0.0000 2.0480,-0.0000 3.0720 -0.0000c 0.0000,-4.4096 0.0000,-8.8192 0.0000 -13.2287c -1.0240,-0.0000 -2.0480,-0.0000 -3.0720 -0.0000c 0.0000,-6.3104 0.0000,-12.6208 0.0000 -18.9313c 1.0240,-0.0000 2.0480,-0.0000 3.0720 -0.0000c 0.0000,-4.4096 0.0000,-8.8192 0.0000 -13.2287c -1.0240,-0.0000 -2.0480,-0.0000 -3.0720 -0.0000c 0.0000,-1.2352 0.0000,-2.4704 0.0000 -3.7056c -17.6000,-0.0000 -35.1999,-0.0000 -52.7999 -0.0000c 0.0000,1.2352 0.0000,2.4704 0.0000 3.7056c -1.0240,-0.0000 -2.0480,-0.0000 -3.0720 -0.0000ZM 281.8981,735.1198 c 0.0000,4.4096 0.0000,8.8192 0.0000 13.2287c 1.0240,-0.0000 2.0480,-0.0000 3.0720 -0.0000c 0.0000,6.3104 0.0000,12.6208 0.0000 18.9313c -1.0240,-0.0000 -2.0480,-0.0000 -3.0720 -0.0000c 0.0000,4.4096 0.0000,8.8192 0.0000 13.2287c 1.0240,-0.0000 2.0480,-0.0000 3.0720 -0.0000c 0.0000,1.2352 0.0000,2.4704 0.0000 3.7056c 17.6000,-0.0000 35.1999,-0.0000 52.7999 -0.0000c 0.0000,-1.2352 0.0000,-2.4704 0.0000 -3.7056c 1.0240,-0.0000 2.0480,-0.0000 3.0720 -0.0000c 0.0000,-4.4096 0.0000,-8.8192 0.0000 -13.2287c -1.0240,-0.0000 -2.0480,-0.0000 -3.0720 -0.0000c 0.0000,-6.3105 0.0000,-12.6209 0.0000 -18.9313c 1.0240,-0.0000 2.0480,-0.0000 3.0720 -0.0000c 0.0000,-4.4096 0.0000,-8.8192 0.0000 -13.2287c -1.0240,-0.0000 -2.0480,-0.0000 -3.0720 -0.0000c 0.0000,-1.2352 0.0000,-2.4704 0.0000 -3.7057c -17.6000,-0.0000 -35.1999,-0.0000 -52.7999 -0.0000c 0.0000,1.2352 0.0000,2.4704 0.0000 3.7057c -1.0240,-0.0000 -2.0480,-0.0000 -3.0720 -0.0000ZM 353.7091,538.5844 c 0.0000,4.4096 0.0000,8.8192 0.0000 13.2287c 1.0240,-0.0000 2.0480,-0.0000 3.0720 -0.0000c 0.0000,6.3104 0.0000,12.6209 0.0000 18.9313c -1.0240,-0.0000 -2.0480,-0.0000 -3.0720 -0.0000c 0.0000,4.4096 0.0000,8.8192 0.0000 13.2287c 1.0240,-0.0000 2.0480,-0.0000 3.0720 -0.0000c 0.0000,1.2352 0.0000,2.4704 0.0000 3.7056c 17.6000,-0.0000 35.2000,-0.0000 52.8000 -0.0000c 0.0000,-1.2352 0.0000,-2.4704 0.0000 -3.7056c 1.0240,-0.0000 2.0480,-0.0000 3.0720 -0.0000c 0.0000,-4.4096 0.0000,-8.8192 0.0000 -13.2287c -1.0240,-0.0000 -2.0480,-0.0000 -3.0720 -0.0000c 0.0000,-6.3104 0.0000,-12.6209 0.0000 -18.9313c 1.0240,-0.0000 2.0480,-0.0000 3.0720 -0.0000c 0.0000,-4.4096 0.0000,-8.8192 0.0000 -13.2287c -1.0240,-0.0000 -2.0480,-0.0000 -3.0720 -0.0000c 0.0000,-1.2352 0.0000,-2.4704 0.0000 -3.7057c -17.6000,-0.0000 -35.2000,-0.0000 -52.8000 -0.0000c 0.0000,1.2352 0.0000,2.4704 0.0000 3.7057c -1.0240,-0.0000 -2.0480,-0.0000 -3.0720 -0.0000ZM 353.7091,610.3954 c 0.0000,4.4096 0.0000,8.8192 0.0000 13.2287c 1.0240,-0.0000 2.0480,-0.0000 3.0720 -0.0000c 0.0000,6.3105 0.0000,12.6209 0.0000 18.9313c -1.0240,-0.0000 -2.0480,-0.0000 -3.0720 -0.0000c 0.0000,4.4096 0.0000,8.8192 0.0000 13.2287c 1.0240,-0.0000 2.0480,-0.0000 3.0720 -0.0000c 0.0000,1.2352 0.0000,2.4704 0.0000 3.7057c 17.6000,-0.0000 35.2000,-0.0000 52.8000 -0.0000c 0.0000,-1.2352 0.0000,-2.4704 0.0000 -3.7057c 1.0240,-0.0000 2.0480,-0.0000 3.0720 -0.0000c 0.0000,-4.4096 0.0000,-8.8192 0.0000 -13.2287c -1.0240,-0.0000 -2.0480,-0.0000 -3.0720 -0.0000c 0.0000,-6.3104 0.0000,-12.6208 0.0000 -18.9313c 1.0240,-0.0000 2.0480,-0.0000 3.0720 -0.0000c 0.0000,-4.4096 0.0000,-8.8192 0.0000 -13.2287c -1.0240,-0.0000 -2.0480,-0.0000 -3.0720 -0.0000c 0.0000,-1.2352 0.0000,-2.4704 0.0000 -3.7056c -17.6000,-0.0000 -35.2000,-0.0000 -52.8000 -0.0000c 0.0000,1.2352 0.0000,2.4704 0.0000 3.7056c -1.0240,-0.0000 -2.0480,-0.0000 -3.0720 -0.0000ZM 353.7091,682.2064 c 0.0000,4.4096 0.0000,8.8192 0.0000 13.2287c 1.0240,-0.0000 2.0480,-0.0000 3.0720 -0.0000c 0.0000,6.3104 0.0000,12.6209 0.0000 18.9313c -1.0240,-0.0000 -2.0480,-0.0000 -3.0720 -0.0000c 0.0000,4.4096 0.0000,8.8192 0.0000 13.2287c 1.0240,-0.0000 2.0480,-0.0000 3.0720 -0.0000c 0.0000,1.2352 0.0000,2.4704 0.0000 3.7056c 17.6000,-0.0000 35.2000,-0.0000 52.8000 -0.0000c 0.0000,-1.2352 0.0000,-2.4704 0.0000 -3.7056c 1.0240,-0.0000 2.0480,-0.0000 3.0720 -0.0000c 0.0000,-4.4096 0.0000,-8.8192 0.0000 -13.2287c -1.0240,-0.0000 -2.0480,-0.0000 -3.0720 -0.0000c 0.0000,-6.3104 0.0000,-12.6209 0.0000 -18.9313c 1.0240,-0.0000 2.0480,-0.0000 3.0720 -0.0000c 0.0000,-4.4096 0.0000,-8.8192 0.0000 -13.2287c -1.0240,-0.0000 -2.0480,-0.0000 -3.0720 -0.0000c 0.0000,-1.2352 0.0000,-2.4704 0.0000 -3.7057c -17.6000,-0.0000 -35.2000,-0.0000 -52.8000 -0.0000c 0.0000,1.2352 0.0000,2.4704 0.0000 3.7057c -1.0240,-0.0000 -2.0480,-0.0000 -3.0720 -0.0000ZM 353.7091,754.0174 c 0.0000,4.4096 0.0000,8.8192 0.0000 13.2287c 1.0240,-0.0000 2.0480,-0.0000 3.0720 -0.0000c 0.0000,6.3105 0.0000,12.6209 0.0000 18.9313c -1.0240,-0.0000 -2.0480,-0.0000 -3.0720 -0.0000c 0.0000,4.4095 0.0000,8.8191 0.0000 13.2287c 1.0240,-0.0000 2.0480,-0.0000 3.0720 -0.0000c 0.0000,1.2352 0.0000,2.4704 0.0000 3.7057c 17.6000,-0.0000 35.2000,-0.0000 52.8000 -0.0000c 0.0000,-1.2352 0.0000,-2.4704 0.0000 -3.7057c 1.0240,-0.0000 2.0480,-0.0000 3.0720 -0.0000c 0.0000,-4.4096 0.0000,-8.8192 0.0000 -13.2287c -1.0240,-0.0000 -2.0480,-0.0000 -3.0720 -0.0000c 0.0000,-6.3105 0.0000,-12.6209 0.0000 -18.9313c 1.0240,-0.0000 2.0480,-0.0000 3.0720 -0.0000c 0.0000,-4.4096 0.0000,-8.8192 0.0000 -13.2287c -1.0240,-0.0000 -2.0480,-0.0000 -3.0720 -0.0000c 0.0000,-1.2352 0.0000,-2.4704 0.0000 -3.7056c -17.6000,-0.0000 -35.2000,-0.0000 -52.8000 -0.0000c 0.0000,1.2352 0.0000,2.4704 0.0000 3.7056c -1.0240,-0.0000 -2.0480,-0.0000 -3.0720 -0.0000ZM 425.5201,549.9229 c 0.0000,4.4096 0.0000,8.8192 0.0000 13.2287c 1.0240,-0.0000 2.0480,-0.0000 3.0720 -0.0000c 0.0000,6.3104 0.0000,12.6209 0.0000 18.9313c -1.0240,-0.0000 -2.0480,-0.0000 -3.0720 -0.0000c 0.0000,4.4096 0.0000,8.8192 0.0000 13.2287c 1.0240,-0.0000 2.0480,-0.0000 3.0720 -0.0000c 0.0000,1.2352 0.0000,2.4704 0.0000 3.7056c 17.6000,-0.0000 35.1999,-0.0000 52.7999 -0.0000c 0.0000,-1.2352 0.0000,-2.4704 0.0000 -3.7056c 1.0240,-0.0000 2.0480,-0.0000 3.0720 -0.0000c 0.0000,-4.4096 0.0000,-8.8192 0.0000 -13.2287c -1.0240,-0.0000 -2.0480,-0.0000 -3.0720 -0.0000c 0.0000,-6.3104 0.0000,-12.6209 0.0000 -18.9313c 1.0240,-0.0000 2.0480,-0.0000 3.0720 -0.0000c 0.0000,-4.4096 0.0000,-8.8192 0.0000 -13.2287c -1.0240,-0.0000 -2.0480,-0.0000 -3.0720 -0.0000c 0.0000,-1.2352 0.0000,-2.4704 0.0000 -3.7057c -17.6000,-0.0000 -35.1999,-0.0000 -52.7999 -0.0000c 0.0000,1.2352 0.0000,2.4704 0.0000 3.7057c -1.0240,-0.0000 -2.0480,-0.0000 -3.0720 -0.0000ZM 425.5201,621.7339 c 0.0000,4.4096 0.0000,8.8192 0.0000 13.2287c 1.0240,-0.0000 2.0480,-0.0000 3.0720 -0.0000c 0.0000,6.3105 0.0000,12.6209 0.0000 18.9313c -1.0240,-0.0000 -2.0480,-0.0000 -3.0720 -0.0000c 0.0000,4.4096 0.0000,8.8192 0.0000 13.2287c 1.0240,-0.0000 2.0480,-0.0000 3.0720 -0.0000c 0.0000,1.2352 0.0000,2.4704 0.0000 3.7057c 17.6000,-0.0000 35.1999,-0.0000 52.7999 -0.0000c 0.0000,-1.2352 0.0000,-2.4704 0.0000 -3.7057c 1.0240,-0.0000 2.0480,-0.0000 3.0720 -0.0000c 0.0000,-4.4096 0.0000,-8.8192 0.0000 -13.2287c -1.0240,-0.0000 -2.0480,-0.0000 -3.0720 -0.0000c 0.0000,-6.3104 0.0000,-12.6208 0.0000 -18.9313c 1.0240,-0.0000 2.0480,-0.0000 3.0720 -0.0000c 0.0000,-4.4096 0.0000,-8.8192 0.0000 -13.2287c -1.0240,-0.0000 -2.0480,-0.0000 -3.0720 -0.0000c 0.0000,-1.2352 0.0000,-2.4704 0.0000 -3.7056c -17.6000,-0.0000 -35.1999,-0.0000 -52.7999 -0.0000c 0.0000,1.2352 0.0000,2.4704 0.0000 3.7056c -1.0240,-0.0000 -2.0480,-0.0000 -3.0720 -0.0000ZM 425.5201,693.5450 c 0.0000,4.4096 0.0000,8.8192 0.0000 13.2287c 1.0240,-0.0000 2.0480,-0.0000 3.0720 -0.0000c 0.0000,6.3104 0.0000,12.6209 0.0000 18.9313c -1.0240,-0.0000 -2.0480,-0.0000 -3.0720 -0.0000c 0.0000,4.4096 0.0000,8.8192 0.0000 13.2287c 1.0240,-0.0000 2.0480,-0.0000 3.0720 -0.0000c 0.0000,1.2352 0.0000,2.4704 0.0000 3.7056c 17.6000,-0.0000 35.1999,-0.0000 52.7999 -0.0000c 0.0000,-1.2352 0.0000,-2.4704 0.0000 -3.7056c 1.0240,-0.0000 2.0480,-0.0000 3.0720 -0.0000c 0.0000,-4.4096 0.0000,-8.8192 0.0000 -13.2287c -1.0240,-0.0000 -2.0480,-0.0000 -3.0720 -0.0000c 0.0000,-6.3104 0.0000,-12.6209 0.0000 -18.9313c 1.0240,-0.0000 2.0480,-0.0000 3.0720 -0.0000c 0.0000,-4.4096 0.0000,-8.8192 0.0000 -13.2287c -1.0240,-0.0000 -2.0480,-0.0000 -3.0720 -0.0000c 0.0000,-1.2352 0.0000,-2.4704 0.0000 -3.7057c -17.6000,-0.0000 -35.1999,-0.0000 -52.7999 -0.0000c 0.0000,1.2352 0.0000,2.4704 0.0000 3.7057c -1.0240,-0.0000 -2.0480,-0.0000 -3.0720 -0.0000ZM 425.5201,765.3560 c 0.0000,4.4096 0.0000,8.8191 0.0000 13.2287c 1.0240,-0.0000 2.0480,-0.0000 3.0720 -0.0000c 0.0000,6.3105 0.0000,12.6209 0.0000 18.9313c -1.0240,-0.0000 -2.0480,-0.0000 -3.0720 -0.0000c 0.0000,4.4095 0.0000,8.8191 0.0000 13.2287c 1.0240,-0.0000 2.0480,-0.0000 3.0720 -0.0000c 0.0000,1.2352 0.0000,2.4704 0.0000 3.7057c 17.6000,-0.0000 35.1999,-0.0000 52.7999 -0.0000c 0.0000,-1.2352 0.0000,-2.4704 0.0000 -3.7057c 1.0240,-0.0000 2.0480,-0.0000 3.0720 -0.0000c 0.0000,-4.4096 0.0000,-8.8192 0.0000 -13.2287c -1.0240,-0.0000 -2.0480,-0.0000 -3.0720 -0.0000c 0.0000,-6.3105 0.0000,-12.6209 0.0000 -18.9313c 1.0240,-0.0000 2.0480,-0.0000 3.0720 -0.0000c 0.0000,-4.4096 0.0000,-8.8191 0.0000 -13.2287c -1.0240,-0.0000 -2.0480,-0.0000 -3.0720 -0.0000c 0.0000,-1.2352 0.0000,-2.4704 0.0000 -3.7057c -17.6000,-0.0000 -35.1999,-0.0000 -52.7999 -0.0000c 0.0000,1.2352 0.0000,2.4704 0.0000 3.7057c -1.0240,-0.0000 -2.0480,-0.0000 -3.0720 -0.0000ZM 497.3312,553.7025 c 0.0000,4.4096 0.0000,8.8192 0.0000 13.2287c 1.0240,-0.0000 2.0480,-0.0000 3.0720 -0.0000c 0.0000,6.3104 0.0000,12.6209 0.0000 18.9313c -1.0240,-0.0000 -2.0480,-0.0000 -3.0720 -0.0000c 0.0000,4.4096 0.0000,8.8192 0.0000 13.2287c 1.0240,-0.0000 2.0480,-0.0000 3.0720 -0.0000c 0.0000,1.2352 0.0000,2.4704 0.0000 3.7057c 17.6000,-0.0000 35.2000,-0.0000 52.8000 -0.0000c 0.0000,-1.2352 0.0000,-2.4704 0.0000 -3.7057c 1.0240,-0.0000 2.0480,-0.0000 3.0720 -0.0000c 0.0000,-4.4096 0.0000,-8.8192 0.0000 -13.2287c -1.0240,-0.0000 -2.0480,-0.0000 -3.0720 -0.0000c 0.0000,-6.3104 0.0000,-12.6209 0.0000 -18.9313c 1.0240,-0.0000 2.0480,-0.0000 3.0720 -0.0000c 0.0000,-4.4096 0.0000,-8.8192 0.0000 -13.2287c -1.0240,-0.0000 -2.0480,-0.0000 -3.0720 -0.0000c 0.0000,-1.2352 0.0000,-2.4704 0.0000 -3.7056c -17.6000,-0.0000 -35.2000,-0.0000 -52.8000 -0.0000c 0.0000,1.2352 0.0000,2.4704 0.0000 3.7056c -1.0240,-0.0000 -2.0480,-0.0000 -3.0720 -0.0000ZM 497.3312,625.5135 c 0.0000,4.4096 0.0000,8.8192 0.0000 13.2287c 1.0240,-0.0000 2.0480,-0.0000 3.0720 -0.0000c 0.0000,6.3104 0.0000,12.6208 0.0000 18.9313c -1.0240,-0.0000 -2.0480,-0.0000 -3.0720 -0.0000c 0.0000,4.4096 0.0000,8.8192 0.0000 13.2287c 1.0240,-0.0000 2.0480,-0.0000 3.0720 -0.0000c 0.0000,1.2352 0.0000,2.4704 0.0000 3.7056c 17.6000,-0.0000 35.2000,-0.0000 52.8000 -0.0000c 0.0000,-1.2352 0.0000,-2.4704 0.0000 -3.7056c 1.0240,-0.0000 2.0480,-0.0000 3.0720 -0.0000c 0.0000,-4.4096 0.0000,-8.8192 0.0000 -13.2287c -1.0240,-0.0000 -2.0480,-0.0000 -3.0720 -0.0000c 0.0000,-6.3105 0.0000,-12.6209 0.0000 -18.9313c 1.0240,-0.0000 2.0480,-0.0000 3.0720 -0.0000c 0.0000,-4.4096 0.0000,-8.8192 0.0000 -13.2287c -1.0240,-0.0000 -2.0480,-0.0000 -3.0720 -0.0000c 0.0000,-1.2352 0.0000,-2.4704 0.0000 -3.7057c -17.6000,-0.0000 -35.2000,-0.0000 -52.8000 -0.0000c 0.0000,1.2352 0.0000,2.4704 0.0000 3.7057c -1.0240,-0.0000 -2.0480,-0.0000 -3.0720 -0.0000ZM 497.3312,697.3245 c 0.0000,4.4096 0.0000,8.8192 0.0000 13.2287c 1.0240,-0.0000 2.0480,-0.0000 3.0720 -0.0000c 0.0000,6.3105 0.0000,12.6209 0.0000 18.9313c -1.0240,-0.0000 -2.0480,-0.0000 -3.0720 -0.0000c 0.0000,4.4096 0.0000,8.8192 0.0000 13.2287c 1.0240,-0.0000 2.0480,-0.0000 3.0720 -0.0000c 0.0000,1.2352 0.0000,2.4704 0.0000 3.7057c 17.6000,-0.0000 35.2000,-0.0000 52.8000 -0.0000c 0.0000,-1.2352 0.0000,-2.4704 0.0000 -3.7057c 1.0240,-0.0000 2.0480,-0.0000 3.0720 -0.0000c 0.0000,-4.4096 0.0000,-8.8192 0.0000 -13.2287c -1.0240,-0.0000 -2.0480,-0.0000 -3.0720 -0.0000c 0.0000,-6.3104 0.0000,-12.6208 0.0000 -18.9313c 1.0240,-0.0000 2.0480,-0.0000 3.0720 -0.0000c 0.0000,-4.4096 0.0000,-8.8192 0.0000 -13.2287c -1.0240,-0.0000 -2.0480,-0.0000 -3.0720 -0.0000c 0.0000,-1.2352 0.0000,-2.4704 0.0000 -3.7056c -17.6000,-0.0000 -35.2000,-0.0000 -52.8000 -0.0000c 0.0000,1.2352 0.0000,2.4704 0.0000 3.7056c -1.0240,-0.0000 -2.0480,-0.0000 -3.0720 -0.0000ZM 497.3312,769.1355 c 0.0000,4.4096 0.0000,8.8192 0.0000 13.2287c 1.0240,-0.0000 2.0480,-0.0000 3.0720 -0.0000c 0.0000,6.3104 0.0000,12.6209 0.0000 18.9313c -1.0240,-0.0000 -2.0480,-0.0000 -3.0720 -0.0000c 0.0000,4.4096 0.0000,8.8192 0.0000 13.2287c 1.0240,-0.0000 2.0480,-0.0000 3.0720 -0.0000c 0.0000,1.2352 0.0000,2.4704 0.0000 3.7056c 17.6000,-0.0000 35.2000,-0.0000 52.8000 -0.0000c 0.0000,-1.2352 0.0000,-2.4704 0.0000 -3.7056c 1.0240,-0.0000 2.0480,-0.0000 3.0720 -0.0000c 0.0000,-4.4096 0.0000,-8.8192 0.0000 -13.2287c -1.0240,-0.0000 -2.0480,-0.0000 -3.0720 -0.0000c 0.0000,-6.3104 0.0000,-12.6209 0.0000 -18.9313c 1.0240,-0.0000 2.0480,-0.0000 3.0720 -0.0000c 0.0000,-4.4096 0.0000,-8.8192 0.0000 -13.2287c -1.0240,-0.0000 -2.0480,-0.0000 -3.0720 -0.0000c 0.0000,-1.2352 0.0000,-2.4704 0.0000 -3.7057c -17.6000,-0.0000 -35.2000,-0.0000 -52.8000 -0.0000c 0.0000,1.2352 0.0000,2.4704 0.0000 3.7057c -1.0240,-0.0000 -2.0480,-0.0000 -3.0720 -0.0000ZM 575.8803,488.2645 c 0.0000,3.1311 2.5382,5.6693 5.6693 5.6693c 3.1310,-0.0000 5.6693,-2.5382 5.6693 -5.6693c 0.0000,-3.1310 -2.5382,-5.6693 -5.6693 -5.6693c -3.1311,-0.0000 -5.6693,2.5382 -5.6693 5.6693ZM 575.8803,832.0882 c 0.0000,3.1311 2.5382,5.6693 5.6693 5.6693c 3.1310,-0.0000 5.6693,-2.5382 5.6693 -5.6693c 0.0000,-3.1311 -2.5382,-5.6693 -5.6693 -5.6693c -3.1311,-0.0000 -5.6693,2.5382 -5.6693 5.6693Z"/></g><g stroke-linejoin="miter" stroke-opacity="1.0" fill-opacity="0.5" stroke="rgb(0,0,0)" stroke-width="0.37795275590551186" fill="rgb(0,0,255)" stroke-linecap="butt" stroke-miterlimit="10.0"><path d="M 3.9685,20.3464 c 0.0000,-9.0453 7.3326,-16.3779 16.3779 -16.3779c 188.3275,-0.0000 376.6551,-0.0000 564.9827 -0.0000c 9.0453,-0.0000 16.3779,7.3326 16.3779 16.3779c 0.0000,117.1276 0.0000,234.2552 0.0000 351.3827c 0.0000,8.2607 -6.1518,15.2283 -14.3489 16.2518c -163.1307,20.3675 -326.2614,40.7349 -489.3921 61.1024c -0.6731,0.0840 -1.3508,0.1262 -2.0291 0.1262c -25.1969,-0.0000 -50.3937,-0.0000 -75.5906 -0.0000c -9.0453,-0.0000 -16.3779,-7.3326 -16.3779 -16.3779c 0.0000,-137.4950 0.0000,-274.9900 0.0000 -412.4850ZM 54.8914,262.0787 c 0.0000,23.9370 0.0000,47.8740 0.0000 71.8110c 0.0000,0.9071 0.0000,1.8142 0.0000 2.7213c 0.0000,23.9370 0.0000,47.8740 0.0000 71.8110c 0.0000,2.0874 1.6921,3.7795 3.7795 3.7795c 24.8441,-0.0000 49.6882,-0.0000 74.5323 -0.0000c 2.0874,-0.0000 3.7795,-1.6921 3.7795 -3.7795c 0.0000,-10.7087 0.0000,-21.4173 0.0000 -32.1260c 22.6772,-0.0000 45.3543,-0.0000 68.0315 -0.0000c 2.0874,-0.0000 3.7796,-1.6921 3.7796 -3.7795c 0.0000,-5.0394 0.0000,-10.0787 0.0000 -15.1181c 22.6772,-0.0000 45.3543,-0.0000 68.0315 -0.0000c 2.0874,-0.0000 3.7795,-1.6922 3.7795 -3.7796c 0.0000,-6.2992 0.0000,-12.5984 0.0000 -18.8976c 20.5102,-0.0000 41.0205,-0.0000 61.5307 -0.0000c 0.0000,5.0394 0.0000,10.0787 0.0000 15.1181c 0.0000,2.0874 1.6921,3.7795 3.7795 3.7795c 22.6772,-0.0000 45.3543,-0.0000 68.0315 -0.0000c 0.0000,2.5197 0.0000,5.0394 0.0000 7.5591c 0.0000,2.0874 1.6922,3.7795 3.7796 3.7795c 22.6772,-0.0000 45.3543,-0.0000 68.0315 -0.0000c 0.0000,2.0874 1.6921,3.7796 3.7795 3.7796c 24.8441,-0.0000 49.6882,-0.0000 74.5323 -0.0000c 2.0874,-0.0000 3.7795,-1.6922 3.7795 -3.7796c 0.0000,-23.9370 0.0000,-47.8740 0.0000 -71.8110c 0.0000,-0.9071 0.0000,-1.8142 0.0000 -2.7213c 0.0000,-23.0299 0.0000,-46.0598 0.0000 -69.0898c 0.0000,-0.9071 0.0000,-1.8142 0.0000 -2.7212c 0.0000,-23.0299 0.0000,-46.0599 0.0000 -69.0898c 0.0000,-0.9071 0.0000,-1.8142 0.0000 -2.7213c 0.0000,-23.9370 0.0000,-47.8740 0.0000 -71.8110c 0.0000,-2.0874 -1.6921,-3.7796 -3.7795 -3.7796c -22.6772,-0.0000 -45.3543,-0.0000 -68.0315 -0.0000c 0.0000,-2.0873 -1.6922,-3.7795 -3.7795 -3.7795c -22.6772,-0.0000 -45.3544,-0.0000 -68.0315 -0.0000c 0.0000,-2.5197 0.0000,-5.0394 0.0000 -7.5591c 0.0000,-2.0873 -1.6921,-3.7795 -3.7795 -3.7795c -22.6772,-0.0000 -45.3543,-0.0000 -68.0315 -0.0000c 0.0000,-5.0394 0.0000,-10.0787 0.0000 -15.1181c 0.0000,-2.0874 -1.6922,-3.7796 -3.7796 -3.7796c -24.8440,-0.0000 -49.6882,-0.0000 -74.5322 -0.0000c -2.0874,-0.0000 -3.7796,1.6922 -3.7796 3.7796c 0.0000,6.2992 0.0000,12.5984 0.0000 18.8976c -22.6772,-0.0000 -45.3543,-0.0000 -68.0315 -0.0000c -2.0874,-0.0000 -3.7795,1.6922 -3.7795 3.7796c 0.0000,5.0394 0.0000,10.0787 0.0000 15.1181c -22.6772,-0.0000 -45.3543,-0.0000 -68.0315 -0.0000c -2.0873,-0.0000 -3.7795,1.6922 -3.7795 3.7795c 0.0000,23.9370 0.0000,47.8740 0.0000 71.8110c 0.0000,0.9071 0.0000,1.8142 0.0000 2.7212c 0.0000,23.0299 0.0000,46.0599 0.0000 69.0898c 0.0000,0.9071 0.0000,1.8142 0.0000 2.7212c 0.0000,9.8015 0.0000,19.6031 0.0000 29.4047c -22.6772,-0.0000 -45.3543,-0.0000 -68.0315 -0.0000c -2.0874,-0.0000 -3.7795,1.6921 -3.7795 3.7795ZM 90.2677,24.1260 c 0.0000,3.1311 2.5382,5.6693 5.6693 5.6693c 3.1311,-0.0000 5.6693,-2.5382 5.6693 -5.6693c 0.0000,-3.1310 -2.5382,-5.6693 -5.6693 -5.6693c -3.1311,-0.0000 -5.6693,2.5382 -5.6693 5.6693ZM 90.2677,429.0520 c 0.0000,3.1311 2.5382,5.6693 5.6693 5.6693c 3.1311,-0.0000 5.6693,-2.5382 5.6693 -5.6693c 0.0000,-3.1311 -2.5382,-5.6693 -5.6693 -5.6693c -3.1311,-0.0000 -5.6693,2.5382 -5.6693 5.6693ZM 575.8803,24.1260 c 0.0000,3.1311 2.5382,5.6693 5.6693 5.6693c 3.1310,-0.0000 5.6693,-2.5382 5.6693 -5.6693c 0.0000,-3.1310 -2.5382,-5.6693 -5.6693 -5.6693c -3.1311,-0.0000 -5.6693,2.5382 -5.6693 5.6693ZM 575.8803,367.9496 c 0.0000,3.1311 2.5382,5.6693 5.6693 5.6693c 3.1310,-0.0000 5.6693,-2.5382 5.6693 -5.6693c 0.0000,-3.1311 -2.5382,-5.6693 -5.6693 -5.6693c -3.1311,-0.0000 -5.6693,2.5382 -5.6693 5.6693Z"/></g></svg>