<?xml version="1.0" encoding="UTF-8"?>
<!DOCTYPE svg PUBLIC "-//W3C//DTD SVG 1.1//EN"
    "http://www.w3.org/Graphics/SVG/1.1/DTD/svg11.dtd"><svg xmlns="http://www.w3.org/2000/svg" height="2660.3294" stroke-opacity="1" viewBox="0 0 1071 2660" font-size="1" width="1070.9049" xmlns:xlink="http://www.w3.org/1999/xlink" stroke="rgb(0,0,0)" version="1.1"><defs></defs><g stroke-linejoin="miter" stroke-opacity="1.0" fill-opacity="0.5" stroke="rgb(0,0,0)" stroke-width="0.37795275590551186" fill="rgb(0,0,0)" stroke-linecap="butt" stroke-miterlimit="10.0"><path d="M 3.9685,2446.3494 c 0.0000,-1.7269 0.2746,-3.4789 0.8490 -5.1956c 32.2296,-96.3240 64.4591,-192.6480 96.6887 -288.9721c 2.2347,-6.6788 8.4889,-11.1811 15.5316 -11.1811c 139.4715,-0.0000 278.9431,-0.0000 418.4147 -0.0000c 139.4715,-0.0000 278.9431,-0.0000 418.4147 -0.0000c 7.0427,-0.0000 13.2969,4.5024 15.5316 11.1811c 32.2296,96.3241 64.4592,192.6481 96.6887 288.9721c 0.5744,1.7167 0.8490,3.4687 0.8490 5.1956c 0.0000,6.1087 -3.4357,11.9039 -9.1889 14.7157c -132.0613,64.5441 -264.1226,129.0882 -396.1840 193.6324c -2.2394,1.0945 -4.6990,1.6634 -7.1916 1.6634c -39.6398,-0.0000 -79.2796,-0.0000 -118.9194 -0.0000c -39.6398,-0.0000 -79.2796,-0.0000 -118.9194 -0.0000c -2.4926,-0.0000 -4.9522,-0.5689 -7.1916 -1.6634c -132.0614,-64.5441 -264.1227,-129.0882 -396.1840 -193.6324c -5.7532,-2.8119 -9.1889,-8.6070 -9.1889 -14.7157ZM 18.4593,2442.5710 c 0.0000,3.1311 2.5382,5.6693 5.6693 5.6693c 3.1311,-0.0000 5.6693,-2.5382 5.6693 -5.6693c 0.0000,-3.1311 -2.5382,-5.6693 -5.6693 -5.6693c -3.1311,-0.0000 -5.6693,2.5382 -5.6693 5.6693ZM 115.1480,2161.1580 c 0.0000,3.1311 2.5382,5.6693 5.6693 5.6693c 3.1311,-0.0000 5.6693,-2.5382 5.6693 -5.6693c 0.0000,-3.1310 -2.5382,-5.6693 -5.6693 -5.6693c -3.1310,-0.0000 -5.6693,2.5382 -5.6693 5.6693ZM 410.8637,2636.2035 c 0.0000,3.1310 2.5382,5.6693 5.6693 5.6693c 3.1310,-0.0000 5.6693,-2.5382 5.6693 -5.6693c 0.0000,-3.1311 -2.5382,-5.6693 -5.6693 -5.6693c -3.1311,-0.0000 -5.6693,2.5382 -5.6693 5.6693ZM 416.3973,2161.1580 c 0.0000,3.1311 2.5382,5.6693 5.6693 5.6693c 3.1310,-0.0000 5.6693,-2.5382 5.6693 -5.6693c 0.0000,-3.1310 -2.5382,-5.6693 -5.6693 -5.6693c -3.1311,-0.0000 -5.6693,2.5382 -5.6693 5.6693ZM 643.1690,2161.1580 c 0.0000,3.1311 2.5382,5.6693 5.6693 5.6693c 3.1311,-0.0000 5.6693,-2.5382 5.6693 -5.6693c 0.0000,-3.1310 -2.5382,-5.6693 -5.6693 -5.6693c -3.1310,-0.0000 -5.6693,2.5382 -5.6693 5.6693ZM 648.7026,2636.2035 c 0.0000,3.1310 2.5382,5.6693 5.6693 5.6693c 3.1311,-0.0000 5.6693,-2.5382 5.6693 -5.6693c 0.0000,-3.1311 -2.5382,-5.6693 -5.6693 -5.6693c -3.1310,-0.0000 -5.6693,2.5382 -5.6693 5.6693ZM 944.4183,2161.1580 c 0.0000,3.1311 2.5382,5.6693 5.6693 5.6693c 3.1310,-0.0000 5.6693,-2.5382 5.6693 -5.6693c 0.0000,-3.1310 -2.5382,-5.6693 -5.6693 -5.6693c -3.1311,-0.0000 -5.6693,2.5382 -5.6693 5.6693ZM 1041.1070,2442.5710 c 0.0000,3.1311 2.5382,5.6693 5.6693 5.6693c 3.1311,-0.0000 5.6693,-2.5382 5.6693 -5.6693c 0.0000,-3.1311 -2.5382,-5.6693 -5.6693 -5.6693c -3.1311,-0.0000 -5.6693,2.5382 -5.6693 5.6693Z"/></g><g stroke-linejoin="miter" stroke-opacity="1.0" fill-opacity="0.5" stroke="rgb(0,0,0)" stroke-width="0.37795275590551186" fill="rgb(255,0,0)" stroke-linecap="butt" stroke-miterlimit="10.0"><path d="M 3.9685,1912.0914 c 0.0000,-1.7269 0.2745,-3.4789 0.8489 -5.1956c 32.2296,-96.3241 64.4592,-192.6480 96.6887 -288.9721c 2.2347,-6.6788 8.4889,-11.1811 15.5316 -11.1811c 136.3219,-0.0000 272.6439,-0.0000 408.9659 -0.0000c 1.2598,-0.0000 2.5196,-0.0000 3.7795 -0.0000c 0.0000,1.2599 0.0000,2.5196 0.0000 3.7795c -1.2599,-0.0000 -2.5197,-0.0000 -3.7795 -0.0000c 0.0000,0.3376 0.0000,0.6752 0.0000 1.0127c 0.0000,0.9223 0.0000,1.8446 0.0000 2.7668c 1.2598,-0.0000 2.5196,-0.0000 3.7795 -0.0000c 0.0000,1.2599 0.0000,2.5197 0.0000 3.7795c -1.2599,-0.0000 -2.5197,-0.0000 -3.7795 -0.0000c 0.0000,0.3376 0.0000,0.6752 0.0000 1.0127c 0.0000,0.9223 0.0000,1.8446 0.0000 2.7668c 1.2598,-0.0000 2.5196,-0.0000 3.7795 -0.0000c 0.0000,1.2599 0.0000,2.5196 0.0000 3.7795c -1.2599,-0.0000 -2.5197,-0.0000 -3.7795 -0.0000c 0.0000,0.3376 0.0000,0.6752 0.0000 1.0127c 0.0000,0.9223 0.0000,1.8446 0.0000 2.7668c 1.2598,-0.0000 2.5196,-0.0000 3.7795 -0.0000c 0.0000,1.2599 0.0000,2.5197 0.0000 3.7795c -1.2599,-0.0000 -2.5197,-0.0000 -3.7795 -0.0000c 0.0000,0.3376 0.0000,0.6752 0.0000 1.0127c 0.0000,0.9222 0.0000,1.8445 0.0000 2.7668c 1.2598,-0.0000 2.5196,-0.0000 3.7795 -0.0000c 0.0000,0.6299 0.0000,1.2599 0.0000 1.8898c 3.7795,-0.0000 7.5590,-0.0000 11.3386 -0.0000c 0.0000,-0.6299 0.0000,-1.2599 0.0000 -1.8898c 1.2599,-0.0000 2.5197,-0.0000 3.7795 -0.0000c 0.0000,-1.2598 0.0000,-2.5196 0.0000 -3.7795c -1.2598,-0.0000 -2.5196,-0.0000 -3.7795 -0.0000c 0.0000,-1.2599 0.0000,-2.5197 0.0000 -3.7795c 1.2599,-0.0000 2.5197,-0.0000 3.7795 -0.0000c 0.0000,-1.2599 0.0000,-2.5197 0.0000 -3.7795c -1.2598,-0.0000 -2.5196,-0.0000 -3.7795 -0.0000c 0.0000,-1.2599 0.0000,-2.5196 0.0000 -3.7795c 1.2599,-0.0000 2.5197,-0.0000 3.7795 -0.0000c 0.0000,-1.2599 0.0000,-2.5197 0.0000 -3.7795c -1.2598,-0.0000 -2.5196,-0.0000 -3.7795 -0.0000c 0.0000,-1.2599 0.0000,-2.5197 0.0000 -3.7795c 1.2599,-0.0000 2.5197,-0.0000 3.7795 -0.0000c 0.0000,-1.2599 0.0000,-2.5197 0.0000 -3.7795c -1.2598,-0.0000 -2.5196,-0.0000 -3.7795 -0.0000c 0.0000,-1.2599 0.0000,-2.5196 0.0000 -3.7795c 1.2599,-0.0000 2.5197,-0.0000 3.7795 -0.0000c 136.3220,-0.0000 272.6439,-0.0000 408.9659 -0.0000c 7.0427,-0.0000 13.2970,4.5023 15.5316 11.1811c 32.2296,96.3241 64.4592,192.6481 96.6887 288.9721c 0.5744,1.7167 0.8489,3.4687 0.8489 5.1956c 0.0000,6.1087 -3.4357,11.9039 -9.1889 14.7157c -132.0613,64.5441 -264.1226,129.0883 -396.1840 193.6324c -2.2394,1.0945 -4.6990,1.6634 -7.1916 1.6634c -39.6398,-0.0000 -79.2796,-0.0000 -118.9194 -0.0000c -39.6398,-0.0000 -79.2796,-0.0000 -118.9194 -0.0000c -2.4926,-0.0000 -4.9522,-0.5689 -7.1916 -1.6634c -132.0614,-64.5441 -264.1227,-129.0883 -396.1840 -193.6324c -5.7532,-2.8118 -9.1889,-8.6070 -9.1889 -14.7157ZM 18.4593,1908.3130 c 0.0000,3.1311 2.5382,5.6693 5.6693 5.6693c 3.1310,-0.0000 5.6693,-2.5382 5.6693 -5.6693c 0.0000,-3.1310 -2.5382,-5.6693 -5.6693 -5.6693c -3.1311,-0.0000 -5.6693,2.5382 -5.6693 5.6693ZM 35.2353,1896.2763 c 3.2413,2.9924 5.2713,7.2775 5.2713 12.0367c 0.0000,3.5117 -1.1052,6.7652 -2.9868 9.4318c 1.0316,0.8617 2.2010,1.6055 3.4940 2.1996c 122.1449,56.1238 244.2898,112.2476 366.4348 168.3714c 2.5996,-1.7361 5.7238,-2.7483 9.0845 -2.7483c 6.0621,-0.0000 11.3550,3.2936 14.1868 8.1890c 34.9109,-0.0000 69.8218,-0.0000 104.7326 -0.0000c 34.9108,-0.0000 69.8217,-0.0000 104.7326 -0.0000c 2.8318,-4.8954 8.1247,-8.1890 14.1868 -8.1890c 3.3606,-0.0000 6.4848,1.0122 9.0845 2.7483c 122.1449,-56.1238 244.2898,-112.2476 366.4348 -168.3714c 1.2931,-0.5941 2.4624,-1.3379 3.4940 -2.1996c -1.8816,-2.6665 -2.9868,-5.9201 -2.9868 -9.4318c 0.0000,-4.7592 2.0300,-9.0443 5.2713 -12.0367c -29.8050,-83.7454 -59.6101,-167.4908 -89.4152 -251.2362c -0.3194,-0.8974 -0.7255,-1.7507 -1.2078 -2.5526c -3.6161,-1.1686 -6.6821,-3.5605 -8.7103 -6.6879c -1.5176,-0.4632 -3.1283,-0.7106 -4.7851 -0.7106c -89.5087,-0.0000 -179.0174,-0.0000 -268.5261 -0.0000c -2.8318,4.8954 -8.1247,8.1889 -14.1868 8.1889c -6.0622,-0.0000 -11.3550,-3.2936 -14.1869 -8.1889c -17.9482,-0.0000 -35.8964,-0.0000 -53.8446 -0.0000c 0.0000,5.9842 0.0000,11.9685 0.0000 17.9527c 0.0000,4.1747 -3.3843,7.5590 -7.5591 7.5590c -25.1968,-0.0000 -50.3937,-0.0000 -75.5905 -0.0000c -4.1748,-0.0000 -7.5591,-3.3843 -7.5591 -7.5590c 0.0000,-1.3775 0.0000,-2.7551 0.0000 -4.1326c 0.0000,-4.6068 0.0000,-9.2135 0.0000 -13.8202c -17.9482,-0.0000 -35.8964,-0.0000 -53.8446 -0.0000c -2.8318,4.8954 -8.1247,8.1889 -14.1869 8.1889c -6.0621,-0.0000 -11.3550,-3.2936 -14.1868 -8.1889c -89.5087,-0.0000 -179.0174,-0.0000 -268.5261 -0.0000c -1.6568,-0.0000 -3.2675,0.2474 -4.7851 0.7106c -2.0282,3.1274 -5.0942,5.5193 -8.7103 6.6879c -0.4823,0.8020 -0.8885,1.6552 -1.2078 2.5526c -29.8051,83.7454 -59.6102,167.4908 -89.4152 251.2362ZM 115.1480,1626.9000 c 0.0000,3.1310 2.5382,5.6693 5.6693 5.6693c 3.1311,-0.0000 5.6693,-2.5382 5.6693 -5.6693c 0.0000,-3.1311 -2.5382,-5.6693 -5.6693 -5.6693c -3.1310,-0.0000 -5.6693,2.5382 -5.6693 5.6693ZM 410.8637,2101.9454 c 0.0000,3.1311 2.5382,5.6693 5.6693 5.6693c 3.1311,-0.0000 5.6693,-2.5382 5.6693 -5.6693c 0.0000,-3.1310 -2.5382,-5.6693 -5.6693 -5.6693c -3.1310,-0.0000 -5.6693,2.5382 -5.6693 5.6693ZM 416.3973,1626.9000 c 0.0000,3.1310 2.5382,5.6693 5.6693 5.6693c 3.1310,-0.0000 5.6693,-2.5382 5.6693 -5.6693c 0.0000,-3.1311 -2.5382,-5.6693 -5.6693 -5.6693c -3.1311,-0.0000 -5.6693,2.5382 -5.6693 5.6693ZM 643.1690,1626.9000 c 0.0000,3.1310 2.5382,5.6693 5.6693 5.6693c 3.1311,-0.0000 5.6693,-2.5382 5.6693 -5.6693c 0.0000,-3.1311 -2.5382,-5.6693 -5.6693 -5.6693c -3.1310,-0.0000 -5.6693,2.5382 -5.6693 5.6693ZM 648.7026,2101.9454 c 0.0000,3.1311 2.5382,5.6693 5.6693 5.6693c 3.1310,-0.0000 5.6693,-2.5382 5.6693 -5.6693c 0.0000,-3.1310 -2.5382,-5.6693 -5.6693 -5.6693c -3.1311,-0.0000 -5.6693,2.5382 -5.6693 5.6693ZM 944.4183,1626.9000 c 0.0000,3.1310 2.5382,5.6693 5.6693 5.6693c 3.1310,-0.0000 5.6693,-2.5382 5.6693 -5.6693c 0.0000,-3.1311 -2.5382,-5.6693 -5.6693 -5.6693c -3.1311,-0.0000 -5.6693,2.5382 -5.6693 5.6693ZM 1041.1070,1908.3130 c 0.0000,3.1311 2.5382,5.6693 5.6693 5.6693c 3.1311,-0.0000 5.6693,-2.5382 5.6693 -5.6693c 0.0000,-3.1310 -2.5382,-5.6693 -5.6693 -5.6693c -3.1310,-0.0000 -5.6693,2.5382 -5.6693 5.6693Z"/></g><g stroke-linejoin="miter" stroke-opacity="1.0" fill-opacity="0.5" stroke="rgb(0,0,0)" stroke-width="0.37795275590551186" fill="rgb(255,0,0)" stroke-linecap="butt" stroke-miterlimit="10.0"><path d="M 3.9685,1377.8334 c 0.0000,-1.7269 0.2746,-3.4789 0.8490 -5.1956c 32.2296,-96.3240 64.4591,-192.6480 96.6887 -288.9721c 2.2347,-6.6788 8.4889,-11.1811 15.5316 -11.1811c 139.4715,-0.0000 278.9431,-0.0000 418.4147 -0.0000c 139.4715,-0.0000 278.9431,-0.0000 418.4147 -0.0000c 7.0427,-0.0000 13.2969,4.5024 15.5316 11.1811c 32.2296,96.3241 64.4592,192.6481 96.6887 288.9721c 0.5744,1.7167 0.8490,3.4687 0.8490 5.1956c 0.0000,6.1087 -3.4357,11.9039 -9.1889 14.7157c -132.0613,64.5441 -264.1226,129.0882 -396.1840 193.6324c -2.2394,1.0945 -4.6990,1.6634 -7.1916 1.6634c -39.6398,-0.0000 -79.2796,-0.0000 -118.9194 -0.0000c -39.6398,-0.0000 -79.2796,-0.0000 -118.9194 -0.0000c -2.4926,-0.0000 -4.9522,-0.5689 -7.1916 -1.6634c -132.0614,-64.5441 -264.1227,-129.0882 -396.1840 -193.6324c -5.7532,-2.8119 -9.1889,-8.6070 -9.1889 -14.7157ZM 18.4593,1374.0550 c 0.0000,3.1311 2.5382,5.6693 5.6693 5.6693c 3.1311,-0.0000 5.6693,-2.5382 5.6693 -5.6693c 0.0000,-3.1311 -2.5382,-5.6693 -5.6693 -5.6693c -3.1311,-0.0000 -5.6693,2.5382 -5.6693 5.6693ZM 35.2353,1362.0183 c 3.2413,2.9924 5.2713,7.2775 5.2713 12.0367c 0.0000,3.5117 -1.1052,6.7652 -2.9868 9.4318c 1.0316,0.8617 2.2010,1.6055 3.4941 2.1996c 122.1449,56.1238 244.2898,112.2476 366.4348 168.3714c 2.5996,-1.7361 5.7238,-2.7483 9.0845 -2.7483c 6.0622,-0.0000 11.3550,3.2936 14.1869 8.1890c 34.9108,-0.0000 69.8217,-0.0000 104.7326 -0.0000c 34.9108,-0.0000 69.8217,-0.0000 104.7326 -0.0000c 2.8318,-4.8954 8.1247,-8.1890 14.1869 -8.1890c 3.3606,-0.0000 6.4848,1.0122 9.0845 2.7483c 122.1449,-56.1238 244.2899,-112.2476 366.4348 -168.3714c 1.2931,-0.5941 2.4625,-1.3379 3.4941 -2.1996c -1.8816,-2.6666 -2.9868,-5.9201 -2.9868 -9.4318c 0.0000,-4.7592 2.0300,-9.0443 5.2713 -12.0367c -29.8051,-83.7454 -59.6102,-167.4908 -89.4153 -251.2362c -0.3194,-0.8974 -0.7255,-1.7507 -1.2078 -2.5527c -3.6161,-1.1686 -6.6821,-3.5605 -8.7103 -6.6879c -1.5176,-0.4631 -3.1283,-0.7106 -4.7851 -0.7106c -89.5087,-0.0000 -179.0174,-0.0000 -268.5261 -0.0000c -2.8318,4.8954 -8.1247,8.1890 -14.1869 8.1890c -6.0622,-0.0000 -11.3550,-3.2936 -14.1869 -8.1890c -17.9482,-0.0000 -35.8964,-0.0000 -53.8446 -0.0000c 0.0000,5.9843 0.0000,11.9685 0.0000 17.9528c 0.0000,4.1747 -3.3843,7.5590 -7.5591 7.5590c -9.4488,-0.0000 -18.8977,-0.0000 -28.3465 -0.0000c 0.0000,-0.3149 0.0000,-0.6299 0.0000 -0.9449c -1.2598,-0.0000 -2.5197,-0.0000 -3.7795 -0.0000c 0.0000,-1.2598 0.0000,-2.5197 0.0000 -3.7795c 1.2598,-0.0000 2.5197,-0.0000 3.7795 -0.0000c 0.0000,-1.2598 0.0000,-2.5197 0.0000 -3.7795c -1.2598,-0.0000 -2.5197,-0.0000 -3.7795 -0.0000c 0.0000,-1.2598 0.0000,-2.5197 0.0000 -3.7795c 1.2598,-0.0000 2.5197,-0.0000 3.7795 -0.0000c 0.0000,-1.2598 0.0000,-2.5197 0.0000 -3.7795c -1.2598,-0.0000 -2.5197,-0.0000 -3.7795 -0.0000c 0.0000,-1.2598 0.0000,-2.5197 0.0000 -3.7795c 1.2598,-0.0000 2.5197,-0.0000 3.7795 -0.0000c 0.0000,-1.2598 0.0000,-2.5197 0.0000 -3.7795c -1.2598,-0.0000 -2.5197,-0.0000 -3.7795 -0.0000c 0.0000,-1.2598 0.0000,-2.5197 0.0000 -3.7795c 1.2598,-0.0000 2.5197,-0.0000 3.7795 -0.0000c 0.0000,-1.2598 0.0000,-2.5197 0.0000 -3.7795c -6.2992,-0.0000 -12.5984,-0.0000 -18.8976 -0.0000c 0.0000,0.3376 0.0000,0.6752 0.0000 1.0127c 0.0000,0.9223 0.0000,1.8445 0.0000 2.7668c 1.2598,-0.0000 2.5197,-0.0000 3.7795 -0.0000c 0.0000,1.2598 0.0000,2.5197 0.0000 3.7795c -1.2598,-0.0000 -2.5197,-0.0000 -3.7795 -0.0000c 0.0000,0.3376 0.0000,0.6752 0.0000 1.0127c 0.0000,0.9223 0.0000,1.8445 0.0000 2.7668c 1.2598,-0.0000 2.5197,-0.0000 3.7795 -0.0000c 0.0000,1.2598 0.0000,2.5197 0.0000 3.7795c -1.2598,-0.0000 -2.5197,-0.0000 -3.7795 -0.0000c 0.0000,0.3376 0.0000,0.6752 0.0000 1.0127c 0.0000,0.9223 0.0000,1.8445 0.0000 2.7668c 1.2598,-0.0000 2.5197,-0.0000 3.7795 -0.0000c 0.0000,1.2598 0.0000,2.5197 0.0000 3.7795c -1.2598,-0.0000 -2.5197,-0.0000 -3.7795 -0.0000c 0.0000,0.3376 0.0000,0.6752 0.0000 1.0127c 0.0000,0.9223 0.0000,1.8445 0.0000 2.7668c 1.2598,-0.0000 2.5197,-0.0000 3.7795 -0.0000c 0.0000,1.2598 0.0000,2.5197 0.0000 3.7795c -1.2598,-0.0000 -2.5197,-0.0000 -3.7795 -0.0000c 0.0000,0.3150 0.0000,0.6299 0.0000 0.9449c -9.4488,-0.0000 -18.8977,-0.0000 -28.3465 -0.0000c -4.1748,-0.0000 -7.5591,-3.3843 -7.5591 -7.5590c 0.0000,-1.3775 0.0000,-2.7551 0.0000 -4.1326c 0.0000,-4.6067 0.0000,-9.2134 0.0000 -13.8202c -17.9482,-0.0000 -35.8964,-0.0000 -53.8446 -0.0000c -2.8318,4.8954 -8.1247,8.1890 -14.1869 8.1890c -6.0622,-0.0000 -11.3550,-3.2936 -14.1869 -8.1890c -89.5087,-0.0000 -179.0174,-0.0000 -268.5261 -0.0000c -1.6568,-0.0000 -3.2675,0.2475 -4.7851 0.7106c -2.0282,3.1274 -5.0942,5.5193 -8.7103 6.6879c -0.4823,0.8020 -0.8885,1.6552 -1.2078 2.5527c -29.8051,83.7454 -59.6102,167.4908 -89.4153 251.2362ZM 115.1480,1092.6420 c 0.0000,3.1311 2.5382,5.6693 5.6693 5.6693c 3.1311,-0.0000 5.6693,-2.5382 5.6693 -5.6693c 0.0000,-3.1310 -2.5382,-5.6693 -5.6693 -5.6693c -3.1310,-0.0000 -5.6693,2.5382 -5.6693 5.6693ZM 410.8637,1567.6874 c 0.0000,3.1310 2.5382,5.6693 5.6693 5.6693c 3.1310,-0.0000 5.6693,-2.5382 5.6693 -5.6693c 0.0000,-3.1311 -2.5382,-5.6693 -5.6693 -5.6693c -3.1311,-0.0000 -5.6693,2.5382 -5.6693 5.6693ZM 416.3973,1092.6420 c 0.0000,3.1311 2.5382,5.6693 5.6693 5.6693c 3.1310,-0.0000 5.6693,-2.5382 5.6693 -5.6693c 0.0000,-3.1310 -2.5382,-5.6693 -5.6693 -5.6693c -3.1311,-0.0000 -5.6693,2.5382 -5.6693 5.6693ZM 643.1690,1092.6420 c 0.0000,3.1311 2.5382,5.6693 5.6693 5.6693c 3.1311,-0.0000 5.6693,-2.5382 5.6693 -5.6693c 0.0000,-3.1310 -2.5382,-5.6693 -5.6693 -5.6693c -3.1310,-0.0000 -5.6693,2.5382 -5.6693 5.6693ZM 648.7026,1567.6874 c 0.0000,3.1310 2.5382,5.6693 5.6693 5.6693c 3.1311,-0.0000 5.6693,-2.5382 5.6693 -5.6693c 0.0000,-3.1311 -2.5382,-5.6693 -5.6693 -5.6693c -3.1310,-0.0000 -5.6693,2.5382 -5.6693 5.6693ZM 944.4183,1092.6420 c 0.0000,3.1311 2.5382,5.6693 5.6693 5.6693c 3.1310,-0.0000 5.6693,-2.5382 5.6693 -5.6693c 0.0000,-3.1310 -2.5382,-5.6693 -5.6693 -5.6693c -3.1311,-0.0000 -5.6693,2.5382 -5.6693 5.6693ZM 1041.1070,1374.0550 c 0.0000,3.1311 2.5382,5.6693 5.6693 5.6693c 3.1311,-0.0000 5.6693,-2.5382 5.6693 -5.6693c 0.0000,-3.1311 -2.5382,-5.6693 -5.6693 -5.6693c -3.1311,-0.0000 -5.6693,2.5382 -5.6693 5.6693Z"/></g><g stroke-linejoin="miter" stroke-opacity="1.0" fill-opacity="0.5" stroke="rgb(0,0,0)" stroke-width="0.37795275590551186" fill="rgb(0,0,0)" stroke-linecap="butt" stroke-miterlimit="10.0"><path d="M 3.9685,843.5754 c 0.0000,-1.7269 0.2746,-3.4789 0.8490 -5.1956c 32.2296,-96.3240 64.4591,-192.6480 96.6887 -288.9721c 2.2347,-6.6788 8.4889,-11.1811 15.5316 -11.1811c 139.4715,-0.0000 278.9431,-0.0000 418.4147 -0.0000c 139.4715,-0.0000 278.9431,-0.0000 418.4147 -0.0000c 7.0427,-0.0000 13.2969,4.5024 15.5316 11.1811c 32.2296,96.3241 64.4592,192.6481 96.6887 288.9721c 0.5744,1.7167 0.8490,3.4687 0.8490 5.1956c 0.0000,6.1087 -3.4357,11.9039 -9.1889 14.7157c -132.0613,64.5441 -264.1226,129.0882 -396.1840 193.6324c -2.2394,1.0945 -4.6990,1.6634 -7.1916 1.6634c -39.6398,-0.0000 -79.2796,-0.0000 -118.9194 -0.0000c -39.6398,-0.0000 -79.2796,-0.0000 -118.9194 -0.0000c -2.4926,-0.0000 -4.9522,-0.5689 -7.1916 -1.6634c -132.0614,-64.5441 -264.1227,-129.0882 -396.1840 -193.6324c -5.7532,-2.8119 -9.1889,-8.6070 -9.1889 -14.7157ZM 18.4593,839.7970 c 0.0000,3.1311 2.5382,5.6693 5.6693 5.6693c 3.1311,-0.0000 5.6693,-2.5382 5.6693 -5.6693c 0.0000,-3.1311 -2.5382,-5.6693 -5.6693 -5.6693c -3.1311,-0.0000 -5.6693,2.5382 -5.6693 5.6693ZM 55.8733,828.9708 c 0.9711,0.3249 1.9422,0.6499 2.9133 0.9748c -0.3920,1.1714 -0.7839,2.3427 -1.1758 3.5141c 16.6905,5.5846 33.3810,11.1691 50.0715 16.7537c 0.3919,-1.1714 0.7839,-2.3428 1.1758 -3.5141c 0.9711,0.3249 1.9422,0.6498 2.9133 0.9747c 1.3992,-4.1817 2.7984,-8.3634 4.1975 -12.5451c -0.9711,-0.3249 -1.9422,-0.6498 -2.9133 -0.9747c 2.0023,-5.9843 4.0046,-11.9687 6.0070 -17.9530c 0.9711,0.3249 1.9422,0.6498 2.9133 0.9748c 1.3992,-4.1817 2.7984,-8.3634 4.1975 -12.5451c -0.9711,-0.3249 -1.9422,-0.6498 -2.9133 -0.9747c 0.3919,-1.1714 0.7839,-2.3428 1.1758 -3.5141c -16.6905,-5.5846 -33.3810,-11.1692 -50.0715 -16.7537c -0.3919,1.1714 -0.7839,2.3427 -1.1758 3.5141c -0.9711,-0.3249 -1.9422,-0.6498 -2.9133 -0.9748c -1.3992,4.1817 -2.7984,8.3634 -4.1975 12.5451c 0.9711,0.3249 1.9422,0.6498 2.9133 0.9748c -2.0023,5.9843 -4.0046,11.9686 -6.0070 17.9530c -0.9711,-0.3249 -1.9422,-0.6498 -2.9133 -0.9747c -1.3992,4.1817 -2.7984,8.3634 -4.1975 12.5451ZM 78.6592,760.8707 c 0.9711,0.3249 1.9422,0.6498 2.9133 0.9748c -0.3919,1.1714 -0.7839,2.3427 -1.1758 3.5141c 16.6905,5.5846 33.3810,11.1691 50.0715 16.7537c 0.3919,-1.1714 0.7839,-2.3428 1.1758 -3.5142c 0.9711,0.3249 1.9422,0.6498 2.9133 0.9748c 1.3992,-4.1817 2.7984,-8.3634 4.1975 -12.5451c -0.9711,-0.3249 -1.9422,-0.6498 -2.9133 -0.9747c 2.0023,-5.9843 4.0046,-11.9687 6.0070 -17.9530c 0.9711,0.3249 1.9422,0.6498 2.9133 0.9748c 1.3992,-4.1817 2.7984,-8.3634 4.1975 -12.5451c -0.9711,-0.3249 -1.9422,-0.6498 -2.9133 -0.9748c 0.3919,-1.1714 0.7839,-2.3427 1.1758 -3.5141c -16.6905,-5.5845 -33.3810,-11.1691 -50.0715 -16.7537c -0.3919,1.1714 -0.7839,2.3427 -1.1758 3.5141c -0.9711,-0.3249 -1.9422,-0.6498 -2.9133 -0.9748c -1.3992,4.1817 -2.7984,8.3634 -4.1975 12.5451c 0.9711,0.3249 1.9422,0.6498 2.9133 0.9748c -2.0024,5.9843 -4.0047,11.9686 -6.0070 17.9530c -0.9711,-0.3249 -1.9422,-0.6498 -2.9133 -0.9747c -1.3992,4.1817 -2.7984,8.3634 -4.1975 12.5451ZM 101.4452,692.7706 c 0.9711,0.3249 1.9422,0.6498 2.9133 0.9748c -0.3919,1.1714 -0.7839,2.3427 -1.1758 3.5141c 16.6905,5.5845 33.3810,11.1691 50.0715 16.7537c 0.3919,-1.1714 0.7839,-2.3427 1.1758 -3.5141c 0.9711,0.3249 1.9422,0.6498 2.9133 0.9748c 1.3992,-4.1817 2.7984,-8.3634 4.1975 -12.5451c -0.9711,-0.3249 -1.9422,-0.6498 -2.9133 -0.9748c 2.0023,-5.9843 4.0046,-11.9686 6.0070 -17.9530c 0.9711,0.3249 1.9422,0.6498 2.9133 0.9747c 1.3992,-4.1817 2.7984,-8.3634 4.1975 -12.5451c -0.9711,-0.3249 -1.9422,-0.6498 -2.9132 -0.9748c 0.3919,-1.1714 0.7839,-2.3427 1.1758 -3.5141c -16.6905,-5.5846 -33.3810,-11.1691 -50.0715 -16.7537c -0.3919,1.1714 -0.7839,2.3428 -1.1758 3.5141c -0.9711,-0.3249 -1.9422,-0.6498 -2.9133 -0.9747c -1.3992,4.1817 -2.7984,8.3634 -4.1975 12.5451c 0.9711,0.3249 1.9422,0.6498 2.9133 0.9747c -2.0023,5.9843 -4.0046,11.9687 -6.0070 17.9530c -0.9711,-0.3249 -1.9422,-0.6498 -2.9133 -0.9748c -1.3992,4.1817 -2.7984,8.3634 -4.1975 12.5451ZM 115.1480,558.3840 c 0.0000,3.1311 2.5382,5.6693 5.6693 5.6693c 3.1311,-0.0000 5.6693,-2.5382 5.6693 -5.6693c 0.0000,-3.1310 -2.5382,-5.6693 -5.6693 -5.6693c -3.1310,-0.0000 -5.6693,2.5382 -5.6693 5.6693ZM 124.2312,624.6705 c 0.9711,0.3249 1.9422,0.6498 2.9133 0.9747c -0.3919,1.1714 -0.7839,2.3428 -1.1758 3.5141c 16.6905,5.5846 33.3810,11.1692 50.0715 16.7537c 0.3920,-1.1714 0.7839,-2.3427 1.1758 -3.5141c 0.9711,0.3249 1.9422,0.6498 2.9133 0.9748c 1.3992,-4.1817 2.7984,-8.3634 4.1975 -12.5451c -0.9711,-0.3249 -1.9422,-0.6498 -2.9133 -0.9748c 2.0023,-5.9843 4.0046,-11.9686 6.0070 -17.9530c 0.9711,0.3249 1.9422,0.6498 2.9133 0.9747c 1.3992,-4.1817 2.7984,-8.3634 4.1975 -12.5451c -0.9711,-0.3249 -1.9422,-0.6498 -2.9133 -0.9747c 0.3920,-1.1714 0.7839,-2.3428 1.1758 -3.5141c -16.6905,-5.5846 -33.3810,-11.1691 -50.0715 -16.7537c -0.3919,1.1714 -0.7839,2.3428 -1.1758 3.5141c -0.9711,-0.3249 -1.9422,-0.6498 -2.9133 -0.9747c -1.3992,4.1817 -2.7984,8.3634 -4.1975 12.5451c 0.9711,0.3249 1.9422,0.6499 2.9133 0.9748c -2.0023,5.9843 -4.0046,11.9687 -6.0070 17.9530c -0.9711,-0.3249 -1.9422,-0.6498 -2.9133 -0.9748c -1.3992,4.1817 -2.7984,8.3634 -4.1975 12.5451ZM 127.5712,841.0041 c 0.9711,0.3249 1.9422,0.6498 2.9133 0.9747c -0.3919,1.1714 -0.7839,2.3428 -1.1758 3.5142c 16.6905,5.5845 33.3810,11.1691 50.0715 16.7537c 0.3919,-1.1714 0.7839,-2.3427 1.1758 -3.5141c 0.9711,0.3249 1.9422,0.6498 2.9133 0.9747c 1.3992,-4.1817 2.7984,-8.3634 4.1975 -12.5451c -0.9711,-0.3249 -1.9422,-0.6498 -2.9133 -0.9748c 2.0023,-5.9843 4.0046,-11.9686 6.0070 -17.9530c 0.9711,0.3249 1.9422,0.6498 2.9133 0.9747c 1.3991,-4.1817 2.7983,-8.3634 4.1975 -12.5451c -0.9711,-0.3249 -1.9422,-0.6498 -2.9133 -0.9747c 0.3920,-1.1714 0.7839,-2.3427 1.1758 -3.5141c -16.6905,-5.5846 -33.3810,-11.1691 -50.0715 -16.7537c -0.3919,1.1714 -0.7839,2.3428 -1.1758 3.5141c -0.9711,-0.3249 -1.9422,-0.6498 -2.9133 -0.9747c -1.3992,4.1817 -2.7984,8.3634 -4.1975 12.5451c 0.9711,0.3249 1.9422,0.6498 2.9133 0.9747c -2.0023,5.9843 -4.0046,11.9687 -6.0070 17.9530c -0.9711,-0.3249 -1.9422,-0.6498 -2.9133 -0.9748c -1.3992,4.1817 -2.7984,8.3634 -4.1975 12.5451ZM 150.3571,772.9040 c 0.9711,0.3249 1.9422,0.6498 2.9133 0.9747c -0.3920,1.1714 -0.7839,2.3428 -1.1758 3.5141c 16.6905,5.5846 33.3810,11.1691 50.0715 16.7537c 0.3919,-1.1714 0.7839,-2.3427 1.1758 -3.5141c 0.9711,0.3249 1.9422,0.6498 2.9133 0.9747c 1.3992,-4.1817 2.7984,-8.3634 4.1975 -12.5451c -0.9711,-0.3249 -1.9422,-0.6499 -2.9133 -0.9748c 2.0023,-5.9843 4.0046,-11.9687 6.0070 -17.9530c 0.9711,0.3249 1.9422,0.6499 2.9133 0.9748c 1.3992,-4.1817 2.7984,-8.3634 4.1975 -12.5451c -0.9711,-0.3249 -1.9422,-0.6498 -2.9133 -0.9747c 0.3919,-1.1714 0.7839,-2.3428 1.1758 -3.5141c -16.6905,-5.5846 -33.3810,-11.1691 -50.0715 -16.7537c -0.3920,1.1714 -0.7839,2.3427 -1.1758 3.5141c -0.9711,-0.3249 -1.9422,-0.6498 -2.9133 -0.9747c -1.3992,4.1817 -2.7984,8.3634 -4.1975 12.5451c 0.9711,0.3249 1.9422,0.6498 2.9133 0.9748c -2.0023,5.9843 -4.0046,11.9686 -6.0070 17.9530c -0.9711,-0.3249 -1.9422,-0.6498 -2.9133 -0.9747c -1.3992,4.1817 -2.7984,8.3634 -4.1975 12.5451ZM 173.1431,704.8039 c 0.9711,0.3249 1.9422,0.6498 2.9133 0.9748c -0.3919,1.1714 -0.7839,2.3427 -1.1758 3.5141c 16.6905,5.5846 33.3810,11.1691 50.0715 16.7537c 0.3919,-1.1714 0.7839,-2.3428 1.1758 -3.5141c 0.9711,0.3249 1.9422,0.6498 2.9133 0.9747c 1.3992,-4.1817 2.7984,-8.3634 4.1975 -12.5451c -0.9711,-0.3249 -1.9422,-0.6498 -2.9133 -0.9747c 2.0023,-5.9843 4.0046,-11.9687 6.0070 -17.9530c 0.9711,0.3249 1.9422,0.6498 2.9133 0.9748c 1.3992,-4.1817 2.7984,-8.3634 4.1975 -12.5451c -0.9711,-0.3249 -1.9422,-0.6498 -2.9133 -0.9748c 0.3919,-1.1714 0.7839,-2.3427 1.1758 -3.5141c -16.6905,-5.5845 -33.3810,-11.1691 -50.0715 -16.7537c -0.3919,1.1714 -0.7839,2.3427 -1.1758 3.5141c -0.9711,-0.3249 -1.9422,-0.6498 -2.9133 -0.9748c -1.3992,4.1817 -2.7984,8.3634 -4.1975 12.5451c 0.9711,0.3249 1.9422,0.6498 2.9133 0.9748c -2.0023,5.9843 -4.0047,11.9686 -6.0070 17.9530c -0.9711,-0.3249 -1.9422,-0.6498 -2.9133 -0.9747c -1.3992,4.1817 -2.7984,8.3634 -4.1975 12.5451ZM 195.9291,636.7038 c 0.9711,0.3249 1.9422,0.6498 2.9133 0.9748c -0.3919,1.1714 -0.7839,2.3427 -1.1758 3.5141c 16.6905,5.5845 33.3810,11.1691 50.0715 16.7537c 0.3919,-1.1714 0.7839,-2.3427 1.1758 -3.5141c 0.9711,0.3249 1.9422,0.6498 2.9133 0.9748c 1.3992,-4.1817 2.7984,-8.3634 4.1975 -12.5451c -0.9711,-0.3249 -1.9422,-0.6498 -2.9133 -0.9747c 2.0023,-5.9843 4.0047,-11.9687 6.0070 -17.9530c 0.9711,0.3249 1.9422,0.6498 2.9133 0.9747c 1.3992,-4.1817 2.7984,-8.3634 4.1975 -12.5451c -0.9711,-0.3249 -1.9422,-0.6498 -2.9133 -0.9748c 0.3919,-1.1714 0.7839,-2.3427 1.1758 -3.5141c -16.6905,-5.5845 -33.3810,-11.1691 -50.0715 -16.7537c -0.3919,1.1714 -0.7839,2.3428 -1.1758 3.5142c -0.9711,-0.3249 -1.9422,-0.6498 -2.9133 -0.9748c -1.3992,4.1817 -2.7984,8.3634 -4.1975 12.5451c 0.9711,0.3249 1.9422,0.6498 2.9133 0.9747c -2.0023,5.9843 -4.0046,11.9687 -6.0070 17.9530c -0.9711,-0.3249 -1.9422,-0.6498 -2.9133 -0.9748c -1.3992,4.1817 -2.7984,8.3634 -4.1975 12.5451ZM 201.6675,845.8690 c 0.9711,0.3249 1.9422,0.6499 2.9133 0.9748c -0.3919,1.1714 -0.7839,2.3427 -1.1758 3.5141c 16.6905,5.5846 33.3810,11.1691 50.0715 16.7537c 0.3919,-1.1714 0.7839,-2.3428 1.1758 -3.5141c 0.9711,0.3249 1.9422,0.6498 2.9133 0.9747c 1.3992,-4.1817 2.7984,-8.3634 4.1975 -12.5451c -0.9711,-0.3249 -1.9422,-0.6498 -2.9133 -0.9747c 2.0023,-5.9843 4.0046,-11.9687 6.0070 -17.9530c 0.9711,0.3249 1.9422,0.6499 2.9133 0.9748c 1.3992,-4.1817 2.7984,-8.3634 4.1975 -12.5451c -0.9711,-0.3249 -1.9422,-0.6498 -2.9133 -0.9747c 0.3919,-1.1714 0.7839,-2.3428 1.1758 -3.5141c -16.6905,-5.5846 -33.3810,-11.1691 -50.0715 -16.7537c -0.3919,1.1714 -0.7839,2.3427 -1.1758 3.5141c -0.9711,-0.3249 -1.9422,-0.6498 -2.9133 -0.9748c -1.3992,4.1817 -2.7984,8.3634 -4.1975 12.5451c 0.9711,0.3249 1.9422,0.6498 2.9133 0.9748c -2.0023,5.9843 -4.0047,11.9686 -6.0070 17.9530c -0.9711,-0.3249 -1.9422,-0.6498 -2.9133 -0.9747c -1.3992,4.1817 -2.7984,8.3634 -4.1975 12.5451ZM 224.4535,777.7689 c 0.9711,0.3249 1.9422,0.6498 2.9133 0.9748c -0.3919,1.1714 -0.7839,2.3427 -1.1758 3.5141c 16.6905,5.5846 33.3810,11.1691 50.0715 16.7537c 0.3919,-1.1714 0.7839,-2.3428 1.1758 -3.5141c 0.9711,0.3249 1.9422,0.6498 2.9133 0.9747c 1.3992,-4.1817 2.7984,-8.3634 4.1975 -12.5451c -0.9711,-0.3249 -1.9422,-0.6498 -2.9133 -0.9747c 2.0023,-5.9843 4.0047,-11.9687 6.0070 -17.9530c 0.9711,0.3249 1.9422,0.6498 2.9133 0.9748c 1.3992,-4.1817 2.7984,-8.3634 4.1975 -12.5451c -0.9711,-0.3249 -1.9422,-0.6498 -2.9133 -0.9748c 0.3919,-1.1714 0.7839,-2.3427 1.1758 -3.5141c -16.6905,-5.5845 -33.3810,-11.1691 -50.0715 -16.7537c -0.3919,1.1714 -0.7839,2.3427 -1.1758 3.5141c -0.9711,-0.3249 -1.9422,-0.6498 -2.9133 -0.9748c -1.3992,4.1817 -2.7984,8.3634 -4.1975 12.5451c 0.9711,0.3249 1.9422,0.6498 2.9133 0.9748c -2.0023,5.9843 -4.0046,11.9686 -6.0070 17.9530c -0.9711,-0.3249 -1.9422,-0.6498 -2.9133 -0.9747c -1.3992,4.1817 -2.7984,8.3634 -4.1975 12.5451ZM 247.2395,709.6688 c 0.9711,0.3249 1.9422,0.6498 2.9133 0.9748c -0.3919,1.1714 -0.7839,2.3427 -1.1758 3.5141c 16.6905,5.5845 33.3810,11.1691 50.0715 16.7537c 0.3920,-1.1714 0.7839,-2.3427 1.1758 -3.5141c 0.9711,0.3249 1.9422,0.6498 2.9133 0.9748c 1.3992,-4.1817 2.7984,-8.3634 4.1975 -12.5451c -0.9711,-0.3249 -1.9422,-0.6498 -2.9133 -0.9748c 2.0023,-5.9843 4.0046,-11.9686 6.0070 -17.9530c 0.9711,0.3249 1.9422,0.6498 2.9133 0.9747c 1.3992,-4.1817 2.7984,-8.3634 4.1975 -12.5451c -0.9711,-0.3249 -1.9422,-0.6498 -2.9133 -0.9748c 0.3920,-1.1714 0.7839,-2.3427 1.1758 -3.5141c -16.6905,-5.5845 -33.3810,-11.1691 -50.0715 -16.7537c -0.3919,1.1714 -0.7839,2.3428 -1.1758 3.5142c -0.9711,-0.3249 -1.9422,-0.6498 -2.9133 -0.9748c -1.3992,4.1817 -2.7984,8.3634 -4.1975 12.5451c 0.9711,0.3249 1.9422,0.6498 2.9133 0.9747c -2.0023,5.9843 -4.0046,11.9687 -6.0070 17.9530c -0.9711,-0.3249 -1.9422,-0.6498 -2.9133 -0.9748c -1.3992,4.1817 -2.7984,8.3634 -4.1975 12.5451ZM 262.5721,890.1603 c 0.9711,0.3249 1.9422,0.6498 2.9133 0.9748c -0.3919,1.1714 -0.7839,2.3427 -1.1758 3.5141c 16.6905,5.5845 33.3810,11.1691 50.0715 16.7537c 0.3919,-1.1714 0.7839,-2.3427 1.1758 -3.5141c 0.9711,0.3249 1.9422,0.6498 2.9133 0.9748c 1.3992,-4.1817 2.7984,-8.3634 4.1975 -12.5451c -0.9711,-0.3249 -1.9422,-0.6498 -2.9133 -0.9748c 2.0023,-5.9843 4.0046,-11.9686 6.0070 -17.9530c 0.9711,0.3249 1.9422,0.6498 2.9133 0.9747c 1.3992,-4.1817 2.7984,-8.3634 4.1975 -12.5451c -0.9711,-0.3249 -1.9422,-0.6498 -2.9133 -0.9748c 0.3919,-1.1714 0.7839,-2.3427 1.1758 -3.5141c -16.6905,-5.5846 -33.3810,-11.1691 -50.0715 -16.7537c -0.3919,1.1714 -0.7839,2.3428 -1.1758 3.5142c -0.9711,-0.3249 -1.9422,-0.6498 -2.9133 -0.9748c -1.3992,4.1817 -2.7984,8.3634 -4.1975 12.5451c 0.9711,0.3249 1.9422,0.6498 2.9133 0.9747c -2.0023,5.9843 -4.0047,11.9687 -6.0070 17.9530c -0.9711,-0.3249 -1.9422,-0.6498 -2.9133 -0.9748c -1.3992,4.1817 -2.7984,8.3634 -4.1975 12.5451ZM 270.0255,641.5687 c 0.9711,0.3249 1.9422,0.6498 2.9133 0.9747c -0.3920,1.1714 -0.7839,2.3428 -1.1758 3.5141c 16.6905,5.5846 33.3810,11.1692 50.0715 16.7537c 0.3919,-1.1714 0.7839,-2.3427 1.1758 -3.5141c 0.9711,0.3249 1.9422,0.6498 2.9133 0.9748c 1.3992,-4.1817 2.7984,-8.3634 4.1975 -12.5451c -0.9711,-0.3249 -1.9422,-0.6498 -2.9133 -0.9748c 2.0023,-5.9843 4.0046,-11.9686 6.0070 -17.9530c 0.9711,0.3249 1.9422,0.6498 2.9133 0.9747c 1.3992,-4.1817 2.7984,-8.3634 4.1975 -12.5451c -0.9711,-0.3249 -1.9422,-0.6498 -2.9133 -0.9747c 0.3919,-1.1714 0.7839,-2.3428 1.1758 -3.5141c -16.6905,-5.5846 -33.3810,-11.1691 -50.0715 -16.7537c -0.3919,1.1714 -0.7839,2.3428 -1.1758 3.5141c -0.9711,-0.3249 -1.9422,-0.6498 -2.9133 -0.9747c -1.3992,4.1817 -2.7984,8.3634 -4.1975 12.5451c 0.9711,0.3249 1.9422,0.6498 2.9133 0.9747c -2.0023,5.9843 -4.0046,11.9687 -6.0070 17.9530c -0.9711,-0.3249 -1.9422,-0.6498 -2.9133 -0.9748c -1.3992,4.1817 -2.7984,8.3634 -4.1975 12.5451ZM 285.3581,822.0602 c 0.9711,0.3249 1.9422,0.6498 2.9133 0.9747c -0.3919,1.1714 -0.7839,2.3428 -1.1758 3.5141c 16.6905,5.5846 33.3810,11.1692 50.0715 16.7537c 0.3919,-1.1714 0.7839,-2.3427 1.1758 -3.5141c 0.9711,0.3249 1.9422,0.6498 2.9133 0.9748c 1.3992,-4.1817 2.7984,-8.3634 4.1975 -12.5451c -0.9711,-0.3249 -1.9422,-0.6498 -2.9133 -0.9748c 2.0023,-5.9843 4.0047,-11.9686 6.0070 -17.9530c 0.9711,0.3249 1.9422,0.6498 2.9133 0.9747c 1.3992,-4.1817 2.7984,-8.3634 4.1975 -12.5451c -0.9711,-0.3249 -1.9422,-0.6499 -2.9133 -0.9748c 0.3919,-1.1714 0.7839,-2.3427 1.1758 -3.5141c -16.6905,-5.5846 -33.3810,-11.1691 -50.0715 -16.7537c -0.3919,1.1714 -0.7839,2.3428 -1.1758 3.5141c -0.9711,-0.3249 -1.9422,-0.6498 -2.9133 -0.9747c -1.3992,4.1817 -2.7984,8.3634 -4.1975 12.5451c 0.9711,0.3249 1.9422,0.6498 2.9133 0.9747c -2.0023,5.9843 -4.0046,11.9687 -6.0070 17.9530c -0.9711,-0.3249 -1.9422,-0.6498 -2.9133 -0.9748c -1.3992,4.1817 -2.7984,8.3634 -4.1975 12.5451ZM 308.1440,753.9601 c 0.9711,0.3249 1.9422,0.6498 2.9133 0.9747c -0.3919,1.1714 -0.7839,2.3428 -1.1758 3.5141c 16.6905,5.5846 33.3810,11.1691 50.0715 16.7537c 0.3920,-1.1714 0.7839,-2.3428 1.1758 -3.5141c 0.9711,0.3249 1.9422,0.6498 2.9133 0.9747c 1.3992,-4.1817 2.7984,-8.3634 4.1975 -12.5451c -0.9711,-0.3249 -1.9422,-0.6499 -2.9133 -0.9748c 2.0023,-5.9843 4.0046,-11.9687 6.0070 -17.9530c 0.9711,0.3249 1.9422,0.6498 2.9133 0.9747c 1.3992,-4.1817 2.7984,-8.3634 4.1975 -12.5451c -0.9711,-0.3249 -1.9422,-0.6498 -2.9133 -0.9747c 0.3920,-1.1714 0.7839,-2.3428 1.1758 -3.5141c -16.6905,-5.5846 -33.3810,-11.1692 -50.0715 -16.7537c -0.3919,1.1714 -0.7839,2.3427 -1.1758 3.5141c -0.9711,-0.3249 -1.9422,-0.6498 -2.9133 -0.9747c -1.3992,4.1817 -2.7984,8.3634 -4.1975 12.5451c 0.9711,0.3249 1.9422,0.6498 2.9133 0.9748c -2.0023,5.9843 -4.0046,11.9687 -6.0070 17.9530c -0.9711,-0.3249 -1.9422,-0.6498 -2.9133 -0.9747c -1.3992,4.1817 -2.7984,8.3634 -4.1975 12.5451ZM 324.6759,930.8673 c 0.9711,0.3249 1.9422,0.6498 2.9133 0.9747c -0.3919,1.1714 -0.7839,2.3428 -1.1758 3.5141c 16.6905,5.5846 33.3810,11.1692 50.0715 16.7537c 0.3919,-1.1714 0.7839,-2.3427 1.1758 -3.5141c 0.9711,0.3249 1.9422,0.6498 2.9133 0.9747c 1.3992,-4.1817 2.7984,-8.3634 4.1975 -12.5451c -0.9711,-0.3249 -1.9422,-0.6498 -2.9133 -0.9748c 2.0023,-5.9843 4.0046,-11.9686 6.0070 -17.9530c 0.9711,0.3249 1.9422,0.6498 2.9133 0.9747c 1.3992,-4.1817 2.7984,-8.3634 4.1975 -12.5451c -0.9711,-0.3249 -1.9422,-0.6498 -2.9133 -0.9747c 0.3919,-1.1714 0.7839,-2.3427 1.1758 -3.5141c -16.6905,-5.5846 -33.3810,-11.1691 -50.0715 -16.7537c -0.3919,1.1714 -0.7839,2.3428 -1.1758 3.5141c -0.9711,-0.3249 -1.9422,-0.6498 -2.9133 -0.9747c -1.3992,4.1817 -2.7984,8.3634 -4.1975 12.5451c 0.9711,0.3249 1.9422,0.6498 2.9133 0.9747c -2.0023,5.9843 -4.0047,11.9687 -6.0070 17.9530c -0.9711,-0.3249 -1.9422,-0.6498 -2.9133 -0.9748c -1.3992,4.1817 -2.7984,8.3634 -4.1975 12.5451ZM 330.9300,685.8600 c 0.9711,0.3249 1.9422,0.6498 2.9133 0.9748c -0.3920,1.1714 -0.7839,2.3427 -1.1758 3.5141c 16.6905,5.5846 33.3810,11.1691 50.0715 16.7537c 0.3919,-1.1714 0.7839,-2.3428 1.1758 -3.5142c 0.9711,0.3249 1.9422,0.6499 2.9133 0.9748c 1.3992,-4.1817 2.7984,-8.3634 4.1975 -12.5451c -0.9711,-0.3249 -1.9422,-0.6498 -2.9133 -0.9747c 2.0023,-5.9843 4.0046,-11.9687 6.0070 -17.9530c 0.9711,0.3249 1.9422,0.6498 2.9133 0.9748c 1.3992,-4.1817 2.7984,-8.3634 4.1975 -12.5451c -0.9711,-0.3249 -1.9422,-0.6498 -2.9133 -0.9748c 0.3919,-1.1714 0.7839,-2.3427 1.1758 -3.5141c -16.6905,-5.5845 -33.3810,-11.1691 -50.0715 -16.7537c -0.3919,1.1714 -0.7839,2.3427 -1.1758 3.5141c -0.9711,-0.3249 -1.9422,-0.6498 -2.9133 -0.9748c -1.3992,4.1817 -2.7984,8.3634 -4.1975 12.5451c 0.9711,0.3249 1.9422,0.6498 2.9133 0.9748c -2.0023,5.9843 -4.0046,11.9686 -6.0070 17.9530c -0.9711,-0.3249 -1.9422,-0.6498 -2.9133 -0.9747c -1.3991,4.1817 -2.7983,8.3634 -4.1975 12.5451ZM 347.4618,862.7673 c 0.9711,0.3249 1.9422,0.6498 2.9133 0.9747c -0.3919,1.1714 -0.7839,2.3427 -1.1758 3.5141c 16.6905,5.5846 33.3810,11.1691 50.0715 16.7537c 0.3919,-1.1714 0.7839,-2.3428 1.1758 -3.5141c 0.9711,0.3249 1.9422,0.6498 2.9133 0.9747c 1.3992,-4.1817 2.7984,-8.3634 4.1975 -12.5451c -0.9711,-0.3249 -1.9422,-0.6498 -2.9133 -0.9747c 2.0024,-5.9843 4.0047,-11.9687 6.0070 -17.9530c 0.9711,0.3249 1.9422,0.6499 2.9133 0.9748c 1.3992,-4.1817 2.7984,-8.3634 4.1975 -12.5451c -0.9711,-0.3249 -1.9422,-0.6498 -2.9133 -0.9747c 0.3919,-1.1714 0.7839,-2.3428 1.1758 -3.5141c -16.6905,-5.5846 -33.3810,-11.1691 -50.0715 -16.7537c -0.3919,1.1714 -0.7839,2.3427 -1.1758 3.5141c -0.9711,-0.3249 -1.9422,-0.6498 -2.9133 -0.9747c -1.3992,4.1817 -2.7983,8.3634 -4.1975 12.5451c 0.9711,0.3249 1.9422,0.6498 2.9132 0.9748c -2.0023,5.9843 -4.0046,11.9686 -6.0070 17.9530c -0.9711,-0.3249 -1.9422,-0.6498 -2.9133 -0.9747c -1.3992,4.1817 -2.7984,8.3634 -4.1975 12.5451ZM 370.2478,794.6671 c 0.9711,0.3249 1.9422,0.6498 2.9133 0.9748c -0.3919,1.1714 -0.7839,2.3427 -1.1758 3.5141c 16.6905,5.5846 33.3810,11.1691 50.0715 16.7537c 0.3920,-1.1714 0.7839,-2.3428 1.1758 -3.5142c 0.9711,0.3249 1.9422,0.6499 2.9133 0.9748c 1.3992,-4.1817 2.7984,-8.3634 4.1975 -12.5451c -0.9711,-0.3249 -1.9422,-0.6498 -2.9133 -0.9747c 2.0023,-5.9843 4.0046,-11.9687 6.0070 -17.9530c 0.9711,0.3249 1.9422,0.6498 2.9133 0.9748c 1.3992,-4.1817 2.7984,-8.3634 4.1975 -12.5451c -0.9711,-0.3249 -1.9422,-0.6498 -2.9133 -0.9748c 0.3920,-1.1714 0.7839,-2.3427 1.1758 -3.5141c -16.6905,-5.5845 -33.3810,-11.1691 -50.0715 -16.7537c -0.3919,1.1714 -0.7839,2.3427 -1.1758 3.5141c -0.9711,-0.3249 -1.9422,-0.6498 -2.9133 -0.9748c -1.3992,4.1817 -2.7984,8.3634 -4.1975 12.5451c 0.9711,0.3249 1.9422,0.6498 2.9133 0.9748c -2.0023,5.9843 -4.0046,11.9686 -6.0070 17.9530c -0.9711,-0.3249 -1.9422,-0.6498 -2.9133 -0.9747c -1.3992,4.1817 -2.7984,8.3634 -4.1975 12.5451ZM 381.3830,987.7034 c 0.9711,0.3249 1.9422,0.6498 2.9133 0.9747c -0.3919,1.1714 -0.7839,2.3428 -1.1758 3.5141c 16.6905,5.5846 33.3810,11.1691 50.0715 16.7537c 0.3919,-1.1714 0.7839,-2.3428 1.1758 -3.5141c 0.9711,0.3249 1.9422,0.6498 2.9133 0.9747c 1.3991,-4.1817 2.7984,-8.3634 4.1975 -12.5451c -0.9711,-0.3249 -1.9422,-0.6498 -2.9133 -0.9748c 2.0023,-5.9843 4.0046,-11.9687 6.0070 -17.9530c 0.9711,0.3249 1.9422,0.6498 2.9133 0.9747c 1.3992,-4.1817 2.7984,-8.3634 4.1975 -12.5451c -0.9711,-0.3249 -1.9422,-0.6498 -2.9133 -0.9747c 0.3919,-1.1714 0.7839,-2.3428 1.1758 -3.5141c -16.6905,-5.5846 -33.3810,-11.1691 -50.0715 -16.7537c -0.3919,1.1714 -0.7839,2.3427 -1.1758 3.5141c -0.9711,-0.3249 -1.9422,-0.6498 -2.9133 -0.9747c -1.3992,4.1817 -2.7984,8.3634 -4.1975 12.5451c 0.9711,0.3249 1.9422,0.6498 2.9133 0.9748c -2.0023,5.9843 -4.0047,11.9687 -6.0070 17.9530c -0.9711,-0.3249 -1.9422,-0.6498 -2.9133 -0.9747c -1.3992,4.1817 -2.7984,8.3634 -4.1975 12.5451ZM 393.0338,726.5670 c 0.9711,0.3249 1.9422,0.6498 2.9133 0.9748c -0.3920,1.1714 -0.7839,2.3427 -1.1758 3.5141c 16.6905,5.5845 33.3810,11.1691 50.0715 16.7537c 0.3919,-1.1714 0.7839,-2.3427 1.1758 -3.5141c 0.9711,0.3249 1.9422,0.6498 2.9133 0.9748c 1.3992,-4.1817 2.7984,-8.3634 4.1975 -12.5451c -0.9711,-0.3249 -1.9422,-0.6498 -2.9133 -0.9747c 2.0023,-5.9843 4.0046,-11.9687 6.0070 -17.9530c 0.9711,0.3249 1.9422,0.6498 2.9133 0.9747c 1.3992,-4.1817 2.7984,-8.3634 4.1975 -12.5451c -0.9711,-0.3249 -1.9422,-0.6498 -2.9133 -0.9748c 0.3919,-1.1714 0.7839,-2.3427 1.1758 -3.5141c -16.6905,-5.5845 -33.3810,-11.1691 -50.0715 -16.7537c -0.3920,1.1714 -0.7839,2.3428 -1.1758 3.5142c -0.9711,-0.3249 -1.9422,-0.6498 -2.9133 -0.9748c -1.3992,4.1817 -2.7984,8.3634 -4.1975 12.5451c 0.9711,0.3249 1.9422,0.6498 2.9133 0.9747c -2.0023,5.9843 -4.0046,11.9687 -6.0070 17.9530c -0.9711,-0.3249 -1.9422,-0.6498 -2.9133 -0.9748c -1.3992,4.1817 -2.7984,8.3634 -4.1975 12.5451ZM 404.1689,919.6032 c 0.9711,0.3249 1.9422,0.6498 2.9133 0.9748c -0.3919,1.1714 -0.7839,2.3427 -1.1758 3.5141c 16.6905,5.5846 33.3810,11.1691 50.0715 16.7537c 0.3919,-1.1714 0.7839,-2.3428 1.1758 -3.5141c 0.9711,0.3249 1.9422,0.6498 2.9133 0.9747c 1.3992,-4.1817 2.7984,-8.3634 4.1975 -12.5451c -0.9711,-0.3249 -1.9422,-0.6498 -2.9133 -0.9747c 2.0023,-5.9843 4.0046,-11.9687 6.0070 -17.9530c 0.9711,0.3249 1.9422,0.6498 2.9133 0.9748c 1.3991,-4.1817 2.7984,-8.3634 4.1975 -12.5451c -0.9711,-0.3249 -1.9422,-0.6498 -2.9133 -0.9747c 0.3919,-1.1714 0.7839,-2.3428 1.1758 -3.5142c -16.6905,-5.5845 -33.3810,-11.1691 -50.0715 -16.7537c -0.3919,1.1714 -0.7839,2.3427 -1.1758 3.5141c -0.9711,-0.3249 -1.9422,-0.6498 -2.9133 -0.9748c -1.3992,4.1817 -2.7984,8.3634 -4.1975 12.5451c 0.9711,0.3249 1.9422,0.6498 2.9133 0.9748c -2.0023,5.9843 -4.0046,11.9686 -6.0070 17.9530c -0.9711,-0.3249 -1.9422,-0.6498 -2.9133 -0.9747c -1.3992,4.1817 -2.7984,8.3634 -4.1975 12.5451ZM 410.8637,1033.4294 c 0.0000,3.1310 2.5382,5.6693 5.6693 5.6693c 3.1310,-0.0000 5.6693,-2.5382 5.6693 -5.6693c 0.0000,-3.1311 -2.5382,-5.6693 -5.6693 -5.6693c -3.1311,-0.0000 -5.6693,2.5382 -5.6693 5.6693ZM 416.3973,558.3840 c 0.0000,3.1311 2.5382,5.6693 5.6693 5.6693c 3.1310,-0.0000 5.6693,-2.5382 5.6693 -5.6693c 0.0000,-3.1310 -2.5382,-5.6693 -5.6693 -5.6693c -3.1311,-0.0000 -5.6693,2.5382 -5.6693 5.6693ZM 596.4359,895.2633 c 1.3992,4.1817 2.7984,8.3634 4.1975 12.5451c 0.9711,-0.3249 1.9422,-0.6498 2.9133 -0.9748c 2.0024,5.9843 4.0047,11.9687 6.0070 17.9530c -0.9711,0.3249 -1.9422,0.6498 -2.9133 0.9747c 1.3992,4.1817 2.7984,8.3634 4.1975 12.5451c 0.9711,-0.3249 1.9422,-0.6498 2.9133 -0.9747c 0.3919,1.1714 0.7839,2.3427 1.1758 3.5141c 16.6905,-5.5846 33.3810,-11.1691 50.0715 -16.7537c -0.3920,-1.1714 -0.7839,-2.3427 -1.1758 -3.5141c 0.9711,-0.3249 1.9422,-0.6498 2.9133 -0.9748c -1.3992,-4.1817 -2.7984,-8.3634 -4.1975 -12.5451c -0.9711,0.3249 -1.9422,0.6498 -2.9133 0.9747c -2.0023,-5.9843 -4.0046,-11.9686 -6.0070 -17.9530c 0.9711,-0.3249 1.9422,-0.6498 2.9133 -0.9748c -1.3992,-4.1817 -2.7984,-8.3634 -4.1975 -12.5451c -0.9711,0.3249 -1.9422,0.6498 -2.9133 0.9748c -0.3920,-1.1714 -0.7839,-2.3428 -1.1758 -3.5141c -16.6905,5.5845 -33.3810,11.1691 -50.0715 16.7537c 0.3919,1.1714 0.7839,2.3428 1.1758 3.5142c -0.9711,0.3249 -1.9422,0.6498 -2.9133 0.9747ZM 607.5711,702.2271 c 1.3992,4.1817 2.7984,8.3634 4.1975 12.5451c 0.9711,-0.3249 1.9422,-0.6498 2.9133 -0.9747c 2.0023,5.9843 4.0046,11.9687 6.0070 17.9530c -0.9711,0.3249 -1.9422,0.6498 -2.9133 0.9747c 1.3992,4.1817 2.7984,8.3634 4.1975 12.5451c 0.9711,-0.3249 1.9422,-0.6498 2.9133 -0.9748c 0.3919,1.1714 0.7839,2.3428 1.1758 3.5141c 16.6905,-5.5845 33.3810,-11.1691 50.0715 -16.7537c -0.3919,-1.1714 -0.7839,-2.3428 -1.1758 -3.5141c 0.9711,-0.3249 1.9422,-0.6498 2.9133 -0.9748c -1.3992,-4.1817 -2.7984,-8.3634 -4.1975 -12.5451c -0.9711,0.3249 -1.9422,0.6498 -2.9133 0.9748c -2.0023,-5.9843 -4.0046,-11.9687 -6.0070 -17.9530c 0.9711,-0.3249 1.9422,-0.6498 2.9133 -0.9747c -1.3992,-4.1817 -2.7984,-8.3634 -4.1975 -12.5451c -0.9711,0.3249 -1.9422,0.6498 -2.9133 0.9748c -0.3919,-1.1714 -0.7839,-2.3428 -1.1758 -3.5142c -16.6905,5.5846 -33.3810,11.1692 -50.0715 16.7537c 0.3919,1.1714 0.7839,2.3427 1.1758 3.5141c -0.9711,0.3249 -1.9422,0.6498 -2.9133 0.9748ZM 619.2219,963.3633 c 1.3992,4.1817 2.7984,8.3634 4.1975 12.5451c 0.9711,-0.3249 1.9422,-0.6498 2.9133 -0.9747c 2.0023,5.9843 4.0046,11.9686 6.0070 17.9530c -0.9711,0.3249 -1.9422,0.6498 -2.9133 0.9748c 1.3992,4.1817 2.7984,8.3634 4.1975 12.5451c 0.9711,-0.3249 1.9422,-0.6498 2.9133 -0.9747c 0.3920,1.1714 0.7839,2.3427 1.1758 3.5141c 16.6905,-5.5846 33.3810,-11.1691 50.0715 -16.7537c -0.3919,-1.1714 -0.7839,-2.3427 -1.1758 -3.5141c 0.9711,-0.3249 1.9422,-0.6498 2.9133 -0.9747c -1.3992,-4.1817 -2.7984,-8.3634 -4.1975 -12.5451c -0.9711,0.3249 -1.9422,0.6498 -2.9133 0.9747c -2.0023,-5.9843 -4.0047,-11.9686 -6.0070 -17.9530c 0.9711,-0.3249 1.9422,-0.6498 2.9133 -0.9748c -1.3992,-4.1817 -2.7984,-8.3634 -4.1975 -12.5451c -0.9711,0.3249 -1.9422,0.6498 -2.9133 0.9747c -0.3919,-1.1714 -0.7839,-2.3427 -1.1758 -3.5141c -16.6905,5.5846 -33.3810,11.1691 -50.0715 16.7537c 0.3919,1.1714 0.7839,2.3427 1.1758 3.5141c -0.9711,0.3249 -1.9422,0.6498 -2.9133 0.9747ZM 630.3571,770.3272 c 1.3992,4.1817 2.7984,8.3634 4.1975 12.5451c 0.9711,-0.3249 1.9422,-0.6498 2.9133 -0.9748c 2.0023,5.9843 4.0046,11.9687 6.0070 17.9530c -0.9711,0.3249 -1.9422,0.6498 -2.9133 0.9747c 1.3992,4.1817 2.7984,8.3634 4.1975 12.5451c 0.9711,-0.3249 1.9422,-0.6498 2.9133 -0.9748c 0.3919,1.1714 0.7839,2.3428 1.1758 3.5142c 16.6905,-5.5846 33.3810,-11.1691 50.0715 -16.7537c -0.3919,-1.1714 -0.7839,-2.3427 -1.1758 -3.5141c 0.9711,-0.3249 1.9422,-0.6498 2.9133 -0.9748c -1.3992,-4.1817 -2.7984,-8.3634 -4.1975 -12.5451c -0.9711,0.3249 -1.9422,0.6498 -2.9133 0.9747c -2.0023,-5.9843 -4.0046,-11.9687 -6.0070 -17.9530c 0.9711,-0.3249 1.9422,-0.6498 2.9133 -0.9748c -1.3992,-4.1817 -2.7984,-8.3634 -4.1975 -12.5451c -0.9711,0.3249 -1.9422,0.6498 -2.9133 0.9748c -0.3919,-1.1714 -0.7839,-2.3428 -1.1758 -3.5141c -16.6905,5.5845 -33.3810,11.1691 -50.0715 16.7537c 0.3919,1.1714 0.7839,2.3428 1.1758 3.5141c -0.9711,0.3249 -1.9422,0.6499 -2.9133 0.9748ZM 643.1690,558.3840 c 0.0000,3.1311 2.5382,5.6693 5.6693 5.6693c 3.1311,-0.0000 5.6693,-2.5382 5.6693 -5.6693c 0.0000,-3.1310 -2.5382,-5.6693 -5.6693 -5.6693c -3.1310,-0.0000 -5.6693,2.5382 -5.6693 5.6693ZM 648.7026,1033.4294 c 0.0000,3.1310 2.5382,5.6693 5.6693 5.6693c 3.1311,-0.0000 5.6693,-2.5382 5.6693 -5.6693c 0.0000,-3.1311 -2.5382,-5.6693 -5.6693 -5.6693c -3.1310,-0.0000 -5.6693,2.5382 -5.6693 5.6693ZM 653.1430,838.4272 c 1.3992,4.1817 2.7984,8.3634 4.1975 12.5451c 0.9711,-0.3249 1.9422,-0.6498 2.9133 -0.9748c 2.0023,5.9843 4.0046,11.9687 6.0070 17.9530c -0.9711,0.3249 -1.9422,0.6498 -2.9133 0.9747c 1.3992,4.1817 2.7984,8.3634 4.1975 12.5451c 0.9711,-0.3249 1.9422,-0.6498 2.9133 -0.9747c 0.3919,1.1714 0.7839,2.3427 1.1758 3.5141c 16.6905,-5.5846 33.3810,-11.1691 50.0715 -16.7537c -0.3920,-1.1714 -0.7839,-2.3427 -1.1758 -3.5141c 0.9711,-0.3249 1.9422,-0.6498 2.9133 -0.9747c -1.3992,-4.1817 -2.7984,-8.3634 -4.1975 -12.5451c -0.9711,0.3249 -1.9422,0.6498 -2.9133 0.9747c -2.0023,-5.9843 -4.0046,-11.9686 -6.0070 -17.9530c 0.9711,-0.3249 1.9422,-0.6498 2.9132 -0.9748c -1.3992,-4.1817 -2.7983,-8.3634 -4.1975 -12.5451c -0.9711,0.3249 -1.9422,0.6498 -2.9133 0.9747c -0.3920,-1.1714 -0.7839,-2.3427 -1.1758 -3.5141c -16.6905,5.5846 -33.3810,11.1691 -50.0715 16.7537c 0.3919,1.1714 0.7839,2.3427 1.1758 3.5141c -0.9711,0.3249 -1.9422,0.6498 -2.9133 0.9747ZM 669.6748,661.5200 c 1.3992,4.1817 2.7984,8.3634 4.1975 12.5451c 0.9711,-0.3249 1.9422,-0.6498 2.9133 -0.9748c 2.0023,5.9843 4.0046,11.9687 6.0070 17.9530c -0.9711,0.3249 -1.9422,0.6498 -2.9133 0.9747c 1.3992,4.1817 2.7984,8.3634 4.1975 12.5451c 0.9711,-0.3249 1.9422,-0.6498 2.9133 -0.9748c 0.3919,1.1714 0.7839,2.3428 1.1758 3.5142c 16.6905,-5.5846 33.3810,-11.1691 50.0715 -16.7537c -0.3919,-1.1714 -0.7839,-2.3427 -1.1758 -3.5141c 0.9711,-0.3249 1.9422,-0.6498 2.9133 -0.9748c -1.3992,-4.1817 -2.7984,-8.3634 -4.1975 -12.5451c -0.9711,0.3249 -1.9422,0.6498 -2.9133 0.9747c -2.0023,-5.9843 -4.0046,-11.9687 -6.0070 -17.9530c 0.9711,-0.3249 1.9422,-0.6498 2.9133 -0.9748c -1.3992,-4.1817 -2.7984,-8.3634 -4.1975 -12.5451c -0.9711,0.3249 -1.9422,0.6498 -2.9133 0.9748c -0.3919,-1.1714 -0.7839,-2.3428 -1.1758 -3.5141c -16.6905,5.5845 -33.3810,11.1691 -50.0715 16.7537c 0.3919,1.1714 0.7839,2.3428 1.1758 3.5141c -0.9711,0.3249 -1.9422,0.6499 -2.9133 0.9748ZM 675.9290,906.5273 c 1.3992,4.1817 2.7984,8.3634 4.1975 12.5451c 0.9711,-0.3249 1.9422,-0.6498 2.9133 -0.9747c 2.0023,5.9843 4.0046,11.9686 6.0070 17.9530c -0.9711,0.3249 -1.9422,0.6498 -2.9133 0.9748c 1.3992,4.1817 2.7984,8.3634 4.1975 12.5451c 0.9711,-0.3249 1.9422,-0.6498 2.9133 -0.9747c 0.3920,1.1714 0.7839,2.3427 1.1758 3.5141c 16.6905,-5.5845 33.3810,-11.1691 50.0715 -16.7537c -0.3919,-1.1714 -0.7839,-2.3427 -1.1758 -3.5141c 0.9711,-0.3249 1.9422,-0.6498 2.9133 -0.9747c -1.3992,-4.1817 -2.7984,-8.3634 -4.1975 -12.5451c -0.9711,0.3249 -1.9422,0.6498 -2.9133 0.9748c -2.0023,-5.9843 -4.0047,-11.9687 -6.0070 -17.9530c 0.9711,-0.3249 1.9422,-0.6498 2.9133 -0.9747c -1.3992,-4.1817 -2.7984,-8.3634 -4.1975 -12.5451c -0.9711,0.3249 -1.9422,0.6498 -2.9133 0.9747c -0.3919,-1.1714 -0.7839,-2.3427 -1.1758 -3.5141c -16.6905,5.5846 -33.3810,11.1691 -50.0715 16.7537c 0.3920,1.1714 0.7839,2.3427 1.1758 3.5141c -0.9711,0.3249 -1.9422,0.6498 -2.9133 0.9747ZM 692.4608,729.6201 c 1.3992,4.1817 2.7984,8.3634 4.1975 12.5451c 0.9711,-0.3249 1.9422,-0.6498 2.9133 -0.9747c 2.0023,5.9843 4.0046,11.9686 6.0070 17.9530c -0.9711,0.3249 -1.9422,0.6498 -2.9133 0.9748c 1.3992,4.1817 2.7984,8.3634 4.1975 12.5451c 0.9711,-0.3249 1.9422,-0.6498 2.9133 -0.9747c 0.3919,1.1714 0.7839,2.3427 1.1758 3.5141c 16.6905,-5.5846 33.3810,-11.1691 50.0715 -16.7537c -0.3919,-1.1714 -0.7839,-2.3427 -1.1758 -3.5141c 0.9711,-0.3249 1.9422,-0.6498 2.9133 -0.9747c -1.3992,-4.1817 -2.7984,-8.3634 -4.1975 -12.5451c -0.9711,0.3249 -1.9422,0.6498 -2.9133 0.9747c -2.0023,-5.9843 -4.0046,-11.9686 -6.0070 -17.9530c 0.9711,-0.3249 1.9422,-0.6498 2.9133 -0.9748c -1.3992,-4.1817 -2.7984,-8.3634 -4.1975 -12.5451c -0.9711,0.3249 -1.9422,0.6498 -2.9133 0.9747c -0.3919,-1.1714 -0.7839,-2.3427 -1.1758 -3.5141c -16.6905,5.5845 -33.3810,11.1691 -50.0715 16.7537c 0.3919,1.1714 0.7839,2.3427 1.1758 3.5141c -0.9711,0.3249 -1.9422,0.6498 -2.9133 0.9747ZM 715.2468,797.7202 c 1.3992,4.1817 2.7984,8.3634 4.1975 12.5451c 0.9711,-0.3249 1.9422,-0.6498 2.9133 -0.9747c 2.0023,5.9843 4.0047,11.9686 6.0070 17.9530c -0.9711,0.3249 -1.9422,0.6498 -2.9133 0.9748c 1.3992,4.1817 2.7984,8.3634 4.1975 12.5451c 0.9711,-0.3249 1.9422,-0.6499 2.9133 -0.9748c 0.3919,1.1714 0.7839,2.3427 1.1758 3.5141c 16.6905,-5.5845 33.3810,-11.1691 50.0715 -16.7537c -0.3920,-1.1714 -0.7839,-2.3427 -1.1758 -3.5141c 0.9711,-0.3249 1.9422,-0.6498 2.9133 -0.9747c -1.3992,-4.1817 -2.7984,-8.3634 -4.1975 -12.5451c -0.9711,0.3249 -1.9422,0.6498 -2.9133 0.9748c -2.0023,-5.9843 -4.0046,-11.9687 -6.0070 -17.9530c 0.9711,-0.3249 1.9422,-0.6498 2.9133 -0.9747c -1.3992,-4.1817 -2.7984,-8.3634 -4.1975 -12.5451c -0.9711,0.3249 -1.9422,0.6498 -2.9133 0.9747c -0.3920,-1.1714 -0.7839,-2.3427 -1.1758 -3.5141c -16.6905,5.5846 -33.3810,11.1691 -50.0715 16.7537c 0.3919,1.1714 0.7839,2.3427 1.1758 3.5141c -0.9711,0.3249 -1.9422,0.6498 -2.9133 0.9748ZM 730.5794,617.2287 c 1.3992,4.1817 2.7984,8.3634 4.1975 12.5451c 0.9711,-0.3249 1.9422,-0.6498 2.9133 -0.9747c 2.0023,5.9843 4.0046,11.9686 6.0070 17.9530c -0.9711,0.3249 -1.9422,0.6498 -2.9133 0.9748c 1.3992,4.1817 2.7984,8.3634 4.1975 12.5451c 0.9711,-0.3249 1.9422,-0.6499 2.9133 -0.9748c 0.3919,1.1714 0.7839,2.3427 1.1758 3.5141c 16.6905,-5.5845 33.3810,-11.1691 50.0715 -16.7537c -0.3919,-1.1714 -0.7839,-2.3427 -1.1758 -3.5141c 0.9711,-0.3249 1.9422,-0.6498 2.9133 -0.9747c -1.3992,-4.1817 -2.7984,-8.3634 -4.1975 -12.5451c -0.9711,0.3249 -1.9422,0.6498 -2.9133 0.9748c -2.0023,-5.9843 -4.0046,-11.9687 -6.0070 -17.9530c 0.9711,-0.3249 1.9422,-0.6498 2.9133 -0.9747c -1.3992,-4.1817 -2.7984,-8.3634 -4.1975 -12.5451c -0.9711,0.3249 -1.9422,0.6498 -2.9133 0.9747c -0.3919,-1.1714 -0.7839,-2.3427 -1.1758 -3.5141c -16.6905,5.5846 -33.3810,11.1691 -50.0715 16.7537c 0.3920,1.1714 0.7839,2.3427 1.1758 3.5141c -0.9711,0.3249 -1.9422,0.6498 -2.9133 0.9747ZM 738.0328,865.8203 c 1.3992,4.1817 2.7984,8.3634 4.1975 12.5451c 0.9711,-0.3249 1.9422,-0.6498 2.9133 -0.9747c 2.0023,5.9843 4.0046,11.9687 6.0070 17.9530c -0.9711,0.3249 -1.9422,0.6499 -2.9133 0.9748c 1.3992,4.1817 2.7984,8.3634 4.1975 12.5451c 0.9711,-0.3249 1.9422,-0.6498 2.9133 -0.9748c 0.3920,1.1714 0.7839,2.3428 1.1758 3.5141c 16.6905,-5.5845 33.3810,-11.1691 50.0715 -16.7537c -0.3919,-1.1714 -0.7839,-2.3428 -1.1758 -3.5141c 0.9711,-0.3249 1.9422,-0.6498 2.9133 -0.9748c -1.3992,-4.1817 -2.7984,-8.3634 -4.1975 -12.5451c -0.9711,0.3249 -1.9422,0.6498 -2.9133 0.9748c -2.0023,-5.9843 -4.0047,-11.9687 -6.0070 -17.9530c 0.9711,-0.3249 1.9422,-0.6498 2.9133 -0.9747c -1.3992,-4.1817 -2.7984,-8.3634 -4.1975 -12.5451c -0.9711,0.3249 -1.9422,0.6498 -2.9133 0.9748c -0.3919,-1.1714 -0.7839,-2.3428 -1.1758 -3.5142c -16.6905,5.5846 -33.3810,11.1691 -50.0715 16.7537c 0.3920,1.1714 0.7839,2.3428 1.1758 3.5141c -0.9711,0.3249 -1.9422,0.6498 -2.9133 0.9748ZM 753.3654,685.3289 c 1.3992,4.1817 2.7984,8.3634 4.1975 12.5451c 0.9711,-0.3249 1.9422,-0.6498 2.9133 -0.9747c 2.0023,5.9843 4.0046,11.9687 6.0070 17.9530c -0.9711,0.3249 -1.9422,0.6498 -2.9133 0.9748c 1.3992,4.1817 2.7984,8.3634 4.1975 12.5451c 0.9711,-0.3249 1.9422,-0.6498 2.9133 -0.9748c 0.3919,1.1714 0.7839,2.3428 1.1758 3.5141c 16.6905,-5.5845 33.3810,-11.1691 50.0715 -16.7537c -0.3919,-1.1714 -0.7839,-2.3428 -1.1758 -3.5141c 0.9711,-0.3249 1.9422,-0.6498 2.9133 -0.9748c -1.3992,-4.1817 -2.7984,-8.3634 -4.1975 -12.5451c -0.9711,0.3249 -1.9422,0.6498 -2.9133 0.9748c -2.0023,-5.9843 -4.0046,-11.9687 -6.0070 -17.9530c 0.9711,-0.3249 1.9422,-0.6498 2.9133 -0.9747c -1.3992,-4.1817 -2.7984,-8.3634 -4.1975 -12.5451c -0.9711,0.3249 -1.9422,0.6498 -2.9133 0.9748c -0.3919,-1.1714 -0.7839,-2.3428 -1.1758 -3.5142c -16.6905,5.5846 -33.3810,11.1692 -50.0715 16.7537c 0.3919,1.1714 0.7839,2.3427 1.1758 3.5141c -0.9711,0.3249 -1.9422,0.6498 -2.9133 0.9748ZM 776.1513,753.4289 c 1.3992,4.1817 2.7984,8.3634 4.1975 12.5451c 0.9711,-0.3249 1.9422,-0.6498 2.9133 -0.9748c 2.0023,5.9843 4.0047,11.9687 6.0070 17.9530c -0.9711,0.3249 -1.9422,0.6498 -2.9133 0.9747c 1.3992,4.1817 2.7984,8.3634 4.1975 12.5451c 0.9711,-0.3249 1.9422,-0.6498 2.9133 -0.9747c 0.3919,1.1714 0.7839,2.3427 1.1758 3.5141c 16.6905,-5.5846 33.3810,-11.1691 50.0715 -16.7537c -0.3920,-1.1714 -0.7839,-2.3428 -1.1758 -3.5141c 0.9711,-0.3249 1.9422,-0.6498 2.9133 -0.9748c -1.3992,-4.1817 -2.7984,-8.3634 -4.1975 -12.5451c -0.9711,0.3249 -1.9422,0.6498 -2.9133 0.9747c -2.0023,-5.9843 -4.0046,-11.9687 -6.0070 -17.9530c 0.9711,-0.3249 1.9422,-0.6499 2.9133 -0.9748c -1.3992,-4.1817 -2.7984,-8.3634 -4.1975 -12.5451c -0.9711,0.3249 -1.9422,0.6498 -2.9133 0.9748c -0.3920,-1.1714 -0.7839,-2.3428 -1.1758 -3.5141c -16.6905,5.5845 -33.3810,11.1691 -50.0715 16.7537c 0.3919,1.1714 0.7839,2.3428 1.1758 3.5141c -0.9711,0.3249 -1.9422,0.6498 -2.9133 0.9748ZM 798.9373,821.5290 c 1.3992,4.1817 2.7984,8.3634 4.1975 12.5451c 0.9711,-0.3249 1.9422,-0.6498 2.9133 -0.9748c 2.0023,5.9843 4.0046,11.9687 6.0070 17.9530c -0.9711,0.3249 -1.9422,0.6498 -2.9133 0.9747c 1.3992,4.1817 2.7984,8.3634 4.1975 12.5451c 0.9711,-0.3249 1.9422,-0.6498 2.9133 -0.9747c 0.3920,1.1714 0.7839,2.3427 1.1758 3.5141c 16.6905,-5.5846 33.3810,-11.1691 50.0715 -16.7537c -0.3919,-1.1714 -0.7839,-2.3427 -1.1758 -3.5141c 0.9711,-0.3249 1.9422,-0.6498 2.9133 -0.9748c -1.3992,-4.1817 -2.7984,-8.3634 -4.1975 -12.5451c -0.9711,0.3249 -1.9422,0.6498 -2.9133 0.9747c -2.0023,-5.9843 -4.0047,-11.9686 -6.0070 -17.9530c 0.9711,-0.3249 1.9422,-0.6498 2.9133 -0.9748c -1.3992,-4.1817 -2.7984,-8.3634 -4.1975 -12.5451c -0.9711,0.3249 -1.9422,0.6499 -2.9133 0.9748c -0.3919,-1.1714 -0.7839,-2.3427 -1.1758 -3.5141c -16.6905,5.5846 -33.3810,11.1691 -50.0715 16.7537c 0.3920,1.1714 0.7839,2.3427 1.1758 3.5141c -0.9711,0.3249 -1.9422,0.6498 -2.9133 0.9747ZM 804.6758,612.3639 c 1.3992,4.1817 2.7984,8.3634 4.1975 12.5451c 0.9711,-0.3249 1.9422,-0.6498 2.9133 -0.9747c 2.0023,5.9843 4.0047,11.9687 6.0070 17.9530c -0.9711,0.3249 -1.9422,0.6498 -2.9133 0.9747c 1.3992,4.1817 2.7984,8.3634 4.1975 12.5451c 0.9711,-0.3249 1.9422,-0.6498 2.9133 -0.9748c 0.3919,1.1714 0.7839,2.3428 1.1758 3.5141c 16.6905,-5.5845 33.3810,-11.1691 50.0715 -16.7537c -0.3920,-1.1714 -0.7839,-2.3428 -1.1758 -3.5141c 0.9711,-0.3249 1.9422,-0.6498 2.9133 -0.9748c -1.3992,-4.1817 -2.7984,-8.3634 -4.1975 -12.5451c -0.9711,0.3249 -1.9422,0.6498 -2.9133 0.9748c -2.0023,-5.9843 -4.0046,-11.9687 -6.0070 -17.9530c 0.9711,-0.3249 1.9422,-0.6498 2.9133 -0.9747c -1.3992,-4.1817 -2.7984,-8.3634 -4.1975 -12.5451c -0.9711,0.3249 -1.9422,0.6498 -2.9133 0.9748c -0.3920,-1.1714 -0.7839,-2.3428 -1.1758 -3.5142c -16.6905,5.5846 -33.3810,11.1692 -50.0715 16.7537c 0.3919,1.1714 0.7839,2.3427 1.1758 3.5141c -0.9711,0.3249 -1.9422,0.6498 -2.9133 0.9748ZM 827.4617,680.4639 c 1.3992,4.1817 2.7984,8.3634 4.1975 12.5451c 0.9711,-0.3249 1.9422,-0.6498 2.9133 -0.9748c 2.0023,5.9843 4.0046,11.9687 6.0070 17.9530c -0.9711,0.3249 -1.9422,0.6498 -2.9133 0.9747c 1.3992,4.1817 2.7984,8.3634 4.1975 12.5451c 0.9711,-0.3249 1.9422,-0.6498 2.9133 -0.9747c 0.3920,1.1714 0.7839,2.3427 1.1758 3.5141c 16.6905,-5.5846 33.3810,-11.1691 50.0715 -16.7537c -0.3919,-1.1714 -0.7839,-2.3427 -1.1758 -3.5141c 0.9711,-0.3249 1.9422,-0.6498 2.9133 -0.9748c -1.3992,-4.1817 -2.7984,-8.3634 -4.1975 -12.5451c -0.9711,0.3249 -1.9422,0.6498 -2.9133 0.9747c -2.0023,-5.9843 -4.0047,-11.9687 -6.0070 -17.9530c 0.9711,-0.3249 1.9422,-0.6498 2.9133 -0.9748c -1.3992,-4.1817 -2.7984,-8.3634 -4.1975 -12.5451c -0.9711,0.3249 -1.9422,0.6498 -2.9133 0.9748c -0.3919,-1.1714 -0.7839,-2.3428 -1.1758 -3.5141c -16.6905,5.5845 -33.3810,11.1691 -50.0715 16.7537c 0.3920,1.1714 0.7839,2.3428 1.1758 3.5141c -0.9711,0.3249 -1.9422,0.6499 -2.9133 0.9748ZM 850.2477,748.5640 c 1.3992,4.1817 2.7984,8.3634 4.1975 12.5451c 0.9711,-0.3249 1.9422,-0.6498 2.9133 -0.9748c 2.0023,5.9843 4.0046,11.9687 6.0070 17.9530c -0.9711,0.3249 -1.9422,0.6498 -2.9133 0.9748c 1.3992,4.1817 2.7984,8.3634 4.1975 12.5451c 0.9711,-0.3249 1.9422,-0.6498 2.9133 -0.9747c 0.3919,1.1714 0.7839,2.3427 1.1758 3.5141c 16.6905,-5.5846 33.3810,-11.1691 50.0715 -16.7537c -0.3919,-1.1714 -0.7839,-2.3427 -1.1758 -3.5141c 0.9711,-0.3249 1.9422,-0.6498 2.9133 -0.9747c -1.3992,-4.1817 -2.7984,-8.3634 -4.1975 -12.5451c -0.9711,0.3249 -1.9422,0.6498 -2.9133 0.9747c -2.0023,-5.9843 -4.0046,-11.9686 -6.0070 -17.9530c 0.9711,-0.3249 1.9422,-0.6498 2.9133 -0.9748c -1.3992,-4.1817 -2.7984,-8.3634 -4.1975 -12.5451c -0.9711,0.3249 -1.9422,0.6498 -2.9133 0.9747c -0.3919,-1.1714 -0.7839,-2.3427 -1.1758 -3.5141c -16.6905,5.5846 -33.3810,11.1691 -50.0715 16.7537c 0.3919,1.1714 0.7839,2.3427 1.1758 3.5141c -0.9711,0.3249 -1.9422,0.6498 -2.9133 0.9747ZM 873.0337,816.6641 c 1.3992,4.1817 2.7984,8.3634 4.1975 12.5451c 0.9711,-0.3249 1.9422,-0.6498 2.9133 -0.9747c 2.0023,5.9843 4.0046,11.9686 6.0070 17.9530c -0.9711,0.3249 -1.9422,0.6498 -2.9133 0.9748c 1.3992,4.1817 2.7984,8.3634 4.1975 12.5451c 0.9711,-0.3249 1.9422,-0.6498 2.9133 -0.9747c 0.3919,1.1714 0.7839,2.3427 1.1758 3.5141c 16.6905,-5.5845 33.3810,-11.1691 50.0715 -16.7537c -0.3920,-1.1714 -0.7839,-2.3428 -1.1758 -3.5142c 0.9711,-0.3249 1.9422,-0.6498 2.9133 -0.9747c -1.3992,-4.1817 -2.7984,-8.3634 -4.1975 -12.5451c -0.9711,0.3249 -1.9422,0.6498 -2.9133 0.9748c -2.0023,-5.9843 -4.0046,-11.9687 -6.0070 -17.9530c 0.9711,-0.3249 1.9422,-0.6498 2.9133 -0.9747c -1.3992,-4.1817 -2.7984,-8.3634 -4.1975 -12.5451c -0.9711,0.3249 -1.9422,0.6498 -2.9133 0.9747c -0.3919,-1.1714 -0.7839,-2.3427 -1.1758 -3.5141c -16.6905,5.5846 -33.3810,11.1691 -50.0715 16.7537c 0.3919,1.1714 0.7839,2.3427 1.1758 3.5141c -0.9711,0.3249 -1.9422,0.6498 -2.9133 0.9747ZM 876.3737,600.3305 c 1.3992,4.1817 2.7984,8.3634 4.1975 12.5451c 0.9711,-0.3249 1.9422,-0.6498 2.9133 -0.9747c 2.0023,5.9843 4.0046,11.9686 6.0070 17.9530c -0.9711,0.3249 -1.9422,0.6498 -2.9133 0.9748c 1.3992,4.1817 2.7984,8.3634 4.1975 12.5451c 0.9711,-0.3249 1.9422,-0.6499 2.9133 -0.9748c 0.3919,1.1714 0.7839,2.3427 1.1758 3.5141c 16.6905,-5.5845 33.3810,-11.1691 50.0715 -16.7537c -0.3919,-1.1714 -0.7839,-2.3427 -1.1758 -3.5141c 0.9711,-0.3249 1.9422,-0.6498 2.9133 -0.9747c -1.3992,-4.1817 -2.7984,-8.3634 -4.1975 -12.5451c -0.9711,0.3249 -1.9422,0.6498 -2.9133 0.9748c -2.0023,-5.9843 -4.0046,-11.9687 -6.0070 -17.9530c 0.9711,-0.3249 1.9422,-0.6498 2.9133 -0.9748c -1.3992,-4.1817 -2.7984,-8.3634 -4.1975 -12.5451c -0.9711,0.3249 -1.9422,0.6498 -2.9133 0.9747c -0.3919,-1.1714 -0.7839,-2.3427 -1.1758 -3.5141c -16.6905,5.5846 -33.3810,11.1691 -50.0715 16.7537c 0.3919,1.1714 0.7839,2.3427 1.1758 3.5141c -0.9711,0.3249 -1.9422,0.6498 -2.9133 0.9747ZM 899.1596,668.4306 c 1.3991,4.1817 2.7983,8.3634 4.1975 12.5451c 0.9711,-0.3249 1.9422,-0.6498 2.9133 -0.9747c 2.0024,5.9843 4.0047,11.9687 6.0070 17.9530c -0.9711,0.3249 -1.9422,0.6498 -2.9133 0.9748c 1.3992,4.1817 2.7984,8.3634 4.1975 12.5451c 0.9711,-0.3249 1.9422,-0.6498 2.9133 -0.9748c 0.3919,1.1714 0.7839,2.3428 1.1758 3.5141c 16.6905,-5.5845 33.3810,-11.1691 50.0715 -16.7537c -0.3920,-1.1714 -0.7839,-2.3428 -1.1758 -3.5141c 0.9711,-0.3249 1.9422,-0.6498 2.9133 -0.9748c -1.3992,-4.1817 -2.7984,-8.3634 -4.1975 -12.5451c -0.9711,0.3249 -1.9422,0.6498 -2.9133 0.9748c -2.0023,-5.9843 -4.0046,-11.9687 -6.0070 -17.9530c 0.9711,-0.3249 1.9422,-0.6498 2.9133 -0.9747c -1.3992,-4.1817 -2.7984,-8.3634 -4.1975 -12.5451c -0.9711,0.3249 -1.9422,0.6498 -2.9133 0.9747c -0.3919,-1.1714 -0.7839,-2.3427 -1.1758 -3.5141c -16.6905,5.5846 -33.3810,11.1691 -50.0715 16.7537c 0.3919,1.1714 0.7839,2.3427 1.1758 3.5141c -0.9711,0.3249 -1.9422,0.6498 -2.9132 0.9748ZM 921.9456,736.5307 c 1.3992,4.1817 2.7984,8.3634 4.1975 12.5451c 0.9711,-0.3249 1.9422,-0.6498 2.9133 -0.9748c 2.0023,5.9843 4.0046,11.9687 6.0070 17.9530c -0.9711,0.3249 -1.9422,0.6498 -2.9133 0.9747c 1.3992,4.1817 2.7984,8.3634 4.1975 12.5451c 0.9711,-0.3249 1.9422,-0.6498 2.9133 -0.9748c 0.3920,1.1714 0.7839,2.3428 1.1758 3.5142c 16.6905,-5.5846 33.3810,-11.1691 50.0715 -16.7537c -0.3919,-1.1714 -0.7839,-2.3428 -1.1758 -3.5141c 0.9711,-0.3249 1.9422,-0.6498 2.9133 -0.9748c -1.3992,-4.1817 -2.7984,-8.3634 -4.1975 -12.5451c -0.9711,0.3249 -1.9422,0.6498 -2.9133 0.9747c -2.0023,-5.9843 -4.0046,-11.9687 -6.0070 -17.9530c 0.9711,-0.3249 1.9422,-0.6499 2.9133 -0.9748c -1.3992,-4.1817 -2.7984,-8.3634 -4.1975 -12.5451c -0.9711,0.3249 -1.9422,0.6498 -2.9133 0.9748c -0.3919,-1.1714 -0.7839,-2.3428 -1.1758 -3.5141c -16.6905,5.5845 -33.3810,11.1691 -50.0715 16.7537c 0.3920,1.1714 0.7839,2.3428 1.1758 3.5141c -0.9711,0.3249 -1.9422,0.6498 -2.9133 0.9748ZM 944.4183,558.3840 c 0.0000,3.1311 2.5382,5.6693 5.6693 5.6693c 3.1310,-0.0000 5.6693,-2.5382 5.6693 -5.6693c 0.0000,-3.1310 -2.5382,-5.6693 -5.6693 -5.6693c -3.1311,-0.0000 -5.6693,2.5382 -5.6693 5.6693ZM 944.7316,804.6308 c 1.3992,4.1817 2.7984,8.3634 4.1975 12.5451c 0.9711,-0.3249 1.9422,-0.6498 2.9133 -0.9748c 2.0023,5.9843 4.0046,11.9687 6.0070 17.9530c -0.9711,0.3249 -1.9422,0.6498 -2.9133 0.9747c 1.3992,4.1817 2.7984,8.3634 4.1975 12.5451c 0.9711,-0.3249 1.9422,-0.6498 2.9133 -0.9747c 0.3919,1.1714 0.7839,2.3427 1.1758 3.5141c 16.6905,-5.5846 33.3810,-11.1691 50.0715 -16.7537c -0.3919,-1.1714 -0.7839,-2.3427 -1.1758 -3.5141c 0.9711,-0.3249 1.9422,-0.6498 2.9133 -0.9748c -1.3992,-4.1817 -2.7984,-8.3634 -4.1975 -12.5451c -0.9711,0.3249 -1.9422,0.6498 -2.9133 0.9747c -2.0023,-5.9843 -4.0046,-11.9686 -6.0070 -17.9530c 0.9711,-0.3249 1.9422,-0.6498 2.9133 -0.9748c -1.3992,-4.1817 -2.7984,-8.3634 -4.1975 -12.5451c -0.9711,0.3249 -1.9422,0.6499 -2.9133 0.9748c -0.3919,-1.1714 -0.7839,-2.3427 -1.1758 -3.5141c -16.6905,5.5845 -33.3810,11.1691 -50.0715 16.7537c 0.3919,1.1714 0.7839,2.3427 1.1758 3.5141c -0.9711,0.3249 -1.9422,0.6498 -2.9133 0.9747ZM 1041.1070,839.7970 c 0.0000,3.1311 2.5382,5.6693 5.6693 5.6693c 3.1311,-0.0000 5.6693,-2.5382 5.6693 -5.6693c 0.0000,-3.1311 -2.5382,-5.6693 -5.6693 -5.6693c -3.1311,-0.0000 -5.6693,2.5382 -5.6693 5.6693Z"/></g><g stroke-linejoin="miter" stroke-opacity="1.0" fill-opacity="0.5" stroke="rgb(0,0,0)" stroke-width="0.37795275590551186" fill="rgb(255,0,0)" stroke-linecap="butt" stroke-miterlimit="10.0"><path d="M 469.3107,273.1327 c 0.0016,-12.9099 3.6924,-24.9414 10.0743 -35.1128c 1.4990,-0.0523 2.9980,-0.1047 4.4970 -0.1570c -6.3614,9.2858 -10.2801,20.3768 -10.8299 32.3468c -1.2471,0.9744 -2.4942,1.9487 -3.7413 2.9231ZM 469.4648,277.6753 c 1.1818,-0.9233 2.3636,-1.8466 3.5453 -2.7699c 0.1608,5.7431 1.0967,11.2923 2.7069 16.5468c 9.5583,-6.9445 19.1166,-13.8890 28.6749 -20.8336c 2.6889,-0.8737 5.3778,-1.7473 8.0667 -2.6210c 1.8335,-0.5957 3.6671,-1.1915 5.5006 -1.7873c 0.0000,1.7655 0.0000,3.5310 0.0000 5.2965c 0.0000,2.8439 0.0000,5.6878 0.0000 8.5317c -0.5919,-0.1923 -1.1838,-0.3847 -1.7757 -0.5770c -0.5840,-1.7973 -1.1679,-3.5945 -1.7519 -5.3917c -4.8841,3.5485 -9.7683,7.0971 -14.6524 10.6456c 4.9124,-0.0000 9.8249,-0.0000 14.7373 -0.0000c 1.1476,0.3729 2.2951,0.7457 3.4427 1.1186c 0.0000,2.5249 0.0000,5.0497 0.0000 7.5746c -13.8690,-0.0000 -27.7380,-0.0000 -41.6070 -0.0000c 1.7148,4.9974 4.0456,9.7087 6.9018 14.0431c -0.4361,1.5208 -0.8721,3.0415 -1.3082 4.5623c -7.1105,-9.7663 -11.6123,-21.5539 -12.4811 -34.3386ZM 481.9319,234.2542 c 7.2452,-9.9588 17.2023,-17.8176 28.7862 -22.4915c 1.2426,0.8381 2.4852,1.6763 3.7278 2.5144c -5.3294,1.9026 -10.3245,4.5086 -14.8737 7.7062c 9.5551,6.9422 19.1102,13.8844 28.6652 20.8265c 1.6618,2.2873 3.3237,4.5746 4.9855 6.8619c 1.1332,1.5597 2.2664,3.1194 3.3996 4.6791c -1.6791,0.5456 -3.3581,1.0911 -5.0372 1.6367c -2.7047,0.8788 -5.4094,1.7576 -8.1141 2.6364c 0.0000,-0.6224 0.0000,-1.2448 0.0000 -1.8671c 1.5288,-1.1108 3.0577,-2.2215 4.5865 -3.3323c -4.8841,-3.5485 -9.7683,-7.0970 -14.6524 -10.6456c 1.5180,4.6720 3.0360,9.3440 4.5541 14.0160c 0.0000,1.2066 0.0000,2.4133 0.0000 3.6199c -2.4013,0.7802 -4.8026,1.5604 -7.2039 2.3407c -4.2843,-13.1857 -8.5686,-26.3714 -12.8529 -39.5571c -4.1795,3.1485 -7.9511,6.8096 -11.2212 10.8899c -1.5832,0.0553 -3.1663,0.1106 -4.7495 0.1659ZM 484.7427,315.5915 c 0.4130,-1.4402 0.8259,-2.8804 1.2389 -4.3205c 7.0206,9.0913 16.4913,16.1939 27.4231 20.3184c 0.5415,1.4878 1.0830,2.9756 1.6245 4.4634c -11.9448,-3.8739 -22.4002,-11.0543 -30.2865 -20.4613ZM 514.9869,210.2098 c 6.4443,-2.0948 13.3227,-3.2271 20.4656 -3.2271c 5.5379,-0.0000 10.9169,0.6806 16.0578 1.9627c 0.5125,1.4080 1.0250,2.8161 1.5374 4.2241c -5.5808,-1.6352 -11.4856,-2.5123 -17.5952 -2.5123c -5.7210,-0.0000 -11.2624,0.7691 -16.5265 2.2095c -1.3130,-0.8857 -2.6261,-1.7713 -3.9391 -2.6570ZM 517.8573,333.0793 c 5.2654,1.5427 10.8192,2.4107 16.5613 2.5039c -3.6492,-11.2310 -7.2983,-22.4619 -10.9475 -33.6929c 0.0000,-2.8273 0.0000,-5.6545 0.0000 -8.4818c 0.0000,-1.9279 0.0000,-3.8558 0.0000 -5.7837c 1.6791,0.5456 3.3581,1.0911 5.0372 1.6367c 2.7047,0.8788 5.4094,1.7576 8.1141 2.6364c -0.3658,0.5035 -0.7316,1.0070 -1.0975 1.5105c -1.8897,-0.0000 -3.7795,-0.0000 -5.6692 -0.0000c 1.8656,5.7416 3.7311,11.4833 5.5967 17.2249c 1.5180,-4.6720 3.0360,-9.3440 4.5541 -14.0160c 0.7092,-0.9762 1.4185,-1.9524 2.1277 -2.9286c 2.4013,0.7802 4.8026,1.5604 7.2039 2.3407c -4.2839,13.1846 -8.5678,26.3691 -12.8518 39.5537c 5.3550,-0.0869 10.5463,-0.8476 15.4926 -2.2011c 1.3130,0.8857 2.6261,1.7713 3.9391 2.6570c -6.4443,2.0948 -13.3227,3.2271 -20.4656 3.2271c -5.5379,-0.0000 -10.9169,-0.6806 -16.0578 -1.9627c -0.5125,-1.4080 -1.0250,-2.8161 -1.5374 -4.2241ZM 523.4711,264.4194 c 2.5586,-0.8313 5.1172,-1.6627 7.6758 -2.4940c -2.5586,1.8589 -5.1172,3.7179 -7.6758 5.5768c 0.0000,-1.0276 0.0000,-2.0552 -0.0000 -3.0828ZM 523.4711,273.7586 c 0.9773,3.0078 1.9546,6.0156 2.9319 9.0234c -0.9773,-0.3175 -1.9546,-0.6351 -2.9319 -0.9526c 0.0000,-2.6903 0.0000,-5.3805 -0.0000 -8.0708ZM 532.3531,284.7153 c 3.1626,-0.0000 6.3252,-0.0000 9.4878 -0.0000c -0.6040,0.8313 -1.2080,1.6627 -1.8120 2.4940c -2.5586,-0.8313 -5.1172,-1.6627 -7.6758 -2.4940ZM 537.0970,259.9921 c 0.9773,-0.3175 1.9546,-0.6351 2.9319 -0.9526c 1.5813,2.1765 3.1626,4.3529 4.7439 6.5294c -2.5586,-1.8589 -5.1172,-3.7179 -7.6758 -5.5768ZM 537.6820,246.4320 c 11.2169,-8.1496 22.4338,-16.2991 33.6507 -24.4487c -4.2517,-2.9885 -8.8929,-5.4602 -13.8325 -7.3239c -0.5415,-1.4878 -1.0830,-2.9756 -1.6245 -4.4634c 11.9448,3.8739 22.4002,11.0543 30.2865 20.4613c -0.4130,1.4402 -0.8259,2.8803 -1.2389 4.3205c -3.4279,-4.4390 -7.4400,-8.4038 -11.9210 -11.7794c -3.6495,11.2321 -7.2991,22.4642 -10.9486 33.6963c -1.6618,2.2873 -3.3237,4.5746 -4.9855 6.8619c -1.1332,1.5597 -2.2664,3.1194 -3.3996 4.6791c -1.0377,-1.4283 -2.0754,-2.8566 -3.1132 -4.2849c -1.6716,-2.3008 -3.3432,-4.6015 -5.0148 -6.9023c 0.5919,-0.1923 1.1838,-0.3846 1.7757 -0.5770c 1.5288,1.1108 3.0577,2.2215 4.5865 3.3323c 1.8656,-5.7416 3.7311,-11.4833 5.5967 -17.2249c -3.9742,2.8874 -7.9485,5.7749 -11.9227 8.6623c -1.1476,0.3729 -2.2952,0.7457 -3.4428 1.1186c -1.4841,-2.0426 -2.9681,-4.0853 -4.4522 -6.1279ZM 545.5183,279.6538 c 0.9773,-3.0078 1.9546,-6.0156 2.9319 -9.0234c 0.6040,0.8313 1.2080,1.6627 1.8120 2.4940c -1.5813,2.1765 -3.1626,4.3529 -4.7439 6.5294ZM 545.5407,289.0002 c 1.0377,-1.4283 2.0754,-2.8566 3.1132 -4.2849c 1.6716,-2.3008 3.3432,-4.6015 5.0148 -6.9023c 0.3658,0.5035 0.7317,1.0070 1.0975 1.5105c -0.5840,1.7973 -1.1679,3.5945 -1.7519 5.3917c 6.0371,-0.0000 12.0742,-0.0000 18.1113 -0.0000c -3.9742,-2.8874 -7.9485,-5.7749 -11.9227 -8.6623c -0.7092,-0.9762 -1.4185,-1.9524 -2.1277 -2.9286c 1.4841,-2.0427 2.9682,-4.0853 4.4522 -6.1280c 11.2201,8.1519 22.4403,16.3038 33.6604 24.4557c 1.5040,-4.9079 2.4197,-10.0729 2.6650 -15.4130c 1.2471,-0.9744 2.4942,-1.9487 3.7413 -2.9231c 0.0000,0.0028 0.0000,0.0055 0.0000 0.0083c 0.0000,12.8965 -3.6910,24.9309 -10.0743 35.1045c -1.4990,0.0523 -2.9980,0.1047 -4.4970 0.1570c 3.1437,-4.5889 5.6909,-9.6186 7.5297 -14.9774c -11.8149,-0.0000 -23.6297,-0.0000 -35.4446 -0.0000c -2.6889,-0.8737 -5.3778,-1.7474 -8.0667 -2.6210c -1.8335,-0.5958 -3.6671,-1.1915 -5.5006 -1.7873ZM 556.4590,331.9717 c 11.0095,-3.9304 20.5929,-10.8627 27.7645 -19.8112c 1.5832,-0.0553 3.1663,-0.1106 4.7495 -0.1659c -7.2452,9.9588 -17.2023,17.8176 -28.7862 22.4915c -1.2426,-0.8381 -2.4852,-1.6763 -3.7278 -2.5144ZM 587.6508,238.7972 c 0.4361,-1.5208 0.8721,-3.0415 1.3082 -4.5623c 7.1105,9.7663 11.6123,21.5539 12.4811 34.3386c -1.1818,0.9233 -2.3636,1.8466 -3.5453 2.7699c -0.3360,-12.0025 -4.0577,-23.1583 -10.2440 -32.5462ZM 3.9685,309.3174 c -0.0000,6.1087 3.4357,11.9039 9.1889 14.7157c 132.0613,64.5441 264.1226,129.0882 396.1840 193.6324c 2.2394,1.0945 4.6990,1.6634 7.1916 1.6634c 39.6398,-0.0000 79.2796,-0.0000 118.9194 0.0000c 39.6398,-0.0000 79.2796,-0.0000 118.9194 0.0000c 2.4926,-0.0000 4.9522,-0.5689 7.1916 -1.6634c 132.0614,-64.5441 264.1227,-129.0882 396.1840 -193.6324c 5.7532,-2.8119 9.1889,-8.6070 9.1889 -14.7157c 0.0000,-1.7269 -0.2746,-3.4789 -0.8490 -5.1956c -32.2296,-96.3240 -64.4591,-192.6480 -96.6887 -288.9721c -2.2347,-6.6788 -8.4889,-11.1811 -15.5316 -11.1811c -139.4715,-0.0000 -278.9431,-0.0000 -418.4147 0.0000c -139.4715,-0.0000 -278.9431,-0.0000 -418.4147 0.0000c -7.0427,-0.0000 -13.2969,4.5024 -15.5316 11.1811c -32.2296,96.3241 -64.4592,192.6481 -96.6887 288.9721c -0.5744,1.7167 -0.8490,3.4687 -0.8490 5.1956ZM 18.4593,305.5390 c 0.0000,-3.1311 2.5382,-5.6693 5.6693 -5.6693c 3.1311,-0.0000 5.6693,2.5382 5.6693 5.6693c 0.0000,3.1311 -2.5382,5.6693 -5.6693 5.6693c -3.1311,-0.0000 -5.6693,-2.5382 -5.6693 -5.6693ZM 40.0777,306.0589 c -0.0000,-0.3976 0.0632,-0.8019 0.1963 -1.1997c 7.5948,-22.6984 15.1895,-45.3968 22.7843 -68.0952c 0.0005,-0.0016 0.0011,-0.0033 0.0017 -0.0049c 0.2878,-0.8602 0.5756,-1.7204 0.8634 -2.5806c 7.3071,-21.8386 14.6142,-43.6773 21.9213 -65.5159c 0.0004,-0.0012 0.0008,-0.0023 0.0012 -0.0036c 0.2878,-0.8602 0.5757,-1.7204 0.8635 -2.5807c 7.3069,-21.8381 14.6139,-43.6762 21.9208 -65.5143c 0.0006,-0.0017 0.0011,-0.0034 0.0017 -0.0051c 0.2878,-0.8602 0.5757,-1.7204 0.8635 -2.5807c 7.5953,-22.7000 15.1906,-45.4000 22.7860 -68.1001c 0.6623,-1.9795 2.8040,-3.0473 4.7834 -2.3850c 21.5053,7.1956 43.0106,14.3912 64.5159 21.5867c 0.7995,-2.3895 1.5990,-4.7790 2.3985 -7.1684c 0.6624,-1.9795 2.8040,-3.0473 4.7835 -2.3849c 21.5053,7.1956 43.0106,14.3911 64.5159 21.5867c 1.5990,-4.7789 3.1980,-9.5579 4.7970 -14.3369c 0.6624,-1.9795 2.8040,-3.0473 4.7835 -2.3850c 23.5603,7.8831 47.1205,15.7663 70.6807 23.6495c 1.5817,0.5292 2.5813,2.0029 2.5813 3.5837c 0.0000,0.3976 -0.0632,0.8019 -0.1963 1.1998c -1.9988,5.9737 -3.9975,11.9474 -5.9963 17.9211c 21.5053,7.1956 43.0106,14.3911 64.5159 21.5867c 1.5817,0.5293 2.5813,2.0030 2.5813 3.5837c 0.0000,0.3976 -0.0632,0.8019 -0.1963 1.1998c -1.5990,4.7790 -3.1980,9.5579 -4.7970 14.3369c 21.5053,7.1956 43.0106,14.3912 64.5159 21.5867c 1.5817,0.5292 2.5813,2.0029 2.5813 3.5837c 0.0000,0.3976 -0.0632,0.8019 -0.1963 1.1998c -7.5953,22.7000 -15.1907,45.4000 -22.7860 68.1001c -0.2878,0.8602 -0.5757,1.7204 -0.8635 2.5806c -7.3075,21.8398 -14.6150,43.6796 -21.9225 65.5195c -0.2878,0.8602 -0.5757,1.7204 -0.8634 2.5807c -0.0006,0.0018 -0.0012,0.0036 -0.0018 0.0054c -3.1095,9.2932 -6.2189,18.5865 -9.3284 27.8798c 21.5053,7.1956 43.0106,14.3911 64.5159 21.5867c 1.5817,0.5293 2.5813,2.0030 2.5813 3.5837c 0.0000,0.3976 -0.0633,0.8019 -0.1964 1.1998c -7.5953,22.7000 -15.1906,45.4001 -22.7860 68.1001c -0.2878,0.8602 -0.5756,1.7204 -0.8634 2.5807c -7.5953,22.7000 -15.1907,45.4000 -22.7860 68.1001c -0.6624,1.9795 -2.8040,3.0473 -4.7835 2.3850c -23.5602,-7.8831 -47.1205,-15.7663 -70.6807 -23.6494c -1.5817,-0.5293 -2.5813,-2.0030 -2.5813 -3.5838c 0.0000,-0.3976 0.0633,-0.8019 0.1964 -1.1997c 3.3979,-10.1553 6.7958,-20.3106 10.1937 -30.4659c -21.5053,-7.1956 -43.0106,-14.3911 -64.5159 -21.5867c -1.5817,-0.5293 -2.5813,-2.0030 -2.5813 -3.5837c 0.0000,-0.3976 0.0633,-0.8020 0.1964 -1.1998c 1.5990,-4.7790 3.1980,-9.5579 4.7970 -14.3369c -21.5053,-7.1956 -43.0106,-14.3912 -64.5159 -21.5867c -1.5817,-0.5293 -2.5813,-2.0029 -2.5813 -3.5837c 0.0000,-0.3976 0.0633,-0.8019 0.1964 -1.1998c 1.9988,-5.9737 3.9975,-11.9474 5.9963 -17.9211c -19.4503,-6.5080 -38.9007,-13.0160 -58.3510 -19.5240c -1.5990,4.7790 -3.1980,9.5579 -4.7970 14.3369c -0.6624,1.9795 -2.8040,3.0473 -4.7835 2.3850c -21.5053,-7.1956 -43.0106,-14.3911 -64.5159 -21.5867c -0.7995,2.3895 -1.5990,4.7790 -2.3985 7.1684c -0.6623,1.9795 -2.8040,3.0473 -4.7834 2.3850c -23.5603,-7.8831 -47.1205,-15.7663 -70.6807 -23.6495c -1.5817,-0.5292 -2.5813,-2.0029 -2.5813 -3.5837ZM 115.1480,24.1260 c 0.0000,-3.1310 2.5382,-5.6693 5.6693 -5.6693c 3.1311,-0.0000 5.6693,2.5382 5.6693 5.6693c 0.0000,3.1311 -2.5382,5.6693 -5.6693 5.6693c -3.1310,-0.0000 -5.6693,-2.5382 -5.6693 -5.6693ZM 410.8637,499.1714 c 0.0000,-3.1311 2.5382,-5.6693 5.6693 -5.6693c 3.1310,-0.0000 5.6693,2.5382 5.6693 5.6693c 0.0000,3.1310 -2.5382,5.6693 -5.6693 5.6693c -3.1311,-0.0000 -5.6693,-2.5382 -5.6693 -5.6693ZM 416.3973,24.1260 c 0.0000,-3.1310 2.5382,-5.6693 5.6693 -5.6693c 3.1310,-0.0000 5.6693,2.5382 5.6693 5.6693c 0.0000,3.1311 -2.5382,5.6693 -5.6693 5.6693c -3.1311,-0.0000 -5.6693,-2.5382 -5.6693 -5.6693ZM 580.6403,349.6591 c -0.0000,-1.5808 0.9996,-3.0545 2.5813 -3.5837c 21.5053,-7.1956 43.0106,-14.3911 64.5159 -21.5867c -3.1101,-9.2951 -6.2202,-18.5902 -9.3303 -27.8852c -0.2878,-0.8602 -0.5756,-1.7204 -0.8634 -2.5807c -7.3075,-21.8398 -14.6150,-43.6796 -21.9225 -65.5195c -0.2878,-0.8602 -0.5757,-1.7204 -0.8635 -2.5806c -0.0005,-0.0016 -0.0011,-0.0033 -0.0017 -0.0049c -7.5948,-22.6984 -15.1895,-45.3968 -22.7843 -68.0951c -0.1331,-0.3978 -0.1963,-0.8022 -0.1963 -1.1998c 0.0000,-1.5808 0.9996,-3.0545 2.5813 -3.5837c 21.5053,-7.1956 43.0106,-14.3911 64.5159 -21.5867c -1.5991,-4.7789 -3.1981,-9.5579 -4.7971 -14.3369c -0.1331,-0.3978 -0.1963,-0.8022 -0.1963 -1.1998c 0.0000,-1.5808 0.9996,-3.0545 2.5813 -3.5837c 21.5053,-7.1956 43.0106,-14.3911 64.5159 -21.5867c -1.9988,-5.9737 -3.9976,-11.9474 -5.9963 -17.9211c -0.1331,-0.3978 -0.1963,-0.8022 -0.1963 -1.1998c 0.0000,-1.5808 0.9996,-3.0545 2.5813 -3.5837c 23.5603,-7.8831 47.1205,-15.7663 70.6807 -23.6495c 1.9795,-0.6623 4.1211,0.4054 4.7835 2.3850c 1.5990,4.7790 3.1980,9.5579 4.7970 14.3369c 21.5053,-7.1956 43.0106,-14.3911 64.5159 -21.5867c 1.9795,-0.6624 4.1211,0.4054 4.7835 2.3849c 0.7995,2.3895 1.5990,4.7790 2.3985 7.1684c 21.5053,-7.1956 43.0106,-14.3911 64.5159 -21.5867c 1.9795,-0.6623 4.1211,0.4054 4.7834 2.3850c 7.5954,22.7000 15.1907,45.4001 22.7860 68.1001c 0.2878,0.8602 0.5757,1.7204 0.8635 2.5807c 7.3075,21.8398 14.6150,43.6796 21.9225 65.5194c 0.2878,0.8602 0.5757,1.7204 0.8635 2.5807c 7.3075,21.8398 14.6150,43.6796 21.9225 65.5195c 0.2878,0.8602 0.5756,1.7204 0.8634 2.5806c 7.5953,22.7000 15.1907,45.4001 22.7860 68.1001c 0.1331,0.3978 0.1963,0.8021 0.1963 1.1997c 0.0000,1.5808 -0.9996,3.0545 -2.5813 3.5837c -23.5602,7.8831 -47.1205,15.7663 -70.6807 23.6495c -1.9795,0.6623 -4.1211,-0.4054 -4.7834 -2.3850c -0.7995,-2.3895 -1.5990,-4.7790 -2.3985 -7.1684c -21.5053,7.1956 -43.0106,14.3912 -64.5159 21.5867c -1.9795,0.6624 -4.1211,-0.4054 -4.7835 -2.3850c -1.5990,-4.7789 -3.1980,-9.5579 -4.7970 -14.3369c -19.4503,6.5080 -38.9007,13.0160 -58.3510 19.5240c 1.9988,5.9737 3.9975,11.9474 5.9963 17.9211c 0.1331,0.3978 0.1964,0.8022 0.1964 1.1998c 0.0000,1.5808 -0.9996,3.0545 -2.5813 3.5837c -21.5053,7.1956 -43.0106,14.3911 -64.5159 21.5867c 1.5990,4.7789 3.1980,9.5579 4.7970 14.3369c 0.1331,0.3978 0.1964,0.8022 0.1964 1.1998c 0.0000,1.5808 -0.9996,3.0545 -2.5813 3.5837c -21.5053,7.1956 -43.0106,14.3911 -64.5159 21.5867c 3.3979,10.1553 6.7958,20.3106 10.1937 30.4659c 0.1331,0.3978 0.1964,0.8021 0.1964 1.1997c 0.0000,1.5808 -0.9996,3.0545 -2.5813 3.5838c -23.5603,7.8831 -47.1205,15.7663 -70.6807 23.6494c -1.9795,0.6624 -4.1211,-0.4054 -4.7835 -2.3850c -7.5953,-22.7000 -15.1907,-45.4000 -22.7860 -68.1001c -0.2878,-0.8602 -0.5756,-1.7204 -0.8634 -2.5807c -0.0003,-0.0010 -0.0007,-0.0020 -0.0010 -0.0030c -7.5950,-22.6990 -15.1900,-45.3981 -22.7850 -68.0971c -0.1331,-0.3978 -0.1964,-0.8022 -0.1964 -1.1998ZM 643.1690,24.1260 c 0.0000,-3.1310 2.5382,-5.6693 5.6693 -5.6693c 3.1311,-0.0000 5.6693,2.5382 5.6693 5.6693c 0.0000,3.1311 -2.5382,5.6693 -5.6693 5.6693c -3.1310,-0.0000 -5.6693,-2.5382 -5.6693 -5.6693ZM 648.7026,499.1714 c 0.0000,-3.1311 2.5382,-5.6693 5.6693 -5.6693c 3.1311,-0.0000 5.6693,2.5382 5.6693 5.6693c 0.0000,3.1310 -2.5382,5.6693 -5.6693 5.6693c -3.1310,-0.0000 -5.6693,-2.5382 -5.6693 -5.6693ZM 944.4183,24.1260 c 0.0000,-3.1310 2.5382,-5.6693 5.6693 -5.6693c 3.1310,-0.0000 5.6693,2.5382 5.6693 5.6693c 0.0000,3.1311 -2.5382,5.6693 -5.6693 5.6693c -3.1311,-0.0000 -5.6693,-2.5382 -5.6693 -5.6693ZM 1041.1070,305.5390 c 0.0000,-3.1311 2.5382,-5.6693 5.6693 -5.6693c 3.1311,-0.0000 5.6693,2.5382 5.6693 5.6693c 0.0000,3.1311 -2.5382,5.6693 -5.6693 5.6693c -3.1311,-0.0000 -5.6693,-2.5382 -5.6693 -5.6693Z"/></g></svg>