<?xml version="1.0" encoding="UTF-8"?>
<!DOCTYPE svg PUBLIC "-//W3C//DTD SVG 1.1//EN"
    "http://www.w3.org/Graphics/SVG/1.1/DTD/svg11.dtd"><svg xmlns="http://www.w3.org/2000/svg" height="512.9382" stroke-opacity="1" viewBox="0 0 603 513" font-size="1" width="603.4290" xmlns:xlink="http://www.w3.org/1999/xlink" stroke="rgb(0,0,0)" version="1.1"><defs></defs><defs><linearGradient x2="39.3893" y1="0.0000" gradientUnits="userSpaceOnUse" spreadMethod="pad" gradientTransform="matrix(3.7795,-0.0000,0.0000,-3.7795,20.3464,456.5122)" id="gradient0" y2="0.0000" x1="-39.3893"><stop stop-opacity="1.0000" offset="0.0000" stop-color="rgb(128,128,128)"/><stop stop-opacity="1.0000" offset="0.5000" stop-color="rgb(255,255,255)"/><stop stop-opacity="1.0000" offset="1.0000" stop-color="rgb(128,128,128)"/></linearGradient></defs><g stroke-linejoin="miter" stroke-opacity="1.0" fill-opacity="1" stroke="rgb(0,0,0)" stroke-width="0.37795275590551186" fill="url(#gradient0)" stroke-linecap="butt" stroke-miterlimit="10.0"><path d="M 3.9685,20.3464 c 0.0000,-9.0453 7.3326,-16.3779 16.3779 -16.3779c 165.5969,-0.0000 331.1938,-0.0000 496.7907 -0.0000c 7.9481,-0.0000 14.7490,5.7066 16.1292 13.5339c 21.9810,124.6607 43.9621,249.3214 65.9431 373.9821c 0.1693,0.9599 0.2511,1.9159 0.2511 2.8596c 0.0000,7.4654 -5.1229,14.1606 -12.6286 15.9269c -139.1906,32.7545 -278.3811,65.5089 -417.5716 98.2633c -1.2296,0.2893 -2.4885,0.4354 -3.7516 0.4354c -48.3874,-0.0000 -96.7748,-0.0000 -145.1622 -0.0000c -9.0453,-0.0000 -16.3779,-7.3326 -16.3779 -16.3779c 0.0000,-157.4151 0.0000,-314.8302 -0.0000 -472.2453ZM 90.2677,24.1259 c 0.0000,3.1311 2.5383,5.6693 5.6693 5.6693c 3.1310,-0.0000 5.6693,-2.5383 5.6693 -5.6693c 0.0000,-3.1310 -2.5383,-5.6693 -5.6693 -5.6693c -3.1311,-0.0000 -5.6693,2.5383 -5.6693 5.6693ZM 159.8394,488.8122 c 0.0000,3.1311 2.5383,5.6693 5.6693 5.6693c 3.1311,-0.0000 5.6693,-2.5383 5.6693 -5.6693c 0.0000,-3.1311 -2.5382,-5.6693 -5.6693 -5.6693c -3.1311,-0.0000 -5.6693,2.5382 -5.6693 5.6693ZM 507.6883,24.1259 c 0.0000,3.1311 2.5382,5.6693 5.6693 5.6693c 3.1311,-0.0000 5.6693,-2.5383 5.6693 -5.6693c 0.0000,-3.1310 -2.5382,-5.6693 -5.6693 -5.6693c -3.1311,-0.0000 -5.6693,2.5383 -5.6693 5.6693ZM 573.6314,390.5490 c 0.0000,3.1311 2.5382,5.6693 5.6693 5.6693c 3.1311,-0.0000 5.6693,-2.5383 5.6693 -5.6693c 0.0000,-3.1310 -2.5382,-5.6693 -5.6693 -5.6693c -3.1311,-0.0000 -5.6693,2.5383 -5.6693 5.6693Z"/></g><g stroke-linejoin="miter" stroke-opacity="1.0" fill-opacity="0.5" stroke="rgb(0,0,0)" stroke-width="0.37795275590551186" fill="rgb(255,255,0)" stroke-linecap="butt" stroke-miterlimit="10.0"><path d="M 3.9685,20.3464 c 0.0000,-9.0453 7.3326,-16.3779 16.3779 -16.3779c 165.5969,-0.0000 331.1938,-0.0000 496.7907 -0.0000c 7.9481,-0.0000 14.7490,5.7066 16.1292 13.5339c 21.9810,124.6607 43.9621,249.3214 65.9431 373.9821c 0.1693,0.9599 0.2511,1.9159 0.2511 2.8596c 0.0000,7.4654 -5.1229,14.1606 -12.6286 15.9269c -139.1906,32.7545 -278.3811,65.5089 -417.5716 98.2633c -1.2296,0.2893 -2.4885,0.4354 -3.7516 0.4354c -48.3874,-0.0000 -96.7748,-0.0000 -145.1622 -0.0000c -9.0453,-0.0000 -16.3779,-7.3326 -16.3779 -16.3779c 0.0000,-157.4151 0.0000,-314.8302 -0.0000 -472.2453ZM 27.8930,41.5527 c 0.0000,143.2776 0.0000,286.5552 0.0000 429.8328c 0.0000,8.2329 6.7742,14.9070 15.1306 14.9070c 35.4332,-0.0000 70.8665,-0.0000 106.2997 -0.0000c 1.2120,-7.8490 7.9969,-13.8583 16.1853 -13.8583c 7.9695,-0.0000 14.6095,5.6921 16.0762 13.2326c 127.5459,-29.5708 255.0919,-59.1416 382.6378 -88.7125c -0.8369,-1.9676 -1.3000,-4.1325 -1.3000 -6.4055c 0.0000,-8.2303 6.0708,-15.0426 13.9787 -16.2035c -19.9413,-111.4219 -39.8826,-222.8439 -59.8238 -334.2659c -1.1952,0.2776 -2.4405,0.4243 -3.7201 0.4243c -8.1884,-0.0000 -14.9733,-6.0092 -16.1853 -13.8583c -128.3500,-0.0000 -256.7000,-0.0000 -385.0500 -0.0000c -1.2120,7.8490 -7.9969,13.8583 -16.1853 13.8583c -8.1885,-0.0000 -14.9734,-6.0092 -16.1853 -13.8583c -12.2427,-0.0000 -24.4854,-0.0000 -36.7281 -0.0000c -8.3564,-0.0000 -15.1306,6.6741 -15.1306 14.9070ZM 90.2677,24.1259 c 0.0000,3.1311 2.5383,5.6693 5.6693 5.6693c 3.1310,-0.0000 5.6693,-2.5383 5.6693 -5.6693c 0.0000,-3.1310 -2.5383,-5.6693 -5.6693 -5.6693c -3.1311,-0.0000 -5.6693,2.5383 -5.6693 5.6693ZM 159.8394,488.8122 c 0.0000,3.1311 2.5383,5.6693 5.6693 5.6693c 3.1311,-0.0000 5.6693,-2.5383 5.6693 -5.6693c 0.0000,-3.1311 -2.5382,-5.6693 -5.6693 -5.6693c -3.1311,-0.0000 -5.6693,2.5382 -5.6693 5.6693ZM 507.6883,24.1259 c 0.0000,3.1311 2.5382,5.6693 5.6693 5.6693c 3.1311,-0.0000 5.6693,-2.5383 5.6693 -5.6693c 0.0000,-3.1310 -2.5382,-5.6693 -5.6693 -5.6693c -3.1311,-0.0000 -5.6693,2.5383 -5.6693 5.6693ZM 573.6314,390.5490 c 0.0000,3.1311 2.5382,5.6693 5.6693 5.6693c 3.1311,-0.0000 5.6693,-2.5383 5.6693 -5.6693c 0.0000,-3.1310 -2.5382,-5.6693 -5.6693 -5.6693c -3.1311,-0.0000 -5.6693,2.5383 -5.6693 5.6693Z"/></g><g stroke-linejoin="miter" stroke-opacity="1.0" fill-opacity="0.5" stroke="rgb(0,0,0)" stroke-width="0.37795275590551186" fill="rgb(0,0,0)" stroke-linecap="butt" stroke-miterlimit="10.0"><path d="M 3.9685,20.3464 c 0.0000,-9.0453 7.3326,-16.3779 16.3779 -16.3779c 165.5969,-0.0000 331.1938,-0.0000 496.7907 -0.0000c 7.9481,-0.0000 14.7490,5.7066 16.1292 13.5339c 21.9810,124.6607 43.9621,249.3214 65.9431 373.9821c 0.1693,0.9599 0.2511,1.9159 0.2511 2.8596c 0.0000,7.4654 -5.1229,14.1606 -12.6286 15.9269c -139.1906,32.7545 -278.3811,65.5089 -417.5716 98.2633c -1.2296,0.2893 -2.4885,0.4354 -3.7516 0.4354c -48.3874,-0.0000 -96.7748,-0.0000 -145.1622 -0.0000c -9.0453,-0.0000 -16.3779,-7.3326 -16.3779 -16.3779c 0.0000,-157.4151 0.0000,-314.8302 -0.0000 -472.2453ZM 55.5886,390.7942 c 0.7657,4.3426 1.5315,8.6851 2.2972 13.0277c 1.0084,-0.1778 2.0169,-0.3557 3.0254 -0.5335c 1.0958,6.2146 2.1915,12.4291 3.2874 18.6437c -1.0084,0.1779 -2.0169,0.3557 -3.0254 0.5335c 0.7658,4.3426 1.5315,8.6852 2.2972 13.0277c 1.0084,-0.1778 2.0169,-0.3556 3.0254 -0.5335c 0.2145,1.2165 0.4290,2.4329 0.6434 3.6494c 17.3326,-3.0562 34.6653,-6.1124 51.9978 -9.1686c -0.2145,-1.2164 -0.4290,-2.4329 -0.6434 -3.6494c 1.0084,-0.1778 2.0169,-0.3556 3.0253 -0.5334c -0.7657,-4.3426 -1.5314,-8.6852 -2.2971 -13.0278c -1.0085,0.1779 -2.0169,0.3557 -3.0254 0.5335c -1.0958,-6.2146 -2.1916,-12.4291 -3.2874 -18.6437c 1.0084,-0.1778 2.0169,-0.3557 3.0253 -0.5335c -0.7657,-4.3426 -1.5314,-8.6851 -2.2971 -13.0277c -1.0085,0.1778 -2.0169,0.3557 -3.0254 0.5335c -0.2145,-1.2164 -0.4290,-2.4329 -0.6435 -3.6493c -17.3326,3.0562 -34.6652,6.1124 -51.9978 9.1686c 0.2145,1.2164 0.4290,2.4329 0.6435 3.6493c -1.0084,0.1778 -2.0169,0.3557 -3.0254 0.5335ZM 82.6642,130.8041 c 0.7657,4.3426 1.5314,8.6852 2.2972 13.0278c 1.0084,-0.1779 2.0169,-0.3557 3.0253 -0.5335c 1.0958,6.2146 2.1916,12.4291 3.2874 18.6437c -1.0084,0.1778 -2.0169,0.3557 -3.0253 0.5335c 0.7657,4.3426 1.5314,8.6851 2.2972 13.0277c 1.0084,-0.1778 2.0169,-0.3557 3.0253 -0.5335c 0.2145,1.2164 0.4290,2.4329 0.6435 3.6493c 17.3326,-3.0562 34.6652,-6.1124 51.9978 -9.1686c -0.2145,-1.2164 -0.4290,-2.4329 -0.6435 -3.6493c 1.0084,-0.1778 2.0169,-0.3557 3.0254 -0.5335c -0.7657,-4.3425 -1.5315,-8.6851 -2.2972 -13.0277c -1.0084,0.1778 -2.0169,0.3557 -3.0253 0.5335c -1.0958,-6.2146 -2.1916,-12.4291 -3.2874 -18.6437c 1.0084,-0.1779 2.0169,-0.3557 3.0254 -0.5335c -0.7657,-4.3426 -1.5315,-8.6852 -2.2972 -13.0277c -1.0084,0.1778 -2.0169,0.3556 -3.0253 0.5335c -0.2145,-1.2165 -0.4290,-2.4329 -0.6435 -3.6494c -17.3326,3.0562 -34.6652,6.1124 -51.9978 9.1686c 0.2145,1.2164 0.4290,2.4329 0.6434 3.6494c -1.0084,0.1778 -2.0169,0.3556 -3.0253 0.5334ZM 90.2677,24.1259 c 0.0000,3.1311 2.5383,5.6693 5.6693 5.6693c 3.1310,-0.0000 5.6693,-2.5383 5.6693 -5.6693c 0.0000,-3.1310 -2.5383,-5.6693 -5.6693 -5.6693c -3.1311,-0.0000 -5.6693,2.5383 -5.6693 5.6693ZM 95.1340,201.5242 c 0.7657,4.3425 1.5315,8.6851 2.2972 13.0277c 1.0084,-0.1778 2.0169,-0.3557 3.0253 -0.5335c 1.0958,6.2146 2.1916,12.4291 3.2874 18.6437c -1.0084,0.1779 -2.0169,0.3557 -3.0254 0.5335c 0.7657,4.3426 1.5315,8.6852 2.2972 13.0277c 1.0084,-0.1778 2.0169,-0.3556 3.0253 -0.5334c 0.2145,1.2164 0.4290,2.4329 0.6435 3.6493c 17.3326,-3.0562 34.6652,-6.1124 51.9978 -9.1686c -0.2145,-1.2164 -0.4290,-2.4329 -0.6434 -3.6494c 1.0084,-0.1778 2.0169,-0.3556 3.0253 -0.5335c -0.7657,-4.3425 -1.5314,-8.6851 -2.2972 -13.0277c -1.0084,0.1779 -2.0169,0.3557 -3.0253 0.5335c -1.0958,-6.2146 -2.1916,-12.4291 -3.2874 -18.6437c 1.0085,-0.1778 2.0169,-0.3557 3.0254 -0.5335c -0.7657,-4.3426 -1.5314,-8.6851 -2.2972 -13.0277c -1.0084,0.1778 -2.0169,0.3557 -3.0253 0.5335c -0.2145,-1.2164 -0.4290,-2.4329 -0.6435 -3.6493c -17.3326,3.0562 -34.6652,6.1124 -51.9978 9.1686c 0.2145,1.2164 0.4290,2.4329 0.6435 3.6493c -1.0084,0.1778 -2.0169,0.3557 -3.0254 0.5335ZM 107.6039,272.2442 c 0.7658,4.3426 1.5315,8.6852 2.2972 13.0277c 1.0084,-0.1778 2.0169,-0.3556 3.0253 -0.5335c 1.0958,6.2146 2.1916,12.4292 3.2874 18.6437c -1.0084,0.1778 -2.0169,0.3556 -3.0254 0.5335c 0.7658,4.3425 1.5315,8.6851 2.2972 13.0277c 1.0084,-0.1779 2.0169,-0.3557 3.0254 -0.5335c 0.2145,1.2164 0.4290,2.4329 0.6434 3.6493c 17.3326,-3.0562 34.6653,-6.1124 51.9978 -9.1686c -0.2145,-1.2164 -0.4290,-2.4329 -0.6434 -3.6493c 1.0084,-0.1779 2.0169,-0.3557 3.0253 -0.5335c -0.7657,-4.3426 -1.5314,-8.6852 -2.2971 -13.0277c -1.0085,0.1778 -2.0169,0.3556 -3.0254 0.5335c -1.0958,-6.2146 -2.1916,-12.4292 -3.2874 -18.6437c 1.0084,-0.1778 2.0169,-0.3556 3.0253 -0.5335c -0.7657,-4.3425 -1.5314,-8.6851 -2.2972 -13.0277c -1.0084,0.1779 -2.0169,0.3557 -3.0253 0.5335c -0.2145,-1.2164 -0.4290,-2.4329 -0.6435 -3.6493c -17.3326,3.0562 -34.6652,6.1124 -51.9978 9.1686c 0.2145,1.2164 0.4290,2.4329 0.6435 3.6493c -1.0084,0.1779 -2.0169,0.3557 -3.0254 0.5335ZM 120.0737,342.9643 c 0.7658,4.3426 1.5315,8.6852 2.2972 13.0278c 1.0084,-0.1779 2.0169,-0.3557 3.0254 -0.5335c 1.0958,6.2146 2.1916,12.4291 3.2874 18.6437c -1.0084,0.1778 -2.0169,0.3557 -3.0253 0.5335c 0.7657,4.3426 1.5314,8.6851 2.2971 13.0277c 1.0084,-0.1778 2.0169,-0.3557 3.0254 -0.5335c 0.2145,1.2164 0.4290,2.4329 0.6434 3.6493c 17.3326,-3.0562 34.6653,-6.1124 51.9979 -9.1686c -0.2145,-1.2164 -0.4290,-2.4329 -0.6435 -3.6493c 1.0084,-0.1778 2.0169,-0.3557 3.0253 -0.5335c -0.7657,-4.3426 -1.5314,-8.6851 -2.2971 -13.0277c -1.0084,0.1778 -2.0169,0.3557 -3.0254 0.5335c -1.0958,-6.2146 -2.1916,-12.4291 -3.2874 -18.6437c 1.0084,-0.1779 2.0169,-0.3557 3.0253 -0.5335c -0.7657,-4.3426 -1.5314,-8.6852 -2.2971 -13.0277c -1.0084,0.1778 -2.0169,0.3556 -3.0254 0.5334c -0.2145,-1.2164 -0.4290,-2.4329 -0.6434 -3.6493c -17.3326,3.0562 -34.6653,6.1124 -51.9979 9.1686c 0.2145,1.2164 0.4290,2.4329 0.6435 3.6494c -1.0084,0.1778 -2.0169,0.3556 -3.0254 0.5334ZM 132.5436,413.6844 c 0.7657,4.3425 1.5314,8.6851 2.2971 13.0277c 1.0085,-0.1778 2.0169,-0.3557 3.0254 -0.5335c 1.0958,6.2146 2.1916,12.4291 3.2874 18.6437c -1.0084,0.1779 -2.0169,0.3557 -3.0253 0.5335c 0.7657,4.3426 1.5314,8.6852 2.2971 13.0277c 1.0085,-0.1778 2.0169,-0.3556 3.0254 -0.5335c 0.2145,1.2165 0.4290,2.4329 0.6435 3.6494c 17.3326,-3.0562 34.6652,-6.1124 51.9978 -9.1686c -0.2145,-1.2164 -0.4290,-2.4329 -0.6435 -3.6494c 1.0084,-0.1778 2.0169,-0.3556 3.0254 -0.5335c -0.7658,-4.3425 -1.5315,-8.6851 -2.2972 -13.0277c -1.0084,0.1779 -2.0169,0.3557 -3.0253 0.5335c -1.0958,-6.2146 -2.1916,-12.4291 -3.2874 -18.6437c 1.0084,-0.1778 2.0169,-0.3557 3.0254 -0.5335c -0.7658,-4.3426 -1.5315,-8.6851 -2.2972 -13.0277c -1.0084,0.1778 -2.0169,0.3556 -3.0254 0.5335c -0.2145,-1.2164 -0.4290,-2.4329 -0.6434 -3.6493c -17.3326,3.0562 -34.6653,6.1124 -51.9978 9.1686c 0.2145,1.2164 0.4290,2.4329 0.6434 3.6493c -1.0084,0.1778 -2.0169,0.3556 -3.0253 0.5335ZM 150.1027,99.7238 c 0.7658,4.3426 1.5315,8.6851 2.2972 13.0277c 1.0084,-0.1778 2.0169,-0.3556 3.0254 -0.5335c 1.0958,6.2146 2.1915,12.4291 3.2874 18.6437c -1.0084,0.1779 -2.0169,0.3557 -3.0254 0.5335c 0.7658,4.3426 1.5315,8.6852 2.2972 13.0277c 1.0084,-0.1778 2.0169,-0.3556 3.0254 -0.5334c 0.2145,1.2164 0.4290,2.4329 0.6434 3.6493c 17.3326,-3.0562 34.6653,-6.1124 51.9979 -9.1686c -0.2145,-1.2164 -0.4290,-2.4329 -0.6435 -3.6493c 1.0084,-0.1779 2.0169,-0.3557 3.0253 -0.5335c -0.7657,-4.3426 -1.5314,-8.6852 -2.2971 -13.0277c -1.0084,0.1778 -2.0169,0.3556 -3.0254 0.5334c -1.0958,-6.2146 -2.1916,-12.4291 -3.2874 -18.6437c 1.0084,-0.1778 2.0169,-0.3557 3.0253 -0.5335c -0.7657,-4.3425 -1.5314,-8.6851 -2.2971 -13.0277c -1.0085,0.1778 -2.0169,0.3557 -3.0254 0.5335c -0.2145,-1.2164 -0.4290,-2.4329 -0.6435 -3.6493c -17.3326,3.0562 -34.6652,6.1124 -51.9978 9.1686c 0.2145,1.2164 0.4290,2.4329 0.6435 3.6493c -1.0084,0.1778 -2.0169,0.3557 -3.0254 0.5335ZM 159.8394,488.8122 c 0.0000,3.1311 2.5383,5.6693 5.6693 5.6693c 3.1311,-0.0000 5.6693,-2.5383 5.6693 -5.6693c 0.0000,-3.1311 -2.5382,-5.6693 -5.6693 -5.6693c -3.1311,-0.0000 -5.6693,2.5382 -5.6693 5.6693ZM 162.5725,170.4438 c 0.7657,4.3426 1.5314,8.6852 2.2971 13.0277c 1.0084,-0.1778 2.0169,-0.3556 3.0254 -0.5334c 1.0958,6.2146 2.1916,12.4291 3.2874 18.6437c -1.0084,0.1778 -2.0169,0.3556 -3.0253 0.5335c 0.7657,4.3425 1.5314,8.6851 2.2971 13.0277c 1.0084,-0.1778 2.0169,-0.3557 3.0254 -0.5335c 0.2145,1.2164 0.4290,2.4329 0.6435 3.6493c 17.3326,-3.0562 34.6652,-6.1124 51.9978 -9.1686c -0.2145,-1.2164 -0.4290,-2.4329 -0.6435 -3.6493c 1.0084,-0.1778 2.0169,-0.3557 3.0254 -0.5335c -0.7658,-4.3426 -1.5315,-8.6851 -2.2972 -13.0277c -1.0084,0.1778 -2.0169,0.3556 -3.0254 0.5335c -1.0958,-6.2146 -2.1916,-12.4291 -3.2874 -18.6437c 1.0084,-0.1778 2.0169,-0.3556 3.0253 -0.5334c -0.7657,-4.3426 -1.5314,-8.6852 -2.2971 -13.0278c -1.0084,0.1779 -2.0169,0.3557 -3.0254 0.5335c -0.2145,-1.2164 -0.4290,-2.4329 -0.6434 -3.6493c -17.3326,3.0562 -34.6653,6.1124 -51.9979 9.1686c 0.2145,1.2164 0.4290,2.4329 0.6435 3.6493c -1.0084,0.1779 -2.0169,0.3557 -3.0253 0.5335ZM 175.0424,241.1639 c 0.7657,4.3425 1.5314,8.6851 2.2972 13.0277c 1.0084,-0.1779 2.0169,-0.3557 3.0253 -0.5335c 1.0958,6.2146 2.1916,12.4291 3.2874 18.6437c -1.0084,0.1778 -2.0169,0.3557 -3.0253 0.5335c 0.7657,4.3426 1.5314,8.6851 2.2972 13.0277c 1.0084,-0.1778 2.0169,-0.3556 3.0253 -0.5335c 0.2145,1.2164 0.4290,2.4329 0.6435 3.6494c 17.3326,-3.0562 34.6652,-6.1125 51.9978 -9.1686c -0.2145,-1.2165 -0.4290,-2.4329 -0.6435 -3.6494c 1.0084,-0.1778 2.0169,-0.3556 3.0254 -0.5335c -0.7657,-4.3425 -1.5315,-8.6851 -2.2972 -13.0277c -1.0084,0.1778 -2.0169,0.3557 -3.0253 0.5335c -1.0958,-6.2146 -2.1916,-12.4291 -3.2874 -18.6437c 1.0084,-0.1779 2.0169,-0.3557 3.0254 -0.5335c -0.7658,-4.3426 -1.5315,-8.6852 -2.2972 -13.0277c -1.0084,0.1778 -2.0169,0.3556 -3.0253 0.5335c -0.2145,-1.2165 -0.4290,-2.4329 -0.6435 -3.6494c -17.3326,3.0562 -34.6653,6.1124 -51.9978 9.1686c 0.2145,1.2164 0.4290,2.4329 0.6434 3.6494c -1.0084,0.1778 -2.0169,0.3556 -3.0253 0.5335ZM 187.5122,311.8839 c 0.7657,4.3426 1.5314,8.6851 2.2972 13.0277c 1.0084,-0.1778 2.0169,-0.3557 3.0253 -0.5335c 1.0958,6.2146 2.1916,12.4291 3.2874 18.6437c -1.0084,0.1779 -2.0169,0.3557 -3.0254 0.5335c 0.7657,4.3426 1.5315,8.6852 2.2972 13.0277c 1.0084,-0.1778 2.0169,-0.3556 3.0253 -0.5334c 0.2145,1.2164 0.4290,2.4329 0.6435 3.6493c 17.3326,-3.0562 34.6652,-6.1124 51.9978 -9.1686c -0.2145,-1.2164 -0.4290,-2.4329 -0.6435 -3.6494c 1.0085,-0.1778 2.0169,-0.3556 3.0254 -0.5334c -0.7657,-4.3426 -1.5314,-8.6852 -2.2972 -13.0278c -1.0084,0.1779 -2.0169,0.3557 -3.0253 0.5335c -1.0958,-6.2146 -2.1916,-12.4291 -3.2874 -18.6437c 1.0085,-0.1778 2.0169,-0.3556 3.0254 -0.5335c -0.7657,-4.3425 -1.5314,-8.6851 -2.2972 -13.0277c -1.0084,0.1778 -2.0169,0.3557 -3.0253 0.5335c -0.2145,-1.2164 -0.4290,-2.4329 -0.6435 -3.6493c -17.3326,3.0562 -34.6652,6.1124 -51.9978 9.1686c 0.2145,1.2164 0.4290,2.4329 0.6435 3.6493c -1.0085,0.1778 -2.0169,0.3557 -3.0254 0.5335ZM 199.9821,382.6040 c 0.7657,4.3426 1.5315,8.6852 2.2972 13.0277c 1.0084,-0.1778 2.0169,-0.3556 3.0253 -0.5335c 1.0958,6.2146 2.1916,12.4292 3.2874 18.6437c -1.0084,0.1778 -2.0169,0.3556 -3.0254 0.5335c 0.7658,4.3425 1.5315,8.6851 2.2972 13.0277c 1.0084,-0.1779 2.0169,-0.3557 3.0253 -0.5335c 0.2145,1.2164 0.4290,2.4329 0.6435 3.6493c 17.3326,-3.0562 34.6653,-6.1124 51.9978 -9.1686c -0.2145,-1.2164 -0.4290,-2.4329 -0.6434 -3.6493c 1.0084,-0.1778 2.0169,-0.3557 3.0253 -0.5335c -0.7657,-4.3426 -1.5314,-8.6852 -2.2971 -13.0277c -1.0085,0.1778 -2.0169,0.3556 -3.0254 0.5335c -1.0958,-6.2146 -2.1916,-12.4292 -3.2874 -18.6437c 1.0084,-0.1778 2.0169,-0.3556 3.0253 -0.5334c -0.7657,-4.3426 -1.5314,-8.6852 -2.2971 -13.0278c -1.0085,0.1779 -2.0169,0.3557 -3.0254 0.5335c -0.2145,-1.2164 -0.4290,-2.4329 -0.6435 -3.6493c -17.3326,3.0562 -34.6652,6.1124 -51.9978 9.1686c 0.2145,1.2164 0.4290,2.4329 0.6435 3.6493c -1.0084,0.1779 -2.0169,0.3557 -3.0254 0.5335ZM 216.8849,64.9212 c 0.7657,4.3426 1.5314,8.6852 2.2972 13.0277c 1.0084,-0.1778 2.0169,-0.3556 3.0253 -0.5334c 1.0958,6.2146 2.1916,12.4291 3.2874 18.6437c -1.0085,0.1778 -2.0169,0.3556 -3.0254 0.5335c 0.7657,4.3425 1.5314,8.6851 2.2972 13.0277c 1.0084,-0.1778 2.0169,-0.3557 3.0253 -0.5335c 0.2145,1.2164 0.4290,2.4329 0.6435 3.6493c 17.3326,-3.0562 34.6652,-6.1124 51.9978 -9.1686c -0.2145,-1.2164 -0.4290,-2.4329 -0.6435 -3.6493c 1.0085,-0.1778 2.0169,-0.3557 3.0254 -0.5335c -0.7657,-4.3426 -1.5315,-8.6851 -2.2972 -13.0277c -1.0084,0.1778 -2.0169,0.3556 -3.0253 0.5335c -1.0958,-6.2146 -2.1916,-12.4291 -3.2874 -18.6437c 1.0084,-0.1779 2.0169,-0.3557 3.0254 -0.5335c -0.7657,-4.3426 -1.5315,-8.6852 -2.2972 -13.0278c -1.0084,0.1779 -2.0169,0.3557 -3.0253 0.5335c -0.2145,-1.2164 -0.4290,-2.4329 -0.6435 -3.6493c -17.3326,3.0562 -34.6652,6.1124 -51.9978 9.1686c 0.2145,1.2164 0.4290,2.4329 0.6435 3.6493c -1.0085,0.1779 -2.0169,0.3557 -3.0254 0.5335ZM 229.3547,135.6413 c 0.7657,4.3425 1.5315,8.6851 2.2972 13.0277c 1.0084,-0.1779 2.0169,-0.3557 3.0253 -0.5335c 1.0958,6.2146 2.1916,12.4291 3.2874 18.6437c -1.0084,0.1778 -2.0169,0.3557 -3.0254 0.5335c 0.7657,4.3426 1.5315,8.6851 2.2972 13.0277c 1.0084,-0.1778 2.0169,-0.3556 3.0253 -0.5335c 0.2145,1.2164 0.4290,2.4329 0.6435 3.6494c 17.3326,-3.0562 34.6653,-6.1124 51.9978 -9.1686c -0.2145,-1.2165 -0.4290,-2.4329 -0.6434 -3.6494c 1.0084,-0.1778 2.0169,-0.3556 3.0253 -0.5335c -0.7657,-4.3425 -1.5314,-8.6851 -2.2972 -13.0277c -1.0084,0.1778 -2.0169,0.3557 -3.0253 0.5335c -1.0958,-6.2146 -2.1916,-12.4291 -3.2874 -18.6437c 1.0084,-0.1778 2.0169,-0.3557 3.0253 -0.5335c -0.7657,-4.3426 -1.5314,-8.6852 -2.2972 -13.0277c -1.0084,0.1778 -2.0169,0.3556 -3.0253 0.5335c -0.2145,-1.2164 -0.4290,-2.4329 -0.6435 -3.6494c -17.3326,3.0562 -34.6652,6.1124 -51.9978 9.1686c 0.2145,1.2164 0.4290,2.4329 0.6435 3.6494c -1.0084,0.1778 -2.0169,0.3556 -3.0254 0.5335ZM 241.8246,206.3614 c 0.7658,4.3426 1.5315,8.6851 2.2972 13.0277c 1.0084,-0.1778 2.0169,-0.3557 3.0254 -0.5335c 1.0958,6.2146 2.1915,12.4291 3.2874 18.6437c -1.0084,0.1779 -2.0169,0.3557 -3.0254 0.5335c 0.7658,4.3426 1.5315,8.6852 2.2972 13.0277c 1.0084,-0.1778 2.0169,-0.3556 3.0254 -0.5334c 0.2145,1.2164 0.4290,2.4329 0.6434 3.6493c 17.3326,-3.0562 34.6653,-6.1124 51.9979 -9.1686c -0.2145,-1.2164 -0.4290,-2.4329 -0.6435 -3.6493c 1.0084,-0.1779 2.0169,-0.3557 3.0253 -0.5335c -0.7657,-4.3426 -1.5314,-8.6852 -2.2971 -13.0278c -1.0084,0.1779 -2.0169,0.3557 -3.0254 0.5335c -1.0958,-6.2146 -2.1916,-12.4291 -3.2874 -18.6437c 1.0084,-0.1778 2.0169,-0.3556 3.0253 -0.5335c -0.7657,-4.3425 -1.5314,-8.6851 -2.2971 -13.0277c -1.0085,0.1778 -2.0169,0.3557 -3.0254 0.5335c -0.2145,-1.2164 -0.4290,-2.4329 -0.6435 -3.6493c -17.3326,3.0562 -34.6652,6.1124 -51.9978 9.1686c 0.2145,1.2164 0.4290,2.4329 0.6435 3.6493c -1.0084,0.1778 -2.0169,0.3557 -3.0254 0.5335ZM 254.2945,277.0814 c 0.7657,4.3426 1.5314,8.6852 2.2971 13.0277c 1.0084,-0.1778 2.0169,-0.3556 3.0254 -0.5334c 1.0958,6.2146 2.1916,12.4291 3.2874 18.6437c -1.0084,0.1778 -2.0169,0.3556 -3.0253 0.5335c 0.7657,4.3425 1.5314,8.6851 2.2971 13.0277c 1.0084,-0.1779 2.0169,-0.3557 3.0254 -0.5335c 0.2145,1.2164 0.4290,2.4329 0.6435 3.6493c 17.3326,-3.0562 34.6652,-6.1124 51.9978 -9.1686c -0.2145,-1.2164 -0.4290,-2.4329 -0.6435 -3.6493c 1.0084,-0.1778 2.0169,-0.3557 3.0254 -0.5335c -0.7658,-4.3426 -1.5315,-8.6852 -2.2972 -13.0277c -1.0084,0.1778 -2.0169,0.3556 -3.0254 0.5335c -1.0958,-6.2146 -2.1916,-12.4291 -3.2874 -18.6437c 1.0084,-0.1778 2.0169,-0.3556 3.0253 -0.5334c -0.7657,-4.3426 -1.5314,-8.6852 -2.2971 -13.0278c -1.0084,0.1779 -2.0169,0.3557 -3.0254 0.5335c -0.2145,-1.2164 -0.4290,-2.4329 -0.6434 -3.6493c -17.3326,3.0562 -34.6653,6.1124 -51.9979 9.1686c 0.2145,1.2164 0.4290,2.4329 0.6435 3.6493c -1.0084,0.1779 -2.0169,0.3557 -3.0253 0.5335ZM 266.7643,347.8015 c 0.7657,4.3425 1.5314,8.6851 2.2971 13.0277c 1.0085,-0.1779 2.0169,-0.3557 3.0254 -0.5335c 1.0958,6.2146 2.1916,12.4291 3.2874 18.6437c -1.0084,0.1778 -2.0169,0.3557 -3.0253 0.5335c 0.7657,4.3426 1.5314,8.6851 2.2972 13.0277c 1.0084,-0.1778 2.0169,-0.3556 3.0253 -0.5335c 0.2145,1.2164 0.4290,2.4329 0.6435 3.6494c 17.3326,-3.0562 34.6652,-6.1124 51.9978 -9.1687c -0.2145,-1.2164 -0.4290,-2.4329 -0.6435 -3.6493c 1.0084,-0.1778 2.0169,-0.3556 3.0254 -0.5335c -0.7657,-4.3425 -1.5315,-8.6851 -2.2972 -13.0277c -1.0084,0.1778 -2.0169,0.3557 -3.0253 0.5335c -1.0958,-6.2146 -2.1916,-12.4291 -3.2874 -18.6437c 1.0084,-0.1779 2.0169,-0.3557 3.0254 -0.5335c -0.7658,-4.3426 -1.5315,-8.6852 -2.2972 -13.0277c -1.0084,0.1778 -2.0169,0.3556 -3.0253 0.5335c -0.2145,-1.2164 -0.4290,-2.4329 -0.6435 -3.6494c -17.3326,3.0562 -34.6653,6.1124 -51.9978 9.1686c 0.2145,1.2165 0.4290,2.4329 0.6434 3.6494c -1.0084,0.1778 -2.0169,0.3556 -3.0253 0.5335ZM 290.8865,71.0619 c 0.7657,4.3426 1.5315,8.6852 2.2972 13.0278c 1.0084,-0.1779 2.0169,-0.3557 3.0253 -0.5335c 1.0958,6.2146 2.1916,12.4291 3.2874 18.6437c -1.0085,0.1778 -2.0169,0.3557 -3.0254 0.5335c 0.7657,4.3425 1.5315,8.6851 2.2972 13.0277c 1.0084,-0.1778 2.0169,-0.3557 3.0253 -0.5335c 0.2145,1.2164 0.4290,2.4329 0.6435 3.6493c 17.3326,-3.0562 34.6652,-6.1124 51.9978 -9.1686c -0.2145,-1.2164 -0.4290,-2.4329 -0.6435 -3.6493c 1.0085,-0.1778 2.0169,-0.3557 3.0254 -0.5335c -0.7657,-4.3426 -1.5314,-8.6851 -2.2972 -13.0277c -1.0084,0.1778 -2.0169,0.3557 -3.0253 0.5335c -1.0958,-6.2146 -2.1916,-12.4291 -3.2874 -18.6437c 1.0085,-0.1779 2.0169,-0.3557 3.0254 -0.5335c -0.7657,-4.3426 -1.5315,-8.6852 -2.2972 -13.0277c -1.0084,0.1778 -2.0169,0.3556 -3.0253 0.5335c -0.2145,-1.2165 -0.4290,-2.4329 -0.6435 -3.6494c -17.3326,3.0562 -34.6652,6.1124 -51.9978 9.1686c 0.2145,1.2164 0.4290,2.4329 0.6435 3.6494c -1.0085,0.1778 -2.0169,0.3556 -3.0254 0.5334ZM 303.3563,141.7820 c 0.7657,4.3425 1.5315,8.6851 2.2972 13.0277c 1.0084,-0.1778 2.0169,-0.3557 3.0254 -0.5335c 1.0958,6.2146 2.1915,12.4291 3.2874 18.6437c -1.0084,0.1779 -2.0169,0.3557 -3.0254 0.5335c 0.7658,4.3426 1.5315,8.6852 2.2972 13.0277c 1.0084,-0.1778 2.0169,-0.3556 3.0253 -0.5335c 0.2145,1.2165 0.4290,2.4329 0.6435 3.6494c 17.3326,-3.0562 34.6653,-6.1124 51.9978 -9.1686c -0.2145,-1.2164 -0.4290,-2.4329 -0.6434 -3.6494c 1.0084,-0.1778 2.0169,-0.3556 3.0253 -0.5335c -0.7657,-4.3425 -1.5314,-8.6851 -2.2971 -13.0277c -1.0085,0.1779 -2.0169,0.3557 -3.0254 0.5335c -1.0958,-6.2146 -2.1916,-12.4291 -3.2874 -18.6437c 1.0084,-0.1778 2.0169,-0.3557 3.0253 -0.5335c -0.7657,-4.3426 -1.5314,-8.6851 -2.2971 -13.0277c -1.0085,0.1778 -2.0169,0.3557 -3.0254 0.5335c -0.2145,-1.2164 -0.4290,-2.4329 -0.6435 -3.6494c -17.3326,3.0563 -34.6652,6.1125 -51.9978 9.1687c 0.2145,1.2164 0.4290,2.4329 0.6435 3.6493c -1.0084,0.1778 -2.0169,0.3556 -3.0254 0.5335ZM 315.8262,212.5020 c 0.7657,4.3426 1.5314,8.6852 2.2971 13.0277c 1.0084,-0.1778 2.0169,-0.3556 3.0254 -0.5335c 1.0958,6.2146 2.1916,12.4292 3.2874 18.6437c -1.0084,0.1778 -2.0169,0.3556 -3.0253 0.5334c 0.7657,4.3426 1.5314,8.6852 2.2971 13.0278c 1.0084,-0.1779 2.0169,-0.3557 3.0254 -0.5335c 0.2145,1.2164 0.4290,2.4329 0.6434 3.6493c 17.3326,-3.0562 34.6653,-6.1124 51.9979 -9.1686c -0.2145,-1.2164 -0.4290,-2.4329 -0.6435 -3.6493c 1.0084,-0.1779 2.0169,-0.3557 3.0253 -0.5335c -0.7657,-4.3426 -1.5314,-8.6852 -2.2971 -13.0277c -1.0084,0.1778 -2.0169,0.3556 -3.0254 0.5335c -1.0958,-6.2146 -2.1916,-12.4292 -3.2874 -18.6437c 1.0084,-0.1778 2.0169,-0.3556 3.0253 -0.5335c -0.7657,-4.3425 -1.5314,-8.6851 -2.2971 -13.0277c -1.0084,0.1779 -2.0169,0.3557 -3.0254 0.5335c -0.2145,-1.2164 -0.4290,-2.4329 -0.6435 -3.6493c -17.3326,3.0562 -34.6652,6.1124 -51.9978 9.1686c 0.2145,1.2164 0.4290,2.4329 0.6435 3.6493c -1.0084,0.1779 -2.0169,0.3557 -3.0253 0.5335ZM 328.2960,283.2221 c 0.7657,4.3426 1.5314,8.6852 2.2971 13.0278c 1.0084,-0.1779 2.0169,-0.3557 3.0254 -0.5335c 1.0958,6.2146 2.1916,12.4291 3.2874 18.6437c -1.0084,0.1778 -2.0169,0.3557 -3.0253 0.5335c 0.7657,4.3425 1.5314,8.6851 2.2971 13.0277c 1.0085,-0.1778 2.0169,-0.3557 3.0254 -0.5335c 0.2145,1.2164 0.4290,2.4329 0.6435 3.6493c 17.3326,-3.0562 34.6652,-6.1124 51.9978 -9.1686c -0.2145,-1.2164 -0.4290,-2.4329 -0.6435 -3.6493c 1.0084,-0.1778 2.0169,-0.3557 3.0254 -0.5335c -0.7658,-4.3426 -1.5315,-8.6851 -2.2972 -13.0277c -1.0084,0.1778 -2.0169,0.3557 -3.0254 0.5335c -1.0958,-6.2146 -2.1915,-12.4291 -3.2874 -18.6437c 1.0084,-0.1779 2.0169,-0.3557 3.0254 -0.5335c -0.7658,-4.3426 -1.5315,-8.6852 -2.2972 -13.0277c -1.0084,0.1778 -2.0169,0.3556 -3.0254 0.5334c -0.2145,-1.2164 -0.4290,-2.4329 -0.6434 -3.6493c -17.3326,3.0562 -34.6653,6.1124 -51.9978 9.1686c 0.2145,1.2164 0.4290,2.4329 0.6434 3.6494c -1.0084,0.1778 -2.0169,0.3556 -3.0253 0.5334ZM 340.7659,353.9422 c 0.7657,4.3425 1.5314,8.6851 2.2972 13.0277c 1.0084,-0.1778 2.0169,-0.3557 3.0253 -0.5335c 1.0958,6.2146 2.1916,12.4291 3.2874 18.6437c -1.0084,0.1779 -2.0169,0.3557 -3.0253 0.5335c 0.7657,4.3426 1.5314,8.6852 2.2972 13.0277c 1.0084,-0.1778 2.0169,-0.3556 3.0253 -0.5335c 0.2145,1.2164 0.4290,2.4329 0.6435 3.6494c 17.3326,-3.0562 34.6652,-6.1124 51.9978 -9.1686c -0.2145,-1.2165 -0.4290,-2.4329 -0.6435 -3.6494c 1.0084,-0.1778 2.0169,-0.3556 3.0254 -0.5335c -0.7657,-4.3425 -1.5315,-8.6851 -2.2972 -13.0277c -1.0084,0.1779 -2.0169,0.3557 -3.0253 0.5335c -1.0958,-6.2146 -2.1916,-12.4291 -3.2874 -18.6437c 1.0084,-0.1778 2.0169,-0.3557 3.0254 -0.5335c -0.7657,-4.3426 -1.5315,-8.6851 -2.2972 -13.0277c -1.0084,0.1778 -2.0169,0.3556 -3.0253 0.5335c -0.2145,-1.2164 -0.4290,-2.4329 -0.6435 -3.6494c -17.3326,3.0562 -34.6652,6.1124 -51.9978 9.1686c 0.2145,1.2165 0.4290,2.4329 0.6434 3.6494c -1.0084,0.1778 -2.0169,0.3556 -3.0253 0.5335ZM 363.5754,69.7584 c 0.7658,4.3426 1.5315,8.6852 2.2972 13.0278c 1.0084,-0.1779 2.0169,-0.3557 3.0253 -0.5335c 1.0958,6.2146 2.1916,12.4291 3.2874 18.6437c -1.0084,0.1778 -2.0169,0.3557 -3.0254 0.5335c 0.7658,4.3425 1.5315,8.6851 2.2972 13.0277c 1.0084,-0.1778 2.0169,-0.3557 3.0253 -0.5335c 0.2145,1.2164 0.4290,2.4329 0.6435 3.6493c 17.3326,-3.0562 34.6653,-6.1124 51.9978 -9.1686c -0.2145,-1.2164 -0.4290,-2.4329 -0.6434 -3.6493c 1.0084,-0.1778 2.0169,-0.3557 3.0253 -0.5335c -0.7657,-4.3426 -1.5314,-8.6851 -2.2971 -13.0277c -1.0085,0.1778 -2.0169,0.3557 -3.0254 0.5335c -1.0958,-6.2146 -2.1916,-12.4291 -3.2874 -18.6437c 1.0084,-0.1779 2.0169,-0.3557 3.0253 -0.5335c -0.7657,-4.3426 -1.5314,-8.6852 -2.2972 -13.0277c -1.0084,0.1778 -2.0169,0.3556 -3.0253 0.5335c -0.2145,-1.2165 -0.4290,-2.4329 -0.6435 -3.6494c -17.3326,3.0562 -34.6652,6.1124 -51.9978 9.1686c 0.2145,1.2164 0.4290,2.4329 0.6435 3.6494c -1.0084,0.1778 -2.0169,0.3556 -3.0254 0.5334ZM 376.0453,140.4785 c 0.7658,4.3425 1.5315,8.6851 2.2972 13.0277c 1.0084,-0.1778 2.0169,-0.3557 3.0254 -0.5335c 1.0958,6.2146 2.1916,12.4291 3.2874 18.6437c -1.0084,0.1779 -2.0169,0.3557 -3.0253 0.5335c 0.7657,4.3426 1.5314,8.6852 2.2971 13.0277c 1.0084,-0.1778 2.0169,-0.3556 3.0254 -0.5335c 0.2145,1.2165 0.4290,2.4329 0.6434 3.6494c 17.3326,-3.0562 34.6653,-6.1124 51.9979 -9.1686c -0.2145,-1.2164 -0.4290,-2.4329 -0.6435 -3.6494c 1.0084,-0.1778 2.0169,-0.3556 3.0253 -0.5335c -0.7657,-4.3425 -1.5314,-8.6851 -2.2971 -13.0277c -1.0084,0.1779 -2.0169,0.3557 -3.0254 0.5335c -1.0958,-6.2146 -2.1916,-12.4291 -3.2874 -18.6437c 1.0084,-0.1778 2.0169,-0.3557 3.0253 -0.5335c -0.7657,-4.3426 -1.5314,-8.6851 -2.2971 -13.0277c -1.0084,0.1778 -2.0169,0.3557 -3.0254 0.5335c -0.2145,-1.2164 -0.4290,-2.4329 -0.6434 -3.6494c -17.3326,3.0563 -34.6653,6.1125 -51.9979 9.1687c 0.2145,1.2164 0.4290,2.4329 0.6435 3.6493c -1.0084,0.1778 -2.0169,0.3556 -3.0254 0.5335ZM 388.5152,211.1985 c 0.7657,4.3426 1.5314,8.6852 2.2971 13.0277c 1.0084,-0.1778 2.0169,-0.3556 3.0254 -0.5335c 1.0958,6.2146 2.1916,12.4292 3.2874 18.6437c -1.0084,0.1778 -2.0169,0.3556 -3.0253 0.5334c 0.7657,4.3426 1.5314,8.6852 2.2971 13.0278c 1.0085,-0.1779 2.0169,-0.3557 3.0254 -0.5335c 0.2145,1.2164 0.4290,2.4329 0.6435 3.6493c 17.3326,-3.0562 34.6652,-6.1124 51.9978 -9.1686c -0.2145,-1.2164 -0.4290,-2.4329 -0.6435 -3.6493c 1.0084,-0.1779 2.0169,-0.3557 3.0254 -0.5335c -0.7658,-4.3426 -1.5315,-8.6852 -2.2972 -13.0277c -1.0084,0.1778 -2.0169,0.3556 -3.0254 0.5335c -1.0958,-6.2146 -2.1915,-12.4292 -3.2874 -18.6437c 1.0084,-0.1778 2.0169,-0.3556 3.0254 -0.5335c -0.7658,-4.3425 -1.5315,-8.6851 -2.2972 -13.0277c -1.0084,0.1779 -2.0169,0.3557 -3.0254 0.5335c -0.2145,-1.2164 -0.4290,-2.4329 -0.6434 -3.6493c -17.3326,3.0562 -34.6653,6.1124 -51.9978 9.1686c 0.2145,1.2164 0.4290,2.4329 0.6434 3.6493c -1.0084,0.1779 -2.0169,0.3557 -3.0253 0.5335ZM 400.9850,281.9186 c 0.7657,4.3426 1.5314,8.6852 2.2972 13.0277c 1.0084,-0.1778 2.0169,-0.3556 3.0253 -0.5334c 1.0958,6.2146 2.1916,12.4291 3.2874 18.6437c -1.0085,0.1778 -2.0169,0.3557 -3.0254 0.5335c 0.7657,4.3425 1.5314,8.6851 2.2972 13.0277c 1.0084,-0.1778 2.0169,-0.3557 3.0253 -0.5335c 0.2145,1.2164 0.4290,2.4329 0.6435 3.6493c 17.3326,-3.0562 34.6652,-6.1124 51.9978 -9.1686c -0.2145,-1.2164 -0.4290,-2.4329 -0.6435 -3.6493c 1.0084,-0.1778 2.0169,-0.3557 3.0254 -0.5335c -0.7657,-4.3426 -1.5315,-8.6851 -2.2972 -13.0277c -1.0084,0.1778 -2.0169,0.3557 -3.0253 0.5335c -1.0958,-6.2146 -2.1916,-12.4291 -3.2874 -18.6437c 1.0084,-0.1779 2.0169,-0.3557 3.0254 -0.5335c -0.7657,-4.3426 -1.5315,-8.6852 -2.2972 -13.0277c -1.0084,0.1778 -2.0169,0.3556 -3.0253 0.5334c -0.2145,-1.2164 -0.4290,-2.4329 -0.6435 -3.6493c -17.3326,3.0562 -34.6652,6.1124 -51.9978 9.1686c 0.2145,1.2164 0.4290,2.4329 0.6434 3.6494c -1.0084,0.1778 -2.0169,0.3556 -3.0253 0.5334ZM 413.4549,352.6386 c 0.7657,4.3425 1.5315,8.6851 2.2972 13.0277c 1.0084,-0.1778 2.0169,-0.3557 3.0253 -0.5335c 1.0958,6.2146 2.1916,12.4291 3.2874 18.6437c -1.0084,0.1779 -2.0169,0.3557 -3.0254 0.5335c 0.7657,4.3426 1.5315,8.6852 2.2972 13.0277c 1.0084,-0.1778 2.0169,-0.3556 3.0253 -0.5335c 0.2145,1.2164 0.4290,2.4329 0.6435 3.6494c 17.3326,-3.0562 34.6652,-6.1124 51.9978 -9.1686c -0.2145,-1.2165 -0.4290,-2.4329 -0.6434 -3.6494c 1.0084,-0.1778 2.0169,-0.3556 3.0253 -0.5335c -0.7657,-4.3425 -1.5314,-8.6851 -2.2972 -13.0277c -1.0084,0.1779 -2.0169,0.3557 -3.0253 0.5335c -1.0958,-6.2146 -2.1916,-12.4291 -3.2874 -18.6437c 1.0084,-0.1778 2.0169,-0.3557 3.0253 -0.5335c -0.7657,-4.3426 -1.5314,-8.6851 -2.2972 -13.0277c -1.0084,0.1778 -2.0169,0.3556 -3.0253 0.5335c -0.2145,-1.2164 -0.4290,-2.4329 -0.6435 -3.6494c -17.3326,3.0562 -34.6652,6.1124 -51.9978 9.1687c 0.2145,1.2164 0.4290,2.4329 0.6435 3.6493c -1.0084,0.1778 -2.0169,0.3556 -3.0254 0.5335ZM 434.9518,61.0107 c 0.7657,4.3426 1.5314,8.6852 2.2971 13.0277c 1.0084,-0.1778 2.0169,-0.3556 3.0254 -0.5334c 1.0958,6.2146 2.1916,12.4291 3.2874 18.6437c -1.0084,0.1778 -2.0169,0.3556 -3.0253 0.5335c 0.7657,4.3425 1.5314,8.6851 2.2971 13.0277c 1.0084,-0.1778 2.0169,-0.3557 3.0254 -0.5335c 0.2145,1.2164 0.4290,2.4329 0.6434 3.6493c 17.3326,-3.0562 34.6653,-6.1124 51.9979 -9.1686c -0.2145,-1.2164 -0.4290,-2.4329 -0.6435 -3.6493c 1.0084,-0.1778 2.0169,-0.3557 3.0254 -0.5335c -0.7658,-4.3426 -1.5315,-8.6852 -2.2972 -13.0277c -1.0084,0.1778 -2.0169,0.3556 -3.0254 0.5335c -1.0958,-6.2146 -2.1916,-12.4291 -3.2874 -18.6437c 1.0084,-0.1779 2.0169,-0.3557 3.0253 -0.5335c -0.7657,-4.3426 -1.5314,-8.6852 -2.2971 -13.0278c -1.0084,0.1779 -2.0169,0.3557 -3.0254 0.5335c -0.2145,-1.2164 -0.4290,-2.4329 -0.6434 -3.6493c -17.3326,3.0562 -34.6653,6.1124 -51.9979 9.1686c 0.2145,1.2164 0.4290,2.4329 0.6435 3.6493c -1.0084,0.1779 -2.0169,0.3557 -3.0253 0.5335ZM 447.4217,131.7307 c 0.7657,4.3425 1.5314,8.6851 2.2971 13.0277c 1.0085,-0.1779 2.0169,-0.3557 3.0254 -0.5335c 1.0958,6.2146 2.1916,12.4291 3.2874 18.6437c -1.0084,0.1778 -2.0169,0.3557 -3.0253 0.5335c 0.7657,4.3426 1.5314,8.6851 2.2971 13.0277c 1.0085,-0.1778 2.0169,-0.3556 3.0254 -0.5335c 0.2145,1.2164 0.4290,2.4329 0.6435 3.6494c 17.3326,-3.0562 34.6652,-6.1124 51.9978 -9.1687c -0.2145,-1.2164 -0.4290,-2.4329 -0.6435 -3.6493c 1.0084,-0.1778 2.0169,-0.3556 3.0254 -0.5335c -0.7658,-4.3425 -1.5315,-8.6851 -2.2972 -13.0277c -1.0084,0.1778 -2.0169,0.3557 -3.0253 0.5335c -1.0958,-6.2146 -2.1916,-12.4291 -3.2874 -18.6437c 1.0084,-0.1778 2.0169,-0.3557 3.0254 -0.5335c -0.7658,-4.3426 -1.5315,-8.6852 -2.2972 -13.0277c -1.0084,0.1778 -2.0169,0.3556 -3.0254 0.5335c -0.2145,-1.2164 -0.4290,-2.4329 -0.6434 -3.6494c -17.3326,3.0562 -34.6653,6.1124 -51.9978 9.1686c 0.2145,1.2165 0.4290,2.4329 0.6434 3.6494c -1.0084,0.1778 -2.0169,0.3556 -3.0253 0.5335ZM 459.8915,202.4508 c 0.7657,4.3426 1.5314,8.6851 2.2972 13.0277c 1.0084,-0.1778 2.0169,-0.3556 3.0253 -0.5335c 1.0958,6.2146 2.1916,12.4291 3.2874 18.6437c -1.0085,0.1779 -2.0169,0.3557 -3.0254 0.5335c 0.7657,4.3426 1.5314,8.6852 2.2972 13.0277c 1.0084,-0.1778 2.0169,-0.3556 3.0253 -0.5334c 0.2145,1.2164 0.4290,2.4329 0.6435 3.6493c 17.3326,-3.0562 34.6652,-6.1124 51.9978 -9.1686c -0.2145,-1.2164 -0.4290,-2.4329 -0.6435 -3.6493c 1.0084,-0.1779 2.0169,-0.3557 3.0254 -0.5335c -0.7657,-4.3426 -1.5315,-8.6852 -2.2972 -13.0277c -1.0084,0.1778 -2.0169,0.3556 -3.0253 0.5334c -1.0958,-6.2146 -2.1916,-12.4291 -3.2874 -18.6437c 1.0085,-0.1778 2.0169,-0.3556 3.0254 -0.5335c -0.7657,-4.3425 -1.5315,-8.6851 -2.2972 -13.0277c -1.0084,0.1778 -2.0169,0.3557 -3.0253 0.5335c -0.2145,-1.2164 -0.4290,-2.4329 -0.6435 -3.6493c -17.3326,3.0562 -34.6652,6.1124 -51.9978 9.1686c 0.2145,1.2164 0.4290,2.4329 0.6434 3.6493c -1.0084,0.1778 -2.0169,0.3557 -3.0253 0.5335ZM 472.3614,273.1708 c 0.7657,4.3426 1.5315,8.6852 2.2972 13.0277c 1.0084,-0.1778 2.0169,-0.3556 3.0253 -0.5334c 1.0958,6.2146 2.1916,12.4291 3.2874 18.6437c -1.0084,0.1778 -2.0169,0.3556 -3.0254 0.5335c 0.7657,4.3425 1.5315,8.6851 2.2972 13.0277c 1.0084,-0.1779 2.0169,-0.3557 3.0253 -0.5335c 0.2145,1.2164 0.4290,2.4329 0.6435 3.6493c 17.3326,-3.0562 34.6652,-6.1124 51.9978 -9.1686c -0.2145,-1.2164 -0.4290,-2.4329 -0.6434 -3.6493c 1.0084,-0.1778 2.0169,-0.3557 3.0253 -0.5335c -0.7657,-4.3426 -1.5314,-8.6851 -2.2972 -13.0277c -1.0084,0.1778 -2.0169,0.3556 -3.0253 0.5335c -1.0958,-6.2146 -2.1916,-12.4291 -3.2874 -18.6437c 1.0084,-0.1778 2.0169,-0.3556 3.0253 -0.5334c -0.7657,-4.3426 -1.5314,-8.6852 -2.2972 -13.0278c -1.0084,0.1779 -2.0169,0.3557 -3.0253 0.5335c -0.2145,-1.2164 -0.4290,-2.4329 -0.6435 -3.6493c -17.3326,3.0562 -34.6652,6.1124 -51.9978 9.1686c 0.2145,1.2164 0.4290,2.4329 0.6435 3.6493c -1.0084,0.1779 -2.0169,0.3557 -3.0254 0.5335ZM 484.8312,343.8909 c 0.7658,4.3425 1.5315,8.6851 2.2972 13.0277c 1.0084,-0.1779 2.0169,-0.3557 3.0254 -0.5335c 1.0958,6.2146 2.1915,12.4291 3.2874 18.6437c -1.0084,0.1778 -2.0169,0.3557 -3.0254 0.5335c 0.7658,4.3426 1.5315,8.6851 2.2972 13.0277c 1.0084,-0.1778 2.0169,-0.3556 3.0254 -0.5335c 0.2145,1.2164 0.4290,2.4329 0.6434 3.6493c 17.3326,-3.0562 34.6653,-6.1124 51.9978 -9.1686c -0.2145,-1.2165 -0.4290,-2.4329 -0.6434 -3.6494c 1.0084,-0.1778 2.0169,-0.3556 3.0253 -0.5335c -0.7657,-4.3425 -1.5314,-8.6851 -2.2971 -13.0277c -1.0084,0.1778 -2.0169,0.3557 -3.0254 0.5335c -1.0958,-6.2146 -2.1916,-12.4291 -3.2874 -18.6437c 1.0084,-0.1779 2.0169,-0.3557 3.0253 -0.5335c -0.7657,-4.3426 -1.5314,-8.6852 -2.2971 -13.0277c -1.0084,0.1778 -2.0169,0.3556 -3.0254 0.5335c -0.2145,-1.2165 -0.4290,-2.4329 -0.6435 -3.6494c -17.3326,3.0562 -34.6652,6.1124 -51.9978 9.1686c 0.2145,1.2164 0.4290,2.4329 0.6435 3.6494c -1.0084,0.1778 -2.0169,0.3556 -3.0254 0.5335ZM 507.6883,24.1259 c 0.0000,3.1311 2.5382,5.6693 5.6693 5.6693c 3.1311,-0.0000 5.6693,-2.5383 5.6693 -5.6693c 0.0000,-3.1310 -2.5382,-5.6693 -5.6693 -5.6693c -3.1311,-0.0000 -5.6693,2.5383 -5.6693 5.6693ZM 573.6314,390.5490 c 0.0000,3.1311 2.5382,5.6693 5.6693 5.6693c 3.1311,-0.0000 5.6693,-2.5383 5.6693 -5.6693c 0.0000,-3.1310 -2.5382,-5.6693 -5.6693 -5.6693c -3.1311,-0.0000 -5.6693,2.5383 -5.6693 5.6693Z"/></g><g stroke-linejoin="miter" stroke-opacity="1.0" fill-opacity="0.5" stroke="rgb(0,0,0)" stroke-width="0.37795275590551186" fill="rgb(0,0,255)" stroke-linecap="butt" stroke-miterlimit="10.0"><path d="M 3.9685,20.3464 c 0.0000,-9.0453 7.3326,-16.3779 16.3779 -16.3779c 165.5969,-0.0000 331.1938,-0.0000 496.7907 -0.0000c 7.9481,-0.0000 14.7490,5.7066 16.1292 13.5339c 21.9810,124.6607 43.9621,249.3214 65.9431 373.9821c 0.1693,0.9599 0.2511,1.9159 0.2511 2.8596c 0.0000,7.4654 -5.1229,14.1606 -12.6286 15.9269c -139.1906,32.7545 -278.3811,65.5089 -417.5716 98.2633c -1.2296,0.2893 -2.4885,0.4354 -3.7516 0.4354c -48.3874,-0.0000 -96.7748,-0.0000 -145.1622 -0.0000c -9.0453,-0.0000 -16.3779,-7.3326 -16.3779 -16.3779c 0.0000,-157.4151 0.0000,-314.8302 -0.0000 -472.2453ZM 41.6023,377.7928 c 0.0000,0.2179 0.0189,0.4388 0.0581 0.6607c 4.3141,24.4666 8.6283,48.9333 12.9424 73.4000c 0.3625,2.0557 2.3227,3.4283 4.3784 3.0658c 22.3326,-3.9378 44.6653,-7.8757 66.9979 -11.8135c 1.8595,10.5460 3.7191,21.0919 5.5786 31.6379c 0.3625,2.0557 2.3227,3.4283 4.3784 3.0658c 24.4667,-4.3141 48.9333,-8.6283 73.4000 -12.9424c 1.8337,-0.3233 3.1239,-1.9180 3.1239 -3.7177c 0.0000,-0.2179 -0.0189,-0.4388 -0.0581 -0.6607c -0.8750,-4.9628 -1.7501,-9.9256 -2.6252 -14.8884c 22.3327,-3.9379 44.6653,-7.8757 66.9980 -11.8136c 1.8337,-0.3233 3.1238,-1.9180 3.1238 -3.7177c 0.0000,-0.2178 -0.0189,-0.4387 -0.0580 -0.6607c -1.0939,-6.2035 -2.1877,-12.4070 -3.2816 -18.6105c 20.1986,-3.5615 40.3973,-7.1231 60.5959 -10.6847c 0.8750,4.9628 1.7501,9.9256 2.6252 14.8884c 0.3625,2.0557 2.3228,3.4283 4.3784 3.0658c 22.3327,-3.9379 44.6653,-7.8757 66.9980 -11.8135c 0.4375,2.4814 0.8750,4.9628 1.3126 7.4442c 0.3625,2.0557 2.3227,3.4283 4.3784 3.0658c 22.3326,-3.9379 44.6653,-7.8757 66.9979 -11.8135c 0.3625,2.0557 2.3227,3.4283 4.3784 3.0658c 24.4666,-4.3141 48.9333,-8.6283 73.4000 -12.9424c 1.8337,-0.3234 3.1238,-1.9180 3.1238 -3.7177c 0.0000,-0.2179 -0.0189,-0.4388 -0.0580 -0.6607c -4.1566,-23.5734 -8.3132,-47.1467 -12.4698 -70.7200c -0.1575,-0.8933 -0.3151,-1.7867 -0.4725 -2.6799c -3.9991,-22.6800 -7.9982,-45.3601 -11.9973 -68.0401c -0.1575,-0.8933 -0.3150,-1.7866 -0.4725 -2.6799c -3.9991,-22.6801 -7.9982,-45.3601 -11.9973 -68.0401c -0.1575,-0.8933 -0.3150,-1.7866 -0.4725 -2.6799c -3.9991,-22.6800 -7.9982,-45.3601 -11.9973 -68.0401c -0.1575,-0.8933 -0.3150,-1.7867 -0.4725 -2.6799c -4.1566,-23.5734 -8.3132,-47.1467 -12.4698 -70.7200c -0.3625,-2.0557 -2.3227,-3.4283 -4.3784 -3.0658c -22.3327,3.9378 -44.6653,7.8757 -66.9979 11.8135c -0.3625,-2.0557 -2.3227,-3.4283 -4.3784 -3.0658c -22.3327,3.9378 -44.6653,7.8757 -66.9980 11.8135c -0.4375,-2.4814 -0.8750,-4.9628 -1.3126 -7.4442c -0.3625,-2.0557 -2.3228,-3.4283 -4.3784 -3.0658c -22.3327,3.9378 -44.6653,7.8757 -66.9980 11.8135c -0.8750,-4.9628 -1.7501,-9.9256 -2.6252 -14.8884c -0.3625,-2.0557 -2.3227,-3.4283 -4.3784 -3.0658c -24.4666,4.3141 -48.9333,8.6283 -73.3999 12.9424c -1.8337,0.3233 -3.1239,1.9180 -3.1239 3.7177c 0.0000,0.2178 0.0189,0.4387 0.0580 0.6607c 1.0939,6.2035 2.1877,12.4070 3.2816 18.6105c -22.3326,3.9379 -44.6653,7.8757 -66.9979 11.8135c -1.8337,0.3234 -3.1239,1.9180 -3.1239 3.7177c 0.0000,0.2179 0.0189,0.4388 0.0581 0.6607c 0.8751,4.9628 1.7501,9.9256 2.6252 14.8884c -22.3327,3.9379 -44.6653,7.8757 -66.9980 11.8136c -1.8337,0.3233 -3.1238,1.9180 -3.1238 3.7177c 0.0000,0.2178 0.0189,0.4387 0.0580 0.6607c 4.1566,23.5734 8.3132,47.1467 12.4699 70.7200c 0.1575,0.8933 0.3150,1.7866 0.4725 2.6799c 3.9991,22.6800 7.9982,45.3601 11.9973 68.0401c 0.1575,0.8933 0.3150,1.7866 0.4725 2.6799c 3.9991,22.6800 7.9982,45.3601 11.9973 68.0401c 0.1575,0.8933 0.3150,1.7866 0.4725 2.6799c 1.7020,9.6526 3.4041,19.3053 5.1061 28.9580c -22.3326,3.9379 -44.6653,7.8757 -66.9979 11.8135c -1.8337,0.3234 -3.1239,1.9180 -3.1239 3.7177ZM 90.2677,24.1259 c 0.0000,3.1311 2.5383,5.6693 5.6693 5.6693c 3.1310,-0.0000 5.6693,-2.5383 5.6693 -5.6693c 0.0000,-3.1310 -2.5383,-5.6693 -5.6693 -5.6693c -3.1311,-0.0000 -5.6693,2.5383 -5.6693 5.6693ZM 159.8394,488.8122 c 0.0000,3.1311 2.5383,5.6693 5.6693 5.6693c 3.1311,-0.0000 5.6693,-2.5383 5.6693 -5.6693c 0.0000,-3.1311 -2.5382,-5.6693 -5.6693 -5.6693c -3.1311,-0.0000 -5.6693,2.5382 -5.6693 5.6693ZM 507.6883,24.1259 c 0.0000,3.1311 2.5382,5.6693 5.6693 5.6693c 3.1311,-0.0000 5.6693,-2.5383 5.6693 -5.6693c 0.0000,-3.1310 -2.5382,-5.6693 -5.6693 -5.6693c -3.1311,-0.0000 -5.6693,2.5383 -5.6693 5.6693ZM 573.6314,390.5490 c 0.0000,3.1311 2.5382,5.6693 5.6693 5.6693c 3.1311,-0.0000 5.6693,-2.5383 5.6693 -5.6693c 0.0000,-3.1310 -2.5382,-5.6693 -5.6693 -5.6693c -3.1311,-0.0000 -5.6693,2.5383 -5.6693 5.6693Z"/></g><g stroke-linejoin="miter" stroke-opacity="1.0" fill-opacity="0.7" stroke="rgb(0,0,0)" stroke-width="0.37795275590551186" fill="rgb(0,0,0)" stroke-linecap="butt" stroke-miterlimit="10.0"><path d="M 128.1136,429.2010 l -9.6280,-54.6033 c -0.7249,-4.1113 -4.6455,-6.8565 -8.7568 -6.1316l -54.6033,9.6280 c -4.1113,0.7249 -6.8565,4.6455 -6.1316 8.7568l 9.6280,54.6033 c 0.7249,4.1113 4.6455,6.8565 8.7568 6.1316l 54.6033,-9.6280 c 4.1113,-0.7249 6.8565,-4.6455 6.1316 -8.7568Z"/></g><defs><linearGradient x2="5.0000" y1="0.0000" gradientUnits="userSpaceOnUse" spreadMethod="pad" gradientTransform="matrix(3.7221,-0.6563,-0.6563,-3.7221,88.5537,408.0260)" id="gradient10" y2="0.0000" x1="-5.0000"><stop stop-opacity="0.1000" offset="0.0000" stop-color="rgb(0,0,0)"/><stop stop-opacity="0.1000" offset="0.5000" stop-color="rgb(255,255,255)"/><stop stop-opacity="0.1000" offset="1.0000" stop-color="rgb(0,0,0)"/></linearGradient></defs><g stroke-linejoin="miter" stroke-opacity="1.0" fill-opacity="1" stroke="rgb(0,0,0)" stroke-width="0.37795275590551186" fill="url(#gradient10)" stroke-linecap="butt" stroke-miterlimit="10.0"><path d="M 115.6351,420.4635 l -5.8871,-33.3873 c -0.7249,-4.1113 -4.6455,-6.8565 -8.7568 -6.1316l -33.3873,5.8871 c -4.1113,0.7249 -6.8565,4.6455 -6.1316 8.7568l 5.8871,33.3873 c 0.7249,4.1113 4.6455,6.8565 8.7568 6.1316l 33.3873,-5.8871 c 4.1113,-0.7249 6.8565,-4.6455 6.1316 -8.7568Z"/></g><g stroke-linejoin="miter" stroke-opacity="1.0" fill-opacity="0.7" stroke="rgb(0,0,0)" stroke-width="0.37795275590551186" fill="rgb(0,0,0)" stroke-linecap="butt" stroke-miterlimit="10.0"><path d="M 507.4768,99.4175 l -9.6280,-54.6033 c -0.7249,-4.1113 -4.6455,-6.8565 -8.7568 -6.1316l -54.6033,9.6280 c -4.1113,0.7249 -6.8565,4.6455 -6.1316 8.7568l 9.6280,54.6033 c 0.7249,4.1113 4.6455,6.8565 8.7568 6.1316l 54.6033,-9.6280 c 4.1113,-0.7249 6.8565,-4.6455 6.1316 -8.7568Z"/></g><defs><linearGradient x2="5.0000" y1="0.0000" gradientUnits="userSpaceOnUse" spreadMethod="pad" gradientTransform="matrix(3.7221,-0.6563,-0.6563,-3.7221,467.9169,78.2425)" id="gradient14" y2="0.0000" x1="-5.0000"><stop stop-opacity="0.1000" offset="0.0000" stop-color="rgb(0,0,0)"/><stop stop-opacity="0.1000" offset="0.5000" stop-color="rgb(255,255,255)"/><stop stop-opacity="0.1000" offset="1.0000" stop-color="rgb(0,0,0)"/></linearGradient></defs><g stroke-linejoin="miter" stroke-opacity="1.0" fill-opacity="1" stroke="rgb(0,0,0)" stroke-width="0.37795275590551186" fill="url(#gradient14)" stroke-linecap="butt" stroke-miterlimit="10.0"><path d="M 494.9983,90.6800 l -5.8871,-33.3873 c -0.7249,-4.1113 -4.6455,-6.8565 -8.7568 -6.1316l -33.3873,5.8871 c -4.1113,0.7249 -6.8565,4.6455 -6.1316 8.7568l 5.8871,33.3873 c 0.7249,4.1113 4.6455,6.8565 8.7568 6.1316l 33.3873,-5.8871 c 4.1113,-0.7249 6.8565,-4.6455 6.1316 -8.7568Z"/></g><g stroke-linejoin="miter" stroke-opacity="1.0" fill-opacity="0.7" stroke="rgb(0,0,0)" stroke-width="0.37795275590551186" fill="rgb(0,0,0)" stroke-linecap="butt" stroke-miterlimit="10.0"><path d="M 519.9466,170.1376 l -9.6280,-54.6033 c -0.7249,-4.1113 -4.6455,-6.8565 -8.7568 -6.1316l -54.6033,9.6280 c -4.1113,0.7249 -6.8565,4.6455 -6.1316 8.7568l 9.6280,54.6033 c 0.7249,4.1113 4.6455,6.8565 8.7568 6.1316l 54.6033,-9.6280 c 4.1113,-0.7249 6.8565,-4.6455 6.1316 -8.7568Z"/></g><defs><linearGradient x2="5.0000" y1="0.0000" gradientUnits="userSpaceOnUse" spreadMethod="pad" gradientTransform="matrix(3.7221,-0.6563,-0.6563,-3.7221,480.3868,148.9625)" id="gradient18" y2="0.0000" x1="-5.0000"><stop stop-opacity="0.1000" offset="0.0000" stop-color="rgb(0,0,0)"/><stop stop-opacity="0.1000" offset="0.5000" stop-color="rgb(255,255,255)"/><stop stop-opacity="0.1000" offset="1.0000" stop-color="rgb(0,0,0)"/></linearGradient></defs><g stroke-linejoin="miter" stroke-opacity="1.0" fill-opacity="1" stroke="rgb(0,0,0)" stroke-width="0.37795275590551186" fill="url(#gradient18)" stroke-linecap="butt" stroke-miterlimit="10.0"><path d="M 507.4682,161.4000 l -5.8871,-33.3873 c -0.7249,-4.1113 -4.6455,-6.8565 -8.7568 -6.1316l -33.3873,5.8871 c -4.1113,0.7249 -6.8565,4.6455 -6.1316 8.7568l 5.8871,33.3873 c 0.7249,4.1113 4.6455,6.8565 8.7568 6.1316l 33.3873,-5.8871 c 4.1113,-0.7249 6.8565,-4.6455 6.1316 -8.7568Z"/></g><g stroke-linejoin="miter" stroke-opacity="1.0" fill-opacity="0.7" stroke="rgb(0,0,0)" stroke-width="0.37795275590551186" fill="rgb(0,0,0)" stroke-linecap="butt" stroke-miterlimit="10.0"><path d="M 532.4165,240.8576 l -9.6280,-54.6033 c -0.7249,-4.1113 -4.6455,-6.8565 -8.7568 -6.1316l -54.6033,9.6280 c -4.1113,0.7249 -6.8565,4.6455 -6.1316 8.7568l 9.6280,54.6033 c 0.7249,4.1113 4.6455,6.8565 8.7568 6.1316l 54.6033,-9.6280 c 4.1113,-0.7249 6.8565,-4.6455 6.1316 -8.7568Z"/></g><defs><linearGradient x2="5.0000" y1="0.0000" gradientUnits="userSpaceOnUse" spreadMethod="pad" gradientTransform="matrix(3.7221,-0.6563,-0.6563,-3.7221,492.8566,219.6826)" id="gradient22" y2="0.0000" x1="-5.0000"><stop stop-opacity="0.1000" offset="0.0000" stop-color="rgb(0,0,0)"/><stop stop-opacity="0.1000" offset="0.5000" stop-color="rgb(255,255,255)"/><stop stop-opacity="0.1000" offset="1.0000" stop-color="rgb(0,0,0)"/></linearGradient></defs><g stroke-linejoin="miter" stroke-opacity="1.0" fill-opacity="1" stroke="rgb(0,0,0)" stroke-width="0.37795275590551186" fill="url(#gradient22)" stroke-linecap="butt" stroke-miterlimit="10.0"><path d="M 519.9380,232.1201 l -5.8871,-33.3873 c -0.7249,-4.1113 -4.6455,-6.8565 -8.7568 -6.1316l -33.3873,5.8871 c -4.1113,0.7249 -6.8565,4.6455 -6.1316 8.7568l 5.8871,33.3873 c 0.7249,4.1113 4.6455,6.8565 8.7568 6.1316l 33.3873,-5.8871 c 4.1113,-0.7249 6.8565,-4.6455 6.1316 -8.7568Z"/></g><g stroke-linejoin="miter" stroke-opacity="1.0" fill-opacity="0.7" stroke="rgb(0,0,0)" stroke-width="0.37795275590551186" fill="rgb(0,0,0)" stroke-linecap="butt" stroke-miterlimit="10.0"><path d="M 544.8864,311.5777 l -9.6280,-54.6033 c -0.7249,-4.1113 -4.6455,-6.8565 -8.7568 -6.1316l -54.6033,9.6280 c -4.1113,0.7249 -6.8565,4.6455 -6.1316 8.7568l 9.6280,54.6033 c 0.7249,4.1113 4.6455,6.8565 8.7568 6.1316l 54.6033,-9.6280 c 4.1113,-0.7249 6.8565,-4.6455 6.1316 -8.7568Z"/></g><defs><linearGradient x2="5.0000" y1="0.0000" gradientUnits="userSpaceOnUse" spreadMethod="pad" gradientTransform="matrix(3.7221,-0.6563,-0.6563,-3.7221,505.3265,290.4026)" id="gradient26" y2="0.0000" x1="-5.0000"><stop stop-opacity="0.1000" offset="0.0000" stop-color="rgb(0,0,0)"/><stop stop-opacity="0.1000" offset="0.5000" stop-color="rgb(255,255,255)"/><stop stop-opacity="0.1000" offset="1.0000" stop-color="rgb(0,0,0)"/></linearGradient></defs><g stroke-linejoin="miter" stroke-opacity="1.0" fill-opacity="1" stroke="rgb(0,0,0)" stroke-width="0.37795275590551186" fill="url(#gradient26)" stroke-linecap="butt" stroke-miterlimit="10.0"><path d="M 532.4079,302.8401 l -5.8871,-33.3873 c -0.7249,-4.1113 -4.6455,-6.8565 -8.7568 -6.1316l -33.3873,5.8871 c -4.1113,0.7249 -6.8565,4.6455 -6.1316 8.7568l 5.8871,33.3873 c 0.7249,4.1113 4.6455,6.8565 8.7568 6.1316l 33.3873,-5.8871 c 4.1113,-0.7249 6.8565,-4.6455 6.1316 -8.7568Z"/></g><g stroke-linejoin="miter" stroke-opacity="1.0" fill-opacity="0.7" stroke="rgb(0,0,0)" stroke-width="0.37795275590551186" fill="rgb(0,0,0)" stroke-linecap="butt" stroke-miterlimit="10.0"><path d="M 557.3562,382.2977 l -9.6280,-54.6033 c -0.7249,-4.1113 -4.6455,-6.8565 -8.7568 -6.1316l -54.6033,9.6280 c -4.1113,0.7249 -6.8565,4.6455 -6.1316 8.7568l 9.6280,54.6033 c 0.7249,4.1113 4.6455,6.8565 8.7568 6.1316l 54.6033,-9.6280 c 4.1113,-0.7249 6.8565,-4.6455 6.1316 -8.7568Z"/></g><defs><linearGradient x2="5.0000" y1="0.0000" gradientUnits="userSpaceOnUse" spreadMethod="pad" gradientTransform="matrix(3.7221,-0.6563,-0.6563,-3.7221,517.7963,361.1227)" id="gradient30" y2="0.0000" x1="-5.0000"><stop stop-opacity="0.1000" offset="0.0000" stop-color="rgb(0,0,0)"/><stop stop-opacity="0.1000" offset="0.5000" stop-color="rgb(255,255,255)"/><stop stop-opacity="0.1000" offset="1.0000" stop-color="rgb(0,0,0)"/></linearGradient></defs><g stroke-linejoin="miter" stroke-opacity="1.0" fill-opacity="1" stroke="rgb(0,0,0)" stroke-width="0.37795275590551186" fill="url(#gradient30)" stroke-linecap="butt" stroke-miterlimit="10.0"><path d="M 544.8777,373.5602 l -5.8871,-33.3873 c -0.7249,-4.1113 -4.6455,-6.8565 -8.7568 -6.1316l -33.3873,5.8871 c -4.1113,0.7249 -6.8565,4.6455 -6.1316 8.7568l 5.8871,33.3873 c 0.7249,4.1113 4.6455,6.8565 8.7568 6.1316l 33.3873,-5.8871 c 4.1113,-0.7249 6.8565,-4.6455 6.1316 -8.7568Z"/></g><g stroke-linejoin="miter" stroke-opacity="1.0" fill-opacity="0.7" stroke="rgb(0,0,0)" stroke-width="0.37795275590551186" fill="rgb(0,0,0)" stroke-linecap="butt" stroke-miterlimit="10.0"><path d="M 436.1004,108.1653 l -9.6280,-54.6033 c -0.7249,-4.1113 -4.6455,-6.8565 -8.7568 -6.1316l -54.6033,9.6280 c -4.1113,0.7249 -6.8565,4.6455 -6.1316 8.7568l 9.6280,54.6033 c 0.7249,4.1113 4.6455,6.8565 8.7568 6.1316l 54.6033,-9.6280 c 4.1113,-0.7249 6.8565,-4.6455 6.1316 -8.7568Z"/></g><defs><linearGradient x2="5.0000" y1="0.0000" gradientUnits="userSpaceOnUse" spreadMethod="pad" gradientTransform="matrix(3.7221,-0.6563,-0.6563,-3.7221,396.5405,86.9902)" id="gradient34" y2="0.0000" x1="-5.0000"><stop stop-opacity="0.1000" offset="0.0000" stop-color="rgb(0,0,0)"/><stop stop-opacity="0.1000" offset="0.5000" stop-color="rgb(255,255,255)"/><stop stop-opacity="0.1000" offset="1.0000" stop-color="rgb(0,0,0)"/></linearGradient></defs><g stroke-linejoin="miter" stroke-opacity="1.0" fill-opacity="1" stroke="rgb(0,0,0)" stroke-width="0.37795275590551186" fill="url(#gradient34)" stroke-linecap="butt" stroke-miterlimit="10.0"><path d="M 423.6219,99.4277 l -5.8871,-33.3873 c -0.7249,-4.1113 -4.6455,-6.8565 -8.7568 -6.1316l -33.3873,5.8871 c -4.1113,0.7249 -6.8565,4.6455 -6.1316 8.7568l 5.8871,33.3873 c 0.7249,4.1113 4.6455,6.8565 8.7568 6.1316l 33.3873,-5.8871 c 4.1113,-0.7249 6.8565,-4.6455 6.1316 -8.7568Z"/></g><g stroke-linejoin="miter" stroke-opacity="1.0" fill-opacity="0.7" stroke="rgb(0,0,0)" stroke-width="0.37795275590551186" fill="rgb(0,0,0)" stroke-linecap="butt" stroke-miterlimit="10.0"><path d="M 448.5703,178.8853 l -9.6280,-54.6033 c -0.7249,-4.1113 -4.6455,-6.8565 -8.7568 -6.1316l -54.6033,9.6280 c -4.1113,0.7249 -6.8565,4.6455 -6.1316 8.7568l 9.6280,54.6033 c 0.7249,4.1113 4.6455,6.8565 8.7568 6.1316l 54.6033,-9.6280 c 4.1113,-0.7249 6.8565,-4.6455 6.1316 -8.7568Z"/></g><defs><linearGradient x2="5.0000" y1="0.0000" gradientUnits="userSpaceOnUse" spreadMethod="pad" gradientTransform="matrix(3.7221,-0.6563,-0.6563,-3.7221,409.0104,157.7103)" id="gradient38" y2="0.0000" x1="-5.0000"><stop stop-opacity="0.1000" offset="0.0000" stop-color="rgb(0,0,0)"/><stop stop-opacity="0.1000" offset="0.5000" stop-color="rgb(255,255,255)"/><stop stop-opacity="0.1000" offset="1.0000" stop-color="rgb(0,0,0)"/></linearGradient></defs><g stroke-linejoin="miter" stroke-opacity="1.0" fill-opacity="1" stroke="rgb(0,0,0)" stroke-width="0.37795275590551186" fill="url(#gradient38)" stroke-linecap="butt" stroke-miterlimit="10.0"><path d="M 436.0918,170.1478 l -5.8871,-33.3873 c -0.7249,-4.1113 -4.6455,-6.8565 -8.7568 -6.1316l -33.3873,5.8871 c -4.1113,0.7249 -6.8565,4.6455 -6.1316 8.7568l 5.8871,33.3873 c 0.7249,4.1113 4.6455,6.8565 8.7568 6.1316l 33.3873,-5.8871 c 4.1113,-0.7249 6.8565,-4.6455 6.1316 -8.7568Z"/></g><g stroke-linejoin="miter" stroke-opacity="1.0" fill-opacity="0.7" stroke="rgb(0,0,0)" stroke-width="0.37795275590551186" fill="rgb(0,0,0)" stroke-linecap="butt" stroke-miterlimit="10.0"><path d="M 461.0401,249.6054 l -9.6280,-54.6033 c -0.7249,-4.1113 -4.6455,-6.8565 -8.7568 -6.1316l -54.6033,9.6280 c -4.1113,0.7249 -6.8565,4.6455 -6.1316 8.7568l 9.6280,54.6033 c 0.7249,4.1113 4.6455,6.8565 8.7568 6.1316l 54.6033,-9.6280 c 4.1113,-0.7249 6.8565,-4.6455 6.1316 -8.7568Z"/></g><defs><linearGradient x2="5.0000" y1="0.0000" gradientUnits="userSpaceOnUse" spreadMethod="pad" gradientTransform="matrix(3.7221,-0.6563,-0.6563,-3.7221,421.4802,228.4303)" id="gradient42" y2="0.0000" x1="-5.0000"><stop stop-opacity="0.1000" offset="0.0000" stop-color="rgb(0,0,0)"/><stop stop-opacity="0.1000" offset="0.5000" stop-color="rgb(255,255,255)"/><stop stop-opacity="0.1000" offset="1.0000" stop-color="rgb(0,0,0)"/></linearGradient></defs><g stroke-linejoin="miter" stroke-opacity="1.0" fill-opacity="1" stroke="rgb(0,0,0)" stroke-width="0.37795275590551186" fill="url(#gradient42)" stroke-linecap="butt" stroke-miterlimit="10.0"><path d="M 448.5617,240.8678 l -5.8871,-33.3873 c -0.7249,-4.1113 -4.6455,-6.8565 -8.7568 -6.1316l -33.3873,5.8871 c -4.1113,0.7249 -6.8565,4.6455 -6.1316 8.7568l 5.8871,33.3873 c 0.7249,4.1113 4.6455,6.8565 8.7568 6.1316l 33.3873,-5.8871 c 4.1113,-0.7249 6.8565,-4.6455 6.1316 -8.7568Z"/></g><g stroke-linejoin="miter" stroke-opacity="1.0" fill-opacity="0.7" stroke="rgb(0,0,0)" stroke-width="0.37795275590551186" fill="rgb(0,0,0)" stroke-linecap="butt" stroke-miterlimit="10.0"><path d="M 473.5100,320.3254 l -9.6280,-54.6033 c -0.7249,-4.1113 -4.6455,-6.8565 -8.7568 -6.1316l -54.6033,9.6280 c -4.1113,0.7249 -6.8565,4.6455 -6.1316 8.7568l 9.6280,54.6033 c 0.7249,4.1113 4.6455,6.8565 8.7568 6.1316l 54.6033,-9.6280 c 4.1113,-0.7249 6.8565,-4.6455 6.1316 -8.7568Z"/></g><defs><linearGradient x2="5.0000" y1="0.0000" gradientUnits="userSpaceOnUse" spreadMethod="pad" gradientTransform="matrix(3.7221,-0.6563,-0.6563,-3.7221,433.9501,299.1504)" id="gradient46" y2="0.0000" x1="-5.0000"><stop stop-opacity="0.1000" offset="0.0000" stop-color="rgb(0,0,0)"/><stop stop-opacity="0.1000" offset="0.5000" stop-color="rgb(255,255,255)"/><stop stop-opacity="0.1000" offset="1.0000" stop-color="rgb(0,0,0)"/></linearGradient></defs><g stroke-linejoin="miter" stroke-opacity="1.0" fill-opacity="1" stroke="rgb(0,0,0)" stroke-width="0.37795275590551186" fill="url(#gradient46)" stroke-linecap="butt" stroke-miterlimit="10.0"><path d="M 461.0315,311.5879 l -5.8871,-33.3873 c -0.7249,-4.1113 -4.6455,-6.8565 -8.7568 -6.1316l -33.3873,5.8871 c -4.1113,0.7249 -6.8565,4.6455 -6.1316 8.7568l 5.8871,33.3873 c 0.7249,4.1113 4.6455,6.8565 8.7568 6.1316l 33.3873,-5.8871 c 4.1113,-0.7249 6.8565,-4.6455 6.1316 -8.7568Z"/></g><g stroke-linejoin="miter" stroke-opacity="1.0" fill-opacity="0.7" stroke="rgb(0,0,0)" stroke-width="0.37795275590551186" fill="rgb(0,0,0)" stroke-linecap="butt" stroke-miterlimit="10.0"><path d="M 485.9798,391.0455 l -9.6280,-54.6033 c -0.7249,-4.1113 -4.6455,-6.8565 -8.7568 -6.1316l -54.6033,9.6280 c -4.1113,0.7249 -6.8565,4.6455 -6.1316 8.7568l 9.6280,54.6033 c 0.7249,4.1113 4.6455,6.8565 8.7568 6.1316l 54.6033,-9.6280 c 4.1113,-0.7249 6.8565,-4.6455 6.1316 -8.7568Z"/></g><defs><linearGradient x2="5.0000" y1="0.0000" gradientUnits="userSpaceOnUse" spreadMethod="pad" gradientTransform="matrix(3.7221,-0.6563,-0.6563,-3.7221,446.4200,369.8704)" id="gradient50" y2="0.0000" x1="-5.0000"><stop stop-opacity="0.1000" offset="0.0000" stop-color="rgb(0,0,0)"/><stop stop-opacity="0.1000" offset="0.5000" stop-color="rgb(255,255,255)"/><stop stop-opacity="0.1000" offset="1.0000" stop-color="rgb(0,0,0)"/></linearGradient></defs><g stroke-linejoin="miter" stroke-opacity="1.0" fill-opacity="1" stroke="rgb(0,0,0)" stroke-width="0.37795275590551186" fill="url(#gradient50)" stroke-linecap="butt" stroke-miterlimit="10.0"><path d="M 473.5014,382.3079 l -5.8871,-33.3873 c -0.7249,-4.1113 -4.6455,-6.8565 -8.7568 -6.1316l -33.3873,5.8871 c -4.1113,0.7249 -6.8565,4.6455 -6.1316 8.7568l 5.8871,33.3873 c 0.7249,4.1113 4.6455,6.8565 8.7568 6.1316l 33.3873,-5.8871 c 4.1113,-0.7249 6.8565,-4.6455 6.1316 -8.7568Z"/></g><g stroke-linejoin="miter" stroke-opacity="1.0" fill-opacity="0.7" stroke="rgb(0,0,0)" stroke-width="0.37795275590551186" fill="rgb(0,0,0)" stroke-linecap="butt" stroke-miterlimit="10.0"><path d="M 363.4115,109.4688 l -9.6280,-54.6033 c -0.7249,-4.1113 -4.6455,-6.8565 -8.7568 -6.1316l -54.6033,9.6280 c -4.1113,0.7249 -6.8565,4.6455 -6.1316 8.7568l 9.6280,54.6033 c 0.7249,4.1113 4.6455,6.8565 8.7568 6.1316l 54.6033,-9.6280 c 4.1113,-0.7249 6.8565,-4.6455 6.1316 -8.7568Z"/></g><defs><linearGradient x2="5.0000" y1="0.0000" gradientUnits="userSpaceOnUse" spreadMethod="pad" gradientTransform="matrix(3.7221,-0.6563,-0.6563,-3.7221,323.8516,88.2938)" id="gradient54" y2="0.0000" x1="-5.0000"><stop stop-opacity="0.1000" offset="0.0000" stop-color="rgb(0,0,0)"/><stop stop-opacity="0.1000" offset="0.5000" stop-color="rgb(255,255,255)"/><stop stop-opacity="0.1000" offset="1.0000" stop-color="rgb(0,0,0)"/></linearGradient></defs><g stroke-linejoin="miter" stroke-opacity="1.0" fill-opacity="1" stroke="rgb(0,0,0)" stroke-width="0.37795275590551186" fill="url(#gradient54)" stroke-linecap="butt" stroke-miterlimit="10.0"><path d="M 350.9330,100.7313 l -5.8871,-33.3873 c -0.7249,-4.1113 -4.6455,-6.8565 -8.7568 -6.1316l -33.3873,5.8871 c -4.1113,0.7249 -6.8565,4.6455 -6.1316 8.7568l 5.8871,33.3873 c 0.7249,4.1113 4.6455,6.8565 8.7568 6.1316l 33.3873,-5.8871 c 4.1113,-0.7249 6.8565,-4.6455 6.1316 -8.7568Z"/></g><g stroke-linejoin="miter" stroke-opacity="1.0" fill-opacity="0.7" stroke="rgb(0,0,0)" stroke-width="0.37795275590551186" fill="rgb(0,0,0)" stroke-linecap="butt" stroke-miterlimit="10.0"><path d="M 375.8813,180.1888 l -9.6280,-54.6033 c -0.7249,-4.1113 -4.6455,-6.8565 -8.7568 -6.1316l -54.6033,9.6280 c -4.1113,0.7249 -6.8565,4.6455 -6.1316 8.7568l 9.6280,54.6033 c 0.7249,4.1113 4.6455,6.8565 8.7568 6.1316l 54.6033,-9.6280 c 4.1113,-0.7249 6.8565,-4.6455 6.1316 -8.7568Z"/></g><defs><linearGradient x2="5.0000" y1="0.0000" gradientUnits="userSpaceOnUse" spreadMethod="pad" gradientTransform="matrix(3.7221,-0.6563,-0.6563,-3.7221,336.3214,159.0138)" id="gradient58" y2="0.0000" x1="-5.0000"><stop stop-opacity="0.1000" offset="0.0000" stop-color="rgb(0,0,0)"/><stop stop-opacity="0.1000" offset="0.5000" stop-color="rgb(255,255,255)"/><stop stop-opacity="0.1000" offset="1.0000" stop-color="rgb(0,0,0)"/></linearGradient></defs><g stroke-linejoin="miter" stroke-opacity="1.0" fill-opacity="1" stroke="rgb(0,0,0)" stroke-width="0.37795275590551186" fill="url(#gradient58)" stroke-linecap="butt" stroke-miterlimit="10.0"><path d="M 363.4028,171.4513 l -5.8871,-33.3873 c -0.7249,-4.1113 -4.6455,-6.8565 -8.7568 -6.1316l -33.3873,5.8871 c -4.1113,0.7249 -6.8565,4.6455 -6.1316 8.7568l 5.8871,33.3873 c 0.7249,4.1113 4.6455,6.8565 8.7568 6.1316l 33.3873,-5.8871 c 4.1113,-0.7249 6.8565,-4.6455 6.1316 -8.7568Z"/></g><g stroke-linejoin="miter" stroke-opacity="1.0" fill-opacity="0.7" stroke="rgb(0,0,0)" stroke-width="0.37795275590551186" fill="rgb(0,0,0)" stroke-linecap="butt" stroke-miterlimit="10.0"><path d="M 388.3512,250.9089 l -9.6280,-54.6033 c -0.7249,-4.1113 -4.6455,-6.8565 -8.7568 -6.1316l -54.6033,9.6280 c -4.1113,0.7249 -6.8565,4.6455 -6.1316 8.7568l 9.6280,54.6033 c 0.7249,4.1113 4.6455,6.8565 8.7568 6.1316l 54.6033,-9.6280 c 4.1113,-0.7249 6.8565,-4.6455 6.1316 -8.7568Z"/></g><defs><linearGradient x2="5.0000" y1="0.0000" gradientUnits="userSpaceOnUse" spreadMethod="pad" gradientTransform="matrix(3.7221,-0.6563,-0.6563,-3.7221,348.7913,229.7339)" id="gradient62" y2="0.0000" x1="-5.0000"><stop stop-opacity="0.1000" offset="0.0000" stop-color="rgb(0,0,0)"/><stop stop-opacity="0.1000" offset="0.5000" stop-color="rgb(255,255,255)"/><stop stop-opacity="0.1000" offset="1.0000" stop-color="rgb(0,0,0)"/></linearGradient></defs><g stroke-linejoin="miter" stroke-opacity="1.0" fill-opacity="1" stroke="rgb(0,0,0)" stroke-width="0.37795275590551186" fill="url(#gradient62)" stroke-linecap="butt" stroke-miterlimit="10.0"><path d="M 375.8727,242.1714 l -5.8871,-33.3873 c -0.7249,-4.1113 -4.6455,-6.8565 -8.7568 -6.1316l -33.3873,5.8871 c -4.1113,0.7249 -6.8565,4.6455 -6.1316 8.7568l 5.8871,33.3873 c 0.7249,4.1113 4.6455,6.8565 8.7568 6.1316l 33.3873,-5.8871 c 4.1113,-0.7249 6.8565,-4.6455 6.1316 -8.7568Z"/></g><g stroke-linejoin="miter" stroke-opacity="1.0" fill-opacity="0.7" stroke="rgb(0,0,0)" stroke-width="0.37795275590551186" fill="rgb(0,0,0)" stroke-linecap="butt" stroke-miterlimit="10.0"><path d="M 400.8210,321.6289 l -9.6280,-54.6033 c -0.7249,-4.1113 -4.6455,-6.8565 -8.7568 -6.1316l -54.6033,9.6280 c -4.1113,0.7249 -6.8565,4.6455 -6.1316 8.7568l 9.6280,54.6033 c 0.7249,4.1113 4.6455,6.8565 8.7568 6.1316l 54.6033,-9.6280 c 4.1113,-0.7249 6.8565,-4.6455 6.1316 -8.7568Z"/></g><defs><linearGradient x2="5.0000" y1="0.0000" gradientUnits="userSpaceOnUse" spreadMethod="pad" gradientTransform="matrix(3.7221,-0.6563,-0.6563,-3.7221,361.2611,300.4539)" id="gradient66" y2="0.0000" x1="-5.0000"><stop stop-opacity="0.1000" offset="0.0000" stop-color="rgb(0,0,0)"/><stop stop-opacity="0.1000" offset="0.5000" stop-color="rgb(255,255,255)"/><stop stop-opacity="0.1000" offset="1.0000" stop-color="rgb(0,0,0)"/></linearGradient></defs><g stroke-linejoin="miter" stroke-opacity="1.0" fill-opacity="1" stroke="rgb(0,0,0)" stroke-width="0.37795275590551186" fill="url(#gradient66)" stroke-linecap="butt" stroke-miterlimit="10.0"><path d="M 388.3425,312.8914 l -5.8871,-33.3873 c -0.7249,-4.1113 -4.6455,-6.8565 -8.7568 -6.1316l -33.3873,5.8871 c -4.1113,0.7249 -6.8565,4.6455 -6.1316 8.7568l 5.8871,33.3873 c 0.7249,4.1113 4.6455,6.8565 8.7568 6.1316l 33.3873,-5.8871 c 4.1113,-0.7249 6.8565,-4.6455 6.1316 -8.7568Z"/></g><g stroke-linejoin="miter" stroke-opacity="1.0" fill-opacity="0.7" stroke="rgb(0,0,0)" stroke-width="0.37795275590551186" fill="rgb(0,0,0)" stroke-linecap="butt" stroke-miterlimit="10.0"><path d="M 413.2909,392.3490 l -9.6280,-54.6033 c -0.7249,-4.1113 -4.6455,-6.8565 -8.7568 -6.1316l -54.6033,9.6280 c -4.1113,0.7249 -6.8565,4.6455 -6.1316 8.7568l 9.6280,54.6033 c 0.7249,4.1113 4.6455,6.8565 8.7568 6.1316l 54.6033,-9.6280 c 4.1113,-0.7249 6.8565,-4.6455 6.1316 -8.7568Z"/></g><defs><linearGradient x2="5.0000" y1="0.0000" gradientUnits="userSpaceOnUse" spreadMethod="pad" gradientTransform="matrix(3.7221,-0.6563,-0.6563,-3.7221,373.7310,371.1740)" id="gradient70" y2="0.0000" x1="-5.0000"><stop stop-opacity="0.1000" offset="0.0000" stop-color="rgb(0,0,0)"/><stop stop-opacity="0.1000" offset="0.5000" stop-color="rgb(255,255,255)"/><stop stop-opacity="0.1000" offset="1.0000" stop-color="rgb(0,0,0)"/></linearGradient></defs><g stroke-linejoin="miter" stroke-opacity="1.0" fill-opacity="1" stroke="rgb(0,0,0)" stroke-width="0.37795275590551186" fill="url(#gradient70)" stroke-linecap="butt" stroke-miterlimit="10.0"><path d="M 400.8124,383.6115 l -5.8871,-33.3873 c -0.7249,-4.1113 -4.6455,-6.8565 -8.7568 -6.1316l -33.3873,5.8871 c -4.1113,0.7249 -6.8565,4.6455 -6.1316 8.7568l 5.8871,33.3873 c 0.7249,4.1113 4.6455,6.8565 8.7568 6.1316l 33.3873,-5.8871 c 4.1113,-0.7249 6.8565,-4.6455 6.1316 -8.7568Z"/></g><g stroke-linejoin="miter" stroke-opacity="1.0" fill-opacity="0.7" stroke="rgb(0,0,0)" stroke-width="0.37795275590551186" fill="rgb(0,0,0)" stroke-linecap="butt" stroke-miterlimit="10.0"><path d="M 289.4099,103.3281 l -9.6280,-54.6033 c -0.7249,-4.1113 -4.6455,-6.8565 -8.7568 -6.1316l -54.6033,9.6280 c -4.1113,0.7249 -6.8565,4.6455 -6.1316 8.7568l 9.6280,54.6033 c 0.7249,4.1113 4.6455,6.8565 8.7568 6.1316l 54.6033,-9.6280 c 4.1113,-0.7249 6.8565,-4.6455 6.1316 -8.7568Z"/></g><defs><linearGradient x2="5.0000" y1="0.0000" gradientUnits="userSpaceOnUse" spreadMethod="pad" gradientTransform="matrix(3.7221,-0.6563,-0.6563,-3.7221,249.8500,82.1531)" id="gradient74" y2="0.0000" x1="-5.0000"><stop stop-opacity="0.1000" offset="0.0000" stop-color="rgb(0,0,0)"/><stop stop-opacity="0.1000" offset="0.5000" stop-color="rgb(255,255,255)"/><stop stop-opacity="0.1000" offset="1.0000" stop-color="rgb(0,0,0)"/></linearGradient></defs><g stroke-linejoin="miter" stroke-opacity="1.0" fill-opacity="1" stroke="rgb(0,0,0)" stroke-width="0.37795275590551186" fill="url(#gradient74)" stroke-linecap="butt" stroke-miterlimit="10.0"><path d="M 276.9314,94.5906 l -5.8871,-33.3873 c -0.7249,-4.1113 -4.6455,-6.8565 -8.7568 -6.1316l -33.3873,5.8871 c -4.1113,0.7249 -6.8565,4.6455 -6.1316 8.7568l 5.8871,33.3873 c 0.7249,4.1113 4.6455,6.8565 8.7568 6.1316l 33.3873,-5.8871 c 4.1113,-0.7249 6.8565,-4.6455 6.1316 -8.7568Z"/></g><g stroke-linejoin="miter" stroke-opacity="1.0" fill-opacity="0.7" stroke="rgb(0,0,0)" stroke-width="0.37795275590551186" fill="rgb(0,0,0)" stroke-linecap="butt" stroke-miterlimit="10.0"><path d="M 301.8797,174.0482 l -9.6280,-54.6033 c -0.7249,-4.1113 -4.6455,-6.8565 -8.7568 -6.1316l -54.6033,9.6280 c -4.1113,0.7249 -6.8565,4.6455 -6.1316 8.7568l 9.6280,54.6033 c 0.7249,4.1113 4.6455,6.8565 8.7568 6.1316l 54.6033,-9.6280 c 4.1113,-0.7249 6.8565,-4.6455 6.1316 -8.7568Z"/></g><defs><linearGradient x2="5.0000" y1="0.0000" gradientUnits="userSpaceOnUse" spreadMethod="pad" gradientTransform="matrix(3.7221,-0.6563,-0.6563,-3.7221,262.3198,152.8731)" id="gradient78" y2="0.0000" x1="-5.0000"><stop stop-opacity="0.1000" offset="0.0000" stop-color="rgb(0,0,0)"/><stop stop-opacity="0.1000" offset="0.5000" stop-color="rgb(255,255,255)"/><stop stop-opacity="0.1000" offset="1.0000" stop-color="rgb(0,0,0)"/></linearGradient></defs><g stroke-linejoin="miter" stroke-opacity="1.0" fill-opacity="1" stroke="rgb(0,0,0)" stroke-width="0.37795275590551186" fill="url(#gradient78)" stroke-linecap="butt" stroke-miterlimit="10.0"><path d="M 289.4012,165.3106 l -5.8871,-33.3873 c -0.7249,-4.1113 -4.6455,-6.8565 -8.7568 -6.1316l -33.3873,5.8871 c -4.1113,0.7249 -6.8565,4.6455 -6.1316 8.7568l 5.8871,33.3873 c 0.7249,4.1113 4.6455,6.8565 8.7568 6.1316l 33.3873,-5.8871 c 4.1113,-0.7249 6.8565,-4.6455 6.1316 -8.7568Z"/></g><g stroke-linejoin="miter" stroke-opacity="1.0" fill-opacity="0.7" stroke="rgb(0,0,0)" stroke-width="0.37795275590551186" fill="rgb(0,0,0)" stroke-linecap="butt" stroke-miterlimit="10.0"><path d="M 314.3496,244.7682 l -9.6280,-54.6033 c -0.7249,-4.1113 -4.6455,-6.8565 -8.7568 -6.1316l -54.6033,9.6280 c -4.1113,0.7249 -6.8565,4.6455 -6.1316 8.7568l 9.6280,54.6033 c 0.7249,4.1113 4.6455,6.8565 8.7568 6.1316l 54.6033,-9.6280 c 4.1113,-0.7249 6.8565,-4.6455 6.1316 -8.7568Z"/></g><defs><linearGradient x2="5.0000" y1="0.0000" gradientUnits="userSpaceOnUse" spreadMethod="pad" gradientTransform="matrix(3.7221,-0.6563,-0.6563,-3.7221,274.7897,223.5932)" id="gradient82" y2="0.0000" x1="-5.0000"><stop stop-opacity="0.1000" offset="0.0000" stop-color="rgb(0,0,0)"/><stop stop-opacity="0.1000" offset="0.5000" stop-color="rgb(255,255,255)"/><stop stop-opacity="0.1000" offset="1.0000" stop-color="rgb(0,0,0)"/></linearGradient></defs><g stroke-linejoin="miter" stroke-opacity="1.0" fill-opacity="1" stroke="rgb(0,0,0)" stroke-width="0.37795275590551186" fill="url(#gradient82)" stroke-linecap="butt" stroke-miterlimit="10.0"><path d="M 301.8711,236.0307 l -5.8871,-33.3873 c -0.7249,-4.1113 -4.6455,-6.8565 -8.7568 -6.1316l -33.3873,5.8871 c -4.1113,0.7249 -6.8565,4.6455 -6.1316 8.7568l 5.8871,33.3873 c 0.7249,4.1113 4.6455,6.8565 8.7568 6.1316l 33.3873,-5.8871 c 4.1113,-0.7249 6.8565,-4.6455 6.1316 -8.7568Z"/></g><g stroke-linejoin="miter" stroke-opacity="1.0" fill-opacity="0.7" stroke="rgb(0,0,0)" stroke-width="0.37795275590551186" fill="rgb(0,0,0)" stroke-linecap="butt" stroke-miterlimit="10.0"><path d="M 326.8194,315.4883 l -9.6280,-54.6033 c -0.7249,-4.1113 -4.6455,-6.8565 -8.7568 -6.1316l -54.6033,9.6280 c -4.1113,0.7249 -6.8565,4.6455 -6.1316 8.7568l 9.6280,54.6033 c 0.7249,4.1113 4.6455,6.8565 8.7568 6.1316l 54.6033,-9.6280 c 4.1113,-0.7249 6.8565,-4.6455 6.1316 -8.7568Z"/></g><defs><linearGradient x2="5.0000" y1="0.0000" gradientUnits="userSpaceOnUse" spreadMethod="pad" gradientTransform="matrix(3.7221,-0.6563,-0.6563,-3.7221,287.2595,294.3132)" id="gradient86" y2="0.0000" x1="-5.0000"><stop stop-opacity="0.1000" offset="0.0000" stop-color="rgb(0,0,0)"/><stop stop-opacity="0.1000" offset="0.5000" stop-color="rgb(255,255,255)"/><stop stop-opacity="0.1000" offset="1.0000" stop-color="rgb(0,0,0)"/></linearGradient></defs><g stroke-linejoin="miter" stroke-opacity="1.0" fill-opacity="1" stroke="rgb(0,0,0)" stroke-width="0.37795275590551186" fill="url(#gradient86)" stroke-linecap="butt" stroke-miterlimit="10.0"><path d="M 314.3409,306.7507 l -5.8871,-33.3873 c -0.7249,-4.1113 -4.6455,-6.8565 -8.7568 -6.1316l -33.3873,5.8871 c -4.1113,0.7249 -6.8565,4.6455 -6.1316 8.7568l 5.8871,33.3873 c 0.7249,4.1113 4.6455,6.8565 8.7568 6.1316l 33.3873,-5.8871 c 4.1113,-0.7249 6.8565,-4.6455 6.1316 -8.7568Z"/></g><g stroke-linejoin="miter" stroke-opacity="1.0" fill-opacity="0.7" stroke="rgb(0,0,0)" stroke-width="0.37795275590551186" fill="rgb(0,0,0)" stroke-linecap="butt" stroke-miterlimit="10.0"><path d="M 339.2893,386.2083 l -9.6280,-54.6033 c -0.7249,-4.1113 -4.6455,-6.8565 -8.7568 -6.1316l -54.6033,9.6280 c -4.1113,0.7249 -6.8565,4.6455 -6.1316 8.7568l 9.6280,54.6033 c 0.7249,4.1113 4.6455,6.8565 8.7568 6.1316l 54.6033,-9.6280 c 4.1113,-0.7249 6.8565,-4.6455 6.1316 -8.7568Z"/></g><defs><linearGradient x2="5.0000" y1="0.0000" gradientUnits="userSpaceOnUse" spreadMethod="pad" gradientTransform="matrix(3.7221,-0.6563,-0.6563,-3.7221,299.7294,365.0333)" id="gradient90" y2="0.0000" x1="-5.0000"><stop stop-opacity="0.1000" offset="0.0000" stop-color="rgb(0,0,0)"/><stop stop-opacity="0.1000" offset="0.5000" stop-color="rgb(255,255,255)"/><stop stop-opacity="0.1000" offset="1.0000" stop-color="rgb(0,0,0)"/></linearGradient></defs><g stroke-linejoin="miter" stroke-opacity="1.0" fill-opacity="1" stroke="rgb(0,0,0)" stroke-width="0.37795275590551186" fill="url(#gradient90)" stroke-linecap="butt" stroke-miterlimit="10.0"><path d="M 326.8108,377.4708 l -5.8871,-33.3873 c -0.7249,-4.1113 -4.6455,-6.8565 -8.7568 -6.1316l -33.3873,5.8871 c -4.1113,0.7249 -6.8565,4.6455 -6.1316 8.7568l 5.8871,33.3873 c 0.7249,4.1113 4.6455,6.8565 8.7568 6.1316l 33.3873,-5.8871 c 4.1113,-0.7249 6.8565,-4.6455 6.1316 -8.7568Z"/></g><g stroke-linejoin="miter" stroke-opacity="1.0" fill-opacity="0.7" stroke="rgb(0,0,0)" stroke-width="0.37795275590551186" fill="rgb(0,0,0)" stroke-linecap="butt" stroke-miterlimit="10.0"><path d="M 222.6277,138.1306 l -9.6280,-54.6033 c -0.7249,-4.1113 -4.6455,-6.8565 -8.7568 -6.1316l -54.6033,9.6280 c -4.1113,0.7249 -6.8565,4.6455 -6.1316 8.7568l 9.6280,54.6033 c 0.7249,4.1113 4.6455,6.8565 8.7568 6.1316l 54.6033,-9.6280 c 4.1113,-0.7249 6.8565,-4.6455 6.1316 -8.7568Z"/></g><defs><linearGradient x2="5.0000" y1="0.0000" gradientUnits="userSpaceOnUse" spreadMethod="pad" gradientTransform="matrix(3.7221,-0.6563,-0.6563,-3.7221,183.0678,116.9556)" id="gradient94" y2="0.0000" x1="-5.0000"><stop stop-opacity="0.1000" offset="0.0000" stop-color="rgb(0,0,0)"/><stop stop-opacity="0.1000" offset="0.5000" stop-color="rgb(255,255,255)"/><stop stop-opacity="0.1000" offset="1.0000" stop-color="rgb(0,0,0)"/></linearGradient></defs><g stroke-linejoin="miter" stroke-opacity="1.0" fill-opacity="1" stroke="rgb(0,0,0)" stroke-width="0.37795275590551186" fill="url(#gradient94)" stroke-linecap="butt" stroke-miterlimit="10.0"><path d="M 210.1492,129.3931 l -5.8871,-33.3873 c -0.7249,-4.1113 -4.6455,-6.8565 -8.7568 -6.1316l -33.3873,5.8871 c -4.1113,0.7249 -6.8565,4.6455 -6.1316 8.7568l 5.8871,33.3873 c 0.7249,4.1113 4.6455,6.8565 8.7568 6.1316l 33.3873,-5.8871 c 4.1113,-0.7249 6.8565,-4.6455 6.1316 -8.7568Z"/></g><g stroke-linejoin="miter" stroke-opacity="1.0" fill-opacity="0.7" stroke="rgb(0,0,0)" stroke-width="0.37795275590551186" fill="rgb(0,0,0)" stroke-linecap="butt" stroke-miterlimit="10.0"><path d="M 235.0975,208.8507 l -9.6280,-54.6033 c -0.7249,-4.1113 -4.6455,-6.8565 -8.7568 -6.1316l -54.6033,9.6280 c -4.1113,0.7249 -6.8565,4.6455 -6.1316 8.7568l 9.6280,54.6033 c 0.7249,4.1113 4.6455,6.8565 8.7568 6.1316l 54.6033,-9.6280 c 4.1113,-0.7249 6.8565,-4.6455 6.1316 -8.7568Z"/></g><defs><linearGradient x2="5.0000" y1="0.0000" gradientUnits="userSpaceOnUse" spreadMethod="pad" gradientTransform="matrix(3.7221,-0.6563,-0.6563,-3.7221,195.5376,187.6756)" id="gradient98" y2="0.0000" x1="-5.0000"><stop stop-opacity="0.1000" offset="0.0000" stop-color="rgb(0,0,0)"/><stop stop-opacity="0.1000" offset="0.5000" stop-color="rgb(255,255,255)"/><stop stop-opacity="0.1000" offset="1.0000" stop-color="rgb(0,0,0)"/></linearGradient></defs><g stroke-linejoin="miter" stroke-opacity="1.0" fill-opacity="1" stroke="rgb(0,0,0)" stroke-width="0.37795275590551186" fill="url(#gradient98)" stroke-linecap="butt" stroke-miterlimit="10.0"><path d="M 222.6190,200.1131 l -5.8871,-33.3873 c -0.7249,-4.1113 -4.6455,-6.8565 -8.7568 -6.1316l -33.3873,5.8871 c -4.1113,0.7249 -6.8565,4.6455 -6.1316 8.7568l 5.8871,33.3873 c 0.7249,4.1113 4.6455,6.8565 8.7568 6.1316l 33.3873,-5.8871 c 4.1113,-0.7249 6.8565,-4.6455 6.1316 -8.7568Z"/></g><g stroke-linejoin="miter" stroke-opacity="1.0" fill-opacity="0.7" stroke="rgb(0,0,0)" stroke-width="0.37795275590551186" fill="rgb(0,0,0)" stroke-linecap="butt" stroke-miterlimit="10.0"><path d="M 247.5674,279.5707 l -9.6280,-54.6033 c -0.7249,-4.1113 -4.6455,-6.8565 -8.7568 -6.1316l -54.6033,9.6280 c -4.1113,0.7249 -6.8565,4.6455 -6.1316 8.7568l 9.6280,54.6033 c 0.7249,4.1113 4.6455,6.8565 8.7568 6.1316l 54.6033,-9.6280 c 4.1113,-0.7249 6.8565,-4.6455 6.1316 -8.7568Z"/></g><defs><linearGradient x2="5.0000" y1="0.0000" gradientUnits="userSpaceOnUse" spreadMethod="pad" gradientTransform="matrix(3.7221,-0.6563,-0.6563,-3.7221,208.0075,258.3957)" id="gradient102" y2="0.0000" x1="-5.0000"><stop stop-opacity="0.1000" offset="0.0000" stop-color="rgb(0,0,0)"/><stop stop-opacity="0.1000" offset="0.5000" stop-color="rgb(255,255,255)"/><stop stop-opacity="0.1000" offset="1.0000" stop-color="rgb(0,0,0)"/></linearGradient></defs><g stroke-linejoin="miter" stroke-opacity="1.0" fill-opacity="1" stroke="rgb(0,0,0)" stroke-width="0.37795275590551186" fill="url(#gradient102)" stroke-linecap="butt" stroke-miterlimit="10.0"><path d="M 235.0889,270.8332 l -5.8871,-33.3873 c -0.7249,-4.1113 -4.6455,-6.8565 -8.7568 -6.1316l -33.3873,5.8871 c -4.1113,0.7249 -6.8565,4.6455 -6.1316 8.7568l 5.8871,33.3873 c 0.7249,4.1113 4.6455,6.8565 8.7568 6.1316l 33.3873,-5.8871 c 4.1113,-0.7249 6.8565,-4.6455 6.1316 -8.7568Z"/></g><g stroke-linejoin="miter" stroke-opacity="1.0" fill-opacity="0.7" stroke="rgb(0,0,0)" stroke-width="0.37795275590551186" fill="rgb(0,0,0)" stroke-linecap="butt" stroke-miterlimit="10.0"><path d="M 260.0372,350.2908 l -9.6280,-54.6033 c -0.7249,-4.1113 -4.6455,-6.8565 -8.7568 -6.1316l -54.6033,9.6280 c -4.1113,0.7249 -6.8565,4.6455 -6.1316 8.7568l 9.6280,54.6033 c 0.7249,4.1113 4.6455,6.8565 8.7568 6.1316l 54.6033,-9.6280 c 4.1113,-0.7249 6.8565,-4.6455 6.1316 -8.7568Z"/></g><defs><linearGradient x2="5.0000" y1="0.0000" gradientUnits="userSpaceOnUse" spreadMethod="pad" gradientTransform="matrix(3.7221,-0.6563,-0.6563,-3.7221,220.4773,329.1157)" id="gradient106" y2="0.0000" x1="-5.0000"><stop stop-opacity="0.1000" offset="0.0000" stop-color="rgb(0,0,0)"/><stop stop-opacity="0.1000" offset="0.5000" stop-color="rgb(255,255,255)"/><stop stop-opacity="0.1000" offset="1.0000" stop-color="rgb(0,0,0)"/></linearGradient></defs><g stroke-linejoin="miter" stroke-opacity="1.0" fill-opacity="1" stroke="rgb(0,0,0)" stroke-width="0.37795275590551186" fill="url(#gradient106)" stroke-linecap="butt" stroke-miterlimit="10.0"><path d="M 247.5587,341.5532 l -5.8871,-33.3873 c -0.7249,-4.1113 -4.6455,-6.8565 -8.7568 -6.1316l -33.3873,5.8871 c -4.1113,0.7249 -6.8565,4.6455 -6.1316 8.7568l 5.8871,33.3873 c 0.7249,4.1113 4.6455,6.8565 8.7568 6.1316l 33.3873,-5.8871 c 4.1113,-0.7249 6.8565,-4.6455 6.1316 -8.7568Z"/></g><g stroke-linejoin="miter" stroke-opacity="1.0" fill-opacity="0.7" stroke="rgb(0,0,0)" stroke-width="0.37795275590551186" fill="rgb(0,0,0)" stroke-linecap="butt" stroke-miterlimit="10.0"><path d="M 272.5071,421.0108 l -9.6280,-54.6033 c -0.7249,-4.1113 -4.6455,-6.8565 -8.7568 -6.1316l -54.6033,9.6280 c -4.1113,0.7249 -6.8565,4.6455 -6.1316 8.7568l 9.6280,54.6033 c 0.7249,4.1113 4.6455,6.8565 8.7568 6.1316l 54.6033,-9.6280 c 4.1113,-0.7249 6.8565,-4.6455 6.1316 -8.7568Z"/></g><defs><linearGradient x2="5.0000" y1="0.0000" gradientUnits="userSpaceOnUse" spreadMethod="pad" gradientTransform="matrix(3.7221,-0.6563,-0.6563,-3.7221,232.9472,399.8358)" id="gradient110" y2="0.0000" x1="-5.0000"><stop stop-opacity="0.1000" offset="0.0000" stop-color="rgb(0,0,0)"/><stop stop-opacity="0.1000" offset="0.5000" stop-color="rgb(255,255,255)"/><stop stop-opacity="0.1000" offset="1.0000" stop-color="rgb(0,0,0)"/></linearGradient></defs><g stroke-linejoin="miter" stroke-opacity="1.0" fill-opacity="1" stroke="rgb(0,0,0)" stroke-width="0.37795275590551186" fill="url(#gradient110)" stroke-linecap="butt" stroke-miterlimit="10.0"><path d="M 260.0286,412.2733 l -5.8871,-33.3873 c -0.7249,-4.1113 -4.6455,-6.8565 -8.7568 -6.1316l -33.3873,5.8871 c -4.1113,0.7249 -6.8565,4.6455 -6.1316 8.7568l 5.8871,33.3873 c 0.7249,4.1113 4.6455,6.8565 8.7568 6.1316l 33.3873,-5.8871 c 4.1113,-0.7249 6.8565,-4.6455 6.1316 -8.7568Z"/></g><g stroke-linejoin="miter" stroke-opacity="1.0" fill-opacity="0.7" stroke="rgb(0,0,0)" stroke-width="0.37795275590551186" fill="rgb(0,0,0)" stroke-linecap="butt" stroke-miterlimit="10.0"><path d="M 155.1891,169.2110 l -9.6280,-54.6033 c -0.7249,-4.1113 -4.6455,-6.8565 -8.7568 -6.1316l -54.6033,9.6280 c -4.1113,0.7249 -6.8565,4.6455 -6.1316 8.7568l 9.6280,54.6033 c 0.7249,4.1113 4.6455,6.8565 8.7568 6.1316l 54.6033,-9.6280 c 4.1113,-0.7249 6.8565,-4.6455 6.1316 -8.7568Z"/></g><defs><linearGradient x2="5.0000" y1="0.0000" gradientUnits="userSpaceOnUse" spreadMethod="pad" gradientTransform="matrix(3.7221,-0.6563,-0.6563,-3.7221,115.6292,148.0360)" id="gradient114" y2="0.0000" x1="-5.0000"><stop stop-opacity="0.1000" offset="0.0000" stop-color="rgb(0,0,0)"/><stop stop-opacity="0.1000" offset="0.5000" stop-color="rgb(255,255,255)"/><stop stop-opacity="0.1000" offset="1.0000" stop-color="rgb(0,0,0)"/></linearGradient></defs><g stroke-linejoin="miter" stroke-opacity="1.0" fill-opacity="1" stroke="rgb(0,0,0)" stroke-width="0.37795275590551186" fill="url(#gradient114)" stroke-linecap="butt" stroke-miterlimit="10.0"><path d="M 142.7107,160.4735 l -5.8871,-33.3873 c -0.7249,-4.1113 -4.6455,-6.8565 -8.7568 -6.1316l -33.3873,5.8871 c -4.1113,0.7249 -6.8565,4.6455 -6.1316 8.7568l 5.8871,33.3873 c 0.7249,4.1113 4.6455,6.8565 8.7568 6.1316l 33.3873,-5.8871 c 4.1113,-0.7249 6.8565,-4.6455 6.1316 -8.7568Z"/></g><g stroke-linejoin="miter" stroke-opacity="1.0" fill-opacity="0.7" stroke="rgb(0,0,0)" stroke-width="0.37795275590551186" fill="rgb(0,0,0)" stroke-linecap="butt" stroke-miterlimit="10.0"><path d="M 167.6590,239.9311 l -9.6280,-54.6033 c -0.7249,-4.1113 -4.6455,-6.8565 -8.7568 -6.1316l -54.6033,9.6280 c -4.1113,0.7249 -6.8565,4.6455 -6.1316 8.7568l 9.6280,54.6033 c 0.7249,4.1113 4.6455,6.8565 8.7568 6.1316l 54.6033,-9.6280 c 4.1113,-0.7249 6.8565,-4.6455 6.1316 -8.7568Z"/></g><defs><linearGradient x2="5.0000" y1="0.0000" gradientUnits="userSpaceOnUse" spreadMethod="pad" gradientTransform="matrix(3.7221,-0.6563,-0.6563,-3.7221,128.0991,218.7560)" id="gradient118" y2="0.0000" x1="-5.0000"><stop stop-opacity="0.1000" offset="0.0000" stop-color="rgb(0,0,0)"/><stop stop-opacity="0.1000" offset="0.5000" stop-color="rgb(255,255,255)"/><stop stop-opacity="0.1000" offset="1.0000" stop-color="rgb(0,0,0)"/></linearGradient></defs><g stroke-linejoin="miter" stroke-opacity="1.0" fill-opacity="1" stroke="rgb(0,0,0)" stroke-width="0.37795275590551186" fill="url(#gradient118)" stroke-linecap="butt" stroke-miterlimit="10.0"><path d="M 155.1805,231.1935 l -5.8871,-33.3873 c -0.7249,-4.1113 -4.6455,-6.8565 -8.7568 -6.1316l -33.3873,5.8871 c -4.1113,0.7249 -6.8565,4.6455 -6.1316 8.7568l 5.8871,33.3873 c 0.7249,4.1113 4.6455,6.8565 8.7568 6.1316l 33.3873,-5.8871 c 4.1113,-0.7249 6.8565,-4.6455 6.1316 -8.7568Z"/></g><g stroke-linejoin="miter" stroke-opacity="1.0" fill-opacity="0.7" stroke="rgb(0,0,0)" stroke-width="0.37795275590551186" fill="rgb(0,0,0)" stroke-linecap="butt" stroke-miterlimit="10.0"><path d="M 180.1289,310.6511 l -9.6280,-54.6033 c -0.7249,-4.1113 -4.6455,-6.8565 -8.7568 -6.1316l -54.6033,9.6280 c -4.1113,0.7249 -6.8565,4.6455 -6.1316 8.7568l 9.6280,54.6033 c 0.7249,4.1113 4.6455,6.8565 8.7568 6.1316l 54.6033,-9.6280 c 4.1113,-0.7249 6.8565,-4.6455 6.1316 -8.7568Z"/></g><defs><linearGradient x2="5.0000" y1="0.0000" gradientUnits="userSpaceOnUse" spreadMethod="pad" gradientTransform="matrix(3.7221,-0.6563,-0.6563,-3.7221,140.5690,289.4761)" id="gradient122" y2="0.0000" x1="-5.0000"><stop stop-opacity="0.1000" offset="0.0000" stop-color="rgb(0,0,0)"/><stop stop-opacity="0.1000" offset="0.5000" stop-color="rgb(255,255,255)"/><stop stop-opacity="0.1000" offset="1.0000" stop-color="rgb(0,0,0)"/></linearGradient></defs><g stroke-linejoin="miter" stroke-opacity="1.0" fill-opacity="1" stroke="rgb(0,0,0)" stroke-width="0.37795275590551186" fill="url(#gradient122)" stroke-linecap="butt" stroke-miterlimit="10.0"><path d="M 167.6504,301.9136 l -5.8871,-33.3873 c -0.7249,-4.1113 -4.6455,-6.8565 -8.7568 -6.1316l -33.3873,5.8871 c -4.1113,0.7249 -6.8565,4.6455 -6.1316 8.7568l 5.8871,33.3873 c 0.7249,4.1113 4.6455,6.8565 8.7568 6.1316l 33.3873,-5.8871 c 4.1113,-0.7249 6.8565,-4.6455 6.1316 -8.7568Z"/></g><g stroke-linejoin="miter" stroke-opacity="1.0" fill-opacity="0.7" stroke="rgb(0,0,0)" stroke-width="0.37795275590551186" fill="rgb(0,0,0)" stroke-linecap="butt" stroke-miterlimit="10.0"><path d="M 192.5987,381.3712 l -9.6280,-54.6033 c -0.7249,-4.1113 -4.6455,-6.8565 -8.7568 -6.1316l -54.6033,9.6280 c -4.1113,0.7249 -6.8565,4.6455 -6.1316 8.7568l 9.6280,54.6033 c 0.7249,4.1113 4.6455,6.8565 8.7568 6.1316l 54.6033,-9.6280 c 4.1113,-0.7249 6.8565,-4.6455 6.1316 -8.7568Z"/></g><defs><linearGradient x2="5.0000" y1="0.0000" gradientUnits="userSpaceOnUse" spreadMethod="pad" gradientTransform="matrix(3.7221,-0.6563,-0.6563,-3.7221,153.0388,360.1961)" id="gradient126" y2="0.0000" x1="-5.0000"><stop stop-opacity="0.1000" offset="0.0000" stop-color="rgb(0,0,0)"/><stop stop-opacity="0.1000" offset="0.5000" stop-color="rgb(255,255,255)"/><stop stop-opacity="0.1000" offset="1.0000" stop-color="rgb(0,0,0)"/></linearGradient></defs><g stroke-linejoin="miter" stroke-opacity="1.0" fill-opacity="1" stroke="rgb(0,0,0)" stroke-width="0.37795275590551186" fill="url(#gradient126)" stroke-linecap="butt" stroke-miterlimit="10.0"><path d="M 180.1202,372.6336 l -5.8871,-33.3873 c -0.7249,-4.1113 -4.6455,-6.8565 -8.7568 -6.1316l -33.3873,5.8871 c -4.1113,0.7249 -6.8565,4.6455 -6.1316 8.7568l 5.8871,33.3873 c 0.7249,4.1113 4.6455,6.8565 8.7568 6.1316l 33.3873,-5.8871 c 4.1113,-0.7249 6.8565,-4.6455 6.1316 -8.7568Z"/></g><g stroke-linejoin="miter" stroke-opacity="1.0" fill-opacity="0.7" stroke="rgb(0,0,0)" stroke-width="0.37795275590551186" fill="rgb(0,0,0)" stroke-linecap="butt" stroke-miterlimit="10.0"><path d="M 205.0686,452.0912 l -9.6280,-54.6033 c -0.7249,-4.1113 -4.6455,-6.8565 -8.7568 -6.1316l -54.6033,9.6280 c -4.1113,0.7249 -6.8565,4.6455 -6.1316 8.7568l 9.6280,54.6033 c 0.7249,4.1113 4.6455,6.8565 8.7568 6.1316l 54.6033,-9.6280 c 4.1113,-0.7249 6.8565,-4.6455 6.1316 -8.7568Z"/></g><defs><linearGradient x2="5.0000" y1="0.0000" gradientUnits="userSpaceOnUse" spreadMethod="pad" gradientTransform="matrix(3.7221,-0.6563,-0.6563,-3.7221,165.5087,430.9162)" id="gradient130" y2="0.0000" x1="-5.0000"><stop stop-opacity="0.1000" offset="0.0000" stop-color="rgb(0,0,0)"/><stop stop-opacity="0.1000" offset="0.5000" stop-color="rgb(255,255,255)"/><stop stop-opacity="0.1000" offset="1.0000" stop-color="rgb(0,0,0)"/></linearGradient></defs><g stroke-linejoin="miter" stroke-opacity="1.0" fill-opacity="1" stroke="rgb(0,0,0)" stroke-width="0.37795275590551186" fill="url(#gradient130)" stroke-linecap="butt" stroke-miterlimit="10.0"><path d="M 192.5901,443.3537 l -5.8871,-33.3873 c -0.7249,-4.1113 -4.6455,-6.8565 -8.7568 -6.1316l -33.3873,5.8871 c -4.1113,0.7249 -6.8565,4.6455 -6.1316 8.7568l 5.8871,33.3873 c 0.7249,4.1113 4.6455,6.8565 8.7568 6.1316l 33.3873,-5.8871 c 4.1113,-0.7249 6.8565,-4.6455 6.1316 -8.7568Z"/></g><g stroke-linejoin="miter" stroke-opacity="1.0" fill-opacity="0.5" stroke="rgb(0,0,0)" stroke-width="0.37795275590551186" fill="rgb(0,0,0)" stroke-linecap="butt" stroke-miterlimit="10.0"><path d="M 101.9378,34.5197 l 6.0008,-10.3937 l -6.0008,-10.3937 l -12.0016,-0.0000 l -6.0008,10.3937 l 6.0008,10.3937 Z"/></g><g stroke-linejoin="miter" stroke-opacity="1.0" fill-opacity="0.5" stroke="rgb(0,0,0)" stroke-width="0.37795275590551186" fill="rgb(0,0,0)" stroke-linecap="butt" stroke-miterlimit="10.0"><path d="M 519.3584,34.5197 l 6.0008,-10.3937 l -6.0008,-10.3937 l -12.0016,-0.0000 l -6.0008,10.3937 l 6.0008,10.3937 Z"/></g><g stroke-linejoin="miter" stroke-opacity="1.0" fill-opacity="0.5" stroke="rgb(0,0,0)" stroke-width="0.37795275590551186" fill="rgb(0,0,0)" stroke-linecap="butt" stroke-miterlimit="10.0"><path d="M 585.3015,400.9427 l 6.0008,-10.3937 l -6.0008,-10.3937 l -12.0016,-0.0000 l -6.0008,10.3937 l 6.0008,10.3937 Z"/></g><g stroke-linejoin="miter" stroke-opacity="1.0" fill-opacity="0.5" stroke="rgb(0,0,0)" stroke-width="0.37795275590551186" fill="rgb(0,0,0)" stroke-linecap="butt" stroke-miterlimit="10.0"><path d="M 171.5095,499.2059 l 6.0008,-10.3937 l -6.0008,-10.3937 l -12.0016,-0.0000 l -6.0008,10.3937 l 6.0008,10.3937 Z"/></g></svg>