<?xml version="1.0" encoding="UTF-8"?>
<!DOCTYPE svg PUBLIC "-//W3C//DTD SVG 1.1//EN"
    "http://www.w3.org/Graphics/SVG/1.1/DTD/svg11.dtd"><svg xmlns="http://www.w3.org/2000/svg" height="1922.3495" stroke-opacity="1" viewBox="0 0 702 1922" font-size="1" width="701.9981" xmlns:xlink="http://www.w3.org/1999/xlink" stroke="rgb(0,0,0)" version="1.1"><defs></defs><defs><linearGradient x2="45.9092" y1="0.0000" gradientUnits="userSpaceOnUse" spreadMethod="pad" gradientTransform="matrix(3.7795,-0.0000,0.0000,-3.7795,350.9991,1840.3284)" id="gradient0" y2="0.0000" x1="-45.9092"><stop stop-opacity="1.0000" offset="0.0000" stop-color="rgb(128,128,128)"/><stop stop-opacity="1.0000" offset="0.5000" stop-color="rgb(255,255,255)"/><stop stop-opacity="1.0000" offset="1.0000" stop-color="rgb(128,128,128)"/></linearGradient></defs><g stroke-linejoin="miter" stroke-opacity="1.0" fill-opacity="1" stroke="rgb(0,0,0)" stroke-width="0.37795275590551186" fill="url(#gradient0)" stroke-linecap="butt" stroke-miterlimit="10.0"><path d="M 3.9685,1876.8011 c 0.0018,-103.2690 0.0036,-206.5379 0.0054 -309.8069c 0.0002,-9.0452 7.3328,-16.3777 16.3779 -16.3777c 110.2158,-0.0000 220.4315,-0.0000 330.6472 -0.0000c 110.2158,-0.0000 220.4315,-0.0000 330.6472 -0.0000c 9.0452,-0.0000 16.3778,7.3325 16.3779 16.3777c 0.0018,103.2690 0.0036,206.5379 0.0054 309.8069c 0.0000,0.0001 0.0000,0.0002 0.0000 0.0003c 0.0000,8.4640 -6.4492,15.5338 -14.8777 16.3091c -91.3199,8.4005 -182.6398,16.8011 -273.9597 25.2016c -0.4987,0.0459 -0.9994,0.0689 -1.5003 0.0689c -18.8976,-0.0000 -37.7953,-0.0000 -56.6929 -0.0000c -18.8976,-0.0000 -37.7953,-0.0000 -56.6929 -0.0000c -0.5009,-0.0000 -1.0015,-0.0230 -1.5003 -0.0689c -91.3199,-8.4005 -182.6398,-16.8011 -273.9597 -25.2016c -8.4284,-0.7753 -14.8777,-7.8451 -14.8777 -16.3091c 0.0000,-0.0001 0.0000,-0.0002 -0.0000 -0.0003ZM 18.4567,1873.0218 c 0.0000,3.1311 2.5382,5.6693 5.6693 5.6693c 3.1311,-0.0000 5.6693,-2.5382 5.6693 -5.6693c 0.0000,-3.1311 -2.5382,-5.6693 -5.6693 -5.6693c -3.1311,-0.0000 -5.6693,2.5382 -5.6693 5.6693ZM 18.4621,1570.7741 c 0.0000,3.1311 2.5382,5.6693 5.6693 5.6693c 3.1311,-0.0000 5.6693,-2.5382 5.6693 -5.6693c 0.0000,-3.1311 -2.5382,-5.6693 -5.6693 -5.6693c -3.1311,-0.0000 -5.6693,2.5382 -5.6693 5.6693ZM 288.6369,1570.7741 c 0.0000,3.1311 2.5382,5.6693 5.6693 5.6693c 3.1311,-0.0000 5.6693,-2.5382 5.6693 -5.6693c 0.0000,-3.1311 -2.5382,-5.6693 -5.6693 -5.6693c -3.1311,-0.0000 -5.6693,2.5382 -5.6693 5.6693ZM 288.6369,1898.2235 c 0.0000,3.1311 2.5382,5.6693 5.6693 5.6693c 3.1311,-0.0000 5.6693,-2.5382 5.6693 -5.6693c 0.0000,-3.1311 -2.5382,-5.6693 -5.6693 -5.6693c -3.1311,-0.0000 -5.6693,2.5382 -5.6693 5.6693ZM 402.0227,1570.7741 c 0.0000,3.1311 2.5382,5.6693 5.6693 5.6693c 3.1311,-0.0000 5.6693,-2.5382 5.6693 -5.6693c 0.0000,-3.1311 -2.5382,-5.6693 -5.6693 -5.6693c -3.1311,-0.0000 -5.6693,2.5382 -5.6693 5.6693ZM 402.0227,1898.2235 c 0.0000,3.1311 2.5382,5.6693 5.6693 5.6693c 3.1311,-0.0000 5.6693,-2.5382 5.6693 -5.6693c 0.0000,-3.1311 -2.5382,-5.6693 -5.6693 -5.6693c -3.1311,-0.0000 -5.6693,2.5382 -5.6693 5.6693ZM 672.1974,1570.7741 c 0.0000,3.1311 2.5382,5.6693 5.6693 5.6693c 3.1311,-0.0000 5.6693,-2.5382 5.6693 -5.6693c 0.0000,-3.1311 -2.5382,-5.6693 -5.6693 -5.6693c -3.1311,-0.0000 -5.6693,2.5382 -5.6693 5.6693ZM 672.2029,1873.0218 c 0.0000,3.1311 2.5382,5.6693 5.6693 5.6693c 3.1311,-0.0000 5.6693,-2.5382 5.6693 -5.6693c 0.0000,-3.1311 -2.5382,-5.6693 -5.6693 -5.6693c -3.1311,-0.0000 -5.6693,2.5382 -5.6693 5.6693Z"/></g><g stroke-linejoin="miter" stroke-opacity="1.0" fill-opacity="0.5" stroke="rgb(0,0,0)" stroke-width="0.37795275590551186" fill="rgb(255,255,0)" stroke-linecap="butt" stroke-miterlimit="10.0"><path d="M 3.9685,1490.1391 c 0.0018,-103.2689 0.0036,-206.5379 0.0054 -309.8069c 0.0002,-9.0452 7.3328,-16.3776 16.3779 -16.3776c 107.0662,-0.0000 214.1323,-0.0000 321.1984 -0.0000c 1.2598,-0.0000 2.5197,-0.0000 3.7795 -0.0000c 0.0000,1.2598 0.0000,2.5197 0.0000 3.7795c -1.2598,-0.0000 -2.5197,-0.0000 -3.7795 -0.0000c 0.0000,0.3376 0.0000,0.6752 0.0000 1.0127c 0.0000,0.9223 0.0000,1.8445 0.0000 2.7668c 1.2598,-0.0000 2.5197,-0.0000 3.7795 -0.0000c 0.0000,1.2598 0.0000,2.5197 0.0000 3.7795c -1.2598,-0.0000 -2.5197,-0.0000 -3.7795 -0.0000c 0.0000,0.3376 0.0000,0.6752 0.0000 1.0127c 0.0000,0.9223 0.0000,1.8445 0.0000 2.7668c 1.2598,-0.0000 2.5197,-0.0000 3.7795 -0.0000c 0.0000,1.2598 0.0000,2.5197 0.0000 3.7795c -1.2598,-0.0000 -2.5197,-0.0000 -3.7795 -0.0000c 0.0000,0.3376 0.0000,0.6752 0.0000 1.0127c 0.0000,0.9223 0.0000,1.8445 0.0000 2.7668c 1.2598,-0.0000 2.5197,-0.0000 3.7795 -0.0000c 0.0000,1.2598 0.0000,2.5197 0.0000 3.7795c -1.2598,-0.0000 -2.5197,-0.0000 -3.7795 -0.0000c 0.0000,0.3376 0.0000,0.6751 0.0000 1.0127c 0.0000,0.9223 0.0000,1.8445 0.0000 2.7668c 1.2598,-0.0000 2.5197,-0.0000 3.7795 -0.0000c 0.0000,0.6299 0.0000,1.2599 0.0000 1.8898c 3.7795,-0.0000 7.5590,-0.0000 11.3386 -0.0000c 0.0000,-0.6299 0.0000,-1.2598 0.0000 -1.8898c 1.2598,-0.0000 2.5197,-0.0000 3.7795 -0.0000c 0.0000,-1.2598 0.0000,-2.5197 0.0000 -3.7795c -1.2598,-0.0000 -2.5197,-0.0000 -3.7795 -0.0000c 0.0000,-1.2598 0.0000,-2.5197 0.0000 -3.7795c 1.2598,-0.0000 2.5197,-0.0000 3.7795 -0.0000c 0.0000,-1.2598 0.0000,-2.5197 0.0000 -3.7795c -1.2598,-0.0000 -2.5197,-0.0000 -3.7795 -0.0000c 0.0000,-1.2598 0.0000,-2.5197 0.0000 -3.7795c 1.2598,-0.0000 2.5197,-0.0000 3.7795 -0.0000c 0.0000,-1.2598 0.0000,-2.5197 0.0000 -3.7795c -1.2598,-0.0000 -2.5197,-0.0000 -3.7795 -0.0000c 0.0000,-1.2598 0.0000,-2.5197 0.0000 -3.7795c 1.2598,-0.0000 2.5197,-0.0000 3.7795 -0.0000c 0.0000,-1.2598 0.0000,-2.5196 0.0000 -3.7795c -1.2598,-0.0000 -2.5197,-0.0000 -3.7795 -0.0000c 0.0000,-1.2598 0.0000,-2.5197 0.0000 -3.7795c 1.2598,-0.0000 2.5197,-0.0000 3.7795 -0.0000c 107.0661,-0.0000 214.1322,-0.0000 321.1984 -0.0000c 9.0452,-0.0000 16.3778,7.3325 16.3779 16.3776c 0.0018,103.2690 0.0036,206.5379 0.0054 309.8069c 0.0000,0.0001 0.0000,0.0002 0.0000 0.0003c 0.0000,8.4640 -6.4492,15.5338 -14.8777 16.3091c -91.3199,8.4005 -182.6398,16.8011 -273.9597 25.2016c -0.4988,0.0459 -0.9994,0.0689 -1.5003 0.0689c -18.8976,-0.0000 -37.7953,-0.0000 -56.6929 -0.0000c -18.8976,-0.0000 -37.7953,-0.0000 -56.6929 -0.0000c -0.5009,-0.0000 -1.0015,-0.0230 -1.5003 -0.0689c -91.3199,-8.4005 -182.6398,-16.8011 -273.9597 -25.2016c -8.4284,-0.7753 -14.8777,-7.8451 -14.8777 -16.3091c 0.0000,-0.0001 0.0000,-0.0002 -0.0000 -0.0003ZM 18.4567,1486.3598 c 0.0000,3.1311 2.5382,5.6693 5.6693 5.6693c 3.1311,-0.0000 5.6693,-2.5382 5.6693 -5.6693c 0.0000,-3.1310 -2.5382,-5.6693 -5.6693 -5.6693c -3.1311,-0.0000 -5.6693,2.5382 -5.6693 5.6693ZM 18.4621,1184.1120 c 0.0000,3.1311 2.5382,5.6693 5.6693 5.6693c 3.1311,-0.0000 5.6693,-2.5382 5.6693 -5.6693c 0.0000,-3.1311 -2.5382,-5.6693 -5.6693 -5.6693c -3.1310,-0.0000 -5.6693,2.5382 -5.6693 5.6693ZM 32.3150,1468.2024 c 0.0000,0.0001 0.0000,0.0002 0.0000 0.0002c 0.0000,1.5580 0.2805,3.0601 0.7991 4.4637c 2.6409,1.7369 4.7493,4.2173 6.0275 7.1433c 1.9920,1.1977 4.3177,1.9746 6.8357 2.1879c 78.3634,6.6397 156.7269,13.2795 235.0903 19.9193c 2.9785,-4.0815 7.7988,-6.7334 13.2384 -6.7334c 6.0621,-0.0000 11.3550,3.2936 14.1869 8.1890c 14.1687,-0.0000 28.3373,-0.0000 42.5060 -0.0000c 14.1687,-0.0000 28.3373,-0.0000 42.5060 -0.0000c 2.8318,-4.8954 8.1247,-8.1890 14.1869 -8.1890c 5.4397,-0.0000 10.2599,2.6519 13.2384 6.7334c 78.3634,-6.6397 156.7269,-13.2795 235.0903 -19.9193c 2.5181,-0.2134 4.8438,-0.9903 6.8357 -2.1879c 1.2782,-2.9260 3.3866,-5.4064 6.0275 -7.1433c 0.5186,-1.4036 0.7991,-2.9057 0.7991 -4.4637c 0.0000,-0.0001 0.0000,-0.0002 0.0000 -0.0002c -0.0016,-87.3495 -0.0033,-174.6990 -0.0049 -262.0484c -0.0001,-7.6508 -6.7338,-13.8530 -15.0401 -13.8530c -77.5864,-0.0000 -155.1728,-0.0000 -232.7592 -0.0000c -2.8318,4.8954 -8.1247,8.1890 -14.1869 8.1890c -4.4006,-0.0000 -8.3959,-1.7356 -11.3386 -4.5595c 0.0000,4.7745 0.0000,9.5489 0.0000 14.3233c 0.0000,4.1747 -3.3843,7.5591 -7.5590 7.5591c -25.1969,-0.0000 -50.3937,-0.0000 -75.5906 -0.0000c -4.1747,-0.0000 -7.5590,-3.3843 -7.5590 -7.5591c 0.0000,-1.3775 0.0000,-2.7550 0.0000 -4.1325c 0.0000,-3.3970 0.0000,-6.7939 0.0000 -10.1908c -2.9427,2.8240 -6.9380,4.5595 -11.3386 4.5595c -6.0622,-0.0000 -11.3551,-3.2936 -14.1869 -8.1890c -77.5864,-0.0000 -155.1728,-0.0000 -232.7592 -0.0000c -8.3064,-0.0000 -15.0400,6.2021 -15.0401 13.8530c -0.0016,87.3495 -0.0033,174.6989 -0.0049 262.0484ZM 288.6369,1184.1120 c 0.0000,3.1311 2.5382,5.6693 5.6693 5.6693c 3.1310,-0.0000 5.6693,-2.5382 5.6693 -5.6693c 0.0000,-3.1311 -2.5382,-5.6693 -5.6693 -5.6693c -3.1311,-0.0000 -5.6693,2.5382 -5.6693 5.6693ZM 288.6369,1511.5615 c 0.0000,3.1310 2.5382,5.6693 5.6693 5.6693c 3.1310,-0.0000 5.6693,-2.5382 5.6693 -5.6693c 0.0000,-3.1311 -2.5382,-5.6693 -5.6693 -5.6693c -3.1311,-0.0000 -5.6693,2.5382 -5.6693 5.6693ZM 402.0227,1184.1120 c 0.0000,3.1311 2.5382,5.6693 5.6693 5.6693c 3.1311,-0.0000 5.6693,-2.5382 5.6693 -5.6693c 0.0000,-3.1311 -2.5382,-5.6693 -5.6693 -5.6693c -3.1310,-0.0000 -5.6693,2.5382 -5.6693 5.6693ZM 402.0227,1511.5615 c 0.0000,3.1310 2.5382,5.6693 5.6693 5.6693c 3.1311,-0.0000 5.6693,-2.5382 5.6693 -5.6693c 0.0000,-3.1311 -2.5382,-5.6693 -5.6693 -5.6693c -3.1310,-0.0000 -5.6693,2.5382 -5.6693 5.6693ZM 672.1974,1184.1120 c 0.0000,3.1311 2.5382,5.6693 5.6693 5.6693c 3.1310,-0.0000 5.6693,-2.5382 5.6693 -5.6693c 0.0000,-3.1311 -2.5382,-5.6693 -5.6693 -5.6693c -3.1311,-0.0000 -5.6693,2.5382 -5.6693 5.6693ZM 672.2029,1486.3598 c 0.0000,3.1311 2.5382,5.6693 5.6693 5.6693c 3.1311,-0.0000 5.6693,-2.5382 5.6693 -5.6693c 0.0000,-3.1310 -2.5382,-5.6693 -5.6693 -5.6693c -3.1311,-0.0000 -5.6693,2.5382 -5.6693 5.6693Z"/></g><g stroke-linejoin="miter" stroke-opacity="1.0" fill-opacity="0.5" stroke="rgb(0,0,0)" stroke-width="0.37795275590551186" fill="rgb(255,255,0)" stroke-linecap="butt" stroke-miterlimit="10.0"><path d="M 3.9685,1103.4771 c 0.0018,-103.2690 0.0036,-206.5379 0.0054 -309.8069c 0.0002,-9.0452 7.3328,-16.3777 16.3779 -16.3777c 110.2158,-0.0000 220.4315,-0.0000 330.6472 -0.0000c 110.2158,-0.0000 220.4315,-0.0000 330.6472 -0.0000c 9.0452,-0.0000 16.3778,7.3325 16.3779 16.3777c 0.0018,103.2690 0.0036,206.5379 0.0054 309.8069c 0.0000,0.0001 0.0000,0.0002 0.0000 0.0003c 0.0000,8.4640 -6.4492,15.5338 -14.8777 16.3091c -91.3199,8.4005 -182.6398,16.8011 -273.9597 25.2016c -0.4987,0.0459 -0.9994,0.0689 -1.5003 0.0689c -18.8976,-0.0000 -37.7953,-0.0000 -56.6929 -0.0000c -18.8976,-0.0000 -37.7953,-0.0000 -56.6929 -0.0000c -0.5009,-0.0000 -1.0015,-0.0230 -1.5003 -0.0689c -91.3199,-8.4005 -182.6398,-16.8011 -273.9597 -25.2016c -8.4284,-0.7753 -14.8777,-7.8451 -14.8777 -16.3091c 0.0000,-0.0001 0.0000,-0.0002 -0.0000 -0.0003ZM 18.4567,1099.6978 c 0.0000,3.1311 2.5382,5.6693 5.6693 5.6693c 3.1311,-0.0000 5.6693,-2.5382 5.6693 -5.6693c 0.0000,-3.1311 -2.5382,-5.6693 -5.6693 -5.6693c -3.1311,-0.0000 -5.6693,2.5382 -5.6693 5.6693ZM 18.4621,797.4500 c 0.0000,3.1311 2.5382,5.6693 5.6693 5.6693c 3.1311,-0.0000 5.6693,-2.5382 5.6693 -5.6693c 0.0000,-3.1311 -2.5382,-5.6693 -5.6693 -5.6693c -3.1311,-0.0000 -5.6693,2.5382 -5.6693 5.6693ZM 32.3150,1081.5404 c 0.0000,0.0001 0.0000,0.0002 0.0000 0.0002c 0.0000,1.5580 0.2805,3.0601 0.7991 4.4637c 2.6409,1.7370 4.7493,4.2173 6.0275 7.1433c 1.9920,1.1977 4.3177,1.9746 6.8358 2.1879c 78.3635,6.6398 156.7269,13.2795 235.0903 19.9193c 2.9785,-4.0815 7.7988,-6.7334 13.2385 -6.7334c 6.0622,-0.0000 11.3551,3.2936 14.1869 8.1890c 14.1687,-0.0000 28.3374,-0.0000 42.5060 -0.0000c 14.1687,-0.0000 28.3374,-0.0000 42.5060 -0.0000c 2.8318,-4.8954 8.1247,-8.1890 14.1869 -8.1890c 5.4396,-0.0000 10.2599,2.6519 13.2385 6.7334c 78.3635,-6.6398 156.7269,-13.2795 235.0903 -19.9193c 2.5181,-0.2134 4.8438,-0.9903 6.8358 -2.1879c 1.2782,-2.9260 3.3866,-5.4064 6.0275 -7.1433c 0.5187,-1.4036 0.7991,-2.9057 0.7991 -4.4637c 0.0000,-0.0001 0.0000,-0.0002 0.0000 -0.0002c -0.0017,-87.3495 -0.0033,-174.6990 -0.0050 -262.0484c -0.0001,-7.6508 -6.7338,-13.8530 -15.0401 -13.8530c -77.5864,-0.0000 -155.1728,-0.0000 -232.7592 -0.0000c -2.8318,4.8954 -8.1247,8.1890 -14.1869 8.1890c -4.4006,-0.0000 -8.3959,-1.7356 -11.3386 -4.5596c 0.0000,4.7744 0.0000,9.5489 0.0000 14.3233c 0.0000,4.1748 -3.3843,7.5591 -7.5590 7.5591c -9.4488,-0.0000 -18.8976,-0.0000 -28.3465 -0.0000c 0.0000,-0.3150 0.0000,-0.6299 0.0000 -0.9449c -1.2598,-0.0000 -2.5197,-0.0000 -3.7795 -0.0000c 0.0000,-1.2598 0.0000,-2.5197 0.0000 -3.7795c 1.2598,-0.0000 2.5197,-0.0000 3.7795 -0.0000c 0.0000,-1.2598 0.0000,-2.5197 0.0000 -3.7795c -1.2598,-0.0000 -2.5197,-0.0000 -3.7795 -0.0000c 0.0000,-1.2598 0.0000,-2.5197 0.0000 -3.7795c 1.2598,-0.0000 2.5197,-0.0000 3.7795 -0.0000c 0.0000,-1.2598 0.0000,-2.5197 0.0000 -3.7795c -1.2598,-0.0000 -2.5197,-0.0000 -3.7795 -0.0000c 0.0000,-1.2598 0.0000,-2.5197 0.0000 -3.7795c 1.2598,-0.0000 2.5197,-0.0000 3.7795 -0.0000c 0.0000,-1.2598 0.0000,-2.5197 0.0000 -3.7795c -1.2598,-0.0000 -2.5197,-0.0000 -3.7795 -0.0000c 0.0000,-1.2598 0.0000,-2.5197 0.0000 -3.7795c 1.2598,-0.0000 2.5197,-0.0000 3.7795 -0.0000c 0.0000,-1.2598 0.0000,-2.5197 0.0000 -3.7795c -6.2992,-0.0000 -12.5984,-0.0000 -18.8976 -0.0000c 0.0000,0.3376 0.0000,0.6751 0.0000 1.0127c 0.0000,0.9223 0.0000,1.8445 0.0000 2.7668c 1.2598,-0.0000 2.5197,-0.0000 3.7795 -0.0000c 0.0000,1.2598 0.0000,2.5197 0.0000 3.7795c -1.2598,-0.0000 -2.5197,-0.0000 -3.7795 -0.0000c 0.0000,0.3376 0.0000,0.6751 0.0000 1.0127c 0.0000,0.9222 0.0000,1.8445 0.0000 2.7668c 1.2598,-0.0000 2.5197,-0.0000 3.7795 -0.0000c 0.0000,1.2598 0.0000,2.5197 0.0000 3.7795c -1.2598,-0.0000 -2.5197,-0.0000 -3.7795 -0.0000c 0.0000,0.3376 0.0000,0.6751 0.0000 1.0127c 0.0000,0.9222 0.0000,1.8445 0.0000 2.7668c 1.2598,-0.0000 2.5197,-0.0000 3.7795 -0.0000c 0.0000,1.2598 0.0000,2.5197 0.0000 3.7795c -1.2598,-0.0000 -2.5197,-0.0000 -3.7795 -0.0000c 0.0000,0.3376 0.0000,0.6751 0.0000 1.0127c 0.0000,0.9223 0.0000,1.8445 0.0000 2.7668c 1.2598,-0.0000 2.5197,-0.0000 3.7795 -0.0000c 0.0000,1.2598 0.0000,2.5197 0.0000 3.7795c -1.2598,-0.0000 -2.5197,-0.0000 -3.7795 -0.0000c 0.0000,0.3149 0.0000,0.6299 0.0000 0.9449c -9.4488,-0.0000 -18.8976,-0.0000 -28.3465 -0.0000c -4.1748,-0.0000 -7.5590,-3.3843 -7.5590 -7.5591c 0.0000,-1.3775 0.0000,-2.7550 0.0000 -4.1326c 0.0000,-3.3969 0.0000,-6.7938 0.0000 -10.1908c -2.9427,2.8240 -6.9380,4.5596 -11.3386 4.5596c -6.0622,-0.0000 -11.3551,-3.2936 -14.1869 -8.1890c -77.5864,-0.0000 -155.1728,-0.0000 -232.7592 -0.0000c -8.3064,-0.0000 -15.0400,6.2021 -15.0401 13.8530c -0.0017,87.3495 -0.0033,174.6989 -0.0050 262.0484ZM 288.6369,797.4500 c 0.0000,3.1311 2.5382,5.6693 5.6693 5.6693c 3.1311,-0.0000 5.6693,-2.5382 5.6693 -5.6693c 0.0000,-3.1311 -2.5382,-5.6693 -5.6693 -5.6693c -3.1311,-0.0000 -5.6693,2.5382 -5.6693 5.6693ZM 288.6369,1124.8994 c 0.0000,3.1311 2.5382,5.6693 5.6693 5.6693c 3.1311,-0.0000 5.6693,-2.5382 5.6693 -5.6693c 0.0000,-3.1311 -2.5382,-5.6693 -5.6693 -5.6693c -3.1311,-0.0000 -5.6693,2.5382 -5.6693 5.6693ZM 402.0227,797.4500 c 0.0000,3.1311 2.5382,5.6693 5.6693 5.6693c 3.1311,-0.0000 5.6693,-2.5382 5.6693 -5.6693c 0.0000,-3.1311 -2.5382,-5.6693 -5.6693 -5.6693c -3.1311,-0.0000 -5.6693,2.5382 -5.6693 5.6693ZM 402.0227,1124.8994 c 0.0000,3.1311 2.5382,5.6693 5.6693 5.6693c 3.1311,-0.0000 5.6693,-2.5382 5.6693 -5.6693c 0.0000,-3.1311 -2.5382,-5.6693 -5.6693 -5.6693c -3.1311,-0.0000 -5.6693,2.5382 -5.6693 5.6693ZM 672.1974,797.4500 c 0.0000,3.1311 2.5382,5.6693 5.6693 5.6693c 3.1311,-0.0000 5.6693,-2.5382 5.6693 -5.6693c 0.0000,-3.1311 -2.5382,-5.6693 -5.6693 -5.6693c -3.1311,-0.0000 -5.6693,2.5382 -5.6693 5.6693ZM 672.2029,1099.6978 c 0.0000,3.1311 2.5382,5.6693 5.6693 5.6693c 3.1311,-0.0000 5.6693,-2.5382 5.6693 -5.6693c 0.0000,-3.1311 -2.5382,-5.6693 -5.6693 -5.6693c -3.1311,-0.0000 -5.6693,2.5382 -5.6693 5.6693Z"/></g><g stroke-linejoin="miter" stroke-opacity="1.0" fill-opacity="0.5" stroke="rgb(0,0,0)" stroke-width="0.37795275590551186" fill="rgb(0,0,0)" stroke-linecap="butt" stroke-miterlimit="10.0"><path d="M 3.9685,716.8150 c 0.0018,-103.2690 0.0036,-206.5379 0.0054 -309.8069c 0.0002,-9.0452 7.3328,-16.3777 16.3779 -16.3777c 110.2158,-0.0000 220.4315,-0.0000 330.6472 -0.0000c 110.2158,-0.0000 220.4315,-0.0000 330.6472 -0.0000c 9.0452,-0.0000 16.3778,7.3325 16.3779 16.3777c 0.0018,103.2690 0.0036,206.5379 0.0054 309.8069c 0.0000,0.0001 0.0000,0.0002 0.0000 0.0003c 0.0000,8.4640 -6.4492,15.5338 -14.8777 16.3091c -91.3199,8.4005 -182.6398,16.8011 -273.9597 25.2016c -0.4987,0.0459 -0.9994,0.0689 -1.5003 0.0689c -18.8976,-0.0000 -37.7953,-0.0000 -56.6929 -0.0000c -18.8976,-0.0000 -37.7953,-0.0000 -56.6929 -0.0000c -0.5009,-0.0000 -1.0015,-0.0230 -1.5003 -0.0689c -91.3199,-8.4005 -182.6398,-16.8011 -273.9597 -25.2016c -8.4284,-0.7753 -14.8777,-7.8451 -14.8777 -16.3091c 0.0000,-0.0001 0.0000,-0.0002 -0.0000 -0.0003ZM 18.4567,713.0358 c 0.0000,3.1311 2.5382,5.6693 5.6693 5.6693c 3.1311,-0.0000 5.6693,-2.5382 5.6693 -5.6693c 0.0000,-3.1311 -2.5382,-5.6693 -5.6693 -5.6693c -3.1311,-0.0000 -5.6693,2.5382 -5.6693 5.6693ZM 18.4621,410.7880 c 0.0000,3.1311 2.5382,5.6693 5.6693 5.6693c 3.1311,-0.0000 5.6693,-2.5382 5.6693 -5.6693c 0.0000,-3.1311 -2.5382,-5.6693 -5.6693 -5.6693c -3.1311,-0.0000 -5.6693,2.5382 -5.6693 5.6693ZM 49.4007,703.0315 c 1.0240,-0.0000 2.0480,0.0000 3.0720 0.0000c 0.0000,1.2352 -0.0000,2.4704 -0.0001 3.7056c 17.6000,0.0003 35.2000,0.0006 52.8000 0.0009c 0.0000,-1.2352 0.0001,-2.4704 0.0001 -3.7056c 1.0240,0.0000 2.0480,0.0000 3.0720 0.0001c 0.0001,-4.4096 0.0002,-8.8192 0.0002 -13.2287c -1.0240,-0.0000 -2.0480,-0.0000 -3.0720 -0.0001c 0.0001,-6.3104 0.0002,-12.6208 0.0003 -18.9313c 1.0240,0.0000 2.0480,0.0000 3.0720 0.0001c 0.0001,-4.4096 0.0002,-8.8192 0.0002 -13.2287c -1.0240,-0.0000 -2.0480,-0.0000 -3.0720 -0.0000c 0.0000,-1.2352 0.0001,-2.4704 0.0001 -3.7057c -17.6000,-0.0003 -35.2000,-0.0006 -52.8000 -0.0009c 0.0000,1.2352 -0.0000,2.4704 -0.0001 3.7057c -1.0240,-0.0000 -2.0480,-0.0000 -3.0720 -0.0001c -0.0001,4.4096 -0.0001,8.8192 -0.0002 13.2287c 1.0240,-0.0000 2.0480,0.0000 3.0720 0.0000c -0.0001,6.3104 -0.0002,12.6209 -0.0003 18.9313c -1.0240,-0.0000 -2.0480,-0.0001 -3.0720 -0.0001c -0.0001,4.4096 -0.0002,8.8192 -0.0002 13.2287ZM 49.4019,631.2204 c 1.0240,0.0000 2.0480,0.0001 3.0720 0.0001c 0.0000,1.2352 -0.0000,2.4704 -0.0001 3.7056c 17.6000,0.0003 35.2000,0.0006 52.8000 0.0009c 0.0000,-1.2352 0.0001,-2.4704 0.0001 -3.7056c 1.0240,-0.0000 2.0480,0.0000 3.0720 0.0001c 0.0001,-4.4096 0.0002,-8.8192 0.0002 -13.2287c -1.0240,-0.0000 -2.0480,-0.0000 -3.0720 -0.0001c 0.0001,-6.3104 0.0002,-12.6208 0.0003 -18.9313c 1.0240,0.0000 2.0480,0.0000 3.0720 0.0001c 0.0001,-4.4096 0.0002,-8.8192 0.0002 -13.2287c -1.0240,-0.0000 -2.0480,-0.0000 -3.0720 -0.0001c 0.0000,-1.2352 0.0000,-2.4704 0.0001 -3.7056c -17.6000,-0.0003 -35.2000,-0.0006 -52.8000 -0.0009c -0.0000,1.2352 -0.0000,2.4704 -0.0001 3.7057c -1.0240,-0.0000 -2.0480,-0.0001 -3.0720 -0.0001c -0.0001,4.4096 -0.0001,8.8192 -0.0002 13.2287c 1.0240,0.0000 2.0480,0.0001 3.0720 0.0001c -0.0001,6.3104 -0.0002,12.6209 -0.0003 18.9313c -1.0240,-0.0000 -2.0480,-0.0000 -3.0720 -0.0000c -0.0001,4.4096 -0.0001,8.8192 -0.0002 13.2287ZM 49.4032,559.4094 c 1.0240,0.0000 2.0480,0.0000 3.0720 0.0001c -0.0000,1.2352 -0.0000,2.4704 -0.0001 3.7056c 17.6000,0.0003 35.2000,0.0006 52.8000 0.0009c 0.0000,-1.2352 0.0000,-2.4704 0.0001 -3.7056c 1.0240,-0.0000 2.0480,0.0000 3.0720 0.0000c 0.0001,-4.4095 0.0002,-8.8191 0.0002 -13.2287c -1.0240,-0.0000 -2.0480,-0.0000 -3.0720 -0.0001c 0.0001,-6.3104 0.0002,-12.6208 0.0003 -18.9313c 1.0240,0.0000 2.0480,0.0000 3.0720 0.0000c 0.0001,-4.4095 0.0001,-8.8191 0.0002 -13.2287c -1.0240,-0.0000 -2.0480,-0.0000 -3.0720 -0.0001c 0.0000,-1.2352 0.0000,-2.4704 0.0001 -3.7056c -17.6000,-0.0003 -35.2000,-0.0006 -52.8000 -0.0009c -0.0000,1.2352 -0.0000,2.4704 -0.0001 3.7056c -1.0240,-0.0000 -2.0480,-0.0000 -3.0720 -0.0000c -0.0001,4.4096 -0.0001,8.8192 -0.0002 13.2287c 1.0240,0.0000 2.0480,0.0000 3.0720 0.0001c -0.0001,6.3104 -0.0002,12.6209 -0.0003 18.9313c -1.0240,-0.0000 -2.0480,-0.0000 -3.0720 -0.0000c -0.0001,4.4096 -0.0001,8.8191 -0.0002 13.2287ZM 49.4044,487.5984 c 1.0240,0.0000 2.0480,0.0000 3.0720 0.0001c -0.0000,1.2352 -0.0000,2.4704 -0.0001 3.7056c 17.6000,0.0003 35.2000,0.0006 52.8000 0.0009c 0.0000,-1.2352 0.0000,-2.4704 0.0001 -3.7056c 1.0240,-0.0000 2.0480,0.0000 3.0720 0.0000c 0.0001,-4.4096 0.0002,-8.8192 0.0002 -13.2287c -1.0240,-0.0000 -2.0480,-0.0000 -3.0720 -0.0001c 0.0001,-6.3104 0.0002,-12.6209 0.0003 -18.9313c 1.0240,-0.0000 2.0480,0.0000 3.0720 0.0000c 0.0001,-4.4096 0.0001,-8.8191 0.0002 -13.2287c -1.0240,-0.0000 -2.0480,-0.0000 -3.0720 -0.0001c 0.0000,-1.2352 0.0000,-2.4704 0.0001 -3.7056c -17.6000,-0.0003 -35.2000,-0.0006 -52.8000 -0.0009c -0.0000,1.2352 -0.0000,2.4704 -0.0001 3.7056c -1.0240,-0.0000 -2.0480,-0.0000 -3.0720 -0.0000c -0.0001,4.4095 -0.0001,8.8192 -0.0002 13.2287c 1.0240,0.0000 2.0480,0.0000 3.0720 0.0001c -0.0001,6.3104 -0.0002,12.6208 -0.0003 18.9313c -1.0240,-0.0000 -2.0480,-0.0000 -3.0720 -0.0000c -0.0001,4.4095 -0.0001,8.8191 -0.0002 13.2287ZM 121.2117,703.0327 c 1.0240,0.0000 2.0480,0.0001 3.0720 0.0001c 0.0000,1.2352 -0.0000,2.4704 -0.0001 3.7056c 17.6000,0.0003 35.2000,0.0006 52.8000 0.0009c 0.0000,-1.2352 0.0001,-2.4704 0.0001 -3.7056c 1.0240,-0.0000 2.0480,0.0000 3.0720 0.0001c 0.0001,-4.4096 0.0002,-8.8192 0.0002 -13.2287c -1.0240,-0.0000 -2.0480,-0.0000 -3.0720 -0.0001c 0.0001,-6.3104 0.0002,-12.6208 0.0003 -18.9313c 1.0240,0.0000 2.0480,0.0000 3.0720 0.0001c 0.0001,-4.4096 0.0002,-8.8192 0.0002 -13.2287c -1.0240,-0.0000 -2.0480,-0.0000 -3.0720 -0.0000c 0.0000,-1.2352 0.0001,-2.4704 0.0001 -3.7057c -17.6000,-0.0003 -35.2000,-0.0006 -52.8000 -0.0009c 0.0000,1.2352 -0.0000,2.4704 -0.0001 3.7057c -1.0240,-0.0000 -2.0480,-0.0001 -3.0720 -0.0001c -0.0001,4.4096 -0.0002,8.8192 -0.0002 13.2287c 1.0240,-0.0000 2.0480,0.0000 3.0720 0.0000c -0.0001,6.3104 -0.0002,12.6209 -0.0003 18.9313c -1.0240,-0.0000 -2.0480,-0.0001 -3.0720 -0.0001c -0.0001,4.4096 -0.0002,8.8192 -0.0002 13.2287ZM 121.2130,631.2217 c 1.0240,0.0000 2.0480,0.0000 3.0720 0.0001c 0.0000,1.2352 -0.0000,2.4704 -0.0001 3.7056c 17.6000,0.0003 35.2000,0.0006 52.8000 0.0009c 0.0000,-1.2352 0.0001,-2.4704 0.0001 -3.7056c 1.0240,-0.0000 2.0480,0.0000 3.0720 0.0000c 0.0001,-4.4095 0.0002,-8.8191 0.0002 -13.2287c -1.0240,-0.0000 -2.0480,-0.0000 -3.0720 -0.0001c 0.0001,-6.3104 0.0002,-12.6208 0.0003 -18.9313c 1.0240,0.0000 2.0480,0.0000 3.0720 0.0000c 0.0001,-4.4095 0.0002,-8.8191 0.0002 -13.2287c -1.0240,-0.0000 -2.0480,-0.0000 -3.0720 -0.0001c 0.0000,-1.2352 0.0001,-2.4704 0.0001 -3.7056c -17.6000,-0.0003 -35.2000,-0.0006 -52.8000 -0.0009c 0.0000,1.2352 -0.0000,2.4704 -0.0001 3.7056c -1.0240,-0.0000 -2.0480,-0.0000 -3.0720 -0.0000c -0.0001,4.4096 -0.0001,8.8192 -0.0002 13.2287c 1.0240,-0.0000 2.0480,-0.0000 3.0720 0.0000c -0.0001,6.3104 -0.0002,12.6209 -0.0003 18.9313c -1.0240,-0.0000 -2.0480,-0.0000 -3.0720 -0.0000c -0.0001,4.4096 -0.0002,8.8191 -0.0002 13.2287ZM 121.2142,559.4106 c 1.0240,0.0000 2.0480,0.0000 3.0720 0.0001c 0.0000,1.2352 -0.0000,2.4704 -0.0001 3.7056c 17.6000,0.0003 35.2000,0.0006 52.8000 0.0009c 0.0000,-1.2352 0.0001,-2.4704 0.0001 -3.7056c 1.0240,-0.0000 2.0480,0.0000 3.0720 0.0000c 0.0001,-4.4096 0.0002,-8.8191 0.0002 -13.2287c -1.0240,-0.0000 -2.0480,-0.0000 -3.0720 -0.0001c 0.0001,-6.3104 0.0002,-12.6208 0.0003 -18.9313c 1.0240,-0.0000 2.0480,0.0000 3.0720 0.0000c 0.0001,-4.4095 0.0002,-8.8191 0.0002 -13.2287c -1.0240,-0.0000 -2.0480,-0.0000 -3.0720 -0.0001c 0.0000,-1.2352 0.0000,-2.4704 0.0001 -3.7056c -17.6000,-0.0003 -35.2000,-0.0006 -52.8000 -0.0009c -0.0000,1.2352 -0.0000,2.4704 -0.0001 3.7056c -1.0240,-0.0000 -2.0480,-0.0000 -3.0720 -0.0000c -0.0001,4.4096 -0.0002,8.8192 -0.0003 13.2287c 1.0240,0.0000 2.0480,0.0000 3.0720 0.0001c -0.0001,6.3104 -0.0002,12.6208 -0.0003 18.9313c -1.0240,-0.0000 -2.0480,-0.0000 -3.0720 -0.0000c -0.0001,4.4095 -0.0001,8.8191 -0.0002 13.2287ZM 121.2155,487.5996 c 1.0240,0.0000 2.0480,0.0000 3.0720 0.0001c -0.0000,1.2352 -0.0000,2.4704 -0.0001 3.7056c 17.6000,0.0003 35.2000,0.0006 52.8000 0.0009c 0.0000,-1.2352 0.0000,-2.4704 0.0001 -3.7057c 1.0240,0.0000 2.0480,0.0001 3.0720 0.0001c 0.0001,-4.4096 0.0002,-8.8192 0.0002 -13.2287c -1.0240,-0.0000 -2.0480,-0.0001 -3.0720 -0.0001c 0.0001,-6.3104 0.0002,-12.6209 0.0003 -18.9313c 1.0240,-0.0000 2.0480,0.0000 3.0720 0.0000c 0.0001,-4.4096 0.0002,-8.8191 0.0002 -13.2287c -1.0240,-0.0000 -2.0480,-0.0000 -3.0720 -0.0001c 0.0000,-1.2352 0.0000,-2.4704 0.0001 -3.7056c -17.6000,-0.0003 -35.2000,-0.0006 -52.8000 -0.0009c -0.0000,1.2352 -0.0000,2.4704 -0.0001 3.7056c -1.0240,-0.0000 -2.0480,-0.0000 -3.0720 -0.0000c -0.0001,4.4095 -0.0001,8.8191 -0.0002 13.2287c 1.0240,0.0000 2.0480,0.0000 3.0720 0.0001c -0.0001,6.3104 -0.0002,12.6208 -0.0003 18.9313c -1.0240,-0.0000 -2.0480,-0.0000 -3.0720 -0.0001c -0.0001,4.4096 -0.0001,8.8192 -0.0002 13.2287ZM 193.0227,703.0339 c 1.0240,0.0000 2.0480,0.0000 3.0720 0.0001c -0.0000,1.2352 -0.0001,2.4704 -0.0001 3.7056c 17.6000,0.0003 35.2000,0.0006 52.8000 0.0009c 0.0000,-1.2352 0.0000,-2.4704 0.0001 -3.7056c 1.0240,-0.0000 2.0480,0.0000 3.0720 0.0000c 0.0001,-4.4095 0.0002,-8.8191 0.0002 -13.2287c -1.0240,-0.0000 -2.0480,-0.0000 -3.0720 -0.0001c 0.0001,-6.3104 0.0002,-12.6208 0.0003 -18.9313c 1.0240,0.0000 2.0480,0.0000 3.0720 0.0001c 0.0001,-4.4096 0.0002,-8.8192 0.0002 -13.2287c -1.0240,-0.0000 -2.0480,-0.0000 -3.0720 -0.0001c 0.0000,-1.2352 0.0000,-2.4704 0.0000 -3.7056c -17.6000,-0.0003 -35.2000,-0.0006 -52.8000 -0.0009c 0.0000,1.2352 -0.0000,2.4704 -0.0001 3.7056c -1.0240,-0.0000 -2.0480,-0.0000 -3.0720 -0.0000c -0.0001,4.4096 -0.0002,8.8192 -0.0002 13.2287c 1.0240,-0.0000 2.0480,0.0000 3.0720 0.0000c -0.0001,6.3104 -0.0002,12.6209 -0.0003 18.9313c -1.0240,-0.0000 -2.0480,-0.0000 -3.0720 -0.0000c -0.0001,4.4096 -0.0002,8.8192 -0.0002 13.2287ZM 193.0240,631.2229 c 1.0240,0.0000 2.0480,0.0000 3.0720 0.0001c -0.0000,1.2352 -0.0001,2.4704 -0.0001 3.7056c 17.6000,0.0003 35.2000,0.0006 52.8000 0.0009c 0.0000,-1.2352 0.0001,-2.4704 0.0001 -3.7056c 1.0240,-0.0000 2.0480,0.0000 3.0720 0.0000c 0.0001,-4.4096 0.0002,-8.8191 0.0002 -13.2287c -1.0240,-0.0000 -2.0480,-0.0000 -3.0720 -0.0001c 0.0001,-6.3104 0.0002,-12.6208 0.0003 -18.9313c 1.0240,-0.0000 2.0480,0.0000 3.0720 0.0000c 0.0001,-4.4095 0.0002,-8.8191 0.0002 -13.2287c -1.0240,-0.0000 -2.0480,-0.0000 -3.0720 -0.0001c 0.0000,-1.2352 0.0000,-2.4704 0.0000 -3.7056c -17.6000,-0.0003 -35.2000,-0.0006 -52.8000 -0.0009c 0.0000,1.2352 -0.0000,2.4704 -0.0001 3.7056c -1.0240,-0.0000 -2.0480,-0.0000 -3.0720 -0.0000c -0.0001,4.4096 -0.0002,8.8192 -0.0002 13.2287c 1.0240,0.0000 2.0480,0.0000 3.0720 0.0001c -0.0001,6.3104 -0.0002,12.6209 -0.0003 18.9313c -1.0240,-0.0000 -2.0480,-0.0000 -3.0720 -0.0000c -0.0001,4.4095 -0.0002,8.8191 -0.0002 13.2287ZM 193.0253,559.4119 c 1.0240,0.0000 2.0480,0.0000 3.0720 0.0001c 0.0000,1.2352 -0.0000,2.4704 -0.0001 3.7056c 17.6000,0.0003 35.2000,0.0006 52.8000 0.0009c 0.0000,-1.2352 0.0001,-2.4704 0.0001 -3.7057c 1.0240,0.0000 2.0480,0.0001 3.0720 0.0001c 0.0001,-4.4096 0.0002,-8.8192 0.0002 -13.2287c -1.0240,-0.0000 -2.0480,-0.0001 -3.0720 -0.0001c 0.0001,-6.3104 0.0002,-12.6208 0.0003 -18.9313c 1.0240,-0.0000 2.0480,0.0000 3.0720 0.0000c 0.0001,-4.4095 0.0002,-8.8191 0.0002 -13.2287c -1.0240,-0.0000 -2.0480,-0.0000 -3.0720 -0.0001c 0.0000,-1.2352 0.0001,-2.4704 0.0001 -3.7056c -17.6000,-0.0003 -35.2000,-0.0006 -52.8000 -0.0009c 0.0000,1.2352 -0.0000,2.4704 -0.0001 3.7056c -1.0240,-0.0000 -2.0480,-0.0000 -3.0720 -0.0000c -0.0001,4.4095 -0.0002,8.8191 -0.0002 13.2287c 1.0240,0.0000 2.0480,0.0000 3.0720 0.0001c -0.0001,6.3104 -0.0002,12.6208 -0.0003 18.9313c -1.0240,-0.0000 -2.0480,-0.0000 -3.0720 -0.0001c -0.0001,4.4096 -0.0002,8.8192 -0.0002 13.2287ZM 193.0265,487.6009 c 1.0240,-0.0000 2.0480,0.0000 3.0720 0.0001c 0.0000,1.2352 -0.0000,2.4704 -0.0001 3.7056c 17.6000,0.0003 35.2000,0.0006 52.8000 0.0009c 0.0000,-1.2352 0.0001,-2.4704 0.0001 -3.7057c 1.0240,0.0000 2.0480,0.0000 3.0720 0.0001c 0.0001,-4.4096 0.0002,-8.8192 0.0002 -13.2287c -1.0240,-0.0000 -2.0480,-0.0000 -3.0720 -0.0000c 0.0001,-6.3104 0.0002,-12.6209 0.0003 -18.9313c 1.0240,-0.0000 2.0480,0.0000 3.0720 0.0000c 0.0001,-4.4096 0.0002,-8.8192 0.0002 -13.2287c -1.0240,-0.0000 -2.0480,-0.0001 -3.0720 -0.0001c 0.0000,-1.2352 0.0000,-2.4704 0.0001 -3.7056c -17.6000,-0.0003 -35.2000,-0.0006 -52.8000 -0.0009c -0.0000,1.2352 -0.0000,2.4704 -0.0001 3.7056c -1.0240,-0.0000 -2.0480,-0.0000 -3.0720 -0.0001c -0.0001,4.4096 -0.0002,8.8192 -0.0003 13.2287c 1.0240,0.0000 2.0480,0.0000 3.0720 0.0001c -0.0001,6.3104 -0.0002,12.6208 -0.0003 18.9313c -1.0240,-0.0000 -2.0480,-0.0000 -3.0720 -0.0001c -0.0001,4.4096 -0.0001,8.8192 -0.0002 13.2287ZM 264.8338,703.0352 c 1.0240,0.0000 2.0480,0.0000 3.0720 0.0001c -0.0000,1.2352 -0.0001,2.4704 -0.0001 3.7056c 17.6000,0.0003 35.2000,0.0006 52.8000 0.0009c 0.0000,-1.2352 0.0000,-2.4704 0.0001 -3.7056c 1.0240,-0.0000 2.0480,0.0000 3.0720 0.0000c 0.0001,-4.4096 0.0001,-8.8191 0.0002 -13.2287c -1.0240,-0.0000 -2.0480,-0.0000 -3.0720 -0.0001c 0.0001,-6.3104 0.0002,-12.6208 0.0003 -18.9313c 1.0240,-0.0000 2.0480,0.0000 3.0720 0.0001c 0.0001,-4.4096 0.0002,-8.8192 0.0002 -13.2287c -1.0240,-0.0000 -2.0480,-0.0000 -3.0720 -0.0001c 0.0000,-1.2352 0.0000,-2.4704 0.0001 -3.7056c -17.6000,-0.0003 -35.2000,-0.0006 -52.8000 -0.0009c -0.0000,1.2352 -0.0001,2.4704 -0.0001 3.7056c -1.0240,-0.0000 -2.0480,-0.0000 -3.0720 -0.0000c -0.0001,4.4096 -0.0002,8.8192 -0.0002 13.2287c 1.0240,0.0000 2.0480,0.0000 3.0720 0.0001c -0.0001,6.3104 -0.0002,12.6209 -0.0003 18.9313c -1.0240,-0.0000 -2.0480,-0.0000 -3.0720 -0.0000c -0.0001,4.4095 -0.0002,8.8192 -0.0002 13.2287ZM 264.8350,631.2242 c 1.0240,0.0000 2.0480,0.0000 3.0720 0.0001c -0.0000,1.2352 -0.0001,2.4704 -0.0001 3.7056c 17.6000,0.0003 35.2000,0.0006 52.8000 0.0009c 0.0000,-1.2352 0.0000,-2.4704 0.0001 -3.7056c 1.0240,-0.0000 2.0480,0.0000 3.0720 0.0000c 0.0001,-4.4096 0.0002,-8.8192 0.0002 -13.2287c -1.0240,-0.0000 -2.0480,-0.0000 -3.0720 -0.0001c 0.0001,-6.3104 0.0002,-12.6208 0.0003 -18.9313c 1.0240,-0.0000 2.0480,0.0000 3.0720 0.0000c 0.0001,-4.4095 0.0002,-8.8191 0.0002 -13.2287c -1.0240,-0.0000 -2.0480,-0.0000 -3.0720 -0.0001c 0.0000,-1.2352 0.0000,-2.4704 0.0001 -3.7056c -17.6000,-0.0003 -35.2000,-0.0006 -52.8000 -0.0009c -0.0000,1.2352 -0.0001,2.4704 -0.0001 3.7056c -1.0240,-0.0000 -2.0480,-0.0000 -3.0720 -0.0000c -0.0001,4.4095 -0.0002,8.8191 -0.0002 13.2287c 1.0240,0.0000 2.0480,0.0000 3.0720 0.0001c -0.0001,6.3104 -0.0002,12.6208 -0.0003 18.9313c -1.0240,-0.0000 -2.0480,-0.0000 -3.0720 -0.0001c -0.0001,4.4096 -0.0002,8.8192 -0.0002 13.2287ZM 264.8363,559.4132 c 1.0240,0.0000 2.0480,0.0000 3.0720 0.0001c -0.0000,1.2352 -0.0001,2.4704 -0.0001 3.7056c 17.6000,0.0003 35.2000,0.0006 52.8000 0.0009c 0.0000,-1.2352 0.0000,-2.4704 0.0001 -3.7056c 1.0240,-0.0000 2.0480,0.0000 3.0720 0.0000c 0.0001,-4.4096 0.0002,-8.8192 0.0002 -13.2287c -1.0240,-0.0000 -2.0480,-0.0001 -3.0720 -0.0001c 0.0001,-6.3104 0.0002,-12.6209 0.0004 -18.9313c 1.0240,-0.0000 2.0480,0.0000 3.0720 0.0000c 0.0001,-4.4096 0.0002,-8.8192 0.0002 -13.2287c -1.0240,-0.0000 -2.0480,-0.0001 -3.0720 -0.0001c 0.0000,-1.2352 0.0000,-2.4704 0.0000 -3.7056c -17.6000,-0.0003 -35.2000,-0.0006 -52.8000 -0.0009c 0.0000,1.2352 -0.0000,2.4704 -0.0000 3.7056c -1.0240,-0.0000 -2.0480,-0.0000 -3.0720 -0.0001c -0.0001,4.4096 -0.0002,8.8192 -0.0002 13.2287c 1.0240,0.0000 2.0480,0.0000 3.0720 0.0001c -0.0001,6.3104 -0.0002,12.6208 -0.0003 18.9313c -1.0240,-0.0000 -2.0480,-0.0000 -3.0720 -0.0001c -0.0001,4.4096 -0.0002,8.8192 -0.0002 13.2287ZM 264.8375,487.6021 c 1.0240,-0.0000 2.0480,0.0000 3.0720 0.0001c 0.0000,1.2352 -0.0000,2.4704 -0.0001 3.7056c 17.6000,0.0003 35.2000,0.0006 52.8000 0.0009c 0.0000,-1.2352 0.0000,-2.4704 0.0000 -3.7057c 1.0240,0.0000 2.0480,0.0000 3.0720 0.0001c 0.0001,-4.4096 0.0002,-8.8192 0.0002 -13.2287c -1.0240,-0.0000 -2.0480,-0.0000 -3.0720 -0.0000c 0.0001,-6.3104 0.0002,-12.6209 0.0003 -18.9313c 1.0240,-0.0000 2.0480,0.0000 3.0720 0.0000c 0.0001,-4.4096 0.0002,-8.8192 0.0002 -13.2287c -1.0240,-0.0000 -2.0480,-0.0000 -3.0720 -0.0000c 0.0000,-1.2352 0.0001,-2.4704 0.0001 -3.7056c -17.6000,-0.0003 -35.2000,-0.0006 -52.8000 -0.0009c 0.0000,1.2352 -0.0000,2.4704 -0.0001 3.7056c -1.0240,-0.0000 -2.0480,-0.0000 -3.0720 -0.0001c -0.0001,4.4096 -0.0002,8.8192 -0.0002 13.2287c 1.0240,-0.0000 2.0480,0.0000 3.0720 0.0001c -0.0001,6.3104 -0.0002,12.6208 -0.0003 18.9313c -1.0240,-0.0000 -2.0480,-0.0000 -3.0720 -0.0001c -0.0001,4.4096 -0.0002,8.8192 -0.0002 13.2287ZM 288.6369,410.7880 c 0.0000,3.1311 2.5382,5.6693 5.6693 5.6693c 3.1311,-0.0000 5.6693,-2.5382 5.6693 -5.6693c 0.0000,-3.1311 -2.5382,-5.6693 -5.6693 -5.6693c -3.1311,-0.0000 -5.6693,2.5382 -5.6693 5.6693ZM 288.6369,738.2374 c 0.0000,3.1311 2.5382,5.6693 5.6693 5.6693c 3.1311,-0.0000 5.6693,-2.5382 5.6693 -5.6693c 0.0000,-3.1311 -2.5382,-5.6693 -5.6693 -5.6693c -3.1311,-0.0000 -5.6693,2.5382 -5.6693 5.6693ZM 378.2158,442.2144 c 0.0001,4.4096 0.0001,8.8192 0.0002 13.2287c 1.0240,-0.0000 2.0480,-0.0000 3.0720 -0.0000c 0.0001,6.3104 0.0002,12.6208 0.0003 18.9313c -1.0240,-0.0000 -2.0480,0.0000 -3.0720 0.0000c 0.0001,4.4096 0.0002,8.8192 0.0002 13.2287c 1.0240,-0.0000 2.0480,-0.0000 3.0720 -0.0001c 0.0000,1.2352 0.0000,2.4704 0.0000 3.7057c 17.6000,-0.0003 35.2000,-0.0006 52.8000 -0.0009c -0.0000,-1.2352 -0.0001,-2.4704 -0.0001 -3.7056c 1.0240,-0.0000 2.0480,-0.0001 3.0720 -0.0001c -0.0001,-4.4096 -0.0001,-8.8192 -0.0002 -13.2287c -1.0240,0.0000 -2.0480,0.0000 -3.0720 0.0001c -0.0001,-6.3104 -0.0002,-12.6209 -0.0003 -18.9313c 1.0240,-0.0000 2.0480,-0.0001 3.0720 -0.0001c -0.0001,-4.4096 -0.0001,-8.8192 -0.0002 -13.2287c -1.0240,0.0000 -2.0480,0.0000 -3.0720 0.0001c -0.0000,-1.2352 -0.0001,-2.4704 -0.0001 -3.7056c -17.6000,0.0003 -35.2000,0.0006 -52.8000 0.0009c 0.0000,1.2352 0.0000,2.4704 0.0001 3.7056c -1.0240,-0.0000 -2.0480,0.0000 -3.0720 0.0000ZM 378.2171,514.0255 c 0.0001,4.4095 0.0001,8.8191 0.0002 13.2287c 1.0240,-0.0000 2.0480,-0.0000 3.0720 -0.0000c 0.0001,6.3104 0.0002,12.6208 0.0004 18.9313c -1.0240,-0.0000 -2.0480,0.0000 -3.0720 0.0001c 0.0001,4.4095 0.0001,8.8191 0.0002 13.2287c 1.0240,-0.0000 2.0480,-0.0000 3.0720 -0.0000c 0.0000,1.2352 0.0001,2.4704 0.0001 3.7056c 17.6000,-0.0003 35.2000,-0.0006 52.8000 -0.0009c -0.0000,-1.2352 -0.0001,-2.4704 -0.0001 -3.7056c 1.0240,-0.0000 2.0480,-0.0000 3.0720 -0.0001c -0.0001,-4.4096 -0.0001,-8.8192 -0.0002 -13.2287c -1.0240,0.0000 -2.0480,0.0000 -3.0720 0.0001c -0.0001,-6.3104 -0.0002,-12.6209 -0.0003 -18.9313c 1.0240,-0.0000 2.0480,-0.0000 3.0720 -0.0001c -0.0001,-4.4096 -0.0001,-8.8192 -0.0002 -13.2287c -1.0240,0.0000 -2.0480,0.0001 -3.0720 0.0001c 0.0000,-1.2352 -0.0000,-2.4704 -0.0000 -3.7056c -17.6000,0.0003 -35.2000,0.0006 -52.8000 0.0009c 0.0000,1.2352 0.0000,2.4704 0.0000 3.7056c -1.0240,-0.0000 -2.0480,0.0000 -3.0720 0.0001ZM 378.2183,585.8365 c 0.0001,4.4096 0.0001,8.8192 0.0002 13.2287c 1.0240,-0.0000 2.0480,-0.0000 3.0720 -0.0000c 0.0001,6.3104 0.0002,12.6208 0.0003 18.9313c -1.0240,0.0000 -2.0480,0.0000 -3.0720 0.0001c 0.0001,4.4095 0.0001,8.8191 0.0002 13.2287c 1.0240,-0.0000 2.0480,-0.0000 3.0720 -0.0000c 0.0000,1.2352 0.0001,2.4704 0.0001 3.7056c 17.6000,-0.0003 35.2000,-0.0006 52.8000 -0.0009c 0.0000,-1.2352 -0.0000,-2.4704 -0.0001 -3.7056c 1.0240,-0.0000 2.0480,-0.0000 3.0720 -0.0001c -0.0001,-4.4096 -0.0002,-8.8192 -0.0002 -13.2287c -1.0240,0.0000 -2.0480,0.0001 -3.0720 0.0001c -0.0001,-6.3104 -0.0002,-12.6208 -0.0003 -18.9313c 1.0240,-0.0000 2.0480,-0.0000 3.0720 -0.0001c -0.0001,-4.4096 -0.0001,-8.8192 -0.0002 -13.2287c -1.0240,-0.0000 -2.0480,0.0000 -3.0720 0.0000c 0.0000,-1.2352 -0.0000,-2.4704 -0.0001 -3.7056c -17.6000,0.0003 -35.2000,0.0006 -52.8000 0.0009c 0.0000,1.2352 0.0001,2.4704 0.0001 3.7056c -1.0240,0.0000 -2.0480,0.0000 -3.0720 0.0001ZM 378.2196,657.6475 c 0.0001,4.4096 0.0001,8.8192 0.0002 13.2287c 1.0240,-0.0000 2.0480,-0.0001 3.0720 -0.0001c 0.0001,6.3104 0.0002,12.6208 0.0003 18.9313c -1.0240,0.0000 -2.0480,0.0000 -3.0720 0.0001c 0.0001,4.4096 0.0001,8.8191 0.0002 13.2287c 1.0240,-0.0000 2.0480,-0.0000 3.0720 -0.0000c 0.0000,1.2352 0.0001,2.4704 0.0001 3.7056c 17.6000,-0.0003 35.2000,-0.0006 52.8000 -0.0009c 0.0000,-1.2352 -0.0000,-2.4704 -0.0001 -3.7056c 1.0240,-0.0000 2.0480,-0.0000 3.0720 -0.0001c -0.0001,-4.4095 -0.0002,-8.8192 -0.0002 -13.2287c -1.0240,-0.0000 -2.0480,0.0000 -3.0720 0.0000c -0.0001,-6.3104 -0.0002,-12.6208 -0.0003 -18.9313c 1.0240,-0.0000 2.0480,-0.0000 3.0720 -0.0001c -0.0001,-4.4095 -0.0002,-8.8191 -0.0002 -13.2287c -1.0240,-0.0000 -2.0480,0.0000 -3.0720 0.0000c 0.0000,-1.2352 -0.0000,-2.4704 -0.0001 -3.7056c -17.6000,0.0003 -35.2000,0.0006 -52.8000 0.0009c 0.0000,1.2352 0.0001,2.4704 0.0001 3.7056c -1.0240,0.0000 -2.0480,0.0000 -3.0720 0.0001ZM 402.0227,410.7880 c 0.0000,3.1311 2.5382,5.6693 5.6693 5.6693c 3.1311,-0.0000 5.6693,-2.5382 5.6693 -5.6693c 0.0000,-3.1311 -2.5382,-5.6693 -5.6693 -5.6693c -3.1311,-0.0000 -5.6693,2.5382 -5.6693 5.6693ZM 402.0227,738.2374 c 0.0000,3.1311 2.5382,5.6693 5.6693 5.6693c 3.1311,-0.0000 5.6693,-2.5382 5.6693 -5.6693c 0.0000,-3.1311 -2.5382,-5.6693 -5.6693 -5.6693c -3.1311,-0.0000 -5.6693,2.5382 -5.6693 5.6693ZM 450.0268,442.2132 c 0.0001,4.4095 0.0002,8.8191 0.0002 13.2287c 1.0240,-0.0000 2.0480,-0.0000 3.0720 -0.0000c 0.0001,6.3104 0.0002,12.6208 0.0003 18.9313c -1.0240,-0.0000 -2.0480,0.0000 -3.0720 0.0000c 0.0001,4.4096 0.0002,8.8192 0.0002 13.2287c 1.0240,-0.0000 2.0480,-0.0000 3.0720 -0.0001c 0.0000,1.2352 0.0000,2.4704 0.0001 3.7057c 17.6000,-0.0003 35.2000,-0.0006 52.8000 -0.0009c -0.0000,-1.2352 -0.0001,-2.4704 -0.0001 -3.7056c 1.0240,-0.0000 2.0480,-0.0001 3.0720 -0.0001c -0.0001,-4.4096 -0.0001,-8.8192 -0.0002 -13.2287c -1.0240,0.0000 -2.0480,0.0000 -3.0720 0.0001c -0.0001,-6.3104 -0.0002,-12.6209 -0.0003 -18.9313c 1.0240,-0.0000 2.0480,-0.0000 3.0720 -0.0001c -0.0001,-4.4096 -0.0002,-8.8192 -0.0003 -13.2287c -1.0240,0.0000 -2.0480,0.0001 -3.0720 0.0001c -0.0000,-1.2352 -0.0000,-2.4704 -0.0001 -3.7056c -17.6000,0.0003 -35.2000,0.0006 -52.8000 0.0009c 0.0000,1.2352 0.0000,2.4704 0.0001 3.7056c -1.0240,-0.0000 -2.0480,0.0000 -3.0720 0.0001ZM 450.0281,514.0242 c 0.0001,4.4096 0.0002,8.8192 0.0002 13.2287c 1.0240,-0.0000 2.0480,-0.0000 3.0720 -0.0000c 0.0001,6.3104 0.0002,12.6208 0.0003 18.9313c -1.0240,-0.0000 -2.0480,0.0000 -3.0720 0.0001c 0.0001,4.4095 0.0002,8.8191 0.0002 13.2287c 1.0240,-0.0000 2.0480,-0.0000 3.0720 -0.0001c 0.0000,1.2352 0.0000,2.4704 0.0001 3.7057c 17.6000,-0.0003 35.2000,-0.0006 52.8000 -0.0009c -0.0000,-1.2352 -0.0001,-2.4704 -0.0001 -3.7056c 1.0240,-0.0000 2.0480,-0.0000 3.0720 -0.0001c -0.0001,-4.4096 -0.0001,-8.8192 -0.0002 -13.2287c -1.0240,0.0000 -2.0480,0.0001 -3.0720 0.0001c -0.0001,-6.3104 -0.0002,-12.6208 -0.0003 -18.9313c 1.0240,-0.0000 2.0480,-0.0000 3.0720 -0.0001c -0.0001,-4.4096 -0.0001,-8.8192 -0.0002 -13.2287c -1.0240,-0.0000 -2.0480,0.0000 -3.0720 0.0000c -0.0000,-1.2352 -0.0001,-2.4704 -0.0001 -3.7056c -17.6000,0.0003 -35.2000,0.0006 -52.8000 0.0009c 0.0000,1.2352 0.0000,2.4704 0.0001 3.7056c -1.0240,0.0000 -2.0480,0.0000 -3.0720 0.0001ZM 450.0294,585.8352 c 0.0001,4.4096 0.0001,8.8192 0.0002 13.2287c 1.0240,-0.0000 2.0480,-0.0000 3.0720 -0.0000c 0.0001,6.3104 0.0002,12.6208 0.0003 18.9313c -1.0240,0.0000 -2.0480,0.0000 -3.0720 0.0001c 0.0001,4.4096 0.0001,8.8191 0.0002 13.2287c 1.0240,-0.0000 2.0480,-0.0000 3.0720 -0.0000c 0.0000,1.2352 0.0001,2.4704 0.0001 3.7056c 17.6000,-0.0003 35.2000,-0.0006 52.8000 -0.0009c -0.0000,-1.2352 -0.0001,-2.4704 -0.0001 -3.7056c 1.0240,-0.0000 2.0480,-0.0000 3.0720 -0.0001c -0.0001,-4.4096 -0.0001,-8.8192 -0.0002 -13.2287c -1.0240,-0.0000 -2.0480,0.0000 -3.0720 0.0000c -0.0001,-6.3104 -0.0002,-12.6208 -0.0003 -18.9313c 1.0240,-0.0000 2.0480,-0.0000 3.0720 -0.0001c -0.0001,-4.4095 -0.0001,-8.8191 -0.0002 -13.2287c -1.0240,-0.0000 -2.0480,0.0000 -3.0720 0.0000c -0.0000,-1.2352 -0.0001,-2.4704 -0.0001 -3.7056c -17.6000,0.0003 -35.2000,0.0006 -52.8000 0.0009c 0.0000,1.2352 0.0000,2.4704 0.0000 3.7056c -1.0240,0.0000 -2.0480,0.0000 -3.0720 0.0001ZM 450.0306,657.6463 c 0.0001,4.4096 0.0001,8.8192 0.0002 13.2287c 1.0240,-0.0000 2.0480,-0.0000 3.0720 -0.0001c 0.0001,6.3104 0.0002,12.6209 0.0003 18.9313c -1.0240,0.0000 -2.0480,0.0000 -3.0720 0.0001c 0.0001,4.4096 0.0001,8.8192 0.0002 13.2287c 1.0240,-0.0000 2.0480,-0.0000 3.0720 -0.0000c 0.0000,1.2352 0.0001,2.4704 0.0001 3.7056c 17.6000,-0.0003 35.2000,-0.0006 52.8000 -0.0009c 0.0000,-1.2352 -0.0000,-2.4704 -0.0001 -3.7056c 1.0240,-0.0000 2.0480,-0.0000 3.0720 -0.0001c -0.0001,-4.4095 -0.0002,-8.8191 -0.0002 -13.2287c -1.0240,-0.0000 -2.0480,0.0000 -3.0720 0.0000c -0.0001,-6.3104 -0.0002,-12.6208 -0.0003 -18.9313c 1.0240,-0.0000 2.0480,-0.0000 3.0720 -0.0000c -0.0001,-4.4096 -0.0001,-8.8192 -0.0002 -13.2287c -1.0240,-0.0000 -2.0480,0.0000 -3.0720 0.0000c -0.0000,-1.2352 -0.0001,-2.4704 -0.0001 -3.7056c -17.6000,0.0003 -35.2000,0.0006 -52.8000 0.0009c 0.0000,1.2352 0.0000,2.4704 0.0000 3.7056c -1.0240,0.0000 -2.0480,0.0000 -3.0720 0.0001ZM 521.8379,442.2119 c 0.0001,4.4096 0.0002,8.8191 0.0002 13.2287c 1.0240,-0.0000 2.0480,-0.0000 3.0720 -0.0000c 0.0001,6.3104 0.0002,12.6208 0.0003 18.9313c -1.0240,-0.0000 -2.0480,0.0000 -3.0720 0.0001c 0.0001,4.4095 0.0002,8.8191 0.0002 13.2287c 1.0240,-0.0000 2.0480,-0.0000 3.0720 -0.0001c 0.0000,1.2352 0.0000,2.4704 0.0001 3.7057c 17.6000,-0.0003 35.2000,-0.0006 52.8000 -0.0009c -0.0000,-1.2352 -0.0000,-2.4704 -0.0001 -3.7056c 1.0240,-0.0000 2.0480,-0.0000 3.0720 -0.0001c -0.0001,-4.4096 -0.0002,-8.8192 -0.0002 -13.2287c -1.0240,0.0000 -2.0480,0.0001 -3.0720 0.0001c -0.0001,-6.3104 -0.0002,-12.6208 -0.0003 -18.9313c 1.0240,-0.0000 2.0480,-0.0000 3.0720 -0.0001c -0.0001,-4.4096 -0.0002,-8.8192 -0.0002 -13.2287c -1.0240,-0.0000 -2.0480,0.0000 -3.0720 0.0000c -0.0000,-1.2352 -0.0000,-2.4704 -0.0001 -3.7056c -17.6000,0.0003 -35.2000,0.0006 -52.8000 0.0009c 0.0000,1.2352 0.0000,2.4704 0.0001 3.7056c -1.0240,0.0000 -2.0480,0.0000 -3.0720 0.0001ZM 521.8391,514.0230 c 0.0001,4.4096 0.0002,8.8192 0.0002 13.2287c 1.0240,-0.0000 2.0480,-0.0000 3.0720 -0.0000c 0.0001,6.3104 0.0002,12.6208 0.0003 18.9313c -1.0240,0.0000 -2.0480,0.0000 -3.0720 0.0001c 0.0001,4.4096 0.0002,8.8191 0.0002 13.2287c 1.0240,-0.0000 2.0480,-0.0000 3.0720 -0.0000c 0.0000,1.2352 0.0000,2.4704 0.0001 3.7056c 17.6000,-0.0003 35.2000,-0.0006 52.8000 -0.0009c -0.0000,-1.2352 -0.0001,-2.4704 -0.0001 -3.7056c 1.0240,-0.0000 2.0480,-0.0000 3.0720 -0.0001c -0.0001,-4.4096 -0.0001,-8.8192 -0.0002 -13.2287c -1.0240,-0.0000 -2.0480,0.0000 -3.0720 0.0000c -0.0001,-6.3104 -0.0002,-12.6208 -0.0003 -18.9313c 1.0240,-0.0000 2.0480,-0.0000 3.0720 -0.0001c -0.0001,-4.4095 -0.0002,-8.8191 -0.0003 -13.2287c -1.0240,-0.0000 -2.0480,0.0000 -3.0720 0.0000c -0.0000,-1.2352 -0.0000,-2.4704 -0.0001 -3.7056c -17.6000,0.0003 -35.2000,0.0006 -52.8000 0.0009c 0.0000,1.2352 0.0000,2.4704 0.0001 3.7056c -1.0240,0.0000 -2.0480,0.0000 -3.0720 0.0001ZM 521.8404,585.8340 c 0.0001,4.4096 0.0002,8.8192 0.0002 13.2287c 1.0240,-0.0000 2.0480,-0.0000 3.0720 -0.0000c 0.0001,6.3104 0.0002,12.6208 0.0003 18.9313c -1.0240,0.0000 -2.0480,0.0000 -3.0720 0.0001c 0.0001,4.4096 0.0002,8.8192 0.0002 13.2287c 1.0240,-0.0000 2.0480,-0.0000 3.0720 -0.0000c 0.0000,1.2352 0.0000,2.4704 0.0001 3.7056c 17.6000,-0.0003 35.2000,-0.0006 52.8000 -0.0009c -0.0000,-1.2352 -0.0001,-2.4704 -0.0001 -3.7056c 1.0240,-0.0000 2.0480,-0.0000 3.0720 -0.0001c -0.0001,-4.4096 -0.0001,-8.8191 -0.0002 -13.2287c -1.0240,-0.0000 -2.0480,0.0000 -3.0720 0.0000c -0.0001,-6.3104 -0.0002,-12.6208 -0.0003 -18.9313c 1.0240,-0.0000 2.0480,-0.0000 3.0720 -0.0000c -0.0001,-4.4096 -0.0002,-8.8192 -0.0002 -13.2287c -1.0240,-0.0000 -2.0480,0.0000 -3.0720 0.0000c -0.0000,-1.2352 -0.0001,-2.4704 -0.0001 -3.7056c -17.6000,0.0003 -35.2000,0.0006 -52.8000 0.0009c 0.0000,1.2352 0.0000,2.4704 0.0001 3.7056c -1.0240,0.0000 -2.0480,0.0000 -3.0720 0.0001ZM 521.8416,657.6450 c 0.0001,4.4096 0.0001,8.8192 0.0002 13.2287c 1.0240,-0.0000 2.0480,-0.0000 3.0720 -0.0001c 0.0001,6.3104 0.0002,12.6209 0.0003 18.9313c -1.0240,0.0000 -2.0480,0.0000 -3.0720 0.0001c 0.0001,4.4096 0.0001,8.8192 0.0002 13.2287c 1.0240,-0.0000 2.0480,-0.0001 3.0720 -0.0001c 0.0000,1.2352 0.0000,2.4704 0.0001 3.7056c 17.6000,-0.0003 35.2000,-0.0006 52.8000 -0.0009c -0.0000,-1.2352 -0.0001,-2.4704 -0.0001 -3.7056c 1.0240,-0.0000 2.0480,-0.0000 3.0720 -0.0001c -0.0001,-4.4095 -0.0001,-8.8191 -0.0002 -13.2287c -1.0240,-0.0000 -2.0480,0.0000 -3.0720 0.0001c -0.0001,-6.3104 -0.0002,-12.6209 -0.0003 -18.9313c 1.0240,-0.0000 2.0480,-0.0000 3.0720 -0.0000c -0.0001,-4.4096 -0.0001,-8.8192 -0.0002 -13.2287c -1.0240,-0.0000 -2.0480,0.0000 -3.0720 0.0001c -0.0000,-1.2352 -0.0001,-2.4704 -0.0001 -3.7057c -17.6000,0.0003 -35.2000,0.0006 -52.8000 0.0009c 0.0000,1.2352 0.0000,2.4704 0.0001 3.7057c -1.0240,-0.0000 -2.0480,-0.0000 -3.0720 0.0000ZM 593.6489,442.2107 c 0.0001,4.4096 0.0002,8.8191 0.0002 13.2287c 1.0240,-0.0000 2.0480,-0.0000 3.0720 -0.0000c 0.0001,6.3104 0.0002,12.6208 0.0003 18.9313c -1.0240,0.0000 -2.0480,0.0000 -3.0720 0.0001c 0.0001,4.4095 0.0002,8.8191 0.0002 13.2287c 1.0240,-0.0000 2.0480,-0.0000 3.0720 -0.0000c 0.0000,1.2352 0.0000,2.4704 0.0001 3.7056c 17.6000,-0.0003 35.2000,-0.0006 52.8000 -0.0009c -0.0000,-1.2352 -0.0000,-2.4704 -0.0001 -3.7056c 1.0240,-0.0000 2.0480,-0.0000 3.0720 -0.0001c -0.0001,-4.4096 -0.0002,-8.8192 -0.0002 -13.2287c -1.0240,-0.0000 -2.0480,0.0000 -3.0720 0.0000c -0.0001,-6.3104 -0.0002,-12.6208 -0.0003 -18.9313c 1.0240,-0.0000 2.0480,-0.0000 3.0720 -0.0001c -0.0001,-4.4095 -0.0002,-8.8192 -0.0002 -13.2287c -1.0240,-0.0000 -2.0480,0.0000 -3.0720 0.0000c -0.0000,-1.2352 -0.0000,-2.4704 -0.0001 -3.7056c -17.6000,0.0003 -35.2000,0.0006 -52.8000 0.0009c 0.0000,1.2352 0.0000,2.4704 0.0001 3.7056c -1.0240,0.0000 -2.0480,0.0000 -3.0720 0.0001ZM 593.6501,514.0217 c 0.0001,4.4096 0.0002,8.8192 0.0002 13.2287c 1.0240,-0.0000 2.0480,-0.0000 3.0720 -0.0000c 0.0001,6.3104 0.0002,12.6208 0.0003 18.9313c -1.0240,0.0000 -2.0480,0.0000 -3.0720 0.0001c 0.0001,4.4096 0.0002,8.8192 0.0002 13.2287c 1.0240,-0.0000 2.0480,-0.0000 3.0720 -0.0000c 0.0000,1.2352 0.0000,2.4704 0.0001 3.7056c 17.6000,-0.0003 35.2000,-0.0006 52.8000 -0.0009c -0.0000,-1.2352 -0.0000,-2.4704 -0.0001 -3.7056c 1.0240,-0.0000 2.0480,-0.0000 3.0720 -0.0001c -0.0001,-4.4096 -0.0002,-8.8191 -0.0002 -13.2287c -1.0240,-0.0000 -2.0480,0.0000 -3.0720 0.0000c -0.0001,-6.3104 -0.0002,-12.6208 -0.0003 -18.9313c 1.0240,-0.0000 2.0480,-0.0000 3.0720 -0.0001c -0.0001,-4.4095 -0.0002,-8.8191 -0.0002 -13.2287c -1.0240,-0.0000 -2.0480,0.0000 -3.0720 0.0000c -0.0000,-1.2352 -0.0000,-2.4704 -0.0001 -3.7056c -17.6000,0.0003 -35.2000,0.0006 -52.8000 0.0009c 0.0000,1.2352 0.0000,2.4704 0.0001 3.7056c -1.0240,0.0000 -2.0480,0.0000 -3.0720 0.0001ZM 593.6514,585.8327 c 0.0001,4.4096 0.0002,8.8192 0.0002 13.2287c 1.0240,-0.0000 2.0480,-0.0000 3.0720 -0.0001c 0.0001,6.3104 0.0002,12.6208 0.0003 18.9313c -1.0240,0.0000 -2.0480,0.0000 -3.0720 0.0001c 0.0001,4.4096 0.0002,8.8192 0.0002 13.2287c 1.0240,-0.0000 2.0480,-0.0001 3.0720 -0.0001c 0.0000,1.2352 0.0000,2.4704 0.0001 3.7056c 17.6000,-0.0003 35.2000,-0.0006 52.8000 -0.0009c -0.0000,-1.2352 -0.0001,-2.4704 -0.0001 -3.7056c 1.0240,-0.0000 2.0480,-0.0000 3.0720 -0.0001c -0.0001,-4.4095 -0.0002,-8.8191 -0.0002 -13.2287c -1.0240,-0.0000 -2.0480,0.0000 -3.0720 0.0000c -0.0001,-6.3104 -0.0002,-12.6208 -0.0003 -18.9313c 1.0240,-0.0000 2.0480,-0.0000 3.0720 -0.0001c -0.0001,-4.4095 -0.0002,-8.8191 -0.0002 -13.2287c -1.0240,-0.0000 -2.0480,0.0000 -3.0720 0.0001c -0.0000,-1.2352 -0.0000,-2.4704 -0.0001 -3.7057c -17.6000,0.0003 -35.2000,0.0006 -52.8000 0.0009c 0.0000,1.2352 0.0000,2.4704 0.0001 3.7056c -1.0240,0.0000 -2.0480,0.0000 -3.0720 0.0001ZM 593.6527,657.6437 c 0.0001,4.4096 0.0002,8.8192 0.0002 13.2287c 1.0240,-0.0000 2.0480,-0.0000 3.0720 -0.0001c 0.0001,6.3104 0.0002,12.6209 0.0003 18.9313c -1.0240,0.0000 -2.0480,0.0001 -3.0720 0.0001c 0.0001,4.4096 0.0002,8.8192 0.0002 13.2287c 1.0240,-0.0000 2.0480,-0.0000 3.0720 -0.0001c 0.0000,1.2352 0.0000,2.4704 0.0001 3.7056c 17.6000,-0.0003 35.2000,-0.0006 52.8000 -0.0009c -0.0000,-1.2352 -0.0001,-2.4704 -0.0001 -3.7056c 1.0240,-0.0000 2.0480,-0.0000 3.0720 -0.0000c -0.0001,-4.4096 -0.0001,-8.8192 -0.0002 -13.2287c -1.0240,-0.0000 -2.0480,0.0000 -3.0720 0.0001c -0.0001,-6.3104 -0.0002,-12.6209 -0.0003 -18.9313c 1.0240,-0.0000 2.0480,-0.0000 3.0720 -0.0000c -0.0001,-4.4096 -0.0002,-8.8192 -0.0002 -13.2287c -1.0240,0.0000 -2.0480,0.0000 -3.0720 0.0001c -0.0000,-1.2352 -0.0001,-2.4704 -0.0001 -3.7057c -17.6000,0.0003 -35.2000,0.0006 -52.8000 0.0009c 0.0000,1.2352 0.0000,2.4704 0.0001 3.7057c -1.0240,-0.0000 -2.0480,0.0000 -3.0720 0.0000ZM 672.1974,410.7880 c 0.0000,3.1311 2.5382,5.6693 5.6693 5.6693c 3.1311,-0.0000 5.6693,-2.5382 5.6693 -5.6693c 0.0000,-3.1311 -2.5382,-5.6693 -5.6693 -5.6693c -3.1311,-0.0000 -5.6693,2.5382 -5.6693 5.6693ZM 672.2029,713.0358 c 0.0000,3.1311 2.5382,5.6693 5.6693 5.6693c 3.1311,-0.0000 5.6693,-2.5382 5.6693 -5.6693c 0.0000,-3.1311 -2.5382,-5.6693 -5.6693 -5.6693c -3.1311,-0.0000 -5.6693,2.5382 -5.6693 5.6693Z"/></g><g stroke-linejoin="miter" stroke-opacity="1.0" fill-opacity="0.5" stroke="rgb(0,0,0)" stroke-width="0.37795275590551186" fill="rgb(0,0,255)" stroke-linecap="butt" stroke-miterlimit="10.0"><path d="M 3.9685,330.1530 c 0.0018,-103.2690 0.0036,-206.5379 0.0054 -309.8069c 0.0002,-9.0452 7.3328,-16.3777 16.3779 -16.3777c 110.2158,-0.0000 220.4315,-0.0000 330.6472 -0.0000c 110.2158,-0.0000 220.4315,-0.0000 330.6472 -0.0000c 9.0452,-0.0000 16.3778,7.3325 16.3779 16.3777c 0.0018,103.2690 0.0036,206.5379 0.0054 309.8069c 0.0000,0.0001 0.0000,0.0002 0.0000 0.0003c 0.0000,8.4640 -6.4492,15.5338 -14.8777 16.3091c -91.3199,8.4005 -182.6398,16.8011 -273.9597 25.2016c -0.4987,0.0459 -0.9994,0.0689 -1.5003 0.0689c -18.8976,-0.0000 -37.7953,-0.0000 -56.6929 -0.0000c -18.8976,-0.0000 -37.7953,-0.0000 -56.6929 -0.0000c -0.5009,-0.0000 -1.0015,-0.0230 -1.5003 -0.0689c -91.3199,-8.4005 -182.6398,-16.8011 -273.9597 -25.2016c -8.4284,-0.7753 -14.8777,-7.8451 -14.8777 -16.3091c 0.0000,-0.0001 0.0000,-0.0002 -0.0000 -0.0003ZM 18.4567,326.3738 c 0.0000,3.1311 2.5382,5.6693 5.6693 5.6693c 3.1311,-0.0000 5.6693,-2.5382 5.6693 -5.6693c 0.0000,-3.1311 -2.5382,-5.6693 -5.6693 -5.6693c -3.1311,-0.0000 -5.6693,2.5382 -5.6693 5.6693ZM 18.4621,24.1260 c 0.0000,3.1311 2.5382,5.6693 5.6693 5.6693c 3.1311,-0.0000 5.6693,-2.5382 5.6693 -5.6693c 0.0000,-3.1311 -2.5382,-5.6693 -5.6693 -5.6693c -3.1311,-0.0000 -5.6693,2.5382 -5.6693 5.6693ZM 37.8268,330.9410 c 0.0000,0.0000 0.0000,0.0001 0.0000 0.0001c 0.0000,2.0873 1.6921,3.7795 3.7795 3.7795c 23.9355,0.0004 47.8710,0.0008 71.8065 0.0013c 0.0015,-0.0000 0.0030,-0.0000 0.0045 -0.0000c 0.9071,0.0000 1.8142,0.0000 2.7213 0.0000c 23.0299,0.0004 46.0599,0.0008 69.0898 0.0012c 0.9071,0.0000 1.8142,0.0000 2.7213 0.0001c 23.0299,0.0004 46.0599,0.0008 69.0898 0.0012c 0.9071,0.0000 1.8142,0.0000 2.7213 0.0000c 23.9370,0.0004 47.8740,0.0009 71.8110 0.0013c 2.0874,0.0000 3.7795,-1.6921 3.7796 -3.7795c 0.0004,-23.9370 0.0009,-47.8740 0.0013 -71.8110c 0.0000,-0.9071 0.0000,-1.8142 0.0001 -2.7213c 0.0000,-0.0000 0.0000,-0.0000 0.0000 -0.0001c 0.0000,-0.0019 0.0000,-0.0037 0.0000 -0.0055c 0.0004,-23.0265 0.0008,-46.0531 0.0012 -69.0796c 0.0000,-0.9086 0.0000,-1.8172 0.0001 -2.7259c 0.0000,-0.0000 0.0000,-0.0000 0.0000 -0.0001c 0.0004,-23.0284 0.0008,-46.0567 0.0012 -69.0851c 0.0000,-0.9086 0.0000,-1.8172 0.0001 -2.7259c 0.0000,-0.0000 0.0000,-0.0001 0.0000 -0.0001c 0.0004,-23.9370 0.0008,-47.8740 0.0013 -71.8110c 0.0000,-0.0000 0.0000,-0.0001 0.0000 -0.0001c 0.0000,-2.0873 -1.6921,-3.7795 -3.7795 -3.7795c -23.9370,-0.0004 -47.8740,-0.0009 -71.8111 -0.0013c -0.9071,-0.0000 -1.8142,-0.0000 -2.7212 -0.0001c -0.0020,-0.0000 -0.0040,-0.0000 -0.0061 0.0000c -23.0279,-0.0004 -46.0558,-0.0008 -69.0837 -0.0012c -0.9071,-0.0000 -1.8142,-0.0000 -2.7213 -0.0000c -23.0299,-0.0004 -46.0598,-0.0008 -69.0898 -0.0012c -0.9071,-0.0000 -1.8142,-0.0000 -2.7213 -0.0000c -23.9370,-0.0004 -47.8740,-0.0009 -71.8110 -0.0013c -2.0874,-0.0000 -3.7796,1.6921 -3.7796 3.7795c -0.0004,23.9370 -0.0008,47.8740 -0.0013 71.8110c 0.0000,0.9071 -0.0000,1.8142 -0.0000 2.7213c -0.0004,23.0299 -0.0008,46.0598 -0.0012 69.0898c 0.0000,0.9071 -0.0000,1.8142 -0.0000 2.7213c -0.0004,23.0299 -0.0008,46.0599 -0.0012 69.0898c 0.0000,0.9071 -0.0000,1.8142 -0.0000 2.7213c -0.0004,23.9370 -0.0008,47.8740 -0.0013 71.8110ZM 288.6369,24.1260 c 0.0000,3.1311 2.5382,5.6693 5.6693 5.6693c 3.1311,-0.0000 5.6693,-2.5382 5.6693 -5.6693c 0.0000,-3.1311 -2.5382,-5.6693 -5.6693 -5.6693c -3.1311,-0.0000 -5.6693,2.5382 -5.6693 5.6693ZM 288.6369,351.5754 c 0.0000,3.1311 2.5382,5.6693 5.6693 5.6693c 3.1311,-0.0000 5.6693,-2.5382 5.6693 -5.6693c 0.0000,-3.1311 -2.5382,-5.6693 -5.6693 -5.6693c -3.1311,-0.0000 -5.6693,2.5382 -5.6693 5.6693ZM 366.6419,40.9809 c 0.0004,23.9370 0.0009,47.8739 0.0013 71.8110c 0.0000,-0.0000 0.0000,0.0000 0.0000 0.0001c 0.0000,0.9071 0.0000,1.8142 0.0001 2.7213c 0.0004,23.0299 0.0008,46.0598 0.0012 69.0897c 0.0000,0.0000 0.0000,0.0000 0.0000 0.0001c 0.0000,0.9071 0.0000,1.8142 0.0001 2.7213c 0.0004,23.0299 0.0008,46.0598 0.0012 69.0897c 0.0000,0.0000 0.0000,0.0000 0.0000 0.0001c 0.0000,0.9071 0.0000,1.8142 0.0001 2.7213c 0.0004,23.9370 0.0008,47.8740 0.0013 71.8110c 0.0000,2.0874 1.6922,3.7795 3.7796 3.7795c 23.9352,-0.0004 47.8703,-0.0008 71.8055 -0.0013c 0.0019,-0.0000 0.0037,-0.0000 0.0056 -0.0000c 0.9071,-0.0000 1.8142,-0.0000 2.7213 -0.0000c 23.0279,-0.0004 46.0558,-0.0008 69.0837 -0.0012c 0.0020,0.0000 0.0040,0.0000 0.0060 0.0000c 0.9071,-0.0000 1.8142,-0.0000 2.7213 -0.0001c 23.0299,-0.0004 46.0599,-0.0008 69.0898 -0.0012c 0.9071,-0.0000 1.8142,-0.0000 2.7213 -0.0000c 23.9370,-0.0004 47.8740,-0.0008 71.8110 -0.0013c 2.0873,-0.0000 3.7795,-1.6922 3.7795 -3.7795c 0.0000,-0.0000 0.0000,-0.0000 0.0000 -0.0001c -0.0004,-23.9370 -0.0008,-47.8739 -0.0013 -71.8110c 0.0000,-0.0000 0.0000,-0.0000 0.0000 -0.0001c 0.0000,-0.9071 -0.0000,-1.8142 -0.0000 -2.7213c -0.0004,-23.0299 -0.0008,-46.0598 -0.0012 -69.0897c 0.0000,-0.0000 0.0000,-0.0000 0.0000 -0.0001c 0.0000,-0.9071 -0.0000,-1.8142 -0.0000 -2.7213c -0.0004,-23.0299 -0.0008,-46.0598 -0.0012 -69.0897c 0.0000,-0.0000 0.0000,-0.0001 0.0000 -0.0001c 0.0000,-0.9071 -0.0000,-1.8142 -0.0000 -2.7213c 0.0000,-0.0015 0.0000,-0.0030 0.0000 -0.0045c -0.0004,-23.9355 -0.0008,-47.8710 -0.0013 -71.8065c -0.0000,-2.0874 -1.6922,-3.7795 -3.7796 -3.7795c -23.9370,0.0004 -47.8740,0.0008 -71.8110 0.0013c -0.9071,-0.0000 -1.8142,0.0000 -2.7213 0.0000c -0.0015,-0.0000 -0.0031,-0.0000 -0.0046 -0.0000c -23.0284,0.0004 -46.0568,0.0008 -69.0852 0.0012c -0.9071,-0.0000 -1.8142,-0.0000 -2.7213 0.0000c -0.0016,-0.0000 -0.0031,-0.0000 -0.0046 -0.0000c -23.0284,0.0004 -46.0568,0.0008 -69.0852 0.0012c -0.9071,0.0000 -1.8142,0.0000 -2.7212 0.0001c -23.9370,0.0004 -47.8740,0.0008 -71.8111 0.0013c -2.0873,0.0000 -3.7794,1.6922 -3.7795 3.7796ZM 402.0227,24.1260 c 0.0000,3.1311 2.5382,5.6693 5.6693 5.6693c 3.1311,-0.0000 5.6693,-2.5382 5.6693 -5.6693c 0.0000,-3.1311 -2.5382,-5.6693 -5.6693 -5.6693c -3.1311,-0.0000 -5.6693,2.5382 -5.6693 5.6693ZM 402.0227,351.5754 c 0.0000,3.1311 2.5382,5.6693 5.6693 5.6693c 3.1311,-0.0000 5.6693,-2.5382 5.6693 -5.6693c 0.0000,-3.1311 -2.5382,-5.6693 -5.6693 -5.6693c -3.1311,-0.0000 -5.6693,2.5382 -5.6693 5.6693ZM 672.1974,24.1260 c 0.0000,3.1311 2.5382,5.6693 5.6693 5.6693c 3.1311,-0.0000 5.6693,-2.5382 5.6693 -5.6693c 0.0000,-3.1311 -2.5382,-5.6693 -5.6693 -5.6693c -3.1311,-0.0000 -5.6693,2.5382 -5.6693 5.6693ZM 672.2029,326.3738 c 0.0000,3.1311 2.5382,5.6693 5.6693 5.6693c 3.1311,-0.0000 5.6693,-2.5382 5.6693 -5.6693c 0.0000,-3.1311 -2.5382,-5.6693 -5.6693 -5.6693c -3.1311,-0.0000 -5.6693,2.5382 -5.6693 5.6693Z"/></g></svg>