<?xml version="1.0" encoding="UTF-8"?>
<!DOCTYPE svg PUBLIC "-//W3C//DTD SVG 1.1//EN"
    "http://www.w3.org/Graphics/SVG/1.1/DTD/svg11.dtd"><svg xmlns="http://www.w3.org/2000/svg" height="604.6672" stroke-opacity="1" viewBox="0 0 717 605" font-size="1" width="717.4317" xmlns:xlink="http://www.w3.org/1999/xlink" stroke="rgb(0,0,0)" version="1.1"><defs></defs><g stroke-linejoin="miter" stroke-opacity="1.0" fill-opacity="0.5" stroke="rgb(0,0,0)" stroke-width="0.37795275590551186" fill="rgb(0,0,0)" stroke-linecap="butt" stroke-miterlimit="10.0"><path d="M 3.9685,570.4573 c 0.0004,-24.8441 0.0009,-49.6882 0.0013 -74.5323c 0.0003,-16.6078 13.6290,-30.2360 30.2368 -30.2357c 23.9370,0.0004 47.8740,0.0008 71.8110 0.0013c 0.9071,0.0000 1.8142,0.0000 2.7213 0.0000c 0.0015,-0.0000 0.0031,-0.0000 0.0046 -0.0000c 23.0284,0.0004 46.0568,0.0008 69.0852 0.0012c 0.9071,0.0000 1.8142,0.0000 2.7213 0.0000c 0.0015,-0.0000 0.0030,-0.0000 0.0046 -0.0000c 23.0284,0.0004 46.0568,0.0008 69.0852 0.0012c 0.9072,0.0000 1.8143,0.0000 2.7215 0.0001c 11.5150,0.0002 23.0299,0.0004 34.5449 0.0006c 23.9366,-0.0000 47.8732,-0.0000 71.8098 -0.0000c 23.8692,-0.0000 47.7383,-0.0000 71.6075 -0.0000c 0.0675,-0.0000 0.1349,-0.0000 0.2024 -0.0000c 11.5150,-0.0002 23.0299,-0.0004 34.5449 -0.0006c 0.9072,-0.0000 1.8143,-0.0000 2.7215 -0.0001c 23.0284,-0.0004 46.0568,-0.0008 69.0852 -0.0012c 0.0015,-0.0000 0.0031,-0.0000 0.0046 -0.0000c 0.9071,-0.0000 1.8142,-0.0000 2.7213 -0.0000c 23.0284,-0.0004 46.0568,-0.0008 69.0852 -0.0012c 0.0015,-0.0000 0.0031,-0.0000 0.0046 -0.0000c 0.9071,-0.0000 1.8142,-0.0000 2.7213 -0.0000c 23.9370,-0.0004 47.8740,-0.0008 71.8110 -0.0013c 16.6078,-0.0003 30.2365,13.6279 30.2368 30.2357c 0.0004,24.8441 0.0009,49.6882 0.0013 74.5323c 0.0000,0.0000 0.0000,0.0000 0.0000 0.0001c 0.0000,16.6076 -13.6282,30.2360 -30.2358 30.2362c -23.9370,0.0004 -47.8740,0.0008 -71.8110 0.0013c -0.9071,0.0000 -1.8142,0.0000 -2.7213 0.0000c -23.0299,0.0004 -46.0598,0.0008 -69.0898 0.0012c -0.9071,0.0000 -1.8142,0.0000 -2.7213 0.0000c -23.0299,0.0004 -46.0598,0.0008 -69.0898 0.0012c -0.9071,0.0000 -1.8142,0.0000 -2.7213 0.0000c -11.5150,0.0002 -23.0300,0.0004 -34.5450 0.0006c -0.0674,-0.0000 -0.1348,-0.0000 -0.2023 -0.0000c -12.3546,0.0002 -24.7092,0.0004 -37.0638 0.0006c -0.0663,-0.0000 -0.1326,-0.0002 -0.1989 -0.0006c -11.4491,-0.0000 -22.8982,-0.0000 -34.3473 -0.0000c -11.4491,-0.0000 -22.8982,-0.0000 -34.3473 -0.0000c -0.0662,0.0004 -0.1325,0.0006 -0.1989 0.0006c -12.4220,-0.0002 -24.8440,-0.0004 -37.2660 -0.0006c -11.5150,-0.0002 -23.0300,-0.0004 -34.5450 -0.0006c -0.9071,-0.0000 -1.8142,-0.0000 -2.7213 -0.0000c -23.0299,-0.0004 -46.0598,-0.0008 -69.0898 -0.0012c -0.9071,-0.0000 -1.8142,-0.0000 -2.7213 -0.0000c -23.0299,-0.0004 -46.0598,-0.0008 -69.0898 -0.0012c -0.9071,-0.0000 -1.8142,-0.0000 -2.7213 -0.0000c -23.9370,-0.0004 -47.8740,-0.0008 -71.8110 -0.0013c -16.6076,-0.0002 -30.2358,-13.6287 -30.2358 -30.2362c 0.0000,-0.0000 0.0000,-0.0000 -0.0000 -0.0001ZM 17.1278,581.8653 c 0.0000,3.1311 2.5382,5.6693 5.6693 5.6693c 3.1311,-0.0000 5.6693,-2.5382 5.6693 -5.6693c 0.0000,-3.1311 -2.5382,-5.6693 -5.6693 -5.6693c -3.1311,-0.0000 -5.6693,2.5382 -5.6693 5.6693ZM 17.1295,484.5177 c 0.0000,3.1311 2.5382,5.6693 5.6693 5.6693c 3.1311,-0.0000 5.6693,-2.5382 5.6693 -5.6693c 0.0000,-3.1311 -2.5382,-5.6693 -5.6693 -5.6693c -3.1311,-0.0000 -5.6693,2.5382 -5.6693 5.6693ZM 281.2346,585.9961 c 0.0000,3.1311 2.5382,5.6693 5.6693 5.6693c 3.1311,-0.0000 5.6693,-2.5382 5.6693 -5.6693c 0.0000,-3.1311 -2.5382,-5.6693 -5.6693 -5.6693c -3.1311,-0.0000 -5.6693,2.5382 -5.6693 5.6693ZM 324.7001,480.3961 c 0.0000,3.1311 2.5382,5.6693 5.6693 5.6693c 3.1311,-0.0000 5.6693,-2.5382 5.6693 -5.6693c 0.0000,-3.1311 -2.5382,-5.6693 -5.6693 -5.6693c -3.1311,-0.0000 -5.6693,2.5382 -5.6693 5.6693ZM 381.3930,480.3961 c 0.0000,3.1311 2.5382,5.6693 5.6693 5.6693c 3.1311,-0.0000 5.6693,-2.5382 5.6693 -5.6693c 0.0000,-3.1311 -2.5382,-5.6693 -5.6693 -5.6693c -3.1311,-0.0000 -5.6693,2.5382 -5.6693 5.6693ZM 424.8585,585.9961 c 0.0000,3.1311 2.5382,5.6693 5.6693 5.6693c 3.1311,-0.0000 5.6693,-2.5382 5.6693 -5.6693c 0.0000,-3.1311 -2.5382,-5.6693 -5.6693 -5.6693c -3.1311,-0.0000 -5.6693,2.5382 -5.6693 5.6693ZM 688.9636,484.5177 c 0.0000,3.1311 2.5382,5.6693 5.6693 5.6693c 3.1311,-0.0000 5.6693,-2.5382 5.6693 -5.6693c 0.0000,-3.1311 -2.5382,-5.6693 -5.6693 -5.6693c -3.1311,-0.0000 -5.6693,2.5382 -5.6693 5.6693ZM 688.9653,581.8653 c 0.0000,3.1311 2.5382,5.6693 5.6693 5.6693c 3.1311,-0.0000 5.6693,-2.5382 5.6693 -5.6693c 0.0000,-3.1311 -2.5382,-5.6693 -5.6693 -5.6693c -3.1311,-0.0000 -5.6693,2.5382 -5.6693 5.6693Z"/></g><g stroke-linejoin="miter" stroke-opacity="1.0" fill-opacity="0.5" stroke="rgb(0,0,0)" stroke-width="0.37795275590551186" fill="rgb(255,255,0)" stroke-linecap="butt" stroke-miterlimit="10.0"><path d="M 3.9685,416.5504 c 0.0004,-24.8441 0.0009,-49.6882 0.0013 -74.5323c 0.0001,-4.2136 0.8774,-8.2353 2.4580 -11.8914c 3.0689,-7.0985 8.7891,-12.8184 15.8878 -15.8869c 3.6560,-1.5804 7.6776,-2.4574 11.8909 -2.4574c 23.9370,0.0004 47.8740,0.0008 71.8110 0.0013c 0.9071,0.0000 1.8142,0.0000 2.7213 0.0000c 0.0015,-0.0000 0.0031,-0.0000 0.0046 -0.0000c 23.0284,0.0004 46.0568,0.0008 69.0852 0.0012c 0.9071,0.0000 1.8142,0.0000 2.7213 0.0000c 0.0015,-0.0000 0.0030,-0.0000 0.0046 -0.0000c 23.0284,0.0004 46.0568,0.0008 69.0852 0.0012c 0.9072,0.0000 1.8143,0.0000 2.7215 0.0001c 11.5150,0.0002 23.0299,0.0004 34.5449 0.0006c 12.0795,-0.0000 24.1590,-0.0000 36.2385 -0.0000c 4.8166,-0.0000 9.6331,-0.0000 14.4497 -0.0000c 7.0405,-0.0000 14.0811,-0.0000 21.1216 -0.0000c 7.0405,-0.0000 14.0811,-0.0000 21.1216 -0.0000c 4.8166,-0.0000 9.6331,-0.0000 14.4497 -0.0000c 12.0121,-0.0000 24.0241,-0.0000 36.0362 -0.0000c 0.0675,-0.0000 0.1349,-0.0000 0.2024 -0.0000c 11.5150,-0.0002 23.0299,-0.0004 34.5449 -0.0006c 0.9072,-0.0000 1.8143,-0.0000 2.7215 -0.0001c 23.0284,-0.0004 46.0568,-0.0008 69.0852 -0.0012c 0.0015,-0.0000 0.0031,-0.0000 0.0046 -0.0000c 0.9071,-0.0000 1.8142,-0.0000 2.7213 -0.0000c 23.0284,-0.0004 46.0568,-0.0008 69.0852 -0.0012c 0.0015,-0.0000 0.0031,-0.0000 0.0046 -0.0000c 0.9071,-0.0000 1.8142,-0.0000 2.7213 -0.0000c 23.9370,-0.0004 47.8740,-0.0008 71.8110 -0.0013c 4.2133,-0.0001 8.2350,0.8770 11.8909 2.4574c 7.0987,3.0685 12.8189,8.7884 15.8878 15.8869c 1.5806,3.6561 2.4580,7.6778 2.4580 11.8914c 0.0004,24.8441 0.0009,49.6882 0.0013 74.5323c 0.0000,0.0000 0.0000,0.0000 0.0000 0.0001c 0.0000,4.2133 -0.8772,8.2349 -2.4576 11.8909c -3.0688,7.0990 -8.7893,12.8194 -15.8884 15.8880c -3.6556,1.5802 -7.6768,2.4572 -11.8897 2.4573c -23.9370,0.0004 -47.8740,0.0008 -71.8110 0.0013c -0.9071,0.0000 -1.8142,0.0000 -2.7213 0.0000c -23.0299,0.0004 -46.0598,0.0008 -69.0898 0.0012c -0.9071,0.0000 -1.8142,0.0000 -2.7213 0.0000c -23.0299,0.0004 -46.0598,0.0008 -69.0898 0.0012c -0.9071,0.0000 -1.8142,0.0000 -2.7213 0.0000c -9.1064,0.0002 -18.2128,0.0003 -27.3192 0.0005c -2.4086,0.0000 -4.8172,0.0001 -7.2258 0.0001c -0.0674,-0.0000 -0.1348,-0.0000 -0.2023 -0.0000c -2.3412,0.0000 -4.6823,0.0001 -7.0235 0.0001c -10.0134,0.0002 -20.0268,0.0004 -30.0402 0.0005c -0.0663,-0.0000 -0.1326,-0.0002 -0.1989 -0.0006c -11.4491,-0.0000 -22.8982,-0.0000 -34.3473 -0.0000c -11.4491,-0.0000 -22.8982,-0.0000 -34.3473 -0.0000c -0.0662,0.0004 -0.1325,0.0006 -0.1989 0.0006c -10.0134,-0.0002 -20.0268,-0.0004 -30.0402 -0.0005c -2.4086,-0.0000 -4.8172,-0.0001 -7.2258 -0.0001c -2.4086,-0.0000 -4.8172,-0.0001 -7.2258 -0.0001c -9.1064,-0.0002 -18.2128,-0.0003 -27.3192 -0.0005c -0.9071,-0.0000 -1.8142,-0.0000 -2.7213 -0.0000c -23.0299,-0.0004 -46.0598,-0.0008 -69.0898 -0.0012c -0.9071,-0.0000 -1.8142,-0.0000 -2.7213 -0.0000c -23.0299,-0.0004 -46.0598,-0.0008 -69.0898 -0.0012c -0.9071,-0.0000 -1.8142,-0.0000 -2.7213 -0.0000c -23.9370,-0.0004 -47.8740,-0.0008 -71.8110 -0.0013c -4.2129,-0.0001 -8.2341,-0.8771 -11.8897 -2.4573c -7.0991,-3.0687 -12.8196,-8.7890 -15.8885 -15.8880c -1.5804,-3.6560 -2.4576,-7.6776 -2.4576 -11.8909c 0.0000,-0.0000 0.0000,-0.0000 -0.0000 -0.0001ZM 17.1278,427.9584 c 0.0000,3.1311 2.5382,5.6693 5.6693 5.6693c 3.1311,-0.0000 5.6693,-2.5382 5.6693 -5.6693c 0.0000,-3.1311 -2.5382,-5.6693 -5.6693 -5.6693c -3.1311,-0.0000 -5.6693,2.5382 -5.6693 5.6693ZM 17.1295,330.6107 c 0.0000,3.1311 2.5382,5.6693 5.6693 5.6693c 3.1311,-0.0000 5.6693,-2.5382 5.6693 -5.6693c 0.0000,-3.1311 -2.5382,-5.6693 -5.6693 -5.6693c -3.1311,-0.0000 -5.6693,2.5382 -5.6693 5.6693ZM 26.6459,412.0352 c 5.9540,1.4340 10.6405,6.1207 12.0744 12.0747c 22.4318,0.0004 44.8637,0.0008 67.2955 0.0012c 0.9071,0.0000 1.8142,0.0000 2.7213 0.0000c 23.0299,0.0004 46.0598,0.0008 69.0898 0.0012c 0.9071,0.0000 1.8142,0.0000 2.7213 0.0000c 23.0299,0.0004 46.0598,0.0008 69.0898 0.0012c 0.9071,0.0000 1.8142,0.0000 2.7213 0.0000c 6.7454,0.0001 13.4909,0.0002 20.2363 0.0004c 2.8001,-5.0131 8.1584,-8.4028 14.3084 -8.4028c 6.1502,-0.0000 11.5087,3.3900 14.3087 8.4033c 7.6525,0.0001 15.3050,0.0003 22.9575 0.0004c 0.0334,-0.0000 0.0668,-0.0002 0.1001 -0.0007c 11.4818,-0.0000 22.9637,-0.0000 34.4456 -0.0000c 11.4818,-0.0000 22.9637,-0.0000 34.4456 -0.0000c 0.0333,0.0004 0.0667,0.0007 0.1001 0.0007c 7.6525,-0.0001 15.3050,-0.0003 22.9575 -0.0004c 2.8001,-5.0133 8.1585,-8.4033 14.3087 -8.4033c 6.1500,-0.0000 11.5083,3.3898 14.3084 8.4028c 6.7454,-0.0001 13.4909,-0.0002 20.2363 -0.0004c 0.9071,-0.0000 1.8142,-0.0000 2.7213 -0.0000c 23.0299,-0.0004 46.0598,-0.0008 69.0898 -0.0012c 0.9071,-0.0000 1.8142,-0.0000 2.7213 -0.0000c 23.0299,-0.0004 46.0598,-0.0008 69.0898 -0.0012c 0.9071,-0.0000 1.8142,-0.0000 2.7213 -0.0000c 22.4318,-0.0004 44.8637,-0.0008 67.2955 -0.0012c 1.4338,-5.9540 6.1204,-10.6407 12.0744 -12.0747c -0.0004,-21.8337 -0.0008,-43.6675 -0.0011 -65.5012c -5.9541,-1.4338 -10.6408,-6.1204 -12.0748 -12.0744c -22.4318,0.0004 -44.8636,0.0008 -67.2955 0.0012c -0.9071,0.0000 -1.8142,0.0000 -2.7213 0.0000c -0.0015,-0.0000 -0.0031,-0.0000 -0.0046 -0.0000c -23.0284,0.0004 -46.0568,0.0008 -69.0852 0.0012c -0.9071,0.0000 -1.8142,0.0000 -2.7213 0.0000c -0.0015,-0.0000 -0.0031,-0.0000 -0.0046 -0.0000c -23.0284,0.0004 -46.0568,0.0008 -69.0852 0.0012c -0.9071,0.0000 -1.8142,0.0000 -2.7213 0.0000c -11.5150,0.0002 -23.0299,0.0004 -34.5449 0.0006c -9.7184,-0.0000 -19.4368,-0.0000 -29.1552 -0.0000c -2.8001,5.0133 -8.1585,8.4032 -14.3086 8.4032c -6.1501,-0.0000 -11.5085,-3.3899 -14.3086 -8.4032c -4.6793,-0.0000 -9.3586,-0.0000 -14.0378 -0.0000c -4.6793,-0.0000 -9.3586,-0.0000 -14.0378 -0.0000c -2.8001,5.0133 -8.1585,8.4032 -14.3086 8.4032c -6.1501,-0.0000 -11.5085,-3.3899 -14.3086 -8.4032c -9.7184,-0.0000 -19.4368,-0.0000 -29.1552 -0.0000c -11.5150,-0.0002 -23.0299,-0.0004 -34.5449 -0.0006c -0.9071,-0.0000 -1.8142,-0.0000 -2.7213 -0.0000c -23.0284,-0.0004 -46.0568,-0.0008 -69.0852 -0.0012c -0.0015,-0.0000 -0.0031,-0.0000 -0.0046 -0.0000c -0.9071,-0.0000 -1.8142,-0.0000 -2.7213 -0.0000c -23.0284,-0.0004 -46.0568,-0.0008 -69.0852 -0.0012c -0.0015,-0.0000 -0.0031,-0.0000 -0.0046 -0.0000c -0.9071,-0.0000 -1.8142,-0.0000 -2.7213 -0.0000c -22.4318,-0.0004 -44.8636,-0.0008 -67.2955 -0.0012c -1.4340,5.9540 -6.1207,10.6406 -12.0748 12.0744c -0.0004,21.8337 -0.0008,43.6675 -0.0011 65.5012ZM 281.2346,432.0892 c 0.0000,3.1311 2.5382,5.6693 5.6693 5.6693c 3.1311,-0.0000 5.6693,-2.5382 5.6693 -5.6693c 0.0000,-3.1311 -2.5382,-5.6693 -5.6693 -5.6693c -3.1311,-0.0000 -5.6693,2.5382 -5.6693 5.6693ZM 324.7001,326.4892 c 0.0000,3.1311 2.5382,5.6693 5.6693 5.6693c 3.1311,-0.0000 5.6693,-2.5382 5.6693 -5.6693c 0.0000,-3.1311 -2.5382,-5.6693 -5.6693 -5.6693c -3.1311,-0.0000 -5.6693,2.5382 -5.6693 5.6693ZM 381.3930,326.4892 c 0.0000,3.1311 2.5382,5.6693 5.6693 5.6693c 3.1311,-0.0000 5.6693,-2.5382 5.6693 -5.6693c 0.0000,-3.1311 -2.5382,-5.6693 -5.6693 -5.6693c -3.1311,-0.0000 -5.6693,2.5382 -5.6693 5.6693ZM 424.8585,432.0892 c 0.0000,3.1311 2.5382,5.6693 5.6693 5.6693c 3.1311,-0.0000 5.6693,-2.5382 5.6693 -5.6693c 0.0000,-3.1311 -2.5382,-5.6693 -5.6693 -5.6693c -3.1311,-0.0000 -5.6693,2.5382 -5.6693 5.6693ZM 688.9636,330.6107 c 0.0000,3.1311 2.5382,5.6693 5.6693 5.6693c 3.1311,-0.0000 5.6693,-2.5382 5.6693 -5.6693c 0.0000,-3.1311 -2.5382,-5.6693 -5.6693 -5.6693c -3.1311,-0.0000 -5.6693,2.5382 -5.6693 5.6693ZM 688.9653,427.9584 c 0.0000,3.1311 2.5382,5.6693 5.6693 5.6693c 3.1311,-0.0000 5.6693,-2.5382 5.6693 -5.6693c 0.0000,-3.1311 -2.5382,-5.6693 -5.6693 -5.6693c -3.1311,-0.0000 -5.6693,2.5382 -5.6693 5.6693Z"/></g><g stroke-linejoin="miter" stroke-opacity="1.0" fill-opacity="0.5" stroke="rgb(0,0,0)" stroke-width="0.37795275590551186" fill="rgb(0,0,0)" stroke-linecap="butt" stroke-miterlimit="10.0"><path d="M 3.9685,262.6434 c 0.0004,-24.8441 0.0009,-49.6882 0.0013 -74.5323c 0.0003,-16.6078 13.6290,-30.2360 30.2368 -30.2357c 23.9370,0.0004 47.8740,0.0008 71.8110 0.0013c 0.9071,0.0000 1.8142,0.0000 2.7213 0.0000c 0.0015,-0.0000 0.0031,-0.0000 0.0046 -0.0000c 23.0284,0.0004 46.0568,0.0008 69.0852 0.0012c 0.9071,0.0000 1.8142,0.0000 2.7213 0.0000c 0.0015,-0.0000 0.0030,-0.0000 0.0046 -0.0000c 23.0284,0.0004 46.0568,0.0008 69.0852 0.0012c 0.9072,0.0000 1.8143,0.0000 2.7215 0.0001c 11.5150,0.0002 23.0299,0.0004 34.5449 0.0006c 23.9366,-0.0000 47.8732,-0.0000 71.8098 -0.0000c 23.8692,-0.0000 47.7383,-0.0000 71.6075 -0.0000c 0.0675,-0.0000 0.1349,-0.0000 0.2024 -0.0000c 11.5150,-0.0002 23.0299,-0.0004 34.5449 -0.0006c 0.9072,-0.0000 1.8143,-0.0000 2.7215 -0.0001c 23.0284,-0.0004 46.0568,-0.0008 69.0852 -0.0012c 0.0015,-0.0000 0.0031,-0.0000 0.0046 -0.0000c 0.9071,-0.0000 1.8142,-0.0000 2.7213 -0.0000c 23.0284,-0.0004 46.0568,-0.0008 69.0852 -0.0012c 0.0015,-0.0000 0.0031,-0.0000 0.0046 -0.0000c 0.9071,-0.0000 1.8142,-0.0000 2.7213 -0.0000c 23.9370,-0.0004 47.8740,-0.0008 71.8110 -0.0013c 16.6078,-0.0003 30.2365,13.6279 30.2368 30.2357c 0.0004,24.8441 0.0009,49.6882 0.0013 74.5323c 0.0000,0.0000 0.0000,0.0000 0.0000 0.0001c 0.0000,16.6076 -13.6282,30.2360 -30.2358 30.2362c -23.9370,0.0004 -47.8740,0.0008 -71.8110 0.0013c -0.9071,0.0000 -1.8142,0.0000 -2.7213 0.0000c -23.0299,0.0004 -46.0598,0.0008 -69.0898 0.0012c -0.9071,0.0000 -1.8142,0.0000 -2.7213 0.0000c -23.0299,0.0004 -46.0598,0.0008 -69.0898 0.0012c -0.9071,0.0000 -1.8142,0.0000 -2.7213 0.0000c -11.5150,0.0002 -23.0300,0.0004 -34.5450 0.0006c -0.0674,-0.0000 -0.1348,-0.0000 -0.2023 -0.0000c -12.3546,0.0002 -24.7092,0.0004 -37.0638 0.0006c -0.0663,-0.0000 -0.1326,-0.0002 -0.1989 -0.0006c -11.4491,-0.0000 -22.8982,-0.0000 -34.3473 -0.0000c -11.4491,-0.0000 -22.8982,-0.0000 -34.3473 -0.0000c -0.0662,0.0004 -0.1325,0.0006 -0.1989 0.0006c -12.4220,-0.0002 -24.8440,-0.0004 -37.2660 -0.0006c -11.5150,-0.0002 -23.0300,-0.0004 -34.5450 -0.0006c -0.9071,-0.0000 -1.8142,-0.0000 -2.7213 -0.0000c -23.0299,-0.0004 -46.0598,-0.0008 -69.0898 -0.0012c -0.9071,-0.0000 -1.8142,-0.0000 -2.7213 -0.0000c -23.0299,-0.0004 -46.0598,-0.0008 -69.0898 -0.0012c -0.9071,-0.0000 -1.8142,-0.0000 -2.7213 -0.0000c -23.9370,-0.0004 -47.8740,-0.0008 -71.8110 -0.0013c -16.6076,-0.0002 -30.2358,-13.6287 -30.2358 -30.2362c 0.0000,-0.0000 0.0000,-0.0000 -0.0000 -0.0001ZM 17.1278,274.0514 c 0.0000,3.1311 2.5382,5.6693 5.6693 5.6693c 3.1311,-0.0000 5.6693,-2.5382 5.6693 -5.6693c 0.0000,-3.1311 -2.5382,-5.6693 -5.6693 -5.6693c -3.1311,-0.0000 -5.6693,2.5382 -5.6693 5.6693ZM 17.1295,176.7038 c 0.0000,3.1311 2.5382,5.6693 5.6693 5.6693c 3.1311,-0.0000 5.6693,-2.5382 5.6693 -5.6693c 0.0000,-3.1311 -2.5382,-5.6693 -5.6693 -5.6693c -3.1311,-0.0000 -5.6693,2.5382 -5.6693 5.6693ZM 41.9993,248.0723 c 1.0240,0.0000 2.0480,0.0000 3.0720 0.0001c -0.0000,1.2352 -0.0000,2.4704 -0.0001 3.7056c 17.6000,0.0003 35.2000,0.0006 52.8000 0.0009c 0.0000,-1.2352 0.0000,-2.4704 0.0001 -3.7056c 1.0240,0.0000 2.0480,0.0000 3.0720 0.0001c 0.0001,-4.4096 0.0001,-8.8191 0.0002 -13.2287c -1.0240,-0.0000 -2.0480,-0.0000 -3.0720 -0.0001c 0.0001,-6.3104 0.0002,-12.6209 0.0003 -18.9313c 1.0240,0.0000 2.0480,0.0000 3.0720 0.0001c 0.0001,-4.4096 0.0001,-8.8191 0.0002 -13.2287c -1.0240,-0.0000 -2.0480,-0.0000 -3.0720 -0.0001c 0.0000,-1.2352 0.0000,-2.4704 0.0001 -3.7056c -17.6000,-0.0003 -35.2000,-0.0006 -52.8000 -0.0009c -0.0000,1.2352 -0.0000,2.4704 -0.0001 3.7056c -1.0240,-0.0000 -2.0480,-0.0000 -3.0720 -0.0001c -0.0001,4.4096 -0.0001,8.8191 -0.0002 13.2287c 1.0240,0.0000 2.0480,0.0000 3.0720 0.0001c -0.0001,6.3104 -0.0002,12.6209 -0.0003 18.9313c -1.0240,-0.0000 -2.0480,-0.0000 -3.0720 -0.0001c -0.0001,4.4096 -0.0001,8.8192 -0.0002 13.2287ZM 113.8104,248.0736 c 1.0240,0.0000 2.0480,0.0000 3.0720 0.0001c -0.0000,1.2352 -0.0000,2.4704 -0.0001 3.7056c 17.6000,0.0003 35.2000,0.0006 52.8000 0.0009c 0.0000,-1.2352 0.0000,-2.4704 0.0001 -3.7056c 1.0240,0.0000 2.0480,0.0000 3.0720 0.0001c 0.0001,-4.4096 0.0002,-8.8191 0.0002 -13.2287c -1.0240,-0.0000 -2.0480,-0.0000 -3.0720 -0.0001c 0.0001,-6.3104 0.0002,-12.6209 0.0003 -18.9313c 1.0240,0.0000 2.0480,0.0000 3.0720 0.0001c 0.0001,-4.4096 0.0001,-8.8191 0.0002 -13.2287c -1.0240,-0.0000 -2.0480,-0.0000 -3.0720 -0.0001c 0.0000,-1.2352 0.0000,-2.4704 0.0001 -3.7056c -17.6000,-0.0003 -35.2000,-0.0006 -52.8000 -0.0009c -0.0000,1.2352 -0.0000,2.4704 -0.0001 3.7056c -1.0240,-0.0000 -2.0480,-0.0000 -3.0720 -0.0001c -0.0001,4.4096 -0.0001,8.8191 -0.0002 13.2287c 1.0240,0.0000 2.0480,0.0000 3.0720 0.0001c -0.0001,6.3104 -0.0002,12.6209 -0.0003 18.9313c -1.0240,-0.0000 -2.0480,-0.0000 -3.0720 -0.0001c -0.0001,4.4096 -0.0001,8.8192 -0.0002 13.2287ZM 185.6214,248.0748 c 1.0240,0.0000 2.0480,0.0000 3.0720 0.0001c -0.0000,1.2352 -0.0000,2.4704 -0.0001 3.7056c 17.6000,0.0003 35.2000,0.0006 52.8000 0.0009c 0.0000,-1.2352 0.0000,-2.4704 0.0001 -3.7056c 1.0240,0.0000 2.0480,0.0000 3.0720 0.0001c 0.0001,-4.4096 0.0002,-8.8191 0.0002 -13.2287c -1.0240,-0.0000 -2.0480,-0.0000 -3.0720 -0.0001c 0.0001,-6.3104 0.0002,-12.6209 0.0003 -18.9313c 1.0240,0.0000 2.0480,0.0000 3.0720 0.0001c 0.0001,-4.4096 0.0002,-8.8192 0.0002 -13.2287c -1.0240,-0.0000 -2.0480,-0.0000 -3.0720 -0.0001c 0.0000,-1.2352 0.0000,-2.4704 0.0001 -3.7056c -17.6000,-0.0003 -35.2000,-0.0006 -52.8000 -0.0009c -0.0000,1.2352 -0.0000,2.4704 -0.0001 3.7056c -1.0240,-0.0000 -2.0480,-0.0000 -3.0720 -0.0001c -0.0001,4.4096 -0.0001,8.8191 -0.0002 13.2287c 1.0240,0.0000 2.0480,0.0000 3.0720 0.0001c -0.0001,6.3104 -0.0002,12.6209 -0.0003 18.9313c -1.0240,-0.0000 -2.0480,-0.0000 -3.0720 -0.0001c -0.0001,4.4096 -0.0002,8.8191 -0.0002 13.2287ZM 257.4324,248.0761 c 1.0240,0.0000 2.0480,0.0000 3.0720 0.0001c -0.0000,1.2352 -0.0000,2.4704 -0.0001 3.7056c 17.6000,0.0003 35.2000,0.0006 52.8000 0.0009c 0.0000,-1.2352 0.0000,-2.4704 0.0001 -3.7056c 1.0240,0.0000 2.0480,0.0000 3.0720 0.0001c 0.0001,-4.4096 0.0002,-8.8192 0.0002 -13.2287c -1.0240,-0.0000 -2.0480,-0.0000 -3.0720 -0.0001c 0.0001,-6.3104 0.0002,-12.6209 0.0003 -18.9313c 1.0240,0.0000 2.0480,0.0000 3.0720 0.0001c 0.0001,-4.4096 0.0002,-8.8191 0.0002 -13.2287c -1.0240,-0.0000 -2.0480,-0.0000 -3.0720 -0.0001c 0.0000,-1.2352 0.0000,-2.4704 0.0001 -3.7056c -17.6000,-0.0003 -35.2000,-0.0006 -52.8000 -0.0009c -0.0000,1.2352 -0.0001,2.4704 -0.0001 3.7056c -1.0240,-0.0000 -2.0480,-0.0000 -3.0720 -0.0001c -0.0001,4.4096 -0.0002,8.8191 -0.0002 13.2287c 1.0240,0.0000 2.0480,0.0000 3.0720 0.0001c -0.0001,6.3104 -0.0002,12.6209 -0.0003 18.9313c -1.0240,-0.0000 -2.0480,-0.0000 -3.0720 -0.0001c -0.0001,4.4096 -0.0002,8.8192 -0.0002 13.2287ZM 281.2346,278.1822 c 0.0000,3.1311 2.5382,5.6693 5.6693 5.6693c 3.1311,-0.0000 5.6693,-2.5382 5.6693 -5.6693c 0.0000,-3.1311 -2.5382,-5.6693 -5.6693 -5.6693c -3.1311,-0.0000 -5.6693,2.5382 -5.6693 5.6693ZM 324.7001,172.5822 c 0.0000,3.1311 2.5382,5.6693 5.6693 5.6693c 3.1311,-0.0000 5.6693,-2.5382 5.6693 -5.6693c 0.0000,-3.1311 -2.5382,-5.6693 -5.6693 -5.6693c -3.1311,-0.0000 -5.6693,2.5382 -5.6693 5.6693ZM 381.3930,172.5822 c 0.0000,3.1311 2.5382,5.6693 5.6693 5.6693c 3.1311,-0.0000 5.6693,-2.5382 5.6693 -5.6693c 0.0000,-3.1311 -2.5382,-5.6693 -5.6693 -5.6693c -3.1311,-0.0000 -5.6693,2.5382 -5.6693 5.6693ZM 401.0545,202.6884 c 0.0001,4.4096 0.0001,8.8191 0.0002 13.2287c 1.0240,-0.0000 2.0480,-0.0000 3.0720 -0.0001c 0.0001,6.3104 0.0002,12.6209 0.0003 18.9313c -1.0240,0.0000 -2.0480,0.0000 -3.0720 0.0001c 0.0001,4.4096 0.0002,8.8191 0.0002 13.2287c 1.0240,-0.0000 2.0480,-0.0000 3.0720 -0.0001c 0.0000,1.2352 0.0000,2.4704 0.0001 3.7056c 17.6000,-0.0003 35.2000,-0.0006 52.8000 -0.0009c -0.0000,-1.2352 -0.0000,-2.4704 -0.0001 -3.7056c 1.0240,-0.0000 2.0480,-0.0000 3.0720 -0.0001c -0.0001,-4.4096 -0.0002,-8.8192 -0.0002 -13.2287c -1.0240,0.0000 -2.0480,0.0000 -3.0720 0.0001c -0.0001,-6.3104 -0.0002,-12.6209 -0.0003 -18.9313c 1.0240,-0.0000 2.0480,-0.0000 3.0720 -0.0001c -0.0001,-4.4096 -0.0002,-8.8192 -0.0002 -13.2287c -1.0240,0.0000 -2.0480,0.0000 -3.0720 0.0001c -0.0000,-1.2352 -0.0000,-2.4704 -0.0001 -3.7056c -17.6000,0.0003 -35.2000,0.0006 -52.8000 0.0009c 0.0000,1.2352 0.0001,2.4704 0.0001 3.7056c -1.0240,0.0000 -2.0480,0.0000 -3.0720 0.0001ZM 424.8585,278.1822 c 0.0000,3.1311 2.5382,5.6693 5.6693 5.6693c 3.1311,-0.0000 5.6693,-2.5382 5.6693 -5.6693c 0.0000,-3.1311 -2.5382,-5.6693 -5.6693 -5.6693c -3.1311,-0.0000 -5.6693,2.5382 -5.6693 5.6693ZM 472.8655,202.6871 c 0.0001,4.4096 0.0001,8.8192 0.0002 13.2287c 1.0240,-0.0000 2.0480,-0.0000 3.0720 -0.0001c 0.0001,6.3104 0.0002,12.6209 0.0003 18.9313c -1.0240,0.0000 -2.0480,0.0000 -3.0720 0.0001c 0.0001,4.4096 0.0001,8.8191 0.0002 13.2287c 1.0240,-0.0000 2.0480,-0.0000 3.0720 -0.0001c 0.0000,1.2352 0.0000,2.4704 0.0001 3.7056c 17.6000,-0.0003 35.2000,-0.0006 52.8000 -0.0009c -0.0000,-1.2352 -0.0000,-2.4704 -0.0001 -3.7056c 1.0240,-0.0000 2.0480,-0.0000 3.0720 -0.0001c -0.0001,-4.4096 -0.0002,-8.8191 -0.0002 -13.2287c -1.0240,0.0000 -2.0480,0.0000 -3.0720 0.0001c -0.0001,-6.3104 -0.0002,-12.6209 -0.0003 -18.9313c 1.0240,-0.0000 2.0480,-0.0000 3.0720 -0.0001c -0.0001,-4.4096 -0.0002,-8.8192 -0.0002 -13.2287c -1.0240,0.0000 -2.0480,0.0000 -3.0720 0.0001c -0.0000,-1.2352 -0.0000,-2.4704 -0.0001 -3.7056c -17.6000,0.0003 -35.2000,0.0006 -52.8000 0.0009c 0.0000,1.2352 0.0000,2.4704 0.0001 3.7056c -1.0240,0.0000 -2.0480,0.0000 -3.0720 0.0001ZM 544.6765,202.6859 c 0.0001,4.4096 0.0001,8.8191 0.0002 13.2287c 1.0240,-0.0000 2.0480,-0.0000 3.0720 -0.0001c 0.0001,6.3104 0.0002,12.6209 0.0003 18.9313c -1.0240,0.0000 -2.0480,0.0000 -3.0720 0.0001c 0.0001,4.4096 0.0001,8.8192 0.0002 13.2287c 1.0240,-0.0000 2.0480,-0.0000 3.0720 -0.0001c 0.0000,1.2352 0.0000,2.4704 0.0001 3.7056c 17.6000,-0.0003 35.2000,-0.0006 52.8000 -0.0009c -0.0000,-1.2352 -0.0000,-2.4704 -0.0001 -3.7056c 1.0240,-0.0000 2.0480,-0.0000 3.0720 -0.0001c -0.0001,-4.4096 -0.0002,-8.8191 -0.0002 -13.2287c -1.0240,0.0000 -2.0480,0.0000 -3.0720 0.0001c -0.0001,-6.3104 -0.0002,-12.6209 -0.0003 -18.9313c 1.0240,-0.0000 2.0480,-0.0000 3.0720 -0.0001c -0.0001,-4.4096 -0.0002,-8.8191 -0.0002 -13.2287c -1.0240,0.0000 -2.0480,0.0000 -3.0720 0.0001c -0.0000,-1.2352 -0.0000,-2.4704 -0.0001 -3.7056c -17.6000,0.0003 -35.2000,0.0006 -52.8000 0.0009c 0.0000,1.2352 0.0000,2.4704 0.0001 3.7056c -1.0240,0.0000 -2.0480,0.0000 -3.0720 0.0001ZM 616.4875,202.6846 c 0.0001,4.4096 0.0002,8.8192 0.0002 13.2287c 1.0240,-0.0000 2.0480,-0.0000 3.0720 -0.0001c 0.0001,6.3104 0.0002,12.6209 0.0003 18.9313c -1.0240,0.0000 -2.0480,0.0000 -3.0720 0.0001c 0.0001,4.4096 0.0002,8.8191 0.0002 13.2287c 1.0240,-0.0000 2.0480,-0.0000 3.0720 -0.0001c 0.0000,1.2352 0.0000,2.4704 0.0001 3.7056c 17.6000,-0.0003 35.2000,-0.0006 52.8000 -0.0009c -0.0000,-1.2352 -0.0000,-2.4704 -0.0001 -3.7056c 1.0240,-0.0000 2.0480,-0.0000 3.0720 -0.0001c -0.0001,-4.4096 -0.0002,-8.8191 -0.0002 -13.2287c -1.0240,0.0000 -2.0480,0.0000 -3.0720 0.0001c -0.0001,-6.3104 -0.0002,-12.6209 -0.0003 -18.9313c 1.0240,-0.0000 2.0480,-0.0000 3.0720 -0.0001c -0.0001,-4.4096 -0.0001,-8.8191 -0.0002 -13.2287c -1.0240,0.0000 -2.0480,0.0000 -3.0720 0.0001c -0.0000,-1.2352 -0.0000,-2.4704 -0.0001 -3.7056c -17.6000,0.0003 -35.2000,0.0006 -52.8000 0.0009c 0.0000,1.2352 0.0000,2.4704 0.0001 3.7056c -1.0240,0.0000 -2.0480,0.0000 -3.0720 0.0001ZM 688.9636,176.7038 c 0.0000,3.1311 2.5382,5.6693 5.6693 5.6693c 3.1311,-0.0000 5.6693,-2.5382 5.6693 -5.6693c 0.0000,-3.1311 -2.5382,-5.6693 -5.6693 -5.6693c -3.1311,-0.0000 -5.6693,2.5382 -5.6693 5.6693ZM 688.9653,274.0514 c 0.0000,3.1311 2.5382,5.6693 5.6693 5.6693c 3.1311,-0.0000 5.6693,-2.5382 5.6693 -5.6693c 0.0000,-3.1311 -2.5382,-5.6693 -5.6693 -5.6693c -3.1311,-0.0000 -5.6693,2.5382 -5.6693 5.6693Z"/></g><g stroke-linejoin="miter" stroke-opacity="1.0" fill-opacity="0.5" stroke="rgb(0,0,0)" stroke-width="0.37795275590551186" fill="rgb(0,0,255)" stroke-linecap="butt" stroke-miterlimit="10.0"><path d="M 3.9685,108.7365 c 0.0004,-24.8441 0.0009,-49.6882 0.0013 -74.5323c 0.0003,-16.6078 13.6290,-30.2360 30.2368 -30.2357c 23.9370,0.0004 47.8740,0.0008 71.8110 0.0013c 0.9071,0.0000 1.8142,0.0000 2.7213 0.0000c 0.0015,-0.0000 0.0031,-0.0000 0.0046 -0.0000c 23.0284,0.0004 46.0568,0.0008 69.0852 0.0012c 0.9071,0.0000 1.8142,0.0000 2.7213 0.0000c 0.0015,-0.0000 0.0030,-0.0000 0.0046 -0.0000c 23.0284,0.0004 46.0568,0.0008 69.0852 0.0012c 0.9072,0.0000 1.8143,0.0000 2.7215 0.0001c 11.5150,0.0002 23.0299,0.0004 34.5449 0.0006c 23.9366,-0.0000 47.8732,-0.0000 71.8098 -0.0000c 23.8692,-0.0000 47.7383,-0.0000 71.6075 -0.0000c 0.0675,-0.0000 0.1349,-0.0000 0.2024 -0.0000c 11.5150,-0.0002 23.0299,-0.0004 34.5449 -0.0006c 0.9072,-0.0000 1.8143,-0.0000 2.7215 -0.0001c 23.0284,-0.0004 46.0568,-0.0008 69.0852 -0.0012c 0.0015,-0.0000 0.0031,-0.0000 0.0046 -0.0000c 0.9071,-0.0000 1.8142,-0.0000 2.7213 -0.0000c 23.0284,-0.0004 46.0568,-0.0008 69.0852 -0.0012c 0.0015,-0.0000 0.0031,-0.0000 0.0046 -0.0000c 0.9071,-0.0000 1.8142,-0.0000 2.7213 -0.0000c 23.9370,-0.0004 47.8740,-0.0008 71.8110 -0.0013c 16.6078,-0.0003 30.2365,13.6279 30.2368 30.2357c 0.0004,24.8441 0.0009,49.6882 0.0013 74.5323c 0.0000,0.0000 0.0000,0.0000 0.0000 0.0001c 0.0000,16.6076 -13.6282,30.2360 -30.2358 30.2362c -23.9370,0.0004 -47.8740,0.0008 -71.8110 0.0013c -0.9071,0.0000 -1.8142,0.0000 -2.7213 0.0000c -23.0299,0.0004 -46.0598,0.0008 -69.0898 0.0012c -0.9071,0.0000 -1.8142,0.0000 -2.7213 0.0000c -23.0299,0.0004 -46.0598,0.0008 -69.0898 0.0012c -0.9071,0.0000 -1.8142,0.0000 -2.7213 0.0000c -11.5150,0.0002 -23.0300,0.0004 -34.5450 0.0006c -0.0674,-0.0000 -0.1348,-0.0000 -0.2023 -0.0000c -12.3546,0.0002 -24.7092,0.0004 -37.0638 0.0006c -0.0663,-0.0000 -0.1326,-0.0002 -0.1989 -0.0006c -11.4491,-0.0000 -22.8982,-0.0000 -34.3473 -0.0000c -11.4491,-0.0000 -22.8982,-0.0000 -34.3473 -0.0000c -0.0662,0.0004 -0.1325,0.0006 -0.1989 0.0006c -12.4220,-0.0002 -24.8440,-0.0004 -37.2660 -0.0006c -11.5150,-0.0002 -23.0300,-0.0004 -34.5450 -0.0006c -0.9071,-0.0000 -1.8142,-0.0000 -2.7213 -0.0000c -23.0299,-0.0004 -46.0598,-0.0008 -69.0898 -0.0012c -0.9071,-0.0000 -1.8142,-0.0000 -2.7213 -0.0000c -23.0299,-0.0004 -46.0598,-0.0008 -69.0898 -0.0012c -0.9071,-0.0000 -1.8142,-0.0000 -2.7213 -0.0000c -23.9370,-0.0004 -47.8740,-0.0008 -71.8110 -0.0013c -16.6076,-0.0002 -30.2358,-13.6287 -30.2358 -30.2362c 0.0000,-0.0000 0.0000,-0.0000 -0.0000 -0.0001ZM 17.1278,120.1445 c 0.0000,3.1311 2.5382,5.6693 5.6693 5.6693c 3.1311,-0.0000 5.6693,-2.5382 5.6693 -5.6693c 0.0000,-3.1311 -2.5382,-5.6693 -5.6693 -5.6693c -3.1311,-0.0000 -5.6693,2.5382 -5.6693 5.6693ZM 17.1295,22.7968 c 0.0000,3.1311 2.5382,5.6693 5.6693 5.6693c 3.1311,-0.0000 5.6693,-2.5382 5.6693 -5.6693c 0.0000,-3.1311 -2.5382,-5.6693 -5.6693 -5.6693c -3.1311,-0.0000 -5.6693,2.5382 -5.6693 5.6693ZM 30.4254,108.7369 c 0.0000,0.0000 0.0000,0.0000 0.0000 0.0001c 0.0000,2.0873 1.6921,3.7795 3.7795 3.7795c 23.9370,0.0004 47.8740,0.0008 71.8110 0.0013c 0.9071,0.0000 1.8142,0.0000 2.7213 0.0000c 23.0299,0.0004 46.0598,0.0008 69.0898 0.0012c 0.9071,0.0000 1.8142,0.0000 2.7213 0.0000c 23.0299,0.0004 46.0598,0.0008 69.0898 0.0012c 0.9071,0.0000 1.8142,0.0000 2.7213 0.0000c 23.9370,0.0004 47.8740,0.0008 71.8110 0.0013c 2.0874,0.0000 3.7796,-1.6921 3.7796 -3.7795c 0.0004,-24.8441 0.0009,-49.6882 0.0013 -74.5323c -0.0000,-2.0874 -1.6921,-3.7796 -3.7795 -3.7796c -23.9370,-0.0004 -47.8740,-0.0008 -71.8110 -0.0013c -0.9071,-0.0000 -1.8142,-0.0000 -2.7213 -0.0001c -23.0284,-0.0004 -46.0568,-0.0008 -69.0852 -0.0012c -0.0015,-0.0000 -0.0031,-0.0000 -0.0046 -0.0000c -0.9071,-0.0000 -1.8142,-0.0000 -2.7213 -0.0000c -23.0284,-0.0004 -46.0568,-0.0008 -69.0852 -0.0012c -0.0015,-0.0000 -0.0031,-0.0000 -0.0046 -0.0000c -0.9071,-0.0000 -1.8142,-0.0000 -2.7213 -0.0000c -23.9370,-0.0004 -47.8740,-0.0008 -71.8110 -0.0013c -2.0874,-0.0000 -3.7796,1.6921 -3.7796 3.7795c -0.0004,24.8441 -0.0009,49.6882 -0.0013 74.5323ZM 281.2346,124.2753 c 0.0000,3.1311 2.5382,5.6693 5.6693 5.6693c 3.1311,-0.0000 5.6693,-2.5382 5.6693 -5.6693c 0.0000,-3.1311 -2.5382,-5.6693 -5.6693 -5.6693c -3.1311,-0.0000 -5.6693,2.5382 -5.6693 5.6693ZM 324.7001,18.6753 c 0.0000,3.1311 2.5382,5.6693 5.6693 5.6693c 3.1311,-0.0000 5.6693,-2.5382 5.6693 -5.6693c 0.0000,-3.1311 -2.5382,-5.6693 -5.6693 -5.6693c -3.1311,-0.0000 -5.6693,2.5382 -5.6693 5.6693ZM 381.3930,18.6753 c 0.0000,3.1311 2.5382,5.6693 5.6693 5.6693c 3.1311,-0.0000 5.6693,-2.5382 5.6693 -5.6693c 0.0000,-3.1311 -2.5382,-5.6693 -5.6693 -5.6693c -3.1311,-0.0000 -5.6693,2.5382 -5.6693 5.6693ZM 389.4805,34.2098 c 0.0004,24.8441 0.0009,49.6882 0.0013 74.5323c 0.0000,2.0874 1.6922,3.7795 3.7796 3.7795c 23.9370,-0.0004 47.8740,-0.0008 71.8110 -0.0013c 0.9071,-0.0000 1.8142,-0.0000 2.7213 -0.0000c 23.0299,-0.0004 46.0598,-0.0008 69.0898 -0.0012c 0.9071,-0.0000 1.8142,-0.0000 2.7213 -0.0000c 23.0299,-0.0004 46.0598,-0.0008 69.0898 -0.0012c 0.9071,-0.0000 1.8142,-0.0000 2.7213 -0.0000c 23.9370,-0.0004 47.8740,-0.0008 71.8110 -0.0013c 2.0874,-0.0000 3.7795,-1.6922 3.7795 -3.7795c 0.0000,-0.0000 0.0000,-0.0000 0.0000 -0.0001c -0.0004,-24.8441 -0.0009,-49.6882 -0.0013 -74.5323c -0.0000,-2.0874 -1.6922,-3.7795 -3.7796 -3.7795c -23.9370,0.0004 -47.8740,0.0008 -71.8110 0.0013c -0.9071,0.0000 -1.8142,0.0000 -2.7213 0.0000c -0.0015,-0.0000 -0.0031,-0.0000 -0.0046 -0.0000c -23.0284,0.0004 -46.0568,0.0008 -69.0852 0.0012c -0.9071,0.0000 -1.8142,0.0000 -2.7213 0.0000c -0.0015,-0.0000 -0.0031,-0.0000 -0.0046 -0.0000c -23.0284,0.0004 -46.0568,0.0008 -69.0852 0.0012c -0.9071,0.0000 -1.8142,0.0000 -2.7213 0.0001c -23.9370,0.0004 -47.8740,0.0008 -71.8110 0.0013c -2.0873,0.0000 -3.7794,1.6921 -3.7795 3.7796ZM 424.8585,124.2753 c 0.0000,3.1311 2.5382,5.6693 5.6693 5.6693c 3.1311,-0.0000 5.6693,-2.5382 5.6693 -5.6693c 0.0000,-3.1311 -2.5382,-5.6693 -5.6693 -5.6693c -3.1311,-0.0000 -5.6693,2.5382 -5.6693 5.6693ZM 688.9636,22.7968 c 0.0000,3.1311 2.5382,5.6693 5.6693 5.6693c 3.1311,-0.0000 5.6693,-2.5382 5.6693 -5.6693c 0.0000,-3.1311 -2.5382,-5.6693 -5.6693 -5.6693c -3.1311,-0.0000 -5.6693,2.5382 -5.6693 5.6693ZM 688.9653,120.1445 c 0.0000,3.1311 2.5382,5.6693 5.6693 5.6693c 3.1311,-0.0000 5.6693,-2.5382 5.6693 -5.6693c 0.0000,-3.1311 -2.5382,-5.6693 -5.6693 -5.6693c -3.1311,-0.0000 -5.6693,2.5382 -5.6693 5.6693Z"/></g></svg>