<?xml version="1.0" encoding="UTF-8"?>
<!DOCTYPE svg PUBLIC "-//W3C//DTD SVG 1.1//EN"
    "http://www.w3.org/Graphics/SVG/1.1/DTD/svg11.dtd"><svg xmlns="http://www.w3.org/2000/svg" height="2054.3986" stroke-opacity="1" viewBox="0 0 603 2054" font-size="1" width="603.4291" xmlns:xlink="http://www.w3.org/1999/xlink" stroke="rgb(0,0,0)" version="1.1"><defs></defs><defs><linearGradient x2="39.3893" y1="0.0000" gradientUnits="userSpaceOnUse" spreadMethod="pad" gradientTransform="matrix(3.7795,-0.0000,0.0000,-3.7795,20.3464,2001.7521)" id="gradient0" y2="0.0000" x1="-39.3893"><stop stop-opacity="1.0000" offset="0.0000" stop-color="rgb(128,128,128)"/><stop stop-opacity="1.0000" offset="0.5000" stop-color="rgb(255,255,255)"/><stop stop-opacity="1.0000" offset="1.0000" stop-color="rgb(128,128,128)"/></linearGradient></defs><g stroke-linejoin="miter" stroke-opacity="1.0" fill-opacity="1" stroke="rgb(0,0,0)" stroke-width="0.37795275590551186" fill="url(#gradient0)" stroke-linecap="butt" stroke-miterlimit="10.0"><path d="M 3.9685,1569.3658 c 0.0000,-9.0453 7.3326,-16.3779 16.3779 -16.3779c 165.8190,-0.0000 331.6381,-0.0000 497.4571 -0.0000c 7.9481,-0.0000 14.7490,5.7066 16.1292 13.5339c 21.7589,123.4009 43.5178,246.8017 65.2767 370.2026c 0.1693,0.9602 0.2512,1.9164 0.2512 2.8601c 0.0000,7.5158 -5.1925,14.2444 -12.7658 15.9580c -139.1905,31.4946 -278.3811,62.9892 -417.5716 94.4837c -1.1861,0.2684 -2.3984,0.4038 -3.6145 0.4038c -48.3874,-0.0000 -96.7748,-0.0000 -145.1622 -0.0000c -9.0453,-0.0000 -16.3779,-7.3326 -16.3779 -16.3779c 0.0000,-154.8954 0.0000,-309.7909 0.0000 -464.6863ZM 90.2677,1573.1454 c 0.0000,3.1311 2.5382,5.6693 5.6693 5.6693c 3.1311,-0.0000 5.6693,-2.5382 5.6693 -5.6693c 0.0000,-3.1310 -2.5382,-5.6693 -5.6693 -5.6693c -3.1310,-0.0000 -5.6693,2.5382 -5.6693 5.6693ZM 159.8394,2030.2726 c 0.0000,3.1311 2.5382,5.6693 5.6693 5.6693c 3.1311,-0.0000 5.6693,-2.5382 5.6693 -5.6693c 0.0000,-3.1310 -2.5382,-5.6693 -5.6693 -5.6693c -3.1310,-0.0000 -5.6693,2.5382 -5.6693 5.6693ZM 508.3547,1573.1454 c 0.0000,3.1311 2.5382,5.6693 5.6693 5.6693c 3.1310,-0.0000 5.6693,-2.5382 5.6693 -5.6693c 0.0000,-3.1310 -2.5382,-5.6693 -5.6693 -5.6693c -3.1310,-0.0000 -5.6693,2.5382 -5.6693 5.6693ZM 573.6314,1935.7889 c 0.0000,3.1311 2.5382,5.6693 5.6693 5.6693c 3.1310,-0.0000 5.6693,-2.5382 5.6693 -5.6693c 0.0000,-3.1310 -2.5382,-5.6693 -5.6693 -5.6693c -3.1311,-0.0000 -5.6693,2.5382 -5.6693 5.6693Z"/></g><g stroke-linejoin="miter" stroke-opacity="1.0" fill-opacity="0.5" stroke="rgb(0,0,0)" stroke-width="0.37795275590551186" fill="rgb(255,255,0)" stroke-linecap="butt" stroke-miterlimit="10.0"><path d="M 3.9685,1053.0260 c 0.0000,-9.0453 7.3326,-16.3779 16.3779 -16.3779c 165.8190,-0.0000 331.6381,-0.0000 497.4571 -0.0000c 7.9481,-0.0000 14.7490,5.7066 16.1292 13.5339c 21.7589,123.4009 43.5178,246.8017 65.2767 370.2026c 0.1693,0.9602 0.2512,1.9164 0.2512 2.8601c 0.0000,7.5158 -5.1925,14.2444 -12.7658 15.9580c -139.1905,31.4946 -278.3811,62.9892 -417.5716 94.4837c -1.1861,0.2684 -2.3984,0.4038 -3.6145 0.4038c -48.3874,-0.0000 -96.7748,-0.0000 -145.1622 -0.0000c -9.0453,-0.0000 -16.3779,-7.3326 -16.3779 -16.3779c 0.0000,-154.8954 0.0000,-309.7909 0.0000 -464.6863ZM 27.8931,1074.2099 c 0.0000,140.7728 0.0000,281.5457 0.0000 422.3185c 0.0000,8.2206 6.7742,14.8847 15.1306 14.8847c 35.4333,-0.0000 70.8665,-0.0000 106.2997 -0.0000c 1.2120,-7.8490 7.9969,-13.8583 16.1853 -13.8583c 7.9729,-0.0000 14.6152,5.6971 16.0782 13.2424c 127.5162,-28.3841 255.0323,-56.7683 382.5484 -85.1524c -0.7817,-1.9113 -1.2125,-4.0032 -1.2125 -6.1958c 0.0000,-8.2410 6.0866,-15.0604 14.0096 -16.2079c -19.7445,-110.1571 -39.4890,-220.3143 -59.2336 -330.4715c -1.1813,0.2708 -2.4113,0.4139 -3.6748 0.4139c -8.1884,-0.0000 -14.9734,-6.0092 -16.1853 -13.8583c -128.5721,-0.0000 -257.1442,-0.0000 -385.7163 -0.0000c -1.2120,7.8491 -7.9969,13.8583 -16.1854 13.8583c -8.1884,-0.0000 -14.9733,-6.0092 -16.1853 -13.8583c -12.2427,-0.0000 -24.4854,-0.0000 -36.7281 -0.0000c -8.3564,-0.0000 -15.1306,6.6641 -15.1306 14.8847ZM 90.2677,1056.8056 c 0.0000,3.1311 2.5382,5.6693 5.6693 5.6693c 3.1311,-0.0000 5.6693,-2.5382 5.6693 -5.6693c 0.0000,-3.1310 -2.5382,-5.6693 -5.6693 -5.6693c -3.1310,-0.0000 -5.6693,2.5382 -5.6693 5.6693ZM 159.8394,1513.9328 c 0.0000,3.1311 2.5382,5.6693 5.6693 5.6693c 3.1311,-0.0000 5.6693,-2.5382 5.6693 -5.6693c 0.0000,-3.1310 -2.5382,-5.6693 -5.6693 -5.6693c -3.1310,-0.0000 -5.6693,2.5382 -5.6693 5.6693ZM 508.3547,1056.8056 c 0.0000,3.1311 2.5382,5.6693 5.6693 5.6693c 3.1310,-0.0000 5.6693,-2.5382 5.6693 -5.6693c 0.0000,-3.1310 -2.5382,-5.6693 -5.6693 -5.6693c -3.1310,-0.0000 -5.6693,2.5382 -5.6693 5.6693ZM 573.6314,1419.4491 c 0.0000,3.1311 2.5382,5.6693 5.6693 5.6693c 3.1310,-0.0000 5.6693,-2.5382 5.6693 -5.6693c 0.0000,-3.1310 -2.5382,-5.6693 -5.6693 -5.6693c -3.1311,-0.0000 -5.6693,2.5382 -5.6693 5.6693Z"/></g><g stroke-linejoin="miter" stroke-opacity="1.0" fill-opacity="0.5" stroke="rgb(0,0,0)" stroke-width="0.37795275590551186" fill="rgb(0,0,0)" stroke-linecap="butt" stroke-miterlimit="10.0"><path d="M 3.9685,536.6862 c 0.0000,-9.0453 7.3326,-16.3779 16.3779 -16.3779c 165.8190,-0.0000 331.6381,-0.0000 497.4571 -0.0000c 7.9481,-0.0000 14.7490,5.7066 16.1292 13.5339c 21.7589,123.4009 43.5178,246.8017 65.2767 370.2026c 0.1693,0.9602 0.2512,1.9164 0.2512 2.8601c 0.0000,7.5158 -5.1925,14.2444 -12.7658 15.9580c -139.1905,31.4946 -278.3811,62.9892 -417.5716 94.4837c -1.1861,0.2684 -2.3984,0.4038 -3.6145 0.4038c -48.3874,-0.0000 -96.7748,-0.0000 -145.1622 -0.0000c -9.0453,-0.0000 -16.3779,-7.3326 -16.3779 -16.3779c 0.0000,-154.8954 0.0000,-309.7909 0.0000 -464.6863ZM 55.5886,903.3545 c 0.7657,4.3426 1.5314,8.6852 2.2972 13.0278c 1.0084,-0.1778 2.0169,-0.3556 3.0253 -0.5335c 1.0957,6.2146 2.1915,12.4291 3.2873 18.6437c -1.0084,0.1778 -2.0169,0.3556 -3.0253 0.5334c 0.7657,4.3426 1.5315,8.6852 2.2972 13.0278c 1.0084,-0.1778 2.0169,-0.3556 3.0253 -0.5334c 0.2145,1.2164 0.4290,2.4329 0.6435 3.6493c 17.3326,-3.0562 34.6652,-6.1125 51.9978 -9.1686c -0.2145,-1.2165 -0.4290,-2.4329 -0.6435 -3.6493c 1.0084,-0.1778 2.0169,-0.3556 3.0253 -0.5335c -0.7657,-4.3426 -1.5314,-8.6852 -2.2972 -13.0278c -1.0084,0.1778 -2.0169,0.3557 -3.0253 0.5335c -1.0958,-6.2145 -2.1916,-12.4291 -3.2873 -18.6436c 1.0084,-0.1778 2.0169,-0.3556 3.0253 -0.5335c -0.7657,-4.3426 -1.5314,-8.6852 -2.2971 -13.0278c -1.0084,0.1778 -2.0169,0.3556 -3.0253 0.5335c -0.2145,-1.2165 -0.4290,-2.4329 -0.6435 -3.6493c -17.3326,3.0562 -34.6652,6.1124 -51.9978 9.1686c 0.2145,1.2164 0.4290,2.4329 0.6435 3.6493c -1.0084,0.1778 -2.0169,0.3556 -3.0253 0.5334ZM 82.6641,643.3645 c 0.7657,4.3426 1.5315,8.6852 2.2972 13.0278c 1.0084,-0.1778 2.0169,-0.3556 3.0253 -0.5335c 1.0958,6.2146 2.1916,12.4291 3.2874 18.6437c -1.0084,0.1778 -2.0169,0.3556 -3.0253 0.5334c 0.7657,4.3426 1.5314,8.6852 2.2972 13.0278c 1.0084,-0.1778 2.0169,-0.3556 3.0253 -0.5335c 0.2145,1.2165 0.4290,2.4329 0.6435 3.6493c 17.3326,-3.0562 34.6652,-6.1124 51.9978 -9.1686c -0.2145,-1.2165 -0.4290,-2.4329 -0.6435 -3.6493c 1.0084,-0.1778 2.0169,-0.3556 3.0253 -0.5335c -0.7657,-4.3426 -1.5314,-8.6852 -2.2971 -13.0278c -1.0084,0.1778 -2.0169,0.3556 -3.0253 0.5335c -1.0958,-6.2146 -2.1916,-12.4291 -3.2874 -18.6437c 1.0084,-0.1778 2.0169,-0.3556 3.0253 -0.5334c -0.7657,-4.3426 -1.5314,-8.6852 -2.2972 -13.0278c -1.0084,0.1778 -2.0169,0.3556 -3.0253 0.5334c -0.2145,-1.2164 -0.4290,-2.4329 -0.6435 -3.6493c -17.3326,3.0562 -34.6652,6.1124 -51.9978 9.1686c 0.2145,1.2165 0.4290,2.4329 0.6435 3.6493c -1.0084,0.1778 -2.0169,0.3556 -3.0253 0.5335ZM 90.2677,540.4658 c 0.0000,3.1311 2.5382,5.6693 5.6693 5.6693c 3.1311,-0.0000 5.6693,-2.5382 5.6693 -5.6693c 0.0000,-3.1310 -2.5382,-5.6693 -5.6693 -5.6693c -3.1310,-0.0000 -5.6693,2.5382 -5.6693 5.6693ZM 95.1340,714.0845 c 0.7657,4.3426 1.5314,8.6852 2.2972 13.0278c 1.0084,-0.1778 2.0169,-0.3556 3.0253 -0.5335c 1.0958,6.2146 2.1916,12.4291 3.2874 18.6437c -1.0084,0.1778 -2.0169,0.3556 -3.0253 0.5334c 0.7657,4.3426 1.5314,8.6852 2.2971 13.0278c 1.0084,-0.1778 2.0169,-0.3556 3.0253 -0.5334c 0.2145,1.2164 0.4290,2.4329 0.6435 3.6493c 17.3326,-3.0562 34.6652,-6.1125 51.9978 -9.1686c -0.2145,-1.2165 -0.4290,-2.4329 -0.6435 -3.6493c 1.0084,-0.1778 2.0169,-0.3556 3.0253 -0.5335c -0.7657,-4.3426 -1.5314,-8.6852 -2.2971 -13.0277c -1.0084,0.1778 -2.0169,0.3556 -3.0253 0.5334c -1.0958,-6.2145 -2.1916,-12.4291 -3.2874 -18.6437c 1.0084,-0.1778 2.0169,-0.3556 3.0253 -0.5334c -0.7657,-4.3426 -1.5314,-8.6852 -2.2972 -13.0278c -1.0084,0.1778 -2.0169,0.3556 -3.0253 0.5335c -0.2145,-1.2165 -0.4290,-2.4329 -0.6435 -3.6493c -17.3326,3.0562 -34.6652,6.1124 -51.9978 9.1686c 0.2145,1.2164 0.4290,2.4329 0.6435 3.6493c -1.0084,0.1778 -2.0169,0.3556 -3.0253 0.5334ZM 107.6038,784.8045 c 0.7657,4.3426 1.5314,8.6852 2.2972 13.0278c 1.0084,-0.1778 2.0169,-0.3556 3.0253 -0.5334c 1.0958,6.2145 2.1916,12.4291 3.2874 18.6436c -1.0084,0.1778 -2.0169,0.3556 -3.0253 0.5335c 0.7657,4.3426 1.5314,8.6852 2.2971 13.0277c 1.0084,-0.1778 2.0169,-0.3556 3.0253 -0.5334c 0.2145,1.2164 0.4290,2.4329 0.6435 3.6493c 17.3326,-3.0562 34.6652,-6.1124 51.9978 -9.1686c -0.2145,-1.2164 -0.4290,-2.4329 -0.6435 -3.6493c 1.0084,-0.1778 2.0169,-0.3556 3.0253 -0.5334c -0.7657,-4.3426 -1.5314,-8.6852 -2.2971 -13.0278c -1.0084,0.1778 -2.0169,0.3556 -3.0253 0.5334c -1.0958,-6.2145 -2.1916,-12.4291 -3.2874 -18.6436c 1.0084,-0.1778 2.0169,-0.3556 3.0253 -0.5335c -0.7657,-4.3426 -1.5314,-8.6852 -2.2972 -13.0278c -1.0084,0.1778 -2.0169,0.3556 -3.0253 0.5335c -0.2145,-1.2164 -0.4290,-2.4329 -0.6435 -3.6493c -17.3326,3.0562 -34.6652,6.1124 -51.9978 9.1686c 0.2145,1.2164 0.4290,2.4329 0.6435 3.6493c -1.0084,0.1778 -2.0169,0.3556 -3.0253 0.5334ZM 120.0737,855.5246 c 0.7657,4.3426 1.5314,8.6852 2.2972 13.0278c 1.0084,-0.1778 2.0169,-0.3556 3.0253 -0.5334c 1.0958,6.2145 2.1916,12.4291 3.2874 18.6436c -1.0084,0.1778 -2.0169,0.3556 -3.0253 0.5335c 0.7657,4.3426 1.5314,8.6852 2.2971 13.0278c 1.0084,-0.1778 2.0169,-0.3556 3.0253 -0.5335c 0.2145,1.2164 0.4290,2.4329 0.6435 3.6493c 17.3326,-3.0562 34.6652,-6.1124 51.9978 -9.1686c -0.2145,-1.2164 -0.4290,-2.4329 -0.6435 -3.6493c 1.0084,-0.1778 2.0169,-0.3556 3.0253 -0.5334c -0.7657,-4.3426 -1.5314,-8.6852 -2.2972 -13.0278c -1.0084,0.1778 -2.0168,0.3556 -3.0253 0.5334c -1.0958,-6.2145 -2.1916,-12.4291 -3.2874 -18.6436c 1.0084,-0.1778 2.0169,-0.3556 3.0253 -0.5335c -0.7657,-4.3426 -1.5314,-8.6852 -2.2972 -13.0277c -1.0084,0.1778 -2.0169,0.3556 -3.0253 0.5334c -0.2145,-1.2164 -0.4290,-2.4329 -0.6435 -3.6493c -17.3326,3.0562 -34.6652,6.1124 -51.9978 9.1686c 0.2145,1.2164 0.4290,2.4329 0.6435 3.6493c -1.0084,0.1778 -2.0169,0.3556 -3.0253 0.5334ZM 132.5436,926.2447 c 0.7657,4.3426 1.5314,8.6852 2.2972 13.0278c 1.0084,-0.1778 2.0169,-0.3556 3.0253 -0.5335c 1.0958,6.2146 2.1916,12.4291 3.2874 18.6436c -1.0084,0.1778 -2.0169,0.3557 -3.0253 0.5335c 0.7657,4.3426 1.5314,8.6852 2.2971 13.0278c 1.0084,-0.1778 2.0169,-0.3556 3.0253 -0.5335c 0.2145,1.2165 0.4290,2.4329 0.6435 3.6493c 17.3326,-3.0562 34.6652,-6.1124 51.9978 -9.1686c -0.2145,-1.2164 -0.4290,-2.4329 -0.6435 -3.6493c 1.0084,-0.1778 2.0169,-0.3557 3.0253 -0.5335c -0.7657,-4.3426 -1.5314,-8.6852 -2.2972 -13.0278c -1.0084,0.1778 -2.0169,0.3556 -3.0253 0.5335c -1.0958,-6.2146 -2.1916,-12.4291 -3.2874 -18.6437c 1.0084,-0.1778 2.0169,-0.3556 3.0253 -0.5334c -0.7657,-4.3426 -1.5314,-8.6852 -2.2972 -13.0278c -1.0084,0.1778 -2.0169,0.3556 -3.0253 0.5334c -0.2145,-1.2164 -0.4290,-2.4329 -0.6435 -3.6493c -17.3326,3.0562 -34.6652,6.1125 -51.9978 9.1686c 0.2145,1.2165 0.4290,2.4329 0.6435 3.6493c -1.0084,0.1778 -2.0169,0.3556 -3.0253 0.5335ZM 150.1026,612.2840 c 0.7657,4.3426 1.5314,8.6852 2.2972 13.0278c 1.0084,-0.1778 2.0169,-0.3556 3.0253 -0.5334c 1.0958,6.2145 2.1916,12.4291 3.2874 18.6436c -1.0084,0.1778 -2.0169,0.3556 -3.0253 0.5335c 0.7657,4.3426 1.5314,8.6852 2.2971 13.0278c 1.0084,-0.1778 2.0169,-0.3557 3.0253 -0.5335c 0.2145,1.2164 0.4290,2.4329 0.6435 3.6493c 17.3326,-3.0562 34.6652,-6.1124 51.9978 -9.1686c -0.2145,-1.2164 -0.4290,-2.4329 -0.6435 -3.6493c 1.0084,-0.1778 2.0169,-0.3556 3.0253 -0.5334c -0.7657,-4.3426 -1.5314,-8.6852 -2.2971 -13.0278c -1.0084,0.1778 -2.0169,0.3556 -3.0253 0.5334c -1.0958,-6.2145 -2.1916,-12.4291 -3.2874 -18.6436c 1.0084,-0.1778 2.0169,-0.3556 3.0253 -0.5335c -0.7657,-4.3426 -1.5314,-8.6852 -2.2972 -13.0277c -1.0084,0.1778 -2.0169,0.3556 -3.0253 0.5334c -0.2145,-1.2164 -0.4290,-2.4329 -0.6435 -3.6493c -17.3326,3.0562 -34.6652,6.1124 -51.9978 9.1686c 0.2145,1.2164 0.4290,2.4329 0.6435 3.6493c -1.0084,0.1778 -2.0169,0.3556 -3.0253 0.5334ZM 159.8394,997.5930 c 0.0000,3.1311 2.5382,5.6693 5.6693 5.6693c 3.1311,-0.0000 5.6693,-2.5382 5.6693 -5.6693c 0.0000,-3.1310 -2.5382,-5.6693 -5.6693 -5.6693c -3.1310,-0.0000 -5.6693,2.5382 -5.6693 5.6693ZM 162.5725,683.0041 c 0.7657,4.3426 1.5314,8.6852 2.2972 13.0277c 1.0084,-0.1778 2.0169,-0.3556 3.0253 -0.5334c 1.0958,6.2145 2.1916,12.4291 3.2874 18.6436c -1.0084,0.1778 -2.0169,0.3556 -3.0253 0.5335c 0.7657,4.3426 1.5314,8.6852 2.2971 13.0278c 1.0084,-0.1778 2.0169,-0.3556 3.0253 -0.5335c 0.2145,1.2165 0.4290,2.4329 0.6435 3.6493c 17.3326,-3.0562 34.6652,-6.1124 51.9978 -9.1686c -0.2145,-1.2164 -0.4290,-2.4329 -0.6435 -3.6493c 1.0084,-0.1778 2.0169,-0.3556 3.0253 -0.5334c -0.7657,-4.3426 -1.5314,-8.6852 -2.2971 -13.0278c -1.0084,0.1778 -2.0169,0.3556 -3.0253 0.5335c -1.0958,-6.2146 -2.1916,-12.4291 -3.2874 -18.6437c 1.0084,-0.1778 2.0169,-0.3556 3.0253 -0.5334c -0.7657,-4.3426 -1.5314,-8.6852 -2.2972 -13.0278c -1.0084,0.1778 -2.0169,0.3556 -3.0253 0.5334c -0.2145,-1.2164 -0.4290,-2.4329 -0.6435 -3.6493c -17.3326,3.0562 -34.6652,6.1125 -51.9978 9.1686c 0.2145,1.2164 0.4290,2.4329 0.6435 3.6493c -1.0084,0.1778 -2.0169,0.3556 -3.0253 0.5335ZM 175.0424,753.7242 c 0.7657,4.3426 1.5314,8.6852 2.2972 13.0278c 1.0084,-0.1778 2.0169,-0.3556 3.0253 -0.5335c 1.0958,6.2146 2.1916,12.4291 3.2874 18.6437c -1.0084,0.1778 -2.0169,0.3556 -3.0253 0.5334c 0.7657,4.3426 1.5314,8.6852 2.2971 13.0278c 1.0084,-0.1778 2.0169,-0.3556 3.0253 -0.5335c 0.2145,1.2165 0.4290,2.4329 0.6435 3.6493c 17.3326,-3.0562 34.6652,-6.1124 51.9978 -9.1686c -0.2145,-1.2165 -0.4290,-2.4329 -0.6435 -3.6493c 1.0084,-0.1778 2.0169,-0.3556 3.0253 -0.5335c -0.7657,-4.3426 -1.5314,-8.6852 -2.2972 -13.0278c -1.0084,0.1778 -2.0168,0.3556 -3.0253 0.5335c -1.0958,-6.2146 -2.1916,-12.4291 -3.2874 -18.6437c 1.0084,-0.1778 2.0169,-0.3556 3.0253 -0.5334c -0.7657,-4.3426 -1.5314,-8.6852 -2.2972 -13.0278c -1.0084,0.1778 -2.0169,0.3556 -3.0253 0.5334c -0.2145,-1.2164 -0.4290,-2.4329 -0.6435 -3.6493c -17.3326,3.0562 -34.6652,6.1124 -51.9978 9.1686c 0.2145,1.2165 0.4290,2.4329 0.6435 3.6493c -1.0084,0.1778 -2.0169,0.3556 -3.0253 0.5335ZM 187.5122,824.4442 c 0.7657,4.3426 1.5314,8.6852 2.2972 13.0278c 1.0084,-0.1778 2.0169,-0.3556 3.0253 -0.5335c 1.0958,6.2146 2.1916,12.4291 3.2874 18.6437c -1.0084,0.1778 -2.0169,0.3556 -3.0253 0.5334c 0.7657,4.3426 1.5314,8.6852 2.2971 13.0278c 1.0084,-0.1778 2.0169,-0.3556 3.0253 -0.5334c 0.2145,1.2164 0.4290,2.4329 0.6435 3.6493c 17.3326,-3.0562 34.6652,-6.1125 51.9978 -9.1686c -0.2145,-1.2164 -0.4290,-2.4329 -0.6435 -3.6493c 1.0084,-0.1778 2.0169,-0.3556 3.0253 -0.5335c -0.7657,-4.3426 -1.5314,-8.6852 -2.2972 -13.0277c -1.0084,0.1778 -2.0169,0.3556 -3.0253 0.5334c -1.0958,-6.2145 -2.1916,-12.4291 -3.2874 -18.6437c 1.0084,-0.1778 2.0169,-0.3556 3.0253 -0.5334c -0.7657,-4.3426 -1.5314,-8.6852 -2.2972 -13.0278c -1.0084,0.1778 -2.0169,0.3556 -3.0253 0.5335c -0.2145,-1.2165 -0.4290,-2.4329 -0.6435 -3.6493c -17.3326,3.0562 -34.6652,6.1124 -51.9978 9.1686c 0.2145,1.2164 0.4290,2.4329 0.6435 3.6493c -1.0084,0.1778 -2.0169,0.3556 -3.0253 0.5334ZM 199.9821,895.1643 c 0.7657,4.3426 1.5314,8.6852 2.2972 13.0278c 1.0084,-0.1778 2.0169,-0.3556 3.0253 -0.5334c 1.0958,6.2145 2.1916,12.4291 3.2873 18.6436c -1.0084,0.1778 -2.0169,0.3556 -3.0253 0.5335c 0.7657,4.3426 1.5314,8.6852 2.2971 13.0277c 1.0084,-0.1778 2.0169,-0.3556 3.0253 -0.5334c 0.2145,1.2164 0.4290,2.4329 0.6435 3.6493c 17.3326,-3.0562 34.6652,-6.1124 51.9978 -9.1686c -0.2145,-1.2164 -0.4290,-2.4329 -0.6435 -3.6493c 1.0084,-0.1778 2.0169,-0.3556 3.0253 -0.5334c -0.7657,-4.3426 -1.5314,-8.6852 -2.2972 -13.0278c -1.0084,0.1778 -2.0169,0.3556 -3.0253 0.5334c -1.0957,-6.2145 -2.1915,-12.4291 -3.2873 -18.6436c 1.0084,-0.1778 2.0169,-0.3556 3.0253 -0.5335c -0.7657,-4.3426 -1.5314,-8.6852 -2.2972 -13.0278c -1.0084,0.1778 -2.0169,0.3556 -3.0253 0.5335c -0.2145,-1.2164 -0.4290,-2.4329 -0.6435 -3.6493c -17.3326,3.0562 -34.6652,6.1124 -51.9978 9.1686c 0.2145,1.2164 0.4290,2.4329 0.6435 3.6493c -1.0084,0.1778 -2.0169,0.3556 -3.0253 0.5334ZM 216.8849,577.4815 c 0.7657,4.3426 1.5314,8.6852 2.2972 13.0278c 1.0084,-0.1778 2.0169,-0.3556 3.0253 -0.5334c 1.0958,6.2145 2.1915,12.4291 3.2873 18.6436c -1.0084,0.1778 -2.0169,0.3556 -3.0253 0.5335c 0.7657,4.3426 1.5315,8.6852 2.2972 13.0277c 1.0084,-0.1778 2.0169,-0.3556 3.0253 -0.5334c 0.2145,1.2164 0.4290,2.4329 0.6435 3.6493c 17.3326,-3.0562 34.6652,-6.1124 51.9978 -9.1686c -0.2145,-1.2164 -0.4290,-2.4329 -0.6435 -3.6493c 1.0084,-0.1778 2.0169,-0.3556 3.0253 -0.5334c -0.7657,-4.3426 -1.5314,-8.6852 -2.2972 -13.0278c -1.0084,0.1778 -2.0169,0.3556 -3.0253 0.5334c -1.0958,-6.2145 -2.1915,-12.4291 -3.2873 -18.6436c 1.0084,-0.1778 2.0169,-0.3556 3.0253 -0.5335c -0.7657,-4.3426 -1.5315,-8.6852 -2.2972 -13.0278c -1.0084,0.1778 -2.0169,0.3556 -3.0253 0.5335c -0.2145,-1.2164 -0.4290,-2.4329 -0.6435 -3.6493c -17.3326,3.0562 -34.6652,6.1124 -51.9978 9.1686c 0.2145,1.2164 0.4290,2.4329 0.6435 3.6493c -1.0084,0.1778 -2.0169,0.3556 -3.0253 0.5334ZM 229.3547,648.2016 c 0.7657,4.3426 1.5314,8.6852 2.2972 13.0278c 1.0084,-0.1778 2.0169,-0.3556 3.0253 -0.5334c 1.0958,6.2145 2.1915,12.4291 3.2873 18.6436c -1.0084,0.1778 -2.0169,0.3556 -3.0253 0.5335c 0.7657,4.3426 1.5315,8.6852 2.2972 13.0278c 1.0084,-0.1778 2.0169,-0.3556 3.0253 -0.5335c 0.2145,1.2164 0.4290,2.4329 0.6435 3.6493c 17.3326,-3.0562 34.6652,-6.1124 51.9978 -9.1686c -0.2145,-1.2164 -0.4290,-2.4329 -0.6435 -3.6493c 1.0084,-0.1778 2.0169,-0.3556 3.0253 -0.5334c -0.7657,-4.3426 -1.5314,-8.6852 -2.2972 -13.0278c -1.0084,0.1778 -2.0169,0.3556 -3.0253 0.5334c -1.0958,-6.2145 -2.1915,-12.4291 -3.2873 -18.6436c 1.0084,-0.1778 2.0169,-0.3556 3.0253 -0.5335c -0.7657,-4.3426 -1.5314,-8.6852 -2.2971 -13.0277c -1.0084,0.1778 -2.0169,0.3556 -3.0253 0.5334c -0.2145,-1.2164 -0.4290,-2.4329 -0.6435 -3.6493c -17.3326,3.0562 -34.6652,6.1124 -51.9978 9.1686c 0.2145,1.2164 0.4290,2.4329 0.6435 3.6493c -1.0084,0.1778 -2.0169,0.3556 -3.0253 0.5334ZM 241.8246,718.9217 c 0.7657,4.3426 1.5314,8.6852 2.2972 13.0278c 1.0084,-0.1778 2.0169,-0.3556 3.0253 -0.5335c 1.0958,6.2146 2.1916,12.4291 3.2874 18.6436c -1.0084,0.1778 -2.0169,0.3557 -3.0253 0.5335c 0.7657,4.3426 1.5315,8.6852 2.2972 13.0278c 1.0084,-0.1778 2.0169,-0.3556 3.0253 -0.5335c 0.2145,1.2165 0.4290,2.4329 0.6435 3.6493c 17.3326,-3.0562 34.6652,-6.1124 51.9978 -9.1686c -0.2145,-1.2164 -0.4290,-2.4329 -0.6435 -3.6493c 1.0084,-0.1778 2.0169,-0.3557 3.0253 -0.5335c -0.7657,-4.3426 -1.5314,-8.6852 -2.2972 -13.0278c -1.0084,0.1778 -2.0169,0.3556 -3.0253 0.5335c -1.0958,-6.2146 -2.1916,-12.4291 -3.2874 -18.6437c 1.0084,-0.1778 2.0169,-0.3556 3.0253 -0.5334c -0.7657,-4.3426 -1.5314,-8.6852 -2.2971 -13.0278c -1.0084,0.1778 -2.0169,0.3556 -3.0253 0.5334c -0.2145,-1.2164 -0.4290,-2.4329 -0.6435 -3.6493c -17.3326,3.0562 -34.6652,6.1125 -51.9978 9.1686c 0.2145,1.2165 0.4290,2.4329 0.6435 3.6493c -1.0084,0.1778 -2.0169,0.3556 -3.0253 0.5335ZM 254.2944,789.6417 c 0.7657,4.3426 1.5314,8.6852 2.2972 13.0278c 1.0084,-0.1778 2.0168,-0.3556 3.0253 -0.5335c 1.0958,6.2146 2.1916,12.4291 3.2874 18.6437c -1.0084,0.1778 -2.0169,0.3556 -3.0253 0.5334c 0.7657,4.3426 1.5314,8.6852 2.2972 13.0278c 1.0084,-0.1778 2.0169,-0.3556 3.0253 -0.5334c 0.2145,1.2164 0.4290,2.4329 0.6435 3.6493c 17.3326,-3.0562 34.6652,-6.1124 51.9978 -9.1686c -0.2145,-1.2165 -0.4290,-2.4329 -0.6435 -3.6493c 1.0084,-0.1778 2.0169,-0.3556 3.0253 -0.5335c -0.7657,-4.3426 -1.5314,-8.6852 -2.2972 -13.0278c -1.0084,0.1778 -2.0169,0.3556 -3.0253 0.5335c -1.0958,-6.2146 -2.1916,-12.4291 -3.2874 -18.6437c 1.0084,-0.1778 2.0169,-0.3556 3.0253 -0.5334c -0.7657,-4.3426 -1.5314,-8.6852 -2.2971 -13.0278c -1.0084,0.1778 -2.0169,0.3556 -3.0253 0.5335c -0.2145,-1.2165 -0.4290,-2.4329 -0.6435 -3.6493c -17.3326,3.0562 -34.6652,6.1124 -51.9978 9.1686c 0.2145,1.2165 0.4290,2.4329 0.6435 3.6493c -1.0084,0.1778 -2.0169,0.3556 -3.0253 0.5335ZM 266.7643,860.3618 c 0.7657,4.3426 1.5314,8.6852 2.2971 13.0278c 1.0084,-0.1778 2.0169,-0.3556 3.0253 -0.5335c 1.0958,6.2146 2.1916,12.4291 3.2874 18.6437c -1.0084,0.1778 -2.0169,0.3556 -3.0253 0.5334c 0.7657,4.3426 1.5314,8.6852 2.2972 13.0278c 1.0084,-0.1778 2.0169,-0.3556 3.0253 -0.5334c 0.2145,1.2164 0.4290,2.4329 0.6435 3.6493c 17.3326,-3.0562 34.6652,-6.1124 51.9978 -9.1686c -0.2145,-1.2164 -0.4290,-2.4329 -0.6435 -3.6493c 1.0084,-0.1778 2.0169,-0.3556 3.0253 -0.5335c -0.7657,-4.3426 -1.5314,-8.6852 -2.2972 -13.0277c -1.0084,0.1778 -2.0169,0.3556 -3.0253 0.5334c -1.0958,-6.2145 -2.1916,-12.4291 -3.2874 -18.6436c 1.0084,-0.1778 2.0169,-0.3556 3.0253 -0.5335c -0.7657,-4.3426 -1.5314,-8.6852 -2.2971 -13.0278c -1.0084,0.1778 -2.0169,0.3556 -3.0253 0.5335c -0.2145,-1.2164 -0.4290,-2.4329 -0.6435 -3.6493c -17.3326,3.0562 -34.6652,6.1124 -51.9978 9.1686c 0.2145,1.2164 0.4290,2.4329 0.6435 3.6493c -1.0084,0.1778 -2.0169,0.3556 -3.0253 0.5334ZM 290.8864,583.6223 c 0.7657,4.3426 1.5315,8.6852 2.2972 13.0278c 1.0084,-0.1778 2.0169,-0.3556 3.0253 -0.5335c 1.0958,6.2146 2.1916,12.4291 3.2874 18.6437c -1.0084,0.1778 -2.0169,0.3556 -3.0253 0.5334c 0.7657,4.3426 1.5314,8.6852 2.2972 13.0278c 1.0084,-0.1778 2.0169,-0.3556 3.0253 -0.5335c 0.2145,1.2165 0.4290,2.4329 0.6435 3.6493c 17.3326,-3.0562 34.6652,-6.1124 51.9978 -9.1686c -0.2145,-1.2164 -0.4290,-2.4329 -0.6435 -3.6493c 1.0084,-0.1778 2.0169,-0.3556 3.0253 -0.5335c -0.7657,-4.3426 -1.5315,-8.6852 -2.2972 -13.0278c -1.0084,0.1778 -2.0169,0.3556 -3.0253 0.5335c -1.0958,-6.2146 -2.1916,-12.4291 -3.2874 -18.6437c 1.0084,-0.1778 2.0169,-0.3556 3.0253 -0.5334c -0.7657,-4.3426 -1.5314,-8.6852 -2.2972 -13.0278c -1.0084,0.1778 -2.0169,0.3556 -3.0253 0.5334c -0.2145,-1.2164 -0.4290,-2.4329 -0.6435 -3.6493c -17.3326,3.0562 -34.6652,6.1125 -51.9978 9.1686c 0.2145,1.2165 0.4290,2.4329 0.6435 3.6493c -1.0084,0.1778 -2.0169,0.3556 -3.0253 0.5335ZM 303.3563,654.3423 c 0.7657,4.3426 1.5315,8.6852 2.2972 13.0278c 1.0084,-0.1778 2.0169,-0.3556 3.0253 -0.5335c 1.0958,6.2146 2.1916,12.4291 3.2874 18.6437c -1.0084,0.1778 -2.0169,0.3556 -3.0253 0.5334c 0.7657,4.3426 1.5314,8.6852 2.2972 13.0278c 1.0084,-0.1778 2.0169,-0.3556 3.0253 -0.5334c 0.2145,1.2164 0.4290,2.4329 0.6435 3.6493c 17.3326,-3.0562 34.6652,-6.1125 51.9978 -9.1686c -0.2145,-1.2165 -0.4290,-2.4329 -0.6435 -3.6493c 1.0084,-0.1778 2.0169,-0.3556 3.0253 -0.5335c -0.7657,-4.3426 -1.5314,-8.6852 -2.2971 -13.0277c -1.0084,0.1778 -2.0169,0.3556 -3.0253 0.5334c -1.0958,-6.2146 -2.1916,-12.4291 -3.2874 -18.6437c 1.0084,-0.1778 2.0169,-0.3556 3.0253 -0.5334c -0.7657,-4.3426 -1.5314,-8.6852 -2.2972 -13.0278c -1.0084,0.1778 -2.0169,0.3556 -3.0253 0.5335c -0.2145,-1.2165 -0.4290,-2.4329 -0.6435 -3.6493c -17.3326,3.0562 -34.6652,6.1124 -51.9978 9.1686c 0.2145,1.2164 0.4290,2.4329 0.6435 3.6493c -1.0084,0.1778 -2.0169,0.3557 -3.0253 0.5335ZM 315.8261,725.0623 c 0.7657,4.3426 1.5315,8.6852 2.2972 13.0278c 1.0084,-0.1778 2.0169,-0.3556 3.0253 -0.5334c 1.0958,6.2145 2.1916,12.4291 3.2874 18.6436c -1.0084,0.1778 -2.0169,0.3556 -3.0253 0.5335c 0.7657,4.3426 1.5314,8.6852 2.2972 13.0277c 1.0084,-0.1778 2.0169,-0.3556 3.0253 -0.5334c 0.2145,1.2164 0.4290,2.4329 0.6435 3.6493c 17.3326,-3.0562 34.6652,-6.1124 51.9978 -9.1686c -0.2145,-1.2164 -0.4290,-2.4329 -0.6435 -3.6493c 1.0084,-0.1778 2.0169,-0.3556 3.0253 -0.5334c -0.7657,-4.3426 -1.5314,-8.6852 -2.2971 -13.0278c -1.0084,0.1778 -2.0169,0.3556 -3.0253 0.5334c -1.0958,-6.2145 -2.1916,-12.4291 -3.2874 -18.6436c 1.0084,-0.1778 2.0169,-0.3556 3.0253 -0.5335c -0.7657,-4.3426 -1.5314,-8.6852 -2.2972 -13.0278c -1.0084,0.1778 -2.0169,0.3556 -3.0253 0.5335c -0.2145,-1.2164 -0.4290,-2.4329 -0.6435 -3.6493c -17.3326,3.0562 -34.6652,6.1124 -51.9978 9.1686c 0.2145,1.2164 0.4290,2.4329 0.6435 3.6493c -1.0084,0.1778 -2.0169,0.3556 -3.0253 0.5334ZM 328.2960,795.7824 c 0.7657,4.3426 1.5314,8.6852 2.2972 13.0278c 1.0084,-0.1778 2.0169,-0.3556 3.0253 -0.5334c 1.0958,6.2145 2.1916,12.4291 3.2874 18.6436c -1.0084,0.1778 -2.0169,0.3556 -3.0253 0.5335c 0.7657,4.3426 1.5314,8.6852 2.2972 13.0278c 1.0084,-0.1778 2.0168,-0.3556 3.0253 -0.5335c 0.2145,1.2164 0.4290,2.4329 0.6435 3.6493c 17.3326,-3.0562 34.6652,-6.1124 51.9978 -9.1686c -0.2145,-1.2164 -0.4290,-2.4329 -0.6435 -3.6493c 1.0084,-0.1778 2.0169,-0.3556 3.0253 -0.5334c -0.7657,-4.3426 -1.5314,-8.6852 -2.2971 -13.0278c -1.0084,0.1778 -2.0169,0.3556 -3.0253 0.5334c -1.0958,-6.2145 -2.1916,-12.4291 -3.2874 -18.6436c 1.0084,-0.1778 2.0169,-0.3556 3.0253 -0.5335c -0.7657,-4.3426 -1.5314,-8.6852 -2.2972 -13.0277c -1.0084,0.1778 -2.0169,0.3556 -3.0253 0.5334c -0.2145,-1.2164 -0.4290,-2.4329 -0.6435 -3.6493c -17.3326,3.0562 -34.6652,6.1124 -51.9978 9.1686c 0.2145,1.2164 0.4290,2.4329 0.6435 3.6493c -1.0084,0.1778 -2.0169,0.3556 -3.0253 0.5334ZM 340.7659,866.5025 c 0.7657,4.3426 1.5314,8.6852 2.2972 13.0277c 1.0084,-0.1778 2.0169,-0.3556 3.0253 -0.5334c 1.0958,6.2146 2.1916,12.4291 3.2874 18.6437c -1.0084,0.1778 -2.0169,0.3556 -3.0253 0.5334c 0.7657,4.3426 1.5314,8.6852 2.2971 13.0278c 1.0084,-0.1778 2.0169,-0.3556 3.0253 -0.5335c 0.2145,1.2165 0.4290,2.4329 0.6435 3.6493c 17.3326,-3.0562 34.6652,-6.1124 51.9978 -9.1686c -0.2145,-1.2164 -0.4290,-2.4329 -0.6435 -3.6493c 1.0084,-0.1778 2.0169,-0.3557 3.0253 -0.5335c -0.7657,-4.3426 -1.5314,-8.6852 -2.2971 -13.0278c -1.0084,0.1778 -2.0169,0.3556 -3.0253 0.5335c -1.0958,-6.2146 -2.1916,-12.4291 -3.2874 -18.6437c 1.0084,-0.1778 2.0169,-0.3556 3.0253 -0.5334c -0.7657,-4.3426 -1.5314,-8.6852 -2.2972 -13.0278c -1.0084,0.1778 -2.0169,0.3556 -3.0253 0.5334c -0.2145,-1.2164 -0.4290,-2.4329 -0.6435 -3.6493c -17.3326,3.0562 -34.6652,6.1125 -51.9978 9.1686c 0.2145,1.2165 0.4290,2.4329 0.6435 3.6493c -1.0084,0.1778 -2.0169,0.3556 -3.0253 0.5335ZM 363.5755,582.3187 c 0.7657,4.3426 1.5314,8.6852 2.2971 13.0278c 1.0084,-0.1778 2.0169,-0.3556 3.0253 -0.5335c 1.0958,6.2146 2.1916,12.4291 3.2874 18.6437c -1.0084,0.1778 -2.0169,0.3556 -3.0253 0.5334c 0.7657,4.3426 1.5314,8.6852 2.2972 13.0278c 1.0084,-0.1778 2.0169,-0.3556 3.0253 -0.5334c 0.2145,1.2164 0.4290,2.4329 0.6435 3.6493c 17.3326,-3.0562 34.6652,-6.1124 51.9978 -9.1686c -0.2145,-1.2165 -0.4290,-2.4329 -0.6435 -3.6493c 1.0084,-0.1778 2.0169,-0.3556 3.0253 -0.5335c -0.7657,-4.3426 -1.5315,-8.6852 -2.2972 -13.0278c -1.0084,0.1778 -2.0169,0.3556 -3.0253 0.5335c -1.0958,-6.2146 -2.1916,-12.4291 -3.2874 -18.6437c 1.0084,-0.1778 2.0169,-0.3556 3.0253 -0.5334c -0.7657,-4.3426 -1.5314,-8.6852 -2.2972 -13.0278c -1.0084,0.1778 -2.0169,0.3556 -3.0253 0.5335c -0.2145,-1.2165 -0.4290,-2.4329 -0.6435 -3.6493c -17.3326,3.0562 -34.6652,6.1124 -51.9978 9.1686c 0.2145,1.2165 0.4290,2.4329 0.6435 3.6493c -1.0084,0.1778 -2.0169,0.3556 -3.0253 0.5335ZM 376.0453,653.0388 c 0.7657,4.3426 1.5315,8.6852 2.2972 13.0278c 1.0084,-0.1778 2.0169,-0.3556 3.0253 -0.5335c 1.0958,6.2146 2.1916,12.4291 3.2874 18.6437c -1.0084,0.1778 -2.0169,0.3556 -3.0253 0.5334c 0.7657,4.3426 1.5314,8.6852 2.2972 13.0278c 1.0084,-0.1778 2.0169,-0.3556 3.0253 -0.5334c 0.2145,1.2164 0.4290,2.4329 0.6435 3.6493c 17.3326,-3.0562 34.6652,-6.1124 51.9978 -9.1686c -0.2145,-1.2164 -0.4290,-2.4329 -0.6435 -3.6493c 1.0084,-0.1778 2.0169,-0.3556 3.0253 -0.5335c -0.7657,-4.3426 -1.5315,-8.6852 -2.2972 -13.0277c -1.0084,0.1778 -2.0169,0.3556 -3.0253 0.5334c -1.0958,-6.2145 -2.1916,-12.4291 -3.2874 -18.6436c 1.0084,-0.1778 2.0169,-0.3556 3.0253 -0.5335c -0.7657,-4.3426 -1.5314,-8.6852 -2.2972 -13.0278c -1.0084,0.1778 -2.0169,0.3556 -3.0253 0.5335c -0.2145,-1.2164 -0.4290,-2.4329 -0.6435 -3.6493c -17.3326,3.0562 -34.6652,6.1124 -51.9978 9.1686c 0.2145,1.2164 0.4290,2.4329 0.6435 3.6493c -1.0084,0.1778 -2.0169,0.3556 -3.0253 0.5334ZM 388.5151,723.7588 c 0.7657,4.3426 1.5315,8.6852 2.2972 13.0278c 1.0084,-0.1778 2.0169,-0.3556 3.0253 -0.5334c 1.0958,6.2145 2.1916,12.4291 3.2874 18.6436c -1.0084,0.1778 -2.0169,0.3556 -3.0253 0.5335c 0.7657,4.3426 1.5314,8.6852 2.2972 13.0277c 1.0084,-0.1778 2.0169,-0.3556 3.0253 -0.5334c 0.2145,1.2164 0.4290,2.4329 0.6435 3.6493c 17.3326,-3.0562 34.6652,-6.1124 51.9978 -9.1686c -0.2145,-1.2164 -0.4290,-2.4329 -0.6435 -3.6493c 1.0084,-0.1778 2.0169,-0.3556 3.0253 -0.5334c -0.7657,-4.3426 -1.5314,-8.6852 -2.2971 -13.0278c -1.0084,0.1778 -2.0169,0.3556 -3.0253 0.5334c -1.0958,-6.2145 -2.1916,-12.4291 -3.2874 -18.6436c 1.0084,-0.1778 2.0169,-0.3556 3.0253 -0.5335c -0.7657,-4.3426 -1.5314,-8.6852 -2.2972 -13.0277c -1.0084,0.1778 -2.0169,0.3556 -3.0253 0.5334c -0.2145,-1.2164 -0.4290,-2.4329 -0.6435 -3.6493c -17.3326,3.0562 -34.6652,6.1124 -51.9978 9.1686c 0.2145,1.2164 0.4290,2.4329 0.6435 3.6493c -1.0084,0.1778 -2.0169,0.3556 -3.0253 0.5334ZM 400.9850,794.4789 c 0.7657,4.3426 1.5314,8.6852 2.2972 13.0277c 1.0084,-0.1778 2.0169,-0.3556 3.0253 -0.5334c 1.0958,6.2145 2.1916,12.4291 3.2874 18.6436c -1.0084,0.1778 -2.0169,0.3556 -3.0253 0.5335c 0.7657,4.3426 1.5314,8.6852 2.2972 13.0278c 1.0084,-0.1778 2.0169,-0.3556 3.0253 -0.5335c 0.2145,1.2165 0.4290,2.4329 0.6435 3.6493c 17.3326,-3.0562 34.6652,-6.1124 51.9978 -9.1686c -0.2145,-1.2164 -0.4290,-2.4329 -0.6435 -3.6493c 1.0084,-0.1778 2.0169,-0.3556 3.0253 -0.5334c -0.7657,-4.3426 -1.5314,-8.6852 -2.2971 -13.0278c -1.0084,0.1778 -2.0169,0.3556 -3.0253 0.5335c -1.0958,-6.2146 -2.1916,-12.4291 -3.2874 -18.6437c 1.0084,-0.1778 2.0169,-0.3556 3.0253 -0.5334c -0.7657,-4.3426 -1.5314,-8.6852 -2.2972 -13.0278c -1.0084,0.1778 -2.0169,0.3556 -3.0253 0.5334c -0.2145,-1.2164 -0.4290,-2.4329 -0.6435 -3.6493c -17.3326,3.0562 -34.6652,6.1125 -51.9978 9.1686c 0.2145,1.2164 0.4290,2.4329 0.6435 3.6493c -1.0084,0.1778 -2.0169,0.3556 -3.0253 0.5335ZM 413.4548,865.1989 c 0.7657,4.3426 1.5314,8.6852 2.2972 13.0278c 1.0084,-0.1778 2.0169,-0.3556 3.0253 -0.5335c 1.0958,6.2146 2.1916,12.4291 3.2874 18.6437c -1.0084,0.1778 -2.0169,0.3556 -3.0253 0.5334c 0.7657,4.3426 1.5314,8.6852 2.2971 13.0278c 1.0084,-0.1778 2.0169,-0.3556 3.0253 -0.5335c 0.2145,1.2165 0.4290,2.4329 0.6435 3.6493c 17.3326,-3.0562 34.6652,-6.1124 51.9978 -9.1686c -0.2145,-1.2165 -0.4290,-2.4329 -0.6435 -3.6493c 1.0084,-0.1778 2.0169,-0.3556 3.0253 -0.5335c -0.7657,-4.3426 -1.5314,-8.6852 -2.2971 -13.0278c -1.0084,0.1778 -2.0169,0.3556 -3.0253 0.5335c -1.0958,-6.2146 -2.1916,-12.4291 -3.2874 -18.6437c 1.0084,-0.1778 2.0169,-0.3556 3.0253 -0.5334c -0.7657,-4.3426 -1.5314,-8.6852 -2.2972 -13.0278c -1.0084,0.1778 -2.0169,0.3556 -3.0253 0.5335c -0.2145,-1.2165 -0.4290,-2.4329 -0.6435 -3.6493c -17.3326,3.0562 -34.6652,6.1124 -51.9978 9.1686c 0.2145,1.2165 0.4290,2.4329 0.6435 3.6493c -1.0084,0.1778 -2.0169,0.3556 -3.0253 0.5335ZM 434.9518,573.5710 c 0.7657,4.3426 1.5314,8.6852 2.2972 13.0277c 1.0084,-0.1778 2.0169,-0.3556 3.0253 -0.5334c 1.0958,6.2145 2.1915,12.4291 3.2873 18.6437c -1.0084,0.1778 -2.0169,0.3556 -3.0253 0.5334c 0.7657,4.3426 1.5315,8.6852 2.2972 13.0278c 1.0084,-0.1778 2.0169,-0.3556 3.0253 -0.5335c 0.2145,1.2165 0.4290,2.4329 0.6435 3.6493c 17.3326,-3.0562 34.6652,-6.1124 51.9978 -9.1686c -0.2145,-1.2164 -0.4290,-2.4329 -0.6435 -3.6493c 1.0084,-0.1778 2.0169,-0.3556 3.0253 -0.5334c -0.7657,-4.3426 -1.5314,-8.6852 -2.2972 -13.0278c -1.0084,0.1778 -2.0169,0.3556 -3.0253 0.5335c -1.0958,-6.2146 -2.1915,-12.4291 -3.2873 -18.6437c 1.0084,-0.1778 2.0169,-0.3556 3.0253 -0.5334c -0.7657,-4.3426 -1.5315,-8.6852 -2.2972 -13.0278c -1.0084,0.1778 -2.0169,0.3556 -3.0253 0.5334c -0.2145,-1.2164 -0.4290,-2.4329 -0.6435 -3.6493c -17.3326,3.0562 -34.6652,6.1125 -51.9978 9.1686c 0.2145,1.2165 0.4290,2.4329 0.6435 3.6493c -1.0084,0.1778 -2.0169,0.3556 -3.0253 0.5335ZM 447.4216,644.2910 c 0.7657,4.3426 1.5314,8.6852 2.2972 13.0278c 1.0084,-0.1778 2.0169,-0.3556 3.0253 -0.5335c 1.0958,6.2146 2.1915,12.4291 3.2873 18.6437c -1.0084,0.1778 -2.0169,0.3556 -3.0253 0.5334c 0.7657,4.3426 1.5315,8.6852 2.2972 13.0278c 1.0084,-0.1778 2.0169,-0.3556 3.0253 -0.5334c 0.2145,1.2164 0.4290,2.4329 0.6435 3.6493c 17.3326,-3.0562 34.6652,-6.1124 51.9978 -9.1686c -0.2145,-1.2165 -0.4290,-2.4329 -0.6435 -3.6493c 1.0084,-0.1778 2.0169,-0.3556 3.0253 -0.5335c -0.7657,-4.3426 -1.5314,-8.6852 -2.2972 -13.0278c -1.0084,0.1778 -2.0169,0.3556 -3.0253 0.5335c -1.0958,-6.2146 -2.1915,-12.4291 -3.2873 -18.6437c 1.0084,-0.1778 2.0169,-0.3556 3.0253 -0.5334c -0.7657,-4.3426 -1.5315,-8.6852 -2.2972 -13.0278c -1.0084,0.1778 -2.0169,0.3556 -3.0253 0.5335c -0.2145,-1.2165 -0.4290,-2.4329 -0.6435 -3.6493c -17.3326,3.0562 -34.6652,6.1124 -51.9978 9.1686c 0.2145,1.2165 0.4290,2.4329 0.6435 3.6493c -1.0084,0.1778 -2.0169,0.3556 -3.0253 0.5335ZM 459.8915,715.0111 c 0.7657,4.3426 1.5314,8.6852 2.2972 13.0278c 1.0084,-0.1778 2.0169,-0.3556 3.0253 -0.5335c 1.0957,6.2146 2.1915,12.4291 3.2873 18.6437c -1.0084,0.1778 -2.0169,0.3556 -3.0253 0.5334c 0.7657,4.3426 1.5315,8.6852 2.2972 13.0278c 1.0084,-0.1778 2.0169,-0.3556 3.0253 -0.5334c 0.2145,1.2164 0.4290,2.4329 0.6435 3.6493c 17.3326,-3.0562 34.6652,-6.1125 51.9978 -9.1686c -0.2145,-1.2164 -0.4290,-2.4329 -0.6435 -3.6493c 1.0084,-0.1778 2.0169,-0.3556 3.0253 -0.5335c -0.7657,-4.3426 -1.5314,-8.6852 -2.2972 -13.0277c -1.0084,0.1778 -2.0169,0.3556 -3.0253 0.5334c -1.0958,-6.2145 -2.1916,-12.4291 -3.2873 -18.6436c 1.0084,-0.1778 2.0169,-0.3556 3.0253 -0.5335c -0.7657,-4.3426 -1.5314,-8.6852 -2.2971 -13.0278c -1.0084,0.1778 -2.0169,0.3556 -3.0253 0.5335c -0.2145,-1.2164 -0.4290,-2.4329 -0.6435 -3.6493c -17.3326,3.0562 -34.6652,6.1124 -51.9978 9.1686c 0.2145,1.2164 0.4290,2.4329 0.6435 3.6493c -1.0084,0.1778 -2.0169,0.3556 -3.0253 0.5334ZM 472.3614,785.7311 c 0.7657,4.3426 1.5314,8.6852 2.2972 13.0278c 1.0084,-0.1778 2.0169,-0.3556 3.0253 -0.5334c 1.0957,6.2145 2.1915,12.4291 3.2873 18.6436c -1.0084,0.1778 -2.0169,0.3556 -3.0253 0.5335c 0.7657,4.3426 1.5314,8.6852 2.2972 13.0278c 1.0084,-0.1778 2.0169,-0.3557 3.0253 -0.5335c 0.2145,1.2164 0.4290,2.4329 0.6435 3.6493c 17.3326,-3.0562 34.6652,-6.1124 51.9978 -9.1686c -0.2145,-1.2164 -0.4290,-2.4329 -0.6435 -3.6493c 1.0084,-0.1778 2.0169,-0.3556 3.0253 -0.5334c -0.7657,-4.3426 -1.5314,-8.6852 -2.2972 -13.0278c -1.0084,0.1778 -2.0169,0.3556 -3.0253 0.5334c -1.0958,-6.2145 -2.1916,-12.4291 -3.2873 -18.6436c 1.0084,-0.1778 2.0168,-0.3556 3.0253 -0.5335c -0.7657,-4.3426 -1.5314,-8.6852 -2.2971 -13.0277c -1.0084,0.1778 -2.0169,0.3556 -3.0253 0.5334c -0.2145,-1.2164 -0.4290,-2.4329 -0.6435 -3.6493c -17.3326,3.0562 -34.6652,6.1124 -51.9978 9.1686c 0.2145,1.2164 0.4290,2.4329 0.6435 3.6493c -1.0084,0.1778 -2.0169,0.3556 -3.0253 0.5334ZM 484.8312,856.4512 c 0.7657,4.3426 1.5314,8.6852 2.2971 13.0277c 1.0084,-0.1778 2.0169,-0.3556 3.0253 -0.5334c 1.0958,6.2145 2.1916,12.4291 3.2874 18.6436c -1.0084,0.1778 -2.0169,0.3556 -3.0253 0.5335c 0.7657,4.3426 1.5314,8.6852 2.2972 13.0278c 1.0084,-0.1778 2.0169,-0.3556 3.0253 -0.5335c 0.2145,1.2165 0.4290,2.4329 0.6435 3.6493c 17.3326,-3.0562 34.6652,-6.1124 51.9978 -9.1686c -0.2145,-1.2164 -0.4290,-2.4329 -0.6435 -3.6493c 1.0084,-0.1778 2.0169,-0.3556 3.0253 -0.5334c -0.7657,-4.3426 -1.5314,-8.6852 -2.2972 -13.0278c -1.0084,0.1778 -2.0169,0.3556 -3.0253 0.5335c -1.0958,-6.2146 -2.1916,-12.4291 -3.2874 -18.6437c 1.0084,-0.1778 2.0169,-0.3556 3.0253 -0.5334c -0.7657,-4.3426 -1.5314,-8.6852 -2.2971 -13.0278c -1.0084,0.1778 -2.0169,0.3556 -3.0253 0.5334c -0.2145,-1.2164 -0.4290,-2.4329 -0.6435 -3.6493c -17.3326,3.0562 -34.6652,6.1125 -51.9978 9.1686c 0.2145,1.2164 0.4290,2.4329 0.6435 3.6493c -1.0084,0.1778 -2.0169,0.3556 -3.0253 0.5335ZM 508.3547,540.4658 c 0.0000,3.1311 2.5382,5.6693 5.6693 5.6693c 3.1310,-0.0000 5.6693,-2.5382 5.6693 -5.6693c 0.0000,-3.1310 -2.5382,-5.6693 -5.6693 -5.6693c -3.1310,-0.0000 -5.6693,2.5382 -5.6693 5.6693ZM 573.6314,903.1093 c 0.0000,3.1311 2.5382,5.6693 5.6693 5.6693c 3.1310,-0.0000 5.6693,-2.5382 5.6693 -5.6693c 0.0000,-3.1310 -2.5382,-5.6693 -5.6693 -5.6693c -3.1311,-0.0000 -5.6693,2.5382 -5.6693 5.6693Z"/></g><g stroke-linejoin="miter" stroke-opacity="1.0" fill-opacity="0.5" stroke="rgb(0,0,0)" stroke-width="0.37795275590551186" fill="rgb(0,0,255)" stroke-linecap="butt" stroke-miterlimit="10.0"><path d="M 3.9685,20.3464 c 0.0000,-9.0453 7.3326,-16.3779 16.3779 -16.3779c 165.8190,-0.0000 331.6381,-0.0000 497.4571 -0.0000c 7.9481,-0.0000 14.7490,5.7066 16.1292 13.5339c 21.7589,123.4009 43.5178,246.8017 65.2767 370.2026c 0.1693,0.9602 0.2512,1.9164 0.2512 2.8601c 0.0000,7.5158 -5.1925,14.2444 -12.7658 15.9580c -139.1905,31.4946 -278.3811,62.9892 -417.5716 94.4837c -1.1861,0.2684 -2.3984,0.4038 -3.6145 0.4038c -48.3874,-0.0000 -96.7748,-0.0000 -145.1622 -0.0000c -9.0453,-0.0000 -16.3779,-7.3326 -16.3779 -16.3779c 0.0000,-154.8954 0.0000,-309.7909 0.0000 -464.6863ZM 41.6023,374.0133 c 0.0000,0.2179 0.0189,0.4388 0.0581 0.6607c 4.3141,24.4667 8.6282,48.9333 12.9424 73.4000c 0.3624,2.0556 2.3227,3.4283 4.3784 3.0658c 22.3326,-3.9378 44.6653,-7.8757 66.9979 -11.8135c 1.8595,10.5459 3.7191,21.0919 5.5786 31.6379c 0.3625,2.0557 2.3228,3.4283 4.3784 3.0658c 24.4667,-4.3141 48.9333,-8.6283 73.4000 -12.9424c 1.8337,-0.3233 3.1238,-1.9180 3.1238 -3.7177c 0.0000,-0.2179 -0.0189,-0.4388 -0.0581 -0.6607c -0.8751,-4.9628 -1.7502,-9.9256 -2.6252 -14.8884c 22.3326,-3.9378 44.6653,-7.8757 66.9980 -11.8136c 1.8337,-0.3233 3.1238,-1.9180 3.1238 -3.7176c 0.0000,-0.2179 -0.0189,-0.4388 -0.0581 -0.6608c -1.0939,-6.2035 -2.1877,-12.4070 -3.2815 -18.6105c 20.1986,-3.5615 40.3972,-7.1231 60.5959 -10.6847c 0.8751,4.9628 1.7502,9.9256 2.6252 14.8884c 0.3625,2.0557 2.3228,3.4283 4.3784 3.0658c 22.3326,-3.9379 44.6653,-7.8757 66.9980 -11.8136c 0.4375,2.4814 0.8751,4.9628 1.3126 7.4442c 0.3625,2.0556 2.3228,3.4282 4.3784 3.0658c 22.3326,-3.9379 44.6653,-7.8757 66.9980 -11.8136c 0.3624,2.0557 2.3227,3.4283 4.3784 3.0658c 24.4666,-4.3141 48.9333,-8.6283 73.3999 -12.9424c 1.8337,-0.3233 3.1239,-1.9180 3.1239 -3.7177c 0.0000,-0.2179 -0.0189,-0.4388 -0.0581 -0.6607c -4.1567,-23.5733 -8.3133,-47.1467 -12.4699 -70.7201c -0.1575,-0.8933 -0.3150,-1.7866 -0.4725 -2.6799c -3.9991,-22.6800 -7.9982,-45.3601 -11.9973 -68.0401c -0.1575,-0.8933 -0.3150,-1.7866 -0.4725 -2.6799c -3.9991,-22.6801 -7.9982,-45.3601 -11.9973 -68.0401c -0.1575,-0.8933 -0.3150,-1.7866 -0.4725 -2.6799c -3.9991,-22.6801 -7.9982,-45.3601 -11.9973 -68.0401c -0.1575,-0.8933 -0.3150,-1.7866 -0.4725 -2.6800c -4.1566,-23.5733 -8.3133,-47.1467 -12.4699 -70.7200c -0.3625,-2.0556 -2.3228,-3.4283 -4.3784 -3.0658c -22.3326,3.9378 -44.6653,7.8757 -66.9980 11.8136c -0.3624,-2.0557 -2.3227,-3.4283 -4.3784 -3.0658c -22.3327,3.9379 -44.6653,7.8757 -66.9980 11.8136c -0.4376,-2.4814 -0.8751,-4.9628 -1.3126 -7.4442c -0.3625,-2.0556 -2.3228,-3.4282 -4.3784 -3.0658c -22.3327,3.9378 -44.6653,7.8757 -66.9980 11.8136c -0.8751,-4.9628 -1.7502,-9.9256 -2.6252 -14.8884c -0.3625,-2.0556 -2.3227,-3.4283 -4.3784 -3.0658c -24.4667,4.3141 -48.9333,8.6282 -73.3999 12.9423c -1.8337,0.3233 -3.1239,1.9180 -3.1239 3.7177c 0.0000,0.2179 0.0189,0.4388 0.0581 0.6607c 1.0939,6.2035 2.1877,12.4070 3.2815 18.6106c -22.3326,3.9378 -44.6653,7.8757 -66.9979 11.8136c -1.8337,0.3233 -3.1239,1.9180 -3.1239 3.7176c 0.0000,0.2179 0.0189,0.4388 0.0581 0.6608c 0.8751,4.9628 1.7502,9.9256 2.6252 14.8884c -22.3326,3.9379 -44.6653,7.8757 -66.9979 11.8136c -1.8337,0.3233 -3.1239,1.9180 -3.1239 3.7177c 0.0000,0.2178 0.0190,0.4387 0.0581 0.6607c 4.1567,23.5733 8.3133,47.1467 12.4699 70.7200c 0.1575,0.8933 0.3150,1.7866 0.4726 2.6800c 3.9991,22.6800 7.9982,45.3601 11.9973 68.0401c 0.1575,0.8933 0.3150,1.7866 0.4725 2.6800c 3.9991,22.6800 7.9982,45.3601 11.9973 68.0401c 0.1575,0.8933 0.3150,1.7866 0.4725 2.6799c 1.7020,9.6527 3.4040,19.3053 5.1061 28.9580c -22.3326,3.9378 -44.6653,7.8757 -66.9980 11.8135c -1.8337,0.3233 -3.1238,1.9180 -3.1238 3.7177ZM 90.2677,24.1260 c 0.0000,3.1311 2.5382,5.6693 5.6693 5.6693c 3.1311,-0.0000 5.6693,-2.5382 5.6693 -5.6693c 0.0000,-3.1310 -2.5382,-5.6693 -5.6693 -5.6693c -3.1310,-0.0000 -5.6693,2.5382 -5.6693 5.6693ZM 159.8394,481.2532 c 0.0000,3.1311 2.5382,5.6693 5.6693 5.6693c 3.1311,-0.0000 5.6693,-2.5382 5.6693 -5.6693c 0.0000,-3.1310 -2.5382,-5.6693 -5.6693 -5.6693c -3.1310,-0.0000 -5.6693,2.5382 -5.6693 5.6693ZM 508.3547,24.1260 c 0.0000,3.1311 2.5382,5.6693 5.6693 5.6693c 3.1310,-0.0000 5.6693,-2.5382 5.6693 -5.6693c 0.0000,-3.1310 -2.5382,-5.6693 -5.6693 -5.6693c -3.1310,-0.0000 -5.6693,2.5382 -5.6693 5.6693ZM 573.6314,386.7695 c 0.0000,3.1311 2.5382,5.6693 5.6693 5.6693c 3.1310,-0.0000 5.6693,-2.5382 5.6693 -5.6693c 0.0000,-3.1310 -2.5382,-5.6693 -5.6693 -5.6693c -3.1311,-0.0000 -5.6693,2.5382 -5.6693 5.6693Z"/></g></svg>