<?xml version="1.0" encoding="UTF-8"?>
<!DOCTYPE svg PUBLIC "-//W3C//DTD SVG 1.1//EN"
    "http://www.w3.org/Graphics/SVG/1.1/DTD/svg11.dtd"><svg xmlns="http://www.w3.org/2000/svg" height="556.3024" stroke-opacity="1" viewBox="0 0 592 556" font-size="1" width="591.9878" xmlns:xlink="http://www.w3.org/1999/xlink" stroke="rgb(0,0,0)" version="1.1"><defs></defs><g stroke-linejoin="miter" stroke-opacity="1.0" fill-opacity="0.5" stroke="rgb(0,0,0)" stroke-width="0.37795275590551186" fill="rgb(0,0,0)" stroke-linecap="butt" stroke-miterlimit="10.0"><path d="M 3.9685,178.9407 c 0.0000,-12.6088 8.0272,-24.4520 20.6432 -28.6732c 13.8396,-4.6307 27.6792,-9.2613 41.5187 -13.8920c 0.7444,-11.8996 8.5911,-22.8020 20.5851 -26.8151c 13.4451,-4.4987 26.8901,-8.9973 40.3352 -13.4960c -0.0495,-0.7083 -0.0738,-1.4159 -0.0738 -2.1220c 0.0000,-12.6088 8.0273,-24.4521 20.6433 -28.6733c 23.5602,-7.8831 47.1205,-15.7663 70.6807 -23.6494c 11.9542,-3.9998 24.7718,-0.0093 32.5597 9.0331c 13.8456,-4.6327 27.6911,-9.2653 41.5367 -13.8980c 8.9890,-3.0077 18.4663,-1.4974 25.9261 3.2817c 15.2573,-5.1050 30.5145,-10.2100 45.7718 -15.3150c 4.9997,-1.6729 10.1504,-1.9480 15.0211 -1.0405c 18.0927,-6.0537 36.1855,-12.1075 54.2782 -18.1613c 15.7496,-5.2698 32.9981,3.3300 38.2678 19.0796c 7.5947,22.6982 15.1894,45.3964 22.7841 68.0945c 0.0006,0.0019 0.0012,0.0037 0.0019 0.0056c 0.2878,0.8603 0.5757,1.7205 0.8635 2.5808c 7.3075,21.8398 14.6150,43.6796 21.9225 65.5195c 0.2878,0.8602 0.5756,1.7204 0.8635 2.5806c 7.3075,21.8398 14.6150,43.6796 21.9225 65.5195c 0.2878,0.8603 0.5757,1.7205 0.8635 2.5808c 7.3069,21.8379 14.6137,43.6758 21.9206 65.5137c 0.0007,0.0019 0.0013,0.0039 0.0020 0.0058c 0.2878,0.8603 0.5757,1.7206 0.8635 2.5808c 7.5953,22.7000 15.1906,45.4001 22.7860 68.1001c 1.0674,3.1902 1.5635,6.4062 1.5635 9.5946c 0.0000,12.6087 -8.0272,24.4520 -20.6432 28.6732c -23.5602,7.8831 -47.1205,15.7663 -70.6807 23.6494c -4.9997,1.6729 -10.1504,1.9481 -15.0211 1.0405c -18.0928,6.0538 -36.1855,12.1075 -54.2783 18.1613c -8.9890,3.0077 -18.4663,1.4973 -25.9261 -3.2817c -15.2573,5.1050 -30.5145,10.2100 -45.7718 15.3150c -11.9542,3.9998 -24.7718,0.0093 -32.5597 -9.0331c -3.7304,1.2482 -7.4608,2.4963 -11.1912 3.7445c 0.0495,0.7083 0.0738,1.4159 0.0738 2.1221c 0.0000,12.6088 -8.0272,24.4520 -20.6432 28.6732c -13.8396,4.6307 -27.6791,9.2613 -41.5187 13.8920c -0.7444,11.8997 -8.5910,22.8020 -20.5852 26.8151c -23.5602,7.8831 -47.1205,15.7663 -70.6807 23.6494c -13.7032,4.5850 -28.5412,-1.3295 -35.6366 -13.3176c -13.3529,4.4678 -26.7058,8.9356 -40.0587 13.4035c -15.7496,5.2697 -32.9981,-3.3300 -38.2678 -19.0796c -7.8831,-23.5602 -15.7663,-47.1205 -23.6494 -70.6807c -1.0674,-3.1902 -1.5635,-6.4061 -1.5635 -9.5946c 0.0000,-12.6088 8.0272,-24.4520 20.6431 -28.6732c 13.1421,-4.3973 26.2842,-8.7946 39.4264 -13.1919c -1.5777,-4.7152 -3.1554,-9.4305 -4.7331 -14.1457c -0.2878,-0.8602 -0.5756,-1.7204 -0.8635 -2.5806c -0.0006,-0.0017 -0.0011,-0.0034 -0.0017 -0.0051c -7.3069,-21.8381 -14.6139,-43.6762 -21.9208 -65.5143c -0.2878,-0.8603 -0.5757,-1.7206 -0.8635 -2.5808c -7.3075,-21.8398 -14.6150,-43.6796 -21.9225 -65.5195c -0.2878,-0.8602 -0.5756,-1.7204 -0.8635 -2.5806c -0.0004,-0.0011 -0.0007,-0.0022 -0.0011 -0.0033c -7.5950,-22.6990 -15.1899,-45.3979 -22.7849 -68.0968c -1.0674,-3.1902 -1.5635,-6.4062 -1.5638 -9.5950ZM 147.4699,536.4602 c 0.0000,-3.1311 -2.5382,-5.6693 -5.6693 -5.6693c -3.1311,-0.0000 -5.6693,2.5382 -5.6693 5.6693c 0.0000,3.1311 2.5382,5.6693 5.6693 5.6693c 3.1311,0.0000 5.6693,-2.5382 5.6693 -5.6693ZM 577.8889,384.4731 c 0.0000,-3.1311 -2.5382,-5.6693 -5.6693 -5.6693c -3.1311,-0.0000 -5.6693,2.5382 -5.6693 5.6693c 0.0000,3.1311 2.5382,5.6693 5.6693 5.6693c 3.1311,0.0000 5.6693,-2.5382 5.6693 -5.6693ZM 70.2864,152.3854 c 0.0000,-3.1311 -2.5382,-5.6693 -5.6693 -5.6693c -3.1311,-0.0000 -5.6693,2.5382 -5.6693 5.6693c 0.0000,3.1311 2.5382,5.6693 5.6693 5.6693c 3.1311,0.0000 5.6693,-2.5382 5.6693 -5.6693ZM 455.8562,19.7556 c 0.0000,-3.1311 -2.5382,-5.6693 -5.6693 -5.6693c -3.1311,-0.0000 -5.6693,2.5382 -5.6693 5.6693c 0.0000,3.1311 2.5382,5.6693 5.6693 5.6693c 3.1311,0.0000 5.6693,-2.5382 5.6693 -5.6693Z"/></g><g stroke-linejoin="miter" stroke-opacity="1.0" fill-opacity="0.5" stroke="rgb(0,0,0)" stroke-width="0.37795275590551186" fill="rgb(255,255,0)" stroke-linecap="butt" stroke-miterlimit="10.0"><path d="M 3.9685,178.9407 c 0.0000,-12.6088 8.0272,-24.4520 20.6432 -28.6732c 9.4989,-3.1783 18.9978,-6.3566 28.4968 -9.5349c 4.3407,-1.4524 8.6813,-2.9047 13.0220 -4.3571c 0.0062,-0.0992 0.0129,-0.1983 0.0201 -0.2973c 0.8554,-11.7836 8.6710,-22.5381 20.5650 -26.5178c 13.4451,-4.4987 26.8901,-8.9973 40.3352 -13.4960c -0.0495,-0.7083 -0.0738,-1.4159 -0.0738 -2.1220c 0.0000,-12.6088 8.0273,-24.4521 20.6433 -28.6733c 23.5602,-7.8831 47.1205,-15.7663 70.6807 -23.6494c 11.9542,-3.9998 24.7718,-0.0093 32.5597 9.0331c 13.8456,-4.6327 27.6911,-9.2653 41.5367 -13.8980c 8.9890,-3.0077 18.4663,-1.4974 25.9261 3.2817c 15.2573,-5.1050 30.5145,-10.2100 45.7718 -15.3150c 4.9997,-1.6729 10.1504,-1.9480 15.0211 -1.0405c 18.0927,-6.0537 36.1855,-12.1075 54.2782 -18.1613c 3.9918,-1.3357 8.0799,-1.7803 12.0449 -1.4434c 7.7137,0.6554 14.9612,4.2689 20.1269 10.0349c 2.6552,2.9638 4.7604,6.4963 6.0960 10.4882c 7.5947,22.6982 15.1894,45.3964 22.7841 68.0945c 0.0006,0.0019 0.0012,0.0037 0.0019 0.0056c 0.2878,0.8603 0.5757,1.7205 0.8635 2.5808c 7.3075,21.8398 14.6150,43.6796 21.9225 65.5195c 0.2878,0.8602 0.5756,1.7204 0.8635 2.5806c 7.3075,21.8398 14.6150,43.6796 21.9225 65.5195c 0.2878,0.8603 0.5757,1.7205 0.8635 2.5808c 7.3069,21.8379 14.6137,43.6758 21.9206 65.5137c 0.0007,0.0019 0.0013,0.0039 0.0020 0.0058c 0.2878,0.8603 0.5757,1.7206 0.8635 2.5808c 7.5953,22.7000 15.1906,45.4001 22.7860 68.1001c 1.0674,3.1902 1.5635,6.4062 1.5635 9.5946c 0.0000,0.8375 -0.0354,1.6716 -0.1052 2.5003c -0.6475,7.6853 -4.2540,14.9074 -10.0160 20.0639c -2.9710,2.6588 -6.5150,4.7684 -10.5220 6.1091c -23.5602,7.8831 -47.1205,15.7663 -70.6807 23.6494c -4.9997,1.6729 -10.1504,1.9481 -15.0211 1.0405c -18.0928,6.0538 -36.1855,12.1075 -54.2783 18.1613c -8.9890,3.0077 -18.4663,1.4973 -25.9261 -3.2817c -15.2573,5.1050 -30.5145,10.2100 -45.7718 15.3150c -11.9542,3.9998 -24.7718,0.0093 -32.5597 -9.0331c -3.7304,1.2482 -7.4608,2.4963 -11.1912 3.7445c 0.0495,0.7083 0.0738,1.4159 0.0738 2.1221c 0.0000,12.6088 -8.0272,24.4520 -20.6432 28.6732c -13.8396,4.6307 -27.6791,9.2613 -41.5187 13.8920c -0.7444,11.8997 -8.5910,22.8020 -20.5852 26.8151c -23.5602,7.8831 -47.1205,15.7663 -70.6807 23.6494c -3.9924,1.3358 -8.0812,1.7804 -12.0467 1.4432c -7.7132,-0.6558 -14.9601,-4.2694 -20.1254 -10.0351c -1.2939,-1.4444 -2.4573,-3.0238 -3.4645 -4.7257c -13.3529,4.4678 -26.7058,8.9356 -40.0587 13.4035c -15.7496,5.2697 -32.9981,-3.3300 -38.2678 -19.0796c -7.8831,-23.5602 -15.7663,-47.1205 -23.6494 -70.6807c -1.0674,-3.1902 -1.5635,-6.4061 -1.5635 -9.5946c 0.0000,-12.6088 8.0272,-24.4520 20.6431 -28.6732c 13.1421,-4.3973 26.2842,-8.7946 39.4264 -13.1919c -1.5777,-4.7152 -3.1554,-9.4305 -4.7331 -14.1457c -0.2878,-0.8602 -0.5756,-1.7204 -0.8635 -2.5806c -0.0006,-0.0017 -0.0011,-0.0034 -0.0017 -0.0051c -7.3069,-21.8381 -14.6139,-43.6762 -21.9208 -65.5143c -0.2878,-0.8603 -0.5757,-1.7206 -0.8635 -2.5808c -7.3075,-21.8398 -14.6150,-43.6796 -21.9225 -65.5195c -0.2878,-0.8602 -0.5756,-1.7204 -0.8635 -2.5806c -0.0004,-0.0011 -0.0007,-0.0022 -0.0011 -0.0033c -7.5950,-22.6990 -15.1899,-45.3979 -22.7849 -68.0968c -1.0674,-3.1902 -1.5635,-6.4062 -1.5638 -9.5950ZM 26.6457,178.9407 c 0.0000,0.7963 0.1251,1.6024 0.3917 2.3991c 7.5950,22.6989 15.1899,45.3979 22.7849 68.0968c 0.0004,0.0011 0.0007,0.0022 0.0011 0.0033c 0.2878,0.8602 0.5756,1.7204 0.8635 2.5806c 7.3075,21.8398 14.6150,43.6796 21.9225 65.5195c 0.2878,0.8602 0.5756,1.7204 0.8635 2.5807c 7.3069,21.8381 14.6139,43.6762 21.9208 65.5143c 0.0006,0.0017 0.0011,0.0034 0.0017 0.0051c 0.2878,0.8602 0.5756,1.7204 0.8635 2.5806c 1.5778,4.7154 3.1555,9.4308 4.7333 14.1463c 2.3985,7.1682 4.7969,14.3365 7.1954 21.5047c -7.1684,2.3985 -14.3368,4.7970 -21.5052 7.1955c -13.1421,4.3973 -26.2843,8.7946 -39.4264 13.1919c -3.1580,1.0567 -5.1616,4.0117 -5.1616 7.1679c 0.0000,0.7963 0.1251,1.6023 0.3916 2.3990c 7.8831,23.5602 15.7663,47.1205 23.6494 70.6807c 1.3205,3.9467 5.6203,6.0905 9.5670 4.7699c 13.1421,-4.3973 26.2843,-8.7946 39.4265 -13.1919c 7.1684,-2.3985 14.3368,-4.7970 21.5052 -7.1955c 1.2550,3.7507 2.5099,7.5014 3.7649 11.2521c 0.4621,-0.0392 0.9296,-0.0592 1.4018 -0.0592c 4.9618,-0.0000 9.4083,2.2065 12.4118 5.6918c 0.5364,0.6225 1.0268,1.2857 1.4659 1.9845c 19.0177,-6.3632 38.0354,-12.7265 57.0532 -19.0897c 3.1156,-1.0425 6.2313,-2.0850 9.3469 -3.1274c 3.1580,-1.0566 5.1616,-4.0117 5.1616 -7.1679c 0.0000,-0.7963 -0.1251,-1.6023 -0.3916 -2.3990c -1.1993,-3.5842 -2.3985,-7.1684 -3.5978 -10.7526c 7.1685,-2.3985 14.3369,-4.7971 21.5054 -7.1956c 13.1421,-4.3973 26.2842,-8.7946 39.4262 -13.1918c 0.4229,-0.1415 0.8251,-0.3170 1.2046 -0.5226c 2.4541,-1.3292 3.9570,-3.9118 3.9570 -6.6454c 0.0000,-0.7963 -0.1251,-1.6023 -0.3916 -2.3990c -1.5990,-4.7790 -3.1980,-9.5579 -4.7970 -14.3369c 7.1685,-2.3985 14.3369,-4.7971 21.5054 -7.1956c 2.7240,-0.9114 5.4480,-1.8229 8.1720 -2.7343c 7.1684,-2.3985 14.3368,-4.7970 21.5052 -7.1955c 1.1993,3.5842 2.3985,7.1684 3.5978 10.7526c 1.3205,3.9467 5.6203,6.0904 9.5669 4.7699c 3.1157,-1.0425 6.2315,-2.0850 9.3472 -3.1275c 10.0264,-3.3548 20.0528,-6.7096 30.0792 -10.0644c 7.1684,-2.3985 14.3368,-4.7970 21.5052 -7.1956c 0.3998,1.1947 0.7995,2.3895 1.1993 3.5842c 1.3205,3.9466 5.6203,6.0904 9.5670 4.7699c 5.6696,-1.8970 11.3391,-3.7940 17.0087 -5.6910c 7.5477,-2.5254 15.0954,-5.0509 22.6431 -7.5763c 7.4149,-2.4810 14.8299,-4.9620 22.2448 -7.4430c 1.9589,1.7237 4.7600,2.3928 7.4028 1.5085c 6.8222,-2.2827 13.6444,-4.5653 20.4665 -6.8480c 15.3116,-5.1232 30.6231,-10.2464 45.9347 -15.3695c -0.0392,-0.4621 -0.0592,-0.9297 -0.0592 -1.4019c 0.0000,-5.8480 3.0650,-10.9801 7.6762 -13.8776c -7.1179,-21.2731 -14.2358,-42.5462 -21.3537 -63.8194c -0.2878,-0.8602 -0.5756,-1.7204 -0.8635 -2.5807c -0.0007,-0.0019 -0.0013,-0.0039 -0.0020 -0.0058c -7.3068,-21.8379 -14.6137,-43.6758 -21.9206 -65.5137c -0.2878,-0.8602 -0.5757,-1.7204 -0.8635 -2.5807c -7.3075,-21.8398 -14.6150,-43.6796 -21.9225 -65.5195c -0.2878,-0.8602 -0.5756,-1.7204 -0.8635 -2.5806c -7.3075,-21.8398 -14.6150,-43.6796 -21.9225 -65.5194c -0.2878,-0.8602 -0.5756,-1.7204 -0.8635 -2.5807c -0.0006,-0.0019 -0.0012,-0.0037 -0.0019 -0.0056c -7.1174,-21.2717 -14.2348,-42.5434 -21.3522 -63.8151c -0.4621,0.0392 -0.9296,0.0592 -1.4019 0.0592c -5.8480,-0.0000 -10.9801,-3.0650 -13.8776 -7.6762c -11.7904,3.9450 -23.5807,7.8900 -35.3710 11.8350c -7.4150,2.4810 -14.8299,4.9620 -22.2449 7.4430c -1.9589,-1.7237 -4.7600,-2.3928 -7.4028 -1.5086c -6.8221,2.2826 -13.6442,4.5653 -20.4662 6.8479c -6.3200,2.1146 -12.6400,4.2293 -18.9600 6.3439c -7.1685,2.3985 -14.3369,4.7971 -21.5054 7.1956c -0.3998,-1.1947 -0.7995,-2.3895 -1.1993 -3.5842c -1.3205,-3.9467 -5.6203,-6.0904 -9.5669 -4.7699c -5.6694,1.8969 -11.3387,3.7939 -17.0081 5.6908c -7.4727,2.5003 -14.9454,5.0007 -22.4182 7.5010c -7.1685,2.3985 -14.3369,4.7971 -21.5054 7.1956c -1.1993,-3.5842 -2.3985,-7.1684 -3.5978 -10.7526c -1.3205,-3.9467 -5.6203,-6.0904 -9.5669 -4.7699c -3.1153,1.0424 -6.2306,2.0847 -9.3460 3.1271c -20.4449,6.8408 -40.8898,13.6816 -61.3348 20.5223c -0.4236,0.1417 -0.8264,0.3176 -1.2065 0.5236c -2.4530,1.3294 -3.9551,3.9115 -3.9551 6.6444c 0.0000,0.7963 0.1251,1.6023 0.3916 2.3990c 1.5990,4.7790 3.1980,9.5579 4.7971 14.3369c -7.1684,2.3985 -14.3368,4.7970 -21.5052 7.1955c -10.0268,3.3549 -20.0535,6.7098 -30.0803 10.0647c 0.0000,-0.0000 -0.0000,-0.0000 -0.0000 -0.0000c -3.1154,1.0424 -6.2308,2.0848 -9.3461 3.1272c -3.1580,1.0566 -5.1616,4.0117 -5.1616 7.1679c 0.0000,0.7963 0.1251,1.6023 0.3916 2.3990c 1.1993,3.5842 2.3985,7.1684 3.5978 10.7526c -4.0074,1.3408 -8.0147,2.6817 -12.0221 4.0225c -0.8027,4.3025 -3.2875,8.0131 -6.7460 10.4235c -2.6518,1.8482 -5.8762,2.9320 -9.3536 2.9320c -4.2514,-0.0000 -8.1245,-1.6199 -11.0357 -4.2761c -7.2581,2.4285 -14.5162,4.8570 -21.7742 7.2856c -3.1580,1.0567 -5.1616,4.0117 -5.1616 7.1679ZM 147.4699,536.4602 c 0.0000,-3.1311 -2.5382,-5.6693 -5.6693 -5.6693c -3.1311,-0.0000 -5.6693,2.5382 -5.6693 5.6693c 0.0000,3.1311 2.5382,5.6693 5.6693 5.6693c 3.1311,0.0000 5.6693,-2.5382 5.6693 -5.6693ZM 577.8889,384.4731 c 0.0000,-3.1311 -2.5382,-5.6693 -5.6693 -5.6693c -3.1311,-0.0000 -5.6693,2.5382 -5.6693 5.6693c 0.0000,3.1311 2.5382,5.6693 5.6693 5.6693c 3.1311,0.0000 5.6693,-2.5382 5.6693 -5.6693ZM 70.2864,152.3854 c 0.0000,-3.1311 -2.5382,-5.6693 -5.6693 -5.6693c -3.1311,-0.0000 -5.6693,2.5382 -5.6693 5.6693c 0.0000,3.1311 2.5382,5.6693 5.6693 5.6693c 3.1311,0.0000 5.6693,-2.5382 5.6693 -5.6693ZM 455.8562,19.7556 c 0.0000,-3.1311 -2.5382,-5.6693 -5.6693 -5.6693c -3.1311,-0.0000 -5.6693,2.5382 -5.6693 5.6693c 0.0000,3.1311 2.5382,5.6693 5.6693 5.6693c 3.1311,0.0000 5.6693,-2.5382 5.6693 -5.6693Z"/></g><g stroke-linejoin="miter" stroke-opacity="1.0" fill-opacity="0.5" stroke="rgb(0,0,0)" stroke-width="0.37795275590551186" fill="rgb(0,0,0)" stroke-linecap="butt" stroke-miterlimit="10.0"><path d="M 3.9685,178.9407 c 0.0000,-12.6088 8.0272,-24.4520 20.6432 -28.6732c 13.8396,-4.6307 27.6792,-9.2613 41.5187 -13.8920c 0.7444,-11.8996 8.5911,-22.8020 20.5851 -26.8151c 13.4451,-4.4987 26.8901,-8.9973 40.3352 -13.4960c -0.0495,-0.7083 -0.0738,-1.4159 -0.0738 -2.1220c 0.0000,-12.6088 8.0273,-24.4521 20.6433 -28.6733c 23.5602,-7.8831 47.1205,-15.7663 70.6807 -23.6494c 11.9542,-3.9998 24.7718,-0.0093 32.5597 9.0331c 13.8456,-4.6327 27.6911,-9.2653 41.5367 -13.8980c 8.9890,-3.0077 18.4663,-1.4974 25.9261 3.2817c 15.2573,-5.1050 30.5145,-10.2100 45.7718 -15.3150c 4.9997,-1.6729 10.1504,-1.9480 15.0211 -1.0405c 18.0927,-6.0537 36.1855,-12.1075 54.2782 -18.1613c 15.7496,-5.2698 32.9981,3.3300 38.2678 19.0796c 7.5947,22.6982 15.1894,45.3964 22.7841 68.0945c 0.0006,0.0019 0.0012,0.0037 0.0019 0.0056c 0.2878,0.8603 0.5757,1.7205 0.8635 2.5808c 7.3075,21.8398 14.6150,43.6796 21.9225 65.5195c 0.2878,0.8602 0.5756,1.7204 0.8635 2.5806c 7.3075,21.8398 14.6150,43.6796 21.9225 65.5195c 0.2878,0.8603 0.5757,1.7205 0.8635 2.5808c 7.3069,21.8379 14.6137,43.6758 21.9206 65.5137c 0.0007,0.0019 0.0013,0.0039 0.0020 0.0058c 0.2878,0.8603 0.5757,1.7206 0.8635 2.5808c 7.5953,22.7000 15.1906,45.4001 22.7860 68.1001c 1.0674,3.1902 1.5635,6.4062 1.5635 9.5946c 0.0000,12.6087 -8.0272,24.4520 -20.6432 28.6732c -23.5602,7.8831 -47.1205,15.7663 -70.6807 23.6494c -4.9997,1.6729 -10.1504,1.9481 -15.0211 1.0405c -18.0928,6.0538 -36.1855,12.1075 -54.2783 18.1613c -8.9890,3.0077 -18.4663,1.4973 -25.9261 -3.2817c -15.2573,5.1050 -30.5145,10.2100 -45.7718 15.3150c -11.9542,3.9998 -24.7718,0.0093 -32.5597 -9.0331c -3.7304,1.2482 -7.4608,2.4963 -11.1912 3.7445c 0.0495,0.7083 0.0738,1.4159 0.0738 2.1221c 0.0000,12.6088 -8.0272,24.4520 -20.6432 28.6732c -13.8396,4.6307 -27.6791,9.2613 -41.5187 13.8920c -0.7444,11.8997 -8.5910,22.8020 -20.5852 26.8151c -23.5602,7.8831 -47.1205,15.7663 -70.6807 23.6494c -13.7032,4.5850 -28.5412,-1.3295 -35.6366 -13.3176c -13.3529,4.4678 -26.7058,8.9356 -40.0587 13.4035c -15.7496,5.2697 -32.9981,-3.3300 -38.2678 -19.0796c -7.8831,-23.5602 -15.7663,-47.1205 -23.6494 -70.6807c -1.0674,-3.1902 -1.5635,-6.4061 -1.5635 -9.5946c 0.0000,-12.6088 8.0272,-24.4520 20.6431 -28.6732c 13.1421,-4.3973 26.2842,-8.7946 39.4264 -13.1919c -1.5777,-4.7152 -3.1554,-9.4305 -4.7331 -14.1457c -0.2878,-0.8602 -0.5756,-1.7204 -0.8635 -2.5806c -0.0006,-0.0017 -0.0011,-0.0034 -0.0017 -0.0051c -7.3069,-21.8381 -14.6139,-43.6762 -21.9208 -65.5143c -0.2878,-0.8603 -0.5757,-1.7206 -0.8635 -2.5808c -7.3075,-21.8398 -14.6150,-43.6796 -21.9225 -65.5195c -0.2878,-0.8602 -0.5756,-1.7204 -0.8635 -2.5806c -0.0004,-0.0011 -0.0007,-0.0022 -0.0011 -0.0033c -7.5950,-22.6990 -15.1899,-45.3979 -22.7849 -68.0968c -1.0674,-3.1902 -1.5635,-6.4062 -1.5638 -9.5950ZM 46.2208,190.2869 c 1.3992,4.1817 2.7984,8.3634 4.1975 12.5451c 0.9711,-0.3249 1.9422,-0.6498 2.9132 -0.9748c 2.0023,5.9843 4.0047,11.9687 6.0070 17.9530c -0.9711,0.3249 -1.9422,0.6498 -2.9133 0.9748c 1.3992,4.1817 2.7984,8.3634 4.1975 12.5451c 0.9711,-0.3249 1.9422,-0.6498 2.9133 -0.9748c 0.3919,1.1714 0.7839,2.3428 1.1758 3.5141c 16.6905,-5.5846 33.3810,-11.1691 50.0715 -16.7537c -0.3919,-1.1714 -0.7839,-2.3428 -1.1758 -3.5141c 0.9711,-0.3249 1.9422,-0.6498 2.9133 -0.9748c -1.3992,-4.1817 -2.7984,-8.3634 -4.1975 -12.5451c -0.9711,0.3249 -1.9422,0.6498 -2.9132 0.9748c -2.0023,-5.9843 -4.0047,-11.9687 -6.0070 -17.9530c 0.9711,-0.3249 1.9422,-0.6498 2.9133 -0.9748c -1.3992,-4.1817 -2.7984,-8.3634 -4.1975 -12.5451c -0.9711,0.3249 -1.9422,0.6498 -2.9132 0.9748c -0.3919,-1.1714 -0.7839,-2.3428 -1.1758 -3.5141c -16.6905,5.5846 -33.3810,11.1691 -50.0715 16.7537c 0.3919,1.1714 0.7839,2.3428 1.1758 3.5141c -0.9711,0.3249 -1.9422,0.6498 -2.9133 0.9748ZM 61.6693,462.7732 c 1.3992,4.1817 2.7984,8.3634 4.1975 12.5451c 0.9711,-0.3249 1.9422,-0.6498 2.9133 -0.9748c 2.0023,5.9843 4.0047,11.9687 6.0070 17.9530c -0.9711,0.3249 -1.9422,0.6498 -2.9133 0.9748c 1.3992,4.1817 2.7984,8.3634 4.1975 12.5451c 0.9711,-0.3249 1.9422,-0.6498 2.9132 -0.9748c 0.3919,1.1714 0.7839,2.3428 1.1758 3.5141c 16.6905,-5.5846 33.3810,-11.1691 50.0715 -16.7537c -0.3919,-1.1714 -0.7839,-2.3428 -1.1758 -3.5141c 0.9711,-0.3249 1.9422,-0.6498 2.9133 -0.9748c -1.3992,-4.1817 -2.7984,-8.3634 -4.1975 -12.5451c -0.9711,0.3249 -1.9422,0.6498 -2.9133 0.9748c -2.0023,-5.9843 -4.0046,-11.9687 -6.0070 -17.9530c 0.9711,-0.3249 1.9422,-0.6498 2.9132 -0.9748c -1.3992,-4.1817 -2.7984,-8.3634 -4.1975 -12.5451c -0.9711,0.3249 -1.9422,0.6498 -2.9133 0.9748c -0.3919,-1.1714 -0.7839,-2.3428 -1.1758 -3.5141c -16.6905,5.5846 -33.3810,11.1691 -50.0715 16.7537c 0.3919,1.1714 0.7839,2.3428 1.1758 3.5141c -0.9711,0.3249 -1.9422,0.6498 -2.9132 0.9748ZM 69.0068,258.3870 c 1.3992,4.1817 2.7984,8.3634 4.1975 12.5451c 0.9711,-0.3249 1.9422,-0.6498 2.9133 -0.9748c 2.0023,5.9843 4.0047,11.9687 6.0070 17.9530c -0.9711,0.3249 -1.9422,0.6498 -2.9133 0.9748c 1.3992,4.1817 2.7984,8.3634 4.1975 12.5451c 0.9711,-0.3249 1.9422,-0.6498 2.9133 -0.9748c 0.3919,1.1714 0.7839,2.3428 1.1758 3.5141c 16.6905,-5.5846 33.3810,-11.1691 50.0715 -16.7537c -0.3919,-1.1714 -0.7839,-2.3428 -1.1758 -3.5141c 0.9711,-0.3249 1.9422,-0.6498 2.9132 -0.9748c -1.3992,-4.1817 -2.7984,-8.3634 -4.1975 -12.5451c -0.9711,0.3249 -1.9422,0.6498 -2.9133 0.9748c -2.0023,-5.9843 -4.0047,-11.9687 -6.0070 -17.9530c 0.9711,-0.3249 1.9422,-0.6498 2.9132 -0.9748c -1.3992,-4.1817 -2.7984,-8.3634 -4.1975 -12.5451c -0.9711,0.3249 -1.9422,0.6498 -2.9133 0.9748c -0.3919,-1.1714 -0.7839,-2.3428 -1.1758 -3.5141c -16.6905,5.5846 -33.3810,11.1691 -50.0715 16.7537c 0.3919,1.1714 0.7839,2.3428 1.1758 3.5141c -0.9711,0.3249 -1.9422,0.6498 -2.9132 0.9748ZM 91.7928,326.4871 c 1.3992,4.1817 2.7984,8.3634 4.1975 12.5451c 0.9711,-0.3249 1.9422,-0.6498 2.9132 -0.9748c 2.0023,5.9843 4.0047,11.9687 6.0070 17.9530c -0.9711,0.3249 -1.9422,0.6498 -2.9133 0.9748c 1.3992,4.1817 2.7984,8.3634 4.1975 12.5451c 0.9711,-0.3249 1.9422,-0.6498 2.9133 -0.9748c 0.3919,1.1714 0.7839,2.3428 1.1758 3.5141c 16.6905,-5.5846 33.3810,-11.1691 50.0715 -16.7537c -0.3919,-1.1714 -0.7839,-2.3428 -1.1758 -3.5141c 0.9711,-0.3249 1.9422,-0.6498 2.9133 -0.9748c -1.3992,-4.1817 -2.7984,-8.3634 -4.1975 -12.5451c -0.9711,0.3249 -1.9422,0.6498 -2.9132 0.9748c -2.0023,-5.9843 -4.0047,-11.9687 -6.0070 -17.9530c 0.9711,-0.3249 1.9422,-0.6498 2.9133 -0.9748c -1.3992,-4.1817 -2.7984,-8.3634 -4.1975 -12.5451c -0.9711,0.3249 -1.9422,0.6498 -2.9133 0.9748c -0.3919,-1.1714 -0.7839,-2.3428 -1.1758 -3.5141c -16.6905,5.5846 -33.3810,11.1691 -50.0715 16.7537c 0.3919,1.1714 0.7839,2.3428 1.1758 3.5141c -0.9711,0.3249 -1.9422,0.6498 -2.9133 0.9748ZM 108.3246,149.5798 c 1.3992,4.1817 2.7984,8.3634 4.1975 12.5451c 0.9711,-0.3249 1.9422,-0.6498 2.9133 -0.9748c 2.0023,5.9843 4.0047,11.9687 6.0070 17.9530c -0.9711,0.3249 -1.9422,0.6498 -2.9133 0.9748c 1.3992,4.1817 2.7984,8.3634 4.1975 12.5451c 0.9711,-0.3249 1.9422,-0.6498 2.9132 -0.9748c 0.3919,1.1714 0.7839,2.3428 1.1758 3.5141c 16.6905,-5.5846 33.3810,-11.1691 50.0715 -16.7537c -0.3919,-1.1714 -0.7839,-2.3428 -1.1758 -3.5141c 0.9711,-0.3249 1.9422,-0.6498 2.9133 -0.9748c -1.3992,-4.1817 -2.7984,-8.3634 -4.1975 -12.5451c -0.9711,0.3249 -1.9422,0.6498 -2.9133 0.9748c -2.0023,-5.9843 -4.0046,-11.9687 -6.0070 -17.9530c 0.9711,-0.3249 1.9422,-0.6498 2.9132 -0.9748c -1.3992,-4.1817 -2.7984,-8.3634 -4.1975 -12.5451c -0.9711,0.3249 -1.9422,0.6498 -2.9133 0.9748c -0.3919,-1.1714 -0.7839,-2.3428 -1.1758 -3.5141c -16.6905,5.5846 -33.3810,11.1691 -50.0715 16.7537c 0.3919,1.1714 0.7839,2.3428 1.1758 3.5141c -0.9711,0.3249 -1.9422,0.6498 -2.9133 0.9748ZM 114.5787,394.5872 c 1.3992,4.1817 2.7984,8.3634 4.1975 12.5451c 0.9711,-0.3249 1.9422,-0.6498 2.9133 -0.9748c 2.0023,5.9843 4.0047,11.9687 6.0070 17.9530c -0.9711,0.3249 -1.9422,0.6498 -2.9132 0.9748c 1.3992,4.1817 2.7984,8.3634 4.1975 12.5451c 0.9711,-0.3249 1.9422,-0.6498 2.9133 -0.9748c 0.3919,1.1714 0.7839,2.3428 1.1758 3.5141c 16.6905,-5.5846 33.3810,-11.1691 50.0715 -16.7537c -0.3919,-1.1714 -0.7839,-2.3428 -1.1758 -3.5141c 0.9711,-0.3249 1.9422,-0.6498 2.9132 -0.9748c -1.3992,-4.1817 -2.7984,-8.3634 -4.1975 -12.5451c -0.9711,0.3249 -1.9422,0.6498 -2.9133 0.9748c -2.0023,-5.9843 -4.0047,-11.9687 -6.0070 -17.9530c 0.9711,-0.3249 1.9422,-0.6498 2.9133 -0.9748c -1.3992,-4.1817 -2.7984,-8.3634 -4.1975 -12.5451c -0.9711,0.3249 -1.9422,0.6498 -2.9133 0.9748c -0.3919,-1.1714 -0.7839,-2.3428 -1.1758 -3.5141c -16.6905,5.5846 -33.3810,11.1691 -50.0715 16.7537c 0.3919,1.1714 0.7839,2.3428 1.1758 3.5141c -0.9711,0.3249 -1.9422,0.6498 -2.9132 0.9748ZM 131.1106,217.6799 c 1.3992,4.1817 2.7984,8.3634 4.1975 12.5451c 0.9711,-0.3249 1.9422,-0.6498 2.9133 -0.9748c 2.0023,5.9843 4.0046,11.9687 6.0070 17.9530c -0.9711,0.3249 -1.9422,0.6498 -2.9132 0.9748c 1.3992,4.1817 2.7984,8.3634 4.1975 12.5451c 0.9711,-0.3249 1.9422,-0.6498 2.9133 -0.9748c 0.3919,1.1714 0.7839,2.3428 1.1758 3.5141c 16.6905,-5.5846 33.3810,-11.1691 50.0715 -16.7537c -0.3919,-1.1714 -0.7839,-2.3428 -1.1758 -3.5141c 0.9711,-0.3249 1.9422,-0.6498 2.9133 -0.9748c -1.3992,-4.1817 -2.7984,-8.3634 -4.1975 -12.5451c -0.9711,0.3249 -1.9422,0.6498 -2.9133 0.9748c -2.0023,-5.9843 -4.0047,-11.9687 -6.0070 -17.9530c 0.9711,-0.3249 1.9422,-0.6498 2.9133 -0.9748c -1.3992,-4.1817 -2.7984,-8.3634 -4.1975 -12.5451c -0.9711,0.3249 -1.9422,0.6498 -2.9132 0.9748c -0.3919,-1.1714 -0.7839,-2.3428 -1.1758 -3.5141c -16.6905,5.5846 -33.3810,11.1691 -50.0715 16.7537c 0.3919,1.1714 0.7839,2.3428 1.1758 3.5141c -0.9711,0.3249 -1.9422,0.6498 -2.9133 0.9748ZM 137.3647,462.6873 c 1.3992,4.1817 2.7984,8.3634 4.1975 12.5451c 0.9711,-0.3249 1.9422,-0.6498 2.9132 -0.9748c 2.0023,5.9843 4.0047,11.9687 6.0070 17.9530c -0.9711,0.3249 -1.9422,0.6498 -2.9133 0.9748c 1.3992,4.1817 2.7984,8.3634 4.1975 12.5451c 0.9711,-0.3249 1.9422,-0.6498 2.9132 -0.9748c 0.3919,1.1714 0.7839,2.3428 1.1758 3.5141c 16.6905,-5.5846 33.3810,-11.1691 50.0715 -16.7537c -0.3919,-1.1714 -0.7839,-2.3428 -1.1758 -3.5141c 0.9711,-0.3249 1.9422,-0.6498 2.9133 -0.9748c -1.3992,-4.1817 -2.7984,-8.3634 -4.1975 -12.5451c -0.9711,0.3249 -1.9422,0.6498 -2.9132 0.9748c -2.0023,-5.9843 -4.0047,-11.9687 -6.0070 -17.9530c 0.9711,-0.3249 1.9422,-0.6498 2.9133 -0.9748c -1.3992,-4.1817 -2.7984,-8.3634 -4.1975 -12.5451c -0.9711,0.3249 -1.9422,0.6498 -2.9133 0.9748c -0.3919,-1.1714 -0.7839,-2.3428 -1.1758 -3.5141c -16.6905,5.5846 -33.3810,11.1691 -50.0715 16.7537c 0.3919,1.1714 0.7839,2.3428 1.1758 3.5141c -0.9711,0.3249 -1.9422,0.6498 -2.9133 0.9748ZM 153.8965,285.7800 c 1.3992,4.1817 2.7984,8.3634 4.1975 12.5451c 0.9711,-0.3249 1.9422,-0.6498 2.9133 -0.9748c 2.0023,5.9843 4.0047,11.9687 6.0070 17.9530c -0.9711,0.3249 -1.9422,0.6498 -2.9133 0.9748c 1.3992,4.1817 2.7984,8.3634 4.1975 12.5451c 0.9711,-0.3249 1.9422,-0.6498 2.9132 -0.9748c 0.3919,1.1714 0.7839,2.3428 1.1758 3.5141c 16.6905,-5.5846 33.3810,-11.1691 50.0715 -16.7537c -0.3919,-1.1714 -0.7839,-2.3428 -1.1758 -3.5141c 0.9711,-0.3249 1.9422,-0.6498 2.9133 -0.9748c -1.3992,-4.1817 -2.7984,-8.3634 -4.1975 -12.5451c -0.9711,0.3249 -1.9422,0.6498 -2.9133 0.9748c -2.0023,-5.9843 -4.0046,-11.9687 -6.0070 -17.9530c 0.9711,-0.3249 1.9422,-0.6498 2.9132 -0.9748c -1.3992,-4.1817 -2.7984,-8.3634 -4.1975 -12.5451c -0.9711,0.3249 -1.9422,0.6498 -2.9133 0.9748c -0.3919,-1.1714 -0.7839,-2.3428 -1.1758 -3.5141c -16.6905,5.5846 -33.3810,11.1691 -50.0715 16.7537c 0.3919,1.1714 0.7839,2.3428 1.1758 3.5141c -0.9711,0.3249 -1.9422,0.6498 -2.9133 0.9748ZM 169.2291,105.2886 c 1.3992,4.1817 2.7984,8.3634 4.1975 12.5451c 0.9711,-0.3249 1.9422,-0.6498 2.9133 -0.9748c 2.0023,5.9843 4.0047,11.9687 6.0070 17.9530c -0.9711,0.3249 -1.9422,0.6498 -2.9132 0.9748c 1.3992,4.1817 2.7984,8.3634 4.1975 12.5451c 0.9711,-0.3249 1.9422,-0.6498 2.9133 -0.9748c 0.3919,1.1714 0.7839,2.3428 1.1758 3.5141c 16.6905,-5.5846 33.3810,-11.1691 50.0715 -16.7537c -0.3919,-1.1714 -0.7839,-2.3428 -1.1758 -3.5141c 0.9711,-0.3249 1.9422,-0.6498 2.9132 -0.9748c -1.3992,-4.1817 -2.7984,-8.3634 -4.1975 -12.5451c -0.9711,0.3249 -1.9422,0.6498 -2.9133 0.9748c -2.0023,-5.9843 -4.0047,-11.9687 -6.0070 -17.9530c 0.9711,-0.3249 1.9422,-0.6498 2.9133 -0.9748c -1.3992,-4.1817 -2.7984,-8.3634 -4.1975 -12.5451c -0.9711,0.3249 -1.9422,0.6498 -2.9133 0.9748c -0.3919,-1.1714 -0.7839,-2.3428 -1.1758 -3.5141c -16.6905,5.5846 -33.3810,11.1691 -50.0715 16.7537c 0.3919,1.1714 0.7839,2.3428 1.1758 3.5141c -0.9711,0.3249 -1.9422,0.6498 -2.9132 0.9748ZM 176.6825,353.8801 c 1.3992,4.1817 2.7984,8.3634 4.1975 12.5451c 0.9711,-0.3249 1.9422,-0.6498 2.9133 -0.9748c 2.0023,5.9843 4.0046,11.9687 6.0070 17.9530c -0.9711,0.3249 -1.9422,0.6498 -2.9132 0.9748c 1.3992,4.1817 2.7984,8.3634 4.1975 12.5451c 0.9711,-0.3249 1.9422,-0.6498 2.9133 -0.9748c 0.3919,1.1714 0.7839,2.3428 1.1758 3.5141c 16.6905,-5.5846 33.3810,-11.1691 50.0715 -16.7537c -0.3919,-1.1714 -0.7839,-2.3428 -1.1758 -3.5141c 0.9711,-0.3249 1.9422,-0.6498 2.9133 -0.9748c -1.3992,-4.1817 -2.7984,-8.3634 -4.1975 -12.5451c -0.9711,0.3249 -1.9422,0.6498 -2.9133 0.9748c -2.0023,-5.9843 -4.0047,-11.9687 -6.0070 -17.9530c 0.9711,-0.3249 1.9422,-0.6498 2.9133 -0.9748c -1.3992,-4.1817 -2.7984,-8.3634 -4.1975 -12.5451c -0.9711,0.3249 -1.9422,0.6498 -2.9132 0.9748c -0.3919,-1.1714 -0.7839,-2.3428 -1.1758 -3.5141c -16.6905,5.5846 -33.3810,11.1691 -50.0715 16.7537c 0.3919,1.1714 0.7839,2.3428 1.1758 3.5141c -0.9711,0.3249 -1.9422,0.6498 -2.9133 0.9748ZM 192.0151,173.3887 c 1.3992,4.1817 2.7984,8.3634 4.1975 12.5451c 0.9711,-0.3249 1.9422,-0.6498 2.9132 -0.9748c 2.0023,5.9843 4.0047,11.9687 6.0070 17.9530c -0.9711,0.3249 -1.9422,0.6498 -2.9133 0.9748c 1.3992,4.1817 2.7984,8.3634 4.1975 12.5451c 0.9711,-0.3249 1.9422,-0.6498 2.9132 -0.9748c 0.3919,1.1714 0.7839,2.3428 1.1758 3.5141c 16.6905,-5.5846 33.3810,-11.1691 50.0715 -16.7537c -0.3919,-1.1714 -0.7839,-2.3428 -1.1758 -3.5141c 0.9711,-0.3249 1.9422,-0.6498 2.9133 -0.9748c -1.3992,-4.1817 -2.7984,-8.3634 -4.1975 -12.5451c -0.9711,0.3249 -1.9422,0.6498 -2.9132 0.9748c -2.0023,-5.9843 -4.0047,-11.9687 -6.0070 -17.9530c 0.9711,-0.3249 1.9422,-0.6498 2.9133 -0.9748c -1.3992,-4.1817 -2.7984,-8.3634 -4.1975 -12.5451c -0.9711,0.3249 -1.9422,0.6498 -2.9133 0.9748c -0.3919,-1.1714 -0.7839,-2.3428 -1.1758 -3.5141c -16.6905,5.5846 -33.3810,11.1691 -50.0715 16.7537c 0.3919,1.1714 0.7839,2.3428 1.1758 3.5141c -0.9711,0.3249 -1.9422,0.6498 -2.9133 0.9748ZM 199.4685,421.9802 c 1.3992,4.1817 2.7984,8.3634 4.1975 12.5451c 0.9711,-0.3249 1.9422,-0.6498 2.9133 -0.9748c 2.0023,5.9843 4.0047,11.9687 6.0070 17.9530c -0.9711,0.3249 -1.9422,0.6498 -2.9133 0.9748c 1.3992,4.1817 2.7984,8.3634 4.1975 12.5451c 0.9711,-0.3249 1.9422,-0.6498 2.9132 -0.9748c 0.3919,1.1714 0.7839,2.3428 1.1758 3.5141c 16.6905,-5.5846 33.3810,-11.1691 50.0715 -16.7537c -0.3919,-1.1714 -0.7839,-2.3428 -1.1758 -3.5141c 0.9711,-0.3249 1.9422,-0.6498 2.9133 -0.9748c -1.3992,-4.1817 -2.7984,-8.3634 -4.1975 -12.5451c -0.9711,0.3249 -1.9422,0.6498 -2.9133 0.9748c -2.0023,-5.9843 -4.0046,-11.9687 -6.0070 -17.9530c 0.9711,-0.3249 1.9422,-0.6498 2.9132 -0.9748c -1.3992,-4.1817 -2.7984,-8.3634 -4.1975 -12.5451c -0.9711,0.3249 -1.9422,0.6498 -2.9133 0.9748c -0.3919,-1.1714 -0.7839,-2.3428 -1.1758 -3.5141c -16.6905,5.5846 -33.3810,11.1691 -50.0715 16.7537c 0.3919,1.1714 0.7839,2.3428 1.1758 3.5141c -0.9711,0.3249 -1.9422,0.6498 -2.9132 0.9748ZM 214.8011,241.4888 c 1.3992,4.1817 2.7984,8.3634 4.1975 12.5451c 0.9711,-0.3249 1.9422,-0.6498 2.9133 -0.9748c 2.0023,5.9843 4.0047,11.9687 6.0070 17.9530c -0.9711,0.3249 -1.9422,0.6498 -2.9132 0.9748c 1.3992,4.1817 2.7984,8.3634 4.1975 12.5451c 0.9711,-0.3249 1.9422,-0.6498 2.9133 -0.9748c 0.3919,1.1714 0.7839,2.3428 1.1758 3.5141c 16.6905,-5.5846 33.3810,-11.1691 50.0715 -16.7537c -0.3919,-1.1714 -0.7839,-2.3428 -1.1758 -3.5141c 0.9711,-0.3249 1.9422,-0.6498 2.9132 -0.9748c -1.3992,-4.1817 -2.7984,-8.3634 -4.1975 -12.5451c -0.9711,0.3249 -1.9422,0.6498 -2.9133 0.9748c -2.0023,-5.9843 -4.0047,-11.9687 -6.0070 -17.9530c 0.9711,-0.3249 1.9422,-0.6498 2.9133 -0.9748c -1.3992,-4.1817 -2.7984,-8.3634 -4.1975 -12.5451c -0.9711,0.3249 -1.9422,0.6498 -2.9133 0.9748c -0.3919,-1.1714 -0.7839,-2.3428 -1.1758 -3.5141c -16.6905,5.5846 -33.3810,11.1691 -50.0715 16.7537c 0.3919,1.1714 0.7839,2.3428 1.1758 3.5141c -0.9711,0.3249 -1.9422,0.6498 -2.9132 0.9748ZM 237.5870,309.5889 c 1.3992,4.1817 2.7984,8.3634 4.1975 12.5451c 0.9711,-0.3249 1.9422,-0.6498 2.9132 -0.9748c 2.0023,5.9843 4.0047,11.9687 6.0070 17.9530c -0.9711,0.3249 -1.9422,0.6498 -2.9133 0.9748c 1.3992,4.1817 2.7984,8.3634 4.1975 12.5451c 0.9711,-0.3249 1.9422,-0.6498 2.9132 -0.9748c 0.3919,1.1714 0.7839,2.3428 1.1758 3.5141c 16.6905,-5.5846 33.3810,-11.1691 50.0715 -16.7537c -0.3919,-1.1714 -0.7839,-2.3428 -1.1758 -3.5141c 0.9711,-0.3249 1.9422,-0.6498 2.9133 -0.9748c -1.3992,-4.1817 -2.7984,-8.3634 -4.1975 -12.5451c -0.9711,0.3249 -1.9422,0.6498 -2.9132 0.9748c -2.0023,-5.9843 -4.0047,-11.9687 -6.0070 -17.9530c 0.9711,-0.3249 1.9422,-0.6498 2.9133 -0.9748c -1.3992,-4.1817 -2.7984,-8.3634 -4.1975 -12.5451c -0.9711,0.3249 -1.9422,0.6498 -2.9133 0.9748c -0.3919,-1.1714 -0.7839,-2.3428 -1.1758 -3.5141c -16.6905,5.5846 -33.3810,11.1691 -50.0715 16.7537c 0.3919,1.1714 0.7839,2.3428 1.1758 3.5141c -0.9711,0.3249 -1.9422,0.6498 -2.9133 0.9748ZM 243.3255,100.4237 c 1.3992,4.1817 2.7984,8.3634 4.1975 12.5451c 0.9711,-0.3249 1.9422,-0.6498 2.9132 -0.9748c 2.0023,5.9843 4.0047,11.9687 6.0070 17.9530c -0.9711,0.3249 -1.9422,0.6498 -2.9133 0.9748c 1.3992,4.1817 2.7984,8.3634 4.1975 12.5451c 0.9711,-0.3249 1.9422,-0.6498 2.9132 -0.9748c 0.3919,1.1714 0.7839,2.3428 1.1758 3.5141c 16.6905,-5.5846 33.3810,-11.1691 50.0715 -16.7537c -0.3919,-1.1714 -0.7839,-2.3428 -1.1758 -3.5141c 0.9711,-0.3249 1.9422,-0.6498 2.9133 -0.9748c -1.3992,-4.1817 -2.7984,-8.3634 -4.1975 -12.5451c -0.9711,0.3249 -1.9422,0.6498 -2.9132 0.9748c -2.0023,-5.9843 -4.0047,-11.9687 -6.0070 -17.9530c 0.9711,-0.3249 1.9422,-0.6498 2.9133 -0.9748c -1.3992,-4.1817 -2.7984,-8.3634 -4.1975 -12.5451c -0.9711,0.3249 -1.9422,0.6498 -2.9133 0.9748c -0.3919,-1.1714 -0.7839,-2.3428 -1.1758 -3.5141c -16.6905,5.5846 -33.3810,11.1691 -50.0715 16.7537c 0.3919,1.1714 0.7839,2.3428 1.1758 3.5141c -0.9711,0.3249 -1.9422,0.6498 -2.9133 0.9748ZM 260.3730,377.6889 c 1.3992,4.1817 2.7984,8.3634 4.1975 12.5451c 0.9711,-0.3249 1.9422,-0.6498 2.9133 -0.9748c 2.0023,5.9843 4.0046,11.9687 6.0070 17.9530c -0.9711,0.3249 -1.9422,0.6498 -2.9132 0.9748c 1.3992,4.1817 2.7984,8.3634 4.1975 12.5451c 0.9711,-0.3249 1.9422,-0.6498 2.9133 -0.9748c 0.3919,1.1714 0.7839,2.3428 1.1758 3.5141c 16.6905,-5.5846 33.3810,-11.1691 50.0715 -16.7537c -0.3919,-1.1714 -0.7839,-2.3428 -1.1758 -3.5141c 0.9711,-0.3249 1.9422,-0.6498 2.9132 -0.9748c -1.3992,-4.1817 -2.7984,-8.3634 -4.1975 -12.5451c -0.9711,0.3249 -1.9422,0.6498 -2.9133 0.9748c -2.0023,-5.9843 -4.0047,-11.9687 -6.0070 -17.9530c 0.9711,-0.3249 1.9422,-0.6498 2.9133 -0.9748c -1.3992,-4.1817 -2.7984,-8.3634 -4.1975 -12.5451c -0.9711,0.3249 -1.9422,0.6498 -2.9133 0.9748c -0.3919,-1.1714 -0.7839,-2.3428 -1.1758 -3.5141c -16.6905,5.5846 -33.3810,11.1691 -50.0715 16.7537c 0.3919,1.1714 0.7839,2.3428 1.1758 3.5141c -0.9711,0.3249 -1.9422,0.6498 -2.9133 0.9748ZM 266.1115,168.5238 c 1.3992,4.1817 2.7984,8.3634 4.1975 12.5451c 0.9711,-0.3249 1.9422,-0.6498 2.9133 -0.9748c 2.0023,5.9843 4.0047,11.9687 6.0070 17.9530c -0.9711,0.3249 -1.9422,0.6498 -2.9132 0.9748c 1.3992,4.1817 2.7984,8.3634 4.1975 12.5451c 0.9711,-0.3249 1.9422,-0.6498 2.9133 -0.9748c 0.3919,1.1714 0.7839,2.3428 1.1758 3.5141c 16.6905,-5.5846 33.3810,-11.1691 50.0715 -16.7537c -0.3919,-1.1714 -0.7839,-2.3428 -1.1758 -3.5141c 0.9711,-0.3249 1.9422,-0.6498 2.9132 -0.9748c -1.3992,-4.1817 -2.7984,-8.3634 -4.1975 -12.5451c -0.9711,0.3249 -1.9422,0.6498 -2.9133 0.9748c -2.0023,-5.9843 -4.0047,-11.9687 -6.0070 -17.9530c 0.9711,-0.3249 1.9422,-0.6498 2.9133 -0.9748c -1.3992,-4.1817 -2.7984,-8.3634 -4.1975 -12.5451c -0.9711,0.3249 -1.9422,0.6498 -2.9133 0.9748c -0.3919,-1.1714 -0.7839,-2.3428 -1.1758 -3.5141c -16.6905,5.5846 -33.3810,11.1691 -50.0715 16.7537c 0.3919,1.1714 0.7839,2.3428 1.1758 3.5141c -0.9711,0.3249 -1.9422,0.6498 -2.9132 0.9748ZM 288.8975,236.6239 c 1.3992,4.1817 2.7984,8.3634 4.1975 12.5451c 0.9711,-0.3249 1.9422,-0.6498 2.9132 -0.9748c 2.0023,5.9843 4.0047,11.9687 6.0070 17.9530c -0.9711,0.3249 -1.9422,0.6498 -2.9133 0.9748c 1.3992,4.1817 2.7984,8.3634 4.1975 12.5451c 0.9711,-0.3249 1.9422,-0.6498 2.9132 -0.9748c 0.3919,1.1714 0.7839,2.3428 1.1758 3.5141c 16.6905,-5.5846 33.3810,-11.1691 50.0715 -16.7537c -0.3919,-1.1714 -0.7839,-2.3428 -1.1758 -3.5141c 0.9711,-0.3249 1.9422,-0.6498 2.9133 -0.9748c -1.3992,-4.1817 -2.7984,-8.3634 -4.1975 -12.5451c -0.9711,0.3249 -1.9422,0.6498 -2.9132 0.9748c -2.0023,-5.9843 -4.0047,-11.9687 -6.0070 -17.9530c 0.9711,-0.3249 1.9422,-0.6498 2.9133 -0.9748c -1.3992,-4.1817 -2.7984,-8.3634 -4.1975 -12.5451c -0.9711,0.3249 -1.9422,0.6498 -2.9133 0.9748c -0.3919,-1.1714 -0.7839,-2.3428 -1.1758 -3.5141c -16.6905,5.5846 -33.3810,11.1691 -50.0715 16.7537c 0.3919,1.1714 0.7839,2.3428 1.1758 3.5141c -0.9711,0.3249 -1.9422,0.6498 -2.9133 0.9748ZM 311.6834,304.7240 c 1.3992,4.1817 2.7984,8.3634 4.1975 12.5451c 0.9711,-0.3249 1.9422,-0.6498 2.9133 -0.9748c 2.0023,5.9843 4.0046,11.9687 6.0070 17.9530c -0.9711,0.3249 -1.9422,0.6498 -2.9132 0.9748c 1.3992,4.1817 2.7984,8.3634 4.1975 12.5451c 0.9711,-0.3249 1.9422,-0.6498 2.9133 -0.9748c 0.3919,1.1714 0.7839,2.3428 1.1758 3.5141c 16.6905,-5.5846 33.3810,-11.1691 50.0715 -16.7537c -0.3919,-1.1714 -0.7839,-2.3428 -1.1758 -3.5141c 0.9711,-0.3249 1.9422,-0.6498 2.9132 -0.9748c -1.3992,-4.1817 -2.7984,-8.3634 -4.1975 -12.5451c -0.9711,0.3249 -1.9422,0.6498 -2.9133 0.9748c -2.0023,-5.9843 -4.0047,-11.9687 -6.0070 -17.9530c 0.9711,-0.3249 1.9422,-0.6498 2.9133 -0.9748c -1.3992,-4.1817 -2.7984,-8.3634 -4.1975 -12.5451c -0.9711,0.3249 -1.9422,0.6498 -2.9133 0.9748c -0.3919,-1.1714 -0.7839,-2.3428 -1.1758 -3.5141c -16.6905,5.5846 -33.3810,11.1691 -50.0715 16.7537c 0.3919,1.1714 0.7839,2.3428 1.1758 3.5141c -0.9711,0.3249 -1.9422,0.6498 -2.9132 0.9748ZM 315.0234,88.3904 c 1.3992,4.1817 2.7984,8.3634 4.1975 12.5451c 0.9711,-0.3249 1.9422,-0.6498 2.9133 -0.9748c 2.0023,5.9843 4.0046,11.9687 6.0070 17.9530c -0.9711,0.3249 -1.9422,0.6498 -2.9132 0.9748c 1.3992,4.1817 2.7984,8.3634 4.1975 12.5451c 0.9711,-0.3249 1.9422,-0.6498 2.9133 -0.9748c 0.3919,1.1714 0.7839,2.3428 1.1758 3.5141c 16.6905,-5.5846 33.3810,-11.1691 50.0715 -16.7537c -0.3919,-1.1714 -0.7839,-2.3428 -1.1758 -3.5141c 0.9711,-0.3249 1.9422,-0.6498 2.9132 -0.9748c -1.3992,-4.1817 -2.7984,-8.3634 -4.1975 -12.5451c -0.9711,0.3249 -1.9422,0.6498 -2.9133 0.9748c -2.0023,-5.9843 -4.0047,-11.9687 -6.0070 -17.9530c 0.9711,-0.3249 1.9422,-0.6498 2.9133 -0.9748c -1.3992,-4.1817 -2.7984,-8.3634 -4.1975 -12.5451c -0.9711,0.3249 -1.9422,0.6498 -2.9132 0.9748c -0.3919,-1.1714 -0.7839,-2.3428 -1.1758 -3.5141c -16.6905,5.5846 -33.3810,11.1691 -50.0715 16.7537c 0.3919,1.1714 0.7839,2.3428 1.1758 3.5141c -0.9711,0.3249 -1.9422,0.6498 -2.9133 0.9748ZM 334.4694,372.8241 c 1.3992,4.1817 2.7984,8.3634 4.1975 12.5451c 0.9711,-0.3249 1.9422,-0.6498 2.9132 -0.9748c 2.0023,5.9843 4.0047,11.9687 6.0070 17.9530c -0.9711,0.3249 -1.9422,0.6498 -2.9133 0.9748c 1.3992,4.1817 2.7984,8.3634 4.1975 12.5451c 0.9711,-0.3249 1.9422,-0.6498 2.9132 -0.9748c 0.3919,1.1714 0.7839,2.3428 1.1758 3.5141c 16.6905,-5.5846 33.3810,-11.1691 50.0715 -16.7537c -0.3919,-1.1714 -0.7839,-2.3428 -1.1758 -3.5141c 0.9711,-0.3249 1.9422,-0.6498 2.9133 -0.9748c -1.3992,-4.1817 -2.7984,-8.3634 -4.1975 -12.5451c -0.9711,0.3249 -1.9422,0.6498 -2.9132 0.9748c -2.0023,-5.9843 -4.0047,-11.9687 -6.0070 -17.9530c 0.9711,-0.3249 1.9422,-0.6498 2.9133 -0.9748c -1.3992,-4.1817 -2.7984,-8.3634 -4.1975 -12.5451c -0.9711,0.3249 -1.9422,0.6498 -2.9133 0.9748c -0.3919,-1.1714 -0.7839,-2.3428 -1.1758 -3.5141c -16.6905,5.5846 -33.3810,11.1691 -50.0715 16.7537c 0.3919,1.1714 0.7839,2.3428 1.1758 3.5141c -0.9711,0.3249 -1.9422,0.6498 -2.9133 0.9748ZM 337.8094,156.4905 c 1.3992,4.1817 2.7984,8.3634 4.1975 12.5451c 0.9711,-0.3249 1.9422,-0.6498 2.9133 -0.9748c 2.0023,5.9843 4.0047,11.9687 6.0070 17.9530c -0.9711,0.3249 -1.9422,0.6498 -2.9133 0.9748c 1.3992,4.1817 2.7984,8.3634 4.1975 12.5451c 0.9711,-0.3249 1.9422,-0.6498 2.9132 -0.9748c 0.3919,1.1714 0.7839,2.3428 1.1758 3.5141c 16.6905,-5.5846 33.3810,-11.1691 50.0715 -16.7537c -0.3919,-1.1714 -0.7839,-2.3428 -1.1758 -3.5141c 0.9711,-0.3249 1.9422,-0.6498 2.9133 -0.9748c -1.3992,-4.1817 -2.7984,-8.3634 -4.1975 -12.5451c -0.9711,0.3249 -1.9422,0.6498 -2.9132 0.9748c -2.0023,-5.9843 -4.0047,-11.9687 -6.0070 -17.9530c 0.9711,-0.3249 1.9422,-0.6498 2.9132 -0.9748c -1.3992,-4.1817 -2.7984,-8.3634 -4.1975 -12.5451c -0.9711,0.3249 -1.9422,0.6498 -2.9133 0.9748c -0.3919,-1.1714 -0.7839,-2.3428 -1.1758 -3.5141c -16.6905,5.5846 -33.3810,11.1691 -50.0715 16.7537c 0.3919,1.1714 0.7839,2.3428 1.1758 3.5141c -0.9711,0.3249 -1.9422,0.6498 -2.9133 0.9748ZM 360.5953,224.5905 c 1.3992,4.1817 2.7984,8.3634 4.1975 12.5451c 0.9711,-0.3249 1.9422,-0.6498 2.9133 -0.9748c 2.0023,5.9843 4.0046,11.9687 6.0070 17.9530c -0.9711,0.3249 -1.9422,0.6498 -2.9132 0.9748c 1.3992,4.1817 2.7984,8.3634 4.1975 12.5451c 0.9711,-0.3249 1.9422,-0.6498 2.9133 -0.9748c 0.3919,1.1714 0.7839,2.3428 1.1758 3.5141c 16.6905,-5.5846 33.3810,-11.1691 50.0715 -16.7537c -0.3919,-1.1714 -0.7839,-2.3428 -1.1758 -3.5141c 0.9711,-0.3249 1.9422,-0.6498 2.9133 -0.9748c -1.3992,-4.1817 -2.7984,-8.3634 -4.1975 -12.5451c -0.9711,0.3249 -1.9422,0.6498 -2.9133 0.9748c -2.0023,-5.9843 -4.0047,-11.9687 -6.0070 -17.9530c 0.9711,-0.3249 1.9422,-0.6498 2.9133 -0.9748c -1.3992,-4.1817 -2.7984,-8.3634 -4.1975 -12.5451c -0.9711,0.3249 -1.9422,0.6498 -2.9132 0.9748c -0.3919,-1.1714 -0.7839,-2.3428 -1.1758 -3.5141c -16.6905,5.5846 -33.3810,11.1691 -50.0715 16.7537c 0.3919,1.1714 0.7839,2.3428 1.1758 3.5141c -0.9711,0.3249 -1.9422,0.6498 -2.9133 0.9748ZM 383.3813,292.6906 c 1.3992,4.1817 2.7984,8.3634 4.1975 12.5451c 0.9711,-0.3249 1.9422,-0.6498 2.9133 -0.9748c 2.0023,5.9843 4.0047,11.9687 6.0070 17.9530c -0.9711,0.3249 -1.9422,0.6498 -2.9133 0.9748c 1.3992,4.1817 2.7984,8.3634 4.1975 12.5451c 0.9711,-0.3249 1.9422,-0.6498 2.9132 -0.9748c 0.3919,1.1714 0.7839,2.3428 1.1758 3.5141c 16.6905,-5.5846 33.3810,-11.1691 50.0715 -16.7537c -0.3919,-1.1714 -0.7839,-2.3428 -1.1758 -3.5141c 0.9711,-0.3249 1.9422,-0.6498 2.9133 -0.9748c -1.3992,-4.1817 -2.7984,-8.3634 -4.1975 -12.5451c -0.9711,0.3249 -1.9422,0.6498 -2.9133 0.9748c -2.0023,-5.9843 -4.0046,-11.9687 -6.0070 -17.9530c 0.9711,-0.3249 1.9422,-0.6498 2.9132 -0.9748c -1.3992,-4.1817 -2.7984,-8.3634 -4.1975 -12.5451c -0.9711,0.3249 -1.9422,0.6498 -2.9133 0.9748c -0.3919,-1.1714 -0.7839,-2.3428 -1.1758 -3.5141c -16.6905,5.5846 -33.3810,11.1691 -50.0715 16.7537c 0.3919,1.1714 0.7839,2.3428 1.1758 3.5141c -0.9711,0.3249 -1.9422,0.6498 -2.9133 0.9748ZM 384.3228,69.1886 c 1.3992,4.1817 2.7984,8.3634 4.1975 12.5451c 0.9711,-0.3249 1.9422,-0.6498 2.9133 -0.9748c 2.0023,5.9843 4.0047,11.9687 6.0070 17.9530c -0.9711,0.3249 -1.9422,0.6498 -2.9133 0.9748c 1.3992,4.1817 2.7984,8.3634 4.1975 12.5451c 0.9711,-0.3249 1.9422,-0.6498 2.9133 -0.9748c 0.3919,1.1714 0.7839,2.3428 1.1758 3.5141c 16.6905,-5.5846 33.3810,-11.1691 50.0715 -16.7537c -0.3919,-1.1714 -0.7839,-2.3428 -1.1758 -3.5141c 0.9711,-0.3249 1.9422,-0.6498 2.9132 -0.9748c -1.3992,-4.1817 -2.7984,-8.3634 -4.1975 -12.5451c -0.9711,0.3249 -1.9422,0.6498 -2.9133 0.9748c -2.0023,-5.9843 -4.0047,-11.9687 -6.0070 -17.9530c 0.9711,-0.3249 1.9422,-0.6498 2.9132 -0.9748c -1.3992,-4.1817 -2.7984,-8.3634 -4.1975 -12.5451c -0.9711,0.3249 -1.9422,0.6498 -2.9133 0.9748c -0.3919,-1.1714 -0.7839,-2.3428 -1.1758 -3.5141c -16.6905,5.5846 -33.3810,11.1691 -50.0715 16.7537c 0.3919,1.1714 0.7839,2.3428 1.1758 3.5141c -0.9711,0.3249 -1.9422,0.6498 -2.9132 0.9748ZM 406.1673,360.7907 c 1.3992,4.1817 2.7984,8.3634 4.1975 12.5451c 0.9711,-0.3249 1.9422,-0.6498 2.9133 -0.9748c 2.0023,5.9843 4.0046,11.9687 6.0070 17.9530c -0.9711,0.3249 -1.9422,0.6498 -2.9132 0.9748c 1.3992,4.1817 2.7984,8.3634 4.1975 12.5451c 0.9711,-0.3249 1.9422,-0.6498 2.9133 -0.9748c 0.3919,1.1714 0.7839,2.3428 1.1758 3.5141c 16.6905,-5.5846 33.3810,-11.1691 50.0715 -16.7537c -0.3919,-1.1714 -0.7839,-2.3428 -1.1758 -3.5141c 0.9711,-0.3249 1.9422,-0.6498 2.9133 -0.9748c -1.3992,-4.1817 -2.7984,-8.3634 -4.1975 -12.5451c -0.9711,0.3249 -1.9422,0.6498 -2.9133 0.9748c -2.0023,-5.9843 -4.0047,-11.9687 -6.0070 -17.9530c 0.9711,-0.3249 1.9422,-0.6498 2.9133 -0.9748c -1.3992,-4.1817 -2.7984,-8.3634 -4.1975 -12.5451c -0.9711,0.3249 -1.9422,0.6498 -2.9132 0.9748c -0.3919,-1.1714 -0.7839,-2.3428 -1.1758 -3.5141c -16.6905,5.5846 -33.3810,11.1691 -50.0715 16.7537c 0.3919,1.1714 0.7839,2.3428 1.1758 3.5141c -0.9711,0.3249 -1.9422,0.6498 -2.9133 0.9748ZM 407.1087,137.2887 c 1.3992,4.1817 2.7984,8.3634 4.1975 12.5451c 0.9711,-0.3249 1.9422,-0.6498 2.9132 -0.9748c 2.0023,5.9843 4.0047,11.9687 6.0070 17.9530c -0.9711,0.3249 -1.9422,0.6498 -2.9133 0.9748c 1.3992,4.1817 2.7984,8.3634 4.1975 12.5451c 0.9711,-0.3249 1.9422,-0.6498 2.9133 -0.9748c 0.3919,1.1714 0.7839,2.3428 1.1758 3.5141c 16.6905,-5.5846 33.3810,-11.1691 50.0715 -16.7537c -0.3919,-1.1714 -0.7839,-2.3428 -1.1758 -3.5141c 0.9711,-0.3249 1.9422,-0.6498 2.9133 -0.9748c -1.3992,-4.1817 -2.7984,-8.3634 -4.1975 -12.5451c -0.9711,0.3249 -1.9422,0.6498 -2.9132 0.9748c -2.0023,-5.9843 -4.0047,-11.9687 -6.0070 -17.9530c 0.9711,-0.3249 1.9422,-0.6498 2.9133 -0.9748c -1.3992,-4.1817 -2.7984,-8.3634 -4.1975 -12.5451c -0.9711,0.3249 -1.9422,0.6498 -2.9132 0.9748c -0.3919,-1.1714 -0.7839,-2.3428 -1.1758 -3.5141c -16.6905,5.5846 -33.3810,11.1691 -50.0715 16.7537c 0.3919,1.1714 0.7839,2.3428 1.1758 3.5141c -0.9711,0.3249 -1.9422,0.6498 -2.9133 0.9748ZM 429.8947,205.3888 c 1.3992,4.1817 2.7984,8.3634 4.1975 12.5451c 0.9711,-0.3249 1.9422,-0.6498 2.9133 -0.9748c 2.0023,5.9843 4.0047,11.9687 6.0070 17.9530c -0.9711,0.3249 -1.9422,0.6498 -2.9132 0.9748c 1.3992,4.1817 2.7984,8.3634 4.1975 12.5451c 0.9711,-0.3249 1.9422,-0.6498 2.9133 -0.9748c 0.3919,1.1714 0.7839,2.3428 1.1758 3.5141c 16.6905,-5.5846 33.3810,-11.1691 50.0715 -16.7537c -0.3919,-1.1714 -0.7839,-2.3428 -1.1758 -3.5141c 0.9711,-0.3249 1.9422,-0.6498 2.9132 -0.9748c -1.3992,-4.1817 -2.7984,-8.3634 -4.1975 -12.5451c -0.9711,0.3249 -1.9422,0.6498 -2.9133 0.9748c -2.0023,-5.9843 -4.0047,-11.9687 -6.0070 -17.9530c 0.9711,-0.3249 1.9422,-0.6498 2.9132 -0.9748c -1.3992,-4.1817 -2.7984,-8.3634 -4.1975 -12.5451c -0.9711,0.3249 -1.9422,0.6498 -2.9133 0.9748c -0.3919,-1.1714 -0.7839,-2.3428 -1.1758 -3.5141c -16.6905,5.5846 -33.3810,11.1691 -50.0715 16.7537c 0.3919,1.1714 0.7839,2.3428 1.1758 3.5141c -0.9711,0.3249 -1.9422,0.6498 -2.9132 0.9748ZM 452.6807,273.4889 c 1.3992,4.1817 2.7984,8.3634 4.1975 12.5451c 0.9711,-0.3249 1.9422,-0.6498 2.9132 -0.9748c 2.0023,5.9843 4.0047,11.9687 6.0070 17.9530c -0.9711,0.3249 -1.9422,0.6498 -2.9133 0.9748c 1.3992,4.1817 2.7984,8.3634 4.1975 12.5451c 0.9711,-0.3249 1.9422,-0.6498 2.9132 -0.9748c 0.3919,1.1714 0.7839,2.3428 1.1758 3.5141c 16.6905,-5.5846 33.3810,-11.1691 50.0715 -16.7537c -0.3919,-1.1714 -0.7839,-2.3428 -1.1758 -3.5141c 0.9711,-0.3249 1.9422,-0.6498 2.9133 -0.9748c -1.3992,-4.1817 -2.7984,-8.3634 -4.1975 -12.5451c -0.9711,0.3249 -1.9422,0.6498 -2.9132 0.9748c -2.0023,-5.9843 -4.0047,-11.9687 -6.0070 -17.9530c 0.9711,-0.3249 1.9422,-0.6498 2.9133 -0.9748c -1.3992,-4.1817 -2.7984,-8.3634 -4.1975 -12.5451c -0.9711,0.3249 -1.9422,0.6498 -2.9133 0.9748c -0.3919,-1.1714 -0.7839,-2.3428 -1.1758 -3.5141c -16.6905,5.5846 -33.3810,11.1691 -50.0715 16.7537c 0.3919,1.1714 0.7839,2.3428 1.1758 3.5141c -0.9711,0.3249 -1.9422,0.6498 -2.9133 0.9748ZM 475.4666,341.5890 c 1.3992,4.1817 2.7984,8.3634 4.1975 12.5451c 0.9711,-0.3249 1.9422,-0.6498 2.9133 -0.9748c 2.0023,5.9843 4.0047,11.9687 6.0070 17.9530c -0.9711,0.3249 -1.9422,0.6498 -2.9132 0.9748c 1.3992,4.1817 2.7984,8.3634 4.1975 12.5451c 0.9711,-0.3249 1.9422,-0.6498 2.9133 -0.9748c 0.3919,1.1714 0.7839,2.3428 1.1758 3.5141c 16.6905,-5.5846 33.3810,-11.1691 50.0715 -16.7537c -0.3919,-1.1714 -0.7839,-2.3428 -1.1758 -3.5141c 0.9711,-0.3249 1.9422,-0.6498 2.9132 -0.9748c -1.3992,-4.1817 -2.7984,-8.3634 -4.1975 -12.5451c -0.9711,0.3249 -1.9422,0.6498 -2.9133 0.9748c -2.0023,-5.9843 -4.0047,-11.9687 -6.0070 -17.9530c 0.9711,-0.3249 1.9422,-0.6498 2.9133 -0.9748c -1.3992,-4.1817 -2.7984,-8.3634 -4.1975 -12.5451c -0.9711,0.3249 -1.9422,0.6498 -2.9133 0.9748c -0.3919,-1.1714 -0.7839,-2.3428 -1.1758 -3.5141c -16.6905,5.5846 -33.3810,11.1691 -50.0715 16.7537c 0.3919,1.1714 0.7839,2.3428 1.1758 3.5141c -0.9711,0.3249 -1.9422,0.6498 -2.9132 0.9748ZM 147.4699,536.4602 c 0.0000,-3.1311 -2.5382,-5.6693 -5.6693 -5.6693c -3.1311,-0.0000 -5.6693,2.5382 -5.6693 5.6693c 0.0000,3.1311 2.5382,5.6693 5.6693 5.6693c 3.1311,0.0000 5.6693,-2.5382 5.6693 -5.6693ZM 577.8889,384.4731 c 0.0000,-3.1311 -2.5382,-5.6693 -5.6693 -5.6693c -3.1311,-0.0000 -5.6693,2.5382 -5.6693 5.6693c 0.0000,3.1311 2.5382,5.6693 5.6693 5.6693c 3.1311,0.0000 5.6693,-2.5382 5.6693 -5.6693ZM 70.2864,152.3854 c 0.0000,-3.1311 -2.5382,-5.6693 -5.6693 -5.6693c -3.1311,-0.0000 -5.6693,2.5382 -5.6693 5.6693c 0.0000,3.1311 2.5382,5.6693 5.6693 5.6693c 3.1311,0.0000 5.6693,-2.5382 5.6693 -5.6693ZM 455.8562,19.7556 c 0.0000,-3.1311 -2.5382,-5.6693 -5.6693 -5.6693c -3.1311,-0.0000 -5.6693,2.5382 -5.6693 5.6693c 0.0000,3.1311 2.5382,5.6693 5.6693 5.6693c 3.1311,0.0000 5.6693,-2.5382 5.6693 -5.6693Z"/></g><g stroke-linejoin="miter" stroke-opacity="1.0" fill-opacity="0.5" stroke="rgb(0,0,0)" stroke-width="0.37795275590551186" fill="rgb(0,0,255)" stroke-linecap="butt" stroke-miterlimit="10.0"><path d="M 3.9685,178.9407 c 0.0000,-12.6088 8.0272,-24.4520 20.6432 -28.6732c 13.8396,-4.6307 27.6792,-9.2613 41.5187 -13.8920c 0.7444,-11.8996 8.5911,-22.8020 20.5851 -26.8151c 13.4451,-4.4987 26.8901,-8.9973 40.3352 -13.4960c -0.0495,-0.7083 -0.0738,-1.4159 -0.0738 -2.1220c 0.0000,-12.6088 8.0273,-24.4521 20.6433 -28.6733c 23.5602,-7.8831 47.1205,-15.7663 70.6807 -23.6494c 11.9542,-3.9998 24.7718,-0.0093 32.5597 9.0331c 13.8456,-4.6327 27.6911,-9.2653 41.5367 -13.8980c 8.9890,-3.0077 18.4663,-1.4974 25.9261 3.2817c 15.2573,-5.1050 30.5145,-10.2100 45.7718 -15.3150c 4.9997,-1.6729 10.1504,-1.9480 15.0211 -1.0405c 18.0927,-6.0537 36.1855,-12.1075 54.2782 -18.1613c 15.7496,-5.2698 32.9981,3.3300 38.2678 19.0796c 7.5947,22.6982 15.1894,45.3964 22.7841 68.0945c 0.0006,0.0019 0.0012,0.0037 0.0019 0.0056c 0.2878,0.8603 0.5757,1.7205 0.8635 2.5808c 7.3075,21.8398 14.6150,43.6796 21.9225 65.5195c 0.2878,0.8602 0.5756,1.7204 0.8635 2.5806c 7.3075,21.8398 14.6150,43.6796 21.9225 65.5195c 0.2878,0.8603 0.5757,1.7205 0.8635 2.5808c 7.3069,21.8379 14.6137,43.6758 21.9206 65.5137c 0.0007,0.0019 0.0013,0.0039 0.0020 0.0058c 0.2878,0.8603 0.5757,1.7206 0.8635 2.5808c 7.5953,22.7000 15.1906,45.4001 22.7860 68.1001c 1.0674,3.1902 1.5635,6.4062 1.5635 9.5946c 0.0000,12.6087 -8.0272,24.4520 -20.6432 28.6732c -23.5602,7.8831 -47.1205,15.7663 -70.6807 23.6494c -4.9997,1.6729 -10.1504,1.9481 -15.0211 1.0405c -18.0928,6.0538 -36.1855,12.1075 -54.2783 18.1613c -8.9890,3.0077 -18.4663,1.4973 -25.9261 -3.2817c -15.2573,5.1050 -30.5145,10.2100 -45.7718 15.3150c -11.9542,3.9998 -24.7718,0.0093 -32.5597 -9.0331c -3.7304,1.2482 -7.4608,2.4963 -11.1912 3.7445c 0.0495,0.7083 0.0738,1.4159 0.0738 2.1221c 0.0000,12.6088 -8.0272,24.4520 -20.6432 28.6732c -13.8396,4.6307 -27.6791,9.2613 -41.5187 13.8920c -0.7444,11.8997 -8.5910,22.8020 -20.5852 26.8151c -23.5602,7.8831 -47.1205,15.7663 -70.6807 23.6494c -13.7032,4.5850 -28.5412,-1.3295 -35.6366 -13.3176c -13.3529,4.4678 -26.7058,8.9356 -40.0587 13.4035c -15.7496,5.2697 -32.9981,-3.3300 -38.2678 -19.0796c -7.8831,-23.5602 -15.7663,-47.1205 -23.6494 -70.6807c -1.0674,-3.1902 -1.5635,-6.4061 -1.5635 -9.5946c 0.0000,-12.6088 8.0272,-24.4520 20.6431 -28.6732c 13.1421,-4.3973 26.2842,-8.7946 39.4264 -13.1919c -1.5777,-4.7152 -3.1554,-9.4305 -4.7331 -14.1457c -0.2878,-0.8602 -0.5756,-1.7204 -0.8635 -2.5806c -0.0006,-0.0017 -0.0011,-0.0034 -0.0017 -0.0051c -7.3069,-21.8381 -14.6139,-43.6762 -21.9208 -65.5143c -0.2878,-0.8603 -0.5757,-1.7206 -0.8635 -2.5808c -7.3075,-21.8398 -14.6150,-43.6796 -21.9225 -65.5195c -0.2878,-0.8602 -0.5756,-1.7204 -0.8635 -2.5806c -0.0004,-0.0011 -0.0007,-0.0022 -0.0011 -0.0033c -7.5950,-22.6990 -15.1899,-45.3979 -22.7849 -68.0968c -1.0674,-3.1902 -1.5635,-6.4062 -1.5638 -9.5950ZM 30.4252,178.9407 c 0.0000,0.3976 0.0632,0.8020 0.1963 1.1998c 7.5950,22.6989 15.1899,45.3979 22.7849 68.0968c 0.0004,0.0011 0.0007,0.0022 0.0011 0.0033c 0.2878,0.8602 0.5756,1.7204 0.8635 2.5806c 7.3075,21.8398 14.6150,43.6796 21.9225 65.5195c 0.2878,0.8602 0.5756,1.7204 0.8635 2.5806c 7.3069,21.8381 14.6139,43.6762 21.9208 65.5143c 0.0006,0.0017 0.0011,0.0034 0.0017 0.0051c 0.2878,0.8602 0.5756,1.7204 0.8635 2.5806c 1.5778,4.7155 3.1555,9.4309 4.7333 14.1463c 2.7982,8.3630 5.5964,16.7259 8.3946 25.0889c -8.3631,2.7983 -16.7263,5.5965 -25.0894 8.3948c -13.1421,4.3973 -26.2843,8.7946 -39.4264 13.1919c -1.5817,0.5292 -2.5813,2.0029 -2.5813 3.5837c 0.0000,0.3976 0.0632,0.8019 0.1963 1.1998c 7.8831,23.5602 15.7663,47.1205 23.6494 70.6807c 0.6623,1.9795 2.8040,3.0473 4.7835 2.3850c 13.1422,-4.3973 26.2843,-8.7946 39.4265 -13.1919c 8.3631,-2.7983 16.7263,-5.5965 25.0894 -8.3948c 2.1320,6.3719 4.2640,12.7439 6.3961 19.1158c 0.6623,1.9795 2.8040,3.0473 4.7835 2.3850c 2.3724,-0.7938 4.7448,-1.5876 7.1172 -2.3814c 16.5294,-5.5307 33.0588,-11.0613 49.5882 -16.5920c 4.6584,-1.5587 9.3169,-3.1174 13.9753 -4.6761c 1.5817,-0.5292 2.5813,-2.0029 2.5813 -3.5837c 0.0000,-0.3976 -0.0632,-0.8019 -0.1963 -1.1998c -1.5990,-4.7790 -3.1980,-9.5579 -4.7970 -14.3369c 8.3632,-2.7983 16.7264,-5.5966 25.0897 -8.3949c 10.0264,-3.3548 20.0528,-6.7096 30.0791 -10.0643c 3.1157,-1.0425 6.2314,-2.0850 9.3471 -3.1275c 1.5817,-0.5292 2.5813,-2.0029 2.5813 -3.5837c 0.0000,-0.3976 -0.0632,-0.8020 -0.1963 -1.1998c -1.9988,-5.9737 -3.9975,-11.9474 -5.9963 -17.9211c 8.3632,-2.7983 16.7264,-5.5966 25.0896 -8.3949c 2.7240,-0.9114 5.4480,-1.8229 8.1720 -2.7343c 8.3631,-2.7983 16.7263,-5.5965 25.0894 -8.3948c 1.5990,4.7789 3.1980,9.5579 4.7970 14.3369c 0.6623,1.9795 2.8040,3.0473 4.7835 2.3850c 4.6585,-1.5587 9.3171,-3.1174 13.9756 -4.6762c 8.4836,-2.8386 16.9672,-5.6772 25.4509 -8.5157c 8.3631,-2.7983 16.7263,-5.5965 25.0894 -8.3948c 0.7995,2.3895 1.5990,4.7790 2.3985 7.1684c 0.6623,1.9795 2.8040,3.0473 4.7835 2.3850c 6.3637,-2.1293 12.7275,-4.2586 19.0912 -6.3878c 6.7784,-2.2680 13.5568,-4.5360 20.3352 -6.8041c 8.3631,-2.7983 16.7263,-5.5965 25.0894 -8.3948c 0.6623,1.9795 2.8040,3.0473 4.7835 2.3850c 7.0838,-2.3702 14.1676,-4.7404 21.2514 -7.1106c 16.4765,-5.5129 32.9529,-11.0259 49.4293 -16.5388c 1.5817,-0.5292 2.5813,-2.0029 2.5813 -3.5837c 0.0000,-0.3976 -0.0632,-0.8020 -0.1963 -1.1998c -7.5953,-22.7000 -15.1906,-45.4001 -22.7860 -68.1001c -0.2878,-0.8602 -0.5756,-1.7204 -0.8635 -2.5806c -0.0007,-0.0019 -0.0013,-0.0039 -0.0020 -0.0058c -7.3068,-21.8379 -14.6137,-43.6758 -21.9206 -65.5137c -0.2878,-0.8602 -0.5756,-1.7204 -0.8635 -2.5806c -7.3075,-21.8398 -14.6150,-43.6796 -21.9225 -65.5195c -0.2878,-0.8602 -0.5756,-1.7204 -0.8635 -2.5806c -7.3075,-21.8398 -14.6150,-43.6796 -21.9225 -65.5195c -0.2878,-0.8602 -0.5756,-1.7204 -0.8635 -2.5806c -0.0006,-0.0019 -0.0012,-0.0037 -0.0019 -0.0056c -7.5947,-22.6982 -15.1894,-45.3964 -22.7841 -68.0945c -0.6623,-1.9795 -2.8040,-3.0473 -4.7835 -2.3850c -13.1421,4.3973 -26.2842,8.7946 -39.4263 13.1919c -8.3632,2.7983 -16.7264,5.5966 -25.0896 8.3949c -0.6623,-1.9795 -2.8040,-3.0473 -4.7835 -2.3850c -7.0837,2.3702 -14.1674,4.7404 -21.2511 7.1105c -6.0584,2.0271 -12.1167,4.0542 -18.1751 6.0813c -8.3632,2.7983 -16.7264,5.5966 -25.0897 8.3949c -0.7995,-2.3895 -1.5990,-4.7790 -2.3985 -7.1684c -0.6623,-1.9795 -2.8040,-3.0473 -4.7835 -2.3850c -6.3636,2.1292 -12.7271,4.2584 -19.0907 6.3877c -6.7785,2.2681 -13.5570,4.5361 -20.3355 6.8042c -8.3632,2.7983 -16.7264,5.5966 -25.0896 8.3949c -1.5990,-4.7790 -3.1980,-9.5579 -4.7970 -14.3369c -0.6623,-1.9795 -2.8040,-3.0473 -4.7835 -2.3850c -4.6582,1.5586 -9.3164,3.1172 -13.9746 4.6758c -15.7866,5.2821 -31.5733,10.5643 -47.3599 15.8464c -3.1154,1.0424 -6.2308,2.0848 -9.3462 3.1272c -1.5817,0.5292 -2.5813,2.0029 -2.5813 3.5837c 0.0000,0.3976 0.0632,0.8019 0.1963 1.1998c 1.9988,5.9737 3.9975,11.9474 5.9963 17.9211c -8.3631,2.7983 -16.7263,5.5965 -25.0894 8.3948c -8.4839,2.8387 -16.9678,5.6773 -25.4517 8.5160c -4.6583,1.5586 -9.3165,3.1173 -13.9748 4.6759c -1.5817,0.5292 -2.5813,2.0029 -2.5813 3.5837c 0.0000,0.3976 0.0632,0.8019 0.1963 1.1998c 1.5990,4.7790 3.1980,9.5579 4.7971 14.3369c -8.3632,2.7983 -16.7263,5.5965 -25.0895 8.3948c -13.1421,4.3973 -26.2843,8.7946 -39.4264 13.1919c -1.5817,0.5292 -2.5813,2.0029 -2.5813 3.5837ZM 147.4699,536.4602 c 0.0000,-3.1311 -2.5382,-5.6693 -5.6693 -5.6693c -3.1311,-0.0000 -5.6693,2.5382 -5.6693 5.6693c 0.0000,3.1311 2.5382,5.6693 5.6693 5.6693c 3.1311,0.0000 5.6693,-2.5382 5.6693 -5.6693ZM 577.8889,384.4731 c 0.0000,-3.1311 -2.5382,-5.6693 -5.6693 -5.6693c -3.1311,-0.0000 -5.6693,2.5382 -5.6693 5.6693c 0.0000,3.1311 2.5382,5.6693 5.6693 5.6693c 3.1311,0.0000 5.6693,-2.5382 5.6693 -5.6693ZM 70.2864,152.3854 c 0.0000,-3.1311 -2.5382,-5.6693 -5.6693 -5.6693c -3.1311,-0.0000 -5.6693,2.5382 -5.6693 5.6693c 0.0000,3.1311 2.5382,5.6693 5.6693 5.6693c 3.1311,0.0000 5.6693,-2.5382 5.6693 -5.6693ZM 455.8562,19.7556 c 0.0000,-3.1311 -2.5382,-5.6693 -5.6693 -5.6693c -3.1311,-0.0000 -5.6693,2.5382 -5.6693 5.6693c 0.0000,3.1311 2.5382,5.6693 5.6693 5.6693c 3.1311,0.0000 5.6693,-2.5382 5.6693 -5.6693Z"/></g><g stroke-linejoin="miter" stroke-opacity="1.0" fill-opacity="0.7" stroke="rgb(0,0,0)" stroke-width="0.37795275590551186" fill="rgb(0,0,0)" stroke-linecap="butt" stroke-miterlimit="10.0"><path d="M 139.0745,490.0383 l -17.5932,-52.5804 c -1.3247,-3.9590 -5.6079,-6.0946 -9.5670 -4.7699l -52.5804,17.5932 c -3.9590,1.3247 -6.0946,5.6079 -4.7699 9.5670l 17.5932,52.5804 c 1.3247,3.9590 5.6079,6.0946 9.5670 4.7699l 52.5804,-17.5932 c 3.9590,-1.3247 6.0946,-5.6079 4.7699 -9.5670Z"/></g><defs><linearGradient x2="5.0000" y1="0.0000" gradientUnits="userSpaceOnUse" spreadMethod="pad" gradientTransform="matrix(3.5842,-1.1993,-1.1993,-3.5842,96.8193,474.9432)" id="gradient10" y2="0.0000" x1="-5.0000"><stop stop-opacity="0.1000" offset="0.0000" stop-color="rgb(0,0,0)"/><stop stop-opacity="0.1000" offset="0.5000" stop-color="rgb(255,255,255)"/><stop stop-opacity="0.1000" offset="1.0000" stop-color="rgb(0,0,0)"/></linearGradient></defs><g stroke-linejoin="miter" stroke-opacity="1.0" fill-opacity="1" stroke="rgb(0,0,0)" stroke-width="0.37795275590551186" fill="url(#gradient10)" stroke-linecap="butt" stroke-miterlimit="10.0"><path d="M 125.4416,483.2412 l -10.7574,-32.1504 c -1.3247,-3.9590 -5.6079,-6.0946 -9.5670 -4.7699l -32.1504,10.7574 c -3.9590,1.3247 -6.0946,5.6079 -4.7699 9.5670l 10.7574,32.1504 c 1.3247,3.9590 5.6079,6.0946 9.5670 4.7699l 32.1504,-10.7574 c 3.9590,-1.3247 6.0946,-5.6079 4.7699 -9.5670Z"/></g><g stroke-linejoin="miter" stroke-opacity="1.0" fill-opacity="0.7" stroke="rgb(0,0,0)" stroke-width="0.37795275590551186" fill="rgb(0,0,0)" stroke-linecap="butt" stroke-miterlimit="10.0"><path d="M 461.7280,96.4537 l -17.5932,-52.5804 c -1.3247,-3.9590 -5.6079,-6.0946 -9.5670 -4.7699l -52.5804,17.5932 c -3.9590,1.3247 -6.0946,5.6079 -4.7699 9.5670l 17.5932,52.5804 c 1.3247,3.9590 5.6079,6.0946 9.5670 4.7699l 52.5804,-17.5932 c 3.9590,-1.3247 6.0946,-5.6079 4.7699 -9.5670Z"/></g><defs><linearGradient x2="5.0000" y1="0.0000" gradientUnits="userSpaceOnUse" spreadMethod="pad" gradientTransform="matrix(3.5842,-1.1993,-1.1993,-3.5842,419.4728,81.3586)" id="gradient14" y2="0.0000" x1="-5.0000"><stop stop-opacity="0.1000" offset="0.0000" stop-color="rgb(0,0,0)"/><stop stop-opacity="0.1000" offset="0.5000" stop-color="rgb(255,255,255)"/><stop stop-opacity="0.1000" offset="1.0000" stop-color="rgb(0,0,0)"/></linearGradient></defs><g stroke-linejoin="miter" stroke-opacity="1.0" fill-opacity="1" stroke="rgb(0,0,0)" stroke-width="0.37795275590551186" fill="url(#gradient14)" stroke-linecap="butt" stroke-miterlimit="10.0"><path d="M 448.0951,89.6566 l -10.7574,-32.1504 c -1.3247,-3.9590 -5.6079,-6.0946 -9.5670 -4.7699l -32.1504,10.7574 c -3.9590,1.3247 -6.0946,5.6079 -4.7699 9.5670l 10.7574,32.1504 c 1.3247,3.9590 5.6079,6.0946 9.5670 4.7699l 32.1504,-10.7574 c 3.9590,-1.3247 6.0946,-5.6079 4.7699 -9.5670Z"/></g><g stroke-linejoin="miter" stroke-opacity="1.0" fill-opacity="0.7" stroke="rgb(0,0,0)" stroke-width="0.37795275590551186" fill="rgb(0,0,0)" stroke-linecap="butt" stroke-miterlimit="10.0"><path d="M 484.5140,164.5538 l -17.5932,-52.5804 c -1.3247,-3.9590 -5.6079,-6.0946 -9.5670 -4.7699l -52.5804,17.5932 c -3.9590,1.3247 -6.0946,5.6079 -4.7699 9.5670l 17.5932,52.5804 c 1.3247,3.9590 5.6079,6.0946 9.5670 4.7699l 52.5804,-17.5932 c 3.9590,-1.3247 6.0946,-5.6079 4.7699 -9.5670Z"/></g><defs><linearGradient x2="5.0000" y1="0.0000" gradientUnits="userSpaceOnUse" spreadMethod="pad" gradientTransform="matrix(3.5842,-1.1993,-1.1993,-3.5842,442.2587,149.4587)" id="gradient18" y2="0.0000" x1="-5.0000"><stop stop-opacity="0.1000" offset="0.0000" stop-color="rgb(0,0,0)"/><stop stop-opacity="0.1000" offset="0.5000" stop-color="rgb(255,255,255)"/><stop stop-opacity="0.1000" offset="1.0000" stop-color="rgb(0,0,0)"/></linearGradient></defs><g stroke-linejoin="miter" stroke-opacity="1.0" fill-opacity="1" stroke="rgb(0,0,0)" stroke-width="0.37795275590551186" fill="url(#gradient18)" stroke-linecap="butt" stroke-miterlimit="10.0"><path d="M 470.8811,157.7567 l -10.7574,-32.1504 c -1.3247,-3.9590 -5.6079,-6.0946 -9.5670 -4.7699l -32.1504,10.7574 c -3.9590,1.3247 -6.0946,5.6079 -4.7699 9.5670l 10.7574,32.1504 c 1.3247,3.9590 5.6079,6.0946 9.5670 4.7699l 32.1504,-10.7574 c 3.9590,-1.3247 6.0946,-5.6079 4.7699 -9.5670Z"/></g><g stroke-linejoin="miter" stroke-opacity="1.0" fill-opacity="0.7" stroke="rgb(0,0,0)" stroke-width="0.37795275590551186" fill="rgb(0,0,0)" stroke-linecap="butt" stroke-miterlimit="10.0"><path d="M 507.3000,232.6539 l -17.5932,-52.5804 c -1.3247,-3.9590 -5.6079,-6.0946 -9.5670 -4.7699l -52.5804,17.5932 c -3.9590,1.3247 -6.0946,5.6079 -4.7699 9.5670l 17.5932,52.5804 c 1.3247,3.9590 5.6079,6.0946 9.5670 4.7699l 52.5804,-17.5932 c 3.9590,-1.3247 6.0946,-5.6079 4.7699 -9.5670Z"/></g><defs><linearGradient x2="5.0000" y1="0.0000" gradientUnits="userSpaceOnUse" spreadMethod="pad" gradientTransform="matrix(3.5842,-1.1993,-1.1993,-3.5842,465.0447,217.5588)" id="gradient22" y2="0.0000" x1="-5.0000"><stop stop-opacity="0.1000" offset="0.0000" stop-color="rgb(0,0,0)"/><stop stop-opacity="0.1000" offset="0.5000" stop-color="rgb(255,255,255)"/><stop stop-opacity="0.1000" offset="1.0000" stop-color="rgb(0,0,0)"/></linearGradient></defs><g stroke-linejoin="miter" stroke-opacity="1.0" fill-opacity="1" stroke="rgb(0,0,0)" stroke-width="0.37795275590551186" fill="url(#gradient22)" stroke-linecap="butt" stroke-miterlimit="10.0"><path d="M 493.6670,225.8568 l -10.7574,-32.1504 c -1.3247,-3.9590 -5.6079,-6.0946 -9.5670 -4.7699l -32.1504,10.7574 c -3.9590,1.3247 -6.0946,5.6079 -4.7699 9.5670l 10.7574,32.1504 c 1.3247,3.9590 5.6079,6.0946 9.5670 4.7699l 32.1504,-10.7574 c 3.9590,-1.3247 6.0946,-5.6079 4.7699 -9.5670Z"/></g><g stroke-linejoin="miter" stroke-opacity="1.0" fill-opacity="0.7" stroke="rgb(0,0,0)" stroke-width="0.37795275590551186" fill="rgb(0,0,0)" stroke-linecap="butt" stroke-miterlimit="10.0"><path d="M 530.0859,300.7540 l -17.5932,-52.5804 c -1.3247,-3.9590 -5.6079,-6.0946 -9.5670 -4.7699l -52.5804,17.5932 c -3.9590,1.3247 -6.0946,5.6079 -4.7699 9.5670l 17.5932,52.5804 c 1.3247,3.9590 5.6079,6.0946 9.5670 4.7699l 52.5804,-17.5932 c 3.9590,-1.3247 6.0946,-5.6079 4.7699 -9.5670Z"/></g><defs><linearGradient x2="5.0000" y1="0.0000" gradientUnits="userSpaceOnUse" spreadMethod="pad" gradientTransform="matrix(3.5842,-1.1993,-1.1993,-3.5842,487.8307,285.6589)" id="gradient26" y2="0.0000" x1="-5.0000"><stop stop-opacity="0.1000" offset="0.0000" stop-color="rgb(0,0,0)"/><stop stop-opacity="0.1000" offset="0.5000" stop-color="rgb(255,255,255)"/><stop stop-opacity="0.1000" offset="1.0000" stop-color="rgb(0,0,0)"/></linearGradient></defs><g stroke-linejoin="miter" stroke-opacity="1.0" fill-opacity="1" stroke="rgb(0,0,0)" stroke-width="0.37795275590551186" fill="url(#gradient26)" stroke-linecap="butt" stroke-miterlimit="10.0"><path d="M 516.4530,293.9569 l -10.7574,-32.1504 c -1.3247,-3.9590 -5.6079,-6.0946 -9.5670 -4.7699l -32.1504,10.7574 c -3.9590,1.3247 -6.0946,5.6079 -4.7699 9.5670l 10.7574,32.1504 c 1.3247,3.9590 5.6079,6.0946 9.5670 4.7699l 32.1504,-10.7574 c 3.9590,-1.3247 6.0946,-5.6079 4.7699 -9.5670Z"/></g><g stroke-linejoin="miter" stroke-opacity="1.0" fill-opacity="0.7" stroke="rgb(0,0,0)" stroke-width="0.37795275590551186" fill="rgb(0,0,0)" stroke-linecap="butt" stroke-miterlimit="10.0"><path d="M 552.8719,368.8541 l -17.5932,-52.5804 c -1.3247,-3.9590 -5.6079,-6.0946 -9.5670 -4.7699l -52.5804,17.5932 c -3.9590,1.3247 -6.0946,5.6079 -4.7699 9.5670l 17.5932,52.5804 c 1.3247,3.9590 5.6079,6.0946 9.5670 4.7699l 52.5804,-17.5932 c 3.9590,-1.3247 6.0946,-5.6079 4.7699 -9.5670Z"/></g><defs><linearGradient x2="5.0000" y1="0.0000" gradientUnits="userSpaceOnUse" spreadMethod="pad" gradientTransform="matrix(3.5842,-1.1993,-1.1993,-3.5842,510.6167,353.7590)" id="gradient30" y2="0.0000" x1="-5.0000"><stop stop-opacity="0.1000" offset="0.0000" stop-color="rgb(0,0,0)"/><stop stop-opacity="0.1000" offset="0.5000" stop-color="rgb(255,255,255)"/><stop stop-opacity="0.1000" offset="1.0000" stop-color="rgb(0,0,0)"/></linearGradient></defs><g stroke-linejoin="miter" stroke-opacity="1.0" fill-opacity="1" stroke="rgb(0,0,0)" stroke-width="0.37795275590551186" fill="url(#gradient30)" stroke-linecap="butt" stroke-miterlimit="10.0"><path d="M 539.2390,362.0570 l -10.7574,-32.1504 c -1.3247,-3.9590 -5.6079,-6.0946 -9.5670 -4.7699l -32.1504,10.7574 c -3.9590,1.3247 -6.0946,5.6079 -4.7699 9.5670l 10.7574,32.1504 c 1.3247,3.9590 5.6079,6.0946 9.5670 4.7699l 32.1504,-10.7574 c 3.9590,-1.3247 6.0946,-5.6079 4.7699 -9.5670Z"/></g><g stroke-linejoin="miter" stroke-opacity="1.0" fill-opacity="0.7" stroke="rgb(0,0,0)" stroke-width="0.37795275590551186" fill="rgb(0,0,0)" stroke-linecap="butt" stroke-miterlimit="10.0"><path d="M 392.4287,115.6555 l -17.5932,-52.5804 c -1.3247,-3.9590 -5.6079,-6.0946 -9.5670 -4.7699l -52.5804,17.5932 c -3.9590,1.3247 -6.0946,5.6079 -4.7699 9.5670l 17.5932,52.5804 c 1.3247,3.9590 5.6079,6.0946 9.5670 4.7699l 52.5804,-17.5932 c 3.9590,-1.3247 6.0946,-5.6079 4.7699 -9.5670Z"/></g><defs><linearGradient x2="5.0000" y1="0.0000" gradientUnits="userSpaceOnUse" spreadMethod="pad" gradientTransform="matrix(3.5842,-1.1993,-1.1993,-3.5842,350.1734,100.5604)" id="gradient34" y2="0.0000" x1="-5.0000"><stop stop-opacity="0.1000" offset="0.0000" stop-color="rgb(0,0,0)"/><stop stop-opacity="0.1000" offset="0.5000" stop-color="rgb(255,255,255)"/><stop stop-opacity="0.1000" offset="1.0000" stop-color="rgb(0,0,0)"/></linearGradient></defs><g stroke-linejoin="miter" stroke-opacity="1.0" fill-opacity="1" stroke="rgb(0,0,0)" stroke-width="0.37795275590551186" fill="url(#gradient34)" stroke-linecap="butt" stroke-miterlimit="10.0"><path d="M 378.7957,108.8583 l -10.7574,-32.1504 c -1.3247,-3.9590 -5.6079,-6.0946 -9.5670 -4.7699l -32.1504,10.7574 c -3.9590,1.3247 -6.0946,5.6079 -4.7699 9.5670l 10.7574,32.1504 c 1.3247,3.9590 5.6079,6.0946 9.5670 4.7699l 32.1504,-10.7574 c 3.9590,-1.3247 6.0946,-5.6079 4.7699 -9.5670Z"/></g><g stroke-linejoin="miter" stroke-opacity="1.0" fill-opacity="0.7" stroke="rgb(0,0,0)" stroke-width="0.37795275590551186" fill="rgb(0,0,0)" stroke-linecap="butt" stroke-miterlimit="10.0"><path d="M 415.2146,183.7556 l -17.5932,-52.5804 c -1.3247,-3.9590 -5.6079,-6.0946 -9.5670 -4.7699l -52.5804,17.5932 c -3.9590,1.3247 -6.0946,5.6079 -4.7699 9.5670l 17.5932,52.5804 c 1.3247,3.9590 5.6079,6.0946 9.5670 4.7699l 52.5804,-17.5932 c 3.9590,-1.3247 6.0946,-5.6079 4.7699 -9.5670Z"/></g><defs><linearGradient x2="5.0000" y1="0.0000" gradientUnits="userSpaceOnUse" spreadMethod="pad" gradientTransform="matrix(3.5842,-1.1993,-1.1993,-3.5842,372.9594,168.6604)" id="gradient38" y2="0.0000" x1="-5.0000"><stop stop-opacity="0.1000" offset="0.0000" stop-color="rgb(0,0,0)"/><stop stop-opacity="0.1000" offset="0.5000" stop-color="rgb(255,255,255)"/><stop stop-opacity="0.1000" offset="1.0000" stop-color="rgb(0,0,0)"/></linearGradient></defs><g stroke-linejoin="miter" stroke-opacity="1.0" fill-opacity="1" stroke="rgb(0,0,0)" stroke-width="0.37795275590551186" fill="url(#gradient38)" stroke-linecap="butt" stroke-miterlimit="10.0"><path d="M 401.5817,176.9584 l -10.7574,-32.1504 c -1.3247,-3.9590 -5.6079,-6.0946 -9.5670 -4.7699l -32.1504,10.7574 c -3.9590,1.3247 -6.0946,5.6079 -4.7699 9.5670l 10.7574,32.1504 c 1.3247,3.9590 5.6079,6.0946 9.5670 4.7699l 32.1504,-10.7574 c 3.9590,-1.3247 6.0946,-5.6079 4.7699 -9.5670Z"/></g><g stroke-linejoin="miter" stroke-opacity="1.0" fill-opacity="0.7" stroke="rgb(0,0,0)" stroke-width="0.37795275590551186" fill="rgb(0,0,0)" stroke-linecap="butt" stroke-miterlimit="10.0"><path d="M 438.0006,251.8557 l -17.5932,-52.5804 c -1.3247,-3.9590 -5.6079,-6.0946 -9.5670 -4.7699l -52.5804,17.5932 c -3.9590,1.3247 -6.0946,5.6079 -4.7699 9.5670l 17.5932,52.5804 c 1.3247,3.9590 5.6079,6.0946 9.5670 4.7699l 52.5804,-17.5932 c 3.9590,-1.3247 6.0946,-5.6079 4.7699 -9.5670Z"/></g><defs><linearGradient x2="5.0000" y1="0.0000" gradientUnits="userSpaceOnUse" spreadMethod="pad" gradientTransform="matrix(3.5842,-1.1993,-1.1993,-3.5842,395.7454,236.7605)" id="gradient42" y2="0.0000" x1="-5.0000"><stop stop-opacity="0.1000" offset="0.0000" stop-color="rgb(0,0,0)"/><stop stop-opacity="0.1000" offset="0.5000" stop-color="rgb(255,255,255)"/><stop stop-opacity="0.1000" offset="1.0000" stop-color="rgb(0,0,0)"/></linearGradient></defs><g stroke-linejoin="miter" stroke-opacity="1.0" fill-opacity="1" stroke="rgb(0,0,0)" stroke-width="0.37795275590551186" fill="url(#gradient42)" stroke-linecap="butt" stroke-miterlimit="10.0"><path d="M 424.3677,245.0585 l -10.7574,-32.1504 c -1.3247,-3.9590 -5.6079,-6.0946 -9.5670 -4.7699l -32.1504,10.7574 c -3.9590,1.3247 -6.0946,5.6079 -4.7699 9.5670l 10.7574,32.1504 c 1.3247,3.9590 5.6079,6.0946 9.5670 4.7699l 32.1504,-10.7574 c 3.9590,-1.3247 6.0946,-5.6079 4.7699 -9.5670Z"/></g><g stroke-linejoin="miter" stroke-opacity="1.0" fill-opacity="0.7" stroke="rgb(0,0,0)" stroke-width="0.37795275590551186" fill="rgb(0,0,0)" stroke-linecap="butt" stroke-miterlimit="10.0"><path d="M 460.7866,319.9557 l -17.5932,-52.5804 c -1.3247,-3.9590 -5.6079,-6.0946 -9.5670 -4.7699l -52.5804,17.5932 c -3.9590,1.3247 -6.0946,5.6079 -4.7699 9.5670l 17.5932,52.5804 c 1.3247,3.9590 5.6079,6.0946 9.5670 4.7699l 52.5804,-17.5932 c 3.9590,-1.3247 6.0946,-5.6079 4.7699 -9.5670Z"/></g><defs><linearGradient x2="5.0000" y1="0.0000" gradientUnits="userSpaceOnUse" spreadMethod="pad" gradientTransform="matrix(3.5842,-1.1993,-1.1993,-3.5842,418.5313,304.8606)" id="gradient46" y2="0.0000" x1="-5.0000"><stop stop-opacity="0.1000" offset="0.0000" stop-color="rgb(0,0,0)"/><stop stop-opacity="0.1000" offset="0.5000" stop-color="rgb(255,255,255)"/><stop stop-opacity="0.1000" offset="1.0000" stop-color="rgb(0,0,0)"/></linearGradient></defs><g stroke-linejoin="miter" stroke-opacity="1.0" fill-opacity="1" stroke="rgb(0,0,0)" stroke-width="0.37795275590551186" fill="url(#gradient46)" stroke-linecap="butt" stroke-miterlimit="10.0"><path d="M 447.1537,313.1586 l -10.7574,-32.1504 c -1.3247,-3.9590 -5.6079,-6.0946 -9.5670 -4.7699l -32.1504,10.7574 c -3.9590,1.3247 -6.0946,5.6079 -4.7699 9.5670l 10.7574,32.1504 c 1.3247,3.9590 5.6079,6.0946 9.5670 4.7699l 32.1504,-10.7574 c 3.9590,-1.3247 6.0946,-5.6079 4.7699 -9.5670Z"/></g><g stroke-linejoin="miter" stroke-opacity="1.0" fill-opacity="0.7" stroke="rgb(0,0,0)" stroke-width="0.37795275590551186" fill="rgb(0,0,0)" stroke-linecap="butt" stroke-miterlimit="10.0"><path d="M 483.5725,388.0558 l -17.5932,-52.5804 c -1.3247,-3.9590 -5.6079,-6.0946 -9.5670 -4.7699l -52.5804,17.5932 c -3.9590,1.3247 -6.0946,5.6079 -4.7699 9.5670l 17.5932,52.5804 c 1.3247,3.9590 5.6079,6.0946 9.5670 4.7699l 52.5804,-17.5932 c 3.9590,-1.3247 6.0946,-5.6079 4.7699 -9.5670Z"/></g><defs><linearGradient x2="5.0000" y1="0.0000" gradientUnits="userSpaceOnUse" spreadMethod="pad" gradientTransform="matrix(3.5842,-1.1993,-1.1993,-3.5842,441.3173,372.9607)" id="gradient50" y2="0.0000" x1="-5.0000"><stop stop-opacity="0.1000" offset="0.0000" stop-color="rgb(0,0,0)"/><stop stop-opacity="0.1000" offset="0.5000" stop-color="rgb(255,255,255)"/><stop stop-opacity="0.1000" offset="1.0000" stop-color="rgb(0,0,0)"/></linearGradient></defs><g stroke-linejoin="miter" stroke-opacity="1.0" fill-opacity="1" stroke="rgb(0,0,0)" stroke-width="0.37795275590551186" fill="url(#gradient50)" stroke-linecap="butt" stroke-miterlimit="10.0"><path d="M 469.9396,381.2587 l -10.7574,-32.1504 c -1.3247,-3.9590 -5.6079,-6.0946 -9.5670 -4.7699l -32.1504,10.7574 c -3.9590,1.3247 -6.0946,5.6079 -4.7699 9.5670l 10.7574,32.1504 c 1.3247,3.9590 5.6079,6.0946 9.5670 4.7699l 32.1504,-10.7574 c 3.9590,-1.3247 6.0946,-5.6079 4.7699 -9.5670Z"/></g><g stroke-linejoin="miter" stroke-opacity="1.0" fill-opacity="0.7" stroke="rgb(0,0,0)" stroke-width="0.37795275590551186" fill="rgb(0,0,0)" stroke-linecap="butt" stroke-miterlimit="10.0"><path d="M 320.7308,127.6888 l -17.5932,-52.5804 c -1.3247,-3.9590 -5.6079,-6.0946 -9.5670 -4.7699l -52.5804,17.5932 c -3.9590,1.3247 -6.0946,5.6079 -4.7699 9.5670l 17.5932,52.5804 c 1.3247,3.9590 5.6079,6.0946 9.5670 4.7699l 52.5804,-17.5932 c 3.9590,-1.3247 6.0946,-5.6079 4.7699 -9.5670Z"/></g><defs><linearGradient x2="5.0000" y1="0.0000" gradientUnits="userSpaceOnUse" spreadMethod="pad" gradientTransform="matrix(3.5842,-1.1993,-1.1993,-3.5842,278.4755,112.5937)" id="gradient54" y2="0.0000" x1="-5.0000"><stop stop-opacity="0.1000" offset="0.0000" stop-color="rgb(0,0,0)"/><stop stop-opacity="0.1000" offset="0.5000" stop-color="rgb(255,255,255)"/><stop stop-opacity="0.1000" offset="1.0000" stop-color="rgb(0,0,0)"/></linearGradient></defs><g stroke-linejoin="miter" stroke-opacity="1.0" fill-opacity="1" stroke="rgb(0,0,0)" stroke-width="0.37795275590551186" fill="url(#gradient54)" stroke-linecap="butt" stroke-miterlimit="10.0"><path d="M 307.0979,120.8917 l -10.7574,-32.1504 c -1.3247,-3.9590 -5.6079,-6.0946 -9.5670 -4.7699l -32.1504,10.7574 c -3.9590,1.3247 -6.0946,5.6079 -4.7699 9.5670l 10.7574,32.1504 c 1.3247,3.9590 5.6079,6.0946 9.5670 4.7699l 32.1504,-10.7574 c 3.9590,-1.3247 6.0946,-5.6079 4.7699 -9.5670Z"/></g><g stroke-linejoin="miter" stroke-opacity="1.0" fill-opacity="0.7" stroke="rgb(0,0,0)" stroke-width="0.37795275590551186" fill="rgb(0,0,0)" stroke-linecap="butt" stroke-miterlimit="10.0"><path d="M 343.5168,195.7889 l -17.5932,-52.5804 c -1.3247,-3.9590 -5.6079,-6.0946 -9.5670 -4.7699l -52.5804,17.5932 c -3.9590,1.3247 -6.0946,5.6079 -4.7699 9.5670l 17.5932,52.5804 c 1.3247,3.9590 5.6079,6.0946 9.5670 4.7699l 52.5804,-17.5932 c 3.9590,-1.3247 6.0946,-5.6079 4.7699 -9.5670Z"/></g><defs><linearGradient x2="5.0000" y1="0.0000" gradientUnits="userSpaceOnUse" spreadMethod="pad" gradientTransform="matrix(3.5842,-1.1993,-1.1993,-3.5842,301.2615,180.6938)" id="gradient58" y2="0.0000" x1="-5.0000"><stop stop-opacity="0.1000" offset="0.0000" stop-color="rgb(0,0,0)"/><stop stop-opacity="0.1000" offset="0.5000" stop-color="rgb(255,255,255)"/><stop stop-opacity="0.1000" offset="1.0000" stop-color="rgb(0,0,0)"/></linearGradient></defs><g stroke-linejoin="miter" stroke-opacity="1.0" fill-opacity="1" stroke="rgb(0,0,0)" stroke-width="0.37795275590551186" fill="url(#gradient58)" stroke-linecap="butt" stroke-miterlimit="10.0"><path d="M 329.8838,188.9918 l -10.7574,-32.1504 c -1.3247,-3.9590 -5.6079,-6.0946 -9.5670 -4.7699l -32.1504,10.7574 c -3.9590,1.3247 -6.0946,5.6079 -4.7699 9.5670l 10.7574,32.1504 c 1.3247,3.9590 5.6079,6.0946 9.5670 4.7699l 32.1504,-10.7574 c 3.9590,-1.3247 6.0946,-5.6079 4.7699 -9.5670Z"/></g><g stroke-linejoin="miter" stroke-opacity="1.0" fill-opacity="0.7" stroke="rgb(0,0,0)" stroke-width="0.37795275590551186" fill="rgb(0,0,0)" stroke-linecap="butt" stroke-miterlimit="10.0"><path d="M 366.3027,263.8890 l -17.5932,-52.5804 c -1.3247,-3.9590 -5.6079,-6.0946 -9.5670 -4.7699l -52.5804,17.5932 c -3.9590,1.3247 -6.0946,5.6079 -4.7699 9.5670l 17.5932,52.5804 c 1.3247,3.9590 5.6079,6.0946 9.5670 4.7699l 52.5804,-17.5932 c 3.9590,-1.3247 6.0946,-5.6079 4.7699 -9.5670Z"/></g><defs><linearGradient x2="5.0000" y1="0.0000" gradientUnits="userSpaceOnUse" spreadMethod="pad" gradientTransform="matrix(3.5842,-1.1993,-1.1993,-3.5842,324.0475,248.7939)" id="gradient62" y2="0.0000" x1="-5.0000"><stop stop-opacity="0.1000" offset="0.0000" stop-color="rgb(0,0,0)"/><stop stop-opacity="0.1000" offset="0.5000" stop-color="rgb(255,255,255)"/><stop stop-opacity="0.1000" offset="1.0000" stop-color="rgb(0,0,0)"/></linearGradient></defs><g stroke-linejoin="miter" stroke-opacity="1.0" fill-opacity="1" stroke="rgb(0,0,0)" stroke-width="0.37795275590551186" fill="url(#gradient62)" stroke-linecap="butt" stroke-miterlimit="10.0"><path d="M 352.6698,257.0919 l -10.7574,-32.1504 c -1.3247,-3.9590 -5.6079,-6.0946 -9.5670 -4.7699l -32.1504,10.7574 c -3.9590,1.3247 -6.0946,5.6079 -4.7699 9.5670l 10.7574,32.1504 c 1.3247,3.9590 5.6079,6.0946 9.5670 4.7699l 32.1504,-10.7574 c 3.9590,-1.3247 6.0946,-5.6079 4.7699 -9.5670Z"/></g><g stroke-linejoin="miter" stroke-opacity="1.0" fill-opacity="0.7" stroke="rgb(0,0,0)" stroke-width="0.37795275590551186" fill="rgb(0,0,0)" stroke-linecap="butt" stroke-miterlimit="10.0"><path d="M 389.0887,331.9891 l -17.5932,-52.5804 c -1.3247,-3.9590 -5.6079,-6.0946 -9.5670 -4.7699l -52.5804,17.5932 c -3.9590,1.3247 -6.0946,5.6079 -4.7699 9.5670l 17.5932,52.5804 c 1.3247,3.9590 5.6079,6.0946 9.5670 4.7699l 52.5804,-17.5932 c 3.9590,-1.3247 6.0946,-5.6079 4.7699 -9.5670Z"/></g><defs><linearGradient x2="5.0000" y1="0.0000" gradientUnits="userSpaceOnUse" spreadMethod="pad" gradientTransform="matrix(3.5842,-1.1993,-1.1993,-3.5842,346.8335,316.8940)" id="gradient66" y2="0.0000" x1="-5.0000"><stop stop-opacity="0.1000" offset="0.0000" stop-color="rgb(0,0,0)"/><stop stop-opacity="0.1000" offset="0.5000" stop-color="rgb(255,255,255)"/><stop stop-opacity="0.1000" offset="1.0000" stop-color="rgb(0,0,0)"/></linearGradient></defs><g stroke-linejoin="miter" stroke-opacity="1.0" fill-opacity="1" stroke="rgb(0,0,0)" stroke-width="0.37795275590551186" fill="url(#gradient66)" stroke-linecap="butt" stroke-miterlimit="10.0"><path d="M 375.4558,325.1920 l -10.7574,-32.1504 c -1.3247,-3.9590 -5.6079,-6.0946 -9.5670 -4.7699l -32.1504,10.7574 c -3.9590,1.3247 -6.0946,5.6079 -4.7699 9.5670l 10.7574,32.1504 c 1.3247,3.9590 5.6079,6.0946 9.5670 4.7699l 32.1504,-10.7574 c 3.9590,-1.3247 6.0946,-5.6079 4.7699 -9.5670Z"/></g><g stroke-linejoin="miter" stroke-opacity="1.0" fill-opacity="0.7" stroke="rgb(0,0,0)" stroke-width="0.37795275590551186" fill="rgb(0,0,0)" stroke-linecap="butt" stroke-miterlimit="10.0"><path d="M 411.8747,400.0892 l -17.5932,-52.5804 c -1.3247,-3.9590 -5.6079,-6.0946 -9.5670 -4.7699l -52.5804,17.5932 c -3.9590,1.3247 -6.0946,5.6079 -4.7699 9.5670l 17.5932,52.5804 c 1.3247,3.9590 5.6079,6.0946 9.5670 4.7699l 52.5804,-17.5932 c 3.9590,-1.3247 6.0946,-5.6079 4.7699 -9.5670Z"/></g><defs><linearGradient x2="5.0000" y1="0.0000" gradientUnits="userSpaceOnUse" spreadMethod="pad" gradientTransform="matrix(3.5842,-1.1993,-1.1993,-3.5842,369.6194,384.9940)" id="gradient70" y2="0.0000" x1="-5.0000"><stop stop-opacity="0.1000" offset="0.0000" stop-color="rgb(0,0,0)"/><stop stop-opacity="0.1000" offset="0.5000" stop-color="rgb(255,255,255)"/><stop stop-opacity="0.1000" offset="1.0000" stop-color="rgb(0,0,0)"/></linearGradient></defs><g stroke-linejoin="miter" stroke-opacity="1.0" fill-opacity="1" stroke="rgb(0,0,0)" stroke-width="0.37795275590551186" fill="url(#gradient70)" stroke-linecap="butt" stroke-miterlimit="10.0"><path d="M 398.2418,393.2920 l -10.7574,-32.1504 c -1.3247,-3.9590 -5.6079,-6.0946 -9.5670 -4.7699l -32.1504,10.7574 c -3.9590,1.3247 -6.0946,5.6079 -4.7699 9.5670l 10.7574,32.1504 c 1.3247,3.9590 5.6079,6.0946 9.5670 4.7699l 32.1504,-10.7574 c 3.9590,-1.3247 6.0946,-5.6079 4.7699 -9.5670Z"/></g><g stroke-linejoin="miter" stroke-opacity="1.0" fill-opacity="0.7" stroke="rgb(0,0,0)" stroke-width="0.37795275590551186" fill="rgb(0,0,0)" stroke-linecap="butt" stroke-miterlimit="10.0"><path d="M 246.6344,132.5537 l -17.5932,-52.5804 c -1.3247,-3.9590 -5.6079,-6.0946 -9.5670 -4.7699l -52.5804,17.5932 c -3.9590,1.3247 -6.0946,5.6079 -4.7699 9.5670l 17.5932,52.5804 c 1.3247,3.9590 5.6079,6.0946 9.5670 4.7699l 52.5804,-17.5932 c 3.9590,-1.3247 6.0946,-5.6079 4.7699 -9.5670Z"/></g><defs><linearGradient x2="5.0000" y1="0.0000" gradientUnits="userSpaceOnUse" spreadMethod="pad" gradientTransform="matrix(3.5842,-1.1993,-1.1993,-3.5842,204.3791,117.4586)" id="gradient74" y2="0.0000" x1="-5.0000"><stop stop-opacity="0.1000" offset="0.0000" stop-color="rgb(0,0,0)"/><stop stop-opacity="0.1000" offset="0.5000" stop-color="rgb(255,255,255)"/><stop stop-opacity="0.1000" offset="1.0000" stop-color="rgb(0,0,0)"/></linearGradient></defs><g stroke-linejoin="miter" stroke-opacity="1.0" fill-opacity="1" stroke="rgb(0,0,0)" stroke-width="0.37795275590551186" fill="url(#gradient74)" stroke-linecap="butt" stroke-miterlimit="10.0"><path d="M 233.0015,125.7566 l -10.7574,-32.1504 c -1.3247,-3.9590 -5.6079,-6.0946 -9.5670 -4.7699l -32.1504,10.7574 c -3.9590,1.3247 -6.0946,5.6079 -4.7699 9.5670l 10.7574,32.1504 c 1.3247,3.9590 5.6079,6.0946 9.5670 4.7699l 32.1504,-10.7574 c 3.9590,-1.3247 6.0946,-5.6079 4.7699 -9.5670Z"/></g><g stroke-linejoin="miter" stroke-opacity="1.0" fill-opacity="0.7" stroke="rgb(0,0,0)" stroke-width="0.37795275590551186" fill="rgb(0,0,0)" stroke-linecap="butt" stroke-miterlimit="10.0"><path d="M 269.4204,200.6538 l -17.5932,-52.5804 c -1.3247,-3.9590 -5.6079,-6.0946 -9.5670 -4.7699l -52.5804,17.5932 c -3.9590,1.3247 -6.0946,5.6079 -4.7699 9.5670l 17.5932,52.5804 c 1.3247,3.9590 5.6079,6.0946 9.5670 4.7699l 52.5804,-17.5932 c 3.9590,-1.3247 6.0946,-5.6079 4.7699 -9.5670Z"/></g><defs><linearGradient x2="5.0000" y1="0.0000" gradientUnits="userSpaceOnUse" spreadMethod="pad" gradientTransform="matrix(3.5842,-1.1993,-1.1993,-3.5842,227.1651,185.5587)" id="gradient78" y2="0.0000" x1="-5.0000"><stop stop-opacity="0.1000" offset="0.0000" stop-color="rgb(0,0,0)"/><stop stop-opacity="0.1000" offset="0.5000" stop-color="rgb(255,255,255)"/><stop stop-opacity="0.1000" offset="1.0000" stop-color="rgb(0,0,0)"/></linearGradient></defs><g stroke-linejoin="miter" stroke-opacity="1.0" fill-opacity="1" stroke="rgb(0,0,0)" stroke-width="0.37795275590551186" fill="url(#gradient78)" stroke-linecap="butt" stroke-miterlimit="10.0"><path d="M 255.7874,193.8567 l -10.7574,-32.1504 c -1.3247,-3.9590 -5.6079,-6.0946 -9.5670 -4.7699l -32.1504,10.7574 c -3.9590,1.3247 -6.0946,5.6079 -4.7699 9.5670l 10.7574,32.1504 c 1.3247,3.9590 5.6079,6.0946 9.5670 4.7699l 32.1504,-10.7574 c 3.9590,-1.3247 6.0946,-5.6079 4.7699 -9.5670Z"/></g><g stroke-linejoin="miter" stroke-opacity="1.0" fill-opacity="0.7" stroke="rgb(0,0,0)" stroke-width="0.37795275590551186" fill="rgb(0,0,0)" stroke-linecap="butt" stroke-miterlimit="10.0"><path d="M 292.2063,268.7539 l -17.5932,-52.5804 c -1.3247,-3.9590 -5.6079,-6.0946 -9.5670 -4.7699l -52.5804,17.5932 c -3.9590,1.3247 -6.0946,5.6079 -4.7699 9.5670l 17.5932,52.5804 c 1.3247,3.9590 5.6079,6.0946 9.5670 4.7699l 52.5804,-17.5932 c 3.9590,-1.3247 6.0946,-5.6079 4.7699 -9.5670Z"/></g><defs><linearGradient x2="5.0000" y1="0.0000" gradientUnits="userSpaceOnUse" spreadMethod="pad" gradientTransform="matrix(3.5842,-1.1993,-1.1993,-3.5842,249.9511,253.6588)" id="gradient82" y2="0.0000" x1="-5.0000"><stop stop-opacity="0.1000" offset="0.0000" stop-color="rgb(0,0,0)"/><stop stop-opacity="0.1000" offset="0.5000" stop-color="rgb(255,255,255)"/><stop stop-opacity="0.1000" offset="1.0000" stop-color="rgb(0,0,0)"/></linearGradient></defs><g stroke-linejoin="miter" stroke-opacity="1.0" fill-opacity="1" stroke="rgb(0,0,0)" stroke-width="0.37795275590551186" fill="url(#gradient82)" stroke-linecap="butt" stroke-miterlimit="10.0"><path d="M 278.5734,261.9568 l -10.7574,-32.1504 c -1.3247,-3.9590 -5.6079,-6.0946 -9.5670 -4.7699l -32.1504,10.7574 c -3.9590,1.3247 -6.0946,5.6079 -4.7699 9.5670l 10.7574,32.1504 c 1.3247,3.9590 5.6079,6.0946 9.5670 4.7699l 32.1504,-10.7574 c 3.9590,-1.3247 6.0946,-5.6079 4.7699 -9.5670Z"/></g><g stroke-linejoin="miter" stroke-opacity="1.0" fill-opacity="0.7" stroke="rgb(0,0,0)" stroke-width="0.37795275590551186" fill="rgb(0,0,0)" stroke-linecap="butt" stroke-miterlimit="10.0"><path d="M 314.9923,336.8540 l -17.5932,-52.5804 c -1.3247,-3.9590 -5.6079,-6.0946 -9.5670 -4.7699l -52.5804,17.5932 c -3.9590,1.3247 -6.0946,5.6079 -4.7699 9.5670l 17.5932,52.5804 c 1.3247,3.9590 5.6079,6.0946 9.5670 4.7699l 52.5804,-17.5932 c 3.9590,-1.3247 6.0946,-5.6079 4.7699 -9.5670Z"/></g><defs><linearGradient x2="5.0000" y1="0.0000" gradientUnits="userSpaceOnUse" spreadMethod="pad" gradientTransform="matrix(3.5842,-1.1993,-1.1993,-3.5842,272.7371,321.7589)" id="gradient86" y2="0.0000" x1="-5.0000"><stop stop-opacity="0.1000" offset="0.0000" stop-color="rgb(0,0,0)"/><stop stop-opacity="0.1000" offset="0.5000" stop-color="rgb(255,255,255)"/><stop stop-opacity="0.1000" offset="1.0000" stop-color="rgb(0,0,0)"/></linearGradient></defs><g stroke-linejoin="miter" stroke-opacity="1.0" fill-opacity="1" stroke="rgb(0,0,0)" stroke-width="0.37795275590551186" fill="url(#gradient86)" stroke-linecap="butt" stroke-miterlimit="10.0"><path d="M 301.3594,330.0568 l -10.7574,-32.1504 c -1.3247,-3.9590 -5.6079,-6.0946 -9.5670 -4.7699l -32.1504,10.7574 c -3.9590,1.3247 -6.0946,5.6079 -4.7699 9.5670l 10.7574,32.1504 c 1.3247,3.9590 5.6079,6.0946 9.5670 4.7699l 32.1504,-10.7574 c 3.9590,-1.3247 6.0946,-5.6079 4.7699 -9.5670Z"/></g><g stroke-linejoin="miter" stroke-opacity="1.0" fill-opacity="0.7" stroke="rgb(0,0,0)" stroke-width="0.37795275590551186" fill="rgb(0,0,0)" stroke-linecap="butt" stroke-miterlimit="10.0"><path d="M 337.7783,404.9541 l -17.5932,-52.5804 c -1.3247,-3.9590 -5.6079,-6.0946 -9.5670 -4.7699l -52.5804,17.5932 c -3.9590,1.3247 -6.0946,5.6079 -4.7699 9.5670l 17.5932,52.5804 c 1.3247,3.9590 5.6079,6.0946 9.5670 4.7699l 52.5804,-17.5932 c 3.9590,-1.3247 6.0946,-5.6079 4.7699 -9.5670Z"/></g><defs><linearGradient x2="5.0000" y1="0.0000" gradientUnits="userSpaceOnUse" spreadMethod="pad" gradientTransform="matrix(3.5842,-1.1993,-1.1993,-3.5842,295.5230,389.8589)" id="gradient90" y2="0.0000" x1="-5.0000"><stop stop-opacity="0.1000" offset="0.0000" stop-color="rgb(0,0,0)"/><stop stop-opacity="0.1000" offset="0.5000" stop-color="rgb(255,255,255)"/><stop stop-opacity="0.1000" offset="1.0000" stop-color="rgb(0,0,0)"/></linearGradient></defs><g stroke-linejoin="miter" stroke-opacity="1.0" fill-opacity="1" stroke="rgb(0,0,0)" stroke-width="0.37795275590551186" fill="url(#gradient90)" stroke-linecap="butt" stroke-miterlimit="10.0"><path d="M 324.1454,398.1569 l -10.7574,-32.1504 c -1.3247,-3.9590 -5.6079,-6.0946 -9.5670 -4.7699l -32.1504,10.7574 c -3.9590,1.3247 -6.0946,5.6079 -4.7699 9.5670l 10.7574,32.1504 c 1.3247,3.9590 5.6079,6.0946 9.5670 4.7699l 32.1504,-10.7574 c 3.9590,-1.3247 6.0946,-5.6079 4.7699 -9.5670Z"/></g><g stroke-linejoin="miter" stroke-opacity="1.0" fill-opacity="0.7" stroke="rgb(0,0,0)" stroke-width="0.37795275590551186" fill="rgb(0,0,0)" stroke-linecap="butt" stroke-miterlimit="10.0"><path d="M 185.7299,176.8450 l -17.5932,-52.5804 c -1.3247,-3.9590 -5.6079,-6.0946 -9.5670 -4.7699l -52.5804,17.5932 c -3.9590,1.3247 -6.0946,5.6079 -4.7699 9.5670l 17.5932,52.5804 c 1.3247,3.9590 5.6079,6.0946 9.5670 4.7699l 52.5804,-17.5932 c 3.9590,-1.3247 6.0946,-5.6079 4.7699 -9.5670Z"/></g><defs><linearGradient x2="5.0000" y1="0.0000" gradientUnits="userSpaceOnUse" spreadMethod="pad" gradientTransform="matrix(3.5842,-1.1993,-1.1993,-3.5842,143.4746,161.7498)" id="gradient94" y2="0.0000" x1="-5.0000"><stop stop-opacity="0.1000" offset="0.0000" stop-color="rgb(0,0,0)"/><stop stop-opacity="0.1000" offset="0.5000" stop-color="rgb(255,255,255)"/><stop stop-opacity="0.1000" offset="1.0000" stop-color="rgb(0,0,0)"/></linearGradient></defs><g stroke-linejoin="miter" stroke-opacity="1.0" fill-opacity="1" stroke="rgb(0,0,0)" stroke-width="0.37795275590551186" fill="url(#gradient94)" stroke-linecap="butt" stroke-miterlimit="10.0"><path d="M 172.0969,170.0478 l -10.7574,-32.1504 c -1.3247,-3.9590 -5.6079,-6.0946 -9.5670 -4.7699l -32.1504,10.7574 c -3.9590,1.3247 -6.0946,5.6079 -4.7699 9.5670l 10.7574,32.1504 c 1.3247,3.9590 5.6079,6.0946 9.5670 4.7699l 32.1504,-10.7574 c 3.9590,-1.3247 6.0946,-5.6079 4.7699 -9.5670Z"/></g><g stroke-linejoin="miter" stroke-opacity="1.0" fill-opacity="0.7" stroke="rgb(0,0,0)" stroke-width="0.37795275590551186" fill="rgb(0,0,0)" stroke-linecap="butt" stroke-miterlimit="10.0"><path d="M 208.5158,244.9450 l -17.5932,-52.5804 c -1.3247,-3.9590 -5.6079,-6.0946 -9.5670 -4.7699l -52.5804,17.5932 c -3.9590,1.3247 -6.0946,5.6079 -4.7699 9.5670l 17.5932,52.5804 c 1.3247,3.9590 5.6079,6.0946 9.5670 4.7699l 52.5804,-17.5932 c 3.9590,-1.3247 6.0946,-5.6079 4.7699 -9.5670Z"/></g><defs><linearGradient x2="5.0000" y1="0.0000" gradientUnits="userSpaceOnUse" spreadMethod="pad" gradientTransform="matrix(3.5842,-1.1993,-1.1993,-3.5842,166.2606,229.8499)" id="gradient98" y2="0.0000" x1="-5.0000"><stop stop-opacity="0.1000" offset="0.0000" stop-color="rgb(0,0,0)"/><stop stop-opacity="0.1000" offset="0.5000" stop-color="rgb(255,255,255)"/><stop stop-opacity="0.1000" offset="1.0000" stop-color="rgb(0,0,0)"/></linearGradient></defs><g stroke-linejoin="miter" stroke-opacity="1.0" fill-opacity="1" stroke="rgb(0,0,0)" stroke-width="0.37795275590551186" fill="url(#gradient98)" stroke-linecap="butt" stroke-miterlimit="10.0"><path d="M 194.8829,238.1479 l -10.7574,-32.1504 c -1.3247,-3.9590 -5.6079,-6.0946 -9.5670 -4.7699l -32.1504,10.7574 c -3.9590,1.3247 -6.0946,5.6079 -4.7699 9.5670l 10.7574,32.1504 c 1.3247,3.9590 5.6079,6.0946 9.5670 4.7699l 32.1504,-10.7574 c 3.9590,-1.3247 6.0946,-5.6079 4.7699 -9.5670Z"/></g><g stroke-linejoin="miter" stroke-opacity="1.0" fill-opacity="0.7" stroke="rgb(0,0,0)" stroke-width="0.37795275590551186" fill="rgb(0,0,0)" stroke-linecap="butt" stroke-miterlimit="10.0"><path d="M 231.3018,313.0451 l -17.5932,-52.5804 c -1.3247,-3.9590 -5.6079,-6.0946 -9.5670 -4.7699l -52.5804,17.5932 c -3.9590,1.3247 -6.0946,5.6079 -4.7699 9.5670l 17.5932,52.5804 c 1.3247,3.9590 5.6079,6.0946 9.5670 4.7699l 52.5804,-17.5932 c 3.9590,-1.3247 6.0946,-5.6079 4.7699 -9.5670Z"/></g><defs><linearGradient x2="5.0000" y1="0.0000" gradientUnits="userSpaceOnUse" spreadMethod="pad" gradientTransform="matrix(3.5842,-1.1993,-1.1993,-3.5842,189.0466,297.9500)" id="gradient102" y2="0.0000" x1="-5.0000"><stop stop-opacity="0.1000" offset="0.0000" stop-color="rgb(0,0,0)"/><stop stop-opacity="0.1000" offset="0.5000" stop-color="rgb(255,255,255)"/><stop stop-opacity="0.1000" offset="1.0000" stop-color="rgb(0,0,0)"/></linearGradient></defs><g stroke-linejoin="miter" stroke-opacity="1.0" fill-opacity="1" stroke="rgb(0,0,0)" stroke-width="0.37795275590551186" fill="url(#gradient102)" stroke-linecap="butt" stroke-miterlimit="10.0"><path d="M 217.6689,306.2480 l -10.7574,-32.1504 c -1.3247,-3.9590 -5.6079,-6.0946 -9.5670 -4.7699l -32.1504,10.7574 c -3.9590,1.3247 -6.0946,5.6079 -4.7699 9.5670l 10.7574,32.1504 c 1.3247,3.9590 5.6079,6.0946 9.5670 4.7699l 32.1504,-10.7574 c 3.9590,-1.3247 6.0946,-5.6079 4.7699 -9.5670Z"/></g><g stroke-linejoin="miter" stroke-opacity="1.0" fill-opacity="0.7" stroke="rgb(0,0,0)" stroke-width="0.37795275590551186" fill="rgb(0,0,0)" stroke-linecap="butt" stroke-miterlimit="10.0"><path d="M 254.0878,381.1452 l -17.5932,-52.5804 c -1.3247,-3.9590 -5.6079,-6.0946 -9.5670 -4.7699l -52.5804,17.5932 c -3.9590,1.3247 -6.0946,5.6079 -4.7699 9.5670l 17.5932,52.5804 c 1.3247,3.9590 5.6079,6.0946 9.5670 4.7699l 52.5804,-17.5932 c 3.9590,-1.3247 6.0946,-5.6079 4.7699 -9.5670Z"/></g><defs><linearGradient x2="5.0000" y1="0.0000" gradientUnits="userSpaceOnUse" spreadMethod="pad" gradientTransform="matrix(3.5842,-1.1993,-1.1993,-3.5842,211.8325,366.0501)" id="gradient106" y2="0.0000" x1="-5.0000"><stop stop-opacity="0.1000" offset="0.0000" stop-color="rgb(0,0,0)"/><stop stop-opacity="0.1000" offset="0.5000" stop-color="rgb(255,255,255)"/><stop stop-opacity="0.1000" offset="1.0000" stop-color="rgb(0,0,0)"/></linearGradient></defs><g stroke-linejoin="miter" stroke-opacity="1.0" fill-opacity="1" stroke="rgb(0,0,0)" stroke-width="0.37795275590551186" fill="url(#gradient106)" stroke-linecap="butt" stroke-miterlimit="10.0"><path d="M 240.4549,374.3481 l -10.7574,-32.1504 c -1.3247,-3.9590 -5.6079,-6.0946 -9.5670 -4.7699l -32.1504,10.7574 c -3.9590,1.3247 -6.0946,5.6079 -4.7699 9.5670l 10.7574,32.1504 c 1.3247,3.9590 5.6079,6.0946 9.5670 4.7699l 32.1504,-10.7574 c 3.9590,-1.3247 6.0946,-5.6079 4.7699 -9.5670Z"/></g><g stroke-linejoin="miter" stroke-opacity="1.0" fill-opacity="0.7" stroke="rgb(0,0,0)" stroke-width="0.37795275590551186" fill="rgb(0,0,0)" stroke-linecap="butt" stroke-miterlimit="10.0"><path d="M 276.8737,449.2453 l -17.5932,-52.5804 c -1.3247,-3.9590 -5.6079,-6.0946 -9.5670 -4.7699l -52.5804,17.5932 c -3.9590,1.3247 -6.0946,5.6079 -4.7699 9.5670l 17.5932,52.5804 c 1.3247,3.9590 5.6079,6.0946 9.5670 4.7699l 52.5804,-17.5932 c 3.9590,-1.3247 6.0946,-5.6079 4.7699 -9.5670Z"/></g><defs><linearGradient x2="5.0000" y1="0.0000" gradientUnits="userSpaceOnUse" spreadMethod="pad" gradientTransform="matrix(3.5842,-1.1993,-1.1993,-3.5842,234.6185,434.1502)" id="gradient110" y2="0.0000" x1="-5.0000"><stop stop-opacity="0.1000" offset="0.0000" stop-color="rgb(0,0,0)"/><stop stop-opacity="0.1000" offset="0.5000" stop-color="rgb(255,255,255)"/><stop stop-opacity="0.1000" offset="1.0000" stop-color="rgb(0,0,0)"/></linearGradient></defs><g stroke-linejoin="miter" stroke-opacity="1.0" fill-opacity="1" stroke="rgb(0,0,0)" stroke-width="0.37795275590551186" fill="url(#gradient110)" stroke-linecap="butt" stroke-miterlimit="10.0"><path d="M 263.2408,442.4482 l -10.7574,-32.1504 c -1.3247,-3.9590 -5.6079,-6.0946 -9.5670 -4.7699l -32.1504,10.7574 c -3.9590,1.3247 -6.0946,5.6079 -4.7699 9.5670l 10.7574,32.1504 c 1.3247,3.9590 5.6079,6.0946 9.5670 4.7699l 32.1504,-10.7574 c 3.9590,-1.3247 6.0946,-5.6079 4.7699 -9.5670Z"/></g><g stroke-linejoin="miter" stroke-opacity="1.0" fill-opacity="0.7" stroke="rgb(0,0,0)" stroke-width="0.37795275590551186" fill="rgb(0,0,0)" stroke-linecap="butt" stroke-miterlimit="10.0"><path d="M 123.6261,217.5520 l -17.5932,-52.5804 c -1.3247,-3.9590 -5.6079,-6.0946 -9.5670 -4.7699l -52.5804,17.5932 c -3.9590,1.3247 -6.0946,5.6079 -4.7699 9.5670l 17.5932,52.5804 c 1.3247,3.9590 5.6079,6.0946 9.5670 4.7699l 52.5804,-17.5932 c 3.9590,-1.3247 6.0946,-5.6079 4.7699 -9.5670Z"/></g><defs><linearGradient x2="5.0000" y1="0.0000" gradientUnits="userSpaceOnUse" spreadMethod="pad" gradientTransform="matrix(3.5842,-1.1993,-1.1993,-3.5842,81.3708,202.4569)" id="gradient114" y2="0.0000" x1="-5.0000"><stop stop-opacity="0.1000" offset="0.0000" stop-color="rgb(0,0,0)"/><stop stop-opacity="0.1000" offset="0.5000" stop-color="rgb(255,255,255)"/><stop stop-opacity="0.1000" offset="1.0000" stop-color="rgb(0,0,0)"/></linearGradient></defs><g stroke-linejoin="miter" stroke-opacity="1.0" fill-opacity="1" stroke="rgb(0,0,0)" stroke-width="0.37795275590551186" fill="url(#gradient114)" stroke-linecap="butt" stroke-miterlimit="10.0"><path d="M 109.9932,210.7549 l -10.7574,-32.1504 c -1.3247,-3.9590 -5.6079,-6.0946 -9.5670 -4.7699l -32.1504,10.7574 c -3.9590,1.3247 -6.0946,5.6079 -4.7699 9.5670l 10.7574,32.1504 c 1.3247,3.9590 5.6079,6.0946 9.5670 4.7699l 32.1504,-10.7574 c 3.9590,-1.3247 6.0946,-5.6079 4.7699 -9.5670Z"/></g><g stroke-linejoin="miter" stroke-opacity="1.0" fill-opacity="0.7" stroke="rgb(0,0,0)" stroke-width="0.37795275590551186" fill="rgb(0,0,0)" stroke-linecap="butt" stroke-miterlimit="10.0"><path d="M 146.4120,285.6521 l -17.5932,-52.5804 c -1.3247,-3.9590 -5.6079,-6.0946 -9.5670 -4.7699l -52.5804,17.5932 c -3.9590,1.3247 -6.0946,5.6079 -4.7699 9.5670l 17.5932,52.5804 c 1.3247,3.9590 5.6079,6.0946 9.5670 4.7699l 52.5804,-17.5932 c 3.9590,-1.3247 6.0946,-5.6079 4.7699 -9.5670Z"/></g><defs><linearGradient x2="5.0000" y1="0.0000" gradientUnits="userSpaceOnUse" spreadMethod="pad" gradientTransform="matrix(3.5842,-1.1993,-1.1993,-3.5842,104.1568,270.5570)" id="gradient118" y2="0.0000" x1="-5.0000"><stop stop-opacity="0.1000" offset="0.0000" stop-color="rgb(0,0,0)"/><stop stop-opacity="0.1000" offset="0.5000" stop-color="rgb(255,255,255)"/><stop stop-opacity="0.1000" offset="1.0000" stop-color="rgb(0,0,0)"/></linearGradient></defs><g stroke-linejoin="miter" stroke-opacity="1.0" fill-opacity="1" stroke="rgb(0,0,0)" stroke-width="0.37795275590551186" fill="url(#gradient118)" stroke-linecap="butt" stroke-miterlimit="10.0"><path d="M 132.7791,278.8550 l -10.7574,-32.1504 c -1.3247,-3.9590 -5.6079,-6.0946 -9.5670 -4.7699l -32.1504,10.7574 c -3.9590,1.3247 -6.0946,5.6079 -4.7699 9.5670l 10.7574,32.1504 c 1.3247,3.9590 5.6079,6.0946 9.5670 4.7699l 32.1504,-10.7574 c 3.9590,-1.3247 6.0946,-5.6079 4.7699 -9.5670Z"/></g><g stroke-linejoin="miter" stroke-opacity="1.0" fill-opacity="0.7" stroke="rgb(0,0,0)" stroke-width="0.37795275590551186" fill="rgb(0,0,0)" stroke-linecap="butt" stroke-miterlimit="10.0"><path d="M 169.1980,353.7522 l -17.5932,-52.5804 c -1.3247,-3.9590 -5.6079,-6.0946 -9.5670 -4.7699l -52.5804,17.5932 c -3.9590,1.3247 -6.0946,5.6079 -4.7699 9.5670l 17.5932,52.5804 c 1.3247,3.9590 5.6079,6.0946 9.5670 4.7699l 52.5804,-17.5932 c 3.9590,-1.3247 6.0946,-5.6079 4.7699 -9.5670Z"/></g><defs><linearGradient x2="5.0000" y1="0.0000" gradientUnits="userSpaceOnUse" spreadMethod="pad" gradientTransform="matrix(3.5842,-1.1993,-1.1993,-3.5842,126.9428,338.6571)" id="gradient122" y2="0.0000" x1="-5.0000"><stop stop-opacity="0.1000" offset="0.0000" stop-color="rgb(0,0,0)"/><stop stop-opacity="0.1000" offset="0.5000" stop-color="rgb(255,255,255)"/><stop stop-opacity="0.1000" offset="1.0000" stop-color="rgb(0,0,0)"/></linearGradient></defs><g stroke-linejoin="miter" stroke-opacity="1.0" fill-opacity="1" stroke="rgb(0,0,0)" stroke-width="0.37795275590551186" fill="url(#gradient122)" stroke-linecap="butt" stroke-miterlimit="10.0"><path d="M 155.5651,346.9551 l -10.7574,-32.1504 c -1.3247,-3.9590 -5.6079,-6.0946 -9.5670 -4.7699l -32.1504,10.7574 c -3.9590,1.3247 -6.0946,5.6079 -4.7699 9.5670l 10.7574,32.1504 c 1.3247,3.9590 5.6079,6.0946 9.5670 4.7699l 32.1504,-10.7574 c 3.9590,-1.3247 6.0946,-5.6079 4.7699 -9.5670Z"/></g><g stroke-linejoin="miter" stroke-opacity="1.0" fill-opacity="0.7" stroke="rgb(0,0,0)" stroke-width="0.37795275590551186" fill="rgb(0,0,0)" stroke-linecap="butt" stroke-miterlimit="10.0"><path d="M 191.9840,421.8523 l -17.5932,-52.5804 c -1.3247,-3.9590 -5.6079,-6.0946 -9.5670 -4.7699l -52.5804,17.5932 c -3.9590,1.3247 -6.0946,5.6079 -4.7699 9.5670l 17.5932,52.5804 c 1.3247,3.9590 5.6079,6.0946 9.5670 4.7699l 52.5804,-17.5932 c 3.9590,-1.3247 6.0946,-5.6079 4.7699 -9.5670Z"/></g><defs><linearGradient x2="5.0000" y1="0.0000" gradientUnits="userSpaceOnUse" spreadMethod="pad" gradientTransform="matrix(3.5842,-1.1993,-1.1993,-3.5842,149.7288,406.7572)" id="gradient126" y2="0.0000" x1="-5.0000"><stop stop-opacity="0.1000" offset="0.0000" stop-color="rgb(0,0,0)"/><stop stop-opacity="0.1000" offset="0.5000" stop-color="rgb(255,255,255)"/><stop stop-opacity="0.1000" offset="1.0000" stop-color="rgb(0,0,0)"/></linearGradient></defs><g stroke-linejoin="miter" stroke-opacity="1.0" fill-opacity="1" stroke="rgb(0,0,0)" stroke-width="0.37795275590551186" fill="url(#gradient126)" stroke-linecap="butt" stroke-miterlimit="10.0"><path d="M 178.3511,415.0552 l -10.7574,-32.1504 c -1.3247,-3.9590 -5.6079,-6.0946 -9.5670 -4.7699l -32.1504,10.7574 c -3.9590,1.3247 -6.0946,5.6079 -4.7699 9.5670l 10.7574,32.1504 c 1.3247,3.9590 5.6079,6.0946 9.5670 4.7699l 32.1504,-10.7574 c 3.9590,-1.3247 6.0946,-5.6079 4.7699 -9.5670Z"/></g><g stroke-linejoin="miter" stroke-opacity="1.0" fill-opacity="0.7" stroke="rgb(0,0,0)" stroke-width="0.37795275590551186" fill="rgb(0,0,0)" stroke-linecap="butt" stroke-miterlimit="10.0"><path d="M 214.7700,489.9524 l -17.5932,-52.5804 c -1.3247,-3.9590 -5.6079,-6.0946 -9.5670 -4.7699l -52.5804,17.5932 c -3.9590,1.3247 -6.0946,5.6079 -4.7699 9.5670l 17.5932,52.5804 c 1.3247,3.9590 5.6079,6.0946 9.5670 4.7699l 52.5804,-17.5932 c 3.9590,-1.3247 6.0946,-5.6079 4.7699 -9.5670Z"/></g><defs><linearGradient x2="5.0000" y1="0.0000" gradientUnits="userSpaceOnUse" spreadMethod="pad" gradientTransform="matrix(3.5842,-1.1993,-1.1993,-3.5842,172.5147,474.8573)" id="gradient130" y2="0.0000" x1="-5.0000"><stop stop-opacity="0.1000" offset="0.0000" stop-color="rgb(0,0,0)"/><stop stop-opacity="0.1000" offset="0.5000" stop-color="rgb(255,255,255)"/><stop stop-opacity="0.1000" offset="1.0000" stop-color="rgb(0,0,0)"/></linearGradient></defs><g stroke-linejoin="miter" stroke-opacity="1.0" fill-opacity="1" stroke="rgb(0,0,0)" stroke-width="0.37795275590551186" fill="url(#gradient130)" stroke-linecap="butt" stroke-miterlimit="10.0"><path d="M 201.1371,483.1553 l -10.7574,-32.1504 c -1.3247,-3.9590 -5.6079,-6.0946 -9.5670 -4.7699l -32.1504,10.7574 c -3.9590,1.3247 -6.0946,5.6079 -4.7699 9.5670l 10.7574,32.1504 c 1.3247,3.9590 5.6079,6.0946 9.5670 4.7699l 32.1504,-10.7574 c 3.9590,-1.3247 6.0946,-5.6079 4.7699 -9.5670Z"/></g></svg>