<?xml version="1.0" encoding="UTF-8"?>
<!DOCTYPE svg PUBLIC "-//W3C//DTD SVG 1.1//EN"
    "http://www.w3.org/Graphics/SVG/1.1/DTD/svg11.dtd"><svg xmlns="http://www.w3.org/2000/svg" height="2084.6347" stroke-opacity="1" viewBox="0 0 1166 2085" font-size="1" width="1166.1651" xmlns:xlink="http://www.w3.org/1999/xlink" stroke="rgb(0,0,0)" version="1.1"><defs></defs><defs><linearGradient x2="76.6120" y1="0.0000" gradientUnits="userSpaceOnUse" spreadMethod="pad" gradientTransform="matrix(3.7795,-0.0000,0.0000,-3.7795,583.0826,2028.2087)" id="gradient0" y2="0.0000" x1="-76.6120"><stop stop-opacity="1.0000" offset="0.0000" stop-color="rgb(128,128,128)"/><stop stop-opacity="1.0000" offset="0.5000" stop-color="rgb(255,255,255)"/><stop stop-opacity="1.0000" offset="1.0000" stop-color="rgb(128,128,128)"/></linearGradient></defs><g stroke-linejoin="miter" stroke-opacity="1.0" fill-opacity="1" stroke="rgb(0,0,0)" stroke-width="0.37795275590551186" fill="url(#gradient0)" stroke-linecap="butt" stroke-miterlimit="10.0"><path d="M 3.9685,1966.0407 c 0.0000,-0.9437 0.0818,-1.8997 0.2511 -2.8596c 21.9811,-124.6607 43.9621,-249.3214 65.9432 -373.9821c 1.3802,-7.8274 8.1810,-13.5340 16.1291 -13.5340c 120.6115,-0.0000 241.2230,-0.0000 361.8345 -0.0000c 4.4001,-0.0000 8.6152,1.7705 11.6955 4.9126c 31.3073,31.9359 75.0058,51.7803 123.2607 51.7803c 48.2549,-0.0000 91.9534,-19.8443 123.2607 -51.7803c 3.0803,-3.1421 7.2954,-4.9126 11.6955 -4.9126c 120.6115,-0.0000 241.2230,-0.0000 361.8345 -0.0000c 7.9481,-0.0000 14.7490,5.7066 16.1291 13.5340c 21.9811,124.6606 43.9621,249.3214 65.9432 373.9821c 0.1693,0.9599 0.2511,1.9159 0.2511 2.8596c 0.0000,7.4653 -5.1229,14.1606 -12.6287 15.9268c -139.1906,32.7544 -278.3811,65.5088 -417.5716 98.2632c -1.2295,0.2894 -2.4884,0.4355 -3.7516 0.4355c -48.3874,-0.0000 -96.7748,-0.0000 -145.1622 -0.0000c -48.3874,-0.0000 -96.7748,-0.0000 -145.1622 -0.0000c -1.2632,-0.0000 -2.5220,-0.1461 -3.7516 -0.4355c -139.1905,-32.7544 -278.3810,-65.5088 -417.5716 -98.2632c -7.5058,-1.7662 -12.6287,-8.4615 -12.6287 -15.9268ZM 18.4590,1962.2455 c 0.0000,3.1311 2.5382,5.6693 5.6693 5.6693c 3.1310,-0.0000 5.6693,-2.5382 5.6693 -5.6693c 0.0000,-3.1311 -2.5383,-5.6693 -5.6693 -5.6693c -3.1311,-0.0000 -5.6693,2.5382 -5.6693 5.6693ZM 84.4021,1595.8225 c 0.0000,3.1311 2.5383,5.6693 5.6693 5.6693c 3.1311,-0.0000 5.6693,-2.5383 5.6693 -5.6693c 0.0000,-3.1310 -2.5383,-5.6693 -5.6693 -5.6693c -3.1310,-0.0000 -5.6693,2.5383 -5.6693 5.6693ZM 426.2322,1595.8225 c 0.0000,3.1311 2.5383,5.6693 5.6693 5.6693c 3.1311,-0.0000 5.6693,-2.5383 5.6693 -5.6693c 0.0000,-3.1310 -2.5383,-5.6693 -5.6693 -5.6693c -3.1310,-0.0000 -5.6693,2.5383 -5.6693 5.6693ZM 432.2511,2060.5088 c 0.0000,3.1311 2.5382,5.6693 5.6693 5.6693c 3.1310,-0.0000 5.6693,-2.5382 5.6693 -5.6693c 0.0000,-3.1310 -2.5383,-5.6693 -5.6693 -5.6693c -3.1311,-0.0000 -5.6693,2.5383 -5.6693 5.6693ZM 722.5755,2060.5088 c 0.0000,3.1311 2.5383,5.6693 5.6693 5.6693c 3.1311,-0.0000 5.6693,-2.5382 5.6693 -5.6693c 0.0000,-3.1310 -2.5382,-5.6693 -5.6693 -5.6693c -3.1310,-0.0000 -5.6693,2.5383 -5.6693 5.6693ZM 728.5944,1595.8225 c 0.0000,3.1311 2.5383,5.6693 5.6693 5.6693c 3.1310,-0.0000 5.6693,-2.5383 5.6693 -5.6693c 0.0000,-3.1310 -2.5383,-5.6693 -5.6693 -5.6693c -3.1311,-0.0000 -5.6693,2.5383 -5.6693 5.6693ZM 1070.4244,1595.8225 c 0.0000,3.1311 2.5383,5.6693 5.6693 5.6693c 3.1310,-0.0000 5.6693,-2.5383 5.6693 -5.6693c 0.0000,-3.1310 -2.5383,-5.6693 -5.6693 -5.6693c -3.1311,-0.0000 -5.6693,2.5383 -5.6693 5.6693ZM 1136.3675,1962.2455 c 0.0000,3.1311 2.5383,5.6693 5.6693 5.6693c 3.1311,-0.0000 5.6693,-2.5382 5.6693 -5.6693c 0.0000,-3.1311 -2.5382,-5.6693 -5.6693 -5.6693c -3.1310,-0.0000 -5.6693,2.5382 -5.6693 5.6693Z"/></g><g stroke-linejoin="miter" stroke-opacity="1.0" fill-opacity="0.5" stroke="rgb(0,0,0)" stroke-width="0.37795275590551186" fill="rgb(255,255,0)" stroke-linecap="butt" stroke-miterlimit="10.0"><path d="M 3.9685,1442.1418 c 0.0000,-0.9437 0.0818,-1.8997 0.2511 -2.8596c 21.9811,-124.6607 43.9621,-249.3214 65.9432 -373.9821c 1.3802,-7.8274 8.1810,-13.5340 16.1291 -13.5340c 120.6115,-0.0000 241.2230,-0.0000 361.8345 -0.0000c 4.4001,-0.0000 8.6152,1.7705 11.6955 4.9126c 31.3073,31.9359 75.0058,51.7803 123.2607 51.7803c 48.2549,-0.0000 91.9534,-19.8443 123.2607 -51.7803c 3.0803,-3.1421 7.2954,-4.9126 11.6955 -4.9126c 120.6115,-0.0000 241.2230,-0.0000 361.8345 -0.0000c 7.9481,-0.0000 14.7490,5.7066 16.1291 13.5340c 21.9811,124.6606 43.9621,249.3214 65.9432 373.9821c 0.1693,0.9599 0.2511,1.9159 0.2511 2.8596c 0.0000,7.4653 -5.1229,14.1606 -12.6287 15.9268c -139.1906,32.7544 -278.3811,65.5088 -417.5716 98.2632c -1.2295,0.2894 -2.4884,0.4355 -3.7516 0.4355c -48.3874,-0.0000 -96.7748,-0.0000 -145.1622 -0.0000c -48.3874,-0.0000 -96.7748,-0.0000 -145.1622 -0.0000c -1.2632,-0.0000 -2.5220,-0.1461 -3.7516 -0.4355c -139.1905,-32.7544 -278.3810,-65.5088 -417.5716 -98.2632c -7.5058,-1.7662 -12.6287,-8.4615 -12.6287 -15.9268ZM 18.4590,1438.3467 c 0.0000,3.1311 2.5382,5.6693 5.6693 5.6693c 3.1310,-0.0000 5.6693,-2.5382 5.6693 -5.6693c 0.0000,-3.1311 -2.5383,-5.6693 -5.6693 -5.6693c -3.1311,-0.0000 -5.6693,2.5382 -5.6693 5.6693ZM 27.7767,1422.3766 c 7.2892,1.6583 12.7296,8.1788 12.7296 15.9701c 0.0000,2.1323 -0.4075,4.1695 -1.1488 6.0378c 127.8729,28.5049 255.7457,57.0097 383.6186 85.5146c 2.5631,-5.6989 8.2903,-9.6670 14.9443 -9.6670c 8.1884,-0.0000 14.9734,6.0092 16.1853 13.8583c 42.9923,-0.0000 85.9846,-0.0000 128.9769 -0.0000c 42.9923,-0.0000 85.9845,-0.0000 128.9769 -0.0000c 1.2120,-7.8491 7.9969,-13.8583 16.1853 -13.8583c 6.6540,-0.0000 12.3812,3.9681 14.9443 9.6670c 127.8729,-28.5049 255.7457,-57.0097 383.6186 -85.5146c -0.7413,-1.8683 -1.1488,-3.9055 -1.1488 -6.0378c 0.0000,-7.7913 5.4404,-14.3118 12.7296 -15.9701c -20.7283,-111.3585 -41.4564,-222.7169 -62.1847 -334.0754c -0.0367,0.0003 -0.0734,0.0004 -0.1101 0.0004c -8.1884,-0.0000 -14.9733,-6.0092 -16.1853 -13.8582c -103.1531,-0.0000 -206.3062,-0.0000 -309.4594 -0.0000c -1.2120,7.8490 -7.9969,13.8582 -16.1853 13.8582c -8.1884,-0.0000 -14.9733,-6.0092 -16.1853 -13.8582c -1.7748,-0.0000 -3.5495,-0.0000 -5.3242 -0.0000c -4.2278,-0.0000 -8.2779,1.6115 -11.2375 4.4714c -30.0814,29.0677 -72.0687,47.1298 -118.4340 47.1298c -46.3653,-0.0000 -88.3526,-18.0621 -118.4340 -47.1298c -2.9597,-2.8599 -7.0097,-4.4714 -11.2375 -4.4714c -1.7748,-0.0000 -3.5495,-0.0000 -5.3242 -0.0000c -1.2120,7.8490 -7.9969,13.8582 -16.1853 13.8582c -8.1884,-0.0000 -14.9733,-6.0092 -16.1853 -13.8582c -103.1531,-0.0000 -206.3062,-0.0000 -309.4594 -0.0000c -1.2120,7.8490 -7.9969,13.8582 -16.1853 13.8582c -0.0367,-0.0000 -0.0734,-0.0001 -0.1101 -0.0004c -20.7283,111.3584 -41.4564,222.7169 -62.1847 334.0754ZM 84.4021,1071.9236 c 0.0000,3.1311 2.5383,5.6693 5.6693 5.6693c 3.1311,-0.0000 5.6693,-2.5383 5.6693 -5.6693c 0.0000,-3.1310 -2.5383,-5.6693 -5.6693 -5.6693c -3.1310,-0.0000 -5.6693,2.5383 -5.6693 5.6693ZM 426.2322,1071.9236 c 0.0000,3.1311 2.5383,5.6693 5.6693 5.6693c 3.1311,-0.0000 5.6693,-2.5383 5.6693 -5.6693c 0.0000,-3.1310 -2.5383,-5.6693 -5.6693 -5.6693c -3.1310,-0.0000 -5.6693,2.5383 -5.6693 5.6693ZM 432.2511,1536.6099 c 0.0000,3.1311 2.5382,5.6693 5.6693 5.6693c 3.1310,-0.0000 5.6693,-2.5382 5.6693 -5.6693c 0.0000,-3.1310 -2.5383,-5.6693 -5.6693 -5.6693c -3.1311,-0.0000 -5.6693,2.5383 -5.6693 5.6693ZM 722.5755,1536.6099 c 0.0000,3.1311 2.5383,5.6693 5.6693 5.6693c 3.1311,-0.0000 5.6693,-2.5382 5.6693 -5.6693c 0.0000,-3.1310 -2.5382,-5.6693 -5.6693 -5.6693c -3.1310,-0.0000 -5.6693,2.5383 -5.6693 5.6693ZM 728.5944,1071.9236 c 0.0000,3.1311 2.5383,5.6693 5.6693 5.6693c 3.1310,-0.0000 5.6693,-2.5383 5.6693 -5.6693c 0.0000,-3.1310 -2.5383,-5.6693 -5.6693 -5.6693c -3.1311,-0.0000 -5.6693,2.5383 -5.6693 5.6693ZM 1070.4244,1071.9236 c 0.0000,3.1311 2.5383,5.6693 5.6693 5.6693c 3.1310,-0.0000 5.6693,-2.5383 5.6693 -5.6693c 0.0000,-3.1310 -2.5383,-5.6693 -5.6693 -5.6693c -3.1311,-0.0000 -5.6693,2.5383 -5.6693 5.6693ZM 1136.3675,1438.3467 c 0.0000,3.1311 2.5383,5.6693 5.6693 5.6693c 3.1311,-0.0000 5.6693,-2.5382 5.6693 -5.6693c 0.0000,-3.1311 -2.5382,-5.6693 -5.6693 -5.6693c -3.1310,-0.0000 -5.6693,2.5382 -5.6693 5.6693Z"/></g><g stroke-linejoin="miter" stroke-opacity="1.0" fill-opacity="0.5" stroke="rgb(0,0,0)" stroke-width="0.37795275590551186" fill="rgb(0,0,0)" stroke-linecap="butt" stroke-miterlimit="10.0"><path d="M 3.9685,918.2430 c 0.0000,-0.9437 0.0818,-1.8997 0.2511 -2.8596c 21.9811,-124.6607 43.9621,-249.3214 65.9432 -373.9821c 1.3802,-7.8274 8.1810,-13.5340 16.1291 -13.5340c 120.6115,-0.0000 241.2230,-0.0000 361.8345 -0.0000c 4.4001,-0.0000 8.6152,1.7705 11.6955 4.9126c 31.3073,31.9359 75.0058,51.7803 123.2607 51.7803c 48.2549,-0.0000 91.9534,-19.8443 123.2607 -51.7803c 3.0803,-3.1421 7.2954,-4.9126 11.6955 -4.9126c 120.6115,-0.0000 241.2230,-0.0000 361.8345 -0.0000c 7.9481,-0.0000 14.7490,5.7066 16.1291 13.5340c 21.9811,124.6606 43.9621,249.3214 65.9432 373.9821c 0.1693,0.9599 0.2511,1.9159 0.2511 2.8596c 0.0000,7.4653 -5.1229,14.1606 -12.6287 15.9268c -139.1906,32.7544 -278.3811,65.5088 -417.5716 98.2632c -1.2295,0.2894 -2.4884,0.4355 -3.7516 0.4355c -48.3874,-0.0000 -96.7748,-0.0000 -145.1622 -0.0000c -48.3874,-0.0000 -96.7748,-0.0000 -145.1622 -0.0000c -1.2632,-0.0000 -2.5220,-0.1461 -3.7516 -0.4355c -139.1905,-32.7544 -278.3810,-65.5088 -417.5716 -98.2632c -7.5058,-1.7662 -12.6287,-8.4615 -12.6287 -15.9268ZM 18.4590,914.4478 c 0.0000,3.1311 2.5382,5.6693 5.6693 5.6693c 3.1310,-0.0000 5.6693,-2.5382 5.6693 -5.6693c 0.0000,-3.1311 -2.5383,-5.6693 -5.6693 -5.6693c -3.1311,-0.0000 -5.6693,2.5382 -5.6693 5.6693ZM 52.6676,902.2534 c 1.0084,0.1778 2.0169,0.3556 3.0253 0.5334c -0.2145,1.2164 -0.4290,2.4329 -0.6435 3.6493c 17.3326,3.0562 34.6652,6.1124 51.9978 9.1686c 0.2145,-1.2164 0.4290,-2.4329 0.6435 -3.6493c 1.0085,0.1778 2.0169,0.3556 3.0253 0.5334c 0.7657,-4.3426 1.5314,-8.6852 2.2971 -13.0277c -1.0084,-0.1778 -2.0169,-0.3556 -3.0253 -0.5334c 1.0958,-6.2146 2.1916,-12.4291 3.2874 -18.6437c 1.0084,0.1778 2.0169,0.3556 3.0253 0.5334c 0.7657,-4.3426 1.5314,-8.6852 2.2971 -13.0277c -1.0084,-0.1778 -2.0169,-0.3556 -3.0253 -0.5334c 0.2145,-1.2165 0.4290,-2.4329 0.6435 -3.6494c -17.3326,-3.0562 -34.6652,-6.1124 -51.9978 -9.1686c -0.2145,1.2165 -0.4290,2.4329 -0.6435 3.6494c -1.0084,-0.1778 -2.0169,-0.3556 -3.0253 -0.5334c -0.7657,4.3426 -1.5314,8.6852 -2.2971 13.0277c 1.0084,0.1778 2.0169,0.3556 3.0253 0.5334c -1.0958,6.2146 -2.1916,12.4291 -3.2874 18.6437c -1.0084,-0.1778 -2.0169,-0.3556 -3.0253 -0.5334c -0.7657,4.3426 -1.5314,8.6852 -2.2971 13.0278ZM 65.1375,831.5333 c 1.0084,0.1778 2.0169,0.3556 3.0253 0.5334c -0.2145,1.2164 -0.4290,2.4329 -0.6435 3.6493c 17.3326,3.0562 34.6652,6.1124 51.9978 9.1686c 0.2145,-1.2164 0.4290,-2.4329 0.6435 -3.6493c 1.0085,0.1778 2.0169,0.3556 3.0253 0.5334c 0.7657,-4.3426 1.5314,-8.6852 2.2971 -13.0278c -1.0084,-0.1778 -2.0169,-0.3556 -3.0253 -0.5334c 1.0958,-6.2146 2.1916,-12.4291 3.2874 -18.6437c 1.0085,0.1778 2.0169,0.3556 3.0253 0.5334c 0.7657,-4.3426 1.5314,-8.6852 2.2971 -13.0277c -1.0084,-0.1778 -2.0169,-0.3556 -3.0253 -0.5334c 0.2145,-1.2165 0.4290,-2.4329 0.6435 -3.6494c -17.3326,-3.0562 -34.6652,-6.1124 -51.9978 -9.1686c -0.2145,1.2165 -0.4290,2.4329 -0.6435 3.6493c -1.0085,-0.1778 -2.0169,-0.3556 -3.0253 -0.5334c -0.7657,4.3426 -1.5314,8.6852 -2.2971 13.0278c 1.0084,0.1778 2.0169,0.3556 3.0253 0.5334c -1.0958,6.2146 -2.1916,12.4291 -3.2874 18.6437c -1.0084,-0.1778 -2.0169,-0.3556 -3.0253 -0.5334c -0.7657,4.3426 -1.5314,8.6852 -2.2971 13.0278ZM 77.6073,760.8132 c 1.0084,0.1778 2.0169,0.3556 3.0253 0.5334c -0.2145,1.2165 -0.4290,2.4329 -0.6435 3.6494c 17.3326,3.0562 34.6652,6.1124 51.9978 9.1686c 0.2145,-1.2165 0.4290,-2.4329 0.6435 -3.6494c 1.0084,0.1778 2.0169,0.3556 3.0253 0.5335c 0.7657,-4.3426 1.5314,-8.6852 2.2971 -13.0278c -1.0084,-0.1778 -2.0169,-0.3556 -3.0253 -0.5334c 1.0958,-6.2146 2.1916,-12.4291 3.2874 -18.6437c 1.0085,0.1778 2.0169,0.3556 3.0253 0.5334c 0.7657,-4.3426 1.5314,-8.6852 2.2971 -13.0278c -1.0084,-0.1778 -2.0169,-0.3556 -3.0253 -0.5334c 0.2145,-1.2164 0.4290,-2.4329 0.6435 -3.6493c -17.3326,-3.0562 -34.6652,-6.1124 -51.9978 -9.1686c -0.2145,1.2164 -0.4290,2.4329 -0.6435 3.6493c -1.0084,-0.1778 -2.0169,-0.3556 -3.0253 -0.5334c -0.7657,4.3426 -1.5314,8.6852 -2.2971 13.0278c 1.0084,0.1778 2.0169,0.3556 3.0253 0.5334c -1.0958,6.2146 -2.1916,12.4291 -3.2874 18.6437c -1.0084,-0.1778 -2.0169,-0.3556 -3.0253 -0.5334c -0.7657,4.3426 -1.5314,8.6852 -2.2971 13.0277ZM 84.4021,548.0248 c 0.0000,3.1311 2.5383,5.6693 5.6693 5.6693c 3.1311,-0.0000 5.6693,-2.5383 5.6693 -5.6693c 0.0000,-3.1310 -2.5383,-5.6693 -5.6693 -5.6693c -3.1310,-0.0000 -5.6693,2.5383 -5.6693 5.6693ZM 90.0772,690.0932 c 1.0084,0.1778 2.0169,0.3556 3.0253 0.5334c -0.2145,1.2165 -0.4290,2.4329 -0.6435 3.6494c 17.3326,3.0562 34.6652,6.1124 51.9978 9.1686c 0.2145,-1.2165 0.4290,-2.4329 0.6435 -3.6494c 1.0084,0.1778 2.0169,0.3556 3.0253 0.5334c 0.7657,-4.3426 1.5314,-8.6852 2.2971 -13.0277c -1.0084,-0.1778 -2.0169,-0.3556 -3.0253 -0.5334c 1.0958,-6.2146 2.1916,-12.4291 3.2874 -18.6437c 1.0085,0.1778 2.0169,0.3556 3.0253 0.5334c 0.7657,-4.3426 1.5314,-8.6852 2.2971 -13.0278c -1.0084,-0.1778 -2.0169,-0.3556 -3.0253 -0.5334c 0.2145,-1.2164 0.4290,-2.4329 0.6435 -3.6493c -17.3326,-3.0562 -34.6652,-6.1124 -51.9978 -9.1686c -0.2145,1.2164 -0.4290,2.4329 -0.6435 3.6493c -1.0084,-0.1778 -2.0169,-0.3556 -3.0253 -0.5334c -0.7657,4.3426 -1.5314,8.6852 -2.2971 13.0278c 1.0084,0.1778 2.0169,0.3556 3.0253 0.5334c -1.0958,6.2146 -2.1916,12.4291 -3.2874 18.6437c -1.0084,-0.1778 -2.0169,-0.3556 -3.0253 -0.5334c -0.7657,4.3426 -1.5314,8.6852 -2.2971 13.0277ZM 102.5470,619.3731 c 1.0084,0.1778 2.0169,0.3556 3.0253 0.5334c -0.2145,1.2165 -0.4290,2.4329 -0.6435 3.6494c 17.3326,3.0562 34.6652,6.1124 51.9978 9.1686c 0.2145,-1.2165 0.4290,-2.4329 0.6435 -3.6494c 1.0084,0.1778 2.0169,0.3556 3.0253 0.5334c 0.7657,-4.3426 1.5314,-8.6852 2.2971 -13.0277c -1.0084,-0.1778 -2.0169,-0.3556 -3.0253 -0.5334c 1.0958,-6.2146 2.1916,-12.4291 3.2874 -18.6437c 1.0084,0.1778 2.0169,0.3556 3.0253 0.5335c 0.7657,-4.3426 1.5314,-8.6852 2.2971 -13.0278c -1.0084,-0.1778 -2.0169,-0.3556 -3.0253 -0.5334c 0.2145,-1.2164 0.4290,-2.4329 0.6435 -3.6493c -17.3326,-3.0562 -34.6652,-6.1124 -51.9978 -9.1686c -0.2145,1.2164 -0.4290,2.4329 -0.6435 3.6493c -1.0084,-0.1778 -2.0169,-0.3556 -3.0253 -0.5334c -0.7657,4.3426 -1.5314,8.6852 -2.2971 13.0277c 1.0084,0.1778 2.0169,0.3556 3.0253 0.5334c -1.0958,6.2146 -2.1916,12.4291 -3.2874 18.6437c -1.0084,-0.1778 -2.0169,-0.3556 -3.0253 -0.5334c -0.7657,4.3426 -1.5314,8.6852 -2.2971 13.0277ZM 124.0440,911.0011 c 1.0084,0.1778 2.0169,0.3556 3.0253 0.5334c -0.2145,1.2164 -0.4290,2.4329 -0.6435 3.6493c 17.3326,3.0562 34.6652,6.1124 51.9978 9.1686c 0.2145,-1.2164 0.4290,-2.4329 0.6435 -3.6493c 1.0084,0.1778 2.0169,0.3556 3.0253 0.5334c 0.7657,-4.3426 1.5314,-8.6852 2.2971 -13.0278c -1.0084,-0.1778 -2.0169,-0.3556 -3.0253 -0.5334c 1.0958,-6.2146 2.1916,-12.4291 3.2874 -18.6437c 1.0084,0.1778 2.0169,0.3556 3.0253 0.5334c 0.7657,-4.3426 1.5314,-8.6852 2.2971 -13.0277c -1.0085,-0.1778 -2.0169,-0.3556 -3.0253 -0.5334c 0.2145,-1.2165 0.4290,-2.4329 0.6435 -3.6494c -17.3326,-3.0562 -34.6652,-6.1124 -51.9978 -9.1686c -0.2145,1.2165 -0.4290,2.4329 -0.6435 3.6494c -1.0084,-0.1778 -2.0169,-0.3556 -3.0253 -0.5334c -0.7657,4.3426 -1.5314,8.6852 -2.2971 13.0277c 1.0084,0.1778 2.0169,0.3556 3.0253 0.5334c -1.0958,6.2146 -2.1916,12.4291 -3.2874 18.6437c -1.0084,-0.1778 -2.0169,-0.3556 -3.0253 -0.5334c -0.7657,4.3426 -1.5314,8.6852 -2.2971 13.0278ZM 136.5138,840.2811 c 1.0084,0.1778 2.0169,0.3556 3.0253 0.5334c -0.2145,1.2164 -0.4290,2.4329 -0.6435 3.6493c 17.3326,3.0562 34.6652,6.1124 51.9978 9.1686c 0.2145,-1.2165 0.4290,-2.4329 0.6435 -3.6493c 1.0084,0.1778 2.0169,0.3556 3.0253 0.5334c 0.7657,-4.3426 1.5314,-8.6852 2.2971 -13.0278c -1.0084,-0.1778 -2.0169,-0.3556 -3.0253 -0.5334c 1.0958,-6.2146 2.1916,-12.4291 3.2874 -18.6437c 1.0084,0.1778 2.0169,0.3556 3.0253 0.5334c 0.7657,-4.3426 1.5314,-8.6852 2.2971 -13.0278c -1.0085,-0.1778 -2.0169,-0.3556 -3.0253 -0.5334c 0.2145,-1.2165 0.4290,-2.4329 0.6435 -3.6494c -17.3326,-3.0562 -34.6652,-6.1124 -51.9978 -9.1686c -0.2145,1.2164 -0.4290,2.4329 -0.6435 3.6493c -1.0084,-0.1778 -2.0169,-0.3556 -3.0253 -0.5334c -0.7657,4.3426 -1.5314,8.6852 -2.2971 13.0278c 1.0085,0.1778 2.0169,0.3556 3.0253 0.5334c -1.0958,6.2146 -2.1916,12.4291 -3.2874 18.6437c -1.0084,-0.1778 -2.0169,-0.3556 -3.0253 -0.5334c -0.7657,4.3426 -1.5314,8.6852 -2.2971 13.0278ZM 148.9837,769.5610 c 1.0084,0.1778 2.0169,0.3556 3.0253 0.5334c -0.2145,1.2165 -0.4290,2.4329 -0.6435 3.6494c 17.3326,3.0562 34.6652,6.1124 51.9978 9.1686c 0.2145,-1.2165 0.4290,-2.4329 0.6435 -3.6494c 1.0084,0.1778 2.0169,0.3556 3.0253 0.5334c 0.7657,-4.3426 1.5314,-8.6852 2.2971 -13.0277c -1.0084,-0.1778 -2.0169,-0.3556 -3.0253 -0.5334c 1.0958,-6.2146 2.1916,-12.4291 3.2874 -18.6437c 1.0084,0.1778 2.0169,0.3556 3.0253 0.5334c 0.7657,-4.3426 1.5314,-8.6852 2.2971 -13.0278c -1.0084,-0.1778 -2.0169,-0.3556 -3.0253 -0.5334c 0.2145,-1.2164 0.4290,-2.4329 0.6435 -3.6493c -17.3326,-3.0562 -34.6652,-6.1124 -51.9978 -9.1686c -0.2145,1.2164 -0.4290,2.4329 -0.6435 3.6493c -1.0084,-0.1778 -2.0169,-0.3556 -3.0253 -0.5334c -0.7657,4.3426 -1.5314,8.6852 -2.2971 13.0278c 1.0084,0.1778 2.0169,0.3556 3.0253 0.5334c -1.0958,6.2146 -2.1916,12.4291 -3.2874 18.6437c -1.0084,-0.1778 -2.0169,-0.3556 -3.0253 -0.5334c -0.7657,4.3426 -1.5314,8.6852 -2.2971 13.0277ZM 161.4535,698.8409 c 1.0084,0.1778 2.0169,0.3556 3.0253 0.5334c -0.2145,1.2165 -0.4290,2.4329 -0.6435 3.6494c 17.3326,3.0562 34.6652,6.1124 51.9978 9.1686c 0.2145,-1.2165 0.4290,-2.4329 0.6435 -3.6494c 1.0084,0.1778 2.0169,0.3556 3.0253 0.5334c 0.7657,-4.3426 1.5314,-8.6852 2.2971 -13.0277c -1.0084,-0.1778 -2.0169,-0.3556 -3.0253 -0.5334c 1.0958,-6.2146 2.1916,-12.4291 3.2874 -18.6437c 1.0084,0.1778 2.0169,0.3556 3.0253 0.5334c 0.7657,-4.3426 1.5314,-8.6852 2.2971 -13.0278c -1.0084,-0.1778 -2.0169,-0.3556 -3.0253 -0.5334c 0.2145,-1.2164 0.4290,-2.4329 0.6435 -3.6493c -17.3326,-3.0562 -34.6652,-6.1124 -51.9978 -9.1686c -0.2145,1.2164 -0.4290,2.4329 -0.6435 3.6493c -1.0084,-0.1778 -2.0169,-0.3556 -3.0253 -0.5334c -0.7657,4.3426 -1.5314,8.6852 -2.2971 13.0278c 1.0084,0.1778 2.0169,0.3556 3.0253 0.5334c -1.0958,6.2146 -2.1916,12.4291 -3.2874 18.6437c -1.0085,-0.1778 -2.0169,-0.3556 -3.0253 -0.5334c -0.7657,4.3426 -1.5314,8.6852 -2.2971 13.0277ZM 173.9234,628.1209 c 1.0084,0.1778 2.0169,0.3556 3.0253 0.5334c -0.2145,1.2165 -0.4290,2.4329 -0.6435 3.6493c 17.3326,3.0562 34.6652,6.1125 51.9978 9.1687c 0.2145,-1.2165 0.4290,-2.4329 0.6435 -3.6494c 1.0084,0.1778 2.0169,0.3556 3.0253 0.5334c 0.7657,-4.3426 1.5314,-8.6852 2.2971 -13.0277c -1.0084,-0.1778 -2.0169,-0.3556 -3.0253 -0.5334c 1.0958,-6.2146 2.1916,-12.4291 3.2874 -18.6437c 1.0084,0.1778 2.0169,0.3556 3.0253 0.5334c 0.7657,-4.3426 1.5314,-8.6852 2.2971 -13.0277c -1.0084,-0.1778 -2.0169,-0.3556 -3.0253 -0.5334c 0.2145,-1.2164 0.4290,-2.4329 0.6435 -3.6493c -17.3326,-3.0562 -34.6652,-6.1124 -51.9978 -9.1686c -0.2145,1.2164 -0.4290,2.4329 -0.6435 3.6493c -1.0084,-0.1778 -2.0169,-0.3556 -3.0253 -0.5334c -0.7657,4.3426 -1.5314,8.6852 -2.2971 13.0277c 1.0084,0.1778 2.0169,0.3556 3.0253 0.5334c -1.0958,6.2146 -2.1916,12.4291 -3.2874 18.6437c -1.0085,-0.1778 -2.0169,-0.3556 -3.0253 -0.5334c -0.7657,4.3426 -1.5314,8.6852 -2.2971 13.0277ZM 196.7329,912.3047 c 1.0084,0.1778 2.0169,0.3556 3.0253 0.5334c -0.2145,1.2164 -0.4290,2.4329 -0.6435 3.6493c 17.3326,3.0562 34.6652,6.1124 51.9978 9.1686c 0.2145,-1.2164 0.4290,-2.4329 0.6435 -3.6493c 1.0084,0.1778 2.0169,0.3556 3.0253 0.5334c 0.7657,-4.3426 1.5314,-8.6852 2.2971 -13.0278c -1.0084,-0.1778 -2.0169,-0.3556 -3.0253 -0.5334c 1.0958,-6.2146 2.1916,-12.4291 3.2874 -18.6437c 1.0084,0.1778 2.0169,0.3556 3.0253 0.5334c 0.7657,-4.3426 1.5314,-8.6852 2.2971 -13.0277c -1.0084,-0.1778 -2.0169,-0.3556 -3.0253 -0.5334c 0.2145,-1.2165 0.4290,-2.4329 0.6435 -3.6494c -17.3326,-3.0562 -34.6652,-6.1124 -51.9978 -9.1686c -0.2145,1.2165 -0.4290,2.4329 -0.6435 3.6493c -1.0084,-0.1778 -2.0169,-0.3556 -3.0253 -0.5334c -0.7657,4.3426 -1.5314,8.6852 -2.2971 13.0278c 1.0085,0.1778 2.0169,0.3556 3.0253 0.5334c -1.0958,6.2146 -2.1916,12.4291 -3.2874 18.6437c -1.0084,-0.1778 -2.0169,-0.3556 -3.0253 -0.5334c -0.7657,4.3426 -1.5314,8.6852 -2.2971 13.0278ZM 209.2028,841.5846 c 1.0084,0.1778 2.0169,0.3556 3.0253 0.5334c -0.2145,1.2165 -0.4290,2.4329 -0.6435 3.6494c 17.3326,3.0562 34.6652,6.1124 51.9978 9.1686c 0.2145,-1.2165 0.4290,-2.4329 0.6435 -3.6493c 1.0084,0.1778 2.0169,0.3556 3.0253 0.5334c 0.7657,-4.3426 1.5314,-8.6852 2.2971 -13.0278c -1.0084,-0.1778 -2.0169,-0.3556 -3.0253 -0.5334c 1.0958,-6.2146 2.1916,-12.4291 3.2874 -18.6437c 1.0084,0.1778 2.0169,0.3556 3.0253 0.5334c 0.7657,-4.3426 1.5314,-8.6852 2.2971 -13.0278c -1.0084,-0.1778 -2.0169,-0.3556 -3.0253 -0.5334c 0.2145,-1.2164 0.4290,-2.4329 0.6435 -3.6493c -17.3326,-3.0562 -34.6652,-6.1124 -51.9978 -9.1686c -0.2145,1.2164 -0.4290,2.4329 -0.6435 3.6493c -1.0084,-0.1778 -2.0169,-0.3556 -3.0253 -0.5334c -0.7657,4.3426 -1.5314,8.6852 -2.2971 13.0278c 1.0085,0.1778 2.0169,0.3556 3.0253 0.5334c -1.0958,6.2146 -2.1916,12.4291 -3.2874 18.6437c -1.0084,-0.1778 -2.0169,-0.3556 -3.0253 -0.5334c -0.7657,4.3426 -1.5314,8.6852 -2.2971 13.0277ZM 221.6727,770.8645 c 1.0084,0.1778 2.0169,0.3556 3.0253 0.5334c -0.2145,1.2165 -0.4290,2.4329 -0.6435 3.6494c 17.3326,3.0562 34.6652,6.1124 51.9978 9.1686c 0.2145,-1.2165 0.4290,-2.4329 0.6435 -3.6494c 1.0084,0.1778 2.0169,0.3556 3.0253 0.5334c 0.7657,-4.3426 1.5314,-8.6852 2.2971 -13.0277c -1.0084,-0.1778 -2.0169,-0.3556 -3.0253 -0.5334c 1.0958,-6.2146 2.1916,-12.4291 3.2874 -18.6437c 1.0084,0.1778 2.0169,0.3556 3.0253 0.5334c 0.7657,-4.3426 1.5314,-8.6852 2.2971 -13.0278c -1.0084,-0.1778 -2.0169,-0.3556 -3.0253 -0.5334c 0.2145,-1.2164 0.4290,-2.4329 0.6435 -3.6493c -17.3326,-3.0562 -34.6652,-6.1124 -51.9978 -9.1686c -0.2145,1.2164 -0.4290,2.4329 -0.6435 3.6493c -1.0084,-0.1778 -2.0169,-0.3556 -3.0253 -0.5334c -0.7657,4.3426 -1.5314,8.6852 -2.2971 13.0277c 1.0084,0.1778 2.0169,0.3556 3.0253 0.5335c -1.0958,6.2146 -2.1916,12.4291 -3.2874 18.6437c -1.0084,-0.1778 -2.0169,-0.3556 -3.0253 -0.5334c -0.7657,4.3426 -1.5314,8.6852 -2.2971 13.0277ZM 234.1425,700.1445 c 1.0084,0.1778 2.0169,0.3556 3.0253 0.5334c -0.2145,1.2165 -0.4290,2.4329 -0.6435 3.6494c 17.3326,3.0562 34.6652,6.1124 51.9978 9.1686c 0.2145,-1.2165 0.4290,-2.4329 0.6435 -3.6494c 1.0084,0.1778 2.0169,0.3556 3.0253 0.5334c 0.7657,-4.3426 1.5314,-8.6852 2.2971 -13.0277c -1.0084,-0.1778 -2.0169,-0.3556 -3.0253 -0.5334c 1.0958,-6.2146 2.1916,-12.4291 3.2874 -18.6437c 1.0084,0.1778 2.0169,0.3556 3.0253 0.5334c 0.7657,-4.3426 1.5314,-8.6852 2.2971 -13.0277c -1.0084,-0.1778 -2.0169,-0.3556 -3.0253 -0.5334c 0.2145,-1.2164 0.4290,-2.4329 0.6435 -3.6493c -17.3326,-3.0562 -34.6652,-6.1124 -51.9978 -9.1686c -0.2145,1.2164 -0.4290,2.4329 -0.6435 3.6493c -1.0084,-0.1778 -2.0169,-0.3556 -3.0253 -0.5334c -0.7657,4.3426 -1.5314,8.6852 -2.2971 13.0277c 1.0084,0.1778 2.0169,0.3556 3.0253 0.5334c -1.0958,6.2146 -2.1916,12.4291 -3.2874 18.6437c -1.0085,-0.1778 -2.0169,-0.3556 -3.0253 -0.5334c -0.7657,4.3426 -1.5314,8.6852 -2.2971 13.0277ZM 246.6124,629.4244 c 1.0084,0.1778 2.0169,0.3556 3.0253 0.5334c -0.2145,1.2165 -0.4290,2.4329 -0.6435 3.6493c 17.3326,3.0562 34.6652,6.1124 51.9978 9.1686c 0.2145,-1.2164 0.4290,-2.4329 0.6435 -3.6493c 1.0085,0.1778 2.0169,0.3556 3.0253 0.5334c 0.7657,-4.3426 1.5314,-8.6852 2.2971 -13.0277c -1.0084,-0.1778 -2.0169,-0.3556 -3.0253 -0.5334c 1.0958,-6.2146 2.1916,-12.4291 3.2874 -18.6437c 1.0084,0.1778 2.0169,0.3556 3.0253 0.5334c 0.7657,-4.3426 1.5314,-8.6852 2.2971 -13.0277c -1.0084,-0.1778 -2.0169,-0.3556 -3.0253 -0.5334c 0.2145,-1.2164 0.4290,-2.4329 0.6435 -3.6493c -17.3326,-3.0562 -34.6652,-6.1124 -51.9978 -9.1687c -0.2145,1.2165 -0.4290,2.4329 -0.6435 3.6494c -1.0084,-0.1778 -2.0169,-0.3556 -3.0253 -0.5334c -0.7657,4.3426 -1.5314,8.6852 -2.2971 13.0277c 1.0084,0.1778 2.0169,0.3556 3.0253 0.5334c -1.0958,6.2146 -2.1916,12.4291 -3.2874 18.6437c -1.0084,-0.1778 -2.0169,-0.3556 -3.0253 -0.5334c -0.7657,4.3426 -1.5314,8.6852 -2.2971 13.0277ZM 270.7346,906.1639 c 1.0084,0.1778 2.0169,0.3556 3.0253 0.5334c -0.2145,1.2165 -0.4290,2.4329 -0.6435 3.6494c 17.3326,3.0562 34.6652,6.1124 51.9978 9.1686c 0.2145,-1.2165 0.4290,-2.4329 0.6435 -3.6493c 1.0084,0.1778 2.0169,0.3556 3.0253 0.5334c 0.7657,-4.3426 1.5314,-8.6852 2.2971 -13.0278c -1.0084,-0.1778 -2.0169,-0.3556 -3.0253 -0.5334c 1.0958,-6.2146 2.1916,-12.4291 3.2874 -18.6437c 1.0085,0.1778 2.0169,0.3556 3.0253 0.5334c 0.7657,-4.3426 1.5314,-8.6852 2.2971 -13.0278c -1.0084,-0.1778 -2.0169,-0.3556 -3.0253 -0.5334c 0.2145,-1.2164 0.4290,-2.4329 0.6435 -3.6493c -17.3326,-3.0562 -34.6652,-6.1124 -51.9978 -9.1686c -0.2145,1.2164 -0.4290,2.4329 -0.6435 3.6493c -1.0084,-0.1778 -2.0169,-0.3556 -3.0253 -0.5334c -0.7657,4.3426 -1.5314,8.6852 -2.2971 13.0278c 1.0084,0.1778 2.0169,0.3556 3.0253 0.5334c -1.0958,6.2146 -2.1916,12.4291 -3.2874 18.6437c -1.0084,-0.1778 -2.0169,-0.3556 -3.0253 -0.5334c -0.7657,4.3426 -1.5314,8.6852 -2.2971 13.0277ZM 283.2044,835.4439 c 1.0084,0.1778 2.0169,0.3556 3.0253 0.5334c -0.2145,1.2165 -0.4290,2.4329 -0.6435 3.6494c 17.3326,3.0562 34.6652,6.1124 51.9978 9.1686c 0.2145,-1.2165 0.4290,-2.4329 0.6435 -3.6494c 1.0084,0.1778 2.0169,0.3556 3.0253 0.5334c 0.7657,-4.3426 1.5314,-8.6852 2.2971 -13.0277c -1.0084,-0.1778 -2.0169,-0.3556 -3.0253 -0.5334c 1.0958,-6.2146 2.1916,-12.4291 3.2874 -18.6437c 1.0084,0.1778 2.0169,0.3556 3.0253 0.5334c 0.7657,-4.3426 1.5314,-8.6852 2.2971 -13.0278c -1.0084,-0.1778 -2.0169,-0.3556 -3.0253 -0.5334c 0.2145,-1.2164 0.4290,-2.4329 0.6435 -3.6493c -17.3326,-3.0562 -34.6652,-6.1124 -51.9978 -9.1686c -0.2145,1.2164 -0.4290,2.4329 -0.6435 3.6493c -1.0084,-0.1778 -2.0169,-0.3556 -3.0253 -0.5334c -0.7657,4.3426 -1.5314,8.6852 -2.2971 13.0278c 1.0084,0.1778 2.0169,0.3556 3.0253 0.5334c -1.0958,6.2146 -2.1916,12.4291 -3.2874 18.6437c -1.0084,-0.1778 -2.0169,-0.3556 -3.0253 -0.5334c -0.7657,4.3426 -1.5314,8.6852 -2.2971 13.0277ZM 295.6742,764.7238 c 1.0085,0.1778 2.0169,0.3556 3.0253 0.5334c -0.2145,1.2165 -0.4290,2.4329 -0.6435 3.6494c 17.3326,3.0562 34.6652,6.1124 51.9978 9.1686c 0.2145,-1.2165 0.4290,-2.4329 0.6435 -3.6494c 1.0084,0.1778 2.0169,0.3556 3.0253 0.5334c 0.7657,-4.3426 1.5314,-8.6852 2.2971 -13.0277c -1.0085,-0.1778 -2.0169,-0.3556 -3.0253 -0.5334c 1.0958,-6.2146 2.1916,-12.4291 3.2874 -18.6437c 1.0084,0.1778 2.0169,0.3556 3.0253 0.5335c 0.7657,-4.3426 1.5314,-8.6852 2.2971 -13.0278c -1.0084,-0.1778 -2.0169,-0.3556 -3.0253 -0.5334c 0.2145,-1.2164 0.4290,-2.4329 0.6435 -3.6493c -17.3326,-3.0562 -34.6652,-6.1124 -51.9978 -9.1686c -0.2145,1.2164 -0.4290,2.4329 -0.6435 3.6493c -1.0084,-0.1778 -2.0169,-0.3556 -3.0253 -0.5334c -0.7657,4.3426 -1.5314,8.6852 -2.2971 13.0277c 1.0084,0.1778 2.0169,0.3556 3.0253 0.5334c -1.0958,6.2146 -2.1916,12.4291 -3.2874 18.6437c -1.0084,-0.1778 -2.0169,-0.3556 -3.0253 -0.5334c -0.7657,4.3426 -1.5314,8.6852 -2.2972 13.0277ZM 308.1441,694.0038 c 1.0085,0.1778 2.0169,0.3556 3.0253 0.5334c -0.2145,1.2164 -0.4290,2.4329 -0.6435 3.6493c 17.3326,3.0562 34.6652,6.1124 51.9978 9.1687c 0.2145,-1.2165 0.4290,-2.4329 0.6435 -3.6494c 1.0084,0.1778 2.0169,0.3556 3.0253 0.5334c 0.7657,-4.3426 1.5314,-8.6852 2.2971 -13.0277c -1.0084,-0.1778 -2.0169,-0.3556 -3.0253 -0.5334c 1.0958,-6.2146 2.1916,-12.4291 3.2874 -18.6437c 1.0084,0.1778 2.0169,0.3556 3.0253 0.5334c 0.7657,-4.3426 1.5314,-8.6852 2.2971 -13.0277c -1.0084,-0.1778 -2.0169,-0.3556 -3.0253 -0.5334c 0.2145,-1.2164 0.4290,-2.4329 0.6435 -3.6493c -17.3326,-3.0562 -34.6652,-6.1124 -51.9978 -9.1686c -0.2145,1.2164 -0.4290,2.4329 -0.6435 3.6493c -1.0084,-0.1778 -2.0169,-0.3556 -3.0253 -0.5334c -0.7657,4.3426 -1.5314,8.6852 -2.2971 13.0277c 1.0084,0.1778 2.0169,0.3556 3.0253 0.5334c -1.0958,6.2146 -2.1916,12.4291 -3.2874 18.6437c -1.0084,-0.1778 -2.0169,-0.3556 -3.0253 -0.5334c -0.7657,4.3426 -1.5314,8.6852 -2.2971 13.0277ZM 320.6139,623.2837 c 1.0085,0.1778 2.0169,0.3556 3.0253 0.5334c -0.2145,1.2164 -0.4290,2.4329 -0.6435 3.6493c 17.3326,3.0562 34.6652,6.1124 51.9978 9.1686c 0.2145,-1.2164 0.4290,-2.4329 0.6435 -3.6493c 1.0084,0.1778 2.0169,0.3556 3.0253 0.5334c 0.7657,-4.3426 1.5314,-8.6852 2.2971 -13.0277c -1.0084,-0.1778 -2.0169,-0.3556 -3.0253 -0.5334c 1.0958,-6.2146 2.1916,-12.4291 3.2874 -18.6437c 1.0084,0.1778 2.0169,0.3556 3.0253 0.5334c 0.7657,-4.3426 1.5314,-8.6852 2.2971 -13.0277c -1.0085,-0.1778 -2.0169,-0.3556 -3.0253 -0.5334c 0.2145,-1.2165 0.4290,-2.4329 0.6435 -3.6493c -17.3326,-3.0562 -34.6652,-6.1125 -51.9978 -9.1687c -0.2145,1.2165 -0.4290,2.4329 -0.6435 3.6494c -1.0084,-0.1778 -2.0169,-0.3556 -3.0253 -0.5334c -0.7657,4.3426 -1.5314,8.6852 -2.2971 13.0277c 1.0084,0.1778 2.0169,0.3556 3.0253 0.5334c -1.0958,6.2146 -2.1916,12.4291 -3.2874 18.6437c -1.0084,-0.1778 -2.0169,-0.3556 -3.0253 -0.5334c -0.7657,4.3426 -1.5314,8.6852 -2.2971 13.0277ZM 337.5167,940.9664 c 1.0084,0.1778 2.0169,0.3556 3.0253 0.5334c -0.2145,1.2165 -0.4290,2.4329 -0.6435 3.6494c 17.3326,3.0562 34.6652,6.1124 51.9978 9.1686c 0.2145,-1.2165 0.4290,-2.4329 0.6435 -3.6494c 1.0084,0.1778 2.0169,0.3556 3.0253 0.5335c 0.7657,-4.3426 1.5314,-8.6852 2.2971 -13.0278c -1.0084,-0.1778 -2.0169,-0.3556 -3.0253 -0.5334c 1.0958,-6.2146 2.1916,-12.4291 3.2874 -18.6437c 1.0084,0.1778 2.0169,0.3556 3.0253 0.5334c 0.7657,-4.3426 1.5314,-8.6852 2.2971 -13.0278c -1.0084,-0.1778 -2.0169,-0.3556 -3.0253 -0.5334c 0.2145,-1.2164 0.4290,-2.4329 0.6435 -3.6493c -17.3326,-3.0562 -34.6652,-6.1124 -51.9978 -9.1686c -0.2145,1.2164 -0.4290,2.4329 -0.6435 3.6493c -1.0084,-0.1778 -2.0169,-0.3556 -3.0253 -0.5334c -0.7657,4.3426 -1.5314,8.6852 -2.2971 13.0278c 1.0085,0.1778 2.0169,0.3556 3.0253 0.5334c -1.0958,6.2146 -2.1916,12.4291 -3.2874 18.6437c -1.0084,-0.1778 -2.0169,-0.3556 -3.0253 -0.5334c -0.7657,4.3426 -1.5314,8.6852 -2.2971 13.0277ZM 349.9866,870.2464 c 1.0084,0.1778 2.0169,0.3556 3.0253 0.5334c -0.2145,1.2165 -0.4290,2.4329 -0.6435 3.6494c 17.3326,3.0562 34.6652,6.1124 51.9978 9.1686c 0.2145,-1.2165 0.4290,-2.4329 0.6435 -3.6494c 1.0084,0.1778 2.0169,0.3556 3.0253 0.5334c 0.7657,-4.3426 1.5314,-8.6852 2.2971 -13.0277c -1.0084,-0.1778 -2.0169,-0.3556 -3.0253 -0.5334c 1.0958,-6.2146 2.1916,-12.4291 3.2874 -18.6437c 1.0084,0.1778 2.0169,0.3556 3.0253 0.5334c 0.7657,-4.3426 1.5314,-8.6852 2.2971 -13.0278c -1.0084,-0.1778 -2.0169,-0.3556 -3.0253 -0.5334c 0.2145,-1.2164 0.4290,-2.4329 0.6435 -3.6493c -17.3326,-3.0562 -34.6652,-6.1124 -51.9978 -9.1686c -0.2145,1.2164 -0.4290,2.4329 -0.6435 3.6493c -1.0084,-0.1778 -2.0169,-0.3556 -3.0253 -0.5334c -0.7657,4.3426 -1.5314,8.6852 -2.2971 13.0277c 1.0085,0.1778 2.0169,0.3556 3.0253 0.5334c -1.0958,6.2146 -2.1916,12.4291 -3.2874 18.6437c -1.0084,-0.1778 -2.0169,-0.3556 -3.0253 -0.5334c -0.7657,4.3426 -1.5314,8.6852 -2.2971 13.0277ZM 362.4565,799.5263 c 1.0084,0.1778 2.0169,0.3556 3.0253 0.5334c -0.2145,1.2165 -0.4290,2.4329 -0.6435 3.6494c 17.3326,3.0562 34.6652,6.1124 51.9978 9.1686c 0.2145,-1.2165 0.4290,-2.4329 0.6435 -3.6494c 1.0084,0.1778 2.0169,0.3556 3.0253 0.5334c 0.7657,-4.3426 1.5314,-8.6852 2.2971 -13.0277c -1.0084,-0.1778 -2.0169,-0.3556 -3.0253 -0.5334c 1.0958,-6.2146 2.1916,-12.4291 3.2874 -18.6437c 1.0084,0.1778 2.0169,0.3556 3.0253 0.5334c 0.7657,-4.3426 1.5314,-8.6852 2.2971 -13.0277c -1.0084,-0.1778 -2.0169,-0.3556 -3.0253 -0.5334c 0.2145,-1.2164 0.4290,-2.4329 0.6435 -3.6493c -17.3326,-3.0562 -34.6652,-6.1124 -51.9978 -9.1686c -0.2145,1.2164 -0.4290,2.4329 -0.6435 3.6493c -1.0084,-0.1778 -2.0169,-0.3556 -3.0253 -0.5334c -0.7657,4.3426 -1.5314,8.6852 -2.2971 13.0277c 1.0084,0.1778 2.0169,0.3556 3.0253 0.5334c -1.0958,6.2146 -2.1916,12.4291 -3.2874 18.6437c -1.0084,-0.1778 -2.0169,-0.3556 -3.0253 -0.5334c -0.7657,4.3426 -1.5314,8.6852 -2.2971 13.0277ZM 374.9263,728.8063 c 1.0084,0.1778 2.0169,0.3556 3.0253 0.5334c -0.2145,1.2164 -0.4290,2.4329 -0.6435 3.6493c 17.3326,3.0562 34.6652,6.1124 51.9978 9.1687c 0.2145,-1.2165 0.4290,-2.4329 0.6435 -3.6494c 1.0084,0.1778 2.0169,0.3556 3.0253 0.5334c 0.7657,-4.3426 1.5314,-8.6852 2.2971 -13.0277c -1.0084,-0.1778 -2.0169,-0.3556 -3.0253 -0.5334c 1.0958,-6.2146 2.1916,-12.4291 3.2874 -18.6437c 1.0084,0.1778 2.0169,0.3556 3.0253 0.5334c 0.7657,-4.3426 1.5314,-8.6852 2.2971 -13.0277c -1.0084,-0.1778 -2.0169,-0.3556 -3.0253 -0.5334c 0.2145,-1.2165 0.4290,-2.4329 0.6435 -3.6493c -17.3326,-3.0562 -34.6652,-6.1124 -51.9978 -9.1686c -0.2145,1.2164 -0.4290,2.4329 -0.6435 3.6493c -1.0084,-0.1778 -2.0169,-0.3556 -3.0253 -0.5334c -0.7657,4.3426 -1.5314,8.6852 -2.2971 13.0277c 1.0084,0.1778 2.0169,0.3556 3.0253 0.5334c -1.0958,6.2146 -2.1916,12.4291 -3.2874 18.6437c -1.0085,-0.1778 -2.0169,-0.3556 -3.0253 -0.5334c -0.7657,4.3426 -1.5314,8.6852 -2.2971 13.0277ZM 387.3962,658.0862 c 1.0084,0.1778 2.0169,0.3556 3.0253 0.5334c -0.2145,1.2164 -0.4290,2.4329 -0.6435 3.6493c 17.3326,3.0562 34.6652,6.1124 51.9978 9.1686c 0.2145,-1.2164 0.4290,-2.4329 0.6435 -3.6493c 1.0085,0.1778 2.0169,0.3556 3.0253 0.5334c 0.7657,-4.3426 1.5314,-8.6852 2.2971 -13.0277c -1.0084,-0.1778 -2.0169,-0.3556 -3.0253 -0.5334c 1.0958,-6.2146 2.1916,-12.4291 3.2874 -18.6437c 1.0084,0.1778 2.0169,0.3556 3.0253 0.5334c 0.7657,-4.3426 1.5314,-8.6852 2.2971 -13.0277c -1.0084,-0.1778 -2.0169,-0.3556 -3.0253 -0.5334c 0.2145,-1.2165 0.4290,-2.4329 0.6435 -3.6494c -17.3326,-3.0562 -34.6652,-6.1124 -51.9978 -9.1686c -0.2145,1.2165 -0.4290,2.4329 -0.6435 3.6494c -1.0084,-0.1778 -2.0169,-0.3556 -3.0253 -0.5334c -0.7657,4.3426 -1.5314,8.6852 -2.2971 13.0277c 1.0084,0.1778 2.0169,0.3556 3.0253 0.5334c -1.0958,6.2146 -2.1916,12.4291 -3.2874 18.6437c -1.0085,-0.1778 -2.0169,-0.3556 -3.0253 -0.5334c -0.7657,4.3426 -1.5314,8.6852 -2.2971 13.0277ZM 404.9553,972.0468 c 1.0084,0.1778 2.0169,0.3556 3.0253 0.5334c -0.2145,1.2165 -0.4290,2.4329 -0.6435 3.6494c 17.3326,3.0562 34.6652,6.1124 51.9978 9.1686c 0.2145,-1.2165 0.4290,-2.4329 0.6435 -3.6493c 1.0084,0.1778 2.0169,0.3556 3.0253 0.5334c 0.7657,-4.3426 1.5314,-8.6852 2.2971 -13.0277c -1.0084,-0.1778 -2.0169,-0.3556 -3.0253 -0.5334c 1.0958,-6.2146 2.1916,-12.4291 3.2874 -18.6437c 1.0084,0.1778 2.0169,0.3556 3.0253 0.5334c 0.7657,-4.3426 1.5314,-8.6852 2.2971 -13.0278c -1.0084,-0.1778 -2.0169,-0.3556 -3.0253 -0.5334c 0.2145,-1.2164 0.4290,-2.4329 0.6435 -3.6493c -17.3326,-3.0562 -34.6652,-6.1124 -51.9978 -9.1686c -0.2145,1.2164 -0.4290,2.4329 -0.6435 3.6493c -1.0084,-0.1778 -2.0169,-0.3556 -3.0253 -0.5334c -0.7657,4.3426 -1.5314,8.6852 -2.2971 13.0278c 1.0084,0.1778 2.0169,0.3556 3.0253 0.5334c -1.0958,6.2146 -2.1916,12.4291 -3.2874 18.6437c -1.0085,-0.1778 -2.0169,-0.3556 -3.0253 -0.5334c -0.7657,4.3426 -1.5314,8.6852 -2.2971 13.0277ZM 417.4251,901.3268 c 1.0084,0.1778 2.0169,0.3556 3.0253 0.5334c -0.2145,1.2165 -0.4290,2.4329 -0.6435 3.6494c 17.3326,3.0562 34.6652,6.1124 51.9978 9.1686c 0.2145,-1.2165 0.4290,-2.4329 0.6435 -3.6494c 1.0084,0.1778 2.0169,0.3556 3.0253 0.5334c 0.7657,-4.3426 1.5314,-8.6852 2.2971 -13.0277c -1.0084,-0.1778 -2.0169,-0.3556 -3.0253 -0.5334c 1.0958,-6.2146 2.1916,-12.4291 3.2874 -18.6437c 1.0084,0.1778 2.0169,0.3556 3.0253 0.5334c 0.7657,-4.3426 1.5314,-8.6852 2.2971 -13.0278c -1.0084,-0.1778 -2.0169,-0.3556 -3.0253 -0.5334c 0.2145,-1.2164 0.4290,-2.4329 0.6435 -3.6493c -17.3326,-3.0562 -34.6652,-6.1124 -51.9978 -9.1686c -0.2145,1.2164 -0.4290,2.4329 -0.6435 3.6493c -1.0084,-0.1778 -2.0169,-0.3556 -3.0253 -0.5334c -0.7657,4.3426 -1.5314,8.6852 -2.2971 13.0277c 1.0084,0.1778 2.0169,0.3556 3.0253 0.5334c -1.0958,6.2146 -2.1916,12.4291 -3.2874 18.6437c -1.0085,-0.1778 -2.0169,-0.3556 -3.0253 -0.5334c -0.7657,4.3426 -1.5314,8.6852 -2.2971 13.0277ZM 426.2322,548.0248 c 0.0000,3.1311 2.5383,5.6693 5.6693 5.6693c 3.1311,-0.0000 5.6693,-2.5383 5.6693 -5.6693c 0.0000,-3.1310 -2.5383,-5.6693 -5.6693 -5.6693c -3.1310,-0.0000 -5.6693,2.5383 -5.6693 5.6693ZM 429.8950,830.6067 c 1.0084,0.1778 2.0169,0.3556 3.0253 0.5334c -0.2145,1.2165 -0.4290,2.4329 -0.6435 3.6493c 17.3326,3.0562 34.6652,6.1125 51.9978 9.1687c 0.2145,-1.2165 0.4290,-2.4329 0.6435 -3.6494c 1.0085,0.1778 2.0169,0.3556 3.0253 0.5334c 0.7657,-4.3426 1.5314,-8.6852 2.2971 -13.0277c -1.0084,-0.1778 -2.0169,-0.3556 -3.0253 -0.5334c 1.0958,-6.2146 2.1916,-12.4291 3.2874 -18.6437c 1.0084,0.1778 2.0169,0.3556 3.0253 0.5334c 0.7657,-4.3426 1.5314,-8.6852 2.2971 -13.0277c -1.0084,-0.1778 -2.0169,-0.3556 -3.0253 -0.5334c 0.2145,-1.2164 0.4290,-2.4329 0.6435 -3.6493c -17.3326,-3.0562 -34.6652,-6.1124 -51.9978 -9.1686c -0.2145,1.2164 -0.4290,2.4329 -0.6435 3.6493c -1.0084,-0.1778 -2.0169,-0.3556 -3.0253 -0.5334c -0.7657,4.3426 -1.5314,8.6852 -2.2971 13.0277c 1.0084,0.1778 2.0169,0.3556 3.0253 0.5334c -1.0958,6.2146 -2.1916,12.4291 -3.2874 18.6437c -1.0084,-0.1778 -2.0169,-0.3556 -3.0253 -0.5334c -0.7657,4.3426 -1.5314,8.6852 -2.2971 13.0277ZM 432.2511,1012.7111 c 0.0000,3.1311 2.5382,5.6693 5.6693 5.6693c 3.1310,-0.0000 5.6693,-2.5382 5.6693 -5.6693c 0.0000,-3.1310 -2.5383,-5.6693 -5.6693 -5.6693c -3.1311,-0.0000 -5.6693,2.5383 -5.6693 5.6693ZM 442.3648,759.8867 c 1.0084,0.1778 2.0169,0.3556 3.0253 0.5334c -0.2145,1.2164 -0.4290,2.4329 -0.6435 3.6493c 17.3326,3.0562 34.6652,6.1124 51.9978 9.1686c 0.2145,-1.2164 0.4290,-2.4329 0.6435 -3.6493c 1.0085,0.1778 2.0169,0.3556 3.0253 0.5334c 0.7657,-4.3426 1.5314,-8.6852 2.2971 -13.0277c -1.0084,-0.1778 -2.0169,-0.3556 -3.0253 -0.5334c 1.0958,-6.2146 2.1916,-12.4291 3.2874 -18.6437c 1.0084,0.1778 2.0169,0.3556 3.0253 0.5334c 0.7657,-4.3426 1.5314,-8.6852 2.2971 -13.0277c -1.0084,-0.1778 -2.0169,-0.3556 -3.0253 -0.5334c 0.2145,-1.2164 0.4290,-2.4329 0.6435 -3.6493c -17.3326,-3.0562 -34.6652,-6.1124 -51.9978 -9.1687c -0.2145,1.2165 -0.4290,2.4329 -0.6435 3.6494c -1.0085,-0.1778 -2.0169,-0.3556 -3.0253 -0.5334c -0.7657,4.3426 -1.5314,8.6852 -2.2971 13.0277c 1.0084,0.1778 2.0169,0.3556 3.0253 0.5334c -1.0958,6.2146 -2.1916,12.4291 -3.2874 18.6437c -1.0085,-0.1778 -2.0169,-0.3556 -3.0253 -0.5334c -0.7657,4.3426 -1.5314,8.6852 -2.2971 13.0277ZM 454.8347,689.1666 c 1.0084,0.1778 2.0169,0.3556 3.0253 0.5334c -0.2145,1.2164 -0.4290,2.4329 -0.6435 3.6493c 17.3326,3.0562 34.6652,6.1124 51.9978 9.1686c 0.2145,-1.2164 0.4290,-2.4329 0.6435 -3.6493c 1.0084,0.1778 2.0169,0.3556 3.0253 0.5334c 0.7657,-4.3426 1.5314,-8.6852 2.2971 -13.0277c -1.0084,-0.1778 -2.0169,-0.3556 -3.0253 -0.5334c 1.0958,-6.2146 2.1916,-12.4291 3.2874 -18.6437c 1.0085,0.1778 2.0169,0.3556 3.0253 0.5334c 0.7657,-4.3426 1.5314,-8.6852 2.2971 -13.0277c -1.0084,-0.1778 -2.0169,-0.3556 -3.0253 -0.5334c 0.2145,-1.2165 0.4290,-2.4329 0.6435 -3.6494c -17.3326,-3.0562 -34.6652,-6.1124 -51.9978 -9.1686c -0.2145,1.2165 -0.4290,2.4329 -0.6435 3.6494c -1.0084,-0.1778 -2.0169,-0.3556 -3.0253 -0.5334c -0.7657,4.3426 -1.5314,8.6852 -2.2971 13.0277c 1.0084,0.1778 2.0169,0.3556 3.0253 0.5334c -1.0958,6.2146 -2.1916,12.4291 -3.2874 18.6437c -1.0084,-0.1778 -2.0169,-0.3556 -3.0253 -0.5335c -0.7657,4.3426 -1.5314,8.6852 -2.2971 13.0278ZM 481.9102,949.1567 c 1.0084,0.1778 2.0169,0.3556 3.0253 0.5334c -0.2145,1.2164 -0.4290,2.4329 -0.6435 3.6493c 17.3326,3.0562 34.6652,6.1124 51.9978 9.1686c 0.2145,-1.2164 0.4290,-2.4329 0.6435 -3.6493c 1.0084,0.1778 2.0169,0.3556 3.0253 0.5334c 0.7657,-4.3426 1.5314,-8.6852 2.2971 -13.0277c -1.0084,-0.1778 -2.0169,-0.3556 -3.0253 -0.5334c 1.0958,-6.2146 2.1916,-12.4291 3.2874 -18.6437c 1.0084,0.1778 2.0169,0.3556 3.0253 0.5334c 0.7657,-4.3426 1.5314,-8.6852 2.2971 -13.0277c -1.0084,-0.1778 -2.0169,-0.3556 -3.0253 -0.5334c 0.2145,-1.2165 0.4290,-2.4329 0.6435 -3.6494c -17.3326,-3.0562 -34.6652,-6.1124 -51.9978 -9.1686c -0.2145,1.2165 -0.4290,2.4329 -0.6435 3.6494c -1.0084,-0.1778 -2.0169,-0.3556 -3.0253 -0.5334c -0.7657,4.3426 -1.5314,8.6852 -2.2971 13.0277c 1.0085,0.1778 2.0169,0.3556 3.0253 0.5334c -1.0958,6.2146 -2.1916,12.4291 -3.2874 18.6437c -1.0084,-0.1778 -2.0169,-0.3556 -3.0253 -0.5334c -0.7657,4.3426 -1.5314,8.6852 -2.2971 13.0278ZM 618.3247,914.6930 c 0.7657,4.3426 1.5314,8.6852 2.2971 13.0277c 1.0084,-0.1778 2.0169,-0.3556 3.0253 -0.5334c 1.0958,6.2146 2.1916,12.4291 3.2874 18.6437c -1.0084,0.1778 -2.0169,0.3556 -3.0253 0.5334c 0.7657,4.3426 1.5314,8.6852 2.2971 13.0277c 1.0084,-0.1778 2.0169,-0.3556 3.0253 -0.5334c 0.2145,1.2164 0.4290,2.4329 0.6435 3.6493c 17.3326,-3.0562 34.6652,-6.1124 51.9978 -9.1686c -0.2145,-1.2164 -0.4290,-2.4329 -0.6435 -3.6493c 1.0084,-0.1778 2.0169,-0.3556 3.0253 -0.5334c -0.7657,-4.3426 -1.5314,-8.6852 -2.2971 -13.0278c -1.0084,0.1778 -2.0169,0.3556 -3.0253 0.5334c -1.0958,-6.2146 -2.1916,-12.4291 -3.2874 -18.6437c 1.0084,-0.1778 2.0169,-0.3556 3.0253 -0.5334c -0.7657,-4.3426 -1.5314,-8.6852 -2.2971 -13.0277c -1.0084,0.1778 -2.0169,0.3556 -3.0253 0.5334c -0.2145,-1.2165 -0.4290,-2.4329 -0.6435 -3.6494c -17.3326,3.0562 -34.6652,6.1124 -51.9978 9.1686c 0.2145,1.2165 0.4290,2.4329 0.6435 3.6494c -1.0084,0.1778 -2.0169,0.3556 -3.0253 0.5334ZM 645.4003,654.7030 c 0.7657,4.3426 1.5314,8.6852 2.2971 13.0277c 1.0084,-0.1778 2.0169,-0.3556 3.0253 -0.5334c 1.0958,6.2146 2.1916,12.4291 3.2874 18.6437c -1.0084,0.1778 -2.0169,0.3556 -3.0253 0.5334c 0.7657,4.3426 1.5314,8.6852 2.2971 13.0277c 1.0084,-0.1778 2.0169,-0.3556 3.0253 -0.5334c 0.2145,1.2164 0.4290,2.4329 0.6435 3.6493c 17.3326,-3.0562 34.6652,-6.1124 51.9978 -9.1686c -0.2145,-1.2164 -0.4290,-2.4329 -0.6435 -3.6493c 1.0084,-0.1778 2.0169,-0.3556 3.0253 -0.5334c -0.7657,-4.3426 -1.5314,-8.6852 -2.2971 -13.0278c -1.0084,0.1778 -2.0169,0.3556 -3.0253 0.5335c -1.0958,-6.2146 -2.1916,-12.4291 -3.2874 -18.6437c 1.0085,-0.1778 2.0169,-0.3556 3.0253 -0.5334c -0.7657,-4.3426 -1.5314,-8.6852 -2.2971 -13.0277c -1.0084,0.1778 -2.0169,0.3556 -3.0253 0.5334c -0.2145,-1.2165 -0.4290,-2.4329 -0.6435 -3.6494c -17.3326,3.0562 -34.6652,6.1124 -51.9978 9.1686c 0.2145,1.2165 0.4290,2.4329 0.6435 3.6494c -1.0085,0.1778 -2.0169,0.3556 -3.0253 0.5334ZM 657.8701,725.4230 c 0.7657,4.3426 1.5314,8.6852 2.2971 13.0277c 1.0084,-0.1778 2.0169,-0.3556 3.0253 -0.5334c 1.0958,6.2146 2.1916,12.4291 3.2874 18.6437c -1.0085,0.1778 -2.0169,0.3556 -3.0253 0.5334c 0.7657,4.3426 1.5314,8.6852 2.2971 13.0277c 1.0084,-0.1778 2.0169,-0.3556 3.0253 -0.5334c 0.2145,1.2164 0.4290,2.4329 0.6435 3.6493c 17.3326,-3.0562 34.6652,-6.1124 51.9978 -9.1686c -0.2145,-1.2164 -0.4290,-2.4329 -0.6435 -3.6493c 1.0084,-0.1778 2.0169,-0.3556 3.0253 -0.5334c -0.7657,-4.3426 -1.5314,-8.6852 -2.2971 -13.0277c -1.0084,0.1778 -2.0169,0.3556 -3.0253 0.5334c -1.0958,-6.2146 -2.1916,-12.4291 -3.2874 -18.6437c 1.0084,-0.1778 2.0169,-0.3556 3.0253 -0.5334c -0.7657,-4.3426 -1.5314,-8.6852 -2.2971 -13.0277c -1.0084,0.1778 -2.0169,0.3556 -3.0253 0.5334c -0.2145,-1.2165 -0.4290,-2.4329 -0.6435 -3.6494c -17.3326,3.0562 -34.6652,6.1124 -51.9978 9.1687c 0.2145,1.2164 0.4290,2.4329 0.6435 3.6493c -1.0085,0.1778 -2.0169,0.3556 -3.0253 0.5334ZM 670.3400,796.1431 c 0.7657,4.3426 1.5314,8.6852 2.2971 13.0277c 1.0084,-0.1778 2.0169,-0.3556 3.0253 -0.5334c 1.0958,6.2146 2.1916,12.4291 3.2874 18.6437c -1.0085,0.1778 -2.0169,0.3556 -3.0253 0.5334c 0.7657,4.3426 1.5314,8.6852 2.2971 13.0277c 1.0084,-0.1778 2.0169,-0.3556 3.0253 -0.5334c 0.2145,1.2165 0.4290,2.4329 0.6435 3.6494c 17.3326,-3.0562 34.6652,-6.1124 51.9978 -9.1687c -0.2145,-1.2164 -0.4290,-2.4329 -0.6435 -3.6493c 1.0085,-0.1778 2.0169,-0.3556 3.0253 -0.5334c -0.7657,-4.3426 -1.5314,-8.6852 -2.2971 -13.0277c -1.0084,0.1778 -2.0169,0.3556 -3.0253 0.5334c -1.0958,-6.2146 -2.1916,-12.4291 -3.2874 -18.6437c 1.0084,-0.1778 2.0169,-0.3556 3.0253 -0.5334c -0.7657,-4.3426 -1.5314,-8.6852 -2.2971 -13.0277c -1.0084,0.1778 -2.0169,0.3556 -3.0253 0.5334c -0.2145,-1.2164 -0.4290,-2.4329 -0.6435 -3.6493c -17.3326,3.0562 -34.6652,6.1124 -51.9978 9.1686c 0.2145,1.2164 0.4290,2.4329 0.6435 3.6493c -1.0084,0.1778 -2.0169,0.3556 -3.0253 0.5334ZM 682.8099,866.8631 c 0.7657,4.3426 1.5314,8.6852 2.2971 13.0278c 1.0084,-0.1778 2.0169,-0.3556 3.0253 -0.5334c 1.0958,6.2146 2.1916,12.4291 3.2874 18.6437c -1.0085,0.1778 -2.0169,0.3556 -3.0253 0.5334c 0.7657,4.3426 1.5314,8.6852 2.2971 13.0277c 1.0084,-0.1778 2.0169,-0.3556 3.0253 -0.5334c 0.2145,1.2165 0.4290,2.4329 0.6435 3.6494c 17.3326,-3.0562 34.6652,-6.1124 51.9978 -9.1686c -0.2145,-1.2165 -0.4290,-2.4329 -0.6435 -3.6494c 1.0084,-0.1778 2.0169,-0.3556 3.0253 -0.5334c -0.7657,-4.3426 -1.5314,-8.6852 -2.2971 -13.0277c -1.0084,0.1778 -2.0169,0.3556 -3.0253 0.5334c -1.0958,-6.2146 -2.1916,-12.4291 -3.2874 -18.6437c 1.0084,-0.1778 2.0169,-0.3556 3.0253 -0.5334c -0.7657,-4.3426 -1.5314,-8.6852 -2.2971 -13.0277c -1.0084,0.1778 -2.0169,0.3556 -3.0253 0.5334c -0.2145,-1.2164 -0.4290,-2.4329 -0.6435 -3.6493c -17.3326,3.0562 -34.6652,6.1124 -51.9978 9.1686c 0.2145,1.2164 0.4290,2.4329 0.6435 3.6493c -1.0084,0.1778 -2.0169,0.3556 -3.0253 0.5334ZM 695.2797,937.5832 c 0.7657,4.3426 1.5314,8.6852 2.2971 13.0278c 1.0084,-0.1778 2.0169,-0.3556 3.0253 -0.5334c 1.0958,6.2146 2.1916,12.4291 3.2874 18.6437c -1.0084,0.1778 -2.0169,0.3556 -3.0253 0.5334c 0.7657,4.3426 1.5314,8.6852 2.2971 13.0277c 1.0084,-0.1778 2.0169,-0.3556 3.0253 -0.5334c 0.2145,1.2164 0.4290,2.4329 0.6435 3.6493c 17.3326,-3.0562 34.6652,-6.1124 51.9978 -9.1686c -0.2145,-1.2165 -0.4290,-2.4329 -0.6435 -3.6494c 1.0084,-0.1778 2.0169,-0.3556 3.0253 -0.5334c -0.7657,-4.3426 -1.5314,-8.6852 -2.2971 -13.0277c -1.0084,0.1778 -2.0169,0.3556 -3.0253 0.5334c -1.0958,-6.2146 -2.1916,-12.4291 -3.2874 -18.6437c 1.0084,-0.1778 2.0169,-0.3556 3.0253 -0.5334c -0.7657,-4.3426 -1.5314,-8.6852 -2.2971 -13.0278c -1.0084,0.1778 -2.0169,0.3556 -3.0253 0.5334c -0.2145,-1.2164 -0.4290,-2.4329 -0.6435 -3.6493c -17.3326,3.0562 -34.6652,6.1124 -51.9978 9.1686c 0.2145,1.2164 0.4290,2.4329 0.6435 3.6493c -1.0084,0.1778 -2.0169,0.3556 -3.0253 0.5334ZM 712.8388,623.6226 c 0.7657,4.3426 1.5314,8.6852 2.2971 13.0277c 1.0084,-0.1778 2.0169,-0.3556 3.0253 -0.5334c 1.0958,6.2146 2.1916,12.4291 3.2874 18.6437c -1.0085,0.1778 -2.0169,0.3556 -3.0253 0.5334c 0.7657,4.3426 1.5314,8.6852 2.2971 13.0277c 1.0084,-0.1778 2.0169,-0.3556 3.0253 -0.5334c 0.2145,1.2164 0.4290,2.4329 0.6435 3.6493c 17.3326,-3.0562 34.6652,-6.1124 51.9978 -9.1686c -0.2145,-1.2164 -0.4290,-2.4329 -0.6435 -3.6493c 1.0085,-0.1778 2.0169,-0.3556 3.0253 -0.5334c -0.7657,-4.3426 -1.5314,-8.6852 -2.2971 -13.0277c -1.0084,0.1778 -2.0169,0.3556 -3.0253 0.5334c -1.0958,-6.2146 -2.1916,-12.4291 -3.2874 -18.6437c 1.0084,-0.1778 2.0169,-0.3556 3.0253 -0.5334c -0.7657,-4.3426 -1.5314,-8.6852 -2.2971 -13.0277c -1.0084,0.1778 -2.0169,0.3556 -3.0253 0.5334c -0.2145,-1.2165 -0.4290,-2.4329 -0.6435 -3.6494c -17.3326,3.0562 -34.6652,6.1124 -51.9978 9.1686c 0.2145,1.2165 0.4290,2.4329 0.6435 3.6494c -1.0084,0.1778 -2.0169,0.3556 -3.0253 0.5334ZM 722.5755,1012.7111 c 0.0000,3.1311 2.5383,5.6693 5.6693 5.6693c 3.1311,-0.0000 5.6693,-2.5382 5.6693 -5.6693c 0.0000,-3.1310 -2.5382,-5.6693 -5.6693 -5.6693c -3.1310,-0.0000 -5.6693,2.5383 -5.6693 5.6693ZM 725.3087,694.3427 c 0.7657,4.3426 1.5314,8.6852 2.2971 13.0277c 1.0084,-0.1778 2.0169,-0.3556 3.0253 -0.5334c 1.0958,6.2146 2.1916,12.4291 3.2874 18.6437c -1.0085,0.1778 -2.0169,0.3556 -3.0253 0.5334c 0.7657,4.3426 1.5314,8.6852 2.2971 13.0277c 1.0084,-0.1778 2.0169,-0.3556 3.0253 -0.5334c 0.2145,1.2165 0.4290,2.4329 0.6435 3.6494c 17.3326,-3.0562 34.6652,-6.1125 51.9978 -9.1687c -0.2145,-1.2164 -0.4290,-2.4329 -0.6435 -3.6493c 1.0084,-0.1778 2.0169,-0.3556 3.0253 -0.5334c -0.7657,-4.3426 -1.5314,-8.6852 -2.2971 -13.0277c -1.0084,0.1778 -2.0169,0.3556 -3.0253 0.5334c -1.0958,-6.2146 -2.1916,-12.4291 -3.2874 -18.6437c 1.0084,-0.1778 2.0169,-0.3556 3.0253 -0.5334c -0.7657,-4.3426 -1.5314,-8.6852 -2.2971 -13.0277c -1.0084,0.1778 -2.0169,0.3556 -3.0253 0.5334c -0.2145,-1.2165 -0.4290,-2.4329 -0.6435 -3.6493c -17.3326,3.0562 -34.6652,6.1124 -51.9978 9.1686c 0.2145,1.2164 0.4290,2.4329 0.6435 3.6493c -1.0084,0.1778 -2.0169,0.3556 -3.0253 0.5334ZM 728.5944,548.0248 c 0.0000,3.1311 2.5383,5.6693 5.6693 5.6693c 3.1310,-0.0000 5.6693,-2.5383 5.6693 -5.6693c 0.0000,-3.1310 -2.5383,-5.6693 -5.6693 -5.6693c -3.1311,-0.0000 -5.6693,2.5383 -5.6693 5.6693ZM 737.7785,765.0627 c 0.7657,4.3426 1.5314,8.6852 2.2971 13.0277c 1.0084,-0.1778 2.0169,-0.3556 3.0253 -0.5334c 1.0958,6.2146 2.1916,12.4291 3.2874 18.6437c -1.0084,0.1778 -2.0169,0.3556 -3.0253 0.5334c 0.7657,4.3426 1.5314,8.6852 2.2971 13.0277c 1.0084,-0.1778 2.0169,-0.3556 3.0253 -0.5334c 0.2145,1.2165 0.4290,2.4329 0.6435 3.6494c 17.3326,-3.0562 34.6652,-6.1124 51.9978 -9.1686c -0.2145,-1.2165 -0.4290,-2.4329 -0.6435 -3.6494c 1.0084,-0.1778 2.0169,-0.3556 3.0253 -0.5334c -0.7657,-4.3426 -1.5314,-8.6852 -2.2971 -13.0277c -1.0084,0.1778 -2.0169,0.3556 -3.0253 0.5334c -1.0958,-6.2146 -2.1916,-12.4291 -3.2874 -18.6437c 1.0084,-0.1778 2.0169,-0.3556 3.0253 -0.5334c -0.7657,-4.3426 -1.5314,-8.6852 -2.2971 -13.0277c -1.0084,0.1778 -2.0169,0.3556 -3.0253 0.5334c -0.2145,-1.2164 -0.4290,-2.4329 -0.6435 -3.6493c -17.3326,3.0562 -34.6652,6.1124 -51.9978 9.1686c 0.2145,1.2164 0.4290,2.4329 0.6435 3.6493c -1.0084,0.1778 -2.0169,0.3556 -3.0253 0.5334ZM 750.2484,835.7827 c 0.7657,4.3426 1.5314,8.6852 2.2971 13.0278c 1.0084,-0.1778 2.0169,-0.3556 3.0253 -0.5334c 1.0958,6.2146 2.1916,12.4291 3.2874 18.6437c -1.0084,0.1778 -2.0169,0.3556 -3.0253 0.5334c 0.7657,4.3426 1.5314,8.6852 2.2971 13.0277c 1.0084,-0.1778 2.0169,-0.3556 3.0253 -0.5334c 0.2145,1.2165 0.4290,2.4329 0.6435 3.6494c 17.3326,-3.0562 34.6652,-6.1124 51.9978 -9.1686c -0.2145,-1.2165 -0.4290,-2.4329 -0.6435 -3.6494c 1.0084,-0.1778 2.0169,-0.3556 3.0253 -0.5334c -0.7657,-4.3426 -1.5314,-8.6852 -2.2971 -13.0277c -1.0084,0.1778 -2.0169,0.3556 -3.0253 0.5334c -1.0958,-6.2146 -2.1916,-12.4291 -3.2874 -18.6437c 1.0084,-0.1778 2.0169,-0.3556 3.0253 -0.5334c -0.7657,-4.3426 -1.5314,-8.6852 -2.2971 -13.0277c -1.0084,0.1778 -2.0169,0.3556 -3.0253 0.5334c -0.2145,-1.2164 -0.4290,-2.4329 -0.6435 -3.6493c -17.3326,3.0562 -34.6652,6.1124 -51.9978 9.1686c 0.2145,1.2164 0.4290,2.4329 0.6435 3.6493c -1.0084,0.1778 -2.0169,0.3556 -3.0253 0.5334ZM 762.7182,906.5028 c 0.7657,4.3426 1.5314,8.6852 2.2971 13.0278c 1.0085,-0.1778 2.0169,-0.3556 3.0253 -0.5334c 1.0958,6.2146 2.1916,12.4291 3.2874 18.6437c -1.0084,0.1778 -2.0169,0.3556 -3.0253 0.5334c 0.7657,4.3426 1.5314,8.6852 2.2971 13.0278c 1.0084,-0.1778 2.0169,-0.3556 3.0253 -0.5335c 0.2145,1.2165 0.4290,2.4329 0.6435 3.6494c 17.3326,-3.0562 34.6652,-6.1124 51.9978 -9.1686c -0.2145,-1.2165 -0.4290,-2.4329 -0.6435 -3.6494c 1.0084,-0.1778 2.0169,-0.3556 3.0253 -0.5334c -0.7657,-4.3426 -1.5314,-8.6852 -2.2971 -13.0277c -1.0084,0.1778 -2.0169,0.3556 -3.0253 0.5334c -1.0958,-6.2146 -2.1916,-12.4291 -3.2874 -18.6437c 1.0084,-0.1778 2.0169,-0.3556 3.0253 -0.5334c -0.7657,-4.3426 -1.5314,-8.6852 -2.2971 -13.0278c -1.0084,0.1778 -2.0169,0.3556 -3.0253 0.5334c -0.2145,-1.2164 -0.4290,-2.4329 -0.6435 -3.6493c -17.3326,3.0562 -34.6652,6.1124 -51.9978 9.1686c 0.2145,1.2165 0.4290,2.4329 0.6435 3.6493c -1.0084,0.1778 -2.0169,0.3556 -3.0253 0.5334ZM 779.6210,588.8201 c 0.7657,4.3426 1.5314,8.6852 2.2971 13.0277c 1.0085,-0.1778 2.0169,-0.3556 3.0253 -0.5334c 1.0958,6.2146 2.1916,12.4291 3.2874 18.6437c -1.0084,0.1778 -2.0169,0.3556 -3.0253 0.5334c 0.7657,4.3426 1.5314,8.6852 2.2971 13.0277c 1.0085,-0.1778 2.0169,-0.3556 3.0253 -0.5334c 0.2145,1.2164 0.4290,2.4329 0.6435 3.6493c 17.3326,-3.0562 34.6652,-6.1124 51.9978 -9.1686c -0.2145,-1.2164 -0.4290,-2.4329 -0.6435 -3.6493c 1.0084,-0.1778 2.0169,-0.3556 3.0253 -0.5334c -0.7657,-4.3426 -1.5314,-8.6852 -2.2971 -13.0277c -1.0084,0.1778 -2.0169,0.3556 -3.0253 0.5334c -1.0958,-6.2146 -2.1916,-12.4291 -3.2874 -18.6437c 1.0084,-0.1778 2.0169,-0.3556 3.0253 -0.5334c -0.7657,-4.3426 -1.5314,-8.6852 -2.2971 -13.0277c -1.0084,0.1778 -2.0169,0.3556 -3.0253 0.5334c -0.2145,-1.2165 -0.4290,-2.4329 -0.6435 -3.6494c -17.3326,3.0562 -34.6652,6.1124 -51.9978 9.1687c 0.2145,1.2164 0.4290,2.4329 0.6435 3.6493c -1.0084,0.1778 -2.0169,0.3556 -3.0253 0.5334ZM 792.0908,659.5402 c 0.7657,4.3426 1.5314,8.6852 2.2971 13.0277c 1.0084,-0.1778 2.0169,-0.3556 3.0253 -0.5334c 1.0958,6.2146 2.1916,12.4291 3.2874 18.6437c -1.0084,0.1778 -2.0169,0.3556 -3.0253 0.5334c 0.7657,4.3426 1.5314,8.6852 2.2971 13.0277c 1.0085,-0.1778 2.0169,-0.3556 3.0253 -0.5334c 0.2145,1.2165 0.4290,2.4329 0.6435 3.6494c 17.3326,-3.0562 34.6652,-6.1125 51.9978 -9.1687c -0.2145,-1.2164 -0.4290,-2.4329 -0.6435 -3.6493c 1.0084,-0.1778 2.0169,-0.3556 3.0253 -0.5334c -0.7657,-4.3426 -1.5314,-8.6852 -2.2971 -13.0277c -1.0085,0.1778 -2.0169,0.3556 -3.0253 0.5334c -1.0958,-6.2146 -2.1916,-12.4291 -3.2874 -18.6437c 1.0084,-0.1778 2.0169,-0.3556 3.0253 -0.5334c -0.7657,-4.3426 -1.5314,-8.6852 -2.2971 -13.0277c -1.0084,0.1778 -2.0169,0.3556 -3.0253 0.5334c -0.2145,-1.2165 -0.4290,-2.4329 -0.6435 -3.6493c -17.3326,3.0562 -34.6652,6.1124 -51.9978 9.1686c 0.2145,1.2164 0.4290,2.4329 0.6435 3.6493c -1.0084,0.1778 -2.0169,0.3556 -3.0253 0.5334ZM 804.5607,730.2602 c 0.7657,4.3426 1.5314,8.6852 2.2971 13.0278c 1.0084,-0.1778 2.0169,-0.3556 3.0253 -0.5335c 1.0958,6.2146 2.1916,12.4291 3.2874 18.6437c -1.0084,0.1778 -2.0169,0.3556 -3.0253 0.5334c 0.7657,4.3426 1.5314,8.6852 2.2971 13.0277c 1.0085,-0.1778 2.0169,-0.3556 3.0253 -0.5334c 0.2145,1.2165 0.4290,2.4329 0.6435 3.6494c 17.3326,-3.0562 34.6652,-6.1124 51.9978 -9.1686c -0.2145,-1.2165 -0.4290,-2.4329 -0.6435 -3.6494c 1.0084,-0.1778 2.0169,-0.3556 3.0253 -0.5334c -0.7657,-4.3426 -1.5314,-8.6852 -2.2972 -13.0277c -1.0084,0.1778 -2.0169,0.3556 -3.0253 0.5334c -1.0958,-6.2146 -2.1916,-12.4291 -3.2874 -18.6437c 1.0084,-0.1778 2.0169,-0.3556 3.0253 -0.5334c -0.7657,-4.3426 -1.5314,-8.6852 -2.2971 -13.0277c -1.0084,0.1778 -2.0169,0.3556 -3.0253 0.5334c -0.2145,-1.2164 -0.4290,-2.4329 -0.6435 -3.6493c -17.3326,3.0562 -34.6652,6.1124 -51.9978 9.1686c 0.2145,1.2164 0.4290,2.4329 0.6435 3.6493c -1.0084,0.1778 -2.0169,0.3556 -3.0253 0.5334ZM 817.0305,800.9802 c 0.7657,4.3426 1.5314,8.6852 2.2971 13.0278c 1.0084,-0.1778 2.0169,-0.3556 3.0253 -0.5334c 1.0958,6.2146 2.1916,12.4291 3.2874 18.6437c -1.0084,0.1778 -2.0169,0.3556 -3.0253 0.5334c 0.7657,4.3426 1.5314,8.6852 2.2971 13.0277c 1.0084,-0.1778 2.0169,-0.3556 3.0253 -0.5334c 0.2145,1.2165 0.4290,2.4329 0.6435 3.6494c 17.3326,-3.0562 34.6652,-6.1124 51.9978 -9.1686c -0.2145,-1.2165 -0.4290,-2.4329 -0.6435 -3.6494c 1.0084,-0.1778 2.0169,-0.3556 3.0253 -0.5334c -0.7657,-4.3426 -1.5314,-8.6852 -2.2971 -13.0277c -1.0084,0.1778 -2.0169,0.3556 -3.0253 0.5334c -1.0958,-6.2146 -2.1916,-12.4291 -3.2874 -18.6437c 1.0084,-0.1778 2.0169,-0.3556 3.0253 -0.5334c -0.7657,-4.3426 -1.5314,-8.6852 -2.2971 -13.0278c -1.0084,0.1778 -2.0169,0.3556 -3.0253 0.5334c -0.2145,-1.2164 -0.4290,-2.4329 -0.6435 -3.6493c -17.3326,3.0562 -34.6652,6.1124 -51.9978 9.1686c 0.2145,1.2164 0.4290,2.4329 0.6435 3.6493c -1.0084,0.1778 -2.0169,0.3556 -3.0253 0.5334ZM 829.5004,871.7003 c 0.7657,4.3426 1.5314,8.6852 2.2971 13.0278c 1.0084,-0.1778 2.0169,-0.3556 3.0253 -0.5334c 1.0958,6.2146 2.1916,12.4291 3.2874 18.6437c -1.0084,0.1778 -2.0169,0.3556 -3.0253 0.5334c 0.7657,4.3426 1.5314,8.6852 2.2971 13.0278c 1.0084,-0.1778 2.0169,-0.3556 3.0253 -0.5334c 0.2145,1.2164 0.4290,2.4329 0.6435 3.6493c 17.3326,-3.0562 34.6652,-6.1124 51.9978 -9.1686c -0.2145,-1.2165 -0.4290,-2.4329 -0.6435 -3.6494c 1.0084,-0.1778 2.0169,-0.3556 3.0253 -0.5334c -0.7657,-4.3426 -1.5314,-8.6852 -2.2971 -13.0277c -1.0084,0.1778 -2.0169,0.3556 -3.0253 0.5334c -1.0958,-6.2146 -2.1916,-12.4291 -3.2874 -18.6437c 1.0084,-0.1778 2.0169,-0.3556 3.0253 -0.5334c -0.7657,-4.3426 -1.5314,-8.6852 -2.2971 -13.0278c -1.0084,0.1778 -2.0169,0.3556 -3.0253 0.5334c -0.2145,-1.2164 -0.4290,-2.4329 -0.6435 -3.6493c -17.3326,3.0562 -34.6652,6.1124 -51.9978 9.1686c 0.2145,1.2165 0.4290,2.4329 0.6435 3.6493c -1.0084,0.1778 -2.0169,0.3556 -3.0253 0.5334ZM 853.6226,594.9608 c 0.7657,4.3426 1.5314,8.6852 2.2971 13.0277c 1.0084,-0.1778 2.0169,-0.3556 3.0253 -0.5334c 1.0958,6.2146 2.1916,12.4291 3.2874 18.6437c -1.0085,0.1778 -2.0169,0.3556 -3.0253 0.5334c 0.7657,4.3426 1.5314,8.6852 2.2971 13.0277c 1.0084,-0.1778 2.0169,-0.3556 3.0253 -0.5334c 0.2145,1.2165 0.4290,2.4329 0.6435 3.6493c 17.3326,-3.0562 34.6652,-6.1124 51.9978 -9.1686c -0.2145,-1.2164 -0.4290,-2.4329 -0.6435 -3.6493c 1.0085,-0.1778 2.0169,-0.3556 3.0253 -0.5334c -0.7657,-4.3426 -1.5314,-8.6852 -2.2971 -13.0277c -1.0084,0.1778 -2.0169,0.3556 -3.0253 0.5334c -1.0958,-6.2146 -2.1916,-12.4291 -3.2874 -18.6437c 1.0084,-0.1778 2.0169,-0.3556 3.0253 -0.5334c -0.7657,-4.3426 -1.5314,-8.6852 -2.2971 -13.0277c -1.0084,0.1778 -2.0169,0.3556 -3.0253 0.5334c -0.2145,-1.2165 -0.4290,-2.4329 -0.6435 -3.6494c -17.3326,3.0562 -34.6652,6.1125 -51.9978 9.1687c 0.2145,1.2164 0.4290,2.4329 0.6435 3.6493c -1.0084,0.1778 -2.0169,0.3556 -3.0253 0.5334ZM 866.0925,665.6808 c 0.7657,4.3426 1.5314,8.6852 2.2971 13.0277c 1.0084,-0.1778 2.0169,-0.3556 3.0253 -0.5334c 1.0958,6.2146 2.1916,12.4291 3.2874 18.6437c -1.0085,0.1778 -2.0169,0.3556 -3.0253 0.5334c 0.7657,4.3426 1.5314,8.6852 2.2971 13.0277c 1.0084,-0.1778 2.0169,-0.3556 3.0253 -0.5334c 0.2145,1.2165 0.4290,2.4329 0.6435 3.6494c 17.3326,-3.0562 34.6652,-6.1124 51.9978 -9.1686c -0.2145,-1.2165 -0.4290,-2.4329 -0.6435 -3.6494c 1.0084,-0.1778 2.0169,-0.3556 3.0253 -0.5334c -0.7657,-4.3426 -1.5314,-8.6852 -2.2971 -13.0277c -1.0084,0.1778 -2.0169,0.3556 -3.0253 0.5334c -1.0958,-6.2146 -2.1916,-12.4291 -3.2874 -18.6437c 1.0084,-0.1778 2.0169,-0.3556 3.0253 -0.5334c -0.7657,-4.3426 -1.5314,-8.6852 -2.2971 -13.0277c -1.0084,0.1778 -2.0169,0.3556 -3.0253 0.5334c -0.2145,-1.2164 -0.4290,-2.4329 -0.6435 -3.6493c -17.3326,3.0562 -34.6652,6.1124 -51.9978 9.1686c 0.2145,1.2164 0.4290,2.4329 0.6435 3.6493c -1.0084,0.1778 -2.0169,0.3556 -3.0253 0.5334ZM 878.5623,736.4009 c 0.7657,4.3426 1.5314,8.6852 2.2971 13.0278c 1.0084,-0.1778 2.0169,-0.3556 3.0253 -0.5334c 1.0958,6.2146 2.1916,12.4291 3.2874 18.6437c -1.0084,0.1778 -2.0169,0.3556 -3.0253 0.5334c 0.7657,4.3426 1.5314,8.6852 2.2971 13.0277c 1.0084,-0.1778 2.0169,-0.3556 3.0253 -0.5334c 0.2145,1.2165 0.4290,2.4329 0.6435 3.6494c 17.3326,-3.0562 34.6652,-6.1124 51.9978 -9.1686c -0.2145,-1.2165 -0.4290,-2.4329 -0.6435 -3.6494c 1.0085,-0.1778 2.0169,-0.3556 3.0253 -0.5334c -0.7657,-4.3426 -1.5314,-8.6852 -2.2971 -13.0277c -1.0084,0.1778 -2.0169,0.3556 -3.0253 0.5334c -1.0958,-6.2146 -2.1916,-12.4291 -3.2874 -18.6437c 1.0084,-0.1778 2.0169,-0.3556 3.0253 -0.5335c -0.7657,-4.3426 -1.5314,-8.6852 -2.2971 -13.0277c -1.0084,0.1778 -2.0169,0.3556 -3.0253 0.5334c -0.2145,-1.2164 -0.4290,-2.4329 -0.6435 -3.6493c -17.3326,3.0562 -34.6652,6.1124 -51.9978 9.1686c 0.2145,1.2164 0.4290,2.4329 0.6435 3.6493c -1.0084,0.1778 -2.0169,0.3556 -3.0253 0.5334ZM 891.0322,807.1209 c 0.7657,4.3426 1.5314,8.6852 2.2971 13.0278c 1.0084,-0.1778 2.0169,-0.3556 3.0253 -0.5334c 1.0958,6.2146 2.1916,12.4291 3.2874 18.6437c -1.0084,0.1778 -2.0169,0.3556 -3.0253 0.5334c 0.7657,4.3426 1.5314,8.6852 2.2971 13.0278c 1.0084,-0.1778 2.0169,-0.3556 3.0253 -0.5334c 0.2145,1.2164 0.4290,2.4329 0.6435 3.6493c 17.3326,-3.0562 34.6652,-6.1124 51.9978 -9.1686c -0.2145,-1.2165 -0.4290,-2.4329 -0.6435 -3.6494c 1.0084,-0.1778 2.0169,-0.3556 3.0253 -0.5334c -0.7657,-4.3426 -1.5314,-8.6852 -2.2971 -13.0277c -1.0084,0.1778 -2.0169,0.3556 -3.0253 0.5334c -1.0958,-6.2146 -2.1916,-12.4291 -3.2874 -18.6437c 1.0084,-0.1778 2.0169,-0.3556 3.0253 -0.5334c -0.7657,-4.3426 -1.5314,-8.6852 -2.2971 -13.0278c -1.0084,0.1778 -2.0169,0.3556 -3.0253 0.5334c -0.2145,-1.2164 -0.4290,-2.4329 -0.6435 -3.6493c -17.3326,3.0562 -34.6652,6.1124 -51.9978 9.1686c 0.2145,1.2164 0.4290,2.4329 0.6435 3.6493c -1.0084,0.1778 -2.0169,0.3556 -3.0253 0.5334ZM 903.5020,877.8410 c 0.7657,4.3426 1.5314,8.6852 2.2971 13.0277c 1.0085,-0.1778 2.0169,-0.3556 3.0253 -0.5334c 1.0958,6.2146 2.1916,12.4291 3.2874 18.6437c -1.0084,0.1778 -2.0169,0.3556 -3.0253 0.5334c 0.7657,4.3426 1.5314,8.6852 2.2971 13.0278c 1.0084,-0.1778 2.0169,-0.3556 3.0253 -0.5334c 0.2145,1.2164 0.4290,2.4329 0.6435 3.6493c 17.3326,-3.0562 34.6652,-6.1124 51.9978 -9.1686c -0.2145,-1.2165 -0.4290,-2.4329 -0.6435 -3.6493c 1.0084,-0.1778 2.0169,-0.3556 3.0253 -0.5334c -0.7657,-4.3426 -1.5314,-8.6852 -2.2971 -13.0278c -1.0084,0.1778 -2.0169,0.3556 -3.0253 0.5334c -1.0958,-6.2146 -2.1916,-12.4291 -3.2874 -18.6437c 1.0084,-0.1778 2.0169,-0.3556 3.0253 -0.5334c -0.7657,-4.3426 -1.5314,-8.6852 -2.2971 -13.0278c -1.0084,0.1778 -2.0169,0.3556 -3.0253 0.5334c -0.2145,-1.2164 -0.4290,-2.4329 -0.6435 -3.6493c -17.3326,3.0562 -34.6652,6.1124 -51.9978 9.1686c 0.2145,1.2165 0.4290,2.4329 0.6435 3.6494c -1.0084,0.1778 -2.0169,0.3556 -3.0253 0.5334ZM 926.3116,593.6573 c 0.7657,4.3426 1.5314,8.6852 2.2971 13.0277c 1.0084,-0.1778 2.0169,-0.3556 3.0253 -0.5334c 1.0958,6.2146 2.1916,12.4291 3.2874 18.6437c -1.0084,0.1778 -2.0169,0.3556 -3.0253 0.5334c 0.7657,4.3426 1.5314,8.6852 2.2971 13.0277c 1.0084,-0.1778 2.0169,-0.3556 3.0253 -0.5334c 0.2145,1.2165 0.4290,2.4329 0.6435 3.6494c 17.3326,-3.0562 34.6652,-6.1124 51.9978 -9.1687c -0.2145,-1.2164 -0.4290,-2.4329 -0.6435 -3.6493c 1.0085,-0.1778 2.0169,-0.3556 3.0253 -0.5334c -0.7657,-4.3426 -1.5314,-8.6852 -2.2971 -13.0277c -1.0084,0.1778 -2.0169,0.3556 -3.0253 0.5334c -1.0958,-6.2146 -2.1916,-12.4291 -3.2874 -18.6437c 1.0084,-0.1778 2.0169,-0.3556 3.0253 -0.5334c -0.7657,-4.3426 -1.5314,-8.6852 -2.2971 -13.0277c -1.0084,0.1778 -2.0169,0.3556 -3.0253 0.5334c -0.2145,-1.2164 -0.4290,-2.4329 -0.6435 -3.6493c -17.3326,3.0562 -34.6652,6.1124 -51.9978 9.1686c 0.2145,1.2164 0.4290,2.4329 0.6435 3.6493c -1.0084,0.1778 -2.0169,0.3556 -3.0253 0.5334ZM 938.7814,664.3773 c 0.7657,4.3426 1.5314,8.6852 2.2971 13.0278c 1.0084,-0.1778 2.0169,-0.3556 3.0253 -0.5334c 1.0958,6.2146 2.1916,12.4291 3.2874 18.6437c -1.0084,0.1778 -2.0169,0.3556 -3.0253 0.5334c 0.7657,4.3426 1.5314,8.6852 2.2971 13.0277c 1.0084,-0.1778 2.0169,-0.3556 3.0253 -0.5334c 0.2145,1.2165 0.4290,2.4329 0.6435 3.6494c 17.3326,-3.0562 34.6652,-6.1124 51.9978 -9.1686c -0.2145,-1.2165 -0.4290,-2.4329 -0.6435 -3.6494c 1.0084,-0.1778 2.0169,-0.3556 3.0253 -0.5334c -0.7657,-4.3426 -1.5314,-8.6852 -2.2971 -13.0277c -1.0084,0.1778 -2.0169,0.3556 -3.0253 0.5334c -1.0958,-6.2146 -2.1916,-12.4291 -3.2874 -18.6437c 1.0084,-0.1778 2.0169,-0.3556 3.0253 -0.5334c -0.7657,-4.3426 -1.5314,-8.6852 -2.2971 -13.0278c -1.0084,0.1778 -2.0169,0.3556 -3.0253 0.5334c -0.2145,-1.2164 -0.4290,-2.4329 -0.6435 -3.6493c -17.3326,3.0562 -34.6652,6.1124 -51.9978 9.1686c 0.2145,1.2164 0.4290,2.4329 0.6435 3.6493c -1.0084,0.1778 -2.0169,0.3556 -3.0253 0.5334ZM 951.2513,735.0973 c 0.7657,4.3426 1.5314,8.6852 2.2971 13.0278c 1.0084,-0.1778 2.0169,-0.3556 3.0253 -0.5334c 1.0958,6.2146 2.1916,12.4291 3.2874 18.6437c -1.0084,0.1778 -2.0169,0.3556 -3.0253 0.5334c 0.7657,4.3426 1.5314,8.6852 2.2971 13.0277c 1.0084,-0.1778 2.0169,-0.3556 3.0253 -0.5334c 0.2145,1.2165 0.4290,2.4329 0.6435 3.6494c 17.3326,-3.0562 34.6652,-6.1124 51.9978 -9.1686c -0.2145,-1.2165 -0.4290,-2.4329 -0.6435 -3.6494c 1.0084,-0.1778 2.0169,-0.3556 3.0253 -0.5334c -0.7657,-4.3426 -1.5314,-8.6852 -2.2971 -13.0277c -1.0084,0.1778 -2.0169,0.3556 -3.0253 0.5334c -1.0958,-6.2146 -2.1916,-12.4291 -3.2874 -18.6437c 1.0084,-0.1778 2.0169,-0.3556 3.0253 -0.5334c -0.7657,-4.3426 -1.5314,-8.6852 -2.2971 -13.0278c -1.0084,0.1778 -2.0169,0.3556 -3.0253 0.5334c -0.2145,-1.2164 -0.4290,-2.4329 -0.6435 -3.6493c -17.3326,3.0562 -34.6652,6.1124 -51.9978 9.1686c 0.2145,1.2164 0.4290,2.4329 0.6435 3.6493c -1.0084,0.1778 -2.0169,0.3556 -3.0253 0.5334ZM 963.7211,805.8174 c 0.7657,4.3426 1.5314,8.6852 2.2971 13.0278c 1.0085,-0.1778 2.0169,-0.3556 3.0253 -0.5334c 1.0958,6.2146 2.1916,12.4291 3.2874 18.6437c -1.0084,0.1778 -2.0169,0.3556 -3.0253 0.5334c 0.7657,4.3426 1.5314,8.6852 2.2971 13.0278c 1.0084,-0.1778 2.0169,-0.3556 3.0253 -0.5334c 0.2145,1.2164 0.4290,2.4329 0.6435 3.6493c 17.3326,-3.0562 34.6652,-6.1124 51.9978 -9.1686c -0.2145,-1.2164 -0.4290,-2.4329 -0.6435 -3.6493c 1.0084,-0.1778 2.0169,-0.3556 3.0253 -0.5334c -0.7657,-4.3426 -1.5314,-8.6852 -2.2971 -13.0278c -1.0084,0.1778 -2.0169,0.3556 -3.0253 0.5334c -1.0958,-6.2146 -2.1916,-12.4291 -3.2874 -18.6437c 1.0084,-0.1778 2.0169,-0.3556 3.0253 -0.5334c -0.7657,-4.3426 -1.5314,-8.6852 -2.2971 -13.0278c -1.0085,0.1778 -2.0169,0.3556 -3.0253 0.5334c -0.2145,-1.2164 -0.4290,-2.4329 -0.6435 -3.6493c -17.3326,3.0562 -34.6652,6.1124 -51.9978 9.1686c 0.2145,1.2165 0.4290,2.4329 0.6435 3.6494c -1.0084,0.1778 -2.0169,0.3556 -3.0253 0.5334ZM 976.1910,876.5375 c 0.7657,4.3426 1.5314,8.6852 2.2971 13.0277c 1.0085,-0.1778 2.0169,-0.3556 3.0253 -0.5334c 1.0958,6.2146 2.1916,12.4291 3.2874 18.6437c -1.0084,0.1778 -2.0169,0.3556 -3.0253 0.5334c 0.7657,4.3426 1.5314,8.6852 2.2971 13.0278c 1.0084,-0.1778 2.0169,-0.3556 3.0253 -0.5334c 0.2145,1.2164 0.4290,2.4329 0.6435 3.6493c 17.3326,-3.0562 34.6652,-6.1124 51.9978 -9.1686c -0.2145,-1.2164 -0.4290,-2.4329 -0.6435 -3.6493c 1.0084,-0.1778 2.0169,-0.3556 3.0253 -0.5334c -0.7657,-4.3426 -1.5314,-8.6852 -2.2971 -13.0278c -1.0084,0.1778 -2.0169,0.3556 -3.0253 0.5334c -1.0958,-6.2146 -2.1916,-12.4291 -3.2874 -18.6437c 1.0084,-0.1778 2.0169,-0.3556 3.0253 -0.5334c -0.7657,-4.3426 -1.5314,-8.6852 -2.2971 -13.0277c -1.0085,0.1778 -2.0169,0.3556 -3.0253 0.5334c -0.2145,-1.2165 -0.4290,-2.4329 -0.6435 -3.6494c -17.3326,3.0562 -34.6652,6.1124 -51.9978 9.1686c 0.2145,1.2165 0.4290,2.4329 0.6435 3.6494c -1.0084,0.1778 -2.0169,0.3556 -3.0253 0.5334ZM 997.6879,584.9095 c 0.7657,4.3426 1.5314,8.6852 2.2971 13.0278c 1.0084,-0.1778 2.0169,-0.3556 3.0253 -0.5335c 1.0958,6.2146 2.1916,12.4291 3.2874 18.6437c -1.0084,0.1778 -2.0169,0.3556 -3.0253 0.5334c 0.7657,4.3426 1.5314,8.6852 2.2971 13.0277c 1.0084,-0.1778 2.0169,-0.3556 3.0253 -0.5334c 0.2145,1.2165 0.4290,2.4329 0.6435 3.6494c 17.3326,-3.0562 34.6652,-6.1124 51.9978 -9.1686c -0.2145,-1.2165 -0.4290,-2.4329 -0.6435 -3.6494c 1.0084,-0.1778 2.0169,-0.3556 3.0253 -0.5334c -0.7657,-4.3426 -1.5314,-8.6852 -2.2971 -13.0277c -1.0084,0.1778 -2.0169,0.3556 -3.0253 0.5334c -1.0958,-6.2146 -2.1916,-12.4291 -3.2874 -18.6437c 1.0084,-0.1778 2.0169,-0.3556 3.0253 -0.5334c -0.7657,-4.3426 -1.5314,-8.6852 -2.2971 -13.0277c -1.0084,0.1778 -2.0169,0.3556 -3.0253 0.5334c -0.2145,-1.2164 -0.4290,-2.4329 -0.6435 -3.6493c -17.3326,3.0562 -34.6652,6.1124 -51.9978 9.1686c 0.2145,1.2164 0.4290,2.4329 0.6435 3.6493c -1.0084,0.1778 -2.0169,0.3556 -3.0253 0.5334ZM 1010.1578,655.6296 c 0.7657,4.3426 1.5314,8.6852 2.2971 13.0278c 1.0084,-0.1778 2.0169,-0.3556 3.0253 -0.5334c 1.0958,6.2146 2.1916,12.4291 3.2874 18.6437c -1.0084,0.1778 -2.0169,0.3556 -3.0253 0.5334c 0.7657,4.3426 1.5314,8.6852 2.2971 13.0277c 1.0084,-0.1778 2.0169,-0.3556 3.0253 -0.5334c 0.2145,1.2165 0.4290,2.4329 0.6435 3.6494c 17.3326,-3.0562 34.6652,-6.1124 51.9978 -9.1686c -0.2145,-1.2165 -0.4290,-2.4329 -0.6435 -3.6494c 1.0084,-0.1778 2.0169,-0.3556 3.0253 -0.5334c -0.7657,-4.3426 -1.5314,-8.6852 -2.2971 -13.0277c -1.0084,0.1778 -2.0169,0.3556 -3.0253 0.5334c -1.0958,-6.2146 -2.1916,-12.4291 -3.2874 -18.6437c 1.0085,-0.1778 2.0169,-0.3556 3.0253 -0.5334c -0.7657,-4.3426 -1.5314,-8.6852 -2.2971 -13.0278c -1.0084,0.1778 -2.0169,0.3556 -3.0253 0.5334c -0.2145,-1.2164 -0.4290,-2.4329 -0.6435 -3.6493c -17.3326,3.0562 -34.6652,6.1124 -51.9978 9.1686c 0.2145,1.2164 0.4290,2.4329 0.6435 3.6493c -1.0084,0.1778 -2.0169,0.3556 -3.0253 0.5334ZM 1022.6276,726.3496 c 0.7657,4.3426 1.5314,8.6852 2.2971 13.0278c 1.0084,-0.1778 2.0169,-0.3556 3.0253 -0.5334c 1.0958,6.2146 2.1916,12.4291 3.2874 18.6437c -1.0084,0.1778 -2.0169,0.3556 -3.0253 0.5334c 0.7657,4.3426 1.5314,8.6852 2.2971 13.0278c 1.0084,-0.1778 2.0169,-0.3556 3.0253 -0.5335c 0.2145,1.2165 0.4290,2.4329 0.6435 3.6494c 17.3326,-3.0562 34.6652,-6.1124 51.9978 -9.1686c -0.2145,-1.2165 -0.4290,-2.4329 -0.6435 -3.6494c 1.0084,-0.1778 2.0169,-0.3556 3.0253 -0.5334c -0.7657,-4.3426 -1.5314,-8.6852 -2.2971 -13.0277c -1.0084,0.1778 -2.0169,0.3556 -3.0253 0.5334c -1.0958,-6.2146 -2.1916,-12.4291 -3.2874 -18.6437c 1.0084,-0.1778 2.0169,-0.3556 3.0253 -0.5334c -0.7657,-4.3426 -1.5314,-8.6852 -2.2971 -13.0278c -1.0084,0.1778 -2.0169,0.3556 -3.0253 0.5334c -0.2145,-1.2164 -0.4290,-2.4329 -0.6435 -3.6493c -17.3326,3.0562 -34.6652,6.1124 -51.9978 9.1686c 0.2145,1.2165 0.4290,2.4329 0.6435 3.6493c -1.0085,0.1778 -2.0169,0.3556 -3.0253 0.5334ZM 1035.0975,797.0697 c 0.7657,4.3426 1.5314,8.6852 2.2971 13.0277c 1.0084,-0.1778 2.0169,-0.3556 3.0253 -0.5334c 1.0958,6.2146 2.1916,12.4291 3.2874 18.6437c -1.0084,0.1778 -2.0169,0.3556 -3.0253 0.5334c 0.7657,4.3426 1.5314,8.6852 2.2971 13.0278c 1.0084,-0.1778 2.0169,-0.3556 3.0253 -0.5334c 0.2145,1.2164 0.4290,2.4329 0.6435 3.6493c 17.3326,-3.0562 34.6652,-6.1124 51.9978 -9.1686c -0.2145,-1.2164 -0.4290,-2.4329 -0.6435 -3.6493c 1.0084,-0.1778 2.0169,-0.3556 3.0253 -0.5334c -0.7657,-4.3426 -1.5314,-8.6852 -2.2971 -13.0278c -1.0084,0.1778 -2.0169,0.3556 -3.0253 0.5334c -1.0958,-6.2146 -2.1916,-12.4291 -3.2874 -18.6437c 1.0085,-0.1778 2.0169,-0.3556 3.0253 -0.5334c -0.7657,-4.3426 -1.5314,-8.6852 -2.2971 -13.0278c -1.0084,0.1778 -2.0169,0.3556 -3.0253 0.5334c -0.2145,-1.2164 -0.4290,-2.4329 -0.6435 -3.6493c -17.3326,3.0562 -34.6652,6.1124 -51.9978 9.1686c 0.2145,1.2165 0.4290,2.4329 0.6435 3.6494c -1.0085,0.1778 -2.0169,0.3556 -3.0253 0.5334ZM 1047.5673,867.7897 c 0.7657,4.3426 1.5314,8.6852 2.2971 13.0277c 1.0084,-0.1778 2.0169,-0.3556 3.0253 -0.5334c 1.0958,6.2146 2.1916,12.4291 3.2874 18.6437c -1.0084,0.1778 -2.0169,0.3556 -3.0253 0.5334c 0.7657,4.3426 1.5314,8.6852 2.2971 13.0277c 1.0084,-0.1778 2.0169,-0.3556 3.0253 -0.5334c 0.2145,1.2164 0.4290,2.4329 0.6435 3.6493c 17.3326,-3.0562 34.6652,-6.1124 51.9978 -9.1686c -0.2145,-1.2164 -0.4290,-2.4329 -0.6435 -3.6493c 1.0085,-0.1778 2.0169,-0.3556 3.0253 -0.5334c -0.7657,-4.3426 -1.5314,-8.6852 -2.2971 -13.0278c -1.0084,0.1778 -2.0169,0.3556 -3.0253 0.5334c -1.0958,-6.2146 -2.1916,-12.4291 -3.2874 -18.6437c 1.0084,-0.1778 2.0169,-0.3556 3.0253 -0.5334c -0.7657,-4.3426 -1.5314,-8.6852 -2.2971 -13.0277c -1.0084,0.1778 -2.0169,0.3556 -3.0253 0.5334c -0.2145,-1.2165 -0.4290,-2.4329 -0.6435 -3.6494c -17.3326,3.0562 -34.6652,6.1124 -51.9978 9.1686c 0.2145,1.2165 0.4290,2.4329 0.6435 3.6494c -1.0084,0.1778 -2.0169,0.3556 -3.0253 0.5334ZM 1070.4244,548.0248 c 0.0000,3.1311 2.5383,5.6693 5.6693 5.6693c 3.1310,-0.0000 5.6693,-2.5383 5.6693 -5.6693c 0.0000,-3.1310 -2.5383,-5.6693 -5.6693 -5.6693c -3.1311,-0.0000 -5.6693,2.5383 -5.6693 5.6693ZM 1136.3675,914.4478 c 0.0000,3.1311 2.5383,5.6693 5.6693 5.6693c 3.1311,-0.0000 5.6693,-2.5382 5.6693 -5.6693c 0.0000,-3.1311 -2.5382,-5.6693 -5.6693 -5.6693c -3.1310,-0.0000 -5.6693,2.5382 -5.6693 5.6693Z"/></g><g stroke-linejoin="miter" stroke-opacity="1.0" fill-opacity="0.5" stroke="rgb(0,0,0)" stroke-width="0.37795275590551186" fill="rgb(0,0,255)" stroke-linecap="butt" stroke-miterlimit="10.0"><path d="M 538.7843,299.9561 h -3.0465 l -0.6321,-2.1983 l -0.7522,-1.8955 l -0.8566,-1.5947 l -0.9453,-1.2961 l -1.0184,-0.9995 l -1.0758,-0.7051 l -1.1176,-0.4127 l -1.1436,-0.1223 l -1.1541,0.1659 l -1.1488,0.4521 l -1.1279,0.7362 l -1.0914,1.0182 l -1.0392,1.2982 l -0.9713,1.5761 l -0.8877,1.8518 l -0.7885,2.1256 h -3.0465 l 8.9944,-27.0453 h 3.8547 l 8.9944,27.0453 ZM 562.0785,282.0503 h -2.4247 l -0.4789,-1.1290 l -0.3086,-1.1480 l -0.5877,-2.1495 l -0.5198,-0.8997 l -0.8310,-0.7152 l -1.2625,-0.4798 l -1.8143,-0.1934 v 22.1958 h 4.3521 v 2.4247 h -11.5849 v -2.4247 h 4.3728 v -22.1958 l -1.8376,0.1564 l -1.1777,0.3931 l -0.6889,0.6090 l -0.3712,0.8041 l -0.4731,2.1105 l -0.4440,1.2648 l -0.8103,1.3768 h -2.4248 v -9.1394 h 19.3151 v 9.1394 ZM 584.6058,299.9561 h -3.6060 l -7.8960,-11.5849 h -4.2070 v 11.5849 h -2.8392 v -14.0089 l 2.8392,-0.0007 h 6.0722 l 2.6631,-0.3109 l 1.0906,-0.3886 l 0.9300,-0.5440 l 0.7525,-0.7279 l 0.5375,-0.9196 l 0.3225,-1.1113 l 0.1075,-1.3031 h 0.0000 l -0.1075,-1.2849 l -0.3225,-1.0984 l -0.5375,-0.9119 l -0.7525,-0.7254 l -0.9300,-0.5621 l -1.0906,-0.4015 l -2.6631,-0.3212 h -6.0722 l -2.8392,-0.0003 v -2.4244 h 8.9115 l 2.1022,0.1218 l 1.8509,0.3653 l 1.5997,0.6088 l 1.3484,0.8523 l 1.0699,1.0842 l 0.7642,1.3251 l 0.4585,1.5660 l 0.1528,1.8069 l -0.1503,1.6165 l -0.4507,1.4507 l -0.7098,1.2487 l -0.9274,1.0518 l -1.1398,0.8601 l -1.3471,0.6735 l -1.4973,0.4663 l -1.6320,0.2383 l 8.1447,11.7092 ZM 605.8690,299.9561 h -17.2841 v -27.0453 h 17.2841 v 2.4247 h -14.4449 v 9.6783 h 10.6523 v 2.4247 h -10.6523 v 10.0928 h 14.4449 v 2.4247 ZM 627.1322,290.0809 l -0.1295,2.1916 l -0.3886,1.9740 l -0.6425,1.7305 l -0.9326,1.4611 l -1.2020,1.1606 l -1.4921,0.8704 l -1.7875,0.5440 l -2.0880,0.1813 l -2.1035,-0.1813 l -1.7927,-0.5440 l -1.4766,-0.8704 l -1.1968,-1.1606 l -0.9067,-1.4662 l -0.6476,-1.7460 l -0.3730,-1.9895 l -0.1243,-2.1968 v -17.3670 h 2.8392 v 17.4084 l 0.2072,2.5905 l 0.3264,1.3056 l 0.5233,1.1813 l 0.7616,1.0259 l 0.9999,0.8393 l 1.3108,0.5596 l 1.6528,0.1865 l 1.6528,-0.1865 l 1.3108,-0.5596 l 1.0258,-0.8393 l 0.7564,-1.0259 l 0.5336,-1.1813 l 0.3161,-1.3056 l 0.2072,-2.5905 v -17.4084 h 2.8600 v 17.4084 ZM 649.2243,292.8994 l -0.1762,1.6217 l -0.5285,1.4663 l -0.8238,1.2745 l -1.0621,1.0880 l -1.2694,0.8808 l -1.4455,0.6528 l -1.5647,0.4041 l -1.6269,0.1347 l -2.1864,-0.2124 l -1.9999,-0.6373 l -1.4102,-0.9698 l -0.5256,-0.4111 l -0.3142,0.3726 l -0.7758,1.3814 h -2.4040 v -8.2276 h 2.4040 l 0.1606,1.3315 l 0.4818,1.2175 l 0.7305,1.0621 l 0.9067,0.9067 l 1.0673,0.7409 l 1.2124,0.5647 l 1.3160,0.3420 l 1.3367,0.1140 l 2.2175,-0.3316 l 1.7823,-0.9740 l 0.6839,-0.7098 l 0.5181,-0.8445 l 0.3419,-0.9740 l 0.1140,-1.0984 l -0.1451,-1.2124 l -0.4352,-1.0259 l -0.6632,-0.8652 l -0.8704,-0.7305 l -2.1553,-1.1191 l -2.4455,-0.9326 l -2.9429,-1.0777 l -1.3937,-0.6528 l -1.2383,-0.7979 l -1.0518,-0.9637 l -0.8342,-1.1502 l -0.5440,-1.4144 l -0.1813,-1.7149 l 0.1762,-1.5647 l 0.5285,-1.3782 l 0.8134,-1.2020 l 1.0310,-0.9948 l 1.2331,-0.7823 l 1.4196,-0.5648 l 1.5336,-0.3575 l 1.5751,-0.1192 l 1.8309,0.1694 l 1.3454,0.2965 l 1.6048,0.6559 l 0.7737,0.2090 l 0.6832,-0.8748 h 2.5076 v 7.7302 h -2.5076 l -0.1295,-1.1813 l -0.3886,-1.0984 l -0.5907,-0.9948 l -0.7772,-0.8290 l -0.9326,-0.6839 l -1.0569,-0.5181 l -1.1502,-0.3419 l -1.2124,-0.1140 l -2.0932,0.2487 l -1.7408,0.8083 l -0.6735,0.6217 l -0.5285,0.7875 l -0.3264,0.9533 l -0.1088,1.1191 l 0.1295,0.9792 l 0.3886,0.8238 l 1.4300,1.3264 l 2.0517,1.0362 l 2.4040,0.9326 l 3.0465,1.2020 l 2.7149,1.5958 l 1.0932,1.0414 l 0.8756,1.2590 l 0.5751,1.4973 l 0.1917,1.7978 ZM 3.9685,394.3441 c 0.0000,7.4653 5.1229,14.1606 12.6287 15.9268c 139.1906,32.7544 278.3811,65.5088 417.5716 98.2632c 1.2295,0.2894 2.4884,0.4355 3.7516 0.4355c 48.3874,-0.0000 96.7748,-0.0000 145.1622 0.0000c 48.3874,-0.0000 96.7748,-0.0000 145.1622 0.0000c 1.2632,-0.0000 2.5220,-0.1461 3.7516 -0.4355c 139.1905,-32.7544 278.3810,-65.5088 417.5716 -98.2632c 7.5058,-1.7662 12.6287,-8.4615 12.6287 -15.9268c 0.0000,-0.9437 -0.0818,-1.8997 -0.2511 -2.8596c -21.9811,-124.6607 -43.9621,-249.3214 -65.9432 -373.9821c -1.3802,-7.8274 -8.1810,-13.5340 -16.1291 -13.5340c -120.6115,-0.0000 -241.2230,-0.0000 -361.8345 0.0000c -4.4001,-0.0000 -8.6152,1.7705 -11.6955 4.9126c -31.3073,31.9359 -75.0058,51.7803 -123.2607 51.7803c -48.2549,-0.0000 -91.9534,-19.8443 -123.2607 -51.7803c -3.0803,-3.1421 -7.2954,-4.9126 -11.6955 -4.9126c -120.6115,-0.0000 -241.2230,-0.0000 -361.8345 0.0000c -7.9481,-0.0000 -14.7490,5.7066 -16.1291 13.5340c -21.9811,124.6606 -43.9621,249.3214 -65.9432 373.9821c -0.1693,0.9599 -0.2511,1.9159 -0.2511 2.8596ZM 18.4590,390.5490 c 0.0000,-3.1311 2.5382,-5.6693 5.6693 -5.6693c 3.1310,-0.0000 5.6693,2.5382 5.6693 5.6693c 0.0000,3.1311 -2.5383,5.6693 -5.6693 5.6693c -3.1311,-0.0000 -5.6693,-2.5382 -5.6693 -5.6693ZM 38.6814,391.3559 c -0.0000,-0.2179 0.0189,-0.4387 0.0580 -0.6607c 4.1566,-23.5734 8.3133,-47.1467 12.4699 -70.7200c 0.1575,-0.8933 0.3151,-1.7866 0.4726 -2.6799c 3.9991,-22.6801 7.9982,-45.3601 11.9973 -68.0402c 0.1575,-0.8933 0.3151,-1.7866 0.4726 -2.6799c 3.9991,-22.6801 7.9982,-45.3601 11.9973 -68.0402c 0.1575,-0.8933 0.3151,-1.7866 0.4726 -2.6799c 3.9991,-22.6801 7.9982,-45.3601 11.9973 -68.0402c 0.1575,-0.8933 0.3150,-1.7866 0.4726 -2.6799c 4.1566,-23.5733 8.3132,-47.1467 12.4699 -70.7200c 0.3625,-2.0557 2.3227,-3.4283 4.3784 -3.0658c 22.3326,3.9378 44.6653,7.8757 66.9979 11.8135c 0.3625,-2.0557 2.3227,-3.4283 4.3784 -3.0658c 22.3326,3.9379 44.6653,7.8757 66.9979 11.8136c 0.4375,-2.4814 0.8751,-4.9628 1.3126 -7.4442c 0.3625,-2.0557 2.3227,-3.4283 4.3784 -3.0658c 22.3326,3.9378 44.6653,7.8757 66.9979 11.8135c 0.8751,-4.9628 1.7502,-9.9256 2.6252 -14.8884c 0.3625,-2.0557 2.3227,-3.4283 4.3784 -3.0658c 24.4666,4.3141 48.9333,8.6282 73.3999 12.9424c 1.8337,0.3233 3.1239,1.9180 3.1239 3.7177c 0.0000,0.2178 -0.0189,0.4387 -0.0580 0.6607c -1.0938,6.2035 -2.1877,12.4070 -3.2815 18.6105c 22.3326,3.9379 44.6653,7.8757 66.9979 11.8136c 1.8337,0.3233 3.1239,1.9180 3.1239 3.7177c 0.0000,0.2178 -0.0189,0.4387 -0.0580 0.6607c -0.8751,4.9628 -1.7502,9.9256 -2.6252 14.8884c 22.3326,3.9378 44.6653,7.8757 66.9979 11.8136c 1.8337,0.3233 3.1239,1.9180 3.1239 3.7176c 0.0000,0.2179 -0.0189,0.4388 -0.0581 0.6608c -4.1566,23.5733 -8.3132,47.1467 -12.4699 70.7200c -0.1575,0.8933 -0.3150,1.7866 -0.4725 2.6799c -3.9991,22.6800 -7.9982,45.3601 -11.9973 68.0401c -0.1575,0.8933 -0.3151,1.7866 -0.4726 2.6799c -3.9991,22.6800 -7.9982,45.3601 -11.9973 68.0401c -0.1575,0.8933 -0.3150,1.7866 -0.4726 2.6799c -1.7020,9.6527 -3.4040,19.3053 -5.1061 28.9580c 22.3326,3.9378 44.6653,7.8757 66.9979 11.8136c 1.8337,0.3233 3.1239,1.9180 3.1239 3.7177c 0.0000,0.2178 -0.0189,0.4387 -0.0580 0.6607c -4.3141,24.4666 -8.6283,48.9333 -12.9424 73.4000c -0.3625,2.0557 -2.3228,3.4283 -4.3784 3.0658c -22.3326,-3.9378 -44.6653,-7.8757 -66.9979 -11.8135c -1.8595,10.5460 -3.7191,21.0919 -5.5786 31.6379c -0.3625,2.0557 -2.3228,3.4283 -4.3784 3.0658c -24.4666,-4.3141 -48.9333,-8.6283 -73.4000 -12.9424c -1.8336,-0.3234 -3.1239,-1.9180 -3.1239 -3.7177c 0.0000,-0.2179 0.0189,-0.4388 0.0581 -0.6608c 0.8751,-4.9628 1.7501,-9.9256 2.6252 -14.8884c -22.3326,-3.9378 -44.6653,-7.8757 -66.9979 -11.8136c -1.8337,-0.3233 -3.1239,-1.9180 -3.1239 -3.7176c 0.0000,-0.2179 0.0189,-0.4388 0.0580 -0.6608c 1.0938,-6.2035 2.1877,-12.4070 3.2815 -18.6105c -20.1986,-3.5616 -40.3973,-7.1231 -60.5959 -10.6847c -0.8751,4.9628 -1.7502,9.9256 -2.6252 14.8884c -0.3625,2.0557 -2.3228,3.4283 -4.3784 3.0658c -22.3326,-3.9378 -44.6653,-7.8757 -66.9979 -11.8136c -0.4375,2.4814 -0.8751,4.9628 -1.3126 7.4442c -0.3625,2.0557 -2.3228,3.4283 -4.3784 3.0658c -22.3326,-3.9378 -44.6653,-7.8757 -66.9980 -11.8136c -0.3625,2.0557 -2.3227,3.4283 -4.3784 3.0658c -24.4666,-4.3141 -48.9333,-8.6282 -73.4000 -12.9424c -1.8337,-0.3233 -3.1239,-1.9180 -3.1239 -3.7177ZM 84.4021,24.1259 c 0.0000,-3.1310 2.5383,-5.6693 5.6693 -5.6693c 3.1311,-0.0000 5.6693,2.5383 5.6693 5.6693c 0.0000,3.1311 -2.5383,5.6693 -5.6693 5.6693c -3.1310,-0.0000 -5.6693,-2.5383 -5.6693 -5.6693ZM 426.2322,24.1259 c 0.0000,-3.1310 2.5383,-5.6693 5.6693 -5.6693c 3.1311,-0.0000 5.6693,2.5383 5.6693 5.6693c 0.0000,3.1311 -2.5383,5.6693 -5.6693 5.6693c -3.1310,-0.0000 -5.6693,-2.5383 -5.6693 -5.6693ZM 432.2511,488.8122 c 0.0000,-3.1310 2.5382,-5.6693 5.6693 -5.6693c 3.1310,-0.0000 5.6693,2.5383 5.6693 5.6693c 0.0000,3.1311 -2.5383,5.6693 -5.6693 5.6693c -3.1311,-0.0000 -5.6693,-2.5382 -5.6693 -5.6693ZM 604.3385,377.7928 c -0.0000,-1.7997 1.2902,-3.3944 3.1239 -3.7177c 22.3326,-3.9379 44.6653,-7.8757 66.9979 -11.8136c -1.7020,-9.6527 -3.4040,-19.3053 -5.1061 -28.9580c -0.1575,-0.8933 -0.3151,-1.7866 -0.4726 -2.6799c -3.9991,-22.6800 -7.9982,-45.3601 -11.9973 -68.0401c -0.1575,-0.8933 -0.3150,-1.7866 -0.4726 -2.6799c -3.9991,-22.6800 -7.9982,-45.3601 -11.9973 -68.0401c -0.1575,-0.8933 -0.3150,-1.7866 -0.4725 -2.6799c -4.1566,-23.5733 -8.3133,-47.1467 -12.4699 -70.7200c -0.0392,-0.2220 -0.0581,-0.4429 -0.0581 -0.6608c 0.0000,-1.7996 1.2902,-3.3943 3.1239 -3.7176c 22.3326,-3.9379 44.6653,-7.8757 66.9979 -11.8136c -0.8751,-4.9628 -1.7501,-9.9256 -2.6252 -14.8884c -0.0391,-0.2220 -0.0580,-0.4429 -0.0580 -0.6607c 0.0000,-1.7997 1.2902,-3.3944 3.1239 -3.7177c 22.3326,-3.9379 44.6653,-7.8757 66.9979 -11.8136c -1.0938,-6.2035 -2.1877,-12.4070 -3.2815 -18.6105c -0.0391,-0.2220 -0.0580,-0.4429 -0.0580 -0.6607c 0.0000,-1.7997 1.2902,-3.3944 3.1239 -3.7177c 24.4666,-4.3141 48.9333,-8.6283 73.3999 -12.9424c 2.0557,-0.3625 4.0160,1.0101 4.3784 3.0658c 0.8751,4.9628 1.7502,9.9256 2.6252 14.8884c 22.3326,-3.9378 44.6653,-7.8757 66.9979 -11.8135c 2.0557,-0.3625 4.0160,1.0101 4.3784 3.0658c 0.4375,2.4814 0.8751,4.9628 1.3126 7.4442c 22.3326,-3.9378 44.6653,-7.8757 66.9979 -11.8136c 2.0557,-0.3625 4.0160,1.0101 4.3784 3.0658c 22.3326,-3.9378 44.6653,-7.8757 66.9979 -11.8135c 2.0557,-0.3625 4.0160,1.0101 4.3784 3.0658c 4.1566,23.5734 8.3133,47.1467 12.4699 70.7200c 0.1575,0.8933 0.3151,1.7866 0.4726 2.6799c 3.9991,22.6801 7.9982,45.3601 11.9973 68.0402c 0.1575,0.8933 0.3150,1.7866 0.4726 2.6799c 3.9991,22.6801 7.9982,45.3601 11.9973 68.0402c 0.1575,0.8933 0.3150,1.7866 0.4726 2.6799c 3.9991,22.6801 7.9982,45.3601 11.9973 68.0402c 0.1575,0.8933 0.3150,1.7866 0.4726 2.6799c 4.1566,23.5733 8.3132,47.1467 12.4699 70.7200c 0.0391,0.2220 0.0580,0.4428 0.0580 0.6607c 0.0000,1.7996 -1.2902,3.3944 -3.1239 3.7177c -24.4667,4.3141 -48.9333,8.6282 -73.4000 12.9424c -2.0557,0.3625 -4.0160,-1.0101 -4.3784 -3.0658c -22.3327,3.9379 -44.6653,7.8757 -66.9980 11.8136c -2.0556,0.3625 -4.0159,-1.0101 -4.3784 -3.0658c -0.4375,-2.4814 -0.8751,-4.9628 -1.3126 -7.4442c -22.3326,3.9379 -44.6653,7.8757 -66.9979 11.8136c -2.0557,0.3625 -4.0160,-1.0101 -4.3784 -3.0658c -0.8751,-4.9628 -1.7501,-9.9256 -2.6252 -14.8884c -20.1986,3.5616 -40.3973,7.1231 -60.5959 10.6847c 1.0938,6.2035 2.1877,12.4071 3.2815 18.6105c 0.0392,0.2220 0.0580,0.4429 0.0580 0.6608c 0.0000,1.7996 -1.2902,3.3943 -3.1239 3.7176c -22.3326,3.9379 -44.6653,7.8757 -66.9979 11.8136c 0.8751,4.9628 1.7502,9.9256 2.6252 14.8884c 0.0392,0.2220 0.0581,0.4429 0.0581 0.6608c 0.0000,1.7996 -1.2902,3.3943 -3.1239 3.7177c -24.4667,4.3141 -48.9333,8.6282 -73.4000 12.9424c -2.0557,0.3625 -4.0160,-1.0101 -4.3784 -3.0658c -1.8595,-10.5460 -3.7191,-21.0919 -5.5786 -31.6379c -22.3326,3.9378 -44.6653,7.8757 -66.9979 11.8135c -2.0557,0.3625 -4.0160,-1.0101 -4.3784 -3.0658c -4.3141,-24.4667 -8.6282,-48.9333 -12.9424 -73.4000c -0.0391,-0.2220 -0.0580,-0.4429 -0.0580 -0.6607ZM 722.5755,488.8122 c 0.0000,-3.1310 2.5383,-5.6693 5.6693 -5.6693c 3.1311,-0.0000 5.6693,2.5383 5.6693 5.6693c 0.0000,3.1311 -2.5382,5.6693 -5.6693 5.6693c -3.1310,-0.0000 -5.6693,-2.5382 -5.6693 -5.6693ZM 728.5944,24.1259 c 0.0000,-3.1310 2.5383,-5.6693 5.6693 -5.6693c 3.1310,-0.0000 5.6693,2.5383 5.6693 5.6693c 0.0000,3.1311 -2.5383,5.6693 -5.6693 5.6693c -3.1311,-0.0000 -5.6693,-2.5383 -5.6693 -5.6693ZM 1070.4244,24.1259 c 0.0000,-3.1310 2.5383,-5.6693 5.6693 -5.6693c 3.1310,-0.0000 5.6693,2.5383 5.6693 5.6693c 0.0000,3.1311 -2.5383,5.6693 -5.6693 5.6693c -3.1311,-0.0000 -5.6693,-2.5383 -5.6693 -5.6693ZM 1136.3675,390.5490 c 0.0000,-3.1311 2.5383,-5.6693 5.6693 -5.6693c 3.1311,-0.0000 5.6693,2.5382 5.6693 5.6693c 0.0000,3.1311 -2.5382,5.6693 -5.6693 5.6693c -3.1310,-0.0000 -5.6693,-2.5382 -5.6693 -5.6693Z"/></g></svg>