<?xml version="1.0" encoding="UTF-8"?>
<!DOCTYPE svg PUBLIC "-//W3C//DTD SVG 1.1//EN"
    "http://www.w3.org/Graphics/SVG/1.1/DTD/svg11.dtd"><svg xmlns="http://www.w3.org/2000/svg" height="2660.3294" stroke-opacity="1" viewBox="0 0 1071 2660" font-size="1" width="1070.9049" xmlns:xlink="http://www.w3.org/1999/xlink" stroke="rgb(0,0,0)" version="1.1"><defs></defs><g stroke-linejoin="miter" stroke-opacity="1.0" fill-opacity="0.5" stroke="rgb(0,0,0)" stroke-width="0.37795275590551186" fill="rgb(0,0,0)" stroke-linecap="butt" stroke-miterlimit="10.0"><path d="M 3.9685,2446.3494 c 0.0000,-1.7269 0.2746,-3.4789 0.8490 -5.1956c 32.2296,-96.3240 64.4591,-192.6480 96.6887 -288.9721c 2.2347,-6.6788 8.4889,-11.1811 15.5316 -11.1811c 139.4715,-0.0000 278.9431,-0.0000 418.4147 -0.0000c 139.4715,-0.0000 278.9431,-0.0000 418.4147 -0.0000c 7.0427,-0.0000 13.2969,4.5024 15.5316 11.1811c 32.2296,96.3241 64.4592,192.6481 96.6887 288.9721c 0.5744,1.7167 0.8490,3.4687 0.8490 5.1956c 0.0000,6.1087 -3.4357,11.9039 -9.1889 14.7157c -132.0613,64.5441 -264.1226,129.0882 -396.1840 193.6324c -2.2394,1.0945 -4.6990,1.6634 -7.1916 1.6634c -39.6398,-0.0000 -79.2796,-0.0000 -118.9194 -0.0000c -39.6398,-0.0000 -79.2796,-0.0000 -118.9194 -0.0000c -2.4926,-0.0000 -4.9522,-0.5689 -7.1916 -1.6634c -132.0614,-64.5441 -264.1227,-129.0882 -396.1840 -193.6324c -5.7532,-2.8119 -9.1889,-8.6070 -9.1889 -14.7157ZM 18.4593,2442.5710 c 0.0000,3.1311 2.5382,5.6693 5.6693 5.6693c 3.1311,-0.0000 5.6693,-2.5382 5.6693 -5.6693c 0.0000,-3.1311 -2.5382,-5.6693 -5.6693 -5.6693c -3.1311,-0.0000 -5.6693,2.5382 -5.6693 5.6693ZM 115.1480,2161.1580 c 0.0000,3.1311 2.5382,5.6693 5.6693 5.6693c 3.1311,-0.0000 5.6693,-2.5382 5.6693 -5.6693c 0.0000,-3.1310 -2.5382,-5.6693 -5.6693 -5.6693c -3.1310,-0.0000 -5.6693,2.5382 -5.6693 5.6693ZM 410.8637,2636.2035 c 0.0000,3.1310 2.5382,5.6693 5.6693 5.6693c 3.1310,-0.0000 5.6693,-2.5382 5.6693 -5.6693c 0.0000,-3.1311 -2.5382,-5.6693 -5.6693 -5.6693c -3.1311,-0.0000 -5.6693,2.5382 -5.6693 5.6693ZM 416.3973,2161.1580 c 0.0000,3.1311 2.5382,5.6693 5.6693 5.6693c 3.1310,-0.0000 5.6693,-2.5382 5.6693 -5.6693c 0.0000,-3.1310 -2.5382,-5.6693 -5.6693 -5.6693c -3.1311,-0.0000 -5.6693,2.5382 -5.6693 5.6693ZM 643.1690,2161.1580 c 0.0000,3.1311 2.5382,5.6693 5.6693 5.6693c 3.1311,-0.0000 5.6693,-2.5382 5.6693 -5.6693c 0.0000,-3.1310 -2.5382,-5.6693 -5.6693 -5.6693c -3.1310,-0.0000 -5.6693,2.5382 -5.6693 5.6693ZM 648.7026,2636.2035 c 0.0000,3.1310 2.5382,5.6693 5.6693 5.6693c 3.1311,-0.0000 5.6693,-2.5382 5.6693 -5.6693c 0.0000,-3.1311 -2.5382,-5.6693 -5.6693 -5.6693c -3.1310,-0.0000 -5.6693,2.5382 -5.6693 5.6693ZM 944.4183,2161.1580 c 0.0000,3.1311 2.5382,5.6693 5.6693 5.6693c 3.1310,-0.0000 5.6693,-2.5382 5.6693 -5.6693c 0.0000,-3.1310 -2.5382,-5.6693 -5.6693 -5.6693c -3.1311,-0.0000 -5.6693,2.5382 -5.6693 5.6693ZM 1041.1070,2442.5710 c 0.0000,3.1311 2.5382,5.6693 5.6693 5.6693c 3.1311,-0.0000 5.6693,-2.5382 5.6693 -5.6693c 0.0000,-3.1311 -2.5382,-5.6693 -5.6693 -5.6693c -3.1311,-0.0000 -5.6693,2.5382 -5.6693 5.6693Z"/></g><g stroke-linejoin="miter" stroke-opacity="1.0" fill-opacity="0.5" stroke="rgb(0,0,0)" stroke-width="0.37795275590551186" fill="rgb(255,0,0)" stroke-linecap="butt" stroke-miterlimit="10.0"><path d="M 3.9685,1912.0914 c 0.0000,-1.7269 0.2745,-3.4789 0.8489 -5.1956c 32.2296,-96.3241 64.4592,-192.6480 96.6887 -288.9721c 2.2347,-6.6788 8.4889,-11.1811 15.5316 -11.1811c 136.3219,-0.0000 272.6439,-0.0000 408.9659 -0.0000c 1.2598,-0.0000 2.5196,-0.0000 3.7795 -0.0000c 0.0000,1.2599 0.0000,2.5196 0.0000 3.7795c -1.2599,-0.0000 -2.5197,-0.0000 -3.7795 -0.0000c 0.0000,0.3376 0.0000,0.6752 0.0000 1.0127c 0.0000,0.9223 0.0000,1.8446 0.0000 2.7668c 1.2598,-0.0000 2.5196,-0.0000 3.7795 -0.0000c 0.0000,1.2599 0.0000,2.5197 0.0000 3.7795c -1.2599,-0.0000 -2.5197,-0.0000 -3.7795 -0.0000c 0.0000,0.3376 0.0000,0.6752 0.0000 1.0127c 0.0000,0.9223 0.0000,1.8446 0.0000 2.7668c 1.2598,-0.0000 2.5196,-0.0000 3.7795 -0.0000c 0.0000,1.2599 0.0000,2.5196 0.0000 3.7795c -1.2599,-0.0000 -2.5197,-0.0000 -3.7795 -0.0000c 0.0000,0.3376 0.0000,0.6752 0.0000 1.0127c 0.0000,0.9223 0.0000,1.8446 0.0000 2.7668c 1.2598,-0.0000 2.5196,-0.0000 3.7795 -0.0000c 0.0000,1.2599 0.0000,2.5197 0.0000 3.7795c -1.2599,-0.0000 -2.5197,-0.0000 -3.7795 -0.0000c 0.0000,0.3376 0.0000,0.6752 0.0000 1.0127c 0.0000,0.9222 0.0000,1.8445 0.0000 2.7668c 1.2598,-0.0000 2.5196,-0.0000 3.7795 -0.0000c 0.0000,0.6299 0.0000,1.2599 0.0000 1.8898c 3.7795,-0.0000 7.5590,-0.0000 11.3386 -0.0000c 0.0000,-0.6299 0.0000,-1.2599 0.0000 -1.8898c 1.2599,-0.0000 2.5197,-0.0000 3.7795 -0.0000c 0.0000,-1.2598 0.0000,-2.5196 0.0000 -3.7795c -1.2598,-0.0000 -2.5196,-0.0000 -3.7795 -0.0000c 0.0000,-1.2599 0.0000,-2.5197 0.0000 -3.7795c 1.2599,-0.0000 2.5197,-0.0000 3.7795 -0.0000c 0.0000,-1.2599 0.0000,-2.5197 0.0000 -3.7795c -1.2598,-0.0000 -2.5196,-0.0000 -3.7795 -0.0000c 0.0000,-1.2599 0.0000,-2.5196 0.0000 -3.7795c 1.2599,-0.0000 2.5197,-0.0000 3.7795 -0.0000c 0.0000,-1.2599 0.0000,-2.5197 0.0000 -3.7795c -1.2598,-0.0000 -2.5196,-0.0000 -3.7795 -0.0000c 0.0000,-1.2599 0.0000,-2.5197 0.0000 -3.7795c 1.2599,-0.0000 2.5197,-0.0000 3.7795 -0.0000c 0.0000,-1.2599 0.0000,-2.5197 0.0000 -3.7795c -1.2598,-0.0000 -2.5196,-0.0000 -3.7795 -0.0000c 0.0000,-1.2599 0.0000,-2.5196 0.0000 -3.7795c 1.2599,-0.0000 2.5197,-0.0000 3.7795 -0.0000c 136.3220,-0.0000 272.6439,-0.0000 408.9659 -0.0000c 7.0427,-0.0000 13.2970,4.5023 15.5316 11.1811c 32.2296,96.3241 64.4592,192.6481 96.6887 288.9721c 0.5744,1.7167 0.8489,3.4687 0.8489 5.1956c 0.0000,6.1087 -3.4357,11.9039 -9.1889 14.7157c -132.0613,64.5441 -264.1226,129.0883 -396.1840 193.6324c -2.2394,1.0945 -4.6990,1.6634 -7.1916 1.6634c -39.6398,-0.0000 -79.2796,-0.0000 -118.9194 -0.0000c -39.6398,-0.0000 -79.2796,-0.0000 -118.9194 -0.0000c -2.4926,-0.0000 -4.9522,-0.5689 -7.1916 -1.6634c -132.0614,-64.5441 -264.1227,-129.0883 -396.1840 -193.6324c -5.7532,-2.8118 -9.1889,-8.6070 -9.1889 -14.7157ZM 18.4593,1908.3130 c 0.0000,3.1311 2.5382,5.6693 5.6693 5.6693c 3.1310,-0.0000 5.6693,-2.5382 5.6693 -5.6693c 0.0000,-3.1310 -2.5382,-5.6693 -5.6693 -5.6693c -3.1311,-0.0000 -5.6693,2.5382 -5.6693 5.6693ZM 35.2353,1896.2763 c 3.2413,2.9924 5.2713,7.2775 5.2713 12.0367c 0.0000,3.5117 -1.1052,6.7652 -2.9868 9.4318c 1.0316,0.8617 2.2010,1.6055 3.4940 2.1996c 122.1449,56.1238 244.2898,112.2476 366.4348 168.3714c 2.5996,-1.7361 5.7238,-2.7483 9.0845 -2.7483c 6.0621,-0.0000 11.3550,3.2936 14.1868 8.1890c 34.9109,-0.0000 69.8218,-0.0000 104.7326 -0.0000c 34.9108,-0.0000 69.8217,-0.0000 104.7326 -0.0000c 2.8318,-4.8954 8.1247,-8.1890 14.1868 -8.1890c 3.3606,-0.0000 6.4848,1.0122 9.0845 2.7483c 122.1449,-56.1238 244.2898,-112.2476 366.4348 -168.3714c 1.2931,-0.5941 2.4624,-1.3379 3.4940 -2.1996c -1.8816,-2.6665 -2.9868,-5.9201 -2.9868 -9.4318c 0.0000,-4.7592 2.0300,-9.0443 5.2713 -12.0367c -29.8050,-83.7454 -59.6101,-167.4908 -89.4152 -251.2362c -0.3194,-0.8974 -0.7255,-1.7507 -1.2078 -2.5526c -3.6161,-1.1686 -6.6821,-3.5605 -8.7103 -6.6879c -1.5176,-0.4632 -3.1283,-0.7106 -4.7851 -0.7106c -89.5087,-0.0000 -179.0174,-0.0000 -268.5261 -0.0000c -2.8318,4.8954 -8.1247,8.1889 -14.1868 8.1889c -6.0622,-0.0000 -11.3550,-3.2936 -14.1869 -8.1889c -17.9482,-0.0000 -35.8964,-0.0000 -53.8446 -0.0000c 0.0000,5.9842 0.0000,11.9685 0.0000 17.9527c 0.0000,4.1747 -3.3843,7.5590 -7.5591 7.5590c -25.1968,-0.0000 -50.3937,-0.0000 -75.5905 -0.0000c -4.1748,-0.0000 -7.5591,-3.3843 -7.5591 -7.5590c 0.0000,-1.3775 0.0000,-2.7551 0.0000 -4.1326c 0.0000,-4.6068 0.0000,-9.2135 0.0000 -13.8202c -17.9482,-0.0000 -35.8964,-0.0000 -53.8446 -0.0000c -2.8318,4.8954 -8.1247,8.1889 -14.1869 8.1889c -6.0621,-0.0000 -11.3550,-3.2936 -14.1868 -8.1889c -89.5087,-0.0000 -179.0174,-0.0000 -268.5261 -0.0000c -1.6568,-0.0000 -3.2675,0.2474 -4.7851 0.7106c -2.0282,3.1274 -5.0942,5.5193 -8.7103 6.6879c -0.4823,0.8020 -0.8885,1.6552 -1.2078 2.5526c -29.8051,83.7454 -59.6102,167.4908 -89.4152 251.2362ZM 115.1480,1626.9000 c 0.0000,3.1310 2.5382,5.6693 5.6693 5.6693c 3.1311,-0.0000 5.6693,-2.5382 5.6693 -5.6693c 0.0000,-3.1311 -2.5382,-5.6693 -5.6693 -5.6693c -3.1310,-0.0000 -5.6693,2.5382 -5.6693 5.6693ZM 410.8637,2101.9454 c 0.0000,3.1311 2.5382,5.6693 5.6693 5.6693c 3.1311,-0.0000 5.6693,-2.5382 5.6693 -5.6693c 0.0000,-3.1310 -2.5382,-5.6693 -5.6693 -5.6693c -3.1310,-0.0000 -5.6693,2.5382 -5.6693 5.6693ZM 416.3973,1626.9000 c 0.0000,3.1310 2.5382,5.6693 5.6693 5.6693c 3.1310,-0.0000 5.6693,-2.5382 5.6693 -5.6693c 0.0000,-3.1311 -2.5382,-5.6693 -5.6693 -5.6693c -3.1311,-0.0000 -5.6693,2.5382 -5.6693 5.6693ZM 643.1690,1626.9000 c 0.0000,3.1310 2.5382,5.6693 5.6693 5.6693c 3.1311,-0.0000 5.6693,-2.5382 5.6693 -5.6693c 0.0000,-3.1311 -2.5382,-5.6693 -5.6693 -5.6693c -3.1310,-0.0000 -5.6693,2.5382 -5.6693 5.6693ZM 648.7026,2101.9454 c 0.0000,3.1311 2.5382,5.6693 5.6693 5.6693c 3.1310,-0.0000 5.6693,-2.5382 5.6693 -5.6693c 0.0000,-3.1310 -2.5382,-5.6693 -5.6693 -5.6693c -3.1311,-0.0000 -5.6693,2.5382 -5.6693 5.6693ZM 944.4183,1626.9000 c 0.0000,3.1310 2.5382,5.6693 5.6693 5.6693c 3.1310,-0.0000 5.6693,-2.5382 5.6693 -5.6693c 0.0000,-3.1311 -2.5382,-5.6693 -5.6693 -5.6693c -3.1311,-0.0000 -5.6693,2.5382 -5.6693 5.6693ZM 1041.1070,1908.3130 c 0.0000,3.1311 2.5382,5.6693 5.6693 5.6693c 3.1311,-0.0000 5.6693,-2.5382 5.6693 -5.6693c 0.0000,-3.1310 -2.5382,-5.6693 -5.6693 -5.6693c -3.1310,-0.0000 -5.6693,2.5382 -5.6693 5.6693Z"/></g><g stroke-linejoin="miter" stroke-opacity="1.0" fill-opacity="0.5" stroke="rgb(0,0,0)" stroke-width="0.37795275590551186" fill="rgb(255,0,0)" stroke-linecap="butt" stroke-miterlimit="10.0"><path d="M 3.9685,1377.8334 c 0.0000,-1.7269 0.2746,-3.4789 0.8490 -5.1956c 32.2296,-96.3240 64.4591,-192.6480 96.6887 -288.9721c 2.2347,-6.6788 8.4889,-11.1811 15.5316 -11.1811c 139.4715,-0.0000 278.9431,-0.0000 418.4147 -0.0000c 139.4715,-0.0000 278.9431,-0.0000 418.4147 -0.0000c 7.0427,-0.0000 13.2969,4.5024 15.5316 11.1811c 32.2296,96.3241 64.4592,192.6481 96.6887 288.9721c 0.5744,1.7167 0.8490,3.4687 0.8490 5.1956c 0.0000,6.1087 -3.4357,11.9039 -9.1889 14.7157c -132.0613,64.5441 -264.1226,129.0882 -396.1840 193.6324c -2.2394,1.0945 -4.6990,1.6634 -7.1916 1.6634c -39.6398,-0.0000 -79.2796,-0.0000 -118.9194 -0.0000c -39.6398,-0.0000 -79.2796,-0.0000 -118.9194 -0.0000c -2.4926,-0.0000 -4.9522,-0.5689 -7.1916 -1.6634c -132.0614,-64.5441 -264.1227,-129.0882 -396.1840 -193.6324c -5.7532,-2.8119 -9.1889,-8.6070 -9.1889 -14.7157ZM 18.4593,1374.0550 c 0.0000,3.1311 2.5382,5.6693 5.6693 5.6693c 3.1311,-0.0000 5.6693,-2.5382 5.6693 -5.6693c 0.0000,-3.1311 -2.5382,-5.6693 -5.6693 -5.6693c -3.1311,-0.0000 -5.6693,2.5382 -5.6693 5.6693ZM 35.2353,1362.0183 c 3.2413,2.9924 5.2713,7.2775 5.2713 12.0367c 0.0000,3.5117 -1.1052,6.7652 -2.9868 9.4318c 1.0316,0.8617 2.2010,1.6055 3.4941 2.1996c 122.1449,56.1238 244.2898,112.2476 366.4348 168.3714c 2.5996,-1.7361 5.7238,-2.7483 9.0845 -2.7483c 6.0622,-0.0000 11.3550,3.2936 14.1869 8.1890c 34.9108,-0.0000 69.8217,-0.0000 104.7326 -0.0000c 34.9108,-0.0000 69.8217,-0.0000 104.7326 -0.0000c 2.8318,-4.8954 8.1247,-8.1890 14.1869 -8.1890c 3.3606,-0.0000 6.4848,1.0122 9.0845 2.7483c 122.1449,-56.1238 244.2899,-112.2476 366.4348 -168.3714c 1.2931,-0.5941 2.4625,-1.3379 3.4941 -2.1996c -1.8816,-2.6666 -2.9868,-5.9201 -2.9868 -9.4318c 0.0000,-4.7592 2.0300,-9.0443 5.2713 -12.0367c -29.8051,-83.7454 -59.6102,-167.4908 -89.4153 -251.2362c -0.3194,-0.8974 -0.7255,-1.7507 -1.2078 -2.5527c -3.6161,-1.1686 -6.6821,-3.5605 -8.7103 -6.6879c -1.5176,-0.4631 -3.1283,-0.7106 -4.7851 -0.7106c -89.5087,-0.0000 -179.0174,-0.0000 -268.5261 -0.0000c -2.8318,4.8954 -8.1247,8.1890 -14.1869 8.1890c -6.0622,-0.0000 -11.3550,-3.2936 -14.1869 -8.1890c -17.9482,-0.0000 -35.8964,-0.0000 -53.8446 -0.0000c 0.0000,5.9843 0.0000,11.9685 0.0000 17.9528c 0.0000,4.1747 -3.3843,7.5590 -7.5591 7.5590c -9.4488,-0.0000 -18.8977,-0.0000 -28.3465 -0.0000c 0.0000,-0.3149 0.0000,-0.6299 0.0000 -0.9449c -1.2598,-0.0000 -2.5197,-0.0000 -3.7795 -0.0000c 0.0000,-1.2598 0.0000,-2.5197 0.0000 -3.7795c 1.2598,-0.0000 2.5197,-0.0000 3.7795 -0.0000c 0.0000,-1.2598 0.0000,-2.5197 0.0000 -3.7795c -1.2598,-0.0000 -2.5197,-0.0000 -3.7795 -0.0000c 0.0000,-1.2598 0.0000,-2.5197 0.0000 -3.7795c 1.2598,-0.0000 2.5197,-0.0000 3.7795 -0.0000c 0.0000,-1.2598 0.0000,-2.5197 0.0000 -3.7795c -1.2598,-0.0000 -2.5197,-0.0000 -3.7795 -0.0000c 0.0000,-1.2598 0.0000,-2.5197 0.0000 -3.7795c 1.2598,-0.0000 2.5197,-0.0000 3.7795 -0.0000c 0.0000,-1.2598 0.0000,-2.5197 0.0000 -3.7795c -1.2598,-0.0000 -2.5197,-0.0000 -3.7795 -0.0000c 0.0000,-1.2598 0.0000,-2.5197 0.0000 -3.7795c 1.2598,-0.0000 2.5197,-0.0000 3.7795 -0.0000c 0.0000,-1.2598 0.0000,-2.5197 0.0000 -3.7795c -6.2992,-0.0000 -12.5984,-0.0000 -18.8976 -0.0000c 0.0000,0.3376 0.0000,0.6752 0.0000 1.0127c 0.0000,0.9223 0.0000,1.8445 0.0000 2.7668c 1.2598,-0.0000 2.5197,-0.0000 3.7795 -0.0000c 0.0000,1.2598 0.0000,2.5197 0.0000 3.7795c -1.2598,-0.0000 -2.5197,-0.0000 -3.7795 -0.0000c 0.0000,0.3376 0.0000,0.6752 0.0000 1.0127c 0.0000,0.9223 0.0000,1.8445 0.0000 2.7668c 1.2598,-0.0000 2.5197,-0.0000 3.7795 -0.0000c 0.0000,1.2598 0.0000,2.5197 0.0000 3.7795c -1.2598,-0.0000 -2.5197,-0.0000 -3.7795 -0.0000c 0.0000,0.3376 0.0000,0.6752 0.0000 1.0127c 0.0000,0.9223 0.0000,1.8445 0.0000 2.7668c 1.2598,-0.0000 2.5197,-0.0000 3.7795 -0.0000c 0.0000,1.2598 0.0000,2.5197 0.0000 3.7795c -1.2598,-0.0000 -2.5197,-0.0000 -3.7795 -0.0000c 0.0000,0.3376 0.0000,0.6752 0.0000 1.0127c 0.0000,0.9223 0.0000,1.8445 0.0000 2.7668c 1.2598,-0.0000 2.5197,-0.0000 3.7795 -0.0000c 0.0000,1.2598 0.0000,2.5197 0.0000 3.7795c -1.2598,-0.0000 -2.5197,-0.0000 -3.7795 -0.0000c 0.0000,0.3150 0.0000,0.6299 0.0000 0.9449c -9.4488,-0.0000 -18.8977,-0.0000 -28.3465 -0.0000c -4.1748,-0.0000 -7.5591,-3.3843 -7.5591 -7.5590c 0.0000,-1.3775 0.0000,-2.7551 0.0000 -4.1326c 0.0000,-4.6067 0.0000,-9.2134 0.0000 -13.8202c -17.9482,-0.0000 -35.8964,-0.0000 -53.8446 -0.0000c -2.8318,4.8954 -8.1247,8.1890 -14.1869 8.1890c -6.0622,-0.0000 -11.3550,-3.2936 -14.1869 -8.1890c -89.5087,-0.0000 -179.0174,-0.0000 -268.5261 -0.0000c -1.6568,-0.0000 -3.2675,0.2475 -4.7851 0.7106c -2.0282,3.1274 -5.0942,5.5193 -8.7103 6.6879c -0.4823,0.8020 -0.8885,1.6552 -1.2078 2.5527c -29.8051,83.7454 -59.6102,167.4908 -89.4153 251.2362ZM 115.1480,1092.6420 c 0.0000,3.1311 2.5382,5.6693 5.6693 5.6693c 3.1311,-0.0000 5.6693,-2.5382 5.6693 -5.6693c 0.0000,-3.1310 -2.5382,-5.6693 -5.6693 -5.6693c -3.1310,-0.0000 -5.6693,2.5382 -5.6693 5.6693ZM 410.8637,1567.6874 c 0.0000,3.1310 2.5382,5.6693 5.6693 5.6693c 3.1310,-0.0000 5.6693,-2.5382 5.6693 -5.6693c 0.0000,-3.1311 -2.5382,-5.6693 -5.6693 -5.6693c -3.1311,-0.0000 -5.6693,2.5382 -5.6693 5.6693ZM 416.3973,1092.6420 c 0.0000,3.1311 2.5382,5.6693 5.6693 5.6693c 3.1310,-0.0000 5.6693,-2.5382 5.6693 -5.6693c 0.0000,-3.1310 -2.5382,-5.6693 -5.6693 -5.6693c -3.1311,-0.0000 -5.6693,2.5382 -5.6693 5.6693ZM 643.1690,1092.6420 c 0.0000,3.1311 2.5382,5.6693 5.6693 5.6693c 3.1311,-0.0000 5.6693,-2.5382 5.6693 -5.6693c 0.0000,-3.1310 -2.5382,-5.6693 -5.6693 -5.6693c -3.1310,-0.0000 -5.6693,2.5382 -5.6693 5.6693ZM 648.7026,1567.6874 c 0.0000,3.1310 2.5382,5.6693 5.6693 5.6693c 3.1311,-0.0000 5.6693,-2.5382 5.6693 -5.6693c 0.0000,-3.1311 -2.5382,-5.6693 -5.6693 -5.6693c -3.1310,-0.0000 -5.6693,2.5382 -5.6693 5.6693ZM 944.4183,1092.6420 c 0.0000,3.1311 2.5382,5.6693 5.6693 5.6693c 3.1310,-0.0000 5.6693,-2.5382 5.6693 -5.6693c 0.0000,-3.1310 -2.5382,-5.6693 -5.6693 -5.6693c -3.1311,-0.0000 -5.6693,2.5382 -5.6693 5.6693ZM 1041.1070,1374.0550 c 0.0000,3.1311 2.5382,5.6693 5.6693 5.6693c 3.1311,-0.0000 5.6693,-2.5382 5.6693 -5.6693c 0.0000,-3.1311 -2.5382,-5.6693 -5.6693 -5.6693c -3.1311,-0.0000 -5.6693,2.5382 -5.6693 5.6693Z"/></g><g stroke-linejoin="miter" stroke-opacity="1.0" fill-opacity="0.5" stroke="rgb(0,0,0)" stroke-width="0.37795275590551186" fill="rgb(0,0,0)" stroke-linecap="butt" stroke-miterlimit="10.0"><path d="M 3.9685,843.5754 c 0.0000,-1.7269 0.2746,-3.4789 0.8490 -5.1956c 32.2296,-96.3240 64.4591,-192.6480 96.6887 -288.9721c 2.2347,-6.6788 8.4889,-11.1811 15.5316 -11.1811c 139.4715,-0.0000 278.9431,-0.0000 418.4147 -0.0000c 139.4715,-0.0000 278.9431,-0.0000 418.4147 -0.0000c 7.0427,-0.0000 13.2969,4.5024 15.5316 11.1811c 32.2296,96.3241 64.4592,192.6481 96.6887 288.9721c 0.5744,1.7167 0.8490,3.4687 0.8490 5.1956c 0.0000,6.1087 -3.4357,11.9039 -9.1889 14.7157c -132.0613,64.5441 -264.1226,129.0882 -396.1840 193.6324c -2.2394,1.0945 -4.6990,1.6634 -7.1916 1.6634c -39.6398,-0.0000 -79.2796,-0.0000 -118.9194 -0.0000c -39.6398,-0.0000 -79.2796,-0.0000 -118.9194 -0.0000c -2.4926,-0.0000 -4.9522,-0.5689 -7.1916 -1.6634c -132.0614,-64.5441 -264.1227,-129.0882 -396.1840 -193.6324c -5.7532,-2.8119 -9.1889,-8.6070 -9.1889 -14.7157ZM 18.4593,839.7970 c 0.0000,3.1311 2.5382,5.6693 5.6693 5.6693c 3.1311,-0.0000 5.6693,-2.5382 5.6693 -5.6693c 0.0000,-3.1311 -2.5382,-5.6693 -5.6693 -5.6693c -3.1311,-0.0000 -5.6693,2.5382 -5.6693 5.6693ZM 55.8733,828.9708 c 0.9711,0.3249 1.9422,0.6499 2.9133 0.9748c -0.3920,1.1714 -0.7839,2.3427 -1.1758 3.5141c 16.6905,5.5846 33.3810,11.1691 50.0715 16.7537c 0.3919,-1.1714 0.7839,-2.3428 1.1758 -3.5141c 0.9711,0.3249 1.9422,0.6498 2.9133 0.9747c 1.3992,-4.1817 2.7984,-8.3634 4.1975 -12.5451c -0.9711,-0.3249 -1.9422,-0.6498 -2.9133 -0.9747c 2.0023,-5.9843 4.0046,-11.9687 6.0070 -17.9530c 0.9711,0.3249 1.9422,0.6498 2.9133 0.9748c 1.3992,-4.1817 2.7984,-8.3634 4.1975 -12.5451c -0.9711,-0.3249 -1.9422,-0.6498 -2.9133 -0.9747c 0.3919,-1.1714 0.7839,-2.3428 1.1758 -3.5141c -16.6905,-5.5846 -33.3810,-11.1692 -50.0715 -16.7537c -0.3919,1.1714 -0.7839,2.3427 -1.1758 3.5141c -0.9711,-0.3249 -1.9422,-0.6498 -2.9133 -0.9748c -1.3992,4.1817 -2.7984,8.3634 -4.1975 12.5451c 0.9711,0.3249 1.9422,0.6498 2.9133 0.9748c -2.0023,5.9843 -4.0046,11.9686 -6.0070 17.9530c -0.9711,-0.3249 -1.9422,-0.6498 -2.9133 -0.9747c -1.3992,4.1817 -2.7984,8.3634 -4.1975 12.5451ZM 78.6592,760.8707 c 0.9711,0.3249 1.9422,0.6498 2.9133 0.9748c -0.3919,1.1714 -0.7839,2.3427 -1.1758 3.5141c 16.6905,5.5846 33.3810,11.1691 50.0715 16.7537c 0.3919,-1.1714 0.7839,-2.3428 1.1758 -3.5142c 0.9711,0.3249 1.9422,0.6498 2.9133 0.9748c 1.3992,-4.1817 2.7984,-8.3634 4.1975 -12.5451c -0.9711,-0.3249 -1.9422,-0.6498 -2.9133 -0.9747c 2.0023,-5.9843 4.0046,-11.9687 6.0070 -17.9530c 0.9711,0.3249 1.9422,0.6498 2.9133 0.9748c 1.3992,-4.1817 2.7984,-8.3634 4.1975 -12.5451c -0.9711,-0.3249 -1.9422,-0.6498 -2.9133 -0.9748c 0.3919,-1.1714 0.7839,-2.3427 1.1758 -3.5141c -16.6905,-5.5845 -33.3810,-11.1691 -50.0715 -16.7537c -0.3919,1.1714 -0.7839,2.3427 -1.1758 3.5141c -0.9711,-0.3249 -1.9422,-0.6498 -2.9133 -0.9748c -1.3992,4.1817 -2.7984,8.3634 -4.1975 12.5451c 0.9711,0.3249 1.9422,0.6498 2.9133 0.9748c -2.0024,5.9843 -4.0047,11.9686 -6.0070 17.9530c -0.9711,-0.3249 -1.9422,-0.6498 -2.9133 -0.9747c -1.3992,4.1817 -2.7984,8.3634 -4.1975 12.5451ZM 101.4452,692.7706 c 0.9711,0.3249 1.9422,0.6498 2.9133 0.9748c -0.3919,1.1714 -0.7839,2.3427 -1.1758 3.5141c 16.6905,5.5845 33.3810,11.1691 50.0715 16.7537c 0.3919,-1.1714 0.7839,-2.3427 1.1758 -3.5141c 0.9711,0.3249 1.9422,0.6498 2.9133 0.9748c 1.3992,-4.1817 2.7984,-8.3634 4.1975 -12.5451c -0.9711,-0.3249 -1.9422,-0.6498 -2.9133 -0.9748c 2.0023,-5.9843 4.0046,-11.9686 6.0070 -17.9530c 0.9711,0.3249 1.9422,0.6498 2.9133 0.9747c 1.3992,-4.1817 2.7984,-8.3634 4.1975 -12.5451c -0.9711,-0.3249 -1.9422,-0.6498 -2.9132 -0.9748c 0.3919,-1.1714 0.7839,-2.3427 1.1758 -3.5141c -16.6905,-5.5846 -33.3810,-11.1691 -50.0715 -16.7537c -0.3919,1.1714 -0.7839,2.3428 -1.1758 3.5141c -0.9711,-0.3249 -1.9422,-0.6498 -2.9133 -0.9747c -1.3992,4.1817 -2.7984,8.3634 -4.1975 12.5451c 0.9711,0.3249 1.9422,0.6498 2.9133 0.9747c -2.0023,5.9843 -4.0046,11.9687 -6.0070 17.9530c -0.9711,-0.3249 -1.9422,-0.6498 -2.9133 -0.9748c -1.3992,4.1817 -2.7984,8.3634 -4.1975 12.5451ZM 115.1480,558.3840 c 0.0000,3.1311 2.5382,5.6693 5.6693 5.6693c 3.1311,-0.0000 5.6693,-2.5382 5.6693 -5.6693c 0.0000,-3.1310 -2.5382,-5.6693 -5.6693 -5.6693c -3.1310,-0.0000 -5.6693,2.5382 -5.6693 5.6693ZM 124.2312,624.6705 c 0.9711,0.3249 1.9422,0.6498 2.9133 0.9747c -0.3919,1.1714 -0.7839,2.3428 -1.1758 3.5141c 16.6905,5.5846 33.3810,11.1692 50.0715 16.7537c 0.3920,-1.1714 0.7839,-2.3427 1.1758 -3.5141c 0.9711,0.3249 1.9422,0.6498 2.9133 0.9748c 1.3992,-4.1817 2.7984,-8.3634 4.1975 -12.5451c -0.9711,-0.3249 -1.9422,-0.6498 -2.9133 -0.9748c 2.0023,-5.9843 4.0046,-11.9686 6.0070 -17.9530c 0.9711,0.3249 1.9422,0.6498 2.9133 0.9747c 1.3992,-4.1817 2.7984,-8.3634 4.1975 -12.5451c -0.9711,-0.3249 -1.9422,-0.6498 -2.9133 -0.9747c 0.3920,-1.1714 0.7839,-2.3428 1.1758 -3.5141c -16.6905,-5.5846 -33.3810,-11.1691 -50.0715 -16.7537c -0.3919,1.1714 -0.7839,2.3428 -1.1758 3.5141c -0.9711,-0.3249 -1.9422,-0.6498 -2.9133 -0.9747c -1.3992,4.1817 -2.7984,8.3634 -4.1975 12.5451c 0.9711,0.3249 1.9422,0.6499 2.9133 0.9748c -2.0023,5.9843 -4.0046,11.9687 -6.0070 17.9530c -0.9711,-0.3249 -1.9422,-0.6498 -2.9133 -0.9748c -1.3992,4.1817 -2.7984,8.3634 -4.1975 12.5451ZM 127.5712,841.0041 c 0.9711,0.3249 1.9422,0.6498 2.9133 0.9747c -0.3919,1.1714 -0.7839,2.3428 -1.1758 3.5142c 16.6905,5.5845 33.3810,11.1691 50.0715 16.7537c 0.3919,-1.1714 0.7839,-2.3427 1.1758 -3.5141c 0.9711,0.3249 1.9422,0.6498 2.9133 0.9747c 1.3992,-4.1817 2.7984,-8.3634 4.1975 -12.5451c -0.9711,-0.3249 -1.9422,-0.6498 -2.9133 -0.9748c 2.0023,-5.9843 4.0046,-11.9686 6.0070 -17.9530c 0.9711,0.3249 1.9422,0.6498 2.9133 0.9747c 1.3991,-4.1817 2.7983,-8.3634 4.1975 -12.5451c -0.9711,-0.3249 -1.9422,-0.6498 -2.9133 -0.9747c 0.3920,-1.1714 0.7839,-2.3427 1.1758 -3.5141c -16.6905,-5.5846 -33.3810,-11.1691 -50.0715 -16.7537c -0.3919,1.1714 -0.7839,2.3428 -1.1758 3.5141c -0.9711,-0.3249 -1.9422,-0.6498 -2.9133 -0.9747c -1.3992,4.1817 -2.7984,8.3634 -4.1975 12.5451c 0.9711,0.3249 1.9422,0.6498 2.9133 0.9747c -2.0023,5.9843 -4.0046,11.9687 -6.0070 17.9530c -0.9711,-0.3249 -1.9422,-0.6498 -2.9133 -0.9748c -1.3992,4.1817 -2.7984,8.3634 -4.1975 12.5451ZM 150.3571,772.9040 c 0.9711,0.3249 1.9422,0.6498 2.9133 0.9747c -0.3920,1.1714 -0.7839,2.3428 -1.1758 3.5141c 16.6905,5.5846 33.3810,11.1691 50.0715 16.7537c 0.3919,-1.1714 0.7839,-2.3427 1.1758 -3.5141c 0.9711,0.3249 1.9422,0.6498 2.9133 0.9747c 1.3992,-4.1817 2.7984,-8.3634 4.1975 -12.5451c -0.9711,-0.3249 -1.9422,-0.6499 -2.9133 -0.9748c 2.0023,-5.9843 4.0046,-11.9687 6.0070 -17.9530c 0.9711,0.3249 1.9422,0.6499 2.9133 0.9748c 1.3992,-4.1817 2.7984,-8.3634 4.1975 -12.5451c -0.9711,-0.3249 -1.9422,-0.6498 -2.9133 -0.9747c 0.3919,-1.1714 0.7839,-2.3428 1.1758 -3.5141c -16.6905,-5.5846 -33.3810,-11.1691 -50.0715 -16.7537c -0.3920,1.1714 -0.7839,2.3427 -1.1758 3.5141c -0.9711,-0.3249 -1.9422,-0.6498 -2.9133 -0.9747c -1.3992,4.1817 -2.7984,8.3634 -4.1975 12.5451c 0.9711,0.3249 1.9422,0.6498 2.9133 0.9748c -2.0023,5.9843 -4.0046,11.9686 -6.0070 17.9530c -0.9711,-0.3249 -1.9422,-0.6498 -2.9133 -0.9747c -1.3992,4.1817 -2.7984,8.3634 -4.1975 12.5451ZM 173.1431,704.8039 c 0.9711,0.3249 1.9422,0.6498 2.9133 0.9748c -0.3919,1.1714 -0.7839,2.3427 -1.1758 3.5141c 16.6905,5.5846 33.3810,11.1691 50.0715 16.7537c 0.3919,-1.1714 0.7839,-2.3428 1.1758 -3.5141c 0.9711,0.3249 1.9422,0.6498 2.9133 0.9747c 1.3992,-4.1817 2.7984,-8.3634 4.1975 -12.5451c -0.9711,-0.3249 -1.9422,-0.6498 -2.9133 -0.9747c 2.0023,-5.9843 4.0046,-11.9687 6.0070 -17.9530c 0.9711,0.3249 1.9422,0.6498 2.9133 0.9748c 1.3992,-4.1817 2.7984,-8.3634 4.1975 -12.5451c -0.9711,-0.3249 -1.9422,-0.6498 -2.9133 -0.9748c 0.3919,-1.1714 0.7839,-2.3427 1.1758 -3.5141c -16.6905,-5.5845 -33.3810,-11.1691 -50.0715 -16.7537c -0.3919,1.1714 -0.7839,2.3427 -1.1758 3.5141c -0.9711,-0.3249 -1.9422,-0.6498 -2.9133 -0.9748c -1.3992,4.1817 -2.7984,8.3634 -4.1975 12.5451c 0.9711,0.3249 1.9422,0.6498 2.9133 0.9748c -2.0023,5.9843 -4.0047,11.9686 -6.0070 17.9530c -0.9711,-0.3249 -1.9422,-0.6498 -2.9133 -0.9747c -1.3992,4.1817 -2.7984,8.3634 -4.1975 12.5451ZM 195.9291,636.7038 c 0.9711,0.3249 1.9422,0.6498 2.9133 0.9748c -0.3919,1.1714 -0.7839,2.3427 -1.1758 3.5141c 16.6905,5.5845 33.3810,11.1691 50.0715 16.7537c 0.3919,-1.1714 0.7839,-2.3427 1.1758 -3.5141c 0.9711,0.3249 1.9422,0.6498 2.9133 0.9748c 1.3992,-4.1817 2.7984,-8.3634 4.1975 -12.5451c -0.9711,-0.3249 -1.9422,-0.6498 -2.9133 -0.9747c 2.0023,-5.9843 4.0047,-11.9687 6.0070 -17.9530c 0.9711,0.3249 1.9422,0.6498 2.9133 0.9747c 1.3992,-4.1817 2.7984,-8.3634 4.1975 -12.5451c -0.9711,-0.3249 -1.9422,-0.6498 -2.9133 -0.9748c 0.3919,-1.1714 0.7839,-2.3427 1.1758 -3.5141c -16.6905,-5.5845 -33.3810,-11.1691 -50.0715 -16.7537c -0.3919,1.1714 -0.7839,2.3428 -1.1758 3.5142c -0.9711,-0.3249 -1.9422,-0.6498 -2.9133 -0.9748c -1.3992,4.1817 -2.7984,8.3634 -4.1975 12.5451c 0.9711,0.3249 1.9422,0.6498 2.9133 0.9747c -2.0023,5.9843 -4.0046,11.9687 -6.0070 17.9530c -0.9711,-0.3249 -1.9422,-0.6498 -2.9133 -0.9748c -1.3992,4.1817 -2.7984,8.3634 -4.1975 12.5451ZM 201.6675,845.8690 c 0.9711,0.3249 1.9422,0.6499 2.9133 0.9748c -0.3919,1.1714 -0.7839,2.3427 -1.1758 3.5141c 16.6905,5.5846 33.3810,11.1691 50.0715 16.7537c 0.3919,-1.1714 0.7839,-2.3428 1.1758 -3.5141c 0.9711,0.3249 1.9422,0.6498 2.9133 0.9747c 1.3992,-4.1817 2.7984,-8.3634 4.1975 -12.5451c -0.9711,-0.3249 -1.9422,-0.6498 -2.9133 -0.9747c 2.0023,-5.9843 4.0046,-11.9687 6.0070 -17.9530c 0.9711,0.3249 1.9422,0.6499 2.9133 0.9748c 1.3992,-4.1817 2.7984,-8.3634 4.1975 -12.5451c -0.9711,-0.3249 -1.9422,-0.6498 -2.9133 -0.9747c 0.3919,-1.1714 0.7839,-2.3428 1.1758 -3.5141c -16.6905,-5.5846 -33.3810,-11.1691 -50.0715 -16.7537c -0.3919,1.1714 -0.7839,2.3427 -1.1758 3.5141c -0.9711,-0.3249 -1.9422,-0.6498 -2.9133 -0.9748c -1.3992,4.1817 -2.7984,8.3634 -4.1975 12.5451c 0.9711,0.3249 1.9422,0.6498 2.9133 0.9748c -2.0023,5.9843 -4.0047,11.9686 -6.0070 17.9530c -0.9711,-0.3249 -1.9422,-0.6498 -2.9133 -0.9747c -1.3992,4.1817 -2.7984,8.3634 -4.1975 12.5451ZM 224.4535,777.7689 c 0.9711,0.3249 1.9422,0.6498 2.9133 0.9748c -0.3919,1.1714 -0.7839,2.3427 -1.1758 3.5141c 16.6905,5.5846 33.3810,11.1691 50.0715 16.7537c 0.3919,-1.1714 0.7839,-2.3428 1.1758 -3.5141c 0.9711,0.3249 1.9422,0.6498 2.9133 0.9747c 1.3992,-4.1817 2.7984,-8.3634 4.1975 -12.5451c -0.9711,-0.3249 -1.9422,-0.6498 -2.9133 -0.9747c 2.0023,-5.9843 4.0047,-11.9687 6.0070 -17.9530c 0.9711,0.3249 1.9422,0.6498 2.9133 0.9748c 1.3992,-4.1817 2.7984,-8.3634 4.1975 -12.5451c -0.9711,-0.3249 -1.9422,-0.6498 -2.9133 -0.9748c 0.3919,-1.1714 0.7839,-2.3427 1.1758 -3.5141c -16.6905,-5.5845 -33.3810,-11.1691 -50.0715 -16.7537c -0.3919,1.1714 -0.7839,2.3427 -1.1758 3.5141c -0.9711,-0.3249 -1.9422,-0.6498 -2.9133 -0.9748c -1.3992,4.1817 -2.7984,8.3634 -4.1975 12.5451c 0.9711,0.3249 1.9422,0.6498 2.9133 0.9748c -2.0023,5.9843 -4.0046,11.9686 -6.0070 17.9530c -0.9711,-0.3249 -1.9422,-0.6498 -2.9133 -0.9747c -1.3992,4.1817 -2.7984,8.3634 -4.1975 12.5451ZM 247.2395,709.6688 c 0.9711,0.3249 1.9422,0.6498 2.9133 0.9748c -0.3919,1.1714 -0.7839,2.3427 -1.1758 3.5141c 16.6905,5.5845 33.3810,11.1691 50.0715 16.7537c 0.3920,-1.1714 0.7839,-2.3427 1.1758 -3.5141c 0.9711,0.3249 1.9422,0.6498 2.9133 0.9748c 1.3992,-4.1817 2.7984,-8.3634 4.1975 -12.5451c -0.9711,-0.3249 -1.9422,-0.6498 -2.9133 -0.9748c 2.0023,-5.9843 4.0046,-11.9686 6.0070 -17.9530c 0.9711,0.3249 1.9422,0.6498 2.9133 0.9747c 1.3992,-4.1817 2.7984,-8.3634 4.1975 -12.5451c -0.9711,-0.3249 -1.9422,-0.6498 -2.9133 -0.9748c 0.3920,-1.1714 0.7839,-2.3427 1.1758 -3.5141c -16.6905,-5.5845 -33.3810,-11.1691 -50.0715 -16.7537c -0.3919,1.1714 -0.7839,2.3428 -1.1758 3.5142c -0.9711,-0.3249 -1.9422,-0.6498 -2.9133 -0.9748c -1.3992,4.1817 -2.7984,8.3634 -4.1975 12.5451c 0.9711,0.3249 1.9422,0.6498 2.9133 0.9747c -2.0023,5.9843 -4.0046,11.9687 -6.0070 17.9530c -0.9711,-0.3249 -1.9422,-0.6498 -2.9133 -0.9748c -1.3992,4.1817 -2.7984,8.3634 -4.1975 12.5451ZM 262.5721,890.1603 c 0.9711,0.3249 1.9422,0.6498 2.9133 0.9748c -0.3919,1.1714 -0.7839,2.3427 -1.1758 3.5141c 16.6905,5.5845 33.3810,11.1691 50.0715 16.7537c 0.3919,-1.1714 0.7839,-2.3427 1.1758 -3.5141c 0.9711,0.3249 1.9422,0.6498 2.9133 0.9748c 1.3992,-4.1817 2.7984,-8.3634 4.1975 -12.5451c -0.9711,-0.3249 -1.9422,-0.6498 -2.9133 -0.9748c 2.0023,-5.9843 4.0046,-11.9686 6.0070 -17.9530c 0.9711,0.3249 1.9422,0.6498 2.9133 0.9747c 1.3992,-4.1817 2.7984,-8.3634 4.1975 -12.5451c -0.9711,-0.3249 -1.9422,-0.6498 -2.9133 -0.9748c 0.3919,-1.1714 0.7839,-2.3427 1.1758 -3.5141c -16.6905,-5.5846 -33.3810,-11.1691 -50.0715 -16.7537c -0.3919,1.1714 -0.7839,2.3428 -1.1758 3.5142c -0.9711,-0.3249 -1.9422,-0.6498 -2.9133 -0.9748c -1.3992,4.1817 -2.7984,8.3634 -4.1975 12.5451c 0.9711,0.3249 1.9422,0.6498 2.9133 0.9747c -2.0023,5.9843 -4.0047,11.9687 -6.0070 17.9530c -0.9711,-0.3249 -1.9422,-0.6498 -2.9133 -0.9748c -1.3992,4.1817 -2.7984,8.3634 -4.1975 12.5451ZM 270.0255,641.5687 c 0.9711,0.3249 1.9422,0.6498 2.9133 0.9747c -0.3920,1.1714 -0.7839,2.3428 -1.1758 3.5141c 16.6905,5.5846 33.3810,11.1692 50.0715 16.7537c 0.3919,-1.1714 0.7839,-2.3427 1.1758 -3.5141c 0.9711,0.3249 1.9422,0.6498 2.9133 0.9748c 1.3992,-4.1817 2.7984,-8.3634 4.1975 -12.5451c -0.9711,-0.3249 -1.9422,-0.6498 -2.9133 -0.9748c 2.0023,-5.9843 4.0046,-11.9686 6.0070 -17.9530c 0.9711,0.3249 1.9422,0.6498 2.9133 0.9747c 1.3992,-4.1817 2.7984,-8.3634 4.1975 -12.5451c -0.9711,-0.3249 -1.9422,-0.6498 -2.9133 -0.9747c 0.3919,-1.1714 0.7839,-2.3428 1.1758 -3.5141c -16.6905,-5.5846 -33.3810,-11.1691 -50.0715 -16.7537c -0.3919,1.1714 -0.7839,2.3428 -1.1758 3.5141c -0.9711,-0.3249 -1.9422,-0.6498 -2.9133 -0.9747c -1.3992,4.1817 -2.7984,8.3634 -4.1975 12.5451c 0.9711,0.3249 1.9422,0.6498 2.9133 0.9747c -2.0023,5.9843 -4.0046,11.9687 -6.0070 17.9530c -0.9711,-0.3249 -1.9422,-0.6498 -2.9133 -0.9748c -1.3992,4.1817 -2.7984,8.3634 -4.1975 12.5451ZM 285.3581,822.0602 c 0.9711,0.3249 1.9422,0.6498 2.9133 0.9747c -0.3919,1.1714 -0.7839,2.3428 -1.1758 3.5141c 16.6905,5.5846 33.3810,11.1692 50.0715 16.7537c 0.3919,-1.1714 0.7839,-2.3427 1.1758 -3.5141c 0.9711,0.3249 1.9422,0.6498 2.9133 0.9748c 1.3992,-4.1817 2.7984,-8.3634 4.1975 -12.5451c -0.9711,-0.3249 -1.9422,-0.6498 -2.9133 -0.9748c 2.0023,-5.9843 4.0047,-11.9686 6.0070 -17.9530c 0.9711,0.3249 1.9422,0.6498 2.9133 0.9747c 1.3992,-4.1817 2.7984,-8.3634 4.1975 -12.5451c -0.9711,-0.3249 -1.9422,-0.6499 -2.9133 -0.9748c 0.3919,-1.1714 0.7839,-2.3427 1.1758 -3.5141c -16.6905,-5.5846 -33.3810,-11.1691 -50.0715 -16.7537c -0.3919,1.1714 -0.7839,2.3428 -1.1758 3.5141c -0.9711,-0.3249 -1.9422,-0.6498 -2.9133 -0.9747c -1.3992,4.1817 -2.7984,8.3634 -4.1975 12.5451c 0.9711,0.3249 1.9422,0.6498 2.9133 0.9747c -2.0023,5.9843 -4.0046,11.9687 -6.0070 17.9530c -0.9711,-0.3249 -1.9422,-0.6498 -2.9133 -0.9748c -1.3992,4.1817 -2.7984,8.3634 -4.1975 12.5451ZM 308.1440,753.9601 c 0.9711,0.3249 1.9422,0.6498 2.9133 0.9747c -0.3919,1.1714 -0.7839,2.3428 -1.1758 3.5141c 16.6905,5.5846 33.3810,11.1691 50.0715 16.7537c 0.3920,-1.1714 0.7839,-2.3428 1.1758 -3.5141c 0.9711,0.3249 1.9422,0.6498 2.9133 0.9747c 1.3992,-4.1817 2.7984,-8.3634 4.1975 -12.5451c -0.9711,-0.3249 -1.9422,-0.6499 -2.9133 -0.9748c 2.0023,-5.9843 4.0046,-11.9687 6.0070 -17.9530c 0.9711,0.3249 1.9422,0.6498 2.9133 0.9747c 1.3992,-4.1817 2.7984,-8.3634 4.1975 -12.5451c -0.9711,-0.3249 -1.9422,-0.6498 -2.9133 -0.9747c 0.3920,-1.1714 0.7839,-2.3428 1.1758 -3.5141c -16.6905,-5.5846 -33.3810,-11.1692 -50.0715 -16.7537c -0.3919,1.1714 -0.7839,2.3427 -1.1758 3.5141c -0.9711,-0.3249 -1.9422,-0.6498 -2.9133 -0.9747c -1.3992,4.1817 -2.7984,8.3634 -4.1975 12.5451c 0.9711,0.3249 1.9422,0.6498 2.9133 0.9748c -2.0023,5.9843 -4.0046,11.9687 -6.0070 17.9530c -0.9711,-0.3249 -1.9422,-0.6498 -2.9133 -0.9747c -1.3992,4.1817 -2.7984,8.3634 -4.1975 12.5451ZM 324.6759,930.8673 c 0.9711,0.3249 1.9422,0.6498 2.9133 0.9747c -0.3919,1.1714 -0.7839,2.3428 -1.1758 3.5141c 16.6905,5.5846 33.3810,11.1692 50.0715 16.7537c 0.3919,-1.1714 0.7839,-2.3427 1.1758 -3.5141c 0.9711,0.3249 1.9422,0.6498 2.9133 0.9747c 1.3992,-4.1817 2.7984,-8.3634 4.1975 -12.5451c -0.9711,-0.3249 -1.9422,-0.6498 -2.9133 -0.9748c 2.0023,-5.9843 4.0046,-11.9686 6.0070 -17.9530c 0.9711,0.3249 1.9422,0.6498 2.9133 0.9747c 1.3992,-4.1817 2.7984,-8.3634 4.1975 -12.5451c -0.9711,-0.3249 -1.9422,-0.6498 -2.9133 -0.9747c 0.3919,-1.1714 0.7839,-2.3427 1.1758 -3.5141c -16.6905,-5.5846 -33.3810,-11.1691 -50.0715 -16.7537c -0.3919,1.1714 -0.7839,2.3428 -1.1758 3.5141c -0.9711,-0.3249 -1.9422,-0.6498 -2.9133 -0.9747c -1.3992,4.1817 -2.7984,8.3634 -4.1975 12.5451c 0.9711,0.3249 1.9422,0.6498 2.9133 0.9747c -2.0023,5.9843 -4.0047,11.9687 -6.0070 17.9530c -0.9711,-0.3249 -1.9422,-0.6498 -2.9133 -0.9748c -1.3992,4.1817 -2.7984,8.3634 -4.1975 12.5451ZM 330.9300,685.8600 c 0.9711,0.3249 1.9422,0.6498 2.9133 0.9748c -0.3920,1.1714 -0.7839,2.3427 -1.1758 3.5141c 16.6905,5.5846 33.3810,11.1691 50.0715 16.7537c 0.3919,-1.1714 0.7839,-2.3428 1.1758 -3.5142c 0.9711,0.3249 1.9422,0.6499 2.9133 0.9748c 1.3992,-4.1817 2.7984,-8.3634 4.1975 -12.5451c -0.9711,-0.3249 -1.9422,-0.6498 -2.9133 -0.9747c 2.0023,-5.9843 4.0046,-11.9687 6.0070 -17.9530c 0.9711,0.3249 1.9422,0.6498 2.9133 0.9748c 1.3992,-4.1817 2.7984,-8.3634 4.1975 -12.5451c -0.9711,-0.3249 -1.9422,-0.6498 -2.9133 -0.9748c 0.3919,-1.1714 0.7839,-2.3427 1.1758 -3.5141c -16.6905,-5.5845 -33.3810,-11.1691 -50.0715 -16.7537c -0.3919,1.1714 -0.7839,2.3427 -1.1758 3.5141c -0.9711,-0.3249 -1.9422,-0.6498 -2.9133 -0.9748c -1.3992,4.1817 -2.7984,8.3634 -4.1975 12.5451c 0.9711,0.3249 1.9422,0.6498 2.9133 0.9748c -2.0023,5.9843 -4.0046,11.9686 -6.0070 17.9530c -0.9711,-0.3249 -1.9422,-0.6498 -2.9133 -0.9747c -1.3991,4.1817 -2.7983,8.3634 -4.1975 12.5451ZM 347.4618,862.7673 c 0.9711,0.3249 1.9422,0.6498 2.9133 0.9747c -0.3919,1.1714 -0.7839,2.3427 -1.1758 3.5141c 16.6905,5.5846 33.3810,11.1691 50.0715 16.7537c 0.3919,-1.1714 0.7839,-2.3428 1.1758 -3.5141c 0.9711,0.3249 1.9422,0.6498 2.9133 0.9747c 1.3992,-4.1817 2.7984,-8.3634 4.1975 -12.5451c -0.9711,-0.3249 -1.9422,-0.6498 -2.9133 -0.9747c 2.0024,-5.9843 4.0047,-11.9687 6.0070 -17.9530c 0.9711,0.3249 1.9422,0.6499 2.9133 0.9748c 1.3992,-4.1817 2.7984,-8.3634 4.1975 -12.5451c -0.9711,-0.3249 -1.9422,-0.6498 -2.9133 -0.9747c 0.3919,-1.1714 0.7839,-2.3428 1.1758 -3.5141c -16.6905,-5.5846 -33.3810,-11.1691 -50.0715 -16.7537c -0.3919,1.1714 -0.7839,2.3427 -1.1758 3.5141c -0.9711,-0.3249 -1.9422,-0.6498 -2.9133 -0.9747c -1.3992,4.1817 -2.7983,8.3634 -4.1975 12.5451c 0.9711,0.3249 1.9422,0.6498 2.9132 0.9748c -2.0023,5.9843 -4.0046,11.9686 -6.0070 17.9530c -0.9711,-0.3249 -1.9422,-0.6498 -2.9133 -0.9747c -1.3992,4.1817 -2.7984,8.3634 -4.1975 12.5451ZM 370.2478,794.6671 c 0.9711,0.3249 1.9422,0.6498 2.9133 0.9748c -0.3919,1.1714 -0.7839,2.3427 -1.1758 3.5141c 16.6905,5.5846 33.3810,11.1691 50.0715 16.7537c 0.3920,-1.1714 0.7839,-2.3428 1.1758 -3.5142c 0.9711,0.3249 1.9422,0.6499 2.9133 0.9748c 1.3992,-4.1817 2.7984,-8.3634 4.1975 -12.5451c -0.9711,-0.3249 -1.9422,-0.6498 -2.9133 -0.9747c 2.0023,-5.9843 4.0046,-11.9687 6.0070 -17.9530c 0.9711,0.3249 1.9422,0.6498 2.9133 0.9748c 1.3992,-4.1817 2.7984,-8.3634 4.1975 -12.5451c -0.9711,-0.3249 -1.9422,-0.6498 -2.9133 -0.9748c 0.3920,-1.1714 0.7839,-2.3427 1.1758 -3.5141c -16.6905,-5.5845 -33.3810,-11.1691 -50.0715 -16.7537c -0.3919,1.1714 -0.7839,2.3427 -1.1758 3.5141c -0.9711,-0.3249 -1.9422,-0.6498 -2.9133 -0.9748c -1.3992,4.1817 -2.7984,8.3634 -4.1975 12.5451c 0.9711,0.3249 1.9422,0.6498 2.9133 0.9748c -2.0023,5.9843 -4.0046,11.9686 -6.0070 17.9530c -0.9711,-0.3249 -1.9422,-0.6498 -2.9133 -0.9747c -1.3992,4.1817 -2.7984,8.3634 -4.1975 12.5451ZM 381.3830,987.7034 c 0.9711,0.3249 1.9422,0.6498 2.9133 0.9747c -0.3919,1.1714 -0.7839,2.3428 -1.1758 3.5141c 16.6905,5.5846 33.3810,11.1691 50.0715 16.7537c 0.3919,-1.1714 0.7839,-2.3428 1.1758 -3.5141c 0.9711,0.3249 1.9422,0.6498 2.9133 0.9747c 1.3991,-4.1817 2.7984,-8.3634 4.1975 -12.5451c -0.9711,-0.3249 -1.9422,-0.6498 -2.9133 -0.9748c 2.0023,-5.9843 4.0046,-11.9687 6.0070 -17.9530c 0.9711,0.3249 1.9422,0.6498 2.9133 0.9747c 1.3992,-4.1817 2.7984,-8.3634 4.1975 -12.5451c -0.9711,-0.3249 -1.9422,-0.6498 -2.9133 -0.9747c 0.3919,-1.1714 0.7839,-2.3428 1.1758 -3.5141c -16.6905,-5.5846 -33.3810,-11.1691 -50.0715 -16.7537c -0.3919,1.1714 -0.7839,2.3427 -1.1758 3.5141c -0.9711,-0.3249 -1.9422,-0.6498 -2.9133 -0.9747c -1.3992,4.1817 -2.7984,8.3634 -4.1975 12.5451c 0.9711,0.3249 1.9422,0.6498 2.9133 0.9748c -2.0023,5.9843 -4.0047,11.9687 -6.0070 17.9530c -0.9711,-0.3249 -1.9422,-0.6498 -2.9133 -0.9747c -1.3992,4.1817 -2.7984,8.3634 -4.1975 12.5451ZM 393.0338,726.5670 c 0.9711,0.3249 1.9422,0.6498 2.9133 0.9748c -0.3920,1.1714 -0.7839,2.3427 -1.1758 3.5141c 16.6905,5.5845 33.3810,11.1691 50.0715 16.7537c 0.3919,-1.1714 0.7839,-2.3427 1.1758 -3.5141c 0.9711,0.3249 1.9422,0.6498 2.9133 0.9748c 1.3992,-4.1817 2.7984,-8.3634 4.1975 -12.5451c -0.9711,-0.3249 -1.9422,-0.6498 -2.9133 -0.9747c 2.0023,-5.9843 4.0046,-11.9687 6.0070 -17.9530c 0.9711,0.3249 1.9422,0.6498 2.9133 0.9747c 1.3992,-4.1817 2.7984,-8.3634 4.1975 -12.5451c -0.9711,-0.3249 -1.9422,-0.6498 -2.9133 -0.9748c 0.3919,-1.1714 0.7839,-2.3427 1.1758 -3.5141c -16.6905,-5.5845 -33.3810,-11.1691 -50.0715 -16.7537c -0.3920,1.1714 -0.7839,2.3428 -1.1758 3.5142c -0.9711,-0.3249 -1.9422,-0.6498 -2.9133 -0.9748c -1.3992,4.1817 -2.7984,8.3634 -4.1975 12.5451c 0.9711,0.3249 1.9422,0.6498 2.9133 0.9747c -2.0023,5.9843 -4.0046,11.9687 -6.0070 17.9530c -0.9711,-0.3249 -1.9422,-0.6498 -2.9133 -0.9748c -1.3992,4.1817 -2.7984,8.3634 -4.1975 12.5451ZM 404.1689,919.6032 c 0.9711,0.3249 1.9422,0.6498 2.9133 0.9748c -0.3919,1.1714 -0.7839,2.3427 -1.1758 3.5141c 16.6905,5.5846 33.3810,11.1691 50.0715 16.7537c 0.3919,-1.1714 0.7839,-2.3428 1.1758 -3.5141c 0.9711,0.3249 1.9422,0.6498 2.9133 0.9747c 1.3992,-4.1817 2.7984,-8.3634 4.1975 -12.5451c -0.9711,-0.3249 -1.9422,-0.6498 -2.9133 -0.9747c 2.0023,-5.9843 4.0046,-11.9687 6.0070 -17.9530c 0.9711,0.3249 1.9422,0.6498 2.9133 0.9748c 1.3991,-4.1817 2.7984,-8.3634 4.1975 -12.5451c -0.9711,-0.3249 -1.9422,-0.6498 -2.9133 -0.9747c 0.3919,-1.1714 0.7839,-2.3428 1.1758 -3.5142c -16.6905,-5.5845 -33.3810,-11.1691 -50.0715 -16.7537c -0.3919,1.1714 -0.7839,2.3427 -1.1758 3.5141c -0.9711,-0.3249 -1.9422,-0.6498 -2.9133 -0.9748c -1.3992,4.1817 -2.7984,8.3634 -4.1975 12.5451c 0.9711,0.3249 1.9422,0.6498 2.9133 0.9748c -2.0023,5.9843 -4.0046,11.9686 -6.0070 17.9530c -0.9711,-0.3249 -1.9422,-0.6498 -2.9133 -0.9747c -1.3992,4.1817 -2.7984,8.3634 -4.1975 12.5451ZM 410.8637,1033.4294 c 0.0000,3.1310 2.5382,5.6693 5.6693 5.6693c 3.1310,-0.0000 5.6693,-2.5382 5.6693 -5.6693c 0.0000,-3.1311 -2.5382,-5.6693 -5.6693 -5.6693c -3.1311,-0.0000 -5.6693,2.5382 -5.6693 5.6693ZM 416.3973,558.3840 c 0.0000,3.1311 2.5382,5.6693 5.6693 5.6693c 3.1310,-0.0000 5.6693,-2.5382 5.6693 -5.6693c 0.0000,-3.1310 -2.5382,-5.6693 -5.6693 -5.6693c -3.1311,-0.0000 -5.6693,2.5382 -5.6693 5.6693ZM 469.3107,807.3824 c 0.0000,36.5291 29.6127,66.1417 66.1417 66.1417c 36.5291,-0.0000 66.1417,-29.6127 66.1417 -66.1417c 0.0000,-36.5291 -29.6127,-66.1417 -66.1417 -66.1417c -36.5291,-0.0000 -66.1417,29.6127 -66.1417 66.1417ZM 596.4359,895.2633 c 1.3992,4.1817 2.7984,8.3634 4.1975 12.5451c 0.9711,-0.3249 1.9422,-0.6498 2.9133 -0.9748c 2.0024,5.9843 4.0047,11.9687 6.0070 17.9530c -0.9711,0.3249 -1.9422,0.6498 -2.9133 0.9747c 1.3992,4.1817 2.7984,8.3634 4.1975 12.5451c 0.9711,-0.3249 1.9422,-0.6498 2.9133 -0.9747c 0.3919,1.1714 0.7839,2.3427 1.1758 3.5141c 16.6905,-5.5846 33.3810,-11.1691 50.0715 -16.7537c -0.3920,-1.1714 -0.7839,-2.3427 -1.1758 -3.5141c 0.9711,-0.3249 1.9422,-0.6498 2.9133 -0.9748c -1.3992,-4.1817 -2.7984,-8.3634 -4.1975 -12.5451c -0.9711,0.3249 -1.9422,0.6498 -2.9133 0.9747c -2.0023,-5.9843 -4.0046,-11.9686 -6.0070 -17.9530c 0.9711,-0.3249 1.9422,-0.6498 2.9133 -0.9748c -1.3992,-4.1817 -2.7984,-8.3634 -4.1975 -12.5451c -0.9711,0.3249 -1.9422,0.6498 -2.9133 0.9748c -0.3920,-1.1714 -0.7839,-2.3428 -1.1758 -3.5141c -16.6905,5.5845 -33.3810,11.1691 -50.0715 16.7537c 0.3919,1.1714 0.7839,2.3428 1.1758 3.5142c -0.9711,0.3249 -1.9422,0.6498 -2.9133 0.9747ZM 607.5711,702.2271 c 1.3992,4.1817 2.7984,8.3634 4.1975 12.5451c 0.9711,-0.3249 1.9422,-0.6498 2.9133 -0.9747c 2.0023,5.9843 4.0046,11.9687 6.0070 17.9530c -0.9711,0.3249 -1.9422,0.6498 -2.9133 0.9747c 1.3992,4.1817 2.7984,8.3634 4.1975 12.5451c 0.9711,-0.3249 1.9422,-0.6498 2.9133 -0.9748c 0.3919,1.1714 0.7839,2.3428 1.1758 3.5141c 16.6905,-5.5845 33.3810,-11.1691 50.0715 -16.7537c -0.3919,-1.1714 -0.7839,-2.3428 -1.1758 -3.5141c 0.9711,-0.3249 1.9422,-0.6498 2.9133 -0.9748c -1.3992,-4.1817 -2.7984,-8.3634 -4.1975 -12.5451c -0.9711,0.3249 -1.9422,0.6498 -2.9133 0.9748c -2.0023,-5.9843 -4.0046,-11.9687 -6.0070 -17.9530c 0.9711,-0.3249 1.9422,-0.6498 2.9133 -0.9747c -1.3992,-4.1817 -2.7984,-8.3634 -4.1975 -12.5451c -0.9711,0.3249 -1.9422,0.6498 -2.9133 0.9748c -0.3919,-1.1714 -0.7839,-2.3428 -1.1758 -3.5142c -16.6905,5.5846 -33.3810,11.1692 -50.0715 16.7537c 0.3919,1.1714 0.7839,2.3427 1.1758 3.5141c -0.9711,0.3249 -1.9422,0.6498 -2.9133 0.9748ZM 619.2219,963.3633 c 1.3992,4.1817 2.7984,8.3634 4.1975 12.5451c 0.9711,-0.3249 1.9422,-0.6498 2.9133 -0.9747c 2.0023,5.9843 4.0046,11.9686 6.0070 17.9530c -0.9711,0.3249 -1.9422,0.6498 -2.9133 0.9748c 1.3992,4.1817 2.7984,8.3634 4.1975 12.5451c 0.9711,-0.3249 1.9422,-0.6498 2.9133 -0.9747c 0.3920,1.1714 0.7839,2.3427 1.1758 3.5141c 16.6905,-5.5846 33.3810,-11.1691 50.0715 -16.7537c -0.3919,-1.1714 -0.7839,-2.3427 -1.1758 -3.5141c 0.9711,-0.3249 1.9422,-0.6498 2.9133 -0.9747c -1.3992,-4.1817 -2.7984,-8.3634 -4.1975 -12.5451c -0.9711,0.3249 -1.9422,0.6498 -2.9133 0.9747c -2.0023,-5.9843 -4.0047,-11.9686 -6.0070 -17.9530c 0.9711,-0.3249 1.9422,-0.6498 2.9133 -0.9748c -1.3992,-4.1817 -2.7984,-8.3634 -4.1975 -12.5451c -0.9711,0.3249 -1.9422,0.6498 -2.9133 0.9747c -0.3919,-1.1714 -0.7839,-2.3427 -1.1758 -3.5141c -16.6905,5.5846 -33.3810,11.1691 -50.0715 16.7537c 0.3919,1.1714 0.7839,2.3427 1.1758 3.5141c -0.9711,0.3249 -1.9422,0.6498 -2.9133 0.9747ZM 630.3571,770.3272 c 1.3992,4.1817 2.7984,8.3634 4.1975 12.5451c 0.9711,-0.3249 1.9422,-0.6498 2.9133 -0.9748c 2.0023,5.9843 4.0046,11.9687 6.0070 17.9530c -0.9711,0.3249 -1.9422,0.6498 -2.9133 0.9747c 1.3992,4.1817 2.7984,8.3634 4.1975 12.5451c 0.9711,-0.3249 1.9422,-0.6498 2.9133 -0.9748c 0.3919,1.1714 0.7839,2.3428 1.1758 3.5142c 16.6905,-5.5846 33.3810,-11.1691 50.0715 -16.7537c -0.3919,-1.1714 -0.7839,-2.3427 -1.1758 -3.5141c 0.9711,-0.3249 1.9422,-0.6498 2.9133 -0.9748c -1.3992,-4.1817 -2.7984,-8.3634 -4.1975 -12.5451c -0.9711,0.3249 -1.9422,0.6498 -2.9133 0.9747c -2.0023,-5.9843 -4.0046,-11.9687 -6.0070 -17.9530c 0.9711,-0.3249 1.9422,-0.6498 2.9133 -0.9748c -1.3992,-4.1817 -2.7984,-8.3634 -4.1975 -12.5451c -0.9711,0.3249 -1.9422,0.6498 -2.9133 0.9748c -0.3919,-1.1714 -0.7839,-2.3428 -1.1758 -3.5141c -16.6905,5.5845 -33.3810,11.1691 -50.0715 16.7537c 0.3919,1.1714 0.7839,2.3428 1.1758 3.5141c -0.9711,0.3249 -1.9422,0.6499 -2.9133 0.9748ZM 643.1690,558.3840 c 0.0000,3.1311 2.5382,5.6693 5.6693 5.6693c 3.1311,-0.0000 5.6693,-2.5382 5.6693 -5.6693c 0.0000,-3.1310 -2.5382,-5.6693 -5.6693 -5.6693c -3.1310,-0.0000 -5.6693,2.5382 -5.6693 5.6693ZM 648.7026,1033.4294 c 0.0000,3.1310 2.5382,5.6693 5.6693 5.6693c 3.1311,-0.0000 5.6693,-2.5382 5.6693 -5.6693c 0.0000,-3.1311 -2.5382,-5.6693 -5.6693 -5.6693c -3.1310,-0.0000 -5.6693,2.5382 -5.6693 5.6693ZM 653.1430,838.4272 c 1.3992,4.1817 2.7984,8.3634 4.1975 12.5451c 0.9711,-0.3249 1.9422,-0.6498 2.9133 -0.9748c 2.0023,5.9843 4.0046,11.9687 6.0070 17.9530c -0.9711,0.3249 -1.9422,0.6498 -2.9133 0.9747c 1.3992,4.1817 2.7984,8.3634 4.1975 12.5451c 0.9711,-0.3249 1.9422,-0.6498 2.9133 -0.9747c 0.3919,1.1714 0.7839,2.3427 1.1758 3.5141c 16.6905,-5.5846 33.3810,-11.1691 50.0715 -16.7537c -0.3920,-1.1714 -0.7839,-2.3427 -1.1758 -3.5141c 0.9711,-0.3249 1.9422,-0.6498 2.9133 -0.9747c -1.3992,-4.1817 -2.7984,-8.3634 -4.1975 -12.5451c -0.9711,0.3249 -1.9422,0.6498 -2.9133 0.9747c -2.0023,-5.9843 -4.0046,-11.9686 -6.0070 -17.9530c 0.9711,-0.3249 1.9422,-0.6498 2.9132 -0.9748c -1.3992,-4.1817 -2.7983,-8.3634 -4.1975 -12.5451c -0.9711,0.3249 -1.9422,0.6498 -2.9133 0.9747c -0.3920,-1.1714 -0.7839,-2.3427 -1.1758 -3.5141c -16.6905,5.5846 -33.3810,11.1691 -50.0715 16.7537c 0.3919,1.1714 0.7839,2.3427 1.1758 3.5141c -0.9711,0.3249 -1.9422,0.6498 -2.9133 0.9747ZM 669.6748,661.5200 c 1.3992,4.1817 2.7984,8.3634 4.1975 12.5451c 0.9711,-0.3249 1.9422,-0.6498 2.9133 -0.9748c 2.0023,5.9843 4.0046,11.9687 6.0070 17.9530c -0.9711,0.3249 -1.9422,0.6498 -2.9133 0.9747c 1.3992,4.1817 2.7984,8.3634 4.1975 12.5451c 0.9711,-0.3249 1.9422,-0.6498 2.9133 -0.9748c 0.3919,1.1714 0.7839,2.3428 1.1758 3.5142c 16.6905,-5.5846 33.3810,-11.1691 50.0715 -16.7537c -0.3919,-1.1714 -0.7839,-2.3427 -1.1758 -3.5141c 0.9711,-0.3249 1.9422,-0.6498 2.9133 -0.9748c -1.3992,-4.1817 -2.7984,-8.3634 -4.1975 -12.5451c -0.9711,0.3249 -1.9422,0.6498 -2.9133 0.9747c -2.0023,-5.9843 -4.0046,-11.9687 -6.0070 -17.9530c 0.9711,-0.3249 1.9422,-0.6498 2.9133 -0.9748c -1.3992,-4.1817 -2.7984,-8.3634 -4.1975 -12.5451c -0.9711,0.3249 -1.9422,0.6498 -2.9133 0.9748c -0.3919,-1.1714 -0.7839,-2.3428 -1.1758 -3.5141c -16.6905,5.5845 -33.3810,11.1691 -50.0715 16.7537c 0.3919,1.1714 0.7839,2.3428 1.1758 3.5141c -0.9711,0.3249 -1.9422,0.6499 -2.9133 0.9748ZM 675.9290,906.5273 c 1.3992,4.1817 2.7984,8.3634 4.1975 12.5451c 0.9711,-0.3249 1.9422,-0.6498 2.9133 -0.9747c 2.0023,5.9843 4.0046,11.9686 6.0070 17.9530c -0.9711,0.3249 -1.9422,0.6498 -2.9133 0.9748c 1.3992,4.1817 2.7984,8.3634 4.1975 12.5451c 0.9711,-0.3249 1.9422,-0.6498 2.9133 -0.9747c 0.3920,1.1714 0.7839,2.3427 1.1758 3.5141c 16.6905,-5.5845 33.3810,-11.1691 50.0715 -16.7537c -0.3919,-1.1714 -0.7839,-2.3427 -1.1758 -3.5141c 0.9711,-0.3249 1.9422,-0.6498 2.9133 -0.9747c -1.3992,-4.1817 -2.7984,-8.3634 -4.1975 -12.5451c -0.9711,0.3249 -1.9422,0.6498 -2.9133 0.9748c -2.0023,-5.9843 -4.0047,-11.9687 -6.0070 -17.9530c 0.9711,-0.3249 1.9422,-0.6498 2.9133 -0.9747c -1.3992,-4.1817 -2.7984,-8.3634 -4.1975 -12.5451c -0.9711,0.3249 -1.9422,0.6498 -2.9133 0.9747c -0.3919,-1.1714 -0.7839,-2.3427 -1.1758 -3.5141c -16.6905,5.5846 -33.3810,11.1691 -50.0715 16.7537c 0.3920,1.1714 0.7839,2.3427 1.1758 3.5141c -0.9711,0.3249 -1.9422,0.6498 -2.9133 0.9747ZM 692.4608,729.6201 c 1.3992,4.1817 2.7984,8.3634 4.1975 12.5451c 0.9711,-0.3249 1.9422,-0.6498 2.9133 -0.9747c 2.0023,5.9843 4.0046,11.9686 6.0070 17.9530c -0.9711,0.3249 -1.9422,0.6498 -2.9133 0.9748c 1.3992,4.1817 2.7984,8.3634 4.1975 12.5451c 0.9711,-0.3249 1.9422,-0.6498 2.9133 -0.9747c 0.3919,1.1714 0.7839,2.3427 1.1758 3.5141c 16.6905,-5.5846 33.3810,-11.1691 50.0715 -16.7537c -0.3919,-1.1714 -0.7839,-2.3427 -1.1758 -3.5141c 0.9711,-0.3249 1.9422,-0.6498 2.9133 -0.9747c -1.3992,-4.1817 -2.7984,-8.3634 -4.1975 -12.5451c -0.9711,0.3249 -1.9422,0.6498 -2.9133 0.9747c -2.0023,-5.9843 -4.0046,-11.9686 -6.0070 -17.9530c 0.9711,-0.3249 1.9422,-0.6498 2.9133 -0.9748c -1.3992,-4.1817 -2.7984,-8.3634 -4.1975 -12.5451c -0.9711,0.3249 -1.9422,0.6498 -2.9133 0.9747c -0.3919,-1.1714 -0.7839,-2.3427 -1.1758 -3.5141c -16.6905,5.5845 -33.3810,11.1691 -50.0715 16.7537c 0.3919,1.1714 0.7839,2.3427 1.1758 3.5141c -0.9711,0.3249 -1.9422,0.6498 -2.9133 0.9747ZM 715.2468,797.7202 c 1.3992,4.1817 2.7984,8.3634 4.1975 12.5451c 0.9711,-0.3249 1.9422,-0.6498 2.9133 -0.9747c 2.0023,5.9843 4.0047,11.9686 6.0070 17.9530c -0.9711,0.3249 -1.9422,0.6498 -2.9133 0.9748c 1.3992,4.1817 2.7984,8.3634 4.1975 12.5451c 0.9711,-0.3249 1.9422,-0.6499 2.9133 -0.9748c 0.3919,1.1714 0.7839,2.3427 1.1758 3.5141c 16.6905,-5.5845 33.3810,-11.1691 50.0715 -16.7537c -0.3920,-1.1714 -0.7839,-2.3427 -1.1758 -3.5141c 0.9711,-0.3249 1.9422,-0.6498 2.9133 -0.9747c -1.3992,-4.1817 -2.7984,-8.3634 -4.1975 -12.5451c -0.9711,0.3249 -1.9422,0.6498 -2.9133 0.9748c -2.0023,-5.9843 -4.0046,-11.9687 -6.0070 -17.9530c 0.9711,-0.3249 1.9422,-0.6498 2.9133 -0.9747c -1.3992,-4.1817 -2.7984,-8.3634 -4.1975 -12.5451c -0.9711,0.3249 -1.9422,0.6498 -2.9133 0.9747c -0.3920,-1.1714 -0.7839,-2.3427 -1.1758 -3.5141c -16.6905,5.5846 -33.3810,11.1691 -50.0715 16.7537c 0.3919,1.1714 0.7839,2.3427 1.1758 3.5141c -0.9711,0.3249 -1.9422,0.6498 -2.9133 0.9748ZM 730.5794,617.2287 c 1.3992,4.1817 2.7984,8.3634 4.1975 12.5451c 0.9711,-0.3249 1.9422,-0.6498 2.9133 -0.9747c 2.0023,5.9843 4.0046,11.9686 6.0070 17.9530c -0.9711,0.3249 -1.9422,0.6498 -2.9133 0.9748c 1.3992,4.1817 2.7984,8.3634 4.1975 12.5451c 0.9711,-0.3249 1.9422,-0.6499 2.9133 -0.9748c 0.3919,1.1714 0.7839,2.3427 1.1758 3.5141c 16.6905,-5.5845 33.3810,-11.1691 50.0715 -16.7537c -0.3919,-1.1714 -0.7839,-2.3427 -1.1758 -3.5141c 0.9711,-0.3249 1.9422,-0.6498 2.9133 -0.9747c -1.3992,-4.1817 -2.7984,-8.3634 -4.1975 -12.5451c -0.9711,0.3249 -1.9422,0.6498 -2.9133 0.9748c -2.0023,-5.9843 -4.0046,-11.9687 -6.0070 -17.9530c 0.9711,-0.3249 1.9422,-0.6498 2.9133 -0.9747c -1.3992,-4.1817 -2.7984,-8.3634 -4.1975 -12.5451c -0.9711,0.3249 -1.9422,0.6498 -2.9133 0.9747c -0.3919,-1.1714 -0.7839,-2.3427 -1.1758 -3.5141c -16.6905,5.5846 -33.3810,11.1691 -50.0715 16.7537c 0.3920,1.1714 0.7839,2.3427 1.1758 3.5141c -0.9711,0.3249 -1.9422,0.6498 -2.9133 0.9747ZM 738.0328,865.8203 c 1.3992,4.1817 2.7984,8.3634 4.1975 12.5451c 0.9711,-0.3249 1.9422,-0.6498 2.9133 -0.9747c 2.0023,5.9843 4.0046,11.9687 6.0070 17.9530c -0.9711,0.3249 -1.9422,0.6499 -2.9133 0.9748c 1.3992,4.1817 2.7984,8.3634 4.1975 12.5451c 0.9711,-0.3249 1.9422,-0.6498 2.9133 -0.9748c 0.3920,1.1714 0.7839,2.3428 1.1758 3.5141c 16.6905,-5.5845 33.3810,-11.1691 50.0715 -16.7537c -0.3919,-1.1714 -0.7839,-2.3428 -1.1758 -3.5141c 0.9711,-0.3249 1.9422,-0.6498 2.9133 -0.9748c -1.3992,-4.1817 -2.7984,-8.3634 -4.1975 -12.5451c -0.9711,0.3249 -1.9422,0.6498 -2.9133 0.9748c -2.0023,-5.9843 -4.0047,-11.9687 -6.0070 -17.9530c 0.9711,-0.3249 1.9422,-0.6498 2.9133 -0.9747c -1.3992,-4.1817 -2.7984,-8.3634 -4.1975 -12.5451c -0.9711,0.3249 -1.9422,0.6498 -2.9133 0.9748c -0.3919,-1.1714 -0.7839,-2.3428 -1.1758 -3.5142c -16.6905,5.5846 -33.3810,11.1691 -50.0715 16.7537c 0.3920,1.1714 0.7839,2.3428 1.1758 3.5141c -0.9711,0.3249 -1.9422,0.6498 -2.9133 0.9748ZM 753.3654,685.3289 c 1.3992,4.1817 2.7984,8.3634 4.1975 12.5451c 0.9711,-0.3249 1.9422,-0.6498 2.9133 -0.9747c 2.0023,5.9843 4.0046,11.9687 6.0070 17.9530c -0.9711,0.3249 -1.9422,0.6498 -2.9133 0.9748c 1.3992,4.1817 2.7984,8.3634 4.1975 12.5451c 0.9711,-0.3249 1.9422,-0.6498 2.9133 -0.9748c 0.3919,1.1714 0.7839,2.3428 1.1758 3.5141c 16.6905,-5.5845 33.3810,-11.1691 50.0715 -16.7537c -0.3919,-1.1714 -0.7839,-2.3428 -1.1758 -3.5141c 0.9711,-0.3249 1.9422,-0.6498 2.9133 -0.9748c -1.3992,-4.1817 -2.7984,-8.3634 -4.1975 -12.5451c -0.9711,0.3249 -1.9422,0.6498 -2.9133 0.9748c -2.0023,-5.9843 -4.0046,-11.9687 -6.0070 -17.9530c 0.9711,-0.3249 1.9422,-0.6498 2.9133 -0.9747c -1.3992,-4.1817 -2.7984,-8.3634 -4.1975 -12.5451c -0.9711,0.3249 -1.9422,0.6498 -2.9133 0.9748c -0.3919,-1.1714 -0.7839,-2.3428 -1.1758 -3.5142c -16.6905,5.5846 -33.3810,11.1692 -50.0715 16.7537c 0.3919,1.1714 0.7839,2.3427 1.1758 3.5141c -0.9711,0.3249 -1.9422,0.6498 -2.9133 0.9748ZM 776.1513,753.4289 c 1.3992,4.1817 2.7984,8.3634 4.1975 12.5451c 0.9711,-0.3249 1.9422,-0.6498 2.9133 -0.9748c 2.0023,5.9843 4.0047,11.9687 6.0070 17.9530c -0.9711,0.3249 -1.9422,0.6498 -2.9133 0.9747c 1.3992,4.1817 2.7984,8.3634 4.1975 12.5451c 0.9711,-0.3249 1.9422,-0.6498 2.9133 -0.9747c 0.3919,1.1714 0.7839,2.3427 1.1758 3.5141c 16.6905,-5.5846 33.3810,-11.1691 50.0715 -16.7537c -0.3920,-1.1714 -0.7839,-2.3428 -1.1758 -3.5141c 0.9711,-0.3249 1.9422,-0.6498 2.9133 -0.9748c -1.3992,-4.1817 -2.7984,-8.3634 -4.1975 -12.5451c -0.9711,0.3249 -1.9422,0.6498 -2.9133 0.9747c -2.0023,-5.9843 -4.0046,-11.9687 -6.0070 -17.9530c 0.9711,-0.3249 1.9422,-0.6499 2.9133 -0.9748c -1.3992,-4.1817 -2.7984,-8.3634 -4.1975 -12.5451c -0.9711,0.3249 -1.9422,0.6498 -2.9133 0.9748c -0.3920,-1.1714 -0.7839,-2.3428 -1.1758 -3.5141c -16.6905,5.5845 -33.3810,11.1691 -50.0715 16.7537c 0.3919,1.1714 0.7839,2.3428 1.1758 3.5141c -0.9711,0.3249 -1.9422,0.6498 -2.9133 0.9748ZM 798.9373,821.5290 c 1.3992,4.1817 2.7984,8.3634 4.1975 12.5451c 0.9711,-0.3249 1.9422,-0.6498 2.9133 -0.9748c 2.0023,5.9843 4.0046,11.9687 6.0070 17.9530c -0.9711,0.3249 -1.9422,0.6498 -2.9133 0.9747c 1.3992,4.1817 2.7984,8.3634 4.1975 12.5451c 0.9711,-0.3249 1.9422,-0.6498 2.9133 -0.9747c 0.3920,1.1714 0.7839,2.3427 1.1758 3.5141c 16.6905,-5.5846 33.3810,-11.1691 50.0715 -16.7537c -0.3919,-1.1714 -0.7839,-2.3427 -1.1758 -3.5141c 0.9711,-0.3249 1.9422,-0.6498 2.9133 -0.9748c -1.3992,-4.1817 -2.7984,-8.3634 -4.1975 -12.5451c -0.9711,0.3249 -1.9422,0.6498 -2.9133 0.9747c -2.0023,-5.9843 -4.0047,-11.9686 -6.0070 -17.9530c 0.9711,-0.3249 1.9422,-0.6498 2.9133 -0.9748c -1.3992,-4.1817 -2.7984,-8.3634 -4.1975 -12.5451c -0.9711,0.3249 -1.9422,0.6499 -2.9133 0.9748c -0.3919,-1.1714 -0.7839,-2.3427 -1.1758 -3.5141c -16.6905,5.5846 -33.3810,11.1691 -50.0715 16.7537c 0.3920,1.1714 0.7839,2.3427 1.1758 3.5141c -0.9711,0.3249 -1.9422,0.6498 -2.9133 0.9747ZM 804.6758,612.3639 c 1.3992,4.1817 2.7984,8.3634 4.1975 12.5451c 0.9711,-0.3249 1.9422,-0.6498 2.9133 -0.9747c 2.0023,5.9843 4.0047,11.9687 6.0070 17.9530c -0.9711,0.3249 -1.9422,0.6498 -2.9133 0.9747c 1.3992,4.1817 2.7984,8.3634 4.1975 12.5451c 0.9711,-0.3249 1.9422,-0.6498 2.9133 -0.9748c 0.3919,1.1714 0.7839,2.3428 1.1758 3.5141c 16.6905,-5.5845 33.3810,-11.1691 50.0715 -16.7537c -0.3920,-1.1714 -0.7839,-2.3428 -1.1758 -3.5141c 0.9711,-0.3249 1.9422,-0.6498 2.9133 -0.9748c -1.3992,-4.1817 -2.7984,-8.3634 -4.1975 -12.5451c -0.9711,0.3249 -1.9422,0.6498 -2.9133 0.9748c -2.0023,-5.9843 -4.0046,-11.9687 -6.0070 -17.9530c 0.9711,-0.3249 1.9422,-0.6498 2.9133 -0.9747c -1.3992,-4.1817 -2.7984,-8.3634 -4.1975 -12.5451c -0.9711,0.3249 -1.9422,0.6498 -2.9133 0.9748c -0.3920,-1.1714 -0.7839,-2.3428 -1.1758 -3.5142c -16.6905,5.5846 -33.3810,11.1692 -50.0715 16.7537c 0.3919,1.1714 0.7839,2.3427 1.1758 3.5141c -0.9711,0.3249 -1.9422,0.6498 -2.9133 0.9748ZM 827.4617,680.4639 c 1.3992,4.1817 2.7984,8.3634 4.1975 12.5451c 0.9711,-0.3249 1.9422,-0.6498 2.9133 -0.9748c 2.0023,5.9843 4.0046,11.9687 6.0070 17.9530c -0.9711,0.3249 -1.9422,0.6498 -2.9133 0.9747c 1.3992,4.1817 2.7984,8.3634 4.1975 12.5451c 0.9711,-0.3249 1.9422,-0.6498 2.9133 -0.9747c 0.3920,1.1714 0.7839,2.3427 1.1758 3.5141c 16.6905,-5.5846 33.3810,-11.1691 50.0715 -16.7537c -0.3919,-1.1714 -0.7839,-2.3427 -1.1758 -3.5141c 0.9711,-0.3249 1.9422,-0.6498 2.9133 -0.9748c -1.3992,-4.1817 -2.7984,-8.3634 -4.1975 -12.5451c -0.9711,0.3249 -1.9422,0.6498 -2.9133 0.9747c -2.0023,-5.9843 -4.0047,-11.9687 -6.0070 -17.9530c 0.9711,-0.3249 1.9422,-0.6498 2.9133 -0.9748c -1.3992,-4.1817 -2.7984,-8.3634 -4.1975 -12.5451c -0.9711,0.3249 -1.9422,0.6498 -2.9133 0.9748c -0.3919,-1.1714 -0.7839,-2.3428 -1.1758 -3.5141c -16.6905,5.5845 -33.3810,11.1691 -50.0715 16.7537c 0.3920,1.1714 0.7839,2.3428 1.1758 3.5141c -0.9711,0.3249 -1.9422,0.6499 -2.9133 0.9748ZM 850.2477,748.5640 c 1.3992,4.1817 2.7984,8.3634 4.1975 12.5451c 0.9711,-0.3249 1.9422,-0.6498 2.9133 -0.9748c 2.0023,5.9843 4.0046,11.9687 6.0070 17.9530c -0.9711,0.3249 -1.9422,0.6498 -2.9133 0.9748c 1.3992,4.1817 2.7984,8.3634 4.1975 12.5451c 0.9711,-0.3249 1.9422,-0.6498 2.9133 -0.9747c 0.3919,1.1714 0.7839,2.3427 1.1758 3.5141c 16.6905,-5.5846 33.3810,-11.1691 50.0715 -16.7537c -0.3919,-1.1714 -0.7839,-2.3427 -1.1758 -3.5141c 0.9711,-0.3249 1.9422,-0.6498 2.9133 -0.9747c -1.3992,-4.1817 -2.7984,-8.3634 -4.1975 -12.5451c -0.9711,0.3249 -1.9422,0.6498 -2.9133 0.9747c -2.0023,-5.9843 -4.0046,-11.9686 -6.0070 -17.9530c 0.9711,-0.3249 1.9422,-0.6498 2.9133 -0.9748c -1.3992,-4.1817 -2.7984,-8.3634 -4.1975 -12.5451c -0.9711,0.3249 -1.9422,0.6498 -2.9133 0.9747c -0.3919,-1.1714 -0.7839,-2.3427 -1.1758 -3.5141c -16.6905,5.5846 -33.3810,11.1691 -50.0715 16.7537c 0.3919,1.1714 0.7839,2.3427 1.1758 3.5141c -0.9711,0.3249 -1.9422,0.6498 -2.9133 0.9747ZM 873.0337,816.6641 c 1.3992,4.1817 2.7984,8.3634 4.1975 12.5451c 0.9711,-0.3249 1.9422,-0.6498 2.9133 -0.9747c 2.0023,5.9843 4.0046,11.9686 6.0070 17.9530c -0.9711,0.3249 -1.9422,0.6498 -2.9133 0.9748c 1.3992,4.1817 2.7984,8.3634 4.1975 12.5451c 0.9711,-0.3249 1.9422,-0.6498 2.9133 -0.9747c 0.3919,1.1714 0.7839,2.3427 1.1758 3.5141c 16.6905,-5.5845 33.3810,-11.1691 50.0715 -16.7537c -0.3920,-1.1714 -0.7839,-2.3428 -1.1758 -3.5142c 0.9711,-0.3249 1.9422,-0.6498 2.9133 -0.9747c -1.3992,-4.1817 -2.7984,-8.3634 -4.1975 -12.5451c -0.9711,0.3249 -1.9422,0.6498 -2.9133 0.9748c -2.0023,-5.9843 -4.0046,-11.9687 -6.0070 -17.9530c 0.9711,-0.3249 1.9422,-0.6498 2.9133 -0.9747c -1.3992,-4.1817 -2.7984,-8.3634 -4.1975 -12.5451c -0.9711,0.3249 -1.9422,0.6498 -2.9133 0.9747c -0.3919,-1.1714 -0.7839,-2.3427 -1.1758 -3.5141c -16.6905,5.5846 -33.3810,11.1691 -50.0715 16.7537c 0.3919,1.1714 0.7839,2.3427 1.1758 3.5141c -0.9711,0.3249 -1.9422,0.6498 -2.9133 0.9747ZM 876.3737,600.3305 c 1.3992,4.1817 2.7984,8.3634 4.1975 12.5451c 0.9711,-0.3249 1.9422,-0.6498 2.9133 -0.9747c 2.0023,5.9843 4.0046,11.9686 6.0070 17.9530c -0.9711,0.3249 -1.9422,0.6498 -2.9133 0.9748c 1.3992,4.1817 2.7984,8.3634 4.1975 12.5451c 0.9711,-0.3249 1.9422,-0.6499 2.9133 -0.9748c 0.3919,1.1714 0.7839,2.3427 1.1758 3.5141c 16.6905,-5.5845 33.3810,-11.1691 50.0715 -16.7537c -0.3919,-1.1714 -0.7839,-2.3427 -1.1758 -3.5141c 0.9711,-0.3249 1.9422,-0.6498 2.9133 -0.9747c -1.3992,-4.1817 -2.7984,-8.3634 -4.1975 -12.5451c -0.9711,0.3249 -1.9422,0.6498 -2.9133 0.9748c -2.0023,-5.9843 -4.0046,-11.9687 -6.0070 -17.9530c 0.9711,-0.3249 1.9422,-0.6498 2.9133 -0.9748c -1.3992,-4.1817 -2.7984,-8.3634 -4.1975 -12.5451c -0.9711,0.3249 -1.9422,0.6498 -2.9133 0.9747c -0.3919,-1.1714 -0.7839,-2.3427 -1.1758 -3.5141c -16.6905,5.5846 -33.3810,11.1691 -50.0715 16.7537c 0.3919,1.1714 0.7839,2.3427 1.1758 3.5141c -0.9711,0.3249 -1.9422,0.6498 -2.9133 0.9747ZM 899.1596,668.4306 c 1.3991,4.1817 2.7983,8.3634 4.1975 12.5451c 0.9711,-0.3249 1.9422,-0.6498 2.9133 -0.9747c 2.0024,5.9843 4.0047,11.9687 6.0070 17.9530c -0.9711,0.3249 -1.9422,0.6498 -2.9133 0.9748c 1.3992,4.1817 2.7984,8.3634 4.1975 12.5451c 0.9711,-0.3249 1.9422,-0.6498 2.9133 -0.9748c 0.3919,1.1714 0.7839,2.3428 1.1758 3.5141c 16.6905,-5.5845 33.3810,-11.1691 50.0715 -16.7537c -0.3920,-1.1714 -0.7839,-2.3428 -1.1758 -3.5141c 0.9711,-0.3249 1.9422,-0.6498 2.9133 -0.9748c -1.3992,-4.1817 -2.7984,-8.3634 -4.1975 -12.5451c -0.9711,0.3249 -1.9422,0.6498 -2.9133 0.9748c -2.0023,-5.9843 -4.0046,-11.9687 -6.0070 -17.9530c 0.9711,-0.3249 1.9422,-0.6498 2.9133 -0.9747c -1.3992,-4.1817 -2.7984,-8.3634 -4.1975 -12.5451c -0.9711,0.3249 -1.9422,0.6498 -2.9133 0.9747c -0.3919,-1.1714 -0.7839,-2.3427 -1.1758 -3.5141c -16.6905,5.5846 -33.3810,11.1691 -50.0715 16.7537c 0.3919,1.1714 0.7839,2.3427 1.1758 3.5141c -0.9711,0.3249 -1.9422,0.6498 -2.9132 0.9748ZM 921.9456,736.5307 c 1.3992,4.1817 2.7984,8.3634 4.1975 12.5451c 0.9711,-0.3249 1.9422,-0.6498 2.9133 -0.9748c 2.0023,5.9843 4.0046,11.9687 6.0070 17.9530c -0.9711,0.3249 -1.9422,0.6498 -2.9133 0.9747c 1.3992,4.1817 2.7984,8.3634 4.1975 12.5451c 0.9711,-0.3249 1.9422,-0.6498 2.9133 -0.9748c 0.3920,1.1714 0.7839,2.3428 1.1758 3.5142c 16.6905,-5.5846 33.3810,-11.1691 50.0715 -16.7537c -0.3919,-1.1714 -0.7839,-2.3428 -1.1758 -3.5141c 0.9711,-0.3249 1.9422,-0.6498 2.9133 -0.9748c -1.3992,-4.1817 -2.7984,-8.3634 -4.1975 -12.5451c -0.9711,0.3249 -1.9422,0.6498 -2.9133 0.9747c -2.0023,-5.9843 -4.0046,-11.9687 -6.0070 -17.9530c 0.9711,-0.3249 1.9422,-0.6499 2.9133 -0.9748c -1.3992,-4.1817 -2.7984,-8.3634 -4.1975 -12.5451c -0.9711,0.3249 -1.9422,0.6498 -2.9133 0.9748c -0.3919,-1.1714 -0.7839,-2.3428 -1.1758 -3.5141c -16.6905,5.5845 -33.3810,11.1691 -50.0715 16.7537c 0.3920,1.1714 0.7839,2.3428 1.1758 3.5141c -0.9711,0.3249 -1.9422,0.6498 -2.9133 0.9748ZM 944.4183,558.3840 c 0.0000,3.1311 2.5382,5.6693 5.6693 5.6693c 3.1310,-0.0000 5.6693,-2.5382 5.6693 -5.6693c 0.0000,-3.1310 -2.5382,-5.6693 -5.6693 -5.6693c -3.1311,-0.0000 -5.6693,2.5382 -5.6693 5.6693ZM 944.7316,804.6308 c 1.3992,4.1817 2.7984,8.3634 4.1975 12.5451c 0.9711,-0.3249 1.9422,-0.6498 2.9133 -0.9748c 2.0023,5.9843 4.0046,11.9687 6.0070 17.9530c -0.9711,0.3249 -1.9422,0.6498 -2.9133 0.9747c 1.3992,4.1817 2.7984,8.3634 4.1975 12.5451c 0.9711,-0.3249 1.9422,-0.6498 2.9133 -0.9747c 0.3919,1.1714 0.7839,2.3427 1.1758 3.5141c 16.6905,-5.5846 33.3810,-11.1691 50.0715 -16.7537c -0.3919,-1.1714 -0.7839,-2.3427 -1.1758 -3.5141c 0.9711,-0.3249 1.9422,-0.6498 2.9133 -0.9748c -1.3992,-4.1817 -2.7984,-8.3634 -4.1975 -12.5451c -0.9711,0.3249 -1.9422,0.6498 -2.9133 0.9747c -2.0023,-5.9843 -4.0046,-11.9686 -6.0070 -17.9530c 0.9711,-0.3249 1.9422,-0.6498 2.9133 -0.9748c -1.3992,-4.1817 -2.7984,-8.3634 -4.1975 -12.5451c -0.9711,0.3249 -1.9422,0.6499 -2.9133 0.9748c -0.3919,-1.1714 -0.7839,-2.3427 -1.1758 -3.5141c -16.6905,5.5845 -33.3810,11.1691 -50.0715 16.7537c 0.3919,1.1714 0.7839,2.3427 1.1758 3.5141c -0.9711,0.3249 -1.9422,0.6498 -2.9133 0.9747ZM 1041.1070,839.7970 c 0.0000,3.1311 2.5382,5.6693 5.6693 5.6693c 3.1311,-0.0000 5.6693,-2.5382 5.6693 -5.6693c 0.0000,-3.1311 -2.5382,-5.6693 -5.6693 -5.6693c -3.1311,-0.0000 -5.6693,2.5382 -5.6693 5.6693Z"/></g><g stroke-linejoin="miter" stroke-opacity="1.0" fill-opacity="0.5" stroke="rgb(0,0,0)" stroke-width="0.37795275590551186" fill="rgb(255,0,0)" stroke-linecap="butt" stroke-miterlimit="10.0"><path d="M 469.3107,273.1244 c 0.0000,-11.6868 3.0310,-22.6657 8.3499 -32.1934c 1.6723,-0.0584 3.3446,-0.1168 5.0168 -0.1752c -5.7886,9.4178 -9.1268,20.5033 -9.1268 32.3685c 0.0000,0.2227 0.0012,0.4452 0.0035 0.6674c -1.3769,1.0757 -2.7538,2.1515 -4.1306 3.2272c -0.0748,-1.2886 -0.1128,-2.5872 -0.1128 -3.8946ZM 469.7801,281.0448 c 1.3187,-1.0303 2.6374,-2.0606 3.9561 -3.0909c 0.9243,11.9774 5.2573,22.9996 12.0304 32.0979c -0.4812,1.6780 -0.9623,3.3561 -1.4435 5.0341c -7.8024,-9.4960 -13.0111,-21.2041 -14.5430 -34.0412ZM 477.8265,291.8482 c 9.6516,-7.0123 19.3031,-14.0246 28.9547 -21.0368c 2.4820,-0.8065 4.9641,-1.6129 7.4462 -2.4194c 1.6925,-0.5499 3.3850,-1.0998 5.0775 -1.6498c 0.0000,1.6297 0.0000,3.2594 0.0000 4.8890c 0.0000,2.6251 0.0000,5.2503 0.0000 7.8754c -0.5464,-0.1775 -1.0928,-0.3551 -1.6392 -0.5326c -0.5390,-1.6590 -1.0781,-3.3180 -1.6171 -4.9770c -4.5084,3.2756 -9.0169,6.5511 -13.5253 9.8267c 4.5345,-0.0000 9.0691,-0.0000 13.6036 -0.0000c 1.0593,0.3442 2.1186,0.6884 3.1779 1.0326c 0.0000,2.3306 0.0000,4.6613 0.0000 6.9919c -13.8261,-0.0000 -27.6522,-0.0000 -41.4784 0.0000ZM 479.7372,237.4646 c 6.7611,-10.5418 16.4323,-19.0387 27.8796 -24.3569c 1.3860,0.9349 2.7720,1.8698 4.1580 2.8046c -10.8216,4.4836 -20.0955,11.9480 -26.7976 21.3693c -1.7467,0.0610 -3.4933,0.1220 -5.2400 0.1830ZM 486.9798,318.1263 c 0.4608,-1.6070 0.9216,-3.2140 1.3824 -4.8210c 7.4760,8.7531 17.3497,15.3967 28.6043 18.9137c 0.5972,1.6408 1.1944,3.2816 1.7916 4.9224c -12.3733,-3.2177 -23.3380,-9.9278 -31.7784 -19.0150ZM 499.8377,224.1049 c 9.6516,7.0123 19.3031,14.0246 28.9547 21.0368c 1.5340,2.1114 3.0680,4.2227 4.6020 6.3341c 1.0460,1.4397 2.0920,2.8794 3.1380 4.3192c -1.5499,0.5036 -3.0998,1.0072 -4.6497 1.5108c -2.4967,0.8112 -4.9933,1.6224 -7.4900 2.4336c 0.0000,-0.5745 0.0000,-1.1490 0.0000 -1.7235c 1.4112,-1.0253 2.8225,-2.0506 4.2337 -3.0760c -4.5084,-3.2756 -9.0168,-6.5511 -13.5253 -9.8267c 1.4013,4.3126 2.8025,8.6252 4.2038 12.9378c 0.0000,1.1138 0.0000,2.2276 0.0000 3.3415c -2.2166,0.7202 -4.4331,1.4404 -6.6497 2.1606c -4.2725,-13.1494 -8.5450,-26.2988 -12.8175 -39.4483ZM 511.3286,211.5199 c 7.4742,-2.9291 15.6112,-4.5373 24.1239 -4.5373c 4.3646,-0.0000 8.6304,0.4228 12.7588 1.2295c 0.5716,1.5705 1.1433,3.1411 1.7149 4.7116c -4.6431,-1.1123 -9.4896,-1.7013 -14.4737 -1.7013c -6.9169,-0.0000 -13.5688,1.1345 -19.7798 3.2275c -1.4480,-0.9767 -2.8960,-1.9534 -4.3441 -2.9301ZM 520.9787,333.3250 c 4.6431,1.1123 9.4896,1.7013 14.4737 1.7013c 6.9169,-0.0000 13.5688,-1.1345 19.7798 -3.2275c 1.4480,0.9767 2.8960,1.9534 4.3440 2.9301c -7.4742,2.9291 -15.6112,4.5373 -24.1239 4.5373c -4.3646,-0.0000 -8.6304,-0.4228 -12.7588 -1.2295c -0.5716,-1.5705 -1.1433,-3.1411 -1.7149 -4.7116ZM 524.3927,265.0890 c 2.3618,-0.7674 4.7236,-1.5348 7.0854 -2.3022c -2.3618,1.7159 -4.7236,3.4319 -7.0854 5.1478c 0.0000,-0.9485 0.0000,-1.8971 -0.0000 -2.8456ZM 524.3927,273.7098 c 0.9021,2.7764 1.8042,5.5529 2.7064 8.3293c -0.9021,-0.2931 -1.8042,-0.5862 -2.7064 -0.8794c 0.0000,-2.4833 0.0000,-4.9667 -0.0000 -7.4500ZM 524.3927,286.5094 c 1.5499,0.5036 3.0998,1.0072 4.6497 1.5108c 2.4967,0.8112 4.9933,1.6224 7.4900 2.4336c -0.3377,0.4648 -0.6754,0.9296 -1.0131 1.3944c -1.7444,-0.0000 -3.4887,-0.0000 -5.2331 -0.0000c 1.7221,5.3000 3.4441,10.5999 5.1662 15.8999c 1.4013,-4.3126 2.8025,-8.6252 4.2038 -12.9378c 0.6547,-0.9011 1.3094,-1.8022 1.9641 -2.7033c 2.2166,0.7202 4.4331,1.4404 6.6497 2.1606c -4.2725,13.1494 -8.5450,26.2989 -12.8175 39.4483c -3.6866,-11.3461 -7.3731,-22.6922 -11.0597 -34.0383c 0.0000,-2.6098 0.0000,-5.2196 0.0000 -7.8294c 0.0000,-1.7796 0.0000,-3.5592 0.0000 -5.3388ZM 532.5915,283.8237 c 2.9193,-0.0000 5.8386,-0.0000 8.7580 -0.0000c -0.5575,0.7674 -1.1151,1.5348 -1.6726 2.3022c -2.3618,-0.7674 -4.7236,-1.5348 -7.0853 -2.3022ZM 536.9705,261.0023 c 0.9021,-0.2931 1.8042,-0.5862 2.7064 -0.8793c 1.4597,2.0091 2.9193,4.0181 4.3790 6.0272c -2.3618,-1.7159 -4.7236,-3.4319 -7.0853 -5.1478ZM 537.5105,248.4852 c 11.1856,-8.1268 22.3711,-16.2536 33.5567 -24.3804c -3.6866,11.3461 -7.3731,22.6922 -11.0597 34.0383c -1.5340,2.1114 -3.0680,4.2227 -4.6020 6.3341c -1.0460,1.4397 -2.0920,2.8794 -3.1381 4.3192c -0.9579,-1.3184 -1.9158,-2.6369 -2.8737 -3.9553c -1.5430,-2.1238 -3.0860,-4.2476 -4.6291 -6.3713c 0.5464,-0.1775 1.0928,-0.3551 1.6392 -0.5326c 1.4112,1.0253 2.8225,2.0506 4.2337 3.0760c 1.7221,-5.3000 3.4441,-10.5999 5.1662 -15.8999c -3.6685,2.6653 -7.3370,5.3307 -11.0056 7.9960c -1.0593,0.3442 -2.1186,0.6884 -3.1779 1.0326c -1.3699,-1.8855 -2.7398,-3.7710 -4.1097 -5.6566ZM 544.7440,279.1515 c 0.9021,-2.7764 1.8042,-5.5529 2.7064 -8.3293c 0.5575,0.7674 1.1151,1.5348 1.6726 2.3022c -1.4597,2.0090 -2.9193,4.0181 -4.3790 6.0272ZM 544.7647,287.7790 c 0.9579,-1.3184 1.9158,-2.6369 2.8737 -3.9553c 1.5430,-2.1238 3.0860,-4.2476 4.6291 -6.3713c 0.3377,0.4648 0.6754,0.9296 1.0131 1.3944c -0.5390,1.6590 -1.0781,3.3180 -1.6171 4.9770c 5.5727,-0.0000 11.1454,-0.0000 16.7181 -0.0000c -3.6685,-2.6653 -7.3370,-5.3307 -11.0056 -7.9960c -0.6547,-0.9011 -1.3094,-1.8022 -1.9641 -2.7033c 1.3699,-1.8855 2.7398,-3.7711 4.1097 -5.6566c 11.1856,8.1268 22.3711,16.2536 33.5567 24.3804c -11.9300,-0.0000 -23.8600,-0.0000 -35.7900 -0.0000c -2.4821,-0.8065 -4.9641,-1.6129 -7.4462 -2.4194c -1.6925,-0.5499 -3.3850,-1.0998 -5.0775 -1.6498ZM 552.1467,209.1075 c 12.3734,3.2177 23.3380,9.9278 31.7784 19.0150c -0.4608,1.6070 -0.9216,3.2140 -1.3824 4.8210c -7.4760,-8.7531 -17.3497,-15.3967 -28.6043 -18.9137c -0.5972,-1.6408 -1.1944,-3.2816 -1.7916 -4.9224ZM 559.1300,330.3365 c 10.8216,-4.4836 20.0955,-11.9480 26.7976 -21.3693c 1.7467,-0.0610 3.4933,-0.1220 5.2400 -0.1830c -6.7611,10.5418 -16.4323,19.0387 -27.8796 24.3569c -1.3860,-0.9349 -2.7720,-1.8698 -4.1580 -2.8046ZM 585.1383,236.1970 c 0.4812,-1.6780 0.9623,-3.3561 1.4435 -5.0341c 7.8024,9.4960 13.0111,21.2041 14.5430 34.0412c -1.3187,1.0303 -2.6374,2.0606 -3.9561 3.0909c -0.9243,-11.9774 -5.2573,-22.9996 -12.0304 -32.0979ZM 588.2275,305.4929 c 5.7886,-9.4178 9.1268,-20.5033 9.1268 -32.3685c 0.0000,-0.2227 -0.0012,-0.4452 -0.0035 -0.6674c 1.3769,-1.0757 2.7538,-2.1515 4.1306 -3.2272c 0.0748,1.2886 0.1128,2.5872 0.1128 3.8946c 0.0000,11.6868 -3.0310,22.6657 -8.3499 32.1934c -1.6723,0.0584 -3.3445,0.1168 -5.0168 0.1752ZM 3.9685,309.3174 c -0.0000,6.1087 3.4357,11.9039 9.1889 14.7157c 132.0613,64.5441 264.1226,129.0882 396.1840 193.6324c 2.2394,1.0945 4.6990,1.6634 7.1916 1.6634c 39.6398,-0.0000 79.2796,-0.0000 118.9194 0.0000c 39.6398,-0.0000 79.2796,-0.0000 118.9194 0.0000c 2.4926,-0.0000 4.9522,-0.5689 7.1916 -1.6634c 132.0614,-64.5441 264.1227,-129.0882 396.1840 -193.6324c 5.7532,-2.8119 9.1889,-8.6070 9.1889 -14.7157c 0.0000,-1.7269 -0.2746,-3.4789 -0.8490 -5.1956c -32.2296,-96.3240 -64.4591,-192.6480 -96.6887 -288.9721c -2.2347,-6.6788 -8.4889,-11.1811 -15.5316 -11.1811c -139.4715,-0.0000 -278.9431,-0.0000 -418.4147 0.0000c -139.4715,-0.0000 -278.9431,-0.0000 -418.4147 0.0000c -7.0427,-0.0000 -13.2969,4.5024 -15.5316 11.1811c -32.2296,96.3241 -64.4592,192.6481 -96.6887 288.9721c -0.5744,1.7167 -0.8490,3.4687 -0.8490 5.1956ZM 18.4593,305.5390 c 0.0000,-3.1311 2.5382,-5.6693 5.6693 -5.6693c 3.1311,-0.0000 5.6693,2.5382 5.6693 5.6693c 0.0000,3.1311 -2.5382,5.6693 -5.6693 5.6693c -3.1311,-0.0000 -5.6693,-2.5382 -5.6693 -5.6693ZM 40.0777,306.0589 c -0.0000,-0.3976 0.0632,-0.8019 0.1963 -1.1997c 7.5948,-22.6984 15.1895,-45.3968 22.7843 -68.0952c 0.0005,-0.0016 0.0011,-0.0033 0.0017 -0.0049c 0.2878,-0.8602 0.5756,-1.7204 0.8634 -2.5806c 7.3071,-21.8386 14.6142,-43.6773 21.9213 -65.5159c 0.0004,-0.0012 0.0008,-0.0023 0.0012 -0.0036c 0.2878,-0.8602 0.5757,-1.7204 0.8635 -2.5807c 7.3069,-21.8381 14.6139,-43.6762 21.9208 -65.5143c 0.0006,-0.0017 0.0011,-0.0034 0.0017 -0.0051c 0.2878,-0.8602 0.5757,-1.7204 0.8635 -2.5807c 7.5953,-22.7000 15.1906,-45.4000 22.7860 -68.1001c 0.6623,-1.9795 2.8040,-3.0473 4.7834 -2.3850c 21.5053,7.1956 43.0106,14.3912 64.5159 21.5867c 0.7995,-2.3895 1.5990,-4.7790 2.3985 -7.1684c 0.6624,-1.9795 2.8040,-3.0473 4.7835 -2.3849c 21.5053,7.1956 43.0106,14.3911 64.5159 21.5867c 1.5990,-4.7789 3.1980,-9.5579 4.7970 -14.3369c 0.6624,-1.9795 2.8040,-3.0473 4.7835 -2.3850c 23.5603,7.8831 47.1205,15.7663 70.6807 23.6495c 1.5817,0.5292 2.5813,2.0029 2.5813 3.5837c 0.0000,0.3976 -0.0632,0.8019 -0.1963 1.1998c -1.9988,5.9737 -3.9975,11.9474 -5.9963 17.9211c 21.5053,7.1956 43.0106,14.3911 64.5159 21.5867c 1.5817,0.5293 2.5813,2.0030 2.5813 3.5837c 0.0000,0.3976 -0.0632,0.8019 -0.1963 1.1998c -1.5990,4.7790 -3.1980,9.5579 -4.7970 14.3369c 21.5053,7.1956 43.0106,14.3912 64.5159 21.5867c 1.5817,0.5292 2.5813,2.0029 2.5813 3.5837c 0.0000,0.3976 -0.0632,0.8019 -0.1963 1.1998c -7.5953,22.7000 -15.1907,45.4000 -22.7860 68.1001c -0.2878,0.8602 -0.5757,1.7204 -0.8635 2.5806c -7.3075,21.8398 -14.6150,43.6796 -21.9225 65.5195c -0.2878,0.8602 -0.5757,1.7204 -0.8634 2.5807c -0.0006,0.0018 -0.0012,0.0036 -0.0018 0.0054c -3.1095,9.2932 -6.2189,18.5865 -9.3284 27.8798c 21.5053,7.1956 43.0106,14.3911 64.5159 21.5867c 1.5817,0.5293 2.5813,2.0030 2.5813 3.5837c 0.0000,0.3976 -0.0633,0.8019 -0.1964 1.1998c -7.5953,22.7000 -15.1906,45.4001 -22.7860 68.1001c -0.2878,0.8602 -0.5756,1.7204 -0.8634 2.5807c -7.5953,22.7000 -15.1907,45.4000 -22.7860 68.1001c -0.6624,1.9795 -2.8040,3.0473 -4.7835 2.3850c -23.5602,-7.8831 -47.1205,-15.7663 -70.6807 -23.6494c -1.5817,-0.5293 -2.5813,-2.0030 -2.5813 -3.5838c 0.0000,-0.3976 0.0633,-0.8019 0.1964 -1.1997c 3.3979,-10.1553 6.7958,-20.3106 10.1937 -30.4659c -21.5053,-7.1956 -43.0106,-14.3911 -64.5159 -21.5867c -1.5817,-0.5293 -2.5813,-2.0030 -2.5813 -3.5837c 0.0000,-0.3976 0.0633,-0.8020 0.1964 -1.1998c 1.5990,-4.7790 3.1980,-9.5579 4.7970 -14.3369c -21.5053,-7.1956 -43.0106,-14.3912 -64.5159 -21.5867c -1.5817,-0.5293 -2.5813,-2.0029 -2.5813 -3.5837c 0.0000,-0.3976 0.0633,-0.8019 0.1964 -1.1998c 1.9988,-5.9737 3.9975,-11.9474 5.9963 -17.9211c -19.4503,-6.5080 -38.9007,-13.0160 -58.3510 -19.5240c -1.5990,4.7790 -3.1980,9.5579 -4.7970 14.3369c -0.6624,1.9795 -2.8040,3.0473 -4.7835 2.3850c -21.5053,-7.1956 -43.0106,-14.3911 -64.5159 -21.5867c -0.7995,2.3895 -1.5990,4.7790 -2.3985 7.1684c -0.6623,1.9795 -2.8040,3.0473 -4.7834 2.3850c -23.5603,-7.8831 -47.1205,-15.7663 -70.6807 -23.6495c -1.5817,-0.5292 -2.5813,-2.0029 -2.5813 -3.5837ZM 115.1480,24.1260 c 0.0000,-3.1310 2.5382,-5.6693 5.6693 -5.6693c 3.1311,-0.0000 5.6693,2.5382 5.6693 5.6693c 0.0000,3.1311 -2.5382,5.6693 -5.6693 5.6693c -3.1310,-0.0000 -5.6693,-2.5382 -5.6693 -5.6693ZM 410.8637,499.1714 c 0.0000,-3.1311 2.5382,-5.6693 5.6693 -5.6693c 3.1310,-0.0000 5.6693,2.5382 5.6693 5.6693c 0.0000,3.1310 -2.5382,5.6693 -5.6693 5.6693c -3.1311,-0.0000 -5.6693,-2.5382 -5.6693 -5.6693ZM 416.3973,24.1260 c 0.0000,-3.1310 2.5382,-5.6693 5.6693 -5.6693c 3.1310,-0.0000 5.6693,2.5382 5.6693 5.6693c 0.0000,3.1311 -2.5382,5.6693 -5.6693 5.6693c -3.1311,-0.0000 -5.6693,-2.5382 -5.6693 -5.6693ZM 580.6403,349.6591 c -0.0000,-1.5808 0.9996,-3.0545 2.5813 -3.5837c 21.5053,-7.1956 43.0106,-14.3911 64.5159 -21.5867c -3.1101,-9.2951 -6.2202,-18.5902 -9.3303 -27.8852c -0.2878,-0.8602 -0.5756,-1.7204 -0.8634 -2.5807c -7.3075,-21.8398 -14.6150,-43.6796 -21.9225 -65.5195c -0.2878,-0.8602 -0.5757,-1.7204 -0.8635 -2.5806c -0.0005,-0.0016 -0.0011,-0.0033 -0.0017 -0.0049c -7.5948,-22.6984 -15.1895,-45.3968 -22.7843 -68.0951c -0.1331,-0.3978 -0.1963,-0.8022 -0.1963 -1.1998c 0.0000,-1.5808 0.9996,-3.0545 2.5813 -3.5837c 21.5053,-7.1956 43.0106,-14.3911 64.5159 -21.5867c -1.5991,-4.7789 -3.1981,-9.5579 -4.7971 -14.3369c -0.1331,-0.3978 -0.1963,-0.8022 -0.1963 -1.1998c 0.0000,-1.5808 0.9996,-3.0545 2.5813 -3.5837c 21.5053,-7.1956 43.0106,-14.3911 64.5159 -21.5867c -1.9988,-5.9737 -3.9976,-11.9474 -5.9963 -17.9211c -0.1331,-0.3978 -0.1963,-0.8022 -0.1963 -1.1998c 0.0000,-1.5808 0.9996,-3.0545 2.5813 -3.5837c 23.5603,-7.8831 47.1205,-15.7663 70.6807 -23.6495c 1.9795,-0.6623 4.1211,0.4054 4.7835 2.3850c 1.5990,4.7790 3.1980,9.5579 4.7970 14.3369c 21.5053,-7.1956 43.0106,-14.3911 64.5159 -21.5867c 1.9795,-0.6624 4.1211,0.4054 4.7835 2.3849c 0.7995,2.3895 1.5990,4.7790 2.3985 7.1684c 21.5053,-7.1956 43.0106,-14.3911 64.5159 -21.5867c 1.9795,-0.6623 4.1211,0.4054 4.7834 2.3850c 7.5954,22.7000 15.1907,45.4001 22.7860 68.1001c 0.2878,0.8602 0.5757,1.7204 0.8635 2.5807c 7.3075,21.8398 14.6150,43.6796 21.9225 65.5194c 0.2878,0.8602 0.5757,1.7204 0.8635 2.5807c 7.3075,21.8398 14.6150,43.6796 21.9225 65.5195c 0.2878,0.8602 0.5756,1.7204 0.8634 2.5806c 7.5953,22.7000 15.1907,45.4001 22.7860 68.1001c 0.1331,0.3978 0.1963,0.8021 0.1963 1.1997c 0.0000,1.5808 -0.9996,3.0545 -2.5813 3.5837c -23.5602,7.8831 -47.1205,15.7663 -70.6807 23.6495c -1.9795,0.6623 -4.1211,-0.4054 -4.7834 -2.3850c -0.7995,-2.3895 -1.5990,-4.7790 -2.3985 -7.1684c -21.5053,7.1956 -43.0106,14.3912 -64.5159 21.5867c -1.9795,0.6624 -4.1211,-0.4054 -4.7835 -2.3850c -1.5990,-4.7789 -3.1980,-9.5579 -4.7970 -14.3369c -19.4503,6.5080 -38.9007,13.0160 -58.3510 19.5240c 1.9988,5.9737 3.9975,11.9474 5.9963 17.9211c 0.1331,0.3978 0.1964,0.8022 0.1964 1.1998c 0.0000,1.5808 -0.9996,3.0545 -2.5813 3.5837c -21.5053,7.1956 -43.0106,14.3911 -64.5159 21.5867c 1.5990,4.7789 3.1980,9.5579 4.7970 14.3369c 0.1331,0.3978 0.1964,0.8022 0.1964 1.1998c 0.0000,1.5808 -0.9996,3.0545 -2.5813 3.5837c -21.5053,7.1956 -43.0106,14.3911 -64.5159 21.5867c 3.3979,10.1553 6.7958,20.3106 10.1937 30.4659c 0.1331,0.3978 0.1964,0.8021 0.1964 1.1997c 0.0000,1.5808 -0.9996,3.0545 -2.5813 3.5838c -23.5603,7.8831 -47.1205,15.7663 -70.6807 23.6494c -1.9795,0.6624 -4.1211,-0.4054 -4.7835 -2.3850c -7.5953,-22.7000 -15.1907,-45.4000 -22.7860 -68.1001c -0.2878,-0.8602 -0.5756,-1.7204 -0.8634 -2.5807c -0.0003,-0.0010 -0.0007,-0.0020 -0.0010 -0.0030c -7.5950,-22.6990 -15.1900,-45.3981 -22.7850 -68.0971c -0.1331,-0.3978 -0.1964,-0.8022 -0.1964 -1.1998ZM 643.1690,24.1260 c 0.0000,-3.1310 2.5382,-5.6693 5.6693 -5.6693c 3.1311,-0.0000 5.6693,2.5382 5.6693 5.6693c 0.0000,3.1311 -2.5382,5.6693 -5.6693 5.6693c -3.1310,-0.0000 -5.6693,-2.5382 -5.6693 -5.6693ZM 648.7026,499.1714 c 0.0000,-3.1311 2.5382,-5.6693 5.6693 -5.6693c 3.1311,-0.0000 5.6693,2.5382 5.6693 5.6693c 0.0000,3.1310 -2.5382,5.6693 -5.6693 5.6693c -3.1310,-0.0000 -5.6693,-2.5382 -5.6693 -5.6693ZM 944.4183,24.1260 c 0.0000,-3.1310 2.5382,-5.6693 5.6693 -5.6693c 3.1310,-0.0000 5.6693,2.5382 5.6693 5.6693c 0.0000,3.1311 -2.5382,5.6693 -5.6693 5.6693c -3.1311,-0.0000 -5.6693,-2.5382 -5.6693 -5.6693ZM 1041.1070,305.5390 c 0.0000,-3.1311 2.5382,-5.6693 5.6693 -5.6693c 3.1311,-0.0000 5.6693,2.5382 5.6693 5.6693c 0.0000,3.1311 -2.5382,5.6693 -5.6693 5.6693c -3.1311,-0.0000 -5.6693,-2.5382 -5.6693 -5.6693Z"/></g></svg>