<?xml version="1.0" encoding="UTF-8"?>
<!DOCTYPE svg PUBLIC "-//W3C//DTD SVG 1.1//EN"
    "http://www.w3.org/Graphics/SVG/1.1/DTD/svg11.dtd"><svg xmlns="http://www.w3.org/2000/svg" height="643.7038" stroke-opacity="1" viewBox="0 0 970 644" font-size="1" width="970.3433" xmlns:xlink="http://www.w3.org/1999/xlink" stroke="rgb(0,0,0)" version="1.1"><defs></defs><defs><linearGradient x2="63.6592" y1="0.0000" gradientUnits="userSpaceOnUse" spreadMethod="pad" gradientTransform="matrix(3.7795,-0.0000,0.0000,-3.7795,485.1716,565.4613)" id="gradient0" y2="0.0000" x1="-63.6592"><stop stop-opacity="1.0000" offset="0.0000" stop-color="rgb(128,128,128)"/><stop stop-opacity="1.0000" offset="0.5000" stop-color="rgb(255,255,255)"/><stop stop-opacity="1.0000" offset="1.0000" stop-color="rgb(128,128,128)"/></linearGradient></defs><g stroke-linejoin="miter" stroke-opacity="1.0" fill-opacity="1" stroke="rgb(0,0,0)" stroke-width="0.37795275590551186" fill="url(#gradient0)" stroke-linecap="butt" stroke-miterlimit="10.0"><path d="M 3.9685,511.3447 c 0.0000,-9.0453 7.3326,-16.3779 16.3779 -16.3779c 154.9417,-0.0000 309.8835,-0.0000 464.8252 -0.0000c 154.9417,-0.0000 309.8835,-0.0000 464.8252 -0.0000c 9.0453,-0.0000 16.3779,7.3326 16.3779 16.3779c 0.0000,30.1984 0.0000,60.3968 0.0000 90.5953c 0.0000,8.7192 -6.8312,15.9099 -15.5390 16.3565c -139.1937,7.1391 -278.3874,14.2782 -417.5811 21.4173c -0.2794,0.0143 -0.5591,0.0215 -0.8389 0.0215c -15.7480,-0.0000 -31.4960,-0.0000 -47.2441 -0.0000c -15.7480,-0.0000 -31.4960,-0.0000 -47.2441 -0.0000c -0.2798,-0.0000 -0.5595,-0.0072 -0.8389 -0.0215c -139.1937,-7.1391 -278.3874,-14.2782 -417.5811 -21.4173c -8.7078,-0.4466 -15.5390,-7.6372 -15.5390 -16.3565c 0.0000,-30.1984 0.0000,-60.3968 0.0000 -90.5953ZM 18.4567,515.1243 c 0.0000,3.1311 2.5382,5.6693 5.6693 5.6693c 3.1311,-0.0000 5.6693,-2.5382 5.6693 -5.6693c 0.0000,-3.1311 -2.5382,-5.6693 -5.6693 -5.6693c -3.1311,-0.0000 -5.6693,2.5382 -5.6693 5.6693ZM 18.4567,598.1605 c 0.0000,3.1311 2.5382,5.6693 5.6693 5.6693c 3.1311,-0.0000 5.6693,-2.5382 5.6693 -5.6693c 0.0000,-3.1311 -2.5382,-5.6693 -5.6693 -5.6693c -3.1311,-0.0000 -5.6693,2.5382 -5.6693 5.6693ZM 432.2583,515.1243 c 0.0000,3.1311 2.5382,5.6693 5.6693 5.6693c 3.1311,-0.0000 5.6693,-2.5382 5.6693 -5.6693c 0.0000,-3.1311 -2.5382,-5.6693 -5.6693 -5.6693c -3.1311,-0.0000 -5.6693,2.5382 -5.6693 5.6693ZM 432.2583,619.5778 c 0.0000,3.1311 2.5382,5.6693 5.6693 5.6693c 3.1311,-0.0000 5.6693,-2.5382 5.6693 -5.6693c 0.0000,-3.1311 -2.5382,-5.6693 -5.6693 -5.6693c -3.1311,-0.0000 -5.6693,2.5382 -5.6693 5.6693ZM 526.7464,515.1243 c 0.0000,3.1311 2.5382,5.6693 5.6693 5.6693c 3.1311,-0.0000 5.6693,-2.5382 5.6693 -5.6693c 0.0000,-3.1311 -2.5382,-5.6693 -5.6693 -5.6693c -3.1311,-0.0000 -5.6693,2.5382 -5.6693 5.6693ZM 526.7464,619.5778 c 0.0000,3.1311 2.5382,5.6693 5.6693 5.6693c 3.1311,-0.0000 5.6693,-2.5382 5.6693 -5.6693c 0.0000,-3.1311 -2.5382,-5.6693 -5.6693 -5.6693c -3.1311,-0.0000 -5.6693,2.5382 -5.6693 5.6693ZM 940.5480,515.1243 c 0.0000,3.1311 2.5382,5.6693 5.6693 5.6693c 3.1311,-0.0000 5.6693,-2.5382 5.6693 -5.6693c 0.0000,-3.1311 -2.5382,-5.6693 -5.6693 -5.6693c -3.1311,-0.0000 -5.6693,2.5382 -5.6693 5.6693ZM 940.5480,598.1605 c 0.0000,3.1311 2.5382,5.6693 5.6693 5.6693c 3.1311,-0.0000 5.6693,-2.5382 5.6693 -5.6693c 0.0000,-3.1311 -2.5382,-5.6693 -5.6693 -5.6693c -3.1311,-0.0000 -5.6693,2.5382 -5.6693 5.6693Z"/></g><g stroke-linejoin="miter" stroke-opacity="1.0" fill-opacity="0.5" stroke="rgb(0,0,0)" stroke-width="0.37795275590551186" fill="rgb(255,255,0)" stroke-linecap="butt" stroke-miterlimit="10.0"><path d="M 3.9685,347.6786 c 0.0000,-9.0453 7.3326,-16.3779 16.3779 -16.3779c 154.9417,-0.0000 309.8835,-0.0000 464.8252 -0.0000c 154.9417,-0.0000 309.8835,-0.0000 464.8252 -0.0000c 9.0453,-0.0000 16.3779,7.3326 16.3779 16.3779c 0.0000,30.1984 0.0000,60.3968 0.0000 90.5953c 0.0000,8.7192 -6.8312,15.9099 -15.5390 16.3565c -139.1937,7.1391 -278.3874,14.2782 -417.5811 21.4173c -0.2794,0.0143 -0.5591,0.0215 -0.8389 0.0215c -15.7480,-0.0000 -31.4960,-0.0000 -47.2441 -0.0000c -15.7480,-0.0000 -31.4960,-0.0000 -47.2441 -0.0000c -0.2798,-0.0000 -0.5595,-0.0072 -0.8389 -0.0215c -139.1937,-7.1391 -278.3874,-14.2782 -417.5811 -21.4173c -8.7078,-0.4466 -15.5390,-7.6372 -15.5390 -16.3565c 0.0000,-30.1984 0.0000,-60.3968 0.0000 -90.5953ZM 18.4567,351.4582 c 0.0000,3.1311 2.5382,5.6693 5.6693 5.6693c 3.1311,-0.0000 5.6693,-2.5382 5.6693 -5.6693c 0.0000,-3.1311 -2.5382,-5.6693 -5.6693 -5.6693c -3.1311,-0.0000 -5.6693,2.5382 -5.6693 5.6693ZM 18.4567,434.4944 c 0.0000,3.1311 2.5382,5.6693 5.6693 5.6693c 3.1311,-0.0000 5.6693,-2.5382 5.6693 -5.6693c 0.0000,-3.1311 -2.5382,-5.6693 -5.6693 -5.6693c -3.1311,-0.0000 -5.6693,2.5382 -5.6693 5.6693ZM 26.6457,367.6435 c 0.0000,16.8885 0.0000,33.7770 0.0000 50.6656c 7.8490,1.2120 13.8583,7.9969 13.8583 16.1853c 0.0000,1.4059 -0.1771,2.7704 -0.5103 4.0725c 0.4793,0.0502 0.9659,0.0847 1.4588 0.1029c 126.8020,4.6869 253.6039,9.3739 380.4059 14.0608c 1.4808,-7.5226 8.1124,-13.1968 16.0692 -13.1968c 8.1884,-0.0000 14.9733,6.0092 16.1853 13.8583c 10.3529,-0.0000 20.7058,-0.0000 31.0588 -0.0000c 10.3530,-0.0000 20.7059,-0.0000 31.0588 -0.0000c 1.2120,-7.8490 7.9969,-13.8583 16.1853 -13.8583c 7.9569,-0.0000 14.5884,5.6741 16.0692 13.1968c 126.8020,-4.6869 253.6039,-9.3739 380.4059 -14.0608c 0.4929,-0.0182 0.9795,-0.0528 1.4588 -0.1030c -0.3332,-1.3020 -0.5103,-2.6665 -0.5103 -4.0724c 0.0000,-8.1884 6.0092,-14.9733 13.8583 -16.1853c 0.0000,-16.8885 0.0000,-33.7770 0.0000 -50.6656c -6.9985,-1.0807 -12.5344,-6.5920 -13.6519 -13.5783c -0.6402,-0.0576 -1.2924,-0.0873 -1.9542 -0.0873c -126.4968,-0.0000 -252.9936,-0.0000 -379.4904 -0.0000c -1.2120,7.8490 -7.9969,13.8583 -16.1854 13.8583c -8.1884,-0.0000 -14.9733,-6.0092 -16.1853 -13.8583c -10.3529,-0.0000 -20.7059,-0.0000 -31.0588 -0.0000c -10.3529,-0.0000 -20.7059,-0.0000 -31.0588 -0.0000c -1.2120,7.8490 -7.9969,13.8583 -16.1853 13.8583c -8.1885,-0.0000 -14.9734,-6.0092 -16.1854 -13.8583c -126.4968,-0.0000 -252.9936,-0.0000 -379.4904 -0.0000c -0.6619,-0.0000 -1.3141,0.0297 -1.9542 0.0873c -1.1175,6.9863 -6.6534,12.4976 -13.6519 13.5783ZM 432.2583,351.4582 c 0.0000,3.1311 2.5382,5.6693 5.6693 5.6693c 3.1311,-0.0000 5.6693,-2.5382 5.6693 -5.6693c 0.0000,-3.1311 -2.5382,-5.6693 -5.6693 -5.6693c -3.1311,-0.0000 -5.6693,2.5382 -5.6693 5.6693ZM 432.2583,455.9117 c 0.0000,3.1311 2.5382,5.6693 5.6693 5.6693c 3.1311,-0.0000 5.6693,-2.5382 5.6693 -5.6693c 0.0000,-3.1311 -2.5382,-5.6693 -5.6693 -5.6693c -3.1311,-0.0000 -5.6693,2.5382 -5.6693 5.6693ZM 526.7464,351.4582 c 0.0000,3.1311 2.5382,5.6693 5.6693 5.6693c 3.1311,-0.0000 5.6693,-2.5382 5.6693 -5.6693c 0.0000,-3.1311 -2.5382,-5.6693 -5.6693 -5.6693c -3.1311,-0.0000 -5.6693,2.5382 -5.6693 5.6693ZM 526.7464,455.9117 c 0.0000,3.1311 2.5382,5.6693 5.6693 5.6693c 3.1311,-0.0000 5.6693,-2.5382 5.6693 -5.6693c 0.0000,-3.1311 -2.5382,-5.6693 -5.6693 -5.6693c -3.1311,-0.0000 -5.6693,2.5382 -5.6693 5.6693ZM 940.5480,351.4582 c 0.0000,3.1311 2.5382,5.6693 5.6693 5.6693c 3.1311,-0.0000 5.6693,-2.5382 5.6693 -5.6693c 0.0000,-3.1311 -2.5382,-5.6693 -5.6693 -5.6693c -3.1311,-0.0000 -5.6693,2.5382 -5.6693 5.6693ZM 940.5480,434.4944 c 0.0000,3.1311 2.5382,5.6693 5.6693 5.6693c 3.1311,-0.0000 5.6693,-2.5382 5.6693 -5.6693c 0.0000,-3.1311 -2.5382,-5.6693 -5.6693 -5.6693c -3.1311,-0.0000 -5.6693,2.5382 -5.6693 5.6693Z"/></g><g stroke-linejoin="miter" stroke-opacity="1.0" fill-opacity="0.5" stroke="rgb(0,0,0)" stroke-width="0.37795275590551186" fill="rgb(0,0,0)" stroke-linecap="butt" stroke-miterlimit="10.0"><path d="M 3.9685,184.0125 c 0.0000,-9.0453 7.3326,-16.3779 16.3779 -16.3779c 154.9417,-0.0000 309.8835,-0.0000 464.8252 -0.0000c 154.9417,-0.0000 309.8835,-0.0000 464.8252 -0.0000c 9.0453,-0.0000 16.3779,7.3326 16.3779 16.3779c 0.0000,30.1984 0.0000,60.3968 0.0000 90.5953c 0.0000,8.7192 -6.8312,15.9099 -15.5390 16.3565c -139.1937,7.1391 -278.3874,14.2782 -417.5811 21.4173c -0.2794,0.0143 -0.5591,0.0215 -0.8389 0.0215c -15.7480,-0.0000 -31.4960,-0.0000 -47.2441 -0.0000c -15.7480,-0.0000 -31.4960,-0.0000 -47.2441 -0.0000c -0.2798,-0.0000 -0.5595,-0.0072 -0.8389 -0.0215c -139.1937,-7.1391 -278.3874,-14.2782 -417.5811 -21.4173c -8.7078,-0.4466 -15.5390,-7.6372 -15.5390 -16.3565c 0.0000,-30.1984 0.0000,-60.3968 0.0000 -90.5953ZM 18.4567,187.7921 c 0.0000,3.1311 2.5382,5.6693 5.6693 5.6693c 3.1311,-0.0000 5.6693,-2.5382 5.6693 -5.6693c 0.0000,-3.1311 -2.5382,-5.6693 -5.6693 -5.6693c -3.1311,-0.0000 -5.6693,2.5382 -5.6693 5.6693ZM 18.4567,270.8283 c 0.0000,3.1311 2.5382,5.6693 5.6693 5.6693c 3.1311,-0.0000 5.6693,-2.5382 5.6693 -5.6693c 0.0000,-3.1311 -2.5382,-5.6693 -5.6693 -5.6693c -3.1311,-0.0000 -5.6693,2.5382 -5.6693 5.6693ZM 49.4004,215.4347 c 0.0000,4.4096 0.0000,8.8191 0.0000 13.2287c 1.0240,-0.0000 2.0480,-0.0000 3.0720 -0.0000c 0.0000,6.3104 0.0000,12.6209 0.0000 18.9313c -1.0240,-0.0000 -2.0480,-0.0000 -3.0720 -0.0000c 0.0000,4.4096 0.0000,8.8191 0.0000 13.2287c 1.0240,-0.0000 2.0480,-0.0000 3.0720 -0.0000c 0.0000,1.2352 0.0000,2.4705 0.0000 3.7056c 17.6000,-0.0000 35.2000,-0.0000 52.8000 -0.0000c 0.0000,-1.2352 0.0000,-2.4704 0.0000 -3.7056c 1.0240,-0.0000 2.0480,-0.0000 3.0720 -0.0000c 0.0000,-4.4096 0.0000,-8.8191 0.0000 -13.2287c -1.0240,-0.0000 -2.0480,-0.0000 -3.0720 -0.0000c 0.0000,-6.3104 0.0000,-12.6209 0.0000 -18.9313c 1.0240,-0.0000 2.0480,-0.0000 3.0720 -0.0000c 0.0000,-4.4096 0.0000,-8.8191 0.0000 -13.2287c -1.0240,-0.0000 -2.0480,-0.0000 -3.0720 -0.0000c 0.0000,-1.2352 0.0000,-2.4705 0.0000 -3.7056c -17.6000,-0.0000 -35.2000,-0.0000 -52.8000 -0.0000c 0.0000,1.2352 0.0000,2.4704 0.0000 3.7056c -1.0240,-0.0000 -2.0480,-0.0000 -3.0720 -0.0000ZM 121.2115,215.4347 c 0.0000,4.4096 0.0000,8.8191 0.0000 13.2287c 1.0240,-0.0000 2.0480,-0.0000 3.0720 -0.0000c 0.0000,6.3104 0.0000,12.6209 0.0000 18.9313c -1.0240,-0.0000 -2.0480,-0.0000 -3.0720 -0.0000c 0.0000,4.4096 0.0000,8.8191 0.0000 13.2287c 1.0240,-0.0000 2.0480,-0.0000 3.0720 -0.0000c 0.0000,1.2352 0.0000,2.4705 0.0000 3.7056c 17.6000,-0.0000 35.2000,-0.0000 52.8000 -0.0000c 0.0000,-1.2352 0.0000,-2.4704 0.0000 -3.7056c 1.0240,-0.0000 2.0480,-0.0000 3.0720 -0.0000c 0.0000,-4.4096 0.0000,-8.8191 0.0000 -13.2287c -1.0240,-0.0000 -2.0480,-0.0000 -3.0720 -0.0000c 0.0000,-6.3104 0.0000,-12.6209 0.0000 -18.9313c 1.0240,-0.0000 2.0480,-0.0000 3.0720 -0.0000c 0.0000,-4.4096 0.0000,-8.8191 0.0000 -13.2287c -1.0240,-0.0000 -2.0480,-0.0000 -3.0720 -0.0000c 0.0000,-1.2352 0.0000,-2.4705 0.0000 -3.7056c -17.6000,-0.0000 -35.2000,-0.0000 -52.8000 -0.0000c 0.0000,1.2352 0.0000,2.4704 0.0000 3.7056c -1.0240,-0.0000 -2.0480,-0.0000 -3.0720 -0.0000ZM 193.0225,215.4347 c 0.0000,4.4096 0.0000,8.8191 0.0000 13.2287c 1.0240,-0.0000 2.0480,-0.0000 3.0720 -0.0000c 0.0000,6.3104 0.0000,12.6209 0.0000 18.9313c -1.0240,-0.0000 -2.0480,-0.0000 -3.0720 -0.0000c 0.0000,4.4096 0.0000,8.8191 0.0000 13.2287c 1.0240,-0.0000 2.0480,-0.0000 3.0720 -0.0000c 0.0000,1.2352 0.0000,2.4705 0.0000 3.7056c 17.6000,-0.0000 35.2000,-0.0000 52.8000 -0.0000c 0.0000,-1.2352 0.0000,-2.4704 0.0000 -3.7056c 1.0240,-0.0000 2.0480,-0.0000 3.0720 -0.0000c 0.0000,-4.4096 0.0000,-8.8191 0.0000 -13.2287c -1.0240,-0.0000 -2.0480,-0.0000 -3.0720 -0.0000c 0.0000,-6.3104 0.0000,-12.6209 0.0000 -18.9313c 1.0240,-0.0000 2.0480,-0.0000 3.0720 -0.0000c 0.0000,-4.4096 0.0000,-8.8191 0.0000 -13.2287c -1.0240,-0.0000 -2.0480,-0.0000 -3.0720 -0.0000c 0.0000,-1.2352 0.0000,-2.4705 0.0000 -3.7056c -17.6000,-0.0000 -35.2000,-0.0000 -52.8000 -0.0000c 0.0000,1.2352 0.0000,2.4704 0.0000 3.7056c -1.0240,-0.0000 -2.0480,-0.0000 -3.0720 -0.0000ZM 264.8335,215.4347 c 0.0000,4.4096 0.0000,8.8191 0.0000 13.2287c 1.0240,-0.0000 2.0480,-0.0000 3.0720 -0.0000c 0.0000,6.3104 0.0000,12.6209 0.0000 18.9313c -1.0240,-0.0000 -2.0480,-0.0000 -3.0720 -0.0000c 0.0000,4.4096 0.0000,8.8191 0.0000 13.2287c 1.0240,-0.0000 2.0480,-0.0000 3.0720 -0.0000c 0.0000,1.2352 0.0000,2.4705 0.0000 3.7056c 17.6000,-0.0000 35.2000,-0.0000 52.8000 -0.0000c 0.0000,-1.2352 0.0000,-2.4704 0.0000 -3.7056c 1.0240,-0.0000 2.0480,-0.0000 3.0720 -0.0000c 0.0000,-4.4096 0.0000,-8.8191 0.0000 -13.2287c -1.0240,-0.0000 -2.0480,-0.0000 -3.0720 -0.0000c 0.0000,-6.3104 0.0000,-12.6209 0.0000 -18.9313c 1.0240,-0.0000 2.0480,-0.0000 3.0720 -0.0000c 0.0000,-4.4096 0.0000,-8.8191 0.0000 -13.2287c -1.0240,-0.0000 -2.0480,-0.0000 -3.0720 -0.0000c 0.0000,-1.2352 0.0000,-2.4705 0.0000 -3.7056c -17.6000,-0.0000 -35.2000,-0.0000 -52.8000 -0.0000c 0.0000,1.2352 0.0000,2.4704 0.0000 3.7056c -1.0240,-0.0000 -2.0480,-0.0000 -3.0720 -0.0000ZM 336.6445,215.4347 c 0.0000,4.4096 0.0000,8.8191 0.0000 13.2287c 1.0240,-0.0000 2.0480,-0.0000 3.0720 -0.0000c 0.0000,6.3104 0.0000,12.6209 0.0000 18.9313c -1.0240,-0.0000 -2.0480,-0.0000 -3.0720 -0.0000c 0.0000,4.4096 0.0000,8.8191 0.0000 13.2287c 1.0240,-0.0000 2.0480,-0.0000 3.0720 -0.0000c 0.0000,1.2352 0.0000,2.4705 0.0000 3.7056c 17.6000,-0.0000 35.2000,-0.0000 52.8000 -0.0000c 0.0000,-1.2352 0.0000,-2.4704 0.0000 -3.7056c 1.0240,-0.0000 2.0480,-0.0000 3.0720 -0.0000c 0.0000,-4.4096 0.0000,-8.8191 0.0000 -13.2287c -1.0240,-0.0000 -2.0480,-0.0000 -3.0720 -0.0000c 0.0000,-6.3104 0.0000,-12.6209 0.0000 -18.9313c 1.0240,-0.0000 2.0480,-0.0000 3.0720 -0.0000c 0.0000,-4.4096 0.0000,-8.8191 0.0000 -13.2287c -1.0240,-0.0000 -2.0480,-0.0000 -3.0720 -0.0000c 0.0000,-1.2352 0.0000,-2.4705 0.0000 -3.7056c -17.6000,-0.0000 -35.2000,-0.0000 -52.8000 -0.0000c 0.0000,1.2352 0.0000,2.4704 0.0000 3.7056c -1.0240,-0.0000 -2.0480,-0.0000 -3.0720 -0.0000ZM 408.4555,215.4347 c 0.0000,4.4096 0.0000,8.8191 0.0000 13.2287c 1.0240,-0.0000 2.0480,-0.0000 3.0720 -0.0000c 0.0000,6.3104 0.0000,12.6209 0.0000 18.9313c -1.0240,-0.0000 -2.0480,-0.0000 -3.0720 -0.0000c 0.0000,4.4096 0.0000,8.8191 0.0000 13.2287c 1.0240,-0.0000 2.0480,-0.0000 3.0720 -0.0000c 0.0000,1.2352 0.0000,2.4705 0.0000 3.7056c 17.6000,-0.0000 35.2000,-0.0000 52.8000 -0.0000c 0.0000,-1.2352 0.0000,-2.4704 0.0000 -3.7056c 1.0240,-0.0000 2.0480,-0.0000 3.0720 -0.0000c 0.0000,-4.4096 0.0000,-8.8191 0.0000 -13.2287c -1.0240,-0.0000 -2.0480,-0.0000 -3.0720 -0.0000c 0.0000,-6.3104 0.0000,-12.6209 0.0000 -18.9313c 1.0240,-0.0000 2.0480,-0.0000 3.0720 -0.0000c 0.0000,-4.4096 0.0000,-8.8191 0.0000 -13.2287c -1.0240,-0.0000 -2.0480,-0.0000 -3.0720 -0.0000c 0.0000,-1.2352 0.0000,-2.4705 0.0000 -3.7056c -17.6000,-0.0000 -35.2000,-0.0000 -52.8000 -0.0000c 0.0000,1.2352 0.0000,2.4704 0.0000 3.7056c -1.0240,-0.0000 -2.0480,-0.0000 -3.0720 -0.0000ZM 432.2583,187.7921 c 0.0000,3.1311 2.5382,5.6693 5.6693 5.6693c 3.1311,-0.0000 5.6693,-2.5382 5.6693 -5.6693c 0.0000,-3.1311 -2.5382,-5.6693 -5.6693 -5.6693c -3.1311,-0.0000 -5.6693,2.5382 -5.6693 5.6693ZM 432.2583,292.2456 c 0.0000,3.1311 2.5382,5.6693 5.6693 5.6693c 3.1311,-0.0000 5.6693,-2.5382 5.6693 -5.6693c 0.0000,-3.1311 -2.5382,-5.6693 -5.6693 -5.6693c -3.1311,-0.0000 -5.6693,2.5382 -5.6693 5.6693ZM 502.9437,215.4347 c 0.0000,4.4096 0.0000,8.8191 0.0000 13.2287c 1.0240,-0.0000 2.0480,-0.0000 3.0720 -0.0000c 0.0000,6.3104 0.0000,12.6209 0.0000 18.9313c -1.0240,-0.0000 -2.0480,-0.0000 -3.0720 -0.0000c 0.0000,4.4096 0.0000,8.8191 0.0000 13.2287c 1.0240,-0.0000 2.0480,-0.0000 3.0720 -0.0000c 0.0000,1.2352 0.0000,2.4705 0.0000 3.7056c 17.6000,-0.0000 35.2000,-0.0000 52.8000 -0.0000c 0.0000,-1.2352 0.0000,-2.4704 0.0000 -3.7056c 1.0240,-0.0000 2.0480,-0.0000 3.0720 -0.0000c 0.0000,-4.4096 0.0000,-8.8191 0.0000 -13.2287c -1.0240,-0.0000 -2.0480,-0.0000 -3.0720 -0.0000c 0.0000,-6.3104 0.0000,-12.6209 0.0000 -18.9313c 1.0240,-0.0000 2.0480,-0.0000 3.0720 -0.0000c 0.0000,-4.4096 0.0000,-8.8191 0.0000 -13.2287c -1.0240,-0.0000 -2.0480,-0.0000 -3.0720 -0.0000c 0.0000,-1.2352 0.0000,-2.4705 0.0000 -3.7056c -17.6000,-0.0000 -35.2000,-0.0000 -52.8000 -0.0000c 0.0000,1.2352 0.0000,2.4704 0.0000 3.7056c -1.0240,-0.0000 -2.0480,-0.0000 -3.0720 -0.0000ZM 526.7464,187.7921 c 0.0000,3.1311 2.5382,5.6693 5.6693 5.6693c 3.1311,-0.0000 5.6693,-2.5382 5.6693 -5.6693c 0.0000,-3.1311 -2.5382,-5.6693 -5.6693 -5.6693c -3.1311,-0.0000 -5.6693,2.5382 -5.6693 5.6693ZM 526.7464,292.2456 c 0.0000,3.1311 2.5382,5.6693 5.6693 5.6693c 3.1311,-0.0000 5.6693,-2.5382 5.6693 -5.6693c 0.0000,-3.1311 -2.5382,-5.6693 -5.6693 -5.6693c -3.1311,-0.0000 -5.6693,2.5382 -5.6693 5.6693ZM 574.7547,215.4347 c 0.0000,4.4096 0.0000,8.8191 0.0000 13.2287c 1.0240,-0.0000 2.0480,-0.0000 3.0720 -0.0000c 0.0000,6.3104 0.0000,12.6209 0.0000 18.9313c -1.0240,-0.0000 -2.0480,-0.0000 -3.0720 -0.0000c 0.0000,4.4096 0.0000,8.8191 0.0000 13.2287c 1.0240,-0.0000 2.0480,-0.0000 3.0720 -0.0000c 0.0000,1.2352 0.0000,2.4705 0.0000 3.7056c 17.6000,-0.0000 35.2000,-0.0000 52.8000 -0.0000c 0.0000,-1.2352 0.0000,-2.4704 0.0000 -3.7056c 1.0240,-0.0000 2.0480,-0.0000 3.0720 -0.0000c 0.0000,-4.4096 0.0000,-8.8191 0.0000 -13.2287c -1.0240,-0.0000 -2.0480,-0.0000 -3.0720 -0.0000c 0.0000,-6.3104 0.0000,-12.6209 0.0000 -18.9313c 1.0240,-0.0000 2.0480,-0.0000 3.0720 -0.0000c 0.0000,-4.4096 0.0000,-8.8191 0.0000 -13.2287c -1.0240,-0.0000 -2.0480,-0.0000 -3.0720 -0.0000c 0.0000,-1.2352 0.0000,-2.4705 0.0000 -3.7056c -17.6000,-0.0000 -35.2000,-0.0000 -52.8000 -0.0000c 0.0000,1.2352 0.0000,2.4704 0.0000 3.7056c -1.0240,-0.0000 -2.0480,-0.0000 -3.0720 -0.0000ZM 646.5658,215.4347 c 0.0000,4.4096 0.0000,8.8191 0.0000 13.2287c 1.0240,-0.0000 2.0480,-0.0000 3.0720 -0.0000c 0.0000,6.3104 0.0000,12.6209 0.0000 18.9313c -1.0240,-0.0000 -2.0480,-0.0000 -3.0720 -0.0000c 0.0000,4.4096 0.0000,8.8191 0.0000 13.2287c 1.0240,-0.0000 2.0480,-0.0000 3.0720 -0.0000c 0.0000,1.2352 0.0000,2.4705 0.0000 3.7056c 17.6000,-0.0000 35.2000,-0.0000 52.8000 -0.0000c 0.0000,-1.2352 0.0000,-2.4704 0.0000 -3.7056c 1.0240,-0.0000 2.0480,-0.0000 3.0720 -0.0000c 0.0000,-4.4096 0.0000,-8.8191 0.0000 -13.2287c -1.0240,-0.0000 -2.0480,-0.0000 -3.0720 -0.0000c 0.0000,-6.3104 0.0000,-12.6209 0.0000 -18.9313c 1.0240,-0.0000 2.0480,-0.0000 3.0720 -0.0000c 0.0000,-4.4096 0.0000,-8.8191 0.0000 -13.2287c -1.0240,-0.0000 -2.0480,-0.0000 -3.0720 -0.0000c 0.0000,-1.2352 0.0000,-2.4705 0.0000 -3.7056c -17.6000,-0.0000 -35.2000,-0.0000 -52.8000 -0.0000c 0.0000,1.2352 0.0000,2.4704 0.0000 3.7056c -1.0240,-0.0000 -2.0480,-0.0000 -3.0720 -0.0000ZM 718.3768,215.4347 c 0.0000,4.4096 0.0000,8.8191 0.0000 13.2287c 1.0240,-0.0000 2.0480,-0.0000 3.0720 -0.0000c 0.0000,6.3104 0.0000,12.6209 0.0000 18.9313c -1.0240,-0.0000 -2.0480,-0.0000 -3.0720 -0.0000c 0.0000,4.4096 0.0000,8.8191 0.0000 13.2287c 1.0240,-0.0000 2.0480,-0.0000 3.0720 -0.0000c 0.0000,1.2352 0.0000,2.4705 0.0000 3.7056c 17.6000,-0.0000 35.2000,-0.0000 52.8000 -0.0000c 0.0000,-1.2352 0.0000,-2.4704 0.0000 -3.7056c 1.0240,-0.0000 2.0480,-0.0000 3.0720 -0.0000c 0.0000,-4.4096 0.0000,-8.8191 0.0000 -13.2287c -1.0240,-0.0000 -2.0480,-0.0000 -3.0720 -0.0000c 0.0000,-6.3104 0.0000,-12.6209 0.0000 -18.9313c 1.0240,-0.0000 2.0480,-0.0000 3.0720 -0.0000c 0.0000,-4.4096 0.0000,-8.8191 0.0000 -13.2287c -1.0240,-0.0000 -2.0480,-0.0000 -3.0720 -0.0000c 0.0000,-1.2352 0.0000,-2.4705 0.0000 -3.7056c -17.6000,-0.0000 -35.2000,-0.0000 -52.8000 -0.0000c 0.0000,1.2352 0.0000,2.4704 0.0000 3.7056c -1.0240,-0.0000 -2.0480,-0.0000 -3.0720 -0.0000ZM 790.1878,215.4347 c 0.0000,4.4096 0.0000,8.8191 0.0000 13.2287c 1.0240,-0.0000 2.0480,-0.0000 3.0720 -0.0000c 0.0000,6.3104 0.0000,12.6209 0.0000 18.9313c -1.0240,-0.0000 -2.0480,-0.0000 -3.0720 -0.0000c 0.0000,4.4096 0.0000,8.8191 0.0000 13.2287c 1.0240,-0.0000 2.0480,-0.0000 3.0720 -0.0000c 0.0000,1.2352 0.0000,2.4705 0.0000 3.7056c 17.6000,-0.0000 35.2000,-0.0000 52.8000 -0.0000c 0.0000,-1.2352 0.0000,-2.4704 0.0000 -3.7056c 1.0240,-0.0000 2.0480,-0.0000 3.0720 -0.0000c 0.0000,-4.4096 0.0000,-8.8191 0.0000 -13.2287c -1.0240,-0.0000 -2.0480,-0.0000 -3.0720 -0.0000c 0.0000,-6.3104 0.0000,-12.6209 0.0000 -18.9313c 1.0240,-0.0000 2.0480,-0.0000 3.0720 -0.0000c 0.0000,-4.4096 0.0000,-8.8191 0.0000 -13.2287c -1.0240,-0.0000 -2.0480,-0.0000 -3.0720 -0.0000c 0.0000,-1.2352 0.0000,-2.4705 0.0000 -3.7056c -17.6000,-0.0000 -35.2000,-0.0000 -52.8000 -0.0000c 0.0000,1.2352 0.0000,2.4704 0.0000 3.7056c -1.0240,-0.0000 -2.0480,-0.0000 -3.0720 -0.0000ZM 861.9989,215.4347 c 0.0000,4.4096 0.0000,8.8191 0.0000 13.2287c 1.0240,-0.0000 2.0480,-0.0000 3.0720 -0.0000c 0.0000,6.3104 0.0000,12.6209 0.0000 18.9313c -1.0240,-0.0000 -2.0480,-0.0000 -3.0720 -0.0000c 0.0000,4.4096 0.0000,8.8191 0.0000 13.2287c 1.0240,-0.0000 2.0480,-0.0000 3.0720 -0.0000c 0.0000,1.2352 0.0000,2.4705 0.0000 3.7056c 17.6000,-0.0000 35.2000,-0.0000 52.8000 -0.0000c 0.0000,-1.2352 0.0000,-2.4704 0.0000 -3.7056c 1.0240,-0.0000 2.0480,-0.0000 3.0720 -0.0000c 0.0000,-4.4096 0.0000,-8.8191 0.0000 -13.2287c -1.0240,-0.0000 -2.0480,-0.0000 -3.0720 -0.0000c 0.0000,-6.3104 0.0000,-12.6209 0.0000 -18.9313c 1.0240,-0.0000 2.0480,-0.0000 3.0720 -0.0000c 0.0000,-4.4096 0.0000,-8.8191 0.0000 -13.2287c -1.0240,-0.0000 -2.0480,-0.0000 -3.0720 -0.0000c 0.0000,-1.2352 0.0000,-2.4705 0.0000 -3.7056c -17.6000,-0.0000 -35.2000,-0.0000 -52.8000 -0.0000c 0.0000,1.2352 0.0000,2.4704 0.0000 3.7056c -1.0240,-0.0000 -2.0480,-0.0000 -3.0720 -0.0000ZM 940.5480,187.7921 c 0.0000,3.1311 2.5382,5.6693 5.6693 5.6693c 3.1311,-0.0000 5.6693,-2.5382 5.6693 -5.6693c 0.0000,-3.1311 -2.5382,-5.6693 -5.6693 -5.6693c -3.1311,-0.0000 -5.6693,2.5382 -5.6693 5.6693ZM 940.5480,270.8283 c 0.0000,3.1311 2.5382,5.6693 5.6693 5.6693c 3.1311,-0.0000 5.6693,-2.5382 5.6693 -5.6693c 0.0000,-3.1311 -2.5382,-5.6693 -5.6693 -5.6693c -3.1311,-0.0000 -5.6693,2.5382 -5.6693 5.6693Z"/></g><g stroke-linejoin="miter" stroke-opacity="1.0" fill-opacity="0.5" stroke="rgb(0,0,0)" stroke-width="0.37795275590551186" fill="rgb(0,0,255)" stroke-linecap="butt" stroke-miterlimit="10.0"><path d="M 3.9685,20.3464 c 0.0000,-9.0453 7.3326,-16.3779 16.3779 -16.3779c 154.9417,-0.0000 309.8835,-0.0000 464.8252 -0.0000c 154.9417,-0.0000 309.8835,-0.0000 464.8252 -0.0000c 9.0453,-0.0000 16.3779,7.3326 16.3779 16.3779c 0.0000,30.1984 0.0000,60.3968 0.0000 90.5953c 0.0000,8.7192 -6.8312,15.9099 -15.5390 16.3565c -139.1937,7.1391 -278.3874,14.2782 -417.5811 21.4173c -0.2794,0.0143 -0.5591,0.0215 -0.8389 0.0215c -15.7480,-0.0000 -31.4960,-0.0000 -47.2441 -0.0000c -15.7480,-0.0000 -31.4960,-0.0000 -47.2441 -0.0000c -0.2798,-0.0000 -0.5595,-0.0072 -0.8389 -0.0215c -139.1937,-7.1391 -278.3874,-14.2782 -417.5811 -21.4173c -8.7078,-0.4466 -15.5390,-7.6372 -15.5390 -16.3565c 0.0000,-30.1984 0.0000,-60.3968 0.0000 -90.5953ZM 18.4567,24.1260 c 0.0000,3.1311 2.5382,5.6693 5.6693 5.6693c 3.1311,-0.0000 5.6693,-2.5382 5.6693 -5.6693c 0.0000,-3.1311 -2.5382,-5.6693 -5.6693 -5.6693c -3.1311,-0.0000 -5.6693,2.5382 -5.6693 5.6693ZM 18.4567,107.1622 c 0.0000,3.1311 2.5382,5.6693 5.6693 5.6693c 3.1311,-0.0000 5.6693,-2.5382 5.6693 -5.6693c 0.0000,-3.1311 -2.5382,-5.6693 -5.6693 -5.6693c -3.1311,-0.0000 -5.6693,2.5382 -5.6693 5.6693ZM 37.8267,37.1968 c 0.0000,16.5627 0.0000,33.1255 0.0000 49.6882c 0.0000,8.2814 0.0000,16.5627 0.0000 24.8441c 0.0000,2.0873 1.6921,3.7795 3.7795 3.7795c 23.9370,-0.0000 47.8740,-0.0000 71.8110 -0.0000c 0.9071,-0.0000 1.8142,-0.0000 2.7212 -0.0000c 23.0300,-0.0000 46.0599,-0.0000 69.0898 -0.0000c 0.9071,-0.0000 1.8142,-0.0000 2.7212 -0.0000c 23.0300,-0.0000 46.0599,-0.0000 69.0898 -0.0000c 0.9071,-0.0000 1.8142,-0.0000 2.7213 -0.0000c 23.0299,-0.0000 46.0599,-0.0000 69.0898 -0.0000c 0.9071,-0.0000 1.8142,-0.0000 2.7213 -0.0000c 23.0299,-0.0000 46.0599,-0.0000 69.0898 -0.0000c 0.9071,-0.0000 1.8142,-0.0000 2.7213 -0.0000c 23.9370,-0.0000 47.8740,-0.0000 71.8110 -0.0000c 2.0873,-0.0000 3.7795,-1.6921 3.7795 -3.7795c 0.0000,-24.8441 0.0000,-49.6882 0.0000 -74.5323c 0.0000,-2.0873 -1.6921,-3.7795 -3.7795 -3.7795c -23.9370,-0.0000 -47.8740,-0.0000 -71.8110 -0.0000c -0.9071,-0.0000 -1.8142,-0.0000 -2.7213 -0.0000c -23.0299,-0.0000 -46.0599,-0.0000 -69.0898 -0.0000c -0.9071,-0.0000 -1.8142,-0.0000 -2.7213 -0.0000c -23.0299,-0.0000 -46.0599,-0.0000 -69.0898 -0.0000c -0.9071,-0.0000 -1.8142,-0.0000 -2.7213 -0.0000c -23.0299,-0.0000 -46.0598,-0.0000 -69.0898 -0.0000c -0.9071,-0.0000 -1.8142,-0.0000 -2.7212 -0.0000c -23.0300,-0.0000 -46.0599,-0.0000 -69.0898 -0.0000c -0.9071,-0.0000 -1.8142,-0.0000 -2.7212 -0.0000c -23.9370,-0.0000 -47.8740,-0.0000 -71.8110 -0.0000c -2.0874,-0.0000 -3.7795,1.6921 -3.7795 3.7795ZM 432.2583,24.1260 c 0.0000,3.1311 2.5382,5.6693 5.6693 5.6693c 3.1311,-0.0000 5.6693,-2.5382 5.6693 -5.6693c 0.0000,-3.1311 -2.5382,-5.6693 -5.6693 -5.6693c -3.1311,-0.0000 -5.6693,2.5382 -5.6693 5.6693ZM 432.2583,128.5795 c 0.0000,3.1311 2.5382,5.6693 5.6693 5.6693c 3.1311,-0.0000 5.6693,-2.5382 5.6693 -5.6693c 0.0000,-3.1311 -2.5382,-5.6693 -5.6693 -5.6693c -3.1311,-0.0000 -5.6693,2.5382 -5.6693 5.6693ZM 491.3701,37.1968 c 0.0000,24.8441 0.0000,49.6882 0.0000 74.5323c 0.0000,2.0873 1.6921,3.7795 3.7795 3.7795c 23.9370,-0.0000 47.8740,-0.0000 71.8110 -0.0000c 0.9071,-0.0000 1.8142,-0.0000 2.7213 -0.0000c 23.0299,-0.0000 46.0599,-0.0000 69.0898 -0.0000c 0.9071,-0.0000 1.8142,-0.0000 2.7213 -0.0000c 23.0299,-0.0000 46.0599,-0.0000 69.0898 -0.0000c 0.9071,-0.0000 1.8142,-0.0000 2.7213 -0.0000c 23.0299,-0.0000 46.0598,-0.0000 69.0898 -0.0000c 0.9071,-0.0000 1.8142,-0.0000 2.7212 -0.0000c 23.0300,-0.0000 46.0599,-0.0000 69.0898 -0.0000c 0.9071,-0.0000 1.8142,-0.0000 2.7212 -0.0000c 23.9370,-0.0000 47.8740,-0.0000 71.8110 -0.0000c 2.0874,-0.0000 3.7795,-1.6921 3.7795 -3.7795c 0.0000,-8.2814 0.0000,-16.5627 0.0000 -24.8441c 0.0000,-16.5627 0.0000,-33.1254 0.0000 -49.6882c 0.0000,-2.0873 -1.6921,-3.7795 -3.7795 -3.7795c -23.9370,-0.0000 -47.8740,-0.0000 -71.8110 -0.0000c -0.9071,-0.0000 -1.8142,-0.0000 -2.7212 -0.0000c -23.0300,-0.0000 -46.0599,-0.0000 -69.0898 -0.0000c -0.9071,-0.0000 -1.8142,-0.0000 -2.7212 -0.0000c -23.0300,-0.0000 -46.0599,-0.0000 -69.0898 -0.0000c -0.9071,-0.0000 -1.8142,-0.0000 -2.7213 -0.0000c -23.0299,-0.0000 -46.0599,-0.0000 -69.0898 -0.0000c -0.9071,-0.0000 -1.8142,-0.0000 -2.7213 -0.0000c -23.0299,-0.0000 -46.0599,-0.0000 -69.0898 -0.0000c -0.9071,-0.0000 -1.8142,-0.0000 -2.7213 -0.0000c -23.9370,-0.0000 -47.8740,-0.0000 -71.8110 -0.0000c -2.0873,-0.0000 -3.7795,1.6921 -3.7795 3.7795ZM 526.7464,24.1260 c 0.0000,3.1311 2.5382,5.6693 5.6693 5.6693c 3.1311,-0.0000 5.6693,-2.5382 5.6693 -5.6693c 0.0000,-3.1311 -2.5382,-5.6693 -5.6693 -5.6693c -3.1311,-0.0000 -5.6693,2.5382 -5.6693 5.6693ZM 526.7464,128.5795 c 0.0000,3.1311 2.5382,5.6693 5.6693 5.6693c 3.1311,-0.0000 5.6693,-2.5382 5.6693 -5.6693c 0.0000,-3.1311 -2.5382,-5.6693 -5.6693 -5.6693c -3.1311,-0.0000 -5.6693,2.5382 -5.6693 5.6693ZM 940.5480,24.1260 c 0.0000,3.1311 2.5382,5.6693 5.6693 5.6693c 3.1311,-0.0000 5.6693,-2.5382 5.6693 -5.6693c 0.0000,-3.1311 -2.5382,-5.6693 -5.6693 -5.6693c -3.1311,-0.0000 -5.6693,2.5382 -5.6693 5.6693ZM 940.5480,107.1622 c 0.0000,3.1311 2.5382,5.6693 5.6693 5.6693c 3.1311,-0.0000 5.6693,-2.5382 5.6693 -5.6693c 0.0000,-3.1311 -2.5382,-5.6693 -5.6693 -5.6693c -3.1311,-0.0000 -5.6693,2.5382 -5.6693 5.6693Z"/></g></svg>