<?xml version="1.0" encoding="UTF-8"?>
<!DOCTYPE svg PUBLIC "-//W3C//DTD SVG 1.1//EN"
    "http://www.w3.org/Graphics/SVG/1.1/DTD/svg11.dtd"><svg xmlns="http://www.w3.org/2000/svg" height="1824.1909" stroke-opacity="1" viewBox="0 0 574 1824" font-size="1" width="573.8094" xmlns:xlink="http://www.w3.org/1999/xlink" stroke="rgb(0,0,0)" version="1.1"><defs></defs><g stroke-linejoin="miter" stroke-opacity="1.0" fill-opacity="0.5" stroke="rgb(0,0,0)" stroke-width="0.37795275590551186" fill="rgb(0,0,0)" stroke-linecap="butt" stroke-miterlimit="10.0"><path d="M 3.9685,1643.6411 c 0.0003,-16.6086 13.6281,-30.2355 30.2357 -30.2358c 13.8583,-0.0002 27.7165,-0.0005 41.5748 -0.0007c -0.0001,-4.9722 -0.0002,-9.9444 -0.0003 -14.9165c -0.0000,-0.9071 -0.0000,-1.8142 -0.0000 -2.7213c 0.0000,-0.0000 0.0000,-0.0000 0.0000 -0.0001c -0.0004,-23.0299 -0.0008,-46.0598 -0.0012 -69.0897c -0.0000,-0.9071 -0.0000,-1.8142 -0.0000 -2.7213c 0.0000,-0.0000 0.0000,-0.0000 0.0000 -0.0001c -0.0004,-23.9370 -0.0008,-47.8740 -0.0013 -71.8110c 0.0003,-16.6086 13.6281,-30.2355 30.2357 -30.2358c 14.6001,-0.0003 29.2002,-0.0005 43.8003 -0.0008c 4.5161,-11.0463 15.4049,-18.8970 28.0103 -18.8972c 14.1804,-0.0002 28.3607,-0.0005 42.5411 -0.0007c 3.3856,-12.9915 15.2686,-22.6765 29.2695 -22.6767c 24.8441,-0.0004 49.6882,-0.0009 74.5323 -0.0013c 12.6056,-0.0002 23.4949,7.8510 28.0112 18.8971c 14.6000,-0.0003 29.2001,-0.0005 43.8001 -0.0008c 9.4789,-0.0002 17.9873,4.4392 23.5453 11.3382c 16.0887,-0.0003 32.1773,-0.0006 48.2660 -0.0008c 5.2722,-0.0001 10.2441,1.3732 14.5751 3.7793c 19.0787,-0.0003 38.1573,-0.0007 57.2360 -0.0010c 16.6078,-0.0003 30.2365,13.6278 30.2368 30.2357c 0.0004,23.9355 0.0008,47.8710 0.0013 71.8065c 0.0000,0.0015 0.0000,0.0030 0.0000 0.0045c 0.0000,0.9071 0.0000,1.8142 0.0000 2.7213c 0.0000,0.0000 0.0000,0.0000 0.0000 0.0001c 0.0004,23.0299 0.0008,46.0598 0.0012 69.0897c 0.0000,0.9072 0.0000,1.8143 0.0001 2.7215c 0.0000,0.0000 0.0000,0.0000 0.0000 0.0001c 0.0004,23.0299 0.0008,46.0598 0.0012 69.0897c 0.0000,0.9072 0.0000,1.8143 0.0001 2.7215c 0.0000,0.0000 0.0000,0.0000 0.0000 0.0001c 0.0004,23.9370 0.0008,47.8740 0.0013 71.8110c 0.0000,0.0000 0.0000,0.0000 0.0000 0.0001c 0.0000,16.6076 -13.6280,30.2359 -30.2357 30.2362c -24.8441,0.0004 -49.6882,0.0009 -74.5323 0.0013c -5.2721,0.0001 -10.2440,-1.3732 -14.5751 -3.7793c -19.0787,0.0003 -38.1574,0.0007 -57.2360 0.0010c -9.4788,0.0001 -17.9872,-4.4392 -23.5452 -11.3382c -16.0887,0.0003 -32.1773,0.0006 -48.2660 0.0008c -12.6055,0.0002 -23.4948,-7.8510 -28.0111 -18.8971c -3.9363,0.0001 -7.8726,0.0001 -11.8089 0.0002c -3.3856,12.9911 -15.2688,22.6770 -29.2696 22.6772c -14.6001,0.0003 -29.2002,0.0005 -43.8003 0.0008c -4.5161,11.0461 -15.4050,18.8974 -28.0104 18.8977c -13.8583,0.0002 -27.7165,0.0005 -41.5748 0.0007c 0.0001,5.8793 0.0002,11.7585 0.0003 17.6378c 0.0000,0.0000 0.0000,0.0000 0.0000 0.0001c 0.0000,16.6076 -13.6281,30.2359 -30.2357 30.2362c -24.8441,0.0004 -49.6882,0.0009 -74.5323 0.0013c -16.6079,0.0003 -30.2365,-13.6279 -30.2368 -30.2357c -0.0004,-23.9370 -0.0008,-47.8740 -0.0013 -71.8110c -0.0000,-0.9071 -0.0000,-1.8142 -0.0000 -2.7213c 0.0000,-0.0000 0.0000,-0.0000 0.0000 -0.0001c -0.0004,-23.9370 -0.0008,-47.8740 -0.0015 -71.8133ZM 77.1430,1805.5180 c 0.0000,-3.1311 -2.5382,-5.6693 -5.6693 -5.6693c -3.1311,-0.0000 -5.6693,2.5382 -5.6693 5.6693c 0.0000,3.1311 2.5382,5.6693 5.6693 5.6693c 3.1311,0.0000 5.6693,-2.5382 5.6693 -5.6693ZM 556.6819,1745.9504 c 0.0000,-3.1311 -2.5382,-5.6693 -5.6693 -5.6693c -3.1311,-0.0000 -5.6693,2.5382 -5.6693 5.6693c 0.0000,3.1311 2.5382,5.6693 5.6693 5.6693c 3.1311,0.0000 5.6693,-2.5382 5.6693 -5.6693ZM 148.9476,1436.6097 c 0.0000,-3.1311 -2.5382,-5.6693 -5.6693 -5.6693c -3.1311,-0.0000 -5.6693,2.5382 -5.6693 5.6693c 0.0000,3.1311 2.5382,5.6693 5.6693 5.6693c 3.1311,0.0000 5.6693,-2.5382 5.6693 -5.6693ZM 556.6764,1433.1697 c 0.0000,-3.1311 -2.5382,-5.6693 -5.6693 -5.6693c -3.1311,-0.0000 -5.6693,2.5382 -5.6693 5.6693c 0.0000,3.1311 2.5382,5.6693 5.6693 5.6693c 3.1311,0.0000 5.6693,-2.5382 5.6693 -5.6693Z"/></g><g stroke-linejoin="miter" stroke-opacity="1.0" fill-opacity="0.5" stroke="rgb(0,0,0)" stroke-width="0.37795275590551186" fill="rgb(255,255,0)" stroke-linecap="butt" stroke-miterlimit="10.0"><path d="M 3.9685,1184.8532 c 0.0003,-16.6086 13.6281,-30.2355 30.2357 -30.2358c 13.8583,-0.0002 27.7165,-0.0005 41.5748 -0.0007c -0.0001,-4.9722 -0.0002,-9.9444 -0.0003 -14.9165c -0.0000,-0.9071 -0.0000,-1.8142 -0.0000 -2.7213c 0.0000,-0.0000 0.0000,-0.0000 0.0000 -0.0001c -0.0004,-23.0299 -0.0008,-46.0598 -0.0012 -69.0897c -0.0000,-0.9071 -0.0000,-1.8142 -0.0000 -2.7213c 0.0000,-0.0000 0.0000,-0.0000 0.0000 -0.0001c -0.0004,-23.9370 -0.0008,-47.8740 -0.0013 -71.8110c 0.0003,-16.6086 13.6281,-30.2355 30.2357 -30.2358c 10.0132,-0.0002 20.0263,-0.0004 30.0395 -0.0005c 4.5870,-0.0001 9.1739,-0.0002 13.7609 -0.0002c 0.0371,-0.0908 0.0746,-0.1813 0.1126 -0.2716c 4.5825,-10.9031 15.3959,-18.6253 27.8977 -18.6256c 14.1804,-0.0002 28.3607,-0.0005 42.5411 -0.0007c 3.3856,-12.9915 15.2686,-22.6765 29.2695 -22.6767c 24.8441,-0.0004 49.6882,-0.0009 74.5323 -0.0013c 12.6056,-0.0002 23.4949,7.8510 28.0112 18.8971c 14.6000,-0.0003 29.2001,-0.0005 43.8001 -0.0008c 9.4789,-0.0002 17.9873,4.4392 23.5453 11.3382c 16.0887,-0.0003 32.1773,-0.0006 48.2660 -0.0008c 5.2722,-0.0001 10.2441,1.3732 14.5751 3.7793c 19.0787,-0.0003 38.1573,-0.0007 57.2360 -0.0010c 4.2107,-0.0001 8.2299,0.8759 11.8840 2.4544c 7.1021,3.0679 12.8252,8.7895 15.8951 15.8907c 1.5804,3.6558 2.4576,7.6773 2.4577 11.8906c 0.0004,23.9355 0.0008,47.8710 0.0013 71.8065c 0.0000,0.0015 0.0000,0.0030 0.0000 0.0045c 0.0000,0.9071 0.0000,1.8142 0.0000 2.7213c 0.0000,0.0000 0.0000,0.0000 0.0000 0.0001c 0.0004,23.0299 0.0008,46.0598 0.0012 69.0897c 0.0000,0.9072 0.0000,1.8143 0.0001 2.7215c 0.0000,0.0000 0.0000,0.0000 0.0000 0.0001c 0.0004,23.0299 0.0008,46.0598 0.0012 69.0897c 0.0000,0.9072 0.0000,1.8143 0.0001 2.7215c 0.0000,0.0000 0.0000,0.0000 0.0000 0.0001c 0.0004,23.9370 0.0008,47.8740 0.0013 71.8110c 0.0000,0.0000 0.0000,0.0000 0.0000 0.0001c 0.0000,4.2132 -0.8771,8.2347 -2.4574 11.8906c -3.0676,7.0965 -8.7850,12.8154 -15.8806 15.8849c -3.6577,1.5824 -7.6817,2.4607 -11.8977 2.4607c -24.8441,0.0004 -49.6882,0.0009 -74.5323 0.0013c -0.0206,-0.0000 -0.0412,-0.0000 -0.0618 -0.0001c -5.2492,-0.0106 -10.1992,-1.3826 -14.5133 -3.7792c -19.0787,0.0003 -38.1574,0.0007 -57.2360 0.0010c -9.4788,0.0001 -17.9872,-4.4392 -23.5452 -11.3382c -16.0887,0.0003 -32.1773,0.0006 -48.2660 0.0008c -12.6055,0.0002 -23.4948,-7.8510 -28.0111 -18.8971c -3.9363,0.0001 -7.8726,0.0001 -11.8089 0.0002c -3.3856,12.9911 -15.2688,22.6770 -29.2696 22.6772c -14.6001,0.0003 -29.2002,0.0005 -43.8003 0.0008c -4.5161,11.0461 -15.4050,18.8974 -28.0104 18.8977c -13.8583,0.0002 -27.7165,0.0005 -41.5748 0.0007c 0.0001,5.8793 0.0002,11.7585 0.0003 17.6378c 0.0000,0.0000 0.0000,0.0000 0.0000 0.0001c 0.0000,16.6076 -13.6281,30.2359 -30.2357 30.2362c -10.0148,0.0002 -20.0296,0.0004 -30.0444 0.0005c -4.8147,0.0001 -9.6293,0.0002 -14.4440 0.0003c -10.0146,0.0002 -20.0293,0.0004 -30.0439 0.0005c -16.6079,0.0003 -30.2365,-13.6279 -30.2368 -30.2357c -0.0004,-23.9370 -0.0008,-47.8740 -0.0013 -71.8110c -0.0000,-0.9071 -0.0000,-1.8142 -0.0000 -2.7213c 0.0000,-0.0000 0.0000,-0.0000 0.0000 -0.0001c -0.0004,-23.9370 -0.0008,-47.8740 -0.0015 -71.8133ZM 26.6457,1184.8536 c 0.0004,23.9373 0.0009,47.8743 0.0013 71.8113c 0.0000,0.0000 0.0000,0.0000 0.0000 0.0001c 0.0000,0.9071 0.0000,1.8142 0.0000 2.7213c 0.0004,23.9370 0.0008,47.8740 0.0013 71.8110c 0.0001,4.1617 3.3975,7.5590 7.5592 7.5589c 7.6525,-0.0001 15.3049,-0.0003 22.9574 -0.0004c 2.8000,-5.0135 8.1585,-8.4036 14.3089 -8.4036c 6.1501,-0.0000 11.5085,3.3899 14.3086 8.4031c 7.6525,-0.0001 15.3050,-0.0003 22.9574 -0.0004c 4.1617,-0.0001 7.5589,-3.3974 7.5589 -7.5591c 0.0000,-0.0000 0.0000,-0.0000 0.0000 -0.0001c -0.0001,-5.8787 -0.0002,-11.7575 -0.0003 -17.6362c -0.0001,-7.5596 -0.0003,-15.1192 -0.0004 -22.6787c 7.5591,-0.0001 15.1182,-0.0003 22.6773 -0.0004c 10.5720,-0.0002 21.1440,-0.0004 31.7159 -0.0006c 3.2862,-0.0001 6.5725,-0.0001 9.8587 -0.0002c 4.1617,-0.0001 7.5589,-3.3974 7.5589 -7.5591c 0.0000,-0.0000 0.0000,-0.0000 0.0000 -0.0001c -0.0001,-3.7795 -0.0001,-7.5591 -0.0002 -11.3386c 7.5591,-0.0001 15.1182,-0.0003 22.6773 -0.0004c 13.8582,-0.0002 27.7164,-0.0005 41.5746 -0.0007c 0.4429,-0.0000 0.8771,-0.0385 1.2995 -0.1123c 0.0000,-0.0000 0.0000,-0.0000 0.0000 -0.0000c 3.5467,-0.6196 6.2594,-3.7280 6.2594 -7.4468c 0.0000,-0.0000 0.0000,-0.0001 0.0000 -0.0001c -0.0001,-5.0394 -0.0002,-10.0787 -0.0003 -15.1181c 7.5591,-0.0001 15.1182,-0.0003 22.6773 -0.0004c 2.8724,-0.0001 5.7449,-0.0001 8.6173 -0.0002c 7.5590,-0.0001 15.1180,-0.0003 22.6770 -0.0004c 0.0001,3.7795 0.0001,7.5591 0.0002 11.3386c 0.0001,4.1617 3.3975,7.5590 7.5592 7.5589c 3.2865,-0.0001 6.5730,-0.0001 9.8596 -0.0002c 10.5718,-0.0002 21.1435,-0.0004 31.7153 -0.0006c 7.5590,-0.0001 15.1181,-0.0003 22.6771 -0.0004c 0.0000,1.2598 0.0000,2.5197 0.0001 3.7795c 0.0001,4.1617 3.3975,7.5590 7.5592 7.5589c 5.9789,-0.0001 11.9578,-0.0002 17.9368 -0.0003c 7.9585,-0.0001 15.9169,-0.0003 23.8754 -0.0004c 7.8191,-0.0001 15.6382,-0.0003 23.4573 -0.0004c 1.3108,2.2561 3.7549,3.7795 6.5416 3.7794c 7.1941,-0.0001 14.3882,-0.0003 21.5822 -0.0004c 16.1448,-0.0003 32.2896,-0.0006 48.4344 -0.0008c 1.4337,-5.9543 6.1204,-10.6411 12.0745 -12.0752c -0.0004,-22.4316 -0.0008,-44.8633 -0.0012 -67.2950c 0.0000,-0.0000 0.0000,-0.0000 0.0000 -0.0001c -0.0000,-0.9071 -0.0000,-1.8142 -0.0001 -2.7213c -0.0004,-23.0299 -0.0008,-46.0598 -0.0012 -69.0897c 0.0000,-0.0000 0.0000,-0.0000 0.0000 -0.0001c -0.0000,-0.9071 -0.0000,-1.8142 -0.0001 -2.7213c -0.0004,-23.0299 -0.0008,-46.0598 -0.0012 -69.0897c 0.0000,-0.0000 0.0000,-0.0000 0.0000 -0.0001c -0.0000,-0.9071 -0.0000,-1.8142 -0.0000 -2.7213c 0.0000,-0.0015 0.0000,-0.0030 0.0000 -0.0045c -0.0004,-22.4305 -0.0008,-44.8609 -0.0012 -67.2914c -5.9539,-1.4338 -10.6406,-6.1202 -12.0747 -12.0740c -12.4325,0.0002 -24.8649,0.0004 -37.2974 0.0006c -7.8189,0.0001 -15.6378,0.0003 -23.4566 0.0004c -1.3108,-2.2561 -3.7548,-3.7795 -6.5417 -3.7794c -7.1936,0.0001 -14.3871,0.0002 -21.5807 0.0004c -6.6647,0.0001 -13.3294,0.0002 -19.9941 0.0004c -7.5590,0.0001 -15.1181,0.0003 -22.6771 0.0004c -0.0000,-1.2598 -0.0000,-2.5197 -0.0001 -3.7795c -0.0001,-4.1617 -3.3975,-7.5590 -7.5592 -7.5589c -5.9778,0.0001 -11.9555,0.0002 -17.9332 0.0003c -7.8805,0.0001 -15.7611,0.0003 -23.6416 0.0004c -7.5590,0.0001 -15.1181,0.0003 -22.6771 0.0004c -0.0001,-3.7795 -0.0001,-7.5591 -0.0002 -11.3386c -0.0001,-4.1617 -3.3975,-7.5590 -7.5592 -7.5589c -3.2838,0.0001 -6.5676,0.0001 -9.8514 0.0002c -21.5603,0.0004 -43.1206,0.0008 -64.6808 0.0011c -0.4480,0.0000 -0.8872,0.0394 -1.3142 0.1148c -3.5395,0.6255 -6.2447,3.7304 -6.2447 7.4442c 0.0001,5.0394 0.0002,10.0787 0.0003 15.1181c -7.5591,0.0001 -15.1182,0.0003 -22.6772 0.0004c -10.5735,0.0002 -21.1470,0.0004 -31.7205 0.0006c -3.2848,0.0001 -6.5695,0.0001 -9.8543 0.0002c -4.1616,0.0001 -7.5588,3.3972 -7.5589 7.5591c 0.0001,3.7795 0.0001,7.5591 0.0002 11.3386c -4.2258,0.0001 -8.4515,0.0001 -12.6773 0.0002c -2.0723,3.7102 -5.5458,6.5313 -9.7044 7.7472c -1.4606,0.4270 -3.0057,0.6561 -4.6043 0.6561c -6.1500,-0.0000 -11.5083,-3.3897 -14.3084 -8.4028c -7.6525,0.0001 -15.3051,0.0003 -22.9576 0.0004c -4.1616,0.0001 -7.5588,3.3972 -7.5589 7.5591c 0.0004,23.9370 0.0008,47.8740 0.0013 71.8110c 0.0000,0.0000 0.0000,0.0000 0.0000 0.0001c 0.0000,0.9071 0.0000,1.8142 0.0000 2.7213c 0.0004,23.0299 0.0008,46.0598 0.0012 69.0897c 0.0000,0.0000 0.0000,0.0000 0.0000 0.0001c 0.0000,0.9071 0.0000,1.8142 0.0000 2.7213c 0.0001,4.9722 0.0002,9.9444 0.0003 14.9165c 0.0001,7.5591 0.0003,15.1181 0.0004 22.6772c -7.5591,0.0001 -15.1181,0.0003 -22.6772 0.0004c -13.8583,0.0002 -27.7165,0.0005 -41.5748 0.0007c -4.1616,0.0001 -7.5588,3.3972 -7.5589 7.5591ZM 77.1430,1346.7301 c 0.0000,-3.1311 -2.5382,-5.6693 -5.6693 -5.6693c -3.1311,-0.0000 -5.6693,2.5382 -5.6693 5.6693c 0.0000,3.1311 2.5382,5.6693 5.6693 5.6693c 3.1311,0.0000 5.6693,-2.5382 5.6693 -5.6693ZM 556.6819,1287.1625 c 0.0000,-3.1311 -2.5382,-5.6693 -5.6693 -5.6693c -3.1311,-0.0000 -5.6693,2.5382 -5.6693 5.6693c 0.0000,3.1311 2.5382,5.6693 5.6693 5.6693c 3.1311,0.0000 5.6693,-2.5382 5.6693 -5.6693ZM 148.9476,977.8218 c 0.0000,-3.1311 -2.5382,-5.6693 -5.6693 -5.6693c -3.1311,-0.0000 -5.6693,2.5382 -5.6693 5.6693c 0.0000,3.1311 2.5382,5.6693 5.6693 5.6693c 3.1311,0.0000 5.6693,-2.5382 5.6693 -5.6693ZM 556.6764,974.3818 c 0.0000,-3.1311 -2.5382,-5.6693 -5.6693 -5.6693c -3.1311,-0.0000 -5.6693,2.5382 -5.6693 5.6693c 0.0000,3.1311 2.5382,5.6693 5.6693 5.6693c 3.1311,0.0000 5.6693,-2.5382 5.6693 -5.6693Z"/></g><g stroke-linejoin="miter" stroke-opacity="1.0" fill-opacity="0.5" stroke="rgb(0,0,0)" stroke-width="0.37795275590551186" fill="rgb(0,0,0)" stroke-linecap="butt" stroke-miterlimit="10.0"><path d="M 3.9685,726.0653 c 0.0003,-16.6086 13.6281,-30.2355 30.2357 -30.2358c 13.8583,-0.0002 27.7165,-0.0005 41.5748 -0.0007c -0.0001,-4.9722 -0.0002,-9.9444 -0.0003 -14.9165c -0.0000,-0.9071 -0.0000,-1.8142 -0.0000 -2.7213c 0.0000,-0.0000 0.0000,-0.0000 0.0000 -0.0001c -0.0004,-23.0299 -0.0008,-46.0598 -0.0012 -69.0897c -0.0000,-0.9071 -0.0000,-1.8142 -0.0000 -2.7213c 0.0000,-0.0000 0.0000,-0.0000 0.0000 -0.0001c -0.0004,-23.9370 -0.0008,-47.8740 -0.0013 -71.8110c 0.0003,-16.6086 13.6281,-30.2355 30.2357 -30.2358c 14.6001,-0.0003 29.2002,-0.0005 43.8003 -0.0008c 4.5161,-11.0463 15.4049,-18.8970 28.0103 -18.8972c 14.1804,-0.0002 28.3607,-0.0005 42.5411 -0.0007c 3.3856,-12.9915 15.2686,-22.6765 29.2695 -22.6767c 24.8441,-0.0004 49.6882,-0.0009 74.5323 -0.0013c 12.6056,-0.0002 23.4949,7.8510 28.0112 18.8971c 14.6000,-0.0003 29.2001,-0.0005 43.8001 -0.0008c 9.4789,-0.0002 17.9873,4.4392 23.5453 11.3382c 16.0887,-0.0003 32.1773,-0.0006 48.2660 -0.0008c 5.2722,-0.0001 10.2441,1.3732 14.5751 3.7793c 19.0787,-0.0003 38.1573,-0.0007 57.2360 -0.0010c 16.6078,-0.0003 30.2365,13.6278 30.2368 30.2357c 0.0004,23.9355 0.0008,47.8710 0.0013 71.8065c 0.0000,0.0015 0.0000,0.0030 0.0000 0.0045c 0.0000,0.9071 0.0000,1.8142 0.0000 2.7213c 0.0000,0.0000 0.0000,0.0000 0.0000 0.0001c 0.0004,23.0299 0.0008,46.0598 0.0012 69.0897c 0.0000,0.9072 0.0000,1.8143 0.0001 2.7215c 0.0000,0.0000 0.0000,0.0000 0.0000 0.0001c 0.0004,23.0299 0.0008,46.0598 0.0012 69.0897c 0.0000,0.9072 0.0000,1.8143 0.0001 2.7215c 0.0000,0.0000 0.0000,0.0000 0.0000 0.0001c 0.0004,23.9370 0.0008,47.8740 0.0013 71.8110c 0.0000,0.0000 0.0000,0.0000 0.0000 0.0001c 0.0000,16.6076 -13.6280,30.2359 -30.2357 30.2362c -24.8441,0.0004 -49.6882,0.0009 -74.5323 0.0013c -5.2721,0.0001 -10.2440,-1.3732 -14.5751 -3.7793c -19.0787,0.0003 -38.1574,0.0007 -57.2360 0.0010c -9.4788,0.0001 -17.9872,-4.4392 -23.5452 -11.3382c -16.0887,0.0003 -32.1773,0.0006 -48.2660 0.0008c -12.6055,0.0002 -23.4948,-7.8510 -28.0111 -18.8971c -3.9363,0.0001 -7.8726,0.0001 -11.8089 0.0002c -3.3856,12.9911 -15.2688,22.6770 -29.2696 22.6772c -14.6001,0.0003 -29.2002,0.0005 -43.8003 0.0008c -4.5161,11.0461 -15.4050,18.8974 -28.0104 18.8977c -13.8583,0.0002 -27.7165,0.0005 -41.5748 0.0007c 0.0001,5.8793 0.0002,11.7585 0.0003 17.6378c 0.0000,0.0000 0.0000,0.0000 0.0000 0.0001c 0.0000,16.6076 -13.6281,30.2359 -30.2357 30.2362c -24.8441,0.0004 -49.6882,0.0009 -74.5323 0.0013c -16.6079,0.0003 -30.2365,-13.6279 -30.2368 -30.2357c -0.0004,-23.9370 -0.0008,-47.8740 -0.0013 -71.8110c -0.0000,-0.9071 -0.0000,-1.8142 -0.0000 -2.7213c 0.0000,-0.0000 0.0000,-0.0000 0.0000 -0.0001c -0.0004,-23.9370 -0.0008,-47.8740 -0.0015 -71.8133ZM 41.9991,740.6374 c 0.0001,4.4096 0.0001,8.8191 0.0002 13.2287c 1.0240,-0.0000 2.0480,-0.0000 3.0720 -0.0001c 0.0001,6.3104 0.0002,12.6209 0.0003 18.9313c -1.0240,0.0000 -2.0480,0.0000 -3.0720 0.0001c 0.0001,4.4096 0.0002,8.8191 0.0002 13.2287c 1.0240,-0.0000 2.0480,-0.0000 3.0720 -0.0001c 0.0000,1.2352 0.0000,2.4704 0.0001 3.7056c 17.6000,-0.0003 35.2000,-0.0006 52.8000 -0.0009c -0.0000,-1.2352 -0.0000,-2.4704 -0.0001 -3.7056c 1.0240,-0.0000 2.0480,-0.0000 3.0720 -0.0001c -0.0001,-4.4096 -0.0001,-8.8192 -0.0002 -13.2287c -1.0240,0.0000 -2.0480,0.0000 -3.0720 0.0001c -0.0001,-6.3104 -0.0002,-12.6209 -0.0003 -18.9313c 1.0240,-0.0000 2.0480,-0.0000 3.0720 -0.0001c -0.0001,-4.4096 -0.0002,-8.8191 -0.0002 -13.2287c -1.0240,0.0000 -2.0480,0.0000 -3.0720 0.0001c -0.0000,-1.2352 -0.0000,-2.4704 -0.0001 -3.7056c -17.6000,0.0003 -35.2000,0.0006 -52.8000 0.0009c 0.0000,1.2352 0.0000,2.4704 0.0001 3.7056c -1.0240,0.0000 -2.0480,0.0000 -3.0720 0.0001ZM 42.0004,812.4484 c 0.0001,4.4096 0.0001,8.8192 0.0002 13.2287c 1.0240,-0.0000 2.0480,-0.0000 3.0720 -0.0001c 0.0001,6.3104 0.0002,12.6209 0.0003 18.9313c -1.0240,0.0000 -2.0480,0.0000 -3.0720 0.0001c 0.0001,4.4096 0.0002,8.8192 0.0002 13.2287c 1.0240,-0.0000 2.0480,-0.0000 3.0720 -0.0001c 0.0000,1.2352 0.0000,2.4704 0.0001 3.7056c 17.6000,-0.0003 35.2000,-0.0006 52.8000 -0.0009c -0.0000,-1.2352 -0.0000,-2.4704 -0.0001 -3.7056c 1.0240,-0.0000 2.0480,-0.0000 3.0720 -0.0001c -0.0001,-4.4096 -0.0002,-8.8191 -0.0002 -13.2287c -1.0240,0.0000 -2.0480,0.0000 -3.0720 0.0001c -0.0001,-6.3104 -0.0002,-12.6209 -0.0003 -18.9313c 1.0240,-0.0000 2.0480,-0.0000 3.0720 -0.0001c -0.0001,-4.4096 -0.0001,-8.8192 -0.0002 -13.2287c -1.0240,0.0000 -2.0480,0.0000 -3.0720 0.0001c -0.0000,-1.2352 -0.0000,-2.4704 -0.0001 -3.7056c -17.6000,0.0003 -35.2000,0.0006 -52.8000 0.0009c 0.0000,1.2352 0.0000,2.4704 0.0001 3.7056c -1.0240,0.0000 -2.0480,0.0000 -3.0720 0.0001ZM 113.8068,549.1401 c 0.0001,4.4096 0.0001,8.8191 0.0002 13.2287c 1.0240,-0.0000 2.0480,-0.0000 3.0720 -0.0001c 0.0001,6.3104 0.0002,12.6209 0.0003 18.9313c -1.0240,0.0000 -2.0480,0.0000 -3.0720 0.0001c 0.0001,4.4096 0.0002,8.8191 0.0002 13.2287c 1.0240,-0.0000 2.0480,-0.0000 3.0720 -0.0001c 0.0000,1.2352 0.0000,2.4704 0.0001 3.7056c 17.6000,-0.0003 35.2000,-0.0006 52.8000 -0.0009c -0.0000,-1.2352 -0.0000,-2.4704 -0.0001 -3.7056c 1.0240,-0.0000 2.0480,-0.0000 3.0720 -0.0001c -0.0001,-4.4096 -0.0001,-8.8191 -0.0002 -13.2287c -1.0240,0.0000 -2.0480,0.0000 -3.0720 0.0001c -0.0001,-6.3104 -0.0002,-12.6209 -0.0003 -18.9313c 1.0240,-0.0000 2.0480,-0.0000 3.0720 -0.0001c -0.0001,-4.4096 -0.0002,-8.8191 -0.0002 -13.2287c -1.0240,0.0000 -2.0480,0.0000 -3.0720 0.0001c -0.0000,-1.2352 -0.0000,-2.4704 -0.0001 -3.7056c -17.6000,0.0003 -35.2000,0.0006 -52.8000 0.0009c 0.0000,1.2352 0.0000,2.4704 0.0001 3.7056c -1.0240,0.0000 -2.0480,0.0000 -3.0720 0.0001ZM 113.8081,620.9511 c 0.0001,4.4096 0.0001,8.8191 0.0002 13.2287c 1.0240,-0.0000 2.0480,-0.0000 3.0720 -0.0001c 0.0001,6.3104 0.0002,12.6209 0.0003 18.9313c -1.0240,0.0000 -2.0480,0.0000 -3.0720 0.0001c 0.0001,4.4096 0.0002,8.8192 0.0002 13.2287c 1.0240,-0.0000 2.0480,-0.0000 3.0720 -0.0001c 0.0000,1.2352 0.0000,2.4704 0.0001 3.7056c 17.6000,-0.0003 35.2000,-0.0006 52.8000 -0.0009c -0.0000,-1.2352 -0.0000,-2.4704 -0.0001 -3.7056c 1.0240,-0.0000 2.0480,-0.0000 3.0720 -0.0001c -0.0001,-4.4096 -0.0002,-8.8192 -0.0002 -13.2287c -1.0240,0.0000 -2.0480,0.0000 -3.0720 0.0001c -0.0001,-6.3104 -0.0002,-12.6209 -0.0003 -18.9313c 1.0240,-0.0000 2.0480,-0.0000 3.0720 -0.0001c -0.0001,-4.4096 -0.0001,-8.8192 -0.0002 -13.2287c -1.0240,0.0000 -2.0480,0.0000 -3.0720 0.0001c -0.0000,-1.2352 -0.0000,-2.4704 -0.0001 -3.7056c -17.6000,0.0003 -35.2000,0.0006 -52.8000 0.0009c 0.0000,1.2352 0.0000,2.4704 0.0001 3.7056c -1.0240,0.0000 -2.0480,0.0000 -3.0720 0.0001ZM 113.8093,692.7621 c 0.0001,4.4096 0.0002,8.8192 0.0002 13.2287c 1.0240,-0.0000 2.0480,-0.0000 3.0720 -0.0001c 0.0001,6.3104 0.0002,12.6209 0.0003 18.9313c -1.0240,0.0000 -2.0480,0.0000 -3.0720 0.0001c 0.0001,4.4096 0.0002,8.8191 0.0002 13.2287c 1.0240,-0.0000 2.0480,-0.0000 3.0720 -0.0001c 0.0000,1.2352 0.0000,2.4704 0.0001 3.7056c 17.6000,-0.0003 35.2000,-0.0006 52.8000 -0.0009c -0.0000,-1.2352 -0.0000,-2.4704 -0.0001 -3.7056c 1.0240,-0.0000 2.0480,-0.0000 3.0720 -0.0001c -0.0001,-4.4096 -0.0002,-8.8191 -0.0002 -13.2287c -1.0240,0.0000 -2.0480,0.0000 -3.0720 0.0001c -0.0001,-6.3104 -0.0002,-12.6209 -0.0003 -18.9313c 1.0240,-0.0000 2.0480,-0.0000 3.0720 -0.0001c -0.0001,-4.4096 -0.0001,-8.8191 -0.0002 -13.2287c -1.0240,0.0000 -2.0480,0.0000 -3.0720 0.0001c -0.0000,-1.2352 -0.0000,-2.4704 -0.0001 -3.7056c -17.6000,0.0003 -35.2000,0.0006 -52.8000 0.0009c 0.0000,1.2352 0.0000,2.4704 0.0001 3.7056c -1.0240,0.0000 -2.0480,0.0000 -3.0720 0.0001ZM 113.8106,764.5731 c 0.0001,4.4096 0.0002,8.8191 0.0002 13.2287c 1.0240,-0.0000 2.0480,-0.0000 3.0720 -0.0001c 0.0001,6.3104 0.0002,12.6209 0.0003 18.9313c -1.0240,0.0000 -2.0480,0.0000 -3.0720 0.0001c 0.0001,4.4096 0.0002,8.8191 0.0002 13.2287c 1.0240,-0.0000 2.0480,-0.0000 3.0720 -0.0001c 0.0000,1.2352 0.0000,2.4704 0.0001 3.7056c 17.6000,-0.0003 35.2000,-0.0006 52.8000 -0.0009c -0.0000,-1.2352 -0.0000,-2.4704 -0.0001 -3.7056c 1.0240,-0.0000 2.0480,-0.0000 3.0720 -0.0001c -0.0001,-4.4096 -0.0002,-8.8192 -0.0002 -13.2287c -1.0240,0.0000 -2.0480,0.0000 -3.0720 0.0001c -0.0001,-6.3104 -0.0002,-12.6209 -0.0003 -18.9313c 1.0240,-0.0000 2.0480,-0.0000 3.0720 -0.0001c -0.0001,-4.4096 -0.0002,-8.8191 -0.0002 -13.2287c -1.0240,0.0000 -2.0480,0.0000 -3.0720 0.0001c -0.0000,-1.2352 -0.0000,-2.4704 -0.0001 -3.7056c -17.6000,0.0003 -35.2000,0.0006 -52.8000 0.0009c 0.0000,1.2352 0.0000,2.4704 0.0001 3.7056c -1.0240,0.0000 -2.0480,0.0000 -3.0720 0.0001ZM 185.6175,530.2412 c 0.0001,4.4096 0.0001,8.8191 0.0002 13.2287c 1.0240,-0.0000 2.0480,-0.0000 3.0720 -0.0001c 0.0001,6.3104 0.0002,12.6209 0.0003 18.9313c -1.0240,0.0000 -2.0480,0.0000 -3.0720 0.0001c 0.0001,4.4096 0.0002,8.8191 0.0002 13.2287c 1.0240,-0.0000 2.0480,-0.0000 3.0720 -0.0001c 0.0000,1.2352 0.0000,2.4704 0.0001 3.7056c 17.6000,-0.0003 35.2000,-0.0006 52.8000 -0.0009c -0.0000,-1.2352 -0.0000,-2.4704 -0.0001 -3.7056c 1.0240,-0.0000 2.0480,-0.0000 3.0720 -0.0001c -0.0001,-4.4096 -0.0002,-8.8192 -0.0002 -13.2287c -1.0240,0.0000 -2.0480,0.0000 -3.0720 0.0001c -0.0001,-6.3104 -0.0002,-12.6209 -0.0003 -18.9313c 1.0240,-0.0000 2.0480,-0.0000 3.0720 -0.0001c -0.0001,-4.4096 -0.0001,-8.8191 -0.0002 -13.2287c -1.0240,0.0000 -2.0480,0.0000 -3.0720 0.0001c -0.0000,-1.2352 -0.0000,-2.4704 -0.0001 -3.7056c -17.6000,0.0003 -35.2000,0.0006 -52.8000 0.0009c 0.0000,1.2352 0.0000,2.4704 0.0001 3.7056c -1.0240,0.0000 -2.0480,0.0000 -3.0720 0.0001ZM 185.6187,602.0522 c 0.0001,4.4096 0.0002,8.8191 0.0002 13.2287c 1.0240,-0.0000 2.0480,-0.0000 3.0720 -0.0001c 0.0001,6.3104 0.0002,12.6209 0.0003 18.9313c -1.0240,0.0000 -2.0480,0.0000 -3.0720 0.0001c 0.0001,4.4096 0.0002,8.8192 0.0002 13.2287c 1.0240,-0.0000 2.0480,-0.0000 3.0720 -0.0001c 0.0000,1.2352 0.0000,2.4704 0.0001 3.7056c 17.6000,-0.0003 35.2000,-0.0006 52.8000 -0.0009c -0.0000,-1.2352 -0.0000,-2.4704 -0.0001 -3.7056c 1.0240,-0.0000 2.0480,-0.0000 3.0720 -0.0001c -0.0001,-4.4096 -0.0002,-8.8191 -0.0002 -13.2287c -1.0240,0.0000 -2.0480,0.0000 -3.0720 0.0001c -0.0001,-6.3104 -0.0002,-12.6209 -0.0003 -18.9313c 1.0240,-0.0000 2.0480,-0.0000 3.0720 -0.0001c -0.0001,-4.4096 -0.0001,-8.8192 -0.0002 -13.2287c -1.0240,0.0000 -2.0480,0.0000 -3.0720 0.0001c -0.0000,-1.2352 -0.0000,-2.4704 -0.0001 -3.7056c -17.6000,0.0003 -35.2000,0.0006 -52.8000 0.0009c 0.0000,1.2352 0.0000,2.4704 0.0001 3.7056c -1.0240,0.0000 -2.0480,0.0000 -3.0720 0.0001ZM 185.6200,673.8632 c 0.0001,4.4096 0.0002,8.8192 0.0002 13.2287c 1.0240,-0.0000 2.0480,-0.0000 3.0720 -0.0001c 0.0001,6.3104 0.0002,12.6209 0.0003 18.9313c -1.0240,0.0000 -2.0480,0.0000 -3.0720 0.0001c 0.0001,4.4096 0.0002,8.8191 0.0002 13.2287c 1.0240,-0.0000 2.0480,-0.0000 3.0720 -0.0001c 0.0000,1.2352 0.0000,2.4704 0.0001 3.7056c 17.6000,-0.0003 35.2000,-0.0006 52.8000 -0.0009c -0.0000,-1.2352 -0.0000,-2.4704 -0.0001 -3.7056c 1.0240,-0.0000 2.0480,-0.0000 3.0720 -0.0001c -0.0001,-4.4096 -0.0002,-8.8191 -0.0002 -13.2287c -1.0240,0.0000 -2.0480,0.0000 -3.0720 0.0001c -0.0001,-6.3104 -0.0002,-12.6209 -0.0003 -18.9313c 1.0240,-0.0000 2.0480,-0.0000 3.0720 -0.0001c -0.0001,-4.4096 -0.0002,-8.8191 -0.0002 -13.2287c -1.0240,0.0000 -2.0480,0.0000 -3.0720 0.0001c -0.0000,-1.2352 -0.0000,-2.4704 -0.0001 -3.7056c -17.6000,0.0003 -35.2000,0.0006 -52.8000 0.0009c 0.0000,1.2352 0.0000,2.4704 0.0001 3.7056c -1.0240,0.0000 -2.0480,0.0000 -3.0720 0.0001ZM 185.6213,745.6742 c 0.0001,4.4096 0.0002,8.8191 0.0002 13.2287c 1.0240,-0.0000 2.0480,-0.0000 3.0720 -0.0001c 0.0001,6.3104 0.0002,12.6209 0.0003 18.9313c -1.0240,0.0000 -2.0480,0.0000 -3.0720 0.0001c 0.0001,4.4096 0.0001,8.8192 0.0002 13.2287c 1.0240,-0.0000 2.0480,-0.0000 3.0720 -0.0001c 0.0000,1.2352 0.0000,2.4704 0.0001 3.7056c 17.6000,-0.0003 35.2000,-0.0006 52.8000 -0.0009c -0.0000,-1.2352 -0.0000,-2.4704 -0.0001 -3.7056c 1.0240,-0.0000 2.0480,-0.0000 3.0720 -0.0001c -0.0001,-4.4096 -0.0002,-8.8192 -0.0002 -13.2287c -1.0240,0.0000 -2.0480,0.0000 -3.0720 0.0001c -0.0001,-6.3104 -0.0002,-12.6209 -0.0003 -18.9313c 1.0240,-0.0000 2.0480,-0.0000 3.0720 -0.0001c -0.0001,-4.4096 -0.0002,-8.8192 -0.0002 -13.2287c -1.0240,0.0000 -2.0480,0.0000 -3.0720 0.0001c -0.0000,-1.2352 -0.0000,-2.4704 -0.0001 -3.7056c -17.6000,0.0003 -35.2000,0.0006 -52.8000 0.0009c 0.0000,1.2352 0.0000,2.4704 0.0001 3.7056c -1.0240,0.0000 -2.0480,0.0000 -3.0720 0.0001ZM 257.4281,507.5628 c 0.0001,4.4096 0.0002,8.8192 0.0002 13.2287c 1.0240,-0.0000 2.0480,-0.0000 3.0720 -0.0001c 0.0001,6.3104 0.0002,12.6209 0.0003 18.9313c -1.0240,0.0000 -2.0480,0.0000 -3.0720 0.0001c 0.0001,4.4096 0.0002,8.8191 0.0002 13.2287c 1.0240,-0.0000 2.0480,-0.0000 3.0720 -0.0001c 0.0000,1.2352 0.0000,2.4704 0.0001 3.7056c 17.6000,-0.0003 35.2000,-0.0006 52.8000 -0.0009c -0.0000,-1.2352 -0.0000,-2.4704 -0.0001 -3.7056c 1.0240,-0.0000 2.0480,-0.0000 3.0720 -0.0001c -0.0001,-4.4096 -0.0002,-8.8191 -0.0002 -13.2287c -1.0240,0.0000 -2.0480,0.0000 -3.0720 0.0001c -0.0001,-6.3104 -0.0002,-12.6209 -0.0003 -18.9313c 1.0240,-0.0000 2.0480,-0.0000 3.0720 -0.0001c -0.0001,-4.4096 -0.0002,-8.8191 -0.0002 -13.2287c -1.0240,0.0000 -2.0480,0.0000 -3.0720 0.0001c -0.0000,-1.2352 -0.0000,-2.4704 -0.0001 -3.7056c -17.6000,0.0003 -35.2000,0.0006 -52.8000 0.0009c 0.0000,1.2352 0.0000,2.4704 0.0001 3.7056c -1.0240,0.0000 -2.0480,0.0000 -3.0720 0.0001ZM 257.4294,579.3738 c 0.0001,4.4096 0.0002,8.8191 0.0002 13.2287c 1.0240,-0.0000 2.0480,-0.0000 3.0720 -0.0001c 0.0001,6.3104 0.0002,12.6209 0.0003 18.9313c -1.0240,0.0000 -2.0480,0.0000 -3.0720 0.0001c 0.0001,4.4096 0.0001,8.8192 0.0002 13.2287c 1.0240,-0.0000 2.0480,-0.0000 3.0720 -0.0001c 0.0000,1.2352 0.0000,2.4704 0.0001 3.7056c 17.6000,-0.0003 35.2000,-0.0006 52.8000 -0.0009c -0.0000,-1.2352 -0.0000,-2.4704 -0.0001 -3.7056c 1.0240,-0.0000 2.0480,-0.0000 3.0720 -0.0001c -0.0001,-4.4096 -0.0002,-8.8192 -0.0002 -13.2287c -1.0240,0.0000 -2.0480,0.0000 -3.0720 0.0001c -0.0001,-6.3104 -0.0002,-12.6209 -0.0003 -18.9313c 1.0240,-0.0000 2.0480,-0.0000 3.0720 -0.0001c -0.0001,-4.4096 -0.0002,-8.8192 -0.0002 -13.2287c -1.0240,0.0000 -2.0480,0.0000 -3.0720 0.0001c -0.0000,-1.2352 -0.0000,-2.4704 -0.0001 -3.7056c -17.6000,0.0003 -35.2000,0.0006 -52.8000 0.0009c 0.0000,1.2352 0.0000,2.4704 0.0001 3.7056c -1.0240,0.0000 -2.0480,0.0000 -3.0720 0.0001ZM 257.4306,651.1848 c 0.0001,4.4096 0.0002,8.8192 0.0002 13.2287c 1.0240,-0.0000 2.0480,-0.0000 3.0720 -0.0001c 0.0001,6.3104 0.0002,12.6209 0.0003 18.9313c -1.0240,0.0000 -2.0480,0.0000 -3.0720 0.0001c 0.0001,4.4096 0.0001,8.8191 0.0002 13.2287c 1.0240,-0.0000 2.0480,-0.0000 3.0720 -0.0001c 0.0000,1.2352 0.0000,2.4704 0.0001 3.7056c 17.6000,-0.0003 35.2000,-0.0006 52.8000 -0.0009c -0.0000,-1.2352 -0.0000,-2.4704 -0.0001 -3.7056c 1.0240,-0.0000 2.0480,-0.0000 3.0720 -0.0001c -0.0001,-4.4096 -0.0001,-8.8191 -0.0002 -13.2287c -1.0240,0.0000 -2.0480,0.0000 -3.0720 0.0001c -0.0001,-6.3104 -0.0002,-12.6209 -0.0003 -18.9313c 1.0240,-0.0000 2.0480,-0.0000 3.0720 -0.0001c -0.0001,-4.4096 -0.0002,-8.8191 -0.0002 -13.2287c -1.0240,0.0000 -2.0480,0.0000 -3.0720 0.0001c -0.0000,-1.2352 -0.0000,-2.4704 -0.0001 -3.7056c -17.6000,0.0003 -35.2000,0.0006 -52.8000 0.0009c 0.0000,1.2352 0.0000,2.4704 0.0001 3.7056c -1.0240,0.0000 -2.0480,0.0000 -3.0720 0.0001ZM 257.4319,722.9958 c 0.0001,4.4096 0.0001,8.8191 0.0002 13.2287c 1.0240,-0.0000 2.0480,-0.0000 3.0720 -0.0001c 0.0001,6.3104 0.0002,12.6209 0.0003 18.9313c -1.0240,0.0000 -2.0480,0.0000 -3.0720 0.0001c 0.0001,4.4096 0.0002,8.8191 0.0002 13.2287c 1.0240,-0.0000 2.0480,-0.0000 3.0720 -0.0001c 0.0000,1.2352 0.0000,2.4704 0.0001 3.7056c 17.6000,-0.0003 35.2000,-0.0006 52.8000 -0.0009c -0.0000,-1.2352 -0.0000,-2.4704 -0.0001 -3.7056c 1.0240,-0.0000 2.0480,-0.0000 3.0720 -0.0001c -0.0001,-4.4096 -0.0001,-8.8192 -0.0002 -13.2287c -1.0240,0.0000 -2.0480,0.0000 -3.0720 0.0001c -0.0001,-6.3104 -0.0002,-12.6209 -0.0003 -18.9313c 1.0240,-0.0000 2.0480,-0.0000 3.0720 -0.0001c -0.0001,-4.4096 -0.0002,-8.8191 -0.0002 -13.2287c -1.0240,0.0000 -2.0480,0.0000 -3.0720 0.0001c -0.0000,-1.2352 -0.0000,-2.4704 -0.0001 -3.7056c -17.6000,0.0003 -35.2000,0.0006 -52.8000 0.0009c 0.0000,1.2352 0.0000,2.4704 0.0001 3.7056c -1.0240,0.0000 -2.0480,0.0000 -3.0720 0.0001ZM 329.2395,526.4591 c 0.0001,4.4096 0.0001,8.8191 0.0002 13.2287c 1.0240,-0.0000 2.0480,-0.0000 3.0720 -0.0001c 0.0001,6.3104 0.0002,12.6209 0.0003 18.9313c -1.0240,0.0000 -2.0480,0.0000 -3.0720 0.0001c 0.0001,4.4096 0.0002,8.8192 0.0002 13.2287c 1.0240,-0.0000 2.0480,-0.0000 3.0720 -0.0001c 0.0000,1.2352 0.0000,2.4704 0.0001 3.7056c 17.6000,-0.0003 35.2000,-0.0006 52.8000 -0.0009c -0.0000,-1.2352 -0.0000,-2.4704 -0.0001 -3.7056c 1.0240,-0.0000 2.0480,-0.0000 3.0720 -0.0001c -0.0001,-4.4096 -0.0002,-8.8191 -0.0002 -13.2287c -1.0240,0.0000 -2.0480,0.0000 -3.0720 0.0001c -0.0001,-6.3104 -0.0002,-12.6209 -0.0003 -18.9313c 1.0240,-0.0000 2.0480,-0.0000 3.0720 -0.0001c -0.0001,-4.4096 -0.0001,-8.8192 -0.0002 -13.2287c -1.0240,0.0000 -2.0480,0.0000 -3.0720 0.0001c -0.0000,-1.2352 -0.0000,-2.4704 -0.0001 -3.7056c -17.6000,0.0003 -35.2000,0.0006 -52.8000 0.0009c 0.0000,1.2352 0.0000,2.4704 0.0001 3.7056c -1.0240,0.0000 -2.0480,0.0000 -3.0720 0.0001ZM 329.2407,598.2702 c 0.0001,4.4096 0.0002,8.8192 0.0002 13.2287c 1.0240,-0.0000 2.0480,-0.0000 3.0720 -0.0001c 0.0001,6.3104 0.0002,12.6209 0.0003 18.9313c -1.0240,0.0000 -2.0480,0.0000 -3.0720 0.0001c 0.0001,4.4096 0.0002,8.8191 0.0002 13.2287c 1.0240,-0.0000 2.0480,-0.0000 3.0720 -0.0001c 0.0000,1.2352 0.0000,2.4704 0.0001 3.7056c 17.6000,-0.0003 35.2000,-0.0006 52.8000 -0.0009c -0.0000,-1.2352 -0.0000,-2.4704 -0.0001 -3.7056c 1.0240,-0.0000 2.0480,-0.0000 3.0720 -0.0001c -0.0001,-4.4096 -0.0002,-8.8191 -0.0002 -13.2287c -1.0240,0.0000 -2.0480,0.0000 -3.0720 0.0001c -0.0001,-6.3104 -0.0002,-12.6209 -0.0003 -18.9313c 1.0240,-0.0000 2.0480,-0.0000 3.0720 -0.0001c -0.0001,-4.4096 -0.0001,-8.8191 -0.0002 -13.2287c -1.0240,0.0000 -2.0480,0.0000 -3.0720 0.0001c -0.0000,-1.2352 -0.0000,-2.4704 -0.0001 -3.7056c -17.6000,0.0003 -35.2000,0.0006 -52.8000 0.0009c 0.0000,1.2352 0.0000,2.4704 0.0001 3.7056c -1.0240,0.0000 -2.0480,0.0000 -3.0720 0.0001ZM 329.2420,670.0812 c 0.0001,4.4096 0.0002,8.8191 0.0002 13.2287c 1.0240,-0.0000 2.0480,-0.0000 3.0720 -0.0001c 0.0001,6.3104 0.0002,12.6209 0.0003 18.9313c -1.0240,0.0000 -2.0480,0.0000 -3.0720 0.0001c 0.0001,4.4096 0.0002,8.8191 0.0002 13.2287c 1.0240,-0.0000 2.0480,-0.0000 3.0720 -0.0001c 0.0000,1.2352 0.0000,2.4704 0.0001 3.7056c 17.6000,-0.0003 35.2000,-0.0006 52.8000 -0.0009c -0.0000,-1.2352 -0.0000,-2.4704 -0.0001 -3.7056c 1.0240,-0.0000 2.0480,-0.0000 3.0720 -0.0001c -0.0001,-4.4096 -0.0002,-8.8192 -0.0002 -13.2287c -1.0240,0.0000 -2.0480,0.0000 -3.0720 0.0001c -0.0001,-6.3104 -0.0002,-12.6209 -0.0003 -18.9313c 1.0240,-0.0000 2.0480,-0.0000 3.0720 -0.0001c -0.0001,-4.4096 -0.0002,-8.8192 -0.0002 -13.2287c -1.0240,0.0000 -2.0480,0.0000 -3.0720 0.0001c -0.0000,-1.2352 -0.0000,-2.4704 -0.0001 -3.7056c -17.6000,0.0003 -35.2000,0.0006 -52.8000 0.0009c 0.0000,1.2352 0.0000,2.4704 0.0001 3.7056c -1.0240,0.0000 -2.0480,0.0000 -3.0720 0.0001ZM 329.2432,741.8922 c 0.0001,4.4096 0.0002,8.8192 0.0002 13.2287c 1.0240,-0.0000 2.0480,-0.0000 3.0720 -0.0001c 0.0001,6.3104 0.0002,12.6209 0.0003 18.9313c -1.0240,0.0000 -2.0480,0.0000 -3.0720 0.0001c 0.0001,4.4096 0.0001,8.8192 0.0002 13.2287c 1.0240,-0.0000 2.0480,-0.0000 3.0720 -0.0001c 0.0000,1.2352 0.0000,2.4704 0.0001 3.7056c 17.6000,-0.0003 35.2000,-0.0006 52.8000 -0.0009c -0.0000,-1.2352 -0.0000,-2.4704 -0.0001 -3.7056c 1.0240,-0.0000 2.0480,-0.0000 3.0720 -0.0001c -0.0001,-4.4096 -0.0002,-8.8191 -0.0002 -13.2287c -1.0240,0.0000 -2.0480,0.0000 -3.0720 0.0001c -0.0001,-6.3104 -0.0002,-12.6209 -0.0003 -18.9313c 1.0240,-0.0000 2.0480,-0.0000 3.0720 -0.0001c -0.0001,-4.4096 -0.0002,-8.8191 -0.0002 -13.2287c -1.0240,0.0000 -2.0480,0.0000 -3.0720 0.0001c -0.0000,-1.2352 -0.0000,-2.4704 -0.0001 -3.7056c -17.6000,0.0003 -35.2000,0.0006 -52.8000 0.0009c 0.0000,1.2352 0.0000,2.4704 0.0001 3.7056c -1.0240,0.0000 -2.0480,0.0000 -3.0720 0.0001ZM 401.0507,537.7965 c 0.0001,4.4096 0.0001,8.8191 0.0002 13.2287c 1.0240,-0.0000 2.0480,-0.0000 3.0720 -0.0001c 0.0001,6.3104 0.0002,12.6209 0.0003 18.9313c -1.0240,0.0000 -2.0480,0.0000 -3.0720 0.0001c 0.0001,4.4096 0.0002,8.8191 0.0002 13.2287c 1.0240,-0.0000 2.0480,-0.0000 3.0720 -0.0001c 0.0000,1.2352 0.0000,2.4704 0.0001 3.7056c 17.6000,-0.0003 35.2000,-0.0006 52.8000 -0.0009c -0.0000,-1.2352 -0.0000,-2.4704 -0.0001 -3.7056c 1.0240,-0.0000 2.0480,-0.0000 3.0720 -0.0001c -0.0001,-4.4096 -0.0001,-8.8192 -0.0002 -13.2287c -1.0240,0.0000 -2.0480,0.0000 -3.0720 0.0001c -0.0001,-6.3104 -0.0002,-12.6209 -0.0003 -18.9313c 1.0240,-0.0000 2.0480,-0.0000 3.0720 -0.0001c -0.0001,-4.4096 -0.0001,-8.8192 -0.0002 -13.2287c -1.0240,0.0000 -2.0480,0.0000 -3.0720 0.0001c -0.0000,-1.2352 -0.0000,-2.4704 -0.0001 -3.7056c -17.6000,0.0003 -35.2000,0.0006 -52.8000 0.0009c 0.0000,1.2352 0.0000,2.4704 0.0001 3.7056c -1.0240,0.0000 -2.0480,0.0000 -3.0720 0.0001ZM 401.0519,609.6075 c 0.0001,4.4096 0.0002,8.8192 0.0002 13.2287c 1.0240,-0.0000 2.0480,-0.0000 3.0720 -0.0001c 0.0001,6.3104 0.0002,12.6209 0.0003 18.9313c -1.0240,0.0000 -2.0480,0.0000 -3.0720 0.0001c 0.0001,4.4096 0.0002,8.8192 0.0002 13.2287c 1.0240,-0.0000 2.0480,-0.0000 3.0720 -0.0001c 0.0000,1.2352 0.0000,2.4704 0.0001 3.7056c 17.6000,-0.0003 35.2000,-0.0006 52.8000 -0.0009c -0.0000,-1.2352 -0.0000,-2.4704 -0.0001 -3.7056c 1.0240,-0.0000 2.0480,-0.0000 3.0720 -0.0001c -0.0001,-4.4096 -0.0002,-8.8191 -0.0002 -13.2287c -1.0240,0.0000 -2.0480,0.0000 -3.0720 0.0001c -0.0001,-6.3104 -0.0002,-12.6209 -0.0003 -18.9313c 1.0240,-0.0000 2.0480,-0.0000 3.0720 -0.0001c -0.0001,-4.4096 -0.0001,-8.8191 -0.0002 -13.2287c -1.0240,0.0000 -2.0480,0.0000 -3.0720 0.0001c -0.0000,-1.2352 -0.0000,-2.4704 -0.0001 -3.7056c -17.6000,0.0003 -35.2000,0.0006 -52.8000 0.0009c 0.0000,1.2352 0.0000,2.4704 0.0001 3.7056c -1.0240,0.0000 -2.0480,0.0000 -3.0720 0.0001ZM 401.0532,681.4185 c 0.0001,4.4096 0.0002,8.8191 0.0002 13.2287c 1.0240,-0.0000 2.0480,-0.0000 3.0720 -0.0001c 0.0001,6.3104 0.0002,12.6209 0.0003 18.9313c -1.0240,0.0000 -2.0480,0.0000 -3.0720 0.0001c 0.0001,4.4096 0.0002,8.8191 0.0002 13.2287c 1.0240,-0.0000 2.0480,-0.0000 3.0720 -0.0001c 0.0000,1.2352 0.0000,2.4704 0.0001 3.7056c 17.6000,-0.0003 35.2000,-0.0006 52.8000 -0.0009c -0.0000,-1.2352 -0.0000,-2.4704 -0.0001 -3.7056c 1.0240,-0.0000 2.0480,-0.0000 3.0720 -0.0001c -0.0001,-4.4096 -0.0002,-8.8192 -0.0002 -13.2287c -1.0240,0.0000 -2.0480,0.0000 -3.0720 0.0001c -0.0001,-6.3104 -0.0002,-12.6209 -0.0003 -18.9313c 1.0240,-0.0000 2.0480,-0.0000 3.0720 -0.0001c -0.0001,-4.4096 -0.0001,-8.8191 -0.0002 -13.2287c -1.0240,0.0000 -2.0480,0.0000 -3.0720 0.0001c -0.0000,-1.2352 -0.0000,-2.4704 -0.0001 -3.7056c -17.6000,0.0003 -35.2000,0.0006 -52.8000 0.0009c 0.0000,1.2352 0.0000,2.4704 0.0001 3.7056c -1.0240,0.0000 -2.0480,0.0000 -3.0720 0.0001ZM 401.0545,753.2295 c 0.0001,4.4096 0.0002,8.8192 0.0002 13.2287c 1.0240,-0.0000 2.0480,-0.0000 3.0720 -0.0001c 0.0001,6.3104 0.0002,12.6209 0.0003 18.9313c -1.0240,0.0000 -2.0480,0.0000 -3.0720 0.0001c 0.0001,4.4096 0.0001,8.8192 0.0002 13.2287c 1.0240,-0.0000 2.0480,-0.0000 3.0720 -0.0001c 0.0000,1.2352 0.0000,2.4704 0.0001 3.7056c 17.6000,-0.0003 35.2000,-0.0006 52.8000 -0.0009c -0.0000,-1.2352 -0.0000,-2.4704 -0.0001 -3.7056c 1.0240,-0.0000 2.0480,-0.0000 3.0720 -0.0001c -0.0001,-4.4096 -0.0002,-8.8191 -0.0002 -13.2287c -1.0240,0.0000 -2.0480,0.0000 -3.0720 0.0001c -0.0001,-6.3104 -0.0002,-12.6209 -0.0003 -18.9313c 1.0240,-0.0000 2.0480,-0.0000 3.0720 -0.0001c -0.0001,-4.4096 -0.0002,-8.8192 -0.0002 -13.2287c -1.0240,0.0000 -2.0480,0.0000 -3.0720 0.0001c -0.0000,-1.2352 -0.0000,-2.4704 -0.0001 -3.7056c -17.6000,0.0003 -35.2000,0.0006 -52.8000 0.0009c 0.0000,1.2352 0.0000,2.4704 0.0001 3.7056c -1.0240,0.0000 -2.0480,0.0000 -3.0720 0.0001ZM 472.8618,541.5747 c 0.0001,4.4096 0.0002,8.8191 0.0002 13.2287c 1.0240,-0.0000 2.0480,-0.0000 3.0720 -0.0001c 0.0001,6.3104 0.0002,12.6209 0.0003 18.9313c -1.0240,0.0000 -2.0480,0.0000 -3.0720 0.0001c 0.0001,4.4096 0.0002,8.8192 0.0002 13.2287c 1.0240,-0.0000 2.0480,-0.0000 3.0720 -0.0001c 0.0000,1.2352 0.0000,2.4704 0.0001 3.7056c 17.6000,-0.0003 35.2000,-0.0006 52.8000 -0.0009c -0.0000,-1.2352 -0.0000,-2.4704 -0.0001 -3.7056c 1.0240,-0.0000 2.0480,-0.0000 3.0720 -0.0001c -0.0001,-4.4096 -0.0002,-8.8191 -0.0002 -13.2287c -1.0240,0.0000 -2.0480,0.0000 -3.0720 0.0001c -0.0001,-6.3104 -0.0002,-12.6209 -0.0003 -18.9313c 1.0240,-0.0000 2.0480,-0.0000 3.0720 -0.0001c -0.0001,-4.4096 -0.0001,-8.8192 -0.0002 -13.2287c -1.0240,0.0000 -2.0480,0.0000 -3.0720 0.0001c -0.0000,-1.2352 -0.0000,-2.4704 -0.0001 -3.7056c -17.6000,0.0003 -35.2000,0.0006 -52.8000 0.0009c 0.0000,1.2352 0.0000,2.4704 0.0001 3.7056c -1.0240,0.0000 -2.0480,0.0000 -3.0720 0.0001ZM 472.8630,613.3858 c 0.0001,4.4096 0.0002,8.8192 0.0002 13.2287c 1.0240,-0.0000 2.0480,-0.0000 3.0720 -0.0001c 0.0001,6.3104 0.0002,12.6209 0.0003 18.9313c -1.0240,0.0000 -2.0480,0.0000 -3.0720 0.0001c 0.0001,4.4096 0.0002,8.8191 0.0002 13.2287c 1.0240,-0.0000 2.0480,-0.0000 3.0720 -0.0001c 0.0000,1.2352 0.0000,2.4704 0.0001 3.7056c 17.6000,-0.0003 35.2000,-0.0006 52.8000 -0.0009c -0.0000,-1.2352 -0.0000,-2.4704 -0.0001 -3.7056c 1.0240,-0.0000 2.0480,-0.0000 3.0720 -0.0001c -0.0001,-4.4096 -0.0002,-8.8191 -0.0002 -13.2287c -1.0240,0.0000 -2.0480,0.0000 -3.0720 0.0001c -0.0001,-6.3104 -0.0002,-12.6209 -0.0003 -18.9313c 1.0240,-0.0000 2.0480,-0.0000 3.0720 -0.0001c -0.0001,-4.4096 -0.0002,-8.8191 -0.0002 -13.2287c -1.0240,0.0000 -2.0480,0.0000 -3.0720 0.0001c -0.0000,-1.2352 -0.0000,-2.4704 -0.0001 -3.7056c -17.6000,0.0003 -35.2000,0.0006 -52.8000 0.0009c 0.0000,1.2352 0.0000,2.4704 0.0001 3.7056c -1.0240,0.0000 -2.0480,0.0000 -3.0720 0.0001ZM 472.8643,685.1968 c 0.0001,4.4096 0.0002,8.8191 0.0002 13.2287c 1.0240,-0.0000 2.0480,-0.0000 3.0720 -0.0001c 0.0001,6.3104 0.0002,12.6209 0.0003 18.9313c -1.0240,0.0000 -2.0480,0.0000 -3.0720 0.0001c 0.0001,4.4096 0.0001,8.8191 0.0002 13.2287c 1.0240,-0.0000 2.0480,-0.0000 3.0720 -0.0001c 0.0000,1.2352 0.0000,2.4704 0.0001 3.7056c 17.6000,-0.0003 35.2000,-0.0006 52.8000 -0.0009c -0.0000,-1.2352 -0.0000,-2.4704 -0.0001 -3.7056c 1.0240,-0.0000 2.0480,-0.0000 3.0720 -0.0001c -0.0001,-4.4096 -0.0002,-8.8192 -0.0002 -13.2287c -1.0240,0.0000 -2.0480,0.0000 -3.0720 0.0001c -0.0001,-6.3104 -0.0002,-12.6209 -0.0003 -18.9313c 1.0240,-0.0000 2.0480,-0.0000 3.0720 -0.0001c -0.0001,-4.4096 -0.0002,-8.8192 -0.0002 -13.2287c -1.0240,0.0000 -2.0480,0.0000 -3.0720 0.0001c -0.0000,-1.2352 -0.0000,-2.4704 -0.0001 -3.7056c -17.6000,0.0003 -35.2000,0.0006 -52.8000 0.0009c 0.0000,1.2352 0.0000,2.4704 0.0001 3.7056c -1.0240,0.0000 -2.0480,0.0000 -3.0720 0.0001ZM 472.8655,757.0078 c 0.0001,4.4096 0.0001,8.8192 0.0002 13.2287c 1.0240,-0.0000 2.0480,-0.0000 3.0720 -0.0001c 0.0001,6.3104 0.0002,12.6209 0.0003 18.9313c -1.0240,0.0000 -2.0480,0.0000 -3.0720 0.0001c 0.0001,4.4096 0.0001,8.8192 0.0002 13.2287c 1.0240,-0.0000 2.0480,-0.0000 3.0720 -0.0001c 0.0000,1.2352 0.0000,2.4704 0.0001 3.7056c 17.6000,-0.0003 35.2000,-0.0006 52.8000 -0.0009c -0.0000,-1.2352 -0.0000,-2.4704 -0.0001 -3.7056c 1.0240,-0.0000 2.0480,-0.0000 3.0720 -0.0001c -0.0001,-4.4096 -0.0001,-8.8191 -0.0002 -13.2287c -1.0240,0.0000 -2.0480,0.0000 -3.0720 0.0001c -0.0001,-6.3104 -0.0002,-12.6209 -0.0003 -18.9313c 1.0240,-0.0000 2.0480,-0.0000 3.0720 -0.0001c -0.0001,-4.4096 -0.0002,-8.8191 -0.0002 -13.2287c -1.0240,0.0000 -2.0480,0.0000 -3.0720 0.0001c -0.0000,-1.2352 -0.0000,-2.4704 -0.0001 -3.7056c -17.6000,0.0003 -35.2000,0.0006 -52.8000 0.0009c 0.0000,1.2352 0.0000,2.4704 0.0001 3.7056c -1.0240,0.0000 -2.0480,0.0000 -3.0720 0.0001ZM 77.1430,887.9422 c 0.0000,-3.1311 -2.5382,-5.6693 -5.6693 -5.6693c -3.1311,-0.0000 -5.6693,2.5382 -5.6693 5.6693c 0.0000,3.1311 2.5382,5.6693 5.6693 5.6693c 3.1311,0.0000 5.6693,-2.5382 5.6693 -5.6693ZM 556.6819,828.3746 c 0.0000,-3.1311 -2.5382,-5.6693 -5.6693 -5.6693c -3.1311,-0.0000 -5.6693,2.5382 -5.6693 5.6693c 0.0000,3.1311 2.5382,5.6693 5.6693 5.6693c 3.1311,0.0000 5.6693,-2.5382 5.6693 -5.6693ZM 148.9476,519.0339 c 0.0000,-3.1311 -2.5382,-5.6693 -5.6693 -5.6693c -3.1311,-0.0000 -5.6693,2.5382 -5.6693 5.6693c 0.0000,3.1311 2.5382,5.6693 5.6693 5.6693c 3.1311,0.0000 5.6693,-2.5382 5.6693 -5.6693ZM 556.6764,515.5939 c 0.0000,-3.1311 -2.5382,-5.6693 -5.6693 -5.6693c -3.1311,-0.0000 -5.6693,2.5382 -5.6693 5.6693c 0.0000,3.1311 2.5382,5.6693 5.6693 5.6693c 3.1311,0.0000 5.6693,-2.5382 5.6693 -5.6693Z"/></g><g stroke-linejoin="miter" stroke-opacity="1.0" fill-opacity="0.5" stroke="rgb(0,0,0)" stroke-width="0.37795275590551186" fill="rgb(0,0,255)" stroke-linecap="butt" stroke-miterlimit="10.0"><path d="M 3.9685,267.2774 c 0.0003,-16.6086 13.6281,-30.2355 30.2357 -30.2358c 13.8583,-0.0002 27.7165,-0.0005 41.5748 -0.0007c -0.0001,-4.9722 -0.0002,-9.9444 -0.0003 -14.9165c -0.0000,-0.9071 -0.0000,-1.8142 -0.0000 -2.7213c 0.0000,-0.0000 0.0000,-0.0000 0.0000 -0.0001c -0.0004,-23.0299 -0.0008,-46.0598 -0.0012 -69.0897c -0.0000,-0.9071 -0.0000,-1.8142 -0.0000 -2.7213c 0.0000,-0.0000 0.0000,-0.0000 0.0000 -0.0001c -0.0004,-23.9370 -0.0008,-47.8740 -0.0013 -71.8110c 0.0003,-16.6086 13.6281,-30.2355 30.2357 -30.2358c 14.6001,-0.0003 29.2002,-0.0005 43.8003 -0.0008c 4.5161,-11.0463 15.4049,-18.8970 28.0103 -18.8972c 14.1804,-0.0002 28.3607,-0.0005 42.5411 -0.0007c 3.3856,-12.9915 15.2686,-22.6765 29.2695 -22.6767c 24.8441,-0.0004 49.6882,-0.0009 74.5323 -0.0013c 12.6056,-0.0002 23.4949,7.8510 28.0112 18.8971c 14.6000,-0.0003 29.2001,-0.0005 43.8001 -0.0008c 9.4789,-0.0002 17.9873,4.4392 23.5453 11.3382c 16.0887,-0.0003 32.1773,-0.0006 48.2660 -0.0008c 5.2722,-0.0001 10.2441,1.3732 14.5751 3.7793c 19.0787,-0.0003 38.1573,-0.0007 57.2360 -0.0010c 16.6078,-0.0003 30.2365,13.6278 30.2368 30.2357c 0.0004,23.9355 0.0008,47.8710 0.0013 71.8065c 0.0000,0.0015 0.0000,0.0030 0.0000 0.0045c 0.0000,0.9071 0.0000,1.8142 0.0000 2.7213c 0.0000,0.0000 0.0000,0.0000 0.0000 0.0001c 0.0004,23.0299 0.0008,46.0598 0.0012 69.0897c 0.0000,0.9072 0.0000,1.8143 0.0001 2.7215c 0.0000,0.0000 0.0000,0.0000 0.0000 0.0001c 0.0004,23.0299 0.0008,46.0598 0.0012 69.0897c 0.0000,0.9072 0.0000,1.8143 0.0001 2.7215c 0.0000,0.0000 0.0000,0.0000 0.0000 0.0001c 0.0004,23.9370 0.0008,47.8740 0.0013 71.8110c 0.0000,0.0000 0.0000,0.0000 0.0000 0.0001c 0.0000,16.6076 -13.6280,30.2359 -30.2357 30.2362c -24.8441,0.0004 -49.6882,0.0009 -74.5323 0.0013c -5.2721,0.0001 -10.2440,-1.3732 -14.5751 -3.7793c -19.0787,0.0003 -38.1574,0.0007 -57.2360 0.0010c -9.4788,0.0001 -17.9872,-4.4392 -23.5452 -11.3382c -16.0887,0.0003 -32.1773,0.0006 -48.2660 0.0008c -12.6055,0.0002 -23.4948,-7.8510 -28.0111 -18.8971c -3.9363,0.0001 -7.8726,0.0001 -11.8089 0.0002c -3.3856,12.9911 -15.2688,22.6770 -29.2696 22.6772c -14.6001,0.0003 -29.2002,0.0005 -43.8003 0.0008c -4.5161,11.0461 -15.4050,18.8974 -28.0104 18.8977c -13.8583,0.0002 -27.7165,0.0005 -41.5748 0.0007c 0.0001,5.8793 0.0002,11.7585 0.0003 17.6378c 0.0000,0.0000 0.0000,0.0000 0.0000 0.0001c 0.0000,16.6076 -13.6281,30.2359 -30.2357 30.2362c -24.8441,0.0004 -49.6882,0.0009 -74.5323 0.0013c -16.6079,0.0003 -30.2365,-13.6279 -30.2368 -30.2357c -0.0004,-23.9370 -0.0008,-47.8740 -0.0013 -71.8110c -0.0000,-0.9071 -0.0000,-1.8142 -0.0000 -2.7213c 0.0000,-0.0000 0.0000,-0.0000 0.0000 -0.0001c -0.0004,-23.9370 -0.0008,-47.8740 -0.0015 -71.8133ZM 30.4252,267.2779 c 0.0004,23.9370 0.0008,47.8740 0.0013 71.8110c 0.0000,0.0000 0.0000,0.0000 0.0000 0.0001c 0.0000,0.9071 0.0000,1.8142 0.0000 2.7213c 0.0004,23.9370 0.0008,47.8740 0.0013 71.8110c 0.0000,2.0874 1.6922,3.7795 3.7796 3.7795c 24.8441,-0.0004 49.6882,-0.0009 74.5323 -0.0013c 2.0874,-0.0000 3.7795,-1.6922 3.7795 -3.7795c 0.0000,-0.0000 0.0000,-0.0000 0.0000 -0.0001c -0.0001,-5.8787 -0.0002,-11.7573 -0.0003 -17.6360c -0.0002,-8.8195 -0.0003,-17.6390 -0.0005 -26.4585c 8.8190,-0.0002 17.6379,-0.0003 26.4569 -0.0005c 8.9454,-0.0002 17.8907,-0.0003 26.8361 -0.0005c 4.9128,-0.0001 9.8257,-0.0002 14.7385 -0.0003c 2.0874,-0.0000 3.7795,-1.6922 3.7795 -3.7795c 0.0000,-0.0000 0.0000,-0.0000 0.0000 -0.0001c -0.0001,-5.0394 -0.0002,-10.0787 -0.0003 -15.1181c 8.8190,-0.0002 17.6379,-0.0003 26.4569 -0.0005c 10.5716,-0.0002 21.1431,-0.0004 31.7147 -0.0006c 3.2866,-0.0001 6.5733,-0.0001 9.8599 -0.0002c 2.0874,-0.0000 3.7795,-1.6922 3.7795 -3.7795c 0.0000,-0.0000 0.0000,-0.0001 0.0000 -0.0001c -0.0001,-6.2992 -0.0002,-12.5984 -0.0003 -18.8976c 8.8190,-0.0002 17.6379,-0.0003 26.4569 -0.0005c 2.8724,-0.0001 5.7449,-0.0001 8.6173 -0.0002c 8.8188,-0.0002 17.6377,-0.0003 26.4565 -0.0005c 0.0001,5.0394 0.0002,10.0787 0.0003 15.1181c 0.0000,2.0874 1.6922,3.7795 3.7796 3.7795c 4.9131,-0.0001 9.8262,-0.0002 14.7393 -0.0003c 8.9452,-0.0002 17.8904,-0.0003 26.8356 -0.0005c 8.8189,-0.0002 17.6377,-0.0003 26.4566 -0.0005c 0.0000,2.5197 0.0001,5.0394 0.0001 7.5591c 0.0000,2.0874 1.6922,3.7795 3.7796 3.7795c 6.7108,-0.0001 13.4217,-0.0002 20.1325 -0.0004c 7.1474,-0.0001 14.2948,-0.0002 21.4422 -0.0004c 8.8189,-0.0002 17.6378,-0.0003 26.4567 -0.0005c 0.0000,2.0874 1.6922,3.7795 3.7796 3.7795c 7.4699,-0.0001 14.9397,-0.0003 22.4096 -0.0004c 17.3742,-0.0003 34.7485,-0.0006 52.1227 -0.0009c 2.0874,-0.0000 3.7795,-1.6922 3.7795 -3.7795c 0.0000,-0.0000 0.0000,-0.0000 0.0000 -0.0001c -0.0004,-23.9370 -0.0008,-47.8740 -0.0013 -71.8110c 0.0000,-0.0000 0.0000,-0.0000 0.0000 -0.0001c -0.0000,-0.9071 -0.0000,-1.8142 -0.0001 -2.7213c -0.0004,-23.0299 -0.0008,-46.0598 -0.0012 -69.0897c 0.0000,-0.0000 0.0000,-0.0000 0.0000 -0.0001c -0.0000,-0.9071 -0.0000,-1.8142 -0.0001 -2.7213c -0.0004,-23.0299 -0.0008,-46.0598 -0.0012 -69.0897c 0.0000,-0.0000 0.0000,-0.0000 0.0000 -0.0001c -0.0000,-0.9071 -0.0000,-1.8142 -0.0000 -2.7213c 0.0000,-0.0015 0.0000,-0.0030 0.0000 -0.0045c -0.0004,-23.9355 -0.0008,-47.8710 -0.0013 -71.8065c -0.0000,-2.0874 -1.6922,-3.7795 -3.7796 -3.7795c -13.8583,0.0002 -27.7166,0.0005 -41.5748 0.0007c -8.8189,0.0002 -17.6378,0.0003 -26.4567 0.0005c -0.0000,-2.0874 -1.6922,-3.7795 -3.7796 -3.7795c -7.4696,0.0001 -14.9392,0.0003 -22.4088 0.0004c -6.3887,0.0001 -12.7774,0.0002 -19.1661 0.0003c -8.8189,0.0002 -17.6378,0.0003 -26.4566 0.0005c -0.0000,-2.5197 -0.0001,-5.0394 -0.0001 -7.5591c -0.0000,-2.0874 -1.6922,-3.7795 -3.7796 -3.7795c -6.7099,0.0001 -13.4198,0.0002 -20.1297 0.0004c -7.1484,0.0001 -14.2968,0.0002 -21.4452 0.0004c -8.8189,0.0002 -17.6378,0.0003 -26.4566 0.0005c -0.0001,-5.0394 -0.0002,-10.0787 -0.0003 -15.1181c -0.0000,-2.0874 -1.6922,-3.7795 -3.7796 -3.7795c -4.9111,0.0001 -9.8223,0.0002 -14.7334 0.0003c -16.6489,0.0003 -33.2978,0.0006 -49.9466 0.0009c -3.2841,0.0001 -6.5682,0.0001 -9.8523 0.0002c -2.0873,0.0000 -3.7794,1.6921 -3.7795 3.7796c 0.0001,6.2992 0.0002,12.5984 0.0003 18.8976c -8.8189,0.0002 -17.6378,0.0003 -26.4568 0.0005c -8.9465,0.0002 -17.8930,0.0003 -26.8394 0.0005c -4.9118,0.0001 -9.8235,0.0002 -14.7353 0.0003c -2.0873,0.0000 -3.7794,1.6921 -3.7795 3.7796c 0.0001,5.0394 0.0002,10.0787 0.0003 15.1181c -8.8189,0.0002 -17.6378,0.0003 -26.4567 0.0005c -13.8583,0.0002 -27.7165,0.0005 -41.5747 0.0007c -2.0873,0.0000 -3.7794,1.6921 -3.7795 3.7796c 0.0004,23.9370 0.0008,47.8740 0.0013 71.8110c 0.0000,0.0000 0.0000,0.0000 0.0000 0.0001c 0.0000,0.9071 0.0000,1.8142 0.0000 2.7213c 0.0004,23.0299 0.0008,46.0598 0.0012 69.0897c 0.0000,0.0000 0.0000,0.0000 0.0000 0.0001c 0.0000,0.9071 0.0000,1.8142 0.0000 2.7213c 0.0001,4.9722 0.0002,9.9444 0.0003 14.9165c 0.0002,8.8189 0.0003,17.6378 0.0005 26.4567c -8.8189,0.0002 -17.6378,0.0003 -26.4567 0.0005c -13.8583,0.0002 -27.7165,0.0005 -41.5748 0.0007c -2.0873,0.0000 -3.7794,1.6921 -3.7795 3.7796ZM 77.1430,429.1544 c 0.0000,-3.1311 -2.5382,-5.6693 -5.6693 -5.6693c -3.1311,-0.0000 -5.6693,2.5382 -5.6693 5.6693c 0.0000,3.1311 2.5382,5.6693 5.6693 5.6693c 3.1311,0.0000 5.6693,-2.5382 5.6693 -5.6693ZM 556.6819,369.5867 c 0.0000,-3.1311 -2.5382,-5.6693 -5.6693 -5.6693c -3.1311,-0.0000 -5.6693,2.5382 -5.6693 5.6693c 0.0000,3.1311 2.5382,5.6693 5.6693 5.6693c 3.1311,0.0000 5.6693,-2.5382 5.6693 -5.6693ZM 148.9476,60.2460 c 0.0000,-3.1311 -2.5382,-5.6693 -5.6693 -5.6693c -3.1311,-0.0000 -5.6693,2.5382 -5.6693 5.6693c 0.0000,3.1311 2.5382,5.6693 5.6693 5.6693c 3.1311,0.0000 5.6693,-2.5382 5.6693 -5.6693ZM 556.6764,56.8060 c 0.0000,-3.1311 -2.5382,-5.6693 -5.6693 -5.6693c -3.1311,-0.0000 -5.6693,2.5382 -5.6693 5.6693c 0.0000,3.1311 2.5382,5.6693 5.6693 5.6693c 3.1311,0.0000 5.6693,-2.5382 5.6693 -5.6693Z"/></g></svg>