<?xml version="1.0" encoding="UTF-8"?>
<!DOCTYPE svg PUBLIC "-//W3C//DTD SVG 1.1//EN"
    "http://www.w3.org/Graphics/SVG/1.1/DTD/svg11.dtd"><svg xmlns="http://www.w3.org/2000/svg" height="2812.6586" stroke-opacity="1" viewBox="0 0 615 2813" font-size="1" width="614.9396" xmlns:xlink="http://www.w3.org/1999/xlink" stroke="rgb(0,0,0)" version="1.1"><defs></defs><defs><linearGradient x2="40.1507" y1="0.0000" gradientUnits="userSpaceOnUse" spreadMethod="pad" gradientTransform="matrix(3.7795,-0.0000,0.0000,-3.7795,20.3465,2786.4022)" id="gradient0" y2="0.0000" x1="-40.1507"><stop stop-opacity="1.0000" offset="0.0000" stop-color="rgb(128,128,128)"/><stop stop-opacity="1.0000" offset="0.5000" stop-color="rgb(255,255,255)"/><stop stop-opacity="1.0000" offset="1.0000" stop-color="rgb(128,128,128)"/></linearGradient></defs><g stroke-linejoin="miter" stroke-opacity="1.0" fill-opacity="1" stroke="rgb(0,0,0)" stroke-width="0.37795275590551186" fill="url(#gradient0)" stroke-linecap="butt" stroke-miterlimit="10.0"><path d="M 3.9685,2279.2418 c 0.0000,-9.0453 7.3327,-16.3779 16.3780 -16.3779c 151.9892,-0.0000 303.9784,-0.0000 455.9675 -0.0000c 7.0427,-0.0000 13.2969,4.5023 15.5316 11.1811c 39.4251,117.8293 78.8503,235.6586 118.2754 353.4880c 0.5758,1.7210 0.8500,3.4730 0.8500 5.1974c 0.0000,6.5661 -3.9756,12.7306 -10.4104 15.2500c -135.8590,53.1941 -271.7179,106.3883 -407.5769 159.5824c -1.9027,0.7450 -3.9279,1.1273 -5.9712 1.1273c -55.5554,-0.0000 -111.1107,-0.0000 -166.6660 -0.0000c -9.0453,-0.0000 -16.3780,-7.3326 -16.3780 -16.3780c 0.0000,-57.0078 0.0000,-114.0156 0.0000 -171.0234c 0.0000,-114.0156 0.0000,-228.0312 0.0000 -342.0469ZM 118.6142,2283.0213 c 0.0000,3.1311 2.5382,5.6693 5.6693 5.6693c 3.1311,-0.0000 5.6693,-2.5383 5.6693 -5.6693c 0.0000,-3.1311 -2.5382,-5.6693 -5.6693 -5.6693c -3.1311,-0.0000 -5.6693,2.5382 -5.6693 5.6693ZM 181.3432,2788.5326 c 0.0000,3.1311 2.5382,5.6693 5.6693 5.6693c 3.1311,-0.0000 5.6693,-2.5383 5.6693 -5.6693c 0.0000,-3.1311 -2.5382,-5.6693 -5.6693 -5.6693c -3.1311,-0.0000 -5.6693,2.5382 -5.6693 5.6693ZM 466.8652,2283.0213 c 0.0000,3.1311 2.5383,5.6693 5.6693 5.6693c 3.1311,-0.0000 5.6693,-2.5383 5.6693 -5.6693c 0.0000,-3.1311 -2.5382,-5.6693 -5.6693 -5.6693c -3.1311,-0.0000 -5.6693,2.5382 -5.6693 5.6693ZM 585.1406,2628.9502 c 0.0000,3.1311 2.5382,5.6693 5.6693 5.6693c 3.1311,-0.0000 5.6693,-2.5383 5.6693 -5.6693c 0.0000,-3.1311 -2.5383,-5.6693 -5.6693 -5.6693c -3.1311,-0.0000 -5.6693,2.5382 -5.6693 5.6693Z"/></g><g stroke-linejoin="miter" stroke-opacity="1.0" fill-opacity="0.5" stroke="rgb(0,0,0)" stroke-width="0.37795275590551186" fill="rgb(255,255,0)" stroke-linecap="butt" stroke-miterlimit="10.0"><path d="M 3.9685,1714.5179 c 0.0000,-9.0453 7.3327,-16.3779 16.3780 -16.3779c 151.9892,-0.0000 303.9784,-0.0000 455.9675 -0.0000c 7.0427,-0.0000 13.2969,4.5023 15.5316 11.1811c 39.4251,117.8293 78.8503,235.6586 118.2754 353.4879c 0.5758,1.7210 0.8500,3.4730 0.8500 5.1974c 0.0000,6.5661 -3.9756,12.7306 -10.4104 15.2501c -135.8589,53.1941 -271.7179,106.3883 -407.5769 159.5823c -1.9027,0.7450 -3.9279,1.1273 -5.9712 1.1273c -55.5554,-0.0000 -111.1107,-0.0000 -166.6660 -0.0000c -9.0453,-0.0000 -16.3780,-7.3326 -16.3780 -16.3780c 0.0000,-57.0078 0.0000,-114.0156 0.0000 -171.0234c 0.0000,-114.0156 0.0000,-228.0312 0.0000 -342.0469ZM 33.8446,1741.1633 c 0.0000,51.0866 0.0000,102.1732 0.0000 153.2598c 0.0000,102.1733 0.0000,204.3465 0.0000 306.5198c 0.0000,8.1058 6.6478,14.6769 14.8483 14.6769c 41.3775,-0.0000 82.7551,-0.0000 124.1326 -0.0000c 2.8318,-4.8954 8.1248,-8.1890 14.1869 -8.1890c 6.0363,-0.0000 11.3098,3.2655 14.1505 8.1263c 1.3838,-0.1268 2.7450,-0.4452 4.0432 -0.9476c 123.1700,-47.6691 246.3400,-95.3381 369.5100 -143.0071c 0.4150,-0.1606 0.8187,-0.3378 1.2107 -0.5304c -0.9597,-2.0830 -1.4949,-4.4018 -1.4949 -6.8456c 0.0000,-5.9466 3.1693,-11.1531 7.9109 -14.0223c -35.3960,-104.5659 -70.7920,-209.1319 -106.1879 -313.6978c -0.2423,-0.7155 -0.5365,-1.4032 -0.8779 -2.0595c -0.8918,0.1503 -1.8080,0.2286 -2.7425 0.2286c -6.0622,-0.0000 -11.3551,-3.2936 -14.1869 -8.1889c -106.6257,-0.0000 -213.2515,-0.0000 -319.8772 -0.0000c -2.8318,4.8954 -8.1247,8.1889 -14.1868 8.1889c -6.0621,-0.0000 -11.3550,-3.2936 -14.1869 -8.1889c -20.4679,-0.0000 -40.9358,-0.0000 -61.4037 -0.0000c -8.2005,-0.0000 -14.8483,6.5710 -14.8483 14.6769ZM 118.6142,1718.2975 c 0.0000,3.1311 2.5382,5.6693 5.6693 5.6693c 3.1310,-0.0000 5.6693,-2.5382 5.6693 -5.6693c 0.0000,-3.1311 -2.5382,-5.6693 -5.6693 -5.6693c -3.1311,-0.0000 -5.6693,2.5382 -5.6693 5.6693ZM 181.3432,2223.8087 c 0.0000,3.1311 2.5382,5.6693 5.6693 5.6693c 3.1310,-0.0000 5.6693,-2.5382 5.6693 -5.6693c 0.0000,-3.1310 -2.5382,-5.6693 -5.6693 -5.6693c -3.1311,-0.0000 -5.6693,2.5382 -5.6693 5.6693ZM 466.8652,1718.2975 c 0.0000,3.1311 2.5382,5.6693 5.6693 5.6693c 3.1311,-0.0000 5.6693,-2.5382 5.6693 -5.6693c 0.0000,-3.1311 -2.5382,-5.6693 -5.6693 -5.6693c -3.1310,-0.0000 -5.6693,2.5382 -5.6693 5.6693ZM 585.1406,2064.2264 c 0.0000,3.1311 2.5382,5.6693 5.6693 5.6693c 3.1310,-0.0000 5.6693,-2.5382 5.6693 -5.6693c 0.0000,-3.1311 -2.5382,-5.6693 -5.6693 -5.6693c -3.1311,-0.0000 -5.6693,2.5382 -5.6693 5.6693Z"/></g><g stroke-linejoin="miter" stroke-opacity="1.0" fill-opacity="0.5" stroke="rgb(0,0,0)" stroke-width="0.37795275590551186" fill="rgb(255,255,0)" stroke-linecap="butt" stroke-miterlimit="10.0"><path d="M 3.9685,1149.7941 c 0.0000,-9.0453 7.3327,-16.3779 16.3780 -16.3779c 151.9892,-0.0000 303.9784,-0.0000 455.9675 -0.0000c 7.0427,-0.0000 13.2969,4.5023 15.5316 11.1811c 39.4251,117.8293 78.8503,235.6586 118.2754 353.4879c 0.5758,1.7210 0.8500,3.4730 0.8500 5.1974c 0.0000,6.5661 -3.9756,12.7306 -10.4104 15.2501c -135.8589,53.1941 -271.7179,106.3883 -407.5769 159.5823c -1.9027,0.7450 -3.9279,1.1273 -5.9712 1.1273c -55.5554,-0.0000 -111.1107,-0.0000 -166.6660 -0.0000c -9.0453,-0.0000 -16.3780,-7.3326 -16.3780 -16.3780c 0.0000,-57.0078 0.0000,-114.0156 0.0000 -171.0234c 0.0000,-114.0156 0.0000,-228.0312 0.0000 -342.0469ZM 33.8446,1176.4395 c 0.0000,51.0866 0.0000,102.1732 0.0000 153.2598c 0.0000,102.1733 0.0000,204.3465 0.0000 306.5198c 0.0000,8.1058 6.6478,14.6769 14.8483 14.6769c 41.3775,-0.0000 82.7551,-0.0000 124.1326 -0.0000c 2.8318,-4.8954 8.1248,-8.1890 14.1869 -8.1890c 6.0363,-0.0000 11.3098,3.2655 14.1505 8.1263c 1.3838,-0.1268 2.7450,-0.4452 4.0432 -0.9476c 123.1700,-47.6691 246.3400,-95.3381 369.5100 -143.0071c 0.4150,-0.1606 0.8187,-0.3378 1.2107 -0.5304c -0.9597,-2.0830 -1.4949,-4.4018 -1.4949 -6.8456c 0.0000,-5.9466 3.1693,-11.1531 7.9109 -14.0223c -35.3960,-104.5659 -70.7920,-209.1319 -106.1879 -313.6978c -0.2423,-0.7155 -0.5365,-1.4032 -0.8779 -2.0595c -0.8918,0.1503 -1.8080,0.2286 -2.7425 0.2286c -6.0622,-0.0000 -11.3551,-3.2936 -14.1869 -8.1889c -106.6257,-0.0000 -213.2515,-0.0000 -319.8772 -0.0000c -2.8318,4.8954 -8.1247,8.1889 -14.1868 8.1889c -6.0621,-0.0000 -11.3550,-3.2936 -14.1869 -8.1889c -20.4679,-0.0000 -40.9358,-0.0000 -61.4037 -0.0000c -8.2005,-0.0000 -14.8483,6.5710 -14.8483 14.6769ZM 118.6142,1153.5736 c 0.0000,3.1311 2.5382,5.6693 5.6693 5.6693c 3.1310,-0.0000 5.6693,-2.5382 5.6693 -5.6693c 0.0000,-3.1311 -2.5382,-5.6693 -5.6693 -5.6693c -3.1311,-0.0000 -5.6693,2.5382 -5.6693 5.6693ZM 181.3432,1659.0849 c 0.0000,3.1311 2.5382,5.6693 5.6693 5.6693c 3.1310,-0.0000 5.6693,-2.5382 5.6693 -5.6693c 0.0000,-3.1310 -2.5382,-5.6693 -5.6693 -5.6693c -3.1311,-0.0000 -5.6693,2.5382 -5.6693 5.6693ZM 466.8652,1153.5736 c 0.0000,3.1311 2.5382,5.6693 5.6693 5.6693c 3.1311,-0.0000 5.6693,-2.5382 5.6693 -5.6693c 0.0000,-3.1311 -2.5382,-5.6693 -5.6693 -5.6693c -3.1310,-0.0000 -5.6693,2.5382 -5.6693 5.6693ZM 585.1406,1499.5025 c 0.0000,3.1311 2.5382,5.6693 5.6693 5.6693c 3.1310,-0.0000 5.6693,-2.5382 5.6693 -5.6693c 0.0000,-3.1311 -2.5382,-5.6693 -5.6693 -5.6693c -3.1311,-0.0000 -5.6693,2.5382 -5.6693 5.6693Z"/></g><g stroke-linejoin="miter" stroke-opacity="1.0" fill-opacity="0.5" stroke="rgb(0,0,0)" stroke-width="0.37795275590551186" fill="rgb(0,0,0)" stroke-linecap="butt" stroke-miterlimit="10.0"><path d="M 3.9685,585.0702 c 0.0000,-9.0453 7.3327,-16.3779 16.3780 -16.3779c 151.9892,-0.0000 303.9784,-0.0000 455.9675 -0.0000c 7.0427,-0.0000 13.2969,4.5023 15.5316 11.1811c 39.4251,117.8293 78.8503,235.6586 118.2754 353.4879c 0.5758,1.7210 0.8500,3.4730 0.8500 5.1974c 0.0000,6.5661 -3.9756,12.7306 -10.4104 15.2501c -135.8589,53.1941 -271.7179,106.3883 -407.5769 159.5823c -1.9027,0.7450 -3.9279,1.1273 -5.9712 1.1273c -55.5554,-0.0000 -111.1107,-0.0000 -166.6660 -0.0000c -9.0453,-0.0000 -16.3780,-7.3326 -16.3780 -16.3780c 0.0000,-57.0078 0.0000,-114.0156 0.0000 -171.0234c 0.0000,-114.0156 0.0000,-228.0312 0.0000 -342.0469ZM 60.7186,751.8946 c 1.3992,4.1817 2.7984,8.3634 4.1975 12.5451c 0.9711,-0.3249 1.9421,-0.6498 2.9133 -0.9748c 2.0023,5.9843 4.0046,11.9686 6.0070 17.9530c -0.9711,0.3249 -1.9421,0.6498 -2.9133 0.9747c 1.3992,4.1817 2.7984,8.3634 4.1975 12.5451c 0.9711,-0.3249 1.9422,-0.6498 2.9133 -0.9748c 0.3919,1.1714 0.7839,2.3428 1.1758 3.5141c 16.6905,-5.5846 33.3810,-11.1691 50.0715 -16.7537c -0.3919,-1.1714 -0.7839,-2.3428 -1.1758 -3.5141c 0.9711,-0.3249 1.9421,-0.6498 2.9133 -0.9748c -1.3992,-4.1817 -2.7984,-8.3634 -4.1975 -12.5451c -0.9711,0.3249 -1.9422,0.6498 -2.9133 0.9748c -2.0023,-5.9843 -4.0046,-11.9686 -6.0070 -17.9530c 0.9711,-0.3249 1.9421,-0.6498 2.9132 -0.9747c -1.3992,-4.1817 -2.7983,-8.3634 -4.1975 -12.5451c -0.9711,0.3249 -1.9422,0.6498 -2.9133 0.9748c -0.3919,-1.1714 -0.7839,-2.3428 -1.1758 -3.5141c -16.6905,5.5846 -33.3810,11.1691 -50.0715 16.7537c 0.3919,1.1714 0.7839,2.3428 1.1758 3.5141c -0.9711,0.3249 -1.9422,0.6498 -2.9133 0.9748ZM 72.3694,1013.0309 c 1.3992,4.1817 2.7983,8.3634 4.1975 12.5451c 0.9711,-0.3249 1.9422,-0.6498 2.9133 -0.9748c 2.0023,5.9843 4.0047,11.9686 6.0070 17.9529c -0.9711,0.3249 -1.9422,0.6498 -2.9133 0.9748c 1.3992,4.1817 2.7984,8.3634 4.1975 12.5451c 0.9711,-0.3249 1.9421,-0.6498 2.9132 -0.9748c 0.3919,1.1714 0.7839,2.3428 1.1758 3.5141c 16.6905,-5.5846 33.3810,-11.1691 50.0715 -16.7537c -0.3919,-1.1714 -0.7839,-2.3428 -1.1758 -3.5141c 0.9711,-0.3249 1.9422,-0.6498 2.9133 -0.9748c -1.3992,-4.1817 -2.7984,-8.3634 -4.1975 -12.5451c -0.9711,0.3249 -1.9421,0.6498 -2.9132 0.9748c -2.0023,-5.9843 -4.0047,-11.9686 -6.0070 -17.9530c 0.9711,-0.3249 1.9422,-0.6498 2.9133 -0.9748c -1.3992,-4.1817 -2.7984,-8.3634 -4.1975 -12.5451c -0.9711,0.3249 -1.9421,0.6498 -2.9133 0.9748c -0.3919,-1.1714 -0.7839,-2.3428 -1.1758 -3.5141c -16.6905,5.5846 -33.3810,11.1691 -50.0715 16.7537c 0.3919,1.1714 0.7839,2.3428 1.1758 3.5141c -0.9711,0.3249 -1.9421,0.6498 -2.9132 0.9748ZM 83.5046,819.9947 c 1.3992,4.1817 2.7984,8.3634 4.1975 12.5451c 0.9711,-0.3249 1.9421,-0.6498 2.9133 -0.9748c 2.0023,5.9843 4.0046,11.9686 6.0070 17.9530c -0.9711,0.3249 -1.9421,0.6498 -2.9133 0.9748c 1.3992,4.1817 2.7984,8.3634 4.1975 12.5451c 0.9711,-0.3249 1.9422,-0.6498 2.9133 -0.9747c 0.3919,1.1714 0.7839,2.3428 1.1758 3.5141c 16.6905,-5.5846 33.3810,-11.1692 50.0715 -16.7537c -0.3919,-1.1714 -0.7839,-2.3428 -1.1758 -3.5141c 0.9711,-0.3249 1.9421,-0.6498 2.9133 -0.9748c -1.3992,-4.1817 -2.7984,-8.3634 -4.1975 -12.5451c -0.9711,0.3249 -1.9422,0.6498 -2.9133 0.9748c -2.0023,-5.9843 -4.0047,-11.9687 -6.0070 -17.9530c 0.9711,-0.3249 1.9421,-0.6498 2.9132 -0.9748c -1.3992,-4.1817 -2.7984,-8.3634 -4.1975 -12.5451c -0.9711,0.3249 -1.9422,0.6498 -2.9133 0.9748c -0.3919,-1.1714 -0.7839,-2.3428 -1.1758 -3.5141c -16.6905,5.5846 -33.3810,11.1691 -50.0715 16.7537c 0.3919,1.1714 0.7839,2.3428 1.1758 3.5141c -0.9711,0.3249 -1.9422,0.6498 -2.9133 0.9748ZM 106.2905,888.0948 c 1.3992,4.1817 2.7984,8.3634 4.1975 12.5451c 0.9711,-0.3249 1.9421,-0.6498 2.9133 -0.9748c 2.0023,5.9843 4.0046,11.9686 6.0070 17.9529c -0.9711,0.3249 -1.9421,0.6498 -2.9133 0.9748c 1.3992,4.1817 2.7984,8.3634 4.1975 12.5451c 0.9711,-0.3249 1.9422,-0.6498 2.9133 -0.9748c 0.3919,1.1714 0.7839,2.3428 1.1758 3.5141c 16.6905,-5.5846 33.3810,-11.1691 50.0715 -16.7537c -0.3919,-1.1714 -0.7839,-2.3428 -1.1758 -3.5141c 0.9711,-0.3249 1.9421,-0.6498 2.9132 -0.9748c -1.3991,-4.1817 -2.7983,-8.3634 -4.1975 -12.5451c -0.9711,0.3249 -1.9422,0.6498 -2.9133 0.9748c -2.0023,-5.9843 -4.0047,-11.9686 -6.0070 -17.9530c 0.9711,-0.3249 1.9421,-0.6498 2.9132 -0.9748c -1.3992,-4.1817 -2.7984,-8.3634 -4.1975 -12.5451c -0.9711,0.3249 -1.9422,0.6498 -2.9133 0.9748c -0.3919,-1.1714 -0.7839,-2.3428 -1.1758 -3.5141c -16.6905,5.5846 -33.3810,11.1691 -50.0715 16.7537c 0.3919,1.1714 0.7839,2.3428 1.1758 3.5141c -0.9711,0.3249 -1.9422,0.6498 -2.9133 0.9748ZM 118.6142,588.8498 c 0.0000,3.1310 2.5382,5.6693 5.6693 5.6693c 3.1310,-0.0000 5.6693,-2.5383 5.6693 -5.6693c 0.0000,-3.1311 -2.5382,-5.6693 -5.6693 -5.6693c -3.1311,-0.0000 -5.6693,2.5382 -5.6693 5.6693ZM 122.8224,711.1876 c 1.3992,4.1817 2.7984,8.3634 4.1975 12.5451c 0.9711,-0.3249 1.9422,-0.6498 2.9133 -0.9748c 2.0023,5.9843 4.0046,11.9686 6.0070 17.9530c -0.9711,0.3249 -1.9421,0.6498 -2.9133 0.9747c 1.3992,4.1817 2.7984,8.3634 4.1975 12.5451c 0.9711,-0.3249 1.9422,-0.6498 2.9133 -0.9748c 0.3919,1.1714 0.7839,2.3428 1.1758 3.5141c 16.6905,-5.5846 33.3810,-11.1691 50.0715 -16.7537c -0.3919,-1.1714 -0.7839,-2.3428 -1.1758 -3.5141c 0.9711,-0.3249 1.9421,-0.6498 2.9133 -0.9748c -1.3992,-4.1817 -2.7984,-8.3634 -4.1975 -12.5451c -0.9711,0.3249 -1.9422,0.6498 -2.9133 0.9748c -2.0023,-5.9843 -4.0046,-11.9686 -6.0070 -17.9530c 0.9711,-0.3249 1.9421,-0.6498 2.9132 -0.9747c -1.3992,-4.1817 -2.7983,-8.3634 -4.1975 -12.5451c -0.9711,0.3249 -1.9422,0.6498 -2.9133 0.9748c -0.3919,-1.1714 -0.7839,-2.3428 -1.1758 -3.5141c -16.6905,5.5846 -33.3810,11.1691 -50.0715 16.7537c 0.3919,1.1714 0.7839,2.3428 1.1758 3.5141c -0.9711,0.3249 -1.9422,0.6498 -2.9133 0.9748ZM 129.0765,956.1949 c 1.3992,4.1817 2.7984,8.3634 4.1975 12.5451c 0.9711,-0.3249 1.9421,-0.6498 2.9132 -0.9748c 2.0023,5.9843 4.0047,11.9686 6.0070 17.9530c -0.9711,0.3249 -1.9422,0.6498 -2.9133 0.9748c 1.3992,4.1817 2.7984,8.3634 4.1975 12.5451c 0.9711,-0.3249 1.9422,-0.6498 2.9133 -0.9748c 0.3919,1.1714 0.7839,2.3428 1.1758 3.5141c 16.6905,-5.5846 33.3810,-11.1691 50.0715 -16.7537c -0.3919,-1.1714 -0.7839,-2.3428 -1.1758 -3.5141c 0.9711,-0.3249 1.9421,-0.6498 2.9132 -0.9748c -1.3991,-4.1817 -2.7983,-8.3634 -4.1975 -12.5451c -0.9711,0.3249 -1.9422,0.6498 -2.9133 0.9748c -2.0023,-5.9843 -4.0047,-11.9686 -6.0070 -17.9529c 0.9711,-0.3249 1.9421,-0.6498 2.9132 -0.9748c -1.3992,-4.1817 -2.7984,-8.3634 -4.1975 -12.5451c -0.9711,0.3249 -1.9421,0.6498 -2.9132 0.9748c -0.3919,-1.1714 -0.7839,-2.3428 -1.1758 -3.5141c -16.6905,5.5846 -33.3810,11.1691 -50.0715 16.7537c 0.3919,1.1714 0.7839,2.3428 1.1758 3.5141c -0.9711,0.3249 -1.9422,0.6498 -2.9133 0.9748ZM 145.6083,779.2877 c 1.3992,4.1817 2.7984,8.3634 4.1975 12.5451c 0.9711,-0.3249 1.9421,-0.6498 2.9133 -0.9748c 2.0023,5.9843 4.0046,11.9686 6.0070 17.9530c -0.9711,0.3249 -1.9421,0.6498 -2.9133 0.9748c 1.3992,4.1817 2.7984,8.3634 4.1975 12.5451c 0.9711,-0.3249 1.9422,-0.6498 2.9133 -0.9747c 0.3919,1.1714 0.7839,2.3428 1.1758 3.5141c 16.6905,-5.5846 33.3810,-11.1692 50.0715 -16.7537c -0.3919,-1.1714 -0.7839,-2.3428 -1.1758 -3.5141c 0.9711,-0.3249 1.9421,-0.6498 2.9133 -0.9748c -1.3992,-4.1817 -2.7984,-8.3634 -4.1975 -12.5451c -0.9711,0.3249 -1.9422,0.6498 -2.9133 0.9748c -2.0023,-5.9843 -4.0046,-11.9687 -6.0070 -17.9530c 0.9711,-0.3249 1.9421,-0.6498 2.9132 -0.9748c -1.3992,-4.1817 -2.7983,-8.3634 -4.1975 -12.5451c -0.9711,0.3249 -1.9422,0.6498 -2.9133 0.9748c -0.3919,-1.1714 -0.7839,-2.3428 -1.1758 -3.5141c -16.6905,5.5846 -33.3810,11.1691 -50.0715 16.7537c 0.3919,1.1714 0.7839,2.3428 1.1758 3.5141c -0.9711,0.3249 -1.9422,0.6498 -2.9133 0.9748ZM 151.8625,1024.2950 c 1.3992,4.1817 2.7984,8.3634 4.1975 12.5451c 0.9711,-0.3249 1.9421,-0.6498 2.9132 -0.9748c 2.0023,5.9843 4.0047,11.9687 6.0070 17.9530c -0.9711,0.3249 -1.9422,0.6498 -2.9133 0.9748c 1.3992,4.1817 2.7984,8.3634 4.1975 12.5451c 0.9711,-0.3249 1.9421,-0.6498 2.9133 -0.9748c 0.3919,1.1714 0.7839,2.3428 1.1758 3.5141c 16.6905,-5.5846 33.3810,-11.1691 50.0715 -16.7537c -0.3919,-1.1714 -0.7839,-2.3428 -1.1758 -3.5141c 0.9711,-0.3249 1.9421,-0.6498 2.9132 -0.9748c -1.3992,-4.1817 -2.7983,-8.3634 -4.1975 -12.5451c -0.9711,0.3249 -1.9422,0.6498 -2.9133 0.9748c -2.0023,-5.9843 -4.0047,-11.9686 -6.0070 -17.9530c 0.9711,-0.3249 1.9422,-0.6498 2.9133 -0.9748c -1.3992,-4.1817 -2.7984,-8.3634 -4.1975 -12.5451c -0.9711,0.3249 -1.9421,0.6498 -2.9132 0.9747c -0.3919,-1.1714 -0.7839,-2.3428 -1.1758 -3.5141c -16.6905,5.5846 -33.3810,11.1692 -50.0715 16.7537c 0.3919,1.1714 0.7839,2.3428 1.1758 3.5141c -0.9711,0.3249 -1.9422,0.6498 -2.9133 0.9748ZM 168.3943,847.3878 c 1.3992,4.1817 2.7984,8.3634 4.1975 12.5451c 0.9711,-0.3249 1.9421,-0.6498 2.9133 -0.9748c 2.0023,5.9843 4.0046,11.9686 6.0070 17.9529c -0.9711,0.3249 -1.9421,0.6498 -2.9133 0.9748c 1.3992,4.1817 2.7984,8.3634 4.1975 12.5451c 0.9711,-0.3249 1.9422,-0.6498 2.9133 -0.9748c 0.3919,1.1714 0.7839,2.3428 1.1758 3.5141c 16.6905,-5.5846 33.3810,-11.1691 50.0715 -16.7537c -0.3919,-1.1714 -0.7839,-2.3428 -1.1758 -3.5141c 0.9711,-0.3249 1.9421,-0.6498 2.9133 -0.9748c -1.3992,-4.1817 -2.7984,-8.3634 -4.1975 -12.5451c -0.9711,0.3249 -1.9422,0.6498 -2.9133 0.9748c -2.0023,-5.9843 -4.0047,-11.9686 -6.0070 -17.9530c 0.9711,-0.3249 1.9421,-0.6498 2.9132 -0.9748c -1.3992,-4.1817 -2.7984,-8.3634 -4.1975 -12.5451c -0.9711,0.3249 -1.9422,0.6498 -2.9133 0.9748c -0.3919,-1.1714 -0.7839,-2.3428 -1.1758 -3.5141c -16.6905,5.5846 -33.3810,11.1691 -50.0715 16.7537c 0.3919,1.1714 0.7839,2.3428 1.1758 3.5141c -0.9711,0.3249 -1.9422,0.6498 -2.9133 0.9748ZM 181.3433,1094.3610 c 0.0000,3.1311 2.5382,5.6693 5.6693 5.6693c 3.1310,-0.0000 5.6693,-2.5382 5.6693 -5.6693c 0.0000,-3.1311 -2.5382,-5.6693 -5.6693 -5.6693c -3.1311,-0.0000 -5.6693,2.5382 -5.6693 5.6693ZM 183.7269,666.8963 c 1.3992,4.1817 2.7984,8.3634 4.1975 12.5451c 0.9711,-0.3249 1.9421,-0.6498 2.9132 -0.9748c 2.0023,5.9843 4.0047,11.9686 6.0070 17.9530c -0.9711,0.3249 -1.9422,0.6498 -2.9133 0.9748c 1.3992,4.1817 2.7984,8.3634 4.1975 12.5451c 0.9711,-0.3249 1.9421,-0.6498 2.9132 -0.9748c 0.3919,1.1714 0.7839,2.3428 1.1758 3.5141c 16.6905,-5.5846 33.3810,-11.1691 50.0715 -16.7537c -0.3919,-1.1714 -0.7839,-2.3428 -1.1758 -3.5141c 0.9711,-0.3249 1.9421,-0.6498 2.9132 -0.9748c -1.3992,-4.1817 -2.7984,-8.3634 -4.1975 -12.5451c -0.9711,0.3249 -1.9421,0.6498 -2.9132 0.9748c -2.0023,-5.9843 -4.0047,-11.9686 -6.0070 -17.9529c 0.9711,-0.3249 1.9422,-0.6498 2.9133 -0.9748c -1.3992,-4.1817 -2.7984,-8.3634 -4.1975 -12.5451c -0.9711,0.3249 -1.9421,0.6498 -2.9132 0.9748c -0.3919,-1.1714 -0.7839,-2.3428 -1.1758 -3.5141c -16.6905,5.5846 -33.3810,11.1691 -50.0715 16.7537c 0.3919,1.1714 0.7839,2.3428 1.1758 3.5141c -0.9711,0.3249 -1.9422,0.6498 -2.9133 0.9748ZM 191.1803,915.4878 c 1.3992,4.1817 2.7984,8.3634 4.1975 12.5451c 0.9711,-0.3249 1.9421,-0.6498 2.9133 -0.9748c 2.0023,5.9843 4.0046,11.9686 6.0070 17.9530c -0.9711,0.3249 -1.9421,0.6498 -2.9133 0.9748c 1.3992,4.1817 2.7984,8.3634 4.1975 12.5451c 0.9711,-0.3249 1.9422,-0.6498 2.9133 -0.9748c 0.3919,1.1714 0.7839,2.3428 1.1758 3.5141c 16.6905,-5.5846 33.3810,-11.1691 50.0715 -16.7537c -0.3919,-1.1714 -0.7839,-2.3428 -1.1758 -3.5141c 0.9711,-0.3249 1.9421,-0.6498 2.9132 -0.9748c -1.3991,-4.1817 -2.7983,-8.3634 -4.1975 -12.5451c -0.9711,0.3249 -1.9422,0.6498 -2.9133 0.9748c -2.0023,-5.9843 -4.0047,-11.9686 -6.0070 -17.9529c 0.9711,-0.3249 1.9421,-0.6498 2.9132 -0.9748c -1.3992,-4.1817 -2.7984,-8.3634 -4.1975 -12.5451c -0.9711,0.3249 -1.9421,0.6498 -2.9132 0.9748c -0.3919,-1.1714 -0.7839,-2.3428 -1.1758 -3.5141c -16.6905,5.5846 -33.3810,11.1691 -50.0715 16.7537c 0.3919,1.1714 0.7839,2.3428 1.1758 3.5141c -0.9711,0.3249 -1.9422,0.6498 -2.9133 0.9748ZM 206.5129,734.9964 c 1.3992,4.1817 2.7984,8.3634 4.1975 12.5451c 0.9711,-0.3249 1.9421,-0.6498 2.9132 -0.9748c 2.0023,5.9843 4.0047,11.9687 6.0070 17.9530c -0.9711,0.3249 -1.9422,0.6498 -2.9133 0.9748c 1.3992,4.1817 2.7984,8.3634 4.1975 12.5451c 0.9711,-0.3249 1.9421,-0.6498 2.9132 -0.9748c 0.3919,1.1714 0.7839,2.3428 1.1758 3.5141c 16.6905,-5.5846 33.3810,-11.1691 50.0715 -16.7537c -0.3919,-1.1714 -0.7839,-2.3428 -1.1758 -3.5141c 0.9711,-0.3249 1.9422,-0.6498 2.9133 -0.9748c -1.3992,-4.1817 -2.7984,-8.3634 -4.1975 -12.5451c -0.9711,0.3249 -1.9421,0.6498 -2.9132 0.9748c -2.0023,-5.9843 -4.0047,-11.9686 -6.0070 -17.9530c 0.9711,-0.3249 1.9422,-0.6498 2.9133 -0.9748c -1.3992,-4.1817 -2.7984,-8.3634 -4.1975 -12.5451c -0.9711,0.3249 -1.9421,0.6498 -2.9132 0.9747c -0.3919,-1.1714 -0.7839,-2.3428 -1.1758 -3.5141c -16.6905,5.5846 -33.3810,11.1692 -50.0715 16.7537c 0.3919,1.1714 0.7839,2.3428 1.1758 3.5141c -0.9711,0.3249 -1.9421,0.6498 -2.9132 0.9748ZM 213.9663,983.5880 c 1.3992,4.1817 2.7984,8.3634 4.1975 12.5451c 0.9711,-0.3249 1.9421,-0.6498 2.9132 -0.9748c 2.0023,5.9843 4.0047,11.9687 6.0070 17.9530c -0.9711,0.3249 -1.9422,0.6498 -2.9133 0.9748c 1.3992,4.1817 2.7984,8.3634 4.1975 12.5451c 0.9711,-0.3249 1.9422,-0.6498 2.9133 -0.9748c 0.3919,1.1714 0.7839,2.3428 1.1758 3.5141c 16.6905,-5.5846 33.3810,-11.1691 50.0715 -16.7537c -0.3919,-1.1714 -0.7839,-2.3428 -1.1758 -3.5141c 0.9711,-0.3249 1.9421,-0.6498 2.9132 -0.9748c -1.3992,-4.1817 -2.7983,-8.3634 -4.1975 -12.5451c -0.9711,0.3249 -1.9422,0.6498 -2.9133 0.9748c -2.0023,-5.9843 -4.0047,-11.9686 -6.0070 -17.9530c 0.9711,-0.3249 1.9421,-0.6498 2.9132 -0.9748c -1.3992,-4.1817 -2.7984,-8.3634 -4.1975 -12.5451c -0.9711,0.3249 -1.9421,0.6498 -2.9132 0.9747c -0.3919,-1.1714 -0.7839,-2.3428 -1.1758 -3.5141c -16.6905,5.5846 -33.3810,11.1692 -50.0715 16.7537c 0.3919,1.1714 0.7839,2.3428 1.1758 3.5141c -0.9711,0.3249 -1.9422,0.6498 -2.9133 0.9748ZM 229.2989,803.0965 c 1.3992,4.1817 2.7984,8.3634 4.1975 12.5451c 0.9711,-0.3249 1.9422,-0.6498 2.9133 -0.9748c 2.0023,5.9843 4.0047,11.9686 6.0070 17.9530c -0.9711,0.3249 -1.9422,0.6498 -2.9133 0.9747c 1.3992,4.1817 2.7984,8.3634 4.1975 12.5451c 0.9711,-0.3249 1.9421,-0.6498 2.9132 -0.9748c 0.3919,1.1714 0.7839,2.3428 1.1758 3.5141c 16.6905,-5.5846 33.3810,-11.1691 50.0715 -16.7537c -0.3919,-1.1714 -0.7839,-2.3428 -1.1758 -3.5141c 0.9711,-0.3249 1.9422,-0.6498 2.9133 -0.9748c -1.3992,-4.1817 -2.7984,-8.3634 -4.1975 -12.5451c -0.9711,0.3249 -1.9421,0.6498 -2.9132 0.9748c -2.0023,-5.9843 -4.0047,-11.9686 -6.0070 -17.9530c 0.9711,-0.3249 1.9422,-0.6498 2.9133 -0.9747c -1.3992,-4.1817 -2.7984,-8.3634 -4.1975 -12.5451c -0.9711,0.3249 -1.9421,0.6498 -2.9133 0.9748c -0.3919,-1.1714 -0.7839,-2.3428 -1.1758 -3.5141c -16.6905,5.5846 -33.3810,11.1691 -50.0715 16.7537c 0.3919,1.1714 0.7839,2.3428 1.1758 3.5141c -0.9711,0.3249 -1.9421,0.6498 -2.9132 0.9748ZM 252.0848,871.1966 c 1.3992,4.1817 2.7984,8.3634 4.1975 12.5451c 0.9711,-0.3249 1.9422,-0.6498 2.9133 -0.9748c 2.0023,5.9843 4.0047,11.9686 6.0070 17.9530c -0.9711,0.3249 -1.9422,0.6498 -2.9133 0.9748c 1.3992,4.1817 2.7984,8.3634 4.1975 12.5451c 0.9711,-0.3249 1.9421,-0.6498 2.9132 -0.9747c 0.3919,1.1714 0.7839,2.3428 1.1758 3.5141c 16.6905,-5.5846 33.3810,-11.1692 50.0715 -16.7537c -0.3919,-1.1714 -0.7839,-2.3428 -1.1758 -3.5141c 0.9711,-0.3249 1.9422,-0.6498 2.9133 -0.9748c -1.3992,-4.1817 -2.7984,-8.3634 -4.1975 -12.5451c -0.9711,0.3249 -1.9421,0.6498 -2.9132 0.9748c -2.0023,-5.9843 -4.0047,-11.9687 -6.0070 -17.9530c 0.9711,-0.3249 1.9422,-0.6498 2.9133 -0.9748c -1.3992,-4.1817 -2.7984,-8.3634 -4.1975 -12.5451c -0.9711,0.3249 -1.9421,0.6498 -2.9133 0.9748c -0.3919,-1.1714 -0.7839,-2.3428 -1.1758 -3.5141c -16.6905,5.5846 -33.3810,11.1691 -50.0715 16.7537c 0.3919,1.1714 0.7839,2.3428 1.1758 3.5141c -0.9711,0.3249 -1.9421,0.6498 -2.9132 0.9748ZM 257.8233,662.0314 c 1.3992,4.1817 2.7983,8.3634 4.1975 12.5451c 0.9711,-0.3249 1.9422,-0.6498 2.9133 -0.9748c 2.0023,5.9843 4.0047,11.9686 6.0070 17.9530c -0.9711,0.3249 -1.9421,0.6498 -2.9132 0.9748c 1.3992,4.1817 2.7984,8.3634 4.1975 12.5451c 0.9711,-0.3249 1.9421,-0.6498 2.9132 -0.9747c 0.3919,1.1714 0.7839,2.3428 1.1758 3.5141c 16.6905,-5.5846 33.3810,-11.1692 50.0715 -16.7537c -0.3919,-1.1714 -0.7839,-2.3428 -1.1758 -3.5141c 0.9711,-0.3249 1.9422,-0.6498 2.9133 -0.9748c -1.3992,-4.1817 -2.7984,-8.3634 -4.1975 -12.5451c -0.9711,0.3249 -1.9421,0.6498 -2.9132 0.9747c -2.0023,-5.9843 -4.0047,-11.9686 -6.0070 -17.9529c 0.9711,-0.3249 1.9422,-0.6498 2.9133 -0.9748c -1.3992,-4.1817 -2.7984,-8.3634 -4.1975 -12.5451c -0.9711,0.3249 -1.9421,0.6498 -2.9133 0.9748c -0.3919,-1.1714 -0.7839,-2.3428 -1.1758 -3.5141c -16.6905,5.5846 -33.3810,11.1691 -50.0715 16.7537c 0.3919,1.1714 0.7839,2.3428 1.1758 3.5141c -0.9711,0.3249 -1.9421,0.6498 -2.9132 0.9747ZM 274.8708,939.2967 c 1.3992,4.1817 2.7983,8.3634 4.1975 12.5451c 0.9711,-0.3249 1.9422,-0.6498 2.9133 -0.9748c 2.0023,5.9843 4.0047,11.9686 6.0070 17.9529c -0.9711,0.3249 -1.9422,0.6498 -2.9133 0.9748c 1.3992,4.1817 2.7984,8.3634 4.1975 12.5451c 0.9711,-0.3249 1.9421,-0.6498 2.9132 -0.9748c 0.3919,1.1714 0.7839,2.3428 1.1758 3.5141c 16.6905,-5.5846 33.3810,-11.1691 50.0715 -16.7537c -0.3919,-1.1714 -0.7839,-2.3428 -1.1758 -3.5141c 0.9711,-0.3249 1.9422,-0.6498 2.9133 -0.9748c -1.3992,-4.1817 -2.7984,-8.3634 -4.1975 -12.5451c -0.9711,0.3249 -1.9421,0.6498 -2.9132 0.9748c -2.0023,-5.9843 -4.0047,-11.9686 -6.0070 -17.9530c 0.9711,-0.3249 1.9422,-0.6498 2.9133 -0.9748c -1.3992,-4.1817 -2.7984,-8.3634 -4.1975 -12.5451c -0.9711,0.3249 -1.9421,0.6498 -2.9133 0.9748c -0.3919,-1.1714 -0.7839,-2.3428 -1.1758 -3.5141c -16.6905,5.5846 -33.3810,11.1691 -50.0715 16.7537c 0.3919,1.1714 0.7839,2.3428 1.1758 3.5141c -0.9711,0.3249 -1.9421,0.6498 -2.9132 0.9748ZM 280.6093,730.1315 c 1.3991,4.1817 2.7983,8.3634 4.1975 12.5451c 0.9711,-0.3249 1.9422,-0.6498 2.9133 -0.9747c 2.0023,5.9843 4.0047,11.9686 6.0070 17.9529c -0.9711,0.3249 -1.9421,0.6498 -2.9132 0.9748c 1.3992,4.1817 2.7984,8.3634 4.1975 12.5451c 0.9711,-0.3249 1.9421,-0.6498 2.9132 -0.9748c 0.3919,1.1714 0.7839,2.3428 1.1758 3.5141c 16.6905,-5.5846 33.3810,-11.1691 50.0715 -16.7537c -0.3919,-1.1714 -0.7839,-2.3428 -1.1758 -3.5141c 0.9711,-0.3249 1.9422,-0.6498 2.9133 -0.9747c -1.3992,-4.1817 -2.7984,-8.3634 -4.1975 -12.5451c -0.9711,0.3249 -1.9421,0.6498 -2.9133 0.9748c -2.0023,-5.9843 -4.0046,-11.9686 -6.0070 -17.9530c 0.9711,-0.3249 1.9421,-0.6498 2.9133 -0.9748c -1.3992,-4.1817 -2.7984,-8.3634 -4.1975 -12.5451c -0.9711,0.3249 -1.9422,0.6498 -2.9133 0.9747c -0.3919,-1.1714 -0.7839,-2.3428 -1.1758 -3.5141c -16.6905,5.5846 -33.3810,11.1692 -50.0715 16.7537c 0.3919,1.1714 0.7839,2.3428 1.1758 3.5141c -0.9711,0.3249 -1.9421,0.6498 -2.9132 0.9748ZM 303.3953,798.2316 c 1.3991,4.1817 2.7983,8.3634 4.1975 12.5451c 0.9711,-0.3249 1.9422,-0.6498 2.9133 -0.9748c 2.0023,5.9843 4.0047,11.9686 6.0070 17.9530c -0.9711,0.3249 -1.9421,0.6498 -2.9132 0.9748c 1.3992,4.1817 2.7984,8.3634 4.1975 12.5451c 0.9711,-0.3249 1.9422,-0.6498 2.9133 -0.9748c 0.3919,1.1714 0.7839,2.3428 1.1758 3.5141c 16.6905,-5.5846 33.3810,-11.1691 50.0715 -16.7537c -0.3919,-1.1714 -0.7839,-2.3428 -1.1758 -3.5141c 0.9711,-0.3249 1.9422,-0.6498 2.9133 -0.9748c -1.3992,-4.1817 -2.7984,-8.3634 -4.1975 -12.5451c -0.9711,0.3249 -1.9421,0.6498 -2.9133 0.9748c -2.0023,-5.9843 -4.0046,-11.9686 -6.0070 -17.9530c 0.9711,-0.3249 1.9421,-0.6498 2.9133 -0.9747c -1.3992,-4.1817 -2.7984,-8.3634 -4.1975 -12.5451c -0.9711,0.3249 -1.9422,0.6498 -2.9133 0.9748c -0.3919,-1.1714 -0.7839,-2.3428 -1.1758 -3.5141c -16.6905,5.5846 -33.3810,11.1691 -50.0715 16.7537c 0.3919,1.1714 0.7839,2.3428 1.1758 3.5141c -0.9711,0.3249 -1.9421,0.6498 -2.9132 0.9748ZM 326.1812,866.3317 c 1.3992,4.1817 2.7984,8.3634 4.1975 12.5451c 0.9711,-0.3249 1.9422,-0.6498 2.9133 -0.9748c 2.0023,5.9843 4.0047,11.9687 6.0070 17.9530c -0.9711,0.3249 -1.9421,0.6498 -2.9132 0.9748c 1.3992,4.1817 2.7984,8.3634 4.1975 12.5451c 0.9711,-0.3249 1.9422,-0.6498 2.9133 -0.9748c 0.3919,1.1714 0.7839,2.3428 1.1758 3.5141c 16.6905,-5.5846 33.3810,-11.1692 50.0715 -16.7537c -0.3919,-1.1714 -0.7839,-2.3428 -1.1758 -3.5141c 0.9711,-0.3249 1.9422,-0.6498 2.9133 -0.9748c -1.3992,-4.1817 -2.7984,-8.3634 -4.1975 -12.5451c -0.9711,0.3249 -1.9421,0.6498 -2.9133 0.9748c -2.0023,-5.9843 -4.0046,-11.9687 -6.0070 -17.9530c 0.9711,-0.3249 1.9421,-0.6498 2.9133 -0.9748c -1.3992,-4.1817 -2.7984,-8.3634 -4.1975 -12.5451c -0.9711,0.3249 -1.9422,0.6498 -2.9133 0.9748c -0.3919,-1.1714 -0.7839,-2.3428 -1.1758 -3.5141c -16.6905,5.5846 -33.3810,11.1692 -50.0715 16.7537c 0.3919,1.1714 0.7839,2.3428 1.1758 3.5141c -0.9711,0.3249 -1.9421,0.6498 -2.9133 0.9748ZM 329.5212,649.9981 c 1.3992,4.1817 2.7984,8.3634 4.1975 12.5451c 0.9711,-0.3249 1.9422,-0.6498 2.9133 -0.9748c 2.0023,5.9843 4.0046,11.9686 6.0070 17.9529c -0.9711,0.3249 -1.9421,0.6498 -2.9132 0.9748c 1.3992,4.1817 2.7983,8.3634 4.1975 12.5451c 0.9711,-0.3249 1.9422,-0.6498 2.9133 -0.9748c 0.3919,1.1714 0.7839,2.3428 1.1758 3.5141c 16.6905,-5.5846 33.3810,-11.1691 50.0715 -16.7537c -0.3919,-1.1714 -0.7839,-2.3428 -1.1758 -3.5142c 0.9711,-0.3249 1.9422,-0.6498 2.9133 -0.9747c -1.3992,-4.1817 -2.7984,-8.3634 -4.1975 -12.5451c -0.9711,0.3249 -1.9421,0.6498 -2.9133 0.9748c -2.0023,-5.9843 -4.0046,-11.9686 -6.0070 -17.9530c 0.9711,-0.3249 1.9421,-0.6498 2.9133 -0.9748c -1.3992,-4.1817 -2.7984,-8.3634 -4.1975 -12.5451c -0.9711,0.3249 -1.9422,0.6498 -2.9133 0.9748c -0.3919,-1.1714 -0.7839,-2.3428 -1.1758 -3.5142c -16.6905,5.5846 -33.3810,11.1692 -50.0715 16.7537c 0.3919,1.1714 0.7839,2.3428 1.1758 3.5141c -0.9711,0.3249 -1.9421,0.6498 -2.9133 0.9748ZM 348.9672,934.4318 c 1.3992,4.1817 2.7984,8.3634 4.1975 12.5451c 0.9711,-0.3249 1.9422,-0.6498 2.9133 -0.9748c 2.0023,5.9843 4.0046,11.9686 6.0070 17.9530c -0.9711,0.3249 -1.9421,0.6498 -2.9132 0.9747c 1.3992,4.1817 2.7983,8.3634 4.1975 12.5451c 0.9711,-0.3249 1.9422,-0.6498 2.9133 -0.9748c 0.3919,1.1714 0.7839,2.3428 1.1758 3.5141c 16.6905,-5.5846 33.3810,-11.1691 50.0715 -16.7537c -0.3919,-1.1714 -0.7839,-2.3428 -1.1758 -3.5141c 0.9711,-0.3249 1.9422,-0.6498 2.9133 -0.9748c -1.3992,-4.1817 -2.7984,-8.3634 -4.1975 -12.5451c -0.9711,0.3249 -1.9421,0.6498 -2.9133 0.9748c -2.0023,-5.9843 -4.0046,-11.9686 -6.0070 -17.9530c 0.9711,-0.3249 1.9421,-0.6498 2.9133 -0.9748c -1.3992,-4.1817 -2.7984,-8.3634 -4.1975 -12.5451c -0.9711,0.3249 -1.9422,0.6498 -2.9133 0.9748c -0.3919,-1.1714 -0.7839,-2.3428 -1.1758 -3.5141c -16.6905,5.5846 -33.3810,11.1691 -50.0715 16.7537c 0.3919,1.1714 0.7839,2.3428 1.1758 3.5141c -0.9711,0.3249 -1.9421,0.6498 -2.9133 0.9748ZM 352.3071,718.0982 c 1.3992,4.1817 2.7984,8.3634 4.1975 12.5451c 0.9711,-0.3249 1.9422,-0.6498 2.9133 -0.9748c 2.0023,5.9843 4.0046,11.9686 6.0070 17.9530c -0.9711,0.3249 -1.9421,0.6498 -2.9132 0.9748c 1.3991,4.1817 2.7983,8.3634 4.1975 12.5451c 0.9711,-0.3249 1.9422,-0.6498 2.9133 -0.9748c 0.3919,1.1714 0.7839,2.3428 1.1758 3.5141c 16.6905,-5.5846 33.3810,-11.1691 50.0715 -16.7537c -0.3919,-1.1714 -0.7839,-2.3428 -1.1758 -3.5141c 0.9711,-0.3249 1.9422,-0.6498 2.9133 -0.9748c -1.3992,-4.1817 -2.7984,-8.3634 -4.1975 -12.5451c -0.9711,0.3249 -1.9422,0.6498 -2.9133 0.9748c -2.0023,-5.9843 -4.0046,-11.9686 -6.0070 -17.9529c 0.9711,-0.3249 1.9421,-0.6498 2.9132 -0.9748c -1.3991,-4.1817 -2.7983,-8.3634 -4.1975 -12.5451c -0.9711,0.3249 -1.9422,0.6498 -2.9133 0.9748c -0.3919,-1.1714 -0.7839,-2.3428 -1.1758 -3.5141c -16.6905,5.5846 -33.3810,11.1691 -50.0715 16.7537c 0.3919,1.1714 0.7839,2.3428 1.1758 3.5141c -0.9711,0.3249 -1.9421,0.6498 -2.9133 0.9748ZM 375.0931,786.1983 c 1.3992,4.1817 2.7984,8.3634 4.1975 12.5451c 0.9711,-0.3249 1.9422,-0.6498 2.9133 -0.9748c 2.0023,5.9843 4.0046,11.9687 6.0070 17.9530c -0.9711,0.3249 -1.9421,0.6498 -2.9132 0.9748c 1.3991,4.1817 2.7983,8.3634 4.1975 12.5451c 0.9711,-0.3249 1.9422,-0.6498 2.9133 -0.9748c 0.3919,1.1714 0.7839,2.3428 1.1758 3.5141c 16.6905,-5.5846 33.3810,-11.1691 50.0715 -16.7537c -0.3919,-1.1714 -0.7839,-2.3428 -1.1758 -3.5141c 0.9711,-0.3249 1.9421,-0.6498 2.9133 -0.9748c -1.3992,-4.1817 -2.7984,-8.3634 -4.1975 -12.5451c -0.9711,0.3249 -1.9422,0.6498 -2.9133 0.9748c -2.0023,-5.9843 -4.0046,-11.9686 -6.0070 -17.9530c 0.9711,-0.3249 1.9421,-0.6498 2.9132 -0.9748c -1.3991,-4.1817 -2.7983,-8.3634 -4.1975 -12.5451c -0.9711,0.3249 -1.9422,0.6498 -2.9133 0.9747c -0.3919,-1.1714 -0.7839,-2.3428 -1.1758 -3.5141c -16.6905,5.5846 -33.3810,11.1692 -50.0715 16.7537c 0.3919,1.1714 0.7839,2.3428 1.1758 3.5141c -0.9711,0.3249 -1.9422,0.6498 -2.9133 0.9748ZM 397.8791,854.2984 c 1.3992,4.1817 2.7984,8.3634 4.1975 12.5451c 0.9711,-0.3249 1.9421,-0.6498 2.9133 -0.9748c 2.0023,5.9843 4.0046,11.9686 6.0070 17.9530c -0.9711,0.3249 -1.9421,0.6498 -2.9133 0.9747c 1.3992,4.1817 2.7984,8.3634 4.1975 12.5451c 0.9711,-0.3249 1.9422,-0.6498 2.9133 -0.9748c 0.3919,1.1714 0.7839,2.3428 1.1758 3.5141c 16.6905,-5.5846 33.3810,-11.1691 50.0715 -16.7537c -0.3919,-1.1714 -0.7839,-2.3428 -1.1758 -3.5141c 0.9711,-0.3249 1.9421,-0.6498 2.9133 -0.9748c -1.3992,-4.1817 -2.7984,-8.3634 -4.1975 -12.5451c -0.9711,0.3249 -1.9422,0.6498 -2.9133 0.9748c -2.0023,-5.9843 -4.0046,-11.9686 -6.0070 -17.9530c 0.9711,-0.3249 1.9421,-0.6498 2.9132 -0.9747c -1.3992,-4.1817 -2.7983,-8.3634 -4.1975 -12.5451c -0.9711,0.3249 -1.9422,0.6498 -2.9133 0.9748c -0.3919,-1.1714 -0.7839,-2.3428 -1.1758 -3.5141c -16.6905,5.5846 -33.3810,11.1691 -50.0715 16.7537c 0.3919,1.1714 0.7839,2.3428 1.1758 3.5141c -0.9711,0.3249 -1.9422,0.6498 -2.9133 0.9748ZM 398.8205,630.7964 c 1.3992,4.1817 2.7984,8.3634 4.1975 12.5451c 0.9711,-0.3249 1.9422,-0.6498 2.9133 -0.9747c 2.0023,5.9843 4.0046,11.9686 6.0070 17.9529c -0.9711,0.3249 -1.9421,0.6498 -2.9132 0.9748c 1.3991,4.1817 2.7983,8.3634 4.1975 12.5451c 0.9711,-0.3249 1.9422,-0.6498 2.9133 -0.9748c 0.3919,1.1714 0.7839,2.3428 1.1758 3.5141c 16.6905,-5.5846 33.3810,-11.1691 50.0715 -16.7537c -0.3919,-1.1714 -0.7839,-2.3428 -1.1758 -3.5141c 0.9711,-0.3249 1.9421,-0.6498 2.9133 -0.9747c -1.3992,-4.1817 -2.7984,-8.3634 -4.1975 -12.5451c -0.9711,0.3249 -1.9422,0.6498 -2.9133 0.9748c -2.0023,-5.9843 -4.0046,-11.9686 -6.0070 -17.9530c 0.9711,-0.3249 1.9421,-0.6498 2.9132 -0.9748c -1.3991,-4.1817 -2.7983,-8.3634 -4.1975 -12.5451c -0.9711,0.3249 -1.9422,0.6498 -2.9133 0.9747c -0.3919,-1.1714 -0.7839,-2.3428 -1.1758 -3.5141c -16.6905,5.5846 -33.3810,11.1692 -50.0715 16.7537c 0.3919,1.1714 0.7839,2.3428 1.1758 3.5141c -0.9711,0.3249 -1.9422,0.6498 -2.9133 0.9748ZM 420.6651,922.3985 c 1.3992,4.1817 2.7984,8.3634 4.1975 12.5451c 0.9711,-0.3249 1.9421,-0.6498 2.9133 -0.9748c 2.0023,5.9843 4.0046,11.9686 6.0070 17.9530c -0.9711,0.3249 -1.9421,0.6498 -2.9133 0.9748c 1.3992,4.1817 2.7984,8.3634 4.1975 12.5451c 0.9711,-0.3249 1.9422,-0.6498 2.9133 -0.9747c 0.3919,1.1714 0.7839,2.3428 1.1758 3.5141c 16.6905,-5.5846 33.3810,-11.1692 50.0715 -16.7537c -0.3919,-1.1714 -0.7839,-2.3428 -1.1758 -3.5141c 0.9711,-0.3249 1.9421,-0.6498 2.9133 -0.9748c -1.3992,-4.1817 -2.7984,-8.3634 -4.1975 -12.5451c -0.9711,0.3249 -1.9422,0.6498 -2.9133 0.9748c -2.0023,-5.9843 -4.0047,-11.9687 -6.0070 -17.9530c 0.9711,-0.3249 1.9421,-0.6498 2.9132 -0.9748c -1.3992,-4.1817 -2.7984,-8.3634 -4.1975 -12.5451c -0.9711,0.3249 -1.9422,0.6498 -2.9133 0.9748c -0.3919,-1.1714 -0.7839,-2.3428 -1.1758 -3.5141c -16.6905,5.5846 -33.3810,11.1691 -50.0715 16.7537c 0.3919,1.1714 0.7839,2.3428 1.1758 3.5141c -0.9711,0.3249 -1.9422,0.6498 -2.9133 0.9748ZM 421.6065,698.8964 c 1.3992,4.1817 2.7984,8.3634 4.1975 12.5451c 0.9711,-0.3249 1.9421,-0.6498 2.9133 -0.9748c 2.0023,5.9843 4.0046,11.9686 6.0070 17.9530c -0.9711,0.3249 -1.9421,0.6498 -2.9133 0.9748c 1.3992,4.1817 2.7984,8.3634 4.1975 12.5451c 0.9711,-0.3249 1.9422,-0.6498 2.9133 -0.9748c 0.3919,1.1714 0.7839,2.3428 1.1758 3.5141c 16.6905,-5.5846 33.3810,-11.1691 50.0715 -16.7537c -0.3919,-1.1714 -0.7839,-2.3428 -1.1758 -3.5141c 0.9711,-0.3249 1.9421,-0.6498 2.9133 -0.9748c -1.3992,-4.1817 -2.7984,-8.3634 -4.1975 -12.5451c -0.9711,0.3249 -1.9422,0.6498 -2.9133 0.9748c -2.0023,-5.9843 -4.0046,-11.9686 -6.0070 -17.9530c 0.9711,-0.3249 1.9421,-0.6498 2.9132 -0.9747c -1.3992,-4.1817 -2.7983,-8.3634 -4.1975 -12.5451c -0.9711,0.3249 -1.9422,0.6498 -2.9133 0.9748c -0.3919,-1.1714 -0.7839,-2.3428 -1.1758 -3.5141c -16.6905,5.5846 -33.3810,11.1691 -50.0715 16.7537c 0.3919,1.1714 0.7839,2.3428 1.1758 3.5141c -0.9711,0.3249 -1.9422,0.6498 -2.9133 0.9748ZM 444.3925,766.9965 c 1.3992,4.1817 2.7984,8.3634 4.1975 12.5451c 0.9711,-0.3249 1.9421,-0.6498 2.9133 -0.9748c 2.0023,5.9843 4.0046,11.9687 6.0070 17.9530c -0.9711,0.3249 -1.9421,0.6498 -2.9133 0.9748c 1.3992,4.1817 2.7984,8.3634 4.1975 12.5451c 0.9711,-0.3249 1.9422,-0.6498 2.9133 -0.9748c 0.3919,1.1714 0.7839,2.3428 1.1758 3.5141c 16.6905,-5.5846 33.3810,-11.1692 50.0715 -16.7537c -0.3919,-1.1714 -0.7839,-2.3428 -1.1758 -3.5141c 0.9711,-0.3249 1.9421,-0.6498 2.9133 -0.9748c -1.3992,-4.1817 -2.7984,-8.3634 -4.1975 -12.5451c -0.9711,0.3249 -1.9422,0.6498 -2.9133 0.9748c -2.0023,-5.9843 -4.0047,-11.9687 -6.0070 -17.9530c 0.9711,-0.3249 1.9421,-0.6498 2.9132 -0.9748c -1.3992,-4.1817 -2.7984,-8.3634 -4.1975 -12.5451c -0.9711,0.3249 -1.9422,0.6498 -2.9133 0.9748c -0.3919,-1.1714 -0.7839,-2.3428 -1.1758 -3.5141c -16.6905,5.5846 -33.3810,11.1691 -50.0715 16.7537c 0.3919,1.1714 0.7839,2.3428 1.1758 3.5141c -0.9711,0.3249 -1.9422,0.6498 -2.9133 0.9748ZM 466.8652,588.8498 c 0.0000,3.1310 2.5383,5.6693 5.6694 5.6693c 3.1310,-0.0000 5.6693,-2.5383 5.6693 -5.6693c 0.0000,-3.1311 -2.5382,-5.6693 -5.6693 -5.6693c -3.1311,-0.0000 -5.6694,2.5382 -5.6694 5.6693ZM 467.1784,835.0966 c 1.3992,4.1817 2.7984,8.3634 4.1975 12.5451c 0.9711,-0.3249 1.9421,-0.6498 2.9133 -0.9748c 2.0023,5.9843 4.0046,11.9686 6.0070 17.9529c -0.9711,0.3249 -1.9421,0.6498 -2.9133 0.9748c 1.3992,4.1817 2.7984,8.3634 4.1975 12.5451c 0.9711,-0.3249 1.9422,-0.6498 2.9133 -0.9748c 0.3919,1.1714 0.7839,2.3428 1.1758 3.5141c 16.6905,-5.5846 33.3810,-11.1691 50.0715 -16.7537c -0.3919,-1.1714 -0.7839,-2.3428 -1.1758 -3.5141c 0.9711,-0.3249 1.9421,-0.6498 2.9132 -0.9748c -1.3991,-4.1817 -2.7983,-8.3634 -4.1975 -12.5451c -0.9711,0.3249 -1.9422,0.6498 -2.9133 0.9748c -2.0023,-5.9843 -4.0047,-11.9686 -6.0070 -17.9530c 0.9711,-0.3249 1.9421,-0.6498 2.9132 -0.9748c -1.3992,-4.1817 -2.7984,-8.3634 -4.1975 -12.5451c -0.9711,0.3249 -1.9422,0.6498 -2.9133 0.9748c -0.3919,-1.1714 -0.7839,-2.3428 -1.1758 -3.5141c -16.6905,5.5846 -33.3810,11.1691 -50.0715 16.7537c 0.3919,1.1714 0.7839,2.3428 1.1758 3.5141c -0.9711,0.3249 -1.9422,0.6498 -2.9133 0.9748ZM 489.9644,903.1967 c 1.3992,4.1817 2.7984,8.3634 4.1975 12.5451c 0.9711,-0.3249 1.9421,-0.6498 2.9132 -0.9748c 2.0023,5.9843 4.0047,11.9686 6.0070 17.9530c -0.9711,0.3249 -1.9422,0.6498 -2.9133 0.9748c 1.3992,4.1817 2.7984,8.3634 4.1975 12.5451c 0.9711,-0.3249 1.9422,-0.6498 2.9133 -0.9748c 0.3919,1.1714 0.7839,2.3428 1.1758 3.5142c 16.6905,-5.5846 33.3810,-11.1692 50.0715 -16.7537c -0.3919,-1.1714 -0.7839,-2.3428 -1.1758 -3.5141c 0.9711,-0.3249 1.9421,-0.6498 2.9132 -0.9748c -1.3991,-4.1817 -2.7983,-8.3634 -4.1975 -12.5451c -0.9711,0.3249 -1.9422,0.6498 -2.9133 0.9747c -2.0023,-5.9843 -4.0047,-11.9686 -6.0070 -17.9529c 0.9711,-0.3249 1.9421,-0.6498 2.9132 -0.9748c -1.3992,-4.1817 -2.7984,-8.3634 -4.1975 -12.5451c -0.9711,0.3249 -1.9421,0.6498 -2.9132 0.9748c -0.3919,-1.1714 -0.7839,-2.3428 -1.1758 -3.5141c -16.6905,5.5846 -33.3810,11.1691 -50.0715 16.7537c 0.3919,1.1714 0.7839,2.3428 1.1758 3.5142c -0.9711,0.3249 -1.9422,0.6498 -2.9133 0.9747ZM 585.1406,934.7787 c 0.0000,3.1310 2.5382,5.6693 5.6693 5.6693c 3.1310,-0.0000 5.6693,-2.5383 5.6693 -5.6693c 0.0000,-3.1311 -2.5383,-5.6693 -5.6693 -5.6693c -3.1311,-0.0000 -5.6693,2.5382 -5.6693 5.6693Z"/></g><g stroke-linejoin="miter" stroke-opacity="1.0" fill-opacity="0.5" stroke="rgb(0,0,0)" stroke-width="0.37795275590551186" fill="rgb(0,0,255)" stroke-linecap="butt" stroke-miterlimit="10.0"><path d="M 3.9685,20.3464 c 0.0000,-9.0453 7.3327,-16.3779 16.3780 -16.3779c 151.9892,-0.0000 303.9784,-0.0000 455.9675 -0.0000c 7.0427,-0.0000 13.2969,4.5023 15.5316 11.1811c 39.4251,117.8293 78.8503,235.6586 118.2754 353.4879c 0.5758,1.7210 0.8500,3.4730 0.8500 5.1974c 0.0000,6.5661 -3.9756,12.7306 -10.4104 15.2501c -135.8589,53.1941 -271.7179,106.3883 -407.5769 159.5823c -1.9027,0.7450 -3.9279,1.1273 -5.9712 1.1273c -55.5554,-0.0000 -111.1107,-0.0000 -166.6660 -0.0000c -9.0453,-0.0000 -16.3780,-7.3326 -16.3780 -16.3780c 0.0000,-57.0078 0.0000,-114.0156 0.0000 -171.0234c 0.0000,-114.0156 0.0000,-228.0312 0.0000 -342.0469ZM 44.9230,175.8246 c 0.0000,0.3976 0.0632,0.8020 0.1963 1.1998c 7.5954,22.7000 15.1906,45.4000 22.7860 68.1001c 0.2878,0.8602 0.5757,1.7204 0.8635 2.5806c 7.3076,21.8398 14.6150,43.6797 21.9225 65.5195c 0.2878,0.8602 0.5757,1.7204 0.8635 2.5806c 7.3076,21.8398 14.6150,43.6796 21.9225 65.5194c 0.2878,0.8602 0.5757,1.7204 0.8635 2.5806c 3.1101,9.2950 6.2202,18.5901 9.3303 27.8852c -21.5053,7.1956 -43.0106,14.3911 -64.5159 21.5867c -1.5817,0.5292 -2.5813,2.0029 -2.5813 3.5837c 0.0000,0.3976 0.0632,0.8020 0.1963 1.1998c 7.8831,23.5602 15.7663,47.1205 23.6494 70.6807c 0.6623,1.9795 2.8040,3.0473 4.7835 2.3849c 21.5053,-7.1956 43.0106,-14.3911 64.5159 -21.5867c 3.3979,10.1553 6.7958,20.3106 10.1937 30.4658c 0.6623,1.9795 2.8040,3.0473 4.7835 2.3849c 23.5602,-7.8831 47.1205,-15.7663 70.6807 -23.6494c 1.5817,-0.5292 2.5813,-2.0029 2.5813 -3.5837c 0.0000,-0.3976 -0.0632,-0.8020 -0.1963 -1.1997c -1.5990,-4.7790 -3.1980,-9.5579 -4.7971 -14.3369c 21.5053,-7.1956 43.0106,-14.3912 64.5159 -21.5867c 1.5817,-0.5292 2.5813,-2.0029 2.5813 -3.5837c 0.0000,-0.3976 -0.0632,-0.8020 -0.1963 -1.1997c -1.9988,-5.9737 -3.9976,-11.9474 -5.9963 -17.9211c 19.4503,-6.5080 38.9007,-13.0160 58.3510 -19.5240c 1.5990,4.7790 3.1980,9.5579 4.7971 14.3369c 0.6623,1.9795 2.8040,3.0473 4.7835 2.3849c 21.5053,-7.1955 43.0106,-14.3911 64.5159 -21.5867c 0.7995,2.3895 1.5990,4.7790 2.3985 7.1684c 0.6623,1.9795 2.8040,3.0473 4.7835 2.3849c 21.5053,-7.1956 43.0106,-14.3912 64.5159 -21.5867c 0.6623,1.9795 2.8040,3.0473 4.7835 2.3850c 23.5602,-7.8832 47.1205,-15.7663 70.6807 -23.6494c 1.5817,-0.5292 2.5813,-2.0029 2.5813 -3.5837c 0.0000,-0.3976 -0.0632,-0.8020 -0.1963 -1.1998c -7.5953,-22.7000 -15.1906,-45.4000 -22.7860 -68.1001c -0.2878,-0.8602 -0.5757,-1.7204 -0.8635 -2.5806c -0.0006,-0.0017 -0.0012,-0.0035 -0.0018 -0.0052c -7.3069,-21.8381 -14.6138,-43.6762 -21.9207 -65.5142c -0.2878,-0.8602 -0.5757,-1.7204 -0.8635 -2.5806c -0.0006,-0.0018 -0.0012,-0.0035 -0.0018 -0.0053c -7.3069,-21.8381 -14.6138,-43.6761 -21.9207 -65.5142c -0.2878,-0.8602 -0.5757,-1.7204 -0.8635 -2.5806c -0.0006,-0.0018 -0.0012,-0.0036 -0.0018 -0.0053c -7.3069,-21.8381 -14.6138,-43.6761 -21.9207 -65.5141c -0.2878,-0.8602 -0.5757,-1.7204 -0.8635 -2.5806c -0.0004,-0.0012 -0.0008,-0.0025 -0.0012 -0.0037c -7.5949,-22.6988 -15.1898,-45.3976 -22.7847 -68.0964c -0.6623,-1.9795 -2.8040,-3.0473 -4.7835 -2.3850c -21.5053,7.1956 -43.0106,14.3912 -64.5159 21.5867c -0.6623,-1.9795 -2.8040,-3.0473 -4.7835 -2.3850c -21.5053,7.1956 -43.0106,14.3912 -64.5159 21.5867c -0.7995,-2.3895 -1.5990,-4.7790 -2.3985 -7.1684c -0.6623,-1.9795 -2.8040,-3.0473 -4.7835 -2.3849c -21.5053,7.1956 -43.0106,14.3912 -64.5159 21.5867c -1.5990,-4.7790 -3.1980,-9.5579 -4.7971 -14.3369c -0.6623,-1.9795 -2.8040,-3.0473 -4.7835 -2.3849c -23.5603,7.8831 -47.1205,15.7663 -70.6808 23.6494c -1.5817,0.5292 -2.5813,2.0029 -2.5813 3.5837c 0.0000,0.3976 0.0632,0.8019 0.1963 1.1997c 1.9988,5.9737 3.9976,11.9474 5.9963 17.9211c -21.5053,7.1956 -43.0106,14.3912 -64.5159 21.5867c -1.5817,0.5292 -2.5813,2.0029 -2.5813 3.5837c 0.0000,0.3976 0.0632,0.8020 0.1963 1.1998c 1.5990,4.7790 3.1981,9.5579 4.7971 14.3369c -21.5053,7.1956 -43.0106,14.3912 -64.5159 21.5867c -1.5817,0.5292 -2.5813,2.0029 -2.5813 3.5837ZM 118.6142,24.1260 c 0.0000,3.1310 2.5382,5.6693 5.6693 5.6693c 3.1310,-0.0000 5.6693,-2.5383 5.6693 -5.6693c 0.0000,-3.1311 -2.5382,-5.6693 -5.6693 -5.6693c -3.1311,-0.0000 -5.6693,2.5382 -5.6693 5.6693ZM 181.3433,529.6372 c 0.0000,3.1311 2.5382,5.6693 5.6693 5.6693c 3.1310,-0.0000 5.6693,-2.5382 5.6693 -5.6693c 0.0000,-3.1311 -2.5382,-5.6693 -5.6693 -5.6693c -3.1311,-0.0000 -5.6693,2.5382 -5.6693 5.6693ZM 466.8652,24.1260 c 0.0000,3.1310 2.5383,5.6693 5.6694 5.6693c 3.1310,-0.0000 5.6693,-2.5383 5.6693 -5.6693c 0.0000,-3.1311 -2.5382,-5.6693 -5.6693 -5.6693c -3.1311,-0.0000 -5.6694,2.5382 -5.6694 5.6693ZM 585.1406,370.0549 c 0.0000,3.1310 2.5382,5.6693 5.6693 5.6693c 3.1310,-0.0000 5.6693,-2.5383 5.6693 -5.6693c 0.0000,-3.1311 -2.5383,-5.6693 -5.6693 -5.6693c -3.1311,-0.0000 -5.6693,2.5382 -5.6693 5.6693Z"/></g></svg>