<?xml version="1.0" encoding="UTF-8"?>
<!DOCTYPE svg PUBLIC "-//W3C//DTD SVG 1.1//EN"
    "http://www.w3.org/Graphics/SVG/1.1/DTD/svg11.dtd"><svg xmlns="http://www.w3.org/2000/svg" height="2181.2825" stroke-opacity="1" viewBox="0 0 1052 2181" font-size="1" width="1051.5997" xmlns:xlink="http://www.w3.org/1999/xlink" stroke="rgb(0,0,0)" version="1.1"><defs></defs><g stroke-linejoin="miter" stroke-opacity="1.0" fill-opacity="0.5" stroke="rgb(0,0,0)" stroke-width="0.37795275590551186" fill="rgb(0,0,0)" stroke-linecap="butt" stroke-miterlimit="10.0"><path d="M 3.9685,1953.3575 c 0.0000,-3.1884 0.4961,-6.4043 1.5635 -9.5946c 7.5953,-22.7000 15.1907,-45.4000 22.7860 -68.1001c 0.2878,-0.8603 0.5757,-1.7206 0.8635 -2.5808c 7.3075,-21.8398 14.6150,-43.6796 21.9225 -65.5194c 0.2878,-0.8602 0.5756,-1.7204 0.8635 -2.5807c 7.3075,-21.8398 14.6150,-43.6796 21.9225 -65.5194c 0.2878,-0.8602 0.5756,-1.7204 0.8635 -2.5806c 7.5953,-22.7000 15.1906,-45.4000 22.7860 -68.1001c 5.2697,-15.7495 22.5182,-24.3494 38.2678 -19.0796c 15.2573,5.1050 30.5145,10.2100 45.7718 15.3150c 7.4598,-4.7790 16.9371,-6.2894 25.9261 -3.2816c 13.8456,4.6327 27.6911,9.2653 41.5367 13.8980c 7.7878,-9.0424 20.6055,-13.0329 32.5597 -9.0331c 23.5602,7.8831 47.1205,15.7663 70.6807 23.6494c 12.6159,4.2212 20.6431,16.0646 20.6431 28.6732c 0.0000,0.7062 -0.0243,1.4137 -0.0738 2.1221c 13.4451,4.4987 26.8902,8.9973 40.3352 13.4960c 11.9940,4.0131 19.8406,14.9155 20.5850 26.8150c 2.0594,0.6891 4.1189,1.3782 6.1783 2.0672c 28.6166,-0.0000 57.2332,-0.0000 85.8498 -0.0000c 28.6166,-0.0000 57.2332,-0.0000 85.8498 -0.0000c 2.0594,-0.6891 4.1189,-1.3782 6.1783 -2.0672c 0.7444,-11.8996 8.5911,-22.8019 20.5850 -26.8150c 13.4451,-4.4987 26.8901,-8.9973 40.3352 -13.4960c -0.0495,-0.7083 -0.0738,-1.4159 -0.0738 -2.1221c 0.0000,-12.6086 8.0273,-24.4520 20.6431 -28.6732c 23.5602,-7.8831 47.1205,-15.7663 70.6807 -23.6494c 11.9542,-3.9998 24.7719,-0.0093 32.5597 9.0331c 13.8456,-4.6327 27.6911,-9.2653 41.5367 -13.8980c 8.9890,-3.0077 18.4663,-1.4974 25.9261 3.2816c 15.2573,-5.1050 30.5145,-10.2100 45.7718 -15.3150c 15.7496,-5.2697 32.9981,3.3301 38.2678 19.0796c 7.5953,22.7000 15.1906,45.4000 22.7860 68.1001c 0.2878,0.8602 0.5756,1.7204 0.8635 2.5806c 7.3075,21.8398 14.6150,43.6796 21.9225 65.5194c 0.2878,0.8602 0.5756,1.7204 0.8635 2.5807c 7.3075,21.8398 14.6150,43.6796 21.9225 65.5194c 0.2878,0.8603 0.5757,1.7205 0.8635 2.5808c 7.5953,22.7000 15.1906,45.4000 22.7860 68.1001c 1.0674,3.1903 1.5635,6.4062 1.5635 9.5946c 0.0000,12.6088 -8.0272,24.4520 -20.6432 28.6732c -23.5602,7.8832 -47.1205,15.7663 -70.6807 23.6494c -8.9890,3.0077 -18.4663,1.4974 -25.9261 -3.2816c -15.2573,5.1050 -30.5145,10.2100 -45.7718 15.3150c -11.9542,3.9998 -24.7719,0.0093 -32.5597 -9.0331c -3.7304,1.2482 -7.4607,2.4963 -11.1911 3.7445c 0.0495,0.7083 0.0738,1.4159 0.0738 2.1221c 0.0000,12.6088 -8.0272,24.4520 -20.6431 28.6732c -13.8396,4.6307 -27.6792,9.2613 -41.5187 13.8920c -0.7445,11.8996 -8.5910,22.8019 -20.5850 26.8150c -11.7801,3.9416 -23.5602,7.8831 -35.3403 11.8247c -1.3620,0.4557 -2.7240,0.9114 -4.0861 1.3672c 1.8655,5.5754 3.7310,11.1509 5.5965 16.7264c 1.0674,3.1902 1.5635,6.4061 1.5635 9.5946c 0.0000,12.6088 -8.0272,24.4520 -20.6431 28.6732c -23.5603,7.8832 -47.1205,15.7663 -70.6807 23.6495c -15.7495,5.2697 -32.9981,-3.3301 -38.2678 -19.0796c -6.7958,-20.3104 -13.5915,-40.6208 -20.3873 -60.9312c -16.7135,-0.0000 -33.4269,-0.0000 -50.1404 -0.0000c -16.7135,-0.0000 -33.4269,-0.0000 -50.1404 -0.0000c -6.7958,20.3104 -13.5915,40.6208 -20.3873 60.9312c -5.2697,15.7495 -22.5183,24.3493 -38.2678 19.0796c -23.5602,-7.8832 -47.1205,-15.7663 -70.6807 -23.6495c -12.6159,-4.2212 -20.6431,-16.0644 -20.6431 -28.6732c 0.0000,-3.1884 0.4961,-6.4043 1.5635 -9.5946c 1.8655,-5.5754 3.7310,-11.1509 5.5965 -16.7264c -1.3620,-0.4557 -2.7240,-0.9114 -4.0861 -1.3672c -11.7801,-3.9416 -23.5602,-7.8831 -35.3403 -11.8247c -11.9940,-4.0132 -19.8406,-14.9155 -20.5850 -26.8150c -13.8396,-4.6307 -27.6792,-9.2613 -41.5187 -13.8920c -12.6159,-4.2212 -20.6431,-16.0644 -20.6431 -28.6732c 0.0000,-0.7062 0.0243,-1.4138 0.0738 -2.1221c -3.7304,-1.2482 -7.4607,-2.4963 -11.1911 -3.7445c -7.7878,9.0424 -20.6055,13.0329 -32.5597 9.0331c -15.2573,-5.1050 -30.5145,-10.2100 -45.7718 -15.3150c -7.4598,4.7790 -16.9371,6.2894 -25.9261 3.2816c -23.5603,-7.8831 -47.1205,-15.7663 -70.6807 -23.6494c -12.6160,-4.2212 -20.6432,-16.0644 -20.6432 -28.6732ZM 14.0985,1960.5555 c 0.0000,3.1311 2.5382,5.6693 5.6693 5.6693c 3.1311,-0.0000 5.6693,-2.5382 5.6693 -5.6693c 0.0000,-3.1311 -2.5382,-5.6693 -5.6693 -5.6693c -3.1311,-0.0000 -5.6693,2.5382 -5.6693 5.6693ZM 113.3452,1663.9381 c 0.0000,3.1311 2.5382,5.6693 5.6693 5.6693c 3.1311,-0.0000 5.6693,-2.5382 5.6693 -5.6693c 0.0000,-3.1311 -2.5382,-5.6693 -5.6693 -5.6693c -3.1311,-0.0000 -5.6693,2.5382 -5.6693 5.6693ZM 428.1276,2161.5269 c 0.0000,3.1311 2.5382,5.6693 5.6693 5.6693c 3.1311,-0.0000 5.6693,-2.5382 5.6693 -5.6693c 0.0000,-3.1311 -2.5382,-5.6693 -5.6693 -5.6693c -3.1311,-0.0000 -5.6693,2.5382 -5.6693 5.6693ZM 491.7841,1777.3662 c 0.0000,3.1311 2.5382,5.6693 5.6693 5.6693c 3.1311,-0.0000 5.6693,-2.5382 5.6693 -5.6693c 0.0000,-3.1311 -2.5382,-5.6693 -5.6693 -5.6693c -3.1311,-0.0000 -5.6693,2.5382 -5.6693 5.6693ZM 548.4770,1777.3662 c 0.0000,3.1311 2.5382,5.6693 5.6693 5.6693c 3.1311,-0.0000 5.6693,-2.5382 5.6693 -5.6693c 0.0000,-3.1311 -2.5382,-5.6693 -5.6693 -5.6693c -3.1311,-0.0000 -5.6693,2.5382 -5.6693 5.6693ZM 612.1336,2161.5269 c 0.0000,3.1311 2.5382,5.6693 5.6693 5.6693c 3.1311,-0.0000 5.6693,-2.5382 5.6693 -5.6693c 0.0000,-3.1311 -2.5382,-5.6693 -5.6693 -5.6693c -3.1311,-0.0000 -5.6693,2.5382 -5.6693 5.6693ZM 926.9159,1663.9381 c 0.0000,3.1311 2.5382,5.6693 5.6693 5.6693c 3.1311,-0.0000 5.6693,-2.5382 5.6693 -5.6693c 0.0000,-3.1311 -2.5382,-5.6693 -5.6693 -5.6693c -3.1311,-0.0000 -5.6693,2.5382 -5.6693 5.6693ZM 1026.1627,1960.5555 c 0.0000,3.1311 2.5382,5.6693 5.6693 5.6693c 3.1311,-0.0000 5.6693,-2.5382 5.6693 -5.6693c 0.0000,-3.1311 -2.5382,-5.6693 -5.6693 -5.6693c -3.1311,-0.0000 -5.6693,2.5382 -5.6693 5.6693Z"/></g><g stroke-linejoin="miter" stroke-opacity="1.0" fill-opacity="0.5" stroke="rgb(0,0,0)" stroke-width="0.37795275590551186" fill="rgb(255,255,0)" stroke-linecap="butt" stroke-miterlimit="10.0"><path d="M 3.9685,1405.2967 c 0.0000,-3.1884 0.4961,-6.4043 1.5635 -9.5946c 7.5953,-22.7000 15.1907,-45.4000 22.7860 -68.1001c 0.2878,-0.8603 0.5757,-1.7206 0.8635 -2.5808c 7.3075,-21.8398 14.6150,-43.6796 21.9225 -65.5195c 0.2878,-0.8602 0.5756,-1.7204 0.8635 -2.5807c 7.3075,-21.8398 14.6150,-43.6796 21.9225 -65.5195c 0.2878,-0.8602 0.5756,-1.7204 0.8635 -2.5806c 7.5953,-22.7000 15.1906,-45.4000 22.7860 -68.1001c 1.3356,-3.9916 3.4406,-7.5240 6.0956 -10.4877c 5.1655,-5.7660 12.4130,-9.3797 20.1266 -10.0353c 3.9652,-0.3370 8.0535,0.1076 12.0456 1.4434c 15.2573,5.1050 30.5145,10.2100 45.7718 15.3150c 7.4598,-4.7790 16.9371,-6.2894 25.9261 -3.2817c 13.8456,4.6327 27.6912,9.2653 41.5367 13.8980c 7.7878,-9.0424 20.6055,-13.0329 32.5597 -9.0331c 23.5602,7.8831 47.1205,15.7663 70.6807 23.6494c 12.6159,4.2212 20.6431,16.0646 20.6431 28.6732c 0.0000,0.7062 -0.0243,1.4137 -0.0738 2.1220c 13.4451,4.4987 26.8902,8.9973 40.3352 13.4960c 11.9940,4.0131 19.8406,14.9155 20.5850 26.8150c 2.0594,0.6891 4.1189,1.3782 6.1783 2.0672c 16.3020,-0.0000 32.6041,-0.0000 48.9062 -0.0000c 5.7314,-0.0000 11.4628,-0.0000 17.1942 -0.0000c 6.5831,-0.0000 13.1662,-0.0000 19.7493 -0.0000c 6.5831,-0.0000 13.1662,-0.0000 19.7493 -0.0000c 5.7314,-0.0000 11.4628,-0.0000 17.1942 -0.0000c 16.3021,-0.0000 32.6041,-0.0000 48.9062 -0.0000c 2.0595,-0.6891 4.1189,-1.3782 6.1783 -2.0672c 0.7444,-11.8996 8.5911,-22.8019 20.5850 -26.8150c 13.4450,-4.4987 26.8901,-8.9973 40.3352 -13.4960c -0.0495,-0.7083 -0.0738,-1.4159 -0.0738 -2.1220c 0.0000,-12.6086 8.0273,-24.4520 20.6431 -28.6732c 23.5602,-7.8831 47.1205,-15.7663 70.6807 -23.6494c 11.9542,-3.9998 24.7719,-0.0093 32.5597 9.0331c 13.8456,-4.6327 27.6911,-9.2653 41.5367 -13.8980c 8.9890,-3.0077 18.4663,-1.4974 25.9261 3.2817c 15.2573,-5.1050 30.5145,-10.2100 45.7718 -15.3150c 3.9920,-1.3357 8.0804,-1.7804 12.0456 -1.4434c 7.7136,0.6556 14.9611,4.2692 20.1266 10.0353c 2.6550,2.9637 4.7601,6.4961 6.0956 10.4877c 7.5953,22.7000 15.1906,45.4000 22.7860 68.1001c 0.2878,0.8602 0.5756,1.7204 0.8635 2.5806c 7.3075,21.8398 14.6150,43.6796 21.9225 65.5195c 0.2878,0.8602 0.5756,1.7204 0.8635 2.5807c 7.3075,21.8398 14.6150,43.6796 21.9225 65.5195c 0.2878,0.8603 0.5757,1.7205 0.8635 2.5808c 7.5953,22.7000 15.1906,45.4000 22.7860 68.1001c 1.0674,3.1903 1.5635,6.4062 1.5635 9.5946c 0.0000,0.8373 -0.0354,1.6711 -0.1052 2.4996c -0.6474,7.6862 -4.2545,14.9092 -10.0174 20.0658c -2.9707,2.6582 -6.5143,4.7673 -10.5206 6.1078c -23.5602,7.8832 -47.1205,15.7663 -70.6807 23.6494c -8.9890,3.0077 -18.4663,1.4974 -25.9261 -3.2817c -15.2573,5.1050 -30.5145,10.2100 -45.7718 15.3150c -11.9542,3.9998 -24.7719,0.0093 -32.5597 -9.0331c -3.7304,1.2482 -7.4607,2.4964 -11.1911 3.7445c 0.0495,0.7083 0.0738,1.4159 0.0738 2.1221c 0.0000,12.6088 -8.0272,24.4520 -20.6431 28.6732c -13.8396,4.6307 -27.6792,9.2613 -41.5187 13.8920c -0.7445,11.8996 -8.5910,22.8019 -20.5850 26.8150c -11.7801,3.9415 -23.5602,7.8831 -35.3403 11.8247c -1.3620,0.4557 -2.7240,0.9114 -4.0861 1.3672c 1.8655,5.5754 3.7310,11.1509 5.5966 16.7264c 1.0674,3.1902 1.5635,6.4061 1.5635 9.5946c 0.0000,12.6088 -8.0272,24.4520 -20.6431 28.6732c -23.5603,7.8832 -47.1205,15.7663 -70.6807 23.6495c -3.9918,1.3356 -8.0798,1.7803 -12.0448 1.4434c -7.7138,-0.6554 -14.9615,-4.2690 -20.1271 -10.0351c -2.6552,-2.9638 -4.7603,-6.4962 -6.0959 -10.4880c -6.7958,-20.3104 -13.5915,-40.6208 -20.3873 -60.9312c -16.7135,-0.0000 -33.4269,-0.0000 -50.1404 -0.0000c -16.7135,-0.0000 -33.4269,-0.0000 -50.1404 -0.0000c -6.7958,20.3104 -13.5915,40.6208 -20.3873 60.9312c -1.3356,3.9917 -3.4407,7.5242 -6.0959 10.4880c -5.1657,5.7661 -12.4134,9.3796 -20.1271 10.0351c -3.9649,0.3369 -8.0530,-0.1078 -12.0448 -1.4434c -23.5602,-7.8832 -47.1205,-15.7663 -70.6807 -23.6495c -12.6159,-4.2212 -20.6431,-16.0644 -20.6431 -28.6732c 0.0000,-3.1884 0.4961,-6.4043 1.5635 -9.5946c 1.8655,-5.5754 3.7310,-11.1509 5.5966 -16.7264c -1.3620,-0.4557 -2.7240,-0.9114 -4.0861 -1.3672c -11.7801,-3.9415 -23.5602,-7.8831 -35.3403 -11.8247c -11.9940,-4.0132 -19.8406,-14.9155 -20.5850 -26.8150c -13.8396,-4.6307 -27.6792,-9.2613 -41.5187 -13.8920c -12.6159,-4.2212 -20.6431,-16.0644 -20.6431 -28.6732c 0.0000,-0.7062 0.0243,-1.4138 0.0738 -2.1221c -3.7304,-1.2482 -7.4607,-2.4964 -11.1911 -3.7445c -7.7878,9.0424 -20.6055,13.0329 -32.5597 9.0331c -15.2573,-5.1050 -30.5145,-10.2100 -45.7718 -15.3150c -7.4598,4.7790 -16.9371,6.2894 -25.9261 3.2817c -23.5603,-7.8831 -47.1205,-15.7663 -70.6807 -23.6494c -4.0063,-1.3405 -7.5499,-3.4496 -10.5206 -6.1078c -5.7629,-5.1566 -9.3700,-12.3796 -10.0174 -20.0658c -0.0698,-0.8285 -0.1052,-1.6624 -0.1052 -2.4996ZM 14.0985,1412.4947 c 0.0000,3.1311 2.5382,5.6693 5.6693 5.6693c 3.1311,-0.0000 5.6693,-2.5382 5.6693 -5.6693c 0.0000,-3.1311 -2.5382,-5.6693 -5.6693 -5.6693c -3.1311,-0.0000 -5.6693,2.5382 -5.6693 5.6693ZM 28.4695,1398.6171 c 4.6112,2.8975 7.6762,8.0296 7.6762 13.8776c 0.0000,0.4722 -0.0200,0.9398 -0.0592 1.4018c 22.1338,7.4059 44.2675,14.8117 66.4013 22.2176c 3.9466,1.3205 8.2464,-0.8233 9.5670 -4.7699c 0.3998,-1.1947 0.7995,-2.3895 1.1993 -3.5842c 20.3106,6.7958 40.6211,13.5916 60.9316 20.3875c 3.9467,1.3205 8.2464,-0.8232 9.5670 -4.7699c 1.1993,-3.5842 2.3985,-7.1684 3.5978 -10.7526c 17.0609,5.7085 34.1217,11.4170 51.1826 17.1255c -1.5990,4.7789 -3.1980,9.5579 -4.7970 14.3369c -0.2666,0.7967 -0.3916,1.6027 -0.3916 2.3990c 0.0000,3.1562 2.0035,6.1113 5.1615 7.1679c 20.3106,6.7958 40.6211,13.5917 60.9317 20.3875c -1.1993,3.5842 -2.3985,7.1684 -3.5978 10.7526c -0.2666,0.7967 -0.3916,1.6028 -0.3916 2.3990c 0.0000,3.1562 2.0035,6.1113 5.1615 7.1679c 11.7801,3.9416 23.5602,7.8831 35.3403 11.8247c 8.5304,2.8542 17.0609,5.7085 25.5913 8.5627c -4.2640,12.7439 -8.5281,25.4877 -12.7921 38.2316c -0.2666,0.7967 -0.3916,1.6027 -0.3916 2.3990c 0.0000,3.1562 2.0036,6.1113 5.1616 7.1679c 22.1334,7.4057 44.2667,14.8114 66.4001 22.2172c 2.8975,-4.6112 8.0296,-7.6762 13.8776 -7.6762c 0.4722,-0.0000 0.9398,0.0200 1.4018 0.0592c 7.1180,-21.2736 14.2361,-42.5471 21.3541 -63.8206c 0.2878,-0.8602 0.5756,-1.7204 0.8635 -2.5807c 0.0004,-0.0011 0.0007,-0.0022 0.0011 -0.0032c 0.5083,-1.5190 1.0165,-3.0379 1.5247 -4.5569c 22.2859,-0.0000 44.5719,-0.0000 66.8578 -0.0000c 22.2859,-0.0000 44.5719,-0.0000 66.8578 -0.0000c 0.5082,1.5189 1.0165,3.0379 1.5247 4.5569c 0.0003,0.0011 0.0007,0.0022 0.0011 0.0032c 0.2878,0.8602 0.5757,1.7204 0.8635 2.5807c 7.1180,21.2735 14.2361,42.5471 21.3541 63.8206c 0.4621,-0.0392 0.9296,-0.0592 1.4018 -0.0592c 5.8480,-0.0000 10.9801,3.0650 13.8776 7.6762c 22.1334,-7.4057 44.2667,-14.8114 66.4001 -22.2172c 3.1580,-1.0567 5.1616,-4.0117 5.1616 -7.1679c 0.0000,-0.7963 -0.1251,-1.6023 -0.3916 -2.3990c -4.2641,-12.7439 -8.5281,-25.4878 -12.7921 -38.2316c 8.5305,-2.8542 17.0609,-5.7085 25.5913 -8.5627c 11.7801,-3.9416 23.5603,-7.8831 35.3403 -11.8247c 3.1580,-1.0566 5.1615,-4.0117 5.1615 -7.1679c 0.0000,-0.7963 -0.1250,-1.6023 -0.3916 -2.3990c -1.1993,-3.5842 -2.3985,-7.1684 -3.5978 -10.7526c 20.3106,-6.7958 40.6211,-13.5917 60.9317 -20.3875c 3.1580,-1.0566 5.1615,-4.0117 5.1615 -7.1679c 0.0000,-0.7963 -0.1251,-1.6023 -0.3916 -2.3990c -1.5990,-4.7790 -3.1980,-9.5579 -4.7970 -14.3369c 17.0608,-5.7085 34.1217,-11.4170 51.1826 -17.1255c 1.1992,3.5842 2.3985,7.1684 3.5978 10.7526c 1.3205,3.9467 5.6203,6.0905 9.5670 4.7699c 20.3106,-6.7958 40.6211,-13.5917 60.9316 -20.3875c 0.3997,1.1948 0.7995,2.3895 1.1993 3.5842c 1.3206,3.9466 5.6203,6.0904 9.5670 4.7699c 22.1338,-7.4059 44.2675,-14.8117 66.4013 -22.2176c -0.0392,-0.4621 -0.0592,-0.9296 -0.0592 -1.4018c 0.0000,-5.8480 3.0650,-10.9801 7.6762 -13.8776c -7.1179,-21.2732 -14.2358,-42.5463 -21.3537 -63.8195c -0.2878,-0.8602 -0.5757,-1.7204 -0.8635 -2.5807c -7.3075,-21.8398 -14.6150,-43.6797 -21.9225 -65.5195c -0.2878,-0.8602 -0.5757,-1.7204 -0.8635 -2.5807c -7.3075,-21.8398 -14.6150,-43.6796 -21.9225 -65.5194c -0.2878,-0.8602 -0.5757,-1.7204 -0.8635 -2.5806c -7.1180,-21.2735 -14.2360,-42.5471 -21.3541 -63.8206c -0.4621,0.0392 -0.9296,0.0592 -1.4019 0.0592c -5.8480,-0.0000 -10.9801,-3.0650 -13.8776 -7.6763c -18.8837,6.3184 -37.7673,12.6368 -56.6510 18.9552c -0.3998,-1.1947 -0.7995,-2.3895 -1.1993 -3.5842c -1.3205,-3.9466 -5.6203,-6.0904 -9.5670 -4.7699c -20.3106,6.7958 -40.6211,13.5916 -60.9316 20.3875c -1.1993,-3.5842 -2.3985,-7.1684 -3.5978 -10.7526c -1.3205,-3.9467 -5.6203,-6.0905 -9.5670 -4.7699c -23.5603,7.8832 -47.1205,15.7663 -70.6807 23.6495c -3.1580,1.0566 -5.1615,4.0117 -5.1615 7.1679c 0.0000,0.7963 0.1251,1.6023 0.3916 2.3990c 1.5990,4.7790 3.1980,9.5579 4.7971 14.3369c -20.3106,6.7958 -40.6211,13.5916 -60.9317 20.3875c -3.1580,1.0566 -5.1615,4.0117 -5.1615 7.1679c 0.0000,0.7963 0.1251,1.6023 0.3916 2.3990c 1.1993,3.5842 2.3985,7.1684 3.5978 10.7526c -8.5304,2.8542 -17.0609,5.7085 -25.5913 8.5627c -16.7226,-0.0000 -33.4452,-0.0000 -50.1678 -0.0000c -2.7320,5.2387 -8.2139,8.8153 -14.5311 8.8153c -6.3172,-0.0000 -11.7991,-3.5766 -14.5311 -8.8153c -4.6051,-0.0000 -9.2102,-0.0000 -13.8153 -0.0000c -4.6051,-0.0000 -9.2102,-0.0000 -13.8153 -0.0000c -2.7320,5.2387 -8.2139,8.8153 -14.5311 8.8153c -6.3172,-0.0000 -11.7991,-3.5766 -14.5311 -8.8153c -16.7226,-0.0000 -33.4452,-0.0000 -50.1678 -0.0000c -8.5304,-2.8543 -17.0609,-5.7085 -25.5913 -8.5627c 1.1993,-3.5842 2.3985,-7.1684 3.5978 -10.7526c 0.2666,-0.7967 0.3916,-1.6028 0.3916 -2.3990c 0.0000,-3.1562 -2.0036,-6.1113 -5.1615 -7.1679c -20.3106,-6.7958 -40.6211,-13.5916 -60.9317 -20.3875c 1.5990,-4.7790 3.1980,-9.5579 4.7971 -14.3369c 0.2666,-0.7967 0.3916,-1.6028 0.3916 -2.3990c 0.0000,-3.1562 -2.0036,-6.1113 -5.1615 -7.1679c -23.5603,-7.8831 -47.1205,-15.7663 -70.6807 -23.6495c -3.9466,-1.3205 -8.2464,0.8233 -9.5670 4.7699c -1.1992,3.5842 -2.3985,7.1684 -3.5978 10.7526c -20.3105,-6.7958 -40.6211,-13.5916 -60.9316 -20.3875c -3.9467,-1.3205 -8.2464,0.8233 -9.5670 4.7699c -0.3997,1.1947 -0.7995,2.3895 -1.1993 3.5842c -18.8837,-6.3184 -37.7674,-12.6368 -56.6510 -18.9552c -2.8975,4.6112 -8.0296,7.6763 -13.8776 7.6763c -0.4722,-0.0000 -0.9398,-0.0200 -1.4019 -0.0592c -7.1180,21.2735 -14.2360,42.5471 -21.3541 63.8206c -0.2878,0.8602 -0.5757,1.7204 -0.8635 2.5806c -7.3075,21.8398 -14.6150,43.6796 -21.9225 65.5194c -0.2878,0.8602 -0.5756,1.7204 -0.8635 2.5807c -7.3075,21.8398 -14.6150,43.6796 -21.9225 65.5195c -0.2878,0.8602 -0.5757,1.7204 -0.8635 2.5807c -7.1179,21.2732 -14.2358,42.5463 -21.3537 63.8195ZM 113.3452,1115.8774 c 0.0000,3.1311 2.5382,5.6693 5.6693 5.6693c 3.1311,-0.0000 5.6693,-2.5382 5.6693 -5.6693c 0.0000,-3.1311 -2.5382,-5.6693 -5.6693 -5.6693c -3.1311,-0.0000 -5.6693,2.5382 -5.6693 5.6693ZM 428.1276,1613.4661 c 0.0000,3.1311 2.5382,5.6693 5.6693 5.6693c 3.1311,-0.0000 5.6693,-2.5382 5.6693 -5.6693c 0.0000,-3.1311 -2.5382,-5.6693 -5.6693 -5.6693c -3.1311,-0.0000 -5.6693,2.5382 -5.6693 5.6693ZM 491.7841,1229.3054 c 0.0000,3.1311 2.5382,5.6693 5.6693 5.6693c 3.1311,-0.0000 5.6693,-2.5382 5.6693 -5.6693c 0.0000,-3.1311 -2.5382,-5.6693 -5.6693 -5.6693c -3.1311,-0.0000 -5.6693,2.5382 -5.6693 5.6693ZM 548.4770,1229.3054 c 0.0000,3.1311 2.5382,5.6693 5.6693 5.6693c 3.1311,-0.0000 5.6693,-2.5382 5.6693 -5.6693c 0.0000,-3.1311 -2.5382,-5.6693 -5.6693 -5.6693c -3.1311,-0.0000 -5.6693,2.5382 -5.6693 5.6693ZM 612.1336,1613.4661 c 0.0000,3.1311 2.5382,5.6693 5.6693 5.6693c 3.1311,-0.0000 5.6693,-2.5382 5.6693 -5.6693c 0.0000,-3.1311 -2.5382,-5.6693 -5.6693 -5.6693c -3.1311,-0.0000 -5.6693,2.5382 -5.6693 5.6693ZM 926.9159,1115.8774 c 0.0000,3.1311 2.5382,5.6693 5.6693 5.6693c 3.1311,-0.0000 5.6693,-2.5382 5.6693 -5.6693c 0.0000,-3.1311 -2.5382,-5.6693 -5.6693 -5.6693c -3.1311,-0.0000 -5.6693,2.5382 -5.6693 5.6693ZM 1026.1627,1412.4947 c 0.0000,3.1311 2.5382,5.6693 5.6693 5.6693c 3.1311,-0.0000 5.6693,-2.5382 5.6693 -5.6693c 0.0000,-3.1311 -2.5382,-5.6693 -5.6693 -5.6693c -3.1311,-0.0000 -5.6693,2.5382 -5.6693 5.6693Z"/></g><g stroke-linejoin="miter" stroke-opacity="1.0" fill-opacity="0.5" stroke="rgb(0,0,0)" stroke-width="0.37795275590551186" fill="rgb(0,0,0)" stroke-linecap="butt" stroke-miterlimit="10.0"><path d="M 3.9685,857.2359 c 0.0000,-3.1884 0.4961,-6.4043 1.5635 -9.5946c 7.5953,-22.7000 15.1907,-45.4000 22.7860 -68.1001c 0.2878,-0.8603 0.5757,-1.7206 0.8635 -2.5808c 7.3075,-21.8398 14.6150,-43.6796 21.9225 -65.5194c 0.2878,-0.8602 0.5756,-1.7204 0.8635 -2.5807c 7.3075,-21.8398 14.6150,-43.6796 21.9225 -65.5194c 0.2878,-0.8602 0.5756,-1.7204 0.8635 -2.5806c 7.5953,-22.7000 15.1906,-45.4000 22.7860 -68.1001c 5.2697,-15.7495 22.5182,-24.3494 38.2678 -19.0796c 15.2573,5.1050 30.5145,10.2100 45.7718 15.3150c 7.4598,-4.7790 16.9371,-6.2894 25.9261 -3.2816c 13.8456,4.6327 27.6911,9.2653 41.5367 13.8980c 7.7878,-9.0424 20.6055,-13.0329 32.5597 -9.0331c 23.5602,7.8831 47.1205,15.7663 70.6807 23.6494c 12.6159,4.2212 20.6431,16.0646 20.6431 28.6732c 0.0000,0.7062 -0.0243,1.4137 -0.0738 2.1221c 13.4451,4.4987 26.8902,8.9973 40.3352 13.4960c 11.9940,4.0131 19.8406,14.9155 20.5850 26.8150c 2.0594,0.6891 4.1189,1.3782 6.1783 2.0672c 28.6166,-0.0000 57.2332,-0.0000 85.8498 -0.0000c 28.6166,-0.0000 57.2332,-0.0000 85.8498 -0.0000c 2.0594,-0.6891 4.1189,-1.3782 6.1783 -2.0672c 0.7444,-11.8996 8.5911,-22.8019 20.5850 -26.8150c 13.4451,-4.4987 26.8901,-8.9973 40.3352 -13.4960c -0.0495,-0.7083 -0.0738,-1.4159 -0.0738 -2.1221c 0.0000,-12.6086 8.0273,-24.4520 20.6431 -28.6732c 23.5602,-7.8831 47.1205,-15.7663 70.6807 -23.6494c 11.9542,-3.9998 24.7719,-0.0093 32.5597 9.0331c 13.8456,-4.6327 27.6911,-9.2653 41.5367 -13.8980c 8.9890,-3.0077 18.4663,-1.4974 25.9261 3.2816c 15.2573,-5.1050 30.5145,-10.2100 45.7718 -15.3150c 15.7496,-5.2697 32.9981,3.3301 38.2678 19.0796c 7.5953,22.7000 15.1906,45.4000 22.7860 68.1001c 0.2878,0.8602 0.5756,1.7204 0.8635 2.5806c 7.3075,21.8398 14.6150,43.6796 21.9225 65.5194c 0.2878,0.8602 0.5756,1.7204 0.8635 2.5807c 7.3075,21.8398 14.6150,43.6796 21.9225 65.5194c 0.2878,0.8603 0.5757,1.7205 0.8635 2.5808c 7.5953,22.7000 15.1906,45.4000 22.7860 68.1001c 1.0674,3.1903 1.5635,6.4062 1.5635 9.5946c 0.0000,12.6088 -8.0272,24.4520 -20.6432 28.6732c -23.5602,7.8832 -47.1205,15.7663 -70.6807 23.6494c -8.9890,3.0077 -18.4663,1.4974 -25.9261 -3.2816c -15.2573,5.1050 -30.5145,10.2100 -45.7718 15.3150c -11.9542,3.9998 -24.7719,0.0093 -32.5597 -9.0331c -3.7304,1.2482 -7.4607,2.4963 -11.1911 3.7445c 0.0495,0.7083 0.0738,1.4159 0.0738 2.1221c 0.0000,12.6088 -8.0272,24.4520 -20.6431 28.6732c -13.8396,4.6307 -27.6792,9.2613 -41.5187 13.8920c -0.7445,11.8996 -8.5910,22.8019 -20.5850 26.8150c -11.7801,3.9416 -23.5602,7.8831 -35.3403 11.8247c -1.3620,0.4557 -2.7240,0.9114 -4.0861 1.3672c 1.8655,5.5754 3.7310,11.1509 5.5965 16.7264c 1.0674,3.1902 1.5635,6.4061 1.5635 9.5946c 0.0000,12.6088 -8.0272,24.4520 -20.6431 28.6732c -23.5603,7.8832 -47.1205,15.7663 -70.6807 23.6495c -15.7495,5.2697 -32.9981,-3.3301 -38.2678 -19.0796c -6.7958,-20.3104 -13.5915,-40.6208 -20.3873 -60.9312c -16.7135,-0.0000 -33.4269,-0.0000 -50.1404 -0.0000c -16.7135,-0.0000 -33.4269,-0.0000 -50.1404 -0.0000c -6.7958,20.3104 -13.5915,40.6208 -20.3873 60.9312c -5.2697,15.7495 -22.5183,24.3493 -38.2678 19.0796c -23.5602,-7.8832 -47.1205,-15.7663 -70.6807 -23.6495c -12.6159,-4.2212 -20.6431,-16.0644 -20.6431 -28.6732c 0.0000,-3.1884 0.4961,-6.4043 1.5635 -9.5946c 1.8655,-5.5754 3.7310,-11.1509 5.5965 -16.7264c -1.3620,-0.4557 -2.7240,-0.9114 -4.0861 -1.3672c -11.7801,-3.9416 -23.5602,-7.8831 -35.3403 -11.8247c -11.9940,-4.0132 -19.8406,-14.9155 -20.5850 -26.8150c -13.8396,-4.6307 -27.6792,-9.2613 -41.5187 -13.8920c -12.6159,-4.2212 -20.6431,-16.0644 -20.6431 -28.6732c 0.0000,-0.7062 0.0243,-1.4138 0.0738 -2.1221c -3.7304,-1.2482 -7.4607,-2.4963 -11.1911 -3.7445c -7.7878,9.0424 -20.6055,13.0329 -32.5597 9.0331c -15.2573,-5.1050 -30.5145,-10.2100 -45.7718 -15.3150c -7.4598,4.7790 -16.9371,6.2894 -25.9261 3.2816c -23.5603,-7.8831 -47.1205,-15.7663 -70.6807 -23.6494c -12.6160,-4.2212 -20.6432,-16.0644 -20.6432 -28.6732ZM 14.0985,864.4339 c 0.0000,3.1311 2.5382,5.6693 5.6693 5.6693c 3.1311,-0.0000 5.6693,-2.5382 5.6693 -5.6693c 0.0000,-3.1311 -2.5382,-5.6693 -5.6693 -5.6693c -3.1311,-0.0000 -5.6693,2.5382 -5.6693 5.6693ZM 46.2207,845.8898 c 0.9711,0.3249 1.9422,0.6498 2.9133 0.9748c -0.3919,1.1714 -0.7839,2.3428 -1.1758 3.5141c 16.6905,5.5846 33.3810,11.1691 50.0715 16.7537c 0.3919,-1.1714 0.7839,-2.3428 1.1758 -3.5141c 0.9711,0.3249 1.9422,0.6498 2.9133 0.9748c 1.3992,-4.1817 2.7984,-8.3634 4.1975 -12.5451c -0.9711,-0.3249 -1.9422,-0.6498 -2.9133 -0.9748c 2.0023,-5.9843 4.0047,-11.9687 6.0070 -17.9530c 0.9711,0.3249 1.9422,0.6498 2.9133 0.9748c 1.3992,-4.1817 2.7984,-8.3634 4.1975 -12.5451c -0.9711,-0.3249 -1.9422,-0.6498 -2.9133 -0.9748c 0.3919,-1.1714 0.7839,-2.3428 1.1758 -3.5141c -16.6905,-5.5846 -33.3810,-11.1691 -50.0715 -16.7537c -0.3919,1.1714 -0.7839,2.3428 -1.1758 3.5141c -0.9711,-0.3249 -1.9422,-0.6498 -2.9133 -0.9748c -1.3992,4.1817 -2.7984,8.3634 -4.1975 12.5451c 0.9711,0.3249 1.9422,0.6498 2.9133 0.9748c -2.0023,5.9843 -4.0047,11.9687 -6.0070 17.9530c -0.9711,-0.3249 -1.9422,-0.6498 -2.9133 -0.9748c -1.3992,4.1817 -2.7984,8.3634 -4.1975 12.5451ZM 69.0067,777.7897 c 0.9711,0.3249 1.9422,0.6498 2.9133 0.9748c -0.3919,1.1714 -0.7839,2.3428 -1.1758 3.5141c 16.6905,5.5846 33.3810,11.1691 50.0715 16.7537c 0.3919,-1.1714 0.7839,-2.3428 1.1758 -3.5141c 0.9711,0.3249 1.9422,0.6498 2.9133 0.9748c 1.3992,-4.1817 2.7984,-8.3634 4.1975 -12.5451c -0.9711,-0.3249 -1.9422,-0.6498 -2.9133 -0.9748c 2.0023,-5.9843 4.0047,-11.9686 6.0070 -17.9530c 0.9711,0.3249 1.9422,0.6498 2.9133 0.9748c 1.3992,-4.1817 2.7983,-8.3634 4.1975 -12.5451c -0.9711,-0.3249 -1.9422,-0.6498 -2.9133 -0.9748c 0.3919,-1.1714 0.7839,-2.3428 1.1758 -3.5141c -16.6905,-5.5846 -33.3810,-11.1691 -50.0715 -16.7537c -0.3919,1.1714 -0.7839,2.3428 -1.1758 3.5141c -0.9711,-0.3249 -1.9422,-0.6498 -2.9132 -0.9748c -1.3992,4.1817 -2.7984,8.3634 -4.1975 12.5451c 0.9711,0.3249 1.9422,0.6498 2.9133 0.9748c -2.0023,5.9843 -4.0047,11.9686 -6.0070 17.9530c -0.9711,-0.3249 -1.9422,-0.6498 -2.9133 -0.9748c -1.3992,4.1817 -2.7984,8.3634 -4.1975 12.5451ZM 91.7926,709.6896 c 0.9711,0.3249 1.9422,0.6498 2.9133 0.9748c -0.3919,1.1714 -0.7839,2.3428 -1.1758 3.5141c 16.6905,5.5846 33.3810,11.1691 50.0715 16.7537c 0.3919,-1.1714 0.7839,-2.3428 1.1758 -3.5141c 0.9711,0.3249 1.9422,0.6498 2.9133 0.9748c 1.3992,-4.1817 2.7983,-8.3634 4.1975 -12.5451c -0.9711,-0.3249 -1.9422,-0.6498 -2.9133 -0.9748c 2.0023,-5.9843 4.0047,-11.9686 6.0070 -17.9530c 0.9711,0.3249 1.9422,0.6498 2.9133 0.9748c 1.3992,-4.1817 2.7984,-8.3634 4.1975 -12.5451c -0.9711,-0.3249 -1.9422,-0.6498 -2.9133 -0.9748c 0.3919,-1.1714 0.7839,-2.3428 1.1758 -3.5141c -16.6905,-5.5846 -33.3810,-11.1691 -50.0715 -16.7537c -0.3919,1.1714 -0.7839,2.3428 -1.1758 3.5141c -0.9711,-0.3249 -1.9422,-0.6498 -2.9133 -0.9748c -1.3992,4.1817 -2.7983,8.3634 -4.1975 12.5451c 0.9711,0.3249 1.9422,0.6498 2.9132 0.9748c -2.0023,5.9843 -4.0047,11.9687 -6.0070 17.9530c -0.9711,-0.3249 -1.9422,-0.6498 -2.9133 -0.9748c -1.3992,4.1817 -2.7984,8.3634 -4.1975 12.5451ZM 113.3452,567.8166 c 0.0000,3.1311 2.5382,5.6693 5.6693 5.6693c 3.1311,-0.0000 5.6693,-2.5382 5.6693 -5.6693c 0.0000,-3.1311 -2.5382,-5.6693 -5.6693 -5.6693c -3.1311,-0.0000 -5.6693,2.5382 -5.6693 5.6693ZM 114.5786,641.5895 c 0.9711,0.3249 1.9422,0.6498 2.9133 0.9748c -0.3919,1.1714 -0.7839,2.3428 -1.1758 3.5141c 16.6905,5.5846 33.3810,11.1691 50.0715 16.7537c 0.3919,-1.1714 0.7839,-2.3428 1.1758 -3.5141c 0.9711,0.3249 1.9422,0.6498 2.9133 0.9748c 1.3992,-4.1817 2.7984,-8.3634 4.1975 -12.5451c -0.9711,-0.3249 -1.9422,-0.6498 -2.9133 -0.9748c 2.0023,-5.9843 4.0047,-11.9686 6.0070 -17.9530c 0.9711,0.3249 1.9422,0.6498 2.9133 0.9748c 1.3992,-4.1817 2.7984,-8.3634 4.1975 -12.5451c -0.9711,-0.3249 -1.9422,-0.6498 -2.9133 -0.9748c 0.3919,-1.1714 0.7839,-2.3428 1.1758 -3.5141c -16.6905,-5.5846 -33.3810,-11.1691 -50.0715 -16.7537c -0.3919,1.1714 -0.7839,2.3428 -1.1758 3.5141c -0.9711,-0.3249 -1.9422,-0.6498 -2.9133 -0.9748c -1.3992,4.1817 -2.7984,8.3634 -4.1975 12.5451c 0.9711,0.3249 1.9422,0.6498 2.9133 0.9748c -2.0023,5.9843 -4.0047,11.9687 -6.0070 17.9530c -0.9711,-0.3249 -1.9422,-0.6498 -2.9133 -0.9748c -1.3992,4.1817 -2.7984,8.3634 -4.1975 12.5451ZM 117.9186,857.9231 c 0.9711,0.3249 1.9422,0.6498 2.9133 0.9748c -0.3919,1.1714 -0.7839,2.3428 -1.1758 3.5141c 16.6905,5.5846 33.3810,11.1691 50.0715 16.7537c 0.3919,-1.1714 0.7839,-2.3428 1.1758 -3.5141c 0.9711,0.3249 1.9422,0.6498 2.9133 0.9748c 1.3992,-4.1817 2.7983,-8.3634 4.1975 -12.5451c -0.9711,-0.3249 -1.9422,-0.6498 -2.9133 -0.9748c 2.0023,-5.9843 4.0047,-11.9687 6.0070 -17.9530c 0.9711,0.3249 1.9422,0.6498 2.9133 0.9748c 1.3992,-4.1817 2.7984,-8.3634 4.1975 -12.5451c -0.9711,-0.3249 -1.9422,-0.6498 -2.9133 -0.9748c 0.3919,-1.1714 0.7839,-2.3428 1.1758 -3.5141c -16.6905,-5.5846 -33.3810,-11.1691 -50.0715 -16.7537c -0.3919,1.1714 -0.7839,2.3428 -1.1758 3.5141c -0.9711,-0.3249 -1.9422,-0.6498 -2.9133 -0.9748c -1.3992,4.1817 -2.7984,8.3634 -4.1975 12.5451c 0.9711,0.3249 1.9422,0.6498 2.9133 0.9748c -2.0023,5.9843 -4.0047,11.9687 -6.0070 17.9530c -0.9711,-0.3249 -1.9422,-0.6498 -2.9133 -0.9748c -1.3992,4.1817 -2.7984,8.3634 -4.1975 12.5451ZM 140.7046,789.8231 c 0.9711,0.3249 1.9422,0.6498 2.9133 0.9748c -0.3919,1.1714 -0.7839,2.3428 -1.1758 3.5141c 16.6905,5.5846 33.3810,11.1691 50.0715 16.7537c 0.3919,-1.1714 0.7839,-2.3428 1.1758 -3.5141c 0.9711,0.3249 1.9422,0.6498 2.9133 0.9748c 1.3992,-4.1817 2.7984,-8.3634 4.1975 -12.5451c -0.9711,-0.3249 -1.9422,-0.6498 -2.9133 -0.9748c 2.0023,-5.9843 4.0047,-11.9687 6.0070 -17.9530c 0.9711,0.3249 1.9422,0.6498 2.9133 0.9748c 1.3992,-4.1817 2.7983,-8.3634 4.1975 -12.5451c -0.9711,-0.3249 -1.9422,-0.6498 -2.9133 -0.9748c 0.3919,-1.1714 0.7839,-2.3428 1.1758 -3.5141c -16.6905,-5.5846 -33.3810,-11.1691 -50.0715 -16.7537c -0.3919,1.1714 -0.7839,2.3428 -1.1758 3.5141c -0.9711,-0.3249 -1.9422,-0.6498 -2.9133 -0.9748c -1.3992,4.1817 -2.7984,8.3634 -4.1975 12.5451c 0.9711,0.3249 1.9422,0.6498 2.9133 0.9748c -2.0023,5.9843 -4.0047,11.9687 -6.0070 17.9530c -0.9711,-0.3249 -1.9422,-0.6498 -2.9133 -0.9748c -1.3992,4.1817 -2.7984,8.3634 -4.1975 12.5451ZM 163.4905,721.7230 c 0.9711,0.3249 1.9422,0.6498 2.9133 0.9748c -0.3919,1.1714 -0.7839,2.3428 -1.1758 3.5141c 16.6905,5.5846 33.3810,11.1691 50.0715 16.7537c 0.3919,-1.1714 0.7839,-2.3428 1.1758 -3.5141c 0.9711,0.3249 1.9422,0.6498 2.9133 0.9748c 1.3992,-4.1817 2.7984,-8.3634 4.1975 -12.5451c -0.9711,-0.3249 -1.9422,-0.6498 -2.9133 -0.9748c 2.0023,-5.9843 4.0047,-11.9687 6.0070 -17.9530c 0.9711,0.3249 1.9422,0.6498 2.9133 0.9748c 1.3992,-4.1817 2.7984,-8.3634 4.1975 -12.5451c -0.9711,-0.3249 -1.9422,-0.6498 -2.9133 -0.9748c 0.3919,-1.1714 0.7839,-2.3428 1.1758 -3.5141c -16.6905,-5.5846 -33.3810,-11.1691 -50.0715 -16.7537c -0.3919,1.1714 -0.7839,2.3428 -1.1758 3.5141c -0.9711,-0.3249 -1.9422,-0.6498 -2.9133 -0.9748c -1.3992,4.1817 -2.7984,8.3634 -4.1975 12.5451c 0.9711,0.3249 1.9422,0.6498 2.9133 0.9748c -2.0023,5.9843 -4.0047,11.9687 -6.0070 17.9530c -0.9711,-0.3249 -1.9422,-0.6498 -2.9133 -0.9748c -1.3992,4.1817 -2.7984,8.3634 -4.1975 12.5451ZM 186.2765,653.6229 c 0.9711,0.3249 1.9422,0.6498 2.9133 0.9748c -0.3919,1.1714 -0.7839,2.3428 -1.1758 3.5141c 16.6905,5.5846 33.3810,11.1691 50.0715 16.7537c 0.3919,-1.1714 0.7839,-2.3428 1.1758 -3.5141c 0.9711,0.3249 1.9422,0.6498 2.9133 0.9748c 1.3992,-4.1817 2.7983,-8.3634 4.1975 -12.5451c -0.9711,-0.3249 -1.9422,-0.6498 -2.9133 -0.9748c 2.0023,-5.9843 4.0047,-11.9687 6.0070 -17.9530c 0.9711,0.3249 1.9422,0.6498 2.9133 0.9748c 1.3992,-4.1817 2.7984,-8.3634 4.1975 -12.5451c -0.9711,-0.3249 -1.9422,-0.6498 -2.9133 -0.9748c 0.3919,-1.1714 0.7839,-2.3428 1.1758 -3.5141c -16.6905,-5.5846 -33.3810,-11.1691 -50.0715 -16.7537c -0.3919,1.1714 -0.7839,2.3428 -1.1758 3.5141c -0.9711,-0.3249 -1.9422,-0.6498 -2.9133 -0.9748c -1.3992,4.1817 -2.7984,8.3634 -4.1975 12.5451c 0.9711,0.3249 1.9422,0.6498 2.9133 0.9748c -2.0023,5.9843 -4.0047,11.9687 -6.0070 17.9530c -0.9711,-0.3249 -1.9422,-0.6498 -2.9133 -0.9748c -1.3992,4.1817 -2.7984,8.3634 -4.1975 12.5451ZM 192.0150,862.7880 c 0.9711,0.3249 1.9422,0.6498 2.9133 0.9748c -0.3919,1.1714 -0.7839,2.3428 -1.1758 3.5141c 16.6905,5.5846 33.3810,11.1691 50.0715 16.7537c 0.3919,-1.1714 0.7839,-2.3428 1.1758 -3.5141c 0.9711,0.3249 1.9422,0.6498 2.9133 0.9748c 1.3992,-4.1817 2.7984,-8.3634 4.1975 -12.5451c -0.9711,-0.3249 -1.9422,-0.6498 -2.9133 -0.9748c 2.0023,-5.9843 4.0047,-11.9686 6.0070 -17.9530c 0.9711,0.3249 1.9422,0.6498 2.9133 0.9748c 1.3992,-4.1817 2.7984,-8.3634 4.1975 -12.5451c -0.9711,-0.3249 -1.9422,-0.6498 -2.9133 -0.9748c 0.3919,-1.1714 0.7839,-2.3428 1.1758 -3.5141c -16.6905,-5.5846 -33.3810,-11.1691 -50.0715 -16.7537c -0.3919,1.1714 -0.7839,2.3428 -1.1758 3.5141c -0.9711,-0.3249 -1.9422,-0.6498 -2.9133 -0.9748c -1.3992,4.1817 -2.7983,8.3634 -4.1975 12.5451c 0.9711,0.3249 1.9422,0.6498 2.9133 0.9748c -2.0023,5.9843 -4.0047,11.9686 -6.0070 17.9530c -0.9711,-0.3249 -1.9422,-0.6498 -2.9133 -0.9748c -1.3992,4.1817 -2.7984,8.3634 -4.1975 12.5451ZM 214.8010,794.6879 c 0.9711,0.3249 1.9422,0.6498 2.9133 0.9748c -0.3919,1.1714 -0.7839,2.3428 -1.1758 3.5141c 16.6905,5.5846 33.3810,11.1691 50.0715 16.7537c 0.3919,-1.1714 0.7839,-2.3428 1.1758 -3.5141c 0.9711,0.3249 1.9422,0.6498 2.9133 0.9748c 1.3992,-4.1817 2.7984,-8.3634 4.1975 -12.5451c -0.9711,-0.3249 -1.9422,-0.6498 -2.9133 -0.9748c 2.0023,-5.9843 4.0047,-11.9686 6.0070 -17.9530c 0.9711,0.3249 1.9422,0.6498 2.9133 0.9748c 1.3992,-4.1817 2.7984,-8.3634 4.1975 -12.5451c -0.9711,-0.3249 -1.9422,-0.6498 -2.9133 -0.9748c 0.3919,-1.1714 0.7839,-2.3428 1.1758 -3.5141c -16.6905,-5.5846 -33.3810,-11.1691 -50.0715 -16.7537c -0.3919,1.1714 -0.7839,2.3428 -1.1758 3.5141c -0.9711,-0.3249 -1.9422,-0.6498 -2.9133 -0.9748c -1.3992,4.1817 -2.7984,8.3634 -4.1975 12.5451c 0.9711,0.3249 1.9422,0.6498 2.9133 0.9748c -2.0023,5.9843 -4.0047,11.9686 -6.0070 17.9530c -0.9711,-0.3249 -1.9422,-0.6498 -2.9133 -0.9748c -1.3992,4.1817 -2.7984,8.3634 -4.1975 12.5451ZM 237.5869,726.5879 c 0.9711,0.3249 1.9422,0.6498 2.9133 0.9748c -0.3919,1.1714 -0.7839,2.3428 -1.1758 3.5141c 16.6905,5.5846 33.3810,11.1691 50.0715 16.7537c 0.3919,-1.1714 0.7839,-2.3428 1.1758 -3.5141c 0.9711,0.3249 1.9422,0.6498 2.9133 0.9748c 1.3992,-4.1817 2.7984,-8.3634 4.1975 -12.5451c -0.9711,-0.3249 -1.9422,-0.6498 -2.9133 -0.9748c 2.0023,-5.9843 4.0047,-11.9686 6.0070 -17.9530c 0.9711,0.3249 1.9422,0.6498 2.9133 0.9748c 1.3992,-4.1817 2.7984,-8.3634 4.1975 -12.5451c -0.9711,-0.3249 -1.9422,-0.6498 -2.9133 -0.9748c 0.3919,-1.1714 0.7839,-2.3428 1.1758 -3.5141c -16.6905,-5.5846 -33.3810,-11.1691 -50.0715 -16.7537c -0.3919,1.1714 -0.7839,2.3428 -1.1758 3.5141c -0.9711,-0.3249 -1.9422,-0.6498 -2.9133 -0.9748c -1.3992,4.1817 -2.7984,8.3634 -4.1975 12.5451c 0.9711,0.3249 1.9422,0.6498 2.9133 0.9748c -2.0023,5.9843 -4.0047,11.9687 -6.0070 17.9530c -0.9711,-0.3249 -1.9422,-0.6498 -2.9133 -0.9748c -1.3992,4.1817 -2.7983,8.3634 -4.1975 12.5451ZM 252.9195,907.0793 c 0.9711,0.3249 1.9422,0.6498 2.9133 0.9748c -0.3919,1.1714 -0.7839,2.3428 -1.1758 3.5141c 16.6905,5.5846 33.3810,11.1691 50.0715 16.7537c 0.3919,-1.1714 0.7839,-2.3428 1.1758 -3.5141c 0.9711,0.3249 1.9422,0.6498 2.9133 0.9748c 1.3992,-4.1817 2.7984,-8.3634 4.1975 -12.5451c -0.9711,-0.3249 -1.9422,-0.6498 -2.9133 -0.9748c 2.0023,-5.9843 4.0047,-11.9687 6.0070 -17.9530c 0.9711,0.3249 1.9422,0.6498 2.9133 0.9748c 1.3992,-4.1817 2.7984,-8.3634 4.1975 -12.5451c -0.9711,-0.3249 -1.9422,-0.6498 -2.9133 -0.9748c 0.3919,-1.1714 0.7839,-2.3428 1.1758 -3.5141c -16.6905,-5.5846 -33.3810,-11.1691 -50.0715 -16.7537c -0.3919,1.1714 -0.7839,2.3428 -1.1758 3.5141c -0.9711,-0.3249 -1.9422,-0.6498 -2.9133 -0.9748c -1.3992,4.1817 -2.7984,8.3634 -4.1975 12.5451c 0.9711,0.3249 1.9422,0.6498 2.9133 0.9748c -2.0023,5.9843 -4.0047,11.9686 -6.0070 17.9530c -0.9711,-0.3249 -1.9422,-0.6498 -2.9132 -0.9748c -1.3992,4.1817 -2.7984,8.3634 -4.1975 12.5451ZM 260.3729,658.4878 c 0.9711,0.3249 1.9422,0.6498 2.9133 0.9748c -0.3919,1.1714 -0.7839,2.3428 -1.1758 3.5141c 16.6905,5.5846 33.3810,11.1691 50.0715 16.7537c 0.3919,-1.1714 0.7839,-2.3428 1.1758 -3.5141c 0.9711,0.3249 1.9422,0.6498 2.9133 0.9748c 1.3992,-4.1817 2.7983,-8.3634 4.1975 -12.5451c -0.9711,-0.3249 -1.9422,-0.6498 -2.9133 -0.9748c 2.0023,-5.9843 4.0047,-11.9687 6.0070 -17.9530c 0.9711,0.3249 1.9422,0.6498 2.9133 0.9748c 1.3992,-4.1817 2.7984,-8.3634 4.1975 -12.5451c -0.9711,-0.3249 -1.9422,-0.6498 -2.9133 -0.9748c 0.3919,-1.1714 0.7839,-2.3428 1.1758 -3.5141c -16.6905,-5.5846 -33.3810,-11.1691 -50.0715 -16.7537c -0.3919,1.1714 -0.7839,2.3428 -1.1758 3.5141c -0.9711,-0.3249 -1.9422,-0.6498 -2.9133 -0.9748c -1.3992,4.1817 -2.7983,8.3634 -4.1975 12.5451c 0.9711,0.3249 1.9422,0.6498 2.9133 0.9748c -2.0023,5.9843 -4.0047,11.9687 -6.0070 17.9530c -0.9711,-0.3249 -1.9422,-0.6498 -2.9133 -0.9748c -1.3992,4.1817 -2.7984,8.3634 -4.1975 12.5451ZM 275.7055,838.9792 c 0.9711,0.3249 1.9422,0.6498 2.9132 0.9748c -0.3919,1.1714 -0.7839,2.3428 -1.1758 3.5141c 16.6905,5.5846 33.3810,11.1691 50.0715 16.7537c 0.3919,-1.1714 0.7839,-2.3428 1.1758 -3.5141c 0.9711,0.3249 1.9422,0.6498 2.9133 0.9748c 1.3992,-4.1817 2.7984,-8.3634 4.1975 -12.5451c -0.9711,-0.3249 -1.9422,-0.6498 -2.9133 -0.9748c 2.0023,-5.9843 4.0047,-11.9687 6.0070 -17.9530c 0.9711,0.3249 1.9422,0.6498 2.9133 0.9748c 1.3992,-4.1817 2.7983,-8.3634 4.1975 -12.5451c -0.9711,-0.3249 -1.9422,-0.6498 -2.9133 -0.9748c 0.3919,-1.1714 0.7839,-2.3428 1.1758 -3.5141c -16.6905,-5.5846 -33.3810,-11.1691 -50.0715 -16.7537c -0.3919,1.1714 -0.7839,2.3428 -1.1758 3.5141c -0.9711,-0.3249 -1.9422,-0.6498 -2.9132 -0.9748c -1.3992,4.1817 -2.7984,8.3634 -4.1975 12.5451c 0.9711,0.3249 1.9422,0.6498 2.9133 0.9748c -2.0023,5.9843 -4.0047,11.9687 -6.0070 17.9530c -0.9711,-0.3249 -1.9422,-0.6498 -2.9133 -0.9748c -1.3992,4.1817 -2.7983,8.3634 -4.1975 12.5451ZM 298.4914,770.8791 c 0.9711,0.3249 1.9422,0.6498 2.9133 0.9748c -0.3919,1.1714 -0.7839,2.3428 -1.1758 3.5141c 16.6905,5.5846 33.3810,11.1691 50.0715 16.7537c 0.3919,-1.1714 0.7839,-2.3428 1.1758 -3.5141c 0.9711,0.3249 1.9422,0.6498 2.9133 0.9748c 1.3992,-4.1817 2.7983,-8.3634 4.1975 -12.5451c -0.9711,-0.3249 -1.9422,-0.6498 -2.9133 -0.9748c 2.0023,-5.9843 4.0047,-11.9687 6.0070 -17.9530c 0.9711,0.3249 1.9422,0.6498 2.9133 0.9748c 1.3992,-4.1817 2.7984,-8.3634 4.1975 -12.5451c -0.9711,-0.3249 -1.9422,-0.6498 -2.9133 -0.9748c 0.3919,-1.1714 0.7839,-2.3428 1.1758 -3.5141c -16.6905,-5.5846 -33.3810,-11.1691 -50.0715 -16.7537c -0.3919,1.1714 -0.7839,2.3428 -1.1758 3.5141c -0.9711,-0.3249 -1.9422,-0.6498 -2.9133 -0.9748c -1.3992,4.1817 -2.7983,8.3634 -4.1975 12.5451c 0.9711,0.3249 1.9422,0.6498 2.9133 0.9748c -2.0023,5.9843 -4.0047,11.9687 -6.0070 17.9530c -0.9711,-0.3249 -1.9422,-0.6498 -2.9133 -0.9748c -1.3992,4.1817 -2.7984,8.3634 -4.1975 12.5451ZM 315.0233,947.7864 c 0.9711,0.3249 1.9422,0.6498 2.9133 0.9748c -0.3919,1.1714 -0.7839,2.3428 -1.1758 3.5141c 16.6905,5.5846 33.3810,11.1691 50.0715 16.7537c 0.3919,-1.1714 0.7839,-2.3428 1.1758 -3.5141c 0.9711,0.3249 1.9422,0.6498 2.9133 0.9748c 1.3992,-4.1817 2.7984,-8.3634 4.1975 -12.5451c -0.9711,-0.3249 -1.9422,-0.6498 -2.9133 -0.9748c 2.0023,-5.9843 4.0047,-11.9687 6.0070 -17.9530c 0.9711,0.3249 1.9422,0.6498 2.9133 0.9748c 1.3992,-4.1817 2.7984,-8.3634 4.1975 -12.5451c -0.9711,-0.3249 -1.9422,-0.6498 -2.9133 -0.9748c 0.3919,-1.1714 0.7839,-2.3428 1.1758 -3.5141c -16.6905,-5.5846 -33.3810,-11.1691 -50.0715 -16.7537c -0.3919,1.1714 -0.7839,2.3428 -1.1758 3.5141c -0.9711,-0.3249 -1.9422,-0.6498 -2.9132 -0.9748c -1.3992,4.1817 -2.7984,8.3634 -4.1975 12.5451c 0.9711,0.3249 1.9422,0.6498 2.9133 0.9748c -2.0023,5.9843 -4.0047,11.9686 -6.0070 17.9530c -0.9711,-0.3249 -1.9422,-0.6498 -2.9133 -0.9748c -1.3992,4.1817 -2.7984,8.3634 -4.1975 12.5451ZM 321.2774,702.7790 c 0.9711,0.3249 1.9422,0.6498 2.9133 0.9748c -0.3919,1.1714 -0.7839,2.3428 -1.1758 3.5141c 16.6905,5.5846 33.3810,11.1691 50.0715 16.7537c 0.3919,-1.1714 0.7839,-2.3428 1.1758 -3.5141c 0.9711,0.3249 1.9422,0.6498 2.9133 0.9748c 1.3992,-4.1817 2.7984,-8.3634 4.1975 -12.5451c -0.9711,-0.3249 -1.9422,-0.6498 -2.9133 -0.9748c 2.0023,-5.9843 4.0047,-11.9687 6.0070 -17.9530c 0.9711,0.3249 1.9422,0.6498 2.9133 0.9748c 1.3992,-4.1817 2.7984,-8.3634 4.1975 -12.5451c -0.9711,-0.3249 -1.9422,-0.6498 -2.9133 -0.9748c 0.3919,-1.1714 0.7839,-2.3428 1.1758 -3.5141c -16.6905,-5.5846 -33.3810,-11.1691 -50.0715 -16.7537c -0.3919,1.1714 -0.7839,2.3428 -1.1758 3.5141c -0.9711,-0.3249 -1.9422,-0.6498 -2.9133 -0.9748c -1.3992,4.1817 -2.7984,8.3634 -4.1975 12.5451c 0.9711,0.3249 1.9422,0.6498 2.9133 0.9748c -2.0023,5.9843 -4.0047,11.9687 -6.0070 17.9530c -0.9711,-0.3249 -1.9422,-0.6498 -2.9133 -0.9748c -1.3992,4.1817 -2.7984,8.3634 -4.1975 12.5451ZM 337.8093,879.6863 c 0.9711,0.3249 1.9422,0.6498 2.9133 0.9748c -0.3919,1.1714 -0.7839,2.3428 -1.1758 3.5141c 16.6905,5.5846 33.3810,11.1691 50.0715 16.7537c 0.3919,-1.1714 0.7839,-2.3428 1.1758 -3.5141c 0.9711,0.3249 1.9422,0.6498 2.9133 0.9748c 1.3992,-4.1817 2.7983,-8.3634 4.1975 -12.5451c -0.9711,-0.3249 -1.9422,-0.6498 -2.9133 -0.9748c 2.0023,-5.9843 4.0047,-11.9686 6.0070 -17.9530c 0.9711,0.3249 1.9422,0.6498 2.9133 0.9748c 1.3992,-4.1817 2.7984,-8.3634 4.1975 -12.5451c -0.9711,-0.3249 -1.9422,-0.6498 -2.9133 -0.9748c 0.3919,-1.1714 0.7839,-2.3428 1.1758 -3.5141c -16.6905,-5.5846 -33.3810,-11.1691 -50.0715 -16.7537c -0.3919,1.1714 -0.7839,2.3428 -1.1758 3.5141c -0.9711,-0.3249 -1.9422,-0.6498 -2.9133 -0.9748c -1.3992,4.1817 -2.7984,8.3634 -4.1975 12.5451c 0.9711,0.3249 1.9422,0.6498 2.9132 0.9748c -2.0023,5.9843 -4.0047,11.9686 -6.0070 17.9530c -0.9711,-0.3249 -1.9422,-0.6498 -2.9133 -0.9748c -1.3992,4.1817 -2.7984,8.3634 -4.1975 12.5451ZM 360.5952,811.5862 c 0.9711,0.3249 1.9422,0.6498 2.9133 0.9748c -0.3919,1.1714 -0.7839,2.3428 -1.1758 3.5141c 16.6905,5.5846 33.3810,11.1691 50.0715 16.7537c 0.3919,-1.1714 0.7839,-2.3428 1.1758 -3.5141c 0.9711,0.3249 1.9422,0.6498 2.9133 0.9748c 1.3992,-4.1817 2.7984,-8.3634 4.1975 -12.5451c -0.9711,-0.3249 -1.9422,-0.6498 -2.9133 -0.9748c 2.0023,-5.9843 4.0047,-11.9686 6.0070 -17.9530c 0.9711,0.3249 1.9422,0.6498 2.9133 0.9748c 1.3992,-4.1817 2.7983,-8.3634 4.1975 -12.5451c -0.9711,-0.3249 -1.9422,-0.6498 -2.9133 -0.9748c 0.3919,-1.1714 0.7839,-2.3428 1.1758 -3.5141c -16.6905,-5.5846 -33.3810,-11.1691 -50.0715 -16.7537c -0.3919,1.1714 -0.7839,2.3428 -1.1758 3.5141c -0.9711,-0.3249 -1.9422,-0.6498 -2.9133 -0.9748c -1.3992,4.1817 -2.7984,8.3634 -4.1975 12.5451c 0.9711,0.3249 1.9422,0.6498 2.9133 0.9748c -2.0023,5.9843 -4.0047,11.9687 -6.0070 17.9530c -0.9711,-0.3249 -1.9422,-0.6498 -2.9133 -0.9748c -1.3992,4.1817 -2.7984,8.3634 -4.1975 12.5451ZM 367.9327,1015.9724 c 0.9711,0.3249 1.9422,0.6498 2.9133 0.9748c -0.3919,1.1714 -0.7839,2.3428 -1.1758 3.5141c 16.6905,5.5846 33.3810,11.1691 50.0715 16.7537c 0.3919,-1.1714 0.7839,-2.3428 1.1758 -3.5141c 0.9711,0.3249 1.9422,0.6498 2.9133 0.9748c 1.3992,-4.1817 2.7984,-8.3634 4.1975 -12.5451c -0.9711,-0.3249 -1.9422,-0.6498 -2.9133 -0.9748c 2.0023,-5.9843 4.0047,-11.9686 6.0070 -17.9530c 0.9711,0.3249 1.9422,0.6498 2.9133 0.9748c 1.3992,-4.1817 2.7983,-8.3634 4.1975 -12.5451c -0.9711,-0.3249 -1.9422,-0.6498 -2.9133 -0.9748c 0.3919,-1.1714 0.7839,-2.3428 1.1758 -3.5141c -16.6905,-5.5846 -33.3810,-11.1691 -50.0715 -16.7537c -0.3919,1.1714 -0.7839,2.3428 -1.1758 3.5141c -0.9711,-0.3249 -1.9422,-0.6498 -2.9133 -0.9748c -1.3992,4.1817 -2.7983,8.3634 -4.1975 12.5451c 0.9711,0.3249 1.9422,0.6498 2.9133 0.9748c -2.0023,5.9843 -4.0047,11.9687 -6.0070 17.9530c -0.9711,-0.3249 -1.9422,-0.6498 -2.9133 -0.9748c -1.3992,4.1817 -2.7984,8.3634 -4.1975 12.5451ZM 383.3812,743.4861 c 0.9711,0.3249 1.9422,0.6498 2.9133 0.9748c -0.3919,1.1714 -0.7839,2.3428 -1.1758 3.5141c 16.6905,5.5846 33.3810,11.1691 50.0715 16.7537c 0.3919,-1.1714 0.7839,-2.3428 1.1758 -3.5141c 0.9711,0.3249 1.9422,0.6498 2.9133 0.9748c 1.3992,-4.1817 2.7984,-8.3634 4.1975 -12.5451c -0.9711,-0.3249 -1.9422,-0.6498 -2.9133 -0.9748c 2.0023,-5.9843 4.0047,-11.9687 6.0070 -17.9530c 0.9711,0.3249 1.9422,0.6498 2.9133 0.9748c 1.3992,-4.1817 2.7984,-8.3634 4.1975 -12.5451c -0.9711,-0.3249 -1.9422,-0.6498 -2.9133 -0.9748c 0.3919,-1.1714 0.7839,-2.3428 1.1758 -3.5141c -16.6905,-5.5846 -33.3810,-11.1691 -50.0715 -16.7537c -0.3919,1.1714 -0.7839,2.3428 -1.1758 3.5141c -0.9711,-0.3249 -1.9422,-0.6498 -2.9132 -0.9748c -1.3992,4.1817 -2.7984,8.3634 -4.1975 12.5451c 0.9711,0.3249 1.9422,0.6498 2.9133 0.9748c -2.0023,5.9843 -4.0047,11.9687 -6.0070 17.9530c -0.9711,-0.3249 -1.9422,-0.6498 -2.9133 -0.9748c -1.3992,4.1817 -2.7984,8.3634 -4.1975 12.5451ZM 390.7187,947.8723 c 0.9711,0.3249 1.9422,0.6498 2.9133 0.9748c -0.3919,1.1714 -0.7839,2.3428 -1.1758 3.5141c 16.6905,5.5846 33.3810,11.1691 50.0715 16.7537c 0.3919,-1.1714 0.7839,-2.3428 1.1758 -3.5141c 0.9711,0.3249 1.9422,0.6498 2.9133 0.9748c 1.3992,-4.1817 2.7984,-8.3634 4.1975 -12.5451c -0.9711,-0.3249 -1.9422,-0.6498 -2.9133 -0.9748c 2.0023,-5.9843 4.0047,-11.9687 6.0070 -17.9530c 0.9711,0.3249 1.9422,0.6498 2.9133 0.9748c 1.3992,-4.1817 2.7984,-8.3634 4.1975 -12.5451c -0.9711,-0.3249 -1.9422,-0.6498 -2.9133 -0.9748c 0.3919,-1.1714 0.7839,-2.3428 1.1758 -3.5141c -16.6905,-5.5846 -33.3810,-11.1691 -50.0715 -16.7537c -0.3919,1.1714 -0.7839,2.3428 -1.1758 3.5141c -0.9711,-0.3249 -1.9422,-0.6498 -2.9133 -0.9748c -1.3992,4.1817 -2.7984,8.3634 -4.1975 12.5451c 0.9711,0.3249 1.9422,0.6498 2.9133 0.9748c -2.0023,5.9843 -4.0047,11.9687 -6.0070 17.9530c -0.9711,-0.3249 -1.9422,-0.6498 -2.9133 -0.9748c -1.3992,4.1817 -2.7984,8.3634 -4.1975 12.5451ZM 428.1276,1065.4054 c 0.0000,3.1311 2.5382,5.6693 5.6693 5.6693c 3.1311,-0.0000 5.6693,-2.5382 5.6693 -5.6693c 0.0000,-3.1311 -2.5382,-5.6693 -5.6693 -5.6693c -3.1311,-0.0000 -5.6693,2.5382 -5.6693 5.6693ZM 491.7841,681.2446 c 0.0000,3.1311 2.5382,5.6693 5.6693 5.6693c 3.1311,-0.0000 5.6693,-2.5382 5.6693 -5.6693c 0.0000,-3.1311 -2.5382,-5.6693 -5.6693 -5.6693c -3.1311,-0.0000 -5.6693,2.5382 -5.6693 5.6693ZM 548.4770,681.2446 c 0.0000,3.1311 2.5382,5.6693 5.6693 5.6693c 3.1311,-0.0000 5.6693,-2.5382 5.6693 -5.6693c 0.0000,-3.1311 -2.5382,-5.6693 -5.6693 -5.6693c -3.1311,-0.0000 -5.6693,2.5382 -5.6693 5.6693ZM 590.5810,923.5323 c 1.3992,4.1817 2.7984,8.3634 4.1975 12.5451c 0.9711,-0.3249 1.9422,-0.6498 2.9133 -0.9748c 2.0023,5.9843 4.0047,11.9686 6.0070 17.9530c -0.9711,0.3249 -1.9422,0.6498 -2.9133 0.9748c 1.3992,4.1817 2.7983,8.3634 4.1975 12.5451c 0.9711,-0.3249 1.9422,-0.6498 2.9133 -0.9748c 0.3919,1.1714 0.7839,2.3428 1.1758 3.5141c 16.6905,-5.5846 33.3810,-11.1691 50.0715 -16.7537c -0.3919,-1.1714 -0.7839,-2.3428 -1.1758 -3.5141c 0.9711,-0.3249 1.9422,-0.6498 2.9133 -0.9748c -1.3992,-4.1817 -2.7984,-8.3634 -4.1975 -12.5451c -0.9711,0.3249 -1.9422,0.6498 -2.9133 0.9748c -2.0023,-5.9843 -4.0047,-11.9687 -6.0070 -17.9530c 0.9711,-0.3249 1.9422,-0.6498 2.9133 -0.9748c -1.3992,-4.1817 -2.7983,-8.3634 -4.1975 -12.5451c -0.9711,0.3249 -1.9422,0.6498 -2.9133 0.9748c -0.3919,-1.1714 -0.7839,-2.3428 -1.1758 -3.5141c -16.6905,5.5846 -33.3810,11.1691 -50.0715 16.7537c 0.3919,1.1714 0.7839,2.3428 1.1758 3.5141c -0.9711,0.3249 -1.9422,0.6498 -2.9133 0.9748ZM 597.9185,719.1461 c 1.3992,4.1817 2.7984,8.3634 4.1975 12.5451c 0.9711,-0.3249 1.9422,-0.6498 2.9133 -0.9748c 2.0023,5.9843 4.0047,11.9687 6.0070 17.9530c -0.9711,0.3249 -1.9422,0.6498 -2.9133 0.9748c 1.3992,4.1817 2.7984,8.3634 4.1975 12.5451c 0.9711,-0.3249 1.9422,-0.6498 2.9133 -0.9748c 0.3919,1.1714 0.7839,2.3428 1.1758 3.5141c 16.6905,-5.5846 33.3810,-11.1691 50.0715 -16.7537c -0.3919,-1.1714 -0.7839,-2.3428 -1.1758 -3.5141c 0.9711,-0.3249 1.9422,-0.6498 2.9133 -0.9748c -1.3992,-4.1817 -2.7984,-8.3634 -4.1975 -12.5451c -0.9711,0.3249 -1.9422,0.6498 -2.9133 0.9748c -2.0023,-5.9843 -4.0047,-11.9686 -6.0070 -17.9530c 0.9711,-0.3249 1.9422,-0.6498 2.9133 -0.9748c -1.3992,-4.1817 -2.7984,-8.3634 -4.1975 -12.5451c -0.9711,0.3249 -1.9422,0.6498 -2.9132 0.9748c -0.3919,-1.1714 -0.7839,-2.3428 -1.1758 -3.5141c -16.6905,5.5846 -33.3810,11.1691 -50.0715 16.7537c 0.3919,1.1714 0.7839,2.3428 1.1758 3.5141c -0.9711,0.3249 -1.9422,0.6498 -2.9133 0.9748ZM 612.1336,1065.4054 c 0.0000,3.1311 2.5382,5.6693 5.6693 5.6693c 3.1311,-0.0000 5.6693,-2.5382 5.6693 -5.6693c 0.0000,-3.1311 -2.5382,-5.6693 -5.6693 -5.6693c -3.1311,-0.0000 -5.6693,2.5382 -5.6693 5.6693ZM 613.3670,991.6324 c 1.3992,4.1817 2.7984,8.3634 4.1975 12.5451c 0.9711,-0.3249 1.9422,-0.6498 2.9133 -0.9748c 2.0023,5.9843 4.0047,11.9687 6.0070 17.9530c -0.9711,0.3249 -1.9422,0.6498 -2.9133 0.9748c 1.3992,4.1817 2.7984,8.3634 4.1975 12.5451c 0.9711,-0.3249 1.9422,-0.6498 2.9133 -0.9748c 0.3919,1.1714 0.7839,2.3428 1.1758 3.5141c 16.6905,-5.5846 33.3810,-11.1691 50.0715 -16.7537c -0.3919,-1.1714 -0.7839,-2.3428 -1.1758 -3.5141c 0.9711,-0.3249 1.9422,-0.6498 2.9133 -0.9748c -1.3992,-4.1817 -2.7983,-8.3634 -4.1975 -12.5451c -0.9711,0.3249 -1.9422,0.6498 -2.9133 0.9748c -2.0023,-5.9843 -4.0047,-11.9687 -6.0070 -17.9530c 0.9711,-0.3249 1.9422,-0.6498 2.9133 -0.9748c -1.3992,-4.1817 -2.7984,-8.3634 -4.1975 -12.5451c -0.9711,0.3249 -1.9422,0.6498 -2.9133 0.9748c -0.3919,-1.1714 -0.7839,-2.3428 -1.1758 -3.5141c -16.6905,5.5846 -33.3810,11.1691 -50.0715 16.7537c 0.3919,1.1714 0.7839,2.3428 1.1758 3.5141c -0.9711,0.3249 -1.9422,0.6498 -2.9133 0.9748ZM 620.7045,787.2462 c 1.3992,4.1817 2.7984,8.3634 4.1975 12.5451c 0.9711,-0.3249 1.9422,-0.6498 2.9133 -0.9748c 2.0023,5.9843 4.0047,11.9687 6.0070 17.9530c -0.9711,0.3249 -1.9422,0.6498 -2.9133 0.9748c 1.3992,4.1817 2.7984,8.3634 4.1975 12.5451c 0.9711,-0.3249 1.9422,-0.6498 2.9133 -0.9748c 0.3919,1.1714 0.7839,2.3428 1.1758 3.5141c 16.6905,-5.5846 33.3810,-11.1691 50.0715 -16.7537c -0.3919,-1.1714 -0.7839,-2.3428 -1.1758 -3.5141c 0.9711,-0.3249 1.9422,-0.6498 2.9133 -0.9748c -1.3992,-4.1817 -2.7983,-8.3634 -4.1975 -12.5451c -0.9711,0.3249 -1.9422,0.6498 -2.9133 0.9748c -2.0023,-5.9843 -4.0047,-11.9686 -6.0070 -17.9530c 0.9711,-0.3249 1.9422,-0.6498 2.9133 -0.9748c -1.3992,-4.1817 -2.7984,-8.3634 -4.1975 -12.5451c -0.9711,0.3249 -1.9422,0.6498 -2.9133 0.9748c -0.3919,-1.1714 -0.7839,-2.3428 -1.1758 -3.5141c -16.6905,5.5846 -33.3810,11.1691 -50.0715 16.7537c 0.3919,1.1714 0.7839,2.3428 1.1758 3.5141c -0.9711,0.3249 -1.9422,0.6498 -2.9133 0.9748ZM 643.4904,855.3463 c 1.3992,4.1817 2.7984,8.3634 4.1975 12.5451c 0.9711,-0.3249 1.9422,-0.6498 2.9133 -0.9748c 2.0023,5.9843 4.0047,11.9687 6.0070 17.9530c -0.9711,0.3249 -1.9422,0.6498 -2.9133 0.9748c 1.3992,4.1817 2.7984,8.3634 4.1975 12.5451c 0.9711,-0.3249 1.9422,-0.6498 2.9133 -0.9748c 0.3919,1.1714 0.7839,2.3428 1.1758 3.5141c 16.6905,-5.5846 33.3810,-11.1691 50.0715 -16.7537c -0.3919,-1.1714 -0.7839,-2.3428 -1.1758 -3.5141c 0.9711,-0.3249 1.9422,-0.6498 2.9133 -0.9748c -1.3992,-4.1817 -2.7984,-8.3634 -4.1975 -12.5451c -0.9711,0.3249 -1.9422,0.6498 -2.9133 0.9748c -2.0023,-5.9843 -4.0047,-11.9686 -6.0070 -17.9530c 0.9711,-0.3249 1.9422,-0.6498 2.9132 -0.9748c -1.3992,-4.1817 -2.7983,-8.3634 -4.1975 -12.5451c -0.9711,0.3249 -1.9422,0.6498 -2.9133 0.9748c -0.3919,-1.1714 -0.7839,-2.3428 -1.1758 -3.5141c -16.6905,5.5846 -33.3810,11.1691 -50.0715 16.7537c 0.3919,1.1714 0.7839,2.3428 1.1758 3.5141c -0.9711,0.3249 -1.9422,0.6498 -2.9133 0.9748ZM 660.0223,678.4390 c 1.3992,4.1817 2.7984,8.3634 4.1975 12.5451c 0.9711,-0.3249 1.9422,-0.6498 2.9133 -0.9748c 2.0023,5.9843 4.0047,11.9687 6.0070 17.9530c -0.9711,0.3249 -1.9422,0.6498 -2.9133 0.9748c 1.3992,4.1817 2.7984,8.3634 4.1975 12.5451c 0.9711,-0.3249 1.9422,-0.6498 2.9133 -0.9748c 0.3919,1.1714 0.7839,2.3428 1.1758 3.5141c 16.6905,-5.5846 33.3810,-11.1691 50.0715 -16.7537c -0.3919,-1.1714 -0.7839,-2.3428 -1.1758 -3.5141c 0.9711,-0.3249 1.9422,-0.6498 2.9133 -0.9748c -1.3992,-4.1817 -2.7984,-8.3634 -4.1975 -12.5451c -0.9711,0.3249 -1.9422,0.6498 -2.9133 0.9748c -2.0023,-5.9843 -4.0047,-11.9687 -6.0070 -17.9530c 0.9711,-0.3249 1.9422,-0.6498 2.9133 -0.9748c -1.3992,-4.1817 -2.7984,-8.3634 -4.1975 -12.5451c -0.9711,0.3249 -1.9422,0.6498 -2.9133 0.9748c -0.3919,-1.1714 -0.7839,-2.3428 -1.1758 -3.5141c -16.6905,5.5846 -33.3810,11.1691 -50.0715 16.7537c 0.3919,1.1714 0.7839,2.3428 1.1758 3.5141c -0.9711,0.3249 -1.9422,0.6498 -2.9133 0.9748ZM 666.2764,923.4464 c 1.3992,4.1817 2.7984,8.3634 4.1975 12.5451c 0.9711,-0.3249 1.9422,-0.6498 2.9133 -0.9748c 2.0023,5.9843 4.0047,11.9687 6.0070 17.9530c -0.9711,0.3249 -1.9422,0.6498 -2.9133 0.9748c 1.3992,4.1817 2.7984,8.3634 4.1975 12.5451c 0.9711,-0.3249 1.9422,-0.6498 2.9133 -0.9748c 0.3919,1.1714 0.7839,2.3428 1.1758 3.5141c 16.6905,-5.5846 33.3810,-11.1691 50.0715 -16.7537c -0.3919,-1.1714 -0.7839,-2.3428 -1.1758 -3.5141c 0.9711,-0.3249 1.9422,-0.6498 2.9133 -0.9748c -1.3992,-4.1817 -2.7984,-8.3634 -4.1975 -12.5451c -0.9711,0.3249 -1.9422,0.6498 -2.9133 0.9748c -2.0023,-5.9843 -4.0047,-11.9687 -6.0070 -17.9530c 0.9711,-0.3249 1.9422,-0.6498 2.9133 -0.9748c -1.3992,-4.1817 -2.7984,-8.3634 -4.1975 -12.5451c -0.9711,0.3249 -1.9422,0.6498 -2.9132 0.9748c -0.3919,-1.1714 -0.7839,-2.3428 -1.1758 -3.5141c -16.6905,5.5846 -33.3810,11.1691 -50.0715 16.7537c 0.3919,1.1714 0.7839,2.3428 1.1758 3.5141c -0.9711,0.3249 -1.9422,0.6498 -2.9133 0.9748ZM 682.8082,746.5391 c 1.3992,4.1817 2.7984,8.3634 4.1975 12.5451c 0.9711,-0.3249 1.9422,-0.6498 2.9133 -0.9748c 2.0023,5.9843 4.0047,11.9686 6.0070 17.9530c -0.9711,0.3249 -1.9422,0.6498 -2.9133 0.9748c 1.3992,4.1817 2.7984,8.3634 4.1975 12.5451c 0.9711,-0.3249 1.9422,-0.6498 2.9133 -0.9748c 0.3919,1.1714 0.7839,2.3428 1.1758 3.5141c 16.6905,-5.5846 33.3810,-11.1691 50.0715 -16.7537c -0.3919,-1.1714 -0.7839,-2.3428 -1.1758 -3.5141c 0.9711,-0.3249 1.9422,-0.6498 2.9133 -0.9748c -1.3992,-4.1817 -2.7984,-8.3634 -4.1975 -12.5451c -0.9711,0.3249 -1.9422,0.6498 -2.9133 0.9748c -2.0023,-5.9843 -4.0047,-11.9687 -6.0070 -17.9530c 0.9711,-0.3249 1.9422,-0.6498 2.9133 -0.9748c -1.3992,-4.1817 -2.7983,-8.3634 -4.1975 -12.5451c -0.9711,0.3249 -1.9422,0.6498 -2.9133 0.9748c -0.3919,-1.1714 -0.7839,-2.3428 -1.1758 -3.5141c -16.6905,5.5846 -33.3810,11.1691 -50.0715 16.7537c 0.3919,1.1714 0.7839,2.3428 1.1758 3.5141c -0.9711,0.3249 -1.9422,0.6498 -2.9133 0.9748ZM 705.5942,814.6392 c 1.3992,4.1817 2.7983,8.3634 4.1975 12.5451c 0.9711,-0.3249 1.9422,-0.6498 2.9133 -0.9748c 2.0023,5.9843 4.0047,11.9687 6.0070 17.9530c -0.9711,0.3249 -1.9422,0.6498 -2.9133 0.9748c 1.3992,4.1817 2.7984,8.3634 4.1975 12.5451c 0.9711,-0.3249 1.9422,-0.6498 2.9133 -0.9748c 0.3919,1.1714 0.7839,2.3428 1.1758 3.5141c 16.6905,-5.5846 33.3810,-11.1691 50.0715 -16.7537c -0.3919,-1.1714 -0.7839,-2.3428 -1.1758 -3.5141c 0.9711,-0.3249 1.9422,-0.6498 2.9132 -0.9748c -1.3992,-4.1817 -2.7983,-8.3634 -4.1975 -12.5451c -0.9711,0.3249 -1.9422,0.6498 -2.9133 0.9748c -2.0023,-5.9843 -4.0047,-11.9686 -6.0070 -17.9530c 0.9711,-0.3249 1.9422,-0.6498 2.9133 -0.9748c -1.3992,-4.1817 -2.7984,-8.3634 -4.1975 -12.5451c -0.9711,0.3249 -1.9422,0.6498 -2.9132 0.9748c -0.3919,-1.1714 -0.7839,-2.3428 -1.1758 -3.5141c -16.6905,5.5846 -33.3810,11.1691 -50.0715 16.7537c 0.3919,1.1714 0.7839,2.3428 1.1758 3.5141c -0.9711,0.3249 -1.9422,0.6498 -2.9133 0.9748ZM 720.9268,634.1478 c 1.3992,4.1817 2.7984,8.3634 4.1975 12.5451c 0.9711,-0.3249 1.9422,-0.6498 2.9133 -0.9748c 2.0023,5.9843 4.0047,11.9687 6.0070 17.9530c -0.9711,0.3249 -1.9422,0.6498 -2.9133 0.9748c 1.3992,4.1817 2.7983,8.3634 4.1975 12.5451c 0.9711,-0.3249 1.9422,-0.6498 2.9133 -0.9748c 0.3919,1.1714 0.7839,2.3428 1.1758 3.5141c 16.6905,-5.5846 33.3810,-11.1691 50.0715 -16.7537c -0.3919,-1.1714 -0.7839,-2.3428 -1.1758 -3.5141c 0.9711,-0.3249 1.9422,-0.6498 2.9133 -0.9748c -1.3992,-4.1817 -2.7984,-8.3634 -4.1975 -12.5451c -0.9711,0.3249 -1.9422,0.6498 -2.9133 0.9748c -2.0023,-5.9843 -4.0047,-11.9687 -6.0070 -17.9530c 0.9711,-0.3249 1.9422,-0.6498 2.9133 -0.9748c -1.3992,-4.1817 -2.7984,-8.3634 -4.1975 -12.5451c -0.9711,0.3249 -1.9422,0.6498 -2.9133 0.9748c -0.3919,-1.1714 -0.7839,-2.3428 -1.1758 -3.5141c -16.6905,5.5846 -33.3810,11.1691 -50.0715 16.7537c 0.3919,1.1714 0.7839,2.3428 1.1758 3.5141c -0.9711,0.3249 -1.9422,0.6498 -2.9133 0.9748ZM 728.3802,882.7393 c 1.3992,4.1817 2.7984,8.3634 4.1975 12.5451c 0.9711,-0.3249 1.9422,-0.6498 2.9133 -0.9748c 2.0023,5.9843 4.0047,11.9687 6.0070 17.9530c -0.9711,0.3249 -1.9422,0.6498 -2.9133 0.9748c 1.3992,4.1817 2.7984,8.3634 4.1975 12.5451c 0.9711,-0.3249 1.9422,-0.6498 2.9133 -0.9748c 0.3919,1.1714 0.7839,2.3428 1.1758 3.5141c 16.6905,-5.5846 33.3810,-11.1691 50.0715 -16.7537c -0.3919,-1.1714 -0.7839,-2.3428 -1.1758 -3.5141c 0.9711,-0.3249 1.9422,-0.6498 2.9133 -0.9748c -1.3992,-4.1817 -2.7984,-8.3634 -4.1975 -12.5451c -0.9711,0.3249 -1.9422,0.6498 -2.9132 0.9748c -2.0023,-5.9843 -4.0047,-11.9686 -6.0070 -17.9530c 0.9711,-0.3249 1.9422,-0.6498 2.9133 -0.9748c -1.3992,-4.1817 -2.7984,-8.3634 -4.1975 -12.5451c -0.9711,0.3249 -1.9422,0.6498 -2.9133 0.9748c -0.3919,-1.1714 -0.7839,-2.3428 -1.1758 -3.5141c -16.6905,5.5846 -33.3810,11.1691 -50.0715 16.7537c 0.3919,1.1714 0.7839,2.3428 1.1758 3.5141c -0.9711,0.3249 -1.9422,0.6498 -2.9133 0.9748ZM 743.7128,702.2479 c 1.3992,4.1817 2.7983,8.3634 4.1975 12.5451c 0.9711,-0.3249 1.9422,-0.6498 2.9133 -0.9748c 2.0023,5.9843 4.0047,11.9687 6.0070 17.9530c -0.9711,0.3249 -1.9422,0.6498 -2.9133 0.9748c 1.3992,4.1817 2.7984,8.3634 4.1975 12.5451c 0.9711,-0.3249 1.9422,-0.6498 2.9133 -0.9748c 0.3919,1.1714 0.7839,2.3428 1.1758 3.5141c 16.6905,-5.5846 33.3810,-11.1691 50.0715 -16.7537c -0.3919,-1.1714 -0.7839,-2.3428 -1.1758 -3.5141c 0.9711,-0.3249 1.9422,-0.6498 2.9133 -0.9748c -1.3992,-4.1817 -2.7984,-8.3634 -4.1975 -12.5451c -0.9711,0.3249 -1.9422,0.6498 -2.9133 0.9748c -2.0023,-5.9843 -4.0047,-11.9686 -6.0070 -17.9530c 0.9711,-0.3249 1.9422,-0.6498 2.9133 -0.9748c -1.3992,-4.1817 -2.7984,-8.3634 -4.1975 -12.5451c -0.9711,0.3249 -1.9422,0.6498 -2.9133 0.9748c -0.3919,-1.1714 -0.7839,-2.3428 -1.1758 -3.5141c -16.6905,5.5846 -33.3810,11.1691 -50.0715 16.7537c 0.3919,1.1714 0.7839,2.3428 1.1758 3.5141c -0.9711,0.3249 -1.9422,0.6498 -2.9133 0.9748ZM 766.4987,770.3480 c 1.3992,4.1817 2.7984,8.3634 4.1975 12.5451c 0.9711,-0.3249 1.9422,-0.6498 2.9133 -0.9748c 2.0023,5.9843 4.0047,11.9686 6.0070 17.9530c -0.9711,0.3249 -1.9422,0.6498 -2.9133 0.9748c 1.3992,4.1817 2.7984,8.3634 4.1975 12.5451c 0.9711,-0.3249 1.9422,-0.6498 2.9133 -0.9748c 0.3919,1.1714 0.7839,2.3428 1.1758 3.5141c 16.6905,-5.5846 33.3810,-11.1691 50.0715 -16.7537c -0.3919,-1.1714 -0.7839,-2.3428 -1.1758 -3.5141c 0.9711,-0.3249 1.9422,-0.6498 2.9133 -0.9748c -1.3992,-4.1817 -2.7984,-8.3634 -4.1975 -12.5451c -0.9711,0.3249 -1.9422,0.6498 -2.9133 0.9748c -2.0023,-5.9843 -4.0047,-11.9686 -6.0070 -17.9530c 0.9711,-0.3249 1.9422,-0.6498 2.9133 -0.9748c -1.3992,-4.1817 -2.7984,-8.3634 -4.1975 -12.5451c -0.9711,0.3249 -1.9422,0.6498 -2.9133 0.9748c -0.3919,-1.1714 -0.7839,-2.3428 -1.1758 -3.5141c -16.6905,5.5846 -33.3810,11.1691 -50.0715 16.7537c 0.3919,1.1714 0.7839,2.3428 1.1758 3.5141c -0.9711,0.3249 -1.9422,0.6498 -2.9133 0.9748ZM 789.2847,838.4480 c 1.3992,4.1817 2.7984,8.3634 4.1975 12.5451c 0.9711,-0.3249 1.9422,-0.6498 2.9133 -0.9748c 2.0023,5.9843 4.0047,11.9686 6.0070 17.9530c -0.9711,0.3249 -1.9422,0.6498 -2.9133 0.9748c 1.3992,4.1817 2.7984,8.3634 4.1975 12.5451c 0.9711,-0.3249 1.9422,-0.6498 2.9133 -0.9748c 0.3919,1.1714 0.7839,2.3428 1.1758 3.5141c 16.6905,-5.5846 33.3810,-11.1691 50.0715 -16.7537c -0.3919,-1.1714 -0.7839,-2.3428 -1.1758 -3.5141c 0.9711,-0.3249 1.9422,-0.6498 2.9133 -0.9748c -1.3992,-4.1817 -2.7984,-8.3634 -4.1975 -12.5451c -0.9711,0.3249 -1.9422,0.6498 -2.9133 0.9748c -2.0023,-5.9843 -4.0047,-11.9687 -6.0070 -17.9530c 0.9711,-0.3249 1.9422,-0.6498 2.9133 -0.9748c -1.3992,-4.1817 -2.7984,-8.3634 -4.1975 -12.5451c -0.9711,0.3249 -1.9422,0.6498 -2.9133 0.9748c -0.3919,-1.1714 -0.7839,-2.3428 -1.1758 -3.5141c -16.6905,5.5846 -33.3810,11.1691 -50.0715 16.7537c 0.3919,1.1714 0.7839,2.3428 1.1758 3.5141c -0.9711,0.3249 -1.9422,0.6498 -2.9133 0.9748ZM 795.0232,629.2829 c 1.3992,4.1817 2.7984,8.3634 4.1975 12.5451c 0.9711,-0.3249 1.9422,-0.6498 2.9133 -0.9748c 2.0023,5.9843 4.0047,11.9686 6.0070 17.9530c -0.9711,0.3249 -1.9422,0.6498 -2.9133 0.9748c 1.3992,4.1817 2.7984,8.3634 4.1975 12.5451c 0.9711,-0.3249 1.9422,-0.6498 2.9133 -0.9748c 0.3919,1.1714 0.7839,2.3428 1.1758 3.5141c 16.6905,-5.5846 33.3810,-11.1691 50.0715 -16.7537c -0.3919,-1.1714 -0.7839,-2.3428 -1.1758 -3.5141c 0.9711,-0.3249 1.9422,-0.6498 2.9133 -0.9748c -1.3992,-4.1817 -2.7984,-8.3634 -4.1975 -12.5451c -0.9711,0.3249 -1.9422,0.6498 -2.9133 0.9748c -2.0023,-5.9843 -4.0047,-11.9687 -6.0070 -17.9530c 0.9711,-0.3249 1.9422,-0.6498 2.9133 -0.9748c -1.3992,-4.1817 -2.7984,-8.3634 -4.1975 -12.5451c -0.9711,0.3249 -1.9422,0.6498 -2.9133 0.9748c -0.3919,-1.1714 -0.7839,-2.3428 -1.1758 -3.5141c -16.6905,5.5846 -33.3810,11.1691 -50.0715 16.7537c 0.3919,1.1714 0.7839,2.3428 1.1758 3.5141c -0.9711,0.3249 -1.9422,0.6498 -2.9133 0.9748ZM 817.8092,697.3830 c 1.3992,4.1817 2.7984,8.3634 4.1975 12.5451c 0.9711,-0.3249 1.9422,-0.6498 2.9133 -0.9748c 2.0023,5.9843 4.0047,11.9687 6.0070 17.9530c -0.9711,0.3249 -1.9422,0.6498 -2.9133 0.9748c 1.3992,4.1817 2.7984,8.3634 4.1975 12.5451c 0.9711,-0.3249 1.9422,-0.6498 2.9133 -0.9748c 0.3919,1.1714 0.7839,2.3428 1.1758 3.5141c 16.6905,-5.5846 33.3810,-11.1691 50.0715 -16.7537c -0.3919,-1.1714 -0.7839,-2.3428 -1.1758 -3.5141c 0.9711,-0.3249 1.9422,-0.6498 2.9133 -0.9748c -1.3992,-4.1817 -2.7984,-8.3634 -4.1975 -12.5451c -0.9711,0.3249 -1.9422,0.6498 -2.9133 0.9748c -2.0023,-5.9843 -4.0047,-11.9686 -6.0070 -17.9530c 0.9711,-0.3249 1.9422,-0.6498 2.9133 -0.9748c -1.3992,-4.1817 -2.7983,-8.3634 -4.1975 -12.5451c -0.9711,0.3249 -1.9422,0.6498 -2.9133 0.9748c -0.3919,-1.1714 -0.7839,-2.3428 -1.1758 -3.5141c -16.6905,5.5846 -33.3810,11.1691 -50.0715 16.7537c 0.3919,1.1714 0.7839,2.3428 1.1758 3.5141c -0.9711,0.3249 -1.9422,0.6498 -2.9133 0.9748ZM 840.5951,765.4831 c 1.3992,4.1817 2.7984,8.3634 4.1975 12.5451c 0.9711,-0.3249 1.9422,-0.6498 2.9133 -0.9748c 2.0023,5.9843 4.0047,11.9687 6.0070 17.9530c -0.9711,0.3249 -1.9422,0.6498 -2.9133 0.9748c 1.3992,4.1817 2.7984,8.3634 4.1975 12.5451c 0.9711,-0.3249 1.9422,-0.6498 2.9133 -0.9748c 0.3919,1.1714 0.7839,2.3428 1.1758 3.5141c 16.6905,-5.5846 33.3810,-11.1691 50.0715 -16.7537c -0.3919,-1.1714 -0.7839,-2.3428 -1.1758 -3.5141c 0.9711,-0.3249 1.9422,-0.6498 2.9133 -0.9748c -1.3992,-4.1817 -2.7983,-8.3634 -4.1975 -12.5451c -0.9711,0.3249 -1.9422,0.6498 -2.9133 0.9748c -2.0023,-5.9843 -4.0047,-11.9687 -6.0070 -17.9530c 0.9711,-0.3249 1.9422,-0.6498 2.9133 -0.9748c -1.3992,-4.1817 -2.7984,-8.3634 -4.1975 -12.5451c -0.9711,0.3249 -1.9422,0.6498 -2.9133 0.9748c -0.3919,-1.1714 -0.7839,-2.3428 -1.1758 -3.5141c -16.6905,5.5846 -33.3810,11.1691 -50.0715 16.7537c 0.3919,1.1714 0.7839,2.3428 1.1758 3.5141c -0.9711,0.3249 -1.9422,0.6498 -2.9133 0.9748ZM 863.3811,833.5831 c 1.3992,4.1817 2.7984,8.3634 4.1975 12.5451c 0.9711,-0.3249 1.9422,-0.6498 2.9133 -0.9748c 2.0023,5.9843 4.0047,11.9687 6.0070 17.9530c -0.9711,0.3249 -1.9422,0.6498 -2.9133 0.9748c 1.3992,4.1817 2.7984,8.3634 4.1975 12.5451c 0.9711,-0.3249 1.9422,-0.6498 2.9133 -0.9748c 0.3919,1.1714 0.7839,2.3428 1.1758 3.5141c 16.6905,-5.5846 33.3810,-11.1691 50.0715 -16.7537c -0.3919,-1.1714 -0.7839,-2.3428 -1.1758 -3.5141c 0.9711,-0.3249 1.9422,-0.6498 2.9133 -0.9748c -1.3992,-4.1817 -2.7984,-8.3634 -4.1975 -12.5451c -0.9711,0.3249 -1.9422,0.6498 -2.9133 0.9748c -2.0023,-5.9843 -4.0047,-11.9687 -6.0070 -17.9530c 0.9711,-0.3249 1.9422,-0.6498 2.9133 -0.9748c -1.3992,-4.1817 -2.7984,-8.3634 -4.1975 -12.5451c -0.9711,0.3249 -1.9422,0.6498 -2.9133 0.9748c -0.3919,-1.1714 -0.7839,-2.3428 -1.1758 -3.5141c -16.6905,5.5846 -33.3810,11.1691 -50.0715 16.7537c 0.3919,1.1714 0.7839,2.3428 1.1758 3.5141c -0.9711,0.3249 -1.9422,0.6498 -2.9133 0.9748ZM 866.7211,617.2495 c 1.3992,4.1817 2.7984,8.3634 4.1975 12.5451c 0.9711,-0.3249 1.9422,-0.6498 2.9133 -0.9748c 2.0023,5.9843 4.0047,11.9686 6.0070 17.9530c -0.9711,0.3249 -1.9422,0.6498 -2.9133 0.9748c 1.3992,4.1817 2.7984,8.3634 4.1975 12.5451c 0.9711,-0.3249 1.9422,-0.6498 2.9133 -0.9748c 0.3919,1.1714 0.7839,2.3428 1.1758 3.5141c 16.6905,-5.5846 33.3810,-11.1691 50.0715 -16.7537c -0.3919,-1.1714 -0.7839,-2.3428 -1.1758 -3.5141c 0.9711,-0.3249 1.9422,-0.6498 2.9133 -0.9748c -1.3992,-4.1817 -2.7983,-8.3634 -4.1975 -12.5451c -0.9711,0.3249 -1.9422,0.6498 -2.9133 0.9748c -2.0023,-5.9843 -4.0047,-11.9687 -6.0070 -17.9530c 0.9711,-0.3249 1.9422,-0.6498 2.9133 -0.9748c -1.3992,-4.1817 -2.7984,-8.3634 -4.1975 -12.5451c -0.9711,0.3249 -1.9422,0.6498 -2.9133 0.9748c -0.3919,-1.1714 -0.7839,-2.3428 -1.1758 -3.5141c -16.6905,5.5846 -33.3810,11.1691 -50.0715 16.7537c 0.3919,1.1714 0.7839,2.3428 1.1758 3.5141c -0.9711,0.3249 -1.9422,0.6498 -2.9133 0.9748ZM 889.5070,685.3496 c 1.3992,4.1817 2.7984,8.3634 4.1975 12.5451c 0.9711,-0.3249 1.9422,-0.6498 2.9133 -0.9748c 2.0023,5.9843 4.0047,11.9686 6.0070 17.9530c -0.9711,0.3249 -1.9422,0.6498 -2.9133 0.9748c 1.3992,4.1817 2.7984,8.3634 4.1975 12.5451c 0.9711,-0.3249 1.9422,-0.6498 2.9133 -0.9748c 0.3919,1.1714 0.7839,2.3428 1.1758 3.5141c 16.6905,-5.5846 33.3810,-11.1691 50.0715 -16.7537c -0.3919,-1.1714 -0.7839,-2.3428 -1.1758 -3.5141c 0.9711,-0.3249 1.9422,-0.6498 2.9133 -0.9748c -1.3992,-4.1817 -2.7984,-8.3634 -4.1975 -12.5451c -0.9711,0.3249 -1.9422,0.6498 -2.9133 0.9748c -2.0023,-5.9843 -4.0047,-11.9687 -6.0070 -17.9530c 0.9711,-0.3249 1.9422,-0.6498 2.9132 -0.9748c -1.3992,-4.1817 -2.7983,-8.3634 -4.1975 -12.5451c -0.9711,0.3249 -1.9422,0.6498 -2.9133 0.9748c -0.3919,-1.1714 -0.7839,-2.3428 -1.1758 -3.5141c -16.6905,5.5846 -33.3810,11.1691 -50.0715 16.7537c 0.3919,1.1714 0.7839,2.3428 1.1758 3.5141c -0.9711,0.3249 -1.9422,0.6498 -2.9133 0.9748ZM 912.2930,753.4497 c 1.3992,4.1817 2.7983,8.3634 4.1975 12.5451c 0.9711,-0.3249 1.9422,-0.6498 2.9133 -0.9748c 2.0023,5.9843 4.0047,11.9686 6.0070 17.9530c -0.9711,0.3249 -1.9422,0.6498 -2.9133 0.9748c 1.3992,4.1817 2.7984,8.3634 4.1975 12.5451c 0.9711,-0.3249 1.9422,-0.6498 2.9133 -0.9748c 0.3919,1.1714 0.7839,2.3428 1.1758 3.5141c 16.6905,-5.5846 33.3810,-11.1691 50.0715 -16.7537c -0.3919,-1.1714 -0.7839,-2.3428 -1.1758 -3.5141c 0.9711,-0.3249 1.9422,-0.6498 2.9133 -0.9748c -1.3992,-4.1817 -2.7984,-8.3634 -4.1975 -12.5451c -0.9711,0.3249 -1.9422,0.6498 -2.9133 0.9748c -2.0023,-5.9843 -4.0047,-11.9687 -6.0070 -17.9530c 0.9711,-0.3249 1.9422,-0.6498 2.9133 -0.9748c -1.3992,-4.1817 -2.7984,-8.3634 -4.1975 -12.5451c -0.9711,0.3249 -1.9422,0.6498 -2.9132 0.9748c -0.3919,-1.1714 -0.7839,-2.3428 -1.1758 -3.5141c -16.6905,5.5846 -33.3810,11.1691 -50.0715 16.7537c 0.3919,1.1714 0.7839,2.3428 1.1758 3.5141c -0.9711,0.3249 -1.9422,0.6498 -2.9133 0.9748ZM 926.9159,567.8166 c 0.0000,3.1311 2.5382,5.6693 5.6693 5.6693c 3.1311,-0.0000 5.6693,-2.5382 5.6693 -5.6693c 0.0000,-3.1311 -2.5382,-5.6693 -5.6693 -5.6693c -3.1311,-0.0000 -5.6693,2.5382 -5.6693 5.6693ZM 935.0790,821.5498 c 1.3992,4.1817 2.7984,8.3634 4.1975 12.5451c 0.9711,-0.3249 1.9422,-0.6498 2.9133 -0.9748c 2.0023,5.9843 4.0047,11.9686 6.0070 17.9530c -0.9711,0.3249 -1.9422,0.6498 -2.9133 0.9748c 1.3992,4.1817 2.7984,8.3634 4.1975 12.5451c 0.9711,-0.3249 1.9422,-0.6498 2.9133 -0.9748c 0.3919,1.1714 0.7839,2.3428 1.1758 3.5141c 16.6905,-5.5846 33.3810,-11.1691 50.0715 -16.7537c -0.3919,-1.1714 -0.7839,-2.3428 -1.1758 -3.5141c 0.9711,-0.3249 1.9422,-0.6498 2.9133 -0.9748c -1.3992,-4.1817 -2.7983,-8.3634 -4.1975 -12.5451c -0.9711,0.3249 -1.9422,0.6498 -2.9133 0.9748c -2.0023,-5.9843 -4.0047,-11.9686 -6.0070 -17.9530c 0.9711,-0.3249 1.9422,-0.6498 2.9133 -0.9748c -1.3992,-4.1817 -2.7984,-8.3634 -4.1975 -12.5451c -0.9711,0.3249 -1.9422,0.6498 -2.9133 0.9748c -0.3919,-1.1714 -0.7839,-2.3428 -1.1758 -3.5141c -16.6905,5.5846 -33.3810,11.1691 -50.0715 16.7537c 0.3919,1.1714 0.7839,2.3428 1.1758 3.5141c -0.9711,0.3249 -1.9422,0.6498 -2.9133 0.9748ZM 1026.1627,864.4339 c 0.0000,3.1311 2.5382,5.6693 5.6693 5.6693c 3.1311,-0.0000 5.6693,-2.5382 5.6693 -5.6693c 0.0000,-3.1311 -2.5382,-5.6693 -5.6693 -5.6693c -3.1311,-0.0000 -5.6693,2.5382 -5.6693 5.6693Z"/></g><g stroke-linejoin="miter" stroke-opacity="1.0" fill-opacity="0.5" stroke="rgb(0,0,0)" stroke-width="0.37795275590551186" fill="rgb(0,0,255)" stroke-linecap="butt" stroke-miterlimit="10.0"><path d="M 481.5016,289.7633 h -3.0465 l -0.6321,-2.1983 l -0.7522,-1.8955 l -0.8566,-1.5947 l -0.9453,-1.2961 l -1.0184,-0.9995 l -1.0758,-0.7051 l -1.1176,-0.4127 l -1.1436,-0.1223 l -1.1541,0.1659 l -1.1488,0.4521 l -1.1279,0.7362 l -1.0914,1.0182 l -1.0392,1.2982 l -0.9713,1.5761 l -0.8877,1.8518 l -0.7885,2.1256 h -3.0465 l 8.9944,-27.0453 h 3.8547 l 8.9944,27.0453 ZM 504.7957,271.8575 h -2.4247 l -0.4789,-1.1290 l -0.3086,-1.1480 l -0.5877,-2.1495 l -0.5198,-0.8997 l -0.8310,-0.7152 l -1.2625,-0.4798 l -1.8143,-0.1934 v 22.1958 h 4.3521 v 2.4247 h -11.5849 v -2.4247 h 4.3728 v -22.1958 l -1.8376,0.1564 l -1.1777,0.3931 l -0.6889,0.6090 l -0.3712,0.8041 l -0.4731,2.1105 l -0.4440,1.2648 l -0.8103,1.3768 h -2.4248 v -9.1394 h 19.3151 v 9.1394 ZM 527.3231,289.7633 h -3.6060 l -7.8960,-11.5849 h -4.2070 v 11.5849 h -2.8392 v -14.0089 l 2.8392,-0.0007 h 6.0722 l 2.6631,-0.3109 l 1.0906,-0.3886 l 0.9300,-0.5440 l 0.7525,-0.7279 l 0.5375,-0.9196 l 0.3225,-1.1113 l 0.1075,-1.3031 h 0.0000 l -0.1075,-1.2849 l -0.3225,-1.0984 l -0.5375,-0.9119 l -0.7525,-0.7254 l -0.9300,-0.5621 l -1.0906,-0.4015 l -2.6631,-0.3212 h -6.0722 l -2.8392,-0.0003 v -2.4244 h 8.9115 l 2.1022,0.1218 l 1.8509,0.3653 l 1.5997,0.6088 l 1.3484,0.8523 l 1.0699,1.0842 l 0.7642,1.3251 l 0.4585,1.5660 l 0.1528,1.8069 l -0.1503,1.6165 l -0.4507,1.4507 l -0.7098,1.2487 l -0.9274,1.0518 l -1.1398,0.8601 l -1.3471,0.6735 l -1.4973,0.4663 l -1.6320,0.2383 l 8.1447,11.7092 ZM 548.5863,289.7633 h -17.2841 v -27.0453 h 17.2841 v 2.4247 h -14.4449 v 9.6783 h 10.6523 v 2.4247 h -10.6523 v 10.0928 h 14.4449 v 2.4247 ZM 569.8494,279.8881 l -0.1295,2.1916 l -0.3886,1.9740 l -0.6425,1.7305 l -0.9326,1.4611 l -1.2020,1.1606 l -1.4921,0.8704 l -1.7875,0.5440 l -2.0880,0.1813 l -2.1035,-0.1813 l -1.7927,-0.5440 l -1.4766,-0.8704 l -1.1968,-1.1606 l -0.9067,-1.4662 l -0.6476,-1.7460 l -0.3730,-1.9895 l -0.1243,-2.1968 v -17.3670 h 2.8392 v 17.4084 l 0.2072,2.5905 l 0.3264,1.3056 l 0.5233,1.1813 l 0.7616,1.0259 l 0.9999,0.8393 l 1.3108,0.5596 l 1.6528,0.1865 l 1.6528,-0.1865 l 1.3108,-0.5596 l 1.0258,-0.8393 l 0.7564,-1.0259 l 0.5336,-1.1813 l 0.3161,-1.3056 l 0.2072,-2.5905 v -17.4084 h 2.8600 v 17.4084 ZM 591.9416,282.7066 l -0.1762,1.6217 l -0.5285,1.4663 l -0.8238,1.2745 l -1.0621,1.0880 l -1.2694,0.8808 l -1.4455,0.6528 l -1.5647,0.4041 l -1.6269,0.1347 l -2.1864,-0.2124 l -1.9999,-0.6373 l -1.4102,-0.9698 l -0.5256,-0.4111 l -0.3142,0.3726 l -0.7758,1.3814 h -2.4040 v -8.2276 h 2.4040 l 0.1606,1.3315 l 0.4818,1.2175 l 0.7305,1.0621 l 0.9067,0.9067 l 1.0673,0.7409 l 1.2124,0.5647 l 1.3160,0.3420 l 1.3367,0.1140 l 2.2175,-0.3316 l 1.7823,-0.9740 l 0.6839,-0.7098 l 0.5181,-0.8445 l 0.3419,-0.9740 l 0.1140,-1.0984 l -0.1451,-1.2124 l -0.4352,-1.0259 l -0.6632,-0.8652 l -0.8704,-0.7305 l -2.1553,-1.1191 l -2.4455,-0.9326 l -2.9429,-1.0777 l -1.3937,-0.6528 l -1.2383,-0.7979 l -1.0518,-0.9637 l -0.8342,-1.1502 l -0.5440,-1.4144 l -0.1813,-1.7149 l 0.1762,-1.5647 l 0.5285,-1.3782 l 0.8134,-1.2020 l 1.0310,-0.9948 l 1.2331,-0.7823 l 1.4196,-0.5648 l 1.5336,-0.3575 l 1.5751,-0.1192 l 1.8309,0.1694 l 1.3454,0.2965 l 1.6048,0.6559 l 0.7737,0.2090 l 0.6832,-0.8748 h 2.5076 v 7.7302 h -2.5076 l -0.1295,-1.1813 l -0.3886,-1.0984 l -0.5907,-0.9948 l -0.7772,-0.8290 l -0.9326,-0.6839 l -1.0569,-0.5181 l -1.1502,-0.3419 l -1.2124,-0.1140 l -2.0932,0.2487 l -1.7408,0.8083 l -0.6735,0.6217 l -0.5285,0.7875 l -0.3264,0.9533 l -0.1088,1.1191 l 0.1295,0.9792 l 0.3886,0.8238 l 1.4300,1.3264 l 2.0517,1.0362 l 2.4040,0.9326 l 3.0465,1.2020 l 2.7149,1.5958 l 1.0932,1.0414 l 0.8756,1.2590 l 0.5751,1.4973 l 0.1917,1.7978 ZM 3.9685,309.1752 c -0.0000,12.6088 8.0272,24.4520 20.6432 28.6732c 23.5602,7.8832 47.1205,15.7663 70.6807 23.6494c 8.9890,3.0077 18.4663,1.4974 25.9261 -3.2816c 15.2573,5.1050 30.5145,10.2100 45.7718 15.3150c 11.9542,3.9998 24.7719,0.0093 32.5597 -9.0331c 3.7304,1.2482 7.4608,2.4963 11.1911 3.7445c -0.0495,0.7083 -0.0738,1.4159 -0.0738 2.1221c 0.0000,12.6088 8.0272,24.4520 20.6431 28.6732c 13.8396,4.6307 27.6792,9.2613 41.5187 13.8920c 0.7445,11.8996 8.5910,22.8019 20.5850 26.8150c 11.7801,3.9416 23.5602,7.8831 35.3403 11.8247c 1.3620,0.4557 2.7240,0.9114 4.0861 1.3672c -1.8655,5.5755 -3.7310,11.1509 -5.5965 16.7264c -1.0674,3.1902 -1.5635,6.4061 -1.5635 9.5946c 0.0000,12.6088 8.0272,24.4520 20.6431 28.6732c 23.5603,7.8832 47.1205,15.7663 70.6807 23.6495c 15.7495,5.2697 32.9981,-3.3301 38.2678 -19.0796c 6.7958,-20.3104 13.5915,-40.6208 20.3873 -60.9312c 16.7135,-0.0000 33.4269,-0.0000 50.1404 0.0000c 16.7135,-0.0000 33.4269,-0.0000 50.1404 0.0000c 6.7958,20.3104 13.5915,40.6208 20.3873 60.9312c 5.2697,15.7495 22.5183,24.3493 38.2678 19.0796c 23.5602,-7.8832 47.1205,-15.7663 70.6807 -23.6495c 12.6159,-4.2212 20.6431,-16.0644 20.6431 -28.6732c 0.0000,-3.1884 -0.4961,-6.4043 -1.5635 -9.5946c -1.8655,-5.5754 -3.7310,-11.1509 -5.5965 -16.7264c 1.3620,-0.4557 2.7240,-0.9114 4.0861 -1.3672c 11.7801,-3.9416 23.5602,-7.8831 35.3403 -11.8247c 11.9940,-4.0132 19.8406,-14.9155 20.5850 -26.8150c 13.8396,-4.6307 27.6792,-9.2613 41.5187 -13.8920c 12.6159,-4.2212 20.6431,-16.0644 20.6431 -28.6732c 0.0000,-0.7062 -0.0243,-1.4138 -0.0738 -2.1221c 3.7304,-1.2482 7.4607,-2.4963 11.1911 -3.7445c 7.7878,9.0424 20.6055,13.0329 32.5597 9.0331c 15.2573,-5.1050 30.5145,-10.2100 45.7718 -15.3150c 7.4598,4.7790 16.9371,6.2894 25.9261 3.2816c 23.5603,-7.8831 47.1205,-15.7663 70.6807 -23.6494c 12.6160,-4.2212 20.6432,-16.0644 20.6432 -28.6732c 0.0000,-3.1884 -0.4961,-6.4043 -1.5635 -9.5946c -7.5953,-22.7000 -15.1907,-45.4000 -22.7860 -68.1001c -0.2878,-0.8603 -0.5757,-1.7206 -0.8635 -2.5808c -7.3075,-21.8398 -14.6150,-43.6796 -21.9225 -65.5194c -0.2878,-0.8602 -0.5756,-1.7204 -0.8635 -2.5807c -7.3075,-21.8398 -14.6150,-43.6796 -21.9225 -65.5194c -0.2878,-0.8602 -0.5756,-1.7204 -0.8635 -2.5806c -7.5953,-22.7000 -15.1906,-45.4000 -22.7860 -68.1001c -5.2697,-15.7495 -22.5182,-24.3494 -38.2678 -19.0796c -15.2573,5.1050 -30.5145,10.2100 -45.7718 15.3150c -7.4598,-4.7790 -16.9371,-6.2894 -25.9261 -3.2816c -13.8456,4.6327 -27.6911,9.2653 -41.5367 13.8980c -7.7878,-9.0424 -20.6055,-13.0329 -32.5597 -9.0331c -23.5602,7.8831 -47.1205,15.7663 -70.6807 23.6494c -12.6159,4.2212 -20.6431,16.0646 -20.6431 28.6732c 0.0000,0.7062 0.0243,1.4137 0.0738 2.1221c -13.4451,4.4987 -26.8902,8.9973 -40.3352 13.4960c -11.9940,4.0131 -19.8406,14.9155 -20.5850 26.8150c -2.0594,0.6891 -4.1189,1.3782 -6.1783 2.0672c -28.6166,-0.0000 -57.2332,-0.0000 -85.8498 0.0000c -28.6166,-0.0000 -57.2332,-0.0000 -85.8498 0.0000c -2.0594,-0.6891 -4.1189,-1.3782 -6.1783 -2.0672c -0.7444,-11.8996 -8.5911,-22.8019 -20.5850 -26.8150c -13.4451,-4.4987 -26.8901,-8.9973 -40.3352 -13.4960c 0.0495,-0.7083 0.0738,-1.4159 0.0738 -2.1221c 0.0000,-12.6086 -8.0273,-24.4520 -20.6431 -28.6732c -23.5602,-7.8831 -47.1205,-15.7663 -70.6807 -23.6494c -11.9542,-3.9998 -24.7719,-0.0093 -32.5597 9.0331c -13.8456,-4.6327 -27.6911,-9.2653 -41.5367 -13.8980c -8.9890,-3.0077 -18.4663,-1.4974 -25.9261 3.2816c -15.2573,-5.1050 -30.5145,-10.2100 -45.7718 -15.3150c -15.7496,-5.2697 -32.9981,3.3301 -38.2678 19.0796c -7.5953,22.7000 -15.1906,45.4000 -22.7860 68.1001c -0.2878,0.8602 -0.5756,1.7204 -0.8635 2.5806c -7.3075,21.8398 -14.6150,43.6796 -21.9225 65.5194c -0.2878,0.8602 -0.5756,1.7204 -0.8635 2.5807c -7.3075,21.8398 -14.6150,43.6796 -21.9225 65.5194c -0.2878,0.8603 -0.5757,1.7205 -0.8635 2.5808c -7.5953,22.7000 -15.1906,45.4000 -22.7860 68.1001c -1.0674,3.1903 -1.5635,6.4062 -1.5635 9.5946ZM 14.0985,316.3731 c 0.0000,-3.1311 2.5382,-5.6693 5.6693 -5.6693c 3.1311,-0.0000 5.6693,2.5382 5.6693 5.6693c 0.0000,3.1311 -2.5382,5.6693 -5.6693 5.6693c -3.1311,-0.0000 -5.6693,-2.5382 -5.6693 -5.6693ZM 30.4251,309.1752 c -0.0000,-0.3976 0.0632,-0.8019 0.1963 -1.1998c 7.5953,-22.7000 15.1907,-45.4001 22.7860 -68.1001c 0.2878,-0.8602 0.5756,-1.7204 0.8635 -2.5806c 7.3075,-21.8398 14.6150,-43.6796 21.9225 -65.5195c 0.2878,-0.8602 0.5756,-1.7204 0.8635 -2.5806c 7.3075,-21.8398 14.6150,-43.6796 21.9225 -65.5195c 0.2878,-0.8602 0.5756,-1.7204 0.8635 -2.5806c 7.5953,-22.7000 15.1906,-45.4001 22.7860 -68.1001c 0.6623,-1.9795 2.8040,-3.0473 4.7835 -2.3849c 21.5053,7.1956 43.0106,14.3911 64.5159 21.5867c 0.7995,-2.3895 1.5990,-4.7789 2.3985 -7.1684c 0.6623,-1.9795 2.8040,-3.0473 4.7835 -2.3850c 21.5053,7.1956 43.0106,14.3911 64.5159 21.5867c 1.5990,-4.7790 3.1980,-9.5579 4.7971 -14.3369c 0.6623,-1.9795 2.8040,-3.0473 4.7835 -2.3850c 23.5603,7.8832 47.1205,15.7663 70.6807 23.6494c 1.5817,0.5292 2.5813,2.0029 2.5813 3.5837c 0.0000,0.3976 -0.0632,0.8019 -0.1963 1.1998c -1.9988,5.9737 -3.9975,11.9474 -5.9963 17.9211c 21.5053,7.1956 43.0106,14.3911 64.5159 21.5867c 1.5817,0.5292 2.5813,2.0029 2.5813 3.5837c 0.0000,0.3976 -0.0632,0.8019 -0.1963 1.1998c -1.5990,4.7790 -3.1980,9.5579 -4.7971 14.3369c 21.5053,7.1956 43.0106,14.3911 64.5159 21.5867c 1.5817,0.5292 2.5813,2.0029 2.5813 3.5837c 0.0000,0.3976 -0.0632,0.8019 -0.1963 1.1998c -7.5948,22.6984 -15.1895,45.3968 -22.7843 68.0951c -0.0005,0.0016 -0.0011,0.0033 -0.0017 0.0049c -0.2878,0.8602 -0.5756,1.7204 -0.8635 2.5806c -7.3075,21.8398 -14.6150,43.6796 -21.9225 65.5195c -0.2878,0.8602 -0.5756,1.7204 -0.8635 2.5806c -4.3760,13.0784 -8.7520,26.1568 -13.1279 39.2352c 21.5053,7.1956 43.0106,14.3911 64.5159 21.5867c 1.5817,0.5292 2.5813,2.0029 2.5813 3.5837c 0.0000,0.3976 -0.0632,0.8019 -0.1963 1.1998c -7.5950,22.6989 -15.1899,45.3979 -22.7849 68.0968c -0.0004,0.0011 -0.0007,0.0022 -0.0011 0.0033c -0.2878,0.8602 -0.5756,1.7204 -0.8635 2.5806c -7.5953,22.7000 -15.1906,45.4001 -22.7860 68.1001c -0.6623,1.9795 -2.8040,3.0473 -4.7835 2.3849c -23.5602,-7.8831 -47.1205,-15.7663 -70.6807 -23.6494c -1.5817,-0.5292 -2.5813,-2.0029 -2.5813 -3.5837c 0.0000,-0.3976 0.0632,-0.8019 0.1963 -1.1998c 4.6638,-13.9386 9.3276,-27.8772 13.9914 -41.8159c -21.5053,-7.1956 -43.0106,-14.3911 -64.5159 -21.5867c -1.5817,-0.5292 -2.5813,-2.0029 -2.5813 -3.5837c 0.0000,-0.3976 0.0632,-0.8020 0.1963 -1.1998c 1.5990,-4.7789 3.1980,-9.5579 4.7970 -14.3369c -21.5053,-7.1956 -43.0106,-14.3911 -64.5159 -21.5867c -1.5817,-0.5292 -2.5813,-2.0029 -2.5813 -3.5837c 0.0000,-0.3976 0.0632,-0.8019 0.1963 -1.1998c 1.9988,-5.9737 3.9975,-11.9474 5.9963 -17.9211c -19.4503,-6.5080 -38.9007,-13.0160 -58.3510 -19.5240c -1.5990,4.7790 -3.1980,9.5579 -4.7970 14.3369c -0.6623,1.9795 -2.8040,3.0473 -4.7835 2.3849c -21.5053,-7.1956 -43.0106,-14.3911 -64.5159 -21.5867c -0.7995,2.3895 -1.5990,4.7789 -2.3985 7.1684c -0.6623,1.9795 -2.8040,3.0473 -4.7835 2.3850c -23.5602,-7.8831 -47.1205,-15.7663 -70.6807 -23.6494c -1.5817,-0.5292 -2.5813,-2.0029 -2.5813 -3.5837ZM 113.3452,19.7558 c 0.0000,-3.1311 2.5382,-5.6693 5.6693 -5.6693c 3.1311,-0.0000 5.6693,2.5382 5.6693 5.6693c 0.0000,3.1311 -2.5382,5.6693 -5.6693 5.6693c -3.1311,-0.0000 -5.6693,-2.5382 -5.6693 -5.6693ZM 428.1276,517.3446 c 0.0000,-3.1311 2.5382,-5.6693 5.6693 -5.6693c 3.1311,-0.0000 5.6693,2.5382 5.6693 5.6693c 0.0000,3.1311 -2.5382,5.6693 -5.6693 5.6693c -3.1311,-0.0000 -5.6693,-2.5382 -5.6693 -5.6693ZM 491.7841,133.1838 c 0.0000,-3.1311 2.5382,-5.6693 5.6693 -5.6693c 3.1311,-0.0000 5.6693,2.5382 5.6693 5.6693c 0.0000,3.1311 -2.5382,5.6693 -5.6693 5.6693c -3.1311,-0.0000 -5.6693,-2.5382 -5.6693 -5.6693ZM 548.4770,133.1838 c 0.0000,-3.1311 2.5382,-5.6693 5.6693 -5.6693c 3.1311,-0.0000 5.6693,2.5382 5.6693 5.6693c 0.0000,3.1311 -2.5382,5.6693 -5.6693 5.6693c -3.1311,-0.0000 -5.6693,-2.5382 -5.6693 -5.6693ZM 574.7854,364.1254 c 0.0000,-1.5808 0.9996,-3.0545 2.5813 -3.5837c 21.5053,-7.1956 43.0106,-14.3911 64.5159 -21.5867c -4.3760,-13.0784 -8.7520,-26.1568 -13.1279 -39.2352c -0.2878,-0.8602 -0.5756,-1.7204 -0.8635 -2.5806c -7.3075,-21.8398 -14.6150,-43.6796 -21.9225 -65.5195c -0.2878,-0.8602 -0.5756,-1.7204 -0.8635 -2.5806c -0.0006,-0.0016 -0.0011,-0.0033 -0.0017 -0.0049c -7.5948,-22.6984 -15.1896,-45.3968 -22.7843 -68.0951c -0.1331,-0.3978 -0.1963,-0.8022 -0.1963 -1.1998c 0.0000,-1.5808 0.9996,-3.0545 2.5813 -3.5837c 21.5053,-7.1956 43.0106,-14.3911 64.5159 -21.5867c -1.5990,-4.7790 -3.1980,-9.5579 -4.7971 -14.3369c -0.1331,-0.3978 -0.1963,-0.8022 -0.1963 -1.1998c 0.0000,-1.5808 0.9996,-3.0545 2.5813 -3.5837c 21.5053,-7.1956 43.0106,-14.3911 64.5159 -21.5867c -1.9988,-5.9737 -3.9975,-11.9474 -5.9963 -17.9211c -0.1331,-0.3978 -0.1963,-0.8022 -0.1963 -1.1998c 0.0000,-1.5808 0.9996,-3.0545 2.5813 -3.5837c 23.5602,-7.8831 47.1205,-15.7663 70.6807 -23.6494c 1.9795,-0.6623 4.1211,0.4055 4.7835 2.3850c 1.5990,4.7790 3.1980,9.5579 4.7971 14.3369c 21.5053,-7.1956 43.0106,-14.3911 64.5159 -21.5867c 1.9795,-0.6623 4.1211,0.4055 4.7835 2.3850c 0.7995,2.3895 1.5990,4.7789 2.3985 7.1684c 21.5053,-7.1956 43.0106,-14.3911 64.5159 -21.5867c 1.9795,-0.6623 4.1211,0.4055 4.7835 2.3849c 7.5953,22.7000 15.1906,45.4001 22.7860 68.1001c 0.2878,0.8602 0.5756,1.7204 0.8635 2.5806c 7.3075,21.8398 14.6150,43.6796 21.9225 65.5195c 0.2878,0.8602 0.5756,1.7204 0.8635 2.5806c 7.3075,21.8398 14.6150,43.6796 21.9225 65.5195c 0.2878,0.8602 0.5757,1.7204 0.8635 2.5806c 7.5953,22.7000 15.1907,45.4001 22.7860 68.1001c 0.1331,0.3978 0.1963,0.8022 0.1963 1.1998c 0.0000,1.5808 -0.9996,3.0545 -2.5813 3.5837c -23.5602,7.8832 -47.1205,15.7663 -70.6807 23.6494c -1.9795,0.6623 -4.1211,-0.4055 -4.7835 -2.3850c -0.7995,-2.3895 -1.5990,-4.7789 -2.3985 -7.1684c -21.5053,7.1956 -43.0106,14.3911 -64.5159 21.5867c -1.9795,0.6623 -4.1211,-0.4054 -4.7835 -2.3849c -1.5990,-4.7790 -3.1980,-9.5579 -4.7970 -14.3369c -19.4504,6.5080 -38.9007,13.0160 -58.3510 19.5240c 1.9988,5.9737 3.9975,11.9474 5.9963 17.9211c 0.1331,0.3978 0.1963,0.8022 0.1963 1.1998c 0.0000,1.5808 -0.9996,3.0545 -2.5813 3.5837c -21.5053,7.1956 -43.0106,14.3911 -64.5159 21.5867c 1.5990,4.7789 3.1980,9.5579 4.7970 14.3369c 0.1331,0.3978 0.1963,0.8022 0.1963 1.1998c 0.0000,1.5808 -0.9996,3.0545 -2.5813 3.5837c -21.5053,7.1956 -43.0106,14.3911 -64.5159 21.5867c 4.6638,13.9386 9.3276,27.8772 13.9914 41.8159c 0.1331,0.3978 0.1963,0.8022 0.1963 1.1998c 0.0000,1.5808 -0.9996,3.0545 -2.5813 3.5837c -23.5602,7.8832 -47.1205,15.7663 -70.6807 23.6494c -1.9795,0.6623 -4.1211,-0.4054 -4.7835 -2.3849c -7.5953,-22.7000 -15.1906,-45.4001 -22.7860 -68.1001c -0.2878,-0.8602 -0.5756,-1.7204 -0.8635 -2.5806c -0.0004,-0.0011 -0.0007,-0.0022 -0.0011 -0.0033c -7.5950,-22.6990 -15.1899,-45.3979 -22.7849 -68.0968c -0.1331,-0.3978 -0.1963,-0.8022 -0.1963 -1.1998ZM 612.1336,517.3446 c 0.0000,-3.1311 2.5382,-5.6693 5.6693 -5.6693c 3.1311,-0.0000 5.6693,2.5382 5.6693 5.6693c 0.0000,3.1311 -2.5382,5.6693 -5.6693 5.6693c -3.1311,-0.0000 -5.6693,-2.5382 -5.6693 -5.6693ZM 926.9159,19.7558 c 0.0000,-3.1311 2.5382,-5.6693 5.6693 -5.6693c 3.1311,-0.0000 5.6693,2.5382 5.6693 5.6693c 0.0000,3.1311 -2.5382,5.6693 -5.6693 5.6693c -3.1311,-0.0000 -5.6693,-2.5382 -5.6693 -5.6693ZM 1026.1627,316.3731 c 0.0000,-3.1311 2.5382,-5.6693 5.6693 -5.6693c 3.1311,-0.0000 5.6693,2.5382 5.6693 5.6693c 0.0000,3.1311 -2.5382,5.6693 -5.6693 5.6693c -3.1311,-0.0000 -5.6693,-2.5382 -5.6693 -5.6693Z"/></g></svg>