<?xml version="1.0" encoding="UTF-8"?>
<!DOCTYPE svg PUBLIC "-//W3C//DTD SVG 1.1//EN"
    "http://www.w3.org/Graphics/SVG/1.1/DTD/svg11.dtd"><svg xmlns="http://www.w3.org/2000/svg" height="1755.8760" stroke-opacity="1" viewBox="0 0 1025 1756" font-size="1" width="1024.7250" xmlns:xlink="http://www.w3.org/1999/xlink" stroke="rgb(0,0,0)" version="1.1"><defs></defs><defs><linearGradient x2="67.2563" y1="0.0000" gradientUnits="userSpaceOnUse" spreadMethod="pad" gradientTransform="matrix(3.7795,-0.0000,0.0000,-3.7795,512.3625,1703.2295)" id="gradient0" y2="0.0000" x1="-67.2563"><stop stop-opacity="1.0000" offset="0.0000" stop-color="rgb(128,128,128)"/><stop stop-opacity="1.0000" offset="0.5000" stop-color="rgb(255,255,255)"/><stop stop-opacity="1.0000" offset="1.0000" stop-color="rgb(128,128,128)"/></linearGradient></defs><g stroke-linejoin="miter" stroke-opacity="1.0" fill-opacity="1" stroke="rgb(0,0,0)" stroke-width="0.37795275590551186" fill="url(#gradient0)" stroke-linecap="butt" stroke-miterlimit="10.0"><path d="M 3.9685,1653.5312 c 0.0000,-0.9437 0.0819,-1.8997 0.2512 -2.8595c 18.1054,-102.6806 36.2107,-205.3612 54.3161 -308.0418c 1.3801,-7.8274 8.1810,-13.5340 16.1291 -13.5340c 145.8992,-0.0000 291.7985,-0.0000 437.6977 -0.0000c 145.8992,-0.0000 291.7985,-0.0000 437.6977 -0.0000c 7.9481,-0.0000 14.7490,5.7066 16.1291 13.5340c 18.1054,102.6806 36.2107,205.3612 54.3161 308.0418c 0.1693,0.9599 0.2512,1.9158 0.2512 2.8595c 0.0000,7.4591 -5.1143,14.1502 -12.6116 15.9229c -115.6172,27.3380 -231.2344,54.6759 -346.8516 82.0139c -1.2349,0.2920 -2.4996,0.4395 -3.7687 0.4395c -48.3874,-0.0000 -96.7748,-0.0000 -145.1622 -0.0000c -48.3874,-0.0000 -96.7748,-0.0000 -145.1622 -0.0000c -1.2690,-0.0000 -2.5337,-0.1475 -3.7687 -0.4395c -115.6172,-27.3379 -231.2344,-54.6759 -346.8516 -82.0139c -7.4973,-1.7728 -12.6116,-8.4638 -12.6116 -15.9229ZM 18.4590,1649.7362 c 0.0000,3.1311 2.5383,5.6693 5.6693 5.6693c 3.1311,-0.0000 5.6693,-2.5383 5.6693 -5.6693c 0.0000,-3.1311 -2.5383,-5.6693 -5.6693 -5.6693c -3.1310,-0.0000 -5.6693,2.5382 -5.6693 5.6693ZM 72.7751,1349.2534 c 0.0000,3.1311 2.5382,5.6693 5.6693 5.6693c 3.1311,-0.0000 5.6693,-2.5382 5.6693 -5.6693c 0.0000,-3.1311 -2.5382,-5.6693 -5.6693 -5.6693c -3.1311,-0.0000 -5.6693,2.5382 -5.6693 5.6693ZM 361.5310,1731.7500 c 0.0000,3.1311 2.5382,5.6693 5.6693 5.6693c 3.1311,-0.0000 5.6693,-2.5383 5.6693 -5.6693c 0.0000,-3.1311 -2.5382,-5.6693 -5.6693 -5.6693c -3.1311,-0.0000 -5.6693,2.5382 -5.6693 5.6693ZM 431.1027,1349.2534 c 0.0000,3.1311 2.5382,5.6693 5.6693 5.6693c 3.1311,-0.0000 5.6693,-2.5382 5.6693 -5.6693c 0.0000,-3.1311 -2.5382,-5.6693 -5.6693 -5.6693c -3.1311,-0.0000 -5.6693,2.5382 -5.6693 5.6693ZM 582.2838,1349.2534 c 0.0000,3.1311 2.5382,5.6693 5.6693 5.6693c 3.1311,-0.0000 5.6693,-2.5382 5.6693 -5.6693c 0.0000,-3.1311 -2.5382,-5.6693 -5.6693 -5.6693c -3.1311,-0.0000 -5.6693,2.5382 -5.6693 5.6693ZM 651.8554,1731.7500 c 0.0000,3.1311 2.5382,5.6693 5.6693 5.6693c 3.1311,-0.0000 5.6693,-2.5383 5.6693 -5.6693c 0.0000,-3.1311 -2.5382,-5.6693 -5.6693 -5.6693c -3.1311,-0.0000 -5.6693,2.5382 -5.6693 5.6693ZM 940.6114,1349.2534 c 0.0000,3.1311 2.5382,5.6693 5.6693 5.6693c 3.1311,-0.0000 5.6693,-2.5382 5.6693 -5.6693c 0.0000,-3.1311 -2.5382,-5.6693 -5.6693 -5.6693c -3.1311,-0.0000 -5.6693,2.5382 -5.6693 5.6693ZM 994.9274,1649.7362 c 0.0000,3.1311 2.5383,5.6693 5.6693 5.6693c 3.1310,-0.0000 5.6693,-2.5383 5.6693 -5.6693c 0.0000,-3.1311 -2.5383,-5.6693 -5.6693 -5.6693c -3.1311,-0.0000 -5.6693,2.5382 -5.6693 5.6693Z"/></g><g stroke-linejoin="miter" stroke-opacity="1.0" fill-opacity="0.5" stroke="rgb(0,0,0)" stroke-width="0.37795275590551186" fill="rgb(255,255,0)" stroke-linecap="butt" stroke-miterlimit="10.0"><path d="M 3.9685,1211.8221 c 0.0000,-0.9437 0.0819,-1.8997 0.2512 -2.8595c 18.1054,-102.6806 36.2107,-205.3612 54.3161 -308.0418c 1.3801,-7.8274 8.1810,-13.5340 16.1291 -13.5340c 145.8992,-0.0000 291.7985,-0.0000 437.6977 -0.0000c 145.8992,-0.0000 291.7985,-0.0000 437.6977 -0.0000c 7.9481,-0.0000 14.7490,5.7066 16.1291 13.5340c 18.1054,102.6806 36.2107,205.3612 54.3161 308.0418c 0.1693,0.9599 0.2512,1.9158 0.2512 2.8595c 0.0000,7.4591 -5.1143,14.1502 -12.6116 15.9229c -115.6172,27.3380 -231.2344,54.6759 -346.8516 82.0139c -1.2349,0.2920 -2.4996,0.4395 -3.7687 0.4395c -48.3874,-0.0000 -96.7748,-0.0000 -145.1622 -0.0000c -48.3874,-0.0000 -96.7748,-0.0000 -145.1622 -0.0000c -1.2690,-0.0000 -2.5337,-0.1475 -3.7687 -0.4395c -115.6172,-27.3379 -231.2344,-54.6759 -346.8516 -82.0139c -7.4973,-1.7728 -12.6116,-8.4638 -12.6116 -15.9229ZM 18.4590,1208.0270 c 0.0000,3.1311 2.5383,5.6693 5.6693 5.6693c 3.1311,-0.0000 5.6693,-2.5383 5.6693 -5.6693c 0.0000,-3.1311 -2.5383,-5.6693 -5.6693 -5.6693c -3.1310,-0.0000 -5.6693,2.5382 -5.6693 5.6693ZM 27.8429,1192.0721 c 7.2559,1.6826 12.6634,8.1873 12.6634 15.9549c 0.0000,2.1302 -0.4067,4.1655 -1.1467 6.0323c 104.3178,23.0484 208.6356,46.0968 312.9534 69.1451c 2.5904,-5.6316 8.2822,-9.5415 14.8873 -9.5415c 8.1884,-0.0000 14.9733,6.0092 16.1853 13.8583c 42.9923,-0.0000 85.9846,-0.0000 128.9769 -0.0000c 42.9923,-0.0000 85.9846,-0.0000 128.9769 -0.0000c 1.2120,-7.8490 7.9969,-13.8583 16.1853 -13.8583c 6.6051,-0.0000 12.2969,3.9100 14.8873 9.5415c 104.3178,-23.0483 208.6356,-46.0967 312.9534 -69.1451c -0.7400,-1.8668 -1.1467,-3.9021 -1.1467 -6.0323c 0.0000,-7.7676 5.4075,-14.2723 12.6634 -15.9549c -16.8670,-89.3833 -33.7339,-178.7665 -50.6009 -268.1499c -0.0002,-0.0000 -0.0004,-0.0000 -0.0006 -0.0000c -8.1884,-0.0000 -14.9733,-6.0092 -16.1853 -13.8583c -108.6523,-0.0000 -217.3046,-0.0000 -325.9569 -0.0000c -1.2120,7.8490 -7.9969,13.8583 -16.1853 13.8583c -8.1884,-0.0000 -14.9733,-6.0092 -16.1853 -13.8583c -19.8017,-0.0000 -39.6035,-0.0000 -59.4052 -0.0000c -19.8017,-0.0000 -39.6035,-0.0000 -59.4052 -0.0000c -1.2120,7.8490 -7.9969,13.8583 -16.1853 13.8583c -8.1884,-0.0000 -14.9733,-6.0092 -16.1853 -13.8583c -108.6523,-0.0000 -217.3046,-0.0000 -325.9569 -0.0000c -1.2120,7.8490 -7.9969,13.8583 -16.1853 13.8583c -0.0002,-0.0000 -0.0004,-0.0000 -0.0006 -0.0000c -16.8670,89.3833 -33.7339,178.7666 -50.6009 268.1499ZM 72.7751,907.5443 c 0.0000,3.1311 2.5382,5.6693 5.6693 5.6693c 3.1311,-0.0000 5.6693,-2.5382 5.6693 -5.6693c 0.0000,-3.1311 -2.5382,-5.6693 -5.6693 -5.6693c -3.1311,-0.0000 -5.6693,2.5382 -5.6693 5.6693ZM 361.5310,1290.0409 c 0.0000,3.1311 2.5382,5.6693 5.6693 5.6693c 3.1311,-0.0000 5.6693,-2.5383 5.6693 -5.6693c 0.0000,-3.1311 -2.5382,-5.6693 -5.6693 -5.6693c -3.1311,-0.0000 -5.6693,2.5382 -5.6693 5.6693ZM 431.1027,907.5443 c 0.0000,3.1311 2.5382,5.6693 5.6693 5.6693c 3.1311,-0.0000 5.6693,-2.5382 5.6693 -5.6693c 0.0000,-3.1311 -2.5382,-5.6693 -5.6693 -5.6693c -3.1311,-0.0000 -5.6693,2.5382 -5.6693 5.6693ZM 582.2838,907.5443 c 0.0000,3.1311 2.5382,5.6693 5.6693 5.6693c 3.1311,-0.0000 5.6693,-2.5382 5.6693 -5.6693c 0.0000,-3.1311 -2.5382,-5.6693 -5.6693 -5.6693c -3.1311,-0.0000 -5.6693,2.5382 -5.6693 5.6693ZM 651.8554,1290.0409 c 0.0000,3.1311 2.5382,5.6693 5.6693 5.6693c 3.1311,-0.0000 5.6693,-2.5383 5.6693 -5.6693c 0.0000,-3.1311 -2.5382,-5.6693 -5.6693 -5.6693c -3.1311,-0.0000 -5.6693,2.5382 -5.6693 5.6693ZM 940.6114,907.5443 c 0.0000,3.1311 2.5382,5.6693 5.6693 5.6693c 3.1311,-0.0000 5.6693,-2.5382 5.6693 -5.6693c 0.0000,-3.1311 -2.5382,-5.6693 -5.6693 -5.6693c -3.1311,-0.0000 -5.6693,2.5382 -5.6693 5.6693ZM 994.9274,1208.0270 c 0.0000,3.1311 2.5383,5.6693 5.6693 5.6693c 3.1310,-0.0000 5.6693,-2.5383 5.6693 -5.6693c 0.0000,-3.1311 -2.5383,-5.6693 -5.6693 -5.6693c -3.1311,-0.0000 -5.6693,2.5382 -5.6693 5.6693Z"/></g><g stroke-linejoin="miter" stroke-opacity="1.0" fill-opacity="0.5" stroke="rgb(0,0,0)" stroke-width="0.37795275590551186" fill="rgb(0,0,0)" stroke-linecap="butt" stroke-miterlimit="10.0"><path d="M 3.9685,770.1129 c 0.0000,-0.9437 0.0819,-1.8997 0.2512 -2.8595c 18.1054,-102.6806 36.2107,-205.3612 54.3161 -308.0418c 1.3801,-7.8274 8.1810,-13.5340 16.1291 -13.5340c 145.8992,-0.0000 291.7985,-0.0000 437.6977 -0.0000c 145.8992,-0.0000 291.7985,-0.0000 437.6977 -0.0000c 7.9481,-0.0000 14.7490,5.7066 16.1291 13.5340c 18.1054,102.6806 36.2107,205.3612 54.3161 308.0418c 0.1693,0.9599 0.2512,1.9158 0.2512 2.8595c 0.0000,7.4591 -5.1143,14.1502 -12.6116 15.9229c -115.6172,27.3380 -231.2344,54.6759 -346.8516 82.0139c -1.2349,0.2920 -2.4996,0.4395 -3.7687 0.4395c -48.3874,-0.0000 -96.7748,-0.0000 -145.1622 -0.0000c -48.3874,-0.0000 -96.7748,-0.0000 -145.1622 -0.0000c -1.2690,-0.0000 -2.5337,-0.1475 -3.7687 -0.4395c -115.6172,-27.3379 -231.2344,-54.6759 -346.8516 -82.0139c -7.4973,-1.7728 -12.6116,-8.4638 -12.6116 -15.9229ZM 18.4590,766.3178 c 0.0000,3.1311 2.5383,5.6693 5.6693 5.6693c 3.1311,-0.0000 5.6693,-2.5383 5.6693 -5.6693c 0.0000,-3.1311 -2.5383,-5.6693 -5.6693 -5.6693c -3.1310,-0.0000 -5.6693,2.5382 -5.6693 5.6693ZM 53.3239,750.4013 c 1.0084,0.1778 2.0169,0.3556 3.0253 0.5334c -0.2145,1.2164 -0.4290,2.4329 -0.6435 3.6493c 17.3327,3.0562 34.6653,6.1124 51.9979 9.1686c 0.2145,-1.2164 0.4290,-2.4329 0.6435 -3.6493c 1.0085,0.1778 2.0169,0.3556 3.0253 0.5335c 0.7658,-4.3426 1.5315,-8.6852 2.2972 -13.0278c -1.0085,-0.1778 -2.0169,-0.3556 -3.0253 -0.5334c 1.0958,-6.2146 2.1916,-12.4291 3.2874 -18.6437c 1.0084,0.1778 2.0169,0.3556 3.0253 0.5335c 0.7657,-4.3426 1.5314,-8.6852 2.2972 -13.0278c -1.0085,-0.1778 -2.0169,-0.3556 -3.0254 -0.5335c 0.2145,-1.2164 0.4290,-2.4329 0.6435 -3.6493c -17.3327,-3.0562 -34.6653,-6.1124 -51.9979 -9.1686c -0.2145,1.2164 -0.4290,2.4329 -0.6435 3.6493c -1.0085,-0.1778 -2.0169,-0.3557 -3.0253 -0.5335c -0.7658,4.3426 -1.5315,8.6851 -2.2972 13.0278c 1.0085,0.1778 2.0169,0.3556 3.0253 0.5334c -1.0958,6.2146 -2.1916,12.4291 -3.2874 18.6437c -1.0085,-0.1778 -2.0169,-0.3556 -3.0253 -0.5335c -0.7657,4.3426 -1.5314,8.6852 -2.2971 13.0278ZM 65.7938,679.6812 c 1.0085,0.1778 2.0169,0.3556 3.0253 0.5335c -0.2145,1.2164 -0.4290,2.4329 -0.6435 3.6493c 17.3326,3.0562 34.6652,6.1124 51.9978 9.1686c 0.2145,-1.2164 0.4290,-2.4329 0.6435 -3.6493c 1.0084,0.1778 2.0169,0.3556 3.0253 0.5334c 0.7657,-4.3426 1.5314,-8.6851 2.2971 -13.0277c -1.0084,-0.1778 -2.0169,-0.3556 -3.0253 -0.5335c 1.0958,-6.2146 2.1916,-12.4291 3.2874 -18.6436c 1.0085,0.1778 2.0169,0.3556 3.0254 0.5334c 0.7657,-4.3426 1.5314,-8.6851 2.2971 -13.0277c -1.0085,-0.1778 -2.0169,-0.3556 -3.0253 -0.5335c 0.2145,-1.2164 0.4290,-2.4329 0.6435 -3.6493c -17.3326,-3.0562 -34.6652,-6.1124 -51.9978 -9.1686c -0.2145,1.2164 -0.4290,2.4329 -0.6435 3.6493c -1.0084,-0.1778 -2.0169,-0.3556 -3.0253 -0.5334c -0.7657,4.3426 -1.5314,8.6851 -2.2971 13.0277c 1.0084,0.1778 2.0169,0.3556 3.0253 0.5335c -1.0958,6.2146 -2.1916,12.4291 -3.2874 18.6436c -1.0085,-0.1778 -2.0169,-0.3556 -3.0254 -0.5334c -0.7657,4.3426 -1.5314,8.6851 -2.2971 13.0277ZM 72.7751,465.8351 c 0.0000,3.1311 2.5382,5.6693 5.6693 5.6693c 3.1311,-0.0000 5.6693,-2.5382 5.6693 -5.6693c 0.0000,-3.1311 -2.5382,-5.6693 -5.6693 -5.6693c -3.1311,-0.0000 -5.6693,2.5382 -5.6693 5.6693ZM 78.2637,608.9612 c 1.0084,0.1778 2.0169,0.3556 3.0253 0.5335c -0.2145,1.2164 -0.4290,2.4329 -0.6435 3.6493c 17.3327,3.0562 34.6653,6.1124 51.9979 9.1686c 0.2145,-1.2164 0.4290,-2.4329 0.6435 -3.6493c 1.0085,0.1778 2.0169,0.3557 3.0253 0.5335c 0.7658,-4.3426 1.5315,-8.6851 2.2972 -13.0278c -1.0085,-0.1778 -2.0169,-0.3556 -3.0253 -0.5334c 1.0958,-6.2146 2.1916,-12.4291 3.2874 -18.6437c 1.0085,0.1778 2.0169,0.3556 3.0253 0.5335c 0.7657,-4.3426 1.5314,-8.6852 2.2972 -13.0278c -1.0085,-0.1778 -2.0169,-0.3556 -3.0254 -0.5334c 0.2145,-1.2164 0.4290,-2.4329 0.6435 -3.6493c -17.3327,-3.0562 -34.6653,-6.1124 -51.9979 -9.1686c -0.2145,1.2164 -0.4290,2.4329 -0.6435 3.6493c -1.0085,-0.1778 -2.0169,-0.3556 -3.0253 -0.5335c -0.7657,4.3426 -1.5315,8.6852 -2.2972 13.0278c 1.0085,0.1778 2.0169,0.3556 3.0253 0.5334c -1.0958,6.2146 -2.1916,12.4291 -3.2874 18.6437c -1.0085,-0.1778 -2.0169,-0.3556 -3.0253 -0.5335c -0.7657,4.3426 -1.5314,8.6852 -2.2971 13.0278ZM 90.7335,538.2411 c 1.0085,0.1778 2.0169,0.3556 3.0253 0.5334c -0.2145,1.2164 -0.4290,2.4329 -0.6435 3.6493c 17.3326,3.0562 34.6652,6.1124 51.9978 9.1686c 0.2145,-1.2164 0.4290,-2.4329 0.6435 -3.6493c 1.0084,0.1778 2.0169,0.3556 3.0253 0.5335c 0.7657,-4.3426 1.5314,-8.6852 2.2971 -13.0278c -1.0084,-0.1778 -2.0169,-0.3556 -3.0253 -0.5334c 1.0958,-6.2146 2.1916,-12.4291 3.2874 -18.6437c 1.0085,0.1778 2.0169,0.3556 3.0254 0.5334c 0.7657,-4.3426 1.5314,-8.6851 2.2971 -13.0277c -1.0085,-0.1778 -2.0169,-0.3556 -3.0253 -0.5335c 0.2145,-1.2164 0.4290,-2.4329 0.6435 -3.6493c -17.3326,-3.0562 -34.6652,-6.1124 -51.9978 -9.1686c -0.2145,1.2164 -0.4290,2.4329 -0.6435 3.6493c -1.0084,-0.1778 -2.0169,-0.3556 -3.0253 -0.5334c -0.7657,4.3426 -1.5314,8.6851 -2.2971 13.0277c 1.0084,0.1778 2.0169,0.3556 3.0253 0.5335c -1.0958,6.2146 -2.1916,12.4291 -3.2874 18.6437c -1.0085,-0.1778 -2.0169,-0.3557 -3.0254 -0.5335c -0.7657,4.3426 -1.5314,8.6851 -2.2971 13.0278ZM 126.0129,751.7048 c 1.0084,0.1778 2.0169,0.3556 3.0253 0.5335c -0.2145,1.2164 -0.4290,2.4329 -0.6435 3.6493c 17.3327,3.0562 34.6653,6.1124 51.9979 9.1686c 0.2145,-1.2164 0.4290,-2.4329 0.6435 -3.6493c 1.0085,0.1778 2.0169,0.3556 3.0253 0.5334c 0.7658,-4.3426 1.5315,-8.6851 2.2972 -13.0277c -1.0085,-0.1778 -2.0169,-0.3556 -3.0253 -0.5335c 1.0958,-6.2146 2.1916,-12.4291 3.2874 -18.6436c 1.0085,0.1778 2.0169,0.3556 3.0253 0.5334c 0.7657,-4.3426 1.5314,-8.6851 2.2971 -13.0277c -1.0084,-0.1778 -2.0169,-0.3557 -3.0253 -0.5335c 0.2145,-1.2164 0.4290,-2.4329 0.6435 -3.6493c -17.3326,-3.0562 -34.6653,-6.1124 -51.9979 -9.1686c -0.2145,1.2164 -0.4290,2.4329 -0.6435 3.6493c -1.0085,-0.1778 -2.0169,-0.3556 -3.0253 -0.5335c -0.7658,4.3426 -1.5315,8.6852 -2.2972 13.0278c 1.0085,0.1778 2.0169,0.3556 3.0253 0.5335c -1.0958,6.2146 -2.1916,12.4291 -3.2874 18.6436c -1.0084,-0.1778 -2.0169,-0.3556 -3.0253 -0.5334c -0.7657,4.3426 -1.5314,8.6851 -2.2971 13.0277ZM 138.4828,680.9847 c 1.0085,0.1778 2.0169,0.3556 3.0253 0.5334c -0.2145,1.2164 -0.4290,2.4329 -0.6435 3.6493c 17.3326,3.0562 34.6652,6.1124 51.9978 9.1686c 0.2145,-1.2164 0.4290,-2.4329 0.6435 -3.6493c 1.0084,0.1778 2.0169,0.3556 3.0253 0.5335c 0.7657,-4.3426 1.5314,-8.6851 2.2971 -13.0278c -1.0084,-0.1778 -2.0169,-0.3556 -3.0253 -0.5334c 1.0958,-6.2146 2.1916,-12.4291 3.2874 -18.6437c 1.0085,0.1778 2.0169,0.3556 3.0254 0.5335c 0.7657,-4.3426 1.5314,-8.6852 2.2971 -13.0278c -1.0085,-0.1778 -2.0169,-0.3556 -3.0253 -0.5334c 0.2145,-1.2164 0.4290,-2.4329 0.6435 -3.6493c -17.3326,-3.0562 -34.6652,-6.1124 -51.9978 -9.1686c -0.2145,1.2164 -0.4290,2.4329 -0.6435 3.6493c -1.0084,-0.1778 -2.0169,-0.3556 -3.0253 -0.5335c -0.7657,4.3426 -1.5314,8.6852 -2.2971 13.0278c 1.0084,0.1778 2.0169,0.3556 3.0253 0.5334c -1.0958,6.2146 -2.1916,12.4291 -3.2874 18.6437c -1.0085,-0.1778 -2.0169,-0.3556 -3.0254 -0.5335c -0.7657,4.3426 -1.5314,8.6852 -2.2971 13.0278ZM 150.9526,610.2647 c 1.0084,0.1778 2.0169,0.3557 3.0253 0.5335c -0.2145,1.2164 -0.4290,2.4329 -0.6435 3.6493c 17.3327,3.0562 34.6653,6.1124 51.9979 9.1686c 0.2145,-1.2164 0.4290,-2.4329 0.6435 -3.6493c 1.0085,0.1778 2.0169,0.3556 3.0253 0.5334c 0.7658,-4.3426 1.5315,-8.6851 2.2972 -13.0277c -1.0085,-0.1778 -2.0169,-0.3556 -3.0253 -0.5335c 1.0958,-6.2145 2.1916,-12.4291 3.2874 -18.6436c 1.0085,0.1778 2.0169,0.3556 3.0253 0.5334c 0.7657,-4.3426 1.5314,-8.6851 2.2971 -13.0277c -1.0084,-0.1778 -2.0169,-0.3556 -3.0253 -0.5335c 0.2145,-1.2164 0.4290,-2.4329 0.6435 -3.6493c -17.3326,-3.0562 -34.6653,-6.1124 -51.9979 -9.1686c -0.2145,1.2164 -0.4290,2.4329 -0.6435 3.6493c -1.0085,-0.1778 -2.0169,-0.3556 -3.0253 -0.5334c -0.7658,4.3426 -1.5315,8.6851 -2.2972 13.0277c 1.0085,0.1778 2.0169,0.3556 3.0253 0.5335c -1.0958,6.2146 -2.1916,12.4291 -3.2874 18.6437c -1.0084,-0.1778 -2.0169,-0.3557 -3.0253 -0.5335c -0.7657,4.3426 -1.5314,8.6851 -2.2971 13.0277ZM 163.4225,539.5446 c 1.0085,0.1778 2.0169,0.3556 3.0253 0.5335c -0.2145,1.2164 -0.4290,2.4329 -0.6435 3.6493c 17.3326,3.0562 34.6652,6.1124 51.9978 9.1686c 0.2145,-1.2164 0.4290,-2.4329 0.6435 -3.6493c 1.0084,0.1778 2.0169,0.3556 3.0253 0.5334c 0.7657,-4.3426 1.5314,-8.6851 2.2971 -13.0277c -1.0084,-0.1778 -2.0169,-0.3557 -3.0253 -0.5335c 1.0958,-6.2146 2.1916,-12.4291 3.2874 -18.6437c 1.0085,0.1778 2.0169,0.3556 3.0254 0.5335c 0.7657,-4.3426 1.5314,-8.6851 2.2971 -13.0278c -1.0085,-0.1778 -2.0169,-0.3556 -3.0253 -0.5334c 0.2145,-1.2164 0.4290,-2.4329 0.6435 -3.6493c -17.3326,-3.0562 -34.6652,-6.1124 -51.9978 -9.1686c -0.2145,1.2164 -0.4290,2.4329 -0.6435 3.6493c -1.0084,-0.1778 -2.0169,-0.3556 -3.0253 -0.5335c -0.7657,4.3426 -1.5314,8.6852 -2.2971 13.0278c 1.0084,0.1778 2.0169,0.3556 3.0253 0.5334c -1.0958,6.2146 -2.1916,12.4291 -3.2874 18.6437c -1.0085,-0.1778 -2.0169,-0.3556 -3.0253 -0.5334c -0.7658,4.3426 -1.5315,8.6851 -2.2972 13.0277ZM 200.0145,745.5641 c 1.0084,0.1778 2.0169,0.3556 3.0253 0.5335c -0.2145,1.2164 -0.4290,2.4329 -0.6435 3.6493c 17.3326,3.0562 34.6652,6.1124 51.9978 9.1686c 0.2145,-1.2164 0.4290,-2.4329 0.6435 -3.6493c 1.0085,0.1778 2.0169,0.3556 3.0254 0.5334c 0.7657,-4.3426 1.5314,-8.6851 2.2971 -13.0277c -1.0085,-0.1778 -2.0169,-0.3556 -3.0253 -0.5335c 1.0958,-6.2146 2.1916,-12.4291 3.2874 -18.6437c 1.0085,0.1778 2.0169,0.3556 3.0253 0.5335c 0.7657,-4.3426 1.5315,-8.6851 2.2972 -13.0278c -1.0085,-0.1778 -2.0169,-0.3556 -3.0254 -0.5334c 0.2145,-1.2164 0.4290,-2.4329 0.6435 -3.6493c -17.3326,-3.0562 -34.6652,-6.1124 -51.9979 -9.1686c -0.2145,1.2164 -0.4290,2.4329 -0.6435 3.6493c -1.0085,-0.1778 -2.0169,-0.3556 -3.0253 -0.5335c -0.7657,4.3426 -1.5314,8.6852 -2.2972 13.0278c 1.0085,0.1778 2.0169,0.3556 3.0254 0.5334c -1.0958,6.2146 -2.1916,12.4291 -3.2874 18.6437c -1.0084,-0.1778 -2.0169,-0.3556 -3.0253 -0.5334c -0.7657,4.3426 -1.5314,8.6851 -2.2971 13.0277ZM 212.4843,674.8441 c 1.0085,0.1778 2.0169,0.3556 3.0253 0.5334c -0.2145,1.2164 -0.4290,2.4329 -0.6435 3.6493c 17.3326,3.0562 34.6652,6.1124 51.9978 9.1686c 0.2145,-1.2164 0.4290,-2.4329 0.6435 -3.6493c 1.0085,0.1778 2.0169,0.3556 3.0253 0.5335c 0.7657,-4.3426 1.5314,-8.6852 2.2972 -13.0278c -1.0085,-0.1778 -2.0169,-0.3556 -3.0254 -0.5334c 1.0958,-6.2146 2.1916,-12.4291 3.2874 -18.6437c 1.0084,0.1778 2.0169,0.3556 3.0253 0.5334c 0.7657,-4.3426 1.5314,-8.6851 2.2971 -13.0277c -1.0084,-0.1778 -2.0169,-0.3556 -3.0253 -0.5335c 0.2145,-1.2164 0.4290,-2.4329 0.6435 -3.6493c -17.3326,-3.0562 -34.6652,-6.1124 -51.9978 -9.1686c -0.2145,1.2164 -0.4290,2.4329 -0.6435 3.6493c -1.0084,-0.1778 -2.0169,-0.3557 -3.0253 -0.5335c -0.7657,4.3426 -1.5314,8.6851 -2.2971 13.0278c 1.0085,0.1778 2.0169,0.3556 3.0253 0.5334c -1.0958,6.2146 -2.1916,12.4291 -3.2874 18.6437c -1.0085,-0.1778 -2.0169,-0.3556 -3.0253 -0.5335c -0.7657,4.3426 -1.5315,8.6852 -2.2972 13.0278ZM 224.9542,604.1240 c 1.0084,0.1778 2.0169,0.3556 3.0253 0.5335c -0.2145,1.2164 -0.4290,2.4329 -0.6435 3.6493c 17.3326,3.0562 34.6652,6.1124 51.9978 9.1686c 0.2145,-1.2164 0.4290,-2.4329 0.6435 -3.6493c 1.0085,0.1778 2.0169,0.3556 3.0254 0.5334c 0.7657,-4.3426 1.5314,-8.6851 2.2971 -13.0277c -1.0085,-0.1778 -2.0169,-0.3556 -3.0253 -0.5335c 1.0958,-6.2146 2.1916,-12.4291 3.2874 -18.6436c 1.0085,0.1778 2.0169,0.3556 3.0253 0.5334c 0.7657,-4.3426 1.5315,-8.6851 2.2972 -13.0277c -1.0085,-0.1778 -2.0169,-0.3557 -3.0254 -0.5335c 0.2145,-1.2164 0.4290,-2.4329 0.6435 -3.6493c -17.3326,-3.0562 -34.6652,-6.1124 -51.9979 -9.1686c -0.2145,1.2164 -0.4290,2.4329 -0.6435 3.6493c -1.0085,-0.1778 -2.0169,-0.3556 -3.0253 -0.5334c -0.7657,4.3426 -1.5314,8.6851 -2.2972 13.0277c 1.0085,0.1778 2.0169,0.3556 3.0254 0.5335c -1.0958,6.2146 -2.1916,12.4291 -3.2874 18.6436c -1.0084,-0.1778 -2.0169,-0.3556 -3.0253 -0.5334c -0.7657,4.3426 -1.5314,8.6851 -2.2971 13.0277ZM 237.4240,533.4040 c 1.0085,0.1778 2.0169,0.3556 3.0253 0.5334c -0.2145,1.2164 -0.4289,2.4329 -0.6435 3.6493c 17.3326,3.0562 34.6652,6.1124 51.9978 9.1686c 0.2145,-1.2164 0.4290,-2.4329 0.6435 -3.6493c 1.0085,0.1778 2.0169,0.3556 3.0253 0.5335c 0.7657,-4.3426 1.5314,-8.6851 2.2972 -13.0278c -1.0085,-0.1778 -2.0169,-0.3556 -3.0254 -0.5334c 1.0958,-6.2146 2.1916,-12.4291 3.2874 -18.6437c 1.0084,0.1778 2.0169,0.3556 3.0253 0.5335c 0.7657,-4.3426 1.5314,-8.6852 2.2971 -13.0278c -1.0084,-0.1778 -2.0169,-0.3556 -3.0253 -0.5334c 0.2145,-1.2164 0.4290,-2.4329 0.6435 -3.6493c -17.3326,-3.0562 -34.6652,-6.1124 -51.9978 -9.1686c -0.2145,1.2164 -0.4290,2.4329 -0.6435 3.6493c -1.0084,-0.1778 -2.0169,-0.3556 -3.0253 -0.5335c -0.7657,4.3426 -1.5314,8.6852 -2.2971 13.0278c 1.0085,0.1778 2.0169,0.3556 3.0253 0.5334c -1.0958,6.2146 -2.1916,12.4291 -3.2874 18.6437c -1.0085,-0.1778 -2.0169,-0.3556 -3.0253 -0.5335c -0.7657,4.3426 -1.5315,8.6852 -2.2972 13.0278ZM 266.7967,780.3666 c 1.0084,0.1778 2.0169,0.3556 3.0253 0.5334c -0.2145,1.2164 -0.4290,2.4329 -0.6435 3.6493c 17.3326,3.0562 34.6652,6.1124 51.9978 9.1686c 0.2145,-1.2164 0.4290,-2.4329 0.6435 -3.6493c 1.0084,0.1778 2.0169,0.3556 3.0253 0.5335c 0.7657,-4.3426 1.5314,-8.6852 2.2971 -13.0278c -1.0085,-0.1778 -2.0169,-0.3556 -3.0253 -0.5334c 1.0958,-6.2146 2.1916,-12.4291 3.2874 -18.6437c 1.0085,0.1778 2.0169,0.3556 3.0253 0.5334c 0.7657,-4.3426 1.5315,-8.6851 2.2972 -13.0277c -1.0085,-0.1778 -2.0169,-0.3556 -3.0253 -0.5335c 0.2145,-1.2164 0.4289,-2.4329 0.6435 -3.6493c -17.3326,-3.0562 -34.6652,-6.1124 -51.9978 -9.1686c -0.2145,1.2164 -0.4290,2.4329 -0.6435 3.6493c -1.0085,-0.1778 -2.0169,-0.3556 -3.0253 -0.5334c -0.7657,4.3426 -1.5314,8.6851 -2.2972 13.0277c 1.0085,0.1778 2.0169,0.3556 3.0254 0.5335c -1.0958,6.2146 -2.1916,12.4291 -3.2874 18.6437c -1.0084,-0.1778 -2.0169,-0.3556 -3.0253 -0.5335c -0.7657,4.3426 -1.5314,8.6851 -2.2971 13.0278ZM 279.2665,709.6465 c 1.0085,0.1778 2.0169,0.3556 3.0254 0.5335c -0.2145,1.2164 -0.4290,2.4329 -0.6435 3.6493c 17.3326,3.0562 34.6652,6.1124 51.9979 9.1686c 0.2145,-1.2164 0.4289,-2.4329 0.6435 -3.6493c 1.0085,0.1778 2.0169,0.3556 3.0253 0.5334c 0.7657,-4.3426 1.5314,-8.6851 2.2972 -13.0277c -1.0085,-0.1778 -2.0169,-0.3556 -3.0254 -0.5335c 1.0958,-6.2146 2.1916,-12.4291 3.2874 -18.6437c 1.0084,0.1778 2.0169,0.3557 3.0253 0.5335c 0.7657,-4.3426 1.5314,-8.6851 2.2971 -13.0278c -1.0084,-0.1778 -2.0169,-0.3556 -3.0253 -0.5334c 0.2145,-1.2164 0.4290,-2.4329 0.6435 -3.6493c -17.3326,-3.0562 -34.6652,-6.1124 -51.9978 -9.1686c -0.2145,1.2164 -0.4290,2.4329 -0.6435 3.6493c -1.0085,-0.1778 -2.0169,-0.3556 -3.0254 -0.5334c -0.7657,4.3426 -1.5314,8.6851 -2.2971 13.0277c 1.0085,0.1778 2.0169,0.3556 3.0253 0.5335c -1.0958,6.2145 -2.1916,12.4291 -3.2874 18.6436c -1.0085,-0.1778 -2.0169,-0.3556 -3.0253 -0.5334c -0.7657,4.3426 -1.5315,8.6851 -2.2972 13.0277ZM 291.7364,638.9265 c 1.0084,0.1778 2.0169,0.3556 3.0253 0.5334c -0.2145,1.2164 -0.4290,2.4329 -0.6435 3.6493c 17.3326,3.0562 34.6652,6.1124 51.9978 9.1686c 0.2145,-1.2164 0.4290,-2.4329 0.6435 -3.6493c 1.0084,0.1778 2.0169,0.3556 3.0253 0.5335c 0.7657,-4.3426 1.5314,-8.6852 2.2971 -13.0278c -1.0085,-0.1778 -2.0169,-0.3556 -3.0253 -0.5334c 1.0958,-6.2146 2.1916,-12.4291 3.2874 -18.6437c 1.0085,0.1778 2.0169,0.3556 3.0253 0.5335c 0.7657,-4.3426 1.5315,-8.6852 2.2972 -13.0278c -1.0085,-0.1778 -2.0169,-0.3556 -3.0253 -0.5334c 0.2145,-1.2164 0.4290,-2.4329 0.6435 -3.6493c -17.3326,-3.0562 -34.6652,-6.1124 -51.9978 -9.1686c -0.2145,1.2164 -0.4290,2.4329 -0.6435 3.6493c -1.0085,-0.1778 -2.0169,-0.3556 -3.0253 -0.5335c -0.7657,4.3426 -1.5314,8.6851 -2.2972 13.0278c 1.0085,0.1778 2.0169,0.3556 3.0254 0.5334c -1.0958,6.2146 -2.1916,12.4291 -3.2874 18.6437c -1.0084,-0.1778 -2.0169,-0.3556 -3.0253 -0.5335c -0.7657,4.3426 -1.5314,8.6852 -2.2971 13.0278ZM 304.2062,568.2064 c 1.0085,0.1778 2.0169,0.3557 3.0254 0.5335c -0.2145,1.2164 -0.4290,2.4329 -0.6435 3.6493c 17.3326,3.0562 34.6652,6.1124 51.9979 9.1686c 0.2145,-1.2164 0.4290,-2.4329 0.6435 -3.6493c 1.0085,0.1778 2.0169,0.3556 3.0253 0.5334c 0.7657,-4.3426 1.5314,-8.6851 2.2972 -13.0277c -1.0085,-0.1778 -2.0169,-0.3556 -3.0254 -0.5335c 1.0958,-6.2146 2.1916,-12.4291 3.2874 -18.6436c 1.0084,0.1778 2.0169,0.3556 3.0253 0.5334c 0.7657,-4.3426 1.5314,-8.6851 2.2971 -13.0277c -1.0084,-0.1778 -2.0169,-0.3556 -3.0253 -0.5335c 0.2145,-1.2164 0.4290,-2.4329 0.6435 -3.6493c -17.3326,-3.0562 -34.6652,-6.1124 -51.9978 -9.1686c -0.2145,1.2164 -0.4290,2.4329 -0.6435 3.6493c -1.0085,-0.1778 -2.0169,-0.3556 -3.0254 -0.5334c -0.7657,4.3426 -1.5314,8.6851 -2.2971 13.0277c 1.0085,0.1778 2.0169,0.3556 3.0253 0.5335c -1.0958,6.2146 -2.1916,12.4291 -3.2874 18.6436c -1.0085,-0.1778 -2.0169,-0.3556 -3.0253 -0.5334c -0.7657,4.3426 -1.5315,8.6851 -2.2972 13.0277ZM 334.2352,811.4470 c 1.0085,0.1778 2.0169,0.3556 3.0254 0.5334c -0.2145,1.2164 -0.4290,2.4329 -0.6435 3.6493c 17.3326,3.0562 34.6652,6.1124 51.9979 9.1686c 0.2145,-1.2164 0.4290,-2.4329 0.6435 -3.6493c 1.0085,0.1778 2.0169,0.3556 3.0253 0.5335c 0.7657,-4.3426 1.5315,-8.6852 2.2972 -13.0278c -1.0085,-0.1778 -2.0169,-0.3556 -3.0254 -0.5334c 1.0958,-6.2146 2.1916,-12.4291 3.2874 -18.6437c 1.0084,0.1778 2.0169,0.3556 3.0253 0.5335c 0.7657,-4.3426 1.5314,-8.6852 2.2971 -13.0278c -1.0084,-0.1778 -2.0169,-0.3556 -3.0253 -0.5334c 0.2145,-1.2164 0.4290,-2.4329 0.6435 -3.6493c -17.3327,-3.0562 -34.6653,-6.1124 -51.9979 -9.1686c -0.2145,1.2164 -0.4290,2.4329 -0.6435 3.6493c -1.0085,-0.1778 -2.0169,-0.3557 -3.0254 -0.5335c -0.7657,4.3426 -1.5314,8.6851 -2.2971 13.0278c 1.0085,0.1778 2.0169,0.3556 3.0253 0.5334c -1.0958,6.2146 -2.1916,12.4291 -3.2874 18.6437c -1.0085,-0.1778 -2.0169,-0.3556 -3.0253 -0.5335c -0.7657,4.3426 -1.5314,8.6852 -2.2972 13.0278ZM 346.7051,740.7269 c 1.0085,0.1778 2.0169,0.3557 3.0253 0.5335c -0.2145,1.2164 -0.4290,2.4329 -0.6435 3.6493c 17.3326,3.0562 34.6652,6.1124 51.9978 9.1686c 0.2145,-1.2164 0.4290,-2.4329 0.6435 -3.6493c 1.0084,0.1778 2.0169,0.3556 3.0253 0.5334c 0.7657,-4.3426 1.5314,-8.6851 2.2971 -13.0277c -1.0084,-0.1778 -2.0169,-0.3556 -3.0253 -0.5335c 1.0958,-6.2146 2.1916,-12.4291 3.2874 -18.6436c 1.0085,0.1778 2.0169,0.3556 3.0253 0.5334c 0.7658,-4.3426 1.5315,-8.6851 2.2972 -13.0277c -1.0085,-0.1778 -2.0169,-0.3556 -3.0253 -0.5335c 0.2145,-1.2164 0.4290,-2.4329 0.6435 -3.6493c -17.3326,-3.0562 -34.6652,-6.1124 -51.9978 -9.1686c -0.2145,1.2164 -0.4290,2.4329 -0.6435 3.6493c -1.0084,-0.1778 -2.0169,-0.3556 -3.0253 -0.5334c -0.7657,4.3426 -1.5314,8.6851 -2.2971 13.0277c 1.0084,0.1778 2.0169,0.3556 3.0253 0.5335c -1.0958,6.2146 -2.1916,12.4291 -3.2874 18.6436c -1.0085,-0.1778 -2.0169,-0.3556 -3.0254 -0.5334c -0.7657,4.3426 -1.5314,8.6851 -2.2971 13.0277ZM 359.1749,670.0069 c 1.0085,0.1778 2.0169,0.3556 3.0254 0.5335c -0.2145,1.2164 -0.4290,2.4329 -0.6435 3.6493c 17.3326,3.0562 34.6652,6.1124 51.9979 9.1686c 0.2145,-1.2164 0.4290,-2.4329 0.6435 -3.6493c 1.0085,0.1778 2.0169,0.3557 3.0253 0.5335c 0.7657,-4.3426 1.5315,-8.6851 2.2972 -13.0278c -1.0085,-0.1778 -2.0169,-0.3556 -3.0254 -0.5334c 1.0958,-6.2146 2.1916,-12.4291 3.2874 -18.6437c 1.0084,0.1778 2.0169,0.3556 3.0253 0.5335c 0.7657,-4.3426 1.5314,-8.6852 2.2971 -13.0278c -1.0084,-0.1778 -2.0169,-0.3556 -3.0253 -0.5334c 0.2145,-1.2164 0.4290,-2.4329 0.6435 -3.6493c -17.3327,-3.0562 -34.6653,-6.1124 -51.9979 -9.1686c -0.2145,1.2164 -0.4290,2.4329 -0.6435 3.6493c -1.0085,-0.1778 -2.0169,-0.3556 -3.0253 -0.5335c -0.7658,4.3426 -1.5315,8.6852 -2.2972 13.0278c 1.0085,0.1778 2.0169,0.3556 3.0253 0.5334c -1.0958,6.2146 -2.1916,12.4291 -3.2874 18.6437c -1.0085,-0.1778 -2.0169,-0.3556 -3.0253 -0.5335c -0.7657,4.3426 -1.5314,8.6852 -2.2972 13.0278ZM 361.5310,848.3317 c 0.0000,3.1311 2.5382,5.6693 5.6693 5.6693c 3.1311,-0.0000 5.6693,-2.5383 5.6693 -5.6693c 0.0000,-3.1311 -2.5382,-5.6693 -5.6693 -5.6693c -3.1311,-0.0000 -5.6693,2.5382 -5.6693 5.6693ZM 371.6448,599.2869 c 1.0085,0.1778 2.0169,0.3556 3.0253 0.5334c -0.2145,1.2164 -0.4290,2.4329 -0.6435 3.6493c 17.3326,3.0562 34.6652,6.1124 51.9978 9.1686c 0.2145,-1.2164 0.4290,-2.4329 0.6435 -3.6493c 1.0084,0.1778 2.0169,0.3556 3.0253 0.5335c 0.7657,-4.3426 1.5314,-8.6852 2.2971 -13.0278c -1.0084,-0.1778 -2.0169,-0.3556 -3.0253 -0.5334c 1.0958,-6.2146 2.1916,-12.4291 3.2874 -18.6437c 1.0085,0.1778 2.0169,0.3556 3.0253 0.5334c 0.7658,-4.3426 1.5315,-8.6851 2.2972 -13.0277c -1.0085,-0.1778 -2.0169,-0.3556 -3.0253 -0.5335c 0.2145,-1.2164 0.4290,-2.4329 0.6435 -3.6493c -17.3326,-3.0562 -34.6652,-6.1124 -51.9978 -9.1686c -0.2145,1.2164 -0.4290,2.4329 -0.6435 3.6493c -1.0084,-0.1778 -2.0169,-0.3556 -3.0253 -0.5334c -0.7657,4.3426 -1.5314,8.6851 -2.2971 13.0277c 1.0084,0.1778 2.0169,0.3557 3.0253 0.5335c -1.0958,6.2146 -2.1916,12.4291 -3.2874 18.6437c -1.0085,-0.1778 -2.0169,-0.3556 -3.0254 -0.5335c -0.7657,4.3426 -1.5314,8.6851 -2.2971 13.0278ZM 411.1902,788.5568 c 1.0085,0.1778 2.0169,0.3556 3.0253 0.5335c -0.2145,1.2164 -0.4290,2.4329 -0.6435 3.6493c 17.3326,3.0562 34.6652,6.1124 51.9978 9.1686c 0.2145,-1.2164 0.4290,-2.4329 0.6435 -3.6493c 1.0084,0.1778 2.0169,0.3556 3.0253 0.5334c 0.7657,-4.3426 1.5314,-8.6851 2.2971 -13.0277c -1.0084,-0.1778 -2.0169,-0.3557 -3.0253 -0.5335c 1.0958,-6.2146 2.1916,-12.4291 3.2874 -18.6437c 1.0085,0.1778 2.0169,0.3556 3.0254 0.5335c 0.7657,-4.3426 1.5314,-8.6851 2.2971 -13.0278c -1.0085,-0.1778 -2.0169,-0.3556 -3.0253 -0.5334c 0.2145,-1.2164 0.4290,-2.4329 0.6435 -3.6493c -17.3326,-3.0562 -34.6652,-6.1124 -51.9978 -9.1686c -0.2145,1.2164 -0.4290,2.4329 -0.6435 3.6493c -1.0084,-0.1778 -2.0169,-0.3556 -3.0253 -0.5335c -0.7657,4.3426 -1.5314,8.6852 -2.2971 13.0278c 1.0084,0.1778 2.0169,0.3556 3.0253 0.5335c -1.0958,6.2145 -2.1916,12.4291 -3.2874 18.6436c -1.0085,-0.1778 -2.0169,-0.3556 -3.0254 -0.5335c -0.7657,4.3426 -1.5314,8.6852 -2.2971 13.0278ZM 431.1027,465.8351 c 0.0000,3.1311 2.5382,5.6693 5.6693 5.6693c 3.1311,-0.0000 5.6693,-2.5382 5.6693 -5.6693c 0.0000,-3.1311 -2.5382,-5.6693 -5.6693 -5.6693c -3.1311,-0.0000 -5.6693,2.5382 -5.6693 5.6693ZM 547.6047,754.0932 c 0.7657,4.3426 1.5314,8.6852 2.2971 13.0278c 1.0085,-0.1778 2.0169,-0.3556 3.0254 -0.5335c 1.0958,6.2146 2.1916,12.4291 3.2874 18.6437c -1.0085,0.1778 -2.0169,0.3556 -3.0253 0.5335c 0.7657,4.3426 1.5314,8.6851 2.2971 13.0277c 1.0085,-0.1778 2.0169,-0.3556 3.0253 -0.5334c 0.2145,1.2164 0.4290,2.4329 0.6435 3.6493c 17.3326,-3.0562 34.6652,-6.1124 51.9978 -9.1686c -0.2145,-1.2164 -0.4290,-2.4329 -0.6435 -3.6493c 1.0084,-0.1778 2.0169,-0.3556 3.0253 -0.5335c -0.7657,-4.3426 -1.5314,-8.6851 -2.2971 -13.0278c -1.0085,0.1778 -2.0169,0.3557 -3.0254 0.5335c -1.0958,-6.2146 -2.1916,-12.4291 -3.2874 -18.6436c 1.0085,-0.1778 2.0169,-0.3557 3.0253 -0.5335c -0.7657,-4.3426 -1.5314,-8.6852 -2.2971 -13.0278c -1.0085,0.1778 -2.0169,0.3556 -3.0253 0.5335c -0.2145,-1.2164 -0.4290,-2.4329 -0.6435 -3.6493c -17.3326,3.0562 -34.6652,6.1124 -51.9978 9.1686c 0.2145,1.2164 0.4290,2.4329 0.6435 3.6493c -1.0084,0.1778 -2.0169,0.3556 -3.0253 0.5334ZM 582.2838,465.8351 c 0.0000,3.1311 2.5382,5.6693 5.6693 5.6693c 3.1311,-0.0000 5.6693,-2.5382 5.6693 -5.6693c 0.0000,-3.1311 -2.5382,-5.6693 -5.6693 -5.6693c -3.1311,-0.0000 -5.6693,2.5382 -5.6693 5.6693ZM 587.1501,564.8232 c 0.7657,4.3426 1.5314,8.6851 2.2972 13.0277c 1.0084,-0.1778 2.0169,-0.3556 3.0253 -0.5334c 1.0958,6.2146 2.1916,12.4291 3.2874 18.6437c -1.0085,0.1778 -2.0169,0.3556 -3.0253 0.5334c 0.7657,4.3426 1.5314,8.6852 2.2971 13.0278c 1.0085,-0.1778 2.0169,-0.3556 3.0253 -0.5335c 0.2145,1.2164 0.4290,2.4329 0.6435 3.6493c 17.3326,-3.0562 34.6652,-6.1124 51.9978 -9.1686c -0.2145,-1.2164 -0.4290,-2.4329 -0.6435 -3.6493c 1.0085,-0.1778 2.0169,-0.3556 3.0253 -0.5334c -0.7657,-4.3426 -1.5314,-8.6852 -2.2971 -13.0278c -1.0085,0.1778 -2.0169,0.3556 -3.0254 0.5335c -1.0958,-6.2146 -2.1916,-12.4291 -3.2874 -18.6437c 1.0085,-0.1778 2.0169,-0.3556 3.0253 -0.5335c -0.7657,-4.3426 -1.5314,-8.6851 -2.2971 -13.0277c -1.0085,0.1778 -2.0169,0.3556 -3.0253 0.5334c -0.2145,-1.2164 -0.4290,-2.4329 -0.6435 -3.6493c -17.3326,3.0562 -34.6652,6.1124 -51.9978 9.1686c 0.2145,1.2164 0.4290,2.4329 0.6435 3.6493c -1.0084,0.1778 -2.0169,0.3556 -3.0253 0.5335ZM 599.6200,635.5432 c 0.7657,4.3426 1.5314,8.6852 2.2971 13.0278c 1.0085,-0.1778 2.0169,-0.3556 3.0253 -0.5335c 1.0958,6.2146 2.1916,12.4291 3.2874 18.6437c -1.0085,0.1778 -2.0169,0.3556 -3.0254 0.5334c 0.7657,4.3426 1.5315,8.6852 2.2972 13.0278c 1.0084,-0.1778 2.0169,-0.3556 3.0253 -0.5335c 0.2145,1.2164 0.4290,2.4329 0.6435 3.6493c 17.3327,-3.0562 34.6653,-6.1124 51.9979 -9.1686c -0.2145,-1.2164 -0.4290,-2.4329 -0.6435 -3.6493c 1.0085,-0.1778 2.0169,-0.3556 3.0254 -0.5335c -0.7658,-4.3426 -1.5315,-8.6851 -2.2972 -13.0278c -1.0085,0.1778 -2.0169,0.3556 -3.0253 0.5335c -1.0958,-6.2146 -2.1916,-12.4291 -3.2874 -18.6437c 1.0084,-0.1778 2.0169,-0.3556 3.0253 -0.5334c -0.7657,-4.3426 -1.5314,-8.6852 -2.2972 -13.0278c -1.0084,0.1778 -2.0169,0.3556 -3.0253 0.5335c -0.2145,-1.2164 -0.4290,-2.4329 -0.6435 -3.6493c -17.3326,3.0562 -34.6652,6.1124 -51.9979 9.1686c 0.2145,1.2164 0.4290,2.4329 0.6435 3.6493c -1.0085,0.1778 -2.0169,0.3556 -3.0253 0.5334ZM 612.0898,706.2633 c 0.7657,4.3426 1.5314,8.6851 2.2972 13.0277c 1.0084,-0.1778 2.0169,-0.3556 3.0253 -0.5334c 1.0958,6.2146 2.1916,12.4291 3.2874 18.6436c -1.0085,0.1778 -2.0169,0.3556 -3.0253 0.5335c 0.7657,4.3426 1.5314,8.6851 2.2971 13.0277c 1.0085,-0.1778 2.0169,-0.3556 3.0253 -0.5334c 0.2145,1.2164 0.4290,2.4329 0.6435 3.6493c 17.3326,-3.0562 34.6652,-6.1124 51.9978 -9.1686c -0.2145,-1.2164 -0.4290,-2.4329 -0.6435 -3.6493c 1.0085,-0.1778 2.0169,-0.3556 3.0253 -0.5335c -0.7657,-4.3426 -1.5314,-8.6851 -2.2971 -13.0277c -1.0085,0.1778 -2.0169,0.3556 -3.0254 0.5334c -1.0958,-6.2145 -2.1916,-12.4291 -3.2874 -18.6436c 1.0085,-0.1778 2.0169,-0.3556 3.0253 -0.5335c -0.7657,-4.3426 -1.5314,-8.6851 -2.2971 -13.0277c -1.0085,0.1778 -2.0169,0.3556 -3.0253 0.5334c -0.2145,-1.2164 -0.4290,-2.4329 -0.6435 -3.6493c -17.3326,3.0562 -34.6652,6.1124 -51.9978 9.1686c 0.2145,1.2164 0.4290,2.4329 0.6435 3.6493c -1.0084,0.1778 -2.0169,0.3556 -3.0253 0.5335ZM 624.5597,776.9834 c 0.7657,4.3426 1.5314,8.6852 2.2971 13.0278c 1.0085,-0.1778 2.0169,-0.3556 3.0253 -0.5335c 1.0958,6.2146 2.1916,12.4291 3.2874 18.6437c -1.0085,0.1778 -2.0169,0.3556 -3.0254 0.5334c 0.7657,4.3426 1.5315,8.6852 2.2972 13.0278c 1.0084,-0.1778 2.0169,-0.3556 3.0253 -0.5335c 0.2145,1.2164 0.4290,2.4329 0.6435 3.6493c 17.3327,-3.0562 34.6653,-6.1124 51.9979 -9.1686c -0.2145,-1.2164 -0.4290,-2.4329 -0.6435 -3.6493c 1.0085,-0.1778 2.0169,-0.3556 3.0254 -0.5334c -0.7658,-4.3426 -1.5315,-8.6852 -2.2972 -13.0278c -1.0085,0.1778 -2.0169,0.3556 -3.0253 0.5335c -1.0958,-6.2146 -2.1916,-12.4291 -3.2874 -18.6437c 1.0084,-0.1778 2.0169,-0.3556 3.0253 -0.5334c -0.7657,-4.3426 -1.5314,-8.6852 -2.2971 -13.0278c -1.0085,0.1778 -2.0169,0.3556 -3.0254 0.5335c -0.2145,-1.2164 -0.4290,-2.4329 -0.6435 -3.6493c -17.3326,3.0562 -34.6652,6.1124 -51.9979 9.1686c 0.2145,1.2164 0.4290,2.4329 0.6435 3.6493c -1.0085,0.1778 -2.0169,0.3556 -3.0253 0.5334ZM 651.8554,848.3317 c 0.0000,3.1311 2.5382,5.6693 5.6693 5.6693c 3.1311,-0.0000 5.6693,-2.5383 5.6693 -5.6693c 0.0000,-3.1311 -2.5382,-5.6693 -5.6693 -5.6693c -3.1311,-0.0000 -5.6693,2.5382 -5.6693 5.6693ZM 654.5886,533.7428 c 0.7657,4.3426 1.5314,8.6851 2.2971 13.0277c 1.0085,-0.1778 2.0169,-0.3556 3.0253 -0.5334c 1.0958,6.2146 2.1916,12.4291 3.2874 18.6436c -1.0085,0.1778 -2.0169,0.3556 -3.0254 0.5335c 0.7658,4.3426 1.5315,8.6851 2.2972 13.0277c 1.0085,-0.1778 2.0169,-0.3556 3.0253 -0.5334c 0.2145,1.2164 0.4290,2.4329 0.6435 3.6493c 17.3327,-3.0562 34.6653,-6.1124 51.9979 -9.1686c -0.2145,-1.2164 -0.4290,-2.4329 -0.6435 -3.6493c 1.0085,-0.1778 2.0169,-0.3556 3.0254 -0.5335c -0.7657,-4.3426 -1.5315,-8.6851 -2.2972 -13.0277c -1.0084,0.1778 -2.0169,0.3556 -3.0253 0.5334c -1.0958,-6.2145 -2.1916,-12.4291 -3.2874 -18.6436c 1.0085,-0.1778 2.0169,-0.3556 3.0253 -0.5335c -0.7657,-4.3426 -1.5314,-8.6851 -2.2971 -13.0277c -1.0085,0.1778 -2.0169,0.3556 -3.0254 0.5334c -0.2145,-1.2164 -0.4290,-2.4329 -0.6435 -3.6493c -17.3326,3.0562 -34.6652,6.1124 -51.9978 9.1686c 0.2145,1.2164 0.4290,2.4329 0.6435 3.6493c -1.0085,0.1778 -2.0169,0.3556 -3.0253 0.5335ZM 667.0584,604.4629 c 0.7657,4.3426 1.5315,8.6852 2.2972 13.0278c 1.0084,-0.1778 2.0169,-0.3556 3.0253 -0.5335c 1.0958,6.2146 2.1916,12.4291 3.2874 18.6437c -1.0085,0.1778 -2.0169,0.3556 -3.0253 0.5334c 0.7657,4.3426 1.5314,8.6852 2.2971 13.0278c 1.0085,-0.1778 2.0169,-0.3556 3.0253 -0.5335c 0.2145,1.2164 0.4290,2.4329 0.6435 3.6493c 17.3326,-3.0562 34.6652,-6.1124 51.9978 -9.1686c -0.2145,-1.2164 -0.4289,-2.4329 -0.6435 -3.6493c 1.0085,-0.1778 2.0169,-0.3556 3.0253 -0.5334c -0.7657,-4.3426 -1.5314,-8.6852 -2.2971 -13.0278c -1.0085,0.1778 -2.0169,0.3556 -3.0253 0.5335c -1.0958,-6.2146 -2.1916,-12.4291 -3.2874 -18.6437c 1.0085,-0.1778 2.0169,-0.3556 3.0254 -0.5334c -0.7658,-4.3426 -1.5315,-8.6852 -2.2972 -13.0278c -1.0085,0.1778 -2.0169,0.3556 -3.0253 0.5335c -0.2145,-1.2164 -0.4290,-2.4329 -0.6435 -3.6493c -17.3326,3.0562 -34.6652,6.1124 -51.9978 9.1686c 0.2145,1.2164 0.4290,2.4329 0.6435 3.6493c -1.0084,0.1778 -2.0169,0.3556 -3.0253 0.5334ZM 679.5283,675.1829 c 0.7657,4.3426 1.5314,8.6852 2.2971 13.0278c 1.0085,-0.1778 2.0169,-0.3556 3.0253 -0.5335c 1.0958,6.2146 2.1916,12.4291 3.2874 18.6437c -1.0085,0.1778 -2.0169,0.3556 -3.0254 0.5335c 0.7658,4.3426 1.5315,8.6851 2.2972 13.0277c 1.0085,-0.1778 2.0169,-0.3556 3.0253 -0.5334c 0.2145,1.2164 0.4290,2.4329 0.6435 3.6493c 17.3327,-3.0562 34.6653,-6.1124 51.9979 -9.1686c -0.2145,-1.2164 -0.4290,-2.4329 -0.6435 -3.6493c 1.0085,-0.1778 2.0169,-0.3556 3.0254 -0.5335c -0.7657,-4.3426 -1.5315,-8.6851 -2.2972 -13.0277c -1.0084,0.1778 -2.0169,0.3556 -3.0253 0.5334c -1.0958,-6.2146 -2.1916,-12.4291 -3.2874 -18.6436c 1.0085,-0.1778 2.0169,-0.3556 3.0253 -0.5335c -0.7657,-4.3426 -1.5314,-8.6851 -2.2971 -13.0277c -1.0085,0.1778 -2.0169,0.3556 -3.0254 0.5334c -0.2145,-1.2164 -0.4289,-2.4329 -0.6435 -3.6493c -17.3326,3.0562 -34.6652,6.1124 -51.9978 9.1686c 0.2145,1.2164 0.4290,2.4329 0.6435 3.6493c -1.0085,0.1778 -2.0169,0.3556 -3.0253 0.5334ZM 691.9981,745.9030 c 0.7657,4.3426 1.5315,8.6851 2.2972 13.0277c 1.0084,-0.1778 2.0169,-0.3556 3.0253 -0.5334c 1.0958,6.2146 2.1916,12.4291 3.2874 18.6437c -1.0085,0.1778 -2.0169,0.3556 -3.0253 0.5334c 0.7657,4.3426 1.5314,8.6852 2.2971 13.0278c 1.0085,-0.1778 2.0169,-0.3556 3.0253 -0.5335c 0.2145,1.2164 0.4290,2.4329 0.6435 3.6493c 17.3326,-3.0562 34.6652,-6.1124 51.9978 -9.1686c -0.2145,-1.2164 -0.4289,-2.4329 -0.6435 -3.6493c 1.0085,-0.1778 2.0169,-0.3556 3.0253 -0.5334c -0.7657,-4.3426 -1.5314,-8.6852 -2.2971 -13.0278c -1.0085,0.1778 -2.0169,0.3556 -3.0253 0.5335c -1.0958,-6.2146 -2.1916,-12.4291 -3.2874 -18.6437c 1.0085,-0.1778 2.0169,-0.3556 3.0254 -0.5335c -0.7658,-4.3426 -1.5315,-8.6851 -2.2972 -13.0277c -1.0085,0.1778 -2.0169,0.3556 -3.0253 0.5334c -0.2145,-1.2164 -0.4290,-2.4329 -0.6435 -3.6493c -17.3326,3.0562 -34.6652,6.1124 -51.9978 9.1686c 0.2145,1.2164 0.4290,2.4329 0.6435 3.6493c -1.0084,0.1778 -2.0169,0.3556 -3.0253 0.5335ZM 721.3708,498.9403 c 0.7657,4.3426 1.5314,8.6852 2.2971 13.0278c 1.0085,-0.1778 2.0169,-0.3556 3.0253 -0.5335c 1.0958,6.2146 2.1916,12.4291 3.2874 18.6437c -1.0085,0.1778 -2.0169,0.3556 -3.0254 0.5334c 0.7658,4.3426 1.5315,8.6852 2.2972 13.0278c 1.0085,-0.1778 2.0169,-0.3556 3.0253 -0.5335c 0.2145,1.2164 0.4290,2.4329 0.6435 3.6493c 17.3326,-3.0562 34.6652,-6.1124 51.9978 -9.1686c -0.2145,-1.2164 -0.4290,-2.4329 -0.6435 -3.6493c 1.0084,-0.1778 2.0169,-0.3556 3.0253 -0.5334c -0.7657,-4.3426 -1.5315,-8.6851 -2.2972 -13.0278c -1.0084,0.1778 -2.0169,0.3556 -3.0253 0.5335c -1.0958,-6.2146 -2.1916,-12.4291 -3.2874 -18.6437c 1.0085,-0.1778 2.0169,-0.3556 3.0253 -0.5334c -0.7657,-4.3426 -1.5314,-8.6852 -2.2971 -13.0278c -1.0085,0.1778 -2.0169,0.3556 -3.0253 0.5335c -0.2145,-1.2164 -0.4290,-2.4329 -0.6435 -3.6493c -17.3326,3.0562 -34.6652,6.1124 -51.9978 9.1686c 0.2145,1.2164 0.4289,2.4329 0.6435 3.6493c -1.0085,0.1778 -2.0169,0.3556 -3.0253 0.5334ZM 733.8406,569.6604 c 0.7657,4.3426 1.5315,8.6851 2.2972 13.0277c 1.0084,-0.1778 2.0169,-0.3556 3.0253 -0.5334c 1.0958,6.2145 2.1916,12.4291 3.2874 18.6436c -1.0085,0.1778 -2.0169,0.3556 -3.0253 0.5335c 0.7657,4.3426 1.5314,8.6851 2.2971 13.0277c 1.0085,-0.1778 2.0169,-0.3556 3.0254 -0.5334c 0.2145,1.2164 0.4290,2.4329 0.6435 3.6493c 17.3326,-3.0562 34.6652,-6.1124 51.9978 -9.1686c -0.2145,-1.2164 -0.4290,-2.4329 -0.6435 -3.6493c 1.0085,-0.1778 2.0169,-0.3556 3.0253 -0.5335c -0.7657,-4.3426 -1.5314,-8.6851 -2.2971 -13.0277c -1.0085,0.1778 -2.0169,0.3556 -3.0253 0.5334c -1.0958,-6.2146 -2.1916,-12.4291 -3.2874 -18.6436c 1.0085,-0.1778 2.0169,-0.3556 3.0254 -0.5335c -0.7658,-4.3426 -1.5315,-8.6851 -2.2972 -13.0277c -1.0085,0.1778 -2.0169,0.3556 -3.0253 0.5334c -0.2145,-1.2164 -0.4290,-2.4329 -0.6435 -3.6493c -17.3327,3.0562 -34.6653,6.1124 -51.9979 9.1686c 0.2145,1.2164 0.4290,2.4329 0.6435 3.6493c -1.0085,0.1778 -2.0169,0.3556 -3.0254 0.5335ZM 746.3105,640.3804 c 0.7657,4.3426 1.5314,8.6851 2.2971 13.0277c 1.0085,-0.1778 2.0169,-0.3556 3.0253 -0.5334c 1.0958,6.2146 2.1916,12.4291 3.2874 18.6437c -1.0085,0.1778 -2.0169,0.3556 -3.0254 0.5334c 0.7658,4.3426 1.5315,8.6852 2.2972 13.0278c 1.0085,-0.1778 2.0169,-0.3556 3.0253 -0.5335c 0.2145,1.2164 0.4290,2.4329 0.6435 3.6493c 17.3326,-3.0562 34.6652,-6.1124 51.9978 -9.1686c -0.2145,-1.2164 -0.4290,-2.4329 -0.6435 -3.6493c 1.0084,-0.1778 2.0169,-0.3556 3.0253 -0.5334c -0.7657,-4.3426 -1.5315,-8.6852 -2.2972 -13.0278c -1.0084,0.1778 -2.0169,0.3556 -3.0253 0.5335c -1.0958,-6.2146 -2.1916,-12.4291 -3.2874 -18.6437c 1.0085,-0.1778 2.0169,-0.3556 3.0253 -0.5334c -0.7657,-4.3426 -1.5314,-8.6852 -2.2971 -13.0278c -1.0085,0.1778 -2.0169,0.3556 -3.0253 0.5335c -0.2145,-1.2164 -0.4290,-2.4329 -0.6435 -3.6493c -17.3326,3.0562 -34.6652,6.1124 -51.9978 9.1686c 0.2145,1.2164 0.4290,2.4329 0.6435 3.6493c -1.0085,0.1778 -2.0169,0.3556 -3.0253 0.5335ZM 758.7803,711.1004 c 0.7657,4.3426 1.5315,8.6852 2.2972 13.0278c 1.0084,-0.1778 2.0169,-0.3556 3.0253 -0.5335c 1.0958,6.2146 2.1916,12.4291 3.2874 18.6437c -1.0084,0.1778 -2.0169,0.3556 -3.0253 0.5335c 0.7657,4.3426 1.5314,8.6851 2.2971 13.0277c 1.0085,-0.1778 2.0169,-0.3556 3.0254 -0.5334c 0.2145,1.2164 0.4290,2.4329 0.6435 3.6493c 17.3326,-3.0562 34.6652,-6.1124 51.9978 -9.1686c -0.2145,-1.2164 -0.4289,-2.4329 -0.6435 -3.6493c 1.0085,-0.1778 2.0169,-0.3556 3.0253 -0.5335c -0.7657,-4.3426 -1.5314,-8.6851 -2.2971 -13.0277c -1.0085,0.1778 -2.0169,0.3556 -3.0253 0.5334c -1.0958,-6.2146 -2.1916,-12.4291 -3.2874 -18.6437c 1.0085,-0.1778 2.0169,-0.3556 3.0254 -0.5334c -0.7658,-4.3426 -1.5315,-8.6852 -2.2972 -13.0278c -1.0085,0.1778 -2.0169,0.3556 -3.0253 0.5335c -0.2145,-1.2164 -0.4290,-2.4329 -0.6435 -3.6493c -17.3327,3.0562 -34.6653,6.1124 -51.9979 9.1686c 0.2145,1.2164 0.4290,2.4329 0.6435 3.6493c -1.0085,0.1778 -2.0169,0.3556 -3.0254 0.5334ZM 795.3724,505.0810 c 0.7657,4.3426 1.5314,8.6852 2.2971 13.0278c 1.0085,-0.1778 2.0169,-0.3556 3.0254 -0.5335c 1.0958,6.2146 2.1916,12.4291 3.2874 18.6437c -1.0085,0.1778 -2.0169,0.3556 -3.0253 0.5335c 0.7657,4.3426 1.5314,8.6851 2.2971 13.0277c 1.0085,-0.1778 2.0169,-0.3556 3.0253 -0.5334c 0.2145,1.2164 0.4290,2.4329 0.6435 3.6493c 17.3326,-3.0562 34.6652,-6.1124 51.9978 -9.1686c -0.2145,-1.2164 -0.4290,-2.4329 -0.6435 -3.6493c 1.0084,-0.1778 2.0169,-0.3556 3.0253 -0.5335c -0.7657,-4.3426 -1.5314,-8.6851 -2.2972 -13.0277c -1.0084,0.1778 -2.0169,0.3556 -3.0253 0.5334c -1.0958,-6.2146 -2.1916,-12.4291 -3.2874 -18.6437c 1.0085,-0.1778 2.0169,-0.3556 3.0253 -0.5334c -0.7657,-4.3426 -1.5314,-8.6852 -2.2971 -13.0278c -1.0085,0.1778 -2.0169,0.3556 -3.0253 0.5335c -0.2145,-1.2164 -0.4290,-2.4329 -0.6435 -3.6493c -17.3326,3.0562 -34.6652,6.1124 -51.9978 9.1686c 0.2145,1.2164 0.4290,2.4329 0.6435 3.6493c -1.0085,0.1778 -2.0169,0.3556 -3.0253 0.5334ZM 807.8423,575.8011 c 0.7657,4.3426 1.5314,8.6851 2.2971 13.0277c 1.0085,-0.1778 2.0169,-0.3556 3.0253 -0.5334c 1.0958,6.2146 2.1916,12.4291 3.2874 18.6436c -1.0084,0.1778 -2.0169,0.3556 -3.0253 0.5335c 0.7657,4.3426 1.5314,8.6851 2.2972 13.0277c 1.0084,-0.1778 2.0169,-0.3556 3.0253 -0.5334c 0.2145,1.2164 0.4290,2.4329 0.6435 3.6493c 17.3326,-3.0562 34.6652,-6.1124 51.9979 -9.1686c -0.2145,-1.2164 -0.4290,-2.4329 -0.6435 -3.6493c 1.0085,-0.1778 2.0169,-0.3556 3.0253 -0.5335c -0.7657,-4.3426 -1.5314,-8.6851 -2.2971 -13.0277c -1.0085,0.1778 -2.0169,0.3556 -3.0253 0.5335c -1.0958,-6.2146 -2.1916,-12.4291 -3.2874 -18.6437c 1.0084,-0.1778 2.0169,-0.3556 3.0253 -0.5335c -0.7657,-4.3426 -1.5314,-8.6851 -2.2972 -13.0277c -1.0084,0.1778 -2.0169,0.3556 -3.0253 0.5334c -0.2145,-1.2164 -0.4290,-2.4329 -0.6435 -3.6493c -17.3326,3.0562 -34.6653,6.1124 -51.9979 9.1686c 0.2145,1.2164 0.4290,2.4329 0.6435 3.6493c -1.0085,0.1778 -2.0169,0.3556 -3.0253 0.5335ZM 820.3121,646.5211 c 0.7657,4.3426 1.5314,8.6852 2.2971 13.0278c 1.0085,-0.1778 2.0169,-0.3556 3.0254 -0.5335c 1.0958,6.2146 2.1916,12.4291 3.2874 18.6437c -1.0085,0.1778 -2.0169,0.3556 -3.0253 0.5334c 0.7657,4.3426 1.5314,8.6852 2.2971 13.0278c 1.0085,-0.1778 2.0169,-0.3556 3.0253 -0.5335c 0.2145,1.2164 0.4290,2.4329 0.6435 3.6493c 17.3326,-3.0562 34.6652,-6.1124 51.9978 -9.1686c -0.2145,-1.2164 -0.4290,-2.4329 -0.6435 -3.6493c 1.0084,-0.1778 2.0169,-0.3556 3.0253 -0.5334c -0.7657,-4.3426 -1.5314,-8.6852 -2.2971 -13.0278c -1.0085,0.1778 -2.0169,0.3556 -3.0254 0.5335c -1.0958,-6.2146 -2.1916,-12.4291 -3.2874 -18.6437c 1.0085,-0.1778 2.0169,-0.3556 3.0253 -0.5334c -0.7657,-4.3426 -1.5314,-8.6852 -2.2971 -13.0278c -1.0085,0.1778 -2.0169,0.3556 -3.0253 0.5335c -0.2145,-1.2164 -0.4290,-2.4329 -0.6435 -3.6493c -17.3326,3.0562 -34.6652,6.1124 -51.9978 9.1686c 0.2145,1.2164 0.4290,2.4329 0.6435 3.6493c -1.0085,0.1778 -2.0169,0.3556 -3.0253 0.5334ZM 832.7820,717.2412 c 0.7657,4.3426 1.5314,8.6851 2.2971 13.0277c 1.0085,-0.1778 2.0169,-0.3556 3.0253 -0.5334c 1.0958,6.2145 2.1916,12.4291 3.2874 18.6436c -1.0084,0.1778 -2.0169,0.3556 -3.0253 0.5335c 0.7657,4.3426 1.5314,8.6851 2.2972 13.0277c 1.0084,-0.1778 2.0169,-0.3556 3.0253 -0.5334c 0.2145,1.2164 0.4290,2.4329 0.6435 3.6493c 17.3326,-3.0562 34.6652,-6.1124 51.9979 -9.1686c -0.2145,-1.2164 -0.4290,-2.4329 -0.6435 -3.6493c 1.0085,-0.1778 2.0169,-0.3556 3.0253 -0.5335c -0.7657,-4.3426 -1.5314,-8.6851 -2.2971 -13.0277c -1.0085,0.1778 -2.0169,0.3556 -3.0253 0.5334c -1.0958,-6.2146 -2.1916,-12.4291 -3.2874 -18.6436c 1.0084,-0.1778 2.0169,-0.3556 3.0253 -0.5335c -0.7657,-4.3426 -1.5314,-8.6851 -2.2972 -13.0278c -1.0084,0.1778 -2.0169,0.3557 -3.0253 0.5335c -0.2145,-1.2164 -0.4290,-2.4329 -0.6435 -3.6493c -17.3326,3.0562 -34.6653,6.1124 -51.9979 9.1686c 0.2145,1.2164 0.4290,2.4329 0.6435 3.6493c -1.0085,0.1778 -2.0169,0.3556 -3.0253 0.5335ZM 868.0614,503.7775 c 0.7657,4.3426 1.5314,8.6851 2.2971 13.0277c 1.0085,-0.1778 2.0169,-0.3556 3.0254 -0.5334c 1.0958,6.2146 2.1916,12.4291 3.2874 18.6437c -1.0085,0.1778 -2.0169,0.3556 -3.0253 0.5334c 0.7657,4.3426 1.5314,8.6851 2.2971 13.0278c 1.0085,-0.1778 2.0169,-0.3556 3.0253 -0.5335c 0.2145,1.2164 0.4290,2.4329 0.6435 3.6493c 17.3326,-3.0562 34.6652,-6.1124 51.9978 -9.1686c -0.2145,-1.2164 -0.4290,-2.4329 -0.6435 -3.6493c 1.0084,-0.1778 2.0169,-0.3556 3.0253 -0.5334c -0.7657,-4.3426 -1.5314,-8.6852 -2.2971 -13.0278c -1.0085,0.1778 -2.0169,0.3556 -3.0254 0.5335c -1.0958,-6.2146 -2.1916,-12.4291 -3.2874 -18.6437c 1.0085,-0.1778 2.0169,-0.3556 3.0253 -0.5335c -0.7657,-4.3426 -1.5314,-8.6851 -2.2971 -13.0277c -1.0085,0.1778 -2.0169,0.3556 -3.0253 0.5334c -0.2145,-1.2164 -0.4290,-2.4329 -0.6435 -3.6493c -17.3326,3.0562 -34.6652,6.1124 -51.9978 9.1686c 0.2145,1.2164 0.4290,2.4329 0.6435 3.6493c -1.0084,0.1778 -2.0169,0.3556 -3.0253 0.5335ZM 880.5312,574.4975 c 0.7658,4.3426 1.5315,8.6852 2.2972 13.0278c 1.0085,-0.1778 2.0169,-0.3556 3.0253 -0.5335c 1.0958,6.2146 2.1916,12.4291 3.2874 18.6437c -1.0084,0.1778 -2.0169,0.3556 -3.0253 0.5334c 0.7657,4.3426 1.5314,8.6852 2.2972 13.0278c 1.0084,-0.1778 2.0169,-0.3556 3.0253 -0.5335c 0.2145,1.2164 0.4290,2.4329 0.6435 3.6493c 17.3326,-3.0562 34.6652,-6.1124 51.9979 -9.1686c -0.2145,-1.2164 -0.4290,-2.4329 -0.6435 -3.6493c 1.0085,-0.1778 2.0169,-0.3556 3.0253 -0.5335c -0.7657,-4.3426 -1.5314,-8.6852 -2.2971 -13.0278c -1.0085,0.1778 -2.0169,0.3556 -3.0253 0.5335c -1.0958,-6.2146 -2.1916,-12.4291 -3.2874 -18.6437c 1.0084,-0.1778 2.0169,-0.3556 3.0253 -0.5334c -0.7657,-4.3426 -1.5315,-8.6852 -2.2972 -13.0278c -1.0084,0.1778 -2.0169,0.3556 -3.0253 0.5335c -0.2145,-1.2164 -0.4290,-2.4329 -0.6435 -3.6493c -17.3326,3.0562 -34.6652,6.1124 -51.9979 9.1686c 0.2145,1.2164 0.4290,2.4329 0.6435 3.6493c -1.0085,0.1778 -2.0169,0.3556 -3.0254 0.5334ZM 893.0011,645.2176 c 0.7657,4.3426 1.5314,8.6851 2.2971 13.0277c 1.0085,-0.1778 2.0169,-0.3556 3.0254 -0.5334c 1.0958,6.2146 2.1916,12.4291 3.2874 18.6436c -1.0085,0.1778 -2.0169,0.3556 -3.0253 0.5335c 0.7657,4.3426 1.5314,8.6851 2.2971 13.0277c 1.0085,-0.1778 2.0169,-0.3556 3.0253 -0.5334c 0.2145,1.2164 0.4290,2.4329 0.6435 3.6493c 17.3326,-3.0562 34.6652,-6.1124 51.9978 -9.1686c -0.2145,-1.2164 -0.4290,-2.4329 -0.6435 -3.6493c 1.0084,-0.1778 2.0169,-0.3556 3.0253 -0.5335c -0.7657,-4.3426 -1.5314,-8.6851 -2.2971 -13.0277c -1.0085,0.1778 -2.0169,0.3556 -3.0254 0.5334c -1.0958,-6.2145 -2.1916,-12.4291 -3.2874 -18.6436c 1.0085,-0.1778 2.0169,-0.3556 3.0253 -0.5335c -0.7657,-4.3426 -1.5314,-8.6851 -2.2971 -13.0277c -1.0085,0.1778 -2.0169,0.3556 -3.0253 0.5334c -0.2145,-1.2164 -0.4290,-2.4329 -0.6435 -3.6493c -17.3326,3.0562 -34.6652,6.1124 -51.9978 9.1686c 0.2145,1.2164 0.4290,2.4329 0.6435 3.6493c -1.0084,0.1778 -2.0169,0.3556 -3.0253 0.5335ZM 905.4709,715.9376 c 0.7658,4.3426 1.5315,8.6851 2.2972 13.0278c 1.0085,-0.1778 2.0169,-0.3556 3.0253 -0.5335c 1.0958,6.2146 2.1916,12.4291 3.2874 18.6437c -1.0084,0.1778 -2.0169,0.3556 -3.0253 0.5334c 0.7657,4.3426 1.5314,8.6852 2.2972 13.0278c 1.0084,-0.1778 2.0169,-0.3556 3.0253 -0.5335c 0.2145,1.2164 0.4290,2.4329 0.6435 3.6493c 17.3326,-3.0562 34.6652,-6.1124 51.9979 -9.1686c -0.2145,-1.2164 -0.4290,-2.4329 -0.6435 -3.6493c 1.0085,-0.1778 2.0169,-0.3556 3.0253 -0.5334c -0.7657,-4.3426 -1.5314,-8.6852 -2.2971 -13.0278c -1.0085,0.1778 -2.0169,0.3556 -3.0253 0.5335c -1.0958,-6.2146 -2.1916,-12.4291 -3.2874 -18.6437c 1.0084,-0.1778 2.0169,-0.3556 3.0253 -0.5334c -0.7657,-4.3426 -1.5314,-8.6852 -2.2972 -13.0278c -1.0084,0.1778 -2.0169,0.3556 -3.0253 0.5335c -0.2145,-1.2164 -0.4290,-2.4329 -0.6435 -3.6493c -17.3326,3.0562 -34.6652,6.1124 -51.9979 9.1686c 0.2145,1.2164 0.4290,2.4329 0.6435 3.6493c -1.0085,0.1778 -2.0169,0.3557 -3.0254 0.5335ZM 940.6114,465.8351 c 0.0000,3.1311 2.5382,5.6693 5.6693 5.6693c 3.1311,-0.0000 5.6693,-2.5382 5.6693 -5.6693c 0.0000,-3.1311 -2.5382,-5.6693 -5.6693 -5.6693c -3.1311,-0.0000 -5.6693,2.5382 -5.6693 5.6693ZM 994.9274,766.3178 c 0.0000,3.1311 2.5383,5.6693 5.6693 5.6693c 3.1310,-0.0000 5.6693,-2.5383 5.6693 -5.6693c 0.0000,-3.1311 -2.5383,-5.6693 -5.6693 -5.6693c -3.1311,-0.0000 -5.6693,2.5382 -5.6693 5.6693Z"/></g><g stroke-linejoin="miter" stroke-opacity="1.0" fill-opacity="0.5" stroke="rgb(0,0,0)" stroke-width="0.37795275590551186" fill="rgb(0,0,255)" stroke-linecap="butt" stroke-miterlimit="10.0"><path d="M 468.0642,221.5459 h -3.0465 l -0.6321,-2.1983 l -0.7522,-1.8955 l -0.8566,-1.5947 l -0.9453,-1.2961 l -1.0184,-0.9995 l -1.0758,-0.7051 l -1.1176,-0.4127 l -1.1436,-0.1223 l -1.1541,0.1659 l -1.1488,0.4521 l -1.1279,0.7362 l -1.0914,1.0182 l -1.0392,1.2982 l -0.9713,1.5761 l -0.8877,1.8518 l -0.7885,2.1256 h -3.0465 l 8.9944,-27.0453 h 3.8547 l 8.9944,27.0453 ZM 491.3584,203.6401 h -2.4247 l -0.4789,-1.1290 l -0.3086,-1.1480 l -0.5877,-2.1495 l -0.5198,-0.8997 l -0.8310,-0.7152 l -1.2625,-0.4798 l -1.8143,-0.1934 v 22.1958 h 4.3521 v 2.4247 h -11.5849 v -2.4247 h 4.3728 v -22.1958 l -1.8376,0.1564 l -1.1777,0.3931 l -0.6889,0.6090 l -0.3712,0.8041 l -0.4731,2.1105 l -0.4440,1.2648 l -0.8103,1.3768 h -2.4248 v -9.1394 h 19.3151 v 9.1394 ZM 513.8858,221.5459 h -3.6060 l -7.8960,-11.5849 h -4.2070 v 11.5849 h -2.8392 v -14.0089 l 2.8392,-0.0007 h 6.0722 l 2.6631,-0.3109 l 1.0906,-0.3886 l 0.9300,-0.5440 l 0.7525,-0.7279 l 0.5375,-0.9196 l 0.3225,-1.1113 l 0.1075,-1.3031 h 0.0000 l -0.1075,-1.2849 l -0.3225,-1.0984 l -0.5375,-0.9119 l -0.7525,-0.7254 l -0.9300,-0.5621 l -1.0906,-0.4015 l -2.6631,-0.3212 h -6.0722 l -2.8392,-0.0003 v -2.4244 h 8.9115 l 2.1022,0.1218 l 1.8509,0.3653 l 1.5997,0.6088 l 1.3484,0.8523 l 1.0699,1.0842 l 0.7642,1.3251 l 0.4585,1.5660 l 0.1528,1.8069 l -0.1503,1.6165 l -0.4507,1.4507 l -0.7098,1.2487 l -0.9274,1.0518 l -1.1398,0.8601 l -1.3471,0.6735 l -1.4973,0.4663 l -1.6320,0.2383 l 8.1447,11.7092 ZM 535.1489,221.5459 h -17.2841 v -27.0453 h 17.2841 v 2.4247 h -14.4449 v 9.6783 h 10.6523 v 2.4247 h -10.6523 v 10.0928 h 14.4449 v 2.4247 ZM 556.4121,211.6708 l -0.1295,2.1916 l -0.3886,1.9740 l -0.6425,1.7305 l -0.9326,1.4611 l -1.2020,1.1606 l -1.4921,0.8704 l -1.7875,0.5440 l -2.0880,0.1813 l -2.1035,-0.1813 l -1.7927,-0.5440 l -1.4766,-0.8704 l -1.1968,-1.1606 l -0.9067,-1.4662 l -0.6476,-1.7460 l -0.3730,-1.9895 l -0.1243,-2.1968 v -17.3670 h 2.8392 v 17.4084 l 0.2072,2.5905 l 0.3264,1.3056 l 0.5233,1.1813 l 0.7616,1.0259 l 0.9999,0.8393 l 1.3108,0.5596 l 1.6528,0.1865 l 1.6528,-0.1865 l 1.3108,-0.5596 l 1.0258,-0.8393 l 0.7564,-1.0259 l 0.5336,-1.1813 l 0.3161,-1.3056 l 0.2072,-2.5905 v -17.4084 h 2.8600 v 17.4084 ZM 578.5042,214.4893 l -0.1762,1.6217 l -0.5285,1.4663 l -0.8238,1.2745 l -1.0621,1.0880 l -1.2694,0.8808 l -1.4455,0.6528 l -1.5647,0.4041 l -1.6269,0.1347 l -2.1864,-0.2124 l -1.9999,-0.6373 l -1.4102,-0.9698 l -0.5256,-0.4111 l -0.3142,0.3726 l -0.7758,1.3814 h -2.4040 v -8.2276 h 2.4040 l 0.1606,1.3315 l 0.4818,1.2175 l 0.7305,1.0621 l 0.9067,0.9067 l 1.0673,0.7409 l 1.2124,0.5647 l 1.3160,0.3420 l 1.3367,0.1140 l 2.2175,-0.3316 l 1.7823,-0.9740 l 0.6839,-0.7098 l 0.5181,-0.8445 l 0.3419,-0.9740 l 0.1140,-1.0984 l -0.1451,-1.2124 l -0.4352,-1.0259 l -0.6632,-0.8652 l -0.8704,-0.7305 l -2.1553,-1.1191 l -2.4455,-0.9326 l -2.9429,-1.0777 l -1.3937,-0.6528 l -1.2383,-0.7979 l -1.0518,-0.9637 l -0.8342,-1.1502 l -0.5440,-1.4144 l -0.1813,-1.7149 l 0.1762,-1.5647 l 0.5285,-1.3782 l 0.8134,-1.2020 l 1.0310,-0.9948 l 1.2331,-0.7823 l 1.4196,-0.5648 l 1.5336,-0.3575 l 1.5751,-0.1192 l 1.8309,0.1694 l 1.3454,0.2965 l 1.6048,0.6559 l 0.7737,0.2090 l 0.6832,-0.8748 h 2.5076 v 7.7302 h -2.5076 l -0.1295,-1.1813 l -0.3886,-1.0984 l -0.5907,-0.9948 l -0.7772,-0.8290 l -0.9326,-0.6839 l -1.0569,-0.5181 l -1.1502,-0.3419 l -1.2124,-0.1140 l -2.0932,0.2487 l -1.7408,0.8083 l -0.6735,0.6217 l -0.5285,0.7875 l -0.3264,0.9533 l -0.1088,1.1191 l 0.1295,0.9792 l 0.3886,0.8238 l 1.4300,1.3264 l 2.0517,1.0362 l 2.4040,0.9326 l 3.0465,1.2020 l 2.7149,1.5958 l 1.0932,1.0414 l 0.8756,1.2590 l 0.5751,1.4973 l 0.1917,1.7978 ZM 3.9685,328.4038 c 0.0000,7.4591 5.1143,14.1502 12.6116 15.9229c 115.6172,27.3380 231.2344,54.6759 346.8516 82.0139c 1.2349,0.2920 2.4996,0.4395 3.7687 0.4395c 48.3874,-0.0000 96.7748,-0.0000 145.1622 0.0000c 48.3874,-0.0000 96.7748,-0.0000 145.1622 0.0000c 1.2690,-0.0000 2.5337,-0.1475 3.7687 -0.4395c 115.6172,-27.3379 231.2344,-54.6759 346.8516 -82.0139c 7.4973,-1.7728 12.6116,-8.4638 12.6116 -15.9229c 0.0000,-0.9437 -0.0819,-1.8997 -0.2512 -2.8595c -18.1054,-102.6806 -36.2107,-205.3612 -54.3161 -308.0418c -1.3801,-7.8274 -8.1810,-13.5340 -16.1291 -13.5340c -145.8992,-0.0000 -291.7985,-0.0000 -437.6977 0.0000c -145.8992,-0.0000 -291.7985,-0.0000 -437.6977 0.0000c -7.9481,-0.0000 -14.7490,5.7066 -16.1291 13.5340c -18.1054,102.6806 -36.2107,205.3612 -54.3161 308.0418c -0.1693,0.9599 -0.2512,1.9158 -0.2512 2.8595ZM 18.4590,324.6087 c 0.0000,-3.1311 2.5383,-5.6693 5.6693 -5.6693c 3.1311,-0.0000 5.6693,2.5382 5.6693 5.6693c 0.0000,3.1311 -2.5383,5.6693 -5.6693 5.6693c -3.1310,-0.0000 -5.6693,-2.5383 -5.6693 -5.6693ZM 39.3377,321.6935 c 0.0000,-0.2178 0.0189,-0.4387 0.0581 -0.6607c 4.1566,-23.5734 8.3132,-47.1467 12.4698 -70.7201c 0.1575,-0.8933 0.3150,-1.7866 0.4725 -2.6799c 3.9991,-22.6800 7.9982,-45.3601 11.9973 -68.0401c 0.1575,-0.8933 0.3150,-1.7866 0.4725 -2.6799c 3.9991,-22.6800 7.9982,-45.3601 11.9973 -68.0401c 0.1575,-0.8933 0.3150,-1.7866 0.4725 -2.6799c 4.1566,-23.5733 8.3132,-47.1467 12.4699 -70.7201c 0.3625,-2.0556 2.3227,-3.4282 4.3784 -3.0658c 22.3326,3.9378 44.6653,7.8757 66.9980 11.8135c 0.4375,-2.4814 0.8750,-4.9628 1.3126 -7.4442c 0.3625,-2.0556 2.3227,-3.4283 4.3784 -3.0658c 22.3326,3.9378 44.6653,7.8757 66.9979 11.8135c 0.8751,-4.9628 1.7502,-9.9256 2.6253 -14.8884c 0.3625,-2.0557 2.3227,-3.4283 4.3784 -3.0658c 24.4666,4.3141 48.9333,8.6282 73.4000 12.9424c 1.8336,0.3233 3.1238,1.9180 3.1238 3.7177c 0.0000,0.2178 -0.0189,0.4387 -0.0581 0.6607c -1.0938,6.2035 -2.1877,12.4071 -3.2815 18.6106c 22.3326,3.9378 44.6653,7.8757 66.9979 11.8135c 1.8336,0.3233 3.1238,1.9180 3.1238 3.7177c 0.0000,0.2179 -0.0189,0.4387 -0.0581 0.6607c -0.8751,4.9628 -1.7501,9.9256 -2.6252 14.8884c 22.3326,3.9379 44.6653,7.8757 66.9979 11.8135c 1.8337,0.3233 3.1238,1.9180 3.1238 3.7177c 0.0000,0.2179 -0.0189,0.4387 -0.0580 0.6607c -4.1566,23.5733 -8.3132,47.1467 -12.4699 70.7200c -0.1575,0.8933 -0.3150,1.7866 -0.4725 2.6799c -3.9991,22.6800 -7.9982,45.3601 -11.9973 68.0401c -0.1575,0.8933 -0.3150,1.7866 -0.4725 2.6799c -1.7020,9.6527 -3.4041,19.3054 -5.1061 28.9580c 22.3326,3.9378 44.6653,7.8757 66.9979 11.8135c 1.8337,0.3233 3.1238,1.9180 3.1238 3.7177c 0.0000,0.2179 -0.0189,0.4387 -0.0580 0.6607c -4.3141,24.4666 -8.6282,48.9333 -12.9424 73.4000c -0.3625,2.0556 -2.3228,3.4283 -4.3784 3.0658c -22.3326,-3.9379 -44.6653,-7.8757 -66.9979 -11.8136c -1.8596,10.5460 -3.7191,21.0919 -5.5786 31.6379c -0.3625,2.0557 -2.3227,3.4283 -4.3784 3.0658c -24.4666,-4.3141 -48.9333,-8.6282 -73.4000 -12.9424c -1.8336,-0.3233 -3.1238,-1.9180 -3.1238 -3.7177c 0.0000,-0.2178 0.0189,-0.4387 0.0580 -0.6607c 0.8751,-4.9628 1.7502,-9.9256 2.6253 -14.8885c -22.3327,-3.9378 -44.6653,-7.8757 -66.9980 -11.8135c -1.8336,-0.3233 -3.1238,-1.9180 -3.1238 -3.7177c 0.0000,-0.2179 0.0190,-0.4387 0.0581 -0.6607c 1.0939,-6.2035 2.1877,-12.4070 3.2816 -18.6105c -20.1987,-3.5616 -40.3973,-7.1231 -60.5960 -10.6847c -0.8750,4.9628 -1.7501,9.9256 -2.6252 14.8885c -0.3625,2.0556 -2.3227,3.4283 -4.3784 3.0658c -22.3326,-3.9379 -44.6653,-7.8757 -66.9979 -11.8135c -0.4375,2.4814 -0.8751,4.9628 -1.3126 7.4442c -0.3625,2.0557 -2.3227,3.4283 -4.3784 3.0658c -24.4666,-4.3141 -48.9333,-8.6282 -73.4000 -12.9424c -1.8336,-0.3233 -3.1238,-1.9180 -3.1238 -3.7177ZM 72.7751,24.1260 c 0.0000,-3.1311 2.5382,-5.6693 5.6693 -5.6693c 3.1311,-0.0000 5.6693,2.5382 5.6693 5.6693c 0.0000,3.1311 -2.5382,5.6693 -5.6693 5.6693c -3.1311,-0.0000 -5.6693,-2.5382 -5.6693 -5.6693ZM 361.5310,406.6226 c 0.0000,-3.1311 2.5382,-5.6693 5.6693 -5.6693c 3.1311,-0.0000 5.6693,2.5382 5.6693 5.6693c 0.0000,3.1311 -2.5382,5.6693 -5.6693 5.6693c -3.1311,-0.0000 -5.6693,-2.5383 -5.6693 -5.6693ZM 431.1027,24.1260 c 0.0000,-3.1311 2.5382,-5.6693 5.6693 -5.6693c 3.1311,-0.0000 5.6693,2.5382 5.6693 5.6693c 0.0000,3.1311 -2.5382,5.6693 -5.6693 5.6693c -3.1311,-0.0000 -5.6693,-2.5382 -5.6693 -5.6693ZM 533.6184,299.3826 c 0.0000,-1.7997 1.2902,-3.3943 3.1238 -3.7177c 22.3326,-3.9379 44.6653,-7.8757 66.9979 -11.8135c -1.7020,-9.6527 -3.4041,-19.3054 -5.1061 -28.9580c -0.1575,-0.8933 -0.3150,-1.7866 -0.4725 -2.6799c -3.9991,-22.6800 -7.9982,-45.3601 -11.9973 -68.0401c -0.1575,-0.8933 -0.3151,-1.7866 -0.4725 -2.6799c -4.1566,-23.5733 -8.3132,-47.1467 -12.4699 -70.7200c -0.0391,-0.2220 -0.0580,-0.4429 -0.0580 -0.6607c 0.0000,-1.7996 1.2902,-3.3943 3.1238 -3.7177c 22.3326,-3.9378 44.6653,-7.8757 66.9979 -11.8135c -0.8751,-4.9628 -1.7501,-9.9256 -2.6252 -14.8884c -0.0392,-0.2220 -0.0581,-0.4429 -0.0581 -0.6607c 0.0000,-1.7997 1.2902,-3.3943 3.1238 -3.7177c 22.3326,-3.9378 44.6653,-7.8757 66.9979 -11.8135c -1.0939,-6.2035 -2.1877,-12.4070 -3.2815 -18.6106c -0.0392,-0.2220 -0.0581,-0.4429 -0.0581 -0.6607c 0.0000,-1.7997 1.2902,-3.3943 3.1238 -3.7177c 24.4667,-4.3142 48.9333,-8.6283 73.4000 -12.9424c 2.0557,-0.3625 4.0160,1.0101 4.3784 3.0658c 0.8751,4.9628 1.7502,9.9256 2.6253 14.8884c 22.3326,-3.9378 44.6653,-7.8757 66.9979 -11.8135c 2.0557,-0.3625 4.0160,1.0102 4.3784 3.0658c 0.4376,2.4814 0.8751,4.9628 1.3126 7.4442c 22.3326,-3.9379 44.6653,-7.8757 66.9980 -11.8135c 2.0556,-0.3625 4.0159,1.0101 4.3784 3.0658c 4.1566,23.5734 8.3132,47.1467 12.4699 70.7201c 0.1575,0.8933 0.3150,1.7866 0.4725 2.6799c 3.9991,22.6800 7.9982,45.3601 11.9973 68.0401c 0.1575,0.8933 0.3151,1.7866 0.4725 2.6799c 3.9991,22.6800 7.9982,45.3601 11.9973 68.0401c 0.1575,0.8933 0.3150,1.7866 0.4725 2.6799c 4.1566,23.5733 8.3132,47.1467 12.4698 70.7201c 0.0392,0.2220 0.0581,0.4429 0.0581 0.6607c 0.0000,1.7997 -1.2902,3.3944 -3.1238 3.7177c -24.4667,4.3141 -48.9333,8.6282 -73.4000 12.9424c -2.0557,0.3625 -4.0160,-1.0101 -4.3784 -3.0658c -0.4375,-2.4814 -0.8751,-4.9628 -1.3126 -7.4442c -22.3326,3.9378 -44.6653,7.8757 -66.9979 11.8135c -2.0557,0.3625 -4.0160,-1.0102 -4.3784 -3.0658c -0.8751,-4.9628 -1.7502,-9.9256 -2.6252 -14.8885c -20.1987,3.5616 -40.3973,7.1231 -60.5960 10.6847c 1.0939,6.2035 2.1877,12.4070 3.2816 18.6105c 0.0391,0.2220 0.0581,0.4429 0.0581 0.6607c 0.0000,1.7997 -1.2902,3.3943 -3.1238 3.7177c -22.3326,3.9379 -44.6653,7.8757 -66.9980 11.8135c 0.8751,4.9628 1.7502,9.9256 2.6253 14.8885c 0.0391,0.2220 0.0580,0.4429 0.0580 0.6607c 0.0000,1.7997 -1.2902,3.3944 -3.1238 3.7177c -24.4666,4.3141 -48.9333,8.6282 -73.4000 12.9424c -2.0557,0.3625 -4.0160,-1.0101 -4.3784 -3.0658c -1.8596,-10.5460 -3.7191,-21.0919 -5.5786 -31.6379c -22.3326,3.9379 -44.6653,7.8757 -66.9979 11.8136c -2.0556,0.3625 -4.0159,-1.0102 -4.3784 -3.0658c -4.3141,-24.4667 -8.6282,-48.9333 -12.9424 -73.4000c -0.0391,-0.2220 -0.0580,-0.4429 -0.0580 -0.6607ZM 582.2838,24.1260 c 0.0000,-3.1311 2.5382,-5.6693 5.6693 -5.6693c 3.1311,-0.0000 5.6693,2.5382 5.6693 5.6693c 0.0000,3.1311 -2.5382,5.6693 -5.6693 5.6693c -3.1311,-0.0000 -5.6693,-2.5382 -5.6693 -5.6693ZM 651.8554,406.6226 c 0.0000,-3.1311 2.5382,-5.6693 5.6693 -5.6693c 3.1311,-0.0000 5.6693,2.5382 5.6693 5.6693c 0.0000,3.1311 -2.5382,5.6693 -5.6693 5.6693c -3.1311,-0.0000 -5.6693,-2.5383 -5.6693 -5.6693ZM 940.6114,24.1260 c 0.0000,-3.1311 2.5382,-5.6693 5.6693 -5.6693c 3.1311,-0.0000 5.6693,2.5382 5.6693 5.6693c 0.0000,3.1311 -2.5382,5.6693 -5.6693 5.6693c -3.1311,-0.0000 -5.6693,-2.5382 -5.6693 -5.6693ZM 994.9274,324.6087 c 0.0000,-3.1311 2.5383,-5.6693 5.6693 -5.6693c 3.1310,-0.0000 5.6693,2.5382 5.6693 5.6693c 0.0000,3.1311 -2.5383,5.6693 -5.6693 5.6693c -3.1311,-0.0000 -5.6693,-2.5383 -5.6693 -5.6693Z"/></g></svg>