<?xml version="1.0" encoding="UTF-8"?>
<!DOCTYPE svg PUBLIC "-//W3C//DTD SVG 1.1//EN"
    "http://www.w3.org/Graphics/SVG/1.1/DTD/svg11.dtd"><svg xmlns="http://www.w3.org/2000/svg" height="553.7632" stroke-opacity="1" viewBox="0 0 615 554" font-size="1" width="614.9396" xmlns:xlink="http://www.w3.org/1999/xlink" stroke="rgb(0,0,0)" version="1.1"><defs></defs><g stroke-linejoin="miter" stroke-opacity="1.0" fill-opacity="0.5" stroke="rgb(0,0,0)" stroke-width="0.37795275590551186" fill="rgb(0,0,0)" stroke-linecap="butt" stroke-miterlimit="10.0"><path d="M 3.9685,20.3464 c 0.0000,-9.0453 7.3327,-16.3779 16.3780 -16.3779c 151.9892,-0.0000 303.9784,-0.0000 455.9675 -0.0000c 7.0427,-0.0000 13.2969,4.5023 15.5316 11.1811c 39.4251,117.8293 78.8503,235.6586 118.2754 353.4880c 0.5758,1.7210 0.8500,3.4730 0.8500 5.1974c 0.0000,6.5661 -3.9756,12.7306 -10.4104 15.2500c -135.8590,53.1941 -271.7179,106.3883 -407.5769 159.5824c -1.9027,0.7450 -3.9279,1.1273 -5.9712 1.1273c -55.5554,-0.0000 -111.1107,-0.0000 -166.6660 -0.0000c -9.0453,-0.0000 -16.3780,-7.3326 -16.3780 -16.3780c 0.0000,-57.0078 0.0000,-114.0156 0.0000 -171.0234c 0.0000,-114.0156 0.0000,-228.0312 0.0000 -342.0469ZM 118.6142,24.1260 c 0.0000,3.1311 2.5382,5.6693 5.6693 5.6693c 3.1311,-0.0000 5.6693,-2.5383 5.6693 -5.6693c 0.0000,-3.1311 -2.5382,-5.6693 -5.6693 -5.6693c -3.1311,-0.0000 -5.6693,2.5382 -5.6693 5.6693ZM 181.3432,529.6372 c 0.0000,3.1311 2.5382,5.6693 5.6693 5.6693c 3.1311,-0.0000 5.6693,-2.5383 5.6693 -5.6693c 0.0000,-3.1311 -2.5382,-5.6693 -5.6693 -5.6693c -3.1311,-0.0000 -5.6693,2.5382 -5.6693 5.6693ZM 466.8652,24.1260 c 0.0000,3.1311 2.5383,5.6693 5.6693 5.6693c 3.1311,-0.0000 5.6693,-2.5383 5.6693 -5.6693c 0.0000,-3.1311 -2.5382,-5.6693 -5.6693 -5.6693c -3.1311,-0.0000 -5.6693,2.5382 -5.6693 5.6693ZM 585.1406,370.0548 c 0.0000,3.1311 2.5382,5.6693 5.6693 5.6693c 3.1311,-0.0000 5.6693,-2.5383 5.6693 -5.6693c 0.0000,-3.1311 -2.5383,-5.6693 -5.6693 -5.6693c -3.1311,-0.0000 -5.6693,2.5382 -5.6693 5.6693Z"/></g><g stroke-linejoin="miter" stroke-opacity="1.0" fill-opacity="0.5" stroke="rgb(0,0,0)" stroke-width="0.37795275590551186" fill="rgb(255,0,0)" stroke-linecap="butt" stroke-miterlimit="10.0"><path d="M 3.9685,20.3464 c 0.0000,-9.0453 7.3327,-16.3779 16.3780 -16.3779c 151.9892,-0.0000 303.9784,-0.0000 455.9675 -0.0000c 7.0427,-0.0000 13.2969,4.5023 15.5316 11.1811c 39.4251,117.8293 78.8503,235.6586 118.2754 353.4879c 0.5758,1.7210 0.8500,3.4730 0.8500 5.1974c 0.0000,6.5661 -3.9756,12.7306 -10.4104 15.2501c -135.8589,53.1941 -271.7179,106.3883 -407.5769 159.5823c -1.9027,0.7450 -3.9279,1.1273 -5.9712 1.1273c -55.5554,-0.0000 -111.1107,-0.0000 -166.6660 -0.0000c -9.0453,-0.0000 -16.3780,-7.3326 -16.3780 -16.3780c 0.0000,-57.0078 0.0000,-114.0156 0.0000 -171.0234c 0.0000,-114.0156 0.0000,-228.0312 0.0000 -342.0469ZM 33.8446,46.9918 c 0.0000,51.0866 0.0000,102.1732 0.0000 153.2598c 0.0000,102.1733 0.0000,204.3465 0.0000 306.5198c 0.0000,8.1058 6.6478,14.6769 14.8483 14.6769c 41.3775,-0.0000 82.7551,-0.0000 124.1326 -0.0000c 2.8318,-4.8954 8.1248,-8.1890 14.1869 -8.1890c 6.0363,-0.0000 11.3098,3.2655 14.1505 8.1263c 1.3838,-0.1268 2.7450,-0.4452 4.0432 -0.9476c 123.1700,-47.6691 246.3400,-95.3381 369.5100 -143.0071c 0.4150,-0.1606 0.8187,-0.3378 1.2107 -0.5304c -0.9597,-2.0830 -1.4949,-4.4018 -1.4949 -6.8456c 0.0000,-5.9466 3.1693,-11.1531 7.9109 -14.0223c -35.3960,-104.5659 -70.7920,-209.1319 -106.1879 -313.6978c -0.2423,-0.7155 -0.5365,-1.4032 -0.8779 -2.0595c -0.8918,0.1503 -1.8080,0.2286 -2.7425 0.2286c -6.0622,-0.0000 -11.3551,-3.2936 -14.1869 -8.1889c -106.6257,-0.0000 -213.2515,-0.0000 -319.8772 -0.0000c -2.8318,4.8954 -8.1247,8.1889 -14.1868 8.1889c -6.0621,-0.0000 -11.3550,-3.2936 -14.1869 -8.1889c -20.4679,-0.0000 -40.9358,-0.0000 -61.4037 -0.0000c -8.2005,-0.0000 -14.8483,6.5710 -14.8483 14.6769ZM 118.6142,24.1260 c 0.0000,3.1311 2.5382,5.6693 5.6693 5.6693c 3.1310,-0.0000 5.6693,-2.5382 5.6693 -5.6693c 0.0000,-3.1311 -2.5382,-5.6693 -5.6693 -5.6693c -3.1311,-0.0000 -5.6693,2.5382 -5.6693 5.6693ZM 181.3432,529.6372 c 0.0000,3.1311 2.5382,5.6693 5.6693 5.6693c 3.1310,-0.0000 5.6693,-2.5382 5.6693 -5.6693c 0.0000,-3.1310 -2.5382,-5.6693 -5.6693 -5.6693c -3.1311,-0.0000 -5.6693,2.5382 -5.6693 5.6693ZM 466.8652,24.1260 c 0.0000,3.1311 2.5382,5.6693 5.6693 5.6693c 3.1311,-0.0000 5.6693,-2.5382 5.6693 -5.6693c 0.0000,-3.1311 -2.5382,-5.6693 -5.6693 -5.6693c -3.1310,-0.0000 -5.6693,2.5382 -5.6693 5.6693ZM 585.1406,370.0549 c 0.0000,3.1311 2.5382,5.6693 5.6693 5.6693c 3.1310,-0.0000 5.6693,-2.5382 5.6693 -5.6693c 0.0000,-3.1311 -2.5382,-5.6693 -5.6693 -5.6693c -3.1311,-0.0000 -5.6693,2.5382 -5.6693 5.6693Z"/></g><g stroke-linejoin="miter" stroke-opacity="1.0" fill-opacity="0.5" stroke="rgb(0,0,0)" stroke-width="0.37795275590551186" fill="rgb(255,0,0)" stroke-linecap="butt" stroke-miterlimit="10.0"><path d="M 3.9685,20.3464 c 0.0000,-9.0453 7.3327,-16.3779 16.3780 -16.3779c 151.9892,-0.0000 303.9784,-0.0000 455.9675 -0.0000c 7.0427,-0.0000 13.2969,4.5023 15.5316 11.1811c 39.4251,117.8293 78.8503,235.6586 118.2754 353.4879c 0.5758,1.7210 0.8500,3.4730 0.8500 5.1974c 0.0000,6.5661 -3.9756,12.7306 -10.4104 15.2501c -135.8589,53.1941 -271.7179,106.3883 -407.5769 159.5823c -1.9027,0.7450 -3.9279,1.1273 -5.9712 1.1273c -55.5554,-0.0000 -111.1107,-0.0000 -166.6660 -0.0000c -9.0453,-0.0000 -16.3780,-7.3326 -16.3780 -16.3780c 0.0000,-57.0078 0.0000,-114.0156 0.0000 -171.0234c 0.0000,-114.0156 0.0000,-228.0312 0.0000 -342.0469ZM 33.8446,46.9918 c 0.0000,51.0866 0.0000,102.1732 0.0000 153.2598c 0.0000,102.1733 0.0000,204.3465 0.0000 306.5198c 0.0000,8.1058 6.6478,14.6769 14.8483 14.6769c 41.3775,-0.0000 82.7551,-0.0000 124.1326 -0.0000c 2.8318,-4.8954 8.1248,-8.1890 14.1869 -8.1890c 6.0363,-0.0000 11.3098,3.2655 14.1505 8.1263c 1.3838,-0.1268 2.7450,-0.4452 4.0432 -0.9476c 123.1700,-47.6691 246.3400,-95.3381 369.5100 -143.0071c 0.4150,-0.1606 0.8187,-0.3378 1.2107 -0.5304c -0.9597,-2.0830 -1.4949,-4.4018 -1.4949 -6.8456c 0.0000,-5.9466 3.1693,-11.1531 7.9109 -14.0223c -35.3960,-104.5659 -70.7920,-209.1319 -106.1879 -313.6978c -0.2423,-0.7155 -0.5365,-1.4032 -0.8779 -2.0595c -0.8918,0.1503 -1.8080,0.2286 -2.7425 0.2286c -6.0622,-0.0000 -11.3551,-3.2936 -14.1869 -8.1889c -106.6257,-0.0000 -213.2515,-0.0000 -319.8772 -0.0000c -2.8318,4.8954 -8.1247,8.1889 -14.1868 8.1889c -6.0621,-0.0000 -11.3550,-3.2936 -14.1869 -8.1889c -20.4679,-0.0000 -40.9358,-0.0000 -61.4037 -0.0000c -8.2005,-0.0000 -14.8483,6.5710 -14.8483 14.6769ZM 118.6142,24.1260 c 0.0000,3.1311 2.5382,5.6693 5.6693 5.6693c 3.1310,-0.0000 5.6693,-2.5382 5.6693 -5.6693c 0.0000,-3.1311 -2.5382,-5.6693 -5.6693 -5.6693c -3.1311,-0.0000 -5.6693,2.5382 -5.6693 5.6693ZM 181.3432,529.6372 c 0.0000,3.1311 2.5382,5.6693 5.6693 5.6693c 3.1310,-0.0000 5.6693,-2.5382 5.6693 -5.6693c 0.0000,-3.1310 -2.5382,-5.6693 -5.6693 -5.6693c -3.1311,-0.0000 -5.6693,2.5382 -5.6693 5.6693ZM 466.8652,24.1260 c 0.0000,3.1311 2.5382,5.6693 5.6693 5.6693c 3.1311,-0.0000 5.6693,-2.5382 5.6693 -5.6693c 0.0000,-3.1311 -2.5382,-5.6693 -5.6693 -5.6693c -3.1310,-0.0000 -5.6693,2.5382 -5.6693 5.6693ZM 585.1406,370.0549 c 0.0000,3.1311 2.5382,5.6693 5.6693 5.6693c 3.1310,-0.0000 5.6693,-2.5382 5.6693 -5.6693c 0.0000,-3.1311 -2.5382,-5.6693 -5.6693 -5.6693c -3.1311,-0.0000 -5.6693,2.5382 -5.6693 5.6693Z"/></g><g stroke-linejoin="miter" stroke-opacity="1.0" fill-opacity="0.5" stroke="rgb(0,0,0)" stroke-width="0.37795275590551186" fill="rgb(0,0,0)" stroke-linecap="butt" stroke-miterlimit="10.0"><path d="M 3.9685,20.3464 c 0.0000,-9.0453 7.3327,-16.3779 16.3780 -16.3779c 151.9892,-0.0000 303.9784,-0.0000 455.9675 -0.0000c 7.0427,-0.0000 13.2969,4.5023 15.5316 11.1811c 39.4251,117.8293 78.8503,235.6586 118.2754 353.4879c 0.5758,1.7210 0.8500,3.4730 0.8500 5.1974c 0.0000,6.5661 -3.9756,12.7306 -10.4104 15.2501c -135.8589,53.1941 -271.7179,106.3883 -407.5769 159.5823c -1.9027,0.7450 -3.9279,1.1273 -5.9712 1.1273c -55.5554,-0.0000 -111.1107,-0.0000 -166.6660 -0.0000c -9.0453,-0.0000 -16.3780,-7.3326 -16.3780 -16.3780c 0.0000,-57.0078 0.0000,-114.0156 0.0000 -171.0234c 0.0000,-114.0156 0.0000,-228.0312 0.0000 -342.0469ZM 60.7186,187.1708 c 1.3992,4.1817 2.7984,8.3634 4.1975 12.5451c 0.9711,-0.3249 1.9421,-0.6498 2.9133 -0.9748c 2.0023,5.9843 4.0046,11.9686 6.0070 17.9530c -0.9711,0.3249 -1.9421,0.6498 -2.9133 0.9747c 1.3992,4.1817 2.7984,8.3634 4.1975 12.5451c 0.9711,-0.3249 1.9422,-0.6498 2.9133 -0.9748c 0.3919,1.1714 0.7839,2.3428 1.1758 3.5141c 16.6905,-5.5846 33.3810,-11.1691 50.0715 -16.7537c -0.3919,-1.1714 -0.7839,-2.3428 -1.1758 -3.5141c 0.9711,-0.3249 1.9421,-0.6498 2.9133 -0.9748c -1.3992,-4.1817 -2.7984,-8.3634 -4.1975 -12.5451c -0.9711,0.3249 -1.9422,0.6498 -2.9133 0.9748c -2.0023,-5.9843 -4.0046,-11.9686 -6.0070 -17.9530c 0.9711,-0.3249 1.9421,-0.6498 2.9132 -0.9747c -1.3992,-4.1817 -2.7983,-8.3634 -4.1975 -12.5451c -0.9711,0.3249 -1.9422,0.6498 -2.9133 0.9748c -0.3919,-1.1714 -0.7839,-2.3428 -1.1758 -3.5141c -16.6905,5.5846 -33.3810,11.1691 -50.0715 16.7537c 0.3919,1.1714 0.7839,2.3428 1.1758 3.5141c -0.9711,0.3249 -1.9422,0.6498 -2.9133 0.9748ZM 72.3694,448.3071 c 1.3992,4.1817 2.7983,8.3634 4.1975 12.5451c 0.9711,-0.3249 1.9422,-0.6498 2.9133 -0.9748c 2.0023,5.9843 4.0047,11.9686 6.0070 17.9529c -0.9711,0.3249 -1.9422,0.6498 -2.9133 0.9748c 1.3992,4.1817 2.7984,8.3634 4.1975 12.5451c 0.9711,-0.3249 1.9421,-0.6498 2.9132 -0.9748c 0.3919,1.1714 0.7839,2.3428 1.1758 3.5141c 16.6905,-5.5846 33.3810,-11.1691 50.0715 -16.7537c -0.3919,-1.1714 -0.7839,-2.3428 -1.1758 -3.5141c 0.9711,-0.3249 1.9422,-0.6498 2.9133 -0.9748c -1.3992,-4.1817 -2.7984,-8.3634 -4.1975 -12.5451c -0.9711,0.3249 -1.9421,0.6498 -2.9132 0.9748c -2.0023,-5.9843 -4.0047,-11.9686 -6.0070 -17.9530c 0.9711,-0.3249 1.9422,-0.6498 2.9133 -0.9748c -1.3992,-4.1817 -2.7984,-8.3634 -4.1975 -12.5451c -0.9711,0.3249 -1.9421,0.6498 -2.9133 0.9748c -0.3919,-1.1714 -0.7839,-2.3428 -1.1758 -3.5141c -16.6905,5.5846 -33.3810,11.1691 -50.0715 16.7537c 0.3919,1.1714 0.7839,2.3428 1.1758 3.5141c -0.9711,0.3249 -1.9421,0.6498 -2.9132 0.9748ZM 83.5046,255.2709 c 1.3992,4.1817 2.7984,8.3634 4.1975 12.5451c 0.9711,-0.3249 1.9421,-0.6498 2.9133 -0.9748c 2.0023,5.9843 4.0046,11.9686 6.0070 17.9530c -0.9711,0.3249 -1.9421,0.6498 -2.9133 0.9748c 1.3992,4.1817 2.7984,8.3634 4.1975 12.5451c 0.9711,-0.3249 1.9422,-0.6498 2.9133 -0.9747c 0.3919,1.1714 0.7839,2.3428 1.1758 3.5141c 16.6905,-5.5846 33.3810,-11.1692 50.0715 -16.7537c -0.3919,-1.1714 -0.7839,-2.3428 -1.1758 -3.5141c 0.9711,-0.3249 1.9421,-0.6498 2.9133 -0.9748c -1.3992,-4.1817 -2.7984,-8.3634 -4.1975 -12.5451c -0.9711,0.3249 -1.9422,0.6498 -2.9133 0.9748c -2.0023,-5.9843 -4.0047,-11.9687 -6.0070 -17.9530c 0.9711,-0.3249 1.9421,-0.6498 2.9132 -0.9748c -1.3992,-4.1817 -2.7984,-8.3634 -4.1975 -12.5451c -0.9711,0.3249 -1.9422,0.6498 -2.9133 0.9748c -0.3919,-1.1714 -0.7839,-2.3428 -1.1758 -3.5141c -16.6905,5.5846 -33.3810,11.1691 -50.0715 16.7537c 0.3919,1.1714 0.7839,2.3428 1.1758 3.5141c -0.9711,0.3249 -1.9422,0.6498 -2.9133 0.9748ZM 106.2905,323.3710 c 1.3992,4.1817 2.7984,8.3634 4.1975 12.5451c 0.9711,-0.3249 1.9421,-0.6498 2.9133 -0.9748c 2.0023,5.9843 4.0046,11.9686 6.0070 17.9529c -0.9711,0.3249 -1.9421,0.6498 -2.9133 0.9748c 1.3992,4.1817 2.7984,8.3634 4.1975 12.5451c 0.9711,-0.3249 1.9422,-0.6498 2.9133 -0.9748c 0.3919,1.1714 0.7839,2.3428 1.1758 3.5141c 16.6905,-5.5846 33.3810,-11.1691 50.0715 -16.7537c -0.3919,-1.1714 -0.7839,-2.3428 -1.1758 -3.5141c 0.9711,-0.3249 1.9421,-0.6498 2.9132 -0.9748c -1.3991,-4.1817 -2.7983,-8.3634 -4.1975 -12.5451c -0.9711,0.3249 -1.9422,0.6498 -2.9133 0.9748c -2.0023,-5.9843 -4.0047,-11.9686 -6.0070 -17.9530c 0.9711,-0.3249 1.9421,-0.6498 2.9132 -0.9748c -1.3992,-4.1817 -2.7984,-8.3634 -4.1975 -12.5451c -0.9711,0.3249 -1.9422,0.6498 -2.9133 0.9748c -0.3919,-1.1714 -0.7839,-2.3428 -1.1758 -3.5141c -16.6905,5.5846 -33.3810,11.1691 -50.0715 16.7537c 0.3919,1.1714 0.7839,2.3428 1.1758 3.5141c -0.9711,0.3249 -1.9422,0.6498 -2.9133 0.9748ZM 118.6142,24.1260 c 0.0000,3.1310 2.5382,5.6693 5.6693 5.6693c 3.1310,-0.0000 5.6693,-2.5383 5.6693 -5.6693c 0.0000,-3.1311 -2.5382,-5.6693 -5.6693 -5.6693c -3.1311,-0.0000 -5.6693,2.5382 -5.6693 5.6693ZM 122.8224,146.4637 c 1.3992,4.1817 2.7984,8.3634 4.1975 12.5451c 0.9711,-0.3249 1.9422,-0.6498 2.9133 -0.9748c 2.0023,5.9843 4.0046,11.9686 6.0070 17.9530c -0.9711,0.3249 -1.9421,0.6498 -2.9133 0.9747c 1.3992,4.1817 2.7984,8.3634 4.1975 12.5451c 0.9711,-0.3249 1.9422,-0.6498 2.9133 -0.9748c 0.3919,1.1714 0.7839,2.3428 1.1758 3.5141c 16.6905,-5.5846 33.3810,-11.1691 50.0715 -16.7537c -0.3919,-1.1714 -0.7839,-2.3428 -1.1758 -3.5141c 0.9711,-0.3249 1.9421,-0.6498 2.9133 -0.9748c -1.3992,-4.1817 -2.7984,-8.3634 -4.1975 -12.5451c -0.9711,0.3249 -1.9422,0.6498 -2.9133 0.9748c -2.0023,-5.9843 -4.0046,-11.9686 -6.0070 -17.9530c 0.9711,-0.3249 1.9421,-0.6498 2.9132 -0.9747c -1.3992,-4.1817 -2.7983,-8.3634 -4.1975 -12.5451c -0.9711,0.3249 -1.9422,0.6498 -2.9133 0.9748c -0.3919,-1.1714 -0.7839,-2.3428 -1.1758 -3.5141c -16.6905,5.5846 -33.3810,11.1691 -50.0715 16.7537c 0.3919,1.1714 0.7839,2.3428 1.1758 3.5141c -0.9711,0.3249 -1.9422,0.6498 -2.9133 0.9748ZM 129.0765,391.4711 c 1.3992,4.1817 2.7984,8.3634 4.1975 12.5451c 0.9711,-0.3249 1.9421,-0.6498 2.9132 -0.9748c 2.0023,5.9843 4.0047,11.9686 6.0070 17.9530c -0.9711,0.3249 -1.9422,0.6498 -2.9133 0.9748c 1.3992,4.1817 2.7984,8.3634 4.1975 12.5451c 0.9711,-0.3249 1.9422,-0.6498 2.9133 -0.9748c 0.3919,1.1714 0.7839,2.3428 1.1758 3.5141c 16.6905,-5.5846 33.3810,-11.1691 50.0715 -16.7537c -0.3919,-1.1714 -0.7839,-2.3428 -1.1758 -3.5141c 0.9711,-0.3249 1.9421,-0.6498 2.9132 -0.9748c -1.3991,-4.1817 -2.7983,-8.3634 -4.1975 -12.5451c -0.9711,0.3249 -1.9422,0.6498 -2.9133 0.9748c -2.0023,-5.9843 -4.0047,-11.9686 -6.0070 -17.9529c 0.9711,-0.3249 1.9421,-0.6498 2.9132 -0.9748c -1.3992,-4.1817 -2.7984,-8.3634 -4.1975 -12.5451c -0.9711,0.3249 -1.9421,0.6498 -2.9132 0.9748c -0.3919,-1.1714 -0.7839,-2.3428 -1.1758 -3.5141c -16.6905,5.5846 -33.3810,11.1691 -50.0715 16.7537c 0.3919,1.1714 0.7839,2.3428 1.1758 3.5141c -0.9711,0.3249 -1.9422,0.6498 -2.9133 0.9748ZM 145.6083,214.5639 c 1.3992,4.1817 2.7984,8.3634 4.1975 12.5451c 0.9711,-0.3249 1.9421,-0.6498 2.9133 -0.9748c 2.0023,5.9843 4.0046,11.9686 6.0070 17.9530c -0.9711,0.3249 -1.9421,0.6498 -2.9133 0.9748c 1.3992,4.1817 2.7984,8.3634 4.1975 12.5451c 0.9711,-0.3249 1.9422,-0.6498 2.9133 -0.9747c 0.3919,1.1714 0.7839,2.3428 1.1758 3.5141c 16.6905,-5.5846 33.3810,-11.1692 50.0715 -16.7537c -0.3919,-1.1714 -0.7839,-2.3428 -1.1758 -3.5141c 0.9711,-0.3249 1.9421,-0.6498 2.9133 -0.9748c -1.3992,-4.1817 -2.7984,-8.3634 -4.1975 -12.5451c -0.9711,0.3249 -1.9422,0.6498 -2.9133 0.9748c -2.0023,-5.9843 -4.0046,-11.9687 -6.0070 -17.9530c 0.9711,-0.3249 1.9421,-0.6498 2.9132 -0.9748c -1.3992,-4.1817 -2.7983,-8.3634 -4.1975 -12.5451c -0.9711,0.3249 -1.9422,0.6498 -2.9133 0.9748c -0.3919,-1.1714 -0.7839,-2.3428 -1.1758 -3.5141c -16.6905,5.5846 -33.3810,11.1691 -50.0715 16.7537c 0.3919,1.1714 0.7839,2.3428 1.1758 3.5141c -0.9711,0.3249 -1.9422,0.6498 -2.9133 0.9748ZM 151.8625,459.5712 c 1.3992,4.1817 2.7984,8.3634 4.1975 12.5451c 0.9711,-0.3249 1.9421,-0.6498 2.9132 -0.9748c 2.0023,5.9843 4.0047,11.9687 6.0070 17.9530c -0.9711,0.3249 -1.9422,0.6498 -2.9133 0.9748c 1.3992,4.1817 2.7984,8.3634 4.1975 12.5451c 0.9711,-0.3249 1.9421,-0.6498 2.9133 -0.9748c 0.3919,1.1714 0.7839,2.3428 1.1758 3.5141c 16.6905,-5.5846 33.3810,-11.1691 50.0715 -16.7537c -0.3919,-1.1714 -0.7839,-2.3428 -1.1758 -3.5141c 0.9711,-0.3249 1.9421,-0.6498 2.9132 -0.9748c -1.3992,-4.1817 -2.7983,-8.3634 -4.1975 -12.5451c -0.9711,0.3249 -1.9422,0.6498 -2.9133 0.9748c -2.0023,-5.9843 -4.0047,-11.9686 -6.0070 -17.9530c 0.9711,-0.3249 1.9422,-0.6498 2.9133 -0.9748c -1.3992,-4.1817 -2.7984,-8.3634 -4.1975 -12.5451c -0.9711,0.3249 -1.9421,0.6498 -2.9132 0.9747c -0.3919,-1.1714 -0.7839,-2.3428 -1.1758 -3.5141c -16.6905,5.5846 -33.3810,11.1692 -50.0715 16.7537c 0.3919,1.1714 0.7839,2.3428 1.1758 3.5141c -0.9711,0.3249 -1.9422,0.6498 -2.9133 0.9748ZM 168.3943,282.6639 c 1.3992,4.1817 2.7984,8.3634 4.1975 12.5451c 0.9711,-0.3249 1.9421,-0.6498 2.9133 -0.9748c 2.0023,5.9843 4.0046,11.9686 6.0070 17.9529c -0.9711,0.3249 -1.9421,0.6498 -2.9133 0.9748c 1.3992,4.1817 2.7984,8.3634 4.1975 12.5451c 0.9711,-0.3249 1.9422,-0.6498 2.9133 -0.9748c 0.3919,1.1714 0.7839,2.3428 1.1758 3.5141c 16.6905,-5.5846 33.3810,-11.1691 50.0715 -16.7537c -0.3919,-1.1714 -0.7839,-2.3428 -1.1758 -3.5141c 0.9711,-0.3249 1.9421,-0.6498 2.9133 -0.9748c -1.3992,-4.1817 -2.7984,-8.3634 -4.1975 -12.5451c -0.9711,0.3249 -1.9422,0.6498 -2.9133 0.9748c -2.0023,-5.9843 -4.0047,-11.9686 -6.0070 -17.9530c 0.9711,-0.3249 1.9421,-0.6498 2.9132 -0.9748c -1.3992,-4.1817 -2.7984,-8.3634 -4.1975 -12.5451c -0.9711,0.3249 -1.9422,0.6498 -2.9133 0.9748c -0.3919,-1.1714 -0.7839,-2.3428 -1.1758 -3.5141c -16.6905,5.5846 -33.3810,11.1691 -50.0715 16.7537c 0.3919,1.1714 0.7839,2.3428 1.1758 3.5141c -0.9711,0.3249 -1.9422,0.6498 -2.9133 0.9748ZM 181.3433,529.6372 c 0.0000,3.1311 2.5382,5.6693 5.6693 5.6693c 3.1310,-0.0000 5.6693,-2.5382 5.6693 -5.6693c 0.0000,-3.1311 -2.5382,-5.6693 -5.6693 -5.6693c -3.1311,-0.0000 -5.6693,2.5382 -5.6693 5.6693ZM 183.7269,102.1725 c 1.3992,4.1817 2.7984,8.3634 4.1975 12.5451c 0.9711,-0.3249 1.9421,-0.6498 2.9132 -0.9748c 2.0023,5.9843 4.0047,11.9686 6.0070 17.9530c -0.9711,0.3249 -1.9422,0.6498 -2.9133 0.9748c 1.3992,4.1817 2.7984,8.3634 4.1975 12.5451c 0.9711,-0.3249 1.9421,-0.6498 2.9132 -0.9748c 0.3919,1.1714 0.7839,2.3428 1.1758 3.5141c 16.6905,-5.5846 33.3810,-11.1691 50.0715 -16.7537c -0.3919,-1.1714 -0.7839,-2.3428 -1.1758 -3.5141c 0.9711,-0.3249 1.9421,-0.6498 2.9132 -0.9748c -1.3992,-4.1817 -2.7984,-8.3634 -4.1975 -12.5451c -0.9711,0.3249 -1.9421,0.6498 -2.9132 0.9748c -2.0023,-5.9843 -4.0047,-11.9686 -6.0070 -17.9529c 0.9711,-0.3249 1.9422,-0.6498 2.9133 -0.9748c -1.3992,-4.1817 -2.7984,-8.3634 -4.1975 -12.5451c -0.9711,0.3249 -1.9421,0.6498 -2.9132 0.9748c -0.3919,-1.1714 -0.7839,-2.3428 -1.1758 -3.5141c -16.6905,5.5846 -33.3810,11.1691 -50.0715 16.7537c 0.3919,1.1714 0.7839,2.3428 1.1758 3.5141c -0.9711,0.3249 -1.9422,0.6498 -2.9133 0.9748ZM 191.1803,350.7640 c 1.3992,4.1817 2.7984,8.3634 4.1975 12.5451c 0.9711,-0.3249 1.9421,-0.6498 2.9133 -0.9748c 2.0023,5.9843 4.0046,11.9686 6.0070 17.9530c -0.9711,0.3249 -1.9421,0.6498 -2.9133 0.9748c 1.3992,4.1817 2.7984,8.3634 4.1975 12.5451c 0.9711,-0.3249 1.9422,-0.6498 2.9133 -0.9748c 0.3919,1.1714 0.7839,2.3428 1.1758 3.5141c 16.6905,-5.5846 33.3810,-11.1691 50.0715 -16.7537c -0.3919,-1.1714 -0.7839,-2.3428 -1.1758 -3.5141c 0.9711,-0.3249 1.9421,-0.6498 2.9132 -0.9748c -1.3991,-4.1817 -2.7983,-8.3634 -4.1975 -12.5451c -0.9711,0.3249 -1.9422,0.6498 -2.9133 0.9748c -2.0023,-5.9843 -4.0047,-11.9686 -6.0070 -17.9529c 0.9711,-0.3249 1.9421,-0.6498 2.9132 -0.9748c -1.3992,-4.1817 -2.7984,-8.3634 -4.1975 -12.5451c -0.9711,0.3249 -1.9421,0.6498 -2.9132 0.9748c -0.3919,-1.1714 -0.7839,-2.3428 -1.1758 -3.5141c -16.6905,5.5846 -33.3810,11.1691 -50.0715 16.7537c 0.3919,1.1714 0.7839,2.3428 1.1758 3.5141c -0.9711,0.3249 -1.9422,0.6498 -2.9133 0.9748ZM 206.5129,170.2726 c 1.3992,4.1817 2.7984,8.3634 4.1975 12.5451c 0.9711,-0.3249 1.9421,-0.6498 2.9132 -0.9748c 2.0023,5.9843 4.0047,11.9687 6.0070 17.9530c -0.9711,0.3249 -1.9422,0.6498 -2.9133 0.9748c 1.3992,4.1817 2.7984,8.3634 4.1975 12.5451c 0.9711,-0.3249 1.9421,-0.6498 2.9132 -0.9748c 0.3919,1.1714 0.7839,2.3428 1.1758 3.5141c 16.6905,-5.5846 33.3810,-11.1691 50.0715 -16.7537c -0.3919,-1.1714 -0.7839,-2.3428 -1.1758 -3.5141c 0.9711,-0.3249 1.9422,-0.6498 2.9133 -0.9748c -1.3992,-4.1817 -2.7984,-8.3634 -4.1975 -12.5451c -0.9711,0.3249 -1.9421,0.6498 -2.9132 0.9748c -2.0023,-5.9843 -4.0047,-11.9686 -6.0070 -17.9530c 0.9711,-0.3249 1.9422,-0.6498 2.9133 -0.9748c -1.3992,-4.1817 -2.7984,-8.3634 -4.1975 -12.5451c -0.9711,0.3249 -1.9421,0.6498 -2.9132 0.9747c -0.3919,-1.1714 -0.7839,-2.3428 -1.1758 -3.5141c -16.6905,5.5846 -33.3810,11.1692 -50.0715 16.7537c 0.3919,1.1714 0.7839,2.3428 1.1758 3.5141c -0.9711,0.3249 -1.9421,0.6498 -2.9132 0.9748ZM 213.9663,418.8641 c 1.3992,4.1817 2.7984,8.3634 4.1975 12.5451c 0.9711,-0.3249 1.9421,-0.6498 2.9132 -0.9748c 2.0023,5.9843 4.0047,11.9687 6.0070 17.9530c -0.9711,0.3249 -1.9422,0.6498 -2.9133 0.9748c 1.3992,4.1817 2.7984,8.3634 4.1975 12.5451c 0.9711,-0.3249 1.9422,-0.6498 2.9133 -0.9748c 0.3919,1.1714 0.7839,2.3428 1.1758 3.5141c 16.6905,-5.5846 33.3810,-11.1691 50.0715 -16.7537c -0.3919,-1.1714 -0.7839,-2.3428 -1.1758 -3.5141c 0.9711,-0.3249 1.9421,-0.6498 2.9132 -0.9748c -1.3992,-4.1817 -2.7983,-8.3634 -4.1975 -12.5451c -0.9711,0.3249 -1.9422,0.6498 -2.9133 0.9748c -2.0023,-5.9843 -4.0047,-11.9686 -6.0070 -17.9530c 0.9711,-0.3249 1.9421,-0.6498 2.9132 -0.9748c -1.3992,-4.1817 -2.7984,-8.3634 -4.1975 -12.5451c -0.9711,0.3249 -1.9421,0.6498 -2.9132 0.9747c -0.3919,-1.1714 -0.7839,-2.3428 -1.1758 -3.5141c -16.6905,5.5846 -33.3810,11.1692 -50.0715 16.7537c 0.3919,1.1714 0.7839,2.3428 1.1758 3.5141c -0.9711,0.3249 -1.9422,0.6498 -2.9133 0.9748ZM 229.2989,238.3727 c 1.3992,4.1817 2.7984,8.3634 4.1975 12.5451c 0.9711,-0.3249 1.9422,-0.6498 2.9133 -0.9748c 2.0023,5.9843 4.0047,11.9686 6.0070 17.9530c -0.9711,0.3249 -1.9422,0.6498 -2.9133 0.9747c 1.3992,4.1817 2.7984,8.3634 4.1975 12.5451c 0.9711,-0.3249 1.9421,-0.6498 2.9132 -0.9748c 0.3919,1.1714 0.7839,2.3428 1.1758 3.5141c 16.6905,-5.5846 33.3810,-11.1691 50.0715 -16.7537c -0.3919,-1.1714 -0.7839,-2.3428 -1.1758 -3.5141c 0.9711,-0.3249 1.9422,-0.6498 2.9133 -0.9748c -1.3992,-4.1817 -2.7984,-8.3634 -4.1975 -12.5451c -0.9711,0.3249 -1.9421,0.6498 -2.9132 0.9748c -2.0023,-5.9843 -4.0047,-11.9686 -6.0070 -17.9530c 0.9711,-0.3249 1.9422,-0.6498 2.9133 -0.9747c -1.3992,-4.1817 -2.7984,-8.3634 -4.1975 -12.5451c -0.9711,0.3249 -1.9421,0.6498 -2.9133 0.9748c -0.3919,-1.1714 -0.7839,-2.3428 -1.1758 -3.5141c -16.6905,5.5846 -33.3810,11.1691 -50.0715 16.7537c 0.3919,1.1714 0.7839,2.3428 1.1758 3.5141c -0.9711,0.3249 -1.9421,0.6498 -2.9132 0.9748ZM 252.0848,306.4728 c 1.3992,4.1817 2.7984,8.3634 4.1975 12.5451c 0.9711,-0.3249 1.9422,-0.6498 2.9133 -0.9748c 2.0023,5.9843 4.0047,11.9686 6.0070 17.9530c -0.9711,0.3249 -1.9422,0.6498 -2.9133 0.9748c 1.3992,4.1817 2.7984,8.3634 4.1975 12.5451c 0.9711,-0.3249 1.9421,-0.6498 2.9132 -0.9747c 0.3919,1.1714 0.7839,2.3428 1.1758 3.5141c 16.6905,-5.5846 33.3810,-11.1692 50.0715 -16.7537c -0.3919,-1.1714 -0.7839,-2.3428 -1.1758 -3.5141c 0.9711,-0.3249 1.9422,-0.6498 2.9133 -0.9748c -1.3992,-4.1817 -2.7984,-8.3634 -4.1975 -12.5451c -0.9711,0.3249 -1.9421,0.6498 -2.9132 0.9748c -2.0023,-5.9843 -4.0047,-11.9687 -6.0070 -17.9530c 0.9711,-0.3249 1.9422,-0.6498 2.9133 -0.9748c -1.3992,-4.1817 -2.7984,-8.3634 -4.1975 -12.5451c -0.9711,0.3249 -1.9421,0.6498 -2.9133 0.9748c -0.3919,-1.1714 -0.7839,-2.3428 -1.1758 -3.5141c -16.6905,5.5846 -33.3810,11.1691 -50.0715 16.7537c 0.3919,1.1714 0.7839,2.3428 1.1758 3.5141c -0.9711,0.3249 -1.9421,0.6498 -2.9132 0.9748ZM 257.8233,97.3076 c 1.3992,4.1817 2.7983,8.3634 4.1975 12.5451c 0.9711,-0.3249 1.9422,-0.6498 2.9133 -0.9748c 2.0023,5.9843 4.0047,11.9686 6.0070 17.9530c -0.9711,0.3249 -1.9421,0.6498 -2.9132 0.9748c 1.3992,4.1817 2.7984,8.3634 4.1975 12.5451c 0.9711,-0.3249 1.9421,-0.6498 2.9132 -0.9747c 0.3919,1.1714 0.7839,2.3428 1.1758 3.5141c 16.6905,-5.5846 33.3810,-11.1692 50.0715 -16.7537c -0.3919,-1.1714 -0.7839,-2.3428 -1.1758 -3.5141c 0.9711,-0.3249 1.9422,-0.6498 2.9133 -0.9748c -1.3992,-4.1817 -2.7984,-8.3634 -4.1975 -12.5451c -0.9711,0.3249 -1.9421,0.6498 -2.9132 0.9747c -2.0023,-5.9843 -4.0047,-11.9686 -6.0070 -17.9529c 0.9711,-0.3249 1.9422,-0.6498 2.9133 -0.9748c -1.3992,-4.1817 -2.7984,-8.3634 -4.1975 -12.5451c -0.9711,0.3249 -1.9421,0.6498 -2.9133 0.9748c -0.3919,-1.1714 -0.7839,-2.3428 -1.1758 -3.5141c -16.6905,5.5846 -33.3810,11.1691 -50.0715 16.7537c 0.3919,1.1714 0.7839,2.3428 1.1758 3.5141c -0.9711,0.3249 -1.9421,0.6498 -2.9132 0.9747ZM 274.8708,374.5729 c 1.3992,4.1817 2.7983,8.3634 4.1975 12.5451c 0.9711,-0.3249 1.9422,-0.6498 2.9133 -0.9748c 2.0023,5.9843 4.0047,11.9686 6.0070 17.9529c -0.9711,0.3249 -1.9422,0.6498 -2.9133 0.9748c 1.3992,4.1817 2.7984,8.3634 4.1975 12.5451c 0.9711,-0.3249 1.9421,-0.6498 2.9132 -0.9748c 0.3919,1.1714 0.7839,2.3428 1.1758 3.5141c 16.6905,-5.5846 33.3810,-11.1691 50.0715 -16.7537c -0.3919,-1.1714 -0.7839,-2.3428 -1.1758 -3.5141c 0.9711,-0.3249 1.9422,-0.6498 2.9133 -0.9748c -1.3992,-4.1817 -2.7984,-8.3634 -4.1975 -12.5451c -0.9711,0.3249 -1.9421,0.6498 -2.9132 0.9748c -2.0023,-5.9843 -4.0047,-11.9686 -6.0070 -17.9530c 0.9711,-0.3249 1.9422,-0.6498 2.9133 -0.9748c -1.3992,-4.1817 -2.7984,-8.3634 -4.1975 -12.5451c -0.9711,0.3249 -1.9421,0.6498 -2.9133 0.9748c -0.3919,-1.1714 -0.7839,-2.3428 -1.1758 -3.5141c -16.6905,5.5846 -33.3810,11.1691 -50.0715 16.7537c 0.3919,1.1714 0.7839,2.3428 1.1758 3.5141c -0.9711,0.3249 -1.9421,0.6498 -2.9132 0.9748ZM 280.6093,165.4077 c 1.3991,4.1817 2.7983,8.3634 4.1975 12.5451c 0.9711,-0.3249 1.9422,-0.6498 2.9133 -0.9747c 2.0023,5.9843 4.0047,11.9686 6.0070 17.9529c -0.9711,0.3249 -1.9421,0.6498 -2.9132 0.9748c 1.3992,4.1817 2.7984,8.3634 4.1975 12.5451c 0.9711,-0.3249 1.9421,-0.6498 2.9132 -0.9748c 0.3919,1.1714 0.7839,2.3428 1.1758 3.5141c 16.6905,-5.5846 33.3810,-11.1691 50.0715 -16.7537c -0.3919,-1.1714 -0.7839,-2.3428 -1.1758 -3.5141c 0.9711,-0.3249 1.9422,-0.6498 2.9133 -0.9747c -1.3992,-4.1817 -2.7984,-8.3634 -4.1975 -12.5451c -0.9711,0.3249 -1.9421,0.6498 -2.9133 0.9748c -2.0023,-5.9843 -4.0046,-11.9686 -6.0070 -17.9530c 0.9711,-0.3249 1.9421,-0.6498 2.9133 -0.9748c -1.3992,-4.1817 -2.7984,-8.3634 -4.1975 -12.5451c -0.9711,0.3249 -1.9422,0.6498 -2.9133 0.9747c -0.3919,-1.1714 -0.7839,-2.3428 -1.1758 -3.5141c -16.6905,5.5846 -33.3810,11.1692 -50.0715 16.7537c 0.3919,1.1714 0.7839,2.3428 1.1758 3.5141c -0.9711,0.3249 -1.9421,0.6498 -2.9132 0.9748ZM 303.3953,233.5078 c 1.3991,4.1817 2.7983,8.3634 4.1975 12.5451c 0.9711,-0.3249 1.9422,-0.6498 2.9133 -0.9748c 2.0023,5.9843 4.0047,11.9686 6.0070 17.9530c -0.9711,0.3249 -1.9421,0.6498 -2.9132 0.9748c 1.3992,4.1817 2.7984,8.3634 4.1975 12.5451c 0.9711,-0.3249 1.9422,-0.6498 2.9133 -0.9748c 0.3919,1.1714 0.7839,2.3428 1.1758 3.5141c 16.6905,-5.5846 33.3810,-11.1691 50.0715 -16.7537c -0.3919,-1.1714 -0.7839,-2.3428 -1.1758 -3.5141c 0.9711,-0.3249 1.9422,-0.6498 2.9133 -0.9748c -1.3992,-4.1817 -2.7984,-8.3634 -4.1975 -12.5451c -0.9711,0.3249 -1.9421,0.6498 -2.9133 0.9748c -2.0023,-5.9843 -4.0046,-11.9686 -6.0070 -17.9530c 0.9711,-0.3249 1.9421,-0.6498 2.9133 -0.9747c -1.3992,-4.1817 -2.7984,-8.3634 -4.1975 -12.5451c -0.9711,0.3249 -1.9422,0.6498 -2.9133 0.9748c -0.3919,-1.1714 -0.7839,-2.3428 -1.1758 -3.5141c -16.6905,5.5846 -33.3810,11.1691 -50.0715 16.7537c 0.3919,1.1714 0.7839,2.3428 1.1758 3.5141c -0.9711,0.3249 -1.9421,0.6498 -2.9132 0.9748ZM 326.1812,301.6079 c 1.3992,4.1817 2.7984,8.3634 4.1975 12.5451c 0.9711,-0.3249 1.9422,-0.6498 2.9133 -0.9748c 2.0023,5.9843 4.0047,11.9687 6.0070 17.9530c -0.9711,0.3249 -1.9421,0.6498 -2.9132 0.9748c 1.3992,4.1817 2.7984,8.3634 4.1975 12.5451c 0.9711,-0.3249 1.9422,-0.6498 2.9133 -0.9748c 0.3919,1.1714 0.7839,2.3428 1.1758 3.5141c 16.6905,-5.5846 33.3810,-11.1692 50.0715 -16.7537c -0.3919,-1.1714 -0.7839,-2.3428 -1.1758 -3.5141c 0.9711,-0.3249 1.9422,-0.6498 2.9133 -0.9748c -1.3992,-4.1817 -2.7984,-8.3634 -4.1975 -12.5451c -0.9711,0.3249 -1.9421,0.6498 -2.9133 0.9748c -2.0023,-5.9843 -4.0046,-11.9687 -6.0070 -17.9530c 0.9711,-0.3249 1.9421,-0.6498 2.9133 -0.9748c -1.3992,-4.1817 -2.7984,-8.3634 -4.1975 -12.5451c -0.9711,0.3249 -1.9422,0.6498 -2.9133 0.9748c -0.3919,-1.1714 -0.7839,-2.3428 -1.1758 -3.5141c -16.6905,5.5846 -33.3810,11.1692 -50.0715 16.7537c 0.3919,1.1714 0.7839,2.3428 1.1758 3.5141c -0.9711,0.3249 -1.9421,0.6498 -2.9133 0.9748ZM 329.5212,85.2743 c 1.3992,4.1817 2.7984,8.3634 4.1975 12.5451c 0.9711,-0.3249 1.9422,-0.6498 2.9133 -0.9748c 2.0023,5.9843 4.0046,11.9686 6.0070 17.9529c -0.9711,0.3249 -1.9421,0.6498 -2.9132 0.9748c 1.3992,4.1817 2.7983,8.3634 4.1975 12.5451c 0.9711,-0.3249 1.9422,-0.6498 2.9133 -0.9748c 0.3919,1.1714 0.7839,2.3428 1.1758 3.5141c 16.6905,-5.5846 33.3810,-11.1691 50.0715 -16.7537c -0.3919,-1.1714 -0.7839,-2.3428 -1.1758 -3.5142c 0.9711,-0.3249 1.9422,-0.6498 2.9133 -0.9747c -1.3992,-4.1817 -2.7984,-8.3634 -4.1975 -12.5451c -0.9711,0.3249 -1.9421,0.6498 -2.9133 0.9748c -2.0023,-5.9843 -4.0046,-11.9686 -6.0070 -17.9530c 0.9711,-0.3249 1.9421,-0.6498 2.9133 -0.9748c -1.3992,-4.1817 -2.7984,-8.3634 -4.1975 -12.5451c -0.9711,0.3249 -1.9422,0.6498 -2.9133 0.9748c -0.3919,-1.1714 -0.7839,-2.3428 -1.1758 -3.5142c -16.6905,5.5846 -33.3810,11.1692 -50.0715 16.7537c 0.3919,1.1714 0.7839,2.3428 1.1758 3.5141c -0.9711,0.3249 -1.9421,0.6498 -2.9133 0.9748ZM 348.9672,369.7080 c 1.3992,4.1817 2.7984,8.3634 4.1975 12.5451c 0.9711,-0.3249 1.9422,-0.6498 2.9133 -0.9748c 2.0023,5.9843 4.0046,11.9686 6.0070 17.9530c -0.9711,0.3249 -1.9421,0.6498 -2.9132 0.9747c 1.3992,4.1817 2.7983,8.3634 4.1975 12.5451c 0.9711,-0.3249 1.9422,-0.6498 2.9133 -0.9748c 0.3919,1.1714 0.7839,2.3428 1.1758 3.5141c 16.6905,-5.5846 33.3810,-11.1691 50.0715 -16.7537c -0.3919,-1.1714 -0.7839,-2.3428 -1.1758 -3.5141c 0.9711,-0.3249 1.9422,-0.6498 2.9133 -0.9748c -1.3992,-4.1817 -2.7984,-8.3634 -4.1975 -12.5451c -0.9711,0.3249 -1.9421,0.6498 -2.9133 0.9748c -2.0023,-5.9843 -4.0046,-11.9686 -6.0070 -17.9530c 0.9711,-0.3249 1.9421,-0.6498 2.9133 -0.9748c -1.3992,-4.1817 -2.7984,-8.3634 -4.1975 -12.5451c -0.9711,0.3249 -1.9422,0.6498 -2.9133 0.9748c -0.3919,-1.1714 -0.7839,-2.3428 -1.1758 -3.5141c -16.6905,5.5846 -33.3810,11.1691 -50.0715 16.7537c 0.3919,1.1714 0.7839,2.3428 1.1758 3.5141c -0.9711,0.3249 -1.9421,0.6498 -2.9133 0.9748ZM 352.3071,153.3743 c 1.3992,4.1817 2.7984,8.3634 4.1975 12.5451c 0.9711,-0.3249 1.9422,-0.6498 2.9133 -0.9748c 2.0023,5.9843 4.0046,11.9686 6.0070 17.9530c -0.9711,0.3249 -1.9421,0.6498 -2.9132 0.9748c 1.3991,4.1817 2.7983,8.3634 4.1975 12.5451c 0.9711,-0.3249 1.9422,-0.6498 2.9133 -0.9748c 0.3919,1.1714 0.7839,2.3428 1.1758 3.5141c 16.6905,-5.5846 33.3810,-11.1691 50.0715 -16.7537c -0.3919,-1.1714 -0.7839,-2.3428 -1.1758 -3.5141c 0.9711,-0.3249 1.9422,-0.6498 2.9133 -0.9748c -1.3992,-4.1817 -2.7984,-8.3634 -4.1975 -12.5451c -0.9711,0.3249 -1.9422,0.6498 -2.9133 0.9748c -2.0023,-5.9843 -4.0046,-11.9686 -6.0070 -17.9529c 0.9711,-0.3249 1.9421,-0.6498 2.9132 -0.9748c -1.3991,-4.1817 -2.7983,-8.3634 -4.1975 -12.5451c -0.9711,0.3249 -1.9422,0.6498 -2.9133 0.9748c -0.3919,-1.1714 -0.7839,-2.3428 -1.1758 -3.5141c -16.6905,5.5846 -33.3810,11.1691 -50.0715 16.7537c 0.3919,1.1714 0.7839,2.3428 1.1758 3.5141c -0.9711,0.3249 -1.9421,0.6498 -2.9133 0.9748ZM 375.0931,221.4745 c 1.3992,4.1817 2.7984,8.3634 4.1975 12.5451c 0.9711,-0.3249 1.9422,-0.6498 2.9133 -0.9748c 2.0023,5.9843 4.0046,11.9687 6.0070 17.9530c -0.9711,0.3249 -1.9421,0.6498 -2.9132 0.9748c 1.3991,4.1817 2.7983,8.3634 4.1975 12.5451c 0.9711,-0.3249 1.9422,-0.6498 2.9133 -0.9748c 0.3919,1.1714 0.7839,2.3428 1.1758 3.5141c 16.6905,-5.5846 33.3810,-11.1691 50.0715 -16.7537c -0.3919,-1.1714 -0.7839,-2.3428 -1.1758 -3.5141c 0.9711,-0.3249 1.9421,-0.6498 2.9133 -0.9748c -1.3992,-4.1817 -2.7984,-8.3634 -4.1975 -12.5451c -0.9711,0.3249 -1.9422,0.6498 -2.9133 0.9748c -2.0023,-5.9843 -4.0046,-11.9686 -6.0070 -17.9530c 0.9711,-0.3249 1.9421,-0.6498 2.9132 -0.9748c -1.3991,-4.1817 -2.7983,-8.3634 -4.1975 -12.5451c -0.9711,0.3249 -1.9422,0.6498 -2.9133 0.9747c -0.3919,-1.1714 -0.7839,-2.3428 -1.1758 -3.5141c -16.6905,5.5846 -33.3810,11.1692 -50.0715 16.7537c 0.3919,1.1714 0.7839,2.3428 1.1758 3.5141c -0.9711,0.3249 -1.9422,0.6498 -2.9133 0.9748ZM 397.8791,289.5745 c 1.3992,4.1817 2.7984,8.3634 4.1975 12.5451c 0.9711,-0.3249 1.9421,-0.6498 2.9133 -0.9748c 2.0023,5.9843 4.0046,11.9686 6.0070 17.9530c -0.9711,0.3249 -1.9421,0.6498 -2.9133 0.9747c 1.3992,4.1817 2.7984,8.3634 4.1975 12.5451c 0.9711,-0.3249 1.9422,-0.6498 2.9133 -0.9748c 0.3919,1.1714 0.7839,2.3428 1.1758 3.5141c 16.6905,-5.5846 33.3810,-11.1691 50.0715 -16.7537c -0.3919,-1.1714 -0.7839,-2.3428 -1.1758 -3.5141c 0.9711,-0.3249 1.9421,-0.6498 2.9133 -0.9748c -1.3992,-4.1817 -2.7984,-8.3634 -4.1975 -12.5451c -0.9711,0.3249 -1.9422,0.6498 -2.9133 0.9748c -2.0023,-5.9843 -4.0046,-11.9686 -6.0070 -17.9530c 0.9711,-0.3249 1.9421,-0.6498 2.9132 -0.9747c -1.3992,-4.1817 -2.7983,-8.3634 -4.1975 -12.5451c -0.9711,0.3249 -1.9422,0.6498 -2.9133 0.9748c -0.3919,-1.1714 -0.7839,-2.3428 -1.1758 -3.5141c -16.6905,5.5846 -33.3810,11.1691 -50.0715 16.7537c 0.3919,1.1714 0.7839,2.3428 1.1758 3.5141c -0.9711,0.3249 -1.9422,0.6498 -2.9133 0.9748ZM 398.8205,66.0725 c 1.3992,4.1817 2.7984,8.3634 4.1975 12.5451c 0.9711,-0.3249 1.9422,-0.6498 2.9133 -0.9747c 2.0023,5.9843 4.0046,11.9686 6.0070 17.9529c -0.9711,0.3249 -1.9421,0.6498 -2.9132 0.9748c 1.3991,4.1817 2.7983,8.3634 4.1975 12.5451c 0.9711,-0.3249 1.9422,-0.6498 2.9133 -0.9748c 0.3919,1.1714 0.7839,2.3428 1.1758 3.5141c 16.6905,-5.5846 33.3810,-11.1691 50.0715 -16.7537c -0.3919,-1.1714 -0.7839,-2.3428 -1.1758 -3.5141c 0.9711,-0.3249 1.9421,-0.6498 2.9133 -0.9747c -1.3992,-4.1817 -2.7984,-8.3634 -4.1975 -12.5451c -0.9711,0.3249 -1.9422,0.6498 -2.9133 0.9748c -2.0023,-5.9843 -4.0046,-11.9686 -6.0070 -17.9530c 0.9711,-0.3249 1.9421,-0.6498 2.9132 -0.9748c -1.3991,-4.1817 -2.7983,-8.3634 -4.1975 -12.5451c -0.9711,0.3249 -1.9422,0.6498 -2.9133 0.9747c -0.3919,-1.1714 -0.7839,-2.3428 -1.1758 -3.5141c -16.6905,5.5846 -33.3810,11.1692 -50.0715 16.7537c 0.3919,1.1714 0.7839,2.3428 1.1758 3.5141c -0.9711,0.3249 -1.9422,0.6498 -2.9133 0.9748ZM 420.6651,357.6747 c 1.3992,4.1817 2.7984,8.3634 4.1975 12.5451c 0.9711,-0.3249 1.9421,-0.6498 2.9133 -0.9748c 2.0023,5.9843 4.0046,11.9686 6.0070 17.9530c -0.9711,0.3249 -1.9421,0.6498 -2.9133 0.9748c 1.3992,4.1817 2.7984,8.3634 4.1975 12.5451c 0.9711,-0.3249 1.9422,-0.6498 2.9133 -0.9747c 0.3919,1.1714 0.7839,2.3428 1.1758 3.5141c 16.6905,-5.5846 33.3810,-11.1692 50.0715 -16.7537c -0.3919,-1.1714 -0.7839,-2.3428 -1.1758 -3.5141c 0.9711,-0.3249 1.9421,-0.6498 2.9133 -0.9748c -1.3992,-4.1817 -2.7984,-8.3634 -4.1975 -12.5451c -0.9711,0.3249 -1.9422,0.6498 -2.9133 0.9748c -2.0023,-5.9843 -4.0047,-11.9687 -6.0070 -17.9530c 0.9711,-0.3249 1.9421,-0.6498 2.9132 -0.9748c -1.3992,-4.1817 -2.7984,-8.3634 -4.1975 -12.5451c -0.9711,0.3249 -1.9422,0.6498 -2.9133 0.9748c -0.3919,-1.1714 -0.7839,-2.3428 -1.1758 -3.5141c -16.6905,5.5846 -33.3810,11.1691 -50.0715 16.7537c 0.3919,1.1714 0.7839,2.3428 1.1758 3.5141c -0.9711,0.3249 -1.9422,0.6498 -2.9133 0.9748ZM 421.6065,134.1726 c 1.3992,4.1817 2.7984,8.3634 4.1975 12.5451c 0.9711,-0.3249 1.9421,-0.6498 2.9133 -0.9748c 2.0023,5.9843 4.0046,11.9686 6.0070 17.9530c -0.9711,0.3249 -1.9421,0.6498 -2.9133 0.9748c 1.3992,4.1817 2.7984,8.3634 4.1975 12.5451c 0.9711,-0.3249 1.9422,-0.6498 2.9133 -0.9748c 0.3919,1.1714 0.7839,2.3428 1.1758 3.5141c 16.6905,-5.5846 33.3810,-11.1691 50.0715 -16.7537c -0.3919,-1.1714 -0.7839,-2.3428 -1.1758 -3.5141c 0.9711,-0.3249 1.9421,-0.6498 2.9133 -0.9748c -1.3992,-4.1817 -2.7984,-8.3634 -4.1975 -12.5451c -0.9711,0.3249 -1.9422,0.6498 -2.9133 0.9748c -2.0023,-5.9843 -4.0046,-11.9686 -6.0070 -17.9530c 0.9711,-0.3249 1.9421,-0.6498 2.9132 -0.9747c -1.3992,-4.1817 -2.7983,-8.3634 -4.1975 -12.5451c -0.9711,0.3249 -1.9422,0.6498 -2.9133 0.9748c -0.3919,-1.1714 -0.7839,-2.3428 -1.1758 -3.5141c -16.6905,5.5846 -33.3810,11.1691 -50.0715 16.7537c 0.3919,1.1714 0.7839,2.3428 1.1758 3.5141c -0.9711,0.3249 -1.9422,0.6498 -2.9133 0.9748ZM 444.3925,202.2727 c 1.3992,4.1817 2.7984,8.3634 4.1975 12.5451c 0.9711,-0.3249 1.9421,-0.6498 2.9133 -0.9748c 2.0023,5.9843 4.0046,11.9687 6.0070 17.9530c -0.9711,0.3249 -1.9421,0.6498 -2.9133 0.9748c 1.3992,4.1817 2.7984,8.3634 4.1975 12.5451c 0.9711,-0.3249 1.9422,-0.6498 2.9133 -0.9748c 0.3919,1.1714 0.7839,2.3428 1.1758 3.5141c 16.6905,-5.5846 33.3810,-11.1692 50.0715 -16.7537c -0.3919,-1.1714 -0.7839,-2.3428 -1.1758 -3.5141c 0.9711,-0.3249 1.9421,-0.6498 2.9133 -0.9748c -1.3992,-4.1817 -2.7984,-8.3634 -4.1975 -12.5451c -0.9711,0.3249 -1.9422,0.6498 -2.9133 0.9748c -2.0023,-5.9843 -4.0047,-11.9687 -6.0070 -17.9530c 0.9711,-0.3249 1.9421,-0.6498 2.9132 -0.9748c -1.3992,-4.1817 -2.7984,-8.3634 -4.1975 -12.5451c -0.9711,0.3249 -1.9422,0.6498 -2.9133 0.9748c -0.3919,-1.1714 -0.7839,-2.3428 -1.1758 -3.5141c -16.6905,5.5846 -33.3810,11.1691 -50.0715 16.7537c 0.3919,1.1714 0.7839,2.3428 1.1758 3.5141c -0.9711,0.3249 -1.9422,0.6498 -2.9133 0.9748ZM 466.8652,24.1260 c 0.0000,3.1310 2.5383,5.6693 5.6694 5.6693c 3.1310,-0.0000 5.6693,-2.5383 5.6693 -5.6693c 0.0000,-3.1311 -2.5382,-5.6693 -5.6693 -5.6693c -3.1311,-0.0000 -5.6694,2.5382 -5.6694 5.6693ZM 467.1784,270.3728 c 1.3992,4.1817 2.7984,8.3634 4.1975 12.5451c 0.9711,-0.3249 1.9421,-0.6498 2.9133 -0.9748c 2.0023,5.9843 4.0046,11.9686 6.0070 17.9529c -0.9711,0.3249 -1.9421,0.6498 -2.9133 0.9748c 1.3992,4.1817 2.7984,8.3634 4.1975 12.5451c 0.9711,-0.3249 1.9422,-0.6498 2.9133 -0.9748c 0.3919,1.1714 0.7839,2.3428 1.1758 3.5141c 16.6905,-5.5846 33.3810,-11.1691 50.0715 -16.7537c -0.3919,-1.1714 -0.7839,-2.3428 -1.1758 -3.5141c 0.9711,-0.3249 1.9421,-0.6498 2.9132 -0.9748c -1.3991,-4.1817 -2.7983,-8.3634 -4.1975 -12.5451c -0.9711,0.3249 -1.9422,0.6498 -2.9133 0.9748c -2.0023,-5.9843 -4.0047,-11.9686 -6.0070 -17.9530c 0.9711,-0.3249 1.9421,-0.6498 2.9132 -0.9748c -1.3992,-4.1817 -2.7984,-8.3634 -4.1975 -12.5451c -0.9711,0.3249 -1.9422,0.6498 -2.9133 0.9748c -0.3919,-1.1714 -0.7839,-2.3428 -1.1758 -3.5141c -16.6905,5.5846 -33.3810,11.1691 -50.0715 16.7537c 0.3919,1.1714 0.7839,2.3428 1.1758 3.5141c -0.9711,0.3249 -1.9422,0.6498 -2.9133 0.9748ZM 489.9644,338.4729 c 1.3992,4.1817 2.7984,8.3634 4.1975 12.5451c 0.9711,-0.3249 1.9421,-0.6498 2.9132 -0.9748c 2.0023,5.9843 4.0047,11.9686 6.0070 17.9530c -0.9711,0.3249 -1.9422,0.6498 -2.9133 0.9748c 1.3992,4.1817 2.7984,8.3634 4.1975 12.5451c 0.9711,-0.3249 1.9422,-0.6498 2.9133 -0.9748c 0.3919,1.1714 0.7839,2.3428 1.1758 3.5142c 16.6905,-5.5846 33.3810,-11.1692 50.0715 -16.7537c -0.3919,-1.1714 -0.7839,-2.3428 -1.1758 -3.5141c 0.9711,-0.3249 1.9421,-0.6498 2.9132 -0.9748c -1.3991,-4.1817 -2.7983,-8.3634 -4.1975 -12.5451c -0.9711,0.3249 -1.9422,0.6498 -2.9133 0.9747c -2.0023,-5.9843 -4.0047,-11.9686 -6.0070 -17.9529c 0.9711,-0.3249 1.9421,-0.6498 2.9132 -0.9748c -1.3992,-4.1817 -2.7984,-8.3634 -4.1975 -12.5451c -0.9711,0.3249 -1.9421,0.6498 -2.9132 0.9748c -0.3919,-1.1714 -0.7839,-2.3428 -1.1758 -3.5141c -16.6905,5.5846 -33.3810,11.1691 -50.0715 16.7537c 0.3919,1.1714 0.7839,2.3428 1.1758 3.5142c -0.9711,0.3249 -1.9422,0.6498 -2.9133 0.9747ZM 585.1406,370.0549 c 0.0000,3.1310 2.5382,5.6693 5.6693 5.6693c 3.1310,-0.0000 5.6693,-2.5383 5.6693 -5.6693c 0.0000,-3.1311 -2.5383,-5.6693 -5.6693 -5.6693c -3.1311,-0.0000 -5.6693,2.5382 -5.6693 5.6693Z"/></g><g stroke-linejoin="miter" stroke-opacity="1.0" fill-opacity="0.5" stroke="rgb(0,0,0)" stroke-width="0.37795275590551186" fill="rgb(255,0,0)" stroke-linecap="butt" stroke-miterlimit="10.0"><path d="M 3.9685,20.3464 c 0.0000,-9.0453 7.3327,-16.3779 16.3780 -16.3779c 151.9892,-0.0000 303.9784,-0.0000 455.9675 -0.0000c 7.0427,-0.0000 13.2969,4.5023 15.5316 11.1811c 39.4251,117.8293 78.8503,235.6586 118.2754 353.4879c 0.5758,1.7210 0.8500,3.4730 0.8500 5.1974c 0.0000,6.5661 -3.9756,12.7306 -10.4104 15.2501c -135.8589,53.1941 -271.7179,106.3883 -407.5769 159.5823c -1.9027,0.7450 -3.9279,1.1273 -5.9712 1.1273c -55.5554,-0.0000 -111.1107,-0.0000 -166.6660 -0.0000c -9.0453,-0.0000 -16.3780,-7.3326 -16.3780 -16.3780c 0.0000,-57.0078 0.0000,-114.0156 0.0000 -171.0234c 0.0000,-114.0156 0.0000,-228.0312 0.0000 -342.0469ZM 44.9230,175.8246 c 0.0000,0.3976 0.0632,0.8020 0.1963 1.1998c 7.5954,22.7000 15.1906,45.4000 22.7860 68.1001c 0.2878,0.8602 0.5757,1.7204 0.8635 2.5806c 7.3076,21.8398 14.6150,43.6797 21.9225 65.5195c 0.2878,0.8602 0.5757,1.7204 0.8635 2.5806c 7.3076,21.8398 14.6150,43.6796 21.9225 65.5194c 0.2878,0.8602 0.5757,1.7204 0.8635 2.5806c 3.1101,9.2950 6.2202,18.5901 9.3303 27.8852c -21.5053,7.1956 -43.0106,14.3911 -64.5159 21.5867c -1.5817,0.5292 -2.5813,2.0029 -2.5813 3.5837c 0.0000,0.3976 0.0632,0.8020 0.1963 1.1998c 7.8831,23.5602 15.7663,47.1205 23.6494 70.6807c 0.6623,1.9795 2.8040,3.0473 4.7835 2.3849c 21.5053,-7.1956 43.0106,-14.3911 64.5159 -21.5867c 3.3979,10.1553 6.7958,20.3106 10.1937 30.4658c 0.6623,1.9795 2.8040,3.0473 4.7835 2.3849c 23.5602,-7.8831 47.1205,-15.7663 70.6807 -23.6494c 1.5817,-0.5292 2.5813,-2.0029 2.5813 -3.5837c 0.0000,-0.3976 -0.0632,-0.8020 -0.1963 -1.1997c -1.5990,-4.7790 -3.1980,-9.5579 -4.7971 -14.3369c 21.5053,-7.1956 43.0106,-14.3912 64.5159 -21.5867c 1.5817,-0.5292 2.5813,-2.0029 2.5813 -3.5837c 0.0000,-0.3976 -0.0632,-0.8020 -0.1963 -1.1997c -1.9988,-5.9737 -3.9976,-11.9474 -5.9963 -17.9211c 19.4503,-6.5080 38.9007,-13.0160 58.3510 -19.5240c 1.5990,4.7790 3.1980,9.5579 4.7971 14.3369c 0.6623,1.9795 2.8040,3.0473 4.7835 2.3849c 21.5053,-7.1955 43.0106,-14.3911 64.5159 -21.5867c 0.7995,2.3895 1.5990,4.7790 2.3985 7.1684c 0.6623,1.9795 2.8040,3.0473 4.7835 2.3849c 21.5053,-7.1956 43.0106,-14.3912 64.5159 -21.5867c 0.6623,1.9795 2.8040,3.0473 4.7835 2.3850c 23.5602,-7.8832 47.1205,-15.7663 70.6807 -23.6494c 1.5817,-0.5292 2.5813,-2.0029 2.5813 -3.5837c 0.0000,-0.3976 -0.0632,-0.8020 -0.1963 -1.1998c -7.5953,-22.7000 -15.1906,-45.4000 -22.7860 -68.1001c -0.2878,-0.8602 -0.5757,-1.7204 -0.8635 -2.5806c -0.0006,-0.0017 -0.0012,-0.0035 -0.0018 -0.0052c -7.3069,-21.8381 -14.6138,-43.6762 -21.9207 -65.5142c -0.2878,-0.8602 -0.5757,-1.7204 -0.8635 -2.5806c -0.0006,-0.0018 -0.0012,-0.0035 -0.0018 -0.0053c -7.3069,-21.8381 -14.6138,-43.6761 -21.9207 -65.5142c -0.2878,-0.8602 -0.5757,-1.7204 -0.8635 -2.5806c -0.0006,-0.0018 -0.0012,-0.0036 -0.0018 -0.0053c -7.3069,-21.8381 -14.6138,-43.6761 -21.9207 -65.5141c -0.2878,-0.8602 -0.5757,-1.7204 -0.8635 -2.5806c -0.0004,-0.0012 -0.0008,-0.0025 -0.0012 -0.0037c -7.5949,-22.6988 -15.1898,-45.3976 -22.7847 -68.0964c -0.6623,-1.9795 -2.8040,-3.0473 -4.7835 -2.3850c -21.5053,7.1956 -43.0106,14.3912 -64.5159 21.5867c -0.6623,-1.9795 -2.8040,-3.0473 -4.7835 -2.3850c -21.5053,7.1956 -43.0106,14.3912 -64.5159 21.5867c -0.7995,-2.3895 -1.5990,-4.7790 -2.3985 -7.1684c -0.6623,-1.9795 -2.8040,-3.0473 -4.7835 -2.3849c -21.5053,7.1956 -43.0106,14.3912 -64.5159 21.5867c -1.5990,-4.7790 -3.1980,-9.5579 -4.7971 -14.3369c -0.6623,-1.9795 -2.8040,-3.0473 -4.7835 -2.3849c -23.5603,7.8831 -47.1205,15.7663 -70.6808 23.6494c -1.5817,0.5292 -2.5813,2.0029 -2.5813 3.5837c 0.0000,0.3976 0.0632,0.8019 0.1963 1.1997c 1.9988,5.9737 3.9976,11.9474 5.9963 17.9211c -21.5053,7.1956 -43.0106,14.3912 -64.5159 21.5867c -1.5817,0.5292 -2.5813,2.0029 -2.5813 3.5837c 0.0000,0.3976 0.0632,0.8020 0.1963 1.1998c 1.5990,4.7790 3.1981,9.5579 4.7971 14.3369c -21.5053,7.1956 -43.0106,14.3912 -64.5159 21.5867c -1.5817,0.5292 -2.5813,2.0029 -2.5813 3.5837ZM 118.6142,24.1260 c 0.0000,3.1310 2.5382,5.6693 5.6693 5.6693c 3.1310,-0.0000 5.6693,-2.5383 5.6693 -5.6693c 0.0000,-3.1311 -2.5382,-5.6693 -5.6693 -5.6693c -3.1311,-0.0000 -5.6693,2.5382 -5.6693 5.6693ZM 181.3433,529.6372 c 0.0000,3.1311 2.5382,5.6693 5.6693 5.6693c 3.1310,-0.0000 5.6693,-2.5382 5.6693 -5.6693c 0.0000,-3.1311 -2.5382,-5.6693 -5.6693 -5.6693c -3.1311,-0.0000 -5.6693,2.5382 -5.6693 5.6693ZM 466.8652,24.1260 c 0.0000,3.1310 2.5383,5.6693 5.6694 5.6693c 3.1310,-0.0000 5.6693,-2.5383 5.6693 -5.6693c 0.0000,-3.1311 -2.5382,-5.6693 -5.6693 -5.6693c -3.1311,-0.0000 -5.6694,2.5382 -5.6694 5.6693ZM 585.1406,370.0549 c 0.0000,3.1310 2.5382,5.6693 5.6693 5.6693c 3.1310,-0.0000 5.6693,-2.5383 5.6693 -5.6693c 0.0000,-3.1311 -2.5383,-5.6693 -5.6693 -5.6693c -3.1311,-0.0000 -5.6693,2.5382 -5.6693 5.6693Z"/></g><g stroke-linejoin="miter" stroke-opacity="1.0" fill-opacity="0.7" stroke="rgb(0,0,0)" stroke-width="0.37795275590551186" fill="rgb(0,0,0)" stroke-linecap="butt" stroke-miterlimit="10.0"><path d="M 149.7747,475.5722 l -17.5932,-52.5804 c -1.3247,-3.9590 -5.6079,-6.0946 -9.5670 -4.7699l -52.5804,17.5932 c -3.9590,1.3247 -6.0946,5.6079 -4.7699 9.5670l 17.5932,52.5804 c 1.3247,3.9590 5.6079,6.0946 9.5670 4.7699l 52.5804,-17.5932 c 3.9590,-1.3247 6.0946,-5.6079 4.7699 -9.5670Z"/></g><defs><linearGradient x2="5.0000" y1="0.0000" gradientUnits="userSpaceOnUse" spreadMethod="pad" gradientTransform="matrix(3.5842,-1.1993,-1.1993,-3.5842,107.5194,460.4771)" id="gradient12" y2="0.0000" x1="-5.0000"><stop stop-opacity="0.1000" offset="0.0000" stop-color="rgb(0,0,0)"/><stop stop-opacity="0.1000" offset="0.5000" stop-color="rgb(255,255,255)"/><stop stop-opacity="0.1000" offset="1.0000" stop-color="rgb(0,0,0)"/></linearGradient></defs><g stroke-linejoin="miter" stroke-opacity="1.0" fill-opacity="1" stroke="rgb(0,0,0)" stroke-width="0.37795275590551186" fill="url(#gradient12)" stroke-linecap="butt" stroke-miterlimit="10.0"><path d="M 136.1418,468.7751 l -10.7574,-32.1504 c -1.3247,-3.9590 -5.6079,-6.0946 -9.5670 -4.7699l -32.1504,10.7574 c -3.9590,1.3247 -6.0946,5.6079 -4.7699 9.5670l 10.7574,32.1504 c 1.3247,3.9590 5.6079,6.0946 9.5670 4.7699l 32.1504,-10.7574 c 3.9590,-1.3247 6.0946,-5.6079 4.7699 -9.5670Z"/></g><g stroke-linejoin="miter" stroke-opacity="1.0" fill-opacity="0.7" stroke="rgb(0,0,0)" stroke-width="0.37795275590551186" fill="rgb(0,0,0)" stroke-linecap="butt" stroke-miterlimit="10.0"><path d="M 476.2258,93.3376 l -17.5932,-52.5804 c -1.3247,-3.9590 -5.6079,-6.0946 -9.5670 -4.7699l -52.5804,17.5932 c -3.9590,1.3247 -6.0946,5.6079 -4.7699 9.5670l 17.5932,52.5804 c 1.3247,3.9590 5.6079,6.0946 9.5670 4.7699l 52.5804,-17.5932 c 3.9590,-1.3247 6.0946,-5.6079 4.7699 -9.5670Z"/></g><defs><linearGradient x2="5.0000" y1="0.0000" gradientUnits="userSpaceOnUse" spreadMethod="pad" gradientTransform="matrix(3.5842,-1.1993,-1.1993,-3.5842,433.9706,78.2425)" id="gradient16" y2="0.0000" x1="-5.0000"><stop stop-opacity="0.1000" offset="0.0000" stop-color="rgb(0,0,0)"/><stop stop-opacity="0.1000" offset="0.5000" stop-color="rgb(255,255,255)"/><stop stop-opacity="0.1000" offset="1.0000" stop-color="rgb(0,0,0)"/></linearGradient></defs><g stroke-linejoin="miter" stroke-opacity="1.0" fill-opacity="1" stroke="rgb(0,0,0)" stroke-width="0.37795275590551186" fill="url(#gradient16)" stroke-linecap="butt" stroke-miterlimit="10.0"><path d="M 462.5929,86.5405 l -10.7574,-32.1504 c -1.3247,-3.9590 -5.6079,-6.0946 -9.5670 -4.7699l -32.1504,10.7574 c -3.9590,1.3247 -6.0946,5.6079 -4.7699 9.5670l 10.7574,32.1504 c 1.3247,3.9590 5.6079,6.0946 9.5670 4.7699l 32.1504,-10.7574 c 3.9590,-1.3247 6.0946,-5.6079 4.7699 -9.5670Z"/></g><g stroke-linejoin="miter" stroke-opacity="1.0" fill-opacity="0.7" stroke="rgb(0,0,0)" stroke-width="0.37795275590551186" fill="rgb(0,0,0)" stroke-linecap="butt" stroke-miterlimit="10.0"><path d="M 499.0118,161.4377 l -17.5932,-52.5804 c -1.3247,-3.9590 -5.6079,-6.0946 -9.5670 -4.7699l -52.5804,17.5932 c -3.9590,1.3247 -6.0946,5.6079 -4.7699 9.5670l 17.5932,52.5804 c 1.3247,3.9590 5.6079,6.0946 9.5670 4.7699l 52.5804,-17.5932 c 3.9590,-1.3247 6.0946,-5.6079 4.7699 -9.5670Z"/></g><defs><linearGradient x2="5.0000" y1="0.0000" gradientUnits="userSpaceOnUse" spreadMethod="pad" gradientTransform="matrix(3.5842,-1.1993,-1.1993,-3.5842,456.7565,146.3426)" id="gradient20" y2="0.0000" x1="-5.0000"><stop stop-opacity="0.1000" offset="0.0000" stop-color="rgb(0,0,0)"/><stop stop-opacity="0.1000" offset="0.5000" stop-color="rgb(255,255,255)"/><stop stop-opacity="0.1000" offset="1.0000" stop-color="rgb(0,0,0)"/></linearGradient></defs><g stroke-linejoin="miter" stroke-opacity="1.0" fill-opacity="1" stroke="rgb(0,0,0)" stroke-width="0.37795275590551186" fill="url(#gradient20)" stroke-linecap="butt" stroke-miterlimit="10.0"><path d="M 485.3789,154.6406 l -10.7574,-32.1504 c -1.3247,-3.9590 -5.6079,-6.0946 -9.5670 -4.7699l -32.1504,10.7574 c -3.9590,1.3247 -6.0946,5.6079 -4.7699 9.5670l 10.7574,32.1504 c 1.3247,3.9590 5.6079,6.0946 9.5670 4.7699l 32.1504,-10.7574 c 3.9590,-1.3247 6.0946,-5.6079 4.7699 -9.5670Z"/></g><g stroke-linejoin="miter" stroke-opacity="1.0" fill-opacity="0.7" stroke="rgb(0,0,0)" stroke-width="0.37795275590551186" fill="rgb(0,0,0)" stroke-linecap="butt" stroke-miterlimit="10.0"><path d="M 521.7977,229.5378 l -17.5932,-52.5804 c -1.3247,-3.9590 -5.6079,-6.0946 -9.5670 -4.7699l -52.5804,17.5932 c -3.9590,1.3247 -6.0946,5.6079 -4.7699 9.5670l 17.5932,52.5804 c 1.3247,3.9590 5.6079,6.0946 9.5670 4.7699l 52.5804,-17.5932 c 3.9590,-1.3247 6.0946,-5.6079 4.7699 -9.5670Z"/></g><defs><linearGradient x2="5.0000" y1="0.0000" gradientUnits="userSpaceOnUse" spreadMethod="pad" gradientTransform="matrix(3.5842,-1.1993,-1.1993,-3.5842,479.5425,214.4427)" id="gradient24" y2="0.0000" x1="-5.0000"><stop stop-opacity="0.1000" offset="0.0000" stop-color="rgb(0,0,0)"/><stop stop-opacity="0.1000" offset="0.5000" stop-color="rgb(255,255,255)"/><stop stop-opacity="0.1000" offset="1.0000" stop-color="rgb(0,0,0)"/></linearGradient></defs><g stroke-linejoin="miter" stroke-opacity="1.0" fill-opacity="1" stroke="rgb(0,0,0)" stroke-width="0.37795275590551186" fill="url(#gradient24)" stroke-linecap="butt" stroke-miterlimit="10.0"><path d="M 508.1648,222.7407 l -10.7574,-32.1504 c -1.3247,-3.9590 -5.6079,-6.0946 -9.5670 -4.7699l -32.1504,10.7574 c -3.9590,1.3247 -6.0946,5.6079 -4.7699 9.5670l 10.7574,32.1504 c 1.3247,3.9590 5.6079,6.0946 9.5670 4.7699l 32.1504,-10.7574 c 3.9590,-1.3247 6.0946,-5.6079 4.7699 -9.5670Z"/></g><g stroke-linejoin="miter" stroke-opacity="1.0" fill-opacity="0.7" stroke="rgb(0,0,0)" stroke-width="0.37795275590551186" fill="rgb(0,0,0)" stroke-linecap="butt" stroke-miterlimit="10.0"><path d="M 544.5837,297.6379 l -17.5932,-52.5804 c -1.3247,-3.9590 -5.6079,-6.0946 -9.5670 -4.7699l -52.5804,17.5932 c -3.9590,1.3247 -6.0946,5.6079 -4.7699 9.5670l 17.5932,52.5804 c 1.3247,3.9590 5.6079,6.0946 9.5670 4.7699l 52.5804,-17.5932 c 3.9590,-1.3247 6.0946,-5.6079 4.7699 -9.5670Z"/></g><defs><linearGradient x2="5.0000" y1="0.0000" gradientUnits="userSpaceOnUse" spreadMethod="pad" gradientTransform="matrix(3.5842,-1.1993,-1.1993,-3.5842,502.3285,282.5428)" id="gradient28" y2="0.0000" x1="-5.0000"><stop stop-opacity="0.1000" offset="0.0000" stop-color="rgb(0,0,0)"/><stop stop-opacity="0.1000" offset="0.5000" stop-color="rgb(255,255,255)"/><stop stop-opacity="0.1000" offset="1.0000" stop-color="rgb(0,0,0)"/></linearGradient></defs><g stroke-linejoin="miter" stroke-opacity="1.0" fill-opacity="1" stroke="rgb(0,0,0)" stroke-width="0.37795275590551186" fill="url(#gradient28)" stroke-linecap="butt" stroke-miterlimit="10.0"><path d="M 530.9508,290.8408 l -10.7574,-32.1504 c -1.3247,-3.9590 -5.6079,-6.0946 -9.5670 -4.7699l -32.1504,10.7574 c -3.9590,1.3247 -6.0946,5.6079 -4.7699 9.5670l 10.7574,32.1504 c 1.3247,3.9590 5.6079,6.0946 9.5670 4.7699l 32.1504,-10.7574 c 3.9590,-1.3247 6.0946,-5.6079 4.7699 -9.5670Z"/></g><g stroke-linejoin="miter" stroke-opacity="1.0" fill-opacity="0.7" stroke="rgb(0,0,0)" stroke-width="0.37795275590551186" fill="rgb(0,0,0)" stroke-linecap="butt" stroke-miterlimit="10.0"><path d="M 567.3697,365.7380 l -17.5932,-52.5804 c -1.3247,-3.9590 -5.6079,-6.0946 -9.5670 -4.7699l -52.5804,17.5932 c -3.9590,1.3247 -6.0946,5.6079 -4.7699 9.5670l 17.5932,52.5804 c 1.3247,3.9590 5.6079,6.0946 9.5670 4.7699l 52.5804,-17.5932 c 3.9590,-1.3247 6.0946,-5.6079 4.7699 -9.5670Z"/></g><defs><linearGradient x2="5.0000" y1="0.0000" gradientUnits="userSpaceOnUse" spreadMethod="pad" gradientTransform="matrix(3.5842,-1.1993,-1.1993,-3.5842,525.1144,350.6429)" id="gradient32" y2="0.0000" x1="-5.0000"><stop stop-opacity="0.1000" offset="0.0000" stop-color="rgb(0,0,0)"/><stop stop-opacity="0.1000" offset="0.5000" stop-color="rgb(255,255,255)"/><stop stop-opacity="0.1000" offset="1.0000" stop-color="rgb(0,0,0)"/></linearGradient></defs><g stroke-linejoin="miter" stroke-opacity="1.0" fill-opacity="1" stroke="rgb(0,0,0)" stroke-width="0.37795275590551186" fill="url(#gradient32)" stroke-linecap="butt" stroke-miterlimit="10.0"><path d="M 553.7368,358.9409 l -10.7574,-32.1504 c -1.3247,-3.9590 -5.6079,-6.0946 -9.5670 -4.7699l -32.1504,10.7574 c -3.9590,1.3247 -6.0946,5.6079 -4.7699 9.5670l 10.7574,32.1504 c 1.3247,3.9590 5.6079,6.0946 9.5670 4.7699l 32.1504,-10.7574 c 3.9590,-1.3247 6.0946,-5.6079 4.7699 -9.5670Z"/></g><g stroke-linejoin="miter" stroke-opacity="1.0" fill-opacity="0.7" stroke="rgb(0,0,0)" stroke-width="0.37795275590551186" fill="rgb(0,0,0)" stroke-linecap="butt" stroke-miterlimit="10.0"><path d="M 406.9264,112.5394 l -17.5932,-52.5804 c -1.3247,-3.9590 -5.6079,-6.0946 -9.5670 -4.7699l -52.5804,17.5932 c -3.9590,1.3247 -6.0946,5.6079 -4.7699 9.5670l 17.5932,52.5804 c 1.3247,3.9590 5.6079,6.0946 9.5670 4.7699l 52.5804,-17.5932 c 3.9590,-1.3247 6.0946,-5.6079 4.7699 -9.5670Z"/></g><defs><linearGradient x2="5.0000" y1="0.0000" gradientUnits="userSpaceOnUse" spreadMethod="pad" gradientTransform="matrix(3.5842,-1.1993,-1.1993,-3.5842,364.6712,97.4443)" id="gradient36" y2="0.0000" x1="-5.0000"><stop stop-opacity="0.1000" offset="0.0000" stop-color="rgb(0,0,0)"/><stop stop-opacity="0.1000" offset="0.5000" stop-color="rgb(255,255,255)"/><stop stop-opacity="0.1000" offset="1.0000" stop-color="rgb(0,0,0)"/></linearGradient></defs><g stroke-linejoin="miter" stroke-opacity="1.0" fill-opacity="1" stroke="rgb(0,0,0)" stroke-width="0.37795275590551186" fill="url(#gradient36)" stroke-linecap="butt" stroke-miterlimit="10.0"><path d="M 393.2935,105.7423 l -10.7574,-32.1504 c -1.3247,-3.9590 -5.6079,-6.0946 -9.5670 -4.7699l -32.1504,10.7574 c -3.9590,1.3247 -6.0946,5.6079 -4.7699 9.5670l 10.7574,32.1504 c 1.3247,3.9590 5.6079,6.0946 9.5670 4.7699l 32.1504,-10.7574 c 3.9590,-1.3247 6.0946,-5.6079 4.7699 -9.5670Z"/></g><g stroke-linejoin="miter" stroke-opacity="1.0" fill-opacity="0.7" stroke="rgb(0,0,0)" stroke-width="0.37795275590551186" fill="rgb(0,0,0)" stroke-linecap="butt" stroke-miterlimit="10.0"><path d="M 429.7124,180.6395 l -17.5932,-52.5804 c -1.3247,-3.9590 -5.6079,-6.0946 -9.5670 -4.7699l -52.5804,17.5932 c -3.9590,1.3247 -6.0946,5.6079 -4.7699 9.5670l 17.5932,52.5804 c 1.3247,3.9590 5.6079,6.0946 9.5670 4.7699l 52.5804,-17.5932 c 3.9590,-1.3247 6.0946,-5.6079 4.7699 -9.5670Z"/></g><defs><linearGradient x2="5.0000" y1="0.0000" gradientUnits="userSpaceOnUse" spreadMethod="pad" gradientTransform="matrix(3.5842,-1.1993,-1.1993,-3.5842,387.4572,165.5444)" id="gradient40" y2="0.0000" x1="-5.0000"><stop stop-opacity="0.1000" offset="0.0000" stop-color="rgb(0,0,0)"/><stop stop-opacity="0.1000" offset="0.5000" stop-color="rgb(255,255,255)"/><stop stop-opacity="0.1000" offset="1.0000" stop-color="rgb(0,0,0)"/></linearGradient></defs><g stroke-linejoin="miter" stroke-opacity="1.0" fill-opacity="1" stroke="rgb(0,0,0)" stroke-width="0.37795275590551186" fill="url(#gradient40)" stroke-linecap="butt" stroke-miterlimit="10.0"><path d="M 416.0795,173.8424 l -10.7574,-32.1504 c -1.3247,-3.9590 -5.6079,-6.0946 -9.5670 -4.7699l -32.1504,10.7574 c -3.9590,1.3247 -6.0946,5.6079 -4.7699 9.5670l 10.7574,32.1504 c 1.3247,3.9590 5.6079,6.0946 9.5670 4.7699l 32.1504,-10.7574 c 3.9590,-1.3247 6.0946,-5.6079 4.7699 -9.5670Z"/></g><g stroke-linejoin="miter" stroke-opacity="1.0" fill-opacity="0.7" stroke="rgb(0,0,0)" stroke-width="0.37795275590551186" fill="rgb(0,0,0)" stroke-linecap="butt" stroke-miterlimit="10.0"><path d="M 452.4984,248.7396 l -17.5932,-52.5804 c -1.3247,-3.9590 -5.6079,-6.0946 -9.5670 -4.7699l -52.5804,17.5932 c -3.9590,1.3247 -6.0946,5.6079 -4.7699 9.5670l 17.5932,52.5804 c 1.3247,3.9590 5.6079,6.0946 9.5670 4.7699l 52.5804,-17.5932 c 3.9590,-1.3247 6.0946,-5.6079 4.7699 -9.5670Z"/></g><defs><linearGradient x2="5.0000" y1="0.0000" gradientUnits="userSpaceOnUse" spreadMethod="pad" gradientTransform="matrix(3.5842,-1.1993,-1.1993,-3.5842,410.2431,233.6445)" id="gradient44" y2="0.0000" x1="-5.0000"><stop stop-opacity="0.1000" offset="0.0000" stop-color="rgb(0,0,0)"/><stop stop-opacity="0.1000" offset="0.5000" stop-color="rgb(255,255,255)"/><stop stop-opacity="0.1000" offset="1.0000" stop-color="rgb(0,0,0)"/></linearGradient></defs><g stroke-linejoin="miter" stroke-opacity="1.0" fill-opacity="1" stroke="rgb(0,0,0)" stroke-width="0.37795275590551186" fill="url(#gradient44)" stroke-linecap="butt" stroke-miterlimit="10.0"><path d="M 438.8655,241.9424 l -10.7574,-32.1504 c -1.3247,-3.9590 -5.6079,-6.0946 -9.5670 -4.7699l -32.1504,10.7574 c -3.9590,1.3247 -6.0946,5.6079 -4.7699 9.5670l 10.7574,32.1504 c 1.3247,3.9590 5.6079,6.0946 9.5670 4.7699l 32.1504,-10.7574 c 3.9590,-1.3247 6.0946,-5.6079 4.7699 -9.5670Z"/></g><g stroke-linejoin="miter" stroke-opacity="1.0" fill-opacity="0.7" stroke="rgb(0,0,0)" stroke-width="0.37795275590551186" fill="rgb(0,0,0)" stroke-linecap="butt" stroke-miterlimit="10.0"><path d="M 475.2844,316.8397 l -17.5932,-52.5804 c -1.3247,-3.9590 -5.6079,-6.0946 -9.5670 -4.7699l -52.5804,17.5932 c -3.9590,1.3247 -6.0946,5.6079 -4.7699 9.5670l 17.5932,52.5804 c 1.3247,3.9590 5.6079,6.0946 9.5670 4.7699l 52.5804,-17.5932 c 3.9590,-1.3247 6.0946,-5.6079 4.7699 -9.5670Z"/></g><defs><linearGradient x2="5.0000" y1="0.0000" gradientUnits="userSpaceOnUse" spreadMethod="pad" gradientTransform="matrix(3.5842,-1.1993,-1.1993,-3.5842,433.0291,301.7445)" id="gradient48" y2="0.0000" x1="-5.0000"><stop stop-opacity="0.1000" offset="0.0000" stop-color="rgb(0,0,0)"/><stop stop-opacity="0.1000" offset="0.5000" stop-color="rgb(255,255,255)"/><stop stop-opacity="0.1000" offset="1.0000" stop-color="rgb(0,0,0)"/></linearGradient></defs><g stroke-linejoin="miter" stroke-opacity="1.0" fill-opacity="1" stroke="rgb(0,0,0)" stroke-width="0.37795275590551186" fill="url(#gradient48)" stroke-linecap="butt" stroke-miterlimit="10.0"><path d="M 461.6514,310.0425 l -10.7574,-32.1504 c -1.3247,-3.9590 -5.6079,-6.0946 -9.5670 -4.7699l -32.1504,10.7574 c -3.9590,1.3247 -6.0946,5.6079 -4.7699 9.5670l 10.7574,32.1504 c 1.3247,3.9590 5.6079,6.0946 9.5670 4.7699l 32.1504,-10.7574 c 3.9590,-1.3247 6.0946,-5.6079 4.7699 -9.5670Z"/></g><g stroke-linejoin="miter" stroke-opacity="1.0" fill-opacity="0.7" stroke="rgb(0,0,0)" stroke-width="0.37795275590551186" fill="rgb(0,0,0)" stroke-linecap="butt" stroke-miterlimit="10.0"><path d="M 498.0703,384.9397 l -17.5932,-52.5804 c -1.3247,-3.9590 -5.6079,-6.0946 -9.5670 -4.7699l -52.5804,17.5932 c -3.9590,1.3247 -6.0946,5.6079 -4.7699 9.5670l 17.5932,52.5804 c 1.3247,3.9590 5.6079,6.0946 9.5670 4.7699l 52.5804,-17.5932 c 3.9590,-1.3247 6.0946,-5.6079 4.7699 -9.5670Z"/></g><defs><linearGradient x2="5.0000" y1="0.0000" gradientUnits="userSpaceOnUse" spreadMethod="pad" gradientTransform="matrix(3.5842,-1.1993,-1.1993,-3.5842,455.8151,369.8446)" id="gradient52" y2="0.0000" x1="-5.0000"><stop stop-opacity="0.1000" offset="0.0000" stop-color="rgb(0,0,0)"/><stop stop-opacity="0.1000" offset="0.5000" stop-color="rgb(255,255,255)"/><stop stop-opacity="0.1000" offset="1.0000" stop-color="rgb(0,0,0)"/></linearGradient></defs><g stroke-linejoin="miter" stroke-opacity="1.0" fill-opacity="1" stroke="rgb(0,0,0)" stroke-width="0.37795275590551186" fill="url(#gradient52)" stroke-linecap="butt" stroke-miterlimit="10.0"><path d="M 484.4374,378.1426 l -10.7574,-32.1504 c -1.3247,-3.9590 -5.6079,-6.0946 -9.5670 -4.7699l -32.1504,10.7574 c -3.9590,1.3247 -6.0946,5.6079 -4.7699 9.5670l 10.7574,32.1504 c 1.3247,3.9590 5.6079,6.0946 9.5670 4.7699l 32.1504,-10.7574 c 3.9590,-1.3247 6.0946,-5.6079 4.7699 -9.5670Z"/></g><g stroke-linejoin="miter" stroke-opacity="1.0" fill-opacity="0.7" stroke="rgb(0,0,0)" stroke-width="0.37795275590551186" fill="rgb(0,0,0)" stroke-linecap="butt" stroke-miterlimit="10.0"><path d="M 335.2286,124.5727 l -17.5932,-52.5804 c -1.3247,-3.9590 -5.6079,-6.0946 -9.5670 -4.7699l -52.5804,17.5932 c -3.9590,1.3247 -6.0946,5.6079 -4.7699 9.5670l 17.5932,52.5804 c 1.3247,3.9590 5.6079,6.0946 9.5670 4.7699l 52.5804,-17.5932 c 3.9590,-1.3247 6.0946,-5.6079 4.7699 -9.5670Z"/></g><defs><linearGradient x2="5.0000" y1="0.0000" gradientUnits="userSpaceOnUse" spreadMethod="pad" gradientTransform="matrix(3.5842,-1.1993,-1.1993,-3.5842,292.9733,109.4776)" id="gradient56" y2="0.0000" x1="-5.0000"><stop stop-opacity="0.1000" offset="0.0000" stop-color="rgb(0,0,0)"/><stop stop-opacity="0.1000" offset="0.5000" stop-color="rgb(255,255,255)"/><stop stop-opacity="0.1000" offset="1.0000" stop-color="rgb(0,0,0)"/></linearGradient></defs><g stroke-linejoin="miter" stroke-opacity="1.0" fill-opacity="1" stroke="rgb(0,0,0)" stroke-width="0.37795275590551186" fill="url(#gradient56)" stroke-linecap="butt" stroke-miterlimit="10.0"><path d="M 321.5957,117.7756 l -10.7574,-32.1504 c -1.3247,-3.9590 -5.6079,-6.0946 -9.5670 -4.7699l -32.1504,10.7574 c -3.9590,1.3247 -6.0946,5.6079 -4.7699 9.5670l 10.7574,32.1504 c 1.3247,3.9590 5.6079,6.0946 9.5670 4.7699l 32.1504,-10.7574 c 3.9590,-1.3247 6.0946,-5.6079 4.7699 -9.5670Z"/></g><g stroke-linejoin="miter" stroke-opacity="1.0" fill-opacity="0.7" stroke="rgb(0,0,0)" stroke-width="0.37795275590551186" fill="rgb(0,0,0)" stroke-linecap="butt" stroke-miterlimit="10.0"><path d="M 358.0145,192.6728 l -17.5932,-52.5804 c -1.3247,-3.9590 -5.6079,-6.0946 -9.5670 -4.7699l -52.5804,17.5932 c -3.9590,1.3247 -6.0946,5.6079 -4.7699 9.5670l 17.5932,52.5804 c 1.3247,3.9590 5.6079,6.0946 9.5670 4.7699l 52.5804,-17.5932 c 3.9590,-1.3247 6.0946,-5.6079 4.7699 -9.5670Z"/></g><defs><linearGradient x2="5.0000" y1="0.0000" gradientUnits="userSpaceOnUse" spreadMethod="pad" gradientTransform="matrix(3.5842,-1.1993,-1.1993,-3.5842,315.7593,177.5777)" id="gradient60" y2="0.0000" x1="-5.0000"><stop stop-opacity="0.1000" offset="0.0000" stop-color="rgb(0,0,0)"/><stop stop-opacity="0.1000" offset="0.5000" stop-color="rgb(255,255,255)"/><stop stop-opacity="0.1000" offset="1.0000" stop-color="rgb(0,0,0)"/></linearGradient></defs><g stroke-linejoin="miter" stroke-opacity="1.0" fill-opacity="1" stroke="rgb(0,0,0)" stroke-width="0.37795275590551186" fill="url(#gradient60)" stroke-linecap="butt" stroke-miterlimit="10.0"><path d="M 344.3816,185.8757 l -10.7574,-32.1504 c -1.3247,-3.9590 -5.6079,-6.0946 -9.5670 -4.7699l -32.1504,10.7574 c -3.9590,1.3247 -6.0946,5.6079 -4.7699 9.5670l 10.7574,32.1504 c 1.3247,3.9590 5.6079,6.0946 9.5670 4.7699l 32.1504,-10.7574 c 3.9590,-1.3247 6.0946,-5.6079 4.7699 -9.5670Z"/></g><g stroke-linejoin="miter" stroke-opacity="1.0" fill-opacity="0.7" stroke="rgb(0,0,0)" stroke-width="0.37795275590551186" fill="rgb(0,0,0)" stroke-linecap="butt" stroke-miterlimit="10.0"><path d="M 380.8005,260.7729 l -17.5932,-52.5804 c -1.3247,-3.9590 -5.6079,-6.0946 -9.5670 -4.7699l -52.5804,17.5932 c -3.9590,1.3247 -6.0946,5.6079 -4.7699 9.5670l 17.5932,52.5804 c 1.3247,3.9590 5.6079,6.0946 9.5670 4.7699l 52.5804,-17.5932 c 3.9590,-1.3247 6.0946,-5.6079 4.7699 -9.5670Z"/></g><defs><linearGradient x2="5.0000" y1="0.0000" gradientUnits="userSpaceOnUse" spreadMethod="pad" gradientTransform="matrix(3.5842,-1.1993,-1.1993,-3.5842,338.5453,245.6778)" id="gradient64" y2="0.0000" x1="-5.0000"><stop stop-opacity="0.1000" offset="0.0000" stop-color="rgb(0,0,0)"/><stop stop-opacity="0.1000" offset="0.5000" stop-color="rgb(255,255,255)"/><stop stop-opacity="0.1000" offset="1.0000" stop-color="rgb(0,0,0)"/></linearGradient></defs><g stroke-linejoin="miter" stroke-opacity="1.0" fill-opacity="1" stroke="rgb(0,0,0)" stroke-width="0.37795275590551186" fill="url(#gradient64)" stroke-linecap="butt" stroke-miterlimit="10.0"><path d="M 367.1676,253.9758 l -10.7574,-32.1504 c -1.3247,-3.9590 -5.6079,-6.0946 -9.5670 -4.7699l -32.1504,10.7574 c -3.9590,1.3247 -6.0946,5.6079 -4.7699 9.5670l 10.7574,32.1504 c 1.3247,3.9590 5.6079,6.0946 9.5670 4.7699l 32.1504,-10.7574 c 3.9590,-1.3247 6.0946,-5.6079 4.7699 -9.5670Z"/></g><g stroke-linejoin="miter" stroke-opacity="1.0" fill-opacity="0.7" stroke="rgb(0,0,0)" stroke-width="0.37795275590551186" fill="rgb(0,0,0)" stroke-linecap="butt" stroke-miterlimit="10.0"><path d="M 403.5865,328.8730 l -17.5932,-52.5804 c -1.3247,-3.9590 -5.6079,-6.0946 -9.5670 -4.7699l -52.5804,17.5932 c -3.9590,1.3247 -6.0946,5.6079 -4.7699 9.5670l 17.5932,52.5804 c 1.3247,3.9590 5.6079,6.0946 9.5670 4.7699l 52.5804,-17.5932 c 3.9590,-1.3247 6.0946,-5.6079 4.7699 -9.5670Z"/></g><defs><linearGradient x2="5.0000" y1="0.0000" gradientUnits="userSpaceOnUse" spreadMethod="pad" gradientTransform="matrix(3.5842,-1.1993,-1.1993,-3.5842,361.3312,313.7779)" id="gradient68" y2="0.0000" x1="-5.0000"><stop stop-opacity="0.1000" offset="0.0000" stop-color="rgb(0,0,0)"/><stop stop-opacity="0.1000" offset="0.5000" stop-color="rgb(255,255,255)"/><stop stop-opacity="0.1000" offset="1.0000" stop-color="rgb(0,0,0)"/></linearGradient></defs><g stroke-linejoin="miter" stroke-opacity="1.0" fill-opacity="1" stroke="rgb(0,0,0)" stroke-width="0.37795275590551186" fill="url(#gradient68)" stroke-linecap="butt" stroke-miterlimit="10.0"><path d="M 389.9536,322.0759 l -10.7574,-32.1504 c -1.3247,-3.9590 -5.6079,-6.0946 -9.5670 -4.7699l -32.1504,10.7574 c -3.9590,1.3247 -6.0946,5.6079 -4.7699 9.5670l 10.7574,32.1504 c 1.3247,3.9590 5.6079,6.0946 9.5670 4.7699l 32.1504,-10.7574 c 3.9590,-1.3247 6.0946,-5.6079 4.7699 -9.5670Z"/></g><g stroke-linejoin="miter" stroke-opacity="1.0" fill-opacity="0.7" stroke="rgb(0,0,0)" stroke-width="0.37795275590551186" fill="rgb(0,0,0)" stroke-linecap="butt" stroke-miterlimit="10.0"><path d="M 426.3725,396.9731 l -17.5932,-52.5804 c -1.3247,-3.9590 -5.6079,-6.0946 -9.5670 -4.7699l -52.5804,17.5932 c -3.9590,1.3247 -6.0946,5.6079 -4.7699 9.5670l 17.5932,52.5804 c 1.3247,3.9590 5.6079,6.0946 9.5670 4.7699l 52.5804,-17.5932 c 3.9590,-1.3247 6.0946,-5.6079 4.7699 -9.5670Z"/></g><defs><linearGradient x2="5.0000" y1="0.0000" gradientUnits="userSpaceOnUse" spreadMethod="pad" gradientTransform="matrix(3.5842,-1.1993,-1.1993,-3.5842,384.1172,381.8780)" id="gradient72" y2="0.0000" x1="-5.0000"><stop stop-opacity="0.1000" offset="0.0000" stop-color="rgb(0,0,0)"/><stop stop-opacity="0.1000" offset="0.5000" stop-color="rgb(255,255,255)"/><stop stop-opacity="0.1000" offset="1.0000" stop-color="rgb(0,0,0)"/></linearGradient></defs><g stroke-linejoin="miter" stroke-opacity="1.0" fill-opacity="1" stroke="rgb(0,0,0)" stroke-width="0.37795275590551186" fill="url(#gradient72)" stroke-linecap="butt" stroke-miterlimit="10.0"><path d="M 412.7395,390.1760 l -10.7574,-32.1504 c -1.3247,-3.9590 -5.6079,-6.0946 -9.5670 -4.7699l -32.1504,10.7574 c -3.9590,1.3247 -6.0946,5.6079 -4.7699 9.5670l 10.7574,32.1504 c 1.3247,3.9590 5.6079,6.0946 9.5670 4.7699l 32.1504,-10.7574 c 3.9590,-1.3247 6.0946,-5.6079 4.7699 -9.5670Z"/></g><g stroke-linejoin="miter" stroke-opacity="1.0" fill-opacity="0.7" stroke="rgb(0,0,0)" stroke-width="0.37795275590551186" fill="rgb(0,0,0)" stroke-linecap="butt" stroke-miterlimit="10.0"><path d="M 261.1322,129.4376 l -17.5932,-52.5804 c -1.3247,-3.9590 -5.6079,-6.0946 -9.5670 -4.7699l -52.5804,17.5932 c -3.9590,1.3247 -6.0946,5.6079 -4.7699 9.5670l 17.5932,52.5804 c 1.3247,3.9590 5.6079,6.0946 9.5670 4.7699l 52.5804,-17.5932 c 3.9590,-1.3247 6.0946,-5.6079 4.7699 -9.5670Z"/></g><defs><linearGradient x2="5.0000" y1="0.0000" gradientUnits="userSpaceOnUse" spreadMethod="pad" gradientTransform="matrix(3.5842,-1.1993,-1.1993,-3.5842,218.8769,114.3425)" id="gradient76" y2="0.0000" x1="-5.0000"><stop stop-opacity="0.1000" offset="0.0000" stop-color="rgb(0,0,0)"/><stop stop-opacity="0.1000" offset="0.5000" stop-color="rgb(255,255,255)"/><stop stop-opacity="0.1000" offset="1.0000" stop-color="rgb(0,0,0)"/></linearGradient></defs><g stroke-linejoin="miter" stroke-opacity="1.0" fill-opacity="1" stroke="rgb(0,0,0)" stroke-width="0.37795275590551186" fill="url(#gradient76)" stroke-linecap="butt" stroke-miterlimit="10.0"><path d="M 247.4993,122.6405 l -10.7574,-32.1504 c -1.3247,-3.9590 -5.6079,-6.0946 -9.5670 -4.7699l -32.1504,10.7574 c -3.9590,1.3247 -6.0946,5.6079 -4.7699 9.5670l 10.7574,32.1504 c 1.3247,3.9590 5.6079,6.0946 9.5670 4.7699l 32.1504,-10.7574 c 3.9590,-1.3247 6.0946,-5.6079 4.7699 -9.5670Z"/></g><g stroke-linejoin="miter" stroke-opacity="1.0" fill-opacity="0.7" stroke="rgb(0,0,0)" stroke-width="0.37795275590551186" fill="rgb(0,0,0)" stroke-linecap="butt" stroke-miterlimit="10.0"><path d="M 283.9181,197.5377 l -17.5932,-52.5804 c -1.3247,-3.9590 -5.6079,-6.0946 -9.5670 -4.7699l -52.5804,17.5932 c -3.9590,1.3247 -6.0946,5.6079 -4.7699 9.5670l 17.5932,52.5804 c 1.3247,3.9590 5.6079,6.0946 9.5670 4.7699l 52.5804,-17.5932 c 3.9590,-1.3247 6.0946,-5.6079 4.7699 -9.5670Z"/></g><defs><linearGradient x2="5.0000" y1="0.0000" gradientUnits="userSpaceOnUse" spreadMethod="pad" gradientTransform="matrix(3.5842,-1.1993,-1.1993,-3.5842,241.6629,182.4426)" id="gradient80" y2="0.0000" x1="-5.0000"><stop stop-opacity="0.1000" offset="0.0000" stop-color="rgb(0,0,0)"/><stop stop-opacity="0.1000" offset="0.5000" stop-color="rgb(255,255,255)"/><stop stop-opacity="0.1000" offset="1.0000" stop-color="rgb(0,0,0)"/></linearGradient></defs><g stroke-linejoin="miter" stroke-opacity="1.0" fill-opacity="1" stroke="rgb(0,0,0)" stroke-width="0.37795275590551186" fill="url(#gradient80)" stroke-linecap="butt" stroke-miterlimit="10.0"><path d="M 270.2852,190.7406 l -10.7574,-32.1504 c -1.3247,-3.9590 -5.6079,-6.0946 -9.5670 -4.7699l -32.1504,10.7574 c -3.9590,1.3247 -6.0946,5.6079 -4.7699 9.5670l 10.7574,32.1504 c 1.3247,3.9590 5.6079,6.0946 9.5670 4.7699l 32.1504,-10.7574 c 3.9590,-1.3247 6.0946,-5.6079 4.7699 -9.5670Z"/></g><g stroke-linejoin="miter" stroke-opacity="1.0" fill-opacity="0.7" stroke="rgb(0,0,0)" stroke-width="0.37795275590551186" fill="rgb(0,0,0)" stroke-linecap="butt" stroke-miterlimit="10.0"><path d="M 306.7041,265.6378 l -17.5932,-52.5804 c -1.3247,-3.9590 -5.6079,-6.0946 -9.5670 -4.7699l -52.5804,17.5932 c -3.9590,1.3247 -6.0946,5.6079 -4.7699 9.5670l 17.5932,52.5804 c 1.3247,3.9590 5.6079,6.0946 9.5670 4.7699l 52.5804,-17.5932 c 3.9590,-1.3247 6.0946,-5.6079 4.7699 -9.5670Z"/></g><defs><linearGradient x2="5.0000" y1="0.0000" gradientUnits="userSpaceOnUse" spreadMethod="pad" gradientTransform="matrix(3.5842,-1.1993,-1.1993,-3.5842,264.4489,250.5427)" id="gradient84" y2="0.0000" x1="-5.0000"><stop stop-opacity="0.1000" offset="0.0000" stop-color="rgb(0,0,0)"/><stop stop-opacity="0.1000" offset="0.5000" stop-color="rgb(255,255,255)"/><stop stop-opacity="0.1000" offset="1.0000" stop-color="rgb(0,0,0)"/></linearGradient></defs><g stroke-linejoin="miter" stroke-opacity="1.0" fill-opacity="1" stroke="rgb(0,0,0)" stroke-width="0.37795275590551186" fill="url(#gradient84)" stroke-linecap="butt" stroke-miterlimit="10.0"><path d="M 293.0712,258.8407 l -10.7574,-32.1504 c -1.3247,-3.9590 -5.6079,-6.0946 -9.5670 -4.7699l -32.1504,10.7574 c -3.9590,1.3247 -6.0946,5.6079 -4.7699 9.5670l 10.7574,32.1504 c 1.3247,3.9590 5.6079,6.0946 9.5670 4.7699l 32.1504,-10.7574 c 3.9590,-1.3247 6.0946,-5.6079 4.7699 -9.5670Z"/></g><g stroke-linejoin="miter" stroke-opacity="1.0" fill-opacity="0.7" stroke="rgb(0,0,0)" stroke-width="0.37795275590551186" fill="rgb(0,0,0)" stroke-linecap="butt" stroke-miterlimit="10.0"><path d="M 329.4901,333.7379 l -17.5932,-52.5804 c -1.3247,-3.9590 -5.6079,-6.0946 -9.5670 -4.7699l -52.5804,17.5932 c -3.9590,1.3247 -6.0946,5.6079 -4.7699 9.5670l 17.5932,52.5804 c 1.3247,3.9590 5.6079,6.0946 9.5670 4.7699l 52.5804,-17.5932 c 3.9590,-1.3247 6.0946,-5.6079 4.7699 -9.5670Z"/></g><defs><linearGradient x2="5.0000" y1="0.0000" gradientUnits="userSpaceOnUse" spreadMethod="pad" gradientTransform="matrix(3.5842,-1.1993,-1.1993,-3.5842,287.2348,318.6428)" id="gradient88" y2="0.0000" x1="-5.0000"><stop stop-opacity="0.1000" offset="0.0000" stop-color="rgb(0,0,0)"/><stop stop-opacity="0.1000" offset="0.5000" stop-color="rgb(255,255,255)"/><stop stop-opacity="0.1000" offset="1.0000" stop-color="rgb(0,0,0)"/></linearGradient></defs><g stroke-linejoin="miter" stroke-opacity="1.0" fill-opacity="1" stroke="rgb(0,0,0)" stroke-width="0.37795275590551186" fill="url(#gradient88)" stroke-linecap="butt" stroke-miterlimit="10.0"><path d="M 315.8572,326.9408 l -10.7574,-32.1504 c -1.3247,-3.9590 -5.6079,-6.0946 -9.5670 -4.7699l -32.1504,10.7574 c -3.9590,1.3247 -6.0946,5.6079 -4.7699 9.5670l 10.7574,32.1504 c 1.3247,3.9590 5.6079,6.0946 9.5670 4.7699l 32.1504,-10.7574 c 3.9590,-1.3247 6.0946,-5.6079 4.7699 -9.5670Z"/></g><g stroke-linejoin="miter" stroke-opacity="1.0" fill-opacity="0.7" stroke="rgb(0,0,0)" stroke-width="0.37795275590551186" fill="rgb(0,0,0)" stroke-linecap="butt" stroke-miterlimit="10.0"><path d="M 352.2761,401.8380 l -17.5932,-52.5804 c -1.3247,-3.9590 -5.6079,-6.0946 -9.5670 -4.7699l -52.5804,17.5932 c -3.9590,1.3247 -6.0946,5.6079 -4.7699 9.5670l 17.5932,52.5804 c 1.3247,3.9590 5.6079,6.0946 9.5670 4.7699l 52.5804,-17.5932 c 3.9590,-1.3247 6.0946,-5.6079 4.7699 -9.5670Z"/></g><defs><linearGradient x2="5.0000" y1="0.0000" gradientUnits="userSpaceOnUse" spreadMethod="pad" gradientTransform="matrix(3.5842,-1.1993,-1.1993,-3.5842,310.0208,386.7429)" id="gradient92" y2="0.0000" x1="-5.0000"><stop stop-opacity="0.1000" offset="0.0000" stop-color="rgb(0,0,0)"/><stop stop-opacity="0.1000" offset="0.5000" stop-color="rgb(255,255,255)"/><stop stop-opacity="0.1000" offset="1.0000" stop-color="rgb(0,0,0)"/></linearGradient></defs><g stroke-linejoin="miter" stroke-opacity="1.0" fill-opacity="1" stroke="rgb(0,0,0)" stroke-width="0.37795275590551186" fill="url(#gradient92)" stroke-linecap="butt" stroke-miterlimit="10.0"><path d="M 338.6431,395.0409 l -10.7574,-32.1504 c -1.3247,-3.9590 -5.6079,-6.0946 -9.5670 -4.7699l -32.1504,10.7574 c -3.9590,1.3247 -6.0946,5.6079 -4.7699 9.5670l 10.7574,32.1504 c 1.3247,3.9590 5.6079,6.0946 9.5670 4.7699l 32.1504,-10.7574 c 3.9590,-1.3247 6.0946,-5.6079 4.7699 -9.5670Z"/></g><g stroke-linejoin="miter" stroke-opacity="1.0" fill-opacity="0.7" stroke="rgb(0,0,0)" stroke-width="0.37795275590551186" fill="rgb(0,0,0)" stroke-linecap="butt" stroke-miterlimit="10.0"><path d="M 200.2276,173.7289 l -17.5932,-52.5804 c -1.3247,-3.9590 -5.6079,-6.0946 -9.5670 -4.7699l -52.5804,17.5932 c -3.9590,1.3247 -6.0946,5.6079 -4.7699 9.5670l 17.5932,52.5804 c 1.3247,3.9590 5.6079,6.0946 9.5670 4.7699l 52.5804,-17.5932 c 3.9590,-1.3247 6.0946,-5.6079 4.7699 -9.5670Z"/></g><defs><linearGradient x2="5.0000" y1="0.0000" gradientUnits="userSpaceOnUse" spreadMethod="pad" gradientTransform="matrix(3.5842,-1.1993,-1.1993,-3.5842,157.9724,158.6338)" id="gradient96" y2="0.0000" x1="-5.0000"><stop stop-opacity="0.1000" offset="0.0000" stop-color="rgb(0,0,0)"/><stop stop-opacity="0.1000" offset="0.5000" stop-color="rgb(255,255,255)"/><stop stop-opacity="0.1000" offset="1.0000" stop-color="rgb(0,0,0)"/></linearGradient></defs><g stroke-linejoin="miter" stroke-opacity="1.0" fill-opacity="1" stroke="rgb(0,0,0)" stroke-width="0.37795275590551186" fill="url(#gradient96)" stroke-linecap="butt" stroke-miterlimit="10.0"><path d="M 186.5947,166.9317 l -10.7574,-32.1504 c -1.3247,-3.9590 -5.6079,-6.0946 -9.5670 -4.7699l -32.1504,10.7574 c -3.9590,1.3247 -6.0946,5.6079 -4.7699 9.5670l 10.7574,32.1504 c 1.3247,3.9590 5.6079,6.0946 9.5670 4.7699l 32.1504,-10.7574 c 3.9590,-1.3247 6.0946,-5.6079 4.7699 -9.5670Z"/></g><g stroke-linejoin="miter" stroke-opacity="1.0" fill-opacity="0.7" stroke="rgb(0,0,0)" stroke-width="0.37795275590551186" fill="rgb(0,0,0)" stroke-linecap="butt" stroke-miterlimit="10.0"><path d="M 223.0136,241.8290 l -17.5932,-52.5804 c -1.3247,-3.9590 -5.6079,-6.0946 -9.5670 -4.7699l -52.5804,17.5932 c -3.9590,1.3247 -6.0946,5.6079 -4.7699 9.5670l 17.5932,52.5804 c 1.3247,3.9590 5.6079,6.0946 9.5670 4.7699l 52.5804,-17.5932 c 3.9590,-1.3247 6.0946,-5.6079 4.7699 -9.5670Z"/></g><defs><linearGradient x2="5.0000" y1="0.0000" gradientUnits="userSpaceOnUse" spreadMethod="pad" gradientTransform="matrix(3.5842,-1.1993,-1.1993,-3.5842,180.7584,226.7338)" id="gradient100" y2="0.0000" x1="-5.0000"><stop stop-opacity="0.1000" offset="0.0000" stop-color="rgb(0,0,0)"/><stop stop-opacity="0.1000" offset="0.5000" stop-color="rgb(255,255,255)"/><stop stop-opacity="0.1000" offset="1.0000" stop-color="rgb(0,0,0)"/></linearGradient></defs><g stroke-linejoin="miter" stroke-opacity="1.0" fill-opacity="1" stroke="rgb(0,0,0)" stroke-width="0.37795275590551186" fill="url(#gradient100)" stroke-linecap="butt" stroke-miterlimit="10.0"><path d="M 209.3807,235.0318 l -10.7574,-32.1504 c -1.3247,-3.9590 -5.6079,-6.0946 -9.5670 -4.7699l -32.1504,10.7574 c -3.9590,1.3247 -6.0946,5.6079 -4.7699 9.5670l 10.7574,32.1504 c 1.3247,3.9590 5.6079,6.0946 9.5670 4.7699l 32.1504,-10.7574 c 3.9590,-1.3247 6.0946,-5.6079 4.7699 -9.5670Z"/></g><g stroke-linejoin="miter" stroke-opacity="1.0" fill-opacity="0.7" stroke="rgb(0,0,0)" stroke-width="0.37795275590551186" fill="rgb(0,0,0)" stroke-linecap="butt" stroke-miterlimit="10.0"><path d="M 245.7996,309.9290 l -17.5932,-52.5804 c -1.3247,-3.9590 -5.6079,-6.0946 -9.5670 -4.7699l -52.5804,17.5932 c -3.9590,1.3247 -6.0946,5.6079 -4.7699 9.5670l 17.5932,52.5804 c 1.3247,3.9590 5.6079,6.0946 9.5670 4.7699l 52.5804,-17.5932 c 3.9590,-1.3247 6.0946,-5.6079 4.7699 -9.5670Z"/></g><defs><linearGradient x2="5.0000" y1="0.0000" gradientUnits="userSpaceOnUse" spreadMethod="pad" gradientTransform="matrix(3.5842,-1.1993,-1.1993,-3.5842,203.5443,294.8339)" id="gradient104" y2="0.0000" x1="-5.0000"><stop stop-opacity="0.1000" offset="0.0000" stop-color="rgb(0,0,0)"/><stop stop-opacity="0.1000" offset="0.5000" stop-color="rgb(255,255,255)"/><stop stop-opacity="0.1000" offset="1.0000" stop-color="rgb(0,0,0)"/></linearGradient></defs><g stroke-linejoin="miter" stroke-opacity="1.0" fill-opacity="1" stroke="rgb(0,0,0)" stroke-width="0.37795275590551186" fill="url(#gradient104)" stroke-linecap="butt" stroke-miterlimit="10.0"><path d="M 232.1667,303.1319 l -10.7574,-32.1504 c -1.3247,-3.9590 -5.6079,-6.0946 -9.5670 -4.7699l -32.1504,10.7574 c -3.9590,1.3247 -6.0946,5.6079 -4.7699 9.5670l 10.7574,32.1504 c 1.3247,3.9590 5.6079,6.0946 9.5670 4.7699l 32.1504,-10.7574 c 3.9590,-1.3247 6.0946,-5.6079 4.7699 -9.5670Z"/></g><g stroke-linejoin="miter" stroke-opacity="1.0" fill-opacity="0.7" stroke="rgb(0,0,0)" stroke-width="0.37795275590551186" fill="rgb(0,0,0)" stroke-linecap="butt" stroke-miterlimit="10.0"><path d="M 268.5856,378.0291 l -17.5932,-52.5804 c -1.3247,-3.9590 -5.6079,-6.0946 -9.5670 -4.7699l -52.5804,17.5932 c -3.9590,1.3247 -6.0946,5.6079 -4.7699 9.5670l 17.5932,52.5804 c 1.3247,3.9590 5.6079,6.0946 9.5670 4.7699l 52.5804,-17.5932 c 3.9590,-1.3247 6.0946,-5.6079 4.7699 -9.5670Z"/></g><defs><linearGradient x2="5.0000" y1="0.0000" gradientUnits="userSpaceOnUse" spreadMethod="pad" gradientTransform="matrix(3.5842,-1.1993,-1.1993,-3.5842,226.3303,362.9340)" id="gradient108" y2="0.0000" x1="-5.0000"><stop stop-opacity="0.1000" offset="0.0000" stop-color="rgb(0,0,0)"/><stop stop-opacity="0.1000" offset="0.5000" stop-color="rgb(255,255,255)"/><stop stop-opacity="0.1000" offset="1.0000" stop-color="rgb(0,0,0)"/></linearGradient></defs><g stroke-linejoin="miter" stroke-opacity="1.0" fill-opacity="1" stroke="rgb(0,0,0)" stroke-width="0.37795275590551186" fill="url(#gradient108)" stroke-linecap="butt" stroke-miterlimit="10.0"><path d="M 254.9526,371.2320 l -10.7574,-32.1504 c -1.3247,-3.9590 -5.6079,-6.0946 -9.5670 -4.7699l -32.1504,10.7574 c -3.9590,1.3247 -6.0946,5.6079 -4.7699 9.5670l 10.7574,32.1504 c 1.3247,3.9590 5.6079,6.0946 9.5670 4.7699l 32.1504,-10.7574 c 3.9590,-1.3247 6.0946,-5.6079 4.7699 -9.5670Z"/></g><g stroke-linejoin="miter" stroke-opacity="1.0" fill-opacity="0.7" stroke="rgb(0,0,0)" stroke-width="0.37795275590551186" fill="rgb(0,0,0)" stroke-linecap="butt" stroke-miterlimit="10.0"><path d="M 291.3715,446.1292 l -17.5932,-52.5804 c -1.3247,-3.9590 -5.6079,-6.0946 -9.5670 -4.7699l -52.5804,17.5932 c -3.9590,1.3247 -6.0946,5.6079 -4.7699 9.5670l 17.5932,52.5804 c 1.3247,3.9590 5.6079,6.0946 9.5670 4.7699l 52.5804,-17.5932 c 3.9590,-1.3247 6.0946,-5.6079 4.7699 -9.5670Z"/></g><defs><linearGradient x2="5.0000" y1="0.0000" gradientUnits="userSpaceOnUse" spreadMethod="pad" gradientTransform="matrix(3.5842,-1.1993,-1.1993,-3.5842,249.1163,431.0341)" id="gradient112" y2="0.0000" x1="-5.0000"><stop stop-opacity="0.1000" offset="0.0000" stop-color="rgb(0,0,0)"/><stop stop-opacity="0.1000" offset="0.5000" stop-color="rgb(255,255,255)"/><stop stop-opacity="0.1000" offset="1.0000" stop-color="rgb(0,0,0)"/></linearGradient></defs><g stroke-linejoin="miter" stroke-opacity="1.0" fill-opacity="1" stroke="rgb(0,0,0)" stroke-width="0.37795275590551186" fill="url(#gradient112)" stroke-linecap="butt" stroke-miterlimit="10.0"><path d="M 277.7386,439.3321 l -10.7574,-32.1504 c -1.3247,-3.9590 -5.6079,-6.0946 -9.5670 -4.7699l -32.1504,10.7574 c -3.9590,1.3247 -6.0946,5.6079 -4.7699 9.5670l 10.7574,32.1504 c 1.3247,3.9590 5.6079,6.0946 9.5670 4.7699l 32.1504,-10.7574 c 3.9590,-1.3247 6.0946,-5.6079 4.7699 -9.5670Z"/></g><g stroke-linejoin="miter" stroke-opacity="1.0" fill-opacity="0.7" stroke="rgb(0,0,0)" stroke-width="0.37795275590551186" fill="rgb(0,0,0)" stroke-linecap="butt" stroke-miterlimit="10.0"><path d="M 138.1239,214.4359 l -17.5932,-52.5804 c -1.3247,-3.9590 -5.6079,-6.0946 -9.5670 -4.7699l -52.5804,17.5932 c -3.9590,1.3247 -6.0946,5.6079 -4.7699 9.5670l 17.5932,52.5804 c 1.3247,3.9590 5.6079,6.0946 9.5670 4.7699l 52.5804,-17.5932 c 3.9590,-1.3247 6.0946,-5.6079 4.7699 -9.5670Z"/></g><defs><linearGradient x2="5.0000" y1="0.0000" gradientUnits="userSpaceOnUse" spreadMethod="pad" gradientTransform="matrix(3.5842,-1.1993,-1.1993,-3.5842,95.8686,199.3408)" id="gradient116" y2="0.0000" x1="-5.0000"><stop stop-opacity="0.1000" offset="0.0000" stop-color="rgb(0,0,0)"/><stop stop-opacity="0.1000" offset="0.5000" stop-color="rgb(255,255,255)"/><stop stop-opacity="0.1000" offset="1.0000" stop-color="rgb(0,0,0)"/></linearGradient></defs><g stroke-linejoin="miter" stroke-opacity="1.0" fill-opacity="1" stroke="rgb(0,0,0)" stroke-width="0.37795275590551186" fill="url(#gradient116)" stroke-linecap="butt" stroke-miterlimit="10.0"><path d="M 124.4909,207.6388 l -10.7574,-32.1504 c -1.3247,-3.9590 -5.6079,-6.0946 -9.5670 -4.7699l -32.1504,10.7574 c -3.9590,1.3247 -6.0946,5.6079 -4.7699 9.5670l 10.7574,32.1504 c 1.3247,3.9590 5.6079,6.0946 9.5670 4.7699l 32.1504,-10.7574 c 3.9590,-1.3247 6.0946,-5.6079 4.7699 -9.5670Z"/></g><g stroke-linejoin="miter" stroke-opacity="1.0" fill-opacity="0.7" stroke="rgb(0,0,0)" stroke-width="0.37795275590551186" fill="rgb(0,0,0)" stroke-linecap="butt" stroke-miterlimit="10.0"><path d="M 160.9098,282.5360 l -17.5932,-52.5804 c -1.3247,-3.9590 -5.6079,-6.0946 -9.5670 -4.7699l -52.5804,17.5932 c -3.9590,1.3247 -6.0946,5.6079 -4.7699 9.5670l 17.5932,52.5804 c 1.3247,3.9590 5.6079,6.0946 9.5670 4.7699l 52.5804,-17.5932 c 3.9590,-1.3247 6.0946,-5.6079 4.7699 -9.5670Z"/></g><defs><linearGradient x2="5.0000" y1="0.0000" gradientUnits="userSpaceOnUse" spreadMethod="pad" gradientTransform="matrix(3.5842,-1.1993,-1.1993,-3.5842,118.6546,267.4409)" id="gradient120" y2="0.0000" x1="-5.0000"><stop stop-opacity="0.1000" offset="0.0000" stop-color="rgb(0,0,0)"/><stop stop-opacity="0.1000" offset="0.5000" stop-color="rgb(255,255,255)"/><stop stop-opacity="0.1000" offset="1.0000" stop-color="rgb(0,0,0)"/></linearGradient></defs><g stroke-linejoin="miter" stroke-opacity="1.0" fill-opacity="1" stroke="rgb(0,0,0)" stroke-width="0.37795275590551186" fill="url(#gradient120)" stroke-linecap="butt" stroke-miterlimit="10.0"><path d="M 147.2769,275.7389 l -10.7574,-32.1504 c -1.3247,-3.9590 -5.6079,-6.0946 -9.5670 -4.7699l -32.1504,10.7574 c -3.9590,1.3247 -6.0946,5.6079 -4.7699 9.5670l 10.7574,32.1504 c 1.3247,3.9590 5.6079,6.0946 9.5670 4.7699l 32.1504,-10.7574 c 3.9590,-1.3247 6.0946,-5.6079 4.7699 -9.5670Z"/></g><g stroke-linejoin="miter" stroke-opacity="1.0" fill-opacity="0.7" stroke="rgb(0,0,0)" stroke-width="0.37795275590551186" fill="rgb(0,0,0)" stroke-linecap="butt" stroke-miterlimit="10.0"><path d="M 183.6958,350.6361 l -17.5932,-52.5804 c -1.3247,-3.9590 -5.6079,-6.0946 -9.5670 -4.7699l -52.5804,17.5932 c -3.9590,1.3247 -6.0946,5.6079 -4.7699 9.5670l 17.5932,52.5804 c 1.3247,3.9590 5.6079,6.0946 9.5670 4.7699l 52.5804,-17.5932 c 3.9590,-1.3247 6.0946,-5.6079 4.7699 -9.5670Z"/></g><defs><linearGradient x2="5.0000" y1="0.0000" gradientUnits="userSpaceOnUse" spreadMethod="pad" gradientTransform="matrix(3.5842,-1.1993,-1.1993,-3.5842,141.4406,335.5410)" id="gradient124" y2="0.0000" x1="-5.0000"><stop stop-opacity="0.1000" offset="0.0000" stop-color="rgb(0,0,0)"/><stop stop-opacity="0.1000" offset="0.5000" stop-color="rgb(255,255,255)"/><stop stop-opacity="0.1000" offset="1.0000" stop-color="rgb(0,0,0)"/></linearGradient></defs><g stroke-linejoin="miter" stroke-opacity="1.0" fill-opacity="1" stroke="rgb(0,0,0)" stroke-width="0.37795275590551186" fill="url(#gradient124)" stroke-linecap="butt" stroke-miterlimit="10.0"><path d="M 170.0629,343.8390 l -10.7574,-32.1504 c -1.3247,-3.9590 -5.6079,-6.0946 -9.5670 -4.7699l -32.1504,10.7574 c -3.9590,1.3247 -6.0946,5.6079 -4.7699 9.5670l 10.7574,32.1504 c 1.3247,3.9590 5.6079,6.0946 9.5670 4.7699l 32.1504,-10.7574 c 3.9590,-1.3247 6.0946,-5.6079 4.7699 -9.5670Z"/></g><g stroke-linejoin="miter" stroke-opacity="1.0" fill-opacity="0.7" stroke="rgb(0,0,0)" stroke-width="0.37795275590551186" fill="rgb(0,0,0)" stroke-linecap="butt" stroke-miterlimit="10.0"><path d="M 206.4818,418.7362 l -17.5932,-52.5804 c -1.3247,-3.9590 -5.6079,-6.0946 -9.5670 -4.7699l -52.5804,17.5932 c -3.9590,1.3247 -6.0946,5.6079 -4.7699 9.5670l 17.5932,52.5804 c 1.3247,3.9590 5.6079,6.0946 9.5670 4.7699l 52.5804,-17.5932 c 3.9590,-1.3247 6.0946,-5.6079 4.7699 -9.5670Z"/></g><defs><linearGradient x2="5.0000" y1="0.0000" gradientUnits="userSpaceOnUse" spreadMethod="pad" gradientTransform="matrix(3.5842,-1.1993,-1.1993,-3.5842,164.2265,403.6411)" id="gradient128" y2="0.0000" x1="-5.0000"><stop stop-opacity="0.1000" offset="0.0000" stop-color="rgb(0,0,0)"/><stop stop-opacity="0.1000" offset="0.5000" stop-color="rgb(255,255,255)"/><stop stop-opacity="0.1000" offset="1.0000" stop-color="rgb(0,0,0)"/></linearGradient></defs><g stroke-linejoin="miter" stroke-opacity="1.0" fill-opacity="1" stroke="rgb(0,0,0)" stroke-width="0.37795275590551186" fill="url(#gradient128)" stroke-linecap="butt" stroke-miterlimit="10.0"><path d="M 192.8489,411.9391 l -10.7574,-32.1504 c -1.3247,-3.9590 -5.6079,-6.0946 -9.5670 -4.7699l -32.1504,10.7574 c -3.9590,1.3247 -6.0946,5.6079 -4.7699 9.5670l 10.7574,32.1504 c 1.3247,3.9590 5.6079,6.0946 9.5670 4.7699l 32.1504,-10.7574 c 3.9590,-1.3247 6.0946,-5.6079 4.7699 -9.5670Z"/></g><g stroke-linejoin="miter" stroke-opacity="1.0" fill-opacity="0.7" stroke="rgb(0,0,0)" stroke-width="0.37795275590551186" fill="rgb(0,0,0)" stroke-linecap="butt" stroke-miterlimit="10.0"><path d="M 229.2677,486.8363 l -17.5932,-52.5804 c -1.3247,-3.9590 -5.6079,-6.0946 -9.5670 -4.7699l -52.5804,17.5932 c -3.9590,1.3247 -6.0946,5.6079 -4.7699 9.5670l 17.5932,52.5804 c 1.3247,3.9590 5.6079,6.0946 9.5670 4.7699l 52.5804,-17.5932 c 3.9590,-1.3247 6.0946,-5.6079 4.7699 -9.5670Z"/></g><defs><linearGradient x2="5.0000" y1="0.0000" gradientUnits="userSpaceOnUse" spreadMethod="pad" gradientTransform="matrix(3.5842,-1.1993,-1.1993,-3.5842,187.0125,471.7412)" id="gradient132" y2="0.0000" x1="-5.0000"><stop stop-opacity="0.1000" offset="0.0000" stop-color="rgb(0,0,0)"/><stop stop-opacity="0.1000" offset="0.5000" stop-color="rgb(255,255,255)"/><stop stop-opacity="0.1000" offset="1.0000" stop-color="rgb(0,0,0)"/></linearGradient></defs><g stroke-linejoin="miter" stroke-opacity="1.0" fill-opacity="1" stroke="rgb(0,0,0)" stroke-width="0.37795275590551186" fill="url(#gradient132)" stroke-linecap="butt" stroke-miterlimit="10.0"><path d="M 215.6348,480.0392 l -10.7574,-32.1504 c -1.3247,-3.9590 -5.6079,-6.0946 -9.5670 -4.7699l -32.1504,10.7574 c -3.9590,1.3247 -6.0946,5.6079 -4.7699 9.5670l 10.7574,32.1504 c 1.3247,3.9590 5.6079,6.0946 9.5670 4.7699l 32.1504,-10.7574 c 3.9590,-1.3247 6.0946,-5.6079 4.7699 -9.5670Z"/></g><g stroke-linejoin="miter" stroke-opacity="1.0" fill-opacity="0.5" stroke="rgb(0,0,0)" stroke-width="0.37795275590551186" fill="rgb(0,0,0)" stroke-linecap="butt" stroke-miterlimit="10.0"><path d="M 130.2843,34.5197 l 6.0008,-10.3937 l -6.0008,-10.3937 l -12.0016,-0.0000 l -6.0008,10.3937 l 6.0008,10.3937 Z"/></g><g stroke-linejoin="miter" stroke-opacity="1.0" fill-opacity="0.5" stroke="rgb(0,0,0)" stroke-width="0.37795275590551186" fill="rgb(0,0,0)" stroke-linecap="butt" stroke-miterlimit="10.0"><path d="M 478.5353,34.5197 l 6.0008,-10.3937 l -6.0008,-10.3937 l -12.0016,-0.0000 l -6.0008,10.3937 l 6.0008,10.3937 Z"/></g><g stroke-linejoin="miter" stroke-opacity="1.0" fill-opacity="0.5" stroke="rgb(0,0,0)" stroke-width="0.37795275590551186" fill="rgb(0,0,0)" stroke-linecap="butt" stroke-miterlimit="10.0"><path d="M 596.8107,380.4486 l 6.0008,-10.3937 l -6.0008,-10.3937 l -12.0016,-0.0000 l -6.0008,10.3937 l 6.0008,10.3937 Z"/></g><g stroke-linejoin="miter" stroke-opacity="1.0" fill-opacity="0.5" stroke="rgb(0,0,0)" stroke-width="0.37795275590551186" fill="rgb(0,0,0)" stroke-linecap="butt" stroke-miterlimit="10.0"><path d="M 193.0133,540.0309 l 6.0008,-10.3937 l -6.0008,-10.3937 l -12.0016,-0.0000 l -6.0008,10.3937 l 6.0008,10.3937 Z"/></g></svg>