<?xml version="1.0" encoding="UTF-8"?>
<!DOCTYPE svg PUBLIC "-//W3C//DTD SVG 1.1//EN"
    "http://www.w3.org/Graphics/SVG/1.1/DTD/svg11.dtd"><svg xmlns="http://www.w3.org/2000/svg" height="2608.5336" stroke-opacity="1" viewBox="0 0 603 2609" font-size="1" width="603.4290" xmlns:xlink="http://www.w3.org/1999/xlink" stroke="rgb(0,0,0)" version="1.1"><defs></defs><defs><linearGradient x2="39.3893" y1="0.0000" gradientUnits="userSpaceOnUse" spreadMethod="pad" gradientTransform="matrix(3.7795,-0.0000,0.0000,-3.7795,20.3464,2552.1076)" id="gradient0" y2="0.0000" x1="-39.3893"><stop stop-opacity="1.0000" offset="0.0000" stop-color="rgb(128,128,128)"/><stop stop-opacity="1.0000" offset="0.5000" stop-color="rgb(255,255,255)"/><stop stop-opacity="1.0000" offset="1.0000" stop-color="rgb(128,128,128)"/></linearGradient></defs><g stroke-linejoin="miter" stroke-opacity="1.0" fill-opacity="1" stroke="rgb(0,0,0)" stroke-width="0.37795275590551186" fill="url(#gradient0)" stroke-linecap="butt" stroke-miterlimit="10.0"><path d="M 3.9685,2115.9418 c 0.0000,-9.0453 7.3326,-16.3779 16.3779 -16.3779c 165.5969,-0.0000 331.1938,-0.0000 496.7907 -0.0000c 7.9481,-0.0000 14.7490,5.7066 16.1292 13.5339c 21.9810,124.6607 43.9621,249.3214 65.9431 373.9821c 0.1693,0.9599 0.2511,1.9159 0.2511 2.8596c 0.0000,7.4654 -5.1229,14.1606 -12.6286 15.9269c -139.1906,32.7545 -278.3811,65.5089 -417.5716 98.2633c -1.2296,0.2893 -2.4885,0.4354 -3.7516 0.4354c -48.3874,-0.0000 -96.7748,-0.0000 -145.1622 -0.0000c -9.0453,-0.0000 -16.3779,-7.3326 -16.3779 -16.3779c 0.0000,-157.4151 0.0000,-314.8302 0.0000 -472.2453ZM 90.2677,2119.7213 c 0.0000,3.1311 2.5383,5.6693 5.6693 5.6693c 3.1310,-0.0000 5.6693,-2.5383 5.6693 -5.6693c 0.0000,-3.1310 -2.5383,-5.6693 -5.6693 -5.6693c -3.1311,-0.0000 -5.6693,2.5383 -5.6693 5.6693ZM 159.8394,2584.4076 c 0.0000,3.1311 2.5383,5.6693 5.6693 5.6693c 3.1311,-0.0000 5.6693,-2.5383 5.6693 -5.6693c 0.0000,-3.1311 -2.5382,-5.6693 -5.6693 -5.6693c -3.1311,-0.0000 -5.6693,2.5382 -5.6693 5.6693ZM 507.6883,2119.7213 c 0.0000,3.1311 2.5382,5.6693 5.6693 5.6693c 3.1311,-0.0000 5.6693,-2.5383 5.6693 -5.6693c 0.0000,-3.1310 -2.5382,-5.6693 -5.6693 -5.6693c -3.1311,-0.0000 -5.6693,2.5383 -5.6693 5.6693ZM 573.6314,2486.1444 c 0.0000,3.1311 2.5382,5.6693 5.6693 5.6693c 3.1311,-0.0000 5.6693,-2.5383 5.6693 -5.6693c 0.0000,-3.1310 -2.5382,-5.6693 -5.6693 -5.6693c -3.1311,-0.0000 -5.6693,2.5383 -5.6693 5.6693Z"/></g><g stroke-linejoin="miter" stroke-opacity="1.0" fill-opacity="0.5" stroke="rgb(0,0,0)" stroke-width="0.37795275590551186" fill="rgb(255,255,0)" stroke-linecap="butt" stroke-miterlimit="10.0"><path d="M 3.9685,1592.0430 c 0.0000,-9.0453 7.3326,-16.3779 16.3779 -16.3779c 165.5969,-0.0000 331.1938,-0.0000 496.7907 -0.0000c 7.9481,-0.0000 14.7490,5.7066 16.1292 13.5339c 21.9810,124.6607 43.9621,249.3214 65.9431 373.9821c 0.1693,0.9599 0.2511,1.9159 0.2511 2.8596c 0.0000,7.4654 -5.1229,14.1606 -12.6286 15.9269c -139.1906,32.7545 -278.3811,65.5089 -417.5716 98.2633c -1.2296,0.2893 -2.4885,0.4354 -3.7516 0.4354c -48.3874,-0.0000 -96.7748,-0.0000 -145.1622 -0.0000c -9.0453,-0.0000 -16.3779,-7.3326 -16.3779 -16.3779c 0.0000,-157.4151 0.0000,-314.8302 0.0000 -472.2453ZM 33.8742,1618.5508 c 0.0000,139.7432 0.0000,279.4865 0.0000 419.2297c 0.0000,8.0298 6.6345,14.5393 14.8187 14.5393c 34.2096,-0.0000 68.4193,-0.0000 102.6289 -0.0000c 2.8319,-4.8954 8.1247,-8.1890 14.1869 -8.1890c 6.0621,-0.0000 11.3550,3.2936 14.1869 8.1890c 0.1132,-0.0000 0.2264,-0.0000 0.3397 -0.0000c 1.1429,-0.0000 2.2820,-0.1298 3.3944 -0.3866c 125.9391,-29.0773 251.8782,-58.1546 377.8173 -87.2319c 0.6142,-0.1418 1.2107,-0.3194 1.7879 -0.5301c -0.0740,-0.6316 -0.1120,-1.2742 -0.1120 -1.9257c 0.0000,-6.5552 3.8511,-12.2110 9.4143 -14.8281c -19.8521,-110.4638 -39.7041,-220.9276 -59.5562 -331.3913c -0.2508,-1.3958 -0.6996,-2.7156 -1.3149 -3.9337c -5.2471,-0.6034 -9.7397,-3.6866 -12.2762 -8.0480c -0.3317,-0.0219 -0.6659,-0.0329 -1.0025 -0.0329c -129.3545,-0.0000 -258.7090,-0.0000 -388.0635 -0.0000c -2.8318,4.8954 -8.1247,8.1890 -14.1869 8.1890c -6.0622,-0.0000 -11.3551,-3.2936 -14.1869 -8.1890c -11.0191,-0.0000 -22.0381,-0.0000 -33.0572 -0.0000c -8.1842,-0.0000 -14.8187,6.5095 -14.8187 14.5393ZM 90.2677,1595.8225 c 0.0000,3.1311 2.5383,5.6693 5.6693 5.6693c 3.1310,-0.0000 5.6693,-2.5383 5.6693 -5.6693c 0.0000,-3.1310 -2.5383,-5.6693 -5.6693 -5.6693c -3.1311,-0.0000 -5.6693,2.5383 -5.6693 5.6693ZM 159.8394,2060.5088 c 0.0000,3.1311 2.5383,5.6693 5.6693 5.6693c 3.1311,-0.0000 5.6693,-2.5383 5.6693 -5.6693c 0.0000,-3.1311 -2.5382,-5.6693 -5.6693 -5.6693c -3.1311,-0.0000 -5.6693,2.5382 -5.6693 5.6693ZM 507.6883,1595.8225 c 0.0000,3.1311 2.5382,5.6693 5.6693 5.6693c 3.1311,-0.0000 5.6693,-2.5383 5.6693 -5.6693c 0.0000,-3.1310 -2.5382,-5.6693 -5.6693 -5.6693c -3.1311,-0.0000 -5.6693,2.5383 -5.6693 5.6693ZM 573.6314,1962.2455 c 0.0000,3.1311 2.5382,5.6693 5.6693 5.6693c 3.1311,-0.0000 5.6693,-2.5383 5.6693 -5.6693c 0.0000,-3.1310 -2.5382,-5.6693 -5.6693 -5.6693c -3.1311,-0.0000 -5.6693,2.5383 -5.6693 5.6693Z"/></g><g stroke-linejoin="miter" stroke-opacity="1.0" fill-opacity="0.5" stroke="rgb(0,0,0)" stroke-width="0.37795275590551186" fill="rgb(255,255,0)" stroke-linecap="butt" stroke-miterlimit="10.0"><path d="M 3.9685,1068.1441 c 0.0000,-9.0453 7.3326,-16.3779 16.3779 -16.3779c 165.5969,-0.0000 331.1938,-0.0000 496.7907 -0.0000c 7.9481,-0.0000 14.7490,5.7066 16.1292 13.5339c 21.9810,124.6607 43.9621,249.3214 65.9431 373.9821c 0.1693,0.9599 0.2511,1.9159 0.2511 2.8596c 0.0000,7.4654 -5.1229,14.1606 -12.6286 15.9269c -139.1906,32.7545 -278.3811,65.5089 -417.5716 98.2633c -1.2296,0.2893 -2.4885,0.4354 -3.7516 0.4354c -48.3874,-0.0000 -96.7748,-0.0000 -145.1622 -0.0000c -9.0453,-0.0000 -16.3779,-7.3326 -16.3779 -16.3779c 0.0000,-157.4151 0.0000,-314.8302 0.0000 -472.2453ZM 33.8742,1094.6520 c 0.0000,139.7432 0.0000,279.4865 0.0000 419.2297c 0.0000,8.0298 6.6345,14.5393 14.8187 14.5393c 34.2096,-0.0000 68.4193,-0.0000 102.6289 -0.0000c 2.8319,-4.8954 8.1247,-8.1890 14.1869 -8.1890c 6.0621,-0.0000 11.3550,3.2936 14.1869 8.1890c 0.1132,-0.0000 0.2264,-0.0000 0.3397 -0.0000c 1.1429,-0.0000 2.2820,-0.1298 3.3944 -0.3866c 125.9391,-29.0773 251.8782,-58.1546 377.8173 -87.2319c 0.6142,-0.1418 1.2107,-0.3194 1.7879 -0.5301c -0.0740,-0.6316 -0.1120,-1.2742 -0.1120 -1.9257c 0.0000,-6.5552 3.8511,-12.2110 9.4143 -14.8281c -19.8521,-110.4638 -39.7041,-220.9276 -59.5562 -331.3913c -0.2508,-1.3958 -0.6996,-2.7156 -1.3149 -3.9337c -5.2471,-0.6034 -9.7397,-3.6866 -12.2762 -8.0480c -0.3317,-0.0219 -0.6659,-0.0329 -1.0025 -0.0329c -129.3545,-0.0000 -258.7090,-0.0000 -388.0635 -0.0000c -2.8318,4.8954 -8.1247,8.1890 -14.1869 8.1890c -6.0622,-0.0000 -11.3551,-3.2936 -14.1869 -8.1890c -11.0191,-0.0000 -22.0381,-0.0000 -33.0572 -0.0000c -8.1842,-0.0000 -14.8187,6.5095 -14.8187 14.5393ZM 90.2677,1071.9236 c 0.0000,3.1311 2.5383,5.6693 5.6693 5.6693c 3.1310,-0.0000 5.6693,-2.5383 5.6693 -5.6693c 0.0000,-3.1310 -2.5383,-5.6693 -5.6693 -5.6693c -3.1311,-0.0000 -5.6693,2.5383 -5.6693 5.6693ZM 159.8394,1536.6099 c 0.0000,3.1311 2.5383,5.6693 5.6693 5.6693c 3.1311,-0.0000 5.6693,-2.5383 5.6693 -5.6693c 0.0000,-3.1311 -2.5382,-5.6693 -5.6693 -5.6693c -3.1311,-0.0000 -5.6693,2.5382 -5.6693 5.6693ZM 507.6883,1071.9236 c 0.0000,3.1311 2.5382,5.6693 5.6693 5.6693c 3.1311,-0.0000 5.6693,-2.5383 5.6693 -5.6693c 0.0000,-3.1310 -2.5382,-5.6693 -5.6693 -5.6693c -3.1311,-0.0000 -5.6693,2.5383 -5.6693 5.6693ZM 573.6314,1438.3467 c 0.0000,3.1311 2.5382,5.6693 5.6693 5.6693c 3.1311,-0.0000 5.6693,-2.5383 5.6693 -5.6693c 0.0000,-3.1310 -2.5382,-5.6693 -5.6693 -5.6693c -3.1311,-0.0000 -5.6693,2.5383 -5.6693 5.6693Z"/></g><g stroke-linejoin="miter" stroke-opacity="1.0" fill-opacity="0.5" stroke="rgb(0,0,0)" stroke-width="0.37795275590551186" fill="rgb(0,0,0)" stroke-linecap="butt" stroke-miterlimit="10.0"><path d="M 3.9685,544.2453 c 0.0000,-9.0453 7.3326,-16.3779 16.3779 -16.3779c 165.5969,-0.0000 331.1938,-0.0000 496.7907 -0.0000c 7.9481,-0.0000 14.7490,5.7066 16.1292 13.5339c 21.9810,124.6607 43.9621,249.3214 65.9431 373.9821c 0.1693,0.9599 0.2511,1.9159 0.2511 2.8596c 0.0000,7.4654 -5.1229,14.1606 -12.6286 15.9269c -139.1906,32.7545 -278.3811,65.5089 -417.5716 98.2633c -1.2296,0.2893 -2.4885,0.4354 -3.7516 0.4354c -48.3874,-0.0000 -96.7748,-0.0000 -145.1622 -0.0000c -9.0453,-0.0000 -16.3779,-7.3326 -16.3779 -16.3779c 0.0000,-157.4151 0.0000,-314.8302 0.0000 -472.2453ZM 55.5886,914.6930 c 0.7657,4.3426 1.5315,8.6851 2.2972 13.0277c 1.0084,-0.1778 2.0169,-0.3557 3.0254 -0.5335c 1.0958,6.2146 2.1915,12.4291 3.2874 18.6437c -1.0084,0.1779 -2.0169,0.3557 -3.0254 0.5335c 0.7658,4.3426 1.5315,8.6852 2.2972 13.0277c 1.0084,-0.1778 2.0169,-0.3556 3.0254 -0.5335c 0.2145,1.2165 0.4290,2.4329 0.6434 3.6494c 17.3326,-3.0562 34.6653,-6.1124 51.9978 -9.1686c -0.2145,-1.2164 -0.4290,-2.4329 -0.6434 -3.6494c 1.0084,-0.1778 2.0169,-0.3556 3.0253 -0.5334c -0.7657,-4.3426 -1.5314,-8.6852 -2.2971 -13.0278c -1.0085,0.1779 -2.0169,0.3557 -3.0254 0.5335c -1.0958,-6.2146 -2.1916,-12.4291 -3.2874 -18.6437c 1.0084,-0.1778 2.0169,-0.3557 3.0253 -0.5335c -0.7657,-4.3426 -1.5314,-8.6851 -2.2971 -13.0277c -1.0085,0.1778 -2.0169,0.3557 -3.0254 0.5335c -0.2145,-1.2164 -0.4290,-2.4329 -0.6435 -3.6493c -17.3326,3.0562 -34.6652,6.1124 -51.9978 9.1686c 0.2145,1.2164 0.4290,2.4329 0.6435 3.6493c -1.0084,0.1778 -2.0169,0.3557 -3.0254 0.5335ZM 82.6642,654.7030 c 0.7657,4.3426 1.5314,8.6852 2.2972 13.0278c 1.0084,-0.1779 2.0169,-0.3557 3.0253 -0.5335c 1.0958,6.2146 2.1916,12.4291 3.2874 18.6437c -1.0084,0.1778 -2.0169,0.3557 -3.0253 0.5335c 0.7657,4.3426 1.5314,8.6851 2.2972 13.0277c 1.0084,-0.1778 2.0169,-0.3557 3.0253 -0.5335c 0.2145,1.2164 0.4290,2.4329 0.6435 3.6493c 17.3326,-3.0562 34.6652,-6.1124 51.9978 -9.1686c -0.2145,-1.2164 -0.4290,-2.4329 -0.6435 -3.6493c 1.0084,-0.1778 2.0169,-0.3557 3.0254 -0.5335c -0.7657,-4.3425 -1.5315,-8.6851 -2.2972 -13.0277c -1.0084,0.1778 -2.0169,0.3557 -3.0253 0.5335c -1.0958,-6.2146 -2.1916,-12.4291 -3.2874 -18.6437c 1.0084,-0.1779 2.0169,-0.3557 3.0254 -0.5335c -0.7657,-4.3426 -1.5315,-8.6852 -2.2972 -13.0277c -1.0084,0.1778 -2.0169,0.3556 -3.0253 0.5335c -0.2145,-1.2165 -0.4290,-2.4329 -0.6435 -3.6494c -17.3326,3.0562 -34.6652,6.1124 -51.9978 9.1686c 0.2145,1.2164 0.4290,2.4329 0.6434 3.6494c -1.0084,0.1778 -2.0169,0.3556 -3.0253 0.5334ZM 90.2677,548.0248 c 0.0000,3.1311 2.5383,5.6693 5.6693 5.6693c 3.1310,-0.0000 5.6693,-2.5383 5.6693 -5.6693c 0.0000,-3.1310 -2.5383,-5.6693 -5.6693 -5.6693c -3.1311,-0.0000 -5.6693,2.5383 -5.6693 5.6693ZM 95.1340,725.4231 c 0.7657,4.3425 1.5315,8.6851 2.2972 13.0277c 1.0084,-0.1778 2.0169,-0.3557 3.0253 -0.5335c 1.0958,6.2146 2.1916,12.4291 3.2874 18.6437c -1.0084,0.1779 -2.0169,0.3557 -3.0254 0.5335c 0.7657,4.3426 1.5315,8.6852 2.2972 13.0277c 1.0084,-0.1778 2.0169,-0.3556 3.0253 -0.5334c 0.2145,1.2164 0.4290,2.4329 0.6435 3.6493c 17.3326,-3.0562 34.6652,-6.1124 51.9978 -9.1686c -0.2145,-1.2164 -0.4290,-2.4329 -0.6434 -3.6494c 1.0084,-0.1778 2.0169,-0.3556 3.0253 -0.5335c -0.7657,-4.3425 -1.5314,-8.6851 -2.2972 -13.0277c -1.0084,0.1779 -2.0169,0.3557 -3.0253 0.5335c -1.0958,-6.2146 -2.1916,-12.4291 -3.2874 -18.6437c 1.0085,-0.1778 2.0169,-0.3557 3.0254 -0.5335c -0.7657,-4.3426 -1.5314,-8.6851 -2.2972 -13.0277c -1.0084,0.1778 -2.0169,0.3557 -3.0253 0.5335c -0.2145,-1.2164 -0.4290,-2.4329 -0.6435 -3.6493c -17.3326,3.0562 -34.6652,6.1124 -51.9978 9.1686c 0.2145,1.2164 0.4290,2.4329 0.6435 3.6493c -1.0084,0.1778 -2.0169,0.3557 -3.0254 0.5335ZM 107.6039,796.1431 c 0.7658,4.3426 1.5315,8.6852 2.2972 13.0277c 1.0084,-0.1778 2.0169,-0.3556 3.0253 -0.5335c 1.0958,6.2146 2.1916,12.4292 3.2874 18.6437c -1.0084,0.1778 -2.0169,0.3556 -3.0254 0.5335c 0.7658,4.3425 1.5315,8.6851 2.2972 13.0277c 1.0084,-0.1779 2.0169,-0.3557 3.0254 -0.5335c 0.2145,1.2164 0.4290,2.4329 0.6434 3.6493c 17.3326,-3.0562 34.6653,-6.1124 51.9978 -9.1686c -0.2145,-1.2164 -0.4290,-2.4329 -0.6434 -3.6493c 1.0084,-0.1779 2.0169,-0.3557 3.0253 -0.5335c -0.7657,-4.3426 -1.5314,-8.6852 -2.2971 -13.0277c -1.0085,0.1778 -2.0169,0.3556 -3.0254 0.5335c -1.0958,-6.2146 -2.1916,-12.4292 -3.2874 -18.6437c 1.0084,-0.1778 2.0169,-0.3556 3.0253 -0.5335c -0.7657,-4.3425 -1.5314,-8.6851 -2.2972 -13.0277c -1.0084,0.1779 -2.0169,0.3557 -3.0253 0.5335c -0.2145,-1.2164 -0.4290,-2.4329 -0.6435 -3.6493c -17.3326,3.0562 -34.6652,6.1124 -51.9978 9.1686c 0.2145,1.2164 0.4290,2.4329 0.6435 3.6493c -1.0084,0.1779 -2.0169,0.3557 -3.0254 0.5335ZM 120.0737,866.8631 c 0.7658,4.3426 1.5315,8.6852 2.2972 13.0278c 1.0084,-0.1779 2.0169,-0.3557 3.0254 -0.5335c 1.0958,6.2146 2.1916,12.4291 3.2874 18.6437c -1.0084,0.1778 -2.0169,0.3557 -3.0253 0.5335c 0.7657,4.3426 1.5314,8.6851 2.2971 13.0277c 1.0084,-0.1778 2.0169,-0.3557 3.0254 -0.5335c 0.2145,1.2164 0.4290,2.4329 0.6434 3.6493c 17.3326,-3.0562 34.6653,-6.1124 51.9979 -9.1686c -0.2145,-1.2164 -0.4290,-2.4329 -0.6435 -3.6493c 1.0084,-0.1778 2.0169,-0.3557 3.0253 -0.5335c -0.7657,-4.3426 -1.5314,-8.6851 -2.2971 -13.0277c -1.0084,0.1778 -2.0169,0.3557 -3.0254 0.5335c -1.0958,-6.2146 -2.1916,-12.4291 -3.2874 -18.6437c 1.0084,-0.1779 2.0169,-0.3557 3.0253 -0.5335c -0.7657,-4.3426 -1.5314,-8.6852 -2.2971 -13.0277c -1.0084,0.1778 -2.0169,0.3556 -3.0254 0.5334c -0.2145,-1.2164 -0.4290,-2.4329 -0.6434 -3.6493c -17.3326,3.0562 -34.6653,6.1124 -51.9979 9.1686c 0.2145,1.2164 0.4290,2.4329 0.6435 3.6494c -1.0084,0.1778 -2.0169,0.3556 -3.0254 0.5334ZM 132.5436,937.5832 c 0.7657,4.3425 1.5314,8.6851 2.2971 13.0277c 1.0085,-0.1778 2.0169,-0.3557 3.0254 -0.5335c 1.0958,6.2146 2.1916,12.4291 3.2874 18.6437c -1.0084,0.1779 -2.0169,0.3557 -3.0253 0.5335c 0.7657,4.3426 1.5314,8.6852 2.2971 13.0277c 1.0085,-0.1778 2.0169,-0.3556 3.0254 -0.5335c 0.2145,1.2165 0.4290,2.4329 0.6435 3.6494c 17.3326,-3.0562 34.6652,-6.1124 51.9978 -9.1686c -0.2145,-1.2164 -0.4290,-2.4329 -0.6435 -3.6494c 1.0084,-0.1778 2.0169,-0.3556 3.0254 -0.5335c -0.7658,-4.3425 -1.5315,-8.6851 -2.2972 -13.0277c -1.0084,0.1779 -2.0169,0.3557 -3.0253 0.5335c -1.0958,-6.2146 -2.1916,-12.4291 -3.2874 -18.6437c 1.0084,-0.1778 2.0169,-0.3557 3.0254 -0.5335c -0.7658,-4.3426 -1.5315,-8.6851 -2.2972 -13.0277c -1.0084,0.1778 -2.0169,0.3556 -3.0254 0.5335c -0.2145,-1.2164 -0.4290,-2.4329 -0.6434 -3.6493c -17.3326,3.0562 -34.6653,6.1124 -51.9978 9.1686c 0.2145,1.2164 0.4290,2.4329 0.6434 3.6493c -1.0084,0.1778 -2.0169,0.3556 -3.0253 0.5335ZM 150.1027,623.6226 c 0.7658,4.3426 1.5315,8.6851 2.2972 13.0277c 1.0084,-0.1778 2.0169,-0.3556 3.0254 -0.5335c 1.0958,6.2146 2.1915,12.4291 3.2874 18.6437c -1.0084,0.1779 -2.0169,0.3557 -3.0254 0.5335c 0.7658,4.3426 1.5315,8.6852 2.2972 13.0277c 1.0084,-0.1778 2.0169,-0.3556 3.0254 -0.5334c 0.2145,1.2164 0.4290,2.4329 0.6434 3.6493c 17.3326,-3.0562 34.6653,-6.1124 51.9979 -9.1686c -0.2145,-1.2164 -0.4290,-2.4329 -0.6435 -3.6493c 1.0084,-0.1779 2.0169,-0.3557 3.0253 -0.5335c -0.7657,-4.3426 -1.5314,-8.6852 -2.2971 -13.0277c -1.0084,0.1778 -2.0169,0.3556 -3.0254 0.5334c -1.0958,-6.2146 -2.1916,-12.4291 -3.2874 -18.6437c 1.0084,-0.1778 2.0169,-0.3557 3.0253 -0.5335c -0.7657,-4.3425 -1.5314,-8.6851 -2.2971 -13.0277c -1.0085,0.1778 -2.0169,0.3557 -3.0254 0.5335c -0.2145,-1.2164 -0.4290,-2.4329 -0.6435 -3.6493c -17.3326,3.0562 -34.6652,6.1124 -51.9978 9.1686c 0.2145,1.2164 0.4290,2.4329 0.6435 3.6493c -1.0084,0.1778 -2.0169,0.3557 -3.0254 0.5335ZM 159.8394,1012.7111 c 0.0000,3.1311 2.5383,5.6693 5.6693 5.6693c 3.1311,-0.0000 5.6693,-2.5383 5.6693 -5.6693c 0.0000,-3.1311 -2.5382,-5.6693 -5.6693 -5.6693c -3.1311,-0.0000 -5.6693,2.5382 -5.6693 5.6693ZM 162.5725,694.3426 c 0.7657,4.3426 1.5314,8.6852 2.2971 13.0277c 1.0084,-0.1778 2.0169,-0.3556 3.0254 -0.5334c 1.0958,6.2146 2.1916,12.4291 3.2874 18.6437c -1.0084,0.1778 -2.0169,0.3556 -3.0253 0.5335c 0.7657,4.3425 1.5314,8.6851 2.2971 13.0277c 1.0084,-0.1778 2.0169,-0.3557 3.0254 -0.5335c 0.2145,1.2164 0.4290,2.4329 0.6435 3.6493c 17.3326,-3.0562 34.6652,-6.1124 51.9978 -9.1686c -0.2145,-1.2164 -0.4290,-2.4329 -0.6435 -3.6493c 1.0084,-0.1778 2.0169,-0.3557 3.0254 -0.5335c -0.7658,-4.3426 -1.5315,-8.6851 -2.2972 -13.0277c -1.0084,0.1778 -2.0169,0.3556 -3.0254 0.5335c -1.0958,-6.2146 -2.1916,-12.4291 -3.2874 -18.6437c 1.0084,-0.1778 2.0169,-0.3556 3.0253 -0.5334c -0.7657,-4.3426 -1.5314,-8.6852 -2.2971 -13.0278c -1.0084,0.1779 -2.0169,0.3557 -3.0254 0.5335c -0.2145,-1.2164 -0.4290,-2.4329 -0.6434 -3.6493c -17.3326,3.0562 -34.6653,6.1124 -51.9979 9.1686c 0.2145,1.2164 0.4290,2.4329 0.6435 3.6493c -1.0084,0.1779 -2.0169,0.3557 -3.0253 0.5335ZM 175.0424,765.0627 c 0.7657,4.3425 1.5314,8.6851 2.2972 13.0277c 1.0084,-0.1779 2.0169,-0.3557 3.0253 -0.5335c 1.0958,6.2146 2.1916,12.4291 3.2874 18.6437c -1.0084,0.1778 -2.0169,0.3557 -3.0253 0.5335c 0.7657,4.3426 1.5314,8.6851 2.2972 13.0277c 1.0084,-0.1778 2.0169,-0.3556 3.0253 -0.5335c 0.2145,1.2164 0.4290,2.4329 0.6435 3.6494c 17.3326,-3.0562 34.6652,-6.1125 51.9978 -9.1686c -0.2145,-1.2165 -0.4290,-2.4329 -0.6435 -3.6494c 1.0084,-0.1778 2.0169,-0.3556 3.0254 -0.5335c -0.7657,-4.3425 -1.5315,-8.6851 -2.2972 -13.0277c -1.0084,0.1778 -2.0169,0.3557 -3.0253 0.5335c -1.0958,-6.2146 -2.1916,-12.4291 -3.2874 -18.6437c 1.0084,-0.1779 2.0169,-0.3557 3.0254 -0.5335c -0.7658,-4.3426 -1.5315,-8.6852 -2.2972 -13.0277c -1.0084,0.1778 -2.0169,0.3556 -3.0253 0.5335c -0.2145,-1.2165 -0.4290,-2.4329 -0.6435 -3.6494c -17.3326,3.0562 -34.6653,6.1124 -51.9978 9.1686c 0.2145,1.2164 0.4290,2.4329 0.6434 3.6494c -1.0084,0.1778 -2.0169,0.3556 -3.0253 0.5335ZM 187.5122,835.7828 c 0.7657,4.3426 1.5314,8.6851 2.2972 13.0277c 1.0084,-0.1778 2.0169,-0.3557 3.0253 -0.5335c 1.0958,6.2146 2.1916,12.4291 3.2874 18.6437c -1.0084,0.1779 -2.0169,0.3557 -3.0254 0.5335c 0.7657,4.3426 1.5315,8.6852 2.2972 13.0277c 1.0084,-0.1778 2.0169,-0.3556 3.0253 -0.5334c 0.2145,1.2164 0.4290,2.4329 0.6435 3.6493c 17.3326,-3.0562 34.6652,-6.1124 51.9978 -9.1686c -0.2145,-1.2164 -0.4290,-2.4329 -0.6435 -3.6494c 1.0085,-0.1778 2.0169,-0.3556 3.0254 -0.5334c -0.7657,-4.3426 -1.5314,-8.6852 -2.2972 -13.0278c -1.0084,0.1779 -2.0169,0.3557 -3.0253 0.5335c -1.0958,-6.2146 -2.1916,-12.4291 -3.2874 -18.6437c 1.0085,-0.1778 2.0169,-0.3556 3.0254 -0.5335c -0.7657,-4.3425 -1.5314,-8.6851 -2.2972 -13.0277c -1.0084,0.1778 -2.0169,0.3557 -3.0253 0.5335c -0.2145,-1.2164 -0.4290,-2.4329 -0.6435 -3.6493c -17.3326,3.0562 -34.6652,6.1124 -51.9978 9.1686c 0.2145,1.2164 0.4290,2.4329 0.6435 3.6493c -1.0085,0.1778 -2.0169,0.3557 -3.0254 0.5335ZM 199.9821,906.5028 c 0.7657,4.3426 1.5315,8.6852 2.2972 13.0277c 1.0084,-0.1778 2.0169,-0.3556 3.0253 -0.5335c 1.0958,6.2146 2.1916,12.4292 3.2874 18.6437c -1.0084,0.1778 -2.0169,0.3556 -3.0254 0.5335c 0.7658,4.3425 1.5315,8.6851 2.2972 13.0277c 1.0084,-0.1779 2.0169,-0.3557 3.0253 -0.5335c 0.2145,1.2164 0.4290,2.4329 0.6435 3.6493c 17.3326,-3.0562 34.6653,-6.1124 51.9978 -9.1686c -0.2145,-1.2164 -0.4290,-2.4329 -0.6434 -3.6493c 1.0084,-0.1778 2.0169,-0.3557 3.0253 -0.5335c -0.7657,-4.3426 -1.5314,-8.6852 -2.2971 -13.0277c -1.0085,0.1778 -2.0169,0.3556 -3.0254 0.5335c -1.0958,-6.2146 -2.1916,-12.4292 -3.2874 -18.6437c 1.0084,-0.1778 2.0169,-0.3556 3.0253 -0.5334c -0.7657,-4.3426 -1.5314,-8.6852 -2.2971 -13.0278c -1.0085,0.1779 -2.0169,0.3557 -3.0254 0.5335c -0.2145,-1.2164 -0.4290,-2.4329 -0.6435 -3.6493c -17.3326,3.0562 -34.6652,6.1124 -51.9978 9.1686c 0.2145,1.2164 0.4290,2.4329 0.6435 3.6493c -1.0084,0.1779 -2.0169,0.3557 -3.0254 0.5335ZM 216.8849,588.8201 c 0.7657,4.3426 1.5314,8.6852 2.2972 13.0277c 1.0084,-0.1778 2.0169,-0.3556 3.0253 -0.5334c 1.0958,6.2146 2.1916,12.4291 3.2874 18.6437c -1.0085,0.1778 -2.0169,0.3556 -3.0254 0.5335c 0.7657,4.3425 1.5314,8.6851 2.2972 13.0277c 1.0084,-0.1778 2.0169,-0.3557 3.0253 -0.5335c 0.2145,1.2164 0.4290,2.4329 0.6435 3.6493c 17.3326,-3.0562 34.6652,-6.1124 51.9978 -9.1686c -0.2145,-1.2164 -0.4290,-2.4329 -0.6435 -3.6493c 1.0085,-0.1778 2.0169,-0.3557 3.0254 -0.5335c -0.7657,-4.3426 -1.5315,-8.6851 -2.2972 -13.0277c -1.0084,0.1778 -2.0169,0.3556 -3.0253 0.5335c -1.0958,-6.2146 -2.1916,-12.4291 -3.2874 -18.6437c 1.0084,-0.1779 2.0169,-0.3557 3.0254 -0.5335c -0.7657,-4.3426 -1.5315,-8.6852 -2.2972 -13.0278c -1.0084,0.1779 -2.0169,0.3557 -3.0253 0.5335c -0.2145,-1.2164 -0.4290,-2.4329 -0.6435 -3.6493c -17.3326,3.0562 -34.6652,6.1124 -51.9978 9.1686c 0.2145,1.2164 0.4290,2.4329 0.6435 3.6493c -1.0085,0.1779 -2.0169,0.3557 -3.0254 0.5335ZM 229.3547,659.5402 c 0.7657,4.3425 1.5315,8.6851 2.2972 13.0277c 1.0084,-0.1779 2.0169,-0.3557 3.0253 -0.5335c 1.0958,6.2146 2.1916,12.4291 3.2874 18.6437c -1.0084,0.1778 -2.0169,0.3557 -3.0254 0.5335c 0.7657,4.3426 1.5315,8.6851 2.2972 13.0277c 1.0084,-0.1778 2.0169,-0.3556 3.0253 -0.5335c 0.2145,1.2164 0.4290,2.4329 0.6435 3.6494c 17.3326,-3.0562 34.6653,-6.1124 51.9978 -9.1686c -0.2145,-1.2165 -0.4290,-2.4329 -0.6434 -3.6494c 1.0084,-0.1778 2.0169,-0.3556 3.0253 -0.5335c -0.7657,-4.3425 -1.5314,-8.6851 -2.2972 -13.0277c -1.0084,0.1778 -2.0169,0.3557 -3.0253 0.5335c -1.0958,-6.2146 -2.1916,-12.4291 -3.2874 -18.6437c 1.0084,-0.1778 2.0169,-0.3557 3.0253 -0.5335c -0.7657,-4.3426 -1.5314,-8.6852 -2.2972 -13.0277c -1.0084,0.1778 -2.0169,0.3556 -3.0253 0.5335c -0.2145,-1.2164 -0.4290,-2.4329 -0.6435 -3.6494c -17.3326,3.0562 -34.6652,6.1124 -51.9978 9.1686c 0.2145,1.2164 0.4290,2.4329 0.6435 3.6494c -1.0084,0.1778 -2.0169,0.3556 -3.0254 0.5335ZM 241.8246,730.2602 c 0.7658,4.3426 1.5315,8.6851 2.2972 13.0277c 1.0084,-0.1778 2.0169,-0.3557 3.0254 -0.5335c 1.0958,6.2146 2.1915,12.4291 3.2874 18.6437c -1.0084,0.1779 -2.0169,0.3557 -3.0254 0.5335c 0.7658,4.3426 1.5315,8.6852 2.2972 13.0277c 1.0084,-0.1778 2.0169,-0.3556 3.0254 -0.5334c 0.2145,1.2164 0.4290,2.4329 0.6434 3.6493c 17.3326,-3.0562 34.6653,-6.1124 51.9979 -9.1686c -0.2145,-1.2164 -0.4290,-2.4329 -0.6435 -3.6493c 1.0084,-0.1779 2.0169,-0.3557 3.0253 -0.5335c -0.7657,-4.3426 -1.5314,-8.6852 -2.2971 -13.0278c -1.0084,0.1779 -2.0169,0.3557 -3.0254 0.5335c -1.0958,-6.2146 -2.1916,-12.4291 -3.2874 -18.6437c 1.0084,-0.1778 2.0169,-0.3556 3.0253 -0.5335c -0.7657,-4.3425 -1.5314,-8.6851 -2.2971 -13.0277c -1.0085,0.1778 -2.0169,0.3557 -3.0254 0.5335c -0.2145,-1.2164 -0.4290,-2.4329 -0.6435 -3.6493c -17.3326,3.0562 -34.6652,6.1124 -51.9978 9.1686c 0.2145,1.2164 0.4290,2.4329 0.6435 3.6493c -1.0084,0.1778 -2.0169,0.3557 -3.0254 0.5335ZM 254.2945,800.9802 c 0.7657,4.3426 1.5314,8.6852 2.2971 13.0277c 1.0084,-0.1778 2.0169,-0.3556 3.0254 -0.5334c 1.0958,6.2146 2.1916,12.4291 3.2874 18.6437c -1.0084,0.1778 -2.0169,0.3556 -3.0253 0.5335c 0.7657,4.3425 1.5314,8.6851 2.2971 13.0277c 1.0084,-0.1779 2.0169,-0.3557 3.0254 -0.5335c 0.2145,1.2164 0.4290,2.4329 0.6435 3.6493c 17.3326,-3.0562 34.6652,-6.1124 51.9978 -9.1686c -0.2145,-1.2164 -0.4290,-2.4329 -0.6435 -3.6493c 1.0084,-0.1778 2.0169,-0.3557 3.0254 -0.5335c -0.7658,-4.3426 -1.5315,-8.6852 -2.2972 -13.0277c -1.0084,0.1778 -2.0169,0.3556 -3.0254 0.5335c -1.0958,-6.2146 -2.1916,-12.4291 -3.2874 -18.6437c 1.0084,-0.1778 2.0169,-0.3556 3.0253 -0.5334c -0.7657,-4.3426 -1.5314,-8.6852 -2.2971 -13.0278c -1.0084,0.1779 -2.0169,0.3557 -3.0254 0.5335c -0.2145,-1.2164 -0.4290,-2.4329 -0.6434 -3.6493c -17.3326,3.0562 -34.6653,6.1124 -51.9979 9.1686c 0.2145,1.2164 0.4290,2.4329 0.6435 3.6493c -1.0084,0.1779 -2.0169,0.3557 -3.0253 0.5335ZM 266.7643,871.7003 c 0.7657,4.3425 1.5314,8.6851 2.2971 13.0277c 1.0085,-0.1779 2.0169,-0.3557 3.0254 -0.5335c 1.0958,6.2146 2.1916,12.4291 3.2874 18.6437c -1.0084,0.1778 -2.0169,0.3557 -3.0253 0.5335c 0.7657,4.3426 1.5314,8.6851 2.2972 13.0277c 1.0084,-0.1778 2.0169,-0.3556 3.0253 -0.5335c 0.2145,1.2164 0.4290,2.4329 0.6435 3.6494c 17.3326,-3.0562 34.6652,-6.1124 51.9978 -9.1687c -0.2145,-1.2164 -0.4290,-2.4329 -0.6435 -3.6493c 1.0084,-0.1778 2.0169,-0.3556 3.0254 -0.5335c -0.7657,-4.3425 -1.5315,-8.6851 -2.2972 -13.0277c -1.0084,0.1778 -2.0169,0.3557 -3.0253 0.5335c -1.0958,-6.2146 -2.1916,-12.4291 -3.2874 -18.6437c 1.0084,-0.1779 2.0169,-0.3557 3.0254 -0.5335c -0.7658,-4.3426 -1.5315,-8.6852 -2.2972 -13.0277c -1.0084,0.1778 -2.0169,0.3556 -3.0253 0.5335c -0.2145,-1.2164 -0.4290,-2.4329 -0.6435 -3.6494c -17.3326,3.0562 -34.6653,6.1124 -51.9978 9.1686c 0.2145,1.2165 0.4290,2.4329 0.6434 3.6494c -1.0084,0.1778 -2.0169,0.3556 -3.0253 0.5335ZM 290.8865,594.9608 c 0.7657,4.3426 1.5315,8.6852 2.2972 13.0278c 1.0084,-0.1779 2.0169,-0.3557 3.0253 -0.5335c 1.0958,6.2146 2.1916,12.4291 3.2874 18.6437c -1.0085,0.1778 -2.0169,0.3557 -3.0254 0.5335c 0.7657,4.3425 1.5315,8.6851 2.2972 13.0277c 1.0084,-0.1778 2.0169,-0.3557 3.0253 -0.5335c 0.2145,1.2164 0.4290,2.4329 0.6435 3.6493c 17.3326,-3.0562 34.6652,-6.1124 51.9978 -9.1686c -0.2145,-1.2164 -0.4290,-2.4329 -0.6435 -3.6493c 1.0085,-0.1778 2.0169,-0.3557 3.0254 -0.5335c -0.7657,-4.3426 -1.5314,-8.6851 -2.2972 -13.0277c -1.0084,0.1778 -2.0169,0.3557 -3.0253 0.5335c -1.0958,-6.2146 -2.1916,-12.4291 -3.2874 -18.6437c 1.0085,-0.1779 2.0169,-0.3557 3.0254 -0.5335c -0.7657,-4.3426 -1.5315,-8.6852 -2.2972 -13.0277c -1.0084,0.1778 -2.0169,0.3556 -3.0253 0.5335c -0.2145,-1.2165 -0.4290,-2.4329 -0.6435 -3.6494c -17.3326,3.0562 -34.6652,6.1124 -51.9978 9.1686c 0.2145,1.2164 0.4290,2.4329 0.6435 3.6494c -1.0085,0.1778 -2.0169,0.3556 -3.0254 0.5334ZM 303.3563,665.6809 c 0.7657,4.3425 1.5315,8.6851 2.2972 13.0277c 1.0084,-0.1778 2.0169,-0.3557 3.0254 -0.5335c 1.0958,6.2146 2.1915,12.4291 3.2874 18.6437c -1.0084,0.1779 -2.0169,0.3557 -3.0254 0.5335c 0.7658,4.3426 1.5315,8.6852 2.2972 13.0277c 1.0084,-0.1778 2.0169,-0.3556 3.0253 -0.5335c 0.2145,1.2165 0.4290,2.4329 0.6435 3.6494c 17.3326,-3.0562 34.6653,-6.1124 51.9978 -9.1686c -0.2145,-1.2164 -0.4290,-2.4329 -0.6434 -3.6494c 1.0084,-0.1778 2.0169,-0.3556 3.0253 -0.5335c -0.7657,-4.3425 -1.5314,-8.6851 -2.2971 -13.0277c -1.0085,0.1779 -2.0169,0.3557 -3.0254 0.5335c -1.0958,-6.2146 -2.1916,-12.4291 -3.2874 -18.6437c 1.0084,-0.1778 2.0169,-0.3557 3.0253 -0.5335c -0.7657,-4.3426 -1.5314,-8.6851 -2.2971 -13.0277c -1.0085,0.1778 -2.0169,0.3557 -3.0254 0.5335c -0.2145,-1.2164 -0.4290,-2.4329 -0.6435 -3.6494c -17.3326,3.0563 -34.6652,6.1125 -51.9978 9.1687c 0.2145,1.2164 0.4290,2.4329 0.6435 3.6493c -1.0084,0.1778 -2.0169,0.3556 -3.0254 0.5335ZM 315.8262,736.4009 c 0.7657,4.3426 1.5314,8.6852 2.2971 13.0277c 1.0084,-0.1778 2.0169,-0.3556 3.0254 -0.5335c 1.0958,6.2146 2.1916,12.4292 3.2874 18.6437c -1.0084,0.1778 -2.0169,0.3556 -3.0253 0.5334c 0.7657,4.3426 1.5314,8.6852 2.2971 13.0278c 1.0084,-0.1779 2.0169,-0.3557 3.0254 -0.5335c 0.2145,1.2164 0.4290,2.4329 0.6434 3.6493c 17.3326,-3.0562 34.6653,-6.1124 51.9979 -9.1686c -0.2145,-1.2164 -0.4290,-2.4329 -0.6435 -3.6493c 1.0084,-0.1779 2.0169,-0.3557 3.0253 -0.5335c -0.7657,-4.3426 -1.5314,-8.6852 -2.2971 -13.0277c -1.0084,0.1778 -2.0169,0.3556 -3.0254 0.5335c -1.0958,-6.2146 -2.1916,-12.4292 -3.2874 -18.6437c 1.0084,-0.1778 2.0169,-0.3556 3.0253 -0.5335c -0.7657,-4.3425 -1.5314,-8.6851 -2.2971 -13.0277c -1.0084,0.1779 -2.0169,0.3557 -3.0254 0.5335c -0.2145,-1.2164 -0.4290,-2.4329 -0.6435 -3.6493c -17.3326,3.0562 -34.6652,6.1124 -51.9978 9.1686c 0.2145,1.2164 0.4290,2.4329 0.6435 3.6493c -1.0084,0.1779 -2.0169,0.3557 -3.0253 0.5335ZM 328.2960,807.1209 c 0.7657,4.3426 1.5314,8.6852 2.2971 13.0278c 1.0084,-0.1779 2.0169,-0.3557 3.0254 -0.5335c 1.0958,6.2146 2.1916,12.4291 3.2874 18.6437c -1.0084,0.1778 -2.0169,0.3557 -3.0253 0.5335c 0.7657,4.3425 1.5314,8.6851 2.2971 13.0277c 1.0085,-0.1778 2.0169,-0.3557 3.0254 -0.5335c 0.2145,1.2164 0.4290,2.4329 0.6435 3.6493c 17.3326,-3.0562 34.6652,-6.1124 51.9978 -9.1686c -0.2145,-1.2164 -0.4290,-2.4329 -0.6435 -3.6493c 1.0084,-0.1778 2.0169,-0.3557 3.0254 -0.5335c -0.7658,-4.3426 -1.5315,-8.6851 -2.2972 -13.0277c -1.0084,0.1778 -2.0169,0.3557 -3.0254 0.5335c -1.0958,-6.2146 -2.1915,-12.4291 -3.2874 -18.6437c 1.0084,-0.1779 2.0169,-0.3557 3.0254 -0.5335c -0.7658,-4.3426 -1.5315,-8.6852 -2.2972 -13.0277c -1.0084,0.1778 -2.0169,0.3556 -3.0254 0.5334c -0.2145,-1.2164 -0.4290,-2.4329 -0.6434 -3.6493c -17.3326,3.0562 -34.6653,6.1124 -51.9978 9.1686c 0.2145,1.2164 0.4290,2.4329 0.6434 3.6494c -1.0084,0.1778 -2.0169,0.3556 -3.0253 0.5334ZM 340.7659,877.8410 c 0.7657,4.3425 1.5314,8.6851 2.2972 13.0277c 1.0084,-0.1778 2.0169,-0.3557 3.0253 -0.5335c 1.0958,6.2146 2.1916,12.4291 3.2874 18.6437c -1.0084,0.1779 -2.0169,0.3557 -3.0253 0.5335c 0.7657,4.3426 1.5314,8.6852 2.2972 13.0277c 1.0084,-0.1778 2.0169,-0.3556 3.0253 -0.5335c 0.2145,1.2164 0.4290,2.4329 0.6435 3.6494c 17.3326,-3.0562 34.6652,-6.1124 51.9978 -9.1686c -0.2145,-1.2165 -0.4290,-2.4329 -0.6435 -3.6494c 1.0084,-0.1778 2.0169,-0.3556 3.0254 -0.5335c -0.7657,-4.3425 -1.5315,-8.6851 -2.2972 -13.0277c -1.0084,0.1779 -2.0169,0.3557 -3.0253 0.5335c -1.0958,-6.2146 -2.1916,-12.4291 -3.2874 -18.6437c 1.0084,-0.1778 2.0169,-0.3557 3.0254 -0.5335c -0.7657,-4.3426 -1.5315,-8.6851 -2.2972 -13.0277c -1.0084,0.1778 -2.0169,0.3556 -3.0253 0.5335c -0.2145,-1.2164 -0.4290,-2.4329 -0.6435 -3.6494c -17.3326,3.0562 -34.6652,6.1124 -51.9978 9.1686c 0.2145,1.2165 0.4290,2.4329 0.6434 3.6494c -1.0084,0.1778 -2.0169,0.3556 -3.0253 0.5335ZM 363.5754,593.6572 c 0.7658,4.3426 1.5315,8.6852 2.2972 13.0278c 1.0084,-0.1779 2.0169,-0.3557 3.0253 -0.5335c 1.0958,6.2146 2.1916,12.4291 3.2874 18.6437c -1.0084,0.1778 -2.0169,0.3557 -3.0254 0.5335c 0.7658,4.3425 1.5315,8.6851 2.2972 13.0277c 1.0084,-0.1778 2.0169,-0.3557 3.0253 -0.5335c 0.2145,1.2164 0.4290,2.4329 0.6435 3.6493c 17.3326,-3.0562 34.6653,-6.1124 51.9978 -9.1686c -0.2145,-1.2164 -0.4290,-2.4329 -0.6434 -3.6493c 1.0084,-0.1778 2.0169,-0.3557 3.0253 -0.5335c -0.7657,-4.3426 -1.5314,-8.6851 -2.2971 -13.0277c -1.0085,0.1778 -2.0169,0.3557 -3.0254 0.5335c -1.0958,-6.2146 -2.1916,-12.4291 -3.2874 -18.6437c 1.0084,-0.1779 2.0169,-0.3557 3.0253 -0.5335c -0.7657,-4.3426 -1.5314,-8.6852 -2.2972 -13.0277c -1.0084,0.1778 -2.0169,0.3556 -3.0253 0.5335c -0.2145,-1.2165 -0.4290,-2.4329 -0.6435 -3.6494c -17.3326,3.0562 -34.6652,6.1124 -51.9978 9.1686c 0.2145,1.2164 0.4290,2.4329 0.6435 3.6494c -1.0084,0.1778 -2.0169,0.3556 -3.0254 0.5334ZM 376.0453,664.3773 c 0.7658,4.3425 1.5315,8.6851 2.2972 13.0277c 1.0084,-0.1778 2.0169,-0.3557 3.0254 -0.5335c 1.0958,6.2146 2.1916,12.4291 3.2874 18.6437c -1.0084,0.1779 -2.0169,0.3557 -3.0253 0.5335c 0.7657,4.3426 1.5314,8.6852 2.2971 13.0277c 1.0084,-0.1778 2.0169,-0.3556 3.0254 -0.5335c 0.2145,1.2165 0.4290,2.4329 0.6434 3.6494c 17.3326,-3.0562 34.6653,-6.1124 51.9979 -9.1686c -0.2145,-1.2164 -0.4290,-2.4329 -0.6435 -3.6494c 1.0084,-0.1778 2.0169,-0.3556 3.0253 -0.5335c -0.7657,-4.3425 -1.5314,-8.6851 -2.2971 -13.0277c -1.0084,0.1779 -2.0169,0.3557 -3.0254 0.5335c -1.0958,-6.2146 -2.1916,-12.4291 -3.2874 -18.6437c 1.0084,-0.1778 2.0169,-0.3557 3.0253 -0.5335c -0.7657,-4.3426 -1.5314,-8.6851 -2.2971 -13.0277c -1.0084,0.1778 -2.0169,0.3557 -3.0254 0.5335c -0.2145,-1.2164 -0.4290,-2.4329 -0.6434 -3.6494c -17.3326,3.0563 -34.6653,6.1125 -51.9979 9.1687c 0.2145,1.2164 0.4290,2.4329 0.6435 3.6493c -1.0084,0.1778 -2.0169,0.3556 -3.0254 0.5335ZM 388.5152,735.0974 c 0.7657,4.3426 1.5314,8.6852 2.2971 13.0277c 1.0084,-0.1778 2.0169,-0.3556 3.0254 -0.5335c 1.0958,6.2146 2.1916,12.4292 3.2874 18.6437c -1.0084,0.1778 -2.0169,0.3556 -3.0253 0.5334c 0.7657,4.3426 1.5314,8.6852 2.2971 13.0278c 1.0085,-0.1779 2.0169,-0.3557 3.0254 -0.5335c 0.2145,1.2164 0.4290,2.4329 0.6435 3.6493c 17.3326,-3.0562 34.6652,-6.1124 51.9978 -9.1686c -0.2145,-1.2164 -0.4290,-2.4329 -0.6435 -3.6493c 1.0084,-0.1779 2.0169,-0.3557 3.0254 -0.5335c -0.7658,-4.3426 -1.5315,-8.6852 -2.2972 -13.0277c -1.0084,0.1778 -2.0169,0.3556 -3.0254 0.5335c -1.0958,-6.2146 -2.1915,-12.4292 -3.2874 -18.6437c 1.0084,-0.1778 2.0169,-0.3556 3.0254 -0.5335c -0.7658,-4.3425 -1.5315,-8.6851 -2.2972 -13.0277c -1.0084,0.1779 -2.0169,0.3557 -3.0254 0.5335c -0.2145,-1.2164 -0.4290,-2.4329 -0.6434 -3.6493c -17.3326,3.0562 -34.6653,6.1124 -51.9978 9.1686c 0.2145,1.2164 0.4290,2.4329 0.6434 3.6493c -1.0084,0.1779 -2.0169,0.3557 -3.0253 0.5335ZM 400.9850,805.8174 c 0.7657,4.3426 1.5314,8.6852 2.2972 13.0277c 1.0084,-0.1778 2.0169,-0.3556 3.0253 -0.5334c 1.0958,6.2146 2.1916,12.4291 3.2874 18.6437c -1.0085,0.1778 -2.0169,0.3557 -3.0254 0.5335c 0.7657,4.3425 1.5314,8.6851 2.2972 13.0277c 1.0084,-0.1778 2.0169,-0.3557 3.0253 -0.5335c 0.2145,1.2164 0.4290,2.4329 0.6435 3.6493c 17.3326,-3.0562 34.6652,-6.1124 51.9978 -9.1686c -0.2145,-1.2164 -0.4290,-2.4329 -0.6435 -3.6493c 1.0084,-0.1778 2.0169,-0.3557 3.0254 -0.5335c -0.7657,-4.3426 -1.5315,-8.6851 -2.2972 -13.0277c -1.0084,0.1778 -2.0169,0.3557 -3.0253 0.5335c -1.0958,-6.2146 -2.1916,-12.4291 -3.2874 -18.6437c 1.0084,-0.1779 2.0169,-0.3557 3.0254 -0.5335c -0.7657,-4.3426 -1.5315,-8.6852 -2.2972 -13.0277c -1.0084,0.1778 -2.0169,0.3556 -3.0253 0.5334c -0.2145,-1.2164 -0.4290,-2.4329 -0.6435 -3.6493c -17.3326,3.0562 -34.6652,6.1124 -51.9978 9.1686c 0.2145,1.2164 0.4290,2.4329 0.6434 3.6494c -1.0084,0.1778 -2.0169,0.3556 -3.0253 0.5334ZM 413.4549,876.5375 c 0.7657,4.3425 1.5315,8.6851 2.2972 13.0277c 1.0084,-0.1778 2.0169,-0.3557 3.0253 -0.5335c 1.0958,6.2146 2.1916,12.4291 3.2874 18.6437c -1.0084,0.1779 -2.0169,0.3557 -3.0254 0.5335c 0.7657,4.3426 1.5315,8.6852 2.2972 13.0277c 1.0084,-0.1778 2.0169,-0.3556 3.0253 -0.5335c 0.2145,1.2164 0.4290,2.4329 0.6435 3.6494c 17.3326,-3.0562 34.6652,-6.1124 51.9978 -9.1686c -0.2145,-1.2165 -0.4290,-2.4329 -0.6434 -3.6494c 1.0084,-0.1778 2.0169,-0.3556 3.0253 -0.5335c -0.7657,-4.3425 -1.5314,-8.6851 -2.2972 -13.0277c -1.0084,0.1779 -2.0169,0.3557 -3.0253 0.5335c -1.0958,-6.2146 -2.1916,-12.4291 -3.2874 -18.6437c 1.0084,-0.1778 2.0169,-0.3557 3.0253 -0.5335c -0.7657,-4.3426 -1.5314,-8.6851 -2.2972 -13.0277c -1.0084,0.1778 -2.0169,0.3556 -3.0253 0.5335c -0.2145,-1.2164 -0.4290,-2.4329 -0.6435 -3.6494c -17.3326,3.0562 -34.6652,6.1124 -51.9978 9.1687c 0.2145,1.2164 0.4290,2.4329 0.6435 3.6493c -1.0084,0.1778 -2.0169,0.3556 -3.0254 0.5335ZM 434.9518,584.9095 c 0.7657,4.3426 1.5314,8.6852 2.2971 13.0277c 1.0084,-0.1778 2.0169,-0.3556 3.0254 -0.5334c 1.0958,6.2146 2.1916,12.4291 3.2874 18.6437c -1.0084,0.1778 -2.0169,0.3556 -3.0253 0.5335c 0.7657,4.3425 1.5314,8.6851 2.2971 13.0277c 1.0084,-0.1778 2.0169,-0.3557 3.0254 -0.5335c 0.2145,1.2164 0.4290,2.4329 0.6434 3.6493c 17.3326,-3.0562 34.6653,-6.1124 51.9979 -9.1686c -0.2145,-1.2164 -0.4290,-2.4329 -0.6435 -3.6493c 1.0084,-0.1778 2.0169,-0.3557 3.0254 -0.5335c -0.7658,-4.3426 -1.5315,-8.6852 -2.2972 -13.0277c -1.0084,0.1778 -2.0169,0.3556 -3.0254 0.5335c -1.0958,-6.2146 -2.1916,-12.4291 -3.2874 -18.6437c 1.0084,-0.1779 2.0169,-0.3557 3.0253 -0.5335c -0.7657,-4.3426 -1.5314,-8.6852 -2.2971 -13.0278c -1.0084,0.1779 -2.0169,0.3557 -3.0254 0.5335c -0.2145,-1.2164 -0.4290,-2.4329 -0.6434 -3.6493c -17.3326,3.0562 -34.6653,6.1124 -51.9979 9.1686c 0.2145,1.2164 0.4290,2.4329 0.6435 3.6493c -1.0084,0.1779 -2.0169,0.3557 -3.0253 0.5335ZM 447.4217,655.6296 c 0.7657,4.3425 1.5314,8.6851 2.2971 13.0277c 1.0085,-0.1779 2.0169,-0.3557 3.0254 -0.5335c 1.0958,6.2146 2.1916,12.4291 3.2874 18.6437c -1.0084,0.1778 -2.0169,0.3557 -3.0253 0.5335c 0.7657,4.3426 1.5314,8.6851 2.2971 13.0277c 1.0085,-0.1778 2.0169,-0.3556 3.0254 -0.5335c 0.2145,1.2164 0.4290,2.4329 0.6435 3.6494c 17.3326,-3.0562 34.6652,-6.1124 51.9978 -9.1687c -0.2145,-1.2164 -0.4290,-2.4329 -0.6435 -3.6493c 1.0084,-0.1778 2.0169,-0.3556 3.0254 -0.5335c -0.7658,-4.3425 -1.5315,-8.6851 -2.2972 -13.0277c -1.0084,0.1778 -2.0169,0.3557 -3.0253 0.5335c -1.0958,-6.2146 -2.1916,-12.4291 -3.2874 -18.6437c 1.0084,-0.1778 2.0169,-0.3557 3.0254 -0.5335c -0.7658,-4.3426 -1.5315,-8.6852 -2.2972 -13.0277c -1.0084,0.1778 -2.0169,0.3556 -3.0254 0.5335c -0.2145,-1.2164 -0.4290,-2.4329 -0.6434 -3.6494c -17.3326,3.0562 -34.6653,6.1124 -51.9978 9.1686c 0.2145,1.2165 0.4290,2.4329 0.6434 3.6494c -1.0084,0.1778 -2.0169,0.3556 -3.0253 0.5335ZM 459.8915,726.3496 c 0.7657,4.3426 1.5314,8.6851 2.2972 13.0277c 1.0084,-0.1778 2.0169,-0.3556 3.0253 -0.5335c 1.0958,6.2146 2.1916,12.4291 3.2874 18.6437c -1.0085,0.1779 -2.0169,0.3557 -3.0254 0.5335c 0.7657,4.3426 1.5314,8.6852 2.2972 13.0277c 1.0084,-0.1778 2.0169,-0.3556 3.0253 -0.5334c 0.2145,1.2164 0.4290,2.4329 0.6435 3.6493c 17.3326,-3.0562 34.6652,-6.1124 51.9978 -9.1686c -0.2145,-1.2164 -0.4290,-2.4329 -0.6435 -3.6493c 1.0084,-0.1779 2.0169,-0.3557 3.0254 -0.5335c -0.7657,-4.3426 -1.5315,-8.6852 -2.2972 -13.0277c -1.0084,0.1778 -2.0169,0.3556 -3.0253 0.5334c -1.0958,-6.2146 -2.1916,-12.4291 -3.2874 -18.6437c 1.0085,-0.1778 2.0169,-0.3556 3.0254 -0.5335c -0.7657,-4.3425 -1.5315,-8.6851 -2.2972 -13.0277c -1.0084,0.1778 -2.0169,0.3557 -3.0253 0.5335c -0.2145,-1.2164 -0.4290,-2.4329 -0.6435 -3.6493c -17.3326,3.0562 -34.6652,6.1124 -51.9978 9.1686c 0.2145,1.2164 0.4290,2.4329 0.6434 3.6493c -1.0084,0.1778 -2.0169,0.3557 -3.0253 0.5335ZM 472.3614,797.0697 c 0.7657,4.3426 1.5315,8.6852 2.2972 13.0277c 1.0084,-0.1778 2.0169,-0.3556 3.0253 -0.5334c 1.0958,6.2146 2.1916,12.4291 3.2874 18.6437c -1.0084,0.1778 -2.0169,0.3556 -3.0254 0.5335c 0.7657,4.3425 1.5315,8.6851 2.2972 13.0277c 1.0084,-0.1779 2.0169,-0.3557 3.0253 -0.5335c 0.2145,1.2164 0.4290,2.4329 0.6435 3.6493c 17.3326,-3.0562 34.6652,-6.1124 51.9978 -9.1686c -0.2145,-1.2164 -0.4290,-2.4329 -0.6434 -3.6493c 1.0084,-0.1778 2.0169,-0.3557 3.0253 -0.5335c -0.7657,-4.3426 -1.5314,-8.6851 -2.2972 -13.0277c -1.0084,0.1778 -2.0169,0.3556 -3.0253 0.5335c -1.0958,-6.2146 -2.1916,-12.4291 -3.2874 -18.6437c 1.0084,-0.1778 2.0169,-0.3556 3.0253 -0.5334c -0.7657,-4.3426 -1.5314,-8.6852 -2.2972 -13.0278c -1.0084,0.1779 -2.0169,0.3557 -3.0253 0.5335c -0.2145,-1.2164 -0.4290,-2.4329 -0.6435 -3.6493c -17.3326,3.0562 -34.6652,6.1124 -51.9978 9.1686c 0.2145,1.2164 0.4290,2.4329 0.6435 3.6493c -1.0084,0.1779 -2.0169,0.3557 -3.0254 0.5335ZM 484.8312,867.7897 c 0.7658,4.3425 1.5315,8.6851 2.2972 13.0277c 1.0084,-0.1779 2.0169,-0.3557 3.0254 -0.5335c 1.0958,6.2146 2.1915,12.4291 3.2874 18.6437c -1.0084,0.1778 -2.0169,0.3557 -3.0254 0.5335c 0.7658,4.3426 1.5315,8.6851 2.2972 13.0277c 1.0084,-0.1778 2.0169,-0.3556 3.0254 -0.5335c 0.2145,1.2164 0.4290,2.4329 0.6434 3.6493c 17.3326,-3.0562 34.6653,-6.1124 51.9978 -9.1686c -0.2145,-1.2165 -0.4290,-2.4329 -0.6434 -3.6494c 1.0084,-0.1778 2.0169,-0.3556 3.0253 -0.5335c -0.7657,-4.3425 -1.5314,-8.6851 -2.2971 -13.0277c -1.0084,0.1778 -2.0169,0.3557 -3.0254 0.5335c -1.0958,-6.2146 -2.1916,-12.4291 -3.2874 -18.6437c 1.0084,-0.1779 2.0169,-0.3557 3.0253 -0.5335c -0.7657,-4.3426 -1.5314,-8.6852 -2.2971 -13.0277c -1.0084,0.1778 -2.0169,0.3556 -3.0254 0.5335c -0.2145,-1.2165 -0.4290,-2.4329 -0.6435 -3.6494c -17.3326,3.0562 -34.6652,6.1124 -51.9978 9.1686c 0.2145,1.2164 0.4290,2.4329 0.6435 3.6494c -1.0084,0.1778 -2.0169,0.3556 -3.0254 0.5335ZM 507.6883,548.0248 c 0.0000,3.1311 2.5382,5.6693 5.6693 5.6693c 3.1311,-0.0000 5.6693,-2.5383 5.6693 -5.6693c 0.0000,-3.1310 -2.5382,-5.6693 -5.6693 -5.6693c -3.1311,-0.0000 -5.6693,2.5383 -5.6693 5.6693ZM 573.6314,914.4478 c 0.0000,3.1311 2.5382,5.6693 5.6693 5.6693c 3.1311,-0.0000 5.6693,-2.5383 5.6693 -5.6693c 0.0000,-3.1310 -2.5382,-5.6693 -5.6693 -5.6693c -3.1311,-0.0000 -5.6693,2.5383 -5.6693 5.6693Z"/></g><g stroke-linejoin="miter" stroke-opacity="1.0" fill-opacity="0.5" stroke="rgb(0,0,0)" stroke-width="0.37795275590551186" fill="rgb(0,0,255)" stroke-linecap="butt" stroke-miterlimit="10.0"><path d="M 3.9685,20.3464 c 0.0000,-9.0453 7.3326,-16.3779 16.3779 -16.3779c 165.5969,-0.0000 331.1938,-0.0000 496.7907 -0.0000c 7.9481,-0.0000 14.7490,5.7066 16.1292 13.5339c 21.9810,124.6607 43.9621,249.3214 65.9431 373.9821c 0.1693,0.9599 0.2511,1.9159 0.2511 2.8596c 0.0000,7.4654 -5.1229,14.1606 -12.6286 15.9269c -139.1906,32.7545 -278.3811,65.5089 -417.5716 98.2633c -1.2296,0.2893 -2.4885,0.4354 -3.7516 0.4354c -48.3874,-0.0000 -96.7748,-0.0000 -145.1622 -0.0000c -9.0453,-0.0000 -16.3779,-7.3326 -16.3779 -16.3779c 0.0000,-157.4151 0.0000,-314.8302 0.0000 -472.2453ZM 41.6023,377.7928 c 0.0000,0.2179 0.0189,0.4388 0.0581 0.6607c 4.3141,24.4666 8.6283,48.9333 12.9424 73.4000c 0.3625,2.0557 2.3227,3.4283 4.3784 3.0658c 22.3326,-3.9378 44.6653,-7.8757 66.9979 -11.8135c 1.8595,10.5460 3.7191,21.0919 5.5786 31.6379c 0.3625,2.0557 2.3227,3.4283 4.3784 3.0658c 24.4667,-4.3141 48.9333,-8.6283 73.4000 -12.9424c 1.8337,-0.3233 3.1239,-1.9180 3.1239 -3.7177c 0.0000,-0.2179 -0.0189,-0.4388 -0.0581 -0.6607c -0.8750,-4.9628 -1.7501,-9.9256 -2.6252 -14.8884c 22.3327,-3.9379 44.6653,-7.8757 66.9980 -11.8136c 1.8337,-0.3233 3.1238,-1.9180 3.1238 -3.7177c 0.0000,-0.2178 -0.0189,-0.4387 -0.0580 -0.6607c -1.0939,-6.2035 -2.1877,-12.4070 -3.2816 -18.6105c 20.1986,-3.5615 40.3973,-7.1231 60.5959 -10.6847c 0.8750,4.9628 1.7501,9.9256 2.6252 14.8884c 0.3625,2.0557 2.3228,3.4283 4.3784 3.0658c 22.3327,-3.9379 44.6653,-7.8757 66.9980 -11.8135c 0.4375,2.4814 0.8750,4.9628 1.3126 7.4442c 0.3625,2.0557 2.3227,3.4283 4.3784 3.0658c 22.3326,-3.9379 44.6653,-7.8757 66.9979 -11.8135c 0.3625,2.0557 2.3227,3.4283 4.3784 3.0658c 24.4666,-4.3141 48.9333,-8.6283 73.4000 -12.9424c 1.8337,-0.3234 3.1238,-1.9180 3.1238 -3.7177c 0.0000,-0.2179 -0.0189,-0.4388 -0.0580 -0.6607c -4.1566,-23.5734 -8.3132,-47.1467 -12.4698 -70.7200c -0.1575,-0.8933 -0.3151,-1.7867 -0.4725 -2.6799c -3.9991,-22.6800 -7.9982,-45.3601 -11.9973 -68.0401c -0.1575,-0.8933 -0.3150,-1.7866 -0.4725 -2.6799c -3.9991,-22.6801 -7.9982,-45.3601 -11.9973 -68.0401c -0.1575,-0.8933 -0.3150,-1.7866 -0.4725 -2.6799c -3.9991,-22.6800 -7.9982,-45.3601 -11.9973 -68.0401c -0.1575,-0.8933 -0.3150,-1.7867 -0.4725 -2.6799c -4.1566,-23.5734 -8.3132,-47.1467 -12.4698 -70.7200c -0.3625,-2.0557 -2.3227,-3.4283 -4.3784 -3.0658c -22.3327,3.9378 -44.6653,7.8757 -66.9979 11.8135c -0.3625,-2.0557 -2.3227,-3.4283 -4.3784 -3.0658c -22.3327,3.9378 -44.6653,7.8757 -66.9980 11.8135c -0.4375,-2.4814 -0.8750,-4.9628 -1.3126 -7.4442c -0.3625,-2.0557 -2.3228,-3.4283 -4.3784 -3.0658c -22.3327,3.9378 -44.6653,7.8757 -66.9980 11.8135c -0.8750,-4.9628 -1.7501,-9.9256 -2.6252 -14.8884c -0.3625,-2.0557 -2.3227,-3.4283 -4.3784 -3.0658c -24.4666,4.3141 -48.9333,8.6283 -73.3999 12.9424c -1.8337,0.3233 -3.1239,1.9180 -3.1239 3.7177c 0.0000,0.2178 0.0189,0.4387 0.0580 0.6607c 1.0939,6.2035 2.1877,12.4070 3.2816 18.6105c -22.3326,3.9379 -44.6653,7.8757 -66.9979 11.8135c -1.8337,0.3234 -3.1239,1.9180 -3.1239 3.7177c 0.0000,0.2179 0.0189,0.4388 0.0581 0.6607c 0.8751,4.9628 1.7501,9.9256 2.6252 14.8884c -22.3327,3.9379 -44.6653,7.8757 -66.9980 11.8136c -1.8337,0.3233 -3.1238,1.9180 -3.1238 3.7177c 0.0000,0.2178 0.0189,0.4387 0.0580 0.6607c 4.1566,23.5734 8.3132,47.1467 12.4699 70.7200c 0.1575,0.8933 0.3150,1.7866 0.4725 2.6799c 3.9991,22.6800 7.9982,45.3601 11.9973 68.0401c 0.1575,0.8933 0.3150,1.7866 0.4725 2.6799c 3.9991,22.6800 7.9982,45.3601 11.9973 68.0401c 0.1575,0.8933 0.3150,1.7866 0.4725 2.6799c 1.7020,9.6526 3.4041,19.3053 5.1061 28.9580c -22.3326,3.9379 -44.6653,7.8757 -66.9979 11.8135c -1.8337,0.3234 -3.1239,1.9180 -3.1239 3.7177ZM 90.2677,24.1259 c 0.0000,3.1311 2.5383,5.6693 5.6693 5.6693c 3.1310,-0.0000 5.6693,-2.5383 5.6693 -5.6693c 0.0000,-3.1310 -2.5383,-5.6693 -5.6693 -5.6693c -3.1311,-0.0000 -5.6693,2.5383 -5.6693 5.6693ZM 159.8394,488.8122 c 0.0000,3.1311 2.5383,5.6693 5.6693 5.6693c 3.1311,-0.0000 5.6693,-2.5383 5.6693 -5.6693c 0.0000,-3.1311 -2.5382,-5.6693 -5.6693 -5.6693c -3.1311,-0.0000 -5.6693,2.5382 -5.6693 5.6693ZM 507.6883,24.1259 c 0.0000,3.1311 2.5382,5.6693 5.6693 5.6693c 3.1311,-0.0000 5.6693,-2.5383 5.6693 -5.6693c 0.0000,-3.1310 -2.5382,-5.6693 -5.6693 -5.6693c -3.1311,-0.0000 -5.6693,2.5383 -5.6693 5.6693ZM 573.6314,390.5490 c 0.0000,3.1311 2.5382,5.6693 5.6693 5.6693c 3.1311,-0.0000 5.6693,-2.5383 5.6693 -5.6693c 0.0000,-3.1310 -2.5382,-5.6693 -5.6693 -5.6693c -3.1311,-0.0000 -5.6693,2.5383 -5.6693 5.6693Z"/></g></svg>