<?xml version="1.0" encoding="UTF-8"?>
<!DOCTYPE svg PUBLIC "-//W3C//DTD SVG 1.1//EN"
    "http://www.w3.org/Graphics/SVG/1.1/DTD/svg11.dtd"><svg xmlns="http://www.w3.org/2000/svg" height="453.1779" stroke-opacity="1" viewBox="0 0 615 453" font-size="1" width="615.1244" xmlns:xlink="http://www.w3.org/1999/xlink" stroke="rgb(0,0,0)" version="1.1"><defs></defs><defs><linearGradient x2="40.1629" y1="0.0000" gradientUnits="userSpaceOnUse" spreadMethod="pad" gradientTransform="matrix(3.7795,-0.0000,0.0000,-3.7795,20.3465,335.2504)" id="gradient0" y2="0.0000" x1="-40.1629"><stop stop-opacity="1.0000" offset="0.0000" stop-color="rgb(128,128,128)"/><stop stop-opacity="1.0000" offset="0.5000" stop-color="rgb(255,255,255)"/><stop stop-opacity="1.0000" offset="1.0000" stop-color="rgb(128,128,128)"/></linearGradient></defs><g stroke-linejoin="miter" stroke-opacity="1.0" fill-opacity="1" stroke="rgb(0,0,0)" stroke-width="0.37795275590551186" fill="url(#gradient0)" stroke-linecap="butt" stroke-miterlimit="10.0"><path d="M 3.9685,20.3465 c 0.0000,-9.0453 7.3327,-16.3780 16.3780 -16.3780c 191.4771,-0.0000 382.9543,-0.0000 574.4315 -0.0000c 9.0453,-0.0000 16.3780,7.3327 16.3780 16.3780c 0.0000,117.1276 0.0000,234.2551 0.0000 351.3827c 0.0000,8.2607 -6.1518,15.2284 -14.3489 16.2518c -163.1307,20.3674 -326.2614,40.7349 -489.3921 61.1023c -0.6731,0.0840 -1.3508,0.1262 -2.0291 0.1262c -28.3464,-0.0000 -56.6929,-0.0000 -85.0394 -0.0000c -9.0453,-0.0000 -16.3780,-7.3327 -16.3780 -16.3780c 0.0000,-45.8316 0.0000,-91.6634 0.0000 -137.4950c 0.0000,-91.6634 0.0000,-183.3267 -0.0000 -274.9900ZM 99.7165,24.1260 c 0.0000,3.1311 2.5382,5.6693 5.6693 5.6693c 3.1311,-0.0000 5.6693,-2.5382 5.6693 -5.6693c 0.0000,-3.1311 -2.5382,-5.6693 -5.6693 -5.6693c -3.1311,-0.0000 -5.6693,2.5382 -5.6693 5.6693ZM 99.7165,429.0519 c 0.0000,3.1311 2.5382,5.6693 5.6693 5.6693c 3.1311,-0.0000 5.6693,-2.5382 5.6693 -5.6693c 0.0000,-3.1311 -2.5382,-5.6693 -5.6693 -5.6693c -3.1311,-0.0000 -5.6693,2.5382 -5.6693 5.6693ZM 585.3291,24.1260 c 0.0000,3.1311 2.5382,5.6693 5.6693 5.6693c 3.1311,-0.0000 5.6693,-2.5382 5.6693 -5.6693c 0.0000,-3.1311 -2.5382,-5.6693 -5.6693 -5.6693c -3.1311,-0.0000 -5.6693,2.5382 -5.6693 5.6693ZM 585.3291,367.9496 c 0.0000,3.1311 2.5382,5.6693 5.6693 5.6693c 3.1311,-0.0000 5.6693,-2.5382 5.6693 -5.6693c 0.0000,-3.1311 -2.5382,-5.6693 -5.6693 -5.6693c -3.1311,-0.0000 -5.6693,2.5382 -5.6693 5.6693Z"/></g><g stroke-linejoin="miter" stroke-opacity="1.0" fill-opacity="0.5" stroke="rgb(0,0,0)" stroke-width="0.37795275590551186" fill="rgb(255,255,0)" stroke-linecap="butt" stroke-miterlimit="10.0"><path d="M 3.9685,20.3465 c 0.0000,-9.0453 7.3327,-16.3780 16.3780 -16.3780c 191.4771,-0.0000 382.9543,-0.0000 574.4315 -0.0000c 9.0453,-0.0000 16.3780,7.3327 16.3780 16.3780c 0.0000,117.1276 0.0000,234.2551 0.0000 351.3827c 0.0000,8.2607 -6.1518,15.2284 -14.3489 16.2518c -163.1307,20.3674 -326.2614,40.7349 -489.3921 61.1023c -0.6731,0.0840 -1.3508,0.1262 -2.0291 0.1262c -28.3464,-0.0000 -56.6929,-0.0000 -85.0394 -0.0000c -9.0453,-0.0000 -16.3780,-7.3327 -16.3780 -16.3780c 0.0000,-45.8316 0.0000,-91.6634 0.0000 -137.4950c 0.0000,-91.6634 0.0000,-183.3267 -0.0000 -274.9900ZM 33.8442,46.6075 c 0.0000,119.9877 0.0000,239.9753 0.0000 359.9630c 0.0000,7.8936 6.6480,14.2925 14.8488 14.2925c 14.1686,-0.0000 28.3373,-0.0000 42.5060 -0.0000c 2.8318,-4.8954 8.1247,-8.1890 14.1868 -8.1890c 6.0621,-0.0000 11.3550,3.2936 14.1868 8.1890c 2.0732,-0.0000 4.1464,-0.0000 6.2195 -0.0000c 0.6150,-0.0000 1.2293,-0.0368 1.8396 -0.1101c 147.8992,-17.7740 295.7985,-35.5481 443.6977 -53.3221c 1.1643,-0.1399 2.2831,-0.4072 3.3422 -0.7862c 0.4818,-6.1108 4.3175,-11.2783 9.6669 -13.6622c 0.0000,-102.1250 0.0000,-204.2499 0.0000 -306.3749c 0.0000,-7.8936 -6.6480,-14.2925 -14.8487 -14.2925c -149.9724,-0.0000 -299.9449,-0.0000 -449.9173 -0.0000c -2.8318,4.8954 -8.1247,8.1890 -14.1868 8.1890c -6.0621,-0.0000 -11.3550,-3.2936 -14.1868 -8.1890c -14.1687,-0.0000 -28.3373,-0.0000 -42.5060 -0.0000c -8.2008,-0.0000 -14.8488,6.3989 -14.8488 14.2925ZM 99.7165,24.1260 c 0.0000,3.1311 2.5382,5.6693 5.6693 5.6693c 3.1311,-0.0000 5.6693,-2.5382 5.6693 -5.6693c 0.0000,-3.1311 -2.5382,-5.6693 -5.6693 -5.6693c -3.1311,-0.0000 -5.6693,2.5382 -5.6693 5.6693ZM 99.7165,429.0519 c 0.0000,3.1311 2.5382,5.6693 5.6693 5.6693c 3.1311,-0.0000 5.6693,-2.5382 5.6693 -5.6693c 0.0000,-3.1311 -2.5382,-5.6693 -5.6693 -5.6693c -3.1311,-0.0000 -5.6693,2.5382 -5.6693 5.6693ZM 585.3291,24.1260 c 0.0000,3.1311 2.5382,5.6693 5.6693 5.6693c 3.1311,-0.0000 5.6693,-2.5382 5.6693 -5.6693c 0.0000,-3.1311 -2.5382,-5.6693 -5.6693 -5.6693c -3.1311,-0.0000 -5.6693,2.5382 -5.6693 5.6693ZM 585.3291,367.9496 c 0.0000,3.1311 2.5382,5.6693 5.6693 5.6693c 3.1311,-0.0000 5.6693,-2.5382 5.6693 -5.6693c 0.0000,-3.1311 -2.5382,-5.6693 -5.6693 -5.6693c -3.1311,-0.0000 -5.6693,2.5382 -5.6693 5.6693Z"/></g><g stroke-linejoin="miter" stroke-opacity="1.0" fill-opacity="0.5" stroke="rgb(0,0,0)" stroke-width="0.37795275590551186" fill="rgb(255,255,0)" stroke-linecap="butt" stroke-miterlimit="10.0"><path d="M 3.9685,20.3465 c 0.0000,-9.0453 7.3327,-16.3780 16.3780 -16.3780c 191.4771,-0.0000 382.9543,-0.0000 574.4315 -0.0000c 9.0453,-0.0000 16.3780,7.3327 16.3780 16.3780c 0.0000,117.1276 0.0000,234.2551 0.0000 351.3827c 0.0000,8.2607 -6.1518,15.2284 -14.3489 16.2518c -163.1307,20.3674 -326.2614,40.7349 -489.3921 61.1023c -0.6731,0.0840 -1.3508,0.1262 -2.0291 0.1262c -28.3464,-0.0000 -56.6929,-0.0000 -85.0394 -0.0000c -9.0453,-0.0000 -16.3780,-7.3327 -16.3780 -16.3780c 0.0000,-45.8316 0.0000,-91.6634 0.0000 -137.4950c 0.0000,-91.6634 0.0000,-183.3267 -0.0000 -274.9900ZM 33.8442,46.6075 c 0.0000,119.9877 0.0000,239.9753 0.0000 359.9630c 0.0000,7.8936 6.6480,14.2925 14.8488 14.2925c 14.1686,-0.0000 28.3373,-0.0000 42.5060 -0.0000c 2.8318,-4.8954 8.1247,-8.1890 14.1868 -8.1890c 6.0621,-0.0000 11.3550,3.2936 14.1868 8.1890c 2.0732,-0.0000 4.1464,-0.0000 6.2195 -0.0000c 0.6150,-0.0000 1.2293,-0.0368 1.8396 -0.1101c 147.8992,-17.7740 295.7985,-35.5481 443.6977 -53.3221c 1.1643,-0.1399 2.2831,-0.4072 3.3422 -0.7862c 0.4818,-6.1108 4.3175,-11.2783 9.6669 -13.6622c 0.0000,-102.1250 0.0000,-204.2499 0.0000 -306.3749c 0.0000,-7.8936 -6.6480,-14.2925 -14.8487 -14.2925c -149.9724,-0.0000 -299.9449,-0.0000 -449.9173 -0.0000c -2.8318,4.8954 -8.1247,8.1890 -14.1868 8.1890c -6.0621,-0.0000 -11.3550,-3.2936 -14.1868 -8.1890c -14.1687,-0.0000 -28.3373,-0.0000 -42.5060 -0.0000c -8.2008,-0.0000 -14.8488,6.3989 -14.8488 14.2925ZM 99.7165,24.1260 c 0.0000,3.1311 2.5382,5.6693 5.6693 5.6693c 3.1311,-0.0000 5.6693,-2.5382 5.6693 -5.6693c 0.0000,-3.1311 -2.5382,-5.6693 -5.6693 -5.6693c -3.1311,-0.0000 -5.6693,2.5382 -5.6693 5.6693ZM 99.7165,429.0519 c 0.0000,3.1311 2.5382,5.6693 5.6693 5.6693c 3.1311,-0.0000 5.6693,-2.5382 5.6693 -5.6693c 0.0000,-3.1311 -2.5382,-5.6693 -5.6693 -5.6693c -3.1311,-0.0000 -5.6693,2.5382 -5.6693 5.6693ZM 585.3291,24.1260 c 0.0000,3.1311 2.5382,5.6693 5.6693 5.6693c 3.1311,-0.0000 5.6693,-2.5382 5.6693 -5.6693c 0.0000,-3.1311 -2.5382,-5.6693 -5.6693 -5.6693c -3.1311,-0.0000 -5.6693,2.5382 -5.6693 5.6693ZM 585.3291,367.9496 c 0.0000,3.1311 2.5382,5.6693 5.6693 5.6693c 3.1311,-0.0000 5.6693,-2.5382 5.6693 -5.6693c 0.0000,-3.1311 -2.5382,-5.6693 -5.6693 -5.6693c -3.1311,-0.0000 -5.6693,2.5382 -5.6693 5.6693Z"/></g><g stroke-linejoin="miter" stroke-opacity="1.0" fill-opacity="0.5" stroke="rgb(0,0,0)" stroke-width="0.37795275590551186" fill="rgb(0,0,0)" stroke-linecap="butt" stroke-miterlimit="10.0"><path d="M 3.9685,20.3465 c 0.0000,-9.0453 7.3327,-16.3780 16.3780 -16.3780c 191.4771,-0.0000 382.9543,-0.0000 574.4315 -0.0000c 9.0453,-0.0000 16.3780,7.3327 16.3780 16.3780c 0.0000,117.1276 0.0000,234.2551 0.0000 351.3827c 0.0000,8.2607 -6.1518,15.2284 -14.3489 16.2518c -163.1307,20.3674 -326.2614,40.7349 -489.3921 61.1023c -0.6731,0.0840 -1.3508,0.1262 -2.0291 0.1262c -28.3464,-0.0000 -56.6929,-0.0000 -85.0394 -0.0000c -9.0453,-0.0000 -16.3780,-7.3327 -16.3780 -16.3780c 0.0000,-45.8316 0.0000,-91.6634 0.0000 -137.4950c 0.0000,-91.6634 0.0000,-183.3267 -0.0000 -274.9900ZM 75.9138,276.6505 c 0.0000,4.4096 0.0000,8.8191 0.0000 13.2288c 1.0240,-0.0000 2.0480,-0.0000 3.0720 -0.0000c 0.0000,6.3104 0.0000,12.6208 0.0000 18.9313c -1.0240,-0.0000 -2.0480,-0.0000 -3.0720 -0.0000c 0.0000,4.4096 0.0000,8.8191 0.0000 13.2287c 1.0240,-0.0000 2.0480,-0.0000 3.0720 -0.0000c 0.0000,1.2353 0.0000,2.4705 0.0000 3.7057c 17.6000,-0.0000 35.2000,-0.0000 52.8000 -0.0000c 0.0000,-1.2352 0.0000,-2.4704 0.0000 -3.7057c 1.0240,-0.0000 2.0480,-0.0000 3.0720 -0.0000c 0.0000,-4.4096 0.0000,-8.8191 0.0000 -13.2287c -1.0240,-0.0000 -2.0480,-0.0000 -3.0720 -0.0000c 0.0000,-6.3104 0.0000,-12.6208 0.0000 -18.9313c 1.0240,-0.0000 2.0480,-0.0000 3.0720 -0.0000c 0.0000,-4.4096 0.0000,-8.8192 0.0000 -13.2288c -1.0240,-0.0000 -2.0480,-0.0000 -3.0720 -0.0000c 0.0000,-1.2352 0.0000,-2.4704 0.0000 -3.7056c -17.6000,-0.0000 -35.2000,-0.0000 -52.8000 -0.0000c 0.0000,1.2352 0.0000,2.4704 0.0000 3.7056c -1.0240,-0.0000 -2.0480,-0.0000 -3.0720 -0.0000ZM 75.9138,348.4616 c 0.0000,4.4096 0.0000,8.8191 0.0000 13.2287c 1.0240,-0.0000 2.0480,-0.0000 3.0720 -0.0000c 0.0000,6.3104 0.0000,12.6208 0.0000 18.9313c -1.0240,-0.0000 -2.0480,-0.0000 -3.0720 -0.0000c 0.0000,4.4096 0.0000,8.8192 0.0000 13.2288c 1.0240,-0.0000 2.0480,-0.0000 3.0720 -0.0000c 0.0000,1.2352 0.0000,2.4704 0.0000 3.7056c 17.6000,-0.0000 35.2000,-0.0000 52.8000 -0.0000c 0.0000,-1.2352 0.0000,-2.4704 0.0000 -3.7056c 1.0240,-0.0000 2.0480,-0.0000 3.0720 -0.0000c 0.0000,-4.4096 0.0000,-8.8191 0.0000 -13.2288c -1.0240,-0.0000 -2.0480,-0.0000 -3.0720 -0.0000c 0.0000,-6.3104 0.0000,-12.6208 0.0000 -18.9313c 1.0240,-0.0000 2.0480,-0.0000 3.0720 -0.0000c 0.0000,-4.4096 0.0000,-8.8191 0.0000 -13.2287c -1.0240,-0.0000 -2.0480,-0.0000 -3.0720 -0.0000c 0.0000,-1.2353 0.0000,-2.4705 0.0000 -3.7057c -17.6000,-0.0000 -35.2000,-0.0000 -52.8000 -0.0000c 0.0000,1.2352 0.0000,2.4704 0.0000 3.7057c -1.0240,-0.0000 -2.0480,-0.0000 -3.0720 -0.0000ZM 99.7165,24.1260 c 0.0000,3.1311 2.5382,5.6693 5.6693 5.6693c 3.1311,-0.0000 5.6693,-2.5382 5.6693 -5.6693c 0.0000,-3.1311 -2.5382,-5.6693 -5.6693 -5.6693c -3.1311,-0.0000 -5.6693,2.5382 -5.6693 5.6693ZM 99.7165,429.0519 c 0.0000,3.1311 2.5382,5.6693 5.6693 5.6693c 3.1311,-0.0000 5.6693,-2.5382 5.6693 -5.6693c 0.0000,-3.1311 -2.5382,-5.6693 -5.6693 -5.6693c -3.1311,-0.0000 -5.6693,2.5382 -5.6693 5.6693ZM 147.7249,97.1230 c 0.0000,4.4096 0.0000,8.8191 0.0000 13.2287c 1.0240,-0.0000 2.0480,-0.0000 3.0720 -0.0000c 0.0000,6.3104 0.0000,12.6208 0.0000 18.9313c -1.0240,-0.0000 -2.0480,-0.0000 -3.0720 -0.0000c 0.0000,4.4096 0.0000,8.8191 0.0000 13.2287c 1.0240,-0.0000 2.0480,-0.0000 3.0720 -0.0000c 0.0000,1.2352 0.0000,2.4704 0.0000 3.7057c 17.6000,-0.0000 35.2000,-0.0000 52.8000 -0.0000c 0.0000,-1.2353 0.0000,-2.4705 0.0000 -3.7057c 1.0240,-0.0000 2.0480,-0.0000 3.0720 -0.0000c 0.0000,-4.4096 0.0000,-8.8191 0.0000 -13.2287c -1.0240,-0.0000 -2.0480,-0.0000 -3.0720 -0.0000c 0.0000,-6.3105 0.0000,-12.6209 0.0000 -18.9313c 1.0240,-0.0000 2.0480,-0.0000 3.0720 -0.0000c 0.0000,-4.4096 0.0000,-8.8191 0.0000 -13.2287c -1.0240,-0.0000 -2.0480,-0.0000 -3.0720 -0.0000c 0.0000,-1.2352 0.0000,-2.4705 0.0000 -3.7057c -17.5999,-0.0000 -35.2000,-0.0000 -52.8000 -0.0000c 0.0000,1.2352 0.0000,2.4705 0.0000 3.7057c -1.0240,-0.0000 -2.0480,-0.0000 -3.0720 -0.0000ZM 147.7249,168.9340 c 0.0000,4.4096 0.0000,8.8191 0.0000 13.2288c 1.0240,-0.0000 2.0480,-0.0000 3.0720 -0.0000c 0.0000,6.3104 0.0000,12.6208 0.0000 18.9313c -1.0240,-0.0000 -2.0480,-0.0000 -3.0720 -0.0000c 0.0000,4.4096 0.0000,8.8191 0.0000 13.2287c 1.0240,-0.0000 2.0480,-0.0000 3.0720 -0.0000c 0.0000,1.2353 0.0000,2.4705 0.0000 3.7057c 17.6000,-0.0000 35.2000,-0.0000 52.8000 -0.0000c 0.0000,-1.2352 0.0000,-2.4704 0.0000 -3.7057c 1.0240,-0.0000 2.0480,-0.0000 3.0720 -0.0000c 0.0000,-4.4096 0.0000,-8.8191 0.0000 -13.2287c -1.0240,-0.0000 -2.0480,-0.0000 -3.0720 -0.0000c 0.0000,-6.3104 0.0000,-12.6208 0.0000 -18.9313c 1.0240,-0.0000 2.0480,-0.0000 3.0720 -0.0000c 0.0000,-4.4096 0.0000,-8.8192 0.0000 -13.2288c -1.0240,-0.0000 -2.0480,-0.0000 -3.0720 -0.0000c 0.0000,-1.2352 0.0000,-2.4704 0.0000 -3.7057c -17.5999,-0.0000 -35.2000,-0.0000 -52.8000 -0.0000c 0.0000,1.2353 0.0000,2.4705 0.0000 3.7057c -1.0240,-0.0000 -2.0480,-0.0000 -3.0720 -0.0000ZM 147.7249,240.7450 c 0.0000,4.4096 0.0000,8.8191 0.0000 13.2287c 1.0240,-0.0000 2.0480,-0.0000 3.0720 -0.0000c 0.0000,6.3104 0.0000,12.6208 0.0000 18.9313c -1.0240,-0.0000 -2.0480,-0.0000 -3.0720 -0.0000c 0.0000,4.4096 0.0000,8.8192 0.0000 13.2288c 1.0240,-0.0000 2.0480,-0.0000 3.0720 -0.0000c 0.0000,1.2352 0.0000,2.4704 0.0000 3.7056c 17.6000,-0.0000 35.2000,-0.0000 52.8000 -0.0000c 0.0000,-1.2352 0.0000,-2.4704 0.0000 -3.7056c 1.0240,-0.0000 2.0480,-0.0000 3.0720 -0.0000c 0.0000,-4.4096 0.0000,-8.8192 0.0000 -13.2288c -1.0240,-0.0000 -2.0480,-0.0000 -3.0720 -0.0000c 0.0000,-6.3104 0.0000,-12.6208 0.0000 -18.9313c 1.0240,-0.0000 2.0480,-0.0000 3.0720 -0.0000c 0.0000,-4.4096 0.0000,-8.8191 0.0000 -13.2287c -1.0240,-0.0000 -2.0480,-0.0000 -3.0720 -0.0000c 0.0000,-1.2353 0.0000,-2.4705 0.0000 -3.7057c -17.5999,-0.0000 -35.2000,-0.0000 -52.8000 -0.0000c 0.0000,1.2352 0.0000,2.4704 0.0000 3.7057c -1.0240,-0.0000 -2.0480,-0.0000 -3.0720 -0.0000ZM 147.7249,312.5560 c 0.0000,4.4096 0.0000,8.8191 0.0000 13.2287c 1.0240,-0.0000 2.0480,-0.0000 3.0720 -0.0000c 0.0000,6.3104 0.0000,12.6209 0.0000 18.9313c -1.0240,-0.0000 -2.0480,-0.0000 -3.0720 -0.0000c 0.0000,4.4096 0.0000,8.8191 0.0000 13.2287c 1.0240,-0.0000 2.0480,-0.0000 3.0720 -0.0000c 0.0000,1.2352 0.0000,2.4705 0.0000 3.7057c 17.6000,-0.0000 35.2000,-0.0000 52.8000 -0.0000c 0.0000,-1.2352 0.0000,-2.4705 0.0000 -3.7057c 1.0240,-0.0000 2.0480,-0.0000 3.0720 -0.0000c 0.0000,-4.4096 0.0000,-8.8191 0.0000 -13.2287c -1.0240,-0.0000 -2.0480,-0.0000 -3.0720 -0.0000c 0.0000,-6.3104 0.0000,-12.6209 0.0000 -18.9313c 1.0240,-0.0000 2.0480,-0.0000 3.0720 -0.0000c 0.0000,-4.4096 0.0000,-8.8191 0.0000 -13.2287c -1.0240,-0.0000 -2.0480,-0.0000 -3.0720 -0.0000c 0.0000,-1.2352 0.0000,-2.4705 0.0000 -3.7057c -17.5999,-0.0000 -35.2000,-0.0000 -52.8000 -0.0000c 0.0000,1.2352 0.0000,2.4705 0.0000 3.7057c -1.0240,-0.0000 -2.0480,-0.0000 -3.0720 -0.0000ZM 219.5359,78.2253 c 0.0000,4.4096 0.0000,8.8191 0.0000 13.2287c 1.0240,-0.0000 2.0480,-0.0000 3.0720 -0.0000c 0.0000,6.3104 0.0000,12.6209 0.0000 18.9313c -1.0240,-0.0000 -2.0480,-0.0000 -3.0720 -0.0000c 0.0000,4.4096 0.0000,8.8191 0.0000 13.2287c 1.0240,-0.0000 2.0480,-0.0000 3.0720 -0.0000c 0.0000,1.2352 0.0000,2.4705 0.0000 3.7057c 17.6000,-0.0000 35.2000,-0.0000 52.8000 -0.0000c 0.0000,-1.2352 0.0000,-2.4705 0.0000 -3.7057c 1.0240,-0.0000 2.0480,-0.0000 3.0720 -0.0000c 0.0000,-4.4096 0.0000,-8.8191 0.0000 -13.2287c -1.0240,-0.0000 -2.0480,-0.0000 -3.0720 -0.0000c 0.0000,-6.3104 0.0000,-12.6209 0.0000 -18.9313c 1.0240,-0.0000 2.0480,-0.0000 3.0720 -0.0000c 0.0000,-4.4096 0.0000,-8.8191 0.0000 -13.2287c -1.0240,-0.0000 -2.0480,-0.0000 -3.0720 -0.0000c 0.0000,-1.2352 0.0000,-2.4705 0.0000 -3.7057c -17.6000,-0.0000 -35.2000,-0.0000 -52.8000 -0.0000c 0.0000,1.2352 0.0000,2.4705 0.0000 3.7057c -1.0240,-0.0000 -2.0480,-0.0000 -3.0720 -0.0000ZM 219.5359,150.0363 c 0.0000,4.4096 0.0000,8.8192 0.0000 13.2288c 1.0240,-0.0000 2.0480,-0.0000 3.0720 -0.0000c 0.0000,6.3104 0.0000,12.6208 0.0000 18.9313c -1.0240,-0.0000 -2.0480,-0.0000 -3.0720 -0.0000c 0.0000,4.4096 0.0000,8.8191 0.0000 13.2288c 1.0240,-0.0000 2.0480,-0.0000 3.0720 -0.0000c 0.0000,1.2352 0.0000,2.4704 0.0000 3.7056c 17.6000,-0.0000 35.2000,-0.0000 52.8000 -0.0000c 0.0000,-1.2352 0.0000,-2.4704 0.0000 -3.7056c 1.0240,-0.0000 2.0480,-0.0000 3.0720 -0.0000c 0.0000,-4.4096 0.0000,-8.8192 0.0000 -13.2288c -1.0240,-0.0000 -2.0480,-0.0000 -3.0720 -0.0000c 0.0000,-6.3104 0.0000,-12.6208 0.0000 -18.9313c 1.0240,-0.0000 2.0480,-0.0000 3.0720 -0.0000c 0.0000,-4.4096 0.0000,-8.8192 0.0000 -13.2288c -1.0240,-0.0000 -2.0480,-0.0000 -3.0720 -0.0000c 0.0000,-1.2352 0.0000,-2.4704 0.0000 -3.7056c -17.6000,-0.0000 -35.2000,-0.0000 -52.8000 -0.0000c 0.0000,1.2352 0.0000,2.4704 0.0000 3.7056c -1.0240,-0.0000 -2.0480,-0.0000 -3.0720 0.0000ZM 219.5359,221.8474 c 0.0000,4.4096 0.0000,8.8191 0.0000 13.2287c 1.0240,-0.0000 2.0480,-0.0000 3.0720 -0.0000c 0.0000,6.3104 0.0000,12.6208 0.0000 18.9313c -1.0240,-0.0000 -2.0480,-0.0000 -3.0720 -0.0000c 0.0000,4.4096 0.0000,8.8191 0.0000 13.2287c 1.0240,-0.0000 2.0480,-0.0000 3.0720 -0.0000c 0.0000,1.2352 0.0000,2.4704 0.0000 3.7057c 17.6000,-0.0000 35.2000,-0.0000 52.8000 -0.0000c 0.0000,-1.2353 0.0000,-2.4705 0.0000 -3.7057c 1.0240,-0.0000 2.0480,-0.0000 3.0720 -0.0000c 0.0000,-4.4096 0.0000,-8.8191 0.0000 -13.2287c -1.0240,-0.0000 -2.0480,-0.0000 -3.0720 -0.0000c 0.0000,-6.3105 0.0000,-12.6209 0.0000 -18.9313c 1.0240,-0.0000 2.0480,-0.0000 3.0720 -0.0000c 0.0000,-4.4096 0.0000,-8.8191 0.0000 -13.2287c -1.0240,-0.0000 -2.0480,-0.0000 -3.0720 -0.0000c 0.0000,-1.2353 0.0000,-2.4705 0.0000 -3.7057c -17.6000,-0.0000 -35.2000,-0.0000 -52.8000 -0.0000c 0.0000,1.2352 0.0000,2.4704 0.0000 3.7057c -1.0240,-0.0000 -2.0480,-0.0000 -3.0720 -0.0000ZM 219.5359,293.6584 c 0.0000,4.4096 0.0000,8.8191 0.0000 13.2287c 1.0240,-0.0000 2.0480,-0.0000 3.0720 -0.0000c 0.0000,6.3105 0.0000,12.6209 0.0000 18.9313c -1.0240,-0.0000 -2.0480,-0.0000 -3.0720 -0.0000c 0.0000,4.4096 0.0000,8.8191 0.0000 13.2287c 1.0240,-0.0000 2.0480,-0.0000 3.0720 -0.0000c 0.0000,1.2353 0.0000,2.4705 0.0000 3.7057c 17.6000,-0.0000 35.2000,-0.0000 52.8000 -0.0000c 0.0000,-1.2352 0.0000,-2.4704 0.0000 -3.7057c 1.0240,-0.0000 2.0480,-0.0000 3.0720 -0.0000c 0.0000,-4.4096 0.0000,-8.8191 0.0000 -13.2287c -1.0240,-0.0000 -2.0480,-0.0000 -3.0720 -0.0000c 0.0000,-6.3104 0.0000,-12.6208 0.0000 -18.9313c 1.0240,-0.0000 2.0480,-0.0000 3.0720 -0.0000c 0.0000,-4.4096 0.0000,-8.8191 0.0000 -13.2287c -1.0240,-0.0000 -2.0480,-0.0000 -3.0720 -0.0000c 0.0000,-1.2352 0.0000,-2.4704 0.0000 -3.7057c -17.6000,-0.0000 -35.2000,-0.0000 -52.8000 -0.0000c 0.0000,1.2353 0.0000,2.4705 0.0000 3.7057c -1.0240,-0.0000 -2.0480,-0.0000 -3.0720 -0.0000ZM 291.3469,55.5481 c 0.0000,4.4096 0.0000,8.8191 0.0000 13.2288c 1.0240,-0.0000 2.0480,-0.0000 3.0720 -0.0000c 0.0000,6.3104 0.0000,12.6208 0.0000 18.9313c -1.0240,-0.0000 -2.0480,-0.0000 -3.0720 -0.0000c 0.0000,4.4096 0.0000,8.8191 0.0000 13.2287c 1.0240,-0.0000 2.0480,-0.0000 3.0720 -0.0000c 0.0000,1.2353 0.0000,2.4705 0.0000 3.7057c 17.5999,-0.0000 35.2000,-0.0000 52.8000 -0.0000c 0.0000,-1.2352 0.0000,-2.4704 0.0000 -3.7057c 1.0240,-0.0000 2.0480,-0.0000 3.0720 -0.0000c 0.0000,-4.4096 0.0000,-8.8191 0.0000 -13.2287c -1.0240,-0.0000 -2.0480,-0.0000 -3.0720 -0.0000c 0.0000,-6.3104 0.0000,-12.6208 0.0000 -18.9313c 1.0240,-0.0000 2.0480,-0.0000 3.0720 -0.0000c 0.0000,-4.4096 0.0000,-8.8192 0.0000 -13.2288c -1.0240,-0.0000 -2.0480,-0.0000 -3.0720 -0.0000c 0.0000,-1.2352 0.0000,-2.4704 0.0000 -3.7057c -17.6000,-0.0000 -35.2000,-0.0000 -52.8000 -0.0000c 0.0000,1.2353 0.0000,2.4705 0.0000 3.7057c -1.0240,-0.0000 -2.0480,-0.0000 -3.0720 -0.0000ZM 291.3469,127.3592 c 0.0000,4.4096 0.0000,8.8191 0.0000 13.2287c 1.0240,-0.0000 2.0480,-0.0000 3.0720 -0.0000c 0.0000,6.3104 0.0000,12.6208 0.0000 18.9313c -1.0240,-0.0000 -2.0480,-0.0000 -3.0720 -0.0000c 0.0000,4.4096 0.0000,8.8192 0.0000 13.2288c 1.0240,-0.0000 2.0480,-0.0000 3.0720 -0.0000c 0.0000,1.2352 0.0000,2.4704 0.0000 3.7056c 17.5999,-0.0000 35.2000,-0.0000 52.8000 -0.0000c 0.0000,-1.2352 0.0000,-2.4704 0.0000 -3.7056c 1.0240,-0.0000 2.0480,-0.0000 3.0720 -0.0000c 0.0000,-4.4096 0.0000,-8.8192 0.0000 -13.2288c -1.0240,-0.0000 -2.0480,-0.0000 -3.0720 -0.0000c 0.0000,-6.3104 0.0000,-12.6208 0.0000 -18.9313c 1.0240,-0.0000 2.0480,-0.0000 3.0720 -0.0000c 0.0000,-4.4096 0.0000,-8.8191 0.0000 -13.2287c -1.0240,-0.0000 -2.0480,-0.0000 -3.0720 -0.0000c 0.0000,-1.2353 0.0000,-2.4705 0.0000 -3.7057c -17.6000,-0.0000 -35.2000,-0.0000 -52.8000 -0.0000c 0.0000,1.2352 0.0000,2.4704 0.0000 3.7057c -1.0240,-0.0000 -2.0480,-0.0000 -3.0720 0.0000ZM 291.3469,199.1702 c 0.0000,4.4096 0.0000,8.8191 0.0000 13.2287c 1.0240,-0.0000 2.0480,-0.0000 3.0720 -0.0000c 0.0000,6.3104 0.0000,12.6209 0.0000 18.9313c -1.0240,-0.0000 -2.0480,-0.0000 -3.0720 -0.0000c 0.0000,4.4096 0.0000,8.8191 0.0000 13.2287c 1.0240,-0.0000 2.0480,-0.0000 3.0720 -0.0000c 0.0000,1.2352 0.0000,2.4705 0.0000 3.7057c 17.5999,-0.0000 35.2000,-0.0000 52.8000 -0.0000c 0.0000,-1.2352 0.0000,-2.4705 0.0000 -3.7057c 1.0240,-0.0000 2.0480,-0.0000 3.0720 -0.0000c 0.0000,-4.4096 0.0000,-8.8191 0.0000 -13.2287c -1.0240,-0.0000 -2.0480,-0.0000 -3.0720 -0.0000c 0.0000,-6.3104 0.0000,-12.6209 0.0000 -18.9313c 1.0240,-0.0000 2.0480,-0.0000 3.0720 -0.0000c 0.0000,-4.4096 0.0000,-8.8191 0.0000 -13.2287c -1.0240,-0.0000 -2.0480,-0.0000 -3.0720 -0.0000c 0.0000,-1.2352 0.0000,-2.4705 0.0000 -3.7057c -17.6000,-0.0000 -35.2000,-0.0000 -52.8000 -0.0000c 0.0000,1.2352 0.0000,2.4705 0.0000 3.7057c -1.0240,-0.0000 -2.0480,-0.0000 -3.0720 -0.0000ZM 291.3469,270.9812 c 0.0000,4.4096 0.0000,8.8192 0.0000 13.2288c 1.0240,-0.0000 2.0480,-0.0000 3.0720 -0.0000c 0.0000,6.3104 0.0000,12.6208 0.0000 18.9313c -1.0240,-0.0000 -2.0480,-0.0000 -3.0720 -0.0000c 0.0000,4.4096 0.0000,8.8191 0.0000 13.2287c 1.0240,-0.0000 2.0480,-0.0000 3.0720 -0.0000c 0.0000,1.2353 0.0000,2.4705 0.0000 3.7057c 17.5999,-0.0000 35.2000,-0.0000 52.8000 -0.0000c 0.0000,-1.2352 0.0000,-2.4704 0.0000 -3.7057c 1.0240,-0.0000 2.0480,-0.0000 3.0720 -0.0000c 0.0000,-4.4096 0.0000,-8.8191 0.0000 -13.2287c -1.0240,-0.0000 -2.0480,-0.0000 -3.0720 -0.0000c 0.0000,-6.3104 0.0000,-12.6208 0.0000 -18.9313c 1.0240,-0.0000 2.0480,-0.0000 3.0720 -0.0000c 0.0000,-4.4096 0.0000,-8.8192 0.0000 -13.2288c -1.0240,-0.0000 -2.0480,-0.0000 -3.0720 -0.0000c 0.0000,-1.2352 0.0000,-2.4704 0.0000 -3.7056c -17.6000,-0.0000 -35.2000,-0.0000 -52.8000 -0.0000c 0.0000,1.2352 0.0000,2.4704 0.0000 3.7056c -1.0240,-0.0000 -2.0480,-0.0000 -3.0720 -0.0000ZM 363.1579,74.4458 c 0.0000,4.4096 0.0000,8.8191 0.0000 13.2287c 1.0240,-0.0000 2.0480,-0.0000 3.0720 -0.0000c 0.0000,6.3105 0.0000,12.6209 0.0000 18.9313c -1.0240,-0.0000 -2.0480,-0.0000 -3.0720 -0.0000c 0.0000,4.4096 0.0000,8.8191 0.0000 13.2287c 1.0240,-0.0000 2.0480,-0.0000 3.0720 -0.0000c 0.0000,1.2352 0.0000,2.4705 0.0000 3.7057c 17.6000,-0.0000 35.2000,-0.0000 52.8000 -0.0000c 0.0000,-1.2352 0.0000,-2.4705 0.0000 -3.7057c 1.0240,-0.0000 2.0480,-0.0000 3.0720 -0.0000c 0.0000,-4.4096 0.0000,-8.8191 0.0000 -13.2287c -1.0240,-0.0000 -2.0480,-0.0000 -3.0720 -0.0000c 0.0000,-6.3104 0.0000,-12.6208 0.0000 -18.9313c 1.0240,-0.0000 2.0480,-0.0000 3.0720 -0.0000c 0.0000,-4.4096 0.0000,-8.8191 0.0000 -13.2287c -1.0240,-0.0000 -2.0480,-0.0000 -3.0720 -0.0000c 0.0000,-1.2352 0.0000,-2.4704 0.0000 -3.7057c -17.6000,-0.0000 -35.2000,-0.0000 -52.8000 -0.0000c 0.0000,1.2353 0.0000,2.4705 0.0000 3.7057c -1.0240,-0.0000 -2.0480,-0.0000 -3.0720 -0.0000ZM 363.1579,146.2568 c 0.0000,4.4096 0.0000,8.8192 0.0000 13.2288c 1.0240,-0.0000 2.0480,-0.0000 3.0720 -0.0000c 0.0000,6.3104 0.0000,12.6208 0.0000 18.9313c -1.0240,-0.0000 -2.0480,-0.0000 -3.0720 -0.0000c 0.0000,4.4096 0.0000,8.8191 0.0000 13.2288c 1.0240,-0.0000 2.0480,-0.0000 3.0720 -0.0000c 0.0000,1.2352 0.0000,2.4704 0.0000 3.7056c 17.6000,-0.0000 35.2000,-0.0000 52.8000 -0.0000c 0.0000,-1.2352 0.0000,-2.4704 0.0000 -3.7056c 1.0240,-0.0000 2.0480,-0.0000 3.0720 -0.0000c 0.0000,-4.4096 0.0000,-8.8192 0.0000 -13.2288c -1.0240,-0.0000 -2.0480,-0.0000 -3.0720 -0.0000c 0.0000,-6.3104 0.0000,-12.6208 0.0000 -18.9313c 1.0240,-0.0000 2.0480,-0.0000 3.0720 -0.0000c 0.0000,-4.4096 0.0000,-8.8192 0.0000 -13.2288c -1.0240,-0.0000 -2.0480,-0.0000 -3.0720 -0.0000c 0.0000,-1.2352 0.0000,-2.4704 0.0000 -3.7056c -17.6000,-0.0000 -35.2000,-0.0000 -52.8000 -0.0000c 0.0000,1.2352 0.0000,2.4704 0.0000 3.7056c -1.0240,-0.0000 -2.0480,-0.0000 -3.0720 -0.0000ZM 363.1579,218.0679 c 0.0000,4.4096 0.0000,8.8191 0.0000 13.2287c 1.0240,-0.0000 2.0480,-0.0000 3.0720 -0.0000c 0.0000,6.3104 0.0000,12.6208 0.0000 18.9313c -1.0240,-0.0000 -2.0480,-0.0000 -3.0720 -0.0000c 0.0000,4.4096 0.0000,8.8191 0.0000 13.2287c 1.0240,-0.0000 2.0480,-0.0000 3.0720 -0.0000c 0.0000,1.2352 0.0000,2.4704 0.0000 3.7057c 17.6000,-0.0000 35.2000,-0.0000 52.8000 -0.0000c 0.0000,-1.2353 0.0000,-2.4705 0.0000 -3.7057c 1.0240,-0.0000 2.0480,-0.0000 3.0720 -0.0000c 0.0000,-4.4096 0.0000,-8.8191 0.0000 -13.2287c -1.0240,-0.0000 -2.0480,-0.0000 -3.0720 -0.0000c 0.0000,-6.3105 0.0000,-12.6209 0.0000 -18.9313c 1.0240,-0.0000 2.0480,-0.0000 3.0720 -0.0000c 0.0000,-4.4096 0.0000,-8.8191 0.0000 -13.2287c -1.0240,-0.0000 -2.0480,-0.0000 -3.0720 -0.0000c 0.0000,-1.2353 0.0000,-2.4705 0.0000 -3.7057c -17.6000,-0.0000 -35.2000,-0.0000 -52.8000 -0.0000c 0.0000,1.2352 0.0000,2.4704 0.0000 3.7057c -1.0240,-0.0000 -2.0480,-0.0000 -3.0720 -0.0000ZM 363.1579,289.8789 c 0.0000,4.4096 0.0000,8.8191 0.0000 13.2287c 1.0240,-0.0000 2.0480,-0.0000 3.0720 -0.0000c 0.0000,6.3105 0.0000,12.6209 0.0000 18.9313c -1.0240,-0.0000 -2.0480,-0.0000 -3.0720 -0.0000c 0.0000,4.4096 0.0000,8.8191 0.0000 13.2287c 1.0240,-0.0000 2.0480,-0.0000 3.0720 -0.0000c 0.0000,1.2353 0.0000,2.4705 0.0000 3.7057c 17.6000,-0.0000 35.2000,-0.0000 52.8000 -0.0000c 0.0000,-1.2352 0.0000,-2.4704 0.0000 -3.7057c 1.0240,-0.0000 2.0480,-0.0000 3.0720 -0.0000c 0.0000,-4.4096 0.0000,-8.8191 0.0000 -13.2287c -1.0240,-0.0000 -2.0480,-0.0000 -3.0720 -0.0000c 0.0000,-6.3104 0.0000,-12.6208 0.0000 -18.9313c 1.0240,-0.0000 2.0480,-0.0000 3.0720 -0.0000c 0.0000,-4.4096 0.0000,-8.8191 0.0000 -13.2287c -1.0240,-0.0000 -2.0480,-0.0000 -3.0720 -0.0000c 0.0000,-1.2352 0.0000,-2.4704 0.0000 -3.7057c -17.6000,-0.0000 -35.2000,-0.0000 -52.8000 -0.0000c 0.0000,1.2353 0.0000,2.4705 0.0000 3.7057c -1.0240,-0.0000 -2.0480,-0.0000 -3.0720 -0.0000ZM 434.9689,85.7844 c 0.0000,4.4096 0.0000,8.8191 0.0000 13.2287c 1.0240,-0.0000 2.0480,-0.0000 3.0720 -0.0000c 0.0000,6.3104 0.0000,12.6209 0.0000 18.9313c -1.0240,-0.0000 -2.0480,-0.0000 -3.0720 -0.0000c 0.0000,4.4096 0.0000,8.8191 0.0000 13.2287c 1.0240,-0.0000 2.0480,-0.0000 3.0720 -0.0000c 0.0000,1.2352 0.0000,2.4705 0.0000 3.7057c 17.6000,-0.0000 35.2000,-0.0000 52.8000 -0.0000c 0.0000,-1.2352 0.0000,-2.4705 0.0000 -3.7057c 1.0240,-0.0000 2.0480,-0.0000 3.0720 -0.0000c 0.0000,-4.4096 0.0000,-8.8191 0.0000 -13.2287c -1.0240,-0.0000 -2.0480,-0.0000 -3.0720 -0.0000c 0.0000,-6.3104 0.0000,-12.6209 0.0000 -18.9313c 1.0240,-0.0000 2.0480,-0.0000 3.0720 -0.0000c 0.0000,-4.4096 0.0000,-8.8191 0.0000 -13.2287c -1.0240,-0.0000 -2.0480,-0.0000 -3.0720 -0.0000c 0.0000,-1.2352 0.0000,-2.4705 0.0000 -3.7057c -17.6000,-0.0000 -35.2000,-0.0000 -52.8000 -0.0000c 0.0000,1.2352 0.0000,2.4705 0.0000 3.7057c -1.0240,-0.0000 -2.0480,-0.0000 -3.0720 -0.0000ZM 434.9689,157.5954 c 0.0000,4.4096 0.0000,8.8192 0.0000 13.2288c 1.0240,-0.0000 2.0480,-0.0000 3.0720 -0.0000c 0.0000,6.3104 0.0000,12.6208 0.0000 18.9313c -1.0240,-0.0000 -2.0480,-0.0000 -3.0720 -0.0000c 0.0000,4.4096 0.0000,8.8191 0.0000 13.2287c 1.0240,-0.0000 2.0480,-0.0000 3.0720 -0.0000c 0.0000,1.2353 0.0000,2.4705 0.0000 3.7057c 17.6000,-0.0000 35.2000,-0.0000 52.8000 -0.0000c 0.0000,-1.2352 0.0000,-2.4704 0.0000 -3.7057c 1.0240,-0.0000 2.0480,-0.0000 3.0720 -0.0000c 0.0000,-4.4096 0.0000,-8.8191 0.0000 -13.2287c -1.0240,-0.0000 -2.0480,-0.0000 -3.0720 -0.0000c 0.0000,-6.3104 0.0000,-12.6208 0.0000 -18.9313c 1.0240,-0.0000 2.0480,-0.0000 3.0720 -0.0000c 0.0000,-4.4096 0.0000,-8.8192 0.0000 -13.2288c -1.0240,-0.0000 -2.0480,-0.0000 -3.0720 -0.0000c 0.0000,-1.2352 0.0000,-2.4704 0.0000 -3.7056c -17.6000,-0.0000 -35.2000,-0.0000 -52.8000 -0.0000c 0.0000,1.2352 0.0000,2.4704 0.0000 3.7056c -1.0240,-0.0000 -2.0480,-0.0000 -3.0720 -0.0000ZM 434.9689,229.4064 c 0.0000,4.4096 0.0000,8.8191 0.0000 13.2287c 1.0240,-0.0000 2.0480,-0.0000 3.0720 -0.0000c 0.0000,6.3104 0.0000,12.6208 0.0000 18.9313c -1.0240,-0.0000 -2.0480,-0.0000 -3.0720 -0.0000c 0.0000,4.4096 0.0000,8.8192 0.0000 13.2288c 1.0240,-0.0000 2.0480,-0.0000 3.0720 -0.0000c 0.0000,1.2352 0.0000,2.4704 0.0000 3.7057c 17.6000,-0.0000 35.2000,-0.0000 52.8000 -0.0000c 0.0000,-1.2353 0.0000,-2.4705 0.0000 -3.7057c 1.0240,-0.0000 2.0480,-0.0000 3.0720 -0.0000c 0.0000,-4.4096 0.0000,-8.8191 0.0000 -13.2288c -1.0240,-0.0000 -2.0480,-0.0000 -3.0720 -0.0000c 0.0000,-6.3104 0.0000,-12.6208 0.0000 -18.9313c 1.0240,-0.0000 2.0480,-0.0000 3.0720 -0.0000c 0.0000,-4.4096 0.0000,-8.8191 0.0000 -13.2287c -1.0240,-0.0000 -2.0480,-0.0000 -3.0720 -0.0000c 0.0000,-1.2353 0.0000,-2.4705 0.0000 -3.7057c -17.6000,-0.0000 -35.2000,-0.0000 -52.8000 -0.0000c 0.0000,1.2352 0.0000,2.4704 0.0000 3.7057c -1.0240,-0.0000 -2.0480,-0.0000 -3.0720 -0.0000ZM 434.9689,301.2174 c 0.0000,4.4096 0.0000,8.8191 0.0000 13.2287c 1.0240,-0.0000 2.0480,-0.0000 3.0720 -0.0000c 0.0000,6.3105 0.0000,12.6209 0.0000 18.9313c -1.0240,-0.0000 -2.0480,-0.0000 -3.0720 -0.0000c 0.0000,4.4096 0.0000,8.8191 0.0000 13.2287c 1.0240,-0.0000 2.0480,-0.0000 3.0720 -0.0000c 0.0000,1.2352 0.0000,2.4705 0.0000 3.7057c 17.6000,-0.0000 35.2000,-0.0000 52.8000 -0.0000c 0.0000,-1.2352 0.0000,-2.4705 0.0000 -3.7057c 1.0240,-0.0000 2.0480,-0.0000 3.0720 -0.0000c 0.0000,-4.4096 0.0000,-8.8191 0.0000 -13.2287c -1.0240,-0.0000 -2.0480,-0.0000 -3.0720 -0.0000c 0.0000,-6.3104 0.0000,-12.6208 0.0000 -18.9313c 1.0240,-0.0000 2.0480,-0.0000 3.0720 -0.0000c 0.0000,-4.4096 0.0000,-8.8191 0.0000 -13.2287c -1.0240,-0.0000 -2.0480,-0.0000 -3.0720 -0.0000c 0.0000,-1.2352 0.0000,-2.4704 0.0000 -3.7057c -17.6000,-0.0000 -35.2000,-0.0000 -52.8000 -0.0000c 0.0000,1.2353 0.0000,2.4705 0.0000 3.7057c -1.0240,-0.0000 -2.0480,-0.0000 -3.0720 0.0000ZM 506.7800,89.5639 c 0.0000,4.4096 0.0000,8.8191 0.0000 13.2287c 1.0240,-0.0000 2.0480,-0.0000 3.0720 -0.0000c 0.0000,6.3104 0.0000,12.6209 0.0000 18.9313c -1.0240,-0.0000 -2.0480,-0.0000 -3.0720 -0.0000c 0.0000,4.4096 0.0000,8.8191 0.0000 13.2287c 1.0240,-0.0000 2.0480,-0.0000 3.0720 -0.0000c 0.0000,1.2352 0.0000,2.4705 0.0000 3.7057c 17.6000,-0.0000 35.2000,-0.0000 52.8000 -0.0000c 0.0000,-1.2352 0.0000,-2.4705 0.0000 -3.7057c 1.0240,-0.0000 2.0480,-0.0000 3.0720 -0.0000c 0.0000,-4.4096 0.0000,-8.8191 0.0000 -13.2287c -1.0240,-0.0000 -2.0480,-0.0000 -3.0720 -0.0000c 0.0000,-6.3104 0.0000,-12.6209 0.0000 -18.9313c 1.0240,-0.0000 2.0480,-0.0000 3.0720 -0.0000c 0.0000,-4.4096 0.0000,-8.8191 0.0000 -13.2287c -1.0240,-0.0000 -2.0480,-0.0000 -3.0720 -0.0000c 0.0000,-1.2352 0.0000,-2.4705 0.0000 -3.7057c -17.6000,-0.0000 -35.2000,-0.0000 -52.8000 -0.0000c 0.0000,1.2352 0.0000,2.4705 0.0000 3.7057c -1.0240,-0.0000 -2.0480,-0.0000 -3.0720 -0.0000ZM 506.7800,161.3749 c 0.0000,4.4096 0.0000,8.8191 0.0000 13.2288c 1.0240,-0.0000 2.0480,-0.0000 3.0720 -0.0000c 0.0000,6.3104 0.0000,12.6208 0.0000 18.9313c -1.0240,-0.0000 -2.0480,-0.0000 -3.0720 -0.0000c 0.0000,4.4096 0.0000,8.8191 0.0000 13.2287c 1.0240,-0.0000 2.0480,-0.0000 3.0720 -0.0000c 0.0000,1.2353 0.0000,2.4705 0.0000 3.7057c 17.6000,-0.0000 35.2000,-0.0000 52.8000 -0.0000c 0.0000,-1.2352 0.0000,-2.4704 0.0000 -3.7057c 1.0240,-0.0000 2.0480,-0.0000 3.0720 -0.0000c 0.0000,-4.4096 0.0000,-8.8191 0.0000 -13.2287c -1.0240,-0.0000 -2.0480,-0.0000 -3.0720 -0.0000c 0.0000,-6.3104 0.0000,-12.6208 0.0000 -18.9313c 1.0240,-0.0000 2.0480,-0.0000 3.0720 -0.0000c 0.0000,-4.4096 0.0000,-8.8192 0.0000 -13.2288c -1.0240,-0.0000 -2.0480,-0.0000 -3.0720 -0.0000c 0.0000,-1.2352 0.0000,-2.4704 0.0000 -3.7056c -17.6000,-0.0000 -35.2000,-0.0000 -52.8000 -0.0000c 0.0000,1.2352 0.0000,2.4704 0.0000 3.7056c -1.0240,-0.0000 -2.0480,-0.0000 -3.0720 -0.0000ZM 506.7800,233.1860 c 0.0000,4.4096 0.0000,8.8191 0.0000 13.2287c 1.0240,-0.0000 2.0480,-0.0000 3.0720 -0.0000c 0.0000,6.3104 0.0000,12.6208 0.0000 18.9313c -1.0240,-0.0000 -2.0480,-0.0000 -3.0720 -0.0000c 0.0000,4.4096 0.0000,8.8192 0.0000 13.2288c 1.0240,-0.0000 2.0480,-0.0000 3.0720 -0.0000c 0.0000,1.2352 0.0000,2.4704 0.0000 3.7056c 17.6000,-0.0000 35.2000,-0.0000 52.8000 -0.0000c 0.0000,-1.2352 0.0000,-2.4704 0.0000 -3.7056c 1.0240,-0.0000 2.0480,-0.0000 3.0720 -0.0000c 0.0000,-4.4096 0.0000,-8.8191 0.0000 -13.2288c -1.0240,-0.0000 -2.0480,-0.0000 -3.0720 -0.0000c 0.0000,-6.3104 0.0000,-12.6208 0.0000 -18.9313c 1.0240,-0.0000 2.0480,-0.0000 3.0720 -0.0000c 0.0000,-4.4096 0.0000,-8.8191 0.0000 -13.2287c -1.0240,-0.0000 -2.0480,-0.0000 -3.0720 -0.0000c 0.0000,-1.2353 0.0000,-2.4705 0.0000 -3.7057c -17.6000,-0.0000 -35.2000,-0.0000 -52.8000 -0.0000c 0.0000,1.2352 0.0000,2.4704 0.0000 3.7057c -1.0240,-0.0000 -2.0480,-0.0000 -3.0720 0.0000ZM 506.7800,304.9970 c 0.0000,4.4096 0.0000,8.8191 0.0000 13.2287c 1.0240,-0.0000 2.0480,-0.0000 3.0720 -0.0000c 0.0000,6.3104 0.0000,12.6209 0.0000 18.9313c -1.0240,-0.0000 -2.0480,-0.0000 -3.0720 -0.0000c 0.0000,4.4096 0.0000,8.8191 0.0000 13.2287c 1.0240,-0.0000 2.0480,-0.0000 3.0720 -0.0000c 0.0000,1.2352 0.0000,2.4705 0.0000 3.7057c 17.6000,-0.0000 35.2000,-0.0000 52.8000 -0.0000c 0.0000,-1.2352 0.0000,-2.4705 0.0000 -3.7057c 1.0240,-0.0000 2.0480,-0.0000 3.0720 -0.0000c 0.0000,-4.4096 0.0000,-8.8191 0.0000 -13.2287c -1.0240,-0.0000 -2.0480,-0.0000 -3.0720 -0.0000c 0.0000,-6.3104 0.0000,-12.6209 0.0000 -18.9313c 1.0240,-0.0000 2.0480,-0.0000 3.0720 -0.0000c 0.0000,-4.4096 0.0000,-8.8191 0.0000 -13.2287c -1.0240,-0.0000 -2.0480,-0.0000 -3.0720 -0.0000c 0.0000,-1.2352 0.0000,-2.4705 0.0000 -3.7057c -17.6000,-0.0000 -35.2000,-0.0000 -52.8000 -0.0000c 0.0000,1.2352 0.0000,2.4705 0.0000 3.7057c -1.0240,-0.0000 -2.0480,-0.0000 -3.0720 -0.0000ZM 585.3291,24.1260 c 0.0000,3.1311 2.5382,5.6693 5.6693 5.6693c 3.1311,-0.0000 5.6693,-2.5382 5.6693 -5.6693c 0.0000,-3.1311 -2.5382,-5.6693 -5.6693 -5.6693c -3.1311,-0.0000 -5.6693,2.5382 -5.6693 5.6693ZM 585.3291,367.9496 c 0.0000,3.1311 2.5382,5.6693 5.6693 5.6693c 3.1311,-0.0000 5.6693,-2.5382 5.6693 -5.6693c 0.0000,-3.1311 -2.5382,-5.6693 -5.6693 -5.6693c -3.1311,-0.0000 -5.6693,2.5382 -5.6693 5.6693Z"/></g><g stroke-linejoin="miter" stroke-opacity="1.0" fill-opacity="0.5" stroke="rgb(0,0,0)" stroke-width="0.37795275590551186" fill="rgb(0,0,255)" stroke-linecap="butt" stroke-miterlimit="10.0"><path d="M 3.9685,20.3465 c 0.0000,-9.0453 7.3327,-16.3780 16.3780 -16.3780c 191.4771,-0.0000 382.9543,-0.0000 574.4315 -0.0000c 9.0453,-0.0000 16.3780,7.3327 16.3780 16.3780c 0.0000,117.1276 0.0000,234.2551 0.0000 351.3827c 0.0000,8.2607 -6.1518,15.2284 -14.3489 16.2518c -163.1307,20.3674 -326.2614,40.7349 -489.3921 61.1023c -0.6731,0.0840 -1.3508,0.1262 -2.0291 0.1262c -28.3464,-0.0000 -56.6929,-0.0000 -85.0394 -0.0000c -9.0453,-0.0000 -16.3780,-7.3327 -16.3780 -16.3780c 0.0000,-45.8316 0.0000,-91.6634 0.0000 -137.4950c 0.0000,-91.6634 0.0000,-183.3267 -0.0000 -274.9900ZM 64.3402,262.0787 c 0.0000,23.9370 0.0000,47.8740 0.0000 71.8110c 0.0000,0.9071 0.0000,1.8142 0.0000 2.7213c 0.0000,23.9370 0.0000,47.8740 0.0000 71.8110c 0.0000,2.0874 1.6922,3.7795 3.7795 3.7795c 24.8441,-0.0000 49.6882,-0.0000 74.5323 -0.0000c 2.0874,-0.0000 3.7795,-1.6922 3.7795 -3.7795c 0.0000,-10.7087 0.0000,-21.4173 0.0000 -32.1260c 22.6772,-0.0000 45.3544,-0.0000 68.0315 -0.0000c 2.0874,-0.0000 3.7795,-1.6922 3.7795 -3.7795c 0.0000,-5.0394 0.0000,-10.0787 0.0000 -15.1181c 22.6772,-0.0000 45.3543,-0.0000 68.0315 -0.0000c 2.0874,-0.0000 3.7795,-1.6921 3.7795 -3.7795c 0.0000,-6.2992 0.0000,-12.5984 0.0000 -18.8976c 20.5102,-0.0000 41.0205,-0.0000 61.5307 -0.0000c 0.0000,5.0394 0.0000,10.0787 0.0000 15.1181c 0.0000,2.0874 1.6921,3.7795 3.7795 3.7795c 22.6772,-0.0000 45.3544,-0.0000 68.0315 -0.0000c 0.0000,2.5197 0.0000,5.0394 0.0000 7.5591c 0.0000,2.0874 1.6922,3.7795 3.7795 3.7795c 22.6772,-0.0000 45.3543,-0.0000 68.0315 -0.0000c 0.0000,2.0874 1.6922,3.7795 3.7795 3.7795c 24.8441,-0.0000 49.6882,-0.0000 74.5323 -0.0000c 2.0874,-0.0000 3.7795,-1.6922 3.7795 -3.7795c 0.0000,-23.9370 0.0000,-47.8740 0.0000 -71.8110c 0.0000,-0.9071 0.0000,-1.8142 0.0000 -2.7213c 0.0000,-23.0299 0.0000,-46.0598 0.0000 -69.0897c 0.0000,-0.9071 0.0000,-1.8142 0.0000 -2.7213c 0.0000,-23.0299 0.0000,-46.0598 0.0000 -69.0897c 0.0000,-0.9071 0.0000,-1.8142 0.0000 -2.7213c 0.0000,-23.9370 0.0000,-47.8740 0.0000 -71.8110c 0.0000,-2.0874 -1.6922,-3.7795 -3.7795 -3.7795c -22.6772,-0.0000 -45.3544,-0.0000 -68.0315 -0.0000c 0.0000,-2.0874 -1.6922,-3.7795 -3.7795 -3.7795c -22.6772,-0.0000 -45.3543,-0.0000 -68.0315 -0.0000c 0.0000,-2.5197 0.0000,-5.0394 0.0000 -7.5591c 0.0000,-2.0874 -1.6922,-3.7795 -3.7795 -3.7795c -22.6772,-0.0000 -45.3543,-0.0000 -68.0315 -0.0000c 0.0000,-5.0394 0.0000,-10.0787 0.0000 -15.1181c 0.0000,-2.0874 -1.6922,-3.7795 -3.7795 -3.7795c -24.8441,-0.0000 -49.6882,-0.0000 -74.5323 -0.0000c -2.0874,-0.0000 -3.7795,1.6922 -3.7795 3.7795c 0.0000,6.2992 0.0000,12.5984 0.0000 18.8976c -22.6772,-0.0000 -45.3543,-0.0000 -68.0315 -0.0000c -2.0874,-0.0000 -3.7795,1.6922 -3.7795 3.7795c 0.0000,5.0394 0.0000,10.0787 0.0000 15.1181c -22.6772,-0.0000 -45.3544,-0.0000 -68.0315 -0.0000c -2.0874,-0.0000 -3.7795,1.6922 -3.7795 3.7795c 0.0000,12.4220 0.0000,24.8440 0.0000 37.2661c 0.0000,11.5149 0.0000,23.0299 0.0000 34.5449c 0.0000,0.9071 0.0000,1.8142 0.0000 2.7213c 0.0000,11.5149 0.0000,23.0299 0.0000 34.5449c 0.0000,11.5150 0.0000,23.0299 0.0000 34.5449c 0.0000,0.9071 0.0000,1.8142 0.0000 2.7213c 0.0000,9.8016 0.0000,19.6032 0.0000 29.4047c -22.6771,-0.0000 -45.3543,-0.0000 -68.0315 -0.0000c -2.0874,-0.0000 -3.7795,1.6922 -3.7795 3.7795ZM 99.7165,24.1260 c 0.0000,3.1311 2.5382,5.6693 5.6693 5.6693c 3.1311,-0.0000 5.6693,-2.5382 5.6693 -5.6693c 0.0000,-3.1311 -2.5382,-5.6693 -5.6693 -5.6693c -3.1311,-0.0000 -5.6693,2.5382 -5.6693 5.6693ZM 99.7165,429.0519 c 0.0000,3.1311 2.5382,5.6693 5.6693 5.6693c 3.1311,-0.0000 5.6693,-2.5382 5.6693 -5.6693c 0.0000,-3.1311 -2.5382,-5.6693 -5.6693 -5.6693c -3.1311,-0.0000 -5.6693,2.5382 -5.6693 5.6693ZM 585.3291,24.1260 c 0.0000,3.1311 2.5382,5.6693 5.6693 5.6693c 3.1311,-0.0000 5.6693,-2.5382 5.6693 -5.6693c 0.0000,-3.1311 -2.5382,-5.6693 -5.6693 -5.6693c -3.1311,-0.0000 -5.6693,2.5382 -5.6693 5.6693ZM 585.3291,367.9496 c 0.0000,3.1311 2.5382,5.6693 5.6693 5.6693c 3.1311,-0.0000 5.6693,-2.5382 5.6693 -5.6693c 0.0000,-3.1311 -2.5382,-5.6693 -5.6693 -5.6693c -3.1311,-0.0000 -5.6693,2.5382 -5.6693 5.6693Z"/></g><g stroke-linejoin="miter" stroke-opacity="1.0" fill-opacity="0.7" stroke="rgb(0,0,0)" stroke-width="0.37795275590551186" fill="rgb(0,0,0)" stroke-linecap="butt" stroke-miterlimit="10.0"><path d="M 140.6677,398.8787 l -0.0000,-55.4457 c 0.0000,-4.1748 -3.3843,-7.5591 -7.5591 -7.5591h -55.4457 c -4.1748,-0.0000 -7.5591,3.3843 -7.5591 7.5591l -0.0000,55.4457 c -0.0000,4.1748 3.3843,7.5591 7.5591 7.5591h 55.4457 c 4.1748,-0.0000 7.5591,-3.3843 7.5591 -7.5591Z"/></g><defs><linearGradient x2="5.0000" y1="0.0000" gradientUnits="userSpaceOnUse" spreadMethod="pad" gradientTransform="matrix(3.7795,-0.0000,0.0000,-3.7795,105.3858,371.1559)" id="gradient12" y2="0.0000" x1="-5.0000"><stop stop-opacity="0.1000" offset="0.0000" stop-color="rgb(0,0,0)"/><stop stop-opacity="0.1000" offset="0.5000" stop-color="rgb(255,255,255)"/><stop stop-opacity="0.1000" offset="1.0000" stop-color="rgb(0,0,0)"/></linearGradient></defs><g stroke-linejoin="miter" stroke-opacity="1.0" fill-opacity="1" stroke="rgb(0,0,0)" stroke-width="0.37795275590551186" fill="url(#gradient12)" stroke-linecap="butt" stroke-miterlimit="10.0"><path d="M 129.8961,388.1071 l -0.0000,-33.9024 c 0.0000,-4.1748 -3.3843,-7.5591 -7.5591 -7.5591h -33.9024 c -4.1748,-0.0000 -7.5591,3.3843 -7.5591 7.5591l -0.0000,33.9024 c -0.0000,4.1748 3.3843,7.5591 7.5591 7.5591h 33.9024 c 4.1748,-0.0000 7.5591,-3.3843 7.5591 -7.5591Z"/></g><g stroke-linejoin="miter" stroke-opacity="1.0" fill-opacity="0.7" stroke="rgb(0,0,0)" stroke-width="0.37795275590551186" fill="rgb(0,0,0)" stroke-linecap="butt" stroke-miterlimit="10.0"><path d="M 140.6677,327.0677 l -0.0000,-55.4457 c 0.0000,-4.1748 -3.3843,-7.5591 -7.5591 -7.5591h -55.4457 c -4.1748,-0.0000 -7.5591,3.3843 -7.5591 7.5591l -0.0000,55.4457 c -0.0000,4.1748 3.3843,7.5591 7.5591 7.5591h 55.4457 c 4.1748,-0.0000 7.5591,-3.3843 7.5591 -7.5591Z"/></g><defs><linearGradient x2="5.0000" y1="0.0000" gradientUnits="userSpaceOnUse" spreadMethod="pad" gradientTransform="matrix(3.7795,-0.0000,0.0000,-3.7795,105.3858,299.3449)" id="gradient16" y2="0.0000" x1="-5.0000"><stop stop-opacity="0.1000" offset="0.0000" stop-color="rgb(0,0,0)"/><stop stop-opacity="0.1000" offset="0.5000" stop-color="rgb(255,255,255)"/><stop stop-opacity="0.1000" offset="1.0000" stop-color="rgb(0,0,0)"/></linearGradient></defs><g stroke-linejoin="miter" stroke-opacity="1.0" fill-opacity="1" stroke="rgb(0,0,0)" stroke-width="0.37795275590551186" fill="url(#gradient16)" stroke-linecap="butt" stroke-miterlimit="10.0"><path d="M 129.8961,316.2961 l -0.0000,-33.9024 c 0.0000,-4.1748 -3.3843,-7.5591 -7.5591 -7.5591h -33.9024 c -4.1748,-0.0000 -7.5591,3.3843 -7.5591 7.5591l -0.0000,33.9024 c -0.0000,4.1748 3.3843,7.5591 7.5591 7.5591h 33.9024 c 4.1748,-0.0000 7.5591,-3.3843 7.5591 -7.5591Z"/></g><g stroke-linejoin="miter" stroke-opacity="1.0" fill-opacity="0.7" stroke="rgb(0,0,0)" stroke-width="0.37795275590551186" fill="rgb(0,0,0)" stroke-linecap="butt" stroke-miterlimit="10.0"><path d="M 571.5339,139.9811 l -0.0000,-55.4457 c 0.0000,-4.1748 -3.3843,-7.5591 -7.5591 -7.5591h -55.4457 c -4.1748,-0.0000 -7.5591,3.3843 -7.5591 7.5591l -0.0000,55.4457 c -0.0000,4.1748 3.3843,7.5591 7.5591 7.5591h 55.4457 c 4.1748,-0.0000 7.5591,-3.3843 7.5591 -7.5591Z"/></g><defs><linearGradient x2="5.0000" y1="0.0000" gradientUnits="userSpaceOnUse" spreadMethod="pad" gradientTransform="matrix(3.7795,-0.0000,0.0000,-3.7795,536.2520,112.2583)" id="gradient20" y2="0.0000" x1="-5.0000"><stop stop-opacity="0.1000" offset="0.0000" stop-color="rgb(0,0,0)"/><stop stop-opacity="0.1000" offset="0.5000" stop-color="rgb(255,255,255)"/><stop stop-opacity="0.1000" offset="1.0000" stop-color="rgb(0,0,0)"/></linearGradient></defs><g stroke-linejoin="miter" stroke-opacity="1.0" fill-opacity="1" stroke="rgb(0,0,0)" stroke-width="0.37795275590551186" fill="url(#gradient20)" stroke-linecap="butt" stroke-miterlimit="10.0"><path d="M 560.7622,129.2094 l -0.0000,-33.9024 c 0.0000,-4.1748 -3.3843,-7.5591 -7.5591 -7.5591h -33.9024 c -4.1748,-0.0000 -7.5591,3.3843 -7.5591 7.5591l -0.0000,33.9024 c -0.0000,4.1748 3.3843,7.5591 7.5591 7.5591h 33.9024 c 4.1748,-0.0000 7.5591,-3.3843 7.5591 -7.5591Z"/></g><g stroke-linejoin="miter" stroke-opacity="1.0" fill-opacity="0.7" stroke="rgb(0,0,0)" stroke-width="0.37795275590551186" fill="rgb(0,0,0)" stroke-linecap="butt" stroke-miterlimit="10.0"><path d="M 571.5339,211.7921 l -0.0000,-55.4457 c 0.0000,-4.1748 -3.3843,-7.5591 -7.5591 -7.5591h -55.4457 c -4.1748,-0.0000 -7.5591,3.3843 -7.5591 7.5591l -0.0000,55.4457 c -0.0000,4.1748 3.3843,7.5591 7.5591 7.5591h 55.4457 c 4.1748,-0.0000 7.5591,-3.3843 7.5591 -7.5591Z"/></g><defs><linearGradient x2="5.0000" y1="0.0000" gradientUnits="userSpaceOnUse" spreadMethod="pad" gradientTransform="matrix(3.7795,-0.0000,0.0000,-3.7795,536.2520,184.0693)" id="gradient24" y2="0.0000" x1="-5.0000"><stop stop-opacity="0.1000" offset="0.0000" stop-color="rgb(0,0,0)"/><stop stop-opacity="0.1000" offset="0.5000" stop-color="rgb(255,255,255)"/><stop stop-opacity="0.1000" offset="1.0000" stop-color="rgb(0,0,0)"/></linearGradient></defs><g stroke-linejoin="miter" stroke-opacity="1.0" fill-opacity="1" stroke="rgb(0,0,0)" stroke-width="0.37795275590551186" fill="url(#gradient24)" stroke-linecap="butt" stroke-miterlimit="10.0"><path d="M 560.7622,201.0205 l -0.0000,-33.9024 c 0.0000,-4.1748 -3.3843,-7.5591 -7.5591 -7.5591h -33.9024 c -4.1748,-0.0000 -7.5591,3.3843 -7.5591 7.5591l -0.0000,33.9024 c -0.0000,4.1748 3.3843,7.5591 7.5591 7.5591h 33.9024 c 4.1748,-0.0000 7.5591,-3.3843 7.5591 -7.5591Z"/></g><g stroke-linejoin="miter" stroke-opacity="1.0" fill-opacity="0.7" stroke="rgb(0,0,0)" stroke-width="0.37795275590551186" fill="rgb(0,0,0)" stroke-linecap="butt" stroke-miterlimit="10.0"><path d="M 571.5339,283.6031 l -0.0000,-55.4457 c 0.0000,-4.1748 -3.3843,-7.5591 -7.5591 -7.5591h -55.4457 c -4.1748,-0.0000 -7.5591,3.3843 -7.5591 7.5591l -0.0000,55.4457 c -0.0000,4.1748 3.3843,7.5591 7.5591 7.5591h 55.4457 c 4.1748,-0.0000 7.5591,-3.3843 7.5591 -7.5591Z"/></g><defs><linearGradient x2="5.0000" y1="0.0000" gradientUnits="userSpaceOnUse" spreadMethod="pad" gradientTransform="matrix(3.7795,-0.0000,0.0000,-3.7795,536.2520,255.8803)" id="gradient28" y2="0.0000" x1="-5.0000"><stop stop-opacity="0.1000" offset="0.0000" stop-color="rgb(0,0,0)"/><stop stop-opacity="0.1000" offset="0.5000" stop-color="rgb(255,255,255)"/><stop stop-opacity="0.1000" offset="1.0000" stop-color="rgb(0,0,0)"/></linearGradient></defs><g stroke-linejoin="miter" stroke-opacity="1.0" fill-opacity="1" stroke="rgb(0,0,0)" stroke-width="0.37795275590551186" fill="url(#gradient28)" stroke-linecap="butt" stroke-miterlimit="10.0"><path d="M 560.7622,272.8315 l -0.0000,-33.9024 c 0.0000,-4.1748 -3.3843,-7.5591 -7.5591 -7.5591h -33.9024 c -4.1748,-0.0000 -7.5591,3.3843 -7.5591 7.5591l -0.0000,33.9024 c -0.0000,4.1748 3.3843,7.5591 7.5591 7.5591h 33.9024 c 4.1748,-0.0000 7.5591,-3.3843 7.5591 -7.5591Z"/></g><g stroke-linejoin="miter" stroke-opacity="1.0" fill-opacity="0.7" stroke="rgb(0,0,0)" stroke-width="0.37795275590551186" fill="rgb(0,0,0)" stroke-linecap="butt" stroke-miterlimit="10.0"><path d="M 571.5339,355.4142 l -0.0000,-55.4457 c 0.0000,-4.1748 -3.3843,-7.5591 -7.5591 -7.5591h -55.4457 c -4.1748,-0.0000 -7.5591,3.3843 -7.5591 7.5591l -0.0000,55.4457 c -0.0000,4.1748 3.3843,7.5591 7.5591 7.5591h 55.4457 c 4.1748,-0.0000 7.5591,-3.3843 7.5591 -7.5591Z"/></g><defs><linearGradient x2="5.0000" y1="0.0000" gradientUnits="userSpaceOnUse" spreadMethod="pad" gradientTransform="matrix(3.7795,-0.0000,0.0000,-3.7795,536.2520,327.6913)" id="gradient32" y2="0.0000" x1="-5.0000"><stop stop-opacity="0.1000" offset="0.0000" stop-color="rgb(0,0,0)"/><stop stop-opacity="0.1000" offset="0.5000" stop-color="rgb(255,255,255)"/><stop stop-opacity="0.1000" offset="1.0000" stop-color="rgb(0,0,0)"/></linearGradient></defs><g stroke-linejoin="miter" stroke-opacity="1.0" fill-opacity="1" stroke="rgb(0,0,0)" stroke-width="0.37795275590551186" fill="url(#gradient32)" stroke-linecap="butt" stroke-miterlimit="10.0"><path d="M 560.7622,344.6425 l -0.0000,-33.9024 c 0.0000,-4.1748 -3.3843,-7.5591 -7.5591 -7.5591h -33.9024 c -4.1748,-0.0000 -7.5591,3.3843 -7.5591 7.5591l -0.0000,33.9024 c -0.0000,4.1748 3.3843,7.5591 7.5591 7.5591h 33.9024 c 4.1748,-0.0000 7.5591,-3.3843 7.5591 -7.5591Z"/></g><g stroke-linejoin="miter" stroke-opacity="1.0" fill-opacity="0.7" stroke="rgb(0,0,0)" stroke-width="0.37795275590551186" fill="rgb(0,0,0)" stroke-linecap="butt" stroke-miterlimit="10.0"><path d="M 499.7228,136.2016 l -0.0000,-55.4457 c 0.0000,-4.1748 -3.3843,-7.5591 -7.5591 -7.5591h -55.4457 c -4.1748,-0.0000 -7.5591,3.3843 -7.5591 7.5591l -0.0000,55.4457 c -0.0000,4.1748 3.3843,7.5591 7.5591 7.5591h 55.4457 c 4.1748,-0.0000 7.5591,-3.3843 7.5591 -7.5591Z"/></g><defs><linearGradient x2="5.0000" y1="0.0000" gradientUnits="userSpaceOnUse" spreadMethod="pad" gradientTransform="matrix(3.7795,-0.0000,0.0000,-3.7795,464.4410,108.4787)" id="gradient36" y2="0.0000" x1="-5.0000"><stop stop-opacity="0.1000" offset="0.0000" stop-color="rgb(0,0,0)"/><stop stop-opacity="0.1000" offset="0.5000" stop-color="rgb(255,255,255)"/><stop stop-opacity="0.1000" offset="1.0000" stop-color="rgb(0,0,0)"/></linearGradient></defs><g stroke-linejoin="miter" stroke-opacity="1.0" fill-opacity="1" stroke="rgb(0,0,0)" stroke-width="0.37795275590551186" fill="url(#gradient36)" stroke-linecap="butt" stroke-miterlimit="10.0"><path d="M 488.9512,125.4299 l -0.0000,-33.9024 c 0.0000,-4.1748 -3.3843,-7.5591 -7.5591 -7.5591h -33.9024 c -4.1748,-0.0000 -7.5591,3.3843 -7.5591 7.5591l -0.0000,33.9024 c -0.0000,4.1748 3.3843,7.5591 7.5591 7.5591h 33.9024 c 4.1748,-0.0000 7.5591,-3.3843 7.5591 -7.5591Z"/></g><g stroke-linejoin="miter" stroke-opacity="1.0" fill-opacity="0.7" stroke="rgb(0,0,0)" stroke-width="0.37795275590551186" fill="rgb(0,0,0)" stroke-linecap="butt" stroke-miterlimit="10.0"><path d="M 499.7228,208.0126 l -0.0000,-55.4457 c 0.0000,-4.1748 -3.3843,-7.5591 -7.5591 -7.5591h -55.4457 c -4.1748,-0.0000 -7.5591,3.3843 -7.5591 7.5591l -0.0000,55.4457 c -0.0000,4.1748 3.3843,7.5591 7.5591 7.5591h 55.4457 c 4.1748,-0.0000 7.5591,-3.3843 7.5591 -7.5591Z"/></g><defs><linearGradient x2="5.0000" y1="0.0000" gradientUnits="userSpaceOnUse" spreadMethod="pad" gradientTransform="matrix(3.7795,-0.0000,0.0000,-3.7795,464.4410,180.2898)" id="gradient40" y2="0.0000" x1="-5.0000"><stop stop-opacity="0.1000" offset="0.0000" stop-color="rgb(0,0,0)"/><stop stop-opacity="0.1000" offset="0.5000" stop-color="rgb(255,255,255)"/><stop stop-opacity="0.1000" offset="1.0000" stop-color="rgb(0,0,0)"/></linearGradient></defs><g stroke-linejoin="miter" stroke-opacity="1.0" fill-opacity="1" stroke="rgb(0,0,0)" stroke-width="0.37795275590551186" fill="url(#gradient40)" stroke-linecap="butt" stroke-miterlimit="10.0"><path d="M 488.9512,197.2409 l -0.0000,-33.9024 c 0.0000,-4.1748 -3.3843,-7.5591 -7.5591 -7.5591h -33.9024 c -4.1748,-0.0000 -7.5591,3.3843 -7.5591 7.5591l -0.0000,33.9024 c -0.0000,4.1748 3.3843,7.5591 7.5591 7.5591h 33.9024 c 4.1748,-0.0000 7.5591,-3.3843 7.5591 -7.5591Z"/></g><g stroke-linejoin="miter" stroke-opacity="1.0" fill-opacity="0.7" stroke="rgb(0,0,0)" stroke-width="0.37795275590551186" fill="rgb(0,0,0)" stroke-linecap="butt" stroke-miterlimit="10.0"><path d="M 499.7228,279.8236 l -0.0000,-55.4457 c 0.0000,-4.1748 -3.3843,-7.5591 -7.5591 -7.5591h -55.4457 c -4.1748,-0.0000 -7.5591,3.3843 -7.5591 7.5591l -0.0000,55.4457 c -0.0000,4.1748 3.3843,7.5591 7.5591 7.5591h 55.4457 c 4.1748,-0.0000 7.5591,-3.3843 7.5591 -7.5591Z"/></g><defs><linearGradient x2="5.0000" y1="0.0000" gradientUnits="userSpaceOnUse" spreadMethod="pad" gradientTransform="matrix(3.7795,-0.0000,0.0000,-3.7795,464.4410,252.1008)" id="gradient44" y2="0.0000" x1="-5.0000"><stop stop-opacity="0.1000" offset="0.0000" stop-color="rgb(0,0,0)"/><stop stop-opacity="0.1000" offset="0.5000" stop-color="rgb(255,255,255)"/><stop stop-opacity="0.1000" offset="1.0000" stop-color="rgb(0,0,0)"/></linearGradient></defs><g stroke-linejoin="miter" stroke-opacity="1.0" fill-opacity="1" stroke="rgb(0,0,0)" stroke-width="0.37795275590551186" fill="url(#gradient44)" stroke-linecap="butt" stroke-miterlimit="10.0"><path d="M 488.9512,269.0520 l -0.0000,-33.9024 c 0.0000,-4.1748 -3.3843,-7.5591 -7.5591 -7.5591h -33.9024 c -4.1748,-0.0000 -7.5591,3.3843 -7.5591 7.5591l -0.0000,33.9024 c -0.0000,4.1748 3.3843,7.5591 7.5591 7.5591h 33.9024 c 4.1748,-0.0000 7.5591,-3.3843 7.5591 -7.5591Z"/></g><g stroke-linejoin="miter" stroke-opacity="1.0" fill-opacity="0.7" stroke="rgb(0,0,0)" stroke-width="0.37795275590551186" fill="rgb(0,0,0)" stroke-linecap="butt" stroke-miterlimit="10.0"><path d="M 499.7228,351.6346 l -0.0000,-55.4457 c 0.0000,-4.1748 -3.3843,-7.5591 -7.5591 -7.5591h -55.4457 c -4.1748,-0.0000 -7.5591,3.3843 -7.5591 7.5591l -0.0000,55.4457 c -0.0000,4.1748 3.3843,7.5591 7.5591 7.5591h 55.4457 c 4.1748,-0.0000 7.5591,-3.3843 7.5591 -7.5591Z"/></g><defs><linearGradient x2="5.0000" y1="0.0000" gradientUnits="userSpaceOnUse" spreadMethod="pad" gradientTransform="matrix(3.7795,-0.0000,0.0000,-3.7795,464.4410,323.9118)" id="gradient48" y2="0.0000" x1="-5.0000"><stop stop-opacity="0.1000" offset="0.0000" stop-color="rgb(0,0,0)"/><stop stop-opacity="0.1000" offset="0.5000" stop-color="rgb(255,255,255)"/><stop stop-opacity="0.1000" offset="1.0000" stop-color="rgb(0,0,0)"/></linearGradient></defs><g stroke-linejoin="miter" stroke-opacity="1.0" fill-opacity="1" stroke="rgb(0,0,0)" stroke-width="0.37795275590551186" fill="url(#gradient48)" stroke-linecap="butt" stroke-miterlimit="10.0"><path d="M 488.9512,340.8630 l -0.0000,-33.9024 c 0.0000,-4.1748 -3.3843,-7.5591 -7.5591 -7.5591h -33.9024 c -4.1748,-0.0000 -7.5591,3.3843 -7.5591 7.5591l -0.0000,33.9024 c -0.0000,4.1748 3.3843,7.5591 7.5591 7.5591h 33.9024 c 4.1748,-0.0000 7.5591,-3.3843 7.5591 -7.5591Z"/></g><g stroke-linejoin="miter" stroke-opacity="1.0" fill-opacity="0.7" stroke="rgb(0,0,0)" stroke-width="0.37795275590551186" fill="rgb(0,0,0)" stroke-linecap="butt" stroke-miterlimit="10.0"><path d="M 427.9118,124.8630 l -0.0000,-55.4457 c 0.0000,-4.1748 -3.3843,-7.5591 -7.5591 -7.5591h -55.4457 c -4.1748,-0.0000 -7.5591,3.3843 -7.5591 7.5591l -0.0000,55.4457 c -0.0000,4.1748 3.3843,7.5591 7.5591 7.5591h 55.4457 c 4.1748,-0.0000 7.5591,-3.3843 7.5591 -7.5591Z"/></g><defs><linearGradient x2="5.0000" y1="0.0000" gradientUnits="userSpaceOnUse" spreadMethod="pad" gradientTransform="matrix(3.7795,-0.0000,0.0000,-3.7795,392.6299,97.1401)" id="gradient52" y2="0.0000" x1="-5.0000"><stop stop-opacity="0.1000" offset="0.0000" stop-color="rgb(0,0,0)"/><stop stop-opacity="0.1000" offset="0.5000" stop-color="rgb(255,255,255)"/><stop stop-opacity="0.1000" offset="1.0000" stop-color="rgb(0,0,0)"/></linearGradient></defs><g stroke-linejoin="miter" stroke-opacity="1.0" fill-opacity="1" stroke="rgb(0,0,0)" stroke-width="0.37795275590551186" fill="url(#gradient52)" stroke-linecap="butt" stroke-miterlimit="10.0"><path d="M 417.1402,114.0913 l -0.0000,-33.9024 c 0.0000,-4.1748 -3.3843,-7.5591 -7.5591 -7.5591h -33.9024 c -4.1748,-0.0000 -7.5591,3.3843 -7.5591 7.5591l -0.0000,33.9024 c -0.0000,4.1748 3.3843,7.5591 7.5591 7.5591h 33.9024 c 4.1748,-0.0000 7.5591,-3.3843 7.5591 -7.5591Z"/></g><g stroke-linejoin="miter" stroke-opacity="1.0" fill-opacity="0.7" stroke="rgb(0,0,0)" stroke-width="0.37795275590551186" fill="rgb(0,0,0)" stroke-linecap="butt" stroke-miterlimit="10.0"><path d="M 427.9118,196.6740 l -0.0000,-55.4457 c 0.0000,-4.1748 -3.3843,-7.5591 -7.5591 -7.5591h -55.4457 c -4.1748,-0.0000 -7.5591,3.3843 -7.5591 7.5591l -0.0000,55.4457 c -0.0000,4.1748 3.3843,7.5591 7.5591 7.5591h 55.4457 c 4.1748,-0.0000 7.5591,-3.3843 7.5591 -7.5591Z"/></g><defs><linearGradient x2="5.0000" y1="0.0000" gradientUnits="userSpaceOnUse" spreadMethod="pad" gradientTransform="matrix(3.7795,-0.0000,0.0000,-3.7795,392.6299,168.9512)" id="gradient56" y2="0.0000" x1="-5.0000"><stop stop-opacity="0.1000" offset="0.0000" stop-color="rgb(0,0,0)"/><stop stop-opacity="0.1000" offset="0.5000" stop-color="rgb(255,255,255)"/><stop stop-opacity="0.1000" offset="1.0000" stop-color="rgb(0,0,0)"/></linearGradient></defs><g stroke-linejoin="miter" stroke-opacity="1.0" fill-opacity="1" stroke="rgb(0,0,0)" stroke-width="0.37795275590551186" fill="url(#gradient56)" stroke-linecap="butt" stroke-miterlimit="10.0"><path d="M 417.1402,185.9024 l -0.0000,-33.9024 c 0.0000,-4.1748 -3.3843,-7.5591 -7.5591 -7.5591h -33.9024 c -4.1748,-0.0000 -7.5591,3.3843 -7.5591 7.5591l -0.0000,33.9024 c -0.0000,4.1748 3.3843,7.5591 7.5591 7.5591h 33.9024 c 4.1748,-0.0000 7.5591,-3.3843 7.5591 -7.5591Z"/></g><g stroke-linejoin="miter" stroke-opacity="1.0" fill-opacity="0.7" stroke="rgb(0,0,0)" stroke-width="0.37795275590551186" fill="rgb(0,0,0)" stroke-linecap="butt" stroke-miterlimit="10.0"><path d="M 427.9118,268.4850 l -0.0000,-55.4457 c 0.0000,-4.1748 -3.3843,-7.5591 -7.5591 -7.5591h -55.4457 c -4.1748,-0.0000 -7.5591,3.3843 -7.5591 7.5591l -0.0000,55.4457 c -0.0000,4.1748 3.3843,7.5591 7.5591 7.5591h 55.4457 c 4.1748,-0.0000 7.5591,-3.3843 7.5591 -7.5591Z"/></g><defs><linearGradient x2="5.0000" y1="0.0000" gradientUnits="userSpaceOnUse" spreadMethod="pad" gradientTransform="matrix(3.7795,-0.0000,0.0000,-3.7795,392.6299,240.7622)" id="gradient60" y2="0.0000" x1="-5.0000"><stop stop-opacity="0.1000" offset="0.0000" stop-color="rgb(0,0,0)"/><stop stop-opacity="0.1000" offset="0.5000" stop-color="rgb(255,255,255)"/><stop stop-opacity="0.1000" offset="1.0000" stop-color="rgb(0,0,0)"/></linearGradient></defs><g stroke-linejoin="miter" stroke-opacity="1.0" fill-opacity="1" stroke="rgb(0,0,0)" stroke-width="0.37795275590551186" fill="url(#gradient60)" stroke-linecap="butt" stroke-miterlimit="10.0"><path d="M 417.1402,257.7134 l -0.0000,-33.9024 c 0.0000,-4.1748 -3.3843,-7.5591 -7.5591 -7.5591h -33.9024 c -4.1748,-0.0000 -7.5591,3.3843 -7.5591 7.5591l -0.0000,33.9024 c -0.0000,4.1748 3.3843,7.5591 7.5591 7.5591h 33.9024 c 4.1748,-0.0000 7.5591,-3.3843 7.5591 -7.5591Z"/></g><g stroke-linejoin="miter" stroke-opacity="1.0" fill-opacity="0.7" stroke="rgb(0,0,0)" stroke-width="0.37795275590551186" fill="rgb(0,0,0)" stroke-linecap="butt" stroke-miterlimit="10.0"><path d="M 427.9118,340.2961 l -0.0000,-55.4457 c 0.0000,-4.1748 -3.3843,-7.5591 -7.5591 -7.5591h -55.4457 c -4.1748,-0.0000 -7.5591,3.3843 -7.5591 7.5591l -0.0000,55.4457 c -0.0000,4.1748 3.3843,7.5591 7.5591 7.5591h 55.4457 c 4.1748,-0.0000 7.5591,-3.3843 7.5591 -7.5591Z"/></g><defs><linearGradient x2="5.0000" y1="0.0000" gradientUnits="userSpaceOnUse" spreadMethod="pad" gradientTransform="matrix(3.7795,-0.0000,0.0000,-3.7795,392.6299,312.5732)" id="gradient64" y2="0.0000" x1="-5.0000"><stop stop-opacity="0.1000" offset="0.0000" stop-color="rgb(0,0,0)"/><stop stop-opacity="0.1000" offset="0.5000" stop-color="rgb(255,255,255)"/><stop stop-opacity="0.1000" offset="1.0000" stop-color="rgb(0,0,0)"/></linearGradient></defs><g stroke-linejoin="miter" stroke-opacity="1.0" fill-opacity="1" stroke="rgb(0,0,0)" stroke-width="0.37795275590551186" fill="url(#gradient64)" stroke-linecap="butt" stroke-miterlimit="10.0"><path d="M 417.1402,329.5244 l -0.0000,-33.9024 c 0.0000,-4.1748 -3.3843,-7.5591 -7.5591 -7.5591h -33.9024 c -4.1748,-0.0000 -7.5591,3.3843 -7.5591 7.5591l -0.0000,33.9024 c -0.0000,4.1748 3.3843,7.5591 7.5591 7.5591h 33.9024 c 4.1748,-0.0000 7.5591,-3.3843 7.5591 -7.5591Z"/></g><g stroke-linejoin="miter" stroke-opacity="1.0" fill-opacity="0.7" stroke="rgb(0,0,0)" stroke-width="0.37795275590551186" fill="rgb(0,0,0)" stroke-linecap="butt" stroke-miterlimit="10.0"><path d="M 356.1008,105.9653 l -0.0000,-55.4457 c 0.0000,-4.1748 -3.3843,-7.5591 -7.5591 -7.5591h -55.4457 c -4.1748,-0.0000 -7.5591,3.3843 -7.5591 7.5591l -0.0000,55.4457 c -0.0000,4.1748 3.3843,7.5591 7.5591 7.5591h 55.4457 c 4.1748,-0.0000 7.5591,-3.3843 7.5591 -7.5591Z"/></g><defs><linearGradient x2="5.0000" y1="0.0000" gradientUnits="userSpaceOnUse" spreadMethod="pad" gradientTransform="matrix(3.7795,-0.0000,0.0000,-3.7795,320.8189,78.2425)" id="gradient68" y2="0.0000" x1="-5.0000"><stop stop-opacity="0.1000" offset="0.0000" stop-color="rgb(0,0,0)"/><stop stop-opacity="0.1000" offset="0.5000" stop-color="rgb(255,255,255)"/><stop stop-opacity="0.1000" offset="1.0000" stop-color="rgb(0,0,0)"/></linearGradient></defs><g stroke-linejoin="miter" stroke-opacity="1.0" fill-opacity="1" stroke="rgb(0,0,0)" stroke-width="0.37795275590551186" fill="url(#gradient68)" stroke-linecap="butt" stroke-miterlimit="10.0"><path d="M 345.3291,95.1937 l -0.0000,-33.9024 c 0.0000,-4.1748 -3.3843,-7.5591 -7.5591 -7.5591h -33.9024 c -4.1748,-0.0000 -7.5591,3.3843 -7.5591 7.5591l -0.0000,33.9024 c -0.0000,4.1748 3.3843,7.5591 7.5591 7.5591h 33.9024 c 4.1748,-0.0000 7.5591,-3.3843 7.5591 -7.5591Z"/></g><g stroke-linejoin="miter" stroke-opacity="1.0" fill-opacity="0.7" stroke="rgb(0,0,0)" stroke-width="0.37795275590551186" fill="rgb(0,0,0)" stroke-linecap="butt" stroke-miterlimit="10.0"><path d="M 356.1008,177.7764 l -0.0000,-55.4457 c 0.0000,-4.1748 -3.3843,-7.5591 -7.5591 -7.5591h -55.4457 c -4.1748,-0.0000 -7.5591,3.3843 -7.5591 7.5591l -0.0000,55.4457 c -0.0000,4.1748 3.3843,7.5591 7.5591 7.5591h 55.4457 c 4.1748,-0.0000 7.5591,-3.3843 7.5591 -7.5591Z"/></g><defs><linearGradient x2="5.0000" y1="0.0000" gradientUnits="userSpaceOnUse" spreadMethod="pad" gradientTransform="matrix(3.7795,-0.0000,0.0000,-3.7795,320.8189,150.0535)" id="gradient72" y2="0.0000" x1="-5.0000"><stop stop-opacity="0.1000" offset="0.0000" stop-color="rgb(0,0,0)"/><stop stop-opacity="0.1000" offset="0.5000" stop-color="rgb(255,255,255)"/><stop stop-opacity="0.1000" offset="1.0000" stop-color="rgb(0,0,0)"/></linearGradient></defs><g stroke-linejoin="miter" stroke-opacity="1.0" fill-opacity="1" stroke="rgb(0,0,0)" stroke-width="0.37795275590551186" fill="url(#gradient72)" stroke-linecap="butt" stroke-miterlimit="10.0"><path d="M 345.3291,167.0047 l -0.0000,-33.9024 c 0.0000,-4.1748 -3.3843,-7.5591 -7.5591 -7.5591h -33.9024 c -4.1748,-0.0000 -7.5591,3.3843 -7.5591 7.5591l -0.0000,33.9024 c -0.0000,4.1748 3.3843,7.5591 7.5591 7.5591h 33.9024 c 4.1748,-0.0000 7.5591,-3.3843 7.5591 -7.5591Z"/></g><g stroke-linejoin="miter" stroke-opacity="1.0" fill-opacity="0.7" stroke="rgb(0,0,0)" stroke-width="0.37795275590551186" fill="rgb(0,0,0)" stroke-linecap="butt" stroke-miterlimit="10.0"><path d="M 356.1008,249.5874 l -0.0000,-55.4457 c 0.0000,-4.1748 -3.3843,-7.5591 -7.5591 -7.5591h -55.4457 c -4.1748,-0.0000 -7.5591,3.3843 -7.5591 7.5591l -0.0000,55.4457 c -0.0000,4.1748 3.3843,7.5591 7.5591 7.5591h 55.4457 c 4.1748,-0.0000 7.5591,-3.3843 7.5591 -7.5591Z"/></g><defs><linearGradient x2="5.0000" y1="0.0000" gradientUnits="userSpaceOnUse" spreadMethod="pad" gradientTransform="matrix(3.7795,-0.0000,0.0000,-3.7795,320.8189,221.8646)" id="gradient76" y2="0.0000" x1="-5.0000"><stop stop-opacity="0.1000" offset="0.0000" stop-color="rgb(0,0,0)"/><stop stop-opacity="0.1000" offset="0.5000" stop-color="rgb(255,255,255)"/><stop stop-opacity="0.1000" offset="1.0000" stop-color="rgb(0,0,0)"/></linearGradient></defs><g stroke-linejoin="miter" stroke-opacity="1.0" fill-opacity="1" stroke="rgb(0,0,0)" stroke-width="0.37795275590551186" fill="url(#gradient76)" stroke-linecap="butt" stroke-miterlimit="10.0"><path d="M 345.3291,238.8157 l -0.0000,-33.9024 c 0.0000,-4.1748 -3.3843,-7.5591 -7.5591 -7.5591h -33.9024 c -4.1748,-0.0000 -7.5591,3.3843 -7.5591 7.5591l -0.0000,33.9024 c -0.0000,4.1748 3.3843,7.5591 7.5591 7.5591h 33.9024 c 4.1748,-0.0000 7.5591,-3.3843 7.5591 -7.5591Z"/></g><g stroke-linejoin="miter" stroke-opacity="1.0" fill-opacity="0.7" stroke="rgb(0,0,0)" stroke-width="0.37795275590551186" fill="rgb(0,0,0)" stroke-linecap="butt" stroke-miterlimit="10.0"><path d="M 356.1008,321.3984 l -0.0000,-55.4457 c 0.0000,-4.1748 -3.3843,-7.5591 -7.5591 -7.5591h -55.4457 c -4.1748,-0.0000 -7.5591,3.3843 -7.5591 7.5591l -0.0000,55.4457 c -0.0000,4.1748 3.3843,7.5591 7.5591 7.5591h 55.4457 c 4.1748,-0.0000 7.5591,-3.3843 7.5591 -7.5591Z"/></g><defs><linearGradient x2="5.0000" y1="0.0000" gradientUnits="userSpaceOnUse" spreadMethod="pad" gradientTransform="matrix(3.7795,-0.0000,0.0000,-3.7795,320.8189,293.6756)" id="gradient80" y2="0.0000" x1="-5.0000"><stop stop-opacity="0.1000" offset="0.0000" stop-color="rgb(0,0,0)"/><stop stop-opacity="0.1000" offset="0.5000" stop-color="rgb(255,255,255)"/><stop stop-opacity="0.1000" offset="1.0000" stop-color="rgb(0,0,0)"/></linearGradient></defs><g stroke-linejoin="miter" stroke-opacity="1.0" fill-opacity="1" stroke="rgb(0,0,0)" stroke-width="0.37795275590551186" fill="url(#gradient80)" stroke-linecap="butt" stroke-miterlimit="10.0"><path d="M 345.3291,310.6268 l -0.0000,-33.9024 c 0.0000,-4.1748 -3.3843,-7.5591 -7.5591 -7.5591h -33.9024 c -4.1748,-0.0000 -7.5591,3.3843 -7.5591 7.5591l -0.0000,33.9024 c -0.0000,4.1748 3.3843,7.5591 7.5591 7.5591h 33.9024 c 4.1748,-0.0000 7.5591,-3.3843 7.5591 -7.5591Z"/></g><g stroke-linejoin="miter" stroke-opacity="1.0" fill-opacity="0.7" stroke="rgb(0,0,0)" stroke-width="0.37795275590551186" fill="rgb(0,0,0)" stroke-linecap="butt" stroke-miterlimit="10.0"><path d="M 284.2898,128.6425 l -0.0000,-55.4457 c 0.0000,-4.1748 -3.3843,-7.5591 -7.5591 -7.5591h -55.4457 c -4.1748,-0.0000 -7.5591,3.3843 -7.5591 7.5591l -0.0000,55.4457 c -0.0000,4.1748 3.3843,7.5591 7.5591 7.5591h 55.4457 c 4.1748,-0.0000 7.5591,-3.3843 7.5591 -7.5591Z"/></g><defs><linearGradient x2="5.0000" y1="0.0000" gradientUnits="userSpaceOnUse" spreadMethod="pad" gradientTransform="matrix(3.7795,-0.0000,0.0000,-3.7795,249.0079,100.9197)" id="gradient84" y2="0.0000" x1="-5.0000"><stop stop-opacity="0.1000" offset="0.0000" stop-color="rgb(0,0,0)"/><stop stop-opacity="0.1000" offset="0.5000" stop-color="rgb(255,255,255)"/><stop stop-opacity="0.1000" offset="1.0000" stop-color="rgb(0,0,0)"/></linearGradient></defs><g stroke-linejoin="miter" stroke-opacity="1.0" fill-opacity="1" stroke="rgb(0,0,0)" stroke-width="0.37795275590551186" fill="url(#gradient84)" stroke-linecap="butt" stroke-miterlimit="10.0"><path d="M 273.5181,117.8709 l -0.0000,-33.9024 c 0.0000,-4.1748 -3.3843,-7.5591 -7.5591 -7.5591h -33.9024 c -4.1748,-0.0000 -7.5591,3.3843 -7.5591 7.5591l -0.0000,33.9024 c -0.0000,4.1748 3.3843,7.5591 7.5591 7.5591h 33.9024 c 4.1748,-0.0000 7.5591,-3.3843 7.5591 -7.5591Z"/></g><g stroke-linejoin="miter" stroke-opacity="1.0" fill-opacity="0.7" stroke="rgb(0,0,0)" stroke-width="0.37795275590551186" fill="rgb(0,0,0)" stroke-linecap="butt" stroke-miterlimit="10.0"><path d="M 284.2898,200.4535 l -0.0000,-55.4457 c 0.0000,-4.1748 -3.3843,-7.5591 -7.5591 -7.5591h -55.4457 c -4.1748,-0.0000 -7.5591,3.3843 -7.5591 7.5591l -0.0000,55.4457 c -0.0000,4.1748 3.3843,7.5591 7.5591 7.5591h 55.4457 c 4.1748,-0.0000 7.5591,-3.3843 7.5591 -7.5591Z"/></g><defs><linearGradient x2="5.0000" y1="0.0000" gradientUnits="userSpaceOnUse" spreadMethod="pad" gradientTransform="matrix(3.7795,-0.0000,0.0000,-3.7795,249.0079,172.7307)" id="gradient88" y2="0.0000" x1="-5.0000"><stop stop-opacity="0.1000" offset="0.0000" stop-color="rgb(0,0,0)"/><stop stop-opacity="0.1000" offset="0.5000" stop-color="rgb(255,255,255)"/><stop stop-opacity="0.1000" offset="1.0000" stop-color="rgb(0,0,0)"/></linearGradient></defs><g stroke-linejoin="miter" stroke-opacity="1.0" fill-opacity="1" stroke="rgb(0,0,0)" stroke-width="0.37795275590551186" fill="url(#gradient88)" stroke-linecap="butt" stroke-miterlimit="10.0"><path d="M 273.5181,189.6819 l -0.0000,-33.9024 c 0.0000,-4.1748 -3.3843,-7.5591 -7.5591 -7.5591h -33.9024 c -4.1748,-0.0000 -7.5591,3.3843 -7.5591 7.5591l -0.0000,33.9024 c -0.0000,4.1748 3.3843,7.5591 7.5591 7.5591h 33.9024 c 4.1748,-0.0000 7.5591,-3.3843 7.5591 -7.5591Z"/></g><g stroke-linejoin="miter" stroke-opacity="1.0" fill-opacity="0.7" stroke="rgb(0,0,0)" stroke-width="0.37795275590551186" fill="rgb(0,0,0)" stroke-linecap="butt" stroke-miterlimit="10.0"><path d="M 284.2898,272.2646 l -0.0000,-55.4457 c 0.0000,-4.1748 -3.3843,-7.5591 -7.5591 -7.5591h -55.4457 c -4.1748,-0.0000 -7.5591,3.3843 -7.5591 7.5591l -0.0000,55.4457 c -0.0000,4.1748 3.3843,7.5591 7.5591 7.5591h 55.4457 c 4.1748,-0.0000 7.5591,-3.3843 7.5591 -7.5591Z"/></g><defs><linearGradient x2="5.0000" y1="0.0000" gradientUnits="userSpaceOnUse" spreadMethod="pad" gradientTransform="matrix(3.7795,-0.0000,0.0000,-3.7795,249.0079,244.5417)" id="gradient92" y2="0.0000" x1="-5.0000"><stop stop-opacity="0.1000" offset="0.0000" stop-color="rgb(0,0,0)"/><stop stop-opacity="0.1000" offset="0.5000" stop-color="rgb(255,255,255)"/><stop stop-opacity="0.1000" offset="1.0000" stop-color="rgb(0,0,0)"/></linearGradient></defs><g stroke-linejoin="miter" stroke-opacity="1.0" fill-opacity="1" stroke="rgb(0,0,0)" stroke-width="0.37795275590551186" fill="url(#gradient92)" stroke-linecap="butt" stroke-miterlimit="10.0"><path d="M 273.5181,261.4929 l -0.0000,-33.9024 c 0.0000,-4.1748 -3.3843,-7.5591 -7.5591 -7.5591h -33.9024 c -4.1748,-0.0000 -7.5591,3.3843 -7.5591 7.5591l -0.0000,33.9024 c -0.0000,4.1748 3.3843,7.5591 7.5591 7.5591h 33.9024 c 4.1748,-0.0000 7.5591,-3.3843 7.5591 -7.5591Z"/></g><g stroke-linejoin="miter" stroke-opacity="1.0" fill-opacity="0.7" stroke="rgb(0,0,0)" stroke-width="0.37795275590551186" fill="rgb(0,0,0)" stroke-linecap="butt" stroke-miterlimit="10.0"><path d="M 284.2898,344.0756 l -0.0000,-55.4457 c 0.0000,-4.1748 -3.3843,-7.5591 -7.5591 -7.5591h -55.4457 c -4.1748,-0.0000 -7.5591,3.3843 -7.5591 7.5591l -0.0000,55.4457 c -0.0000,4.1748 3.3843,7.5591 7.5591 7.5591h 55.4457 c 4.1748,-0.0000 7.5591,-3.3843 7.5591 -7.5591Z"/></g><defs><linearGradient x2="5.0000" y1="0.0000" gradientUnits="userSpaceOnUse" spreadMethod="pad" gradientTransform="matrix(3.7795,-0.0000,0.0000,-3.7795,249.0079,316.3527)" id="gradient96" y2="0.0000" x1="-5.0000"><stop stop-opacity="0.1000" offset="0.0000" stop-color="rgb(0,0,0)"/><stop stop-opacity="0.1000" offset="0.5000" stop-color="rgb(255,255,255)"/><stop stop-opacity="0.1000" offset="1.0000" stop-color="rgb(0,0,0)"/></linearGradient></defs><g stroke-linejoin="miter" stroke-opacity="1.0" fill-opacity="1" stroke="rgb(0,0,0)" stroke-width="0.37795275590551186" fill="url(#gradient96)" stroke-linecap="butt" stroke-miterlimit="10.0"><path d="M 273.5181,333.3039 l -0.0000,-33.9024 c 0.0000,-4.1748 -3.3843,-7.5591 -7.5591 -7.5591h -33.9024 c -4.1748,-0.0000 -7.5591,3.3843 -7.5591 7.5591l -0.0000,33.9024 c -0.0000,4.1748 3.3843,7.5591 7.5591 7.5591h 33.9024 c 4.1748,-0.0000 7.5591,-3.3843 7.5591 -7.5591Z"/></g><g stroke-linejoin="miter" stroke-opacity="1.0" fill-opacity="0.7" stroke="rgb(0,0,0)" stroke-width="0.37795275590551186" fill="rgb(0,0,0)" stroke-linecap="butt" stroke-miterlimit="10.0"><path d="M 212.4787,147.5401 l -0.0000,-55.4457 c 0.0000,-4.1748 -3.3843,-7.5591 -7.5591 -7.5591h -55.4457 c -4.1748,-0.0000 -7.5591,3.3843 -7.5591 7.5591l -0.0000,55.4457 c -0.0000,4.1748 3.3843,7.5591 7.5591 7.5591h 55.4457 c 4.1748,-0.0000 7.5591,-3.3843 7.5591 -7.5591Z"/></g><defs><linearGradient x2="5.0000" y1="0.0000" gradientUnits="userSpaceOnUse" spreadMethod="pad" gradientTransform="matrix(3.7795,-0.0000,0.0000,-3.7795,177.1969,119.8173)" id="gradient100" y2="0.0000" x1="-5.0000"><stop stop-opacity="0.1000" offset="0.0000" stop-color="rgb(0,0,0)"/><stop stop-opacity="0.1000" offset="0.5000" stop-color="rgb(255,255,255)"/><stop stop-opacity="0.1000" offset="1.0000" stop-color="rgb(0,0,0)"/></linearGradient></defs><g stroke-linejoin="miter" stroke-opacity="1.0" fill-opacity="1" stroke="rgb(0,0,0)" stroke-width="0.37795275590551186" fill="url(#gradient100)" stroke-linecap="butt" stroke-miterlimit="10.0"><path d="M 201.7071,136.7685 l -0.0000,-33.9024 c 0.0000,-4.1748 -3.3843,-7.5591 -7.5591 -7.5591h -33.9024 c -4.1748,-0.0000 -7.5591,3.3843 -7.5591 7.5591l -0.0000,33.9024 c -0.0000,4.1748 3.3843,7.5591 7.5591 7.5591h 33.9024 c 4.1748,-0.0000 7.5591,-3.3843 7.5591 -7.5591Z"/></g><g stroke-linejoin="miter" stroke-opacity="1.0" fill-opacity="0.7" stroke="rgb(0,0,0)" stroke-width="0.37795275590551186" fill="rgb(0,0,0)" stroke-linecap="butt" stroke-miterlimit="10.0"><path d="M 212.4787,219.3512 l -0.0000,-55.4457 c 0.0000,-4.1748 -3.3843,-7.5591 -7.5591 -7.5591h -55.4457 c -4.1748,-0.0000 -7.5591,3.3843 -7.5591 7.5591l -0.0000,55.4457 c -0.0000,4.1748 3.3843,7.5591 7.5591 7.5591h 55.4457 c 4.1748,-0.0000 7.5591,-3.3843 7.5591 -7.5591Z"/></g><defs><linearGradient x2="5.0000" y1="0.0000" gradientUnits="userSpaceOnUse" spreadMethod="pad" gradientTransform="matrix(3.7795,-0.0000,0.0000,-3.7795,177.1969,191.6283)" id="gradient104" y2="0.0000" x1="-5.0000"><stop stop-opacity="0.1000" offset="0.0000" stop-color="rgb(0,0,0)"/><stop stop-opacity="0.1000" offset="0.5000" stop-color="rgb(255,255,255)"/><stop stop-opacity="0.1000" offset="1.0000" stop-color="rgb(0,0,0)"/></linearGradient></defs><g stroke-linejoin="miter" stroke-opacity="1.0" fill-opacity="1" stroke="rgb(0,0,0)" stroke-width="0.37795275590551186" fill="url(#gradient104)" stroke-linecap="butt" stroke-miterlimit="10.0"><path d="M 201.7071,208.5795 l -0.0000,-33.9024 c 0.0000,-4.1748 -3.3843,-7.5591 -7.5591 -7.5591h -33.9024 c -4.1748,-0.0000 -7.5591,3.3843 -7.5591 7.5591l -0.0000,33.9024 c -0.0000,4.1748 3.3843,7.5591 7.5591 7.5591h 33.9024 c 4.1748,-0.0000 7.5591,-3.3843 7.5591 -7.5591Z"/></g><g stroke-linejoin="miter" stroke-opacity="1.0" fill-opacity="0.7" stroke="rgb(0,0,0)" stroke-width="0.37795275590551186" fill="rgb(0,0,0)" stroke-linecap="butt" stroke-miterlimit="10.0"><path d="M 212.4787,291.1622 l -0.0000,-55.4457 c 0.0000,-4.1748 -3.3843,-7.5591 -7.5591 -7.5591h -55.4457 c -4.1748,-0.0000 -7.5591,3.3843 -7.5591 7.5591l -0.0000,55.4457 c -0.0000,4.1748 3.3843,7.5591 7.5591 7.5591h 55.4457 c 4.1748,-0.0000 7.5591,-3.3843 7.5591 -7.5591Z"/></g><defs><linearGradient x2="5.0000" y1="0.0000" gradientUnits="userSpaceOnUse" spreadMethod="pad" gradientTransform="matrix(3.7795,-0.0000,0.0000,-3.7795,177.1969,263.4394)" id="gradient108" y2="0.0000" x1="-5.0000"><stop stop-opacity="0.1000" offset="0.0000" stop-color="rgb(0,0,0)"/><stop stop-opacity="0.1000" offset="0.5000" stop-color="rgb(255,255,255)"/><stop stop-opacity="0.1000" offset="1.0000" stop-color="rgb(0,0,0)"/></linearGradient></defs><g stroke-linejoin="miter" stroke-opacity="1.0" fill-opacity="1" stroke="rgb(0,0,0)" stroke-width="0.37795275590551186" fill="url(#gradient108)" stroke-linecap="butt" stroke-miterlimit="10.0"><path d="M 201.7071,280.3905 l -0.0000,-33.9024 c 0.0000,-4.1748 -3.3843,-7.5591 -7.5591 -7.5591h -33.9024 c -4.1748,-0.0000 -7.5591,3.3843 -7.5591 7.5591l -0.0000,33.9024 c -0.0000,4.1748 3.3843,7.5591 7.5591 7.5591h 33.9024 c 4.1748,-0.0000 7.5591,-3.3843 7.5591 -7.5591Z"/></g><g stroke-linejoin="miter" stroke-opacity="1.0" fill-opacity="0.7" stroke="rgb(0,0,0)" stroke-width="0.37795275590551186" fill="rgb(0,0,0)" stroke-linecap="butt" stroke-miterlimit="10.0"><path d="M 212.4787,362.9732 l -0.0000,-55.4457 c 0.0000,-4.1748 -3.3843,-7.5591 -7.5591 -7.5591h -55.4457 c -4.1748,-0.0000 -7.5591,3.3843 -7.5591 7.5591l -0.0000,55.4457 c -0.0000,4.1748 3.3843,7.5591 7.5591 7.5591h 55.4457 c 4.1748,-0.0000 7.5591,-3.3843 7.5591 -7.5591Z"/></g><defs><linearGradient x2="5.0000" y1="0.0000" gradientUnits="userSpaceOnUse" spreadMethod="pad" gradientTransform="matrix(3.7795,-0.0000,0.0000,-3.7795,177.1969,335.2504)" id="gradient112" y2="0.0000" x1="-5.0000"><stop stop-opacity="0.1000" offset="0.0000" stop-color="rgb(0,0,0)"/><stop stop-opacity="0.1000" offset="0.5000" stop-color="rgb(255,255,255)"/><stop stop-opacity="0.1000" offset="1.0000" stop-color="rgb(0,0,0)"/></linearGradient></defs><g stroke-linejoin="miter" stroke-opacity="1.0" fill-opacity="1" stroke="rgb(0,0,0)" stroke-width="0.37795275590551186" fill="url(#gradient112)" stroke-linecap="butt" stroke-miterlimit="10.0"><path d="M 201.7071,352.2016 l -0.0000,-33.9024 c 0.0000,-4.1748 -3.3843,-7.5591 -7.5591 -7.5591h -33.9024 c -4.1748,-0.0000 -7.5591,3.3843 -7.5591 7.5591l -0.0000,33.9024 c -0.0000,4.1748 3.3843,7.5591 7.5591 7.5591h 33.9024 c 4.1748,-0.0000 7.5591,-3.3843 7.5591 -7.5591Z"/></g><g stroke-linejoin="miter" stroke-opacity="1.0" fill-opacity="0.5" stroke="rgb(0,0,0)" stroke-width="0.37795275590551186" fill="rgb(0,0,0)" stroke-linecap="butt" stroke-miterlimit="10.0"><path d="M 111.3866,34.5197 l 6.0008,-10.3937 l -6.0008,-10.3937 l -12.0016,-0.0000 l -6.0008,10.3937 l 6.0008,10.3937 Z"/></g><g stroke-linejoin="miter" stroke-opacity="1.0" fill-opacity="0.5" stroke="rgb(0,0,0)" stroke-width="0.37795275590551186" fill="rgb(0,0,0)" stroke-linecap="butt" stroke-miterlimit="10.0"><path d="M 596.9992,34.5197 l 6.0008,-10.3937 l -6.0008,-10.3937 l -12.0016,-0.0000 l -6.0008,10.3937 l 6.0008,10.3937 Z"/></g><g stroke-linejoin="miter" stroke-opacity="1.0" fill-opacity="0.5" stroke="rgb(0,0,0)" stroke-width="0.37795275590551186" fill="rgb(0,0,0)" stroke-linecap="butt" stroke-miterlimit="10.0"><path d="M 596.9992,378.3433 l 6.0008,-10.3937 l -6.0008,-10.3937 l -12.0016,-0.0000 l -6.0008,10.3937 l 6.0008,10.3937 Z"/></g><g stroke-linejoin="miter" stroke-opacity="1.0" fill-opacity="0.5" stroke="rgb(0,0,0)" stroke-width="0.37795275590551186" fill="rgb(0,0,0)" stroke-linecap="butt" stroke-miterlimit="10.0"><path d="M 111.3866,439.4457 l 6.0008,-10.3937 l -6.0008,-10.3937 l -12.0016,-0.0000 l -6.0008,10.3937 l 6.0008,10.3937 Z"/></g></svg>