<?xml version="1.0" encoding="UTF-8"?>
<!DOCTYPE svg PUBLIC "-//W3C//DTD SVG 1.1//EN"
    "http://www.w3.org/Graphics/SVG/1.1/DTD/svg11.dtd"><svg xmlns="http://www.w3.org/2000/svg" height="1152.4922" stroke-opacity="1" viewBox="0 0 844 1152" font-size="1" width="843.7426" xmlns:xlink="http://www.w3.org/1999/xlink" stroke="rgb(0,0,0)" version="1.1"><defs></defs><g stroke-linejoin="miter" stroke-opacity="1.0" fill-opacity="0.5" stroke="rgb(0,0,0)" stroke-width="0.37795275590551186" fill="rgb(0,0,0)" stroke-linecap="butt" stroke-miterlimit="10.0"><path d="M 3.9685,1026.2058 c 0.0000,-3.1884 0.4961,-6.4044 1.5635 -9.5946c 7.8831,-23.5602 15.7663,-47.1205 23.6494 -70.6807c 5.2697,-15.7496 22.5183,-24.3493 38.2678 -19.0796c 22.7000,7.5953 45.4001,15.1907 68.1001 22.7860c 0.8602,0.2878 1.7204,0.5757 2.5806 0.8635c 0.0015,0.0005 0.0030,0.0010 0.0045 0.0015c 21.8383,7.3070 43.6767,14.6140 65.5150 21.9210c 0.8602,0.2878 1.7204,0.5756 2.5807 0.8635c 21.8398,7.3075 43.6796,14.6150 65.5194 21.9225c 0.8602,0.2878 1.7204,0.5756 2.5806 0.8634c 0.0016,0.0005 0.0032,0.0011 0.0048 0.0016c 10.9183,3.6532 21.8366,7.3064 32.7549 10.9596c 1.9070,-0.0000 3.8139,-0.0000 5.7209 -0.0000c 7.4240,-10.9196 21.5466,-16.1178 34.6342 -11.7388c 11.6945,3.9129 23.3889,7.8258 35.0834 11.7388c 13.1143,-0.0000 26.2286,-0.0000 39.3429 -0.0000c 13.1143,-0.0000 26.2286,-0.0000 39.3429 -0.0000c 11.6945,-3.9129 23.3889,-7.8258 35.0834 -11.7388c 13.0875,-4.3790 27.2101,0.8192 34.6342 11.7388c 1.9070,-0.0000 3.8139,-0.0000 5.7209 -0.0000c 10.9183,-3.6532 21.8366,-7.3064 32.7549 -10.9596c 0.0016,-0.0005 0.0032,-0.0011 0.0048 -0.0016c 0.8602,-0.2878 1.7204,-0.5756 2.5806 -0.8634c 21.8398,-7.3075 43.6796,-14.6150 65.5194 -21.9225c 0.8602,-0.2878 1.7204,-0.5756 2.5807 -0.8635c 21.8383,-7.3070 43.6767,-14.6140 65.5150 -21.9210c 0.0015,-0.0005 0.0030,-0.0010 0.0045 -0.0015c 0.8602,-0.2878 1.7204,-0.5756 2.5806 -0.8635c 22.7000,-7.5953 45.4001,-15.1906 68.1001 -22.7860c 15.7496,-5.2697 32.9981,3.3301 38.2678 19.0796c 7.8832,23.5602 15.7663,47.1205 23.6494 70.6807c 1.0674,3.1902 1.5635,6.4062 1.5635 9.5946c 0.0000,12.6088 -8.0272,24.4520 -20.6431 28.6732c -22.7000,7.5953 -45.4001,15.1906 -68.1001 22.7860c -0.8602,0.2878 -1.7204,0.5756 -2.5806 0.8635c -0.0017,0.0006 -0.0034,0.0012 -0.0051 0.0017c -21.8381,7.3069 -43.6762,14.6139 -65.5143 21.9208c -0.8602,0.2878 -1.7204,0.5757 -2.5806 0.8635c -0.0011,0.0004 -0.0022,0.0007 -0.0033 0.0011c -21.8387,7.3071 -43.6774,14.6143 -65.5162 21.9214c -0.8603,0.2878 -1.7206,0.5757 -2.5808 0.8635c -10.9199,3.6537 -21.8397,7.3075 -32.7596 10.9612c -11.7802,3.9416 -23.5603,7.8832 -35.3405 11.8248c -13.1219,4.3905 -27.2842,-0.8465 -34.6924 -11.8248c -1.8019,-0.0000 -3.6037,-0.0000 -5.4056 -0.0000c -11.8658,3.9702 -23.7316,7.9405 -35.5974 11.9107c -13.1560,4.4019 -27.3580,-0.8739 -34.7502 -11.9107c -3.9443,-0.0000 -7.8886,-0.0000 -11.8329 -0.0000c -3.9443,-0.0000 -7.8886,-0.0000 -11.8329 -0.0000c -7.3922,11.0368 -21.5942,16.3127 -34.7502 11.9107c -11.8658,-3.9702 -23.7316,-7.9405 -35.5974 -11.9107c -1.8019,-0.0000 -3.6037,-0.0000 -5.4056 -0.0000c -7.4082,10.9783 -21.5705,16.2153 -34.6924 11.8248c -11.7802,-3.9416 -23.5603,-7.8832 -35.3405 -11.8248c -10.9199,-3.6537 -21.8397,-7.3075 -32.7596 -10.9612c -0.8603,-0.2878 -1.7206,-0.5757 -2.5808 -0.8635c -21.8387,-7.3071 -43.6774,-14.6143 -65.5162 -21.9214c -0.0011,-0.0004 -0.0022,-0.0007 -0.0033 -0.0011c -0.8602,-0.2878 -1.7204,-0.5757 -2.5806 -0.8635c -21.8381,-7.3069 -43.6762,-14.6139 -65.5143 -21.9208c -0.0017,-0.0006 -0.0034,-0.0012 -0.0051 -0.0017c -0.8602,-0.2878 -1.7204,-0.5756 -2.5806 -0.8635c -22.7000,-7.5953 -45.4001,-15.1906 -68.1001 -22.7860c -12.6159,-4.2213 -20.6431,-16.0644 -20.6431 -28.6732ZM 14.0986,1033.4039 c 0.0000,3.1311 2.5382,5.6693 5.6693 5.6693c 3.1311,-0.0000 5.6693,-2.5382 5.6693 -5.6693c 0.0000,-3.1311 -2.5382,-5.6693 -5.6693 -5.6693c -3.1311,-0.0000 -5.6693,2.5382 -5.6693 5.6693ZM 44.9874,941.0868 c 0.0000,3.1311 2.5382,5.6693 5.6693 5.6693c 3.1311,-0.0000 5.6693,-2.5382 5.6693 -5.6693c 0.0000,-3.1311 -2.5382,-5.6693 -5.6693 -5.6693c -3.1311,-0.0000 -5.6693,2.5382 -5.6693 5.6693ZM 310.7159,1132.6506 c 0.0000,3.1311 2.5382,5.6693 5.6693 5.6693c 3.1311,-0.0000 5.6693,-2.5382 5.6693 -5.6693c 0.0000,-3.1311 -2.5382,-5.6693 -5.6693 -5.6693c -3.1311,-0.0000 -5.6693,2.5382 -5.6693 5.6693ZM 387.8556,1020.9762 c 0.0000,3.1311 2.5382,5.6693 5.6693 5.6693c 3.1311,-0.0000 5.6693,-2.5382 5.6693 -5.6693c 0.0000,-3.1311 -2.5382,-5.6693 -5.6693 -5.6693c -3.1311,-0.0000 -5.6693,2.5382 -5.6693 5.6693ZM 444.5485,1020.9762 c 0.0000,3.1311 2.5382,5.6693 5.6693 5.6693c 3.1311,-0.0000 5.6693,-2.5382 5.6693 -5.6693c 0.0000,-3.1311 -2.5382,-5.6693 -5.6693 -5.6693c -3.1311,-0.0000 -5.6693,2.5382 -5.6693 5.6693ZM 521.6881,1132.6506 c 0.0000,3.1311 2.5382,5.6693 5.6693 5.6693c 3.1311,-0.0000 5.6693,-2.5382 5.6693 -5.6693c 0.0000,-3.1311 -2.5382,-5.6693 -5.6693 -5.6693c -3.1311,-0.0000 -5.6693,2.5382 -5.6693 5.6693ZM 787.4166,941.0868 c 0.0000,3.1311 2.5382,5.6693 5.6693 5.6693c 3.1311,-0.0000 5.6693,-2.5382 5.6693 -5.6693c 0.0000,-3.1311 -2.5382,-5.6693 -5.6693 -5.6693c -3.1311,-0.0000 -5.6693,2.5382 -5.6693 5.6693ZM 818.3054,1033.4039 c 0.0000,3.1311 2.5382,5.6693 5.6693 5.6693c 3.1311,-0.0000 5.6693,-2.5382 5.6693 -5.6693c 0.0000,-3.1311 -2.5382,-5.6693 -5.6693 -5.6693c -3.1311,-0.0000 -5.6693,2.5382 -5.6693 5.6693Z"/></g><g stroke-linejoin="miter" stroke-opacity="1.0" fill-opacity="0.5" stroke="rgb(0,0,0)" stroke-width="0.37795275590551186" fill="rgb(128,128,128)" stroke-linecap="butt" stroke-miterlimit="10.0"><path d="M 28.4696,800.0712 c 6.9284,-20.7069 13.8569,-41.4138 20.7853 -62.1207c 0.4621,0.0392 0.9296,0.0592 1.4019 0.0592c 5.8480,-0.0000 10.9801,-3.0650 13.8776 -7.6762c 21.2732,7.1179 42.5463,14.2358 63.8195 21.3537c 0.8602,0.2878 1.7204,0.5757 2.5806 0.8635c 0.0015,0.0005 0.0030,0.0010 0.0045 0.0015c 21.8383,7.3070 43.6767,14.6140 65.5150 21.9210c 0.8602,0.2878 1.7204,0.5756 2.5806 0.8635c 21.8398,7.3075 43.6796,14.6150 65.5195 21.9225c 0.8602,0.2878 1.7204,0.5756 2.5806 0.8635c 0.0016,0.0005 0.0032,0.0011 0.0048 0.0016c 10.9183,3.6532 21.8366,7.3064 32.7549 10.9596c 9.4854,-0.0000 18.9709,-0.0000 28.4563 -0.0000c 0.7773,-2.3230 1.5545,-4.6459 2.3318 -6.9689c 1.3205,-3.9467 5.6203,-6.0904 9.5670 -4.7699c 11.6945,3.9129 23.3890,7.8259 35.0835 11.7388c 1.2203,-0.0000 2.4405,-0.0000 3.6608 -0.0000c 2.7320,5.2387 8.2139,8.8153 14.5311 8.8153c 6.3172,-0.0000 11.7991,-3.5766 14.5311 -8.8153c 4.6051,-0.0000 9.2102,-0.0000 13.8153 -0.0000c 4.6051,-0.0000 9.2102,-0.0000 13.8153 -0.0000c 2.7321,5.2387 8.2139,8.8153 14.5311 8.8153c 6.3172,-0.0000 11.7991,-3.5766 14.5311 -8.8153c 1.2203,-0.0000 2.4405,-0.0000 3.6608 -0.0000c 11.6945,-3.9129 23.3890,-7.8259 35.0835 -11.7388c 3.9467,-1.3205 8.2464,0.8232 9.5670 4.7699c 0.7772,2.3230 1.5545,4.6459 2.3318 6.9689c 9.4854,-0.0000 18.9709,-0.0000 28.4563 -0.0000c 0.0000,-0.0000 0.0000,-0.0000 0.0000 -0.0000c 10.9183,-3.6532 21.8366,-7.3064 32.7549 -10.9596c 0.0016,-0.0005 0.0032,-0.0011 0.0048 -0.0016c 0.8602,-0.2878 1.7204,-0.5756 2.5806 -0.8635c 21.8398,-7.3075 43.6796,-14.6150 65.5195 -21.9225c 0.8602,-0.2878 1.7204,-0.5757 2.5806 -0.8635c 21.8383,-7.3070 43.6767,-14.6140 65.5150 -21.9210c 0.0015,-0.0005 0.0030,-0.0010 0.0045 -0.0015c 0.8602,-0.2878 1.7204,-0.5757 2.5806 -0.8635c 21.2732,-7.1179 42.5463,-14.2358 63.8195 -21.3537c 2.8975,4.6112 8.0296,7.6762 13.8776 7.6762c 0.4722,-0.0000 0.9398,-0.0200 1.4019 -0.0592c 6.9284,20.7069 13.8568,41.4138 20.7853 62.1207c -4.6112,2.8975 -7.6762,8.0296 -7.6762 13.8776c 0.0000,0.4722 0.0200,0.9398 0.0592 1.4018c -21.2736,7.1180 -42.5471,14.2361 -63.8206 21.3541c -0.8602,0.2878 -1.7204,0.5756 -2.5806 0.8635c -0.0017,0.0006 -0.0034,0.0011 -0.0051 0.0017c -21.8381,7.3069 -43.6762,14.6139 -65.5143 21.9208c -0.8602,0.2878 -1.7204,0.5756 -2.5806 0.8635c -0.0011,0.0004 -0.0022,0.0007 -0.0033 0.0011c -21.8387,7.3071 -43.6774,14.6143 -65.5161 21.9214c -0.8602,0.2878 -1.7204,0.5756 -2.5807 0.8635c -10.9199,3.6538 -21.8398,7.3075 -32.7597 10.9613c -10.3532,3.4641 -20.7065,6.9283 -31.0597 10.3924c -2.8975,-4.6112 -8.0296,-7.6762 -13.8776 -7.6762c -0.4722,-0.0000 -0.9398,0.0200 -1.4019 0.0592c -0.3095,-0.9251 -0.6191,-1.8503 -0.9286 -2.7754c -9.3902,-0.0000 -18.7805,-0.0000 -28.1707 -0.0000c -11.8658,3.9702 -23.7315,7.9404 -35.5972 11.9107c -3.9467,1.3205 -8.2464,-0.8233 -9.5670 -4.7699c -0.7964,-2.3803 -1.5928,-4.7605 -2.3893 -7.1408c -9.1438,-0.0000 -18.2876,-0.0000 -27.4314 -0.0000c -9.1438,-0.0000 -18.2876,-0.0000 -27.4314 -0.0000c -0.7964,2.3803 -1.5928,4.7605 -2.3893 7.1408c -1.3205,3.9466 -5.6203,6.0904 -9.5670 4.7699c -11.8657,-3.9702 -23.7315,-7.9405 -35.5972 -11.9107c -9.3902,-0.0000 -18.7805,-0.0000 -28.1707 -0.0000c -0.3095,0.9251 -0.6191,1.8503 -0.9286 2.7754c -0.4621,-0.0392 -0.9296,-0.0592 -1.4019 -0.0592c -5.8480,-0.0000 -10.9801,3.0650 -13.8776 7.6762c -10.3532,-3.4641 -20.7065,-6.9283 -31.0597 -10.3924c -10.9199,-3.6538 -21.8398,-7.3075 -32.7597 -10.9613c -0.8602,-0.2878 -1.7204,-0.5756 -2.5807 -0.8635c -21.8387,-7.3071 -43.6774,-14.6143 -65.5161 -21.9214c -0.0011,-0.0004 -0.0022,-0.0007 -0.0033 -0.0011c -0.8602,-0.2878 -1.7204,-0.5756 -2.5806 -0.8635c -21.8381,-7.3069 -43.6762,-14.6139 -65.5143 -21.9208c -0.0017,-0.0006 -0.0034,-0.0011 -0.0051 -0.0017c -0.8602,-0.2878 -1.7204,-0.5756 -2.5806 -0.8635c -21.2735,-7.1180 -42.5471,-14.2361 -63.8206 -21.3541c 0.0392,-0.4621 0.0592,-0.9296 0.0592 -1.4018c 0.0000,-5.8480 -3.0650,-10.9801 -7.6762 -13.8776Z"/></g><g stroke-linejoin="miter" stroke-opacity="1.0" fill-opacity="0.5" stroke="rgb(0,0,0)" stroke-width="0.37795275590551186" fill="rgb(255,255,0)" stroke-linecap="butt" stroke-miterlimit="10.0"><path d="M 3.9685,589.1180 c 0.0000,-3.1884 0.4961,-6.4044 1.5635 -9.5946c 7.8831,-23.5602 15.7663,-47.1205 23.6494 -70.6807c 5.2697,-15.7496 22.5183,-24.3493 38.2678 -19.0796c 22.7000,7.5953 45.4001,15.1907 68.1001 22.7860c 0.8602,0.2878 1.7204,0.5757 2.5806 0.8635c 0.0015,0.0005 0.0030,0.0010 0.0045 0.0015c 21.8383,7.3070 43.6767,14.6140 65.5150 21.9210c 0.8602,0.2878 1.7204,0.5756 2.5807 0.8635c 21.8398,7.3075 43.6796,14.6150 65.5194 21.9225c 0.8602,0.2878 1.7204,0.5756 2.5806 0.8634c 0.0016,0.0005 0.0032,0.0011 0.0048 0.0016c 10.9183,3.6532 21.8366,7.3064 32.7549 10.9596c 1.9070,-0.0000 3.8139,-0.0000 5.7209 -0.0000c 7.4240,-10.9196 21.5466,-16.1178 34.6342 -11.7388c 11.6945,3.9129 23.3889,7.8258 35.0834 11.7388c 13.1143,-0.0000 26.2286,-0.0000 39.3429 -0.0000c 13.1143,-0.0000 26.2286,-0.0000 39.3429 -0.0000c 11.6945,-3.9129 23.3889,-7.8258 35.0834 -11.7388c 13.0875,-4.3790 27.2101,0.8192 34.6342 11.7388c 1.9070,-0.0000 3.8139,-0.0000 5.7209 -0.0000c 10.9183,-3.6532 21.8366,-7.3064 32.7549 -10.9596c 0.0016,-0.0005 0.0032,-0.0011 0.0048 -0.0016c 0.8602,-0.2878 1.7204,-0.5756 2.5806 -0.8634c 21.8398,-7.3075 43.6796,-14.6150 65.5194 -21.9225c 0.8602,-0.2878 1.7204,-0.5756 2.5807 -0.8635c 21.8383,-7.3070 43.6767,-14.6140 65.5150 -21.9210c 0.0015,-0.0005 0.0030,-0.0010 0.0045 -0.0015c 0.8602,-0.2878 1.7204,-0.5756 2.5806 -0.8635c 22.7000,-7.5953 45.4001,-15.1906 68.1001 -22.7860c 15.7496,-5.2697 32.9981,3.3301 38.2678 19.0796c 7.8832,23.5602 15.7663,47.1205 23.6494 70.6807c 1.0674,3.1902 1.5635,6.4062 1.5635 9.5946c 0.0000,12.6088 -8.0272,24.4520 -20.6431 28.6732c -22.7000,7.5953 -45.4001,15.1906 -68.1001 22.7860c -0.8602,0.2878 -1.7204,0.5756 -2.5806 0.8635c -0.0017,0.0006 -0.0034,0.0012 -0.0051 0.0017c -21.8381,7.3069 -43.6762,14.6139 -65.5143 21.9208c -0.8602,0.2878 -1.7204,0.5757 -2.5806 0.8635c -0.0011,0.0004 -0.0022,0.0007 -0.0033 0.0011c -21.8387,7.3071 -43.6774,14.6143 -65.5162 21.9214c -0.8603,0.2878 -1.7206,0.5757 -2.5808 0.8635c -10.9199,3.6537 -21.8397,7.3075 -32.7596 10.9612c -11.7802,3.9416 -23.5603,7.8832 -35.3405 11.8248c -13.1219,4.3905 -27.2842,-0.8465 -34.6924 -11.8248c -1.8019,-0.0000 -3.6037,-0.0000 -5.4056 -0.0000c -11.8658,3.9702 -23.7316,7.9405 -35.5974 11.9107c -13.1560,4.4019 -27.3580,-0.8739 -34.7502 -11.9107c -3.9443,-0.0000 -7.8886,-0.0000 -11.8329 -0.0000c -3.9443,-0.0000 -7.8886,-0.0000 -11.8329 -0.0000c -7.3922,11.0368 -21.5942,16.3127 -34.7502 11.9107c -11.8658,-3.9702 -23.7316,-7.9405 -35.5974 -11.9107c -1.8019,-0.0000 -3.6037,-0.0000 -5.4056 -0.0000c -7.4082,10.9783 -21.5705,16.2153 -34.6924 11.8248c -11.7802,-3.9416 -23.5603,-7.8832 -35.3405 -11.8248c -10.9199,-3.6537 -21.8397,-7.3075 -32.7596 -10.9612c -0.8603,-0.2878 -1.7206,-0.5757 -2.5808 -0.8635c -21.8387,-7.3071 -43.6774,-14.6143 -65.5162 -21.9214c -0.0011,-0.0004 -0.0022,-0.0007 -0.0033 -0.0011c -0.8602,-0.2878 -1.7204,-0.5757 -2.5806 -0.8635c -21.8381,-7.3069 -43.6762,-14.6139 -65.5143 -21.9208c -0.0017,-0.0006 -0.0034,-0.0012 -0.0051 -0.0017c -0.8602,-0.2878 -1.7204,-0.5756 -2.5806 -0.8635c -22.7000,-7.5953 -45.4001,-15.1906 -68.1001 -22.7860c -12.6159,-4.2213 -20.6431,-16.0644 -20.6431 -28.6732ZM 28.4696,582.4384 c 4.6112,2.8975 7.6762,8.0296 7.6762 13.8776c 0.0000,0.4722 -0.0200,0.9398 -0.0592 1.4018c 21.2736,7.1180 42.5471,14.2361 63.8207 21.3541c 0.8602,0.2878 1.7204,0.5756 2.5806 0.8635c 0.0017,0.0006 0.0034,0.0011 0.0051 0.0017c 21.8381,7.3069 43.6762,14.6139 65.5143 21.9208c 0.8602,0.2878 1.7204,0.5756 2.5806 0.8635c 0.0011,0.0004 0.0022,0.0007 0.0033 0.0011c 21.8387,7.3071 43.6774,14.6143 65.5161 21.9214c 0.8602,0.2878 1.7204,0.5756 2.5807 0.8635c 10.9199,3.6538 21.8398,7.3075 32.7597 10.9613c 10.3532,3.4641 20.7065,6.9283 31.0597 10.3924c 2.8975,-4.6112 8.0296,-7.6762 13.8776 -7.6762c 0.4722,-0.0000 0.9398,0.0200 1.4019 0.0592c 0.3095,-0.9251 0.6191,-1.8503 0.9286 -2.7754c 9.3902,-0.0000 18.7805,-0.0000 28.1707 -0.0000c 11.8658,3.9702 23.7315,7.9404 35.5972 11.9107c 3.9467,1.3205 8.2464,-0.8233 9.5670 -4.7699c 0.7964,-2.3803 1.5928,-4.7605 2.3893 -7.1408c 9.1438,-0.0000 18.2876,-0.0000 27.4314 -0.0000c 9.1438,-0.0000 18.2876,-0.0000 27.4314 -0.0000c 0.7964,2.3803 1.5928,4.7605 2.3893 7.1408c 1.3205,3.9466 5.6203,6.0904 9.5670 4.7699c 11.8657,-3.9702 23.7315,-7.9405 35.5972 -11.9107c 9.3902,-0.0000 18.7805,-0.0000 28.1707 -0.0000c 0.3095,0.9251 0.6191,1.8503 0.9286 2.7754c 0.4621,-0.0392 0.9296,-0.0592 1.4019 -0.0592c 5.8480,-0.0000 10.9801,3.0650 13.8776 7.6762c 10.3532,-3.4641 20.7065,-6.9283 31.0597 -10.3924c 10.9199,-3.6538 21.8398,-7.3075 32.7597 -10.9613c 0.8602,-0.2878 1.7204,-0.5756 2.5807 -0.8635c 21.8387,-7.3071 43.6774,-14.6143 65.5161 -21.9214c 0.0011,-0.0004 0.0022,-0.0007 0.0033 -0.0011c 0.8602,-0.2878 1.7204,-0.5756 2.5806 -0.8635c 21.8381,-7.3069 43.6762,-14.6139 65.5143 -21.9208c 0.0017,-0.0006 0.0034,-0.0011 0.0051 -0.0017c 0.8602,-0.2878 1.7204,-0.5756 2.5806 -0.8635c 21.2735,-7.1180 42.5471,-14.2361 63.8207 -21.3541c -0.0392,-0.4621 -0.0592,-0.9296 -0.0592 -1.4018c 0.0000,-5.8480 3.0650,-10.9801 7.6762 -13.8776c -6.9284,-20.7069 -13.8569,-41.4138 -20.7853 -62.1207c -0.4621,0.0392 -0.9296,0.0592 -1.4019 0.0592c -5.8480,-0.0000 -10.9801,-3.0650 -13.8776 -7.6762c -21.2732,7.1179 -42.5463,14.2358 -63.8195 21.3537c -0.8602,0.2878 -1.7204,0.5757 -2.5806 0.8635c -0.0015,0.0005 -0.0030,0.0010 -0.0045 0.0015c -21.8383,7.3070 -43.6767,14.6140 -65.5150 21.9210c -0.8602,0.2878 -1.7204,0.5756 -2.5806 0.8635c -21.8398,7.3075 -43.6796,14.6150 -65.5195 21.9225c -0.8602,0.2878 -1.7204,0.5756 -2.5806 0.8635c -0.0016,0.0005 -0.0032,0.0011 -0.0048 0.0016c -10.9183,3.6532 -21.8366,7.3064 -32.7549 10.9596c 0.0000,-0.0000 -0.0000,-0.0000 -0.0000 -0.0000c -9.4855,-0.0000 -18.9709,-0.0000 -28.4563 -0.0000c -0.7773,-2.3230 -1.5545,-4.6459 -2.3318 -6.9689c -1.3205,-3.9467 -5.6203,-6.0904 -9.5670 -4.7699c -11.6945,3.9129 -23.3890,7.8259 -35.0835 11.7388c -1.2203,-0.0000 -2.4405,-0.0000 -3.6608 -0.0000c -2.7320,5.2387 -8.2139,8.8153 -14.5311 8.8153c -6.3172,-0.0000 -11.7991,-3.5766 -14.5311 -8.8153c -4.6051,-0.0000 -9.2102,-0.0000 -13.8153 -0.0000c -4.6051,-0.0000 -9.2102,-0.0000 -13.8153 -0.0000c -2.7321,5.2387 -8.2139,8.8153 -14.5311 8.8153c -6.3172,-0.0000 -11.7991,-3.5766 -14.5311 -8.8153c -1.2203,-0.0000 -2.4405,-0.0000 -3.6608 -0.0000c -11.6945,-3.9129 -23.3890,-7.8259 -35.0835 -11.7388c -3.9467,-1.3205 -8.2464,0.8232 -9.5670 4.7699c -0.7772,2.3230 -1.5545,4.6459 -2.3318 6.9689c -9.4854,-0.0000 -18.9709,-0.0000 -28.4563 -0.0000c -10.9183,-3.6532 -21.8366,-7.3064 -32.7549 -10.9596c -0.0016,-0.0005 -0.0032,-0.0011 -0.0048 -0.0016c -0.8602,-0.2878 -1.7204,-0.5756 -2.5806 -0.8635c -21.8398,-7.3075 -43.6796,-14.6150 -65.5195 -21.9225c -0.8602,-0.2878 -1.7204,-0.5757 -2.5806 -0.8635c -21.8383,-7.3070 -43.6767,-14.6140 -65.5150 -21.9210c -0.0015,-0.0005 -0.0030,-0.0010 -0.0045 -0.0015c -0.8602,-0.2878 -1.7204,-0.5757 -2.5806 -0.8635c -21.2732,-7.1179 -42.5463,-14.2358 -63.8195 -21.3537c -2.8975,4.6112 -8.0296,7.6762 -13.8776 7.6762c -0.4722,-0.0000 -0.9398,-0.0200 -1.4019 -0.0592c -6.9284,20.7069 -13.8568,41.4138 -20.7853 62.1207ZM 14.0986,596.3160 c 0.0000,3.1311 2.5382,5.6693 5.6693 5.6693c 3.1311,-0.0000 5.6693,-2.5382 5.6693 -5.6693c 0.0000,-3.1311 -2.5382,-5.6693 -5.6693 -5.6693c -3.1311,-0.0000 -5.6693,2.5382 -5.6693 5.6693ZM 44.9874,503.9990 c 0.0000,3.1311 2.5382,5.6693 5.6693 5.6693c 3.1311,-0.0000 5.6693,-2.5382 5.6693 -5.6693c 0.0000,-3.1311 -2.5382,-5.6693 -5.6693 -5.6693c -3.1311,-0.0000 -5.6693,2.5382 -5.6693 5.6693ZM 310.7159,695.5628 c 0.0000,3.1311 2.5382,5.6693 5.6693 5.6693c 3.1311,-0.0000 5.6693,-2.5382 5.6693 -5.6693c 0.0000,-3.1311 -2.5382,-5.6693 -5.6693 -5.6693c -3.1311,-0.0000 -5.6693,2.5382 -5.6693 5.6693ZM 387.8556,583.8884 c 0.0000,3.1311 2.5382,5.6693 5.6693 5.6693c 3.1311,-0.0000 5.6693,-2.5382 5.6693 -5.6693c 0.0000,-3.1311 -2.5382,-5.6693 -5.6693 -5.6693c -3.1311,-0.0000 -5.6693,2.5382 -5.6693 5.6693ZM 444.5485,583.8884 c 0.0000,3.1311 2.5382,5.6693 5.6693 5.6693c 3.1311,-0.0000 5.6693,-2.5382 5.6693 -5.6693c 0.0000,-3.1311 -2.5382,-5.6693 -5.6693 -5.6693c -3.1311,-0.0000 -5.6693,2.5382 -5.6693 5.6693ZM 521.6881,695.5628 c 0.0000,3.1311 2.5382,5.6693 5.6693 5.6693c 3.1311,-0.0000 5.6693,-2.5382 5.6693 -5.6693c 0.0000,-3.1311 -2.5382,-5.6693 -5.6693 -5.6693c -3.1311,-0.0000 -5.6693,2.5382 -5.6693 5.6693ZM 787.4166,503.9990 c 0.0000,3.1311 2.5382,5.6693 5.6693 5.6693c 3.1311,-0.0000 5.6693,-2.5382 5.6693 -5.6693c 0.0000,-3.1311 -2.5382,-5.6693 -5.6693 -5.6693c -3.1311,-0.0000 -5.6693,2.5382 -5.6693 5.6693ZM 818.3054,596.3160 c 0.0000,3.1311 2.5382,5.6693 5.6693 5.6693c 3.1311,-0.0000 5.6693,-2.5382 5.6693 -5.6693c 0.0000,-3.1311 -2.5382,-5.6693 -5.6693 -5.6693c -3.1311,-0.0000 -5.6693,2.5382 -5.6693 5.6693Z"/></g><g stroke-linejoin="miter" stroke-opacity="1.0" fill-opacity="0.5" stroke="rgb(0,0,0)" stroke-width="0.37795275590551186" fill="rgb(0,0,0)" stroke-linecap="butt" stroke-miterlimit="10.0"><path d="M 3.9685,346.9963 c 0.0000,-3.1884 0.4961,-6.4044 1.5635 -9.5946c 7.8831,-23.5602 15.7663,-47.1205 23.6494 -70.6807c 5.2697,-15.7496 22.5183,-24.3493 38.2678 -19.0796c 22.7000,7.5953 45.4001,15.1907 68.1001 22.7860c 0.8602,0.2878 1.7204,0.5757 2.5806 0.8635c 0.0015,0.0005 0.0030,0.0010 0.0045 0.0015c 21.8383,7.3070 43.6767,14.6140 65.5150 21.9210c 0.8602,0.2878 1.7204,0.5756 2.5807 0.8635c 21.8398,7.3075 43.6796,14.6150 65.5194 21.9225c 0.8602,0.2878 1.7204,0.5756 2.5806 0.8634c 0.0016,0.0005 0.0032,0.0011 0.0048 0.0016c 10.9183,3.6532 21.8366,7.3064 32.7549 10.9596c 1.9070,-0.0000 3.8139,-0.0000 5.7209 -0.0000c 7.4240,-10.9196 21.5466,-16.1178 34.6342 -11.7388c 11.6945,3.9129 23.3889,7.8258 35.0834 11.7388c 13.1143,-0.0000 26.2286,-0.0000 39.3429 -0.0000c 13.1143,-0.0000 26.2286,-0.0000 39.3429 -0.0000c 11.6945,-3.9129 23.3889,-7.8258 35.0834 -11.7388c 13.0875,-4.3790 27.2101,0.8192 34.6342 11.7388c 1.9070,-0.0000 3.8139,-0.0000 5.7209 -0.0000c 10.9183,-3.6532 21.8366,-7.3064 32.7549 -10.9596c 0.0016,-0.0005 0.0032,-0.0011 0.0048 -0.0016c 0.8602,-0.2878 1.7204,-0.5756 2.5806 -0.8634c 21.8398,-7.3075 43.6796,-14.6150 65.5194 -21.9225c 0.8602,-0.2878 1.7204,-0.5756 2.5807 -0.8635c 21.8383,-7.3070 43.6767,-14.6140 65.5150 -21.9210c 0.0015,-0.0005 0.0030,-0.0010 0.0045 -0.0015c 0.8602,-0.2878 1.7204,-0.5756 2.5806 -0.8635c 22.7000,-7.5953 45.4001,-15.1906 68.1001 -22.7860c 15.7496,-5.2697 32.9981,3.3301 38.2678 19.0796c 7.8832,23.5602 15.7663,47.1205 23.6494 70.6807c 1.0674,3.1902 1.5635,6.4062 1.5635 9.5946c 0.0000,12.6088 -8.0272,24.4520 -20.6431 28.6732c -22.7000,7.5953 -45.4001,15.1906 -68.1001 22.7860c -0.8602,0.2878 -1.7204,0.5756 -2.5806 0.8635c -0.0017,0.0006 -0.0034,0.0012 -0.0051 0.0017c -21.8381,7.3069 -43.6762,14.6139 -65.5143 21.9208c -0.8602,0.2878 -1.7204,0.5757 -2.5806 0.8635c -0.0011,0.0004 -0.0022,0.0007 -0.0033 0.0011c -21.8387,7.3071 -43.6774,14.6143 -65.5162 21.9214c -0.8603,0.2878 -1.7206,0.5757 -2.5808 0.8635c -10.9199,3.6537 -21.8397,7.3075 -32.7596 10.9612c -11.7802,3.9416 -23.5603,7.8832 -35.3405 11.8248c -13.1219,4.3905 -27.2842,-0.8465 -34.6924 -11.8248c -1.8019,-0.0000 -3.6037,-0.0000 -5.4056 -0.0000c -11.8658,3.9702 -23.7316,7.9405 -35.5974 11.9107c -13.1560,4.4019 -27.3580,-0.8739 -34.7502 -11.9107c -3.9443,-0.0000 -7.8886,-0.0000 -11.8329 -0.0000c -3.9443,-0.0000 -7.8886,-0.0000 -11.8329 -0.0000c -7.3922,11.0368 -21.5942,16.3127 -34.7502 11.9107c -11.8658,-3.9702 -23.7316,-7.9405 -35.5974 -11.9107c -1.8019,-0.0000 -3.6037,-0.0000 -5.4056 -0.0000c -7.4082,10.9783 -21.5705,16.2153 -34.6924 11.8248c -11.7802,-3.9416 -23.5603,-7.8832 -35.3405 -11.8248c -10.9199,-3.6537 -21.8397,-7.3075 -32.7596 -10.9612c -0.8603,-0.2878 -1.7206,-0.5757 -2.5808 -0.8635c -21.8387,-7.3071 -43.6774,-14.6143 -65.5162 -21.9214c -0.0011,-0.0004 -0.0022,-0.0007 -0.0033 -0.0011c -0.8602,-0.2878 -1.7204,-0.5757 -2.5806 -0.8635c -21.8381,-7.3069 -43.6762,-14.6139 -65.5143 -21.9208c -0.0017,-0.0006 -0.0034,-0.0012 -0.0051 -0.0017c -0.8602,-0.2878 -1.7204,-0.5756 -2.5806 -0.8635c -22.7000,-7.5953 -45.4001,-15.1906 -68.1001 -22.7860c -12.6159,-4.2213 -20.6431,-16.0644 -20.6431 -28.6732ZM 46.2208,335.6503 c 0.9711,0.3249 1.9422,0.6498 2.9132 0.9748c -0.3919,1.1714 -0.7839,2.3428 -1.1758 3.5141c 16.6905,5.5846 33.3810,11.1691 50.0715 16.7537c 0.3919,-1.1714 0.7839,-2.3428 1.1758 -3.5141c 0.9711,0.3249 1.9422,0.6498 2.9133 0.9748c 1.3992,-4.1817 2.7984,-8.3634 4.1975 -12.5451c -0.9711,-0.3249 -1.9422,-0.6498 -2.9133 -0.9748c 2.0023,-5.9843 4.0047,-11.9687 6.0070 -17.9530c 0.9711,0.3249 1.9422,0.6498 2.9133 0.9748c 1.3992,-4.1817 2.7984,-8.3634 4.1975 -12.5451c -0.9711,-0.3249 -1.9422,-0.6498 -2.9133 -0.9748c 0.3919,-1.1714 0.7839,-2.3428 1.1758 -3.5141c -16.6905,-5.5846 -33.3810,-11.1691 -50.0715 -16.7537c -0.3919,1.1714 -0.7839,2.3428 -1.1758 3.5141c -0.9711,-0.3249 -1.9422,-0.6498 -2.9132 -0.9748c -1.3992,4.1817 -2.7984,8.3634 -4.1975 12.5451c 0.9711,0.3249 1.9422,0.6498 2.9133 0.9748c -2.0023,5.9843 -4.0047,11.9686 -6.0070 17.9530c -0.9711,-0.3249 -1.9422,-0.6498 -2.9132 -0.9748c -1.3992,4.1817 -2.7984,8.3634 -4.1975 12.5451ZM 114.3209,358.4362 c 0.9711,0.3249 1.9422,0.6498 2.9133 0.9748c -0.3919,1.1714 -0.7839,2.3428 -1.1758 3.5141c 16.6905,5.5846 33.3810,11.1691 50.0715 16.7537c 0.3919,-1.1714 0.7839,-2.3428 1.1758 -3.5141c 0.9711,0.3249 1.9422,0.6498 2.9133 0.9748c 1.3992,-4.1817 2.7984,-8.3634 4.1975 -12.5451c -0.9711,-0.3249 -1.9422,-0.6498 -2.9133 -0.9748c 2.0023,-5.9843 4.0047,-11.9687 6.0070 -17.9530c 0.9711,0.3249 1.9422,0.6498 2.9132 0.9748c 1.3992,-4.1817 2.7984,-8.3634 4.1975 -12.5451c -0.9711,-0.3249 -1.9422,-0.6498 -2.9133 -0.9748c 0.3919,-1.1714 0.7839,-2.3428 1.1758 -3.5142c -16.6905,-5.5846 -33.3810,-11.1691 -50.0715 -16.7537c -0.3919,1.1714 -0.7839,2.3428 -1.1758 3.5142c -0.9711,-0.3249 -1.9422,-0.6498 -2.9133 -0.9748c -1.3992,4.1817 -2.7984,8.3634 -4.1975 12.5451c 0.9711,0.3249 1.9422,0.6498 2.9133 0.9748c -2.0023,5.9843 -4.0047,11.9687 -6.0070 17.9530c -0.9711,-0.3249 -1.9422,-0.6498 -2.9133 -0.9748c -1.3992,4.1817 -2.7984,8.3634 -4.1975 12.5451ZM 182.4210,381.2222 c 0.9711,0.3249 1.9422,0.6498 2.9133 0.9748c -0.3919,1.1714 -0.7839,2.3428 -1.1758 3.5141c 16.6905,5.5846 33.3810,11.1691 50.0715 16.7537c 0.3919,-1.1714 0.7839,-2.3428 1.1758 -3.5141c 0.9711,0.3249 1.9422,0.6498 2.9133 0.9748c 1.3992,-4.1817 2.7984,-8.3634 4.1975 -12.5451c -0.9711,-0.3249 -1.9422,-0.6498 -2.9133 -0.9748c 2.0023,-5.9843 4.0047,-11.9687 6.0070 -17.9530c 0.9711,0.3249 1.9422,0.6498 2.9133 0.9748c 1.3992,-4.1817 2.7984,-8.3634 4.1975 -12.5451c -0.9711,-0.3249 -1.9422,-0.6498 -2.9133 -0.9748c 0.3919,-1.1714 0.7839,-2.3428 1.1758 -3.5141c -16.6905,-5.5846 -33.3810,-11.1691 -50.0715 -16.7537c -0.3919,1.1714 -0.7839,2.3428 -1.1758 3.5141c -0.9711,-0.3249 -1.9422,-0.6498 -2.9133 -0.9748c -1.3992,4.1817 -2.7984,8.3634 -4.1975 12.5451c 0.9711,0.3249 1.9422,0.6498 2.9132 0.9748c -2.0023,5.9843 -4.0046,11.9687 -6.0070 17.9530c -0.9711,-0.3249 -1.9422,-0.6498 -2.9133 -0.9748c -1.3992,4.1817 -2.7984,8.3634 -4.1975 12.5451ZM 250.5211,404.0082 c 0.9711,0.3249 1.9422,0.6498 2.9133 0.9748c -0.3919,1.1714 -0.7839,2.3428 -1.1758 3.5141c 16.6905,5.5846 33.3810,11.1691 50.0715 16.7537c 0.3919,-1.1714 0.7839,-2.3428 1.1758 -3.5141c 0.9711,0.3249 1.9422,0.6498 2.9133 0.9748c 1.3992,-4.1817 2.7984,-8.3634 4.1975 -12.5451c -0.9711,-0.3249 -1.9422,-0.6498 -2.9132 -0.9748c 2.0023,-5.9843 4.0046,-11.9687 6.0070 -17.9530c 0.9711,0.3249 1.9422,0.6498 2.9133 0.9748c 1.3992,-4.1817 2.7984,-8.3634 4.1975 -12.5451c -0.9711,-0.3249 -1.9422,-0.6498 -2.9133 -0.9748c 0.3919,-1.1714 0.7839,-2.3428 1.1758 -3.5141c -16.6905,-5.5846 -33.3810,-11.1691 -50.0715 -16.7537c -0.3919,1.1714 -0.7839,2.3428 -1.1758 3.5141c -0.9711,-0.3249 -1.9422,-0.6498 -2.9133 -0.9748c -1.3992,4.1817 -2.7984,8.3634 -4.1975 12.5451c 0.9711,0.3249 1.9422,0.6498 2.9132 0.9748c -2.0023,5.9843 -4.0046,11.9686 -6.0070 17.9530c -0.9711,-0.3249 -1.9422,-0.6498 -2.9133 -0.9748c -1.3992,4.1817 -2.7984,8.3634 -4.1975 12.5451ZM 326.2165,404.0941 c 0.9711,0.3249 1.9422,0.6498 2.9132 0.9748c -0.3919,1.1714 -0.7839,2.3428 -1.1758 3.5141c 16.6905,5.5846 33.3810,11.1691 50.0715 16.7537c 0.3919,-1.1714 0.7839,-2.3428 1.1758 -3.5141c 0.9711,0.3249 1.9422,0.6498 2.9133 0.9748c 1.3992,-4.1817 2.7984,-8.3634 4.1975 -12.5451c -0.9711,-0.3249 -1.9422,-0.6498 -2.9133 -0.9748c 2.0023,-5.9843 4.0047,-11.9687 6.0070 -17.9530c 0.9711,0.3249 1.9422,0.6498 2.9133 0.9748c 1.3992,-4.1817 2.7984,-8.3634 4.1975 -12.5451c -0.9711,-0.3249 -1.9422,-0.6498 -2.9133 -0.9748c 0.3919,-1.1714 0.7839,-2.3428 1.1758 -3.5141c -16.6905,-5.5846 -33.3810,-11.1691 -50.0715 -16.7537c -0.3919,1.1714 -0.7839,2.3428 -1.1758 3.5142c -0.9711,-0.3249 -1.9422,-0.6498 -2.9132 -0.9748c -1.3992,4.1817 -2.7984,8.3634 -4.1975 12.5451c 0.9711,0.3249 1.9422,0.6498 2.9133 0.9748c -2.0023,5.9843 -4.0047,11.9687 -6.0070 17.9530c -0.9711,-0.3249 -1.9422,-0.6498 -2.9133 -0.9748c -1.3992,4.1817 -2.7984,8.3634 -4.1975 12.5451ZM 447.2261,379.7541 c 1.3992,4.1817 2.7984,8.3634 4.1975 12.5451c 0.9711,-0.3249 1.9422,-0.6498 2.9133 -0.9748c 2.0023,5.9843 4.0047,11.9687 6.0070 17.9530c -0.9711,0.3249 -1.9422,0.6498 -2.9133 0.9748c 1.3992,4.1817 2.7984,8.3634 4.1975 12.5451c 0.9711,-0.3249 1.9422,-0.6498 2.9133 -0.9748c 0.3919,1.1714 0.7839,2.3428 1.1758 3.5141c 16.6905,-5.5846 33.3810,-11.1691 50.0715 -16.7537c -0.3919,-1.1714 -0.7839,-2.3428 -1.1758 -3.5141c 0.9711,-0.3249 1.9422,-0.6498 2.9132 -0.9748c -1.3992,-4.1817 -2.7984,-8.3634 -4.1975 -12.5451c -0.9711,0.3249 -1.9422,0.6498 -2.9133 0.9748c -2.0023,-5.9843 -4.0047,-11.9687 -6.0070 -17.9530c 0.9711,-0.3249 1.9422,-0.6498 2.9133 -0.9748c -1.3992,-4.1817 -2.7984,-8.3634 -4.1975 -12.5451c -0.9711,0.3249 -1.9422,0.6498 -2.9132 0.9748c -0.3919,-1.1714 -0.7839,-2.3428 -1.1758 -3.5142c -16.6905,5.5846 -33.3810,11.1691 -50.0715 16.7537c 0.3919,1.1714 0.7839,2.3428 1.1758 3.5141c -0.9711,0.3249 -1.9422,0.6498 -2.9133 0.9748ZM 522.9215,379.6682 c 1.3992,4.1817 2.7984,8.3634 4.1975 12.5451c 0.9711,-0.3249 1.9422,-0.6498 2.9133 -0.9748c 2.0023,5.9843 4.0046,11.9686 6.0070 17.9530c -0.9711,0.3249 -1.9422,0.6498 -2.9132 0.9748c 1.3992,4.1817 2.7984,8.3634 4.1975 12.5451c 0.9711,-0.3249 1.9422,-0.6498 2.9133 -0.9748c 0.3919,1.1714 0.7839,2.3428 1.1758 3.5141c 16.6905,-5.5846 33.3810,-11.1691 50.0715 -16.7537c -0.3919,-1.1714 -0.7839,-2.3428 -1.1758 -3.5141c 0.9711,-0.3249 1.9422,-0.6498 2.9133 -0.9748c -1.3992,-4.1817 -2.7984,-8.3634 -4.1975 -12.5451c -0.9711,0.3249 -1.9422,0.6498 -2.9133 0.9748c -2.0023,-5.9843 -4.0046,-11.9687 -6.0070 -17.9530c 0.9711,-0.3249 1.9422,-0.6498 2.9132 -0.9748c -1.3992,-4.1817 -2.7984,-8.3634 -4.1975 -12.5451c -0.9711,0.3249 -1.9422,0.6498 -2.9133 0.9748c -0.3919,-1.1714 -0.7839,-2.3428 -1.1758 -3.5141c -16.6905,5.5846 -33.3810,11.1691 -50.0715 16.7537c 0.3919,1.1714 0.7839,2.3428 1.1758 3.5141c -0.9711,0.3249 -1.9422,0.6498 -2.9133 0.9748ZM 591.0216,356.8822 c 1.3992,4.1817 2.7984,8.3634 4.1975 12.5451c 0.9711,-0.3249 1.9422,-0.6498 2.9133 -0.9748c 2.0023,5.9843 4.0046,11.9687 6.0070 17.9530c -0.9711,0.3249 -1.9422,0.6498 -2.9133 0.9748c 1.3992,4.1817 2.7984,8.3634 4.1975 12.5451c 0.9711,-0.3249 1.9422,-0.6498 2.9133 -0.9748c 0.3919,1.1714 0.7839,2.3428 1.1758 3.5141c 16.6905,-5.5846 33.3810,-11.1691 50.0715 -16.7537c -0.3919,-1.1714 -0.7839,-2.3428 -1.1758 -3.5141c 0.9711,-0.3249 1.9422,-0.6498 2.9133 -0.9748c -1.3992,-4.1817 -2.7984,-8.3634 -4.1975 -12.5451c -0.9711,0.3249 -1.9422,0.6498 -2.9133 0.9748c -2.0023,-5.9843 -4.0047,-11.9686 -6.0070 -17.9530c 0.9711,-0.3249 1.9422,-0.6498 2.9132 -0.9748c -1.3992,-4.1817 -2.7984,-8.3634 -4.1975 -12.5451c -0.9711,0.3249 -1.9422,0.6498 -2.9133 0.9748c -0.3919,-1.1714 -0.7839,-2.3428 -1.1758 -3.5141c -16.6905,5.5846 -33.3810,11.1691 -50.0715 16.7537c 0.3919,1.1714 0.7839,2.3428 1.1758 3.5141c -0.9711,0.3249 -1.9422,0.6498 -2.9133 0.9748ZM 659.1217,334.0962 c 1.3992,4.1817 2.7984,8.3634 4.1975 12.5451c 0.9711,-0.3249 1.9422,-0.6498 2.9132 -0.9748c 2.0023,5.9843 4.0047,11.9687 6.0070 17.9530c -0.9711,0.3249 -1.9422,0.6498 -2.9133 0.9748c 1.3992,4.1817 2.7984,8.3634 4.1975 12.5451c 0.9711,-0.3249 1.9422,-0.6498 2.9133 -0.9748c 0.3919,1.1714 0.7839,2.3428 1.1758 3.5141c 16.6905,-5.5846 33.3810,-11.1691 50.0715 -16.7537c -0.3919,-1.1714 -0.7839,-2.3428 -1.1758 -3.5141c 0.9711,-0.3249 1.9422,-0.6498 2.9133 -0.9748c -1.3992,-4.1817 -2.7984,-8.3634 -4.1975 -12.5451c -0.9711,0.3249 -1.9422,0.6498 -2.9133 0.9748c -2.0023,-5.9843 -4.0047,-11.9687 -6.0070 -17.9530c 0.9711,-0.3249 1.9422,-0.6498 2.9133 -0.9748c -1.3992,-4.1817 -2.7984,-8.3634 -4.1975 -12.5451c -0.9711,0.3249 -1.9422,0.6498 -2.9133 0.9748c -0.3919,-1.1714 -0.7839,-2.3428 -1.1758 -3.5142c -16.6905,5.5846 -33.3810,11.1691 -50.0715 16.7537c 0.3919,1.1714 0.7839,2.3428 1.1758 3.5142c -0.9711,0.3249 -1.9422,0.6498 -2.9133 0.9748ZM 727.2217,311.3103 c 1.3992,4.1817 2.7984,8.3634 4.1975 12.5451c 0.9711,-0.3249 1.9422,-0.6498 2.9133 -0.9748c 2.0023,5.9843 4.0047,11.9686 6.0070 17.9530c -0.9711,0.3249 -1.9422,0.6498 -2.9133 0.9748c 1.3992,4.1817 2.7983,8.3634 4.1975 12.5451c 0.9711,-0.3249 1.9422,-0.6498 2.9133 -0.9748c 0.3919,1.1714 0.7839,2.3428 1.1758 3.5141c 16.6905,-5.5846 33.3810,-11.1691 50.0715 -16.7537c -0.3919,-1.1714 -0.7839,-2.3428 -1.1758 -3.5141c 0.9711,-0.3249 1.9422,-0.6498 2.9132 -0.9748c -1.3992,-4.1817 -2.7984,-8.3634 -4.1975 -12.5451c -0.9711,0.3249 -1.9422,0.6498 -2.9132 0.9748c -2.0023,-5.9843 -4.0047,-11.9687 -6.0070 -17.9530c 0.9711,-0.3249 1.9422,-0.6498 2.9133 -0.9748c -1.3992,-4.1817 -2.7984,-8.3634 -4.1975 -12.5451c -0.9711,0.3249 -1.9422,0.6498 -2.9132 0.9748c -0.3919,-1.1714 -0.7839,-2.3428 -1.1758 -3.5141c -16.6905,5.5846 -33.3810,11.1691 -50.0715 16.7537c 0.3919,1.1714 0.7839,2.3428 1.1758 3.5141c -0.9711,0.3249 -1.9422,0.6498 -2.9133 0.9748ZM 14.0986,354.1944 c 0.0000,3.1311 2.5382,5.6693 5.6693 5.6693c 3.1311,-0.0000 5.6693,-2.5382 5.6693 -5.6693c 0.0000,-3.1311 -2.5382,-5.6693 -5.6693 -5.6693c -3.1311,-0.0000 -5.6693,2.5382 -5.6693 5.6693ZM 44.9874,261.8773 c 0.0000,3.1311 2.5382,5.6693 5.6693 5.6693c 3.1311,-0.0000 5.6693,-2.5382 5.6693 -5.6693c 0.0000,-3.1311 -2.5382,-5.6693 -5.6693 -5.6693c -3.1311,-0.0000 -5.6693,2.5382 -5.6693 5.6693ZM 310.7159,453.4412 c 0.0000,3.1311 2.5382,5.6693 5.6693 5.6693c 3.1311,-0.0000 5.6693,-2.5382 5.6693 -5.6693c 0.0000,-3.1311 -2.5382,-5.6693 -5.6693 -5.6693c -3.1311,-0.0000 -5.6693,2.5382 -5.6693 5.6693ZM 387.8556,341.7667 c 0.0000,3.1311 2.5382,5.6693 5.6693 5.6693c 3.1311,-0.0000 5.6693,-2.5382 5.6693 -5.6693c 0.0000,-3.1311 -2.5382,-5.6693 -5.6693 -5.6693c -3.1311,-0.0000 -5.6693,2.5382 -5.6693 5.6693ZM 444.5485,341.7667 c 0.0000,3.1311 2.5382,5.6693 5.6693 5.6693c 3.1311,-0.0000 5.6693,-2.5382 5.6693 -5.6693c 0.0000,-3.1311 -2.5382,-5.6693 -5.6693 -5.6693c -3.1311,-0.0000 -5.6693,2.5382 -5.6693 5.6693ZM 521.6881,453.4412 c 0.0000,3.1311 2.5382,5.6693 5.6693 5.6693c 3.1311,-0.0000 5.6693,-2.5382 5.6693 -5.6693c 0.0000,-3.1311 -2.5382,-5.6693 -5.6693 -5.6693c -3.1311,-0.0000 -5.6693,2.5382 -5.6693 5.6693ZM 787.4166,261.8773 c 0.0000,3.1311 2.5382,5.6693 5.6693 5.6693c 3.1311,-0.0000 5.6693,-2.5382 5.6693 -5.6693c 0.0000,-3.1311 -2.5382,-5.6693 -5.6693 -5.6693c -3.1311,-0.0000 -5.6693,2.5382 -5.6693 5.6693ZM 818.3054,354.1944 c 0.0000,3.1311 2.5382,5.6693 5.6693 5.6693c 3.1311,-0.0000 5.6693,-2.5382 5.6693 -5.6693c 0.0000,-3.1311 -2.5382,-5.6693 -5.6693 -5.6693c -3.1311,-0.0000 -5.6693,2.5382 -5.6693 5.6693Z"/></g><g stroke-linejoin="miter" stroke-opacity="1.0" fill-opacity="0.5" stroke="rgb(0,0,0)" stroke-width="0.37795275590551186" fill="rgb(0,0,255)" stroke-linecap="butt" stroke-miterlimit="10.0"><path d="M 3.9685,104.8747 c 0.0000,-3.1884 0.4961,-6.4044 1.5635 -9.5946c 7.8831,-23.5602 15.7663,-47.1205 23.6494 -70.6807c 5.2697,-15.7496 22.5183,-24.3493 38.2678 -19.0796c 22.7000,7.5953 45.4001,15.1907 68.1001 22.7860c 0.8602,0.2878 1.7204,0.5757 2.5806 0.8635c 0.0015,0.0005 0.0030,0.0010 0.0045 0.0015c 21.8383,7.3070 43.6767,14.6140 65.5150 21.9210c 0.8602,0.2878 1.7204,0.5756 2.5807 0.8635c 21.8398,7.3075 43.6796,14.6150 65.5195 21.9225c 0.8602,0.2878 1.7204,0.5756 2.5806 0.8635c 0.0016,0.0005 0.0032,0.0011 0.0048 0.0016c 10.9183,3.6532 21.8366,7.3064 32.7549 10.9596c 1.9070,-0.0000 3.8139,-0.0000 5.7209 -0.0000c 7.4240,-10.9196 21.5466,-16.1178 34.6342 -11.7387c 11.6945,3.9129 23.3889,7.8258 35.0834 11.7387c 13.1143,-0.0000 26.2286,-0.0000 39.3429 -0.0000c 13.1143,-0.0000 26.2286,-0.0000 39.3429 -0.0000c 11.6945,-3.9129 23.3889,-7.8258 35.0834 -11.7387c 13.0875,-4.3790 27.2101,0.8192 34.6342 11.7387c 1.9070,-0.0000 3.8139,-0.0000 5.7209 -0.0000c 10.9183,-3.6532 21.8366,-7.3064 32.7549 -10.9596c 0.0016,-0.0005 0.0032,-0.0011 0.0048 -0.0016c 0.8602,-0.2878 1.7204,-0.5756 2.5806 -0.8635c 21.8398,-7.3075 43.6796,-14.6150 65.5195 -21.9225c 0.8602,-0.2878 1.7204,-0.5756 2.5807 -0.8635c 21.8383,-7.3070 43.6767,-14.6140 65.5150 -21.9210c 0.0015,-0.0005 0.0030,-0.0010 0.0045 -0.0015c 0.8602,-0.2878 1.7204,-0.5756 2.5806 -0.8635c 22.7000,-7.5953 45.4001,-15.1906 68.1001 -22.7860c 15.7496,-5.2697 32.9981,3.3301 38.2678 19.0796c 7.8832,23.5602 15.7663,47.1205 23.6494 70.6807c 1.0674,3.1902 1.5635,6.4062 1.5635 9.5946c 0.0000,12.6088 -8.0272,24.4520 -20.6431 28.6732c -22.7000,7.5953 -45.4001,15.1906 -68.1001 22.7860c -0.8602,0.2878 -1.7204,0.5756 -2.5806 0.8635c -0.0017,0.0006 -0.0034,0.0012 -0.0051 0.0017c -21.8381,7.3069 -43.6762,14.6139 -65.5143 21.9208c -0.8602,0.2878 -1.7204,0.5757 -2.5806 0.8635c -0.0011,0.0004 -0.0022,0.0007 -0.0033 0.0011c -21.8387,7.3071 -43.6774,14.6143 -65.5162 21.9214c -0.8603,0.2878 -1.7206,0.5757 -2.5808 0.8635c -10.9199,3.6537 -21.8397,7.3075 -32.7596 10.9612c -11.7802,3.9416 -23.5603,7.8832 -35.3405 11.8248c -13.1219,4.3905 -27.2842,-0.8465 -34.6924 -11.8248c -1.8019,-0.0000 -3.6037,-0.0000 -5.4056 -0.0000c -11.8658,3.9702 -23.7316,7.9405 -35.5974 11.9107c -13.1560,4.4020 -27.3580,-0.8739 -34.7502 -11.9107c -3.9443,-0.0000 -7.8886,-0.0000 -11.8329 -0.0000c -3.9443,-0.0000 -7.8886,-0.0000 -11.8329 -0.0000c -7.3922,11.0368 -21.5942,16.3127 -34.7502 11.9107c -11.8658,-3.9702 -23.7316,-7.9405 -35.5974 -11.9107c -1.8019,-0.0000 -3.6037,-0.0000 -5.4056 -0.0000c -7.4082,10.9783 -21.5705,16.2153 -34.6924 11.8248c -11.7802,-3.9416 -23.5603,-7.8832 -35.3405 -11.8248c -10.9199,-3.6537 -21.8397,-7.3075 -32.7596 -10.9612c -0.8603,-0.2878 -1.7206,-0.5757 -2.5808 -0.8635c -21.8387,-7.3071 -43.6774,-14.6143 -65.5162 -21.9214c -0.0011,-0.0004 -0.0022,-0.0007 -0.0033 -0.0011c -0.8602,-0.2878 -1.7204,-0.5757 -2.5806 -0.8635c -21.8381,-7.3069 -43.6762,-14.6138 -65.5143 -21.9208c -0.0017,-0.0006 -0.0034,-0.0012 -0.0051 -0.0017c -0.8602,-0.2878 -1.7204,-0.5756 -2.5806 -0.8635c -22.7000,-7.5953 -45.4001,-15.1906 -68.1001 -22.7860c -12.6159,-4.2213 -20.6431,-16.0644 -20.6431 -28.6732ZM 30.4252,104.8747 c 0.0000,1.5808 0.9996,3.0545 2.5813 3.5837c 22.7000,7.5953 45.4001,15.1906 68.1001 22.7860c 0.8602,0.2878 1.7204,0.5756 2.5806 0.8635c 0.0017,0.0006 0.0034,0.0011 0.0051 0.0017c 21.8381,7.3069 43.6762,14.6139 65.5143 21.9208c 0.8602,0.2878 1.7204,0.5756 2.5806 0.8635c 0.0011,0.0004 0.0022,0.0007 0.0033 0.0011c 21.8387,7.3071 43.6774,14.6143 65.5161 21.9214c 0.8602,0.2878 1.7204,0.5756 2.5806 0.8635c 22.7000,7.5953 45.4001,15.1907 68.1001 22.7860c 1.9795,0.6623 4.1211,-0.4054 4.7835 -2.3850c 2.1320,-6.3719 4.2640,-12.7439 6.3961 -19.1158c 21.5053,7.1956 43.0106,14.3911 64.5159 21.5867c 1.9795,0.6623 4.1211,-0.4054 4.7835 -2.3850c 7.8831,-23.5602 15.7663,-47.1205 23.6494 -70.6807c 0.1331,-0.3978 0.1963,-0.8022 0.1963 -1.1998c 0.0000,-1.5808 -0.9996,-3.0545 -2.5813 -3.5837c -23.5602,-7.8831 -47.1205,-15.7663 -70.6807 -23.6494c -1.9795,-0.6623 -4.1211,0.4054 -4.7835 2.3850c -2.1320,6.3719 -4.2640,12.7439 -6.3961 19.1158c -20.6435,-6.9072 -41.2869,-13.8144 -61.9304 -20.7216c -0.0016,-0.0005 -0.0032,-0.0011 -0.0048 -0.0016c -0.8602,-0.2878 -1.7204,-0.5756 -2.5806 -0.8635c -21.8398,-7.3075 -43.6796,-14.6150 -65.5195 -21.9225c -0.8602,-0.2878 -1.7204,-0.5756 -2.5806 -0.8635c -21.8383,-7.3070 -43.6767,-14.6140 -65.5150 -21.9210c -0.0015,-0.0005 -0.0030,-0.0010 -0.0045 -0.0015c -0.8602,-0.2878 -1.7204,-0.5756 -2.5806 -0.8635c -22.7000,-7.5953 -45.4001,-15.1906 -68.1001 -22.7860c -1.9795,-0.6623 -4.1211,0.4054 -4.7835 2.3850c -7.8831,23.5602 -15.7663,47.1205 -23.6494 70.6807c -0.1331,0.3978 -0.1963,0.8022 -0.1963 1.1998ZM 431.4304,126.2863 c 0.0000,0.3976 0.0632,0.8020 0.1963 1.1998c 7.8831,23.5602 15.7663,47.1205 23.6494 70.6807c 0.6623,1.9795 2.8040,3.0473 4.7835 2.3850c 21.5053,-7.1956 43.0106,-14.3911 64.5159 -21.5867c 2.1320,6.3719 4.2640,12.7439 6.3961 19.1158c 0.6623,1.9795 2.8040,3.0473 4.7835 2.3850c 22.7000,-7.5953 45.4001,-15.1907 68.1001 -22.7860c 0.8602,-0.2878 1.7204,-0.5756 2.5806 -0.8635c 21.8387,-7.3071 43.6774,-14.6143 65.5161 -21.9214c 0.0011,-0.0004 0.0022,-0.0007 0.0033 -0.0011c 0.8602,-0.2878 1.7204,-0.5756 2.5806 -0.8635c 21.8381,-7.3069 43.6762,-14.6139 65.5143 -21.9208c 0.0017,-0.0006 0.0034,-0.0011 0.0051 -0.0017c 0.8602,-0.2878 1.7204,-0.5756 2.5806 -0.8635c 22.7000,-7.5953 45.4001,-15.1906 68.1001 -22.7860c 1.5817,-0.5292 2.5813,-2.0029 2.5813 -3.5837c 0.0000,-0.3976 -0.0632,-0.8020 -0.1963 -1.1998c -7.8831,-23.5602 -15.7663,-47.1205 -23.6494 -70.6807c -0.6623,-1.9795 -2.8040,-3.0473 -4.7835 -2.3850c -22.7000,7.5953 -45.4001,15.1907 -68.1001 22.7860c -0.8602,0.2878 -1.7204,0.5756 -2.5806 0.8635c -0.0015,0.0005 -0.0030,0.0010 -0.0045 0.0015c -21.8383,7.3070 -43.6767,14.6140 -65.5150 21.9210c -0.8602,0.2878 -1.7204,0.5756 -2.5806 0.8635c -21.8398,7.3075 -43.6796,14.6150 -65.5195 21.9225c -0.8602,0.2878 -1.7204,0.5756 -2.5806 0.8635c -0.0016,0.0005 -0.0032,0.0011 -0.0048 0.0016c -20.6435,6.9072 -41.2869,13.8144 -61.9304 20.7216c -2.1320,-6.3719 -4.2640,-12.7439 -6.3961 -19.1158c -0.6623,-1.9795 -2.8040,-3.0473 -4.7835 -2.3850c -23.5602,7.8831 -47.1205,15.7663 -70.6807 23.6494c -1.5817,0.5292 -2.5813,2.0029 -2.5813 3.5837ZM 14.0986,112.0727 c 0.0000,3.1311 2.5382,5.6693 5.6693 5.6693c 3.1311,-0.0000 5.6693,-2.5382 5.6693 -5.6693c 0.0000,-3.1311 -2.5382,-5.6693 -5.6693 -5.6693c -3.1311,-0.0000 -5.6693,2.5382 -5.6693 5.6693ZM 44.9874,19.7556 c 0.0000,3.1311 2.5382,5.6693 5.6693 5.6693c 3.1311,-0.0000 5.6693,-2.5382 5.6693 -5.6693c 0.0000,-3.1311 -2.5382,-5.6693 -5.6693 -5.6693c -3.1311,-0.0000 -5.6693,2.5382 -5.6693 5.6693ZM 310.7159,211.3195 c 0.0000,3.1311 2.5382,5.6693 5.6693 5.6693c 3.1311,-0.0000 5.6693,-2.5382 5.6693 -5.6693c 0.0000,-3.1311 -2.5382,-5.6693 -5.6693 -5.6693c -3.1311,-0.0000 -5.6693,2.5382 -5.6693 5.6693ZM 387.8556,99.6450 c 0.0000,3.1311 2.5382,5.6693 5.6693 5.6693c 3.1311,-0.0000 5.6693,-2.5382 5.6693 -5.6693c 0.0000,-3.1311 -2.5382,-5.6693 -5.6693 -5.6693c -3.1311,-0.0000 -5.6693,2.5382 -5.6693 5.6693ZM 444.5485,99.6450 c 0.0000,3.1311 2.5382,5.6693 5.6693 5.6693c 3.1311,-0.0000 5.6693,-2.5382 5.6693 -5.6693c 0.0000,-3.1311 -2.5382,-5.6693 -5.6693 -5.6693c -3.1311,-0.0000 -5.6693,2.5382 -5.6693 5.6693ZM 521.6881,211.3195 c 0.0000,3.1311 2.5382,5.6693 5.6693 5.6693c 3.1311,-0.0000 5.6693,-2.5382 5.6693 -5.6693c 0.0000,-3.1311 -2.5382,-5.6693 -5.6693 -5.6693c -3.1311,-0.0000 -5.6693,2.5382 -5.6693 5.6693ZM 787.4166,19.7556 c 0.0000,3.1311 2.5382,5.6693 5.6693 5.6693c 3.1311,-0.0000 5.6693,-2.5382 5.6693 -5.6693c 0.0000,-3.1311 -2.5382,-5.6693 -5.6693 -5.6693c -3.1311,-0.0000 -5.6693,2.5382 -5.6693 5.6693ZM 818.3054,112.0727 c 0.0000,3.1311 2.5382,5.6693 5.6693 5.6693c 3.1311,-0.0000 5.6693,-2.5382 5.6693 -5.6693c 0.0000,-3.1311 -2.5382,-5.6693 -5.6693 -5.6693c -3.1311,-0.0000 -5.6693,2.5382 -5.6693 5.6693Z"/></g></svg>