<?xml version="1.0" encoding="UTF-8" standalone="no"?>
<svg
   height="142.9463"
   stroke-opacity="1"
   viewBox="0 0 717 143"
   font-size="1"
   width="717.4317"
   stroke="rgb(0,0,0)"
   version="1.1"
   id="svg192"
   sodipodi:docname="atreus8_a.svg"
   inkscape:version="1.1.1 (3bf5ae0, 2021-09-20)"
   xmlns:inkscape="http://www.inkscape.org/namespaces/inkscape"
   xmlns:sodipodi="http://sodipodi.sourceforge.net/DTD/sodipodi-0.dtd"
   xmlns="http://www.w3.org/2000/svg"
   xmlns:svg="http://www.w3.org/2000/svg">
  <sodipodi:namedview
     id="namedview194"
     pagecolor="#ffffff"
     bordercolor="#666666"
     borderopacity="1.0"
     inkscape:pageshadow="2"
     inkscape:pageopacity="0.0"
     inkscape:pagecheckerboard="0"
     showgrid="false"
     inkscape:zoom="1.6573006"
     inkscape:cx="358.71585"
     inkscape:cy="71.200118"
     inkscape:window-width="1371"
     inkscape:window-height="820"
     inkscape:window-x="0"
     inkscape:window-y="0"
     inkscape:window-maximized="0"
     inkscape:current-layer="svg192" />
  <defs
     id="defs2" />
  <g
     stroke-linejoin="miter"
     stroke-opacity="1.0"
     fill-opacity="0.5"
     stroke="rgb(0,0,0)"
     stroke-width="0.37795275590551186"
     fill="rgb(0,0,0)"
     stroke-linecap="butt"
     stroke-miterlimit="10.0"
     id="g6">
    <path
       d="M 3.9685,108.7365 c 0.0004,-24.8441 0.0009,-49.6882 0.0013 -74.5323c 0.0003,-16.6078 13.6290,-30.2360 30.2368 -30.2357c 23.9370,0.0004 47.8740,0.0008 71.8110 0.0013c 0.9071,0.0000 1.8142,0.0000 2.7213 0.0000c 0.0015,-0.0000 0.0031,-0.0000 0.0046 -0.0000c 23.0284,0.0004 46.0568,0.0008 69.0852 0.0012c 0.9071,0.0000 1.8142,0.0000 2.7213 0.0000c 0.0015,-0.0000 0.0030,-0.0000 0.0046 -0.0000c 23.0284,0.0004 46.0568,0.0008 69.0852 0.0012c 0.9072,0.0000 1.8143,0.0000 2.7215 0.0001c 11.5150,0.0002 23.0299,0.0004 34.5449 0.0006c 23.9366,-0.0000 47.8732,-0.0000 71.8098 -0.0000c 23.8692,-0.0000 47.7383,-0.0000 71.6075 -0.0000c 0.0675,-0.0000 0.1349,-0.0000 0.2024 -0.0000c 11.5150,-0.0002 23.0299,-0.0004 34.5449 -0.0006c 0.9072,-0.0000 1.8143,-0.0000 2.7215 -0.0001c 23.0284,-0.0004 46.0568,-0.0008 69.0852 -0.0012c 0.0015,-0.0000 0.0031,-0.0000 0.0046 -0.0000c 0.9071,-0.0000 1.8142,-0.0000 2.7213 -0.0000c 23.0284,-0.0004 46.0568,-0.0008 69.0852 -0.0012c 0.0015,-0.0000 0.0031,-0.0000 0.0046 -0.0000c 0.9071,-0.0000 1.8142,-0.0000 2.7213 -0.0000c 23.9370,-0.0004 47.8740,-0.0008 71.8110 -0.0013c 16.6078,-0.0003 30.2365,13.6279 30.2368 30.2357c 0.0004,24.8441 0.0009,49.6882 0.0013 74.5323c 0.0000,0.0000 0.0000,0.0000 0.0000 0.0001c 0.0000,16.6076 -13.6282,30.2360 -30.2358 30.2362c -23.9370,0.0004 -47.8740,0.0008 -71.8110 0.0013c -0.9071,0.0000 -1.8142,0.0000 -2.7213 0.0000c -23.0299,0.0004 -46.0598,0.0008 -69.0898 0.0012c -0.9071,0.0000 -1.8142,0.0000 -2.7213 0.0000c -23.0299,0.0004 -46.0598,0.0008 -69.0898 0.0012c -0.9071,0.0000 -1.8142,0.0000 -2.7213 0.0000c -11.5150,0.0002 -23.0300,0.0004 -34.5450 0.0006c -0.0674,-0.0000 -0.1348,-0.0000 -0.2023 -0.0000c -12.3546,0.0002 -24.7092,0.0004 -37.0638 0.0006c -0.0663,-0.0000 -0.1326,-0.0002 -0.1989 -0.0006c -11.4491,-0.0000 -22.8982,-0.0000 -34.3473 -0.0000c -11.4491,-0.0000 -22.8982,-0.0000 -34.3473 -0.0000c -0.0662,0.0004 -0.1325,0.0006 -0.1989 0.0006c -12.4220,-0.0002 -24.8440,-0.0004 -37.2660 -0.0006c -11.5150,-0.0002 -23.0300,-0.0004 -34.5450 -0.0006c -0.9071,-0.0000 -1.8142,-0.0000 -2.7213 -0.0000c -23.0299,-0.0004 -46.0598,-0.0008 -69.0898 -0.0012c -0.9071,-0.0000 -1.8142,-0.0000 -2.7213 -0.0000c -23.0299,-0.0004 -46.0598,-0.0008 -69.0898 -0.0012c -0.9071,-0.0000 -1.8142,-0.0000 -2.7213 -0.0000c -23.9370,-0.0004 -47.8740,-0.0008 -71.8110 -0.0013c -16.6076,-0.0002 -30.2358,-13.6287 -30.2358 -30.2362c 0.0000,-0.0000 0.0000,-0.0000 -0.0000 -0.0001ZM 17.1278,120.1445 c 0.0000,3.1311 2.5382,5.6693 5.6693 5.6693c 3.1311,-0.0000 5.6693,-2.5382 5.6693 -5.6693c 0.0000,-3.1311 -2.5382,-5.6693 -5.6693 -5.6693c -3.1311,-0.0000 -5.6693,2.5382 -5.6693 5.6693ZM 17.1295,22.7968 c 0.0000,3.1311 2.5382,5.6693 5.6693 5.6693c 3.1311,-0.0000 5.6693,-2.5382 5.6693 -5.6693c 0.0000,-3.1311 -2.5382,-5.6693 -5.6693 -5.6693c -3.1311,-0.0000 -5.6693,2.5382 -5.6693 5.6693ZM 281.2346,124.2753 c 0.0000,3.1311 2.5382,5.6693 5.6693 5.6693c 3.1311,-0.0000 5.6693,-2.5382 5.6693 -5.6693c 0.0000,-3.1311 -2.5382,-5.6693 -5.6693 -5.6693c -3.1311,-0.0000 -5.6693,2.5382 -5.6693 5.6693ZM 324.7001,18.6753 c 0.0000,3.1311 2.5382,5.6693 5.6693 5.6693c 3.1311,-0.0000 5.6693,-2.5382 5.6693 -5.6693c 0.0000,-3.1311 -2.5382,-5.6693 -5.6693 -5.6693c -3.1311,-0.0000 -5.6693,2.5382 -5.6693 5.6693ZM 381.3930,18.6753 c 0.0000,3.1311 2.5382,5.6693 5.6693 5.6693c 3.1311,-0.0000 5.6693,-2.5382 5.6693 -5.6693c 0.0000,-3.1311 -2.5382,-5.6693 -5.6693 -5.6693c -3.1311,-0.0000 -5.6693,2.5382 -5.6693 5.6693ZM 424.8585,124.2753 c 0.0000,3.1311 2.5382,5.6693 5.6693 5.6693c 3.1311,-0.0000 5.6693,-2.5382 5.6693 -5.6693c 0.0000,-3.1311 -2.5382,-5.6693 -5.6693 -5.6693c -3.1311,-0.0000 -5.6693,2.5382 -5.6693 5.6693ZM 688.9636,22.7968 c 0.0000,3.1311 2.5382,5.6693 5.6693 5.6693c 3.1311,-0.0000 5.6693,-2.5382 5.6693 -5.6693c 0.0000,-3.1311 -2.5382,-5.6693 -5.6693 -5.6693c -3.1311,-0.0000 -5.6693,2.5382 -5.6693 5.6693ZM 688.9653,120.1445 c 0.0000,3.1311 2.5382,5.6693 5.6693 5.6693c 3.1311,-0.0000 5.6693,-2.5382 5.6693 -5.6693c 0.0000,-3.1311 -2.5382,-5.6693 -5.6693 -5.6693c -3.1311,-0.0000 -5.6693,2.5382 -5.6693 5.6693Z"
       id="path4" />
  </g>
  <g
     stroke-linejoin="miter"
     stroke-opacity="1.0"
     fill-opacity="0.5"
     stroke="rgb(0,0,0)"
     stroke-width="0.37795275590551186"
     fill="rgb(128,128,128)"
     stroke-linecap="butt"
     stroke-miterlimit="10.0"
     id="g10">
    <path
       d="M 26.6459,104.2213 c 0.0004,-21.8337 0.0008,-43.6675 0.0011 -65.5012c 5.9541,-1.4338 10.6408,-6.1204 12.0748 -12.0744c 22.4318,0.0004 44.8636,0.0008 67.2955 0.0012c 0.9071,0.0000 1.8142,0.0000 2.7213 0.0000c 0.0015,-0.0000 0.0031,-0.0000 0.0046 -0.0000c 23.0284,0.0004 46.0568,0.0008 69.0852 0.0012c 0.9071,0.0000 1.8142,0.0000 2.7213 0.0000c 0.0015,-0.0000 0.0031,-0.0000 0.0046 -0.0000c 23.0284,0.0004 46.0568,0.0008 69.0852 0.0012c 0.9071,0.0000 1.8142,0.0000 2.7213 0.0000c 11.5150,0.0002 23.0299,0.0004 34.5449 0.0006c 9.7184,-0.0000 19.4368,-0.0000 29.1552 -0.0000c 2.8001,5.0133 8.1585,8.4031 14.3086 8.4031c 6.1501,-0.0000 11.5085,-3.3899 14.3086 -8.4031c 4.6793,-0.0000 9.3586,-0.0000 14.0378 -0.0000c 4.6793,-0.0000 9.3586,-0.0000 14.0378 -0.0000c 2.8001,5.0133 8.1585,8.4031 14.3086 8.4031c 6.1502,-0.0000 11.5085,-3.3899 14.3086 -8.4031c 9.7184,-0.0000 19.4368,-0.0000 29.1552 -0.0000c 11.5150,-0.0002 23.0299,-0.0004 34.5449 -0.0006c 0.9071,-0.0000 1.8142,-0.0000 2.7213 -0.0000c 23.0284,-0.0004 46.0568,-0.0008 69.0852 -0.0012c 0.0015,-0.0000 0.0031,-0.0000 0.0046 -0.0000c 0.9071,-0.0000 1.8142,-0.0000 2.7213 -0.0000c 23.0284,-0.0004 46.0568,-0.0008 69.0852 -0.0012c 0.0015,-0.0000 0.0031,-0.0000 0.0046 -0.0000c 0.9071,-0.0000 1.8142,-0.0000 2.7213 -0.0000c 22.4318,-0.0004 44.8636,-0.0008 67.2955 -0.0012c 1.4340,5.9540 6.1208,10.6406 12.0748 12.0744c 0.0004,21.8337 0.0008,43.6675 0.0011 65.5012c -5.9540,1.4340 -10.6406,6.1207 -12.0744 12.0747c -22.4318,0.0004 -44.8637,0.0008 -67.2955 0.0012c -0.9071,0.0000 -1.8142,0.0000 -2.7213 0.0000c -23.0299,0.0004 -46.0598,0.0008 -69.0898 0.0012c -0.9071,0.0000 -1.8142,0.0000 -2.7213 0.0000c -23.0299,0.0004 -46.0598,0.0008 -69.0898 0.0012c -0.9071,0.0000 -1.8142,0.0000 -2.7213 0.0000c -6.7454,0.0001 -13.4909,0.0002 -20.2363 0.0004c -2.8001,-5.0131 -8.1584,-8.4028 -14.3084 -8.4028c -6.1502,-0.0000 -11.5087,3.3900 -14.3087 8.4033c -7.6525,0.0001 -15.3050,0.0003 -22.9575 0.0004c -0.0334,-0.0000 -0.0668,-0.0002 -0.1001 -0.0007c -11.4818,-0.0000 -22.9637,-0.0000 -34.4456 -0.0000c -11.4818,-0.0000 -22.9637,-0.0000 -34.4456 -0.0000c -0.0333,0.0004 -0.0667,0.0007 -0.1001 0.0007c -7.6525,-0.0001 -15.3050,-0.0003 -22.9575 -0.0004c -2.8001,-5.0133 -8.1585,-8.4033 -14.3087 -8.4033c -6.1500,-0.0000 -11.5083,3.3898 -14.3084 8.4028c -6.7454,-0.0001 -13.4909,-0.0002 -20.2363 -0.0004c -0.9071,-0.0000 -1.8142,-0.0000 -2.7213 -0.0000c -23.0299,-0.0004 -46.0598,-0.0008 -69.0898 -0.0012c -0.9071,-0.0000 -1.8142,-0.0000 -2.7213 -0.0000c -23.0299,-0.0004 -46.0598,-0.0008 -69.0898 -0.0012c -0.9071,-0.0000 -1.8142,-0.0000 -2.7213 -0.0000c -22.4318,-0.0004 -44.8637,-0.0008 -67.2955 -0.0012c -1.4338,-5.9540 -6.1204,-10.6407 -12.0744 -12.0747Z"
       id="path8" />
  </g>
  <g
     stroke-linejoin="miter"
     stroke-opacity="1.0"
     fill-opacity="0.5"
     stroke="rgb(0,0,0)"
     stroke-width="0.37795275590551186"
     fill="rgb(255,255,0)"
     stroke-linecap="butt"
     stroke-miterlimit="10.0"
     id="g14">
    <path
       id="path12"
       style="stroke-width:0.377811"
       d="M 34.544922 3.9667969 C 17.943358 3.966497 4.3186593 17.589842 4.3183594 34.191406 C 4.3179595 59.026177 4.3187592 83.860541 4.3183594 108.69531 C 4.3183594 125.29658 17.939652 138.91972 34.541016 138.91992 C 58.469027 138.92042 82.39816 138.92148 106.32617 138.92188 L 109.04688 138.92188 L 178.10938 138.92383 L 180.83008 138.92383 L 249.89453 138.92383 L 252.61523 138.92383 L 287.14648 138.92578 L 324.39844 138.92578 C 324.46481 138.92578 324.53148 138.92618 324.59766 138.92578 L 358.93164 138.92578 L 393.26562 138.92578 C 393.3319 138.92618 393.39857 138.92578 393.46484 138.92578 L 430.51562 138.92578 L 430.7168 138.92578 L 465.25 138.92383 L 467.96875 138.92383 L 537.0332 138.92383 L 539.75391 138.92383 L 608.81836 138.92188 L 611.53711 138.92188 C 635.46512 138.92138 659.39425 138.92032 683.32227 138.91992 C 699.92363 138.91972 713.54688 125.29668 713.54688 108.69531 C 713.54648 83.860541 713.54532 59.026177 713.54492 34.191406 C 713.54462 17.589842 699.92188 3.966497 683.32031 3.9667969 C 659.3923 3.9672967 635.46317 3.9683502 611.53516 3.96875 L 608.81445 3.96875 L 608.81055 3.96875 L 539.75195 3.96875 L 537.03125 3.96875 L 537.02734 3.96875 L 467.9668 3.9707031 C 467.05994 3.9708031 466.15295 3.9707031 465.24609 3.9707031 L 430.71484 3.9707031 L 430.51172 3.9707031 L 358.93164 3.9707031 L 287.14844 3.9707031 L 252.61719 3.9707031 C 251.71033 3.9706032 250.80334 3.9707031 249.89648 3.9707031 L 180.83789 3.96875 L 180.83203 3.96875 L 178.11328 3.96875 L 109.05273 3.96875 L 109.04883 3.96875 L 106.32812 3.96875 C 82.400113 3.9682502 58.472934 3.9671967 34.544922 3.9667969 z M 330.5957 13.001953 C 333.72563 13.001953 336.26367 15.538044 336.26367 18.667969 C 336.26367 21.797893 333.72563 24.335938 330.5957 24.335938 C 327.46578 24.335937 324.92773 21.797893 324.92773 18.667969 C 324.92773 15.538044 327.46578 13.001953 330.5957 13.001953 z M 387.26758 13.001953 C 390.3975 13.001953 392.93555 15.538044 392.93555 18.667969 C 392.93555 21.797893 390.3975 24.335938 387.26758 24.335938 C 384.13765 24.335937 381.59961 21.797893 381.59961 18.667969 C 381.59961 15.538044 384.13765 13.001953 387.26758 13.001953 z M 23.140625 17.121094 C 26.270549 17.121094 28.808594 19.659138 28.808594 22.789062 C 28.808594 25.918987 26.270549 28.455078 23.140625 28.455078 C 20.010701 28.455078 17.472656 25.918987 17.472656 22.789062 C 17.472656 19.659138 20.010701 17.121094 23.140625 17.121094 z M 694.72266 17.121094 C 697.85258 17.121094 700.39062 19.659138 700.39062 22.789062 C 700.39063 25.918987 697.85258 28.455078 694.72266 28.455078 C 691.59273 28.455078 689.05469 25.918987 689.05469 22.789062 C 689.05469 19.659138 691.59273 17.121094 694.72266 17.121094 z M 39.058594 26.634766 L 106.32812 26.636719 L 109.04883 26.636719 L 109.05273 26.636719 L 178.11133 26.638672 L 180.83203 26.638672 L 180.83789 26.638672 L 249.89648 26.638672 L 252.61719 26.638672 L 287.14844 26.640625 L 316.29297 26.640625 C 319.09202 31.652043 324.44781 35.039062 330.5957 35.039062 C 336.74349 35.039062 342.09939 31.652043 344.89844 26.640625 L 358.93164 26.640625 L 372.96484 26.640625 C 375.76389 31.652043 381.11979 35.039062 387.26758 35.039062 C 393.41537 35.039062 398.77126 31.652043 401.57031 26.640625 L 430.71484 26.640625 L 465.24609 26.638672 L 467.9668 26.638672 L 537.02734 26.638672 L 537.03125 26.638672 L 539.75195 26.638672 L 608.81055 26.636719 L 608.81445 26.636719 L 611.53516 26.636719 L 678.80664 26.634766 C 680.2401 32.58653 684.92509 37.271817 690.87695 38.705078 C 690.87725 60.53058 690.87655 82.356139 690.87695 104.18164 C 684.92519 105.6151 680.2399 110.30009 678.80664 116.25195 L 611.53711 116.25391 L 608.81641 116.25391 L 539.75195 116.25391 L 537.0332 116.25391 L 467.96875 116.25586 L 465.24805 116.25586 C 458.50518 116.25606 451.7624 116.25576 445.01953 116.25586 C 442.22048 111.24474 436.86449 107.85742 430.7168 107.85742 C 424.56891 107.85742 419.21311 111.24444 416.41406 116.25586 C 408.76444 116.25596 401.11447 116.25771 393.46484 116.25781 C 393.43146 116.25781 393.39852 116.25626 393.36523 116.25586 L 358.93164 116.25586 L 324.5 116.25586 C 324.46671 116.25636 324.43182 116.25781 324.39844 116.25781 C 316.74881 116.25771 309.09885 116.25596 301.44922 116.25586 C 298.65027 111.24444 293.29438 107.85742 287.14648 107.85742 C 280.99879 107.85742 275.6428 111.24464 272.84375 116.25586 C 266.10088 116.25566 259.3581 116.25596 252.61523 116.25586 L 249.89453 116.25586 L 180.83008 116.25391 L 178.11133 116.25391 L 109.04688 116.25391 L 106.32617 116.25391 L 39.056641 116.25195 C 37.623279 110.30019 32.938092 105.6151 26.986328 104.18164 C 26.986628 82.356139 26.987881 60.53058 26.988281 38.705078 C 32.940146 37.271817 37.625132 32.58653 39.058594 26.634766 z M 23.138672 114.43164 C 26.268596 114.43164 28.806641 116.96969 28.806641 120.09961 C 28.806641 123.22953 26.268596 125.76562 23.138672 125.76562 C 20.008748 125.76562 17.472656 123.22953 17.472656 120.09961 C 17.472656 116.96969 20.008748 114.43164 23.138672 114.43164 z M 694.72461 114.43164 C 697.85453 114.43164 700.39062 116.96969 700.39062 120.09961 C 700.39062 123.22953 697.85453 125.76562 694.72461 125.76562 C 691.59469 125.76562 689.05664 123.22953 689.05664 120.09961 C 689.05664 116.96969 691.59469 114.43164 694.72461 114.43164 z M 287.14648 118.56055 C 290.27641 118.56055 292.81445 121.09859 292.81445 124.22852 C 292.81445 127.35844 290.27641 129.89648 287.14648 129.89648 C 284.01656 129.89648 281.47852 127.35844 281.47852 124.22852 C 281.47852 121.09859 284.01656 118.56055 287.14648 118.56055 z M 430.7168 118.56055 C 433.84672 118.56055 436.38281 121.09859 436.38281 124.22852 C 436.38281 127.35844 433.84672 129.89648 430.7168 129.89648 C 427.58687 129.89648 425.04883 127.35844 425.04883 124.22852 C 425.04883 121.09859 427.58687 118.56055 430.7168 118.56055 z "
       transform="matrix(1.0003756,0,0,1.0003756,-0.35059717,0)" />
  </g>
  <path
     id="path16"
     style="fill:#000000;fill-opacity:0.5;stroke:#000000;stroke-width:0.377811;stroke-linecap:butt;stroke-linejoin:miter;stroke-miterlimit:10;stroke-opacity:1"
     d="M 34.544922 3.9667969 C 17.943358 3.966497 4.3186593 17.589842 4.3183594 34.191406 C 4.3179595 59.026177 4.3187592 83.860541 4.3183594 108.69531 C 4.3183594 125.29658 17.941605 138.91972 34.542969 138.91992 C 58.470981 138.92012 82.400113 138.92148 106.32812 138.92188 L 109.04688 138.92188 C 132.06823 138.92207 155.09008 138.92148 178.11133 138.92188 L 180.83203 138.92188 C 203.85338 138.92207 226.87523 138.92343 249.89648 138.92383 L 252.61523 138.92383 L 287.14844 138.92383 L 324.40039 138.92578 C 324.46677 138.92578 324.53343 138.92423 324.59961 138.92383 L 358.93359 138.92383 L 393.26758 138.92383 C 393.33385 138.92423 393.40052 138.92578 393.4668 138.92578 L 430.51562 138.92383 L 430.71875 138.92383 L 465.25 138.92383 L 467.9707 138.92383 C 490.99206 138.92363 514.0139 138.92227 537.03516 138.92188 L 539.75391 138.92188 C 562.77526 138.92168 585.79711 138.92227 608.81836 138.92188 L 611.53906 138.92188 C 635.46707 138.92168 659.39425 138.92032 683.32227 138.91992 C 699.92363 138.91972 713.54688 125.29668 713.54688 108.69531 C 713.54678 83.860541 713.54727 59.026177 713.54688 34.191406 C 713.54658 17.589842 699.92188 3.966497 683.32031 3.9667969 C 659.3923 3.9672967 635.46512 3.9683502 611.53711 3.96875 L 608.81641 3.96875 L 608.8125 3.96875 L 539.75195 3.96875 L 537.03125 3.96875 L 537.02734 3.96875 L 467.96875 3.9707031 C 467.06189 3.9708031 466.15491 3.9707031 465.24805 3.9707031 L 430.71484 3.9707031 L 430.51367 3.9707031 L 358.93164 3.9707031 L 287.15039 3.9707031 L 252.61719 3.9707031 C 251.71033 3.9706032 250.80334 3.9707031 249.89648 3.9707031 L 180.83789 3.96875 L 180.83398 3.96875 L 178.11328 3.96875 L 109.05273 3.96875 L 109.04883 3.96875 L 106.32812 3.96875 C 82.400113 3.9682502 58.472934 3.9671967 34.544922 3.9667969 z M 330.5957 13.001953 C 333.72563 13.001953 336.26367 15.538044 336.26367 18.667969 C 336.26367 21.797893 333.72563 24.335938 330.5957 24.335938 C 327.46578 24.335938 324.92773 21.797893 324.92773 18.667969 C 324.92773 15.538044 327.46578 13.001953 330.5957 13.001953 z M 387.26758 13.001953 C 390.3975 13.001953 392.93555 15.538044 392.93555 18.667969 C 392.93555 21.797893 390.3975 24.335938 387.26758 24.335938 C 384.13765 24.335938 381.59961 21.797893 381.59961 18.667969 C 381.59961 15.538044 384.13765 13.001953 387.26758 13.001953 z M 23.140625 17.121094 C 26.270549 17.121094 28.808594 19.659138 28.808594 22.789062 C 28.808594 25.918987 26.270549 28.455078 23.140625 28.455078 C 20.010701 28.455078 17.472656 25.918987 17.472656 22.789062 C 17.472656 19.659138 20.010701 17.121094 23.140625 17.121094 z M 694.72266 17.121094 C 697.85258 17.121094 700.39062 19.659138 700.39062 22.789062 C 700.39063 25.918987 697.85258 28.455078 694.72266 28.455078 C 691.59273 28.455078 689.05469 25.918987 689.05469 22.789062 C 689.05469 19.659138 691.59273 17.121094 694.72266 17.121094 z M 45.40625 45.054688 L 98.185547 45.054688 C 98.185447 46.289424 98.185547 47.525029 98.185547 48.759766 C 99.209162 48.759866 100.23224 48.759766 101.25586 48.759766 C 101.25576 53.16771 101.25596 57.574478 101.25586 61.982422 C 100.23224 61.982322 99.209162 61.982422 98.185547 61.982422 L 98.185547 80.908203 C 99.209162 80.908303 100.23224 80.908203 101.25586 80.908203 C 101.25576 85.316147 101.25596 89.722915 101.25586 94.130859 C 100.23224 94.130759 99.209162 94.130859 98.185547 94.130859 C 98.185447 95.365596 98.185547 96.601201 98.185547 97.835938 L 45.404297 97.833984 C 45.404397 96.599248 45.404297 95.365596 45.404297 94.130859 C 44.380681 94.130759 43.3576 94.130859 42.333984 94.130859 C 42.334084 89.723015 42.333884 85.314194 42.333984 80.90625 C 43.3576 80.90635 44.380681 80.90625 45.404297 80.90625 L 45.40625 61.982422 C 44.382635 61.982322 43.3576 61.982422 42.333984 61.982422 C 42.334084 57.574478 42.333884 53.165757 42.333984 48.757812 C 43.3576 48.757912 44.382635 48.757812 45.40625 48.757812 C 45.40635 47.523076 45.40625 46.289424 45.40625 45.054688 z M 117.18945 45.054688 L 169.9707 45.056641 C 169.9706 46.291377 169.9707 47.525029 169.9707 48.759766 C 170.99432 48.759866 172.0174 48.759766 173.04102 48.759766 C 173.04092 53.16771 173.04112 57.576431 173.04102 61.984375 C 172.0174 61.984275 170.99237 61.984375 169.96875 61.984375 L 169.96875 80.908203 C 170.99237 80.908303 172.0174 80.908203 173.04102 80.908203 C 173.04102 85.316147 173.03916 89.724868 173.03906 94.132812 C 172.01545 94.132713 170.99237 94.132812 169.96875 94.132812 C 169.96865 95.367549 169.96875 96.601201 169.96875 97.835938 L 117.18945 97.835938 C 117.18955 96.601201 117.18945 95.365596 117.18945 94.130859 C 116.16584 94.130759 115.1408 94.130859 114.11719 94.130859 C 114.11729 89.723015 114.11904 85.316147 114.11914 80.908203 C 115.14276 80.908303 116.16584 80.908203 117.18945 80.908203 L 117.18945 61.984375 C 116.16584 61.984275 115.14276 61.982422 114.11914 61.982422 C 114.11924 57.574478 114.11904 53.16771 114.11914 48.759766 C 115.14276 48.759866 116.16584 48.759766 117.18945 48.759766 C 117.18955 47.525029 117.18945 46.289424 117.18945 45.054688 z M 600.67383 45.054688 C 600.67393 46.289424 600.67383 47.525029 600.67383 48.759766 C 601.69744 48.759666 602.72053 48.759766 603.74414 48.759766 C 603.74414 53.16771 603.74404 57.574478 603.74414 61.982422 C 602.72053 61.982522 601.69744 61.982422 600.67383 61.982422 L 600.67383 80.908203 C 601.69744 80.908103 602.72053 80.908203 603.74414 80.908203 C 603.74414 85.316147 603.74404 89.722915 603.74414 94.130859 C 602.72053 94.130959 601.69744 94.130859 600.67383 94.130859 C 600.67393 95.365596 600.67383 96.601201 600.67383 97.835938 L 547.89453 97.835938 C 547.89443 96.601201 547.89453 95.367549 547.89453 94.132812 C 546.87092 94.132912 545.84588 94.132812 544.82227 94.132812 C 544.82217 89.724968 544.82237 85.316147 544.82227 80.908203 C 545.84588 80.908103 546.87092 80.908203 547.89453 80.908203 L 547.89258 61.984375 C 546.86896 61.984475 545.84588 61.984375 544.82227 61.984375 C 544.82217 57.576431 544.82237 53.16771 544.82227 48.759766 C 545.84588 48.759666 546.86896 48.759766 547.89258 48.759766 C 547.89248 47.525029 547.89258 46.291377 547.89258 45.056641 L 600.67383 45.054688 z M 619.67773 45.054688 L 672.45703 45.054688 C 672.45713 46.289424 672.45703 47.523076 672.45703 48.757812 C 673.48065 48.757713 674.50568 48.757812 675.5293 48.757812 C 675.5294 53.165757 675.5292 57.574478 675.5293 61.982422 C 674.50568 61.982522 673.48065 61.982422 672.45703 61.982422 L 672.45703 80.90625 C 673.48065 80.90615 674.50568 80.90625 675.5293 80.90625 C 675.5293 85.314194 675.5292 89.722915 675.5293 94.130859 C 674.50568 94.130959 673.4826 94.130859 672.45898 94.130859 C 672.45908 95.365596 672.45898 96.599248 672.45898 97.833984 L 619.67773 97.835938 C 619.67763 96.601201 619.67773 95.365596 619.67773 94.130859 C 618.65412 94.130959 617.63104 94.130859 616.60742 94.130859 C 616.60742 89.722915 616.60752 85.316147 616.60742 80.908203 C 617.63104 80.908103 618.65412 80.90625 619.67773 80.90625 L 619.67773 61.982422 C 618.65412 61.982522 617.63104 61.982422 616.60742 61.982422 C 616.60742 57.574578 616.60752 53.16771 616.60742 48.759766 C 617.63104 48.759666 618.65412 48.759766 619.67773 48.759766 C 619.67763 47.525029 619.67773 46.289424 619.67773 45.054688 z M 188.97461 45.056641 L 241.75391 45.058594 C 241.75381 46.29333 241.75391 47.526983 241.75391 48.761719 C 242.77752 48.761819 243.8006 48.761719 244.82422 48.761719 C 244.82422 53.169563 244.82432 57.578384 244.82422 61.986328 C 243.8006 61.986228 242.77752 61.986328 241.75391 61.986328 L 241.75391 80.910156 C 242.77752 80.910256 243.8006 80.910156 244.82422 80.910156 C 244.82422 85.3181 244.82432 89.724868 244.82422 94.132812 C 243.8006 94.132713 242.77752 94.132812 241.75391 94.132812 C 241.75381 95.367549 241.75391 96.603154 241.75391 97.837891 L 188.97266 97.835938 C 188.97276 96.601201 188.97266 95.367549 188.97266 94.132812 C 187.94904 94.132713 186.92596 94.132812 185.90234 94.132812 C 185.90234 89.724868 185.90224 85.316147 185.90234 80.908203 C 186.92596 80.908303 187.94904 80.908203 188.97266 80.908203 L 188.97266 61.984375 C 187.94904 61.984275 186.92596 61.984375 185.90234 61.984375 C 185.90244 57.576431 185.90224 53.169663 185.90234 48.761719 C 186.92596 48.761819 187.95099 48.761719 188.97461 48.761719 C 188.97471 47.526983 188.97461 46.291377 188.97461 45.056641 z M 476.10938 45.056641 L 528.88867 45.056641 C 528.88877 46.291377 528.88867 47.526983 528.88867 48.761719 C 529.91229 48.761619 530.93732 48.761719 531.96094 48.761719 C 531.96094 53.169563 531.96084 57.576431 531.96094 61.984375 C 530.93732 61.984475 529.91229 61.984375 528.88867 61.984375 L 528.89062 80.908203 C 529.91424 80.908103 530.93732 80.908203 531.96094 80.908203 C 531.96094 85.316147 531.96084 89.724868 531.96094 94.132812 C 530.93732 94.132912 529.91424 94.132812 528.89062 94.132812 C 528.89072 95.367549 528.89062 96.601201 528.89062 97.835938 L 476.10938 97.837891 C 476.10928 96.603154 476.10938 95.367549 476.10938 94.132812 C 475.08576 94.132912 474.06268 94.132812 473.03906 94.132812 C 473.03896 89.724868 473.03916 85.3181 473.03906 80.910156 C 474.06268 80.910056 475.08576 80.910156 476.10938 80.910156 L 476.10938 61.986328 C 475.08576 61.986428 474.06268 61.986328 473.03906 61.986328 C 473.03896 57.578484 473.03916 53.169663 473.03906 48.761719 C 474.06268 48.761619 475.08576 48.761719 476.10938 48.761719 C 476.10928 47.526983 476.10938 46.291377 476.10938 45.056641 z M 260.75781 45.058594 L 313.53711 45.058594 C 313.53701 46.29333 313.53711 47.528936 313.53711 48.763672 C 314.56072 48.763772 315.58576 48.763672 316.60938 48.763672 C 316.60938 53.171616 316.60947 57.578384 316.60938 61.986328 C 315.58576 61.986228 314.56072 61.986328 313.53711 61.986328 L 313.53711 80.910156 C 314.56072 80.910256 315.58381 80.910156 316.60742 80.910156 C 316.60742 85.318001 316.60752 89.726821 316.60742 94.134766 C 315.58381 94.134666 314.56072 94.134766 313.53711 94.134766 C 313.53701 95.369502 313.53711 96.605108 313.53711 97.839844 L 260.75781 97.837891 C 260.75791 96.603154 260.75781 95.369502 260.75781 94.134766 C 259.7342 94.134666 258.70916 94.132812 257.68555 94.132812 C 257.68555 89.724968 257.68545 85.3181 257.68555 80.910156 C 258.70916 80.910256 259.7342 80.910156 260.75781 80.910156 L 260.75781 61.986328 C 259.7342 61.986228 258.71112 61.986328 257.6875 61.986328 C 257.6875 57.578384 257.6874 53.169663 257.6875 48.761719 C 258.71112 48.761819 259.7342 48.761719 260.75781 48.761719 C 260.75781 47.526983 260.75781 46.29333 260.75781 45.058594 z M 404.32422 45.058594 L 457.10547 45.058594 C 457.10557 46.29333 457.10547 47.526983 457.10547 48.761719 C 458.12908 48.761619 459.15217 48.761719 460.17578 48.761719 C 460.17578 53.169563 460.17568 57.578384 460.17578 61.986328 C 459.15217 61.986428 458.12908 61.986328 457.10547 61.986328 L 457.10547 80.910156 C 458.12908 80.910056 459.15217 80.910156 460.17578 80.910156 C 460.17578 85.318001 460.17763 89.724868 460.17773 94.132812 C 459.15412 94.132912 458.12908 94.132812 457.10547 94.132812 C 457.10557 95.367549 457.10547 96.603154 457.10547 97.837891 L 404.32617 97.837891 C 404.32607 96.603154 404.32617 95.369502 404.32617 94.134766 C 403.30256 94.134866 402.27947 94.134766 401.25586 94.134766 C 401.25586 89.726821 401.25401 85.3181 401.25391 80.910156 C 402.27752 80.910056 403.30256 80.910156 404.32617 80.910156 L 404.32617 61.986328 C 403.30256 61.986428 402.27752 61.986328 401.25391 61.986328 C 401.25381 57.578384 401.25401 53.171616 401.25391 48.763672 C 402.27752 48.763572 403.30256 48.763672 404.32617 48.763672 C 404.32617 47.528936 404.32422 46.29333 404.32422 45.058594 z M 23.138672 114.43164 C 26.268596 114.43164 28.806641 116.96969 28.806641 120.09961 C 28.806641 123.22953 26.268596 125.76562 23.138672 125.76562 C 20.008748 125.76562 17.472656 123.22953 17.472656 120.09961 C 17.472656 116.96969 20.008748 114.43164 23.138672 114.43164 z M 694.72461 114.43164 C 697.85453 114.43164 700.39258 116.96969 700.39258 120.09961 C 700.39258 123.22953 697.85453 125.76562 694.72461 125.76562 C 691.59469 125.76562 689.05664 123.22953 689.05664 120.09961 C 689.05664 116.96969 691.59469 114.43164 694.72461 114.43164 z M 287.14648 118.56055 C 290.27641 118.56055 292.81445 121.09859 292.81445 124.22852 C 292.81445 127.35844 290.27641 129.89648 287.14648 129.89648 C 284.01656 129.89648 281.47852 127.35844 281.47852 124.22852 C 281.47852 121.09859 284.01656 118.56055 287.14648 118.56055 z M 430.7168 118.56055 C 433.84672 118.56055 436.38281 121.09859 436.38281 124.22852 C 436.38281 127.35844 433.84672 129.89648 430.7168 129.89648 C 427.58687 129.89648 425.04883 127.35844 425.04883 124.22852 C 425.04883 121.09859 427.58687 118.56055 430.7168 118.56055 z "
     transform="matrix(1.0003756,0,0,1.0003756,-0.35059717,0)" />
  <path
     id="path20"
     style="fill:#0000ff;fill-opacity:0.5;stroke:#000000;stroke-width:0.377811;stroke-linecap:butt;stroke-linejoin:miter;stroke-miterlimit:10;stroke-opacity:1"
     d="M 34.544922 3.9667969 C 17.943358 3.966497 4.3186593 17.589842 4.3183594 34.191406 C 4.3179595 59.026177 4.3187592 83.860541 4.3183594 108.69531 C 4.3183594 125.29658 17.941605 138.91972 34.542969 138.91992 C 58.470981 138.92012 82.400113 138.92148 106.32812 138.92188 L 109.04688 138.92188 C 132.06823 138.92207 155.09008 138.92148 178.11133 138.92188 L 180.83203 138.92188 C 203.85338 138.92207 226.87523 138.92343 249.89648 138.92383 L 252.61523 138.92383 L 287.14844 138.92383 L 324.40039 138.92578 C 324.46677 138.92578 324.53343 138.92423 324.59961 138.92383 L 358.93359 138.92383 L 393.26758 138.92383 C 393.33385 138.92423 393.40052 138.92578 393.4668 138.92578 L 430.51562 138.92383 L 430.71875 138.92383 L 465.25 138.92383 L 467.9707 138.92383 C 490.99206 138.92363 514.0139 138.92227 537.03516 138.92188 L 539.75391 138.92188 C 562.77526 138.92168 585.79711 138.92227 608.81836 138.92188 L 611.53906 138.92188 C 635.46707 138.92168 659.39425 138.92032 683.32227 138.91992 C 699.92363 138.91972 713.54688 125.29668 713.54688 108.69531 C 713.54678 83.860541 713.54727 59.026177 713.54688 34.191406 C 713.54658 17.589842 699.92188 3.966497 683.32031 3.9667969 C 659.3923 3.9672967 635.46512 3.9683502 611.53711 3.96875 L 608.81641 3.96875 L 608.8125 3.96875 L 539.75195 3.96875 L 537.03125 3.96875 L 537.02734 3.96875 L 467.96875 3.9707031 C 467.06189 3.9708031 466.15491 3.9707031 465.24805 3.9707031 L 430.71484 3.9707031 L 430.51367 3.9707031 L 358.93164 3.9707031 L 287.15039 3.9707031 L 252.61719 3.9707031 C 251.71033 3.9706032 250.80334 3.9707031 249.89648 3.9707031 L 180.83789 3.96875 L 180.83398 3.96875 L 178.11328 3.96875 L 109.05273 3.96875 L 109.04883 3.96875 L 106.32812 3.96875 C 82.400113 3.9682502 58.472934 3.9671967 34.544922 3.9667969 z M 330.5957 13.001953 C 333.72563 13.001953 336.26367 15.538044 336.26367 18.667969 C 336.26367 21.797893 333.72563 24.335938 330.5957 24.335938 C 327.46578 24.335938 324.92773 21.797893 324.92773 18.667969 C 324.92773 15.538044 327.46578 13.001953 330.5957 13.001953 z M 387.26758 13.001953 C 390.3975 13.001953 392.93555 15.538044 392.93555 18.667969 C 392.93555 21.797893 390.3975 24.335938 387.26758 24.335938 C 384.13765 24.335938 381.59961 21.797893 381.59961 18.667969 C 381.59961 15.538044 384.13765 13.001953 387.26758 13.001953 z M 23.140625 17.121094 C 26.270549 17.121094 28.808594 19.659138 28.808594 22.789062 C 28.808594 25.918987 26.270549 28.455078 23.140625 28.455078 C 20.010701 28.455078 17.472656 25.918987 17.472656 22.789062 C 17.472656 19.659138 20.010701 17.121094 23.140625 17.121094 z M 694.72266 17.121094 C 697.85258 17.121094 700.39062 19.659138 700.39062 22.789062 C 700.39063 25.918987 697.85258 28.455078 694.72266 28.455078 C 691.59273 28.455078 689.05469 25.918987 689.05469 22.789062 C 689.05469 19.659138 691.59273 17.121094 694.72266 17.121094 z M 37.630859 30.412109 L 106.32617 30.414062 L 109.04688 30.414062 L 109.05273 30.414062 L 178.11133 30.416016 L 180.83203 30.416016 L 180.83594 30.416016 L 249.89648 30.416016 C 250.80324 30.416116 251.71043 30.416016 252.61719 30.416016 L 319.19531 30.417969 C 321.59671 32.748293 324.70994 34.348121 328.17773 34.861328 C 328.17763 59.474183 328.17813 84.088317 328.17773 108.70117 C 328.17773 110.78779 326.48505 112.47852 324.39844 112.47852 C 315.78127 112.47832 307.16404 112.47872 298.54688 112.47852 C 295.59908 109.61769 291.57872 107.85547 287.14648 107.85547 C 282.71445 107.85547 278.69389 109.61789 275.74609 112.47852 C 268.03569 112.47842 260.32564 112.47666 252.61523 112.47656 L 249.89453 112.47656 C 226.87318 112.47636 203.85133 112.47696 180.83008 112.47656 L 178.11133 112.47656 C 155.08998 112.47636 132.06813 112.47501 109.04688 112.47461 L 106.32617 112.47461 C 83.427473 112.47441 60.529558 112.47501 37.630859 112.47461 C 36.089238 109.55081 33.687474 107.14914 30.763672 105.60742 L 30.765625 37.279297 C 33.689527 35.737676 36.089138 33.335911 37.630859 30.412109 z M 680.23242 30.414062 C 681.77414 33.337764 684.17385 35.739629 687.09766 37.28125 C 687.09786 60.057394 687.09921 82.833231 687.09961 105.60938 C 684.17591 107.151 681.77404 109.55081 680.23242 112.47461 C 657.33372 112.47481 634.43581 112.47616 611.53711 112.47656 L 608.81641 112.47656 C 585.79505 112.47676 562.77321 112.47616 539.75195 112.47656 L 537.0332 112.47656 C 514.01185 112.47676 490.99 112.47812 467.96875 112.47852 L 465.24805 112.47852 C 457.53764 112.47862 449.82759 112.47842 442.11719 112.47852 C 439.16939 109.61799 435.14883 107.85742 430.7168 107.85742 C 426.28456 107.85742 422.2642 109.61769 419.31641 112.47852 C 410.69924 112.47872 402.08201 112.47842 393.46484 112.47852 C 391.37823 112.47852 389.68555 110.78779 389.68555 108.70117 C 389.68545 84.088317 389.68595 59.476136 389.68555 34.863281 C 393.15258 34.349769 396.26506 32.749819 398.66602 30.419922 L 465.24609 30.417969 C 466.15285 30.417869 467.06004 30.417969 467.9668 30.417969 L 537.02539 30.416016 L 537.03125 30.416016 L 539.75 30.416016 L 608.81055 30.416016 L 608.81445 30.416016 L 611.53516 30.416016 L 680.23242 30.414062 z M 23.138672 114.43164 C 26.268596 114.43164 28.806641 116.96969 28.806641 120.09961 C 28.806641 123.22953 26.268596 125.76562 23.138672 125.76562 C 20.008748 125.76562 17.472656 123.22953 17.472656 120.09961 C 17.472656 116.96969 20.008748 114.43164 23.138672 114.43164 z M 694.72461 114.43164 C 697.85453 114.43164 700.39258 116.96969 700.39258 120.09961 C 700.39258 123.22953 697.85453 125.76562 694.72461 125.76562 C 691.59469 125.76562 689.05664 123.22953 689.05664 120.09961 C 689.05664 116.96969 691.59469 114.43164 694.72461 114.43164 z M 287.14648 118.56055 C 290.27641 118.56055 292.81445 121.09859 292.81445 124.22852 C 292.81445 127.35844 290.27641 129.89648 287.14648 129.89648 C 284.01656 129.89648 281.47852 127.35844 281.47852 124.22852 C 281.47852 121.09859 284.01656 118.56055 287.14648 118.56055 z M 430.7168 118.56055 C 433.84672 118.56055 436.38281 121.09859 436.38281 124.22852 C 436.38281 127.35844 433.84672 129.89648 430.7168 129.89648 C 427.58687 129.89648 425.04883 127.35844 425.04883 124.22852 C 425.04883 121.09859 427.58687 118.56055 430.7168 118.56055 z "
     transform="matrix(1.0003756,0,0,1.0003756,-0.35059717,0)" />
  <g
     stroke-linejoin="miter"
     stroke-opacity="1.0"
     fill-opacity="0.7"
     stroke="rgb(0,0,0)"
     stroke-width="0.37795275590551186"
     fill="rgb(0,0,0)"
     stroke-linecap="butt"
     stroke-miterlimit="10.0"
     id="g26">
    <path
       d="M 36.1894,99.1937 l 0.0010,-55.4457 c 0.0001,-4.1748 3.3844,-7.5590 7.5592 -7.5589l 55.4457,0.0010 c 4.1748,0.0001 7.5590,3.3844 7.5589 7.5592l -0.0010,55.4457 c -0.0001,4.1748 -3.3844,7.5590 -7.5592 7.5589l -55.4457,-0.0010 c -4.1748,-0.0001 -7.5590,-3.3844 -7.5589 -7.5592Z"
       id="path24" />
  </g>
  <defs
     id="defs35">
    <linearGradient
       x2="5.0000"
       y1="0.0000"
       gradientUnits="userSpaceOnUse"
       spreadMethod="pad"
       gradientTransform="matrix(-3.7795,-0.0001,0.0001,-3.7795,71.4717,71.4715)"
       id="gradient12"
       y2="0.0000"
       x1="-5.0000">
      <stop
         stop-opacity="0.1000"
         offset="0.0000"
         stop-color="rgb(0,0,0)"
         id="stop28" />
      <stop
         stop-opacity="0.1000"
         offset="0.5000"
         stop-color="rgb(255,255,255)"
         id="stop30" />
      <stop
         stop-opacity="0.1000"
         offset="1.0000"
         stop-color="rgb(0,0,0)"
         id="stop32" />
    </linearGradient>
  </defs>
  <g
     stroke-linejoin="miter"
     stroke-opacity="1.0"
     fill-opacity="1"
     stroke="rgb(0,0,0)"
     stroke-width="0.37795275590551186"
     fill="url(#gradient12)"
     stroke-linecap="butt"
     stroke-miterlimit="10.0"
     id="g39">
    <path
       d="M 46.9612,88.4223 l 0.0006,-33.9024 c 0.0001,-4.1748 3.3844,-7.5590 7.5592 -7.5589l 33.9024,0.0006 c 4.1748,0.0001 7.5590,3.3844 7.5589 7.5592l -0.0006,33.9024 c -0.0001,4.1748 -3.3844,7.5590 -7.5592 7.5589l -33.9024,-0.0006 c -4.1748,-0.0001 -7.5590,-3.3844 -7.5589 -7.5592Z"
       id="path37" />
  </g>
  <g
     stroke-linejoin="miter"
     stroke-opacity="1.0"
     fill-opacity="0.7"
     stroke="rgb(0,0,0)"
     stroke-width="0.37795275590551186"
     fill="rgb(0,0,0)"
     stroke-linecap="butt"
     stroke-miterlimit="10.0"
     id="g43">
    <path
       d="M 108.0004,99.1950 l 0.0010,-55.4457 c 0.0001,-4.1748 3.3844,-7.5590 7.5592 -7.5589l 55.4457,0.0010 c 4.1748,0.0001 7.5590,3.3844 7.5589 7.5592l -0.0010,55.4457 c -0.0001,4.1748 -3.3844,7.5590 -7.5592 7.5589l -55.4457,-0.0010 c -4.1748,-0.0001 -7.5590,-3.3844 -7.5589 -7.5592Z"
       id="path41" />
  </g>
  <defs
     id="defs52">
    <linearGradient
       x2="5.0000"
       y1="0.0000"
       gradientUnits="userSpaceOnUse"
       spreadMethod="pad"
       gradientTransform="matrix(-3.7795,-0.0001,0.0001,-3.7795,143.2828,71.4728)"
       id="gradient16"
       y2="0.0000"
       x1="-5.0000">
      <stop
         stop-opacity="0.1000"
         offset="0.0000"
         stop-color="rgb(0,0,0)"
         id="stop45" />
      <stop
         stop-opacity="0.1000"
         offset="0.5000"
         stop-color="rgb(255,255,255)"
         id="stop47" />
      <stop
         stop-opacity="0.1000"
         offset="1.0000"
         stop-color="rgb(0,0,0)"
         id="stop49" />
    </linearGradient>
  </defs>
  <g
     stroke-linejoin="miter"
     stroke-opacity="1.0"
     fill-opacity="1"
     stroke="rgb(0,0,0)"
     stroke-width="0.37795275590551186"
     fill="url(#gradient16)"
     stroke-linecap="butt"
     stroke-miterlimit="10.0"
     id="g56">
    <path
       d="M 118.7722,88.4235 l 0.0006,-33.9024 c 0.0001,-4.1748 3.3844,-7.5590 7.5592 -7.5589l 33.9024,0.0006 c 4.1748,0.0001 7.5590,3.3844 7.5589 7.5592l -0.0006,33.9024 c -0.0001,4.1748 -3.3844,7.5590 -7.5592 7.5589l -33.9024,-0.0006 c -4.1748,-0.0001 -7.5590,-3.3844 -7.5589 -7.5592Z"
       id="path54" />
  </g>
  <g
     stroke-linejoin="miter"
     stroke-opacity="1.0"
     fill-opacity="0.7"
     stroke="rgb(0,0,0)"
     stroke-width="0.37795275590551186"
     fill="rgb(0,0,0)"
     stroke-linecap="butt"
     stroke-miterlimit="10.0"
     id="g60">
    <path
       d="M 179.8114,99.1962 l 0.0010,-55.4457 c 0.0001,-4.1748 3.3844,-7.5590 7.5592 -7.5589l 55.4457,0.0010 c 4.1748,0.0001 7.5590,3.3844 7.5589 7.5592l -0.0010,55.4457 c -0.0001,4.1748 -3.3844,7.5590 -7.5592 7.5589l -55.4457,-0.0010 c -4.1748,-0.0001 -7.5590,-3.3844 -7.5589 -7.5592Z"
       id="path58" />
  </g>
  <defs
     id="defs69">
    <linearGradient
       x2="5.0000"
       y1="0.0000"
       gradientUnits="userSpaceOnUse"
       spreadMethod="pad"
       gradientTransform="matrix(-3.7795,-0.0001,0.0001,-3.7795,215.0938,71.4740)"
       id="gradient20"
       y2="0.0000"
       x1="-5.0000">
      <stop
         stop-opacity="0.1000"
         offset="0.0000"
         stop-color="rgb(0,0,0)"
         id="stop62" />
      <stop
         stop-opacity="0.1000"
         offset="0.5000"
         stop-color="rgb(255,255,255)"
         id="stop64" />
      <stop
         stop-opacity="0.1000"
         offset="1.0000"
         stop-color="rgb(0,0,0)"
         id="stop66" />
    </linearGradient>
  </defs>
  <g
     stroke-linejoin="miter"
     stroke-opacity="1.0"
     fill-opacity="1"
     stroke="rgb(0,0,0)"
     stroke-width="0.37795275590551186"
     fill="url(#gradient20)"
     stroke-linecap="butt"
     stroke-miterlimit="10.0"
     id="g73">
    <path
       d="M 190.5833,88.4248 l 0.0006,-33.9024 c 0.0001,-4.1748 3.3844,-7.5590 7.5592 -7.5589l 33.9024,0.0006 c 4.1748,0.0001 7.5590,3.3844 7.5589 7.5592l -0.0006,33.9024 c -0.0001,4.1748 -3.3844,7.5590 -7.5592 7.5589l -33.9024,-0.0006 c -4.1748,-0.0001 -7.5590,-3.3844 -7.5589 -7.5592Z"
       id="path71" />
  </g>
  <g
     stroke-linejoin="miter"
     stroke-opacity="1.0"
     fill-opacity="0.7"
     stroke="rgb(0,0,0)"
     stroke-width="0.37795275590551186"
     fill="rgb(0,0,0)"
     stroke-linecap="butt"
     stroke-miterlimit="10.0"
     id="g77">
    <path
       d="M 251.6224,99.1975 l 0.0010,-55.4457 c 0.0001,-4.1748 3.3844,-7.5590 7.5592 -7.5589l 55.4457,0.0010 c 4.1748,0.0001 7.5590,3.3844 7.5589 7.5592l -0.0010,55.4457 c -0.0001,4.1748 -3.3844,7.5590 -7.5592 7.5589l -55.4457,-0.0010 c -4.1748,-0.0001 -7.5590,-3.3844 -7.5589 -7.5592Z"
       id="path75" />
  </g>
  <defs
     id="defs86">
    <linearGradient
       x2="5.0000"
       y1="0.0000"
       gradientUnits="userSpaceOnUse"
       spreadMethod="pad"
       gradientTransform="matrix(-3.7795,-0.0001,0.0001,-3.7795,286.9048,71.4753)"
       id="gradient24"
       y2="0.0000"
       x1="-5.0000">
      <stop
         stop-opacity="0.1000"
         offset="0.0000"
         stop-color="rgb(0,0,0)"
         id="stop79" />
      <stop
         stop-opacity="0.1000"
         offset="0.5000"
         stop-color="rgb(255,255,255)"
         id="stop81" />
      <stop
         stop-opacity="0.1000"
         offset="1.0000"
         stop-color="rgb(0,0,0)"
         id="stop83" />
    </linearGradient>
  </defs>
  <g
     stroke-linejoin="miter"
     stroke-opacity="1.0"
     fill-opacity="1"
     stroke="rgb(0,0,0)"
     stroke-width="0.37795275590551186"
     fill="url(#gradient24)"
     stroke-linecap="butt"
     stroke-miterlimit="10.0"
     id="g90">
    <path
       d="M 262.3943,88.4260 l 0.0006,-33.9024 c 0.0001,-4.1748 3.3844,-7.5590 7.5592 -7.5589l 33.9024,0.0006 c 4.1748,0.0001 7.5590,3.3844 7.5589 7.5592l -0.0006,33.9024 c -0.0001,4.1748 -3.3844,7.5590 -7.5592 7.5589l -33.9024,-0.0006 c -4.1748,-0.0001 -7.5590,-3.3844 -7.5589 -7.5592Z"
       id="path88" />
  </g>
  <g
     stroke-linejoin="miter"
     stroke-opacity="1.0"
     fill-opacity="0.7"
     stroke="rgb(0,0,0)"
     stroke-width="0.37795275590551186"
     fill="rgb(0,0,0)"
     stroke-linecap="butt"
     stroke-miterlimit="10.0"
     id="g94">
    <path
       d="M 681.2423,99.1937 l -0.0010,-55.4457 c -0.0001,-4.1748 -3.3844,-7.5590 -7.5592 -7.5589l -55.4457,0.0010 c -4.1748,0.0001 -7.5590,3.3844 -7.5589 7.5592l 0.0010,55.4457 c 0.0001,4.1748 3.3844,7.5590 7.5592 7.5589l 55.4457,-0.0010 c 4.1748,-0.0001 7.5590,-3.3844 7.5589 -7.5592Z"
       id="path92" />
  </g>
  <defs
     id="defs103">
    <linearGradient
       x2="5.0000"
       y1="0.0000"
       gradientUnits="userSpaceOnUse"
       spreadMethod="pad"
       gradientTransform="matrix(3.7795,-0.0001,-0.0001,-3.7795,645.9599,71.4715)"
       id="gradient28"
       y2="0.0000"
       x1="-5.0000">
      <stop
         stop-opacity="0.1000"
         offset="0.0000"
         stop-color="rgb(0,0,0)"
         id="stop96" />
      <stop
         stop-opacity="0.1000"
         offset="0.5000"
         stop-color="rgb(255,255,255)"
         id="stop98" />
      <stop
         stop-opacity="0.1000"
         offset="1.0000"
         stop-color="rgb(0,0,0)"
         id="stop100" />
    </linearGradient>
  </defs>
  <g
     stroke-linejoin="miter"
     stroke-opacity="1.0"
     fill-opacity="1"
     stroke="rgb(0,0,0)"
     stroke-width="0.37795275590551186"
     fill="url(#gradient28)"
     stroke-linecap="butt"
     stroke-miterlimit="10.0"
     id="g107">
    <path
       d="M 670.4705,88.4223 l -0.0006,-33.9024 c -0.0001,-4.1748 -3.3844,-7.5590 -7.5592 -7.5589l -33.9024,0.0006 c -4.1748,0.0001 -7.5590,3.3844 -7.5589 7.5592l 0.0006,33.9024 c 0.0001,4.1748 3.3844,7.5590 7.5592 7.5589l 33.9024,-0.0006 c 4.1748,-0.0001 7.5590,-3.3844 7.5589 -7.5592Z"
       id="path105" />
  </g>
  <g
     stroke-linejoin="miter"
     stroke-opacity="1.0"
     fill-opacity="0.7"
     stroke="rgb(0,0,0)"
     stroke-width="0.37795275590551186"
     fill="rgb(0,0,0)"
     stroke-linecap="butt"
     stroke-miterlimit="10.0"
     id="g111">
    <path
       d="M 609.4313,99.1950 l -0.0010,-55.4457 c -0.0001,-4.1748 -3.3844,-7.5590 -7.5592 -7.5589l -55.4457,0.0010 c -4.1748,0.0001 -7.5590,3.3844 -7.5589 7.5592l 0.0010,55.4457 c 0.0001,4.1748 3.3844,7.5590 7.5592 7.5589l 55.4457,-0.0010 c 4.1748,-0.0001 7.5590,-3.3844 7.5589 -7.5592Z"
       id="path109" />
  </g>
  <defs
     id="defs120">
    <linearGradient
       x2="5.0000"
       y1="0.0000"
       gradientUnits="userSpaceOnUse"
       spreadMethod="pad"
       gradientTransform="matrix(3.7795,-0.0001,-0.0001,-3.7795,574.1489,71.4728)"
       id="gradient32"
       y2="0.0000"
       x1="-5.0000">
      <stop
         stop-opacity="0.1000"
         offset="0.0000"
         stop-color="rgb(0,0,0)"
         id="stop113" />
      <stop
         stop-opacity="0.1000"
         offset="0.5000"
         stop-color="rgb(255,255,255)"
         id="stop115" />
      <stop
         stop-opacity="0.1000"
         offset="1.0000"
         stop-color="rgb(0,0,0)"
         id="stop117" />
    </linearGradient>
  </defs>
  <g
     stroke-linejoin="miter"
     stroke-opacity="1.0"
     fill-opacity="1"
     stroke="rgb(0,0,0)"
     stroke-width="0.37795275590551186"
     fill="url(#gradient32)"
     stroke-linecap="butt"
     stroke-miterlimit="10.0"
     id="g124">
    <path
       d="M 598.6594,88.4235 l -0.0006,-33.9024 c -0.0001,-4.1748 -3.3844,-7.5590 -7.5592 -7.5589l -33.9024,0.0006 c -4.1748,0.0001 -7.5590,3.3844 -7.5589 7.5592l 0.0006,33.9024 c 0.0001,4.1748 3.3844,7.5590 7.5592 7.5589l 33.9024,-0.0006 c 4.1748,-0.0001 7.5590,-3.3844 7.5589 -7.5592Z"
       id="path122" />
  </g>
  <g
     stroke-linejoin="miter"
     stroke-opacity="1.0"
     fill-opacity="0.7"
     stroke="rgb(0,0,0)"
     stroke-width="0.37795275590551186"
     fill="rgb(0,0,0)"
     stroke-linecap="butt"
     stroke-miterlimit="10.0"
     id="g128">
    <path
       d="M 537.6203,99.1962 l -0.0010,-55.4457 c -0.0001,-4.1748 -3.3844,-7.5590 -7.5592 -7.5589l -55.4457,0.0010 c -4.1748,0.0001 -7.5590,3.3844 -7.5589 7.5592l 0.0010,55.4457 c 0.0001,4.1748 3.3844,7.5590 7.5592 7.5589l 55.4457,-0.0010 c 4.1748,-0.0001 7.5590,-3.3844 7.5589 -7.5592Z"
       id="path126" />
  </g>
  <defs
     id="defs137">
    <linearGradient
       x2="5.0000"
       y1="0.0000"
       gradientUnits="userSpaceOnUse"
       spreadMethod="pad"
       gradientTransform="matrix(3.7795,-0.0001,-0.0001,-3.7795,502.3379,71.4740)"
       id="gradient36"
       y2="0.0000"
       x1="-5.0000">
      <stop
         stop-opacity="0.1000"
         offset="0.0000"
         stop-color="rgb(0,0,0)"
         id="stop130" />
      <stop
         stop-opacity="0.1000"
         offset="0.5000"
         stop-color="rgb(255,255,255)"
         id="stop132" />
      <stop
         stop-opacity="0.1000"
         offset="1.0000"
         stop-color="rgb(0,0,0)"
         id="stop134" />
    </linearGradient>
  </defs>
  <g
     stroke-linejoin="miter"
     stroke-opacity="1.0"
     fill-opacity="1"
     stroke="rgb(0,0,0)"
     stroke-width="0.37795275590551186"
     fill="url(#gradient36)"
     stroke-linecap="butt"
     stroke-miterlimit="10.0"
     id="g141">
    <path
       d="M 526.8484,88.4248 l -0.0006,-33.9024 c -0.0001,-4.1748 -3.3844,-7.5590 -7.5592 -7.5589l -33.9024,0.0006 c -4.1748,0.0001 -7.5590,3.3844 -7.5589 7.5592l 0.0006,33.9024 c 0.0001,4.1748 3.3844,7.5590 7.5592 7.5589l 33.9024,-0.0006 c 4.1748,-0.0001 7.5590,-3.3844 7.5589 -7.5592Z"
       id="path139" />
  </g>
  <g
     stroke-linejoin="miter"
     stroke-opacity="1.0"
     fill-opacity="0.7"
     stroke="rgb(0,0,0)"
     stroke-width="0.37795275590551186"
     fill="rgb(0,0,0)"
     stroke-linecap="butt"
     stroke-miterlimit="10.0"
     id="g145">
    <path
       d="M 465.8092,99.1975 l -0.0010,-55.4457 c -0.0001,-4.1748 -3.3844,-7.5590 -7.5592 -7.5589l -55.4457,0.0010 c -4.1748,0.0001 -7.5590,3.3844 -7.5589 7.5592l 0.0010,55.4457 c 0.0001,4.1748 3.3844,7.5590 7.5592 7.5589l 55.4457,-0.0010 c 4.1748,-0.0001 7.5590,-3.3844 7.5589 -7.5592Z"
       id="path143" />
  </g>
  <defs
     id="defs154">
    <linearGradient
       x2="5.0000"
       y1="0.0000"
       gradientUnits="userSpaceOnUse"
       spreadMethod="pad"
       gradientTransform="matrix(3.7795,-0.0001,-0.0001,-3.7795,430.5269,71.4753)"
       id="gradient40"
       y2="0.0000"
       x1="-5.0000">
      <stop
         stop-opacity="0.1000"
         offset="0.0000"
         stop-color="rgb(0,0,0)"
         id="stop147" />
      <stop
         stop-opacity="0.1000"
         offset="0.5000"
         stop-color="rgb(255,255,255)"
         id="stop149" />
      <stop
         stop-opacity="0.1000"
         offset="1.0000"
         stop-color="rgb(0,0,0)"
         id="stop151" />
    </linearGradient>
  </defs>
  <g
     stroke-linejoin="miter"
     stroke-opacity="1.0"
     fill-opacity="1"
     stroke="rgb(0,0,0)"
     stroke-width="0.37795275590551186"
     fill="url(#gradient40)"
     stroke-linecap="butt"
     stroke-miterlimit="10.0"
     id="g158">
    <path
       d="M 455.0374,88.4260 l -0.0006,-33.9024 c -0.0001,-4.1748 -3.3844,-7.5590 -7.5592 -7.5589l -33.9024,0.0006 c -4.1748,0.0001 -7.5590,3.3844 -7.5589 7.5592l 0.0006,33.9024 c 0.0001,4.1748 3.3844,7.5590 7.5592 7.5589l 33.9024,-0.0006 c 4.1748,-0.0001 7.5590,-3.3844 7.5589 -7.5592Z"
       id="path156" />
  </g>
  <g
     stroke-linejoin="miter"
     stroke-opacity="1.0"
     fill-opacity="0.7"
     stroke="rgb(0,0,0)"
     stroke-width="0.37795275590551186"
     fill="rgb(0,0,0)"
     stroke-linecap="butt"
     stroke-miterlimit="10.0"
     id="g162">
    <path
       d="M 15.1614,36.0252 l -7.6374,-13.2283 l 7.6374,-13.2283 l 15.2748,-0.0000 l 7.6374,13.2283 l -7.6374,13.2283 Z"
       id="path160" />
  </g>
  <g
     stroke-linejoin="miter"
     stroke-opacity="1.0"
     fill-opacity="0.7"
     stroke="rgb(0,0,0)"
     stroke-width="0.37795275590551186"
     fill="rgb(0,0,0)"
     stroke-linecap="butt"
     stroke-miterlimit="10.0"
     id="g166">
    <path
       d="M 322.7320,31.9036 l -7.6374,-13.2283 l 7.6374,-13.2283 l 15.2748,-0.0000 l 7.6374,13.2283 l -7.6374,13.2283 Z"
       id="path164" />
  </g>
  <g
     stroke-linejoin="miter"
     stroke-opacity="1.0"
     fill-opacity="0.7"
     stroke="rgb(0,0,0)"
     stroke-width="0.37795275590551186"
     fill="rgb(0,0,0)"
     stroke-linecap="butt"
     stroke-miterlimit="10.0"
     id="g170">
    <path
       d="M 15.1597,133.3728 l -7.6374,-13.2283 l 7.6374,-13.2283 l 15.2748,-0.0000 l 7.6374,13.2283 l -7.6374,13.2283 Z"
       id="path168" />
  </g>
  <g
     stroke-linejoin="miter"
     stroke-opacity="1.0"
     fill-opacity="0.7"
     stroke="rgb(0,0,0)"
     stroke-width="0.37795275590551186"
     fill="rgb(0,0,0)"
     stroke-linecap="butt"
     stroke-miterlimit="10.0"
     id="g174">
    <path
       d="M 279.2665,137.5036 l -7.6374,-13.2283 l 7.6374,-13.2283 l 15.2748,-0.0000 l 7.6374,13.2283 l -7.6374,13.2283 Z"
       id="path172" />
  </g>
  <g
     stroke-linejoin="miter"
     stroke-opacity="1.0"
     fill-opacity="0.7"
     stroke="rgb(0,0,0)"
     stroke-width="0.37795275590551186"
     fill="rgb(0,0,0)"
     stroke-linecap="butt"
     stroke-miterlimit="10.0"
     id="g178">
    <path
       d="M 702.2703,36.0252 l 7.6374,-13.2283 l -7.6374,-13.2283 l -15.2748,-0.0000 l -7.6374,13.2283 l 7.6374,13.2283 Z"
       id="path176" />
  </g>
  <g
     stroke-linejoin="miter"
     stroke-opacity="1.0"
     fill-opacity="0.7"
     stroke="rgb(0,0,0)"
     stroke-width="0.37795275590551186"
     fill="rgb(0,0,0)"
     stroke-linecap="butt"
     stroke-miterlimit="10.0"
     id="g182">
    <path
       d="M 394.6997,31.9036 l 7.6374,-13.2283 l -7.6374,-13.2283 l -15.2748,-0.0000 l -7.6374,13.2283 l 7.6374,13.2283 Z"
       id="path180" />
  </g>
  <g
     stroke-linejoin="miter"
     stroke-opacity="1.0"
     fill-opacity="0.7"
     stroke="rgb(0,0,0)"
     stroke-width="0.37795275590551186"
     fill="rgb(0,0,0)"
     stroke-linecap="butt"
     stroke-miterlimit="10.0"
     id="g186">
    <path
       d="M 702.2720,133.3728 l 7.6374,-13.2283 l -7.6374,-13.2283 l -15.2748,-0.0000 l -7.6374,13.2283 l 7.6374,13.2283 Z"
       id="path184" />
  </g>
  <g
     stroke-linejoin="miter"
     stroke-opacity="1.0"
     fill-opacity="0.7"
     stroke="rgb(0,0,0)"
     stroke-width="0.37795275590551186"
     fill="rgb(0,0,0)"
     stroke-linecap="butt"
     stroke-miterlimit="10.0"
     id="g190">
    <path
       d="M 438.1652,137.5036 l 7.6374,-13.2283 l -7.6374,-13.2283 l -15.2748,-0.0000 l -7.6374,13.2283 l 7.6374,13.2283 Z"
       id="path188" />
  </g>
</svg>
