<?xml version="1.0" encoding="UTF-8"?>
<!DOCTYPE svg PUBLIC "-//W3C//DTD SVG 1.1//EN"
    "http://www.w3.org/Graphics/SVG/1.1/DTD/svg11.dtd"><svg xmlns="http://www.w3.org/2000/svg" height="1962.8378" stroke-opacity="1" viewBox="0 0 1166 1963" font-size="1" width="1166.1644" xmlns:xlink="http://www.w3.org/1999/xlink" stroke="rgb(0,0,0)" version="1.1"><defs></defs><defs><linearGradient x2="76.6119" y1="0.0000" gradientUnits="userSpaceOnUse" spreadMethod="pad" gradientTransform="matrix(3.7795,-0.0000,0.0000,-3.7795,583.0822,1862.3615)" id="gradient0" y2="0.0000" x1="-76.6119"><stop stop-opacity="1.0000" offset="0.0000" stop-color="rgb(128,128,128)"/><stop stop-opacity="1.0000" offset="0.5000" stop-color="rgb(255,255,255)"/><stop stop-opacity="1.0000" offset="1.0000" stop-color="rgb(128,128,128)"/></linearGradient></defs><g stroke-linejoin="miter" stroke-opacity="1.0" fill-opacity="1" stroke="rgb(0,0,0)" stroke-width="0.37795275590551186" fill="url(#gradient0)" stroke-linecap="butt" stroke-miterlimit="10.0"><path d="M 3.9685,1800.1904 c 0.0000,-0.9434 0.0818,-1.8985 0.2507 -2.8566c 17.6023,-99.8275 35.2046,-199.6550 52.8069 -299.4825c 1.3802,-7.8273 8.1810,-13.5339 16.1291 -13.5339c 169.9756,-0.0000 339.9513,-0.0000 509.9269 -0.0000c 169.9756,-0.0000 339.9513,-0.0000 509.9269 -0.0000c 7.9481,-0.0000 14.7490,5.7066 16.1291 13.5339c 17.6023,99.8275 35.2046,199.6550 52.8069 299.4825c 0.1689,0.9581 0.2507,1.9131 0.2507 2.8566c 0.0000,7.1382 -4.6831,13.6111 -11.7426 15.6952c -160.6856,47.4378 -321.3712,94.8757 -482.0567 142.3136c -1.5057,0.4445 -3.0674,0.6702 -4.6373 0.6702c -26.8923,-0.0000 -53.7847,-0.0000 -80.6771 -0.0000c -26.8924,-0.0000 -53.7847,-0.0000 -80.6771 -0.0000c -1.5699,-0.0000 -3.1316,-0.2257 -4.6373 -0.6702c -160.6856,-47.4378 -321.3712,-94.8757 -482.0567 -142.3136c -7.0595,-2.0841 -11.7426,-8.5570 -11.7426 -15.6952ZM 18.4586,1796.3983 c 0.0000,3.1311 2.5382,5.6693 5.6693 5.6693c 3.1311,-0.0000 5.6693,-2.5382 5.6693 -5.6693c 0.0000,-3.1311 -2.5383,-5.6693 -5.6693 -5.6693c -3.1311,-0.0000 -5.6693,2.5383 -5.6693 5.6693ZM 71.2655,1504.4748 c 0.0000,3.1311 2.5382,5.6693 5.6693 5.6693c 3.1311,-0.0000 5.6693,-2.5382 5.6693 -5.6693c 0.0000,-3.1311 -2.5383,-5.6693 -5.6693 -5.6693c -3.1311,-0.0000 -5.6693,2.5383 -5.6693 5.6693ZM 496.7358,1938.7119 c 0.0000,3.1311 2.5382,5.6693 5.6693 5.6693c 3.1311,-0.0000 5.6693,-2.5383 5.6693 -5.6693c 0.0000,-3.1311 -2.5382,-5.6693 -5.6693 -5.6693c -3.1311,-0.0000 -5.6693,2.5382 -5.6693 5.6693ZM 501.8223,1504.4748 c 0.0000,3.1311 2.5383,5.6693 5.6693 5.6693c 3.1311,-0.0000 5.6693,-2.5382 5.6693 -5.6693c 0.0000,-3.1311 -2.5382,-5.6693 -5.6693 -5.6693c -3.1311,-0.0000 -5.6693,2.5383 -5.6693 5.6693ZM 653.0035,1504.4748 c 0.0000,3.1311 2.5382,5.6693 5.6693 5.6693c 3.1311,-0.0000 5.6693,-2.5382 5.6693 -5.6693c 0.0000,-3.1311 -2.5383,-5.6693 -5.6693 -5.6693c -3.1311,-0.0000 -5.6693,2.5383 -5.6693 5.6693ZM 658.0900,1938.7119 c 0.0000,3.1311 2.5382,5.6693 5.6693 5.6693c 3.1311,-0.0000 5.6693,-2.5383 5.6693 -5.6693c 0.0000,-3.1311 -2.5382,-5.6693 -5.6693 -5.6693c -3.1311,-0.0000 -5.6693,2.5382 -5.6693 5.6693ZM 1083.5603,1504.4748 c 0.0000,3.1311 2.5383,5.6693 5.6693 5.6693c 3.1311,-0.0000 5.6693,-2.5382 5.6693 -5.6693c 0.0000,-3.1311 -2.5382,-5.6693 -5.6693 -5.6693c -3.1311,-0.0000 -5.6693,2.5383 -5.6693 5.6693ZM 1136.3671,1796.3983 c 0.0000,3.1311 2.5383,5.6693 5.6693 5.6693c 3.1311,-0.0000 5.6693,-2.5382 5.6693 -5.6693c 0.0000,-3.1311 -2.5382,-5.6693 -5.6693 -5.6693c -3.1311,-0.0000 -5.6693,2.5383 -5.6693 5.6693Z"/></g><g stroke-linejoin="miter" stroke-opacity="1.0" fill-opacity="0.5" stroke="rgb(0,0,0)" stroke-width="0.37795275590551186" fill="rgb(255,255,0)" stroke-linecap="butt" stroke-miterlimit="10.0"><path d="M 3.9685,1306.7408 c 0.0000,-0.9434 0.0818,-1.8985 0.2507 -2.8566c 17.6023,-99.8275 35.2046,-199.6550 52.8069 -299.4825c 1.3802,-7.8273 8.1810,-13.5339 16.1291 -13.5339c 169.9756,-0.0000 339.9513,-0.0000 509.9269 -0.0000c 169.9756,-0.0000 339.9513,-0.0000 509.9269 -0.0000c 7.9481,-0.0000 14.7490,5.7066 16.1291 13.5339c 17.6023,99.8275 35.2046,199.6550 52.8069 299.4825c 0.1689,0.9581 0.2507,1.9131 0.2507 2.8566c 0.0000,7.1382 -4.6831,13.6111 -11.7426 15.6952c -160.6856,47.4378 -321.3712,94.8757 -482.0567 142.3136c -1.5057,0.4445 -3.0674,0.6702 -4.6373 0.6702c -26.8923,-0.0000 -53.7847,-0.0000 -80.6771 -0.0000c -26.8924,-0.0000 -53.7847,-0.0000 -80.6771 -0.0000c -1.5699,-0.0000 -3.1316,-0.2257 -4.6373 -0.6702c -160.6856,-47.4378 -321.3712,-94.8757 -482.0567 -142.3136c -7.0595,-2.0841 -11.7426,-8.5570 -11.7426 -15.6952ZM 18.4586,1302.9487 c 0.0000,3.1311 2.5382,5.6693 5.6693 5.6693c 3.1311,-0.0000 5.6693,-2.5382 5.6693 -5.6693c 0.0000,-3.1311 -2.5383,-5.6693 -5.6693 -5.6693c -3.1311,-0.0000 -5.6693,2.5383 -5.6693 5.6693ZM 28.6551,1287.2044 c 6.8433,1.9642 11.8508,8.2695 11.8508 15.7442c 0.0000,3.8451 -1.3250,7.3807 -3.5435 10.1752c 0.3166,0.1091 0.6386,0.2093 0.9661 0.3003c 149.8722,41.6477 299.7443,83.2953 449.6165 124.9431c 2.6028,-5.6001 8.2781,-9.4829 14.8602 -9.4829c 8.1884,-0.0000 14.9733,6.0092 16.1853 13.8582c 21.4972,-0.0000 42.9945,-0.0000 64.4918 -0.0000c 21.4973,-0.0000 42.9945,-0.0000 64.4918 -0.0000c 1.2119,-7.8491 7.9969,-13.8582 16.1853 -13.8582c 6.5821,-0.0000 12.2574,3.8828 14.8602 9.4829c 149.8722,-41.6477 299.7443,-83.2954 449.6165 -124.9431c 0.3274,-0.0910 0.6495,-0.1912 0.9661 -0.3003c -2.2184,-2.7945 -3.5435,-6.3301 -3.5435 -10.1752c 0.0000,-7.4748 5.0074,-13.7800 11.8508 -15.7442c -16.2228,-86.6020 -32.4455,-173.2038 -48.6683 -259.8058c -8.0136,-0.1866 -14.6039,-6.1292 -15.7966 -13.8537c -0.0011,-0.0000 -0.0021,-0.0000 -0.0031 -0.0000c -132.7277,-0.0000 -265.4554,-0.0000 -398.1832 -0.0000c -1.2119,7.8491 -7.9969,13.8582 -16.1853 13.8582c -8.1884,-0.0000 -14.9733,-6.0092 -16.1853 -13.8582c -19.8018,-0.0000 -39.6035,-0.0000 -59.4053 -0.0000c -19.8017,-0.0000 -39.6035,-0.0000 -59.4053 -0.0000c -1.2119,7.8491 -7.9969,13.8582 -16.1853 13.8582c -8.1884,-0.0000 -14.9733,-6.0092 -16.1853 -13.8582c -132.7278,-0.0000 -265.4555,-0.0000 -398.1832 -0.0000c -0.0010,-0.0000 -0.0020,-0.0000 -0.0031 -0.0000c -1.1927,7.7245 -7.7830,13.6671 -15.7966 13.8537c -16.2228,86.6020 -32.4455,173.2039 -48.6683 259.8058ZM 71.2655,1011.0252 c 0.0000,3.1311 2.5382,5.6693 5.6693 5.6693c 3.1311,-0.0000 5.6693,-2.5382 5.6693 -5.6693c 0.0000,-3.1311 -2.5383,-5.6693 -5.6693 -5.6693c -3.1311,-0.0000 -5.6693,2.5383 -5.6693 5.6693ZM 496.7358,1445.2623 c 0.0000,3.1311 2.5382,5.6693 5.6693 5.6693c 3.1311,-0.0000 5.6693,-2.5383 5.6693 -5.6693c 0.0000,-3.1311 -2.5382,-5.6693 -5.6693 -5.6693c -3.1311,-0.0000 -5.6693,2.5382 -5.6693 5.6693ZM 501.8223,1011.0252 c 0.0000,3.1311 2.5383,5.6693 5.6693 5.6693c 3.1311,-0.0000 5.6693,-2.5382 5.6693 -5.6693c 0.0000,-3.1311 -2.5382,-5.6693 -5.6693 -5.6693c -3.1311,-0.0000 -5.6693,2.5383 -5.6693 5.6693ZM 653.0035,1011.0252 c 0.0000,3.1311 2.5382,5.6693 5.6693 5.6693c 3.1311,-0.0000 5.6693,-2.5382 5.6693 -5.6693c 0.0000,-3.1311 -2.5383,-5.6693 -5.6693 -5.6693c -3.1311,-0.0000 -5.6693,2.5383 -5.6693 5.6693ZM 658.0900,1445.2623 c 0.0000,3.1311 2.5382,5.6693 5.6693 5.6693c 3.1311,-0.0000 5.6693,-2.5383 5.6693 -5.6693c 0.0000,-3.1311 -2.5382,-5.6693 -5.6693 -5.6693c -3.1311,-0.0000 -5.6693,2.5382 -5.6693 5.6693ZM 1083.5603,1011.0252 c 0.0000,3.1311 2.5383,5.6693 5.6693 5.6693c 3.1311,-0.0000 5.6693,-2.5382 5.6693 -5.6693c 0.0000,-3.1311 -2.5382,-5.6693 -5.6693 -5.6693c -3.1311,-0.0000 -5.6693,2.5383 -5.6693 5.6693ZM 1136.3671,1302.9487 c 0.0000,3.1311 2.5383,5.6693 5.6693 5.6693c 3.1311,-0.0000 5.6693,-2.5382 5.6693 -5.6693c 0.0000,-3.1311 -2.5382,-5.6693 -5.6693 -5.6693c -3.1311,-0.0000 -5.6693,2.5383 -5.6693 5.6693Z"/></g><g stroke-linejoin="miter" stroke-opacity="1.0" fill-opacity="0.5" stroke="rgb(0,0,0)" stroke-width="0.37795275590551186" fill="rgb(0,0,0)" stroke-linecap="butt" stroke-miterlimit="10.0"><path d="M 3.9685,813.2911 c 0.0000,-0.9434 0.0818,-1.8985 0.2507 -2.8566c 17.6023,-99.8275 35.2046,-199.6550 52.8069 -299.4825c 1.3802,-7.8273 8.1810,-13.5339 16.1291 -13.5339c 169.9756,-0.0000 339.9513,-0.0000 509.9269 -0.0000c 169.9756,-0.0000 339.9513,-0.0000 509.9269 -0.0000c 7.9481,-0.0000 14.7490,5.7066 16.1291 13.5339c 17.6023,99.8275 35.2046,199.6550 52.8069 299.4825c 0.1689,0.9581 0.2507,1.9131 0.2507 2.8566c 0.0000,7.1382 -4.6831,13.6111 -11.7426 15.6952c -45.5665,13.4522 -91.1330,26.9044 -136.6995 40.3566c 1.6097,5.4099 3.2195,10.8198 4.8292 16.2297c 0.0535,0.1797 0.0790,0.3612 0.0790 0.5397c 0.0000,0.8145 -0.5308,1.5663 -1.3513 1.8105c -21.1316,6.2878 -42.2632,12.5756 -63.3948 18.8634c -1.0003,0.2976 -2.0526,-0.2720 -2.3502 -1.2723c -1.6240,-5.4578 -3.2480,-10.9156 -4.8720 -16.3734c -92.7657,27.3864 -185.5314,54.7729 -278.2971 82.1593c -1.5057,0.4445 -3.0674,0.6702 -4.6373 0.6702c -26.8923,-0.0000 -53.7847,-0.0000 -80.6771 -0.0000c -26.8924,-0.0000 -53.7847,-0.0000 -80.6771 -0.0000c -1.5699,-0.0000 -3.1316,-0.2257 -4.6373 -0.6702c -92.7657,-27.3864 -185.5314,-54.7729 -278.2971 -82.1593c -1.6240,5.4578 -3.2480,10.9156 -4.8720 16.3734c -0.2976,1.0003 -1.3499,1.5700 -2.3502 1.2723c -21.1316,-6.2878 -42.2632,-12.5756 -63.3948 -18.8634c -0.8205,-0.2442 -1.3513,-0.9960 -1.3513 -1.8105c 0.0000,-0.1785 0.0255,-0.3600 0.0790 -0.5397c 1.6097,-5.4099 3.2195,-10.8198 4.8292 -16.2297c -45.5665,-13.4522 -91.1330,-26.9044 -136.6995 -40.3566c -7.0595,-2.0841 -11.7426,-8.5570 -11.7426 -15.6952ZM 18.4586,809.4991 c 0.0000,3.1311 2.5382,5.6693 5.6693 5.6693c 3.1311,-0.0000 5.6693,-2.5382 5.6693 -5.6693c 0.0000,-3.1311 -2.5383,-5.6693 -5.6693 -5.6693c -3.1311,-0.0000 -5.6693,2.5383 -5.6693 5.6693ZM 52.6672,797.3046 c 1.0084,0.1778 2.0169,0.3556 3.0253 0.5334c -0.2145,1.2165 -0.4290,2.4329 -0.6435 3.6493c 17.3326,3.0562 34.6652,6.1124 51.9979 9.1686c 0.2145,-1.2164 0.4290,-2.4329 0.6435 -3.6493c 1.0084,0.1778 2.0169,0.3556 3.0253 0.5334c 0.7657,-4.3426 1.5314,-8.6852 2.2971 -13.0277c -1.0084,-0.1779 -2.0169,-0.3557 -3.0253 -0.5335c 1.0958,-6.2145 2.1916,-12.4291 3.2873 -18.6436c 1.0084,0.1778 2.0169,0.3556 3.0253 0.5334c 0.7657,-4.3426 1.5314,-8.6852 2.2971 -13.0278c -1.0084,-0.1778 -2.0169,-0.3556 -3.0253 -0.5334c 0.2145,-1.2164 0.4290,-2.4329 0.6435 -3.6493c -17.3326,-3.0562 -34.6652,-6.1124 -51.9979 -9.1686c -0.2145,1.2164 -0.4290,2.4329 -0.6435 3.6493c -1.0084,-0.1778 -2.0169,-0.3556 -3.0253 -0.5334c -0.7657,4.3426 -1.5314,8.6852 -2.2971 13.0278c 1.0084,0.1778 2.0169,0.3556 3.0253 0.5334c -1.0958,6.2146 -2.1916,12.4291 -3.2874 18.6437c -1.0084,-0.1778 -2.0169,-0.3557 -3.0253 -0.5335c -0.7657,4.3426 -1.5314,8.6852 -2.2971 13.0278ZM 65.1371,726.5845 c 1.0084,0.1778 2.0169,0.3556 3.0253 0.5334c -0.2145,1.2164 -0.4290,2.4329 -0.6435 3.6493c 17.3326,3.0562 34.6652,6.1124 51.9979 9.1686c 0.2145,-1.2165 0.4290,-2.4329 0.6435 -3.6493c 1.0084,0.1778 2.0169,0.3556 3.0253 0.5334c 0.7657,-4.3426 1.5314,-8.6852 2.2971 -13.0278c -1.0084,-0.1778 -2.0169,-0.3556 -3.0253 -0.5334c 1.0958,-6.2146 2.1916,-12.4291 3.2873 -18.6437c 1.0085,0.1778 2.0169,0.3557 3.0253 0.5335c 0.7657,-4.3426 1.5314,-8.6852 2.2972 -13.0278c -1.0085,-0.1778 -2.0169,-0.3556 -3.0253 -0.5334c 0.2145,-1.2165 0.4290,-2.4329 0.6435 -3.6493c -17.3326,-3.0562 -34.6652,-6.1124 -51.9979 -9.1686c -0.2145,1.2164 -0.4290,2.4329 -0.6435 3.6493c -1.0084,-0.1778 -2.0169,-0.3556 -3.0253 -0.5334c -0.7657,4.3426 -1.5314,8.6852 -2.2971 13.0277c 1.0084,0.1778 2.0169,0.3557 3.0253 0.5335c -1.0958,6.2145 -2.1916,12.4291 -3.2874 18.6436c -1.0084,-0.1778 -2.0169,-0.3556 -3.0253 -0.5334c -0.7657,4.3426 -1.5314,8.6852 -2.2971 13.0278ZM 71.2655,517.5756 c 0.0000,3.1311 2.5382,5.6693 5.6693 5.6693c 3.1311,-0.0000 5.6693,-2.5382 5.6693 -5.6693c 0.0000,-3.1311 -2.5383,-5.6693 -5.6693 -5.6693c -3.1311,-0.0000 -5.6693,2.5383 -5.6693 5.6693ZM 77.6070,655.8645 c 1.0084,0.1778 2.0169,0.3556 3.0253 0.5334c -0.2145,1.2165 -0.4290,2.4329 -0.6435 3.6493c 17.3326,3.0562 34.6652,6.1124 51.9979 9.1686c 0.2145,-1.2164 0.4290,-2.4329 0.6435 -3.6493c 1.0084,0.1778 2.0169,0.3556 3.0253 0.5334c 0.7657,-4.3425 1.5314,-8.6851 2.2971 -13.0277c -1.0084,-0.1778 -2.0169,-0.3556 -3.0253 -0.5334c 1.0958,-6.2146 2.1916,-12.4291 3.2874 -18.6437c 1.0084,0.1778 2.0169,0.3556 3.0253 0.5334c 0.7657,-4.3426 1.5314,-8.6852 2.2971 -13.0277c -1.0084,-0.1778 -2.0169,-0.3557 -3.0253 -0.5335c 0.2145,-1.2164 0.4290,-2.4329 0.6435 -3.6493c -17.3326,-3.0562 -34.6652,-6.1124 -51.9979 -9.1686c -0.2145,1.2164 -0.4290,2.4329 -0.6435 3.6493c -1.0084,-0.1778 -2.0169,-0.3556 -3.0253 -0.5335c -0.7657,4.3426 -1.5314,8.6852 -2.2971 13.0278c 1.0084,0.1778 2.0169,0.3556 3.0253 0.5334c -1.0958,6.2146 -2.1916,12.4291 -3.2874 18.6437c -1.0084,-0.1778 -2.0169,-0.3556 -3.0253 -0.5334c -0.7657,4.3425 -1.5314,8.6851 -2.2971 13.0277ZM 90.0768,585.1444 c 1.0084,0.1778 2.0169,0.3556 3.0253 0.5334c -0.2145,1.2164 -0.4290,2.4329 -0.6435 3.6493c 17.3326,3.0562 34.6652,6.1124 51.9979 9.1686c 0.2145,-1.2165 0.4290,-2.4329 0.6435 -3.6493c 1.0084,0.1778 2.0169,0.3556 3.0253 0.5334c 0.7657,-4.3426 1.5314,-8.6852 2.2971 -13.0278c -1.0084,-0.1778 -2.0169,-0.3556 -3.0253 -0.5334c 1.0958,-6.2145 2.1916,-12.4291 3.2874 -18.6436c 1.0084,0.1778 2.0169,0.3556 3.0253 0.5334c 0.7657,-4.3426 1.5314,-8.6852 2.2971 -13.0278c -1.0084,-0.1778 -2.0169,-0.3556 -3.0253 -0.5334c 0.2145,-1.2164 0.4290,-2.4329 0.6435 -3.6493c -17.3326,-3.0562 -34.6652,-6.1124 -51.9979 -9.1686c -0.2145,1.2165 -0.4290,2.4329 -0.6435 3.6493c -1.0084,-0.1778 -2.0169,-0.3556 -3.0253 -0.5334c -0.7657,4.3426 -1.5314,8.6852 -2.2971 13.0278c 1.0084,0.1778 2.0169,0.3556 3.0253 0.5334c -1.0958,6.2145 -2.1916,12.4291 -3.2874 18.6436c -1.0084,-0.1778 -2.0169,-0.3556 -3.0253 -0.5334c -0.7657,4.3426 -1.5314,8.6852 -2.2971 13.0278ZM 124.0436,806.0523 c 1.0084,0.1778 2.0169,0.3556 3.0253 0.5334c -0.2145,1.2165 -0.4290,2.4329 -0.6435 3.6493c 17.3326,3.0562 34.6652,6.1124 51.9979 9.1686c 0.2145,-1.2164 0.4290,-2.4329 0.6435 -3.6493c 1.0084,0.1778 2.0169,0.3556 3.0253 0.5334c 0.7657,-4.3426 1.5314,-8.6852 2.2971 -13.0277c -1.0084,-0.1778 -2.0169,-0.3557 -3.0253 -0.5335c 1.0958,-6.2145 2.1916,-12.4291 3.2873 -18.6436c 1.0084,0.1778 2.0169,0.3556 3.0253 0.5334c 0.7657,-4.3426 1.5314,-8.6852 2.2972 -13.0278c -1.0085,-0.1778 -2.0169,-0.3556 -3.0253 -0.5334c 0.2145,-1.2164 0.4290,-2.4329 0.6435 -3.6493c -17.3326,-3.0562 -34.6652,-6.1124 -51.9979 -9.1686c -0.2145,1.2164 -0.4290,2.4329 -0.6435 3.6493c -1.0084,-0.1779 -2.0169,-0.3557 -3.0253 -0.5335c -0.7657,4.3426 -1.5314,8.6852 -2.2971 13.0278c 1.0084,0.1778 2.0169,0.3556 3.0253 0.5334c -1.0958,6.2146 -2.1916,12.4291 -3.2874 18.6437c -1.0084,-0.1778 -2.0169,-0.3556 -3.0253 -0.5335c -0.7657,4.3426 -1.5314,8.6852 -2.2971 13.0278ZM 136.5135,735.3323 c 1.0084,0.1778 2.0169,0.3556 3.0253 0.5334c -0.2145,1.2164 -0.4290,2.4329 -0.6435 3.6493c 17.3326,3.0562 34.6652,6.1124 51.9979 9.1686c 0.2145,-1.2164 0.4290,-2.4329 0.6435 -3.6493c 1.0084,0.1778 2.0169,0.3556 3.0253 0.5334c 0.7657,-4.3426 1.5314,-8.6852 2.2971 -13.0278c -1.0084,-0.1778 -2.0169,-0.3556 -3.0253 -0.5334c 1.0958,-6.2146 2.1916,-12.4291 3.2873 -18.6437c 1.0085,0.1778 2.0169,0.3557 3.0253 0.5335c 0.7657,-4.3426 1.5314,-8.6852 2.2972 -13.0278c -1.0085,-0.1778 -2.0169,-0.3556 -3.0253 -0.5334c 0.2145,-1.2165 0.4290,-2.4329 0.6435 -3.6493c -17.3326,-3.0562 -34.6652,-6.1124 -51.9979 -9.1686c -0.2145,1.2164 -0.4290,2.4329 -0.6435 3.6493c -1.0084,-0.1778 -2.0169,-0.3556 -3.0253 -0.5334c -0.7657,4.3426 -1.5314,8.6852 -2.2971 13.0277c 1.0084,0.1779 2.0169,0.3557 3.0253 0.5335c -1.0958,6.2145 -2.1916,12.4291 -3.2874 18.6436c -1.0084,-0.1778 -2.0169,-0.3556 -3.0253 -0.5334c -0.7657,4.3426 -1.5314,8.6852 -2.2971 13.0278ZM 148.9833,664.6122 c 1.0084,0.1778 2.0169,0.3556 3.0253 0.5334c -0.2145,1.2165 -0.4290,2.4329 -0.6435 3.6493c 17.3326,3.0562 34.6652,6.1124 51.9979 9.1686c 0.2145,-1.2164 0.4290,-2.4329 0.6435 -3.6493c 1.0084,0.1778 2.0169,0.3556 3.0253 0.5334c 0.7657,-4.3425 1.5314,-8.6851 2.2971 -13.0277c -1.0084,-0.1778 -2.0169,-0.3556 -3.0253 -0.5334c 1.0958,-6.2146 2.1916,-12.4291 3.2874 -18.6437c 1.0084,0.1778 2.0169,0.3556 3.0253 0.5334c 0.7657,-4.3426 1.5314,-8.6852 2.2971 -13.0277c -1.0084,-0.1778 -2.0169,-0.3556 -3.0253 -0.5335c 0.2145,-1.2164 0.4290,-2.4329 0.6435 -3.6493c -17.3326,-3.0562 -34.6652,-6.1124 -51.9979 -9.1686c -0.2145,1.2164 -0.4290,2.4329 -0.6435 3.6493c -1.0084,-0.1778 -2.0169,-0.3556 -3.0253 -0.5335c -0.7657,4.3426 -1.5314,8.6852 -2.2971 13.0278c 1.0084,0.1778 2.0169,0.3556 3.0253 0.5334c -1.0958,6.2146 -2.1916,12.4291 -3.2874 18.6437c -1.0084,-0.1778 -2.0169,-0.3556 -3.0253 -0.5334c -0.7657,4.3425 -1.5314,8.6851 -2.2971 13.0277ZM 154.9988,883.8364 c 18.1128,5.3896 36.2256,10.7791 54.3384 16.1687c 0.7186,-2.4151 1.4372,-4.8301 2.1558 -7.2451c -18.1128,-5.3895 -36.2256,-10.7791 -54.3384 -16.1686c -0.7186,2.4150 -1.4372,4.8301 -2.1558 7.2451ZM 161.4532,593.8922 c 1.0084,0.1778 2.0169,0.3556 3.0253 0.5334c -0.2145,1.2164 -0.4290,2.4329 -0.6435 3.6493c 17.3326,3.0562 34.6652,6.1124 51.9979 9.1686c 0.2145,-1.2165 0.4290,-2.4329 0.6435 -3.6493c 1.0084,0.1778 2.0169,0.3556 3.0253 0.5334c 0.7657,-4.3426 1.5314,-8.6852 2.2971 -13.0278c -1.0084,-0.1778 -2.0169,-0.3556 -3.0253 -0.5334c 1.0958,-6.2145 2.1916,-12.4291 3.2873 -18.6436c 1.0084,0.1778 2.0169,0.3556 3.0253 0.5334c 0.7657,-4.3426 1.5314,-8.6852 2.2971 -13.0278c -1.0084,-0.1778 -2.0169,-0.3556 -3.0253 -0.5334c 0.2145,-1.2164 0.4290,-2.4329 0.6435 -3.6493c -17.3326,-3.0562 -34.6652,-6.1124 -51.9979 -9.1686c -0.2145,1.2165 -0.4290,2.4329 -0.6435 3.6493c -1.0084,-0.1778 -2.0169,-0.3556 -3.0253 -0.5334c -0.7657,4.3426 -1.5314,8.6852 -2.2971 13.0278c 1.0084,0.1778 2.0169,0.3556 3.0253 0.5334c -1.0958,6.2145 -2.1916,12.4291 -3.2874 18.6437c -1.0084,-0.1779 -2.0169,-0.3557 -3.0253 -0.5335c -0.7657,4.3426 -1.5314,8.6852 -2.2971 13.0278ZM 196.7326,807.3558 c 1.0084,0.1778 2.0169,0.3556 3.0253 0.5334c -0.2145,1.2165 -0.4290,2.4329 -0.6435 3.6493c 17.3326,3.0562 34.6652,6.1124 51.9978 9.1686c 0.2145,-1.2164 0.4290,-2.4329 0.6435 -3.6493c 1.0085,0.1778 2.0169,0.3556 3.0253 0.5334c 0.7657,-4.3426 1.5314,-8.6852 2.2972 -13.0277c -1.0085,-0.1778 -2.0169,-0.3557 -3.0253 -0.5335c 1.0958,-6.2145 2.1916,-12.4291 3.2874 -18.6436c 1.0084,0.1778 2.0169,0.3556 3.0253 0.5334c 0.7657,-4.3426 1.5315,-8.6852 2.2972 -13.0278c -1.0084,-0.1778 -2.0169,-0.3556 -3.0253 -0.5334c 0.2145,-1.2164 0.4290,-2.4329 0.6435 -3.6493c -17.3326,-3.0562 -34.6652,-6.1124 -51.9979 -9.1686c -0.2145,1.2164 -0.4290,2.4329 -0.6435 3.6493c -1.0084,-0.1779 -2.0169,-0.3557 -3.0253 -0.5335c -0.7658,4.3426 -1.5315,8.6852 -2.2972 13.0278c 1.0084,0.1778 2.0169,0.3556 3.0253 0.5334c -1.0958,6.2146 -2.1916,12.4291 -3.2874 18.6437c -1.0084,-0.1778 -2.0169,-0.3556 -3.0253 -0.5335c -0.7657,4.3426 -1.5314,8.6852 -2.2971 13.0278ZM 209.2024,736.6358 c 1.0084,0.1778 2.0169,0.3556 3.0253 0.5334c -0.2145,1.2164 -0.4290,2.4329 -0.6435 3.6493c 17.3326,3.0562 34.6652,6.1124 51.9978 9.1686c 0.2145,-1.2165 0.4290,-2.4329 0.6435 -3.6493c 1.0085,0.1778 2.0169,0.3556 3.0253 0.5334c 0.7657,-4.3426 1.5314,-8.6852 2.2972 -13.0278c -1.0085,-0.1778 -2.0169,-0.3556 -3.0253 -0.5334c 1.0958,-6.2145 2.1916,-12.4291 3.2874 -18.6437c 1.0084,0.1779 2.0169,0.3557 3.0253 0.5335c 0.7657,-4.3426 1.5315,-8.6852 2.2972 -13.0278c -1.0084,-0.1778 -2.0169,-0.3556 -3.0253 -0.5334c 0.2145,-1.2164 0.4290,-2.4329 0.6435 -3.6493c -17.3326,-3.0562 -34.6652,-6.1124 -51.9979 -9.1686c -0.2145,1.2164 -0.4290,2.4329 -0.6435 3.6493c -1.0084,-0.1778 -2.0169,-0.3556 -3.0253 -0.5334c -0.7658,4.3426 -1.5315,8.6852 -2.2972 13.0277c 1.0084,0.1779 2.0169,0.3557 3.0253 0.5335c -1.0958,6.2145 -2.1916,12.4291 -3.2874 18.6436c -1.0084,-0.1778 -2.0169,-0.3556 -3.0253 -0.5334c -0.7657,4.3426 -1.5314,8.6852 -2.2971 13.0278ZM 221.6723,665.9157 c 1.0084,0.1778 2.0169,0.3556 3.0253 0.5334c -0.2145,1.2165 -0.4290,2.4329 -0.6435 3.6494c 17.3326,3.0562 34.6652,6.1124 51.9978 9.1686c 0.2145,-1.2164 0.4290,-2.4329 0.6435 -3.6493c 1.0085,0.1778 2.0169,0.3556 3.0253 0.5334c 0.7657,-4.3425 1.5314,-8.6851 2.2972 -13.0277c -1.0085,-0.1778 -2.0169,-0.3556 -3.0253 -0.5334c 1.0958,-6.2146 2.1916,-12.4291 3.2873 -18.6437c 1.0085,0.1778 2.0169,0.3556 3.0253 0.5334c 0.7657,-4.3425 1.5315,-8.6852 2.2972 -13.0277c -1.0085,-0.1778 -2.0169,-0.3556 -3.0253 -0.5335c 0.2145,-1.2164 0.4290,-2.4329 0.6435 -3.6493c -17.3326,-3.0562 -34.6652,-6.1124 -51.9979 -9.1686c -0.2145,1.2164 -0.4290,2.4329 -0.6435 3.6493c -1.0084,-0.1778 -2.0169,-0.3556 -3.0253 -0.5334c -0.7658,4.3425 -1.5315,8.6851 -2.2972 13.0277c 1.0084,0.1778 2.0169,0.3556 3.0253 0.5334c -1.0958,6.2146 -2.1916,12.4291 -3.2874 18.6437c -1.0084,-0.1778 -2.0169,-0.3556 -3.0253 -0.5334c -0.7657,4.3426 -1.5314,8.6851 -2.2971 13.0277ZM 234.1421,595.1957 c 1.0084,0.1778 2.0169,0.3556 3.0253 0.5334c -0.2145,1.2164 -0.4290,2.4329 -0.6435 3.6493c 17.3326,3.0562 34.6652,6.1124 51.9978 9.1686c 0.2145,-1.2165 0.4290,-2.4329 0.6435 -3.6493c 1.0085,0.1778 2.0169,0.3556 3.0253 0.5334c 0.7657,-4.3426 1.5314,-8.6852 2.2971 -13.0278c -1.0084,-0.1778 -2.0169,-0.3556 -3.0253 -0.5334c 1.0958,-6.2145 2.1916,-12.4291 3.2873 -18.6436c 1.0085,0.1778 2.0169,0.3556 3.0253 0.5334c 0.7657,-4.3426 1.5315,-8.6852 2.2972 -13.0278c -1.0085,-0.1778 -2.0169,-0.3556 -3.0253 -0.5334c 0.2145,-1.2164 0.4290,-2.4329 0.6435 -3.6493c -17.3326,-3.0562 -34.6652,-6.1124 -51.9979 -9.1686c -0.2145,1.2165 -0.4290,2.4329 -0.6435 3.6493c -1.0084,-0.1778 -2.0169,-0.3556 -3.0253 -0.5334c -0.7658,4.3426 -1.5315,8.6852 -2.2972 13.0278c 1.0084,0.1778 2.0169,0.3556 3.0253 0.5334c -1.0958,6.2146 -2.1916,12.4291 -3.2874 18.6437c -1.0084,-0.1779 -2.0169,-0.3557 -3.0253 -0.5335c -0.7657,4.3426 -1.5314,8.6852 -2.2971 13.0278ZM 270.7342,801.2152 c 1.0084,0.1778 2.0169,0.3556 3.0253 0.5334c -0.2145,1.2165 -0.4290,2.4329 -0.6435 3.6493c 17.3326,3.0562 34.6652,6.1124 51.9979 9.1686c 0.2145,-1.2164 0.4290,-2.4329 0.6435 -3.6493c 1.0084,0.1778 2.0169,0.3556 3.0253 0.5334c 0.7657,-4.3426 1.5314,-8.6851 2.2971 -13.0277c -1.0084,-0.1778 -2.0169,-0.3556 -3.0253 -0.5334c 1.0958,-6.2146 2.1916,-12.4292 3.2874 -18.6437c 1.0084,0.1778 2.0169,0.3556 3.0253 0.5334c 0.7657,-4.3426 1.5314,-8.6852 2.2971 -13.0277c -1.0084,-0.1778 -2.0169,-0.3557 -3.0253 -0.5335c 0.2145,-1.2164 0.4290,-2.4329 0.6435 -3.6493c -17.3326,-3.0562 -34.6652,-6.1124 -51.9979 -9.1686c -0.2145,1.2164 -0.4290,2.4329 -0.6435 3.6493c -1.0084,-0.1778 -2.0169,-0.3556 -3.0253 -0.5335c -0.7657,4.3426 -1.5314,8.6852 -2.2971 13.0278c 1.0084,0.1778 2.0169,0.3556 3.0253 0.5334c -1.0958,6.2146 -2.1916,12.4291 -3.2873 18.6437c -1.0084,-0.1778 -2.0169,-0.3556 -3.0253 -0.5334c -0.7657,4.3425 -1.5314,8.6851 -2.2971 13.0277ZM 283.2040,730.4951 c 1.0085,0.1778 2.0169,0.3556 3.0253 0.5334c -0.2145,1.2164 -0.4290,2.4329 -0.6435 3.6493c 17.3326,3.0562 34.6652,6.1124 51.9979 9.1686c 0.2145,-1.2165 0.4290,-2.4329 0.6435 -3.6493c 1.0084,0.1778 2.0169,0.3556 3.0253 0.5334c 0.7657,-4.3426 1.5314,-8.6852 2.2971 -13.0278c -1.0084,-0.1778 -2.0169,-0.3556 -3.0253 -0.5334c 1.0958,-6.2145 2.1916,-12.4291 3.2874 -18.6436c 1.0084,0.1778 2.0169,0.3556 3.0253 0.5334c 0.7657,-4.3426 1.5314,-8.6852 2.2971 -13.0278c -1.0084,-0.1778 -2.0169,-0.3556 -3.0253 -0.5334c 0.2145,-1.2164 0.4290,-2.4329 0.6435 -3.6493c -17.3326,-3.0562 -34.6652,-6.1124 -51.9979 -9.1686c -0.2145,1.2165 -0.4290,2.4329 -0.6435 3.6493c -1.0084,-0.1778 -2.0169,-0.3556 -3.0253 -0.5334c -0.7657,4.3426 -1.5314,8.6852 -2.2971 13.0278c 1.0084,0.1778 2.0169,0.3556 3.0253 0.5334c -1.0958,6.2145 -2.1916,12.4291 -3.2873 18.6436c -1.0085,-0.1778 -2.0169,-0.3556 -3.0253 -0.5334c -0.7657,4.3426 -1.5314,8.6852 -2.2972 13.0278ZM 295.6738,659.7750 c 1.0085,0.1778 2.0169,0.3557 3.0253 0.5335c -0.2145,1.2164 -0.4290,2.4329 -0.6435 3.6493c 17.3326,3.0562 34.6652,6.1124 51.9979 9.1686c 0.2145,-1.2164 0.4290,-2.4329 0.6435 -3.6493c 1.0084,0.1778 2.0169,0.3556 3.0253 0.5335c 0.7657,-4.3426 1.5314,-8.6852 2.2971 -13.0278c -1.0084,-0.1778 -2.0169,-0.3556 -3.0253 -0.5334c 1.0958,-6.2146 2.1916,-12.4291 3.2874 -18.6437c 1.0084,0.1778 2.0169,0.3556 3.0253 0.5334c 0.7657,-4.3425 1.5314,-8.6851 2.2971 -13.0277c -1.0084,-0.1778 -2.0169,-0.3556 -3.0253 -0.5334c 0.2145,-1.2165 0.4290,-2.4329 0.6435 -3.6493c -17.3326,-3.0562 -34.6652,-6.1124 -51.9979 -9.1686c -0.2145,1.2164 -0.4290,2.4329 -0.6435 3.6493c -1.0084,-0.1778 -2.0169,-0.3556 -3.0253 -0.5334c -0.7657,4.3425 -1.5314,8.6851 -2.2971 13.0277c 1.0084,0.1778 2.0169,0.3556 3.0253 0.5334c -1.0958,6.2146 -2.1916,12.4292 -3.2873 18.6437c -1.0085,-0.1778 -2.0169,-0.3556 -3.0253 -0.5334c -0.7657,4.3426 -1.5314,8.6852 -2.2972 13.0277ZM 308.1437,589.0550 c 1.0085,0.1778 2.0169,0.3556 3.0253 0.5334c -0.2145,1.2165 -0.4290,2.4329 -0.6435 3.6493c 17.3326,3.0562 34.6652,6.1124 51.9979 9.1686c 0.2145,-1.2164 0.4290,-2.4329 0.6435 -3.6493c 1.0084,0.1778 2.0169,0.3556 3.0253 0.5334c 0.7657,-4.3426 1.5314,-8.6852 2.2971 -13.0277c -1.0084,-0.1778 -2.0169,-0.3557 -3.0253 -0.5335c 1.0958,-6.2145 2.1916,-12.4291 3.2874 -18.6436c 1.0084,0.1778 2.0169,0.3556 3.0253 0.5334c 0.7657,-4.3426 1.5314,-8.6852 2.2971 -13.0278c -1.0084,-0.1778 -2.0169,-0.3556 -3.0253 -0.5334c 0.2145,-1.2164 0.4290,-2.4329 0.6435 -3.6493c -17.3326,-3.0562 -34.6652,-6.1124 -51.9978 -9.1686c -0.2145,1.2164 -0.4290,2.4329 -0.6435 3.6493c -1.0084,-0.1778 -2.0169,-0.3556 -3.0253 -0.5334c -0.7657,4.3426 -1.5314,8.6852 -2.2971 13.0278c 1.0084,0.1778 2.0169,0.3556 3.0253 0.5334c -1.0958,6.2146 -2.1916,12.4291 -3.2873 18.6437c -1.0085,-0.1778 -2.0169,-0.3557 -3.0253 -0.5335c -0.7657,4.3426 -1.5314,8.6852 -2.2972 13.0278ZM 337.5164,836.0177 c 1.0084,0.1778 2.0169,0.3556 3.0253 0.5334c -0.2145,1.2164 -0.4290,2.4329 -0.6435 3.6493c 17.3326,3.0562 34.6652,6.1124 51.9979 9.1686c 0.2145,-1.2165 0.4290,-2.4329 0.6435 -3.6493c 1.0084,0.1778 2.0169,0.3556 3.0253 0.5334c 0.7657,-4.3426 1.5315,-8.6852 2.2972 -13.0278c -1.0084,-0.1778 -2.0169,-0.3556 -3.0253 -0.5334c 1.0958,-6.2145 2.1916,-12.4291 3.2874 -18.6436c 1.0084,0.1778 2.0169,0.3556 3.0253 0.5334c 0.7658,-4.3426 1.5315,-8.6852 2.2972 -13.0278c -1.0084,-0.1778 -2.0169,-0.3556 -3.0253 -0.5334c 0.2145,-1.2164 0.4290,-2.4329 0.6435 -3.6493c -17.3326,-3.0562 -34.6652,-6.1124 -51.9978 -9.1686c -0.2145,1.2165 -0.4290,2.4329 -0.6435 3.6493c -1.0085,-0.1778 -2.0169,-0.3556 -3.0253 -0.5334c -0.7657,4.3426 -1.5315,8.6852 -2.2972 13.0278c 1.0085,0.1778 2.0169,0.3556 3.0253 0.5334c -1.0958,6.2146 -2.1916,12.4291 -3.2874 18.6437c -1.0084,-0.1779 -2.0169,-0.3557 -3.0253 -0.5335c -0.7658,4.3426 -1.5315,8.6852 -2.2972 13.0278ZM 349.9862,765.2976 c 1.0084,0.1778 2.0169,0.3556 3.0253 0.5334c -0.2145,1.2164 -0.4290,2.4329 -0.6435 3.6493c 17.3326,3.0562 34.6652,6.1124 51.9979 9.1686c 0.2145,-1.2164 0.4290,-2.4329 0.6435 -3.6493c 1.0084,0.1778 2.0169,0.3556 3.0253 0.5334c 0.7657,-4.3426 1.5315,-8.6852 2.2972 -13.0278c -1.0084,-0.1778 -2.0169,-0.3556 -3.0253 -0.5334c 1.0958,-6.2146 2.1916,-12.4291 3.2874 -18.6437c 1.0084,0.1778 2.0169,0.3557 3.0253 0.5335c 0.7658,-4.3426 1.5315,-8.6852 2.2972 -13.0278c -1.0084,-0.1778 -2.0169,-0.3556 -3.0253 -0.5334c 0.2145,-1.2165 0.4290,-2.4329 0.6435 -3.6493c -17.3326,-3.0562 -34.6652,-6.1124 -51.9978 -9.1686c -0.2145,1.2164 -0.4290,2.4329 -0.6435 3.6493c -1.0084,-0.1778 -2.0169,-0.3556 -3.0253 -0.5334c -0.7657,4.3426 -1.5315,8.6852 -2.2972 13.0277c 1.0085,0.1778 2.0169,0.3557 3.0253 0.5335c -1.0958,6.2145 -2.1916,12.4291 -3.2874 18.6436c -1.0084,-0.1778 -2.0169,-0.3556 -3.0253 -0.5334c -0.7658,4.3426 -1.5315,8.6852 -2.2972 13.0278ZM 362.4561,694.5775 c 1.0084,0.1778 2.0169,0.3556 3.0253 0.5334c -0.2145,1.2165 -0.4290,2.4329 -0.6435 3.6493c 17.3326,3.0562 34.6652,6.1124 51.9978 9.1686c 0.2145,-1.2164 0.4290,-2.4329 0.6435 -3.6493c 1.0085,0.1778 2.0169,0.3556 3.0253 0.5334c 0.7657,-4.3425 1.5314,-8.6851 2.2972 -13.0277c -1.0085,-0.1778 -2.0169,-0.3556 -3.0253 -0.5335c 1.0958,-6.2145 2.1916,-12.4291 3.2874 -18.6436c 1.0084,0.1778 2.0169,0.3556 3.0253 0.5334c 0.7658,-4.3426 1.5315,-8.6852 2.2972 -13.0277c -1.0084,-0.1778 -2.0169,-0.3557 -3.0253 -0.5335c 0.2145,-1.2164 0.4290,-2.4329 0.6435 -3.6493c -17.3326,-3.0562 -34.6652,-6.1124 -51.9979 -9.1686c -0.2145,1.2164 -0.4290,2.4329 -0.6435 3.6493c -1.0084,-0.1778 -2.0169,-0.3557 -3.0253 -0.5335c -0.7657,4.3426 -1.5315,8.6852 -2.2972 13.0278c 1.0084,0.1778 2.0169,0.3556 3.0253 0.5334c -1.0958,6.2146 -2.1916,12.4291 -3.2874 18.6437c -1.0084,-0.1778 -2.0169,-0.3556 -3.0253 -0.5334c -0.7658,4.3425 -1.5315,8.6851 -2.2972 13.0277ZM 374.9259,623.8575 c 1.0084,0.1778 2.0169,0.3556 3.0253 0.5334c -0.2145,1.2164 -0.4290,2.4329 -0.6435 3.6493c 17.3326,3.0562 34.6652,6.1124 51.9978 9.1686c 0.2145,-1.2165 0.4290,-2.4329 0.6435 -3.6493c 1.0085,0.1778 2.0169,0.3556 3.0253 0.5334c 0.7657,-4.3426 1.5314,-8.6852 2.2972 -13.0278c -1.0085,-0.1778 -2.0169,-0.3556 -3.0253 -0.5334c 1.0958,-6.2145 2.1916,-12.4291 3.2874 -18.6436c 1.0084,0.1778 2.0169,0.3556 3.0253 0.5334c 0.7657,-4.3426 1.5315,-8.6852 2.2972 -13.0278c -1.0084,-0.1778 -2.0169,-0.3556 -3.0253 -0.5334c 0.2145,-1.2164 0.4290,-2.4329 0.6435 -3.6493c -17.3326,-3.0562 -34.6652,-6.1124 -51.9979 -9.1686c -0.2145,1.2165 -0.4290,2.4329 -0.6435 3.6493c -1.0084,-0.1778 -2.0169,-0.3556 -3.0253 -0.5334c -0.7657,4.3426 -1.5315,8.6852 -2.2972 13.0278c 1.0084,0.1778 2.0169,0.3556 3.0253 0.5334c -1.0958,6.2145 -2.1916,12.4291 -3.2874 18.6436c -1.0084,-0.1778 -2.0169,-0.3556 -3.0253 -0.5334c -0.7658,4.3426 -1.5315,8.6852 -2.2972 13.0278ZM 404.9549,867.0981 c 1.0085,0.1778 2.0169,0.3556 3.0253 0.5334c -0.2145,1.2164 -0.4290,2.4329 -0.6435 3.6493c 17.3326,3.0562 34.6652,6.1124 51.9979 9.1686c 0.2145,-1.2165 0.4290,-2.4329 0.6435 -3.6493c 1.0084,0.1778 2.0169,0.3556 3.0253 0.5334c 0.7658,-4.3426 1.5315,-8.6852 2.2972 -13.0278c -1.0084,-0.1778 -2.0169,-0.3556 -3.0253 -0.5334c 1.0958,-6.2145 2.1916,-12.4291 3.2874 -18.6437c 1.0084,0.1779 2.0169,0.3557 3.0253 0.5335c 0.7657,-4.3426 1.5314,-8.6852 2.2971 -13.0278c -1.0084,-0.1778 -2.0169,-0.3556 -3.0253 -0.5334c 0.2145,-1.2164 0.4290,-2.4329 0.6435 -3.6493c -17.3326,-3.0562 -34.6652,-6.1124 -51.9978 -9.1686c -0.2145,1.2165 -0.4290,2.4329 -0.6435 3.6493c -1.0084,-0.1778 -2.0169,-0.3556 -3.0253 -0.5334c -0.7657,4.3426 -1.5314,8.6852 -2.2971 13.0278c 1.0084,0.1778 2.0169,0.3556 3.0253 0.5334c -1.0958,6.2145 -2.1916,12.4291 -3.2873 18.6436c -1.0085,-0.1778 -2.0169,-0.3556 -3.0253 -0.5334c -0.7657,4.3426 -1.5314,8.6852 -2.2972 13.0278ZM 417.4247,796.3780 c 1.0085,0.1778 2.0169,0.3557 3.0253 0.5335c -0.2145,1.2164 -0.4290,2.4329 -0.6435 3.6493c 17.3326,3.0562 34.6652,6.1124 51.9979 9.1686c 0.2145,-1.2164 0.4290,-2.4329 0.6435 -3.6493c 1.0084,0.1778 2.0169,0.3556 3.0253 0.5334c 0.7658,-4.3425 1.5315,-8.6851 2.2972 -13.0277c -1.0084,-0.1778 -2.0169,-0.3556 -3.0253 -0.5334c 1.0958,-6.2146 2.1916,-12.4291 3.2874 -18.6437c 1.0084,0.1778 2.0169,0.3556 3.0253 0.5334c 0.7657,-4.3425 1.5314,-8.6851 2.2971 -13.0277c -1.0084,-0.1778 -2.0169,-0.3556 -3.0253 -0.5334c 0.2145,-1.2165 0.4290,-2.4329 0.6435 -3.6493c -17.3326,-3.0562 -34.6652,-6.1124 -51.9978 -9.1686c -0.2145,1.2164 -0.4290,2.4329 -0.6435 3.6493c -1.0084,-0.1778 -2.0169,-0.3556 -3.0253 -0.5334c -0.7657,4.3425 -1.5314,8.6851 -2.2971 13.0277c 1.0084,0.1778 2.0169,0.3556 3.0253 0.5334c -1.0958,6.2146 -2.1916,12.4291 -3.2874 18.6437c -1.0084,-0.1778 -2.0169,-0.3556 -3.0253 -0.5334c -0.7657,4.3426 -1.5315,8.6852 -2.2972 13.0277ZM 429.8946,725.6580 c 1.0084,0.1778 2.0169,0.3556 3.0253 0.5334c -0.2145,1.2164 -0.4290,2.4329 -0.6435 3.6493c 17.3326,3.0562 34.6652,6.1124 51.9979 9.1686c 0.2145,-1.2164 0.4290,-2.4329 0.6435 -3.6493c 1.0084,0.1778 2.0169,0.3556 3.0253 0.5334c 0.7658,-4.3426 1.5315,-8.6852 2.2972 -13.0277c -1.0084,-0.1779 -2.0169,-0.3557 -3.0253 -0.5335c 1.0958,-6.2145 2.1916,-12.4291 3.2874 -18.6436c 1.0084,0.1778 2.0169,0.3556 3.0253 0.5334c 0.7657,-4.3426 1.5314,-8.6852 2.2971 -13.0278c -1.0084,-0.1778 -2.0169,-0.3556 -3.0253 -0.5334c 0.2145,-1.2164 0.4290,-2.4329 0.6435 -3.6493c -17.3326,-3.0562 -34.6652,-6.1124 -51.9978 -9.1686c -0.2145,1.2165 -0.4290,2.4329 -0.6435 3.6494c -1.0085,-0.1779 -2.0169,-0.3557 -3.0253 -0.5335c -0.7657,4.3426 -1.5314,8.6852 -2.2972 13.0278c 1.0085,0.1778 2.0169,0.3556 3.0253 0.5334c -1.0958,6.2146 -2.1916,12.4291 -3.2874 18.6437c -1.0084,-0.1778 -2.0169,-0.3557 -3.0253 -0.5335c -0.7657,4.3426 -1.5315,8.6852 -2.2972 13.0278ZM 442.3644,654.9379 c 1.0085,0.1778 2.0169,0.3556 3.0253 0.5334c -0.2145,1.2164 -0.4290,2.4329 -0.6435 3.6493c 17.3326,3.0562 34.6652,6.1124 51.9979 9.1686c 0.2145,-1.2164 0.4290,-2.4329 0.6435 -3.6493c 1.0084,0.1778 2.0169,0.3556 3.0253 0.5334c 0.7657,-4.3426 1.5315,-8.6852 2.2972 -13.0278c -1.0084,-0.1778 -2.0169,-0.3556 -3.0253 -0.5334c 1.0958,-6.2146 2.1916,-12.4291 3.2874 -18.6437c 1.0084,0.1778 2.0169,0.3557 3.0253 0.5335c 0.7657,-4.3426 1.5314,-8.6852 2.2971 -13.0278c -1.0084,-0.1778 -2.0169,-0.3556 -3.0253 -0.5334c 0.2145,-1.2165 0.4290,-2.4329 0.6435 -3.6493c -17.3326,-3.0562 -34.6652,-6.1124 -51.9978 -9.1686c -0.2145,1.2164 -0.4290,2.4329 -0.6435 3.6493c -1.0085,-0.1778 -2.0169,-0.3556 -3.0253 -0.5334c -0.7657,4.3426 -1.5314,8.6852 -2.2972 13.0277c 1.0085,0.1779 2.0169,0.3557 3.0253 0.5335c -1.0958,6.2145 -2.1916,12.4291 -3.2873 18.6436c -1.0085,-0.1778 -2.0169,-0.3556 -3.0253 -0.5334c -0.7657,4.3426 -1.5315,8.6852 -2.2972 13.0278ZM 469.4400,914.9279 c 1.0084,0.1778 2.0169,0.3556 3.0253 0.5334c -0.2145,1.2164 -0.4290,2.4329 -0.6434 3.6493c 17.3326,3.0562 34.6652,6.1124 51.9978 9.1686c 0.2145,-1.2164 0.4290,-2.4329 0.6435 -3.6493c 1.0084,0.1778 2.0169,0.3556 3.0253 0.5334c 0.7657,-4.3426 1.5314,-8.6852 2.2971 -13.0277c -1.0084,-0.1779 -2.0169,-0.3557 -3.0253 -0.5335c 1.0958,-6.2145 2.1916,-12.4291 3.2873 -18.6436c 1.0085,0.1778 2.0169,0.3556 3.0253 0.5334c 0.7657,-4.3426 1.5314,-8.6852 2.2972 -13.0278c -1.0085,-0.1778 -2.0169,-0.3556 -3.0253 -0.5334c 0.2145,-1.2164 0.4290,-2.4329 0.6435 -3.6493c -17.3326,-3.0562 -34.6652,-6.1124 -51.9979 -9.1686c -0.2145,1.2165 -0.4290,2.4329 -0.6435 3.6493c -1.0084,-0.1778 -2.0169,-0.3556 -3.0253 -0.5334c -0.7657,4.3426 -1.5314,8.6852 -2.2971 13.0278c 1.0084,0.1778 2.0169,0.3556 3.0253 0.5334c -1.0958,6.2145 -2.1916,12.4291 -3.2874 18.6437c -1.0084,-0.1779 -2.0169,-0.3557 -3.0253 -0.5335c -0.7657,4.3426 -1.5314,8.6852 -2.2971 13.0278ZM 481.9099,844.2079 c 1.0084,0.1779 2.0169,0.3557 3.0253 0.5335c -0.2145,1.2164 -0.4290,2.4329 -0.6435 3.6493c 17.3326,3.0562 34.6652,6.1124 51.9979 9.1686c 0.2145,-1.2164 0.4290,-2.4329 0.6435 -3.6493c 1.0084,0.1779 2.0169,0.3557 3.0253 0.5335c 0.7657,-4.3426 1.5314,-8.6852 2.2971 -13.0278c -1.0084,-0.1778 -2.0169,-0.3556 -3.0253 -0.5334c 1.0958,-6.2146 2.1916,-12.4291 3.2873 -18.6437c 1.0084,0.1778 2.0169,0.3556 3.0253 0.5335c 0.7657,-4.3426 1.5314,-8.6852 2.2971 -13.0278c -1.0084,-0.1778 -2.0169,-0.3556 -3.0253 -0.5334c 0.2145,-1.2165 0.4290,-2.4329 0.6435 -3.6493c -17.3326,-3.0562 -34.6652,-6.1124 -51.9979 -9.1686c -0.2145,1.2164 -0.4290,2.4329 -0.6435 3.6493c -1.0084,-0.1778 -2.0169,-0.3556 -3.0253 -0.5334c -0.7657,4.3426 -1.5314,8.6851 -2.2971 13.0277c 1.0084,0.1778 2.0169,0.3557 3.0253 0.5335c -1.0958,6.2145 -2.1916,12.4291 -3.2874 18.6436c -1.0084,-0.1778 -2.0169,-0.3556 -3.0253 -0.5334c -0.7657,4.3426 -1.5314,8.6852 -2.2971 13.0277ZM 496.7358,951.8126 c 0.0000,3.1311 2.5382,5.6693 5.6693 5.6693c 3.1311,-0.0000 5.6693,-2.5383 5.6693 -5.6693c 0.0000,-3.1311 -2.5382,-5.6693 -5.6693 -5.6693c -3.1311,-0.0000 -5.6693,2.5382 -5.6693 5.6693ZM 501.8223,517.5756 c 0.0000,3.1311 2.5383,5.6693 5.6693 5.6693c 3.1311,-0.0000 5.6693,-2.5382 5.6693 -5.6693c 0.0000,-3.1311 -2.5382,-5.6693 -5.6693 -5.6693c -3.1311,-0.0000 -5.6693,2.5383 -5.6693 5.6693ZM 618.3243,809.7442 c 0.7657,4.3426 1.5314,8.6852 2.2971 13.0278c 1.0084,-0.1779 2.0169,-0.3557 3.0253 -0.5335c 1.0958,6.2146 2.1916,12.4291 3.2873 18.6437c -1.0084,0.1778 -2.0169,0.3556 -3.0253 0.5334c 0.7657,4.3426 1.5314,8.6852 2.2971 13.0278c 1.0084,-0.1778 2.0169,-0.3556 3.0253 -0.5335c 0.2145,1.2165 0.4290,2.4329 0.6435 3.6493c 17.3326,-3.0562 34.6652,-6.1124 51.9979 -9.1686c -0.2145,-1.2165 -0.4290,-2.4329 -0.6435 -3.6493c 1.0084,-0.1778 2.0169,-0.3556 3.0253 -0.5335c -0.7657,-4.3425 -1.5314,-8.6851 -2.2971 -13.0277c -1.0084,0.1778 -2.0169,0.3556 -3.0253 0.5334c -1.0958,-6.2145 -2.1916,-12.4291 -3.2874 -18.6436c 1.0085,-0.1778 2.0169,-0.3557 3.0253 -0.5335c -0.7657,-4.3426 -1.5314,-8.6851 -2.2971 -13.0277c -1.0085,0.1778 -2.0169,0.3556 -3.0253 0.5334c -0.2145,-1.2164 -0.4290,-2.4329 -0.6435 -3.6493c -17.3326,3.0562 -34.6652,6.1124 -51.9979 9.1686c 0.2145,1.2164 0.4290,2.4329 0.6435 3.6493c -1.0084,0.1778 -2.0169,0.3556 -3.0253 0.5334ZM 630.7942,880.4643 c 0.7658,4.3426 1.5315,8.6852 2.2972 13.0278c 1.0084,-0.1778 2.0169,-0.3556 3.0253 -0.5334c 1.0958,6.2145 2.1916,12.4291 3.2873 18.6436c -1.0084,0.1778 -2.0169,0.3556 -3.0253 0.5335c 0.7657,4.3425 1.5314,8.6851 2.2971 13.0277c 1.0084,-0.1778 2.0169,-0.3556 3.0253 -0.5334c 0.2145,1.2164 0.4290,2.4329 0.6435 3.6493c 17.3326,-3.0562 34.6652,-6.1124 51.9978 -9.1686c -0.2145,-1.2164 -0.4290,-2.4329 -0.6434 -3.6493c 1.0084,-0.1778 2.0169,-0.3556 3.0253 -0.5334c -0.7657,-4.3426 -1.5314,-8.6852 -2.2971 -13.0278c -1.0085,0.1778 -2.0169,0.3556 -3.0253 0.5335c -1.0958,-6.2146 -2.1916,-12.4292 -3.2874 -18.6437c 1.0085,-0.1778 2.0169,-0.3556 3.0253 -0.5334c -0.7657,-4.3426 -1.5314,-8.6852 -2.2971 -13.0278c -1.0085,0.1778 -2.0169,0.3556 -3.0253 0.5334c -0.2145,-1.2164 -0.4290,-2.4329 -0.6435 -3.6493c -17.3326,3.0562 -34.6652,6.1124 -51.9979 9.1686c 0.2145,1.2164 0.4290,2.4329 0.6435 3.6493c -1.0084,0.1778 -2.0169,0.3556 -3.0253 0.5334ZM 653.0035,517.5756 c 0.0000,3.1311 2.5382,5.6693 5.6693 5.6693c 3.1311,-0.0000 5.6693,-2.5382 5.6693 -5.6693c 0.0000,-3.1311 -2.5383,-5.6693 -5.6693 -5.6693c -3.1311,-0.0000 -5.6693,2.5383 -5.6693 5.6693ZM 657.8697,620.4743 c 0.7657,4.3426 1.5314,8.6852 2.2971 13.0278c 1.0085,-0.1778 2.0169,-0.3557 3.0253 -0.5335c 1.0958,6.2146 2.1916,12.4291 3.2874 18.6437c -1.0084,0.1778 -2.0169,0.3556 -3.0253 0.5334c 0.7657,4.3426 1.5315,8.6852 2.2972 13.0278c 1.0084,-0.1778 2.0169,-0.3556 3.0253 -0.5334c 0.2145,1.2164 0.4290,2.4329 0.6435 3.6493c 17.3326,-3.0562 34.6652,-6.1124 51.9979 -9.1686c -0.2145,-1.2165 -0.4290,-2.4329 -0.6435 -3.6493c 1.0084,-0.1778 2.0169,-0.3556 3.0253 -0.5334c -0.7657,-4.3426 -1.5315,-8.6852 -2.2972 -13.0278c -1.0084,0.1778 -2.0169,0.3556 -3.0253 0.5334c -1.0958,-6.2145 -2.1916,-12.4291 -3.2873 -18.6436c 1.0084,-0.1778 2.0169,-0.3556 3.0253 -0.5335c -0.7658,-4.3425 -1.5315,-8.6851 -2.2972 -13.0277c -1.0084,0.1778 -2.0169,0.3556 -3.0253 0.5334c -0.2145,-1.2164 -0.4290,-2.4329 -0.6435 -3.6493c -17.3326,3.0562 -34.6652,6.1124 -51.9978 9.1686c 0.2145,1.2164 0.4290,2.4329 0.6435 3.6493c -1.0084,0.1778 -2.0169,0.3556 -3.0253 0.5334ZM 658.0900,951.8126 c 0.0000,3.1311 2.5382,5.6693 5.6693 5.6693c 3.1311,-0.0000 5.6693,-2.5383 5.6693 -5.6693c 0.0000,-3.1311 -2.5382,-5.6693 -5.6693 -5.6693c -3.1311,-0.0000 -5.6693,2.5382 -5.6693 5.6693ZM 670.3396,691.1943 c 0.7657,4.3426 1.5314,8.6852 2.2971 13.0278c 1.0085,-0.1778 2.0169,-0.3556 3.0253 -0.5334c 1.0958,6.2145 2.1916,12.4291 3.2874 18.6436c -1.0084,0.1778 -2.0169,0.3556 -3.0253 0.5335c 0.7657,4.3425 1.5314,8.6851 2.2972 13.0277c 1.0084,-0.1778 2.0169,-0.3556 3.0253 -0.5334c 0.2145,1.2164 0.4290,2.4329 0.6435 3.6493c 17.3326,-3.0562 34.6652,-6.1124 51.9979 -9.1686c -0.2145,-1.2164 -0.4290,-2.4329 -0.6435 -3.6493c 1.0084,-0.1778 2.0169,-0.3556 3.0253 -0.5334c -0.7657,-4.3426 -1.5315,-8.6852 -2.2972 -13.0278c -1.0084,0.1778 -2.0169,0.3557 -3.0253 0.5335c -1.0958,-6.2146 -2.1916,-12.4291 -3.2874 -18.6437c 1.0084,-0.1778 2.0169,-0.3556 3.0253 -0.5334c -0.7658,-4.3426 -1.5315,-8.6852 -2.2972 -13.0278c -1.0084,0.1778 -2.0169,0.3556 -3.0253 0.5335c -0.2145,-1.2165 -0.4290,-2.4329 -0.6435 -3.6494c -17.3326,3.0562 -34.6652,6.1124 -51.9978 9.1686c 0.2145,1.2165 0.4290,2.4329 0.6435 3.6493c -1.0085,0.1778 -2.0169,0.3556 -3.0253 0.5334ZM 682.8095,761.9144 c 0.7657,4.3426 1.5314,8.6852 2.2971 13.0277c 1.0085,-0.1778 2.0169,-0.3556 3.0253 -0.5334c 1.0958,6.2146 2.1916,12.4291 3.2874 18.6437c -1.0084,0.1778 -2.0169,0.3556 -3.0253 0.5334c 0.7657,4.3426 1.5314,8.6852 2.2972 13.0277c 1.0084,-0.1778 2.0169,-0.3556 3.0253 -0.5334c 0.2145,1.2165 0.4290,2.4329 0.6435 3.6493c 17.3326,-3.0562 34.6652,-6.1124 51.9979 -9.1686c -0.2145,-1.2165 -0.4290,-2.4329 -0.6435 -3.6493c 1.0084,-0.1778 2.0169,-0.3557 3.0253 -0.5335c -0.7657,-4.3425 -1.5315,-8.6851 -2.2972 -13.0277c -1.0084,0.1778 -2.0169,0.3556 -3.0253 0.5334c -1.0958,-6.2146 -2.1916,-12.4291 -3.2874 -18.6437c 1.0084,-0.1778 2.0169,-0.3556 3.0253 -0.5334c -0.7657,-4.3426 -1.5314,-8.6852 -2.2971 -13.0277c -1.0084,0.1778 -2.0169,0.3556 -3.0253 0.5334c -0.2145,-1.2165 -0.4290,-2.4329 -0.6435 -3.6493c -17.3326,3.0562 -34.6652,6.1124 -51.9978 9.1686c 0.2145,1.2164 0.4290,2.4329 0.6435 3.6493c -1.0085,0.1778 -2.0169,0.3556 -3.0253 0.5334ZM 695.2793,832.6344 c 0.7657,4.3426 1.5314,8.6852 2.2971 13.0278c 1.0085,-0.1778 2.0169,-0.3556 3.0253 -0.5335c 1.0958,6.2146 2.1916,12.4292 3.2874 18.6437c -1.0084,0.1778 -2.0169,0.3556 -3.0253 0.5334c 0.7657,4.3426 1.5314,8.6852 2.2972 13.0278c 1.0084,-0.1778 2.0169,-0.3556 3.0253 -0.5334c 0.2145,1.2164 0.4290,2.4329 0.6435 3.6493c 17.3326,-3.0562 34.6652,-6.1124 51.9979 -9.1686c -0.2145,-1.2164 -0.4290,-2.4329 -0.6435 -3.6493c 1.0084,-0.1778 2.0169,-0.3556 3.0253 -0.5334c -0.7658,-4.3426 -1.5315,-8.6852 -2.2972 -13.0278c -1.0084,0.1778 -2.0169,0.3556 -3.0253 0.5334c -1.0958,-6.2145 -2.1916,-12.4291 -3.2873 -18.6436c 1.0084,-0.1778 2.0169,-0.3556 3.0253 -0.5334c -0.7657,-4.3426 -1.5314,-8.6852 -2.2971 -13.0278c -1.0084,0.1778 -2.0169,0.3556 -3.0253 0.5334c -0.2145,-1.2164 -0.4290,-2.4329 -0.6435 -3.6493c -17.3326,3.0562 -34.6652,6.1124 -51.9978 9.1686c 0.2145,1.2164 0.4290,2.4329 0.6435 3.6493c -1.0085,0.1778 -2.0169,0.3556 -3.0253 0.5334ZM 725.3082,589.3938 c 0.7657,4.3426 1.5315,8.6852 2.2972 13.0278c 1.0084,-0.1778 2.0169,-0.3556 3.0253 -0.5334c 1.0958,6.2145 2.1916,12.4291 3.2874 18.6436c -1.0084,0.1778 -2.0169,0.3556 -3.0253 0.5334c 0.7658,4.3426 1.5315,8.6852 2.2972 13.0278c 1.0084,-0.1778 2.0169,-0.3556 3.0253 -0.5334c 0.2145,1.2164 0.4290,2.4329 0.6435 3.6493c 17.3326,-3.0562 34.6652,-6.1124 51.9978 -9.1686c -0.2145,-1.2164 -0.4290,-2.4329 -0.6435 -3.6493c 1.0084,-0.1778 2.0169,-0.3556 3.0253 -0.5334c -0.7657,-4.3426 -1.5314,-8.6852 -2.2972 -13.0278c -1.0084,0.1778 -2.0169,0.3556 -3.0253 0.5334c -1.0958,-6.2145 -2.1916,-12.4291 -3.2874 -18.6436c 1.0084,-0.1778 2.0169,-0.3556 3.0253 -0.5334c -0.7657,-4.3426 -1.5315,-8.6852 -2.2972 -13.0278c -1.0084,0.1778 -2.0169,0.3556 -3.0253 0.5334c -0.2145,-1.2164 -0.4290,-2.4329 -0.6435 -3.6493c -17.3326,3.0562 -34.6652,6.1124 -51.9979 9.1686c 0.2145,1.2164 0.4290,2.4329 0.6435 3.6493c -1.0084,0.1778 -2.0169,0.3556 -3.0253 0.5334ZM 737.7781,660.1139 c 0.7657,4.3425 1.5314,8.6851 2.2972 13.0277c 1.0084,-0.1778 2.0169,-0.3556 3.0253 -0.5334c 1.0958,6.2145 2.1916,12.4291 3.2874 18.6436c -1.0084,0.1779 -2.0169,0.3557 -3.0253 0.5335c 0.7658,4.3426 1.5315,8.6852 2.2972 13.0277c 1.0084,-0.1778 2.0169,-0.3556 3.0253 -0.5334c 0.2145,1.2164 0.4290,2.4329 0.6435 3.6493c 17.3326,-3.0562 34.6652,-6.1124 51.9978 -9.1686c -0.2145,-1.2164 -0.4290,-2.4329 -0.6435 -3.6493c 1.0084,-0.1778 2.0169,-0.3556 3.0253 -0.5334c -0.7657,-4.3426 -1.5314,-8.6852 -2.2972 -13.0277c -1.0084,0.1778 -2.0169,0.3556 -3.0253 0.5334c -1.0958,-6.2146 -2.1916,-12.4291 -3.2874 -18.6437c 1.0084,-0.1778 2.0169,-0.3556 3.0253 -0.5334c -0.7657,-4.3426 -1.5315,-8.6852 -2.2972 -13.0278c -1.0084,0.1778 -2.0169,0.3557 -3.0253 0.5335c -0.2145,-1.2165 -0.4290,-2.4329 -0.6435 -3.6493c -17.3326,3.0562 -34.6652,6.1124 -51.9979 9.1686c 0.2145,1.2165 0.4290,2.4329 0.6435 3.6493c -1.0084,0.1778 -2.0169,0.3557 -3.0253 0.5335ZM 750.2480,730.8340 c 0.7657,4.3426 1.5314,8.6852 2.2972 13.0278c 1.0084,-0.1778 2.0169,-0.3557 3.0253 -0.5335c 1.0958,6.2146 2.1916,12.4291 3.2874 18.6437c -1.0084,0.1778 -2.0169,0.3556 -3.0253 0.5334c 0.7657,4.3426 1.5315,8.6852 2.2972 13.0278c 1.0084,-0.1778 2.0169,-0.3556 3.0253 -0.5334c 0.2145,1.2164 0.4290,2.4329 0.6435 3.6493c 17.3326,-3.0562 34.6652,-6.1124 51.9979 -9.1686c -0.2145,-1.2165 -0.4290,-2.4329 -0.6435 -3.6493c 1.0084,-0.1778 2.0169,-0.3556 3.0253 -0.5334c -0.7657,-4.3426 -1.5314,-8.6852 -2.2972 -13.0278c -1.0084,0.1778 -2.0169,0.3556 -3.0253 0.5334c -1.0958,-6.2145 -2.1916,-12.4291 -3.2874 -18.6436c 1.0084,-0.1778 2.0169,-0.3557 3.0253 -0.5335c -0.7657,-4.3425 -1.5315,-8.6851 -2.2972 -13.0277c -1.0084,0.1778 -2.0169,0.3556 -3.0253 0.5334c -0.2145,-1.2164 -0.4290,-2.4329 -0.6435 -3.6493c -17.3326,3.0562 -34.6652,6.1124 -51.9978 9.1686c 0.2145,1.2164 0.4290,2.4329 0.6435 3.6493c -1.0084,0.1778 -2.0169,0.3556 -3.0253 0.5334ZM 762.7178,801.5540 c 0.7657,4.3426 1.5314,8.6852 2.2972 13.0278c 1.0084,-0.1778 2.0169,-0.3556 3.0253 -0.5334c 1.0958,6.2145 2.1916,12.4291 3.2874 18.6436c -1.0084,0.1778 -2.0169,0.3556 -3.0253 0.5334c 0.7657,4.3426 1.5315,8.6852 2.2972 13.0278c 1.0084,-0.1778 2.0169,-0.3556 3.0253 -0.5334c 0.2145,1.2164 0.4290,2.4329 0.6435 3.6493c 17.3326,-3.0562 34.6652,-6.1124 51.9979 -9.1686c -0.2145,-1.2164 -0.4290,-2.4329 -0.6435 -3.6493c 1.0084,-0.1778 2.0169,-0.3556 3.0253 -0.5334c -0.7657,-4.3426 -1.5314,-8.6852 -2.2972 -13.0278c -1.0084,0.1778 -2.0169,0.3556 -3.0253 0.5335c -1.0958,-6.2146 -2.1916,-12.4291 -3.2874 -18.6437c 1.0084,-0.1778 2.0169,-0.3556 3.0253 -0.5334c -0.7657,-4.3426 -1.5315,-8.6852 -2.2972 -13.0278c -1.0084,0.1778 -2.0169,0.3556 -3.0253 0.5334c -0.2145,-1.2164 -0.4290,-2.4329 -0.6435 -3.6493c -17.3326,3.0562 -34.6652,6.1124 -51.9978 9.1686c 0.2145,1.2164 0.4290,2.4329 0.6435 3.6493c -1.0084,0.1778 -2.0169,0.3556 -3.0253 0.5334ZM 792.0905,554.5913 c 0.7657,4.3426 1.5314,8.6852 2.2971 13.0278c 1.0084,-0.1778 2.0169,-0.3556 3.0253 -0.5334c 1.0958,6.2145 2.1916,12.4291 3.2874 18.6436c -1.0085,0.1778 -2.0169,0.3557 -3.0253 0.5335c 0.7657,4.3425 1.5314,8.6851 2.2971 13.0277c 1.0085,-0.1778 2.0169,-0.3556 3.0253 -0.5334c 0.2145,1.2164 0.4290,2.4329 0.6435 3.6493c 17.3326,-3.0562 34.6652,-6.1124 51.9979 -9.1686c -0.2145,-1.2164 -0.4290,-2.4329 -0.6435 -3.6493c 1.0084,-0.1778 2.0169,-0.3556 3.0253 -0.5334c -0.7658,-4.3426 -1.5315,-8.6852 -2.2972 -13.0278c -1.0084,0.1778 -2.0169,0.3557 -3.0253 0.5335c -1.0958,-6.2146 -2.1916,-12.4291 -3.2873 -18.6437c 1.0084,-0.1778 2.0169,-0.3556 3.0253 -0.5334c -0.7657,-4.3426 -1.5314,-8.6852 -2.2971 -13.0278c -1.0084,0.1778 -2.0169,0.3556 -3.0253 0.5334c -0.2145,-1.2164 -0.4290,-2.4329 -0.6435 -3.6493c -17.3326,3.0562 -34.6652,6.1124 -51.9978 9.1686c 0.2145,1.2165 0.4290,2.4329 0.6435 3.6493c -1.0085,0.1778 -2.0169,0.3556 -3.0253 0.5334ZM 804.5603,625.3114 c 0.7657,4.3426 1.5314,8.6852 2.2971 13.0277c 1.0084,-0.1778 2.0169,-0.3556 3.0253 -0.5334c 1.0958,6.2146 2.1916,12.4291 3.2874 18.6437c -1.0085,0.1778 -2.0169,0.3556 -3.0253 0.5334c 0.7657,4.3426 1.5314,8.6852 2.2971 13.0278c 1.0085,-0.1779 2.0169,-0.3557 3.0253 -0.5335c 0.2145,1.2165 0.4290,2.4329 0.6435 3.6493c 17.3326,-3.0562 34.6652,-6.1124 51.9979 -9.1686c -0.2145,-1.2165 -0.4290,-2.4329 -0.6435 -3.6493c 1.0084,-0.1778 2.0169,-0.3557 3.0253 -0.5335c -0.7658,-4.3425 -1.5315,-8.6851 -2.2972 -13.0277c -1.0084,0.1778 -2.0169,0.3556 -3.0253 0.5334c -1.0958,-6.2145 -2.1916,-12.4291 -3.2873 -18.6437c 1.0084,-0.1778 2.0169,-0.3556 3.0253 -0.5334c -0.7657,-4.3426 -1.5314,-8.6852 -2.2971 -13.0277c -1.0084,0.1778 -2.0169,0.3556 -3.0253 0.5334c -0.2145,-1.2164 -0.4290,-2.4329 -0.6435 -3.6493c -17.3326,3.0562 -34.6652,6.1124 -51.9979 9.1686c 0.2145,1.2164 0.4290,2.4329 0.6435 3.6493c -1.0085,0.1778 -2.0169,0.3556 -3.0253 0.5334ZM 817.0302,696.0315 c 0.7657,4.3426 1.5314,8.6852 2.2971 13.0278c 1.0084,-0.1778 2.0169,-0.3556 3.0253 -0.5334c 1.0958,6.2145 2.1916,12.4291 3.2874 18.6436c -1.0085,0.1778 -2.0169,0.3556 -3.0253 0.5334c 0.7657,4.3426 1.5314,8.6852 2.2971 13.0278c 1.0085,-0.1778 2.0169,-0.3556 3.0253 -0.5334c 0.2145,1.2164 0.4290,2.4329 0.6435 3.6493c 17.3326,-3.0562 34.6652,-6.1124 51.9979 -9.1686c -0.2145,-1.2164 -0.4290,-2.4329 -0.6435 -3.6493c 1.0084,-0.1778 2.0169,-0.3556 3.0253 -0.5334c -0.7658,-4.3426 -1.5315,-8.6852 -2.2972 -13.0278c -1.0084,0.1778 -2.0169,0.3556 -3.0253 0.5334c -1.0958,-6.2145 -2.1916,-12.4291 -3.2873 -18.6436c 1.0084,-0.1778 2.0169,-0.3556 3.0253 -0.5334c -0.7657,-4.3426 -1.5314,-8.6852 -2.2971 -13.0278c -1.0084,0.1778 -2.0169,0.3556 -3.0253 0.5334c -0.2145,-1.2164 -0.4290,-2.4329 -0.6435 -3.6493c -17.3326,3.0562 -34.6652,6.1124 -51.9979 9.1686c 0.2145,1.2164 0.4290,2.4329 0.6435 3.6493c -1.0084,0.1778 -2.0169,0.3556 -3.0253 0.5334ZM 829.5000,766.7515 c 0.7657,4.3425 1.5314,8.6851 2.2971 13.0277c 1.0084,-0.1778 2.0169,-0.3556 3.0253 -0.5334c 1.0958,6.2145 2.1916,12.4291 3.2874 18.6437c -1.0085,0.1778 -2.0169,0.3556 -3.0253 0.5334c 0.7657,4.3426 1.5314,8.6851 2.2971 13.0277c 1.0085,-0.1778 2.0169,-0.3556 3.0253 -0.5334c 0.2145,1.2164 0.4290,2.4329 0.6435 3.6493c 17.3326,-3.0562 34.6652,-6.1124 51.9979 -9.1686c -0.2145,-1.2164 -0.4290,-2.4329 -0.6435 -3.6493c 1.0084,-0.1778 2.0169,-0.3556 3.0253 -0.5334c -0.7657,-4.3426 -1.5314,-8.6852 -2.2971 -13.0277c -1.0084,0.1778 -2.0169,0.3556 -3.0253 0.5334c -1.0958,-6.2146 -2.1916,-12.4291 -3.2873 -18.6437c 1.0084,-0.1778 2.0169,-0.3556 3.0253 -0.5334c -0.7657,-4.3426 -1.5314,-8.6852 -2.2971 -13.0278c -1.0084,0.1779 -2.0169,0.3557 -3.0253 0.5335c -0.2145,-1.2165 -0.4290,-2.4329 -0.6435 -3.6493c -17.3326,3.0562 -34.6652,6.1124 -51.9979 9.1686c 0.2145,1.2165 0.4290,2.4329 0.6435 3.6493c -1.0084,0.1778 -2.0169,0.3557 -3.0253 0.5335ZM 866.0920,560.7320 c 0.7657,4.3426 1.5315,8.6852 2.2972 13.0278c 1.0084,-0.1778 2.0169,-0.3556 3.0253 -0.5334c 1.0958,6.2145 2.1916,12.4291 3.2873 18.6436c -1.0084,0.1778 -2.0169,0.3556 -3.0253 0.5334c 0.7657,4.3426 1.5314,8.6852 2.2971 13.0278c 1.0084,-0.1778 2.0169,-0.3556 3.0253 -0.5334c 0.2145,1.2164 0.4290,2.4329 0.6435 3.6493c 17.3326,-3.0562 34.6652,-6.1124 51.9978 -9.1686c -0.2145,-1.2164 -0.4290,-2.4329 -0.6435 -3.6493c 1.0085,-0.1778 2.0169,-0.3556 3.0253 -0.5334c -0.7657,-4.3426 -1.5314,-8.6852 -2.2971 -13.0278c -1.0085,0.1778 -2.0169,0.3556 -3.0253 0.5335c -1.0958,-6.2146 -2.1916,-12.4291 -3.2874 -18.6437c 1.0084,-0.1778 2.0169,-0.3556 3.0253 -0.5334c -0.7657,-4.3426 -1.5314,-8.6852 -2.2972 -13.0278c -1.0084,0.1778 -2.0169,0.3556 -3.0253 0.5334c -0.2145,-1.2164 -0.4290,-2.4329 -0.6435 -3.6493c -17.3326,3.0562 -34.6652,6.1124 -51.9979 9.1686c 0.2145,1.2164 0.4290,2.4329 0.6435 3.6493c -1.0084,0.1778 -2.0169,0.3556 -3.0253 0.5334ZM 878.5619,631.4521 c 0.7657,4.3425 1.5315,8.6852 2.2972 13.0277c 1.0084,-0.1778 2.0169,-0.3556 3.0253 -0.5334c 1.0958,6.2146 2.1916,12.4291 3.2873 18.6437c -1.0084,0.1778 -2.0169,0.3556 -3.0253 0.5334c 0.7658,4.3426 1.5315,8.6852 2.2972 13.0277c 1.0084,-0.1778 2.0169,-0.3556 3.0253 -0.5334c 0.2145,1.2165 0.4290,2.4329 0.6435 3.6493c 17.3326,-3.0562 34.6652,-6.1124 51.9978 -9.1686c -0.2145,-1.2165 -0.4290,-2.4329 -0.6435 -3.6494c 1.0085,-0.1778 2.0169,-0.3556 3.0253 -0.5334c -0.7657,-4.3426 -1.5314,-8.6851 -2.2971 -13.0277c -1.0085,0.1778 -2.0169,0.3556 -3.0253 0.5334c -1.0958,-6.2146 -2.1916,-12.4291 -3.2874 -18.6437c 1.0084,-0.1778 2.0169,-0.3556 3.0253 -0.5334c -0.7657,-4.3426 -1.5314,-8.6852 -2.2972 -13.0277c -1.0084,0.1778 -2.0169,0.3556 -3.0253 0.5334c -0.2145,-1.2165 -0.4290,-2.4329 -0.6435 -3.6493c -17.3326,3.0562 -34.6652,6.1124 -51.9979 9.1686c 0.2145,1.2164 0.4290,2.4329 0.6435 3.6493c -1.0084,0.1779 -2.0169,0.3557 -3.0253 0.5335ZM 891.0317,702.1721 c 0.7657,4.3426 1.5315,8.6852 2.2972 13.0278c 1.0084,-0.1778 2.0169,-0.3556 3.0253 -0.5335c 1.0958,6.2146 2.1916,12.4292 3.2874 18.6437c -1.0084,0.1778 -2.0169,0.3556 -3.0253 0.5334c 0.7658,4.3426 1.5315,8.6852 2.2972 13.0278c 1.0084,-0.1778 2.0169,-0.3556 3.0253 -0.5334c 0.2145,1.2164 0.4290,2.4329 0.6435 3.6493c 17.3326,-3.0562 34.6652,-6.1124 51.9978 -9.1686c -0.2145,-1.2164 -0.4290,-2.4329 -0.6435 -3.6493c 1.0085,-0.1778 2.0169,-0.3556 3.0253 -0.5334c -0.7657,-4.3426 -1.5314,-8.6852 -2.2971 -13.0278c -1.0085,0.1778 -2.0169,0.3556 -3.0253 0.5334c -1.0958,-6.2145 -2.1916,-12.4291 -3.2874 -18.6436c 1.0084,-0.1778 2.0169,-0.3556 3.0253 -0.5335c -0.7657,-4.3425 -1.5314,-8.6851 -2.2972 -13.0277c -1.0084,0.1778 -2.0169,0.3556 -3.0253 0.5334c -0.2145,-1.2164 -0.4290,-2.4329 -0.6435 -3.6493c -17.3326,3.0562 -34.6652,6.1124 -51.9979 9.1686c 0.2145,1.2164 0.4290,2.4329 0.6435 3.6493c -1.0084,0.1778 -2.0169,0.3556 -3.0253 0.5334ZM 903.5016,772.8922 c 0.7657,4.3426 1.5315,8.6852 2.2972 13.0278c 1.0084,-0.1778 2.0169,-0.3556 3.0253 -0.5334c 1.0958,6.2145 2.1916,12.4291 3.2874 18.6436c -1.0084,0.1778 -2.0169,0.3557 -3.0253 0.5335c 0.7658,4.3425 1.5315,8.6851 2.2972 13.0277c 1.0084,-0.1778 2.0169,-0.3556 3.0253 -0.5334c 0.2145,1.2164 0.4290,2.4329 0.6435 3.6493c 17.3326,-3.0562 34.6652,-6.1124 51.9978 -9.1686c -0.2145,-1.2164 -0.4290,-2.4329 -0.6435 -3.6493c 1.0084,-0.1778 2.0169,-0.3556 3.0253 -0.5334c -0.7657,-4.3426 -1.5314,-8.6852 -2.2971 -13.0278c -1.0085,0.1779 -2.0169,0.3557 -3.0253 0.5335c -1.0958,-6.2146 -2.1916,-12.4291 -3.2874 -18.6437c 1.0084,-0.1778 2.0169,-0.3556 3.0253 -0.5334c -0.7657,-4.3426 -1.5314,-8.6852 -2.2972 -13.0278c -1.0084,0.1778 -2.0169,0.3556 -3.0253 0.5335c -0.2145,-1.2165 -0.4290,-2.4329 -0.6435 -3.6493c -17.3326,3.0562 -34.6652,6.1124 -51.9979 9.1686c 0.2145,1.2165 0.4290,2.4329 0.6435 3.6493c -1.0084,0.1778 -2.0169,0.3556 -3.0253 0.5334ZM 938.7810,559.4285 c 0.7657,4.3426 1.5314,8.6852 2.2971 13.0278c 1.0084,-0.1778 2.0169,-0.3556 3.0253 -0.5334c 1.0958,6.2145 2.1916,12.4291 3.2873 18.6436c -1.0084,0.1778 -2.0169,0.3556 -3.0253 0.5334c 0.7657,4.3426 1.5314,8.6852 2.2971 13.0278c 1.0085,-0.1778 2.0169,-0.3556 3.0253 -0.5334c 0.2145,1.2164 0.4290,2.4329 0.6435 3.6493c 17.3326,-3.0562 34.6652,-6.1124 51.9979 -9.1686c -0.2145,-1.2164 -0.4290,-2.4329 -0.6435 -3.6493c 1.0084,-0.1778 2.0169,-0.3556 3.0253 -0.5334c -0.7657,-4.3426 -1.5314,-8.6852 -2.2971 -13.0278c -1.0084,0.1778 -2.0169,0.3556 -3.0253 0.5335c -1.0958,-6.2146 -2.1916,-12.4292 -3.2874 -18.6437c 1.0085,-0.1778 2.0169,-0.3556 3.0253 -0.5334c -0.7657,-4.3426 -1.5314,-8.6852 -2.2971 -13.0278c -1.0085,0.1778 -2.0169,0.3556 -3.0253 0.5334c -0.2145,-1.2164 -0.4290,-2.4329 -0.6435 -3.6493c -17.3326,3.0562 -34.6652,6.1124 -51.9979 9.1686c 0.2145,1.2164 0.4290,2.4329 0.6435 3.6493c -1.0084,0.1778 -2.0169,0.3556 -3.0253 0.5334ZM 951.2509,630.1486 c 0.7657,4.3425 1.5314,8.6851 2.2971 13.0277c 1.0084,-0.1778 2.0169,-0.3556 3.0253 -0.5334c 1.0958,6.2146 2.1916,12.4291 3.2874 18.6437c -1.0085,0.1778 -2.0169,0.3556 -3.0253 0.5334c 0.7657,4.3426 1.5314,8.6852 2.2971 13.0277c 1.0084,-0.1778 2.0169,-0.3556 3.0253 -0.5334c 0.2145,1.2164 0.4290,2.4329 0.6435 3.6493c 17.3326,-3.0562 34.6652,-6.1124 51.9979 -9.1686c -0.2145,-1.2164 -0.4290,-2.4329 -0.6435 -3.6493c 1.0084,-0.1778 2.0169,-0.3556 3.0253 -0.5334c -0.7657,-4.3426 -1.5314,-8.6852 -2.2971 -13.0277c -1.0084,0.1778 -2.0169,0.3556 -3.0253 0.5334c -1.0958,-6.2146 -2.1916,-12.4291 -3.2874 -18.6437c 1.0085,-0.1778 2.0169,-0.3556 3.0253 -0.5334c -0.7657,-4.3426 -1.5314,-8.6852 -2.2971 -13.0278c -1.0085,0.1779 -2.0169,0.3557 -3.0253 0.5335c -0.2145,-1.2165 -0.4290,-2.4329 -0.6435 -3.6493c -17.3326,3.0562 -34.6652,6.1124 -51.9979 9.1686c 0.2145,1.2165 0.4290,2.4329 0.6435 3.6493c -1.0084,0.1779 -2.0169,0.3557 -3.0253 0.5335ZM 954.6713,892.7599 c 0.7186,2.4151 1.4372,4.8301 2.1558 7.2451c 18.1128,-5.3896 36.2256,-10.7791 54.3384 -16.1687c -0.7186,-2.4150 -1.4372,-4.8301 -2.1558 -7.2451c -18.1128,5.3895 -36.2256,10.7791 -54.3384 16.1686ZM 963.7207,700.8686 c 0.7658,4.3426 1.5315,8.6852 2.2972 13.0278c 1.0084,-0.1778 2.0169,-0.3557 3.0253 -0.5335c 1.0958,6.2146 2.1916,12.4291 3.2873 18.6437c -1.0084,0.1778 -2.0169,0.3556 -3.0253 0.5334c 0.7657,4.3426 1.5314,8.6852 2.2971 13.0278c 1.0084,-0.1778 2.0169,-0.3556 3.0253 -0.5334c 0.2145,1.2164 0.4290,2.4329 0.6435 3.6493c 17.3326,-3.0562 34.6652,-6.1124 51.9979 -9.1686c -0.2145,-1.2164 -0.4290,-2.4329 -0.6435 -3.6493c 1.0084,-0.1778 2.0169,-0.3556 3.0253 -0.5334c -0.7657,-4.3426 -1.5314,-8.6852 -2.2971 -13.0278c -1.0084,0.1778 -2.0169,0.3556 -3.0253 0.5334c -1.0958,-6.2145 -2.1916,-12.4291 -3.2874 -18.6436c 1.0085,-0.1778 2.0169,-0.3556 3.0253 -0.5335c -0.7657,-4.3425 -1.5314,-8.6851 -2.2971 -13.0277c -1.0085,0.1778 -2.0169,0.3556 -3.0253 0.5334c -0.2145,-1.2164 -0.4290,-2.4329 -0.6435 -3.6493c -17.3326,3.0562 -34.6652,6.1124 -51.9979 9.1686c 0.2145,1.2164 0.4290,2.4329 0.6435 3.6493c -1.0084,0.1778 -2.0169,0.3556 -3.0253 0.5334ZM 976.1906,771.5887 c 0.7658,4.3426 1.5315,8.6852 2.2972 13.0278c 1.0084,-0.1778 2.0169,-0.3556 3.0253 -0.5334c 1.0958,6.2145 2.1916,12.4291 3.2873 18.6436c -1.0084,0.1778 -2.0169,0.3557 -3.0253 0.5335c 0.7657,4.3425 1.5314,8.6851 2.2971 13.0277c 1.0084,-0.1778 2.0169,-0.3556 3.0253 -0.5334c 0.2145,1.2164 0.4290,2.4329 0.6435 3.6493c 17.3326,-3.0562 34.6652,-6.1124 51.9979 -9.1686c -0.2145,-1.2164 -0.4290,-2.4329 -0.6435 -3.6493c 1.0084,-0.1778 2.0169,-0.3556 3.0253 -0.5334c -0.7657,-4.3426 -1.5314,-8.6852 -2.2971 -13.0278c -1.0084,0.1779 -2.0169,0.3557 -3.0253 0.5335c -1.0958,-6.2146 -2.1916,-12.4291 -3.2874 -18.6437c 1.0085,-0.1778 2.0169,-0.3556 3.0253 -0.5334c -0.7657,-4.3426 -1.5314,-8.6852 -2.2971 -13.0278c -1.0085,0.1778 -2.0169,0.3556 -3.0253 0.5335c -0.2145,-1.2165 -0.4290,-2.4329 -0.6435 -3.6493c -17.3326,3.0562 -34.6652,6.1124 -51.9979 9.1686c 0.2145,1.2165 0.4290,2.4329 0.6435 3.6493c -1.0084,0.1778 -2.0169,0.3556 -3.0253 0.5334ZM 1010.1574,550.6808 c 0.7657,4.3426 1.5314,8.6852 2.2971 13.0278c 1.0084,-0.1778 2.0169,-0.3556 3.0253 -0.5334c 1.0958,6.2145 2.1916,12.4291 3.2874 18.6436c -1.0085,0.1778 -2.0169,0.3556 -3.0253 0.5334c 0.7657,4.3426 1.5314,8.6852 2.2971 13.0278c 1.0085,-0.1778 2.0169,-0.3556 3.0253 -0.5334c 0.2145,1.2164 0.4290,2.4329 0.6435 3.6493c 17.3326,-3.0562 34.6652,-6.1124 51.9979 -9.1686c -0.2145,-1.2164 -0.4290,-2.4329 -0.6435 -3.6493c 1.0084,-0.1778 2.0169,-0.3556 3.0253 -0.5334c -0.7657,-4.3426 -1.5314,-8.6852 -2.2971 -13.0278c -1.0084,0.1778 -2.0169,0.3556 -3.0253 0.5334c -1.0958,-6.2145 -2.1916,-12.4291 -3.2874 -18.6436c 1.0085,-0.1778 2.0169,-0.3556 3.0253 -0.5334c -0.7657,-4.3426 -1.5314,-8.6852 -2.2971 -13.0278c -1.0084,0.1778 -2.0169,0.3556 -3.0253 0.5334c -0.2145,-1.2164 -0.4290,-2.4329 -0.6435 -3.6493c -17.3326,3.0562 -34.6652,6.1124 -51.9979 9.1686c 0.2145,1.2164 0.4290,2.4329 0.6435 3.6493c -1.0084,0.1778 -2.0169,0.3556 -3.0253 0.5334ZM 1022.6273,621.4008 c 0.7657,4.3425 1.5314,8.6851 2.2971 13.0277c 1.0084,-0.1778 2.0169,-0.3556 3.0253 -0.5334c 1.0958,6.2146 2.1916,12.4291 3.2874 18.6437c -1.0085,0.1778 -2.0169,0.3556 -3.0253 0.5334c 0.7657,4.3426 1.5314,8.6852 2.2971 13.0277c 1.0084,-0.1778 2.0169,-0.3556 3.0253 -0.5334c 0.2145,1.2164 0.4290,2.4329 0.6435 3.6493c 17.3326,-3.0562 34.6652,-6.1124 51.9979 -9.1686c -0.2145,-1.2164 -0.4290,-2.4329 -0.6435 -3.6493c 1.0084,-0.1778 2.0169,-0.3556 3.0253 -0.5334c -0.7657,-4.3426 -1.5314,-8.6852 -2.2971 -13.0277c -1.0084,0.1778 -2.0169,0.3556 -3.0253 0.5334c -1.0958,-6.2146 -2.1916,-12.4291 -3.2874 -18.6437c 1.0085,-0.1778 2.0169,-0.3556 3.0253 -0.5334c -0.7657,-4.3426 -1.5314,-8.6852 -2.2971 -13.0278c -1.0085,0.1779 -2.0169,0.3557 -3.0253 0.5335c -0.2145,-1.2165 -0.4290,-2.4329 -0.6435 -3.6493c -17.3326,3.0562 -34.6652,6.1124 -51.9979 9.1686c 0.2145,1.2165 0.4290,2.4329 0.6435 3.6493c -1.0084,0.1778 -2.0169,0.3557 -3.0253 0.5335ZM 1035.0971,692.1209 c 0.7658,4.3426 1.5315,8.6852 2.2972 13.0278c 1.0084,-0.1778 2.0169,-0.3557 3.0253 -0.5335c 1.0958,6.2146 2.1916,12.4291 3.2873 18.6437c -1.0084,0.1778 -2.0169,0.3556 -3.0253 0.5334c 0.7657,4.3426 1.5314,8.6852 2.2971 13.0278c 1.0084,-0.1778 2.0169,-0.3556 3.0253 -0.5334c 0.2145,1.2164 0.4290,2.4329 0.6435 3.6493c 17.3326,-3.0562 34.6652,-6.1124 51.9979 -9.1686c -0.2145,-1.2165 -0.4290,-2.4329 -0.6435 -3.6493c 1.0084,-0.1778 2.0169,-0.3556 3.0253 -0.5334c -0.7657,-4.3426 -1.5314,-8.6852 -2.2971 -13.0278c -1.0084,0.1778 -2.0169,0.3556 -3.0253 0.5334c -1.0958,-6.2145 -2.1916,-12.4291 -3.2874 -18.6436c 1.0085,-0.1778 2.0169,-0.3557 3.0253 -0.5335c -0.7657,-4.3425 -1.5314,-8.6851 -2.2971 -13.0277c -1.0084,0.1778 -2.0169,0.3556 -3.0253 0.5334c -0.2145,-1.2164 -0.4290,-2.4329 -0.6435 -3.6493c -17.3326,3.0562 -34.6652,6.1124 -51.9979 9.1686c 0.2145,1.2164 0.4290,2.4329 0.6435 3.6493c -1.0084,0.1778 -2.0169,0.3556 -3.0253 0.5334ZM 1047.5670,762.8409 c 0.7657,4.3426 1.5314,8.6852 2.2971 13.0278c 1.0084,-0.1778 2.0169,-0.3556 3.0253 -0.5334c 1.0958,6.2145 2.1916,12.4291 3.2873 18.6436c -1.0084,0.1778 -2.0169,0.3556 -3.0253 0.5335c 0.7657,4.3425 1.5314,8.6851 2.2971 13.0277c 1.0084,-0.1778 2.0169,-0.3556 3.0253 -0.5334c 0.2145,1.2164 0.4290,2.4329 0.6435 3.6493c 17.3326,-3.0562 34.6652,-6.1124 51.9979 -9.1686c -0.2145,-1.2164 -0.4290,-2.4329 -0.6435 -3.6493c 1.0084,-0.1778 2.0169,-0.3556 3.0253 -0.5334c -0.7657,-4.3426 -1.5314,-8.6852 -2.2971 -13.0278c -1.0084,0.1778 -2.0169,0.3557 -3.0253 0.5335c -1.0958,-6.2146 -2.1916,-12.4291 -3.2874 -18.6437c 1.0085,-0.1778 2.0169,-0.3556 3.0253 -0.5334c -0.7657,-4.3426 -1.5314,-8.6852 -2.2971 -13.0278c -1.0085,0.1778 -2.0169,0.3556 -3.0253 0.5334c -0.2145,-1.2164 -0.4290,-2.4329 -0.6435 -3.6493c -17.3326,3.0562 -34.6652,6.1124 -51.9979 9.1686c 0.2145,1.2164 0.4290,2.4329 0.6435 3.6493c -1.0084,0.1778 -2.0169,0.3556 -3.0253 0.5334ZM 1083.5603,517.5756 c 0.0000,3.1311 2.5383,5.6693 5.6693 5.6693c 3.1311,-0.0000 5.6693,-2.5382 5.6693 -5.6693c 0.0000,-3.1311 -2.5382,-5.6693 -5.6693 -5.6693c -3.1311,-0.0000 -5.6693,2.5383 -5.6693 5.6693ZM 1136.3671,809.4991 c 0.0000,3.1311 2.5383,5.6693 5.6693 5.6693c 3.1311,-0.0000 5.6693,-2.5382 5.6693 -5.6693c 0.0000,-3.1311 -2.5382,-5.6693 -5.6693 -5.6693c -3.1311,-0.0000 -5.6693,2.5383 -5.6693 5.6693Z"/></g><g stroke-linejoin="miter" stroke-opacity="1.0" fill-opacity="0.5" stroke="rgb(0,0,0)" stroke-width="0.37795275590551186" fill="rgb(0,0,255)" stroke-linecap="butt" stroke-miterlimit="10.0"><path d="M 538.7839,225.4565 h -3.0465 l -0.6321,-2.1983 l -0.7522,-1.8955 l -0.8566,-1.5947 l -0.9453,-1.2961 l -1.0184,-0.9995 l -1.0758,-0.7051 l -1.1176,-0.4127 l -1.1436,-0.1223 l -1.1541,0.1659 l -1.1488,0.4521 l -1.1279,0.7362 l -1.0914,1.0182 l -1.0392,1.2982 l -0.9713,1.5761 l -0.8877,1.8518 l -0.7885,2.1256 h -3.0465 l 8.9944,-27.0453 h 3.8547 l 8.9944,27.0453 ZM 562.0781,207.5507 h -2.4247 l -0.4789,-1.1290 l -0.3086,-1.1480 l -0.5877,-2.1495 l -0.5198,-0.8997 l -0.8310,-0.7152 l -1.2625,-0.4798 l -1.8143,-0.1934 v 22.1958 h 4.3521 v 2.4247 h -11.5849 v -2.4247 h 4.3728 v -22.1958 l -1.8376,0.1564 l -1.1777,0.3931 l -0.6889,0.6090 l -0.3712,0.8041 l -0.4731,2.1105 l -0.4440,1.2648 l -0.8103,1.3768 h -2.4248 v -9.1394 h 19.3151 v 9.1394 ZM 584.6054,225.4565 h -3.6060 l -7.8960,-11.5849 h -4.2070 v 11.5849 h -2.8392 v -14.0089 l 2.8392,-0.0007 h 6.0722 l 2.6631,-0.3109 l 1.0906,-0.3886 l 0.9300,-0.5440 l 0.7525,-0.7279 l 0.5375,-0.9196 l 0.3225,-1.1113 l 0.1075,-1.3031 h 0.0000 l -0.1075,-1.2849 l -0.3225,-1.0984 l -0.5375,-0.9119 l -0.7525,-0.7254 l -0.9300,-0.5621 l -1.0906,-0.4015 l -2.6631,-0.3212 h -6.0722 l -2.8392,-0.0003 v -2.4244 h 8.9115 l 2.1022,0.1218 l 1.8509,0.3653 l 1.5997,0.6088 l 1.3484,0.8523 l 1.0699,1.0842 l 0.7642,1.3251 l 0.4585,1.5660 l 0.1528,1.8069 l -0.1503,1.6165 l -0.4507,1.4507 l -0.7098,1.2487 l -0.9274,1.0518 l -1.1398,0.8601 l -1.3471,0.6735 l -1.4973,0.4663 l -1.6320,0.2383 l 8.1447,11.7092 ZM 605.8686,225.4565 h -17.2841 v -27.0453 h 17.2841 v 2.4247 h -14.4449 v 9.6783 h 10.6523 v 2.4247 h -10.6523 v 10.0928 h 14.4449 v 2.4247 ZM 627.1318,215.5814 l -0.1295,2.1916 l -0.3886,1.9740 l -0.6425,1.7305 l -0.9326,1.4611 l -1.2020,1.1606 l -1.4921,0.8704 l -1.7875,0.5440 l -2.0880,0.1813 l -2.1035,-0.1813 l -1.7927,-0.5440 l -1.4766,-0.8704 l -1.1968,-1.1606 l -0.9067,-1.4662 l -0.6476,-1.7460 l -0.3730,-1.9895 l -0.1243,-2.1968 v -17.3670 h 2.8392 v 17.4084 l 0.2072,2.5905 l 0.3264,1.3056 l 0.5233,1.1813 l 0.7616,1.0259 l 0.9999,0.8393 l 1.3108,0.5596 l 1.6528,0.1865 l 1.6528,-0.1865 l 1.3108,-0.5596 l 1.0258,-0.8393 l 0.7564,-1.0259 l 0.5336,-1.1813 l 0.3161,-1.3056 l 0.2072,-2.5905 v -17.4084 h 2.8600 v 17.4084 ZM 649.2239,218.3999 l -0.1762,1.6217 l -0.5285,1.4663 l -0.8238,1.2745 l -1.0621,1.0880 l -1.2694,0.8808 l -1.4455,0.6528 l -1.5647,0.4041 l -1.6269,0.1347 l -2.1864,-0.2124 l -1.9999,-0.6373 l -1.4102,-0.9698 l -0.5256,-0.4111 l -0.3142,0.3726 l -0.7758,1.3814 h -2.4040 v -8.2276 h 2.4040 l 0.1606,1.3315 l 0.4818,1.2175 l 0.7305,1.0621 l 0.9067,0.9067 l 1.0673,0.7409 l 1.2124,0.5647 l 1.3160,0.3420 l 1.3367,0.1140 l 2.2175,-0.3316 l 1.7823,-0.9740 l 0.6839,-0.7098 l 0.5181,-0.8445 l 0.3419,-0.9740 l 0.1140,-1.0984 l -0.1451,-1.2124 l -0.4352,-1.0259 l -0.6632,-0.8652 l -0.8704,-0.7305 l -2.1553,-1.1191 l -2.4455,-0.9326 l -2.9429,-1.0777 l -1.3937,-0.6528 l -1.2383,-0.7979 l -1.0518,-0.9637 l -0.8342,-1.1502 l -0.5440,-1.4144 l -0.1813,-1.7149 l 0.1762,-1.5647 l 0.5285,-1.3782 l 0.8134,-1.2020 l 1.0310,-0.9948 l 1.2331,-0.7823 l 1.4196,-0.5648 l 1.5336,-0.3575 l 1.5751,-0.1192 l 1.8309,0.1694 l 1.3454,0.2965 l 1.6048,0.6559 l 0.7737,0.2090 l 0.6832,-0.8748 h 2.5076 v 7.7302 h -2.5076 l -0.1295,-1.1813 l -0.3886,-1.0984 l -0.5907,-0.9948 l -0.7772,-0.8290 l -0.9326,-0.6839 l -1.0569,-0.5181 l -1.1502,-0.3419 l -1.2124,-0.1140 l -2.0932,0.2487 l -1.7408,0.8083 l -0.6735,0.6217 l -0.5285,0.7875 l -0.3264,0.9533 l -0.1088,1.1191 l 0.1295,0.9792 l 0.3886,0.8238 l 1.4300,1.3264 l 2.0517,1.0362 l 2.4040,0.9326 l 3.0465,1.2020 l 2.7149,1.5958 l 1.0932,1.0414 l 0.8756,1.2590 l 0.5751,1.4973 l 0.1917,1.7978 ZM 3.9685,319.8415 c 0.0000,7.1382 4.6831,13.6111 11.7426 15.6952c 160.6856,47.4378 321.3712,94.8757 482.0567 142.3136c 1.5057,0.4445 3.0674,0.6702 4.6373 0.6702c 26.8923,-0.0000 53.7847,-0.0000 80.6771 0.0000c 26.8924,-0.0000 53.7847,-0.0000 80.6771 0.0000c 1.5699,-0.0000 3.1316,-0.2257 4.6373 -0.6702c 160.6856,-47.4378 321.3712,-94.8757 482.0567 -142.3136c 7.0595,-2.0841 11.7426,-8.5570 11.7426 -15.6952c 0.0000,-0.9434 -0.0818,-1.8985 -0.2507 -2.8566c -17.6023,-99.8275 -35.2046,-199.6550 -52.8069 -299.4825c -1.3802,-7.8273 -8.1810,-13.5339 -16.1291 -13.5339c -169.9756,-0.0000 -339.9513,-0.0000 -509.9269 0.0000c -169.9756,-0.0000 -339.9513,-0.0000 -509.9269 0.0000c -7.9481,-0.0000 -14.7490,5.7066 -16.1291 13.5339c -17.6023,99.8275 -35.2046,199.6550 -52.8069 299.4825c -0.1689,0.9581 -0.2507,1.9131 -0.2507 2.8566ZM 18.4586,316.0495 c 0.0000,-3.1311 2.5382,-5.6693 5.6693 -5.6693c 3.1311,-0.0000 5.6693,2.5383 5.6693 5.6693c 0.0000,3.1311 -2.5383,5.6693 -5.6693 5.6693c -3.1311,-0.0000 -5.6693,-2.5382 -5.6693 -5.6693ZM 38.6810,316.8564 c 0.0000,-0.2179 0.0189,-0.4387 0.0581 -0.6608c 4.1566,-23.5733 8.3132,-47.1467 12.4699 -70.7200c 0.1575,-0.8933 0.3150,-1.7866 0.4725 -2.6799c 3.9991,-22.6800 7.9982,-45.3601 11.9973 -68.0401c 0.1575,-0.8933 0.3150,-1.7866 0.4725 -2.6799c 3.9991,-22.6801 7.9982,-45.3601 11.9973 -68.0402c 0.1575,-0.8933 0.3150,-1.7866 0.4725 -2.6799c 4.1566,-23.5733 8.3132,-47.1467 12.4698 -70.7200c 0.3625,-2.0557 2.3228,-3.4283 4.3784 -3.0658c 22.3327,3.9378 44.6653,7.8757 66.9979 11.8135c 0.3625,-2.0557 2.3228,-3.4283 4.3784 -3.0658c 22.3327,3.9378 44.6653,7.8757 66.9979 11.8135c 0.4376,-2.4814 0.8751,-4.9628 1.3127 -7.4442c 0.3625,-2.0557 2.3227,-3.4283 4.3784 -3.0658c 22.3327,3.9378 44.6653,7.8757 66.9980 11.8135c 0.8750,-4.9628 1.7501,-9.9256 2.6252 -14.8884c 0.3625,-2.0557 2.3228,-3.4282 4.3784 -3.0658c 24.4667,4.3141 48.9333,8.6283 73.4000 12.9424c 1.8337,0.3233 3.1239,1.9180 3.1239 3.7177c 0.0000,0.2178 -0.0189,0.4387 -0.0581 0.6607c -1.0938,6.2035 -2.1877,12.4070 -3.2815 18.6105c 22.3327,3.9379 44.6653,7.8757 66.9980 11.8135c 1.8336,0.3233 3.1238,1.9180 3.1238 3.7177c 0.0000,0.2179 -0.0189,0.4388 -0.0580 0.6608c -0.8751,4.9628 -1.7502,9.9256 -2.6252 14.8884c 22.3326,3.9379 44.6653,7.8757 66.9979 11.8135c 1.8336,0.3233 3.1239,1.9180 3.1239 3.7177c 0.0000,0.2179 -0.0189,0.4387 -0.0581 0.6608c -4.1566,23.5733 -8.3132,47.1467 -12.4699 70.7200c -0.1575,0.8933 -0.3150,1.7866 -0.4725 2.6799c -3.9991,22.6800 -7.9982,45.3601 -11.9973 68.0402c -0.1575,0.8933 -0.3150,1.7866 -0.4725 2.6799c -1.7020,9.6527 -3.4040,19.3054 -5.1061 28.9580c 22.3327,3.9378 44.6653,7.8757 66.9979 11.8135c 1.8337,0.3233 3.1239,1.9180 3.1239 3.7177c 0.0000,0.2179 -0.0189,0.4387 -0.0580 0.6608c -4.1566,23.5733 -8.3132,47.1467 -12.4699 70.7200c -0.1575,0.8933 -0.3150,1.7866 -0.4725 2.6799c -4.1566,23.5734 -8.3132,47.1467 -12.4699 70.7200c -0.3625,2.0557 -2.3228,3.4283 -4.3784 3.0658c -24.4667,-4.3141 -48.9333,-8.6283 -73.4000 -12.9424c -1.8336,-0.3233 -3.1239,-1.9180 -3.1239 -3.7177c 0.0000,-0.2179 0.0189,-0.4387 0.0581 -0.6608c 1.8596,-10.5460 3.7191,-21.0920 5.5786 -31.6379c -22.3327,-3.9379 -44.6653,-7.8757 -66.9979 -11.8135c -1.8337,-0.3233 -3.1239,-1.9180 -3.1239 -3.7177c 0.0000,-0.2179 0.0189,-0.4388 0.0580 -0.6608c 0.8751,-4.9628 1.7502,-9.9256 2.6253 -14.8884c -22.3327,-3.9378 -44.6653,-7.8757 -66.9980 -11.8135c -1.8336,-0.3233 -3.1238,-1.9180 -3.1238 -3.7177c 0.0000,-0.2179 0.0189,-0.4387 0.0580 -0.6608c 1.0938,-6.2035 2.1877,-12.4070 3.2815 -18.6105c -20.1986,-3.5616 -40.3973,-7.1232 -60.5959 -10.6847c -0.8751,4.9628 -1.7502,9.9256 -2.6253 14.8884c -0.3625,2.0557 -2.3228,3.4283 -4.3784 3.0658c -22.3327,-3.9379 -44.6653,-7.8757 -66.9980 -11.8135c -0.4375,2.4814 -0.8751,4.9628 -1.3126 7.4442c -0.3625,2.0556 -2.3228,3.4282 -4.3784 3.0658c -22.3326,-3.9379 -44.6653,-7.8757 -66.9979 -11.8136c -0.3625,2.0557 -2.3228,3.4283 -4.3784 3.0658c -24.4667,-4.3141 -48.9333,-8.6283 -73.4000 -12.9424c -1.8337,-0.3233 -3.1239,-1.9180 -3.1239 -3.7177ZM 71.2655,24.1260 c 0.0000,-3.1311 2.5382,-5.6693 5.6693 -5.6693c 3.1311,-0.0000 5.6693,2.5383 5.6693 5.6693c 0.0000,3.1311 -2.5383,5.6693 -5.6693 5.6693c -3.1311,-0.0000 -5.6693,-2.5382 -5.6693 -5.6693ZM 496.7358,458.3630 c 0.0000,-3.1311 2.5382,-5.6693 5.6693 -5.6693c 3.1311,-0.0000 5.6693,2.5382 5.6693 5.6693c 0.0000,3.1311 -2.5382,5.6693 -5.6693 5.6693c -3.1311,-0.0000 -5.6693,-2.5383 -5.6693 -5.6693ZM 501.8223,24.1260 c 0.0000,-3.1311 2.5383,-5.6693 5.6693 -5.6693c 3.1311,-0.0000 5.6693,2.5383 5.6693 5.6693c 0.0000,3.1311 -2.5382,5.6693 -5.6693 5.6693c -3.1311,-0.0000 -5.6693,-2.5382 -5.6693 -5.6693ZM 604.3381,303.2932 c -0.0000,-1.7996 1.2902,-3.3943 3.1239 -3.7177c 22.3327,-3.9379 44.6653,-7.8757 66.9979 -11.8135c -1.7020,-9.6527 -3.4041,-19.3053 -5.1061 -28.9580c -0.1575,-0.8933 -0.3150,-1.7866 -0.4725 -2.6799c -3.9991,-22.6801 -7.9982,-45.3601 -11.9973 -68.0402c -0.1575,-0.8933 -0.3150,-1.7866 -0.4725 -2.6799c -4.1566,-23.5734 -8.3132,-47.1467 -12.4699 -70.7200c -0.0392,-0.2220 -0.0581,-0.4429 -0.0581 -0.6608c 0.0000,-1.7997 1.2902,-3.3943 3.1239 -3.7177c 22.3327,-3.9379 44.6653,-7.8757 66.9979 -11.8135c -0.8750,-4.9628 -1.7501,-9.9256 -2.6252 -14.8884c -0.0391,-0.2220 -0.0580,-0.4429 -0.0580 -0.6608c 0.0000,-1.7996 1.2902,-3.3943 3.1238 -3.7177c 22.3327,-3.9379 44.6653,-7.8757 66.9980 -11.8135c -1.0938,-6.2035 -2.1877,-12.4070 -3.2815 -18.6105c -0.0392,-0.2220 -0.0581,-0.4429 -0.0581 -0.6607c 0.0000,-1.7997 1.2902,-3.3944 3.1239 -3.7177c 24.4667,-4.3141 48.9333,-8.6283 73.4000 -12.9424c 2.0557,-0.3625 4.0160,1.0101 4.3784 3.0658c 0.8751,4.9628 1.7502,9.9256 2.6252 14.8884c 22.3327,-3.9379 44.6653,-7.8757 66.9980 -11.8135c 2.0557,-0.3625 4.0159,1.0101 4.3784 3.0658c 0.4376,2.4814 0.8751,4.9628 1.3127 7.4442c 22.3326,-3.9379 44.6653,-7.8757 66.9979 -11.8135c 2.0557,-0.3625 4.0159,1.0101 4.3784 3.0658c 22.3326,-3.9379 44.6653,-7.8757 66.9979 -11.8135c 2.0557,-0.3625 4.0159,1.0101 4.3784 3.0658c 4.1566,23.5734 8.3132,47.1467 12.4698 70.7200c 0.1575,0.8933 0.3150,1.7866 0.4725 2.6799c 3.9991,22.6801 7.9982,45.3601 11.9973 68.0402c 0.1575,0.8933 0.3150,1.7866 0.4725 2.6799c 3.9991,22.6800 7.9982,45.3601 11.9973 68.0401c 0.1575,0.8933 0.3150,1.7866 0.4725 2.6799c 4.1566,23.5734 8.3132,47.1467 12.4699 70.7200c 0.0392,0.2220 0.0581,0.4429 0.0581 0.6608c 0.0000,1.7997 -1.2902,3.3943 -3.1239 3.7177c -24.4667,4.3141 -48.9333,8.6283 -73.4000 12.9424c -2.0557,0.3625 -4.0160,-1.0102 -4.3784 -3.0658c -22.3327,3.9379 -44.6653,7.8757 -66.9979 11.8136c -2.0557,0.3625 -4.0160,-1.0102 -4.3784 -3.0658c -0.4375,-2.4814 -0.8751,-4.9628 -1.3126 -7.4442c -22.3327,3.9378 -44.6653,7.8757 -66.9980 11.8135c -2.0556,0.3625 -4.0159,-1.0102 -4.3784 -3.0658c -0.8751,-4.9628 -1.7502,-9.9256 -2.6253 -14.8884c -20.1986,3.5615 -40.3973,7.1231 -60.5959 10.6847c 1.0938,6.2035 2.1877,12.4070 3.2815 18.6105c 0.0391,0.2220 0.0580,0.4429 0.0580 0.6608c 0.0000,1.7997 -1.2902,3.3943 -3.1238 3.7177c -22.3327,3.9379 -44.6653,7.8757 -66.9980 11.8135c 0.8751,4.9628 1.7502,9.9256 2.6253 14.8884c 0.0391,0.2220 0.0580,0.4429 0.0580 0.6608c 0.0000,1.7996 -1.2902,3.3943 -3.1239 3.7177c -22.3326,3.9379 -44.6653,7.8757 -66.9979 11.8135c 1.8596,10.5460 3.7191,21.0920 5.5786 31.6379c 0.0392,0.2220 0.0581,0.4429 0.0581 0.6608c 0.0000,1.7997 -1.2902,3.3943 -3.1239 3.7177c -24.4667,4.3141 -48.9333,8.6283 -73.4000 12.9424c -2.0557,0.3625 -4.0160,-1.0102 -4.3784 -3.0658c -4.1566,-23.5733 -8.3132,-47.1467 -12.4699 -70.7200c -0.1575,-0.8933 -0.3150,-1.7866 -0.4725 -2.6799c -4.1566,-23.5734 -8.3132,-47.1467 -12.4699 -70.7200c -0.0391,-0.2220 -0.0580,-0.4429 -0.0580 -0.6608ZM 653.0035,24.1260 c 0.0000,-3.1311 2.5382,-5.6693 5.6693 -5.6693c 3.1311,-0.0000 5.6693,2.5383 5.6693 5.6693c 0.0000,3.1311 -2.5383,5.6693 -5.6693 5.6693c -3.1311,-0.0000 -5.6693,-2.5382 -5.6693 -5.6693ZM 658.0900,458.3630 c 0.0000,-3.1311 2.5382,-5.6693 5.6693 -5.6693c 3.1311,-0.0000 5.6693,2.5382 5.6693 5.6693c 0.0000,3.1311 -2.5382,5.6693 -5.6693 5.6693c -3.1311,-0.0000 -5.6693,-2.5383 -5.6693 -5.6693ZM 1083.5603,24.1260 c 0.0000,-3.1311 2.5383,-5.6693 5.6693 -5.6693c 3.1311,-0.0000 5.6693,2.5383 5.6693 5.6693c 0.0000,3.1311 -2.5382,5.6693 -5.6693 5.6693c -3.1311,-0.0000 -5.6693,-2.5382 -5.6693 -5.6693ZM 1136.3671,316.0495 c 0.0000,-3.1311 2.5383,-5.6693 5.6693 -5.6693c 3.1311,-0.0000 5.6693,2.5383 5.6693 5.6693c 0.0000,3.1311 -2.5382,5.6693 -5.6693 5.6693c -3.1311,-0.0000 -5.6693,-2.5382 -5.6693 -5.6693Z"/></g></svg>