<?xml version="1.0" encoding="UTF-8"?>
<!DOCTYPE svg PUBLIC "-//W3C//DTD SVG 1.1//EN"
    "http://www.w3.org/Graphics/SVG/1.1/DTD/svg11.dtd"><svg xmlns="http://www.w3.org/2000/svg" height="375.6976" stroke-opacity="1" viewBox="0 0 740 376" font-size="1" width="739.7921" xmlns:xlink="http://www.w3.org/1999/xlink" stroke="rgb(0,0,0)" version="1.1"><defs></defs><defs><linearGradient x2="48.4092" y1="0.0000" gradientUnits="userSpaceOnUse" spreadMethod="pad" gradientTransform="matrix(3.7795,-0.0000,0.0000,-3.7795,369.8960,293.6756)" id="gradient0" y2="0.0000" x1="-48.4092"><stop stop-opacity="1.0000" offset="0.0000" stop-color="rgb(128,128,128)"/><stop stop-opacity="1.0000" offset="0.5000" stop-color="rgb(255,255,255)"/><stop stop-opacity="1.0000" offset="1.0000" stop-color="rgb(128,128,128)"/></linearGradient></defs><g stroke-linejoin="miter" stroke-opacity="1.0" fill-opacity="1" stroke="rgb(0,0,0)" stroke-width="0.37795275590551186" fill="url(#gradient0)" stroke-linecap="butt" stroke-miterlimit="10.0"><path d="M 3.9685,20.3464 c 0.0000,-9.0453 7.3326,-16.3779 16.3779 -16.3779c 116.5165,-0.0000 233.0331,-0.0000 349.5496 -0.0000c 116.5165,-0.0000 233.0331,-0.0000 349.5496 -0.0000c 9.0453,-0.0000 16.3779,7.3326 16.3779 16.3779c 0.0000,68.8462 0.0000,137.6924 0.0000 206.5386c 0.0000,34.4231 0.0000,68.8462 0.0000 103.2693c 0.0000,8.4641 -6.4494,15.5339 -14.8779 16.3091c -91.3197,8.3989 -182.6394,16.7979 -273.9590 25.1968c -0.4987,0.0459 -0.9992,0.0688 -1.5000 0.0688c -25.1969,-0.0000 -50.3937,-0.0000 -75.5906 -0.0000c -25.1969,-0.0000 -50.3937,-0.0000 -75.5906 -0.0000c -0.5008,-0.0000 -1.0013,-0.0230 -1.5000 -0.0688c -91.3197,-8.3989 -182.6394,-16.7979 -273.9590 -25.1968c -8.4285,-0.7752 -14.8779,-7.8450 -14.8779 -16.3091c 0.0000,-34.4231 0.0000,-68.8462 0.0000 -103.2693c 0.0000,-68.8462 0.0000,-137.6924 0.0000 -206.5386ZM 18.4567,24.1259 c 0.0000,3.1311 2.5382,5.6693 5.6693 5.6693c 3.1311,-0.0000 5.6693,-2.5382 5.6693 -5.6693c 0.0000,-3.1311 -2.5382,-5.6693 -5.6693 -5.6693c -3.1311,-0.0000 -5.6693,2.5382 -5.6693 5.6693ZM 18.4567,326.3748 c 0.0000,3.1311 2.5382,5.6693 5.6693 5.6693c 3.1311,-0.0000 5.6693,-2.5382 5.6693 -5.6693c 0.0000,-3.1311 -2.5382,-5.6693 -5.6693 -5.6693c -3.1311,-0.0000 -5.6693,2.5382 -5.6693 5.6693ZM 288.6362,24.1259 c 0.0000,3.1311 2.5382,5.6693 5.6693 5.6693c 3.1311,-0.0000 5.6693,-2.5382 5.6693 -5.6693c 0.0000,-3.1311 -2.5383,-5.6693 -5.6693 -5.6693c -3.1311,-0.0000 -5.6693,2.5382 -5.6693 5.6693ZM 288.6362,351.5716 c 0.0000,3.1311 2.5382,5.6693 5.6693 5.6693c 3.1311,-0.0000 5.6693,-2.5382 5.6693 -5.6693c 0.0000,-3.1311 -2.5383,-5.6693 -5.6693 -5.6693c -3.1311,-0.0000 -5.6693,2.5382 -5.6693 5.6693ZM 439.8173,24.1259 c 0.0000,3.1311 2.5383,5.6693 5.6693 5.6693c 3.1311,-0.0000 5.6693,-2.5382 5.6693 -5.6693c 0.0000,-3.1311 -2.5382,-5.6693 -5.6693 -5.6693c -3.1311,-0.0000 -5.6693,2.5382 -5.6693 5.6693ZM 439.8173,351.5716 c 0.0000,3.1311 2.5383,5.6693 5.6693 5.6693c 3.1311,-0.0000 5.6693,-2.5382 5.6693 -5.6693c 0.0000,-3.1311 -2.5382,-5.6693 -5.6693 -5.6693c -3.1311,-0.0000 -5.6693,2.5382 -5.6693 5.6693ZM 709.9968,24.1259 c 0.0000,3.1311 2.5382,5.6693 5.6693 5.6693c 3.1311,-0.0000 5.6693,-2.5382 5.6693 -5.6693c 0.0000,-3.1311 -2.5382,-5.6693 -5.6693 -5.6693c -3.1311,-0.0000 -5.6693,2.5382 -5.6693 5.6693ZM 709.9968,326.3748 c 0.0000,3.1311 2.5382,5.6693 5.6693 5.6693c 3.1311,-0.0000 5.6693,-2.5382 5.6693 -5.6693c 0.0000,-3.1311 -2.5382,-5.6693 -5.6693 -5.6693c -3.1311,-0.0000 -5.6693,2.5382 -5.6693 5.6693Z"/></g><g stroke-linejoin="miter" stroke-opacity="1.0" fill-opacity="0.5" stroke="rgb(0,0,0)" stroke-width="0.37795275590551186" fill="rgb(255,255,0)" stroke-linecap="butt" stroke-miterlimit="10.0"><path d="M 3.9685,20.3464 c 0.0000,-9.0453 7.3326,-16.3779 16.3779 -16.3779c 116.5165,-0.0000 233.0331,-0.0000 349.5496 -0.0000c 116.5165,-0.0000 233.0331,-0.0000 349.5496 -0.0000c 9.0453,-0.0000 16.3779,7.3326 16.3779 16.3779c 0.0000,68.8462 0.0000,137.6924 0.0000 206.5386c 0.0000,34.4231 0.0000,68.8462 0.0000 103.2693c 0.0000,8.4641 -6.4494,15.5339 -14.8779 16.3091c -91.3197,8.3989 -182.6394,16.7979 -273.9590 25.1968c -0.4987,0.0459 -0.9992,0.0688 -1.5000 0.0688c -25.1969,-0.0000 -50.3937,-0.0000 -75.5906 -0.0000c -25.1969,-0.0000 -50.3937,-0.0000 -75.5906 -0.0000c -0.5008,-0.0000 -1.0013,-0.0230 -1.5000 -0.0688c -91.3197,-8.3989 -182.6394,-16.7979 -273.9590 -25.1968c -8.4285,-0.7752 -14.8779,-7.8450 -14.8779 -16.3091c 0.0000,-34.4231 0.0000,-68.8462 0.0000 -103.2693c 0.0000,-68.8462 0.0000,-137.6924 0.0000 -206.5386ZM 18.4567,24.1259 c 0.0000,3.1311 2.5382,5.6693 5.6693 5.6693c 3.1311,-0.0000 5.6693,-2.5382 5.6693 -5.6693c 0.0000,-3.1311 -2.5382,-5.6693 -5.6693 -5.6693c -3.1311,-0.0000 -5.6693,2.5382 -5.6693 5.6693ZM 18.4567,326.3748 c 0.0000,3.1311 2.5382,5.6693 5.6693 5.6693c 3.1311,-0.0000 5.6693,-2.5382 5.6693 -5.6693c 0.0000,-3.1311 -2.5382,-5.6693 -5.6693 -5.6693c -3.1311,-0.0000 -5.6693,2.5382 -5.6693 5.6693ZM 26.6456,41.0038 c 0.0000,60.3557 0.0000,120.7114 0.0000 181.0671c 0.0000,29.3729 0.0000,58.7457 0.0000 88.1186c 7.8491,1.2120 13.8583,7.9969 13.8583 16.1853c 0.0000,0.1733 -0.0027,0.3460 -0.0080 0.5180c 0.0352,0.0033 0.0704,0.0064 0.1057 0.0094c 79.2918,6.8157 158.5836,13.6314 237.8754 20.4471c 1.8622,-6.9990 8.2431,-12.1556 15.8285 -12.1556c 8.1884,-0.0000 14.9733,6.0092 16.1853 13.8583c 19.8017,-0.0000 39.6035,-0.0000 59.4052 -0.0000c 19.8017,-0.0000 39.6035,-0.0000 59.4052 -0.0000c 1.2120,-7.8490 7.9969,-13.8583 16.1853 -13.8583c 7.5854,-0.0000 13.9663,5.1567 15.8285 12.1556c 79.2918,-6.8157 158.5836,-13.6314 237.8754 -20.4471c 0.0353,-0.0030 0.0705,-0.0062 0.1057 -0.0094c -0.0053,-0.1720 -0.0080,-0.3447 -0.0080 -0.5180c 0.0000,-8.1884 6.0092,-14.9733 13.8583 -16.1853c 0.0000,-29.3729 0.0000,-58.7458 0.0000 -88.1186c 0.0000,-60.3557 0.0000,-120.7114 0.0000 -181.0671c 0.0000,-0.2331 -0.0059,-0.4649 -0.0177 -0.6952c -6.9900,-1.0872 -12.5173,-6.5947 -13.6341 -13.5749c -0.5618,-0.0582 -1.1328,-0.0881 -1.7112 -0.0881c -78.7039,-0.0000 -157.4077,-0.0000 -236.1116 -0.0000c -1.2120,7.8490 -7.9969,13.8583 -16.1853 13.8583c -8.1884,-0.0000 -14.9733,-6.0092 -16.1853 -13.8583c -19.8017,-0.0000 -39.6035,-0.0000 -59.4052 -0.0000c -19.8017,-0.0000 -39.6035,-0.0000 -59.4052 -0.0000c -1.2120,7.8490 -7.9969,13.8583 -16.1853 13.8583c -8.1884,-0.0000 -14.9733,-6.0092 -16.1853 -13.8583c -78.7039,-0.0000 -157.4077,-0.0000 -236.1116 -0.0000c -0.5784,-0.0000 -1.1494,0.0299 -1.7112 0.0881c -1.1168,6.9801 -6.6441,12.4877 -13.6341 13.5749c -0.0117,0.2304 -0.0177,0.4621 -0.0177 0.6952ZM 288.6362,24.1259 c 0.0000,3.1311 2.5382,5.6693 5.6693 5.6693c 3.1311,-0.0000 5.6693,-2.5382 5.6693 -5.6693c 0.0000,-3.1311 -2.5383,-5.6693 -5.6693 -5.6693c -3.1311,-0.0000 -5.6693,2.5382 -5.6693 5.6693ZM 288.6362,351.5716 c 0.0000,3.1311 2.5382,5.6693 5.6693 5.6693c 3.1311,-0.0000 5.6693,-2.5382 5.6693 -5.6693c 0.0000,-3.1311 -2.5383,-5.6693 -5.6693 -5.6693c -3.1311,-0.0000 -5.6693,2.5382 -5.6693 5.6693ZM 439.8173,24.1259 c 0.0000,3.1311 2.5383,5.6693 5.6693 5.6693c 3.1311,-0.0000 5.6693,-2.5382 5.6693 -5.6693c 0.0000,-3.1311 -2.5382,-5.6693 -5.6693 -5.6693c -3.1311,-0.0000 -5.6693,2.5382 -5.6693 5.6693ZM 439.8173,351.5716 c 0.0000,3.1311 2.5383,5.6693 5.6693 5.6693c 3.1311,-0.0000 5.6693,-2.5382 5.6693 -5.6693c 0.0000,-3.1311 -2.5382,-5.6693 -5.6693 -5.6693c -3.1311,-0.0000 -5.6693,2.5382 -5.6693 5.6693ZM 709.9968,24.1259 c 0.0000,3.1311 2.5382,5.6693 5.6693 5.6693c 3.1311,-0.0000 5.6693,-2.5382 5.6693 -5.6693c 0.0000,-3.1311 -2.5382,-5.6693 -5.6693 -5.6693c -3.1311,-0.0000 -5.6693,2.5382 -5.6693 5.6693ZM 709.9968,326.3748 c 0.0000,3.1311 2.5382,5.6693 5.6693 5.6693c 3.1311,-0.0000 5.6693,-2.5382 5.6693 -5.6693c 0.0000,-3.1311 -2.5382,-5.6693 -5.6693 -5.6693c -3.1311,-0.0000 -5.6693,2.5382 -5.6693 5.6693Z"/></g><g stroke-linejoin="miter" stroke-opacity="1.0" fill-opacity="0.5" stroke="rgb(0,0,0)" stroke-width="0.37795275590551186" fill="rgb(0,0,0)" stroke-linecap="butt" stroke-miterlimit="10.0"><path d="M 3.9685,20.3464 c 0.0000,-9.0453 7.3326,-16.3779 16.3779 -16.3779c 116.5165,-0.0000 233.0331,-0.0000 349.5496 -0.0000c 116.5165,-0.0000 233.0331,-0.0000 349.5496 -0.0000c 9.0453,-0.0000 16.3779,7.3326 16.3779 16.3779c 0.0000,68.8462 0.0000,137.6924 0.0000 206.5386c 0.0000,34.4231 0.0000,68.8462 0.0000 103.2693c 0.0000,8.4641 -6.4494,15.5339 -14.8779 16.3091c -91.3197,8.3989 -182.6394,16.7979 -273.9590 25.1968c -0.4987,0.0459 -0.9992,0.0688 -1.5000 0.0688c -25.1969,-0.0000 -50.3937,-0.0000 -75.5906 -0.0000c -25.1969,-0.0000 -50.3937,-0.0000 -75.5906 -0.0000c -0.5008,-0.0000 -1.0013,-0.0230 -1.5000 -0.0688c -91.3197,-8.3989 -182.6394,-16.7979 -273.9590 -25.1968c -8.4285,-0.7752 -14.8779,-7.8450 -14.8779 -16.3091c 0.0000,-34.4231 0.0000,-68.8462 0.0000 -103.2693c 0.0000,-68.8462 0.0000,-137.6924 0.0000 -206.5386ZM 18.4567,24.1259 c 0.0000,3.1311 2.5382,5.6693 5.6693 5.6693c 3.1311,-0.0000 5.6693,-2.5382 5.6693 -5.6693c 0.0000,-3.1311 -2.5382,-5.6693 -5.6693 -5.6693c -3.1311,-0.0000 -5.6693,2.5382 -5.6693 5.6693ZM 18.4567,326.3748 c 0.0000,3.1311 2.5382,5.6693 5.6693 5.6693c 3.1311,-0.0000 5.6693,-2.5382 5.6693 -5.6693c 0.0000,-3.1311 -2.5382,-5.6693 -5.6693 -5.6693c -3.1311,-0.0000 -5.6693,2.5382 -5.6693 5.6693ZM 49.4004,55.5481 c 0.0000,4.4096 0.0000,8.8191 0.0000 13.2287c 1.0240,-0.0000 2.0480,-0.0000 3.0720 -0.0000c 0.0000,6.3104 0.0000,12.6209 0.0000 18.9313c -1.0240,-0.0000 -2.0480,-0.0000 -3.0720 -0.0000c 0.0000,4.4096 0.0000,8.8191 0.0000 13.2287c 1.0240,-0.0000 2.0480,-0.0000 3.0720 -0.0000c 0.0000,1.2352 0.0000,2.4704 0.0000 3.7056c 17.6000,-0.0000 35.2000,-0.0000 52.8000 -0.0000c 0.0000,-1.2352 0.0000,-2.4704 0.0000 -3.7056c 1.0240,-0.0000 2.0480,-0.0000 3.0720 -0.0000c 0.0000,-4.4096 0.0000,-8.8191 0.0000 -13.2287c -1.0240,-0.0000 -2.0480,-0.0000 -3.0720 -0.0000c 0.0000,-6.3104 0.0000,-12.6209 0.0000 -18.9313c 1.0240,-0.0000 2.0480,-0.0000 3.0720 -0.0000c 0.0000,-4.4096 0.0000,-8.8191 0.0000 -13.2287c -1.0240,-0.0000 -2.0480,-0.0000 -3.0720 -0.0000c 0.0000,-1.2352 0.0000,-2.4704 0.0000 -3.7056c -17.6000,-0.0000 -35.2000,-0.0000 -52.8000 -0.0000c 0.0000,1.2352 0.0000,2.4704 0.0000 3.7056c -1.0240,-0.0000 -2.0480,-0.0000 -3.0720 0.0000ZM 49.4004,127.3592 c 0.0000,4.4096 0.0000,8.8191 0.0000 13.2287c 1.0240,-0.0000 2.0480,-0.0000 3.0720 -0.0000c 0.0000,6.3104 0.0000,12.6209 0.0000 18.9313c -1.0240,-0.0000 -2.0480,-0.0000 -3.0720 -0.0000c 0.0000,4.4096 0.0000,8.8191 0.0000 13.2287c 1.0240,-0.0000 2.0480,-0.0000 3.0720 -0.0000c 0.0000,1.2352 0.0000,2.4704 0.0000 3.7056c 17.6000,-0.0000 35.2000,-0.0000 52.8000 -0.0000c 0.0000,-1.2352 0.0000,-2.4704 0.0000 -3.7056c 1.0240,-0.0000 2.0480,-0.0000 3.0720 -0.0000c 0.0000,-4.4096 0.0000,-8.8191 0.0000 -13.2287c -1.0240,-0.0000 -2.0480,-0.0000 -3.0720 -0.0000c 0.0000,-6.3104 0.0000,-12.6209 0.0000 -18.9313c 1.0240,-0.0000 2.0480,-0.0000 3.0720 -0.0000c 0.0000,-4.4096 0.0000,-8.8191 0.0000 -13.2287c -1.0240,-0.0000 -2.0480,-0.0000 -3.0720 -0.0000c 0.0000,-1.2352 0.0000,-2.4704 0.0000 -3.7056c -17.6000,-0.0000 -35.2000,-0.0000 -52.8000 -0.0000c 0.0000,1.2352 0.0000,2.4704 0.0000 3.7056c -1.0240,-0.0000 -2.0480,-0.0000 -3.0720 -0.0000ZM 49.4004,199.1702 c 0.0000,4.4096 0.0000,8.8191 0.0000 13.2287c 1.0240,-0.0000 2.0480,-0.0000 3.0720 -0.0000c 0.0000,6.3105 0.0000,12.6209 0.0000 18.9313c -1.0240,-0.0000 -2.0480,-0.0000 -3.0720 -0.0000c 0.0000,4.4096 0.0000,8.8192 0.0000 13.2287c 1.0240,-0.0000 2.0480,-0.0000 3.0720 -0.0000c 0.0000,1.2352 0.0000,2.4704 0.0000 3.7056c 17.6000,-0.0000 35.2000,-0.0000 52.8000 -0.0000c 0.0000,-1.2352 0.0000,-2.4704 0.0000 -3.7056c 1.0240,-0.0000 2.0480,-0.0000 3.0720 -0.0000c 0.0000,-4.4096 0.0000,-8.8192 0.0000 -13.2287c -1.0240,-0.0000 -2.0480,-0.0000 -3.0720 -0.0000c 0.0000,-6.3104 0.0000,-12.6208 0.0000 -18.9313c 1.0240,-0.0000 2.0480,-0.0000 3.0720 -0.0000c 0.0000,-4.4096 0.0000,-8.8191 0.0000 -13.2287c -1.0240,-0.0000 -2.0480,-0.0000 -3.0720 -0.0000c 0.0000,-1.2352 0.0000,-2.4704 0.0000 -3.7056c -17.6000,-0.0000 -35.2000,-0.0000 -52.8000 -0.0000c 0.0000,1.2352 0.0000,2.4704 0.0000 3.7056c -1.0240,-0.0000 -2.0480,-0.0000 -3.0720 -0.0000ZM 49.4004,270.9812 c 0.0000,4.4096 0.0000,8.8192 0.0000 13.2287c 1.0240,-0.0000 2.0480,-0.0000 3.0720 -0.0000c 0.0000,6.3104 0.0000,12.6208 0.0000 18.9313c -1.0240,-0.0000 -2.0480,-0.0000 -3.0720 -0.0000c 0.0000,4.4096 0.0000,8.8192 0.0000 13.2287c 1.0240,-0.0000 2.0480,-0.0000 3.0720 -0.0000c 0.0000,1.2352 0.0000,2.4704 0.0000 3.7056c 17.6000,-0.0000 35.2000,-0.0000 52.8000 -0.0000c 0.0000,-1.2352 0.0000,-2.4704 0.0000 -3.7056c 1.0240,-0.0000 2.0480,-0.0000 3.0720 -0.0000c 0.0000,-4.4096 0.0000,-8.8192 0.0000 -13.2287c -1.0240,-0.0000 -2.0480,-0.0000 -3.0720 -0.0000c 0.0000,-6.3104 0.0000,-12.6208 0.0000 -18.9313c 1.0240,-0.0000 2.0480,-0.0000 3.0720 -0.0000c 0.0000,-4.4096 0.0000,-8.8192 0.0000 -13.2287c -1.0240,-0.0000 -2.0480,-0.0000 -3.0720 -0.0000c 0.0000,-1.2352 0.0000,-2.4704 0.0000 -3.7056c -17.6000,-0.0000 -35.2000,-0.0000 -52.8000 -0.0000c 0.0000,1.2352 0.0000,2.4704 0.0000 3.7056c -1.0240,-0.0000 -2.0480,-0.0000 -3.0720 -0.0000ZM 121.2115,55.5481 c 0.0000,4.4096 0.0000,8.8191 0.0000 13.2287c 1.0240,-0.0000 2.0480,-0.0000 3.0720 -0.0000c 0.0000,6.3104 0.0000,12.6209 0.0000 18.9313c -1.0240,-0.0000 -2.0480,-0.0000 -3.0720 -0.0000c 0.0000,4.4096 0.0000,8.8191 0.0000 13.2287c 1.0240,-0.0000 2.0480,-0.0000 3.0720 -0.0000c 0.0000,1.2352 0.0000,2.4704 0.0000 3.7056c 17.6000,-0.0000 35.2000,-0.0000 52.8000 -0.0000c 0.0000,-1.2352 0.0000,-2.4704 0.0000 -3.7056c 1.0240,-0.0000 2.0480,-0.0000 3.0720 -0.0000c 0.0000,-4.4096 0.0000,-8.8191 0.0000 -13.2287c -1.0240,-0.0000 -2.0480,-0.0000 -3.0720 -0.0000c 0.0000,-6.3104 0.0000,-12.6209 0.0000 -18.9313c 1.0240,-0.0000 2.0480,-0.0000 3.0720 -0.0000c 0.0000,-4.4096 0.0000,-8.8191 0.0000 -13.2287c -1.0240,-0.0000 -2.0480,-0.0000 -3.0720 -0.0000c 0.0000,-1.2352 0.0000,-2.4704 0.0000 -3.7056c -17.6000,-0.0000 -35.2000,-0.0000 -52.8000 -0.0000c 0.0000,1.2352 0.0000,2.4704 0.0000 3.7056c -1.0240,-0.0000 -2.0480,-0.0000 -3.0720 0.0000ZM 121.2115,127.3592 c 0.0000,4.4096 0.0000,8.8191 0.0000 13.2287c 1.0240,-0.0000 2.0480,-0.0000 3.0720 -0.0000c 0.0000,6.3104 0.0000,12.6209 0.0000 18.9313c -1.0240,-0.0000 -2.0480,-0.0000 -3.0720 -0.0000c 0.0000,4.4096 0.0000,8.8191 0.0000 13.2287c 1.0240,-0.0000 2.0480,-0.0000 3.0720 -0.0000c 0.0000,1.2352 0.0000,2.4704 0.0000 3.7056c 17.6000,-0.0000 35.2000,-0.0000 52.8000 -0.0000c 0.0000,-1.2352 0.0000,-2.4704 0.0000 -3.7056c 1.0240,-0.0000 2.0480,-0.0000 3.0720 -0.0000c 0.0000,-4.4096 0.0000,-8.8191 0.0000 -13.2287c -1.0240,-0.0000 -2.0480,-0.0000 -3.0720 -0.0000c 0.0000,-6.3104 0.0000,-12.6209 0.0000 -18.9313c 1.0240,-0.0000 2.0480,-0.0000 3.0720 -0.0000c 0.0000,-4.4096 0.0000,-8.8191 0.0000 -13.2287c -1.0240,-0.0000 -2.0480,-0.0000 -3.0720 -0.0000c 0.0000,-1.2352 0.0000,-2.4704 0.0000 -3.7056c -17.6000,-0.0000 -35.2000,-0.0000 -52.8000 -0.0000c 0.0000,1.2352 0.0000,2.4704 0.0000 3.7056c -1.0240,-0.0000 -2.0480,-0.0000 -3.0720 -0.0000ZM 121.2115,199.1702 c 0.0000,4.4096 0.0000,8.8191 0.0000 13.2287c 1.0240,-0.0000 2.0480,-0.0000 3.0720 -0.0000c 0.0000,6.3105 0.0000,12.6209 0.0000 18.9313c -1.0240,-0.0000 -2.0480,-0.0000 -3.0720 -0.0000c 0.0000,4.4096 0.0000,8.8192 0.0000 13.2287c 1.0240,-0.0000 2.0480,-0.0000 3.0720 -0.0000c 0.0000,1.2352 0.0000,2.4704 0.0000 3.7056c 17.6000,-0.0000 35.2000,-0.0000 52.8000 -0.0000c 0.0000,-1.2352 0.0000,-2.4704 0.0000 -3.7056c 1.0240,-0.0000 2.0480,-0.0000 3.0720 -0.0000c 0.0000,-4.4096 0.0000,-8.8192 0.0000 -13.2287c -1.0240,-0.0000 -2.0480,-0.0000 -3.0720 -0.0000c 0.0000,-6.3104 0.0000,-12.6208 0.0000 -18.9313c 1.0240,-0.0000 2.0480,-0.0000 3.0720 -0.0000c 0.0000,-4.4096 0.0000,-8.8191 0.0000 -13.2287c -1.0240,-0.0000 -2.0480,-0.0000 -3.0720 -0.0000c 0.0000,-1.2352 0.0000,-2.4704 0.0000 -3.7056c -17.6000,-0.0000 -35.2000,-0.0000 -52.8000 -0.0000c 0.0000,1.2352 0.0000,2.4704 0.0000 3.7056c -1.0240,-0.0000 -2.0480,-0.0000 -3.0720 -0.0000ZM 121.2115,270.9812 c 0.0000,4.4096 0.0000,8.8192 0.0000 13.2287c 1.0240,-0.0000 2.0480,-0.0000 3.0720 -0.0000c 0.0000,6.3104 0.0000,12.6208 0.0000 18.9313c -1.0240,-0.0000 -2.0480,-0.0000 -3.0720 -0.0000c 0.0000,4.4096 0.0000,8.8192 0.0000 13.2287c 1.0240,-0.0000 2.0480,-0.0000 3.0720 -0.0000c 0.0000,1.2352 0.0000,2.4704 0.0000 3.7056c 17.6000,-0.0000 35.2000,-0.0000 52.8000 -0.0000c 0.0000,-1.2352 0.0000,-2.4704 0.0000 -3.7056c 1.0240,-0.0000 2.0480,-0.0000 3.0720 -0.0000c 0.0000,-4.4096 0.0000,-8.8192 0.0000 -13.2287c -1.0240,-0.0000 -2.0480,-0.0000 -3.0720 -0.0000c 0.0000,-6.3104 0.0000,-12.6208 0.0000 -18.9313c 1.0240,-0.0000 2.0480,-0.0000 3.0720 -0.0000c 0.0000,-4.4096 0.0000,-8.8192 0.0000 -13.2287c -1.0240,-0.0000 -2.0480,-0.0000 -3.0720 -0.0000c 0.0000,-1.2352 0.0000,-2.4704 0.0000 -3.7056c -17.6000,-0.0000 -35.2000,-0.0000 -52.8000 -0.0000c 0.0000,1.2352 0.0000,2.4704 0.0000 3.7056c -1.0240,-0.0000 -2.0480,-0.0000 -3.0720 -0.0000ZM 193.0225,55.5481 c 0.0000,4.4096 0.0000,8.8191 0.0000 13.2287c 1.0240,-0.0000 2.0480,-0.0000 3.0720 -0.0000c 0.0000,6.3104 0.0000,12.6209 0.0000 18.9313c -1.0240,-0.0000 -2.0480,-0.0000 -3.0720 -0.0000c 0.0000,4.4096 0.0000,8.8191 0.0000 13.2287c 1.0240,-0.0000 2.0480,-0.0000 3.0720 -0.0000c 0.0000,1.2352 0.0000,2.4704 0.0000 3.7056c 17.6000,-0.0000 35.2000,-0.0000 52.8000 -0.0000c 0.0000,-1.2352 0.0000,-2.4704 0.0000 -3.7056c 1.0240,-0.0000 2.0480,-0.0000 3.0720 -0.0000c 0.0000,-4.4096 0.0000,-8.8191 0.0000 -13.2287c -1.0240,-0.0000 -2.0480,-0.0000 -3.0720 -0.0000c 0.0000,-6.3104 0.0000,-12.6209 0.0000 -18.9313c 1.0240,-0.0000 2.0480,-0.0000 3.0720 -0.0000c 0.0000,-4.4096 0.0000,-8.8191 0.0000 -13.2287c -1.0240,-0.0000 -2.0480,-0.0000 -3.0720 -0.0000c 0.0000,-1.2352 0.0000,-2.4704 0.0000 -3.7056c -17.6000,-0.0000 -35.2000,-0.0000 -52.8000 -0.0000c 0.0000,1.2352 0.0000,2.4704 0.0000 3.7056c -1.0240,-0.0000 -2.0480,-0.0000 -3.0720 0.0000ZM 193.0225,127.3592 c 0.0000,4.4096 0.0000,8.8191 0.0000 13.2287c 1.0240,-0.0000 2.0480,-0.0000 3.0720 -0.0000c 0.0000,6.3104 0.0000,12.6209 0.0000 18.9313c -1.0240,-0.0000 -2.0480,-0.0000 -3.0720 -0.0000c 0.0000,4.4096 0.0000,8.8191 0.0000 13.2287c 1.0240,-0.0000 2.0480,-0.0000 3.0720 -0.0000c 0.0000,1.2352 0.0000,2.4704 0.0000 3.7056c 17.6000,-0.0000 35.2000,-0.0000 52.8000 -0.0000c 0.0000,-1.2352 0.0000,-2.4704 0.0000 -3.7056c 1.0240,-0.0000 2.0480,-0.0000 3.0720 -0.0000c 0.0000,-4.4096 0.0000,-8.8191 0.0000 -13.2287c -1.0240,-0.0000 -2.0480,-0.0000 -3.0720 -0.0000c 0.0000,-6.3104 0.0000,-12.6209 0.0000 -18.9313c 1.0240,-0.0000 2.0480,-0.0000 3.0720 -0.0000c 0.0000,-4.4096 0.0000,-8.8191 0.0000 -13.2287c -1.0240,-0.0000 -2.0480,-0.0000 -3.0720 -0.0000c 0.0000,-1.2352 0.0000,-2.4704 0.0000 -3.7056c -17.6000,-0.0000 -35.2000,-0.0000 -52.8000 -0.0000c 0.0000,1.2352 0.0000,2.4704 0.0000 3.7056c -1.0240,-0.0000 -2.0480,-0.0000 -3.0720 -0.0000ZM 193.0225,199.1702 c 0.0000,4.4096 0.0000,8.8191 0.0000 13.2287c 1.0240,-0.0000 2.0480,-0.0000 3.0720 -0.0000c 0.0000,6.3105 0.0000,12.6209 0.0000 18.9313c -1.0240,-0.0000 -2.0480,-0.0000 -3.0720 -0.0000c 0.0000,4.4096 0.0000,8.8192 0.0000 13.2287c 1.0240,-0.0000 2.0480,-0.0000 3.0720 -0.0000c 0.0000,1.2352 0.0000,2.4704 0.0000 3.7056c 17.6000,-0.0000 35.2000,-0.0000 52.8000 -0.0000c 0.0000,-1.2352 0.0000,-2.4704 0.0000 -3.7056c 1.0240,-0.0000 2.0480,-0.0000 3.0720 -0.0000c 0.0000,-4.4096 0.0000,-8.8192 0.0000 -13.2287c -1.0240,-0.0000 -2.0480,-0.0000 -3.0720 -0.0000c 0.0000,-6.3104 0.0000,-12.6208 0.0000 -18.9313c 1.0240,-0.0000 2.0480,-0.0000 3.0720 -0.0000c 0.0000,-4.4096 0.0000,-8.8191 0.0000 -13.2287c -1.0240,-0.0000 -2.0480,-0.0000 -3.0720 -0.0000c 0.0000,-1.2352 0.0000,-2.4704 0.0000 -3.7056c -17.6000,-0.0000 -35.2000,-0.0000 -52.8000 -0.0000c 0.0000,1.2352 0.0000,2.4704 0.0000 3.7056c -1.0240,-0.0000 -2.0480,-0.0000 -3.0720 -0.0000ZM 193.0225,270.9812 c 0.0000,4.4096 0.0000,8.8192 0.0000 13.2287c 1.0240,-0.0000 2.0480,-0.0000 3.0720 -0.0000c 0.0000,6.3104 0.0000,12.6208 0.0000 18.9313c -1.0240,-0.0000 -2.0480,-0.0000 -3.0720 -0.0000c 0.0000,4.4096 0.0000,8.8192 0.0000 13.2287c 1.0240,-0.0000 2.0480,-0.0000 3.0720 -0.0000c 0.0000,1.2352 0.0000,2.4704 0.0000 3.7056c 17.6000,-0.0000 35.2000,-0.0000 52.8000 -0.0000c 0.0000,-1.2352 0.0000,-2.4704 0.0000 -3.7056c 1.0240,-0.0000 2.0480,-0.0000 3.0720 -0.0000c 0.0000,-4.4096 0.0000,-8.8192 0.0000 -13.2287c -1.0240,-0.0000 -2.0480,-0.0000 -3.0720 -0.0000c 0.0000,-6.3104 0.0000,-12.6208 0.0000 -18.9313c 1.0240,-0.0000 2.0480,-0.0000 3.0720 -0.0000c 0.0000,-4.4096 0.0000,-8.8192 0.0000 -13.2287c -1.0240,-0.0000 -2.0480,-0.0000 -3.0720 -0.0000c 0.0000,-1.2352 0.0000,-2.4704 0.0000 -3.7056c -17.6000,-0.0000 -35.2000,-0.0000 -52.8000 -0.0000c 0.0000,1.2352 0.0000,2.4704 0.0000 3.7056c -1.0240,-0.0000 -2.0480,-0.0000 -3.0720 -0.0000ZM 264.8335,55.5481 c 0.0000,4.4096 0.0000,8.8191 0.0000 13.2287c 1.0240,-0.0000 2.0480,-0.0000 3.0720 -0.0000c 0.0000,6.3104 0.0000,12.6209 0.0000 18.9313c -1.0240,-0.0000 -2.0480,-0.0000 -3.0720 -0.0000c 0.0000,4.4096 0.0000,8.8191 0.0000 13.2287c 1.0240,-0.0000 2.0480,-0.0000 3.0720 -0.0000c 0.0000,1.2352 0.0000,2.4704 0.0000 3.7056c 17.6000,-0.0000 35.2000,-0.0000 52.8000 -0.0000c 0.0000,-1.2352 0.0000,-2.4704 0.0000 -3.7056c 1.0240,-0.0000 2.0480,-0.0000 3.0720 -0.0000c 0.0000,-4.4096 0.0000,-8.8191 0.0000 -13.2287c -1.0240,-0.0000 -2.0480,-0.0000 -3.0720 -0.0000c 0.0000,-6.3104 0.0000,-12.6209 0.0000 -18.9313c 1.0240,-0.0000 2.0480,-0.0000 3.0720 -0.0000c 0.0000,-4.4096 0.0000,-8.8191 0.0000 -13.2287c -1.0240,-0.0000 -2.0480,-0.0000 -3.0720 -0.0000c 0.0000,-1.2352 0.0000,-2.4704 0.0000 -3.7056c -17.6000,-0.0000 -35.2000,-0.0000 -52.8000 -0.0000c 0.0000,1.2352 0.0000,2.4704 0.0000 3.7056c -1.0240,-0.0000 -2.0480,-0.0000 -3.0720 0.0000ZM 264.8335,127.3592 c 0.0000,4.4096 0.0000,8.8191 0.0000 13.2287c 1.0240,-0.0000 2.0480,-0.0000 3.0720 -0.0000c 0.0000,6.3104 0.0000,12.6209 0.0000 18.9313c -1.0240,-0.0000 -2.0480,-0.0000 -3.0720 -0.0000c 0.0000,4.4096 0.0000,8.8191 0.0000 13.2287c 1.0240,-0.0000 2.0480,-0.0000 3.0720 -0.0000c 0.0000,1.2352 0.0000,2.4704 0.0000 3.7056c 17.6000,-0.0000 35.2000,-0.0000 52.8000 -0.0000c 0.0000,-1.2352 0.0000,-2.4704 0.0000 -3.7056c 1.0240,-0.0000 2.0480,-0.0000 3.0720 -0.0000c 0.0000,-4.4096 0.0000,-8.8191 0.0000 -13.2287c -1.0240,-0.0000 -2.0480,-0.0000 -3.0720 -0.0000c 0.0000,-6.3104 0.0000,-12.6209 0.0000 -18.9313c 1.0240,-0.0000 2.0480,-0.0000 3.0720 -0.0000c 0.0000,-4.4096 0.0000,-8.8191 0.0000 -13.2287c -1.0240,-0.0000 -2.0480,-0.0000 -3.0720 -0.0000c 0.0000,-1.2352 0.0000,-2.4704 0.0000 -3.7056c -17.6000,-0.0000 -35.2000,-0.0000 -52.8000 -0.0000c 0.0000,1.2352 0.0000,2.4704 0.0000 3.7056c -1.0240,-0.0000 -2.0480,-0.0000 -3.0720 -0.0000ZM 264.8335,199.1702 c 0.0000,4.4096 0.0000,8.8191 0.0000 13.2287c 1.0240,-0.0000 2.0480,-0.0000 3.0720 -0.0000c 0.0000,6.3105 0.0000,12.6209 0.0000 18.9313c -1.0240,-0.0000 -2.0480,-0.0000 -3.0720 -0.0000c 0.0000,4.4096 0.0000,8.8192 0.0000 13.2287c 1.0240,-0.0000 2.0480,-0.0000 3.0720 -0.0000c 0.0000,1.2352 0.0000,2.4704 0.0000 3.7056c 17.6000,-0.0000 35.2000,-0.0000 52.8000 -0.0000c 0.0000,-1.2352 0.0000,-2.4704 0.0000 -3.7056c 1.0240,-0.0000 2.0480,-0.0000 3.0720 -0.0000c 0.0000,-4.4096 0.0000,-8.8192 0.0000 -13.2287c -1.0240,-0.0000 -2.0480,-0.0000 -3.0720 -0.0000c 0.0000,-6.3104 0.0000,-12.6208 0.0000 -18.9313c 1.0240,-0.0000 2.0480,-0.0000 3.0720 -0.0000c 0.0000,-4.4096 0.0000,-8.8191 0.0000 -13.2287c -1.0240,-0.0000 -2.0480,-0.0000 -3.0720 -0.0000c 0.0000,-1.2352 0.0000,-2.4704 0.0000 -3.7056c -17.6000,-0.0000 -35.2000,-0.0000 -52.8000 -0.0000c 0.0000,1.2352 0.0000,2.4704 0.0000 3.7056c -1.0240,-0.0000 -2.0480,-0.0000 -3.0720 -0.0000ZM 264.8335,270.9812 c 0.0000,4.4096 0.0000,8.8192 0.0000 13.2287c 1.0240,-0.0000 2.0480,-0.0000 3.0720 -0.0000c 0.0000,6.3104 0.0000,12.6208 0.0000 18.9313c -1.0240,-0.0000 -2.0480,-0.0000 -3.0720 -0.0000c 0.0000,4.4096 0.0000,8.8192 0.0000 13.2287c 1.0240,-0.0000 2.0480,-0.0000 3.0720 -0.0000c 0.0000,1.2352 0.0000,2.4704 0.0000 3.7056c 17.6000,-0.0000 35.2000,-0.0000 52.8000 -0.0000c 0.0000,-1.2352 0.0000,-2.4704 0.0000 -3.7056c 1.0240,-0.0000 2.0480,-0.0000 3.0720 -0.0000c 0.0000,-4.4096 0.0000,-8.8192 0.0000 -13.2287c -1.0240,-0.0000 -2.0480,-0.0000 -3.0720 -0.0000c 0.0000,-6.3104 0.0000,-12.6208 0.0000 -18.9313c 1.0240,-0.0000 2.0480,-0.0000 3.0720 -0.0000c 0.0000,-4.4096 0.0000,-8.8192 0.0000 -13.2287c -1.0240,-0.0000 -2.0480,-0.0000 -3.0720 -0.0000c 0.0000,-1.2352 0.0000,-2.4704 0.0000 -3.7056c -17.6000,-0.0000 -35.2000,-0.0000 -52.8000 -0.0000c 0.0000,1.2352 0.0000,2.4704 0.0000 3.7056c -1.0240,-0.0000 -2.0480,-0.0000 -3.0720 -0.0000ZM 288.6362,24.1259 c 0.0000,3.1311 2.5382,5.6693 5.6693 5.6693c 3.1311,-0.0000 5.6693,-2.5382 5.6693 -5.6693c 0.0000,-3.1311 -2.5383,-5.6693 -5.6693 -5.6693c -3.1311,-0.0000 -5.6693,2.5382 -5.6693 5.6693ZM 288.6362,351.5716 c 0.0000,3.1311 2.5382,5.6693 5.6693 5.6693c 3.1311,-0.0000 5.6693,-2.5382 5.6693 -5.6693c 0.0000,-3.1311 -2.5383,-5.6693 -5.6693 -5.6693c -3.1311,-0.0000 -5.6693,2.5382 -5.6693 5.6693ZM 416.0146,55.5481 c 0.0000,4.4096 0.0000,8.8191 0.0000 13.2287c 1.0240,-0.0000 2.0480,-0.0000 3.0720 -0.0000c 0.0000,6.3104 0.0000,12.6209 0.0000 18.9313c -1.0240,-0.0000 -2.0480,-0.0000 -3.0720 -0.0000c 0.0000,4.4096 0.0000,8.8191 0.0000 13.2287c 1.0240,-0.0000 2.0480,-0.0000 3.0720 -0.0000c 0.0000,1.2352 0.0000,2.4704 0.0000 3.7056c 17.6000,-0.0000 35.2000,-0.0000 52.8000 -0.0000c 0.0000,-1.2352 0.0000,-2.4704 0.0000 -3.7056c 1.0240,-0.0000 2.0480,-0.0000 3.0720 -0.0000c 0.0000,-4.4096 0.0000,-8.8191 0.0000 -13.2287c -1.0240,-0.0000 -2.0480,-0.0000 -3.0720 -0.0000c 0.0000,-6.3104 0.0000,-12.6209 0.0000 -18.9313c 1.0240,-0.0000 2.0480,-0.0000 3.0720 -0.0000c 0.0000,-4.4096 0.0000,-8.8191 0.0000 -13.2287c -1.0240,-0.0000 -2.0480,-0.0000 -3.0720 -0.0000c 0.0000,-1.2352 0.0000,-2.4704 0.0000 -3.7056c -17.6000,-0.0000 -35.2000,-0.0000 -52.8000 -0.0000c 0.0000,1.2352 0.0000,2.4704 0.0000 3.7056c -1.0240,-0.0000 -2.0480,-0.0000 -3.0720 0.0000ZM 416.0146,127.3592 c 0.0000,4.4096 0.0000,8.8191 0.0000 13.2287c 1.0240,-0.0000 2.0480,-0.0000 3.0720 -0.0000c 0.0000,6.3104 0.0000,12.6209 0.0000 18.9313c -1.0240,-0.0000 -2.0480,-0.0000 -3.0720 -0.0000c 0.0000,4.4096 0.0000,8.8191 0.0000 13.2287c 1.0240,-0.0000 2.0480,-0.0000 3.0720 -0.0000c 0.0000,1.2352 0.0000,2.4704 0.0000 3.7056c 17.6000,-0.0000 35.2000,-0.0000 52.8000 -0.0000c 0.0000,-1.2352 0.0000,-2.4704 0.0000 -3.7056c 1.0240,-0.0000 2.0480,-0.0000 3.0720 -0.0000c 0.0000,-4.4096 0.0000,-8.8191 0.0000 -13.2287c -1.0240,-0.0000 -2.0480,-0.0000 -3.0720 -0.0000c 0.0000,-6.3104 0.0000,-12.6209 0.0000 -18.9313c 1.0240,-0.0000 2.0480,-0.0000 3.0720 -0.0000c 0.0000,-4.4096 0.0000,-8.8191 0.0000 -13.2287c -1.0240,-0.0000 -2.0480,-0.0000 -3.0720 -0.0000c 0.0000,-1.2352 0.0000,-2.4704 0.0000 -3.7056c -17.6000,-0.0000 -35.2000,-0.0000 -52.8000 -0.0000c 0.0000,1.2352 0.0000,2.4704 0.0000 3.7056c -1.0240,-0.0000 -2.0480,-0.0000 -3.0720 -0.0000ZM 416.0146,199.1702 c 0.0000,4.4096 0.0000,8.8191 0.0000 13.2287c 1.0240,-0.0000 2.0480,-0.0000 3.0720 -0.0000c 0.0000,6.3105 0.0000,12.6209 0.0000 18.9313c -1.0240,-0.0000 -2.0480,-0.0000 -3.0720 -0.0000c 0.0000,4.4096 0.0000,8.8192 0.0000 13.2287c 1.0240,-0.0000 2.0480,-0.0000 3.0720 -0.0000c 0.0000,1.2352 0.0000,2.4704 0.0000 3.7056c 17.6000,-0.0000 35.2000,-0.0000 52.8000 -0.0000c 0.0000,-1.2352 0.0000,-2.4704 0.0000 -3.7056c 1.0240,-0.0000 2.0480,-0.0000 3.0720 -0.0000c 0.0000,-4.4096 0.0000,-8.8192 0.0000 -13.2287c -1.0240,-0.0000 -2.0480,-0.0000 -3.0720 -0.0000c 0.0000,-6.3104 0.0000,-12.6208 0.0000 -18.9313c 1.0240,-0.0000 2.0480,-0.0000 3.0720 -0.0000c 0.0000,-4.4096 0.0000,-8.8191 0.0000 -13.2287c -1.0240,-0.0000 -2.0480,-0.0000 -3.0720 -0.0000c 0.0000,-1.2352 0.0000,-2.4704 0.0000 -3.7056c -17.6000,-0.0000 -35.2000,-0.0000 -52.8000 -0.0000c 0.0000,1.2352 0.0000,2.4704 0.0000 3.7056c -1.0240,-0.0000 -2.0480,-0.0000 -3.0720 -0.0000ZM 416.0146,270.9812 c 0.0000,4.4096 0.0000,8.8192 0.0000 13.2287c 1.0240,-0.0000 2.0480,-0.0000 3.0720 -0.0000c 0.0000,6.3104 0.0000,12.6208 0.0000 18.9313c -1.0240,-0.0000 -2.0480,-0.0000 -3.0720 -0.0000c 0.0000,4.4096 0.0000,8.8192 0.0000 13.2287c 1.0240,-0.0000 2.0480,-0.0000 3.0720 -0.0000c 0.0000,1.2352 0.0000,2.4704 0.0000 3.7056c 17.6000,-0.0000 35.2000,-0.0000 52.8000 -0.0000c 0.0000,-1.2352 0.0000,-2.4704 0.0000 -3.7056c 1.0240,-0.0000 2.0480,-0.0000 3.0720 -0.0000c 0.0000,-4.4096 0.0000,-8.8192 0.0000 -13.2287c -1.0240,-0.0000 -2.0480,-0.0000 -3.0720 -0.0000c 0.0000,-6.3104 0.0000,-12.6208 0.0000 -18.9313c 1.0240,-0.0000 2.0480,-0.0000 3.0720 -0.0000c 0.0000,-4.4096 0.0000,-8.8192 0.0000 -13.2287c -1.0240,-0.0000 -2.0480,-0.0000 -3.0720 -0.0000c 0.0000,-1.2352 0.0000,-2.4704 0.0000 -3.7056c -17.6000,-0.0000 -35.2000,-0.0000 -52.8000 -0.0000c 0.0000,1.2352 0.0000,2.4704 0.0000 3.7056c -1.0240,-0.0000 -2.0480,-0.0000 -3.0720 -0.0000ZM 439.8173,24.1259 c 0.0000,3.1311 2.5383,5.6693 5.6693 5.6693c 3.1311,-0.0000 5.6693,-2.5382 5.6693 -5.6693c 0.0000,-3.1311 -2.5382,-5.6693 -5.6693 -5.6693c -3.1311,-0.0000 -5.6693,2.5382 -5.6693 5.6693ZM 439.8173,351.5716 c 0.0000,3.1311 2.5383,5.6693 5.6693 5.6693c 3.1311,-0.0000 5.6693,-2.5382 5.6693 -5.6693c 0.0000,-3.1311 -2.5382,-5.6693 -5.6693 -5.6693c -3.1311,-0.0000 -5.6693,2.5382 -5.6693 5.6693ZM 487.8256,55.5481 c 0.0000,4.4096 0.0000,8.8191 0.0000 13.2287c 1.0240,-0.0000 2.0480,-0.0000 3.0720 -0.0000c 0.0000,6.3104 0.0000,12.6209 0.0000 18.9313c -1.0240,-0.0000 -2.0480,-0.0000 -3.0720 -0.0000c 0.0000,4.4096 0.0000,8.8191 0.0000 13.2287c 1.0240,-0.0000 2.0480,-0.0000 3.0720 -0.0000c 0.0000,1.2352 0.0000,2.4704 0.0000 3.7056c 17.6000,-0.0000 35.2000,-0.0000 52.8000 -0.0000c 0.0000,-1.2352 0.0000,-2.4704 0.0000 -3.7056c 1.0240,-0.0000 2.0480,-0.0000 3.0720 -0.0000c 0.0000,-4.4096 0.0000,-8.8191 0.0000 -13.2287c -1.0240,-0.0000 -2.0480,-0.0000 -3.0720 -0.0000c 0.0000,-6.3104 0.0000,-12.6209 0.0000 -18.9313c 1.0240,-0.0000 2.0480,-0.0000 3.0720 -0.0000c 0.0000,-4.4096 0.0000,-8.8191 0.0000 -13.2287c -1.0240,-0.0000 -2.0480,-0.0000 -3.0720 -0.0000c 0.0000,-1.2352 0.0000,-2.4704 0.0000 -3.7056c -17.6000,-0.0000 -35.2000,-0.0000 -52.8000 -0.0000c 0.0000,1.2352 0.0000,2.4704 0.0000 3.7056c -1.0240,-0.0000 -2.0480,-0.0000 -3.0720 0.0000ZM 487.8256,127.3592 c 0.0000,4.4096 0.0000,8.8191 0.0000 13.2287c 1.0240,-0.0000 2.0480,-0.0000 3.0720 -0.0000c 0.0000,6.3104 0.0000,12.6209 0.0000 18.9313c -1.0240,-0.0000 -2.0480,-0.0000 -3.0720 -0.0000c 0.0000,4.4096 0.0000,8.8191 0.0000 13.2287c 1.0240,-0.0000 2.0480,-0.0000 3.0720 -0.0000c 0.0000,1.2352 0.0000,2.4704 0.0000 3.7056c 17.6000,-0.0000 35.2000,-0.0000 52.8000 -0.0000c 0.0000,-1.2352 0.0000,-2.4704 0.0000 -3.7056c 1.0240,-0.0000 2.0480,-0.0000 3.0720 -0.0000c 0.0000,-4.4096 0.0000,-8.8191 0.0000 -13.2287c -1.0240,-0.0000 -2.0480,-0.0000 -3.0720 -0.0000c 0.0000,-6.3104 0.0000,-12.6209 0.0000 -18.9313c 1.0240,-0.0000 2.0480,-0.0000 3.0720 -0.0000c 0.0000,-4.4096 0.0000,-8.8191 0.0000 -13.2287c -1.0240,-0.0000 -2.0480,-0.0000 -3.0720 -0.0000c 0.0000,-1.2352 0.0000,-2.4704 0.0000 -3.7056c -17.6000,-0.0000 -35.2000,-0.0000 -52.8000 -0.0000c 0.0000,1.2352 0.0000,2.4704 0.0000 3.7056c -1.0240,-0.0000 -2.0480,-0.0000 -3.0720 -0.0000ZM 487.8256,199.1702 c 0.0000,4.4096 0.0000,8.8191 0.0000 13.2287c 1.0240,-0.0000 2.0480,-0.0000 3.0720 -0.0000c 0.0000,6.3105 0.0000,12.6209 0.0000 18.9313c -1.0240,-0.0000 -2.0480,-0.0000 -3.0720 -0.0000c 0.0000,4.4096 0.0000,8.8192 0.0000 13.2287c 1.0240,-0.0000 2.0480,-0.0000 3.0720 -0.0000c 0.0000,1.2352 0.0000,2.4704 0.0000 3.7056c 17.6000,-0.0000 35.2000,-0.0000 52.8000 -0.0000c 0.0000,-1.2352 0.0000,-2.4704 0.0000 -3.7056c 1.0240,-0.0000 2.0480,-0.0000 3.0720 -0.0000c 0.0000,-4.4096 0.0000,-8.8192 0.0000 -13.2287c -1.0240,-0.0000 -2.0480,-0.0000 -3.0720 -0.0000c 0.0000,-6.3104 0.0000,-12.6208 0.0000 -18.9313c 1.0240,-0.0000 2.0480,-0.0000 3.0720 -0.0000c 0.0000,-4.4096 0.0000,-8.8191 0.0000 -13.2287c -1.0240,-0.0000 -2.0480,-0.0000 -3.0720 -0.0000c 0.0000,-1.2352 0.0000,-2.4704 0.0000 -3.7056c -17.6000,-0.0000 -35.2000,-0.0000 -52.8000 -0.0000c 0.0000,1.2352 0.0000,2.4704 0.0000 3.7056c -1.0240,-0.0000 -2.0480,-0.0000 -3.0720 -0.0000ZM 487.8256,270.9812 c 0.0000,4.4096 0.0000,8.8192 0.0000 13.2287c 1.0240,-0.0000 2.0480,-0.0000 3.0720 -0.0000c 0.0000,6.3104 0.0000,12.6208 0.0000 18.9313c -1.0240,-0.0000 -2.0480,-0.0000 -3.0720 -0.0000c 0.0000,4.4096 0.0000,8.8192 0.0000 13.2287c 1.0240,-0.0000 2.0480,-0.0000 3.0720 -0.0000c 0.0000,1.2352 0.0000,2.4704 0.0000 3.7056c 17.6000,-0.0000 35.2000,-0.0000 52.8000 -0.0000c 0.0000,-1.2352 0.0000,-2.4704 0.0000 -3.7056c 1.0240,-0.0000 2.0480,-0.0000 3.0720 -0.0000c 0.0000,-4.4096 0.0000,-8.8192 0.0000 -13.2287c -1.0240,-0.0000 -2.0480,-0.0000 -3.0720 -0.0000c 0.0000,-6.3104 0.0000,-12.6208 0.0000 -18.9313c 1.0240,-0.0000 2.0480,-0.0000 3.0720 -0.0000c 0.0000,-4.4096 0.0000,-8.8192 0.0000 -13.2287c -1.0240,-0.0000 -2.0480,-0.0000 -3.0720 -0.0000c 0.0000,-1.2352 0.0000,-2.4704 0.0000 -3.7056c -17.6000,-0.0000 -35.2000,-0.0000 -52.8000 -0.0000c 0.0000,1.2352 0.0000,2.4704 0.0000 3.7056c -1.0240,-0.0000 -2.0480,-0.0000 -3.0720 -0.0000ZM 559.6366,55.5481 c 0.0000,4.4096 0.0000,8.8191 0.0000 13.2287c 1.0240,-0.0000 2.0480,-0.0000 3.0720 -0.0000c 0.0000,6.3104 0.0000,12.6209 0.0000 18.9313c -1.0240,-0.0000 -2.0480,-0.0000 -3.0720 -0.0000c 0.0000,4.4096 0.0000,8.8191 0.0000 13.2287c 1.0240,-0.0000 2.0480,-0.0000 3.0720 -0.0000c 0.0000,1.2352 0.0000,2.4704 0.0000 3.7056c 17.6000,-0.0000 35.2000,-0.0000 52.8000 -0.0000c 0.0000,-1.2352 0.0000,-2.4704 0.0000 -3.7056c 1.0240,-0.0000 2.0480,-0.0000 3.0720 -0.0000c 0.0000,-4.4096 0.0000,-8.8191 0.0000 -13.2287c -1.0240,-0.0000 -2.0480,-0.0000 -3.0720 -0.0000c 0.0000,-6.3104 0.0000,-12.6209 0.0000 -18.9313c 1.0240,-0.0000 2.0480,-0.0000 3.0720 -0.0000c 0.0000,-4.4096 0.0000,-8.8191 0.0000 -13.2287c -1.0240,-0.0000 -2.0480,-0.0000 -3.0720 -0.0000c 0.0000,-1.2352 0.0000,-2.4704 0.0000 -3.7056c -17.6000,-0.0000 -35.2000,-0.0000 -52.8000 -0.0000c 0.0000,1.2352 0.0000,2.4704 0.0000 3.7056c -1.0240,-0.0000 -2.0480,-0.0000 -3.0720 0.0000ZM 559.6366,127.3592 c 0.0000,4.4096 0.0000,8.8191 0.0000 13.2287c 1.0240,-0.0000 2.0480,-0.0000 3.0720 -0.0000c 0.0000,6.3104 0.0000,12.6209 0.0000 18.9313c -1.0240,-0.0000 -2.0480,-0.0000 -3.0720 -0.0000c 0.0000,4.4096 0.0000,8.8191 0.0000 13.2287c 1.0240,-0.0000 2.0480,-0.0000 3.0720 -0.0000c 0.0000,1.2352 0.0000,2.4704 0.0000 3.7056c 17.6000,-0.0000 35.2000,-0.0000 52.8000 -0.0000c 0.0000,-1.2352 0.0000,-2.4704 0.0000 -3.7056c 1.0240,-0.0000 2.0480,-0.0000 3.0720 -0.0000c 0.0000,-4.4096 0.0000,-8.8191 0.0000 -13.2287c -1.0240,-0.0000 -2.0480,-0.0000 -3.0720 -0.0000c 0.0000,-6.3104 0.0000,-12.6209 0.0000 -18.9313c 1.0240,-0.0000 2.0480,-0.0000 3.0720 -0.0000c 0.0000,-4.4096 0.0000,-8.8191 0.0000 -13.2287c -1.0240,-0.0000 -2.0480,-0.0000 -3.0720 -0.0000c 0.0000,-1.2352 0.0000,-2.4704 0.0000 -3.7056c -17.6000,-0.0000 -35.2000,-0.0000 -52.8000 -0.0000c 0.0000,1.2352 0.0000,2.4704 0.0000 3.7056c -1.0240,-0.0000 -2.0480,-0.0000 -3.0720 -0.0000ZM 559.6366,199.1702 c 0.0000,4.4096 0.0000,8.8191 0.0000 13.2287c 1.0240,-0.0000 2.0480,-0.0000 3.0720 -0.0000c 0.0000,6.3105 0.0000,12.6209 0.0000 18.9313c -1.0240,-0.0000 -2.0480,-0.0000 -3.0720 -0.0000c 0.0000,4.4096 0.0000,8.8192 0.0000 13.2287c 1.0240,-0.0000 2.0480,-0.0000 3.0720 -0.0000c 0.0000,1.2352 0.0000,2.4704 0.0000 3.7056c 17.6000,-0.0000 35.2000,-0.0000 52.8000 -0.0000c 0.0000,-1.2352 0.0000,-2.4704 0.0000 -3.7056c 1.0240,-0.0000 2.0480,-0.0000 3.0720 -0.0000c 0.0000,-4.4096 0.0000,-8.8192 0.0000 -13.2287c -1.0240,-0.0000 -2.0480,-0.0000 -3.0720 -0.0000c 0.0000,-6.3104 0.0000,-12.6208 0.0000 -18.9313c 1.0240,-0.0000 2.0480,-0.0000 3.0720 -0.0000c 0.0000,-4.4096 0.0000,-8.8191 0.0000 -13.2287c -1.0240,-0.0000 -2.0480,-0.0000 -3.0720 -0.0000c 0.0000,-1.2352 0.0000,-2.4704 0.0000 -3.7056c -17.6000,-0.0000 -35.2000,-0.0000 -52.8000 -0.0000c 0.0000,1.2352 0.0000,2.4704 0.0000 3.7056c -1.0240,-0.0000 -2.0480,-0.0000 -3.0720 -0.0000ZM 559.6366,270.9812 c 0.0000,4.4096 0.0000,8.8192 0.0000 13.2287c 1.0240,-0.0000 2.0480,-0.0000 3.0720 -0.0000c 0.0000,6.3104 0.0000,12.6208 0.0000 18.9313c -1.0240,-0.0000 -2.0480,-0.0000 -3.0720 -0.0000c 0.0000,4.4096 0.0000,8.8192 0.0000 13.2287c 1.0240,-0.0000 2.0480,-0.0000 3.0720 -0.0000c 0.0000,1.2352 0.0000,2.4704 0.0000 3.7056c 17.6000,-0.0000 35.2000,-0.0000 52.8000 -0.0000c 0.0000,-1.2352 0.0000,-2.4704 0.0000 -3.7056c 1.0240,-0.0000 2.0480,-0.0000 3.0720 -0.0000c 0.0000,-4.4096 0.0000,-8.8192 0.0000 -13.2287c -1.0240,-0.0000 -2.0480,-0.0000 -3.0720 -0.0000c 0.0000,-6.3104 0.0000,-12.6208 0.0000 -18.9313c 1.0240,-0.0000 2.0480,-0.0000 3.0720 -0.0000c 0.0000,-4.4096 0.0000,-8.8192 0.0000 -13.2287c -1.0240,-0.0000 -2.0480,-0.0000 -3.0720 -0.0000c 0.0000,-1.2352 0.0000,-2.4704 0.0000 -3.7056c -17.6000,-0.0000 -35.2000,-0.0000 -52.8000 -0.0000c 0.0000,1.2352 0.0000,2.4704 0.0000 3.7056c -1.0240,-0.0000 -2.0480,-0.0000 -3.0720 -0.0000ZM 631.4477,55.5481 c 0.0000,4.4096 0.0000,8.8191 0.0000 13.2287c 1.0240,-0.0000 2.0480,-0.0000 3.0720 -0.0000c 0.0000,6.3104 0.0000,12.6209 0.0000 18.9313c -1.0240,-0.0000 -2.0480,-0.0000 -3.0720 -0.0000c 0.0000,4.4096 0.0000,8.8191 0.0000 13.2287c 1.0240,-0.0000 2.0480,-0.0000 3.0720 -0.0000c 0.0000,1.2352 0.0000,2.4704 0.0000 3.7056c 17.6000,-0.0000 35.2000,-0.0000 52.8000 -0.0000c 0.0000,-1.2352 0.0000,-2.4704 0.0000 -3.7056c 1.0240,-0.0000 2.0480,-0.0000 3.0720 -0.0000c 0.0000,-4.4096 0.0000,-8.8191 0.0000 -13.2287c -1.0240,-0.0000 -2.0480,-0.0000 -3.0720 -0.0000c 0.0000,-6.3104 0.0000,-12.6209 0.0000 -18.9313c 1.0240,-0.0000 2.0480,-0.0000 3.0720 -0.0000c 0.0000,-4.4096 0.0000,-8.8191 0.0000 -13.2287c -1.0240,-0.0000 -2.0480,-0.0000 -3.0720 -0.0000c 0.0000,-1.2352 0.0000,-2.4704 0.0000 -3.7056c -17.6000,-0.0000 -35.2000,-0.0000 -52.8000 -0.0000c 0.0000,1.2352 0.0000,2.4704 0.0000 3.7056c -1.0240,-0.0000 -2.0480,-0.0000 -3.0720 0.0000ZM 631.4477,127.3592 c 0.0000,4.4096 0.0000,8.8191 0.0000 13.2287c 1.0240,-0.0000 2.0480,-0.0000 3.0720 -0.0000c 0.0000,6.3104 0.0000,12.6209 0.0000 18.9313c -1.0240,-0.0000 -2.0480,-0.0000 -3.0720 -0.0000c 0.0000,4.4096 0.0000,8.8191 0.0000 13.2287c 1.0240,-0.0000 2.0480,-0.0000 3.0720 -0.0000c 0.0000,1.2352 0.0000,2.4704 0.0000 3.7056c 17.6000,-0.0000 35.2000,-0.0000 52.8000 -0.0000c 0.0000,-1.2352 0.0000,-2.4704 0.0000 -3.7056c 1.0240,-0.0000 2.0480,-0.0000 3.0720 -0.0000c 0.0000,-4.4096 0.0000,-8.8191 0.0000 -13.2287c -1.0240,-0.0000 -2.0480,-0.0000 -3.0720 -0.0000c 0.0000,-6.3104 0.0000,-12.6209 0.0000 -18.9313c 1.0240,-0.0000 2.0480,-0.0000 3.0720 -0.0000c 0.0000,-4.4096 0.0000,-8.8191 0.0000 -13.2287c -1.0240,-0.0000 -2.0480,-0.0000 -3.0720 -0.0000c 0.0000,-1.2352 0.0000,-2.4704 0.0000 -3.7056c -17.6000,-0.0000 -35.2000,-0.0000 -52.8000 -0.0000c 0.0000,1.2352 0.0000,2.4704 0.0000 3.7056c -1.0240,-0.0000 -2.0480,-0.0000 -3.0720 -0.0000ZM 631.4477,199.1702 c 0.0000,4.4096 0.0000,8.8191 0.0000 13.2287c 1.0240,-0.0000 2.0480,-0.0000 3.0720 -0.0000c 0.0000,6.3105 0.0000,12.6209 0.0000 18.9313c -1.0240,-0.0000 -2.0480,-0.0000 -3.0720 -0.0000c 0.0000,4.4096 0.0000,8.8192 0.0000 13.2287c 1.0240,-0.0000 2.0480,-0.0000 3.0720 -0.0000c 0.0000,1.2352 0.0000,2.4704 0.0000 3.7056c 17.6000,-0.0000 35.2000,-0.0000 52.8000 -0.0000c 0.0000,-1.2352 0.0000,-2.4704 0.0000 -3.7056c 1.0240,-0.0000 2.0480,-0.0000 3.0720 -0.0000c 0.0000,-4.4096 0.0000,-8.8192 0.0000 -13.2287c -1.0240,-0.0000 -2.0480,-0.0000 -3.0720 -0.0000c 0.0000,-6.3104 0.0000,-12.6208 0.0000 -18.9313c 1.0240,-0.0000 2.0480,-0.0000 3.0720 -0.0000c 0.0000,-4.4096 0.0000,-8.8191 0.0000 -13.2287c -1.0240,-0.0000 -2.0480,-0.0000 -3.0720 -0.0000c 0.0000,-1.2352 0.0000,-2.4704 0.0000 -3.7056c -17.6000,-0.0000 -35.2000,-0.0000 -52.8000 -0.0000c 0.0000,1.2352 0.0000,2.4704 0.0000 3.7056c -1.0240,-0.0000 -2.0480,-0.0000 -3.0720 -0.0000ZM 631.4477,270.9812 c 0.0000,4.4096 0.0000,8.8192 0.0000 13.2287c 1.0240,-0.0000 2.0480,-0.0000 3.0720 -0.0000c 0.0000,6.3104 0.0000,12.6208 0.0000 18.9313c -1.0240,-0.0000 -2.0480,-0.0000 -3.0720 -0.0000c 0.0000,4.4096 0.0000,8.8192 0.0000 13.2287c 1.0240,-0.0000 2.0480,-0.0000 3.0720 -0.0000c 0.0000,1.2352 0.0000,2.4704 0.0000 3.7056c 17.6000,-0.0000 35.2000,-0.0000 52.8000 -0.0000c 0.0000,-1.2352 0.0000,-2.4704 0.0000 -3.7056c 1.0240,-0.0000 2.0480,-0.0000 3.0720 -0.0000c 0.0000,-4.4096 0.0000,-8.8192 0.0000 -13.2287c -1.0240,-0.0000 -2.0480,-0.0000 -3.0720 -0.0000c 0.0000,-6.3104 0.0000,-12.6208 0.0000 -18.9313c 1.0240,-0.0000 2.0480,-0.0000 3.0720 -0.0000c 0.0000,-4.4096 0.0000,-8.8192 0.0000 -13.2287c -1.0240,-0.0000 -2.0480,-0.0000 -3.0720 -0.0000c 0.0000,-1.2352 0.0000,-2.4704 0.0000 -3.7056c -17.6000,-0.0000 -35.2000,-0.0000 -52.8000 -0.0000c 0.0000,1.2352 0.0000,2.4704 0.0000 3.7056c -1.0240,-0.0000 -2.0480,-0.0000 -3.0720 -0.0000ZM 709.9968,24.1259 c 0.0000,3.1311 2.5382,5.6693 5.6693 5.6693c 3.1311,-0.0000 5.6693,-2.5382 5.6693 -5.6693c 0.0000,-3.1311 -2.5382,-5.6693 -5.6693 -5.6693c -3.1311,-0.0000 -5.6693,2.5382 -5.6693 5.6693ZM 709.9968,326.3748 c 0.0000,3.1311 2.5382,5.6693 5.6693 5.6693c 3.1311,-0.0000 5.6693,-2.5382 5.6693 -5.6693c 0.0000,-3.1311 -2.5382,-5.6693 -5.6693 -5.6693c -3.1311,-0.0000 -5.6693,2.5382 -5.6693 5.6693Z"/></g><g stroke-linejoin="miter" stroke-opacity="1.0" fill-opacity="0.5" stroke="rgb(0,0,0)" stroke-width="0.37795275590551186" fill="rgb(0,0,255)" stroke-linecap="butt" stroke-miterlimit="10.0"><path d="M 3.9685,20.3464 c 0.0000,-9.0453 7.3326,-16.3779 16.3779 -16.3779c 116.5165,-0.0000 233.0331,-0.0000 349.5496 -0.0000c 116.5165,-0.0000 233.0331,-0.0000 349.5496 -0.0000c 9.0453,-0.0000 16.3779,7.3326 16.3779 16.3779c 0.0000,68.8462 0.0000,137.6924 0.0000 206.5386c 0.0000,34.4231 0.0000,68.8462 0.0000 103.2693c 0.0000,8.4641 -6.4494,15.5339 -14.8779 16.3091c -91.3197,8.3989 -182.6394,16.7979 -273.9590 25.1968c -0.4987,0.0459 -0.9992,0.0688 -1.5000 0.0688c -25.1969,-0.0000 -50.3937,-0.0000 -75.5906 -0.0000c -25.1969,-0.0000 -50.3937,-0.0000 -75.5906 -0.0000c -0.5008,-0.0000 -1.0013,-0.0230 -1.5000 -0.0688c -91.3197,-8.3989 -182.6394,-16.7979 -273.9590 -25.1968c -8.4285,-0.7752 -14.8779,-7.8450 -14.8779 -16.3091c 0.0000,-34.4231 0.0000,-68.8462 0.0000 -103.2693c 0.0000,-68.8462 0.0000,-137.6924 0.0000 -206.5386ZM 18.4567,24.1259 c 0.0000,3.1311 2.5382,5.6693 5.6693 5.6693c 3.1311,-0.0000 5.6693,-2.5382 5.6693 -5.6693c 0.0000,-3.1311 -2.5382,-5.6693 -5.6693 -5.6693c -3.1311,-0.0000 -5.6693,2.5382 -5.6693 5.6693ZM 18.4567,326.3748 c 0.0000,3.1311 2.5382,5.6693 5.6693 5.6693c 3.1311,-0.0000 5.6693,-2.5382 5.6693 -5.6693c 0.0000,-3.1311 -2.5382,-5.6693 -5.6693 -5.6693c -3.1311,-0.0000 -5.6693,2.5382 -5.6693 5.6693ZM 37.8268,40.9764 c 0.0000,16.5627 0.0000,33.1255 0.0000 49.6882c 0.0000,7.3743 0.0000,14.7486 0.0000 22.1229c 0.0000,0.9071 0.0000,1.8142 0.0000 2.7212c 0.0000,15.6557 0.0000,31.3113 0.0000 46.9670c 0.0000,7.3743 0.0000,14.7485 0.0000 22.1228c 0.0000,0.9071 0.0000,1.8142 0.0000 2.7212c 0.0000,15.6557 0.0000,31.3113 0.0000 46.9670c 0.0000,7.3743 0.0000,14.7485 0.0000 22.1228c 0.0000,0.9071 0.0000,1.8142 0.0000 2.7213c 0.0000,15.6556 0.0000,31.3113 0.0000 46.9669c 0.0000,8.2814 0.0000,16.5627 0.0000 24.8441c 0.0000,2.0874 1.6922,3.7795 3.7795 3.7795c 23.9370,-0.0000 47.8740,-0.0000 71.8110 -0.0000c 0.9071,-0.0000 1.8142,-0.0000 2.7212 -0.0000c 23.0299,-0.0000 46.0599,-0.0000 69.0898 -0.0000c 0.9071,-0.0000 1.8142,-0.0000 2.7212 -0.0000c 23.0299,-0.0000 46.0599,-0.0000 69.0898 -0.0000c 0.9071,-0.0000 1.8142,-0.0000 2.7213 -0.0000c 23.9370,-0.0000 47.8740,-0.0000 71.8110 -0.0000c 2.0874,-0.0000 3.7795,-1.6922 3.7795 -3.7795c 0.0000,-23.9370 0.0000,-47.8740 0.0000 -71.8110c 0.0000,-0.9071 0.0000,-1.8142 0.0000 -2.7213c 0.0000,-23.0299 0.0000,-46.0598 0.0000 -69.0898c 0.0000,-0.9071 0.0000,-1.8142 0.0000 -2.7212c 0.0000,-23.0299 0.0000,-46.0598 0.0000 -69.0898c 0.0000,-0.9071 0.0000,-1.8142 0.0000 -2.7212c 0.0000,-23.9370 0.0000,-47.8740 0.0000 -71.8110c 0.0000,-2.0874 -1.6922,-3.7795 -3.7795 -3.7795c -23.9370,-0.0000 -47.8740,-0.0000 -71.8110 -0.0000c -0.9071,-0.0000 -1.8142,-0.0000 -2.7213 -0.0000c -23.0299,-0.0000 -46.0598,-0.0000 -69.0898 -0.0000c -0.9071,-0.0000 -1.8142,-0.0000 -2.7212 -0.0000c -23.0299,-0.0000 -46.0598,-0.0000 -69.0898 -0.0000c -0.9071,-0.0000 -1.8142,-0.0000 -2.7212 -0.0000c -23.9370,-0.0000 -47.8740,-0.0000 -71.8110 -0.0000c -2.0874,-0.0000 -3.7795,1.6922 -3.7795 3.7795ZM 288.6362,24.1259 c 0.0000,3.1311 2.5382,5.6693 5.6693 5.6693c 3.1311,-0.0000 5.6693,-2.5382 5.6693 -5.6693c 0.0000,-3.1311 -2.5383,-5.6693 -5.6693 -5.6693c -3.1311,-0.0000 -5.6693,2.5382 -5.6693 5.6693ZM 288.6362,351.5716 c 0.0000,3.1311 2.5382,5.6693 5.6693 5.6693c 3.1311,-0.0000 5.6693,-2.5382 5.6693 -5.6693c 0.0000,-3.1311 -2.5383,-5.6693 -5.6693 -5.6693c -3.1311,-0.0000 -5.6693,2.5382 -5.6693 5.6693ZM 404.4409,40.9764 c 0.0000,23.9370 0.0000,47.8740 0.0000 71.8110c 0.0000,0.9071 0.0000,1.8142 0.0000 2.7212c 0.0000,23.0299 0.0000,46.0599 0.0000 69.0898c 0.0000,0.9071 0.0000,1.8142 0.0000 2.7212c 0.0000,23.0299 0.0000,46.0599 0.0000 69.0898c 0.0000,0.9071 0.0000,1.8142 0.0000 2.7213c 0.0000,23.9370 0.0000,47.8740 0.0000 71.8110c 0.0000,2.0874 1.6922,3.7795 3.7795 3.7795c 23.9370,-0.0000 47.8740,-0.0000 71.8110 -0.0000c 0.9071,-0.0000 1.8142,-0.0000 2.7213 -0.0000c 23.0299,-0.0000 46.0598,-0.0000 69.0898 -0.0000c 0.9071,-0.0000 1.8142,-0.0000 2.7212 -0.0000c 23.0299,-0.0000 46.0598,-0.0000 69.0898 -0.0000c 0.9071,-0.0000 1.8142,-0.0000 2.7212 -0.0000c 23.9370,-0.0000 47.8740,-0.0000 71.8110 -0.0000c 2.0874,-0.0000 3.7795,-1.6922 3.7795 -3.7795c 0.0000,-8.2814 0.0000,-16.5627 0.0000 -24.8441c 0.0000,-15.6556 0.0000,-31.3113 0.0000 -46.9669c 0.0000,-0.9071 0.0000,-1.8142 0.0000 -2.7213c 0.0000,-7.3743 0.0000,-14.7485 0.0000 -22.1228c 0.0000,-15.6557 0.0000,-31.3113 0.0000 -46.9670c 0.0000,-0.9071 0.0000,-1.8142 0.0000 -2.7212c 0.0000,-7.3743 0.0000,-14.7485 0.0000 -22.1228c 0.0000,-15.6557 0.0000,-31.3113 0.0000 -46.9670c 0.0000,-0.9071 0.0000,-1.8142 0.0000 -2.7212c 0.0000,-7.3743 0.0000,-14.7486 0.0000 -22.1229c 0.0000,-16.5627 0.0000,-33.1255 0.0000 -49.6882c 0.0000,-2.0874 -1.6922,-3.7795 -3.7795 -3.7795c -23.9370,-0.0000 -47.8740,-0.0000 -71.8110 -0.0000c -0.9071,-0.0000 -1.8142,-0.0000 -2.7212 -0.0000c -23.0299,-0.0000 -46.0599,-0.0000 -69.0898 -0.0000c -0.9071,-0.0000 -1.8142,-0.0000 -2.7212 -0.0000c -23.0299,-0.0000 -46.0599,-0.0000 -69.0898 -0.0000c -0.9071,-0.0000 -1.8142,-0.0000 -2.7213 -0.0000c -23.9370,-0.0000 -47.8740,-0.0000 -71.8110 -0.0000c -2.0874,-0.0000 -3.7795,1.6922 -3.7795 3.7795ZM 439.8173,24.1259 c 0.0000,3.1311 2.5383,5.6693 5.6693 5.6693c 3.1311,-0.0000 5.6693,-2.5382 5.6693 -5.6693c 0.0000,-3.1311 -2.5382,-5.6693 -5.6693 -5.6693c -3.1311,-0.0000 -5.6693,2.5382 -5.6693 5.6693ZM 439.8173,351.5716 c 0.0000,3.1311 2.5383,5.6693 5.6693 5.6693c 3.1311,-0.0000 5.6693,-2.5382 5.6693 -5.6693c 0.0000,-3.1311 -2.5382,-5.6693 -5.6693 -5.6693c -3.1311,-0.0000 -5.6693,2.5382 -5.6693 5.6693ZM 709.9968,24.1259 c 0.0000,3.1311 2.5382,5.6693 5.6693 5.6693c 3.1311,-0.0000 5.6693,-2.5382 5.6693 -5.6693c 0.0000,-3.1311 -2.5382,-5.6693 -5.6693 -5.6693c -3.1311,-0.0000 -5.6693,2.5382 -5.6693 5.6693ZM 709.9968,326.3748 c 0.0000,3.1311 2.5382,5.6693 5.6693 5.6693c 3.1311,-0.0000 5.6693,-2.5382 5.6693 -5.6693c 0.0000,-3.1311 -2.5382,-5.6693 -5.6693 -5.6693c -3.1311,-0.0000 -5.6693,2.5382 -5.6693 5.6693Z"/></g><g stroke-linejoin="miter" stroke-opacity="1.0" fill-opacity="0.7" stroke="rgb(0,0,0)" stroke-width="0.37795275590551186" fill="rgb(0,0,0)" stroke-linecap="butt" stroke-miterlimit="10.0"><path d="M 43.5905,105.9653 l 0.0000,-55.4457 c -0.0000,-4.1748 3.3843,-7.5591 7.5591 -7.5591h 55.4457 c 4.1748,-0.0000 7.5591,3.3843 7.5591 7.5591l 0.0000,55.4457 c 0.0000,4.1748 -3.3843,7.5591 -7.5591 7.5591h -55.4457 c -4.1748,-0.0000 -7.5591,-3.3843 -7.5591 -7.5591Z"/></g><defs><linearGradient x2="5.0000" y1="0.0000" gradientUnits="userSpaceOnUse" spreadMethod="pad" gradientTransform="matrix(-3.7795,-0.0000,-0.0000,-3.7795,78.8724,78.2425)" id="gradient10" y2="0.0000" x1="-5.0000"><stop stop-opacity="0.1000" offset="0.0000" stop-color="rgb(0,0,0)"/><stop stop-opacity="0.1000" offset="0.5000" stop-color="rgb(255,255,255)"/><stop stop-opacity="0.1000" offset="1.0000" stop-color="rgb(0,0,0)"/></linearGradient></defs><g stroke-linejoin="miter" stroke-opacity="1.0" fill-opacity="1" stroke="rgb(0,0,0)" stroke-width="0.37795275590551186" fill="url(#gradient10)" stroke-linecap="butt" stroke-miterlimit="10.0"><path d="M 54.3622,95.1937 l 0.0000,-33.9024 c -0.0000,-4.1748 3.3843,-7.5591 7.5591 -7.5591h 33.9024 c 4.1748,-0.0000 7.5591,3.3843 7.5591 7.5591l 0.0000,33.9024 c 0.0000,4.1748 -3.3843,7.5591 -7.5591 7.5591h -33.9024 c -4.1748,-0.0000 -7.5591,-3.3843 -7.5591 -7.5591Z"/></g><g stroke-linejoin="miter" stroke-opacity="1.0" fill-opacity="0.7" stroke="rgb(0,0,0)" stroke-width="0.37795275590551186" fill="rgb(0,0,0)" stroke-linecap="butt" stroke-miterlimit="10.0"><path d="M 43.5905,177.7764 l 0.0000,-55.4457 c -0.0000,-4.1748 3.3843,-7.5591 7.5591 -7.5591h 55.4457 c 4.1748,-0.0000 7.5591,3.3843 7.5591 7.5591l 0.0000,55.4457 c 0.0000,4.1748 -3.3843,7.5591 -7.5591 7.5591h -55.4457 c -4.1748,-0.0000 -7.5591,-3.3843 -7.5591 -7.5591Z"/></g><defs><linearGradient x2="5.0000" y1="0.0000" gradientUnits="userSpaceOnUse" spreadMethod="pad" gradientTransform="matrix(-3.7795,-0.0000,-0.0000,-3.7795,78.8724,150.0535)" id="gradient14" y2="0.0000" x1="-5.0000"><stop stop-opacity="0.1000" offset="0.0000" stop-color="rgb(0,0,0)"/><stop stop-opacity="0.1000" offset="0.5000" stop-color="rgb(255,255,255)"/><stop stop-opacity="0.1000" offset="1.0000" stop-color="rgb(0,0,0)"/></linearGradient></defs><g stroke-linejoin="miter" stroke-opacity="1.0" fill-opacity="1" stroke="rgb(0,0,0)" stroke-width="0.37795275590551186" fill="url(#gradient14)" stroke-linecap="butt" stroke-miterlimit="10.0"><path d="M 54.3622,167.0047 l 0.0000,-33.9024 c -0.0000,-4.1748 3.3843,-7.5591 7.5591 -7.5591h 33.9024 c 4.1748,-0.0000 7.5591,3.3843 7.5591 7.5591l 0.0000,33.9024 c 0.0000,4.1748 -3.3843,7.5591 -7.5591 7.5591h -33.9024 c -4.1748,-0.0000 -7.5591,-3.3843 -7.5591 -7.5591Z"/></g><g stroke-linejoin="miter" stroke-opacity="1.0" fill-opacity="0.7" stroke="rgb(0,0,0)" stroke-width="0.37795275590551186" fill="rgb(0,0,0)" stroke-linecap="butt" stroke-miterlimit="10.0"><path d="M 43.5905,249.5874 l 0.0000,-55.4457 c -0.0000,-4.1748 3.3843,-7.5591 7.5591 -7.5591h 55.4457 c 4.1748,-0.0000 7.5591,3.3843 7.5591 7.5591l 0.0000,55.4457 c 0.0000,4.1748 -3.3843,7.5591 -7.5591 7.5591h -55.4457 c -4.1748,-0.0000 -7.5591,-3.3843 -7.5591 -7.5591Z"/></g><defs><linearGradient x2="5.0000" y1="0.0000" gradientUnits="userSpaceOnUse" spreadMethod="pad" gradientTransform="matrix(-3.7795,-0.0000,-0.0000,-3.7795,78.8724,221.8645)" id="gradient18" y2="0.0000" x1="-5.0000"><stop stop-opacity="0.1000" offset="0.0000" stop-color="rgb(0,0,0)"/><stop stop-opacity="0.1000" offset="0.5000" stop-color="rgb(255,255,255)"/><stop stop-opacity="0.1000" offset="1.0000" stop-color="rgb(0,0,0)"/></linearGradient></defs><g stroke-linejoin="miter" stroke-opacity="1.0" fill-opacity="1" stroke="rgb(0,0,0)" stroke-width="0.37795275590551186" fill="url(#gradient18)" stroke-linecap="butt" stroke-miterlimit="10.0"><path d="M 54.3622,238.8157 l 0.0000,-33.9024 c -0.0000,-4.1748 3.3843,-7.5591 7.5591 -7.5591h 33.9024 c 4.1748,-0.0000 7.5591,3.3843 7.5591 7.5591l 0.0000,33.9024 c 0.0000,4.1748 -3.3843,7.5591 -7.5591 7.5591h -33.9024 c -4.1748,-0.0000 -7.5591,-3.3843 -7.5591 -7.5591Z"/></g><g stroke-linejoin="miter" stroke-opacity="1.0" fill-opacity="0.7" stroke="rgb(0,0,0)" stroke-width="0.37795275590551186" fill="rgb(0,0,0)" stroke-linecap="butt" stroke-miterlimit="10.0"><path d="M 43.5905,321.3984 l 0.0000,-55.4457 c -0.0000,-4.1748 3.3843,-7.5591 7.5591 -7.5591h 55.4457 c 4.1748,-0.0000 7.5591,3.3843 7.5591 7.5591l 0.0000,55.4457 c 0.0000,4.1748 -3.3843,7.5591 -7.5591 7.5591h -55.4457 c -4.1748,-0.0000 -7.5591,-3.3843 -7.5591 -7.5591Z"/></g><defs><linearGradient x2="5.0000" y1="0.0000" gradientUnits="userSpaceOnUse" spreadMethod="pad" gradientTransform="matrix(-3.7795,-0.0000,-0.0000,-3.7795,78.8724,293.6756)" id="gradient22" y2="0.0000" x1="-5.0000"><stop stop-opacity="0.1000" offset="0.0000" stop-color="rgb(0,0,0)"/><stop stop-opacity="0.1000" offset="0.5000" stop-color="rgb(255,255,255)"/><stop stop-opacity="0.1000" offset="1.0000" stop-color="rgb(0,0,0)"/></linearGradient></defs><g stroke-linejoin="miter" stroke-opacity="1.0" fill-opacity="1" stroke="rgb(0,0,0)" stroke-width="0.37795275590551186" fill="url(#gradient22)" stroke-linecap="butt" stroke-miterlimit="10.0"><path d="M 54.3622,310.6267 l 0.0000,-33.9024 c -0.0000,-4.1748 3.3843,-7.5591 7.5591 -7.5591h 33.9024 c 4.1748,-0.0000 7.5591,3.3843 7.5591 7.5591l 0.0000,33.9024 c 0.0000,4.1748 -3.3843,7.5591 -7.5591 7.5591h -33.9024 c -4.1748,-0.0000 -7.5591,-3.3843 -7.5591 -7.5591Z"/></g><g stroke-linejoin="miter" stroke-opacity="1.0" fill-opacity="0.7" stroke="rgb(0,0,0)" stroke-width="0.37795275590551186" fill="rgb(0,0,0)" stroke-linecap="butt" stroke-miterlimit="10.0"><path d="M 115.4016,105.9653 l 0.0000,-55.4457 c -0.0000,-4.1748 3.3843,-7.5591 7.5591 -7.5591h 55.4457 c 4.1748,-0.0000 7.5591,3.3843 7.5591 7.5591l 0.0000,55.4457 c 0.0000,4.1748 -3.3843,7.5591 -7.5591 7.5591h -55.4457 c -4.1748,-0.0000 -7.5591,-3.3843 -7.5591 -7.5591Z"/></g><defs><linearGradient x2="5.0000" y1="0.0000" gradientUnits="userSpaceOnUse" spreadMethod="pad" gradientTransform="matrix(-3.7795,-0.0000,-0.0000,-3.7795,150.6834,78.2425)" id="gradient26" y2="0.0000" x1="-5.0000"><stop stop-opacity="0.1000" offset="0.0000" stop-color="rgb(0,0,0)"/><stop stop-opacity="0.1000" offset="0.5000" stop-color="rgb(255,255,255)"/><stop stop-opacity="0.1000" offset="1.0000" stop-color="rgb(0,0,0)"/></linearGradient></defs><g stroke-linejoin="miter" stroke-opacity="1.0" fill-opacity="1" stroke="rgb(0,0,0)" stroke-width="0.37795275590551186" fill="url(#gradient26)" stroke-linecap="butt" stroke-miterlimit="10.0"><path d="M 126.1732,95.1937 l 0.0000,-33.9024 c -0.0000,-4.1748 3.3843,-7.5591 7.5591 -7.5591h 33.9024 c 4.1748,-0.0000 7.5591,3.3843 7.5591 7.5591l 0.0000,33.9024 c 0.0000,4.1748 -3.3843,7.5591 -7.5591 7.5591h -33.9024 c -4.1748,-0.0000 -7.5591,-3.3843 -7.5591 -7.5591Z"/></g><g stroke-linejoin="miter" stroke-opacity="1.0" fill-opacity="0.7" stroke="rgb(0,0,0)" stroke-width="0.37795275590551186" fill="rgb(0,0,0)" stroke-linecap="butt" stroke-miterlimit="10.0"><path d="M 115.4016,177.7764 l 0.0000,-55.4457 c -0.0000,-4.1748 3.3843,-7.5591 7.5591 -7.5591h 55.4457 c 4.1748,-0.0000 7.5591,3.3843 7.5591 7.5591l 0.0000,55.4457 c 0.0000,4.1748 -3.3843,7.5591 -7.5591 7.5591h -55.4457 c -4.1748,-0.0000 -7.5591,-3.3843 -7.5591 -7.5591Z"/></g><defs><linearGradient x2="5.0000" y1="0.0000" gradientUnits="userSpaceOnUse" spreadMethod="pad" gradientTransform="matrix(-3.7795,-0.0000,-0.0000,-3.7795,150.6834,150.0535)" id="gradient30" y2="0.0000" x1="-5.0000"><stop stop-opacity="0.1000" offset="0.0000" stop-color="rgb(0,0,0)"/><stop stop-opacity="0.1000" offset="0.5000" stop-color="rgb(255,255,255)"/><stop stop-opacity="0.1000" offset="1.0000" stop-color="rgb(0,0,0)"/></linearGradient></defs><g stroke-linejoin="miter" stroke-opacity="1.0" fill-opacity="1" stroke="rgb(0,0,0)" stroke-width="0.37795275590551186" fill="url(#gradient30)" stroke-linecap="butt" stroke-miterlimit="10.0"><path d="M 126.1732,167.0047 l 0.0000,-33.9024 c -0.0000,-4.1748 3.3843,-7.5591 7.5591 -7.5591h 33.9024 c 4.1748,-0.0000 7.5591,3.3843 7.5591 7.5591l 0.0000,33.9024 c 0.0000,4.1748 -3.3843,7.5591 -7.5591 7.5591h -33.9024 c -4.1748,-0.0000 -7.5591,-3.3843 -7.5591 -7.5591Z"/></g><g stroke-linejoin="miter" stroke-opacity="1.0" fill-opacity="0.7" stroke="rgb(0,0,0)" stroke-width="0.37795275590551186" fill="rgb(0,0,0)" stroke-linecap="butt" stroke-miterlimit="10.0"><path d="M 115.4016,249.5874 l 0.0000,-55.4457 c -0.0000,-4.1748 3.3843,-7.5591 7.5591 -7.5591h 55.4457 c 4.1748,-0.0000 7.5591,3.3843 7.5591 7.5591l 0.0000,55.4457 c 0.0000,4.1748 -3.3843,7.5591 -7.5591 7.5591h -55.4457 c -4.1748,-0.0000 -7.5591,-3.3843 -7.5591 -7.5591Z"/></g><defs><linearGradient x2="5.0000" y1="0.0000" gradientUnits="userSpaceOnUse" spreadMethod="pad" gradientTransform="matrix(-3.7795,-0.0000,-0.0000,-3.7795,150.6834,221.8645)" id="gradient34" y2="0.0000" x1="-5.0000"><stop stop-opacity="0.1000" offset="0.0000" stop-color="rgb(0,0,0)"/><stop stop-opacity="0.1000" offset="0.5000" stop-color="rgb(255,255,255)"/><stop stop-opacity="0.1000" offset="1.0000" stop-color="rgb(0,0,0)"/></linearGradient></defs><g stroke-linejoin="miter" stroke-opacity="1.0" fill-opacity="1" stroke="rgb(0,0,0)" stroke-width="0.37795275590551186" fill="url(#gradient34)" stroke-linecap="butt" stroke-miterlimit="10.0"><path d="M 126.1732,238.8157 l 0.0000,-33.9024 c -0.0000,-4.1748 3.3843,-7.5591 7.5591 -7.5591h 33.9024 c 4.1748,-0.0000 7.5591,3.3843 7.5591 7.5591l 0.0000,33.9024 c 0.0000,4.1748 -3.3843,7.5591 -7.5591 7.5591h -33.9024 c -4.1748,-0.0000 -7.5591,-3.3843 -7.5591 -7.5591Z"/></g><g stroke-linejoin="miter" stroke-opacity="1.0" fill-opacity="0.7" stroke="rgb(0,0,0)" stroke-width="0.37795275590551186" fill="rgb(0,0,0)" stroke-linecap="butt" stroke-miterlimit="10.0"><path d="M 115.4016,321.3984 l 0.0000,-55.4457 c -0.0000,-4.1748 3.3843,-7.5591 7.5591 -7.5591h 55.4457 c 4.1748,-0.0000 7.5591,3.3843 7.5591 7.5591l 0.0000,55.4457 c 0.0000,4.1748 -3.3843,7.5591 -7.5591 7.5591h -55.4457 c -4.1748,-0.0000 -7.5591,-3.3843 -7.5591 -7.5591Z"/></g><defs><linearGradient x2="5.0000" y1="0.0000" gradientUnits="userSpaceOnUse" spreadMethod="pad" gradientTransform="matrix(-3.7795,-0.0000,-0.0000,-3.7795,150.6834,293.6756)" id="gradient38" y2="0.0000" x1="-5.0000"><stop stop-opacity="0.1000" offset="0.0000" stop-color="rgb(0,0,0)"/><stop stop-opacity="0.1000" offset="0.5000" stop-color="rgb(255,255,255)"/><stop stop-opacity="0.1000" offset="1.0000" stop-color="rgb(0,0,0)"/></linearGradient></defs><g stroke-linejoin="miter" stroke-opacity="1.0" fill-opacity="1" stroke="rgb(0,0,0)" stroke-width="0.37795275590551186" fill="url(#gradient38)" stroke-linecap="butt" stroke-miterlimit="10.0"><path d="M 126.1732,310.6267 l 0.0000,-33.9024 c -0.0000,-4.1748 3.3843,-7.5591 7.5591 -7.5591h 33.9024 c 4.1748,-0.0000 7.5591,3.3843 7.5591 7.5591l 0.0000,33.9024 c 0.0000,4.1748 -3.3843,7.5591 -7.5591 7.5591h -33.9024 c -4.1748,-0.0000 -7.5591,-3.3843 -7.5591 -7.5591Z"/></g><g stroke-linejoin="miter" stroke-opacity="1.0" fill-opacity="0.7" stroke="rgb(0,0,0)" stroke-width="0.37795275590551186" fill="rgb(0,0,0)" stroke-linecap="butt" stroke-miterlimit="10.0"><path d="M 187.2126,105.9653 l 0.0000,-55.4457 c -0.0000,-4.1748 3.3843,-7.5591 7.5591 -7.5591h 55.4457 c 4.1748,-0.0000 7.5591,3.3843 7.5591 7.5591l 0.0000,55.4457 c 0.0000,4.1748 -3.3843,7.5591 -7.5591 7.5591h -55.4457 c -4.1748,-0.0000 -7.5591,-3.3843 -7.5591 -7.5591Z"/></g><defs><linearGradient x2="5.0000" y1="0.0000" gradientUnits="userSpaceOnUse" spreadMethod="pad" gradientTransform="matrix(-3.7795,-0.0000,-0.0000,-3.7795,222.4945,78.2425)" id="gradient42" y2="0.0000" x1="-5.0000"><stop stop-opacity="0.1000" offset="0.0000" stop-color="rgb(0,0,0)"/><stop stop-opacity="0.1000" offset="0.5000" stop-color="rgb(255,255,255)"/><stop stop-opacity="0.1000" offset="1.0000" stop-color="rgb(0,0,0)"/></linearGradient></defs><g stroke-linejoin="miter" stroke-opacity="1.0" fill-opacity="1" stroke="rgb(0,0,0)" stroke-width="0.37795275590551186" fill="url(#gradient42)" stroke-linecap="butt" stroke-miterlimit="10.0"><path d="M 197.9842,95.1937 l 0.0000,-33.9024 c -0.0000,-4.1748 3.3843,-7.5591 7.5591 -7.5591h 33.9024 c 4.1748,-0.0000 7.5591,3.3843 7.5591 7.5591l 0.0000,33.9024 c 0.0000,4.1748 -3.3843,7.5591 -7.5591 7.5591h -33.9024 c -4.1748,-0.0000 -7.5591,-3.3843 -7.5591 -7.5591Z"/></g><g stroke-linejoin="miter" stroke-opacity="1.0" fill-opacity="0.7" stroke="rgb(0,0,0)" stroke-width="0.37795275590551186" fill="rgb(0,0,0)" stroke-linecap="butt" stroke-miterlimit="10.0"><path d="M 187.2126,177.7764 l 0.0000,-55.4457 c -0.0000,-4.1748 3.3843,-7.5591 7.5591 -7.5591h 55.4457 c 4.1748,-0.0000 7.5591,3.3843 7.5591 7.5591l 0.0000,55.4457 c 0.0000,4.1748 -3.3843,7.5591 -7.5591 7.5591h -55.4457 c -4.1748,-0.0000 -7.5591,-3.3843 -7.5591 -7.5591Z"/></g><defs><linearGradient x2="5.0000" y1="0.0000" gradientUnits="userSpaceOnUse" spreadMethod="pad" gradientTransform="matrix(-3.7795,-0.0000,-0.0000,-3.7795,222.4945,150.0535)" id="gradient46" y2="0.0000" x1="-5.0000"><stop stop-opacity="0.1000" offset="0.0000" stop-color="rgb(0,0,0)"/><stop stop-opacity="0.1000" offset="0.5000" stop-color="rgb(255,255,255)"/><stop stop-opacity="0.1000" offset="1.0000" stop-color="rgb(0,0,0)"/></linearGradient></defs><g stroke-linejoin="miter" stroke-opacity="1.0" fill-opacity="1" stroke="rgb(0,0,0)" stroke-width="0.37795275590551186" fill="url(#gradient46)" stroke-linecap="butt" stroke-miterlimit="10.0"><path d="M 197.9842,167.0047 l 0.0000,-33.9024 c -0.0000,-4.1748 3.3843,-7.5591 7.5591 -7.5591h 33.9024 c 4.1748,-0.0000 7.5591,3.3843 7.5591 7.5591l 0.0000,33.9024 c 0.0000,4.1748 -3.3843,7.5591 -7.5591 7.5591h -33.9024 c -4.1748,-0.0000 -7.5591,-3.3843 -7.5591 -7.5591Z"/></g><g stroke-linejoin="miter" stroke-opacity="1.0" fill-opacity="0.7" stroke="rgb(0,0,0)" stroke-width="0.37795275590551186" fill="rgb(0,0,0)" stroke-linecap="butt" stroke-miterlimit="10.0"><path d="M 187.2126,249.5874 l 0.0000,-55.4457 c -0.0000,-4.1748 3.3843,-7.5591 7.5591 -7.5591h 55.4457 c 4.1748,-0.0000 7.5591,3.3843 7.5591 7.5591l 0.0000,55.4457 c 0.0000,4.1748 -3.3843,7.5591 -7.5591 7.5591h -55.4457 c -4.1748,-0.0000 -7.5591,-3.3843 -7.5591 -7.5591Z"/></g><defs><linearGradient x2="5.0000" y1="0.0000" gradientUnits="userSpaceOnUse" spreadMethod="pad" gradientTransform="matrix(-3.7795,-0.0000,-0.0000,-3.7795,222.4945,221.8645)" id="gradient50" y2="0.0000" x1="-5.0000"><stop stop-opacity="0.1000" offset="0.0000" stop-color="rgb(0,0,0)"/><stop stop-opacity="0.1000" offset="0.5000" stop-color="rgb(255,255,255)"/><stop stop-opacity="0.1000" offset="1.0000" stop-color="rgb(0,0,0)"/></linearGradient></defs><g stroke-linejoin="miter" stroke-opacity="1.0" fill-opacity="1" stroke="rgb(0,0,0)" stroke-width="0.37795275590551186" fill="url(#gradient50)" stroke-linecap="butt" stroke-miterlimit="10.0"><path d="M 197.9842,238.8157 l 0.0000,-33.9024 c -0.0000,-4.1748 3.3843,-7.5591 7.5591 -7.5591h 33.9024 c 4.1748,-0.0000 7.5591,3.3843 7.5591 7.5591l 0.0000,33.9024 c 0.0000,4.1748 -3.3843,7.5591 -7.5591 7.5591h -33.9024 c -4.1748,-0.0000 -7.5591,-3.3843 -7.5591 -7.5591Z"/></g><g stroke-linejoin="miter" stroke-opacity="1.0" fill-opacity="0.7" stroke="rgb(0,0,0)" stroke-width="0.37795275590551186" fill="rgb(0,0,0)" stroke-linecap="butt" stroke-miterlimit="10.0"><path d="M 187.2126,321.3984 l 0.0000,-55.4457 c -0.0000,-4.1748 3.3843,-7.5591 7.5591 -7.5591h 55.4457 c 4.1748,-0.0000 7.5591,3.3843 7.5591 7.5591l 0.0000,55.4457 c 0.0000,4.1748 -3.3843,7.5591 -7.5591 7.5591h -55.4457 c -4.1748,-0.0000 -7.5591,-3.3843 -7.5591 -7.5591Z"/></g><defs><linearGradient x2="5.0000" y1="0.0000" gradientUnits="userSpaceOnUse" spreadMethod="pad" gradientTransform="matrix(-3.7795,-0.0000,-0.0000,-3.7795,222.4945,293.6756)" id="gradient54" y2="0.0000" x1="-5.0000"><stop stop-opacity="0.1000" offset="0.0000" stop-color="rgb(0,0,0)"/><stop stop-opacity="0.1000" offset="0.5000" stop-color="rgb(255,255,255)"/><stop stop-opacity="0.1000" offset="1.0000" stop-color="rgb(0,0,0)"/></linearGradient></defs><g stroke-linejoin="miter" stroke-opacity="1.0" fill-opacity="1" stroke="rgb(0,0,0)" stroke-width="0.37795275590551186" fill="url(#gradient54)" stroke-linecap="butt" stroke-miterlimit="10.0"><path d="M 197.9842,310.6267 l 0.0000,-33.9024 c -0.0000,-4.1748 3.3843,-7.5591 7.5591 -7.5591h 33.9024 c 4.1748,-0.0000 7.5591,3.3843 7.5591 7.5591l 0.0000,33.9024 c 0.0000,4.1748 -3.3843,7.5591 -7.5591 7.5591h -33.9024 c -4.1748,-0.0000 -7.5591,-3.3843 -7.5591 -7.5591Z"/></g><g stroke-linejoin="miter" stroke-opacity="1.0" fill-opacity="0.7" stroke="rgb(0,0,0)" stroke-width="0.37795275590551186" fill="rgb(0,0,0)" stroke-linecap="butt" stroke-miterlimit="10.0"><path d="M 259.0236,105.9653 l 0.0000,-55.4457 c -0.0000,-4.1748 3.3843,-7.5591 7.5591 -7.5591h 55.4457 c 4.1748,-0.0000 7.5591,3.3843 7.5591 7.5591l 0.0000,55.4457 c 0.0000,4.1748 -3.3843,7.5591 -7.5591 7.5591h -55.4457 c -4.1748,-0.0000 -7.5591,-3.3843 -7.5591 -7.5591Z"/></g><defs><linearGradient x2="5.0000" y1="0.0000" gradientUnits="userSpaceOnUse" spreadMethod="pad" gradientTransform="matrix(-3.7795,-0.0000,-0.0000,-3.7795,294.3055,78.2425)" id="gradient58" y2="0.0000" x1="-5.0000"><stop stop-opacity="0.1000" offset="0.0000" stop-color="rgb(0,0,0)"/><stop stop-opacity="0.1000" offset="0.5000" stop-color="rgb(255,255,255)"/><stop stop-opacity="0.1000" offset="1.0000" stop-color="rgb(0,0,0)"/></linearGradient></defs><g stroke-linejoin="miter" stroke-opacity="1.0" fill-opacity="1" stroke="rgb(0,0,0)" stroke-width="0.37795275590551186" fill="url(#gradient58)" stroke-linecap="butt" stroke-miterlimit="10.0"><path d="M 269.7953,95.1937 l 0.0000,-33.9024 c -0.0000,-4.1748 3.3843,-7.5591 7.5591 -7.5591h 33.9024 c 4.1748,-0.0000 7.5591,3.3843 7.5591 7.5591l 0.0000,33.9024 c 0.0000,4.1748 -3.3843,7.5591 -7.5591 7.5591h -33.9024 c -4.1748,-0.0000 -7.5591,-3.3843 -7.5591 -7.5591Z"/></g><g stroke-linejoin="miter" stroke-opacity="1.0" fill-opacity="0.7" stroke="rgb(0,0,0)" stroke-width="0.37795275590551186" fill="rgb(0,0,0)" stroke-linecap="butt" stroke-miterlimit="10.0"><path d="M 259.0236,177.7764 l 0.0000,-55.4457 c -0.0000,-4.1748 3.3843,-7.5591 7.5591 -7.5591h 55.4457 c 4.1748,-0.0000 7.5591,3.3843 7.5591 7.5591l 0.0000,55.4457 c 0.0000,4.1748 -3.3843,7.5591 -7.5591 7.5591h -55.4457 c -4.1748,-0.0000 -7.5591,-3.3843 -7.5591 -7.5591Z"/></g><defs><linearGradient x2="5.0000" y1="0.0000" gradientUnits="userSpaceOnUse" spreadMethod="pad" gradientTransform="matrix(-3.7795,-0.0000,-0.0000,-3.7795,294.3055,150.0535)" id="gradient62" y2="0.0000" x1="-5.0000"><stop stop-opacity="0.1000" offset="0.0000" stop-color="rgb(0,0,0)"/><stop stop-opacity="0.1000" offset="0.5000" stop-color="rgb(255,255,255)"/><stop stop-opacity="0.1000" offset="1.0000" stop-color="rgb(0,0,0)"/></linearGradient></defs><g stroke-linejoin="miter" stroke-opacity="1.0" fill-opacity="1" stroke="rgb(0,0,0)" stroke-width="0.37795275590551186" fill="url(#gradient62)" stroke-linecap="butt" stroke-miterlimit="10.0"><path d="M 269.7953,167.0047 l 0.0000,-33.9024 c -0.0000,-4.1748 3.3843,-7.5591 7.5591 -7.5591h 33.9024 c 4.1748,-0.0000 7.5591,3.3843 7.5591 7.5591l 0.0000,33.9024 c 0.0000,4.1748 -3.3843,7.5591 -7.5591 7.5591h -33.9024 c -4.1748,-0.0000 -7.5591,-3.3843 -7.5591 -7.5591Z"/></g><g stroke-linejoin="miter" stroke-opacity="1.0" fill-opacity="0.7" stroke="rgb(0,0,0)" stroke-width="0.37795275590551186" fill="rgb(0,0,0)" stroke-linecap="butt" stroke-miterlimit="10.0"><path d="M 259.0236,249.5874 l 0.0000,-55.4457 c -0.0000,-4.1748 3.3843,-7.5591 7.5591 -7.5591h 55.4457 c 4.1748,-0.0000 7.5591,3.3843 7.5591 7.5591l 0.0000,55.4457 c 0.0000,4.1748 -3.3843,7.5591 -7.5591 7.5591h -55.4457 c -4.1748,-0.0000 -7.5591,-3.3843 -7.5591 -7.5591Z"/></g><defs><linearGradient x2="5.0000" y1="0.0000" gradientUnits="userSpaceOnUse" spreadMethod="pad" gradientTransform="matrix(-3.7795,-0.0000,-0.0000,-3.7795,294.3055,221.8645)" id="gradient66" y2="0.0000" x1="-5.0000"><stop stop-opacity="0.1000" offset="0.0000" stop-color="rgb(0,0,0)"/><stop stop-opacity="0.1000" offset="0.5000" stop-color="rgb(255,255,255)"/><stop stop-opacity="0.1000" offset="1.0000" stop-color="rgb(0,0,0)"/></linearGradient></defs><g stroke-linejoin="miter" stroke-opacity="1.0" fill-opacity="1" stroke="rgb(0,0,0)" stroke-width="0.37795275590551186" fill="url(#gradient66)" stroke-linecap="butt" stroke-miterlimit="10.0"><path d="M 269.7953,238.8157 l 0.0000,-33.9024 c -0.0000,-4.1748 3.3843,-7.5591 7.5591 -7.5591h 33.9024 c 4.1748,-0.0000 7.5591,3.3843 7.5591 7.5591l 0.0000,33.9024 c 0.0000,4.1748 -3.3843,7.5591 -7.5591 7.5591h -33.9024 c -4.1748,-0.0000 -7.5591,-3.3843 -7.5591 -7.5591Z"/></g><g stroke-linejoin="miter" stroke-opacity="1.0" fill-opacity="0.7" stroke="rgb(0,0,0)" stroke-width="0.37795275590551186" fill="rgb(0,0,0)" stroke-linecap="butt" stroke-miterlimit="10.0"><path d="M 259.0236,321.3984 l 0.0000,-55.4457 c -0.0000,-4.1748 3.3843,-7.5591 7.5591 -7.5591h 55.4457 c 4.1748,-0.0000 7.5591,3.3843 7.5591 7.5591l 0.0000,55.4457 c 0.0000,4.1748 -3.3843,7.5591 -7.5591 7.5591h -55.4457 c -4.1748,-0.0000 -7.5591,-3.3843 -7.5591 -7.5591Z"/></g><defs><linearGradient x2="5.0000" y1="0.0000" gradientUnits="userSpaceOnUse" spreadMethod="pad" gradientTransform="matrix(-3.7795,-0.0000,-0.0000,-3.7795,294.3055,293.6756)" id="gradient70" y2="0.0000" x1="-5.0000"><stop stop-opacity="0.1000" offset="0.0000" stop-color="rgb(0,0,0)"/><stop stop-opacity="0.1000" offset="0.5000" stop-color="rgb(255,255,255)"/><stop stop-opacity="0.1000" offset="1.0000" stop-color="rgb(0,0,0)"/></linearGradient></defs><g stroke-linejoin="miter" stroke-opacity="1.0" fill-opacity="1" stroke="rgb(0,0,0)" stroke-width="0.37795275590551186" fill="url(#gradient70)" stroke-linecap="butt" stroke-miterlimit="10.0"><path d="M 269.7953,310.6267 l 0.0000,-33.9024 c -0.0000,-4.1748 3.3843,-7.5591 7.5591 -7.5591h 33.9024 c 4.1748,-0.0000 7.5591,3.3843 7.5591 7.5591l 0.0000,33.9024 c 0.0000,4.1748 -3.3843,7.5591 -7.5591 7.5591h -33.9024 c -4.1748,-0.0000 -7.5591,-3.3843 -7.5591 -7.5591Z"/></g><g stroke-linejoin="miter" stroke-opacity="1.0" fill-opacity="0.7" stroke="rgb(0,0,0)" stroke-width="0.37795275590551186" fill="rgb(0,0,0)" stroke-linecap="butt" stroke-miterlimit="10.0"><path d="M 696.2016,105.9653 l -0.0000,-55.4457 c 0.0000,-4.1748 -3.3843,-7.5591 -7.5591 -7.5591h -55.4457 c -4.1748,-0.0000 -7.5591,3.3843 -7.5591 7.5591l -0.0000,55.4457 c -0.0000,4.1748 3.3843,7.5591 7.5591 7.5591h 55.4457 c 4.1748,-0.0000 7.5591,-3.3843 7.5591 -7.5591Z"/></g><defs><linearGradient x2="5.0000" y1="0.0000" gradientUnits="userSpaceOnUse" spreadMethod="pad" gradientTransform="matrix(3.7795,-0.0000,0.0000,-3.7795,660.9197,78.2425)" id="gradient74" y2="0.0000" x1="-5.0000"><stop stop-opacity="0.1000" offset="0.0000" stop-color="rgb(0,0,0)"/><stop stop-opacity="0.1000" offset="0.5000" stop-color="rgb(255,255,255)"/><stop stop-opacity="0.1000" offset="1.0000" stop-color="rgb(0,0,0)"/></linearGradient></defs><g stroke-linejoin="miter" stroke-opacity="1.0" fill-opacity="1" stroke="rgb(0,0,0)" stroke-width="0.37795275590551186" fill="url(#gradient74)" stroke-linecap="butt" stroke-miterlimit="10.0"><path d="M 685.4299,95.1937 l -0.0000,-33.9024 c 0.0000,-4.1748 -3.3843,-7.5591 -7.5591 -7.5591h -33.9024 c -4.1748,-0.0000 -7.5591,3.3843 -7.5591 7.5591l -0.0000,33.9024 c -0.0000,4.1748 3.3843,7.5591 7.5591 7.5591h 33.9024 c 4.1748,-0.0000 7.5591,-3.3843 7.5591 -7.5591Z"/></g><g stroke-linejoin="miter" stroke-opacity="1.0" fill-opacity="0.7" stroke="rgb(0,0,0)" stroke-width="0.37795275590551186" fill="rgb(0,0,0)" stroke-linecap="butt" stroke-miterlimit="10.0"><path d="M 696.2016,177.7764 l -0.0000,-55.4457 c 0.0000,-4.1748 -3.3843,-7.5591 -7.5591 -7.5591h -55.4457 c -4.1748,-0.0000 -7.5591,3.3843 -7.5591 7.5591l -0.0000,55.4457 c -0.0000,4.1748 3.3843,7.5591 7.5591 7.5591h 55.4457 c 4.1748,-0.0000 7.5591,-3.3843 7.5591 -7.5591Z"/></g><defs><linearGradient x2="5.0000" y1="0.0000" gradientUnits="userSpaceOnUse" spreadMethod="pad" gradientTransform="matrix(3.7795,-0.0000,0.0000,-3.7795,660.9197,150.0535)" id="gradient78" y2="0.0000" x1="-5.0000"><stop stop-opacity="0.1000" offset="0.0000" stop-color="rgb(0,0,0)"/><stop stop-opacity="0.1000" offset="0.5000" stop-color="rgb(255,255,255)"/><stop stop-opacity="0.1000" offset="1.0000" stop-color="rgb(0,0,0)"/></linearGradient></defs><g stroke-linejoin="miter" stroke-opacity="1.0" fill-opacity="1" stroke="rgb(0,0,0)" stroke-width="0.37795275590551186" fill="url(#gradient78)" stroke-linecap="butt" stroke-miterlimit="10.0"><path d="M 685.4299,167.0047 l -0.0000,-33.9024 c 0.0000,-4.1748 -3.3843,-7.5591 -7.5591 -7.5591h -33.9024 c -4.1748,-0.0000 -7.5591,3.3843 -7.5591 7.5591l -0.0000,33.9024 c -0.0000,4.1748 3.3843,7.5591 7.5591 7.5591h 33.9024 c 4.1748,-0.0000 7.5591,-3.3843 7.5591 -7.5591Z"/></g><g stroke-linejoin="miter" stroke-opacity="1.0" fill-opacity="0.7" stroke="rgb(0,0,0)" stroke-width="0.37795275590551186" fill="rgb(0,0,0)" stroke-linecap="butt" stroke-miterlimit="10.0"><path d="M 696.2016,249.5874 l -0.0000,-55.4457 c 0.0000,-4.1748 -3.3843,-7.5591 -7.5591 -7.5591h -55.4457 c -4.1748,-0.0000 -7.5591,3.3843 -7.5591 7.5591l -0.0000,55.4457 c -0.0000,4.1748 3.3843,7.5591 7.5591 7.5591h 55.4457 c 4.1748,-0.0000 7.5591,-3.3843 7.5591 -7.5591Z"/></g><defs><linearGradient x2="5.0000" y1="0.0000" gradientUnits="userSpaceOnUse" spreadMethod="pad" gradientTransform="matrix(3.7795,-0.0000,0.0000,-3.7795,660.9197,221.8645)" id="gradient82" y2="0.0000" x1="-5.0000"><stop stop-opacity="0.1000" offset="0.0000" stop-color="rgb(0,0,0)"/><stop stop-opacity="0.1000" offset="0.5000" stop-color="rgb(255,255,255)"/><stop stop-opacity="0.1000" offset="1.0000" stop-color="rgb(0,0,0)"/></linearGradient></defs><g stroke-linejoin="miter" stroke-opacity="1.0" fill-opacity="1" stroke="rgb(0,0,0)" stroke-width="0.37795275590551186" fill="url(#gradient82)" stroke-linecap="butt" stroke-miterlimit="10.0"><path d="M 685.4299,238.8157 l -0.0000,-33.9024 c 0.0000,-4.1748 -3.3843,-7.5591 -7.5591 -7.5591h -33.9024 c -4.1748,-0.0000 -7.5591,3.3843 -7.5591 7.5591l -0.0000,33.9024 c -0.0000,4.1748 3.3843,7.5591 7.5591 7.5591h 33.9024 c 4.1748,-0.0000 7.5591,-3.3843 7.5591 -7.5591Z"/></g><g stroke-linejoin="miter" stroke-opacity="1.0" fill-opacity="0.7" stroke="rgb(0,0,0)" stroke-width="0.37795275590551186" fill="rgb(0,0,0)" stroke-linecap="butt" stroke-miterlimit="10.0"><path d="M 696.2016,321.3984 l -0.0000,-55.4457 c 0.0000,-4.1748 -3.3843,-7.5591 -7.5591 -7.5591h -55.4457 c -4.1748,-0.0000 -7.5591,3.3843 -7.5591 7.5591l -0.0000,55.4457 c -0.0000,4.1748 3.3843,7.5591 7.5591 7.5591h 55.4457 c 4.1748,-0.0000 7.5591,-3.3843 7.5591 -7.5591Z"/></g><defs><linearGradient x2="5.0000" y1="0.0000" gradientUnits="userSpaceOnUse" spreadMethod="pad" gradientTransform="matrix(3.7795,-0.0000,0.0000,-3.7795,660.9197,293.6756)" id="gradient86" y2="0.0000" x1="-5.0000"><stop stop-opacity="0.1000" offset="0.0000" stop-color="rgb(0,0,0)"/><stop stop-opacity="0.1000" offset="0.5000" stop-color="rgb(255,255,255)"/><stop stop-opacity="0.1000" offset="1.0000" stop-color="rgb(0,0,0)"/></linearGradient></defs><g stroke-linejoin="miter" stroke-opacity="1.0" fill-opacity="1" stroke="rgb(0,0,0)" stroke-width="0.37795275590551186" fill="url(#gradient86)" stroke-linecap="butt" stroke-miterlimit="10.0"><path d="M 685.4299,310.6267 l -0.0000,-33.9024 c 0.0000,-4.1748 -3.3843,-7.5591 -7.5591 -7.5591h -33.9024 c -4.1748,-0.0000 -7.5591,3.3843 -7.5591 7.5591l -0.0000,33.9024 c -0.0000,4.1748 3.3843,7.5591 7.5591 7.5591h 33.9024 c 4.1748,-0.0000 7.5591,-3.3843 7.5591 -7.5591Z"/></g><g stroke-linejoin="miter" stroke-opacity="1.0" fill-opacity="0.7" stroke="rgb(0,0,0)" stroke-width="0.37795275590551186" fill="rgb(0,0,0)" stroke-linecap="butt" stroke-miterlimit="10.0"><path d="M 624.3905,105.9653 l -0.0000,-55.4457 c 0.0000,-4.1748 -3.3843,-7.5591 -7.5591 -7.5591h -55.4457 c -4.1748,-0.0000 -7.5591,3.3843 -7.5591 7.5591l -0.0000,55.4457 c -0.0000,4.1748 3.3843,7.5591 7.5591 7.5591h 55.4457 c 4.1748,-0.0000 7.5591,-3.3843 7.5591 -7.5591Z"/></g><defs><linearGradient x2="5.0000" y1="0.0000" gradientUnits="userSpaceOnUse" spreadMethod="pad" gradientTransform="matrix(3.7795,-0.0000,0.0000,-3.7795,589.1086,78.2425)" id="gradient90" y2="0.0000" x1="-5.0000"><stop stop-opacity="0.1000" offset="0.0000" stop-color="rgb(0,0,0)"/><stop stop-opacity="0.1000" offset="0.5000" stop-color="rgb(255,255,255)"/><stop stop-opacity="0.1000" offset="1.0000" stop-color="rgb(0,0,0)"/></linearGradient></defs><g stroke-linejoin="miter" stroke-opacity="1.0" fill-opacity="1" stroke="rgb(0,0,0)" stroke-width="0.37795275590551186" fill="url(#gradient90)" stroke-linecap="butt" stroke-miterlimit="10.0"><path d="M 613.6189,95.1937 l -0.0000,-33.9024 c 0.0000,-4.1748 -3.3843,-7.5591 -7.5591 -7.5591h -33.9024 c -4.1748,-0.0000 -7.5591,3.3843 -7.5591 7.5591l -0.0000,33.9024 c -0.0000,4.1748 3.3843,7.5591 7.5591 7.5591h 33.9024 c 4.1748,-0.0000 7.5591,-3.3843 7.5591 -7.5591Z"/></g><g stroke-linejoin="miter" stroke-opacity="1.0" fill-opacity="0.7" stroke="rgb(0,0,0)" stroke-width="0.37795275590551186" fill="rgb(0,0,0)" stroke-linecap="butt" stroke-miterlimit="10.0"><path d="M 624.3905,177.7764 l -0.0000,-55.4457 c 0.0000,-4.1748 -3.3843,-7.5591 -7.5591 -7.5591h -55.4457 c -4.1748,-0.0000 -7.5591,3.3843 -7.5591 7.5591l -0.0000,55.4457 c -0.0000,4.1748 3.3843,7.5591 7.5591 7.5591h 55.4457 c 4.1748,-0.0000 7.5591,-3.3843 7.5591 -7.5591Z"/></g><defs><linearGradient x2="5.0000" y1="0.0000" gradientUnits="userSpaceOnUse" spreadMethod="pad" gradientTransform="matrix(3.7795,-0.0000,0.0000,-3.7795,589.1086,150.0535)" id="gradient94" y2="0.0000" x1="-5.0000"><stop stop-opacity="0.1000" offset="0.0000" stop-color="rgb(0,0,0)"/><stop stop-opacity="0.1000" offset="0.5000" stop-color="rgb(255,255,255)"/><stop stop-opacity="0.1000" offset="1.0000" stop-color="rgb(0,0,0)"/></linearGradient></defs><g stroke-linejoin="miter" stroke-opacity="1.0" fill-opacity="1" stroke="rgb(0,0,0)" stroke-width="0.37795275590551186" fill="url(#gradient94)" stroke-linecap="butt" stroke-miterlimit="10.0"><path d="M 613.6189,167.0047 l -0.0000,-33.9024 c 0.0000,-4.1748 -3.3843,-7.5591 -7.5591 -7.5591h -33.9024 c -4.1748,-0.0000 -7.5591,3.3843 -7.5591 7.5591l -0.0000,33.9024 c -0.0000,4.1748 3.3843,7.5591 7.5591 7.5591h 33.9024 c 4.1748,-0.0000 7.5591,-3.3843 7.5591 -7.5591Z"/></g><g stroke-linejoin="miter" stroke-opacity="1.0" fill-opacity="0.7" stroke="rgb(0,0,0)" stroke-width="0.37795275590551186" fill="rgb(0,0,0)" stroke-linecap="butt" stroke-miterlimit="10.0"><path d="M 624.3905,249.5874 l -0.0000,-55.4457 c 0.0000,-4.1748 -3.3843,-7.5591 -7.5591 -7.5591h -55.4457 c -4.1748,-0.0000 -7.5591,3.3843 -7.5591 7.5591l -0.0000,55.4457 c -0.0000,4.1748 3.3843,7.5591 7.5591 7.5591h 55.4457 c 4.1748,-0.0000 7.5591,-3.3843 7.5591 -7.5591Z"/></g><defs><linearGradient x2="5.0000" y1="0.0000" gradientUnits="userSpaceOnUse" spreadMethod="pad" gradientTransform="matrix(3.7795,-0.0000,0.0000,-3.7795,589.1086,221.8645)" id="gradient98" y2="0.0000" x1="-5.0000"><stop stop-opacity="0.1000" offset="0.0000" stop-color="rgb(0,0,0)"/><stop stop-opacity="0.1000" offset="0.5000" stop-color="rgb(255,255,255)"/><stop stop-opacity="0.1000" offset="1.0000" stop-color="rgb(0,0,0)"/></linearGradient></defs><g stroke-linejoin="miter" stroke-opacity="1.0" fill-opacity="1" stroke="rgb(0,0,0)" stroke-width="0.37795275590551186" fill="url(#gradient98)" stroke-linecap="butt" stroke-miterlimit="10.0"><path d="M 613.6189,238.8157 l -0.0000,-33.9024 c 0.0000,-4.1748 -3.3843,-7.5591 -7.5591 -7.5591h -33.9024 c -4.1748,-0.0000 -7.5591,3.3843 -7.5591 7.5591l -0.0000,33.9024 c -0.0000,4.1748 3.3843,7.5591 7.5591 7.5591h 33.9024 c 4.1748,-0.0000 7.5591,-3.3843 7.5591 -7.5591Z"/></g><g stroke-linejoin="miter" stroke-opacity="1.0" fill-opacity="0.7" stroke="rgb(0,0,0)" stroke-width="0.37795275590551186" fill="rgb(0,0,0)" stroke-linecap="butt" stroke-miterlimit="10.0"><path d="M 624.3905,321.3984 l -0.0000,-55.4457 c 0.0000,-4.1748 -3.3843,-7.5591 -7.5591 -7.5591h -55.4457 c -4.1748,-0.0000 -7.5591,3.3843 -7.5591 7.5591l -0.0000,55.4457 c -0.0000,4.1748 3.3843,7.5591 7.5591 7.5591h 55.4457 c 4.1748,-0.0000 7.5591,-3.3843 7.5591 -7.5591Z"/></g><defs><linearGradient x2="5.0000" y1="0.0000" gradientUnits="userSpaceOnUse" spreadMethod="pad" gradientTransform="matrix(3.7795,-0.0000,0.0000,-3.7795,589.1086,293.6756)" id="gradient102" y2="0.0000" x1="-5.0000"><stop stop-opacity="0.1000" offset="0.0000" stop-color="rgb(0,0,0)"/><stop stop-opacity="0.1000" offset="0.5000" stop-color="rgb(255,255,255)"/><stop stop-opacity="0.1000" offset="1.0000" stop-color="rgb(0,0,0)"/></linearGradient></defs><g stroke-linejoin="miter" stroke-opacity="1.0" fill-opacity="1" stroke="rgb(0,0,0)" stroke-width="0.37795275590551186" fill="url(#gradient102)" stroke-linecap="butt" stroke-miterlimit="10.0"><path d="M 613.6189,310.6267 l -0.0000,-33.9024 c 0.0000,-4.1748 -3.3843,-7.5591 -7.5591 -7.5591h -33.9024 c -4.1748,-0.0000 -7.5591,3.3843 -7.5591 7.5591l -0.0000,33.9024 c -0.0000,4.1748 3.3843,7.5591 7.5591 7.5591h 33.9024 c 4.1748,-0.0000 7.5591,-3.3843 7.5591 -7.5591Z"/></g><g stroke-linejoin="miter" stroke-opacity="1.0" fill-opacity="0.7" stroke="rgb(0,0,0)" stroke-width="0.37795275590551186" fill="rgb(0,0,0)" stroke-linecap="butt" stroke-miterlimit="10.0"><path d="M 552.5795,105.9653 l -0.0000,-55.4457 c 0.0000,-4.1748 -3.3843,-7.5591 -7.5591 -7.5591h -55.4457 c -4.1748,-0.0000 -7.5591,3.3843 -7.5591 7.5591l -0.0000,55.4457 c -0.0000,4.1748 3.3843,7.5591 7.5591 7.5591h 55.4457 c 4.1748,-0.0000 7.5591,-3.3843 7.5591 -7.5591Z"/></g><defs><linearGradient x2="5.0000" y1="0.0000" gradientUnits="userSpaceOnUse" spreadMethod="pad" gradientTransform="matrix(3.7795,-0.0000,0.0000,-3.7795,517.2976,78.2425)" id="gradient106" y2="0.0000" x1="-5.0000"><stop stop-opacity="0.1000" offset="0.0000" stop-color="rgb(0,0,0)"/><stop stop-opacity="0.1000" offset="0.5000" stop-color="rgb(255,255,255)"/><stop stop-opacity="0.1000" offset="1.0000" stop-color="rgb(0,0,0)"/></linearGradient></defs><g stroke-linejoin="miter" stroke-opacity="1.0" fill-opacity="1" stroke="rgb(0,0,0)" stroke-width="0.37795275590551186" fill="url(#gradient106)" stroke-linecap="butt" stroke-miterlimit="10.0"><path d="M 541.8079,95.1937 l -0.0000,-33.9024 c 0.0000,-4.1748 -3.3843,-7.5591 -7.5591 -7.5591h -33.9024 c -4.1748,-0.0000 -7.5591,3.3843 -7.5591 7.5591l -0.0000,33.9024 c -0.0000,4.1748 3.3843,7.5591 7.5591 7.5591h 33.9024 c 4.1748,-0.0000 7.5591,-3.3843 7.5591 -7.5591Z"/></g><g stroke-linejoin="miter" stroke-opacity="1.0" fill-opacity="0.7" stroke="rgb(0,0,0)" stroke-width="0.37795275590551186" fill="rgb(0,0,0)" stroke-linecap="butt" stroke-miterlimit="10.0"><path d="M 552.5795,177.7764 l -0.0000,-55.4457 c 0.0000,-4.1748 -3.3843,-7.5591 -7.5591 -7.5591h -55.4457 c -4.1748,-0.0000 -7.5591,3.3843 -7.5591 7.5591l -0.0000,55.4457 c -0.0000,4.1748 3.3843,7.5591 7.5591 7.5591h 55.4457 c 4.1748,-0.0000 7.5591,-3.3843 7.5591 -7.5591Z"/></g><defs><linearGradient x2="5.0000" y1="0.0000" gradientUnits="userSpaceOnUse" spreadMethod="pad" gradientTransform="matrix(3.7795,-0.0000,0.0000,-3.7795,517.2976,150.0535)" id="gradient110" y2="0.0000" x1="-5.0000"><stop stop-opacity="0.1000" offset="0.0000" stop-color="rgb(0,0,0)"/><stop stop-opacity="0.1000" offset="0.5000" stop-color="rgb(255,255,255)"/><stop stop-opacity="0.1000" offset="1.0000" stop-color="rgb(0,0,0)"/></linearGradient></defs><g stroke-linejoin="miter" stroke-opacity="1.0" fill-opacity="1" stroke="rgb(0,0,0)" stroke-width="0.37795275590551186" fill="url(#gradient110)" stroke-linecap="butt" stroke-miterlimit="10.0"><path d="M 541.8079,167.0047 l -0.0000,-33.9024 c 0.0000,-4.1748 -3.3843,-7.5591 -7.5591 -7.5591h -33.9024 c -4.1748,-0.0000 -7.5591,3.3843 -7.5591 7.5591l -0.0000,33.9024 c -0.0000,4.1748 3.3843,7.5591 7.5591 7.5591h 33.9024 c 4.1748,-0.0000 7.5591,-3.3843 7.5591 -7.5591Z"/></g><g stroke-linejoin="miter" stroke-opacity="1.0" fill-opacity="0.7" stroke="rgb(0,0,0)" stroke-width="0.37795275590551186" fill="rgb(0,0,0)" stroke-linecap="butt" stroke-miterlimit="10.0"><path d="M 552.5795,249.5874 l -0.0000,-55.4457 c 0.0000,-4.1748 -3.3843,-7.5591 -7.5591 -7.5591h -55.4457 c -4.1748,-0.0000 -7.5591,3.3843 -7.5591 7.5591l -0.0000,55.4457 c -0.0000,4.1748 3.3843,7.5591 7.5591 7.5591h 55.4457 c 4.1748,-0.0000 7.5591,-3.3843 7.5591 -7.5591Z"/></g><defs><linearGradient x2="5.0000" y1="0.0000" gradientUnits="userSpaceOnUse" spreadMethod="pad" gradientTransform="matrix(3.7795,-0.0000,0.0000,-3.7795,517.2976,221.8645)" id="gradient114" y2="0.0000" x1="-5.0000"><stop stop-opacity="0.1000" offset="0.0000" stop-color="rgb(0,0,0)"/><stop stop-opacity="0.1000" offset="0.5000" stop-color="rgb(255,255,255)"/><stop stop-opacity="0.1000" offset="1.0000" stop-color="rgb(0,0,0)"/></linearGradient></defs><g stroke-linejoin="miter" stroke-opacity="1.0" fill-opacity="1" stroke="rgb(0,0,0)" stroke-width="0.37795275590551186" fill="url(#gradient114)" stroke-linecap="butt" stroke-miterlimit="10.0"><path d="M 541.8079,238.8157 l -0.0000,-33.9024 c 0.0000,-4.1748 -3.3843,-7.5591 -7.5591 -7.5591h -33.9024 c -4.1748,-0.0000 -7.5591,3.3843 -7.5591 7.5591l -0.0000,33.9024 c -0.0000,4.1748 3.3843,7.5591 7.5591 7.5591h 33.9024 c 4.1748,-0.0000 7.5591,-3.3843 7.5591 -7.5591Z"/></g><g stroke-linejoin="miter" stroke-opacity="1.0" fill-opacity="0.7" stroke="rgb(0,0,0)" stroke-width="0.37795275590551186" fill="rgb(0,0,0)" stroke-linecap="butt" stroke-miterlimit="10.0"><path d="M 552.5795,321.3984 l -0.0000,-55.4457 c 0.0000,-4.1748 -3.3843,-7.5591 -7.5591 -7.5591h -55.4457 c -4.1748,-0.0000 -7.5591,3.3843 -7.5591 7.5591l -0.0000,55.4457 c -0.0000,4.1748 3.3843,7.5591 7.5591 7.5591h 55.4457 c 4.1748,-0.0000 7.5591,-3.3843 7.5591 -7.5591Z"/></g><defs><linearGradient x2="5.0000" y1="0.0000" gradientUnits="userSpaceOnUse" spreadMethod="pad" gradientTransform="matrix(3.7795,-0.0000,0.0000,-3.7795,517.2976,293.6756)" id="gradient118" y2="0.0000" x1="-5.0000"><stop stop-opacity="0.1000" offset="0.0000" stop-color="rgb(0,0,0)"/><stop stop-opacity="0.1000" offset="0.5000" stop-color="rgb(255,255,255)"/><stop stop-opacity="0.1000" offset="1.0000" stop-color="rgb(0,0,0)"/></linearGradient></defs><g stroke-linejoin="miter" stroke-opacity="1.0" fill-opacity="1" stroke="rgb(0,0,0)" stroke-width="0.37795275590551186" fill="url(#gradient118)" stroke-linecap="butt" stroke-miterlimit="10.0"><path d="M 541.8079,310.6267 l -0.0000,-33.9024 c 0.0000,-4.1748 -3.3843,-7.5591 -7.5591 -7.5591h -33.9024 c -4.1748,-0.0000 -7.5591,3.3843 -7.5591 7.5591l -0.0000,33.9024 c -0.0000,4.1748 3.3843,7.5591 7.5591 7.5591h 33.9024 c 4.1748,-0.0000 7.5591,-3.3843 7.5591 -7.5591Z"/></g><g stroke-linejoin="miter" stroke-opacity="1.0" fill-opacity="0.7" stroke="rgb(0,0,0)" stroke-width="0.37795275590551186" fill="rgb(0,0,0)" stroke-linecap="butt" stroke-miterlimit="10.0"><path d="M 480.7685,105.9653 l -0.0000,-55.4457 c 0.0000,-4.1748 -3.3843,-7.5591 -7.5591 -7.5591h -55.4457 c -4.1748,-0.0000 -7.5591,3.3843 -7.5591 7.5591l -0.0000,55.4457 c -0.0000,4.1748 3.3843,7.5591 7.5591 7.5591h 55.4457 c 4.1748,-0.0000 7.5591,-3.3843 7.5591 -7.5591Z"/></g><defs><linearGradient x2="5.0000" y1="0.0000" gradientUnits="userSpaceOnUse" spreadMethod="pad" gradientTransform="matrix(3.7795,-0.0000,0.0000,-3.7795,445.4866,78.2425)" id="gradient122" y2="0.0000" x1="-5.0000"><stop stop-opacity="0.1000" offset="0.0000" stop-color="rgb(0,0,0)"/><stop stop-opacity="0.1000" offset="0.5000" stop-color="rgb(255,255,255)"/><stop stop-opacity="0.1000" offset="1.0000" stop-color="rgb(0,0,0)"/></linearGradient></defs><g stroke-linejoin="miter" stroke-opacity="1.0" fill-opacity="1" stroke="rgb(0,0,0)" stroke-width="0.37795275590551186" fill="url(#gradient122)" stroke-linecap="butt" stroke-miterlimit="10.0"><path d="M 469.9968,95.1937 l -0.0000,-33.9024 c 0.0000,-4.1748 -3.3843,-7.5591 -7.5591 -7.5591h -33.9024 c -4.1748,-0.0000 -7.5591,3.3843 -7.5591 7.5591l -0.0000,33.9024 c -0.0000,4.1748 3.3843,7.5591 7.5591 7.5591h 33.9024 c 4.1748,-0.0000 7.5591,-3.3843 7.5591 -7.5591Z"/></g><g stroke-linejoin="miter" stroke-opacity="1.0" fill-opacity="0.7" stroke="rgb(0,0,0)" stroke-width="0.37795275590551186" fill="rgb(0,0,0)" stroke-linecap="butt" stroke-miterlimit="10.0"><path d="M 480.7685,177.7764 l -0.0000,-55.4457 c 0.0000,-4.1748 -3.3843,-7.5591 -7.5591 -7.5591h -55.4457 c -4.1748,-0.0000 -7.5591,3.3843 -7.5591 7.5591l -0.0000,55.4457 c -0.0000,4.1748 3.3843,7.5591 7.5591 7.5591h 55.4457 c 4.1748,-0.0000 7.5591,-3.3843 7.5591 -7.5591Z"/></g><defs><linearGradient x2="5.0000" y1="0.0000" gradientUnits="userSpaceOnUse" spreadMethod="pad" gradientTransform="matrix(3.7795,-0.0000,0.0000,-3.7795,445.4866,150.0535)" id="gradient126" y2="0.0000" x1="-5.0000"><stop stop-opacity="0.1000" offset="0.0000" stop-color="rgb(0,0,0)"/><stop stop-opacity="0.1000" offset="0.5000" stop-color="rgb(255,255,255)"/><stop stop-opacity="0.1000" offset="1.0000" stop-color="rgb(0,0,0)"/></linearGradient></defs><g stroke-linejoin="miter" stroke-opacity="1.0" fill-opacity="1" stroke="rgb(0,0,0)" stroke-width="0.37795275590551186" fill="url(#gradient126)" stroke-linecap="butt" stroke-miterlimit="10.0"><path d="M 469.9968,167.0047 l -0.0000,-33.9024 c 0.0000,-4.1748 -3.3843,-7.5591 -7.5591 -7.5591h -33.9024 c -4.1748,-0.0000 -7.5591,3.3843 -7.5591 7.5591l -0.0000,33.9024 c -0.0000,4.1748 3.3843,7.5591 7.5591 7.5591h 33.9024 c 4.1748,-0.0000 7.5591,-3.3843 7.5591 -7.5591Z"/></g><g stroke-linejoin="miter" stroke-opacity="1.0" fill-opacity="0.7" stroke="rgb(0,0,0)" stroke-width="0.37795275590551186" fill="rgb(0,0,0)" stroke-linecap="butt" stroke-miterlimit="10.0"><path d="M 480.7685,249.5874 l -0.0000,-55.4457 c 0.0000,-4.1748 -3.3843,-7.5591 -7.5591 -7.5591h -55.4457 c -4.1748,-0.0000 -7.5591,3.3843 -7.5591 7.5591l -0.0000,55.4457 c -0.0000,4.1748 3.3843,7.5591 7.5591 7.5591h 55.4457 c 4.1748,-0.0000 7.5591,-3.3843 7.5591 -7.5591Z"/></g><defs><linearGradient x2="5.0000" y1="0.0000" gradientUnits="userSpaceOnUse" spreadMethod="pad" gradientTransform="matrix(3.7795,-0.0000,0.0000,-3.7795,445.4866,221.8645)" id="gradient130" y2="0.0000" x1="-5.0000"><stop stop-opacity="0.1000" offset="0.0000" stop-color="rgb(0,0,0)"/><stop stop-opacity="0.1000" offset="0.5000" stop-color="rgb(255,255,255)"/><stop stop-opacity="0.1000" offset="1.0000" stop-color="rgb(0,0,0)"/></linearGradient></defs><g stroke-linejoin="miter" stroke-opacity="1.0" fill-opacity="1" stroke="rgb(0,0,0)" stroke-width="0.37795275590551186" fill="url(#gradient130)" stroke-linecap="butt" stroke-miterlimit="10.0"><path d="M 469.9968,238.8157 l -0.0000,-33.9024 c 0.0000,-4.1748 -3.3843,-7.5591 -7.5591 -7.5591h -33.9024 c -4.1748,-0.0000 -7.5591,3.3843 -7.5591 7.5591l -0.0000,33.9024 c -0.0000,4.1748 3.3843,7.5591 7.5591 7.5591h 33.9024 c 4.1748,-0.0000 7.5591,-3.3843 7.5591 -7.5591Z"/></g><g stroke-linejoin="miter" stroke-opacity="1.0" fill-opacity="0.7" stroke="rgb(0,0,0)" stroke-width="0.37795275590551186" fill="rgb(0,0,0)" stroke-linecap="butt" stroke-miterlimit="10.0"><path d="M 480.7685,321.3984 l -0.0000,-55.4457 c 0.0000,-4.1748 -3.3843,-7.5591 -7.5591 -7.5591h -55.4457 c -4.1748,-0.0000 -7.5591,3.3843 -7.5591 7.5591l -0.0000,55.4457 c -0.0000,4.1748 3.3843,7.5591 7.5591 7.5591h 55.4457 c 4.1748,-0.0000 7.5591,-3.3843 7.5591 -7.5591Z"/></g><defs><linearGradient x2="5.0000" y1="0.0000" gradientUnits="userSpaceOnUse" spreadMethod="pad" gradientTransform="matrix(3.7795,-0.0000,0.0000,-3.7795,445.4866,293.6756)" id="gradient134" y2="0.0000" x1="-5.0000"><stop stop-opacity="0.1000" offset="0.0000" stop-color="rgb(0,0,0)"/><stop stop-opacity="0.1000" offset="0.5000" stop-color="rgb(255,255,255)"/><stop stop-opacity="0.1000" offset="1.0000" stop-color="rgb(0,0,0)"/></linearGradient></defs><g stroke-linejoin="miter" stroke-opacity="1.0" fill-opacity="1" stroke="rgb(0,0,0)" stroke-width="0.37795275590551186" fill="url(#gradient134)" stroke-linecap="butt" stroke-miterlimit="10.0"><path d="M 469.9968,310.6267 l -0.0000,-33.9024 c 0.0000,-4.1748 -3.3843,-7.5591 -7.5591 -7.5591h -33.9024 c -4.1748,-0.0000 -7.5591,3.3843 -7.5591 7.5591l -0.0000,33.9024 c -0.0000,4.1748 3.3843,7.5591 7.5591 7.5591h 33.9024 c 4.1748,-0.0000 7.5591,-3.3843 7.5591 -7.5591Z"/></g><g stroke-linejoin="miter" stroke-opacity="1.0" fill-opacity="0.5" stroke="rgb(0,0,0)" stroke-width="0.37795275590551186" fill="rgb(0,0,0)" stroke-linecap="butt" stroke-miterlimit="10.0"><path d="M 288.3047,34.5197 l -6.0008,-10.3937 l 6.0008,-10.3937 l 12.0016,-0.0000 l 6.0008,10.3937 l -6.0008,10.3937 Z"/></g><g stroke-linejoin="miter" stroke-opacity="1.0" fill-opacity="0.5" stroke="rgb(0,0,0)" stroke-width="0.37795275590551186" fill="rgb(0,0,0)" stroke-linecap="butt" stroke-miterlimit="10.0"><path d="M 18.1252,34.5197 l -6.0008,-10.3937 l 6.0008,-10.3937 l 12.0016,-0.0000 l 6.0008,10.3937 l -6.0008,10.3937 Z"/></g><g stroke-linejoin="miter" stroke-opacity="1.0" fill-opacity="0.5" stroke="rgb(0,0,0)" stroke-width="0.37795275590551186" fill="rgb(0,0,0)" stroke-linecap="butt" stroke-miterlimit="10.0"><path d="M 18.1252,336.7685 l -6.0008,-10.3937 l 6.0008,-10.3937 l 12.0016,-0.0000 l 6.0008,10.3937 l -6.0008,10.3937 Z"/></g><g stroke-linejoin="miter" stroke-opacity="1.0" fill-opacity="0.5" stroke="rgb(0,0,0)" stroke-width="0.37795275590551186" fill="rgb(0,0,0)" stroke-linecap="butt" stroke-miterlimit="10.0"><path d="M 288.3047,361.9653 l -6.0008,-10.3937 l 6.0008,-10.3937 l 12.0016,-0.0000 l 6.0008,10.3937 l -6.0008,10.3937 Z"/></g><g stroke-linejoin="miter" stroke-opacity="1.0" fill-opacity="0.5" stroke="rgb(0,0,0)" stroke-width="0.37795275590551186" fill="rgb(0,0,0)" stroke-linecap="butt" stroke-miterlimit="10.0"><path d="M 451.4874,34.5197 l 6.0008,-10.3937 l -6.0008,-10.3937 l -12.0016,-0.0000 l -6.0008,10.3937 l 6.0008,10.3937 Z"/></g><g stroke-linejoin="miter" stroke-opacity="1.0" fill-opacity="0.5" stroke="rgb(0,0,0)" stroke-width="0.37795275590551186" fill="rgb(0,0,0)" stroke-linecap="butt" stroke-miterlimit="10.0"><path d="M 721.6669,34.5197 l 6.0008,-10.3937 l -6.0008,-10.3937 l -12.0016,-0.0000 l -6.0008,10.3937 l 6.0008,10.3937 Z"/></g><g stroke-linejoin="miter" stroke-opacity="1.0" fill-opacity="0.5" stroke="rgb(0,0,0)" stroke-width="0.37795275590551186" fill="rgb(0,0,0)" stroke-linecap="butt" stroke-miterlimit="10.0"><path d="M 721.6669,336.7685 l 6.0008,-10.3937 l -6.0008,-10.3937 l -12.0016,-0.0000 l -6.0008,10.3937 l 6.0008,10.3937 Z"/></g><g stroke-linejoin="miter" stroke-opacity="1.0" fill-opacity="0.5" stroke="rgb(0,0,0)" stroke-width="0.37795275590551186" fill="rgb(0,0,0)" stroke-linecap="butt" stroke-miterlimit="10.0"><path d="M 451.4874,361.9653 l 6.0008,-10.3937 l -6.0008,-10.3937 l -12.0016,-0.0000 l -6.0008,10.3937 l 6.0008,10.3937 Z"/></g></svg>