<?xml version="1.0" encoding="UTF-8"?>
<!DOCTYPE svg PUBLIC "-//W3C//DTD SVG 1.1//EN"
    "http://www.w3.org/Graphics/SVG/1.1/DTD/svg11.dtd"><svg xmlns="http://www.w3.org/2000/svg" height="445.6189" stroke-opacity="1" viewBox="0 0 606 446" font-size="1" width="605.6756" xmlns:xlink="http://www.w3.org/1999/xlink" stroke="rgb(0,0,0)" version="1.1"><defs></defs><defs><linearGradient x2="39.5379" y1="0.0000" gradientUnits="userSpaceOnUse" spreadMethod="pad" gradientTransform="matrix(3.7795,-0.0000,0.0000,-3.7795,20.3464,331.4709)" id="gradient0" y2="0.0000" x1="-39.5379"><stop stop-opacity="1.0000" offset="0.0000" stop-color="rgb(128,128,128)"/><stop stop-opacity="1.0000" offset="0.5000" stop-color="rgb(255,255,255)"/><stop stop-opacity="1.0000" offset="1.0000" stop-color="rgb(128,128,128)"/></linearGradient></defs><g stroke-linejoin="miter" stroke-opacity="1.0" fill-opacity="1" stroke="rgb(0,0,0)" stroke-width="0.37795275590551186" fill="url(#gradient0)" stroke-linecap="butt" stroke-miterlimit="10.0"><path d="M 3.9685,20.3464 c 0.0000,-9.0453 7.3326,-16.3779 16.3779 -16.3779c 188.3275,-0.0000 376.6551,-0.0000 564.9827 -0.0000c 9.0453,-0.0000 16.3779,7.3326 16.3779 16.3779c 0.0000,115.8677 0.0000,231.7354 0.0000 347.6032c 0.0000,8.3082 -6.2208,15.3002 -14.4726 16.2668c -163.1307,19.1076 -326.2614,38.2153 -489.3921 57.3229c -0.6324,0.0741 -1.2686,0.1112 -1.9053 0.1112c -25.1969,-0.0000 -50.3937,-0.0000 -75.5906 -0.0000c -9.0453,-0.0000 -16.3779,-7.3326 -16.3779 -16.3779c 0.0000,-134.9753 0.0000,-269.9506 0.0000 -404.9260ZM 90.2677,24.1260 c 0.0000,3.1311 2.5382,5.6693 5.6693 5.6693c 3.1311,-0.0000 5.6693,-2.5382 5.6693 -5.6693c 0.0000,-3.1311 -2.5382,-5.6693 -5.6693 -5.6693c -3.1311,-0.0000 -5.6693,2.5382 -5.6693 5.6693ZM 90.2677,421.4929 c 0.0000,3.1311 2.5382,5.6693 5.6693 5.6693c 3.1311,-0.0000 5.6693,-2.5382 5.6693 -5.6693c 0.0000,-3.1310 -2.5382,-5.6693 -5.6693 -5.6693c -3.1311,-0.0000 -5.6693,2.5382 -5.6693 5.6693ZM 575.8803,24.1260 c 0.0000,3.1311 2.5382,5.6693 5.6693 5.6693c 3.1310,-0.0000 5.6693,-2.5382 5.6693 -5.6693c 0.0000,-3.1311 -2.5382,-5.6693 -5.6693 -5.6693c -3.1311,-0.0000 -5.6693,2.5382 -5.6693 5.6693ZM 575.8803,364.1701 c 0.0000,3.1311 2.5382,5.6693 5.6693 5.6693c 3.1310,-0.0000 5.6693,-2.5382 5.6693 -5.6693c 0.0000,-3.1311 -2.5382,-5.6693 -5.6693 -5.6693c -3.1311,-0.0000 -5.6693,2.5382 -5.6693 5.6693Z"/></g><g stroke-linejoin="miter" stroke-opacity="1.0" fill-opacity="0.5" stroke="rgb(0,0,0)" stroke-width="0.37795275590551186" fill="rgb(255,255,0)" stroke-linecap="butt" stroke-miterlimit="10.0"><path d="M 3.9685,20.3464 c 0.0000,-9.0453 7.3326,-16.3779 16.3779 -16.3779c 188.3275,-0.0000 376.6551,-0.0000 564.9827 -0.0000c 9.0453,-0.0000 16.3779,7.3326 16.3779 16.3779c 0.0000,115.8677 0.0000,231.7354 0.0000 347.6032c 0.0000,8.3082 -6.2208,15.3002 -14.4726 16.2668c -163.1307,19.1076 -326.2614,38.2153 -489.3921 57.3229c -0.6324,0.0741 -1.2686,0.1112 -1.9053 0.1112c -25.1969,-0.0000 -50.3937,-0.0000 -75.5906 -0.0000c -9.0453,-0.0000 -16.3779,-7.3326 -16.3779 -16.3779c 0.0000,-134.9753 0.0000,-269.9506 0.0000 -404.9260ZM 27.8883,41.3265 c 0.0000,120.9887 0.0000,241.9773 0.0000 362.9660c 0.0000,8.1080 6.7763,14.6808 15.1353 14.6808c 12.2427,-0.0000 24.4854,-0.0000 36.7281 -0.0000c 1.2120,-7.8490 7.9969,-13.8583 16.1853 -13.8583c 8.1884,-0.0000 14.9733,6.0093 16.1853 13.8583c 0.2521,-0.0000 0.5042,-0.0000 0.7563 -0.0000c 0.5884,-0.0000 1.1764,-0.0333 1.7608 -0.0997c 150.3005,-17.0762 300.6010,-34.1525 450.9016 -51.2287c -0.2420,-1.1199 -0.3694,-2.2825 -0.3694 -3.4748c 0.0000,-8.6156 6.6525,-15.6773 15.1010 -16.3289c 0.0000,-102.1716 0.0000,-204.3432 0.0000 -306.5147c 0.0000,-0.2933 -0.0089,-0.5846 -0.0263 -0.8736c -7.5956,-0.5980 -13.7341,-6.3778 -14.8818 -13.8055c -0.0756,-0.0011 -0.1513,-0.0016 -0.2271 -0.0016c -151.0050,-0.0000 -302.0100,-0.0000 -453.0150 -0.0000c -1.2120,7.8490 -7.9969,13.8583 -16.1853 13.8583c -8.1885,-0.0000 -14.9733,-6.0093 -16.1853 -13.8583c -12.2427,-0.0000 -24.4854,-0.0000 -36.7281 -0.0000c -8.3590,-0.0000 -15.1353,6.5728 -15.1353 14.6808ZM 90.2677,24.1260 c 0.0000,3.1311 2.5382,5.6693 5.6693 5.6693c 3.1311,-0.0000 5.6693,-2.5382 5.6693 -5.6693c 0.0000,-3.1311 -2.5382,-5.6693 -5.6693 -5.6693c -3.1311,-0.0000 -5.6693,2.5382 -5.6693 5.6693ZM 90.2677,421.4929 c 0.0000,3.1311 2.5382,5.6693 5.6693 5.6693c 3.1311,-0.0000 5.6693,-2.5382 5.6693 -5.6693c 0.0000,-3.1310 -2.5382,-5.6693 -5.6693 -5.6693c -3.1311,-0.0000 -5.6693,2.5382 -5.6693 5.6693ZM 575.8803,24.1260 c 0.0000,3.1311 2.5382,5.6693 5.6693 5.6693c 3.1310,-0.0000 5.6693,-2.5382 5.6693 -5.6693c 0.0000,-3.1311 -2.5382,-5.6693 -5.6693 -5.6693c -3.1311,-0.0000 -5.6693,2.5382 -5.6693 5.6693ZM 575.8803,364.1701 c 0.0000,3.1311 2.5382,5.6693 5.6693 5.6693c 3.1310,-0.0000 5.6693,-2.5382 5.6693 -5.6693c 0.0000,-3.1311 -2.5382,-5.6693 -5.6693 -5.6693c -3.1311,-0.0000 -5.6693,2.5382 -5.6693 5.6693Z"/></g><g stroke-linejoin="miter" stroke-opacity="1.0" fill-opacity="0.5" stroke="rgb(0,0,0)" stroke-width="0.37795275590551186" fill="rgb(0,0,0)" stroke-linecap="butt" stroke-miterlimit="10.0"><path d="M 3.9685,20.3464 c 0.0000,-9.0453 7.3326,-16.3779 16.3779 -16.3779c 188.3275,-0.0000 376.6551,-0.0000 564.9827 -0.0000c 9.0453,-0.0000 16.3779,7.3326 16.3779 16.3779c 0.0000,115.8677 0.0000,231.7354 0.0000 347.6032c 0.0000,8.3082 -6.2208,15.3002 -14.4726 16.2668c -163.1307,19.1076 -326.2614,38.2153 -489.3921 57.3229c -0.6324,0.0741 -1.2686,0.1112 -1.9053 0.1112c -25.1969,-0.0000 -50.3937,-0.0000 -75.5906 -0.0000c -9.0453,-0.0000 -16.3779,-7.3326 -16.3779 -16.3779c 0.0000,-134.9753 0.0000,-269.9506 0.0000 -404.9260ZM 66.4650,272.8710 c 0.0000,4.4096 0.0000,8.8192 0.0000 13.2287c 1.0240,-0.0000 2.0480,-0.0000 3.0720 -0.0000c 0.0000,6.3105 0.0000,12.6209 0.0000 18.9313c -1.0240,-0.0000 -2.0480,-0.0000 -3.0720 -0.0000c 0.0000,4.4096 0.0000,8.8192 0.0000 13.2287c 1.0240,-0.0000 2.0480,-0.0000 3.0720 -0.0000c 0.0000,1.2352 0.0000,2.4704 0.0000 3.7057c 17.6000,-0.0000 35.2000,-0.0000 52.8000 -0.0000c 0.0000,-1.2352 0.0000,-2.4704 0.0000 -3.7057c 1.0240,-0.0000 2.0480,-0.0000 3.0720 -0.0000c 0.0000,-4.4096 0.0000,-8.8192 0.0000 -13.2287c -1.0240,-0.0000 -2.0480,-0.0000 -3.0720 -0.0000c 0.0000,-6.3104 0.0000,-12.6208 0.0000 -18.9313c 1.0240,-0.0000 2.0480,-0.0000 3.0720 -0.0000c 0.0000,-4.4096 0.0000,-8.8192 0.0000 -13.2287c -1.0240,-0.0000 -2.0480,-0.0000 -3.0720 -0.0000c 0.0000,-1.2352 0.0000,-2.4704 0.0000 -3.7056c -17.6000,-0.0000 -35.2000,-0.0000 -52.8000 -0.0000c 0.0000,1.2352 0.0000,2.4704 0.0000 3.7056c -1.0240,-0.0000 -2.0480,-0.0000 -3.0720 0.0000ZM 66.4650,344.6820 c 0.0000,4.4096 0.0000,8.8192 0.0000 13.2287c 1.0240,-0.0000 2.0480,-0.0000 3.0720 -0.0000c 0.0000,6.3104 0.0000,12.6208 0.0000 18.9313c -1.0240,-0.0000 -2.0480,-0.0000 -3.0720 -0.0000c 0.0000,4.4096 0.0000,8.8192 0.0000 13.2287c 1.0240,-0.0000 2.0480,-0.0000 3.0720 -0.0000c 0.0000,1.2352 0.0000,2.4704 0.0000 3.7056c 17.6000,-0.0000 35.2000,-0.0000 52.8000 -0.0000c 0.0000,-1.2352 0.0000,-2.4704 0.0000 -3.7056c 1.0240,-0.0000 2.0480,-0.0000 3.0720 -0.0000c 0.0000,-4.4096 0.0000,-8.8192 0.0000 -13.2287c -1.0240,-0.0000 -2.0480,-0.0000 -3.0720 -0.0000c 0.0000,-6.3105 0.0000,-12.6209 0.0000 -18.9313c 1.0240,-0.0000 2.0480,-0.0000 3.0720 -0.0000c 0.0000,-4.4096 0.0000,-8.8192 0.0000 -13.2287c -1.0240,-0.0000 -2.0480,-0.0000 -3.0720 -0.0000c 0.0000,-1.2352 0.0000,-2.4704 0.0000 -3.7057c -17.6000,-0.0000 -35.2000,-0.0000 -52.8000 -0.0000c 0.0000,1.2352 0.0000,2.4704 0.0000 3.7057c -1.0240,-0.0000 -2.0480,-0.0000 -3.0720 -0.0000ZM 90.2677,24.1260 c 0.0000,3.1311 2.5382,5.6693 5.6693 5.6693c 3.1311,-0.0000 5.6693,-2.5382 5.6693 -5.6693c 0.0000,-3.1311 -2.5382,-5.6693 -5.6693 -5.6693c -3.1311,-0.0000 -5.6693,2.5382 -5.6693 5.6693ZM 90.2677,421.4929 c 0.0000,3.1311 2.5382,5.6693 5.6693 5.6693c 3.1311,-0.0000 5.6693,-2.5382 5.6693 -5.6693c 0.0000,-3.1310 -2.5382,-5.6693 -5.6693 -5.6693c -3.1311,-0.0000 -5.6693,2.5382 -5.6693 5.6693ZM 138.2760,93.3435 c 0.0000,4.4096 0.0000,8.8192 0.0000 13.2287c 1.0240,-0.0000 2.0480,-0.0000 3.0720 -0.0000c 0.0000,6.3104 0.0000,12.6209 0.0000 18.9313c -1.0240,-0.0000 -2.0479,-0.0000 -3.0720 -0.0000c 0.0000,4.4096 0.0000,8.8192 0.0000 13.2287c 1.0240,-0.0000 2.0480,-0.0000 3.0720 -0.0000c 0.0000,1.2352 0.0000,2.4704 0.0000 3.7056c 17.6000,-0.0000 35.2000,-0.0000 52.8000 -0.0000c 0.0000,-1.2352 0.0000,-2.4704 0.0000 -3.7056c 1.0240,-0.0000 2.0480,-0.0000 3.0720 -0.0000c 0.0000,-4.4096 0.0000,-8.8192 0.0000 -13.2287c -1.0240,-0.0000 -2.0480,-0.0000 -3.0720 -0.0000c 0.0000,-6.3104 0.0000,-12.6209 0.0000 -18.9313c 1.0240,-0.0000 2.0480,-0.0000 3.0720 -0.0000c 0.0000,-4.4096 0.0000,-8.8192 0.0000 -13.2287c -1.0240,-0.0000 -2.0480,-0.0000 -3.0720 -0.0000c 0.0000,-1.2352 0.0000,-2.4704 0.0000 -3.7057c -17.6000,-0.0000 -35.2000,-0.0000 -52.8000 -0.0000c 0.0000,1.2352 0.0000,2.4704 0.0000 3.7057c -1.0240,-0.0000 -2.0479,-0.0000 -3.0720 -0.0000ZM 138.2760,165.1545 c 0.0000,4.4095 0.0000,8.8191 0.0000 13.2287c 1.0240,-0.0000 2.0480,-0.0000 3.0720 -0.0000c 0.0000,6.3105 0.0000,12.6209 0.0000 18.9313c -1.0240,-0.0000 -2.0479,-0.0000 -3.0720 -0.0000c 0.0000,4.4095 0.0000,8.8191 0.0000 13.2287c 1.0240,-0.0000 2.0480,-0.0000 3.0720 -0.0000c 0.0000,1.2352 0.0000,2.4704 0.0000 3.7057c 17.6000,-0.0000 35.2000,-0.0000 52.8000 -0.0000c 0.0000,-1.2352 0.0000,-2.4704 0.0000 -3.7057c 1.0240,-0.0000 2.0480,-0.0000 3.0720 -0.0000c 0.0000,-4.4096 0.0000,-8.8192 0.0000 -13.2287c -1.0240,-0.0000 -2.0480,-0.0000 -3.0720 -0.0000c 0.0000,-6.3105 0.0000,-12.6209 0.0000 -18.9313c 1.0240,-0.0000 2.0480,-0.0000 3.0720 -0.0000c 0.0000,-4.4096 0.0000,-8.8192 0.0000 -13.2287c -1.0240,-0.0000 -2.0480,-0.0000 -3.0720 -0.0000c 0.0000,-1.2352 0.0000,-2.4704 0.0000 -3.7057c -17.6000,-0.0000 -35.2000,-0.0000 -52.8000 -0.0000c 0.0000,1.2352 0.0000,2.4704 0.0000 3.7057c -1.0240,-0.0000 -2.0479,-0.0000 -3.0720 -0.0000ZM 138.2760,236.9655 c 0.0000,4.4096 0.0000,8.8192 0.0000 13.2287c 1.0240,-0.0000 2.0480,-0.0000 3.0720 -0.0000c 0.0000,6.3104 0.0000,12.6209 0.0000 18.9313c -1.0240,-0.0000 -2.0479,-0.0000 -3.0720 -0.0000c 0.0000,4.4096 0.0000,8.8192 0.0000 13.2287c 1.0240,-0.0000 2.0480,-0.0000 3.0720 -0.0000c 0.0000,1.2352 0.0000,2.4704 0.0000 3.7056c 17.6000,-0.0000 35.2000,-0.0000 52.8000 -0.0000c 0.0000,-1.2352 0.0000,-2.4704 0.0000 -3.7056c 1.0240,-0.0000 2.0480,-0.0000 3.0720 -0.0000c 0.0000,-4.4096 0.0000,-8.8192 0.0000 -13.2287c -1.0240,-0.0000 -2.0480,-0.0000 -3.0720 -0.0000c 0.0000,-6.3104 0.0000,-12.6209 0.0000 -18.9313c 1.0240,-0.0000 2.0480,-0.0000 3.0720 -0.0000c 0.0000,-4.4096 0.0000,-8.8192 0.0000 -13.2287c -1.0240,-0.0000 -2.0480,-0.0000 -3.0720 -0.0000c 0.0000,-1.2352 0.0000,-2.4704 0.0000 -3.7056c -17.6000,-0.0000 -35.2000,-0.0000 -52.8000 -0.0000c 0.0000,1.2352 0.0000,2.4704 0.0000 3.7056c -1.0240,-0.0000 -2.0479,-0.0000 -3.0720 -0.0000ZM 138.2760,308.7765 c 0.0000,4.4096 0.0000,8.8192 0.0000 13.2287c 1.0240,-0.0000 2.0480,-0.0000 3.0720 -0.0000c 0.0000,6.3105 0.0000,12.6209 0.0000 18.9313c -1.0240,-0.0000 -2.0479,-0.0000 -3.0720 -0.0000c 0.0000,4.4095 0.0000,8.8191 0.0000 13.2287c 1.0240,-0.0000 2.0480,-0.0000 3.0720 -0.0000c 0.0000,1.2352 0.0000,2.4704 0.0000 3.7057c 17.6000,-0.0000 35.2000,-0.0000 52.8000 -0.0000c 0.0000,-1.2352 0.0000,-2.4704 0.0000 -3.7057c 1.0240,-0.0000 2.0480,-0.0000 3.0720 -0.0000c 0.0000,-4.4096 0.0000,-8.8192 0.0000 -13.2287c -1.0240,-0.0000 -2.0480,-0.0000 -3.0720 -0.0000c 0.0000,-6.3105 0.0000,-12.6209 0.0000 -18.9313c 1.0240,-0.0000 2.0480,-0.0000 3.0720 -0.0000c 0.0000,-4.4095 0.0000,-8.8191 0.0000 -13.2287c -1.0240,-0.0000 -2.0480,-0.0000 -3.0720 -0.0000c 0.0000,-1.2352 0.0000,-2.4704 0.0000 -3.7057c -17.6000,-0.0000 -35.2000,-0.0000 -52.8000 -0.0000c 0.0000,1.2352 0.0000,2.4704 0.0000 3.7057c -1.0240,-0.0000 -2.0479,-0.0000 -3.0720 0.0000ZM 210.0871,74.4458 c 0.0000,4.4096 0.0000,8.8192 0.0000 13.2287c 1.0240,-0.0000 2.0480,-0.0000 3.0720 -0.0000c 0.0000,6.3104 0.0000,12.6209 0.0000 18.9313c -1.0240,-0.0000 -2.0480,-0.0000 -3.0720 -0.0000c 0.0000,4.4096 0.0000,8.8192 0.0000 13.2287c 1.0240,-0.0000 2.0480,-0.0000 3.0720 -0.0000c 0.0000,1.2352 0.0000,2.4704 0.0000 3.7057c 17.6000,-0.0000 35.2000,-0.0000 52.8000 -0.0000c 0.0000,-1.2352 0.0000,-2.4704 0.0000 -3.7057c 1.0240,-0.0000 2.0480,-0.0000 3.0720 -0.0000c 0.0000,-4.4096 0.0000,-8.8192 0.0000 -13.2287c -1.0240,-0.0000 -2.0480,-0.0000 -3.0720 -0.0000c 0.0000,-6.3104 0.0000,-12.6209 0.0000 -18.9313c 1.0240,-0.0000 2.0480,-0.0000 3.0720 -0.0000c 0.0000,-4.4096 0.0000,-8.8192 0.0000 -13.2287c -1.0240,-0.0000 -2.0480,-0.0000 -3.0720 -0.0000c 0.0000,-1.2352 0.0000,-2.4704 0.0000 -3.7056c -17.6000,-0.0000 -35.2000,-0.0000 -52.8000 -0.0000c 0.0000,1.2352 0.0000,2.4704 0.0000 3.7056c -1.0240,-0.0000 -2.0480,-0.0000 -3.0720 -0.0000ZM 210.0871,146.2568 c 0.0000,4.4096 0.0000,8.8192 0.0000 13.2287c 1.0240,-0.0000 2.0480,-0.0000 3.0720 -0.0000c 0.0000,6.3104 0.0000,12.6208 0.0000 18.9313c -1.0240,-0.0000 -2.0480,-0.0000 -3.0720 -0.0000c 0.0000,4.4096 0.0000,8.8192 0.0000 13.2287c 1.0240,-0.0000 2.0480,-0.0000 3.0720 -0.0000c 0.0000,1.2352 0.0000,2.4704 0.0000 3.7056c 17.6000,-0.0000 35.2000,-0.0000 52.8000 -0.0000c 0.0000,-1.2352 0.0000,-2.4704 0.0000 -3.7056c 1.0240,-0.0000 2.0480,-0.0000 3.0720 -0.0000c 0.0000,-4.4096 0.0000,-8.8192 0.0000 -13.2287c -1.0240,-0.0000 -2.0480,-0.0000 -3.0720 -0.0000c 0.0000,-6.3105 0.0000,-12.6209 0.0000 -18.9313c 1.0240,-0.0000 2.0480,-0.0000 3.0720 -0.0000c 0.0000,-4.4096 0.0000,-8.8192 0.0000 -13.2287c -1.0240,-0.0000 -2.0480,-0.0000 -3.0720 -0.0000c 0.0000,-1.2352 0.0000,-2.4704 0.0000 -3.7057c -17.6000,-0.0000 -35.2000,-0.0000 -52.8000 -0.0000c 0.0000,1.2352 0.0000,2.4704 0.0000 3.7057c -1.0240,-0.0000 -2.0480,-0.0000 -3.0720 -0.0000ZM 210.0871,218.0678 c 0.0000,4.4096 0.0000,8.8192 0.0000 13.2287c 1.0240,-0.0000 2.0480,-0.0000 3.0720 -0.0000c 0.0000,6.3105 0.0000,12.6209 0.0000 18.9313c -1.0240,-0.0000 -2.0480,-0.0000 -3.0720 -0.0000c 0.0000,4.4096 0.0000,8.8192 0.0000 13.2287c 1.0240,-0.0000 2.0480,-0.0000 3.0720 -0.0000c 0.0000,1.2352 0.0000,2.4704 0.0000 3.7057c 17.6000,-0.0000 35.2000,-0.0000 52.8000 -0.0000c 0.0000,-1.2352 0.0000,-2.4704 0.0000 -3.7057c 1.0240,-0.0000 2.0480,-0.0000 3.0720 -0.0000c 0.0000,-4.4096 0.0000,-8.8192 0.0000 -13.2287c -1.0240,-0.0000 -2.0480,-0.0000 -3.0720 -0.0000c 0.0000,-6.3104 0.0000,-12.6208 0.0000 -18.9313c 1.0240,-0.0000 2.0480,-0.0000 3.0720 -0.0000c 0.0000,-4.4096 0.0000,-8.8192 0.0000 -13.2287c -1.0240,-0.0000 -2.0480,-0.0000 -3.0720 -0.0000c 0.0000,-1.2352 0.0000,-2.4704 0.0000 -3.7056c -17.6000,-0.0000 -35.2000,-0.0000 -52.8000 -0.0000c 0.0000,1.2352 0.0000,2.4704 0.0000 3.7056c -1.0240,-0.0000 -2.0480,-0.0000 -3.0720 -0.0000ZM 210.0871,289.8789 c 0.0000,4.4096 0.0000,8.8192 0.0000 13.2287c 1.0240,-0.0000 2.0480,-0.0000 3.0720 -0.0000c 0.0000,6.3104 0.0000,12.6208 0.0000 18.9313c -1.0240,-0.0000 -2.0480,-0.0000 -3.0720 -0.0000c 0.0000,4.4096 0.0000,8.8192 0.0000 13.2287c 1.0240,-0.0000 2.0480,-0.0000 3.0720 -0.0000c 0.0000,1.2352 0.0000,2.4704 0.0000 3.7056c 17.6000,-0.0000 35.2000,-0.0000 52.8000 -0.0000c 0.0000,-1.2352 0.0000,-2.4704 0.0000 -3.7056c 1.0240,-0.0000 2.0480,-0.0000 3.0720 -0.0000c 0.0000,-4.4096 0.0000,-8.8192 0.0000 -13.2287c -1.0240,-0.0000 -2.0480,-0.0000 -3.0720 -0.0000c 0.0000,-6.3105 0.0000,-12.6209 0.0000 -18.9313c 1.0240,-0.0000 2.0480,-0.0000 3.0720 -0.0000c 0.0000,-4.4096 0.0000,-8.8192 0.0000 -13.2287c -1.0240,-0.0000 -2.0480,-0.0000 -3.0720 -0.0000c 0.0000,-1.2352 0.0000,-2.4704 0.0000 -3.7057c -17.6000,-0.0000 -35.2000,-0.0000 -52.8000 -0.0000c 0.0000,1.2352 0.0000,2.4704 0.0000 3.7057c -1.0240,-0.0000 -2.0480,-0.0000 -3.0720 0.0000ZM 281.8981,51.7686 c 0.0000,4.4096 0.0000,8.8192 0.0000 13.2287c 1.0240,-0.0000 2.0480,-0.0000 3.0720 -0.0000c 0.0000,6.3104 0.0000,12.6209 0.0000 18.9313c -1.0240,-0.0000 -2.0480,-0.0000 -3.0720 -0.0000c 0.0000,4.4096 0.0000,8.8192 0.0000 13.2287c 1.0240,-0.0000 2.0480,-0.0000 3.0720 -0.0000c 0.0000,1.2352 0.0000,2.4704 0.0000 3.7056c 17.6000,-0.0000 35.1999,-0.0000 52.7999 -0.0000c 0.0000,-1.2352 0.0000,-2.4704 0.0000 -3.7056c 1.0240,-0.0000 2.0480,-0.0000 3.0720 -0.0000c 0.0000,-4.4096 0.0000,-8.8192 0.0000 -13.2287c -1.0240,-0.0000 -2.0480,-0.0000 -3.0720 -0.0000c 0.0000,-6.3104 0.0000,-12.6209 0.0000 -18.9313c 1.0240,-0.0000 2.0480,-0.0000 3.0720 -0.0000c 0.0000,-4.4096 0.0000,-8.8192 0.0000 -13.2287c -1.0240,-0.0000 -2.0480,-0.0000 -3.0720 -0.0000c 0.0000,-1.2352 0.0000,-2.4704 0.0000 -3.7056c -17.6000,-0.0000 -35.1999,-0.0000 -52.7999 -0.0000c 0.0000,1.2352 0.0000,2.4704 0.0000 3.7056c -1.0240,-0.0000 -2.0480,-0.0000 -3.0720 -0.0000ZM 281.8981,123.5797 c 0.0000,4.4096 0.0000,8.8192 0.0000 13.2287c 1.0240,-0.0000 2.0480,-0.0000 3.0720 -0.0000c 0.0000,6.3104 0.0000,12.6208 0.0000 18.9313c -1.0240,-0.0000 -2.0480,-0.0000 -3.0720 -0.0000c 0.0000,4.4096 0.0000,8.8192 0.0000 13.2287c 1.0240,-0.0000 2.0480,-0.0000 3.0720 -0.0000c 0.0000,1.2352 0.0000,2.4704 0.0000 3.7056c 17.6000,-0.0000 35.1999,-0.0000 52.7999 -0.0000c 0.0000,-1.2352 0.0000,-2.4704 0.0000 -3.7056c 1.0240,-0.0000 2.0480,-0.0000 3.0720 -0.0000c 0.0000,-4.4096 0.0000,-8.8192 0.0000 -13.2287c -1.0240,-0.0000 -2.0480,-0.0000 -3.0720 -0.0000c 0.0000,-6.3105 0.0000,-12.6209 0.0000 -18.9313c 1.0240,-0.0000 2.0480,-0.0000 3.0720 -0.0000c 0.0000,-4.4096 0.0000,-8.8192 0.0000 -13.2287c -1.0240,-0.0000 -2.0480,-0.0000 -3.0720 -0.0000c 0.0000,-1.2352 0.0000,-2.4704 0.0000 -3.7057c -17.6000,-0.0000 -35.1999,-0.0000 -52.7999 -0.0000c 0.0000,1.2352 0.0000,2.4704 0.0000 3.7057c -1.0240,-0.0000 -2.0480,-0.0000 -3.0720 -0.0000ZM 281.8981,195.3907 c 0.0000,4.4096 0.0000,8.8192 0.0000 13.2287c 1.0240,-0.0000 2.0480,-0.0000 3.0720 -0.0000c 0.0000,6.3105 0.0000,12.6209 0.0000 18.9313c -1.0240,-0.0000 -2.0480,-0.0000 -3.0720 -0.0000c 0.0000,4.4096 0.0000,8.8192 0.0000 13.2287c 1.0240,-0.0000 2.0480,-0.0000 3.0720 -0.0000c 0.0000,1.2352 0.0000,2.4704 0.0000 3.7057c 17.6000,-0.0000 35.1999,-0.0000 52.7999 -0.0000c 0.0000,-1.2352 0.0000,-2.4704 0.0000 -3.7057c 1.0240,-0.0000 2.0480,-0.0000 3.0720 -0.0000c 0.0000,-4.4096 0.0000,-8.8192 0.0000 -13.2287c -1.0240,-0.0000 -2.0480,-0.0000 -3.0720 -0.0000c 0.0000,-6.3104 0.0000,-12.6208 0.0000 -18.9313c 1.0240,-0.0000 2.0480,-0.0000 3.0720 -0.0000c 0.0000,-4.4096 0.0000,-8.8192 0.0000 -13.2287c -1.0240,-0.0000 -2.0480,-0.0000 -3.0720 -0.0000c 0.0000,-1.2352 0.0000,-2.4704 0.0000 -3.7056c -17.6000,-0.0000 -35.1999,-0.0000 -52.7999 -0.0000c 0.0000,1.2352 0.0000,2.4704 0.0000 3.7056c -1.0240,-0.0000 -2.0480,-0.0000 -3.0720 -0.0000ZM 281.8981,267.2017 c 0.0000,4.4096 0.0000,8.8192 0.0000 13.2287c 1.0240,-0.0000 2.0480,-0.0000 3.0720 -0.0000c 0.0000,6.3104 0.0000,12.6208 0.0000 18.9313c -1.0240,-0.0000 -2.0480,-0.0000 -3.0720 -0.0000c 0.0000,4.4096 0.0000,8.8192 0.0000 13.2287c 1.0240,-0.0000 2.0480,-0.0000 3.0720 -0.0000c 0.0000,1.2352 0.0000,2.4704 0.0000 3.7056c 17.6000,-0.0000 35.1999,-0.0000 52.7999 -0.0000c 0.0000,-1.2352 0.0000,-2.4704 0.0000 -3.7056c 1.0240,-0.0000 2.0480,-0.0000 3.0720 -0.0000c 0.0000,-4.4096 0.0000,-8.8192 0.0000 -13.2287c -1.0240,-0.0000 -2.0480,-0.0000 -3.0720 -0.0000c 0.0000,-6.3105 0.0000,-12.6209 0.0000 -18.9313c 1.0240,-0.0000 2.0480,-0.0000 3.0720 -0.0000c 0.0000,-4.4096 0.0000,-8.8192 0.0000 -13.2287c -1.0240,-0.0000 -2.0480,-0.0000 -3.0720 -0.0000c 0.0000,-1.2352 0.0000,-2.4704 0.0000 -3.7057c -17.6000,-0.0000 -35.1999,-0.0000 -52.7999 -0.0000c 0.0000,1.2352 0.0000,2.4704 0.0000 3.7057c -1.0240,-0.0000 -2.0480,-0.0000 -3.0720 -0.0000ZM 353.7091,70.6663 c 0.0000,4.4096 0.0000,8.8192 0.0000 13.2287c 1.0240,-0.0000 2.0480,-0.0000 3.0720 -0.0000c 0.0000,6.3104 0.0000,12.6209 0.0000 18.9313c -1.0240,-0.0000 -2.0480,-0.0000 -3.0720 -0.0000c 0.0000,4.4096 0.0000,8.8192 0.0000 13.2287c 1.0240,-0.0000 2.0480,-0.0000 3.0720 -0.0000c 0.0000,1.2352 0.0000,2.4704 0.0000 3.7056c 17.6000,-0.0000 35.2000,-0.0000 52.8000 -0.0000c 0.0000,-1.2352 0.0000,-2.4704 0.0000 -3.7056c 1.0240,-0.0000 2.0480,-0.0000 3.0720 -0.0000c 0.0000,-4.4096 0.0000,-8.8192 0.0000 -13.2287c -1.0240,-0.0000 -2.0480,-0.0000 -3.0720 -0.0000c 0.0000,-6.3104 0.0000,-12.6209 0.0000 -18.9313c 1.0240,-0.0000 2.0480,-0.0000 3.0720 -0.0000c 0.0000,-4.4096 0.0000,-8.8192 0.0000 -13.2287c -1.0240,-0.0000 -2.0480,-0.0000 -3.0720 -0.0000c 0.0000,-1.2352 0.0000,-2.4704 0.0000 -3.7057c -17.6000,-0.0000 -35.2000,-0.0000 -52.8000 -0.0000c 0.0000,1.2352 0.0000,2.4704 0.0000 3.7057c -1.0240,-0.0000 -2.0480,-0.0000 -3.0720 -0.0000ZM 353.7091,142.4773 c 0.0000,4.4096 0.0000,8.8192 0.0000 13.2287c 1.0240,-0.0000 2.0480,-0.0000 3.0720 -0.0000c 0.0000,6.3105 0.0000,12.6209 0.0000 18.9313c -1.0240,-0.0000 -2.0480,-0.0000 -3.0720 -0.0000c 0.0000,4.4096 0.0000,8.8192 0.0000 13.2287c 1.0240,-0.0000 2.0480,-0.0000 3.0720 -0.0000c 0.0000,1.2352 0.0000,2.4704 0.0000 3.7057c 17.6000,-0.0000 35.2000,-0.0000 52.8000 -0.0000c 0.0000,-1.2352 0.0000,-2.4704 0.0000 -3.7057c 1.0240,-0.0000 2.0480,-0.0000 3.0720 -0.0000c 0.0000,-4.4096 0.0000,-8.8192 0.0000 -13.2287c -1.0240,-0.0000 -2.0480,-0.0000 -3.0720 -0.0000c 0.0000,-6.3104 0.0000,-12.6208 0.0000 -18.9313c 1.0240,-0.0000 2.0480,-0.0000 3.0720 -0.0000c 0.0000,-4.4096 0.0000,-8.8192 0.0000 -13.2287c -1.0240,-0.0000 -2.0480,-0.0000 -3.0720 -0.0000c 0.0000,-1.2352 0.0000,-2.4704 0.0000 -3.7056c -17.6000,-0.0000 -35.2000,-0.0000 -52.8000 -0.0000c 0.0000,1.2352 0.0000,2.4704 0.0000 3.7056c -1.0240,-0.0000 -2.0480,-0.0000 -3.0720 -0.0000ZM 353.7091,214.2883 c 0.0000,4.4096 0.0000,8.8192 0.0000 13.2287c 1.0240,-0.0000 2.0480,-0.0000 3.0720 -0.0000c 0.0000,6.3104 0.0000,12.6209 0.0000 18.9313c -1.0240,-0.0000 -2.0480,-0.0000 -3.0720 -0.0000c 0.0000,4.4096 0.0000,8.8192 0.0000 13.2287c 1.0240,-0.0000 2.0480,-0.0000 3.0720 -0.0000c 0.0000,1.2352 0.0000,2.4704 0.0000 3.7056c 17.6000,-0.0000 35.2000,-0.0000 52.8000 -0.0000c 0.0000,-1.2352 0.0000,-2.4704 0.0000 -3.7056c 1.0240,-0.0000 2.0480,-0.0000 3.0720 -0.0000c 0.0000,-4.4096 0.0000,-8.8192 0.0000 -13.2287c -1.0240,-0.0000 -2.0480,-0.0000 -3.0720 -0.0000c 0.0000,-6.3104 0.0000,-12.6209 0.0000 -18.9313c 1.0240,-0.0000 2.0480,-0.0000 3.0720 -0.0000c 0.0000,-4.4096 0.0000,-8.8192 0.0000 -13.2287c -1.0240,-0.0000 -2.0480,-0.0000 -3.0720 -0.0000c 0.0000,-1.2352 0.0000,-2.4704 0.0000 -3.7057c -17.6000,-0.0000 -35.2000,-0.0000 -52.8000 -0.0000c 0.0000,1.2352 0.0000,2.4704 0.0000 3.7057c -1.0240,-0.0000 -2.0480,-0.0000 -3.0720 -0.0000ZM 353.7091,286.0993 c 0.0000,4.4096 0.0000,8.8192 0.0000 13.2287c 1.0240,-0.0000 2.0480,-0.0000 3.0720 -0.0000c 0.0000,6.3105 0.0000,12.6209 0.0000 18.9313c -1.0240,-0.0000 -2.0480,-0.0000 -3.0720 -0.0000c 0.0000,4.4095 0.0000,8.8191 0.0000 13.2287c 1.0240,-0.0000 2.0480,-0.0000 3.0720 -0.0000c 0.0000,1.2352 0.0000,2.4704 0.0000 3.7057c 17.6000,-0.0000 35.2000,-0.0000 52.8000 -0.0000c 0.0000,-1.2352 0.0000,-2.4704 0.0000 -3.7057c 1.0240,-0.0000 2.0480,-0.0000 3.0720 -0.0000c 0.0000,-4.4096 0.0000,-8.8192 0.0000 -13.2287c -1.0240,-0.0000 -2.0480,-0.0000 -3.0720 -0.0000c 0.0000,-6.3105 0.0000,-12.6209 0.0000 -18.9313c 1.0240,-0.0000 2.0480,-0.0000 3.0720 -0.0000c 0.0000,-4.4096 0.0000,-8.8192 0.0000 -13.2287c -1.0240,-0.0000 -2.0480,-0.0000 -3.0720 -0.0000c 0.0000,-1.2352 0.0000,-2.4704 0.0000 -3.7056c -17.6000,-0.0000 -35.2000,-0.0000 -52.8000 -0.0000c 0.0000,1.2352 0.0000,2.4704 0.0000 3.7056c -1.0240,-0.0000 -2.0480,-0.0000 -3.0720 -0.0000ZM 425.5201,82.0049 c 0.0000,4.4096 0.0000,8.8192 0.0000 13.2287c 1.0240,-0.0000 2.0480,-0.0000 3.0720 -0.0000c 0.0000,6.3104 0.0000,12.6209 0.0000 18.9313c -1.0240,-0.0000 -2.0480,-0.0000 -3.0720 -0.0000c 0.0000,4.4096 0.0000,8.8192 0.0000 13.2287c 1.0240,-0.0000 2.0480,-0.0000 3.0720 -0.0000c 0.0000,1.2352 0.0000,2.4704 0.0000 3.7056c 17.6000,-0.0000 35.1999,-0.0000 52.7999 -0.0000c 0.0000,-1.2352 0.0000,-2.4704 0.0000 -3.7056c 1.0240,-0.0000 2.0480,-0.0000 3.0720 -0.0000c 0.0000,-4.4096 0.0000,-8.8192 0.0000 -13.2287c -1.0240,-0.0000 -2.0480,-0.0000 -3.0720 -0.0000c 0.0000,-6.3104 0.0000,-12.6209 0.0000 -18.9313c 1.0240,-0.0000 2.0480,-0.0000 3.0720 -0.0000c 0.0000,-4.4096 0.0000,-8.8192 0.0000 -13.2287c -1.0240,-0.0000 -2.0480,-0.0000 -3.0720 -0.0000c 0.0000,-1.2352 0.0000,-2.4704 0.0000 -3.7057c -17.6000,-0.0000 -35.1999,-0.0000 -52.7999 -0.0000c 0.0000,1.2352 0.0000,2.4704 0.0000 3.7057c -1.0240,-0.0000 -2.0480,-0.0000 -3.0720 -0.0000ZM 425.5201,153.8159 c 0.0000,4.4096 0.0000,8.8192 0.0000 13.2287c 1.0240,-0.0000 2.0480,-0.0000 3.0720 -0.0000c 0.0000,6.3105 0.0000,12.6209 0.0000 18.9313c -1.0240,-0.0000 -2.0480,-0.0000 -3.0720 -0.0000c 0.0000,4.4096 0.0000,8.8192 0.0000 13.2287c 1.0240,-0.0000 2.0480,-0.0000 3.0720 -0.0000c 0.0000,1.2352 0.0000,2.4704 0.0000 3.7057c 17.6000,-0.0000 35.1999,-0.0000 52.7999 -0.0000c 0.0000,-1.2352 0.0000,-2.4704 0.0000 -3.7057c 1.0240,-0.0000 2.0480,-0.0000 3.0720 -0.0000c 0.0000,-4.4096 0.0000,-8.8192 0.0000 -13.2287c -1.0240,-0.0000 -2.0480,-0.0000 -3.0720 -0.0000c 0.0000,-6.3104 0.0000,-12.6208 0.0000 -18.9313c 1.0240,-0.0000 2.0480,-0.0000 3.0720 -0.0000c 0.0000,-4.4096 0.0000,-8.8192 0.0000 -13.2287c -1.0240,-0.0000 -2.0480,-0.0000 -3.0720 -0.0000c 0.0000,-1.2352 0.0000,-2.4704 0.0000 -3.7056c -17.6000,-0.0000 -35.1999,-0.0000 -52.7999 -0.0000c 0.0000,1.2352 0.0000,2.4704 0.0000 3.7056c -1.0240,-0.0000 -2.0480,-0.0000 -3.0720 -0.0000ZM 425.5201,225.6269 c 0.0000,4.4096 0.0000,8.8192 0.0000 13.2287c 1.0240,-0.0000 2.0480,-0.0000 3.0720 -0.0000c 0.0000,6.3104 0.0000,12.6209 0.0000 18.9313c -1.0240,-0.0000 -2.0480,-0.0000 -3.0720 -0.0000c 0.0000,4.4096 0.0000,8.8192 0.0000 13.2287c 1.0240,-0.0000 2.0480,-0.0000 3.0720 -0.0000c 0.0000,1.2352 0.0000,2.4704 0.0000 3.7056c 17.6000,-0.0000 35.1999,-0.0000 52.7999 -0.0000c 0.0000,-1.2352 0.0000,-2.4704 0.0000 -3.7056c 1.0240,-0.0000 2.0480,-0.0000 3.0720 -0.0000c 0.0000,-4.4096 0.0000,-8.8192 0.0000 -13.2287c -1.0240,-0.0000 -2.0480,-0.0000 -3.0720 -0.0000c 0.0000,-6.3104 0.0000,-12.6209 0.0000 -18.9313c 1.0240,-0.0000 2.0480,-0.0000 3.0720 -0.0000c 0.0000,-4.4096 0.0000,-8.8192 0.0000 -13.2287c -1.0240,-0.0000 -2.0480,-0.0000 -3.0720 -0.0000c 0.0000,-1.2352 0.0000,-2.4704 0.0000 -3.7057c -17.6000,-0.0000 -35.1999,-0.0000 -52.7999 -0.0000c 0.0000,1.2352 0.0000,2.4704 0.0000 3.7057c -1.0240,-0.0000 -2.0480,-0.0000 -3.0720 -0.0000ZM 425.5201,297.4380 c 0.0000,4.4096 0.0000,8.8191 0.0000 13.2287c 1.0240,-0.0000 2.0480,-0.0000 3.0720 -0.0000c 0.0000,6.3105 0.0000,12.6209 0.0000 18.9313c -1.0240,-0.0000 -2.0480,-0.0000 -3.0720 -0.0000c 0.0000,4.4095 0.0000,8.8191 0.0000 13.2287c 1.0240,-0.0000 2.0480,-0.0000 3.0720 -0.0000c 0.0000,1.2352 0.0000,2.4704 0.0000 3.7057c 17.6000,-0.0000 35.1999,-0.0000 52.7999 -0.0000c 0.0000,-1.2352 0.0000,-2.4704 0.0000 -3.7057c 1.0240,-0.0000 2.0480,-0.0000 3.0720 -0.0000c 0.0000,-4.4096 0.0000,-8.8192 0.0000 -13.2287c -1.0240,-0.0000 -2.0480,-0.0000 -3.0720 -0.0000c 0.0000,-6.3105 0.0000,-12.6209 0.0000 -18.9313c 1.0240,-0.0000 2.0480,-0.0000 3.0720 -0.0000c 0.0000,-4.4096 0.0000,-8.8191 0.0000 -13.2287c -1.0240,-0.0000 -2.0480,-0.0000 -3.0720 -0.0000c 0.0000,-1.2352 0.0000,-2.4704 0.0000 -3.7057c -17.6000,-0.0000 -35.1999,-0.0000 -52.7999 -0.0000c 0.0000,1.2352 0.0000,2.4704 0.0000 3.7057c -1.0240,-0.0000 -2.0480,-0.0000 -3.0720 -0.0000ZM 497.3312,85.7844 c 0.0000,4.4096 0.0000,8.8192 0.0000 13.2287c 1.0240,-0.0000 2.0480,-0.0000 3.0720 -0.0000c 0.0000,6.3104 0.0000,12.6209 0.0000 18.9313c -1.0240,-0.0000 -2.0480,-0.0000 -3.0720 -0.0000c 0.0000,4.4096 0.0000,8.8192 0.0000 13.2287c 1.0240,-0.0000 2.0480,-0.0000 3.0720 -0.0000c 0.0000,1.2352 0.0000,2.4704 0.0000 3.7057c 17.6000,-0.0000 35.2000,-0.0000 52.8000 -0.0000c 0.0000,-1.2352 0.0000,-2.4704 0.0000 -3.7057c 1.0240,-0.0000 2.0480,-0.0000 3.0720 -0.0000c 0.0000,-4.4096 0.0000,-8.8192 0.0000 -13.2287c -1.0240,-0.0000 -2.0480,-0.0000 -3.0720 -0.0000c 0.0000,-6.3104 0.0000,-12.6209 0.0000 -18.9313c 1.0240,-0.0000 2.0480,-0.0000 3.0720 -0.0000c 0.0000,-4.4096 0.0000,-8.8192 0.0000 -13.2287c -1.0240,-0.0000 -2.0480,-0.0000 -3.0720 -0.0000c 0.0000,-1.2352 0.0000,-2.4704 0.0000 -3.7056c -17.6000,-0.0000 -35.2000,-0.0000 -52.8000 -0.0000c 0.0000,1.2352 0.0000,2.4704 0.0000 3.7056c -1.0240,-0.0000 -2.0480,-0.0000 -3.0720 -0.0000ZM 497.3312,157.5954 c 0.0000,4.4096 0.0000,8.8192 0.0000 13.2287c 1.0240,-0.0000 2.0480,-0.0000 3.0720 -0.0000c 0.0000,6.3104 0.0000,12.6208 0.0000 18.9313c -1.0240,-0.0000 -2.0480,-0.0000 -3.0720 -0.0000c 0.0000,4.4096 0.0000,8.8192 0.0000 13.2287c 1.0240,-0.0000 2.0480,-0.0000 3.0720 -0.0000c 0.0000,1.2352 0.0000,2.4704 0.0000 3.7056c 17.6000,-0.0000 35.2000,-0.0000 52.8000 -0.0000c 0.0000,-1.2352 0.0000,-2.4704 0.0000 -3.7056c 1.0240,-0.0000 2.0480,-0.0000 3.0720 -0.0000c 0.0000,-4.4096 0.0000,-8.8192 0.0000 -13.2287c -1.0240,-0.0000 -2.0480,-0.0000 -3.0720 -0.0000c 0.0000,-6.3105 0.0000,-12.6209 0.0000 -18.9313c 1.0240,-0.0000 2.0480,-0.0000 3.0720 -0.0000c 0.0000,-4.4096 0.0000,-8.8192 0.0000 -13.2287c -1.0240,-0.0000 -2.0480,-0.0000 -3.0720 -0.0000c 0.0000,-1.2352 0.0000,-2.4704 0.0000 -3.7057c -17.6000,-0.0000 -35.2000,-0.0000 -52.8000 -0.0000c 0.0000,1.2352 0.0000,2.4704 0.0000 3.7057c -1.0240,-0.0000 -2.0480,-0.0000 -3.0720 -0.0000ZM 497.3312,229.4064 c 0.0000,4.4096 0.0000,8.8192 0.0000 13.2287c 1.0240,-0.0000 2.0480,-0.0000 3.0720 -0.0000c 0.0000,6.3105 0.0000,12.6209 0.0000 18.9313c -1.0240,-0.0000 -2.0480,-0.0000 -3.0720 -0.0000c 0.0000,4.4096 0.0000,8.8192 0.0000 13.2287c 1.0240,-0.0000 2.0480,-0.0000 3.0720 -0.0000c 0.0000,1.2352 0.0000,2.4704 0.0000 3.7057c 17.6000,-0.0000 35.2000,-0.0000 52.8000 -0.0000c 0.0000,-1.2352 0.0000,-2.4704 0.0000 -3.7057c 1.0240,-0.0000 2.0480,-0.0000 3.0720 -0.0000c 0.0000,-4.4096 0.0000,-8.8192 0.0000 -13.2287c -1.0240,-0.0000 -2.0480,-0.0000 -3.0720 -0.0000c 0.0000,-6.3104 0.0000,-12.6208 0.0000 -18.9313c 1.0240,-0.0000 2.0480,-0.0000 3.0720 -0.0000c 0.0000,-4.4096 0.0000,-8.8192 0.0000 -13.2287c -1.0240,-0.0000 -2.0480,-0.0000 -3.0720 -0.0000c 0.0000,-1.2352 0.0000,-2.4704 0.0000 -3.7056c -17.6000,-0.0000 -35.2000,-0.0000 -52.8000 -0.0000c 0.0000,1.2352 0.0000,2.4704 0.0000 3.7056c -1.0240,-0.0000 -2.0480,-0.0000 -3.0720 -0.0000ZM 497.3312,301.2175 c 0.0000,4.4096 0.0000,8.8192 0.0000 13.2287c 1.0240,-0.0000 2.0480,-0.0000 3.0720 -0.0000c 0.0000,6.3104 0.0000,12.6209 0.0000 18.9313c -1.0240,-0.0000 -2.0480,-0.0000 -3.0720 -0.0000c 0.0000,4.4096 0.0000,8.8192 0.0000 13.2287c 1.0240,-0.0000 2.0480,-0.0000 3.0720 -0.0000c 0.0000,1.2352 0.0000,2.4704 0.0000 3.7056c 17.6000,-0.0000 35.2000,-0.0000 52.8000 -0.0000c 0.0000,-1.2352 0.0000,-2.4704 0.0000 -3.7056c 1.0240,-0.0000 2.0480,-0.0000 3.0720 -0.0000c 0.0000,-4.4096 0.0000,-8.8192 0.0000 -13.2287c -1.0240,-0.0000 -2.0480,-0.0000 -3.0720 -0.0000c 0.0000,-6.3104 0.0000,-12.6209 0.0000 -18.9313c 1.0240,-0.0000 2.0480,-0.0000 3.0720 -0.0000c 0.0000,-4.4096 0.0000,-8.8192 0.0000 -13.2287c -1.0240,-0.0000 -2.0480,-0.0000 -3.0720 -0.0000c 0.0000,-1.2352 0.0000,-2.4704 0.0000 -3.7057c -17.6000,-0.0000 -35.2000,-0.0000 -52.8000 -0.0000c 0.0000,1.2352 0.0000,2.4704 0.0000 3.7057c -1.0240,-0.0000 -2.0480,-0.0000 -3.0720 -0.0000ZM 575.8803,24.1260 c 0.0000,3.1311 2.5382,5.6693 5.6693 5.6693c 3.1310,-0.0000 5.6693,-2.5382 5.6693 -5.6693c 0.0000,-3.1311 -2.5382,-5.6693 -5.6693 -5.6693c -3.1311,-0.0000 -5.6693,2.5382 -5.6693 5.6693ZM 575.8803,364.1701 c 0.0000,3.1311 2.5382,5.6693 5.6693 5.6693c 3.1310,-0.0000 5.6693,-2.5382 5.6693 -5.6693c 0.0000,-3.1311 -2.5382,-5.6693 -5.6693 -5.6693c -3.1311,-0.0000 -5.6693,2.5382 -5.6693 5.6693Z"/></g><g stroke-linejoin="miter" stroke-opacity="1.0" fill-opacity="0.5" stroke="rgb(0,0,0)" stroke-width="0.37795275590551186" fill="rgb(0,0,255)" stroke-linecap="butt" stroke-miterlimit="10.0"><path d="M 3.9685,20.3464 c 0.0000,-9.0453 7.3326,-16.3779 16.3779 -16.3779c 188.3275,-0.0000 376.6551,-0.0000 564.9827 -0.0000c 9.0453,-0.0000 16.3779,7.3326 16.3779 16.3779c 0.0000,115.8677 0.0000,231.7354 0.0000 347.6032c 0.0000,8.3082 -6.2208,15.3002 -14.4726 16.2668c -163.1307,19.1076 -326.2614,38.2153 -489.3921 57.3229c -0.6324,0.0741 -1.2686,0.1112 -1.9053 0.1112c -25.1969,-0.0000 -50.3937,-0.0000 -75.5906 -0.0000c -9.0453,-0.0000 -16.3779,-7.3326 -16.3779 -16.3779c 0.0000,-134.9753 0.0000,-269.9506 0.0000 -404.9260ZM 54.8914,258.2992 c 0.0000,23.9370 0.0000,47.8740 0.0000 71.8110c 0.0000,0.9071 0.0000,1.8142 0.0000 2.7213c 0.0000,23.9370 0.0000,47.8740 0.0000 71.8110c 0.0000,2.0874 1.6921,3.7795 3.7795 3.7795c 24.8441,-0.0000 49.6882,-0.0000 74.5323 -0.0000c 2.0874,-0.0000 3.7795,-1.6921 3.7795 -3.7795c 0.0000,-10.7087 0.0000,-21.4173 0.0000 -32.1260c 22.6772,-0.0000 45.3543,-0.0000 68.0315 -0.0000c 2.0874,-0.0000 3.7796,-1.6921 3.7796 -3.7795c 0.0000,-5.0394 0.0000,-10.0787 0.0000 -15.1181c 22.6772,-0.0000 45.3543,-0.0000 68.0315 -0.0000c 2.0874,-0.0000 3.7795,-1.6922 3.7795 -3.7796c 0.0000,-6.2992 0.0000,-12.5984 0.0000 -18.8976c 20.5102,-0.0000 41.0205,-0.0000 61.5307 -0.0000c 0.0000,5.0394 0.0000,10.0787 0.0000 15.1181c 0.0000,2.0874 1.6921,3.7795 3.7795 3.7795c 22.6772,-0.0000 45.3543,-0.0000 68.0315 -0.0000c 0.0000,2.5197 0.0000,5.0394 0.0000 7.5591c 0.0000,2.0874 1.6922,3.7795 3.7796 3.7795c 22.6772,-0.0000 45.3543,-0.0000 68.0315 -0.0000c 0.0000,2.0874 1.6921,3.7796 3.7795 3.7796c 24.8441,-0.0000 49.6882,-0.0000 74.5323 -0.0000c 2.0874,-0.0000 3.7795,-1.6922 3.7795 -3.7796c 0.0000,-23.9370 0.0000,-47.8740 0.0000 -71.8110c 0.0000,-0.9071 0.0000,-1.8142 0.0000 -2.7213c 0.0000,-23.0299 0.0000,-46.0598 0.0000 -69.0898c 0.0000,-0.9071 0.0000,-1.8142 0.0000 -2.7212c 0.0000,-23.0299 0.0000,-46.0599 0.0000 -69.0898c 0.0000,-0.9071 0.0000,-1.8142 0.0000 -2.7213c 0.0000,-23.9370 0.0000,-47.8740 0.0000 -71.8110c 0.0000,-2.0874 -1.6921,-3.7796 -3.7795 -3.7796c -22.6772,-0.0000 -45.3543,-0.0000 -68.0315 -0.0000c 0.0000,-2.0873 -1.6922,-3.7795 -3.7795 -3.7795c -22.6772,-0.0000 -45.3544,-0.0000 -68.0315 -0.0000c 0.0000,-2.5197 0.0000,-5.0394 0.0000 -7.5591c 0.0000,-2.0873 -1.6921,-3.7795 -3.7795 -3.7795c -22.6772,-0.0000 -45.3543,-0.0000 -68.0315 -0.0000c 0.0000,-5.0394 0.0000,-10.0787 0.0000 -15.1181c 0.0000,-2.0874 -1.6922,-3.7796 -3.7796 -3.7796c -24.8440,-0.0000 -49.6882,-0.0000 -74.5322 -0.0000c -2.0874,-0.0000 -3.7796,1.6922 -3.7796 3.7796c 0.0000,6.2992 0.0000,12.5984 0.0000 18.8976c -22.6772,-0.0000 -45.3543,-0.0000 -68.0315 -0.0000c -2.0874,-0.0000 -3.7795,1.6922 -3.7795 3.7796c 0.0000,5.0394 0.0000,10.0787 0.0000 15.1181c -22.6772,-0.0000 -45.3543,-0.0000 -68.0315 -0.0000c -2.0873,-0.0000 -3.7795,1.6922 -3.7795 3.7795c 0.0000,23.9370 0.0000,47.8740 0.0000 71.8110c 0.0000,0.9071 0.0000,1.8142 0.0000 2.7212c 0.0000,23.0299 0.0000,46.0599 0.0000 69.0898c 0.0000,0.9071 0.0000,1.8142 0.0000 2.7212c 0.0000,9.8015 0.0000,19.6031 0.0000 29.4047c -22.6772,-0.0000 -45.3543,-0.0000 -68.0315 -0.0000c -2.0874,-0.0000 -3.7795,1.6921 -3.7795 3.7795ZM 90.2677,24.1260 c 0.0000,3.1311 2.5382,5.6693 5.6693 5.6693c 3.1311,-0.0000 5.6693,-2.5382 5.6693 -5.6693c 0.0000,-3.1311 -2.5382,-5.6693 -5.6693 -5.6693c -3.1311,-0.0000 -5.6693,2.5382 -5.6693 5.6693ZM 90.2677,421.4929 c 0.0000,3.1311 2.5382,5.6693 5.6693 5.6693c 3.1311,-0.0000 5.6693,-2.5382 5.6693 -5.6693c 0.0000,-3.1310 -2.5382,-5.6693 -5.6693 -5.6693c -3.1311,-0.0000 -5.6693,2.5382 -5.6693 5.6693ZM 575.8803,24.1260 c 0.0000,3.1311 2.5382,5.6693 5.6693 5.6693c 3.1310,-0.0000 5.6693,-2.5382 5.6693 -5.6693c 0.0000,-3.1311 -2.5382,-5.6693 -5.6693 -5.6693c -3.1311,-0.0000 -5.6693,2.5382 -5.6693 5.6693ZM 575.8803,364.1701 c 0.0000,3.1311 2.5382,5.6693 5.6693 5.6693c 3.1310,-0.0000 5.6693,-2.5382 5.6693 -5.6693c 0.0000,-3.1311 -2.5382,-5.6693 -5.6693 -5.6693c -3.1311,-0.0000 -5.6693,2.5382 -5.6693 5.6693Z"/></g><g stroke-linejoin="miter" stroke-opacity="1.0" fill-opacity="0.7" stroke="rgb(0,0,0)" stroke-width="0.37795275590551186" fill="rgb(0,0,0)" stroke-linecap="butt" stroke-miterlimit="10.0"><path d="M 131.2189,395.0992 l -0.0000,-55.4457 c 0.0000,-4.1748 -3.3843,-7.5591 -7.5591 -7.5591h -55.4457 c -4.1748,-0.0000 -7.5591,3.3843 -7.5591 7.5591l -0.0000,55.4457 c -0.0000,4.1748 3.3843,7.5591 7.5591 7.5591h 55.4457 c 4.1748,-0.0000 7.5591,-3.3843 7.5591 -7.5591Z"/></g><defs><linearGradient x2="5.0000" y1="0.0000" gradientUnits="userSpaceOnUse" spreadMethod="pad" gradientTransform="matrix(3.7795,-0.0000,0.0000,-3.7795,95.9370,367.3764)" id="gradient10" y2="0.0000" x1="-5.0000"><stop stop-opacity="0.1000" offset="0.0000" stop-color="rgb(0,0,0)"/><stop stop-opacity="0.1000" offset="0.5000" stop-color="rgb(255,255,255)"/><stop stop-opacity="0.1000" offset="1.0000" stop-color="rgb(0,0,0)"/></linearGradient></defs><g stroke-linejoin="miter" stroke-opacity="1.0" fill-opacity="1" stroke="rgb(0,0,0)" stroke-width="0.37795275590551186" fill="url(#gradient10)" stroke-linecap="butt" stroke-miterlimit="10.0"><path d="M 120.4472,384.3276 l -0.0000,-33.9024 c 0.0000,-4.1748 -3.3843,-7.5591 -7.5591 -7.5591h -33.9024 c -4.1748,-0.0000 -7.5591,3.3843 -7.5591 7.5591l -0.0000,33.9024 c -0.0000,4.1748 3.3843,7.5591 7.5591 7.5591h 33.9024 c 4.1748,-0.0000 7.5591,-3.3843 7.5591 -7.5591Z"/></g><g stroke-linejoin="miter" stroke-opacity="1.0" fill-opacity="0.7" stroke="rgb(0,0,0)" stroke-width="0.37795275590551186" fill="rgb(0,0,0)" stroke-linecap="butt" stroke-miterlimit="10.0"><path d="M 131.2189,323.2882 l -0.0000,-55.4457 c 0.0000,-4.1748 -3.3843,-7.5591 -7.5591 -7.5591h -55.4457 c -4.1748,-0.0000 -7.5591,3.3843 -7.5591 7.5591l -0.0000,55.4457 c -0.0000,4.1748 3.3843,7.5591 7.5591 7.5591h 55.4457 c 4.1748,-0.0000 7.5591,-3.3843 7.5591 -7.5591Z"/></g><defs><linearGradient x2="5.0000" y1="0.0000" gradientUnits="userSpaceOnUse" spreadMethod="pad" gradientTransform="matrix(3.7795,-0.0000,0.0000,-3.7795,95.9370,295.5654)" id="gradient14" y2="0.0000" x1="-5.0000"><stop stop-opacity="0.1000" offset="0.0000" stop-color="rgb(0,0,0)"/><stop stop-opacity="0.1000" offset="0.5000" stop-color="rgb(255,255,255)"/><stop stop-opacity="0.1000" offset="1.0000" stop-color="rgb(0,0,0)"/></linearGradient></defs><g stroke-linejoin="miter" stroke-opacity="1.0" fill-opacity="1" stroke="rgb(0,0,0)" stroke-width="0.37795275590551186" fill="url(#gradient14)" stroke-linecap="butt" stroke-miterlimit="10.0"><path d="M 120.4472,312.5166 l -0.0000,-33.9024 c 0.0000,-4.1748 -3.3843,-7.5591 -7.5591 -7.5591h -33.9024 c -4.1748,-0.0000 -7.5591,3.3843 -7.5591 7.5591l -0.0000,33.9024 c -0.0000,4.1748 3.3843,7.5591 7.5591 7.5591h 33.9024 c 4.1748,-0.0000 7.5591,-3.3843 7.5591 -7.5591Z"/></g><g stroke-linejoin="miter" stroke-opacity="1.0" fill-opacity="0.7" stroke="rgb(0,0,0)" stroke-width="0.37795275590551186" fill="rgb(0,0,0)" stroke-linecap="butt" stroke-miterlimit="10.0"><path d="M 562.0850,136.2016 l -0.0000,-55.4457 c 0.0000,-4.1748 -3.3843,-7.5591 -7.5591 -7.5591h -55.4457 c -4.1748,-0.0000 -7.5591,3.3843 -7.5591 7.5591l -0.0000,55.4457 c -0.0000,4.1748 3.3843,7.5591 7.5591 7.5591h 55.4457 c 4.1748,-0.0000 7.5591,-3.3843 7.5591 -7.5591Z"/></g><defs><linearGradient x2="5.0000" y1="0.0000" gradientUnits="userSpaceOnUse" spreadMethod="pad" gradientTransform="matrix(3.7795,-0.0000,0.0000,-3.7795,526.8031,108.4788)" id="gradient18" y2="0.0000" x1="-5.0000"><stop stop-opacity="0.1000" offset="0.0000" stop-color="rgb(0,0,0)"/><stop stop-opacity="0.1000" offset="0.5000" stop-color="rgb(255,255,255)"/><stop stop-opacity="0.1000" offset="1.0000" stop-color="rgb(0,0,0)"/></linearGradient></defs><g stroke-linejoin="miter" stroke-opacity="1.0" fill-opacity="1" stroke="rgb(0,0,0)" stroke-width="0.37795275590551186" fill="url(#gradient18)" stroke-linecap="butt" stroke-miterlimit="10.0"><path d="M 551.3134,125.4299 l -0.0000,-33.9024 c 0.0000,-4.1748 -3.3843,-7.5591 -7.5591 -7.5591h -33.9024 c -4.1748,-0.0000 -7.5591,3.3843 -7.5591 7.5591l -0.0000,33.9024 c -0.0000,4.1748 3.3843,7.5591 7.5591 7.5591h 33.9024 c 4.1748,-0.0000 7.5591,-3.3843 7.5591 -7.5591Z"/></g><g stroke-linejoin="miter" stroke-opacity="1.0" fill-opacity="0.7" stroke="rgb(0,0,0)" stroke-width="0.37795275590551186" fill="rgb(0,0,0)" stroke-linecap="butt" stroke-miterlimit="10.0"><path d="M 562.0850,208.0126 l -0.0000,-55.4457 c 0.0000,-4.1748 -3.3843,-7.5591 -7.5591 -7.5591h -55.4457 c -4.1748,-0.0000 -7.5591,3.3843 -7.5591 7.5591l -0.0000,55.4457 c -0.0000,4.1748 3.3843,7.5591 7.5591 7.5591h 55.4457 c 4.1748,-0.0000 7.5591,-3.3843 7.5591 -7.5591Z"/></g><defs><linearGradient x2="5.0000" y1="0.0000" gradientUnits="userSpaceOnUse" spreadMethod="pad" gradientTransform="matrix(3.7795,-0.0000,0.0000,-3.7795,526.8031,180.2898)" id="gradient22" y2="0.0000" x1="-5.0000"><stop stop-opacity="0.1000" offset="0.0000" stop-color="rgb(0,0,0)"/><stop stop-opacity="0.1000" offset="0.5000" stop-color="rgb(255,255,255)"/><stop stop-opacity="0.1000" offset="1.0000" stop-color="rgb(0,0,0)"/></linearGradient></defs><g stroke-linejoin="miter" stroke-opacity="1.0" fill-opacity="1" stroke="rgb(0,0,0)" stroke-width="0.37795275590551186" fill="url(#gradient22)" stroke-linecap="butt" stroke-miterlimit="10.0"><path d="M 551.3134,197.2410 l -0.0000,-33.9024 c 0.0000,-4.1748 -3.3843,-7.5591 -7.5591 -7.5591h -33.9024 c -4.1748,-0.0000 -7.5591,3.3843 -7.5591 7.5591l -0.0000,33.9024 c -0.0000,4.1748 3.3843,7.5591 7.5591 7.5591h 33.9024 c 4.1748,-0.0000 7.5591,-3.3843 7.5591 -7.5591Z"/></g><g stroke-linejoin="miter" stroke-opacity="1.0" fill-opacity="0.7" stroke="rgb(0,0,0)" stroke-width="0.37795275590551186" fill="rgb(0,0,0)" stroke-linecap="butt" stroke-miterlimit="10.0"><path d="M 562.0850,279.8236 l -0.0000,-55.4457 c 0.0000,-4.1748 -3.3843,-7.5591 -7.5591 -7.5591h -55.4457 c -4.1748,-0.0000 -7.5591,3.3843 -7.5591 7.5591l -0.0000,55.4457 c -0.0000,4.1748 3.3843,7.5591 7.5591 7.5591h 55.4457 c 4.1748,-0.0000 7.5591,-3.3843 7.5591 -7.5591Z"/></g><defs><linearGradient x2="5.0000" y1="0.0000" gradientUnits="userSpaceOnUse" spreadMethod="pad" gradientTransform="matrix(3.7795,-0.0000,0.0000,-3.7795,526.8031,252.1008)" id="gradient26" y2="0.0000" x1="-5.0000"><stop stop-opacity="0.1000" offset="0.0000" stop-color="rgb(0,0,0)"/><stop stop-opacity="0.1000" offset="0.5000" stop-color="rgb(255,255,255)"/><stop stop-opacity="0.1000" offset="1.0000" stop-color="rgb(0,0,0)"/></linearGradient></defs><g stroke-linejoin="miter" stroke-opacity="1.0" fill-opacity="1" stroke="rgb(0,0,0)" stroke-width="0.37795275590551186" fill="url(#gradient26)" stroke-linecap="butt" stroke-miterlimit="10.0"><path d="M 551.3134,269.0520 l -0.0000,-33.9024 c 0.0000,-4.1748 -3.3843,-7.5591 -7.5591 -7.5591h -33.9024 c -4.1748,-0.0000 -7.5591,3.3843 -7.5591 7.5591l -0.0000,33.9024 c -0.0000,4.1748 3.3843,7.5591 7.5591 7.5591h 33.9024 c 4.1748,-0.0000 7.5591,-3.3843 7.5591 -7.5591Z"/></g><g stroke-linejoin="miter" stroke-opacity="1.0" fill-opacity="0.7" stroke="rgb(0,0,0)" stroke-width="0.37795275590551186" fill="rgb(0,0,0)" stroke-linecap="butt" stroke-miterlimit="10.0"><path d="M 562.0850,351.6347 l -0.0000,-55.4457 c 0.0000,-4.1748 -3.3843,-7.5591 -7.5591 -7.5591h -55.4457 c -4.1748,-0.0000 -7.5591,3.3843 -7.5591 7.5591l -0.0000,55.4457 c -0.0000,4.1748 3.3843,7.5591 7.5591 7.5591h 55.4457 c 4.1748,-0.0000 7.5591,-3.3843 7.5591 -7.5591Z"/></g><defs><linearGradient x2="5.0000" y1="0.0000" gradientUnits="userSpaceOnUse" spreadMethod="pad" gradientTransform="matrix(3.7795,-0.0000,0.0000,-3.7795,526.8031,323.9118)" id="gradient30" y2="0.0000" x1="-5.0000"><stop stop-opacity="0.1000" offset="0.0000" stop-color="rgb(0,0,0)"/><stop stop-opacity="0.1000" offset="0.5000" stop-color="rgb(255,255,255)"/><stop stop-opacity="0.1000" offset="1.0000" stop-color="rgb(0,0,0)"/></linearGradient></defs><g stroke-linejoin="miter" stroke-opacity="1.0" fill-opacity="1" stroke="rgb(0,0,0)" stroke-width="0.37795275590551186" fill="url(#gradient30)" stroke-linecap="butt" stroke-miterlimit="10.0"><path d="M 551.3134,340.8630 l -0.0000,-33.9024 c 0.0000,-4.1748 -3.3843,-7.5591 -7.5591 -7.5591h -33.9024 c -4.1748,-0.0000 -7.5591,3.3843 -7.5591 7.5591l -0.0000,33.9024 c -0.0000,4.1748 3.3843,7.5591 7.5591 7.5591h 33.9024 c 4.1748,-0.0000 7.5591,-3.3843 7.5591 -7.5591Z"/></g><g stroke-linejoin="miter" stroke-opacity="1.0" fill-opacity="0.7" stroke="rgb(0,0,0)" stroke-width="0.37795275590551186" fill="rgb(0,0,0)" stroke-linecap="butt" stroke-miterlimit="10.0"><path d="M 490.2740,132.4221 l -0.0000,-55.4457 c 0.0000,-4.1748 -3.3843,-7.5591 -7.5591 -7.5591h -55.4457 c -4.1748,-0.0000 -7.5591,3.3843 -7.5591 7.5591l -0.0000,55.4457 c -0.0000,4.1748 3.3843,7.5591 7.5591 7.5591h 55.4457 c 4.1748,-0.0000 7.5591,-3.3843 7.5591 -7.5591Z"/></g><defs><linearGradient x2="5.0000" y1="0.0000" gradientUnits="userSpaceOnUse" spreadMethod="pad" gradientTransform="matrix(3.7795,-0.0000,0.0000,-3.7795,454.9921,104.6992)" id="gradient34" y2="0.0000" x1="-5.0000"><stop stop-opacity="0.1000" offset="0.0000" stop-color="rgb(0,0,0)"/><stop stop-opacity="0.1000" offset="0.5000" stop-color="rgb(255,255,255)"/><stop stop-opacity="0.1000" offset="1.0000" stop-color="rgb(0,0,0)"/></linearGradient></defs><g stroke-linejoin="miter" stroke-opacity="1.0" fill-opacity="1" stroke="rgb(0,0,0)" stroke-width="0.37795275590551186" fill="url(#gradient34)" stroke-linecap="butt" stroke-miterlimit="10.0"><path d="M 479.5024,121.6504 l -0.0000,-33.9024 c 0.0000,-4.1748 -3.3843,-7.5591 -7.5591 -7.5591h -33.9024 c -4.1748,-0.0000 -7.5591,3.3843 -7.5591 7.5591l -0.0000,33.9024 c -0.0000,4.1748 3.3843,7.5591 7.5591 7.5591h 33.9024 c 4.1748,-0.0000 7.5591,-3.3843 7.5591 -7.5591Z"/></g><g stroke-linejoin="miter" stroke-opacity="1.0" fill-opacity="0.7" stroke="rgb(0,0,0)" stroke-width="0.37795275590551186" fill="rgb(0,0,0)" stroke-linecap="butt" stroke-miterlimit="10.0"><path d="M 490.2740,204.2331 l -0.0000,-55.4457 c 0.0000,-4.1748 -3.3843,-7.5591 -7.5591 -7.5591h -55.4457 c -4.1748,-0.0000 -7.5591,3.3843 -7.5591 7.5591l -0.0000,55.4457 c -0.0000,4.1748 3.3843,7.5591 7.5591 7.5591h 55.4457 c 4.1748,-0.0000 7.5591,-3.3843 7.5591 -7.5591Z"/></g><defs><linearGradient x2="5.0000" y1="0.0000" gradientUnits="userSpaceOnUse" spreadMethod="pad" gradientTransform="matrix(3.7795,-0.0000,0.0000,-3.7795,454.9921,176.5103)" id="gradient38" y2="0.0000" x1="-5.0000"><stop stop-opacity="0.1000" offset="0.0000" stop-color="rgb(0,0,0)"/><stop stop-opacity="0.1000" offset="0.5000" stop-color="rgb(255,255,255)"/><stop stop-opacity="0.1000" offset="1.0000" stop-color="rgb(0,0,0)"/></linearGradient></defs><g stroke-linejoin="miter" stroke-opacity="1.0" fill-opacity="1" stroke="rgb(0,0,0)" stroke-width="0.37795275590551186" fill="url(#gradient38)" stroke-linecap="butt" stroke-miterlimit="10.0"><path d="M 479.5024,193.4614 l -0.0000,-33.9024 c 0.0000,-4.1748 -3.3843,-7.5591 -7.5591 -7.5591h -33.9024 c -4.1748,-0.0000 -7.5591,3.3843 -7.5591 7.5591l -0.0000,33.9024 c -0.0000,4.1748 3.3843,7.5591 7.5591 7.5591h 33.9024 c 4.1748,-0.0000 7.5591,-3.3843 7.5591 -7.5591Z"/></g><g stroke-linejoin="miter" stroke-opacity="1.0" fill-opacity="0.7" stroke="rgb(0,0,0)" stroke-width="0.37795275590551186" fill="rgb(0,0,0)" stroke-linecap="butt" stroke-miterlimit="10.0"><path d="M 490.2740,276.0441 l -0.0000,-55.4457 c 0.0000,-4.1748 -3.3843,-7.5591 -7.5591 -7.5591h -55.4457 c -4.1748,-0.0000 -7.5591,3.3843 -7.5591 7.5591l -0.0000,55.4457 c -0.0000,4.1748 3.3843,7.5591 7.5591 7.5591h 55.4457 c 4.1748,-0.0000 7.5591,-3.3843 7.5591 -7.5591Z"/></g><defs><linearGradient x2="5.0000" y1="0.0000" gradientUnits="userSpaceOnUse" spreadMethod="pad" gradientTransform="matrix(3.7795,-0.0000,0.0000,-3.7795,454.9921,248.3213)" id="gradient42" y2="0.0000" x1="-5.0000"><stop stop-opacity="0.1000" offset="0.0000" stop-color="rgb(0,0,0)"/><stop stop-opacity="0.1000" offset="0.5000" stop-color="rgb(255,255,255)"/><stop stop-opacity="0.1000" offset="1.0000" stop-color="rgb(0,0,0)"/></linearGradient></defs><g stroke-linejoin="miter" stroke-opacity="1.0" fill-opacity="1" stroke="rgb(0,0,0)" stroke-width="0.37795275590551186" fill="url(#gradient42)" stroke-linecap="butt" stroke-miterlimit="10.0"><path d="M 479.5024,265.2725 l -0.0000,-33.9024 c 0.0000,-4.1748 -3.3843,-7.5591 -7.5591 -7.5591h -33.9024 c -4.1748,-0.0000 -7.5591,3.3843 -7.5591 7.5591l -0.0000,33.9024 c -0.0000,4.1748 3.3843,7.5591 7.5591 7.5591h 33.9024 c 4.1748,-0.0000 7.5591,-3.3843 7.5591 -7.5591Z"/></g><g stroke-linejoin="miter" stroke-opacity="1.0" fill-opacity="0.7" stroke="rgb(0,0,0)" stroke-width="0.37795275590551186" fill="rgb(0,0,0)" stroke-linecap="butt" stroke-miterlimit="10.0"><path d="M 490.2740,347.8551 l -0.0000,-55.4457 c 0.0000,-4.1748 -3.3843,-7.5591 -7.5591 -7.5591h -55.4457 c -4.1748,-0.0000 -7.5591,3.3843 -7.5591 7.5591l -0.0000,55.4457 c -0.0000,4.1748 3.3843,7.5591 7.5591 7.5591h 55.4457 c 4.1748,-0.0000 7.5591,-3.3843 7.5591 -7.5591Z"/></g><defs><linearGradient x2="5.0000" y1="0.0000" gradientUnits="userSpaceOnUse" spreadMethod="pad" gradientTransform="matrix(3.7795,-0.0000,0.0000,-3.7795,454.9921,320.1323)" id="gradient46" y2="0.0000" x1="-5.0000"><stop stop-opacity="0.1000" offset="0.0000" stop-color="rgb(0,0,0)"/><stop stop-opacity="0.1000" offset="0.5000" stop-color="rgb(255,255,255)"/><stop stop-opacity="0.1000" offset="1.0000" stop-color="rgb(0,0,0)"/></linearGradient></defs><g stroke-linejoin="miter" stroke-opacity="1.0" fill-opacity="1" stroke="rgb(0,0,0)" stroke-width="0.37795275590551186" fill="url(#gradient46)" stroke-linecap="butt" stroke-miterlimit="10.0"><path d="M 479.5024,337.0835 l -0.0000,-33.9024 c 0.0000,-4.1748 -3.3843,-7.5591 -7.5591 -7.5591h -33.9024 c -4.1748,-0.0000 -7.5591,3.3843 -7.5591 7.5591l -0.0000,33.9024 c -0.0000,4.1748 3.3843,7.5591 7.5591 7.5591h 33.9024 c 4.1748,-0.0000 7.5591,-3.3843 7.5591 -7.5591Z"/></g><g stroke-linejoin="miter" stroke-opacity="1.0" fill-opacity="0.7" stroke="rgb(0,0,0)" stroke-width="0.37795275590551186" fill="rgb(0,0,0)" stroke-linecap="butt" stroke-miterlimit="10.0"><path d="M 418.4630,121.0835 l -0.0000,-55.4457 c 0.0000,-4.1748 -3.3843,-7.5591 -7.5591 -7.5591h -55.4457 c -4.1748,-0.0000 -7.5591,3.3843 -7.5591 7.5591l -0.0000,55.4457 c -0.0000,4.1748 3.3843,7.5591 7.5591 7.5591h 55.4457 c 4.1748,-0.0000 7.5591,-3.3843 7.5591 -7.5591Z"/></g><defs><linearGradient x2="5.0000" y1="0.0000" gradientUnits="userSpaceOnUse" spreadMethod="pad" gradientTransform="matrix(3.7795,-0.0000,0.0000,-3.7795,383.1811,93.3606)" id="gradient50" y2="0.0000" x1="-5.0000"><stop stop-opacity="0.1000" offset="0.0000" stop-color="rgb(0,0,0)"/><stop stop-opacity="0.1000" offset="0.5000" stop-color="rgb(255,255,255)"/><stop stop-opacity="0.1000" offset="1.0000" stop-color="rgb(0,0,0)"/></linearGradient></defs><g stroke-linejoin="miter" stroke-opacity="1.0" fill-opacity="1" stroke="rgb(0,0,0)" stroke-width="0.37795275590551186" fill="url(#gradient50)" stroke-linecap="butt" stroke-miterlimit="10.0"><path d="M 407.6913,110.3118 l -0.0000,-33.9024 c 0.0000,-4.1748 -3.3843,-7.5591 -7.5591 -7.5591h -33.9024 c -4.1748,-0.0000 -7.5591,3.3843 -7.5591 7.5591l -0.0000,33.9024 c -0.0000,4.1748 3.3843,7.5591 7.5591 7.5591h 33.9024 c 4.1748,-0.0000 7.5591,-3.3843 7.5591 -7.5591Z"/></g><g stroke-linejoin="miter" stroke-opacity="1.0" fill-opacity="0.7" stroke="rgb(0,0,0)" stroke-width="0.37795275590551186" fill="rgb(0,0,0)" stroke-linecap="butt" stroke-miterlimit="10.0"><path d="M 418.4630,192.8945 l -0.0000,-55.4457 c 0.0000,-4.1748 -3.3843,-7.5591 -7.5591 -7.5591h -55.4457 c -4.1748,-0.0000 -7.5591,3.3843 -7.5591 7.5591l -0.0000,55.4457 c -0.0000,4.1748 3.3843,7.5591 7.5591 7.5591h 55.4457 c 4.1748,-0.0000 7.5591,-3.3843 7.5591 -7.5591Z"/></g><defs><linearGradient x2="5.0000" y1="0.0000" gradientUnits="userSpaceOnUse" spreadMethod="pad" gradientTransform="matrix(3.7795,-0.0000,0.0000,-3.7795,383.1811,165.1717)" id="gradient54" y2="0.0000" x1="-5.0000"><stop stop-opacity="0.1000" offset="0.0000" stop-color="rgb(0,0,0)"/><stop stop-opacity="0.1000" offset="0.5000" stop-color="rgb(255,255,255)"/><stop stop-opacity="0.1000" offset="1.0000" stop-color="rgb(0,0,0)"/></linearGradient></defs><g stroke-linejoin="miter" stroke-opacity="1.0" fill-opacity="1" stroke="rgb(0,0,0)" stroke-width="0.37795275590551186" fill="url(#gradient54)" stroke-linecap="butt" stroke-miterlimit="10.0"><path d="M 407.6913,182.1229 l -0.0000,-33.9024 c 0.0000,-4.1748 -3.3843,-7.5591 -7.5591 -7.5591h -33.9024 c -4.1748,-0.0000 -7.5591,3.3843 -7.5591 7.5591l -0.0000,33.9024 c -0.0000,4.1748 3.3843,7.5591 7.5591 7.5591h 33.9024 c 4.1748,-0.0000 7.5591,-3.3843 7.5591 -7.5591Z"/></g><g stroke-linejoin="miter" stroke-opacity="1.0" fill-opacity="0.7" stroke="rgb(0,0,0)" stroke-width="0.37795275590551186" fill="rgb(0,0,0)" stroke-linecap="butt" stroke-miterlimit="10.0"><path d="M 418.4630,264.7055 l -0.0000,-55.4457 c 0.0000,-4.1748 -3.3843,-7.5591 -7.5591 -7.5591h -55.4457 c -4.1748,-0.0000 -7.5591,3.3843 -7.5591 7.5591l -0.0000,55.4457 c -0.0000,4.1748 3.3843,7.5591 7.5591 7.5591h 55.4457 c 4.1748,-0.0000 7.5591,-3.3843 7.5591 -7.5591Z"/></g><defs><linearGradient x2="5.0000" y1="0.0000" gradientUnits="userSpaceOnUse" spreadMethod="pad" gradientTransform="matrix(3.7795,-0.0000,0.0000,-3.7795,383.1811,236.9827)" id="gradient58" y2="0.0000" x1="-5.0000"><stop stop-opacity="0.1000" offset="0.0000" stop-color="rgb(0,0,0)"/><stop stop-opacity="0.1000" offset="0.5000" stop-color="rgb(255,255,255)"/><stop stop-opacity="0.1000" offset="1.0000" stop-color="rgb(0,0,0)"/></linearGradient></defs><g stroke-linejoin="miter" stroke-opacity="1.0" fill-opacity="1" stroke="rgb(0,0,0)" stroke-width="0.37795275590551186" fill="url(#gradient58)" stroke-linecap="butt" stroke-miterlimit="10.0"><path d="M 407.6913,253.9339 l -0.0000,-33.9024 c 0.0000,-4.1748 -3.3843,-7.5591 -7.5591 -7.5591h -33.9024 c -4.1748,-0.0000 -7.5591,3.3843 -7.5591 7.5591l -0.0000,33.9024 c -0.0000,4.1748 3.3843,7.5591 7.5591 7.5591h 33.9024 c 4.1748,-0.0000 7.5591,-3.3843 7.5591 -7.5591Z"/></g><g stroke-linejoin="miter" stroke-opacity="1.0" fill-opacity="0.7" stroke="rgb(0,0,0)" stroke-width="0.37795275590551186" fill="rgb(0,0,0)" stroke-linecap="butt" stroke-miterlimit="10.0"><path d="M 418.4630,336.5166 l -0.0000,-55.4457 c 0.0000,-4.1748 -3.3843,-7.5591 -7.5591 -7.5591h -55.4457 c -4.1748,-0.0000 -7.5591,3.3843 -7.5591 7.5591l -0.0000,55.4457 c -0.0000,4.1748 3.3843,7.5591 7.5591 7.5591h 55.4457 c 4.1748,-0.0000 7.5591,-3.3843 7.5591 -7.5591Z"/></g><defs><linearGradient x2="5.0000" y1="0.0000" gradientUnits="userSpaceOnUse" spreadMethod="pad" gradientTransform="matrix(3.7795,-0.0000,0.0000,-3.7795,383.1811,308.7937)" id="gradient62" y2="0.0000" x1="-5.0000"><stop stop-opacity="0.1000" offset="0.0000" stop-color="rgb(0,0,0)"/><stop stop-opacity="0.1000" offset="0.5000" stop-color="rgb(255,255,255)"/><stop stop-opacity="0.1000" offset="1.0000" stop-color="rgb(0,0,0)"/></linearGradient></defs><g stroke-linejoin="miter" stroke-opacity="1.0" fill-opacity="1" stroke="rgb(0,0,0)" stroke-width="0.37795275590551186" fill="url(#gradient62)" stroke-linecap="butt" stroke-miterlimit="10.0"><path d="M 407.6913,325.7449 l -0.0000,-33.9024 c 0.0000,-4.1748 -3.3843,-7.5591 -7.5591 -7.5591h -33.9024 c -4.1748,-0.0000 -7.5591,3.3843 -7.5591 7.5591l -0.0000,33.9024 c -0.0000,4.1748 3.3843,7.5591 7.5591 7.5591h 33.9024 c 4.1748,-0.0000 7.5591,-3.3843 7.5591 -7.5591Z"/></g><g stroke-linejoin="miter" stroke-opacity="1.0" fill-opacity="0.7" stroke="rgb(0,0,0)" stroke-width="0.37795275590551186" fill="rgb(0,0,0)" stroke-linecap="butt" stroke-miterlimit="10.0"><path d="M 346.6520,102.1858 l -0.0000,-55.4457 c 0.0000,-4.1748 -3.3843,-7.5591 -7.5591 -7.5591h -55.4457 c -4.1748,-0.0000 -7.5591,3.3843 -7.5591 7.5591l -0.0000,55.4457 c -0.0000,4.1748 3.3843,7.5591 7.5591 7.5591h 55.4457 c 4.1748,-0.0000 7.5591,-3.3843 7.5591 -7.5591Z"/></g><defs><linearGradient x2="5.0000" y1="0.0000" gradientUnits="userSpaceOnUse" spreadMethod="pad" gradientTransform="matrix(3.7795,-0.0000,0.0000,-3.7795,311.3701,74.4630)" id="gradient66" y2="0.0000" x1="-5.0000"><stop stop-opacity="0.1000" offset="0.0000" stop-color="rgb(0,0,0)"/><stop stop-opacity="0.1000" offset="0.5000" stop-color="rgb(255,255,255)"/><stop stop-opacity="0.1000" offset="1.0000" stop-color="rgb(0,0,0)"/></linearGradient></defs><g stroke-linejoin="miter" stroke-opacity="1.0" fill-opacity="1" stroke="rgb(0,0,0)" stroke-width="0.37795275590551186" fill="url(#gradient66)" stroke-linecap="butt" stroke-miterlimit="10.0"><path d="M 335.8803,91.4142 l -0.0000,-33.9024 c 0.0000,-4.1748 -3.3843,-7.5591 -7.5591 -7.5591h -33.9024 c -4.1748,-0.0000 -7.5591,3.3843 -7.5591 7.5591l -0.0000,33.9024 c -0.0000,4.1748 3.3843,7.5591 7.5591 7.5591h 33.9024 c 4.1748,-0.0000 7.5591,-3.3843 7.5591 -7.5591Z"/></g><g stroke-linejoin="miter" stroke-opacity="1.0" fill-opacity="0.7" stroke="rgb(0,0,0)" stroke-width="0.37795275590551186" fill="rgb(0,0,0)" stroke-linecap="butt" stroke-miterlimit="10.0"><path d="M 346.6520,173.9969 l -0.0000,-55.4457 c 0.0000,-4.1748 -3.3843,-7.5591 -7.5591 -7.5591h -55.4457 c -4.1748,-0.0000 -7.5591,3.3843 -7.5591 7.5591l -0.0000,55.4457 c -0.0000,4.1748 3.3843,7.5591 7.5591 7.5591h 55.4457 c 4.1748,-0.0000 7.5591,-3.3843 7.5591 -7.5591Z"/></g><defs><linearGradient x2="5.0000" y1="0.0000" gradientUnits="userSpaceOnUse" spreadMethod="pad" gradientTransform="matrix(3.7795,-0.0000,0.0000,-3.7795,311.3701,146.2740)" id="gradient70" y2="0.0000" x1="-5.0000"><stop stop-opacity="0.1000" offset="0.0000" stop-color="rgb(0,0,0)"/><stop stop-opacity="0.1000" offset="0.5000" stop-color="rgb(255,255,255)"/><stop stop-opacity="0.1000" offset="1.0000" stop-color="rgb(0,0,0)"/></linearGradient></defs><g stroke-linejoin="miter" stroke-opacity="1.0" fill-opacity="1" stroke="rgb(0,0,0)" stroke-width="0.37795275590551186" fill="url(#gradient70)" stroke-linecap="butt" stroke-miterlimit="10.0"><path d="M 335.8803,163.2252 l -0.0000,-33.9024 c 0.0000,-4.1748 -3.3843,-7.5591 -7.5591 -7.5591h -33.9024 c -4.1748,-0.0000 -7.5591,3.3843 -7.5591 7.5591l -0.0000,33.9024 c -0.0000,4.1748 3.3843,7.5591 7.5591 7.5591h 33.9024 c 4.1748,-0.0000 7.5591,-3.3843 7.5591 -7.5591Z"/></g><g stroke-linejoin="miter" stroke-opacity="1.0" fill-opacity="0.7" stroke="rgb(0,0,0)" stroke-width="0.37795275590551186" fill="rgb(0,0,0)" stroke-linecap="butt" stroke-miterlimit="10.0"><path d="M 346.6520,245.8079 l -0.0000,-55.4457 c 0.0000,-4.1748 -3.3843,-7.5591 -7.5591 -7.5591h -55.4457 c -4.1748,-0.0000 -7.5591,3.3843 -7.5591 7.5591l -0.0000,55.4457 c -0.0000,4.1748 3.3843,7.5591 7.5591 7.5591h 55.4457 c 4.1748,-0.0000 7.5591,-3.3843 7.5591 -7.5591Z"/></g><defs><linearGradient x2="5.0000" y1="0.0000" gradientUnits="userSpaceOnUse" spreadMethod="pad" gradientTransform="matrix(3.7795,-0.0000,0.0000,-3.7795,311.3701,218.0851)" id="gradient74" y2="0.0000" x1="-5.0000"><stop stop-opacity="0.1000" offset="0.0000" stop-color="rgb(0,0,0)"/><stop stop-opacity="0.1000" offset="0.5000" stop-color="rgb(255,255,255)"/><stop stop-opacity="0.1000" offset="1.0000" stop-color="rgb(0,0,0)"/></linearGradient></defs><g stroke-linejoin="miter" stroke-opacity="1.0" fill-opacity="1" stroke="rgb(0,0,0)" stroke-width="0.37795275590551186" fill="url(#gradient74)" stroke-linecap="butt" stroke-miterlimit="10.0"><path d="M 335.8803,235.0362 l -0.0000,-33.9024 c 0.0000,-4.1748 -3.3843,-7.5591 -7.5591 -7.5591h -33.9024 c -4.1748,-0.0000 -7.5591,3.3843 -7.5591 7.5591l -0.0000,33.9024 c -0.0000,4.1748 3.3843,7.5591 7.5591 7.5591h 33.9024 c 4.1748,-0.0000 7.5591,-3.3843 7.5591 -7.5591Z"/></g><g stroke-linejoin="miter" stroke-opacity="1.0" fill-opacity="0.7" stroke="rgb(0,0,0)" stroke-width="0.37795275590551186" fill="rgb(0,0,0)" stroke-linecap="butt" stroke-miterlimit="10.0"><path d="M 346.6520,317.6189 l -0.0000,-55.4457 c 0.0000,-4.1748 -3.3843,-7.5591 -7.5591 -7.5591h -55.4457 c -4.1748,-0.0000 -7.5591,3.3843 -7.5591 7.5591l -0.0000,55.4457 c -0.0000,4.1748 3.3843,7.5591 7.5591 7.5591h 55.4457 c 4.1748,-0.0000 7.5591,-3.3843 7.5591 -7.5591Z"/></g><defs><linearGradient x2="5.0000" y1="0.0000" gradientUnits="userSpaceOnUse" spreadMethod="pad" gradientTransform="matrix(3.7795,-0.0000,0.0000,-3.7795,311.3701,289.8961)" id="gradient78" y2="0.0000" x1="-5.0000"><stop stop-opacity="0.1000" offset="0.0000" stop-color="rgb(0,0,0)"/><stop stop-opacity="0.1000" offset="0.5000" stop-color="rgb(255,255,255)"/><stop stop-opacity="0.1000" offset="1.0000" stop-color="rgb(0,0,0)"/></linearGradient></defs><g stroke-linejoin="miter" stroke-opacity="1.0" fill-opacity="1" stroke="rgb(0,0,0)" stroke-width="0.37795275590551186" fill="url(#gradient78)" stroke-linecap="butt" stroke-miterlimit="10.0"><path d="M 335.8803,306.8473 l -0.0000,-33.9024 c 0.0000,-4.1748 -3.3843,-7.5591 -7.5591 -7.5591h -33.9024 c -4.1748,-0.0000 -7.5591,3.3843 -7.5591 7.5591l -0.0000,33.9024 c -0.0000,4.1748 3.3843,7.5591 7.5591 7.5591h 33.9024 c 4.1748,-0.0000 7.5591,-3.3843 7.5591 -7.5591Z"/></g><g stroke-linejoin="miter" stroke-opacity="1.0" fill-opacity="0.7" stroke="rgb(0,0,0)" stroke-width="0.37795275590551186" fill="rgb(0,0,0)" stroke-linecap="butt" stroke-miterlimit="10.0"><path d="M 274.8409,124.8630 l -0.0000,-55.4457 c 0.0000,-4.1748 -3.3843,-7.5591 -7.5591 -7.5591h -55.4457 c -4.1748,-0.0000 -7.5591,3.3843 -7.5591 7.5591l -0.0000,55.4457 c -0.0000,4.1748 3.3843,7.5591 7.5591 7.5591h 55.4457 c 4.1748,-0.0000 7.5591,-3.3843 7.5591 -7.5591Z"/></g><defs><linearGradient x2="5.0000" y1="0.0000" gradientUnits="userSpaceOnUse" spreadMethod="pad" gradientTransform="matrix(3.7795,-0.0000,0.0000,-3.7795,239.5590,97.1402)" id="gradient82" y2="0.0000" x1="-5.0000"><stop stop-opacity="0.1000" offset="0.0000" stop-color="rgb(0,0,0)"/><stop stop-opacity="0.1000" offset="0.5000" stop-color="rgb(255,255,255)"/><stop stop-opacity="0.1000" offset="1.0000" stop-color="rgb(0,0,0)"/></linearGradient></defs><g stroke-linejoin="miter" stroke-opacity="1.0" fill-opacity="1" stroke="rgb(0,0,0)" stroke-width="0.37795275590551186" fill="url(#gradient82)" stroke-linecap="butt" stroke-miterlimit="10.0"><path d="M 264.0693,114.0914 l -0.0000,-33.9024 c 0.0000,-4.1748 -3.3843,-7.5591 -7.5591 -7.5591h -33.9024 c -4.1748,-0.0000 -7.5591,3.3843 -7.5591 7.5591l -0.0000,33.9024 c -0.0000,4.1748 3.3843,7.5591 7.5591 7.5591h 33.9024 c 4.1748,-0.0000 7.5591,-3.3843 7.5591 -7.5591Z"/></g><g stroke-linejoin="miter" stroke-opacity="1.0" fill-opacity="0.7" stroke="rgb(0,0,0)" stroke-width="0.37795275590551186" fill="rgb(0,0,0)" stroke-linecap="butt" stroke-miterlimit="10.0"><path d="M 274.8409,196.6740 l -0.0000,-55.4457 c 0.0000,-4.1748 -3.3843,-7.5591 -7.5591 -7.5591h -55.4457 c -4.1748,-0.0000 -7.5591,3.3843 -7.5591 7.5591l -0.0000,55.4457 c -0.0000,4.1748 3.3843,7.5591 7.5591 7.5591h 55.4457 c 4.1748,-0.0000 7.5591,-3.3843 7.5591 -7.5591Z"/></g><defs><linearGradient x2="5.0000" y1="0.0000" gradientUnits="userSpaceOnUse" spreadMethod="pad" gradientTransform="matrix(3.7795,-0.0000,0.0000,-3.7795,239.5590,168.9512)" id="gradient86" y2="0.0000" x1="-5.0000"><stop stop-opacity="0.1000" offset="0.0000" stop-color="rgb(0,0,0)"/><stop stop-opacity="0.1000" offset="0.5000" stop-color="rgb(255,255,255)"/><stop stop-opacity="0.1000" offset="1.0000" stop-color="rgb(0,0,0)"/></linearGradient></defs><g stroke-linejoin="miter" stroke-opacity="1.0" fill-opacity="1" stroke="rgb(0,0,0)" stroke-width="0.37795275590551186" fill="url(#gradient86)" stroke-linecap="butt" stroke-miterlimit="10.0"><path d="M 264.0693,185.9024 l -0.0000,-33.9024 c 0.0000,-4.1748 -3.3843,-7.5591 -7.5591 -7.5591h -33.9024 c -4.1748,-0.0000 -7.5591,3.3843 -7.5591 7.5591l -0.0000,33.9024 c -0.0000,4.1748 3.3843,7.5591 7.5591 7.5591h 33.9024 c 4.1748,-0.0000 7.5591,-3.3843 7.5591 -7.5591Z"/></g><g stroke-linejoin="miter" stroke-opacity="1.0" fill-opacity="0.7" stroke="rgb(0,0,0)" stroke-width="0.37795275590551186" fill="rgb(0,0,0)" stroke-linecap="butt" stroke-miterlimit="10.0"><path d="M 274.8409,268.4851 l -0.0000,-55.4457 c 0.0000,-4.1748 -3.3843,-7.5591 -7.5591 -7.5591h -55.4457 c -4.1748,-0.0000 -7.5591,3.3843 -7.5591 7.5591l -0.0000,55.4457 c -0.0000,4.1748 3.3843,7.5591 7.5591 7.5591h 55.4457 c 4.1748,-0.0000 7.5591,-3.3843 7.5591 -7.5591Z"/></g><defs><linearGradient x2="5.0000" y1="0.0000" gradientUnits="userSpaceOnUse" spreadMethod="pad" gradientTransform="matrix(3.7795,-0.0000,0.0000,-3.7795,239.5590,240.7622)" id="gradient90" y2="0.0000" x1="-5.0000"><stop stop-opacity="0.1000" offset="0.0000" stop-color="rgb(0,0,0)"/><stop stop-opacity="0.1000" offset="0.5000" stop-color="rgb(255,255,255)"/><stop stop-opacity="0.1000" offset="1.0000" stop-color="rgb(0,0,0)"/></linearGradient></defs><g stroke-linejoin="miter" stroke-opacity="1.0" fill-opacity="1" stroke="rgb(0,0,0)" stroke-width="0.37795275590551186" fill="url(#gradient90)" stroke-linecap="butt" stroke-miterlimit="10.0"><path d="M 264.0693,257.7134 l -0.0000,-33.9024 c 0.0000,-4.1748 -3.3843,-7.5591 -7.5591 -7.5591h -33.9024 c -4.1748,-0.0000 -7.5591,3.3843 -7.5591 7.5591l -0.0000,33.9024 c -0.0000,4.1748 3.3843,7.5591 7.5591 7.5591h 33.9024 c 4.1748,-0.0000 7.5591,-3.3843 7.5591 -7.5591Z"/></g><g stroke-linejoin="miter" stroke-opacity="1.0" fill-opacity="0.7" stroke="rgb(0,0,0)" stroke-width="0.37795275590551186" fill="rgb(0,0,0)" stroke-linecap="butt" stroke-miterlimit="10.0"><path d="M 274.8409,340.2961 l -0.0000,-55.4457 c 0.0000,-4.1748 -3.3843,-7.5591 -7.5591 -7.5591h -55.4457 c -4.1748,-0.0000 -7.5591,3.3843 -7.5591 7.5591l -0.0000,55.4457 c -0.0000,4.1748 3.3843,7.5591 7.5591 7.5591h 55.4457 c 4.1748,-0.0000 7.5591,-3.3843 7.5591 -7.5591Z"/></g><defs><linearGradient x2="5.0000" y1="0.0000" gradientUnits="userSpaceOnUse" spreadMethod="pad" gradientTransform="matrix(3.7795,-0.0000,0.0000,-3.7795,239.5590,312.5732)" id="gradient94" y2="0.0000" x1="-5.0000"><stop stop-opacity="0.1000" offset="0.0000" stop-color="rgb(0,0,0)"/><stop stop-opacity="0.1000" offset="0.5000" stop-color="rgb(255,255,255)"/><stop stop-opacity="0.1000" offset="1.0000" stop-color="rgb(0,0,0)"/></linearGradient></defs><g stroke-linejoin="miter" stroke-opacity="1.0" fill-opacity="1" stroke="rgb(0,0,0)" stroke-width="0.37795275590551186" fill="url(#gradient94)" stroke-linecap="butt" stroke-miterlimit="10.0"><path d="M 264.0693,329.5244 l -0.0000,-33.9024 c 0.0000,-4.1748 -3.3843,-7.5591 -7.5591 -7.5591h -33.9024 c -4.1748,-0.0000 -7.5591,3.3843 -7.5591 7.5591l -0.0000,33.9024 c -0.0000,4.1748 3.3843,7.5591 7.5591 7.5591h 33.9024 c 4.1748,-0.0000 7.5591,-3.3843 7.5591 -7.5591Z"/></g><g stroke-linejoin="miter" stroke-opacity="1.0" fill-opacity="0.7" stroke="rgb(0,0,0)" stroke-width="0.37795275590551186" fill="rgb(0,0,0)" stroke-linecap="butt" stroke-miterlimit="10.0"><path d="M 203.0299,143.7606 l -0.0000,-55.4457 c 0.0000,-4.1748 -3.3843,-7.5591 -7.5591 -7.5591h -55.4457 c -4.1748,-0.0000 -7.5591,3.3843 -7.5591 7.5591l -0.0000,55.4457 c -0.0000,4.1748 3.3843,7.5591 7.5591 7.5591h 55.4457 c 4.1748,-0.0000 7.5591,-3.3843 7.5591 -7.5591Z"/></g><defs><linearGradient x2="5.0000" y1="0.0000" gradientUnits="userSpaceOnUse" spreadMethod="pad" gradientTransform="matrix(3.7795,-0.0000,0.0000,-3.7795,167.7480,116.0378)" id="gradient98" y2="0.0000" x1="-5.0000"><stop stop-opacity="0.1000" offset="0.0000" stop-color="rgb(0,0,0)"/><stop stop-opacity="0.1000" offset="0.5000" stop-color="rgb(255,255,255)"/><stop stop-opacity="0.1000" offset="1.0000" stop-color="rgb(0,0,0)"/></linearGradient></defs><g stroke-linejoin="miter" stroke-opacity="1.0" fill-opacity="1" stroke="rgb(0,0,0)" stroke-width="0.37795275590551186" fill="url(#gradient98)" stroke-linecap="butt" stroke-miterlimit="10.0"><path d="M 192.2583,132.9890 l -0.0000,-33.9024 c 0.0000,-4.1748 -3.3843,-7.5591 -7.5591 -7.5591h -33.9024 c -4.1748,-0.0000 -7.5591,3.3843 -7.5591 7.5591l -0.0000,33.9024 c -0.0000,4.1748 3.3843,7.5591 7.5591 7.5591h 33.9024 c 4.1748,-0.0000 7.5591,-3.3843 7.5591 -7.5591Z"/></g><g stroke-linejoin="miter" stroke-opacity="1.0" fill-opacity="0.7" stroke="rgb(0,0,0)" stroke-width="0.37795275590551186" fill="rgb(0,0,0)" stroke-linecap="butt" stroke-miterlimit="10.0"><path d="M 203.0299,215.5717 l -0.0000,-55.4457 c 0.0000,-4.1748 -3.3843,-7.5591 -7.5591 -7.5591h -55.4457 c -4.1748,-0.0000 -7.5591,3.3843 -7.5591 7.5591l -0.0000,55.4457 c -0.0000,4.1748 3.3843,7.5591 7.5591 7.5591h 55.4457 c 4.1748,-0.0000 7.5591,-3.3843 7.5591 -7.5591Z"/></g><defs><linearGradient x2="5.0000" y1="0.0000" gradientUnits="userSpaceOnUse" spreadMethod="pad" gradientTransform="matrix(3.7795,-0.0000,0.0000,-3.7795,167.7480,187.8488)" id="gradient102" y2="0.0000" x1="-5.0000"><stop stop-opacity="0.1000" offset="0.0000" stop-color="rgb(0,0,0)"/><stop stop-opacity="0.1000" offset="0.5000" stop-color="rgb(255,255,255)"/><stop stop-opacity="0.1000" offset="1.0000" stop-color="rgb(0,0,0)"/></linearGradient></defs><g stroke-linejoin="miter" stroke-opacity="1.0" fill-opacity="1" stroke="rgb(0,0,0)" stroke-width="0.37795275590551186" fill="url(#gradient102)" stroke-linecap="butt" stroke-miterlimit="10.0"><path d="M 192.2583,204.8000 l -0.0000,-33.9024 c 0.0000,-4.1748 -3.3843,-7.5591 -7.5591 -7.5591h -33.9024 c -4.1748,-0.0000 -7.5591,3.3843 -7.5591 7.5591l -0.0000,33.9024 c -0.0000,4.1748 3.3843,7.5591 7.5591 7.5591h 33.9024 c 4.1748,-0.0000 7.5591,-3.3843 7.5591 -7.5591Z"/></g><g stroke-linejoin="miter" stroke-opacity="1.0" fill-opacity="0.7" stroke="rgb(0,0,0)" stroke-width="0.37795275590551186" fill="rgb(0,0,0)" stroke-linecap="butt" stroke-miterlimit="10.0"><path d="M 203.0299,287.3827 l -0.0000,-55.4457 c 0.0000,-4.1748 -3.3843,-7.5591 -7.5591 -7.5591h -55.4457 c -4.1748,-0.0000 -7.5591,3.3843 -7.5591 7.5591l -0.0000,55.4457 c -0.0000,4.1748 3.3843,7.5591 7.5591 7.5591h 55.4457 c 4.1748,-0.0000 7.5591,-3.3843 7.5591 -7.5591Z"/></g><defs><linearGradient x2="5.0000" y1="0.0000" gradientUnits="userSpaceOnUse" spreadMethod="pad" gradientTransform="matrix(3.7795,-0.0000,0.0000,-3.7795,167.7480,259.6599)" id="gradient106" y2="0.0000" x1="-5.0000"><stop stop-opacity="0.1000" offset="0.0000" stop-color="rgb(0,0,0)"/><stop stop-opacity="0.1000" offset="0.5000" stop-color="rgb(255,255,255)"/><stop stop-opacity="0.1000" offset="1.0000" stop-color="rgb(0,0,0)"/></linearGradient></defs><g stroke-linejoin="miter" stroke-opacity="1.0" fill-opacity="1" stroke="rgb(0,0,0)" stroke-width="0.37795275590551186" fill="url(#gradient106)" stroke-linecap="butt" stroke-miterlimit="10.0"><path d="M 192.2583,276.6110 l -0.0000,-33.9024 c 0.0000,-4.1748 -3.3843,-7.5591 -7.5591 -7.5591h -33.9024 c -4.1748,-0.0000 -7.5591,3.3843 -7.5591 7.5591l -0.0000,33.9024 c -0.0000,4.1748 3.3843,7.5591 7.5591 7.5591h 33.9024 c 4.1748,-0.0000 7.5591,-3.3843 7.5591 -7.5591Z"/></g><g stroke-linejoin="miter" stroke-opacity="1.0" fill-opacity="0.7" stroke="rgb(0,0,0)" stroke-width="0.37795275590551186" fill="rgb(0,0,0)" stroke-linecap="butt" stroke-miterlimit="10.0"><path d="M 203.0299,359.1937 l -0.0000,-55.4457 c 0.0000,-4.1748 -3.3843,-7.5591 -7.5591 -7.5591h -55.4457 c -4.1748,-0.0000 -7.5591,3.3843 -7.5591 7.5591l -0.0000,55.4457 c -0.0000,4.1748 3.3843,7.5591 7.5591 7.5591h 55.4457 c 4.1748,-0.0000 7.5591,-3.3843 7.5591 -7.5591Z"/></g><defs><linearGradient x2="5.0000" y1="0.0000" gradientUnits="userSpaceOnUse" spreadMethod="pad" gradientTransform="matrix(3.7795,-0.0000,0.0000,-3.7795,167.7480,331.4709)" id="gradient110" y2="0.0000" x1="-5.0000"><stop stop-opacity="0.1000" offset="0.0000" stop-color="rgb(0,0,0)"/><stop stop-opacity="0.1000" offset="0.5000" stop-color="rgb(255,255,255)"/><stop stop-opacity="0.1000" offset="1.0000" stop-color="rgb(0,0,0)"/></linearGradient></defs><g stroke-linejoin="miter" stroke-opacity="1.0" fill-opacity="1" stroke="rgb(0,0,0)" stroke-width="0.37795275590551186" fill="url(#gradient110)" stroke-linecap="butt" stroke-miterlimit="10.0"><path d="M 192.2583,348.4221 l -0.0000,-33.9024 c 0.0000,-4.1748 -3.3843,-7.5591 -7.5591 -7.5591h -33.9024 c -4.1748,-0.0000 -7.5591,3.3843 -7.5591 7.5591l -0.0000,33.9024 c -0.0000,4.1748 3.3843,7.5591 7.5591 7.5591h 33.9024 c 4.1748,-0.0000 7.5591,-3.3843 7.5591 -7.5591Z"/></g><g stroke-linejoin="miter" stroke-opacity="1.0" fill-opacity="0.5" stroke="rgb(0,0,0)" stroke-width="0.37795275590551186" fill="rgb(0,0,0)" stroke-linecap="butt" stroke-miterlimit="10.0"><path d="M 101.9378,34.5197 l 6.0008,-10.3937 l -6.0008,-10.3937 l -12.0016,-0.0000 l -6.0008,10.3937 l 6.0008,10.3937 Z"/></g><g stroke-linejoin="miter" stroke-opacity="1.0" fill-opacity="0.5" stroke="rgb(0,0,0)" stroke-width="0.37795275590551186" fill="rgb(0,0,0)" stroke-linecap="butt" stroke-miterlimit="10.0"><path d="M 587.5504,34.5197 l 6.0008,-10.3937 l -6.0008,-10.3937 l -12.0016,-0.0000 l -6.0008,10.3937 l 6.0008,10.3937 Z"/></g><g stroke-linejoin="miter" stroke-opacity="1.0" fill-opacity="0.5" stroke="rgb(0,0,0)" stroke-width="0.37795275590551186" fill="rgb(0,0,0)" stroke-linecap="butt" stroke-miterlimit="10.0"><path d="M 587.5504,374.5638 l 6.0008,-10.3937 l -6.0008,-10.3937 l -12.0016,-0.0000 l -6.0008,10.3937 l 6.0008,10.3937 Z"/></g><g stroke-linejoin="miter" stroke-opacity="1.0" fill-opacity="0.5" stroke="rgb(0,0,0)" stroke-width="0.37795275590551186" fill="rgb(0,0,0)" stroke-linecap="butt" stroke-miterlimit="10.0"><path d="M 101.9378,431.8866 l 6.0008,-10.3937 l -6.0008,-10.3937 l -12.0016,-0.0000 l -6.0008,10.3937 l 6.0008,10.3937 Z"/></g></svg>