<?xml version="1.0" encoding="UTF-8"?>
<!DOCTYPE svg PUBLIC "-//W3C//DTD SVG 1.1//EN"
    "http://www.w3.org/Graphics/SVG/1.1/DTD/svg11.dtd"><svg xmlns="http://www.w3.org/2000/svg" height="505.3792" stroke-opacity="1" viewBox="0 0 603 505" font-size="1" width="603.4291" xmlns:xlink="http://www.w3.org/1999/xlink" stroke="rgb(0,0,0)" version="1.1"><defs></defs><defs><linearGradient x2="39.3893" y1="0.0000" gradientUnits="userSpaceOnUse" spreadMethod="pad" gradientTransform="matrix(3.7795,-0.0000,0.0000,-3.7795,20.3464,452.7327)" id="gradient0" y2="0.0000" x1="-39.3893"><stop stop-opacity="1.0000" offset="0.0000" stop-color="rgb(128,128,128)"/><stop stop-opacity="1.0000" offset="0.5000" stop-color="rgb(255,255,255)"/><stop stop-opacity="1.0000" offset="1.0000" stop-color="rgb(128,128,128)"/></linearGradient></defs><g stroke-linejoin="miter" stroke-opacity="1.0" fill-opacity="1" stroke="rgb(0,0,0)" stroke-width="0.37795275590551186" fill="url(#gradient0)" stroke-linecap="butt" stroke-miterlimit="10.0"><path d="M 3.9685,20.3464 c 0.0000,-9.0453 7.3326,-16.3779 16.3779 -16.3779c 165.8190,-0.0000 331.6381,-0.0000 497.4571 -0.0000c 7.9481,-0.0000 14.7490,5.7066 16.1292 13.5339c 21.7589,123.4009 43.5178,246.8017 65.2767 370.2026c 0.1693,0.9602 0.2512,1.9164 0.2512 2.8601c 0.0000,7.5158 -5.1925,14.2444 -12.7658 15.9580c -139.1905,31.4946 -278.3811,62.9892 -417.5716 94.4837c -1.1861,0.2684 -2.3984,0.4038 -3.6145 0.4038c -48.3874,-0.0000 -96.7748,-0.0000 -145.1622 -0.0000c -9.0453,-0.0000 -16.3779,-7.3326 -16.3779 -16.3779c 0.0000,-154.8954 0.0000,-309.7909 0.0000 -464.6863ZM 90.2677,24.1260 c 0.0000,3.1311 2.5382,5.6693 5.6693 5.6693c 3.1311,-0.0000 5.6693,-2.5382 5.6693 -5.6693c 0.0000,-3.1310 -2.5382,-5.6693 -5.6693 -5.6693c -3.1310,-0.0000 -5.6693,2.5382 -5.6693 5.6693ZM 159.8394,481.2532 c 0.0000,3.1311 2.5382,5.6693 5.6693 5.6693c 3.1311,-0.0000 5.6693,-2.5382 5.6693 -5.6693c 0.0000,-3.1310 -2.5382,-5.6693 -5.6693 -5.6693c -3.1310,-0.0000 -5.6693,2.5382 -5.6693 5.6693ZM 508.3547,24.1260 c 0.0000,3.1311 2.5382,5.6693 5.6693 5.6693c 3.1310,-0.0000 5.6693,-2.5382 5.6693 -5.6693c 0.0000,-3.1310 -2.5382,-5.6693 -5.6693 -5.6693c -3.1310,-0.0000 -5.6693,2.5382 -5.6693 5.6693ZM 573.6314,386.7695 c 0.0000,3.1311 2.5382,5.6693 5.6693 5.6693c 3.1310,-0.0000 5.6693,-2.5382 5.6693 -5.6693c 0.0000,-3.1310 -2.5382,-5.6693 -5.6693 -5.6693c -3.1311,-0.0000 -5.6693,2.5382 -5.6693 5.6693Z"/></g><g stroke-linejoin="miter" stroke-opacity="1.0" fill-opacity="0.5" stroke="rgb(0,0,0)" stroke-width="0.37795275590551186" fill="rgb(255,255,0)" stroke-linecap="butt" stroke-miterlimit="10.0"><path d="M 3.9685,20.3464 c 0.0000,-9.0453 7.3326,-16.3779 16.3779 -16.3779c 165.8190,-0.0000 331.6381,-0.0000 497.4571 -0.0000c 7.9481,-0.0000 14.7490,5.7066 16.1292 13.5339c 21.7589,123.4009 43.5178,246.8017 65.2767 370.2026c 0.1693,0.9602 0.2512,1.9164 0.2512 2.8601c 0.0000,7.5158 -5.1925,14.2444 -12.7658 15.9580c -139.1905,31.4946 -278.3811,62.9892 -417.5716 94.4837c -1.1861,0.2684 -2.3984,0.4038 -3.6145 0.4038c -48.3874,-0.0000 -96.7748,-0.0000 -145.1622 -0.0000c -9.0453,-0.0000 -16.3779,-7.3326 -16.3779 -16.3779c 0.0000,-154.8954 0.0000,-309.7909 0.0000 -464.6863ZM 27.8931,41.5303 c 0.0000,140.7728 0.0000,281.5457 0.0000 422.3185c 0.0000,8.2206 6.7742,14.8847 15.1306 14.8847c 35.4333,-0.0000 70.8665,-0.0000 106.2997 -0.0000c 1.2120,-7.8490 7.9969,-13.8583 16.1853 -13.8583c 7.9729,-0.0000 14.6152,5.6971 16.0782 13.2424c 127.5162,-28.3841 255.0323,-56.7683 382.5484 -85.1524c -0.7817,-1.9113 -1.2125,-4.0032 -1.2125 -6.1958c 0.0000,-8.2410 6.0866,-15.0604 14.0096 -16.2079c -19.7445,-110.1571 -39.4890,-220.3143 -59.2336 -330.4715c -1.1813,0.2708 -2.4113,0.4139 -3.6748 0.4139c -8.1884,-0.0000 -14.9734,-6.0092 -16.1853 -13.8583c -128.5721,-0.0000 -257.1442,-0.0000 -385.7163 -0.0000c -1.2120,7.8491 -7.9969,13.8583 -16.1854 13.8583c -8.1884,-0.0000 -14.9733,-6.0092 -16.1853 -13.8583c -12.2427,-0.0000 -24.4854,-0.0000 -36.7281 -0.0000c -8.3564,-0.0000 -15.1306,6.6641 -15.1306 14.8847ZM 90.2677,24.1260 c 0.0000,3.1311 2.5382,5.6693 5.6693 5.6693c 3.1311,-0.0000 5.6693,-2.5382 5.6693 -5.6693c 0.0000,-3.1310 -2.5382,-5.6693 -5.6693 -5.6693c -3.1310,-0.0000 -5.6693,2.5382 -5.6693 5.6693ZM 159.8394,481.2532 c 0.0000,3.1311 2.5382,5.6693 5.6693 5.6693c 3.1311,-0.0000 5.6693,-2.5382 5.6693 -5.6693c 0.0000,-3.1310 -2.5382,-5.6693 -5.6693 -5.6693c -3.1310,-0.0000 -5.6693,2.5382 -5.6693 5.6693ZM 508.3547,24.1260 c 0.0000,3.1311 2.5382,5.6693 5.6693 5.6693c 3.1310,-0.0000 5.6693,-2.5382 5.6693 -5.6693c 0.0000,-3.1310 -2.5382,-5.6693 -5.6693 -5.6693c -3.1310,-0.0000 -5.6693,2.5382 -5.6693 5.6693ZM 573.6314,386.7695 c 0.0000,3.1311 2.5382,5.6693 5.6693 5.6693c 3.1310,-0.0000 5.6693,-2.5382 5.6693 -5.6693c 0.0000,-3.1310 -2.5382,-5.6693 -5.6693 -5.6693c -3.1311,-0.0000 -5.6693,2.5382 -5.6693 5.6693Z"/></g><g stroke-linejoin="miter" stroke-opacity="1.0" fill-opacity="0.5" stroke="rgb(0,0,0)" stroke-width="0.37795275590551186" fill="rgb(0,0,0)" stroke-linecap="butt" stroke-miterlimit="10.0"><path d="M 3.9685,20.3464 c 0.0000,-9.0453 7.3326,-16.3779 16.3779 -16.3779c 165.8190,-0.0000 331.6381,-0.0000 497.4571 -0.0000c 7.9481,-0.0000 14.7490,5.7066 16.1292 13.5339c 21.7589,123.4009 43.5178,246.8017 65.2767 370.2026c 0.1693,0.9602 0.2512,1.9164 0.2512 2.8601c 0.0000,7.5158 -5.1925,14.2444 -12.7658 15.9580c -139.1905,31.4946 -278.3811,62.9892 -417.5716 94.4837c -1.1861,0.2684 -2.3984,0.4038 -3.6145 0.4038c -48.3874,-0.0000 -96.7748,-0.0000 -145.1622 -0.0000c -9.0453,-0.0000 -16.3779,-7.3326 -16.3779 -16.3779c 0.0000,-154.8954 0.0000,-309.7909 0.0000 -464.6863ZM 55.5886,387.0147 c 0.7657,4.3426 1.5314,8.6852 2.2972 13.0278c 1.0084,-0.1778 2.0169,-0.3556 3.0253 -0.5335c 1.0957,6.2146 2.1915,12.4291 3.2873 18.6437c -1.0084,0.1778 -2.0169,0.3556 -3.0253 0.5334c 0.7657,4.3426 1.5315,8.6852 2.2972 13.0278c 1.0084,-0.1778 2.0169,-0.3556 3.0253 -0.5334c 0.2145,1.2164 0.4290,2.4329 0.6435 3.6493c 17.3326,-3.0562 34.6652,-6.1125 51.9978 -9.1686c -0.2145,-1.2165 -0.4290,-2.4329 -0.6435 -3.6493c 1.0084,-0.1778 2.0169,-0.3556 3.0253 -0.5335c -0.7657,-4.3426 -1.5314,-8.6852 -2.2972 -13.0278c -1.0084,0.1778 -2.0169,0.3557 -3.0253 0.5335c -1.0958,-6.2145 -2.1916,-12.4291 -3.2873 -18.6436c 1.0084,-0.1778 2.0169,-0.3556 3.0253 -0.5335c -0.7657,-4.3426 -1.5314,-8.6852 -2.2971 -13.0278c -1.0084,0.1778 -2.0169,0.3556 -3.0253 0.5335c -0.2145,-1.2165 -0.4290,-2.4329 -0.6435 -3.6493c -17.3326,3.0562 -34.6652,6.1124 -51.9978 9.1686c 0.2145,1.2164 0.4290,2.4329 0.6435 3.6493c -1.0084,0.1778 -2.0169,0.3556 -3.0253 0.5334ZM 82.6641,127.0247 c 0.7657,4.3426 1.5315,8.6852 2.2972 13.0278c 1.0084,-0.1778 2.0169,-0.3556 3.0253 -0.5335c 1.0958,6.2146 2.1916,12.4291 3.2874 18.6437c -1.0084,0.1778 -2.0169,0.3556 -3.0253 0.5334c 0.7657,4.3426 1.5314,8.6852 2.2972 13.0278c 1.0084,-0.1778 2.0169,-0.3556 3.0253 -0.5335c 0.2145,1.2165 0.4290,2.4329 0.6435 3.6493c 17.3326,-3.0562 34.6652,-6.1124 51.9978 -9.1686c -0.2145,-1.2165 -0.4290,-2.4329 -0.6435 -3.6493c 1.0084,-0.1778 2.0169,-0.3556 3.0253 -0.5335c -0.7657,-4.3426 -1.5314,-8.6852 -2.2971 -13.0278c -1.0084,0.1778 -2.0169,0.3556 -3.0253 0.5335c -1.0958,-6.2146 -2.1916,-12.4291 -3.2874 -18.6437c 1.0084,-0.1778 2.0169,-0.3556 3.0253 -0.5334c -0.7657,-4.3426 -1.5314,-8.6852 -2.2972 -13.0278c -1.0084,0.1778 -2.0169,0.3556 -3.0253 0.5334c -0.2145,-1.2164 -0.4290,-2.4329 -0.6435 -3.6493c -17.3326,3.0562 -34.6652,6.1124 -51.9978 9.1686c 0.2145,1.2165 0.4290,2.4329 0.6435 3.6493c -1.0084,0.1778 -2.0169,0.3556 -3.0253 0.5335ZM 90.2677,24.1260 c 0.0000,3.1311 2.5382,5.6693 5.6693 5.6693c 3.1311,-0.0000 5.6693,-2.5382 5.6693 -5.6693c 0.0000,-3.1310 -2.5382,-5.6693 -5.6693 -5.6693c -3.1310,-0.0000 -5.6693,2.5382 -5.6693 5.6693ZM 95.1340,197.7447 c 0.7657,4.3426 1.5314,8.6852 2.2972 13.0278c 1.0084,-0.1778 2.0169,-0.3556 3.0253 -0.5335c 1.0958,6.2146 2.1916,12.4291 3.2874 18.6437c -1.0084,0.1778 -2.0169,0.3556 -3.0253 0.5334c 0.7657,4.3426 1.5314,8.6852 2.2971 13.0278c 1.0084,-0.1778 2.0169,-0.3556 3.0253 -0.5334c 0.2145,1.2164 0.4290,2.4329 0.6435 3.6493c 17.3326,-3.0562 34.6652,-6.1125 51.9978 -9.1686c -0.2145,-1.2165 -0.4290,-2.4329 -0.6435 -3.6493c 1.0084,-0.1778 2.0169,-0.3556 3.0253 -0.5335c -0.7657,-4.3426 -1.5314,-8.6852 -2.2971 -13.0277c -1.0084,0.1778 -2.0169,0.3556 -3.0253 0.5334c -1.0958,-6.2145 -2.1916,-12.4291 -3.2874 -18.6437c 1.0084,-0.1778 2.0169,-0.3556 3.0253 -0.5334c -0.7657,-4.3426 -1.5314,-8.6852 -2.2972 -13.0278c -1.0084,0.1778 -2.0169,0.3556 -3.0253 0.5335c -0.2145,-1.2165 -0.4290,-2.4329 -0.6435 -3.6493c -17.3326,3.0562 -34.6652,6.1124 -51.9978 9.1686c 0.2145,1.2164 0.4290,2.4329 0.6435 3.6493c -1.0084,0.1778 -2.0169,0.3556 -3.0253 0.5334ZM 107.6038,268.4647 c 0.7657,4.3426 1.5314,8.6852 2.2972 13.0278c 1.0084,-0.1778 2.0169,-0.3556 3.0253 -0.5334c 1.0958,6.2145 2.1916,12.4291 3.2874 18.6436c -1.0084,0.1778 -2.0169,0.3556 -3.0253 0.5335c 0.7657,4.3426 1.5314,8.6852 2.2971 13.0277c 1.0084,-0.1778 2.0169,-0.3556 3.0253 -0.5334c 0.2145,1.2164 0.4290,2.4329 0.6435 3.6493c 17.3326,-3.0562 34.6652,-6.1124 51.9978 -9.1686c -0.2145,-1.2164 -0.4290,-2.4329 -0.6435 -3.6493c 1.0084,-0.1778 2.0169,-0.3556 3.0253 -0.5334c -0.7657,-4.3426 -1.5314,-8.6852 -2.2971 -13.0278c -1.0084,0.1778 -2.0169,0.3556 -3.0253 0.5334c -1.0958,-6.2145 -2.1916,-12.4291 -3.2874 -18.6436c 1.0084,-0.1778 2.0169,-0.3556 3.0253 -0.5335c -0.7657,-4.3426 -1.5314,-8.6852 -2.2972 -13.0278c -1.0084,0.1778 -2.0169,0.3556 -3.0253 0.5335c -0.2145,-1.2164 -0.4290,-2.4329 -0.6435 -3.6493c -17.3326,3.0562 -34.6652,6.1124 -51.9978 9.1686c 0.2145,1.2164 0.4290,2.4329 0.6435 3.6493c -1.0084,0.1778 -2.0169,0.3556 -3.0253 0.5334ZM 120.0737,339.1848 c 0.7657,4.3426 1.5314,8.6852 2.2972 13.0278c 1.0084,-0.1778 2.0169,-0.3556 3.0253 -0.5334c 1.0958,6.2145 2.1916,12.4291 3.2874 18.6436c -1.0084,0.1778 -2.0169,0.3556 -3.0253 0.5335c 0.7657,4.3426 1.5314,8.6852 2.2971 13.0278c 1.0084,-0.1778 2.0169,-0.3556 3.0253 -0.5335c 0.2145,1.2164 0.4290,2.4329 0.6435 3.6493c 17.3326,-3.0562 34.6652,-6.1124 51.9978 -9.1686c -0.2145,-1.2164 -0.4290,-2.4329 -0.6435 -3.6493c 1.0084,-0.1778 2.0169,-0.3556 3.0253 -0.5334c -0.7657,-4.3426 -1.5314,-8.6852 -2.2972 -13.0278c -1.0084,0.1778 -2.0168,0.3556 -3.0253 0.5334c -1.0958,-6.2145 -2.1916,-12.4291 -3.2874 -18.6436c 1.0084,-0.1778 2.0169,-0.3556 3.0253 -0.5335c -0.7657,-4.3426 -1.5314,-8.6852 -2.2972 -13.0277c -1.0084,0.1778 -2.0169,0.3556 -3.0253 0.5334c -0.2145,-1.2164 -0.4290,-2.4329 -0.6435 -3.6493c -17.3326,3.0562 -34.6652,6.1124 -51.9978 9.1686c 0.2145,1.2164 0.4290,2.4329 0.6435 3.6493c -1.0084,0.1778 -2.0169,0.3556 -3.0253 0.5334ZM 132.5436,409.9049 c 0.7657,4.3426 1.5314,8.6852 2.2972 13.0278c 1.0084,-0.1778 2.0169,-0.3556 3.0253 -0.5335c 1.0958,6.2146 2.1916,12.4291 3.2874 18.6436c -1.0084,0.1778 -2.0169,0.3557 -3.0253 0.5335c 0.7657,4.3426 1.5314,8.6852 2.2971 13.0278c 1.0084,-0.1778 2.0169,-0.3556 3.0253 -0.5335c 0.2145,1.2165 0.4290,2.4329 0.6435 3.6493c 17.3326,-3.0562 34.6652,-6.1124 51.9978 -9.1686c -0.2145,-1.2164 -0.4290,-2.4329 -0.6435 -3.6493c 1.0084,-0.1778 2.0169,-0.3557 3.0253 -0.5335c -0.7657,-4.3426 -1.5314,-8.6852 -2.2972 -13.0278c -1.0084,0.1778 -2.0169,0.3556 -3.0253 0.5335c -1.0958,-6.2146 -2.1916,-12.4291 -3.2874 -18.6437c 1.0084,-0.1778 2.0169,-0.3556 3.0253 -0.5334c -0.7657,-4.3426 -1.5314,-8.6852 -2.2972 -13.0278c -1.0084,0.1778 -2.0169,0.3556 -3.0253 0.5334c -0.2145,-1.2164 -0.4290,-2.4329 -0.6435 -3.6493c -17.3326,3.0562 -34.6652,6.1125 -51.9978 9.1686c 0.2145,1.2165 0.4290,2.4329 0.6435 3.6493c -1.0084,0.1778 -2.0169,0.3556 -3.0253 0.5335ZM 150.1026,95.9442 c 0.7657,4.3426 1.5314,8.6852 2.2972 13.0278c 1.0084,-0.1778 2.0169,-0.3556 3.0253 -0.5334c 1.0958,6.2145 2.1916,12.4291 3.2874 18.6436c -1.0084,0.1778 -2.0169,0.3556 -3.0253 0.5335c 0.7657,4.3426 1.5314,8.6852 2.2971 13.0278c 1.0084,-0.1778 2.0169,-0.3557 3.0253 -0.5335c 0.2145,1.2164 0.4290,2.4329 0.6435 3.6493c 17.3326,-3.0562 34.6652,-6.1124 51.9978 -9.1686c -0.2145,-1.2164 -0.4290,-2.4329 -0.6435 -3.6493c 1.0084,-0.1778 2.0169,-0.3556 3.0253 -0.5334c -0.7657,-4.3426 -1.5314,-8.6852 -2.2971 -13.0278c -1.0084,0.1778 -2.0169,0.3556 -3.0253 0.5334c -1.0958,-6.2145 -2.1916,-12.4291 -3.2874 -18.6436c 1.0084,-0.1778 2.0169,-0.3556 3.0253 -0.5335c -0.7657,-4.3426 -1.5314,-8.6852 -2.2972 -13.0277c -1.0084,0.1778 -2.0169,0.3556 -3.0253 0.5334c -0.2145,-1.2164 -0.4290,-2.4329 -0.6435 -3.6493c -17.3326,3.0562 -34.6652,6.1124 -51.9978 9.1686c 0.2145,1.2164 0.4290,2.4329 0.6435 3.6493c -1.0084,0.1778 -2.0169,0.3556 -3.0253 0.5334ZM 159.8394,481.2532 c 0.0000,3.1311 2.5382,5.6693 5.6693 5.6693c 3.1311,-0.0000 5.6693,-2.5382 5.6693 -5.6693c 0.0000,-3.1310 -2.5382,-5.6693 -5.6693 -5.6693c -3.1310,-0.0000 -5.6693,2.5382 -5.6693 5.6693ZM 162.5725,166.6643 c 0.7657,4.3426 1.5314,8.6852 2.2972 13.0277c 1.0084,-0.1778 2.0169,-0.3556 3.0253 -0.5334c 1.0958,6.2145 2.1916,12.4291 3.2874 18.6436c -1.0084,0.1778 -2.0169,0.3556 -3.0253 0.5335c 0.7657,4.3426 1.5314,8.6852 2.2971 13.0278c 1.0084,-0.1778 2.0169,-0.3556 3.0253 -0.5335c 0.2145,1.2165 0.4290,2.4329 0.6435 3.6493c 17.3326,-3.0562 34.6652,-6.1124 51.9978 -9.1686c -0.2145,-1.2164 -0.4290,-2.4329 -0.6435 -3.6493c 1.0084,-0.1778 2.0169,-0.3556 3.0253 -0.5334c -0.7657,-4.3426 -1.5314,-8.6852 -2.2971 -13.0278c -1.0084,0.1778 -2.0169,0.3556 -3.0253 0.5335c -1.0958,-6.2146 -2.1916,-12.4291 -3.2874 -18.6437c 1.0084,-0.1778 2.0169,-0.3556 3.0253 -0.5334c -0.7657,-4.3426 -1.5314,-8.6852 -2.2972 -13.0278c -1.0084,0.1778 -2.0169,0.3556 -3.0253 0.5334c -0.2145,-1.2164 -0.4290,-2.4329 -0.6435 -3.6493c -17.3326,3.0562 -34.6652,6.1125 -51.9978 9.1686c 0.2145,1.2164 0.4290,2.4329 0.6435 3.6493c -1.0084,0.1778 -2.0169,0.3556 -3.0253 0.5335ZM 175.0424,237.3844 c 0.7657,4.3426 1.5314,8.6852 2.2972 13.0278c 1.0084,-0.1778 2.0169,-0.3556 3.0253 -0.5335c 1.0958,6.2146 2.1916,12.4291 3.2874 18.6437c -1.0084,0.1778 -2.0169,0.3556 -3.0253 0.5334c 0.7657,4.3426 1.5314,8.6852 2.2971 13.0278c 1.0084,-0.1778 2.0169,-0.3556 3.0253 -0.5335c 0.2145,1.2165 0.4290,2.4329 0.6435 3.6493c 17.3326,-3.0562 34.6652,-6.1124 51.9978 -9.1686c -0.2145,-1.2165 -0.4290,-2.4329 -0.6435 -3.6493c 1.0084,-0.1778 2.0169,-0.3556 3.0253 -0.5335c -0.7657,-4.3426 -1.5314,-8.6852 -2.2972 -13.0278c -1.0084,0.1778 -2.0168,0.3556 -3.0253 0.5335c -1.0958,-6.2146 -2.1916,-12.4291 -3.2874 -18.6437c 1.0084,-0.1778 2.0169,-0.3556 3.0253 -0.5334c -0.7657,-4.3426 -1.5314,-8.6852 -2.2972 -13.0278c -1.0084,0.1778 -2.0169,0.3556 -3.0253 0.5334c -0.2145,-1.2164 -0.4290,-2.4329 -0.6435 -3.6493c -17.3326,3.0562 -34.6652,6.1124 -51.9978 9.1686c 0.2145,1.2165 0.4290,2.4329 0.6435 3.6493c -1.0084,0.1778 -2.0169,0.3556 -3.0253 0.5335ZM 187.5122,308.1044 c 0.7657,4.3426 1.5314,8.6852 2.2972 13.0278c 1.0084,-0.1778 2.0169,-0.3556 3.0253 -0.5335c 1.0958,6.2146 2.1916,12.4291 3.2874 18.6437c -1.0084,0.1778 -2.0169,0.3556 -3.0253 0.5334c 0.7657,4.3426 1.5314,8.6852 2.2971 13.0278c 1.0084,-0.1778 2.0169,-0.3556 3.0253 -0.5334c 0.2145,1.2164 0.4290,2.4329 0.6435 3.6493c 17.3326,-3.0562 34.6652,-6.1125 51.9978 -9.1686c -0.2145,-1.2164 -0.4290,-2.4329 -0.6435 -3.6493c 1.0084,-0.1778 2.0169,-0.3556 3.0253 -0.5335c -0.7657,-4.3426 -1.5314,-8.6852 -2.2972 -13.0277c -1.0084,0.1778 -2.0169,0.3556 -3.0253 0.5334c -1.0958,-6.2145 -2.1916,-12.4291 -3.2874 -18.6437c 1.0084,-0.1778 2.0169,-0.3556 3.0253 -0.5334c -0.7657,-4.3426 -1.5314,-8.6852 -2.2972 -13.0278c -1.0084,0.1778 -2.0169,0.3556 -3.0253 0.5335c -0.2145,-1.2165 -0.4290,-2.4329 -0.6435 -3.6493c -17.3326,3.0562 -34.6652,6.1124 -51.9978 9.1686c 0.2145,1.2164 0.4290,2.4329 0.6435 3.6493c -1.0084,0.1778 -2.0169,0.3556 -3.0253 0.5334ZM 199.9821,378.8245 c 0.7657,4.3426 1.5314,8.6852 2.2972 13.0278c 1.0084,-0.1778 2.0169,-0.3556 3.0253 -0.5334c 1.0958,6.2145 2.1916,12.4291 3.2873 18.6436c -1.0084,0.1778 -2.0169,0.3556 -3.0253 0.5335c 0.7657,4.3426 1.5314,8.6852 2.2971 13.0277c 1.0084,-0.1778 2.0169,-0.3556 3.0253 -0.5334c 0.2145,1.2164 0.4290,2.4329 0.6435 3.6493c 17.3326,-3.0562 34.6652,-6.1124 51.9978 -9.1686c -0.2145,-1.2164 -0.4290,-2.4329 -0.6435 -3.6493c 1.0084,-0.1778 2.0169,-0.3556 3.0253 -0.5334c -0.7657,-4.3426 -1.5314,-8.6852 -2.2972 -13.0278c -1.0084,0.1778 -2.0169,0.3556 -3.0253 0.5334c -1.0957,-6.2145 -2.1915,-12.4291 -3.2873 -18.6436c 1.0084,-0.1778 2.0169,-0.3556 3.0253 -0.5335c -0.7657,-4.3426 -1.5314,-8.6852 -2.2972 -13.0278c -1.0084,0.1778 -2.0169,0.3556 -3.0253 0.5335c -0.2145,-1.2164 -0.4290,-2.4329 -0.6435 -3.6493c -17.3326,3.0562 -34.6652,6.1124 -51.9978 9.1686c 0.2145,1.2164 0.4290,2.4329 0.6435 3.6493c -1.0084,0.1778 -2.0169,0.3556 -3.0253 0.5334ZM 216.8849,61.1417 c 0.7657,4.3426 1.5314,8.6852 2.2972 13.0278c 1.0084,-0.1778 2.0169,-0.3556 3.0253 -0.5334c 1.0958,6.2145 2.1915,12.4291 3.2873 18.6436c -1.0084,0.1778 -2.0169,0.3556 -3.0253 0.5335c 0.7657,4.3426 1.5315,8.6852 2.2972 13.0277c 1.0084,-0.1778 2.0169,-0.3556 3.0253 -0.5334c 0.2145,1.2164 0.4290,2.4329 0.6435 3.6493c 17.3326,-3.0562 34.6652,-6.1124 51.9978 -9.1686c -0.2145,-1.2164 -0.4290,-2.4329 -0.6435 -3.6493c 1.0084,-0.1778 2.0169,-0.3556 3.0253 -0.5334c -0.7657,-4.3426 -1.5314,-8.6852 -2.2972 -13.0278c -1.0084,0.1778 -2.0169,0.3556 -3.0253 0.5334c -1.0958,-6.2145 -2.1915,-12.4291 -3.2873 -18.6436c 1.0084,-0.1778 2.0169,-0.3556 3.0253 -0.5335c -0.7657,-4.3426 -1.5315,-8.6852 -2.2972 -13.0278c -1.0084,0.1778 -2.0169,0.3556 -3.0253 0.5335c -0.2145,-1.2164 -0.4290,-2.4329 -0.6435 -3.6493c -17.3326,3.0562 -34.6652,6.1124 -51.9978 9.1686c 0.2145,1.2164 0.4290,2.4329 0.6435 3.6493c -1.0084,0.1778 -2.0169,0.3556 -3.0253 0.5334ZM 229.3547,131.8618 c 0.7657,4.3426 1.5314,8.6852 2.2972 13.0278c 1.0084,-0.1778 2.0169,-0.3556 3.0253 -0.5334c 1.0958,6.2145 2.1915,12.4291 3.2873 18.6436c -1.0084,0.1778 -2.0169,0.3556 -3.0253 0.5335c 0.7657,4.3426 1.5315,8.6852 2.2972 13.0278c 1.0084,-0.1778 2.0169,-0.3556 3.0253 -0.5335c 0.2145,1.2164 0.4290,2.4329 0.6435 3.6493c 17.3326,-3.0562 34.6652,-6.1124 51.9978 -9.1686c -0.2145,-1.2164 -0.4290,-2.4329 -0.6435 -3.6493c 1.0084,-0.1778 2.0169,-0.3556 3.0253 -0.5334c -0.7657,-4.3426 -1.5314,-8.6852 -2.2972 -13.0278c -1.0084,0.1778 -2.0169,0.3556 -3.0253 0.5334c -1.0958,-6.2145 -2.1915,-12.4291 -3.2873 -18.6436c 1.0084,-0.1778 2.0169,-0.3556 3.0253 -0.5335c -0.7657,-4.3426 -1.5314,-8.6852 -2.2971 -13.0277c -1.0084,0.1778 -2.0169,0.3556 -3.0253 0.5334c -0.2145,-1.2164 -0.4290,-2.4329 -0.6435 -3.6493c -17.3326,3.0562 -34.6652,6.1124 -51.9978 9.1686c 0.2145,1.2164 0.4290,2.4329 0.6435 3.6493c -1.0084,0.1778 -2.0169,0.3556 -3.0253 0.5334ZM 241.8246,202.5819 c 0.7657,4.3426 1.5314,8.6852 2.2972 13.0278c 1.0084,-0.1778 2.0169,-0.3556 3.0253 -0.5335c 1.0958,6.2146 2.1916,12.4291 3.2874 18.6436c -1.0084,0.1778 -2.0169,0.3557 -3.0253 0.5335c 0.7657,4.3426 1.5315,8.6852 2.2972 13.0278c 1.0084,-0.1778 2.0169,-0.3556 3.0253 -0.5335c 0.2145,1.2165 0.4290,2.4329 0.6435 3.6493c 17.3326,-3.0562 34.6652,-6.1124 51.9978 -9.1686c -0.2145,-1.2164 -0.4290,-2.4329 -0.6435 -3.6493c 1.0084,-0.1778 2.0169,-0.3557 3.0253 -0.5335c -0.7657,-4.3426 -1.5314,-8.6852 -2.2972 -13.0278c -1.0084,0.1778 -2.0169,0.3556 -3.0253 0.5335c -1.0958,-6.2146 -2.1916,-12.4291 -3.2874 -18.6437c 1.0084,-0.1778 2.0169,-0.3556 3.0253 -0.5334c -0.7657,-4.3426 -1.5314,-8.6852 -2.2971 -13.0278c -1.0084,0.1778 -2.0169,0.3556 -3.0253 0.5334c -0.2145,-1.2164 -0.4290,-2.4329 -0.6435 -3.6493c -17.3326,3.0562 -34.6652,6.1125 -51.9978 9.1686c 0.2145,1.2165 0.4290,2.4329 0.6435 3.6493c -1.0084,0.1778 -2.0169,0.3556 -3.0253 0.5335ZM 254.2944,273.3019 c 0.7657,4.3426 1.5314,8.6852 2.2972 13.0278c 1.0084,-0.1778 2.0168,-0.3556 3.0253 -0.5335c 1.0958,6.2146 2.1916,12.4291 3.2874 18.6437c -1.0084,0.1778 -2.0169,0.3556 -3.0253 0.5334c 0.7657,4.3426 1.5314,8.6852 2.2972 13.0278c 1.0084,-0.1778 2.0169,-0.3556 3.0253 -0.5334c 0.2145,1.2164 0.4290,2.4329 0.6435 3.6493c 17.3326,-3.0562 34.6652,-6.1124 51.9978 -9.1686c -0.2145,-1.2165 -0.4290,-2.4329 -0.6435 -3.6493c 1.0084,-0.1778 2.0169,-0.3556 3.0253 -0.5335c -0.7657,-4.3426 -1.5314,-8.6852 -2.2972 -13.0278c -1.0084,0.1778 -2.0169,0.3556 -3.0253 0.5335c -1.0958,-6.2146 -2.1916,-12.4291 -3.2874 -18.6437c 1.0084,-0.1778 2.0169,-0.3556 3.0253 -0.5334c -0.7657,-4.3426 -1.5314,-8.6852 -2.2971 -13.0278c -1.0084,0.1778 -2.0169,0.3556 -3.0253 0.5335c -0.2145,-1.2165 -0.4290,-2.4329 -0.6435 -3.6493c -17.3326,3.0562 -34.6652,6.1124 -51.9978 9.1686c 0.2145,1.2165 0.4290,2.4329 0.6435 3.6493c -1.0084,0.1778 -2.0169,0.3556 -3.0253 0.5335ZM 266.7643,344.0220 c 0.7657,4.3426 1.5314,8.6852 2.2971 13.0278c 1.0084,-0.1778 2.0169,-0.3556 3.0253 -0.5335c 1.0958,6.2146 2.1916,12.4291 3.2874 18.6437c -1.0084,0.1778 -2.0169,0.3556 -3.0253 0.5334c 0.7657,4.3426 1.5314,8.6852 2.2972 13.0278c 1.0084,-0.1778 2.0169,-0.3556 3.0253 -0.5334c 0.2145,1.2164 0.4290,2.4329 0.6435 3.6493c 17.3326,-3.0562 34.6652,-6.1124 51.9978 -9.1686c -0.2145,-1.2164 -0.4290,-2.4329 -0.6435 -3.6493c 1.0084,-0.1778 2.0169,-0.3556 3.0253 -0.5335c -0.7657,-4.3426 -1.5314,-8.6852 -2.2972 -13.0277c -1.0084,0.1778 -2.0169,0.3556 -3.0253 0.5334c -1.0958,-6.2145 -2.1916,-12.4291 -3.2874 -18.6436c 1.0084,-0.1778 2.0169,-0.3556 3.0253 -0.5335c -0.7657,-4.3426 -1.5314,-8.6852 -2.2971 -13.0278c -1.0084,0.1778 -2.0169,0.3556 -3.0253 0.5335c -0.2145,-1.2164 -0.4290,-2.4329 -0.6435 -3.6493c -17.3326,3.0562 -34.6652,6.1124 -51.9978 9.1686c 0.2145,1.2164 0.4290,2.4329 0.6435 3.6493c -1.0084,0.1778 -2.0169,0.3556 -3.0253 0.5334ZM 290.8864,67.2825 c 0.7657,4.3426 1.5315,8.6852 2.2972 13.0278c 1.0084,-0.1778 2.0169,-0.3556 3.0253 -0.5335c 1.0958,6.2146 2.1916,12.4291 3.2874 18.6437c -1.0084,0.1778 -2.0169,0.3556 -3.0253 0.5334c 0.7657,4.3426 1.5314,8.6852 2.2972 13.0278c 1.0084,-0.1778 2.0169,-0.3556 3.0253 -0.5335c 0.2145,1.2165 0.4290,2.4329 0.6435 3.6493c 17.3326,-3.0562 34.6652,-6.1124 51.9978 -9.1686c -0.2145,-1.2164 -0.4290,-2.4329 -0.6435 -3.6493c 1.0084,-0.1778 2.0169,-0.3556 3.0253 -0.5335c -0.7657,-4.3426 -1.5315,-8.6852 -2.2972 -13.0278c -1.0084,0.1778 -2.0169,0.3556 -3.0253 0.5335c -1.0958,-6.2146 -2.1916,-12.4291 -3.2874 -18.6437c 1.0084,-0.1778 2.0169,-0.3556 3.0253 -0.5334c -0.7657,-4.3426 -1.5314,-8.6852 -2.2972 -13.0278c -1.0084,0.1778 -2.0169,0.3556 -3.0253 0.5334c -0.2145,-1.2164 -0.4290,-2.4329 -0.6435 -3.6493c -17.3326,3.0562 -34.6652,6.1125 -51.9978 9.1686c 0.2145,1.2165 0.4290,2.4329 0.6435 3.6493c -1.0084,0.1778 -2.0169,0.3556 -3.0253 0.5335ZM 303.3563,138.0025 c 0.7657,4.3426 1.5315,8.6852 2.2972 13.0278c 1.0084,-0.1778 2.0169,-0.3556 3.0253 -0.5335c 1.0958,6.2146 2.1916,12.4291 3.2874 18.6437c -1.0084,0.1778 -2.0169,0.3556 -3.0253 0.5334c 0.7657,4.3426 1.5314,8.6852 2.2972 13.0278c 1.0084,-0.1778 2.0169,-0.3556 3.0253 -0.5334c 0.2145,1.2164 0.4290,2.4329 0.6435 3.6493c 17.3326,-3.0562 34.6652,-6.1125 51.9978 -9.1686c -0.2145,-1.2165 -0.4290,-2.4329 -0.6435 -3.6493c 1.0084,-0.1778 2.0169,-0.3556 3.0253 -0.5335c -0.7657,-4.3426 -1.5314,-8.6852 -2.2971 -13.0277c -1.0084,0.1778 -2.0169,0.3556 -3.0253 0.5334c -1.0958,-6.2146 -2.1916,-12.4291 -3.2874 -18.6437c 1.0084,-0.1778 2.0169,-0.3556 3.0253 -0.5334c -0.7657,-4.3426 -1.5314,-8.6852 -2.2972 -13.0278c -1.0084,0.1778 -2.0169,0.3556 -3.0253 0.5335c -0.2145,-1.2165 -0.4290,-2.4329 -0.6435 -3.6493c -17.3326,3.0562 -34.6652,6.1124 -51.9978 9.1686c 0.2145,1.2164 0.4290,2.4329 0.6435 3.6493c -1.0084,0.1778 -2.0169,0.3557 -3.0253 0.5335ZM 315.8261,208.7225 c 0.7657,4.3426 1.5315,8.6852 2.2972 13.0278c 1.0084,-0.1778 2.0169,-0.3556 3.0253 -0.5334c 1.0958,6.2145 2.1916,12.4291 3.2874 18.6436c -1.0084,0.1778 -2.0169,0.3556 -3.0253 0.5335c 0.7657,4.3426 1.5314,8.6852 2.2972 13.0277c 1.0084,-0.1778 2.0169,-0.3556 3.0253 -0.5334c 0.2145,1.2164 0.4290,2.4329 0.6435 3.6493c 17.3326,-3.0562 34.6652,-6.1124 51.9978 -9.1686c -0.2145,-1.2164 -0.4290,-2.4329 -0.6435 -3.6493c 1.0084,-0.1778 2.0169,-0.3556 3.0253 -0.5334c -0.7657,-4.3426 -1.5314,-8.6852 -2.2971 -13.0278c -1.0084,0.1778 -2.0169,0.3556 -3.0253 0.5334c -1.0958,-6.2145 -2.1916,-12.4291 -3.2874 -18.6436c 1.0084,-0.1778 2.0169,-0.3556 3.0253 -0.5335c -0.7657,-4.3426 -1.5314,-8.6852 -2.2972 -13.0278c -1.0084,0.1778 -2.0169,0.3556 -3.0253 0.5335c -0.2145,-1.2164 -0.4290,-2.4329 -0.6435 -3.6493c -17.3326,3.0562 -34.6652,6.1124 -51.9978 9.1686c 0.2145,1.2164 0.4290,2.4329 0.6435 3.6493c -1.0084,0.1778 -2.0169,0.3556 -3.0253 0.5334ZM 328.2960,279.4426 c 0.7657,4.3426 1.5314,8.6852 2.2972 13.0278c 1.0084,-0.1778 2.0169,-0.3556 3.0253 -0.5334c 1.0958,6.2145 2.1916,12.4291 3.2874 18.6436c -1.0084,0.1778 -2.0169,0.3556 -3.0253 0.5335c 0.7657,4.3426 1.5314,8.6852 2.2972 13.0278c 1.0084,-0.1778 2.0168,-0.3556 3.0253 -0.5335c 0.2145,1.2164 0.4290,2.4329 0.6435 3.6493c 17.3326,-3.0562 34.6652,-6.1124 51.9978 -9.1686c -0.2145,-1.2164 -0.4290,-2.4329 -0.6435 -3.6493c 1.0084,-0.1778 2.0169,-0.3556 3.0253 -0.5334c -0.7657,-4.3426 -1.5314,-8.6852 -2.2971 -13.0278c -1.0084,0.1778 -2.0169,0.3556 -3.0253 0.5334c -1.0958,-6.2145 -2.1916,-12.4291 -3.2874 -18.6436c 1.0084,-0.1778 2.0169,-0.3556 3.0253 -0.5335c -0.7657,-4.3426 -1.5314,-8.6852 -2.2972 -13.0277c -1.0084,0.1778 -2.0169,0.3556 -3.0253 0.5334c -0.2145,-1.2164 -0.4290,-2.4329 -0.6435 -3.6493c -17.3326,3.0562 -34.6652,6.1124 -51.9978 9.1686c 0.2145,1.2164 0.4290,2.4329 0.6435 3.6493c -1.0084,0.1778 -2.0169,0.3556 -3.0253 0.5334ZM 340.7659,350.1627 c 0.7657,4.3426 1.5314,8.6852 2.2972 13.0277c 1.0084,-0.1778 2.0169,-0.3556 3.0253 -0.5334c 1.0958,6.2146 2.1916,12.4291 3.2874 18.6437c -1.0084,0.1778 -2.0169,0.3556 -3.0253 0.5334c 0.7657,4.3426 1.5314,8.6852 2.2971 13.0278c 1.0084,-0.1778 2.0169,-0.3556 3.0253 -0.5335c 0.2145,1.2165 0.4290,2.4329 0.6435 3.6493c 17.3326,-3.0562 34.6652,-6.1124 51.9978 -9.1686c -0.2145,-1.2164 -0.4290,-2.4329 -0.6435 -3.6493c 1.0084,-0.1778 2.0169,-0.3557 3.0253 -0.5335c -0.7657,-4.3426 -1.5314,-8.6852 -2.2971 -13.0278c -1.0084,0.1778 -2.0169,0.3556 -3.0253 0.5335c -1.0958,-6.2146 -2.1916,-12.4291 -3.2874 -18.6437c 1.0084,-0.1778 2.0169,-0.3556 3.0253 -0.5334c -0.7657,-4.3426 -1.5314,-8.6852 -2.2972 -13.0278c -1.0084,0.1778 -2.0169,0.3556 -3.0253 0.5334c -0.2145,-1.2164 -0.4290,-2.4329 -0.6435 -3.6493c -17.3326,3.0562 -34.6652,6.1125 -51.9978 9.1686c 0.2145,1.2165 0.4290,2.4329 0.6435 3.6493c -1.0084,0.1778 -2.0169,0.3556 -3.0253 0.5335ZM 363.5755,65.9789 c 0.7657,4.3426 1.5314,8.6852 2.2971 13.0278c 1.0084,-0.1778 2.0169,-0.3556 3.0253 -0.5335c 1.0958,6.2146 2.1916,12.4291 3.2874 18.6437c -1.0084,0.1778 -2.0169,0.3556 -3.0253 0.5334c 0.7657,4.3426 1.5314,8.6852 2.2972 13.0278c 1.0084,-0.1778 2.0169,-0.3556 3.0253 -0.5334c 0.2145,1.2164 0.4290,2.4329 0.6435 3.6493c 17.3326,-3.0562 34.6652,-6.1124 51.9978 -9.1686c -0.2145,-1.2165 -0.4290,-2.4329 -0.6435 -3.6493c 1.0084,-0.1778 2.0169,-0.3556 3.0253 -0.5335c -0.7657,-4.3426 -1.5315,-8.6852 -2.2972 -13.0278c -1.0084,0.1778 -2.0169,0.3556 -3.0253 0.5335c -1.0958,-6.2146 -2.1916,-12.4291 -3.2874 -18.6437c 1.0084,-0.1778 2.0169,-0.3556 3.0253 -0.5334c -0.7657,-4.3426 -1.5314,-8.6852 -2.2972 -13.0278c -1.0084,0.1778 -2.0169,0.3556 -3.0253 0.5335c -0.2145,-1.2165 -0.4290,-2.4329 -0.6435 -3.6493c -17.3326,3.0562 -34.6652,6.1124 -51.9978 9.1686c 0.2145,1.2165 0.4290,2.4329 0.6435 3.6493c -1.0084,0.1778 -2.0169,0.3556 -3.0253 0.5335ZM 376.0453,136.6990 c 0.7657,4.3426 1.5315,8.6852 2.2972 13.0278c 1.0084,-0.1778 2.0169,-0.3556 3.0253 -0.5335c 1.0958,6.2146 2.1916,12.4291 3.2874 18.6437c -1.0084,0.1778 -2.0169,0.3556 -3.0253 0.5334c 0.7657,4.3426 1.5314,8.6852 2.2972 13.0278c 1.0084,-0.1778 2.0169,-0.3556 3.0253 -0.5334c 0.2145,1.2164 0.4290,2.4329 0.6435 3.6493c 17.3326,-3.0562 34.6652,-6.1124 51.9978 -9.1686c -0.2145,-1.2164 -0.4290,-2.4329 -0.6435 -3.6493c 1.0084,-0.1778 2.0169,-0.3556 3.0253 -0.5335c -0.7657,-4.3426 -1.5315,-8.6852 -2.2972 -13.0277c -1.0084,0.1778 -2.0169,0.3556 -3.0253 0.5334c -1.0958,-6.2145 -2.1916,-12.4291 -3.2874 -18.6436c 1.0084,-0.1778 2.0169,-0.3556 3.0253 -0.5335c -0.7657,-4.3426 -1.5314,-8.6852 -2.2972 -13.0278c -1.0084,0.1778 -2.0169,0.3556 -3.0253 0.5335c -0.2145,-1.2164 -0.4290,-2.4329 -0.6435 -3.6493c -17.3326,3.0562 -34.6652,6.1124 -51.9978 9.1686c 0.2145,1.2164 0.4290,2.4329 0.6435 3.6493c -1.0084,0.1778 -2.0169,0.3556 -3.0253 0.5334ZM 388.5151,207.4190 c 0.7657,4.3426 1.5315,8.6852 2.2972 13.0278c 1.0084,-0.1778 2.0169,-0.3556 3.0253 -0.5334c 1.0958,6.2145 2.1916,12.4291 3.2874 18.6436c -1.0084,0.1778 -2.0169,0.3556 -3.0253 0.5335c 0.7657,4.3426 1.5314,8.6852 2.2972 13.0277c 1.0084,-0.1778 2.0169,-0.3556 3.0253 -0.5334c 0.2145,1.2164 0.4290,2.4329 0.6435 3.6493c 17.3326,-3.0562 34.6652,-6.1124 51.9978 -9.1686c -0.2145,-1.2164 -0.4290,-2.4329 -0.6435 -3.6493c 1.0084,-0.1778 2.0169,-0.3556 3.0253 -0.5334c -0.7657,-4.3426 -1.5314,-8.6852 -2.2971 -13.0278c -1.0084,0.1778 -2.0169,0.3556 -3.0253 0.5334c -1.0958,-6.2145 -2.1916,-12.4291 -3.2874 -18.6436c 1.0084,-0.1778 2.0169,-0.3556 3.0253 -0.5335c -0.7657,-4.3426 -1.5314,-8.6852 -2.2972 -13.0277c -1.0084,0.1778 -2.0169,0.3556 -3.0253 0.5334c -0.2145,-1.2164 -0.4290,-2.4329 -0.6435 -3.6493c -17.3326,3.0562 -34.6652,6.1124 -51.9978 9.1686c 0.2145,1.2164 0.4290,2.4329 0.6435 3.6493c -1.0084,0.1778 -2.0169,0.3556 -3.0253 0.5334ZM 400.9850,278.1391 c 0.7657,4.3426 1.5314,8.6852 2.2972 13.0277c 1.0084,-0.1778 2.0169,-0.3556 3.0253 -0.5334c 1.0958,6.2145 2.1916,12.4291 3.2874 18.6436c -1.0084,0.1778 -2.0169,0.3556 -3.0253 0.5335c 0.7657,4.3426 1.5314,8.6852 2.2972 13.0278c 1.0084,-0.1778 2.0169,-0.3556 3.0253 -0.5335c 0.2145,1.2165 0.4290,2.4329 0.6435 3.6493c 17.3326,-3.0562 34.6652,-6.1124 51.9978 -9.1686c -0.2145,-1.2164 -0.4290,-2.4329 -0.6435 -3.6493c 1.0084,-0.1778 2.0169,-0.3556 3.0253 -0.5334c -0.7657,-4.3426 -1.5314,-8.6852 -2.2971 -13.0278c -1.0084,0.1778 -2.0169,0.3556 -3.0253 0.5335c -1.0958,-6.2146 -2.1916,-12.4291 -3.2874 -18.6437c 1.0084,-0.1778 2.0169,-0.3556 3.0253 -0.5334c -0.7657,-4.3426 -1.5314,-8.6852 -2.2972 -13.0278c -1.0084,0.1778 -2.0169,0.3556 -3.0253 0.5334c -0.2145,-1.2164 -0.4290,-2.4329 -0.6435 -3.6493c -17.3326,3.0562 -34.6652,6.1125 -51.9978 9.1686c 0.2145,1.2164 0.4290,2.4329 0.6435 3.6493c -1.0084,0.1778 -2.0169,0.3556 -3.0253 0.5335ZM 413.4548,348.8591 c 0.7657,4.3426 1.5314,8.6852 2.2972 13.0278c 1.0084,-0.1778 2.0169,-0.3556 3.0253 -0.5335c 1.0958,6.2146 2.1916,12.4291 3.2874 18.6437c -1.0084,0.1778 -2.0169,0.3556 -3.0253 0.5334c 0.7657,4.3426 1.5314,8.6852 2.2971 13.0278c 1.0084,-0.1778 2.0169,-0.3556 3.0253 -0.5335c 0.2145,1.2165 0.4290,2.4329 0.6435 3.6493c 17.3326,-3.0562 34.6652,-6.1124 51.9978 -9.1686c -0.2145,-1.2165 -0.4290,-2.4329 -0.6435 -3.6493c 1.0084,-0.1778 2.0169,-0.3556 3.0253 -0.5335c -0.7657,-4.3426 -1.5314,-8.6852 -2.2971 -13.0278c -1.0084,0.1778 -2.0169,0.3556 -3.0253 0.5335c -1.0958,-6.2146 -2.1916,-12.4291 -3.2874 -18.6437c 1.0084,-0.1778 2.0169,-0.3556 3.0253 -0.5334c -0.7657,-4.3426 -1.5314,-8.6852 -2.2972 -13.0278c -1.0084,0.1778 -2.0169,0.3556 -3.0253 0.5335c -0.2145,-1.2165 -0.4290,-2.4329 -0.6435 -3.6493c -17.3326,3.0562 -34.6652,6.1124 -51.9978 9.1686c 0.2145,1.2165 0.4290,2.4329 0.6435 3.6493c -1.0084,0.1778 -2.0169,0.3556 -3.0253 0.5335ZM 434.9518,57.2312 c 0.7657,4.3426 1.5314,8.6852 2.2972 13.0277c 1.0084,-0.1778 2.0169,-0.3556 3.0253 -0.5334c 1.0958,6.2145 2.1915,12.4291 3.2873 18.6437c -1.0084,0.1778 -2.0169,0.3556 -3.0253 0.5334c 0.7657,4.3426 1.5315,8.6852 2.2972 13.0278c 1.0084,-0.1778 2.0169,-0.3556 3.0253 -0.5335c 0.2145,1.2165 0.4290,2.4329 0.6435 3.6493c 17.3326,-3.0562 34.6652,-6.1124 51.9978 -9.1686c -0.2145,-1.2164 -0.4290,-2.4329 -0.6435 -3.6493c 1.0084,-0.1778 2.0169,-0.3556 3.0253 -0.5334c -0.7657,-4.3426 -1.5314,-8.6852 -2.2972 -13.0278c -1.0084,0.1778 -2.0169,0.3556 -3.0253 0.5335c -1.0958,-6.2146 -2.1915,-12.4291 -3.2873 -18.6437c 1.0084,-0.1778 2.0169,-0.3556 3.0253 -0.5334c -0.7657,-4.3426 -1.5315,-8.6852 -2.2972 -13.0278c -1.0084,0.1778 -2.0169,0.3556 -3.0253 0.5334c -0.2145,-1.2164 -0.4290,-2.4329 -0.6435 -3.6493c -17.3326,3.0562 -34.6652,6.1125 -51.9978 9.1686c 0.2145,1.2165 0.4290,2.4329 0.6435 3.6493c -1.0084,0.1778 -2.0169,0.3556 -3.0253 0.5335ZM 447.4216,127.9512 c 0.7657,4.3426 1.5314,8.6852 2.2972 13.0278c 1.0084,-0.1778 2.0169,-0.3556 3.0253 -0.5335c 1.0958,6.2146 2.1915,12.4291 3.2873 18.6437c -1.0084,0.1778 -2.0169,0.3556 -3.0253 0.5334c 0.7657,4.3426 1.5315,8.6852 2.2972 13.0278c 1.0084,-0.1778 2.0169,-0.3556 3.0253 -0.5334c 0.2145,1.2164 0.4290,2.4329 0.6435 3.6493c 17.3326,-3.0562 34.6652,-6.1124 51.9978 -9.1686c -0.2145,-1.2165 -0.4290,-2.4329 -0.6435 -3.6493c 1.0084,-0.1778 2.0169,-0.3556 3.0253 -0.5335c -0.7657,-4.3426 -1.5314,-8.6852 -2.2972 -13.0278c -1.0084,0.1778 -2.0169,0.3556 -3.0253 0.5335c -1.0958,-6.2146 -2.1915,-12.4291 -3.2873 -18.6437c 1.0084,-0.1778 2.0169,-0.3556 3.0253 -0.5334c -0.7657,-4.3426 -1.5315,-8.6852 -2.2972 -13.0278c -1.0084,0.1778 -2.0169,0.3556 -3.0253 0.5335c -0.2145,-1.2165 -0.4290,-2.4329 -0.6435 -3.6493c -17.3326,3.0562 -34.6652,6.1124 -51.9978 9.1686c 0.2145,1.2165 0.4290,2.4329 0.6435 3.6493c -1.0084,0.1778 -2.0169,0.3556 -3.0253 0.5335ZM 459.8915,198.6713 c 0.7657,4.3426 1.5314,8.6852 2.2972 13.0278c 1.0084,-0.1778 2.0169,-0.3556 3.0253 -0.5335c 1.0957,6.2146 2.1915,12.4291 3.2873 18.6437c -1.0084,0.1778 -2.0169,0.3556 -3.0253 0.5334c 0.7657,4.3426 1.5315,8.6852 2.2972 13.0278c 1.0084,-0.1778 2.0169,-0.3556 3.0253 -0.5334c 0.2145,1.2164 0.4290,2.4329 0.6435 3.6493c 17.3326,-3.0562 34.6652,-6.1125 51.9978 -9.1686c -0.2145,-1.2164 -0.4290,-2.4329 -0.6435 -3.6493c 1.0084,-0.1778 2.0169,-0.3556 3.0253 -0.5335c -0.7657,-4.3426 -1.5314,-8.6852 -2.2972 -13.0277c -1.0084,0.1778 -2.0169,0.3556 -3.0253 0.5334c -1.0958,-6.2145 -2.1916,-12.4291 -3.2873 -18.6436c 1.0084,-0.1778 2.0169,-0.3556 3.0253 -0.5335c -0.7657,-4.3426 -1.5314,-8.6852 -2.2971 -13.0278c -1.0084,0.1778 -2.0169,0.3556 -3.0253 0.5335c -0.2145,-1.2164 -0.4290,-2.4329 -0.6435 -3.6493c -17.3326,3.0562 -34.6652,6.1124 -51.9978 9.1686c 0.2145,1.2164 0.4290,2.4329 0.6435 3.6493c -1.0084,0.1778 -2.0169,0.3556 -3.0253 0.5334ZM 472.3614,269.3913 c 0.7657,4.3426 1.5314,8.6852 2.2972 13.0278c 1.0084,-0.1778 2.0169,-0.3556 3.0253 -0.5334c 1.0957,6.2145 2.1915,12.4291 3.2873 18.6436c -1.0084,0.1778 -2.0169,0.3556 -3.0253 0.5335c 0.7657,4.3426 1.5314,8.6852 2.2972 13.0278c 1.0084,-0.1778 2.0169,-0.3557 3.0253 -0.5335c 0.2145,1.2164 0.4290,2.4329 0.6435 3.6493c 17.3326,-3.0562 34.6652,-6.1124 51.9978 -9.1686c -0.2145,-1.2164 -0.4290,-2.4329 -0.6435 -3.6493c 1.0084,-0.1778 2.0169,-0.3556 3.0253 -0.5334c -0.7657,-4.3426 -1.5314,-8.6852 -2.2972 -13.0278c -1.0084,0.1778 -2.0169,0.3556 -3.0253 0.5334c -1.0958,-6.2145 -2.1916,-12.4291 -3.2873 -18.6436c 1.0084,-0.1778 2.0168,-0.3556 3.0253 -0.5335c -0.7657,-4.3426 -1.5314,-8.6852 -2.2971 -13.0277c -1.0084,0.1778 -2.0169,0.3556 -3.0253 0.5334c -0.2145,-1.2164 -0.4290,-2.4329 -0.6435 -3.6493c -17.3326,3.0562 -34.6652,6.1124 -51.9978 9.1686c 0.2145,1.2164 0.4290,2.4329 0.6435 3.6493c -1.0084,0.1778 -2.0169,0.3556 -3.0253 0.5334ZM 484.8312,340.1114 c 0.7657,4.3426 1.5314,8.6852 2.2971 13.0277c 1.0084,-0.1778 2.0169,-0.3556 3.0253 -0.5334c 1.0958,6.2145 2.1916,12.4291 3.2874 18.6436c -1.0084,0.1778 -2.0169,0.3556 -3.0253 0.5335c 0.7657,4.3426 1.5314,8.6852 2.2972 13.0278c 1.0084,-0.1778 2.0169,-0.3556 3.0253 -0.5335c 0.2145,1.2165 0.4290,2.4329 0.6435 3.6493c 17.3326,-3.0562 34.6652,-6.1124 51.9978 -9.1686c -0.2145,-1.2164 -0.4290,-2.4329 -0.6435 -3.6493c 1.0084,-0.1778 2.0169,-0.3556 3.0253 -0.5334c -0.7657,-4.3426 -1.5314,-8.6852 -2.2972 -13.0278c -1.0084,0.1778 -2.0169,0.3556 -3.0253 0.5335c -1.0958,-6.2146 -2.1916,-12.4291 -3.2874 -18.6437c 1.0084,-0.1778 2.0169,-0.3556 3.0253 -0.5334c -0.7657,-4.3426 -1.5314,-8.6852 -2.2971 -13.0278c -1.0084,0.1778 -2.0169,0.3556 -3.0253 0.5334c -0.2145,-1.2164 -0.4290,-2.4329 -0.6435 -3.6493c -17.3326,3.0562 -34.6652,6.1125 -51.9978 9.1686c 0.2145,1.2164 0.4290,2.4329 0.6435 3.6493c -1.0084,0.1778 -2.0169,0.3556 -3.0253 0.5335ZM 508.3547,24.1260 c 0.0000,3.1311 2.5382,5.6693 5.6693 5.6693c 3.1310,-0.0000 5.6693,-2.5382 5.6693 -5.6693c 0.0000,-3.1310 -2.5382,-5.6693 -5.6693 -5.6693c -3.1310,-0.0000 -5.6693,2.5382 -5.6693 5.6693ZM 573.6314,386.7695 c 0.0000,3.1311 2.5382,5.6693 5.6693 5.6693c 3.1310,-0.0000 5.6693,-2.5382 5.6693 -5.6693c 0.0000,-3.1310 -2.5382,-5.6693 -5.6693 -5.6693c -3.1311,-0.0000 -5.6693,2.5382 -5.6693 5.6693Z"/></g><g stroke-linejoin="miter" stroke-opacity="1.0" fill-opacity="0.5" stroke="rgb(0,0,0)" stroke-width="0.37795275590551186" fill="rgb(0,0,255)" stroke-linecap="butt" stroke-miterlimit="10.0"><path d="M 3.9685,20.3464 c 0.0000,-9.0453 7.3326,-16.3779 16.3779 -16.3779c 165.8190,-0.0000 331.6381,-0.0000 497.4571 -0.0000c 7.9481,-0.0000 14.7490,5.7066 16.1292 13.5339c 21.7589,123.4009 43.5178,246.8017 65.2767 370.2026c 0.1693,0.9602 0.2512,1.9164 0.2512 2.8601c 0.0000,7.5158 -5.1925,14.2444 -12.7658 15.9580c -139.1905,31.4946 -278.3811,62.9892 -417.5716 94.4837c -1.1861,0.2684 -2.3984,0.4038 -3.6145 0.4038c -48.3874,-0.0000 -96.7748,-0.0000 -145.1622 -0.0000c -9.0453,-0.0000 -16.3779,-7.3326 -16.3779 -16.3779c 0.0000,-154.8954 0.0000,-309.7909 0.0000 -464.6863ZM 41.6023,374.0133 c 0.0000,0.2179 0.0189,0.4388 0.0581 0.6607c 4.3141,24.4667 8.6282,48.9333 12.9424 73.4000c 0.3624,2.0556 2.3227,3.4283 4.3784 3.0658c 22.3326,-3.9378 44.6653,-7.8757 66.9979 -11.8135c 1.8595,10.5459 3.7191,21.0919 5.5786 31.6379c 0.3625,2.0557 2.3228,3.4283 4.3784 3.0658c 24.4667,-4.3141 48.9333,-8.6283 73.4000 -12.9424c 1.8337,-0.3233 3.1238,-1.9180 3.1238 -3.7177c 0.0000,-0.2179 -0.0189,-0.4388 -0.0581 -0.6607c -0.8751,-4.9628 -1.7502,-9.9256 -2.6252 -14.8884c 22.3326,-3.9378 44.6653,-7.8757 66.9980 -11.8136c 1.8337,-0.3233 3.1238,-1.9180 3.1238 -3.7176c 0.0000,-0.2179 -0.0189,-0.4388 -0.0581 -0.6608c -1.0939,-6.2035 -2.1877,-12.4070 -3.2815 -18.6105c 20.1986,-3.5615 40.3972,-7.1231 60.5959 -10.6847c 0.8751,4.9628 1.7502,9.9256 2.6252 14.8884c 0.3625,2.0557 2.3228,3.4283 4.3784 3.0658c 22.3326,-3.9379 44.6653,-7.8757 66.9980 -11.8136c 0.4375,2.4814 0.8751,4.9628 1.3126 7.4442c 0.3625,2.0556 2.3228,3.4282 4.3784 3.0658c 22.3326,-3.9379 44.6653,-7.8757 66.9980 -11.8136c 0.3624,2.0557 2.3227,3.4283 4.3784 3.0658c 24.4666,-4.3141 48.9333,-8.6283 73.3999 -12.9424c 1.8337,-0.3233 3.1239,-1.9180 3.1239 -3.7177c 0.0000,-0.2179 -0.0189,-0.4388 -0.0581 -0.6607c -4.1567,-23.5733 -8.3133,-47.1467 -12.4699 -70.7201c -0.1575,-0.8933 -0.3150,-1.7866 -0.4725 -2.6799c -3.9991,-22.6800 -7.9982,-45.3601 -11.9973 -68.0401c -0.1575,-0.8933 -0.3150,-1.7866 -0.4725 -2.6799c -3.9991,-22.6801 -7.9982,-45.3601 -11.9973 -68.0401c -0.1575,-0.8933 -0.3150,-1.7866 -0.4725 -2.6799c -3.9991,-22.6801 -7.9982,-45.3601 -11.9973 -68.0401c -0.1575,-0.8933 -0.3150,-1.7866 -0.4725 -2.6800c -4.1566,-23.5733 -8.3133,-47.1467 -12.4699 -70.7200c -0.3625,-2.0556 -2.3228,-3.4283 -4.3784 -3.0658c -22.3326,3.9378 -44.6653,7.8757 -66.9980 11.8136c -0.3624,-2.0557 -2.3227,-3.4283 -4.3784 -3.0658c -22.3327,3.9379 -44.6653,7.8757 -66.9980 11.8136c -0.4376,-2.4814 -0.8751,-4.9628 -1.3126 -7.4442c -0.3625,-2.0556 -2.3228,-3.4282 -4.3784 -3.0658c -22.3327,3.9378 -44.6653,7.8757 -66.9980 11.8136c -0.8751,-4.9628 -1.7502,-9.9256 -2.6252 -14.8884c -0.3625,-2.0556 -2.3227,-3.4283 -4.3784 -3.0658c -24.4667,4.3141 -48.9333,8.6282 -73.3999 12.9423c -1.8337,0.3233 -3.1239,1.9180 -3.1239 3.7177c 0.0000,0.2179 0.0189,0.4388 0.0581 0.6607c 1.0939,6.2035 2.1877,12.4070 3.2815 18.6106c -22.3326,3.9378 -44.6653,7.8757 -66.9979 11.8136c -1.8337,0.3233 -3.1239,1.9180 -3.1239 3.7176c 0.0000,0.2179 0.0189,0.4388 0.0581 0.6608c 0.8751,4.9628 1.7502,9.9256 2.6252 14.8884c -22.3326,3.9379 -44.6653,7.8757 -66.9979 11.8136c -1.8337,0.3233 -3.1239,1.9180 -3.1239 3.7177c 0.0000,0.2178 0.0190,0.4387 0.0581 0.6607c 4.1567,23.5733 8.3133,47.1467 12.4699 70.7200c 0.1575,0.8933 0.3150,1.7866 0.4726 2.6800c 3.9991,22.6800 7.9982,45.3601 11.9973 68.0401c 0.1575,0.8933 0.3150,1.7866 0.4725 2.6800c 3.9991,22.6800 7.9982,45.3601 11.9973 68.0401c 0.1575,0.8933 0.3150,1.7866 0.4725 2.6799c 1.7020,9.6527 3.4040,19.3053 5.1061 28.9580c -22.3326,3.9378 -44.6653,7.8757 -66.9980 11.8135c -1.8337,0.3233 -3.1238,1.9180 -3.1238 3.7177ZM 90.2677,24.1260 c 0.0000,3.1311 2.5382,5.6693 5.6693 5.6693c 3.1311,-0.0000 5.6693,-2.5382 5.6693 -5.6693c 0.0000,-3.1310 -2.5382,-5.6693 -5.6693 -5.6693c -3.1310,-0.0000 -5.6693,2.5382 -5.6693 5.6693ZM 159.8394,481.2532 c 0.0000,3.1311 2.5382,5.6693 5.6693 5.6693c 3.1311,-0.0000 5.6693,-2.5382 5.6693 -5.6693c 0.0000,-3.1310 -2.5382,-5.6693 -5.6693 -5.6693c -3.1310,-0.0000 -5.6693,2.5382 -5.6693 5.6693ZM 508.3547,24.1260 c 0.0000,3.1311 2.5382,5.6693 5.6693 5.6693c 3.1310,-0.0000 5.6693,-2.5382 5.6693 -5.6693c 0.0000,-3.1310 -2.5382,-5.6693 -5.6693 -5.6693c -3.1310,-0.0000 -5.6693,2.5382 -5.6693 5.6693ZM 573.6314,386.7695 c 0.0000,3.1311 2.5382,5.6693 5.6693 5.6693c 3.1310,-0.0000 5.6693,-2.5382 5.6693 -5.6693c 0.0000,-3.1310 -2.5382,-5.6693 -5.6693 -5.6693c -3.1311,-0.0000 -5.6693,2.5382 -5.6693 5.6693Z"/></g><g stroke-linejoin="miter" stroke-opacity="1.0" fill-opacity="0.7" stroke="rgb(0,0,0)" stroke-width="0.37795275590551186" fill="rgb(0,0,0)" stroke-linecap="butt" stroke-miterlimit="10.0"><path d="M 128.1136,425.4215 l -9.6280,-54.6033 c -0.7249,-4.1113 -4.6455,-6.8565 -8.7568 -6.1316l -54.6033,9.6280 c -4.1113,0.7249 -6.8565,4.6455 -6.1316 8.7568l 9.6280,54.6033 c 0.7249,4.1113 4.6455,6.8565 8.7568 6.1316l 54.6033,-9.6280 c 4.1113,-0.7249 6.8565,-4.6455 6.1316 -8.7568Z"/></g><defs><linearGradient x2="5.0000" y1="0.0000" gradientUnits="userSpaceOnUse" spreadMethod="pad" gradientTransform="matrix(3.7221,-0.6563,-0.6563,-3.7221,88.5537,404.2465)" id="gradient10" y2="0.0000" x1="-5.0000"><stop stop-opacity="0.1000" offset="0.0000" stop-color="rgb(0,0,0)"/><stop stop-opacity="0.1000" offset="0.5000" stop-color="rgb(255,255,255)"/><stop stop-opacity="0.1000" offset="1.0000" stop-color="rgb(0,0,0)"/></linearGradient></defs><g stroke-linejoin="miter" stroke-opacity="1.0" fill-opacity="1" stroke="rgb(0,0,0)" stroke-width="0.37795275590551186" fill="url(#gradient10)" stroke-linecap="butt" stroke-miterlimit="10.0"><path d="M 115.6351,416.6840 l -5.8871,-33.3873 c -0.7249,-4.1113 -4.6455,-6.8565 -8.7568 -6.1316l -33.3873,5.8871 c -4.1113,0.7249 -6.8565,4.6455 -6.1316 8.7568l 5.8871,33.3873 c 0.7249,4.1113 4.6455,6.8565 8.7568 6.1316l 33.3873,-5.8871 c 4.1113,-0.7249 6.8565,-4.6455 6.1316 -8.7568Z"/></g><g stroke-linejoin="miter" stroke-opacity="1.0" fill-opacity="0.7" stroke="rgb(0,0,0)" stroke-width="0.37795275590551186" fill="rgb(0,0,0)" stroke-linecap="butt" stroke-miterlimit="10.0"><path d="M 507.4768,95.6380 l -9.6280,-54.6033 c -0.7249,-4.1113 -4.6455,-6.8565 -8.7568 -6.1316l -54.6033,9.6280 c -4.1113,0.7249 -6.8565,4.6455 -6.1316 8.7568l 9.6280,54.6033 c 0.7249,4.1113 4.6455,6.8565 8.7568 6.1316l 54.6033,-9.6280 c 4.1113,-0.7249 6.8565,-4.6455 6.1316 -8.7568Z"/></g><defs><linearGradient x2="5.0000" y1="0.0000" gradientUnits="userSpaceOnUse" spreadMethod="pad" gradientTransform="matrix(3.7221,-0.6563,-0.6563,-3.7221,467.9169,74.4630)" id="gradient14" y2="0.0000" x1="-5.0000"><stop stop-opacity="0.1000" offset="0.0000" stop-color="rgb(0,0,0)"/><stop stop-opacity="0.1000" offset="0.5000" stop-color="rgb(255,255,255)"/><stop stop-opacity="0.1000" offset="1.0000" stop-color="rgb(0,0,0)"/></linearGradient></defs><g stroke-linejoin="miter" stroke-opacity="1.0" fill-opacity="1" stroke="rgb(0,0,0)" stroke-width="0.37795275590551186" fill="url(#gradient14)" stroke-linecap="butt" stroke-miterlimit="10.0"><path d="M 494.9983,86.9005 l -5.8871,-33.3873 c -0.7249,-4.1113 -4.6455,-6.8565 -8.7568 -6.1316l -33.3873,5.8871 c -4.1113,0.7249 -6.8565,4.6455 -6.1316 8.7568l 5.8871,33.3873 c 0.7249,4.1113 4.6455,6.8565 8.7568 6.1316l 33.3873,-5.8871 c 4.1113,-0.7249 6.8565,-4.6455 6.1316 -8.7568Z"/></g><g stroke-linejoin="miter" stroke-opacity="1.0" fill-opacity="0.7" stroke="rgb(0,0,0)" stroke-width="0.37795275590551186" fill="rgb(0,0,0)" stroke-linecap="butt" stroke-miterlimit="10.0"><path d="M 519.9466,166.3581 l -9.6280,-54.6033 c -0.7249,-4.1113 -4.6455,-6.8565 -8.7568 -6.1316l -54.6033,9.6280 c -4.1113,0.7249 -6.8565,4.6455 -6.1316 8.7568l 9.6280,54.6033 c 0.7249,4.1113 4.6455,6.8565 8.7568 6.1316l 54.6033,-9.6280 c 4.1113,-0.7249 6.8565,-4.6455 6.1316 -8.7568Z"/></g><defs><linearGradient x2="5.0000" y1="0.0000" gradientUnits="userSpaceOnUse" spreadMethod="pad" gradientTransform="matrix(3.7221,-0.6563,-0.6563,-3.7221,480.3867,145.1830)" id="gradient18" y2="0.0000" x1="-5.0000"><stop stop-opacity="0.1000" offset="0.0000" stop-color="rgb(0,0,0)"/><stop stop-opacity="0.1000" offset="0.5000" stop-color="rgb(255,255,255)"/><stop stop-opacity="0.1000" offset="1.0000" stop-color="rgb(0,0,0)"/></linearGradient></defs><g stroke-linejoin="miter" stroke-opacity="1.0" fill-opacity="1" stroke="rgb(0,0,0)" stroke-width="0.37795275590551186" fill="url(#gradient18)" stroke-linecap="butt" stroke-miterlimit="10.0"><path d="M 507.4681,157.6205 l -5.8871,-33.3873 c -0.7249,-4.1113 -4.6455,-6.8565 -8.7568 -6.1316l -33.3873,5.8871 c -4.1113,0.7249 -6.8565,4.6455 -6.1316 8.7568l 5.8871,33.3873 c 0.7249,4.1113 4.6455,6.8565 8.7568 6.1316l 33.3873,-5.8871 c 4.1113,-0.7249 6.8565,-4.6455 6.1316 -8.7568Z"/></g><g stroke-linejoin="miter" stroke-opacity="1.0" fill-opacity="0.7" stroke="rgb(0,0,0)" stroke-width="0.37795275590551186" fill="rgb(0,0,0)" stroke-linecap="butt" stroke-miterlimit="10.0"><path d="M 532.4165,237.0781 l -9.6280,-54.6033 c -0.7249,-4.1113 -4.6455,-6.8565 -8.7568 -6.1316l -54.6033,9.6280 c -4.1113,0.7249 -6.8565,4.6455 -6.1316 8.7568l 9.6280,54.6033 c 0.7249,4.1113 4.6455,6.8565 8.7568 6.1316l 54.6033,-9.6280 c 4.1113,-0.7249 6.8565,-4.6455 6.1316 -8.7568Z"/></g><defs><linearGradient x2="5.0000" y1="0.0000" gradientUnits="userSpaceOnUse" spreadMethod="pad" gradientTransform="matrix(3.7221,-0.6563,-0.6563,-3.7221,492.8566,215.9031)" id="gradient22" y2="0.0000" x1="-5.0000"><stop stop-opacity="0.1000" offset="0.0000" stop-color="rgb(0,0,0)"/><stop stop-opacity="0.1000" offset="0.5000" stop-color="rgb(255,255,255)"/><stop stop-opacity="0.1000" offset="1.0000" stop-color="rgb(0,0,0)"/></linearGradient></defs><g stroke-linejoin="miter" stroke-opacity="1.0" fill-opacity="1" stroke="rgb(0,0,0)" stroke-width="0.37795275590551186" fill="url(#gradient22)" stroke-linecap="butt" stroke-miterlimit="10.0"><path d="M 519.9380,228.3406 l -5.8871,-33.3873 c -0.7249,-4.1113 -4.6455,-6.8565 -8.7568 -6.1316l -33.3873,5.8871 c -4.1113,0.7249 -6.8565,4.6455 -6.1316 8.7568l 5.8871,33.3873 c 0.7249,4.1113 4.6455,6.8565 8.7568 6.1316l 33.3873,-5.8871 c 4.1113,-0.7249 6.8565,-4.6455 6.1316 -8.7568Z"/></g><g stroke-linejoin="miter" stroke-opacity="1.0" fill-opacity="0.7" stroke="rgb(0,0,0)" stroke-width="0.37795275590551186" fill="rgb(0,0,0)" stroke-linecap="butt" stroke-miterlimit="10.0"><path d="M 544.8863,307.7982 l -9.6280,-54.6033 c -0.7249,-4.1113 -4.6455,-6.8565 -8.7568 -6.1316l -54.6033,9.6280 c -4.1113,0.7249 -6.8565,4.6455 -6.1316 8.7568l 9.6280,54.6033 c 0.7249,4.1113 4.6455,6.8565 8.7568 6.1316l 54.6033,-9.6280 c 4.1113,-0.7249 6.8565,-4.6455 6.1316 -8.7568Z"/></g><defs><linearGradient x2="5.0000" y1="0.0000" gradientUnits="userSpaceOnUse" spreadMethod="pad" gradientTransform="matrix(3.7221,-0.6563,-0.6563,-3.7221,505.3264,286.6231)" id="gradient26" y2="0.0000" x1="-5.0000"><stop stop-opacity="0.1000" offset="0.0000" stop-color="rgb(0,0,0)"/><stop stop-opacity="0.1000" offset="0.5000" stop-color="rgb(255,255,255)"/><stop stop-opacity="0.1000" offset="1.0000" stop-color="rgb(0,0,0)"/></linearGradient></defs><g stroke-linejoin="miter" stroke-opacity="1.0" fill-opacity="1" stroke="rgb(0,0,0)" stroke-width="0.37795275590551186" fill="url(#gradient26)" stroke-linecap="butt" stroke-miterlimit="10.0"><path d="M 532.4079,299.0606 l -5.8871,-33.3873 c -0.7249,-4.1113 -4.6455,-6.8565 -8.7568 -6.1316l -33.3873,5.8871 c -4.1113,0.7249 -6.8565,4.6455 -6.1316 8.7568l 5.8871,33.3873 c 0.7249,4.1113 4.6455,6.8565 8.7568 6.1316l 33.3873,-5.8871 c 4.1113,-0.7249 6.8565,-4.6455 6.1316 -8.7568Z"/></g><g stroke-linejoin="miter" stroke-opacity="1.0" fill-opacity="0.7" stroke="rgb(0,0,0)" stroke-width="0.37795275590551186" fill="rgb(0,0,0)" stroke-linecap="butt" stroke-miterlimit="10.0"><path d="M 557.3562,378.5182 l -9.6280,-54.6033 c -0.7249,-4.1113 -4.6455,-6.8565 -8.7568 -6.1316l -54.6033,9.6280 c -4.1113,0.7249 -6.8565,4.6455 -6.1316 8.7568l 9.6280,54.6033 c 0.7249,4.1113 4.6455,6.8565 8.7568 6.1316l 54.6033,-9.6280 c 4.1113,-0.7249 6.8565,-4.6455 6.1316 -8.7568Z"/></g><defs><linearGradient x2="5.0000" y1="0.0000" gradientUnits="userSpaceOnUse" spreadMethod="pad" gradientTransform="matrix(3.7221,-0.6563,-0.6563,-3.7221,517.7963,357.3432)" id="gradient30" y2="0.0000" x1="-5.0000"><stop stop-opacity="0.1000" offset="0.0000" stop-color="rgb(0,0,0)"/><stop stop-opacity="0.1000" offset="0.5000" stop-color="rgb(255,255,255)"/><stop stop-opacity="0.1000" offset="1.0000" stop-color="rgb(0,0,0)"/></linearGradient></defs><g stroke-linejoin="miter" stroke-opacity="1.0" fill-opacity="1" stroke="rgb(0,0,0)" stroke-width="0.37795275590551186" fill="url(#gradient30)" stroke-linecap="butt" stroke-miterlimit="10.0"><path d="M 544.8777,369.7807 l -5.8871,-33.3873 c -0.7249,-4.1113 -4.6455,-6.8565 -8.7568 -6.1316l -33.3873,5.8871 c -4.1113,0.7249 -6.8565,4.6455 -6.1316 8.7568l 5.8871,33.3873 c 0.7249,4.1113 4.6455,6.8565 8.7568 6.1316l 33.3873,-5.8871 c 4.1113,-0.7249 6.8565,-4.6455 6.1316 -8.7568Z"/></g><g stroke-linejoin="miter" stroke-opacity="1.0" fill-opacity="0.7" stroke="rgb(0,0,0)" stroke-width="0.37795275590551186" fill="rgb(0,0,0)" stroke-linecap="butt" stroke-miterlimit="10.0"><path d="M 436.1004,104.3858 l -9.6280,-54.6033 c -0.7249,-4.1113 -4.6455,-6.8565 -8.7568 -6.1316l -54.6033,9.6280 c -4.1113,0.7249 -6.8565,4.6455 -6.1316 8.7568l 9.6280,54.6033 c 0.7249,4.1113 4.6455,6.8565 8.7568 6.1316l 54.6033,-9.6280 c 4.1113,-0.7249 6.8565,-4.6455 6.1316 -8.7568Z"/></g><defs><linearGradient x2="5.0000" y1="0.0000" gradientUnits="userSpaceOnUse" spreadMethod="pad" gradientTransform="matrix(3.7221,-0.6563,-0.6563,-3.7221,396.5405,83.2107)" id="gradient34" y2="0.0000" x1="-5.0000"><stop stop-opacity="0.1000" offset="0.0000" stop-color="rgb(0,0,0)"/><stop stop-opacity="0.1000" offset="0.5000" stop-color="rgb(255,255,255)"/><stop stop-opacity="0.1000" offset="1.0000" stop-color="rgb(0,0,0)"/></linearGradient></defs><g stroke-linejoin="miter" stroke-opacity="1.0" fill-opacity="1" stroke="rgb(0,0,0)" stroke-width="0.37795275590551186" fill="url(#gradient34)" stroke-linecap="butt" stroke-miterlimit="10.0"><path d="M 423.6219,95.6482 l -5.8871,-33.3873 c -0.7249,-4.1113 -4.6455,-6.8565 -8.7568 -6.1316l -33.3873,5.8871 c -4.1113,0.7249 -6.8565,4.6455 -6.1316 8.7568l 5.8871,33.3873 c 0.7249,4.1113 4.6455,6.8565 8.7568 6.1316l 33.3873,-5.8871 c 4.1113,-0.7249 6.8565,-4.6455 6.1316 -8.7568Z"/></g><g stroke-linejoin="miter" stroke-opacity="1.0" fill-opacity="0.7" stroke="rgb(0,0,0)" stroke-width="0.37795275590551186" fill="rgb(0,0,0)" stroke-linecap="butt" stroke-miterlimit="10.0"><path d="M 448.5703,175.1058 l -9.6280,-54.6033 c -0.7249,-4.1113 -4.6455,-6.8565 -8.7568 -6.1316l -54.6033,9.6280 c -4.1113,0.7249 -6.8565,4.6455 -6.1316 8.7568l 9.6280,54.6033 c 0.7249,4.1113 4.6455,6.8565 8.7568 6.1316l 54.6033,-9.6280 c 4.1113,-0.7249 6.8565,-4.6455 6.1316 -8.7568Z"/></g><defs><linearGradient x2="5.0000" y1="0.0000" gradientUnits="userSpaceOnUse" spreadMethod="pad" gradientTransform="matrix(3.7221,-0.6563,-0.6563,-3.7221,409.0104,153.9308)" id="gradient38" y2="0.0000" x1="-5.0000"><stop stop-opacity="0.1000" offset="0.0000" stop-color="rgb(0,0,0)"/><stop stop-opacity="0.1000" offset="0.5000" stop-color="rgb(255,255,255)"/><stop stop-opacity="0.1000" offset="1.0000" stop-color="rgb(0,0,0)"/></linearGradient></defs><g stroke-linejoin="miter" stroke-opacity="1.0" fill-opacity="1" stroke="rgb(0,0,0)" stroke-width="0.37795275590551186" fill="url(#gradient38)" stroke-linecap="butt" stroke-miterlimit="10.0"><path d="M 436.0918,166.3683 l -5.8871,-33.3873 c -0.7249,-4.1113 -4.6455,-6.8565 -8.7568 -6.1316l -33.3873,5.8871 c -4.1113,0.7249 -6.8565,4.6455 -6.1316 8.7568l 5.8871,33.3873 c 0.7249,4.1113 4.6455,6.8565 8.7568 6.1316l 33.3873,-5.8871 c 4.1113,-0.7249 6.8565,-4.6455 6.1316 -8.7568Z"/></g><g stroke-linejoin="miter" stroke-opacity="1.0" fill-opacity="0.7" stroke="rgb(0,0,0)" stroke-width="0.37795275590551186" fill="rgb(0,0,0)" stroke-linecap="butt" stroke-miterlimit="10.0"><path d="M 461.0401,245.8259 l -9.6280,-54.6033 c -0.7249,-4.1113 -4.6455,-6.8565 -8.7568 -6.1316l -54.6033,9.6280 c -4.1113,0.7249 -6.8565,4.6455 -6.1316 8.7568l 9.6280,54.6033 c 0.7249,4.1113 4.6455,6.8565 8.7568 6.1316l 54.6033,-9.6280 c 4.1113,-0.7249 6.8565,-4.6455 6.1316 -8.7568Z"/></g><defs><linearGradient x2="5.0000" y1="0.0000" gradientUnits="userSpaceOnUse" spreadMethod="pad" gradientTransform="matrix(3.7221,-0.6563,-0.6563,-3.7221,421.4802,224.6508)" id="gradient42" y2="0.0000" x1="-5.0000"><stop stop-opacity="0.1000" offset="0.0000" stop-color="rgb(0,0,0)"/><stop stop-opacity="0.1000" offset="0.5000" stop-color="rgb(255,255,255)"/><stop stop-opacity="0.1000" offset="1.0000" stop-color="rgb(0,0,0)"/></linearGradient></defs><g stroke-linejoin="miter" stroke-opacity="1.0" fill-opacity="1" stroke="rgb(0,0,0)" stroke-width="0.37795275590551186" fill="url(#gradient42)" stroke-linecap="butt" stroke-miterlimit="10.0"><path d="M 448.5616,237.0883 l -5.8871,-33.3873 c -0.7249,-4.1113 -4.6455,-6.8565 -8.7568 -6.1316l -33.3873,5.8871 c -4.1113,0.7249 -6.8565,4.6455 -6.1316 8.7568l 5.8871,33.3873 c 0.7249,4.1113 4.6455,6.8565 8.7568 6.1316l 33.3873,-5.8871 c 4.1113,-0.7249 6.8565,-4.6455 6.1316 -8.7568Z"/></g><g stroke-linejoin="miter" stroke-opacity="1.0" fill-opacity="0.7" stroke="rgb(0,0,0)" stroke-width="0.37795275590551186" fill="rgb(0,0,0)" stroke-linecap="butt" stroke-miterlimit="10.0"><path d="M 473.5100,316.5459 l -9.6280,-54.6033 c -0.7249,-4.1113 -4.6455,-6.8565 -8.7568 -6.1316l -54.6033,9.6280 c -4.1113,0.7249 -6.8565,4.6455 -6.1316 8.7568l 9.6280,54.6033 c 0.7249,4.1113 4.6455,6.8565 8.7568 6.1316l 54.6033,-9.6280 c 4.1113,-0.7249 6.8565,-4.6455 6.1316 -8.7568Z"/></g><defs><linearGradient x2="5.0000" y1="0.0000" gradientUnits="userSpaceOnUse" spreadMethod="pad" gradientTransform="matrix(3.7221,-0.6563,-0.6563,-3.7221,433.9501,295.3709)" id="gradient46" y2="0.0000" x1="-5.0000"><stop stop-opacity="0.1000" offset="0.0000" stop-color="rgb(0,0,0)"/><stop stop-opacity="0.1000" offset="0.5000" stop-color="rgb(255,255,255)"/><stop stop-opacity="0.1000" offset="1.0000" stop-color="rgb(0,0,0)"/></linearGradient></defs><g stroke-linejoin="miter" stroke-opacity="1.0" fill-opacity="1" stroke="rgb(0,0,0)" stroke-width="0.37795275590551186" fill="url(#gradient46)" stroke-linecap="butt" stroke-miterlimit="10.0"><path d="M 461.0315,307.8084 l -5.8871,-33.3873 c -0.7249,-4.1113 -4.6455,-6.8565 -8.7568 -6.1316l -33.3873,5.8871 c -4.1113,0.7249 -6.8565,4.6455 -6.1316 8.7568l 5.8871,33.3873 c 0.7249,4.1113 4.6455,6.8565 8.7568 6.1316l 33.3873,-5.8871 c 4.1113,-0.7249 6.8565,-4.6455 6.1316 -8.7568Z"/></g><g stroke-linejoin="miter" stroke-opacity="1.0" fill-opacity="0.7" stroke="rgb(0,0,0)" stroke-width="0.37795275590551186" fill="rgb(0,0,0)" stroke-linecap="butt" stroke-miterlimit="10.0"><path d="M 485.9798,387.2660 l -9.6280,-54.6033 c -0.7249,-4.1113 -4.6455,-6.8565 -8.7568 -6.1316l -54.6033,9.6280 c -4.1113,0.7249 -6.8565,4.6455 -6.1316 8.7568l 9.6280,54.6033 c 0.7249,4.1113 4.6455,6.8565 8.7568 6.1316l 54.6033,-9.6280 c 4.1113,-0.7249 6.8565,-4.6455 6.1316 -8.7568Z"/></g><defs><linearGradient x2="5.0000" y1="0.0000" gradientUnits="userSpaceOnUse" spreadMethod="pad" gradientTransform="matrix(3.7221,-0.6563,-0.6563,-3.7221,446.4199,366.0909)" id="gradient50" y2="0.0000" x1="-5.0000"><stop stop-opacity="0.1000" offset="0.0000" stop-color="rgb(0,0,0)"/><stop stop-opacity="0.1000" offset="0.5000" stop-color="rgb(255,255,255)"/><stop stop-opacity="0.1000" offset="1.0000" stop-color="rgb(0,0,0)"/></linearGradient></defs><g stroke-linejoin="miter" stroke-opacity="1.0" fill-opacity="1" stroke="rgb(0,0,0)" stroke-width="0.37795275590551186" fill="url(#gradient50)" stroke-linecap="butt" stroke-miterlimit="10.0"><path d="M 473.5013,378.5284 l -5.8871,-33.3873 c -0.7249,-4.1113 -4.6455,-6.8565 -8.7568 -6.1316l -33.3873,5.8871 c -4.1113,0.7249 -6.8565,4.6455 -6.1316 8.7568l 5.8871,33.3873 c 0.7249,4.1113 4.6455,6.8565 8.7568 6.1316l 33.3873,-5.8871 c 4.1113,-0.7249 6.8565,-4.6455 6.1316 -8.7568Z"/></g><g stroke-linejoin="miter" stroke-opacity="1.0" fill-opacity="0.7" stroke="rgb(0,0,0)" stroke-width="0.37795275590551186" fill="rgb(0,0,0)" stroke-linecap="butt" stroke-miterlimit="10.0"><path d="M 363.4114,105.6893 l -9.6280,-54.6033 c -0.7249,-4.1113 -4.6455,-6.8565 -8.7568 -6.1316l -54.6033,9.6280 c -4.1113,0.7249 -6.8565,4.6455 -6.1316 8.7568l 9.6280,54.6033 c 0.7249,4.1113 4.6455,6.8565 8.7568 6.1316l 54.6033,-9.6280 c 4.1113,-0.7249 6.8565,-4.6455 6.1316 -8.7568Z"/></g><defs><linearGradient x2="5.0000" y1="0.0000" gradientUnits="userSpaceOnUse" spreadMethod="pad" gradientTransform="matrix(3.7221,-0.6563,-0.6563,-3.7221,323.8515,84.5143)" id="gradient54" y2="0.0000" x1="-5.0000"><stop stop-opacity="0.1000" offset="0.0000" stop-color="rgb(0,0,0)"/><stop stop-opacity="0.1000" offset="0.5000" stop-color="rgb(255,255,255)"/><stop stop-opacity="0.1000" offset="1.0000" stop-color="rgb(0,0,0)"/></linearGradient></defs><g stroke-linejoin="miter" stroke-opacity="1.0" fill-opacity="1" stroke="rgb(0,0,0)" stroke-width="0.37795275590551186" fill="url(#gradient54)" stroke-linecap="butt" stroke-miterlimit="10.0"><path d="M 350.9330,96.9518 l -5.8871,-33.3873 c -0.7249,-4.1113 -4.6455,-6.8565 -8.7568 -6.1316l -33.3873,5.8871 c -4.1113,0.7249 -6.8565,4.6455 -6.1316 8.7568l 5.8871,33.3873 c 0.7249,4.1113 4.6455,6.8565 8.7568 6.1316l 33.3873,-5.8871 c 4.1113,-0.7249 6.8565,-4.6455 6.1316 -8.7568Z"/></g><g stroke-linejoin="miter" stroke-opacity="1.0" fill-opacity="0.7" stroke="rgb(0,0,0)" stroke-width="0.37795275590551186" fill="rgb(0,0,0)" stroke-linecap="butt" stroke-miterlimit="10.0"><path d="M 375.8813,176.4093 l -9.6280,-54.6033 c -0.7249,-4.1113 -4.6455,-6.8565 -8.7568 -6.1316l -54.6033,9.6280 c -4.1113,0.7249 -6.8565,4.6455 -6.1316 8.7568l 9.6280,54.6033 c 0.7249,4.1113 4.6455,6.8565 8.7568 6.1316l 54.6033,-9.6280 c 4.1113,-0.7249 6.8565,-4.6455 6.1316 -8.7568Z"/></g><defs><linearGradient x2="5.0000" y1="0.0000" gradientUnits="userSpaceOnUse" spreadMethod="pad" gradientTransform="matrix(3.7221,-0.6563,-0.6563,-3.7221,336.3214,155.2343)" id="gradient58" y2="0.0000" x1="-5.0000"><stop stop-opacity="0.1000" offset="0.0000" stop-color="rgb(0,0,0)"/><stop stop-opacity="0.1000" offset="0.5000" stop-color="rgb(255,255,255)"/><stop stop-opacity="0.1000" offset="1.0000" stop-color="rgb(0,0,0)"/></linearGradient></defs><g stroke-linejoin="miter" stroke-opacity="1.0" fill-opacity="1" stroke="rgb(0,0,0)" stroke-width="0.37795275590551186" fill="url(#gradient58)" stroke-linecap="butt" stroke-miterlimit="10.0"><path d="M 363.4028,167.6718 l -5.8871,-33.3873 c -0.7249,-4.1113 -4.6455,-6.8565 -8.7568 -6.1316l -33.3873,5.8871 c -4.1113,0.7249 -6.8565,4.6455 -6.1316 8.7568l 5.8871,33.3873 c 0.7249,4.1113 4.6455,6.8565 8.7568 6.1316l 33.3873,-5.8871 c 4.1113,-0.7249 6.8565,-4.6455 6.1316 -8.7568Z"/></g><g stroke-linejoin="miter" stroke-opacity="1.0" fill-opacity="0.7" stroke="rgb(0,0,0)" stroke-width="0.37795275590551186" fill="rgb(0,0,0)" stroke-linecap="butt" stroke-miterlimit="10.0"><path d="M 388.3511,247.1294 l -9.6280,-54.6033 c -0.7249,-4.1113 -4.6455,-6.8565 -8.7568 -6.1316l -54.6033,9.6280 c -4.1113,0.7249 -6.8565,4.6455 -6.1316 8.7568l 9.6280,54.6033 c 0.7249,4.1113 4.6455,6.8565 8.7568 6.1316l 54.6033,-9.6280 c 4.1113,-0.7249 6.8565,-4.6455 6.1316 -8.7568Z"/></g><defs><linearGradient x2="5.0000" y1="0.0000" gradientUnits="userSpaceOnUse" spreadMethod="pad" gradientTransform="matrix(3.7221,-0.6563,-0.6563,-3.7221,348.7912,225.9544)" id="gradient62" y2="0.0000" x1="-5.0000"><stop stop-opacity="0.1000" offset="0.0000" stop-color="rgb(0,0,0)"/><stop stop-opacity="0.1000" offset="0.5000" stop-color="rgb(255,255,255)"/><stop stop-opacity="0.1000" offset="1.0000" stop-color="rgb(0,0,0)"/></linearGradient></defs><g stroke-linejoin="miter" stroke-opacity="1.0" fill-opacity="1" stroke="rgb(0,0,0)" stroke-width="0.37795275590551186" fill="url(#gradient62)" stroke-linecap="butt" stroke-miterlimit="10.0"><path d="M 375.8727,238.3919 l -5.8871,-33.3873 c -0.7249,-4.1113 -4.6455,-6.8565 -8.7568 -6.1316l -33.3873,5.8871 c -4.1113,0.7249 -6.8565,4.6455 -6.1316 8.7568l 5.8871,33.3873 c 0.7249,4.1113 4.6455,6.8565 8.7568 6.1316l 33.3873,-5.8871 c 4.1113,-0.7249 6.8565,-4.6455 6.1316 -8.7568Z"/></g><g stroke-linejoin="miter" stroke-opacity="1.0" fill-opacity="0.7" stroke="rgb(0,0,0)" stroke-width="0.37795275590551186" fill="rgb(0,0,0)" stroke-linecap="butt" stroke-miterlimit="10.0"><path d="M 400.8210,317.8494 l -9.6280,-54.6033 c -0.7249,-4.1113 -4.6455,-6.8565 -8.7568 -6.1316l -54.6033,9.6280 c -4.1113,0.7249 -6.8565,4.6455 -6.1316 8.7568l 9.6280,54.6033 c 0.7249,4.1113 4.6455,6.8565 8.7568 6.1316l 54.6033,-9.6280 c 4.1113,-0.7249 6.8565,-4.6455 6.1316 -8.7568Z"/></g><defs><linearGradient x2="5.0000" y1="0.0000" gradientUnits="userSpaceOnUse" spreadMethod="pad" gradientTransform="matrix(3.7221,-0.6563,-0.6563,-3.7221,361.2611,296.6744)" id="gradient66" y2="0.0000" x1="-5.0000"><stop stop-opacity="0.1000" offset="0.0000" stop-color="rgb(0,0,0)"/><stop stop-opacity="0.1000" offset="0.5000" stop-color="rgb(255,255,255)"/><stop stop-opacity="0.1000" offset="1.0000" stop-color="rgb(0,0,0)"/></linearGradient></defs><g stroke-linejoin="miter" stroke-opacity="1.0" fill-opacity="1" stroke="rgb(0,0,0)" stroke-width="0.37795275590551186" fill="url(#gradient66)" stroke-linecap="butt" stroke-miterlimit="10.0"><path d="M 388.3425,309.1119 l -5.8871,-33.3873 c -0.7249,-4.1113 -4.6455,-6.8565 -8.7568 -6.1316l -33.3873,5.8871 c -4.1113,0.7249 -6.8565,4.6455 -6.1316 8.7568l 5.8871,33.3873 c 0.7249,4.1113 4.6455,6.8565 8.7568 6.1316l 33.3873,-5.8871 c 4.1113,-0.7249 6.8565,-4.6455 6.1316 -8.7568Z"/></g><g stroke-linejoin="miter" stroke-opacity="1.0" fill-opacity="0.7" stroke="rgb(0,0,0)" stroke-width="0.37795275590551186" fill="rgb(0,0,0)" stroke-linecap="butt" stroke-miterlimit="10.0"><path d="M 413.2909,388.5695 l -9.6280,-54.6033 c -0.7249,-4.1113 -4.6455,-6.8565 -8.7568 -6.1316l -54.6033,9.6280 c -4.1113,0.7249 -6.8565,4.6455 -6.1316 8.7568l 9.6280,54.6033 c 0.7249,4.1113 4.6455,6.8565 8.7568 6.1316l 54.6033,-9.6280 c 4.1113,-0.7249 6.8565,-4.6455 6.1316 -8.7568Z"/></g><defs><linearGradient x2="5.0000" y1="0.0000" gradientUnits="userSpaceOnUse" spreadMethod="pad" gradientTransform="matrix(3.7221,-0.6563,-0.6563,-3.7221,373.7310,367.3945)" id="gradient70" y2="0.0000" x1="-5.0000"><stop stop-opacity="0.1000" offset="0.0000" stop-color="rgb(0,0,0)"/><stop stop-opacity="0.1000" offset="0.5000" stop-color="rgb(255,255,255)"/><stop stop-opacity="0.1000" offset="1.0000" stop-color="rgb(0,0,0)"/></linearGradient></defs><g stroke-linejoin="miter" stroke-opacity="1.0" fill-opacity="1" stroke="rgb(0,0,0)" stroke-width="0.37795275590551186" fill="url(#gradient70)" stroke-linecap="butt" stroke-miterlimit="10.0"><path d="M 400.8124,379.8320 l -5.8871,-33.3873 c -0.7249,-4.1113 -4.6455,-6.8565 -8.7568 -6.1316l -33.3873,5.8871 c -4.1113,0.7249 -6.8565,4.6455 -6.1316 8.7568l 5.8871,33.3873 c 0.7249,4.1113 4.6455,6.8565 8.7568 6.1316l 33.3873,-5.8871 c 4.1113,-0.7249 6.8565,-4.6455 6.1316 -8.7568Z"/></g><g stroke-linejoin="miter" stroke-opacity="1.0" fill-opacity="0.7" stroke="rgb(0,0,0)" stroke-width="0.37795275590551186" fill="rgb(0,0,0)" stroke-linecap="butt" stroke-miterlimit="10.0"><path d="M 289.4098,99.5486 l -9.6280,-54.6033 c -0.7249,-4.1113 -4.6455,-6.8565 -8.7568 -6.1316l -54.6033,9.6280 c -4.1113,0.7249 -6.8565,4.6455 -6.1316 8.7568l 9.6280,54.6033 c 0.7249,4.1113 4.6455,6.8565 8.7568 6.1316l 54.6033,-9.6280 c 4.1113,-0.7249 6.8565,-4.6455 6.1316 -8.7568Z"/></g><defs><linearGradient x2="5.0000" y1="0.0000" gradientUnits="userSpaceOnUse" spreadMethod="pad" gradientTransform="matrix(3.7221,-0.6563,-0.6563,-3.7221,249.8499,78.3736)" id="gradient74" y2="0.0000" x1="-5.0000"><stop stop-opacity="0.1000" offset="0.0000" stop-color="rgb(0,0,0)"/><stop stop-opacity="0.1000" offset="0.5000" stop-color="rgb(255,255,255)"/><stop stop-opacity="0.1000" offset="1.0000" stop-color="rgb(0,0,0)"/></linearGradient></defs><g stroke-linejoin="miter" stroke-opacity="1.0" fill-opacity="1" stroke="rgb(0,0,0)" stroke-width="0.37795275590551186" fill="url(#gradient74)" stroke-linecap="butt" stroke-miterlimit="10.0"><path d="M 276.9314,90.8111 l -5.8871,-33.3873 c -0.7249,-4.1113 -4.6455,-6.8565 -8.7568 -6.1316l -33.3873,5.8871 c -4.1113,0.7249 -6.8565,4.6455 -6.1316 8.7568l 5.8871,33.3873 c 0.7249,4.1113 4.6455,6.8565 8.7568 6.1316l 33.3873,-5.8871 c 4.1113,-0.7249 6.8565,-4.6455 6.1316 -8.7568Z"/></g><g stroke-linejoin="miter" stroke-opacity="1.0" fill-opacity="0.7" stroke="rgb(0,0,0)" stroke-width="0.37795275590551186" fill="rgb(0,0,0)" stroke-linecap="butt" stroke-miterlimit="10.0"><path d="M 301.8797,170.2687 l -9.6280,-54.6033 c -0.7249,-4.1113 -4.6455,-6.8565 -8.7568 -6.1316l -54.6033,9.6280 c -4.1113,0.7249 -6.8565,4.6455 -6.1316 8.7568l 9.6280,54.6033 c 0.7249,4.1113 4.6455,6.8565 8.7568 6.1316l 54.6033,-9.6280 c 4.1113,-0.7249 6.8565,-4.6455 6.1316 -8.7568Z"/></g><defs><linearGradient x2="5.0000" y1="0.0000" gradientUnits="userSpaceOnUse" spreadMethod="pad" gradientTransform="matrix(3.7221,-0.6563,-0.6563,-3.7221,262.3198,149.0936)" id="gradient78" y2="0.0000" x1="-5.0000"><stop stop-opacity="0.1000" offset="0.0000" stop-color="rgb(0,0,0)"/><stop stop-opacity="0.1000" offset="0.5000" stop-color="rgb(255,255,255)"/><stop stop-opacity="0.1000" offset="1.0000" stop-color="rgb(0,0,0)"/></linearGradient></defs><g stroke-linejoin="miter" stroke-opacity="1.0" fill-opacity="1" stroke="rgb(0,0,0)" stroke-width="0.37795275590551186" fill="url(#gradient78)" stroke-linecap="butt" stroke-miterlimit="10.0"><path d="M 289.4012,161.5311 l -5.8871,-33.3873 c -0.7249,-4.1113 -4.6455,-6.8565 -8.7568 -6.1316l -33.3873,5.8871 c -4.1113,0.7249 -6.8565,4.6455 -6.1316 8.7568l 5.8871,33.3873 c 0.7249,4.1113 4.6455,6.8565 8.7568 6.1316l 33.3873,-5.8871 c 4.1113,-0.7249 6.8565,-4.6455 6.1316 -8.7568Z"/></g><g stroke-linejoin="miter" stroke-opacity="1.0" fill-opacity="0.7" stroke="rgb(0,0,0)" stroke-width="0.37795275590551186" fill="rgb(0,0,0)" stroke-linecap="butt" stroke-miterlimit="10.0"><path d="M 314.3496,240.9887 l -9.6280,-54.6033 c -0.7249,-4.1113 -4.6455,-6.8565 -8.7568 -6.1316l -54.6033,9.6280 c -4.1113,0.7249 -6.8565,4.6455 -6.1316 8.7568l 9.6280,54.6033 c 0.7249,4.1113 4.6455,6.8565 8.7568 6.1316l 54.6033,-9.6280 c 4.1113,-0.7249 6.8565,-4.6455 6.1316 -8.7568Z"/></g><defs><linearGradient x2="5.0000" y1="0.0000" gradientUnits="userSpaceOnUse" spreadMethod="pad" gradientTransform="matrix(3.7221,-0.6563,-0.6563,-3.7221,274.7897,219.8137)" id="gradient82" y2="0.0000" x1="-5.0000"><stop stop-opacity="0.1000" offset="0.0000" stop-color="rgb(0,0,0)"/><stop stop-opacity="0.1000" offset="0.5000" stop-color="rgb(255,255,255)"/><stop stop-opacity="0.1000" offset="1.0000" stop-color="rgb(0,0,0)"/></linearGradient></defs><g stroke-linejoin="miter" stroke-opacity="1.0" fill-opacity="1" stroke="rgb(0,0,0)" stroke-width="0.37795275590551186" fill="url(#gradient82)" stroke-linecap="butt" stroke-miterlimit="10.0"><path d="M 301.8711,232.2512 l -5.8871,-33.3873 c -0.7249,-4.1113 -4.6455,-6.8565 -8.7568 -6.1316l -33.3873,5.8871 c -4.1113,0.7249 -6.8565,4.6455 -6.1316 8.7568l 5.8871,33.3873 c 0.7249,4.1113 4.6455,6.8565 8.7568 6.1316l 33.3873,-5.8871 c 4.1113,-0.7249 6.8565,-4.6455 6.1316 -8.7568Z"/></g><g stroke-linejoin="miter" stroke-opacity="1.0" fill-opacity="0.7" stroke="rgb(0,0,0)" stroke-width="0.37795275590551186" fill="rgb(0,0,0)" stroke-linecap="butt" stroke-miterlimit="10.0"><path d="M 326.8194,311.7088 l -9.6280,-54.6033 c -0.7249,-4.1113 -4.6455,-6.8565 -8.7568 -6.1316l -54.6033,9.6280 c -4.1113,0.7249 -6.8565,4.6455 -6.1316 8.7568l 9.6280,54.6033 c 0.7249,4.1113 4.6455,6.8565 8.7568 6.1316l 54.6033,-9.6280 c 4.1113,-0.7249 6.8565,-4.6455 6.1316 -8.7568Z"/></g><defs><linearGradient x2="5.0000" y1="0.0000" gradientUnits="userSpaceOnUse" spreadMethod="pad" gradientTransform="matrix(3.7221,-0.6563,-0.6563,-3.7221,287.2595,290.5337)" id="gradient86" y2="0.0000" x1="-5.0000"><stop stop-opacity="0.1000" offset="0.0000" stop-color="rgb(0,0,0)"/><stop stop-opacity="0.1000" offset="0.5000" stop-color="rgb(255,255,255)"/><stop stop-opacity="0.1000" offset="1.0000" stop-color="rgb(0,0,0)"/></linearGradient></defs><g stroke-linejoin="miter" stroke-opacity="1.0" fill-opacity="1" stroke="rgb(0,0,0)" stroke-width="0.37795275590551186" fill="url(#gradient86)" stroke-linecap="butt" stroke-miterlimit="10.0"><path d="M 314.3409,302.9712 l -5.8871,-33.3873 c -0.7249,-4.1113 -4.6455,-6.8565 -8.7568 -6.1316l -33.3873,5.8871 c -4.1113,0.7249 -6.8565,4.6455 -6.1316 8.7568l 5.8871,33.3873 c 0.7249,4.1113 4.6455,6.8565 8.7568 6.1316l 33.3873,-5.8871 c 4.1113,-0.7249 6.8565,-4.6455 6.1316 -8.7568Z"/></g><g stroke-linejoin="miter" stroke-opacity="1.0" fill-opacity="0.7" stroke="rgb(0,0,0)" stroke-width="0.37795275590551186" fill="rgb(0,0,0)" stroke-linecap="butt" stroke-miterlimit="10.0"><path d="M 339.2893,382.4288 l -9.6280,-54.6033 c -0.7249,-4.1113 -4.6455,-6.8565 -8.7568 -6.1316l -54.6033,9.6280 c -4.1113,0.7249 -6.8565,4.6455 -6.1316 8.7568l 9.6280,54.6033 c 0.7249,4.1113 4.6455,6.8565 8.7568 6.1316l 54.6033,-9.6280 c 4.1113,-0.7249 6.8565,-4.6455 6.1316 -8.7568Z"/></g><defs><linearGradient x2="5.0000" y1="0.0000" gradientUnits="userSpaceOnUse" spreadMethod="pad" gradientTransform="matrix(3.7221,-0.6563,-0.6563,-3.7221,299.7294,361.2538)" id="gradient90" y2="0.0000" x1="-5.0000"><stop stop-opacity="0.1000" offset="0.0000" stop-color="rgb(0,0,0)"/><stop stop-opacity="0.1000" offset="0.5000" stop-color="rgb(255,255,255)"/><stop stop-opacity="0.1000" offset="1.0000" stop-color="rgb(0,0,0)"/></linearGradient></defs><g stroke-linejoin="miter" stroke-opacity="1.0" fill-opacity="1" stroke="rgb(0,0,0)" stroke-width="0.37795275590551186" fill="url(#gradient90)" stroke-linecap="butt" stroke-miterlimit="10.0"><path d="M 326.8108,373.6913 l -5.8871,-33.3873 c -0.7249,-4.1113 -4.6455,-6.8565 -8.7568 -6.1316l -33.3873,5.8871 c -4.1113,0.7249 -6.8565,4.6455 -6.1316 8.7568l 5.8871,33.3873 c 0.7249,4.1113 4.6455,6.8565 8.7568 6.1316l 33.3873,-5.8871 c 4.1113,-0.7249 6.8565,-4.6455 6.1316 -8.7568Z"/></g><g stroke-linejoin="miter" stroke-opacity="1.0" fill-opacity="0.7" stroke="rgb(0,0,0)" stroke-width="0.37795275590551186" fill="rgb(0,0,0)" stroke-linecap="butt" stroke-miterlimit="10.0"><path d="M 222.6276,134.3511 l -9.6280,-54.6033 c -0.7249,-4.1113 -4.6455,-6.8565 -8.7568 -6.1316l -54.6033,9.6280 c -4.1113,0.7249 -6.8565,4.6455 -6.1316 8.7568l 9.6280,54.6033 c 0.7249,4.1113 4.6455,6.8565 8.7568 6.1316l 54.6033,-9.6280 c 4.1113,-0.7249 6.8565,-4.6455 6.1316 -8.7568Z"/></g><defs><linearGradient x2="5.0000" y1="0.0000" gradientUnits="userSpaceOnUse" spreadMethod="pad" gradientTransform="matrix(3.7221,-0.6563,-0.6563,-3.7221,183.0677,113.1761)" id="gradient94" y2="0.0000" x1="-5.0000"><stop stop-opacity="0.1000" offset="0.0000" stop-color="rgb(0,0,0)"/><stop stop-opacity="0.1000" offset="0.5000" stop-color="rgb(255,255,255)"/><stop stop-opacity="0.1000" offset="1.0000" stop-color="rgb(0,0,0)"/></linearGradient></defs><g stroke-linejoin="miter" stroke-opacity="1.0" fill-opacity="1" stroke="rgb(0,0,0)" stroke-width="0.37795275590551186" fill="url(#gradient94)" stroke-linecap="butt" stroke-miterlimit="10.0"><path d="M 210.1492,125.6136 l -5.8871,-33.3873 c -0.7249,-4.1113 -4.6455,-6.8565 -8.7568 -6.1316l -33.3873,5.8871 c -4.1113,0.7249 -6.8565,4.6455 -6.1316 8.7568l 5.8871,33.3873 c 0.7249,4.1113 4.6455,6.8565 8.7568 6.1316l 33.3873,-5.8871 c 4.1113,-0.7249 6.8565,-4.6455 6.1316 -8.7568Z"/></g><g stroke-linejoin="miter" stroke-opacity="1.0" fill-opacity="0.7" stroke="rgb(0,0,0)" stroke-width="0.37795275590551186" fill="rgb(0,0,0)" stroke-linecap="butt" stroke-miterlimit="10.0"><path d="M 235.0975,205.0712 l -9.6280,-54.6033 c -0.7249,-4.1113 -4.6455,-6.8565 -8.7568 -6.1316l -54.6033,9.6280 c -4.1113,0.7249 -6.8565,4.6455 -6.1316 8.7568l 9.6280,54.6033 c 0.7249,4.1113 4.6455,6.8565 8.7568 6.1316l 54.6033,-9.6280 c 4.1113,-0.7249 6.8565,-4.6455 6.1316 -8.7568Z"/></g><defs><linearGradient x2="5.0000" y1="0.0000" gradientUnits="userSpaceOnUse" spreadMethod="pad" gradientTransform="matrix(3.7221,-0.6563,-0.6563,-3.7221,195.5376,183.8961)" id="gradient98" y2="0.0000" x1="-5.0000"><stop stop-opacity="0.1000" offset="0.0000" stop-color="rgb(0,0,0)"/><stop stop-opacity="0.1000" offset="0.5000" stop-color="rgb(255,255,255)"/><stop stop-opacity="0.1000" offset="1.0000" stop-color="rgb(0,0,0)"/></linearGradient></defs><g stroke-linejoin="miter" stroke-opacity="1.0" fill-opacity="1" stroke="rgb(0,0,0)" stroke-width="0.37795275590551186" fill="url(#gradient98)" stroke-linecap="butt" stroke-miterlimit="10.0"><path d="M 222.6190,196.3336 l -5.8871,-33.3873 c -0.7249,-4.1113 -4.6455,-6.8565 -8.7568 -6.1316l -33.3873,5.8871 c -4.1113,0.7249 -6.8565,4.6455 -6.1316 8.7568l 5.8871,33.3873 c 0.7249,4.1113 4.6455,6.8565 8.7568 6.1316l 33.3873,-5.8871 c 4.1113,-0.7249 6.8565,-4.6455 6.1316 -8.7568Z"/></g><g stroke-linejoin="miter" stroke-opacity="1.0" fill-opacity="0.7" stroke="rgb(0,0,0)" stroke-width="0.37795275590551186" fill="rgb(0,0,0)" stroke-linecap="butt" stroke-miterlimit="10.0"><path d="M 247.5674,275.7912 l -9.6280,-54.6033 c -0.7249,-4.1113 -4.6455,-6.8565 -8.7568 -6.1316l -54.6033,9.6280 c -4.1113,0.7249 -6.8565,4.6455 -6.1316 8.7568l 9.6280,54.6033 c 0.7249,4.1113 4.6455,6.8565 8.7568 6.1316l 54.6033,-9.6280 c 4.1113,-0.7249 6.8565,-4.6455 6.1316 -8.7568Z"/></g><defs><linearGradient x2="5.0000" y1="0.0000" gradientUnits="userSpaceOnUse" spreadMethod="pad" gradientTransform="matrix(3.7221,-0.6563,-0.6563,-3.7221,208.0075,254.6162)" id="gradient102" y2="0.0000" x1="-5.0000"><stop stop-opacity="0.1000" offset="0.0000" stop-color="rgb(0,0,0)"/><stop stop-opacity="0.1000" offset="0.5000" stop-color="rgb(255,255,255)"/><stop stop-opacity="0.1000" offset="1.0000" stop-color="rgb(0,0,0)"/></linearGradient></defs><g stroke-linejoin="miter" stroke-opacity="1.0" fill-opacity="1" stroke="rgb(0,0,0)" stroke-width="0.37795275590551186" fill="url(#gradient102)" stroke-linecap="butt" stroke-miterlimit="10.0"><path d="M 235.0889,267.0537 l -5.8871,-33.3873 c -0.7249,-4.1113 -4.6455,-6.8565 -8.7568 -6.1316l -33.3873,5.8871 c -4.1113,0.7249 -6.8565,4.6455 -6.1316 8.7568l 5.8871,33.3873 c 0.7249,4.1113 4.6455,6.8565 8.7568 6.1316l 33.3873,-5.8871 c 4.1113,-0.7249 6.8565,-4.6455 6.1316 -8.7568Z"/></g><g stroke-linejoin="miter" stroke-opacity="1.0" fill-opacity="0.7" stroke="rgb(0,0,0)" stroke-width="0.37795275590551186" fill="rgb(0,0,0)" stroke-linecap="butt" stroke-miterlimit="10.0"><path d="M 260.0372,346.5113 l -9.6280,-54.6033 c -0.7249,-4.1113 -4.6455,-6.8565 -8.7568 -6.1316l -54.6033,9.6280 c -4.1113,0.7249 -6.8565,4.6455 -6.1316 8.7568l 9.6280,54.6033 c 0.7249,4.1113 4.6455,6.8565 8.7568 6.1316l 54.6033,-9.6280 c 4.1113,-0.7249 6.8565,-4.6455 6.1316 -8.7568Z"/></g><defs><linearGradient x2="5.0000" y1="0.0000" gradientUnits="userSpaceOnUse" spreadMethod="pad" gradientTransform="matrix(3.7221,-0.6563,-0.6563,-3.7221,220.4773,325.3362)" id="gradient106" y2="0.0000" x1="-5.0000"><stop stop-opacity="0.1000" offset="0.0000" stop-color="rgb(0,0,0)"/><stop stop-opacity="0.1000" offset="0.5000" stop-color="rgb(255,255,255)"/><stop stop-opacity="0.1000" offset="1.0000" stop-color="rgb(0,0,0)"/></linearGradient></defs><g stroke-linejoin="miter" stroke-opacity="1.0" fill-opacity="1" stroke="rgb(0,0,0)" stroke-width="0.37795275590551186" fill="url(#gradient106)" stroke-linecap="butt" stroke-miterlimit="10.0"><path d="M 247.5587,337.7737 l -5.8871,-33.3873 c -0.7249,-4.1113 -4.6455,-6.8565 -8.7568 -6.1316l -33.3873,5.8871 c -4.1113,0.7249 -6.8565,4.6455 -6.1316 8.7568l 5.8871,33.3873 c 0.7249,4.1113 4.6455,6.8565 8.7568 6.1316l 33.3873,-5.8871 c 4.1113,-0.7249 6.8565,-4.6455 6.1316 -8.7568Z"/></g><g stroke-linejoin="miter" stroke-opacity="1.0" fill-opacity="0.7" stroke="rgb(0,0,0)" stroke-width="0.37795275590551186" fill="rgb(0,0,0)" stroke-linecap="butt" stroke-miterlimit="10.0"><path d="M 272.5071,417.2313 l -9.6280,-54.6033 c -0.7249,-4.1113 -4.6455,-6.8565 -8.7568 -6.1316l -54.6033,9.6280 c -4.1113,0.7249 -6.8565,4.6455 -6.1316 8.7568l 9.6280,54.6033 c 0.7249,4.1113 4.6455,6.8565 8.7568 6.1316l 54.6033,-9.6280 c 4.1113,-0.7249 6.8565,-4.6455 6.1316 -8.7568Z"/></g><defs><linearGradient x2="5.0000" y1="0.0000" gradientUnits="userSpaceOnUse" spreadMethod="pad" gradientTransform="matrix(3.7221,-0.6563,-0.6563,-3.7221,232.9472,396.0563)" id="gradient110" y2="0.0000" x1="-5.0000"><stop stop-opacity="0.1000" offset="0.0000" stop-color="rgb(0,0,0)"/><stop stop-opacity="0.1000" offset="0.5000" stop-color="rgb(255,255,255)"/><stop stop-opacity="0.1000" offset="1.0000" stop-color="rgb(0,0,0)"/></linearGradient></defs><g stroke-linejoin="miter" stroke-opacity="1.0" fill-opacity="1" stroke="rgb(0,0,0)" stroke-width="0.37795275590551186" fill="url(#gradient110)" stroke-linecap="butt" stroke-miterlimit="10.0"><path d="M 260.0286,408.4938 l -5.8871,-33.3873 c -0.7249,-4.1113 -4.6455,-6.8565 -8.7568 -6.1316l -33.3873,5.8871 c -4.1113,0.7249 -6.8565,4.6455 -6.1316 8.7568l 5.8871,33.3873 c 0.7249,4.1113 4.6455,6.8565 8.7568 6.1316l 33.3873,-5.8871 c 4.1113,-0.7249 6.8565,-4.6455 6.1316 -8.7568Z"/></g><g stroke-linejoin="miter" stroke-opacity="1.0" fill-opacity="0.7" stroke="rgb(0,0,0)" stroke-width="0.37795275590551186" fill="rgb(0,0,0)" stroke-linecap="butt" stroke-miterlimit="10.0"><path d="M 155.1891,165.4315 l -9.6280,-54.6033 c -0.7249,-4.1113 -4.6455,-6.8565 -8.7568 -6.1316l -54.6033,9.6280 c -4.1113,0.7249 -6.8565,4.6455 -6.1316 8.7568l 9.6280,54.6033 c 0.7249,4.1113 4.6455,6.8565 8.7568 6.1316l 54.6033,-9.6280 c 4.1113,-0.7249 6.8565,-4.6455 6.1316 -8.7568Z"/></g><defs><linearGradient x2="5.0000" y1="0.0000" gradientUnits="userSpaceOnUse" spreadMethod="pad" gradientTransform="matrix(3.7221,-0.6563,-0.6563,-3.7221,115.6292,144.2565)" id="gradient114" y2="0.0000" x1="-5.0000"><stop stop-opacity="0.1000" offset="0.0000" stop-color="rgb(0,0,0)"/><stop stop-opacity="0.1000" offset="0.5000" stop-color="rgb(255,255,255)"/><stop stop-opacity="0.1000" offset="1.0000" stop-color="rgb(0,0,0)"/></linearGradient></defs><g stroke-linejoin="miter" stroke-opacity="1.0" fill-opacity="1" stroke="rgb(0,0,0)" stroke-width="0.37795275590551186" fill="url(#gradient114)" stroke-linecap="butt" stroke-miterlimit="10.0"><path d="M 142.7106,156.6940 l -5.8871,-33.3873 c -0.7249,-4.1113 -4.6455,-6.8565 -8.7568 -6.1316l -33.3873,5.8871 c -4.1113,0.7249 -6.8565,4.6455 -6.1316 8.7568l 5.8871,33.3873 c 0.7249,4.1113 4.6455,6.8565 8.7568 6.1316l 33.3873,-5.8871 c 4.1113,-0.7249 6.8565,-4.6455 6.1316 -8.7568Z"/></g><g stroke-linejoin="miter" stroke-opacity="1.0" fill-opacity="0.7" stroke="rgb(0,0,0)" stroke-width="0.37795275590551186" fill="rgb(0,0,0)" stroke-linecap="butt" stroke-miterlimit="10.0"><path d="M 167.6590,236.1516 l -9.6280,-54.6033 c -0.7249,-4.1113 -4.6455,-6.8565 -8.7568 -6.1316l -54.6033,9.6280 c -4.1113,0.7249 -6.8565,4.6455 -6.1316 8.7568l 9.6280,54.6033 c 0.7249,4.1113 4.6455,6.8565 8.7568 6.1316l 54.6033,-9.6280 c 4.1113,-0.7249 6.8565,-4.6455 6.1316 -8.7568Z"/></g><defs><linearGradient x2="5.0000" y1="0.0000" gradientUnits="userSpaceOnUse" spreadMethod="pad" gradientTransform="matrix(3.7221,-0.6563,-0.6563,-3.7221,128.0991,214.9765)" id="gradient118" y2="0.0000" x1="-5.0000"><stop stop-opacity="0.1000" offset="0.0000" stop-color="rgb(0,0,0)"/><stop stop-opacity="0.1000" offset="0.5000" stop-color="rgb(255,255,255)"/><stop stop-opacity="0.1000" offset="1.0000" stop-color="rgb(0,0,0)"/></linearGradient></defs><g stroke-linejoin="miter" stroke-opacity="1.0" fill-opacity="1" stroke="rgb(0,0,0)" stroke-width="0.37795275590551186" fill="url(#gradient118)" stroke-linecap="butt" stroke-miterlimit="10.0"><path d="M 155.1805,227.4140 l -5.8871,-33.3873 c -0.7249,-4.1113 -4.6455,-6.8565 -8.7568 -6.1316l -33.3873,5.8871 c -4.1113,0.7249 -6.8565,4.6455 -6.1316 8.7568l 5.8871,33.3873 c 0.7249,4.1113 4.6455,6.8565 8.7568 6.1316l 33.3873,-5.8871 c 4.1113,-0.7249 6.8565,-4.6455 6.1316 -8.7568Z"/></g><g stroke-linejoin="miter" stroke-opacity="1.0" fill-opacity="0.7" stroke="rgb(0,0,0)" stroke-width="0.37795275590551186" fill="rgb(0,0,0)" stroke-linecap="butt" stroke-miterlimit="10.0"><path d="M 180.1288,306.8716 l -9.6280,-54.6033 c -0.7249,-4.1113 -4.6455,-6.8565 -8.7568 -6.1316l -54.6033,9.6280 c -4.1113,0.7249 -6.8565,4.6455 -6.1316 8.7568l 9.6280,54.6033 c 0.7249,4.1113 4.6455,6.8565 8.7568 6.1316l 54.6033,-9.6280 c 4.1113,-0.7249 6.8565,-4.6455 6.1316 -8.7568Z"/></g><defs><linearGradient x2="5.0000" y1="0.0000" gradientUnits="userSpaceOnUse" spreadMethod="pad" gradientTransform="matrix(3.7221,-0.6563,-0.6563,-3.7221,140.5689,285.6966)" id="gradient122" y2="0.0000" x1="-5.0000"><stop stop-opacity="0.1000" offset="0.0000" stop-color="rgb(0,0,0)"/><stop stop-opacity="0.1000" offset="0.5000" stop-color="rgb(255,255,255)"/><stop stop-opacity="0.1000" offset="1.0000" stop-color="rgb(0,0,0)"/></linearGradient></defs><g stroke-linejoin="miter" stroke-opacity="1.0" fill-opacity="1" stroke="rgb(0,0,0)" stroke-width="0.37795275590551186" fill="url(#gradient122)" stroke-linecap="butt" stroke-miterlimit="10.0"><path d="M 167.6504,298.1341 l -5.8871,-33.3873 c -0.7249,-4.1113 -4.6455,-6.8565 -8.7568 -6.1316l -33.3873,5.8871 c -4.1113,0.7249 -6.8565,4.6455 -6.1316 8.7568l 5.8871,33.3873 c 0.7249,4.1113 4.6455,6.8565 8.7568 6.1316l 33.3873,-5.8871 c 4.1113,-0.7249 6.8565,-4.6455 6.1316 -8.7568Z"/></g><g stroke-linejoin="miter" stroke-opacity="1.0" fill-opacity="0.7" stroke="rgb(0,0,0)" stroke-width="0.37795275590551186" fill="rgb(0,0,0)" stroke-linecap="butt" stroke-miterlimit="10.0"><path d="M 192.5987,377.5917 l -9.6280,-54.6033 c -0.7249,-4.1113 -4.6455,-6.8565 -8.7568 -6.1316l -54.6033,9.6280 c -4.1113,0.7249 -6.8565,4.6455 -6.1316 8.7568l 9.6280,54.6033 c 0.7249,4.1113 4.6455,6.8565 8.7568 6.1316l 54.6033,-9.6280 c 4.1113,-0.7249 6.8565,-4.6455 6.1316 -8.7568Z"/></g><defs><linearGradient x2="5.0000" y1="0.0000" gradientUnits="userSpaceOnUse" spreadMethod="pad" gradientTransform="matrix(3.7221,-0.6563,-0.6563,-3.7221,153.0388,356.4166)" id="gradient126" y2="0.0000" x1="-5.0000"><stop stop-opacity="0.1000" offset="0.0000" stop-color="rgb(0,0,0)"/><stop stop-opacity="0.1000" offset="0.5000" stop-color="rgb(255,255,255)"/><stop stop-opacity="0.1000" offset="1.0000" stop-color="rgb(0,0,0)"/></linearGradient></defs><g stroke-linejoin="miter" stroke-opacity="1.0" fill-opacity="1" stroke="rgb(0,0,0)" stroke-width="0.37795275590551186" fill="url(#gradient126)" stroke-linecap="butt" stroke-miterlimit="10.0"><path d="M 180.1202,368.8541 l -5.8871,-33.3873 c -0.7249,-4.1113 -4.6455,-6.8565 -8.7568 -6.1316l -33.3873,5.8871 c -4.1113,0.7249 -6.8565,4.6455 -6.1316 8.7568l 5.8871,33.3873 c 0.7249,4.1113 4.6455,6.8565 8.7568 6.1316l 33.3873,-5.8871 c 4.1113,-0.7249 6.8565,-4.6455 6.1316 -8.7568Z"/></g><g stroke-linejoin="miter" stroke-opacity="1.0" fill-opacity="0.7" stroke="rgb(0,0,0)" stroke-width="0.37795275590551186" fill="rgb(0,0,0)" stroke-linecap="butt" stroke-miterlimit="10.0"><path d="M 205.0685,448.3117 l -9.6280,-54.6033 c -0.7249,-4.1113 -4.6455,-6.8565 -8.7568 -6.1316l -54.6033,9.6280 c -4.1113,0.7249 -6.8565,4.6455 -6.1316 8.7568l 9.6280,54.6033 c 0.7249,4.1113 4.6455,6.8565 8.7568 6.1316l 54.6033,-9.6280 c 4.1113,-0.7249 6.8565,-4.6455 6.1316 -8.7568Z"/></g><defs><linearGradient x2="5.0000" y1="0.0000" gradientUnits="userSpaceOnUse" spreadMethod="pad" gradientTransform="matrix(3.7221,-0.6563,-0.6563,-3.7221,165.5086,427.1367)" id="gradient130" y2="0.0000" x1="-5.0000"><stop stop-opacity="0.1000" offset="0.0000" stop-color="rgb(0,0,0)"/><stop stop-opacity="0.1000" offset="0.5000" stop-color="rgb(255,255,255)"/><stop stop-opacity="0.1000" offset="1.0000" stop-color="rgb(0,0,0)"/></linearGradient></defs><g stroke-linejoin="miter" stroke-opacity="1.0" fill-opacity="1" stroke="rgb(0,0,0)" stroke-width="0.37795275590551186" fill="url(#gradient130)" stroke-linecap="butt" stroke-miterlimit="10.0"><path d="M 192.5901,439.5742 l -5.8871,-33.3873 c -0.7249,-4.1113 -4.6455,-6.8565 -8.7568 -6.1316l -33.3873,5.8871 c -4.1113,0.7249 -6.8565,4.6455 -6.1316 8.7568l 5.8871,33.3873 c 0.7249,4.1113 4.6455,6.8565 8.7568 6.1316l 33.3873,-5.8871 c 4.1113,-0.7249 6.8565,-4.6455 6.1316 -8.7568Z"/></g><g stroke-linejoin="miter" stroke-opacity="1.0" fill-opacity="0.5" stroke="rgb(0,0,0)" stroke-width="0.37795275590551186" fill="rgb(0,0,0)" stroke-linecap="butt" stroke-miterlimit="10.0"><path d="M 101.9378,34.5197 l 6.0008,-10.3937 l -6.0008,-10.3937 l -12.0016,-0.0000 l -6.0008,10.3937 l 6.0008,10.3937 Z"/></g><g stroke-linejoin="miter" stroke-opacity="1.0" fill-opacity="0.5" stroke="rgb(0,0,0)" stroke-width="0.37795275590551186" fill="rgb(0,0,0)" stroke-linecap="butt" stroke-miterlimit="10.0"><path d="M 520.0248,34.5197 l 6.0008,-10.3937 l -6.0008,-10.3937 l -12.0016,-0.0000 l -6.0008,10.3937 l 6.0008,10.3937 Z"/></g><g stroke-linejoin="miter" stroke-opacity="1.0" fill-opacity="0.5" stroke="rgb(0,0,0)" stroke-width="0.37795275590551186" fill="rgb(0,0,0)" stroke-linecap="butt" stroke-miterlimit="10.0"><path d="M 585.3015,397.1632 l 6.0008,-10.3937 l -6.0008,-10.3937 l -12.0016,-0.0000 l -6.0008,10.3937 l 6.0008,10.3937 Z"/></g><g stroke-linejoin="miter" stroke-opacity="1.0" fill-opacity="0.5" stroke="rgb(0,0,0)" stroke-width="0.37795275590551186" fill="rgb(0,0,0)" stroke-linecap="butt" stroke-miterlimit="10.0"><path d="M 171.5095,491.6469 l 6.0008,-10.3937 l -6.0008,-10.3937 l -12.0016,-0.0000 l -6.0008,10.3937 l 6.0008,10.3937 Z"/></g></svg>