<?xml version="1.0" encoding="UTF-8"?>
<!DOCTYPE svg PUBLIC "-//W3C//DTD SVG 1.1//EN"
    "http://www.w3.org/Graphics/SVG/1.1/DTD/svg11.dtd"><svg xmlns="http://www.w3.org/2000/svg" height="2756.3383" stroke-opacity="1" viewBox="0 0 1207 2756" font-size="1" width="1207.1055" xmlns:xlink="http://www.w3.org/1999/xlink" stroke="rgb(0,0,0)" version="1.1"><defs></defs><g stroke-linejoin="miter" stroke-opacity="1.0" fill-opacity="0.5" stroke="rgb(0,0,0)" stroke-width="0.37795275590551186" fill="rgb(0,0,0)" stroke-linecap="butt" stroke-miterlimit="10.0"><path d="M 3.9685,2519.5726 c 0.0000,-1.7263 0.2744,-3.4783 0.8492 -5.1960c 31.8298,-95.1293 63.6596,-190.2586 95.4894 -285.3878c 2.2347,-6.6788 8.4889,-11.1811 15.5316 -11.1811c 80.7333,-0.0000 161.4666,-0.0000 242.1998 -0.0000c 3.6793,-0.0000 7.2513,1.2388 10.1405 3.5169c 64.7386,51.0441 146.5341,81.5225 235.3737 81.5225c 88.8396,-0.0000 170.6351,-30.4783 235.3737 -81.5225c 2.8892,-2.2780 6.4613,-3.5169 10.1405 -3.5169c 80.7332,-0.0000 161.4665,-0.0000 242.1998 -0.0000c 7.0427,-0.0000 13.2969,4.5023 15.5316 11.1811c 31.8298,95.1292 63.6596,190.2585 95.4894 285.3878c 0.5747,1.7177 0.8492,3.4696 0.8492 5.1960c 0.0000,6.2119 -3.5540,12.0917 -9.4613 14.8453c -154.7613,72.1395 -309.5227,144.2790 -464.2840 216.4184c -2.1670,1.0100 -4.5287,1.5335 -6.9195 1.5335c -39.6398,-0.0000 -79.2796,-0.0000 -118.9194 -0.0000c -39.6398,-0.0000 -79.2796,-0.0000 -118.9194 -0.0000c -2.3908,-0.0000 -4.7526,-0.5234 -6.9195 -1.5335c -154.7614,-72.1395 -309.5227,-144.2790 -464.2840 -216.4184c -5.9073,-2.7536 -9.4613,-8.6334 -9.4613 -14.8453ZM 18.4595,2515.7939 c 0.0000,3.1310 2.5382,5.6693 5.6693 5.6693c 3.1310,-0.0000 5.6693,-2.5382 5.6693 -5.6693c 0.0000,-3.1311 -2.5382,-5.6693 -5.6693 -5.6693c -3.1311,-0.0000 -5.6693,2.5382 -5.6693 5.6693ZM 113.9489,2237.9651 c 0.0000,3.1311 2.5382,5.6693 5.6693 5.6693c 3.1310,-0.0000 5.6693,-2.5382 5.6693 -5.6693c 0.0000,-3.1311 -2.5382,-5.6693 -5.6693 -5.6693c -3.1311,-0.0000 -5.6693,2.5382 -5.6693 5.6693ZM 478.9640,2732.2123 c 0.0000,3.1310 2.5382,5.6693 5.6693 5.6693c 3.1310,-0.0000 5.6693,-2.5382 5.6693 -5.6693c 0.0000,-3.1311 -2.5382,-5.6693 -5.6693 -5.6693c -3.1311,-0.0000 -5.6693,2.5382 -5.6693 5.6693ZM 541.1905,2313.5557 c 0.0000,3.1311 2.5382,5.6693 5.6693 5.6693c 3.1311,-0.0000 5.6693,-2.5382 5.6693 -5.6693c 0.0000,-3.1310 -2.5382,-5.6693 -5.6693 -5.6693c -3.1310,-0.0000 -5.6693,2.5382 -5.6693 5.6693ZM 654.5764,2313.5557 c 0.0000,3.1311 2.5382,5.6693 5.6693 5.6693c 3.1310,-0.0000 5.6693,-2.5382 5.6693 -5.6693c 0.0000,-3.1310 -2.5382,-5.6693 -5.6693 -5.6693c -3.1311,-0.0000 -5.6693,2.5382 -5.6693 5.6693ZM 716.8029,2732.2123 c 0.0000,3.1310 2.5382,5.6693 5.6693 5.6693c 3.1311,-0.0000 5.6693,-2.5382 5.6693 -5.6693c 0.0000,-3.1311 -2.5382,-5.6693 -5.6693 -5.6693c -3.1310,-0.0000 -5.6693,2.5382 -5.6693 5.6693ZM 1081.8180,2237.9651 c 0.0000,3.1311 2.5382,5.6693 5.6693 5.6693c 3.1311,-0.0000 5.6693,-2.5382 5.6693 -5.6693c 0.0000,-3.1311 -2.5382,-5.6693 -5.6693 -5.6693c -3.1310,-0.0000 -5.6693,2.5382 -5.6693 5.6693ZM 1177.3074,2515.7939 c 0.0000,3.1310 2.5382,5.6693 5.6693 5.6693c 3.1311,-0.0000 5.6693,-2.5382 5.6693 -5.6693c 0.0000,-3.1311 -2.5382,-5.6693 -5.6693 -5.6693c -3.1310,-0.0000 -5.6693,2.5382 -5.6693 5.6693Z"/></g><g stroke-linejoin="miter" stroke-opacity="1.0" fill-opacity="0.5" stroke="rgb(0,0,0)" stroke-width="0.37795275590551186" fill="rgb(255,0,0)" stroke-linecap="butt" stroke-miterlimit="10.0"><path d="M 3.9685,1966.1128 c 0.0000,-1.7263 0.2744,-3.4783 0.8492 -5.1960c 31.8298,-95.1293 63.6596,-190.2586 95.4894 -285.3878c 2.2347,-6.6788 8.4889,-11.1811 15.5316 -11.1811c 80.7333,-0.0000 161.4666,-0.0000 242.1998 -0.0000c 3.6793,-0.0000 7.2513,1.2388 10.1405 3.5169c 49.4805,39.0136 108.9252,66.0133 173.8634 76.5732c 4.5881,0.7461 9.2035,1.4101 13.8449 1.9905c 12.5600,1.5706 25.3093,2.5288 38.2166 2.8437c 0.0000,0.0384 0.0000,0.0767 0.0000 0.1151c 1.2598,-0.0000 2.5197,-0.0000 3.7796 -0.0000c 0.0000,1.2598 0.0000,2.5197 0.0000 3.7795c -1.2598,-0.0000 -2.5197,-0.0000 -3.7796 -0.0000c 0.0000,0.3376 0.0000,0.6752 0.0000 1.0127c 0.0000,0.9223 0.0000,1.8446 0.0000 2.7668c 1.2598,-0.0000 2.5197,-0.0000 3.7796 -0.0000c 0.0000,1.2598 0.0000,2.5197 0.0000 3.7795c -1.2598,-0.0000 -2.5197,-0.0000 -3.7796 -0.0000c 0.0000,0.3376 0.0000,0.6752 0.0000 1.0127c 0.0000,0.9223 0.0000,1.8446 0.0000 2.7668c 1.2598,-0.0000 2.5197,-0.0000 3.7796 -0.0000c 0.0000,1.2598 0.0000,2.5197 0.0000 3.7795c -1.2598,-0.0000 -2.5197,-0.0000 -3.7796 -0.0000c 0.0000,0.3376 0.0000,0.6752 0.0000 1.0127c 0.0000,0.9223 0.0000,1.8446 0.0000 2.7668c 1.2598,-0.0000 2.5197,-0.0000 3.7796 -0.0000c 0.0000,1.2598 0.0000,2.5197 0.0000 3.7795c -1.2598,-0.0000 -2.5197,-0.0000 -3.7796 -0.0000c 0.0000,0.3376 0.0000,0.6752 0.0000 1.0127c 0.0000,0.9223 0.0000,1.8446 0.0000 2.7668c 1.2598,-0.0000 2.5197,-0.0000 3.7796 -0.0000c 0.0000,0.6299 0.0000,1.2598 0.0000 1.8898c 3.7795,-0.0000 7.5591,-0.0000 11.3386 -0.0000c 0.0000,-0.6299 0.0000,-1.2598 0.0000 -1.8898c 1.2598,-0.0000 2.5197,-0.0000 3.7796 -0.0000c 0.0000,-1.2598 0.0000,-2.5197 0.0000 -3.7796c -1.2598,-0.0000 -2.5197,-0.0000 -3.7796 -0.0000c 0.0000,-1.2598 0.0000,-2.5197 0.0000 -3.7795c 1.2598,-0.0000 2.5197,-0.0000 3.7796 -0.0000c 0.0000,-1.2598 0.0000,-2.5197 0.0000 -3.7796c -1.2598,-0.0000 -2.5197,-0.0000 -3.7796 -0.0000c 0.0000,-1.2598 0.0000,-2.5197 0.0000 -3.7795c 1.2598,-0.0000 2.5197,-0.0000 3.7796 -0.0000c 0.0000,-1.2598 0.0000,-2.5197 0.0000 -3.7796c -1.2598,-0.0000 -2.5197,-0.0000 -3.7796 -0.0000c 0.0000,-1.2598 0.0000,-2.5197 0.0000 -3.7795c 1.2598,-0.0000 2.5197,-0.0000 3.7796 -0.0000c 0.0000,-1.2598 0.0000,-2.5197 0.0000 -3.7796c -1.2598,-0.0000 -2.5197,-0.0000 -3.7796 -0.0000c 0.0000,-1.2598 0.0000,-2.5197 0.0000 -3.7795c 1.2598,-0.0000 2.5197,-0.0000 3.7796 -0.0000c 0.0000,-0.0384 0.0000,-0.0767 0.0000 -0.1151c 12.9073,-0.3149 25.6566,-1.2731 38.2166 -2.8437c 4.6413,-0.5804 9.2568,-1.2444 13.8449 -1.9905c 64.9382,-10.5599 124.3829,-37.5595 173.8634 -76.5732c 2.8892,-2.2780 6.4613,-3.5169 10.1405 -3.5169c 80.7332,-0.0000 161.4665,-0.0000 242.1998 -0.0000c 7.0427,-0.0000 13.2969,4.5023 15.5316 11.1811c 31.8298,95.1292 63.6596,190.2585 95.4894 285.3878c 0.5747,1.7177 0.8492,3.4696 0.8492 5.1960c 0.0000,6.2119 -3.5540,12.0917 -9.4613 14.8453c -154.7613,72.1395 -309.5227,144.2790 -464.2840 216.4184c -2.1670,1.0100 -4.5287,1.5335 -6.9195 1.5335c -39.6398,-0.0000 -79.2796,-0.0000 -118.9194 -0.0000c -39.6398,-0.0000 -79.2796,-0.0000 -118.9194 -0.0000c -2.3908,-0.0000 -4.7526,-0.5234 -6.9195 -1.5335c -154.7614,-72.1395 -309.5227,-144.2790 -464.2840 -216.4184c -5.9073,-2.7536 -9.4613,-8.6334 -9.4613 -14.8453ZM 18.4595,1962.3341 c 0.0000,3.1310 2.5382,5.6693 5.6693 5.6693c 3.1310,-0.0000 5.6693,-2.5382 5.6693 -5.6693c 0.0000,-3.1311 -2.5382,-5.6693 -5.6693 -5.6693c -3.1311,-0.0000 -5.6693,2.5382 -5.6693 5.6693ZM 35.6588,1950.7024 c 2.9937,2.9677 4.8480,7.0832 4.8480 11.6318c 0.0000,3.9432 -1.3935,7.5609 -3.7150 10.3876c 1.2763,1.2189 2.7999,2.2450 4.5371 3.0048c 144.5864,63.2385 289.1727,126.4771 433.7590 189.7157c 2.6875,-1.9307 5.9836,-3.0677 9.5454 -3.0677c 6.0622,-0.0000 11.3551,3.2936 14.1869 8.1890c 34.9108,-0.0000 69.8217,-0.0000 104.7325 -0.0000c 34.9109,-0.0000 69.8217,-0.0000 104.7325 -0.0000c 2.8318,-4.8954 8.1247,-8.1890 14.1869 -8.1890c 3.5617,-0.0000 6.8578,1.1369 9.5454 3.0677c 144.5864,-63.2386 289.1727,-126.4771 433.7590 -189.7157c 1.7372,-0.7598 3.2608,-1.7859 4.5371 -3.0048c -2.3214,-2.8267 -3.7150,-6.4444 -3.7150 -10.3876c 0.0000,-4.5485 1.8542,-8.6640 4.8480 -11.6318c -29.4800,-82.6709 -58.9601,-165.3419 -88.4402 -248.0127c -0.3671,-1.0295 -0.8481,-2.0012 -1.4272 -2.9043c -3.1200,-1.2072 -5.7778,-3.3424 -7.6350 -6.0670c -1.7897,-0.6642 -3.7289,-1.0240 -5.7352 -1.0240c -76.9164,-0.0000 -153.8329,-0.0000 -230.7493 -0.0000c -3.5053,-0.0000 -6.9085,1.1075 -9.6611 3.1439c -43.4643,32.1558 -94.9985,55.1817 -151.2642 65.9769c -0.8593,8.2372 -7.8242,14.6587 -16.2888 14.6587c -4.4006,-0.0000 -8.3959,-1.7356 -11.3386 -4.5595c 0.0000,7.9241 0.0000,15.8481 0.0000 23.7721c 0.0000,4.1747 -3.3843,7.5591 -7.5591 7.5591c -25.1968,-0.0000 -50.3937,-0.0000 -75.5905 -0.0000c -4.1747,-0.0000 -7.5591,-3.3843 -7.5591 -7.5591c 0.0000,-1.3775 0.0000,-2.7550 0.0000 -4.1325c 0.0000,-6.5465 0.0000,-13.0930 0.0000 -19.6396c -2.9427,2.8240 -6.9380,4.5595 -11.3386 4.5595c -8.4646,-0.0000 -15.4295,-6.4215 -16.2888 -14.6587c -56.2658,-10.7952 -107.8000,-33.8212 -151.2642 -65.9769c -2.7526,-2.0364 -6.1558,-3.1439 -9.6611 -3.1439c -76.9164,-0.0000 -153.8329,-0.0000 -230.7493 -0.0000c -2.0063,-0.0000 -3.9455,0.3599 -5.7352 1.0240c -1.8571,2.7246 -4.5150,4.8598 -7.6350 6.0670c -0.5791,0.9031 -1.0601,1.8748 -1.4272 2.9043c -29.4800,82.6709 -58.9601,165.3418 -88.4402 248.0127ZM 113.9489,1684.5053 c 0.0000,3.1311 2.5382,5.6693 5.6693 5.6693c 3.1310,-0.0000 5.6693,-2.5382 5.6693 -5.6693c 0.0000,-3.1311 -2.5382,-5.6693 -5.6693 -5.6693c -3.1311,-0.0000 -5.6693,2.5382 -5.6693 5.6693ZM 478.9640,2178.7525 c 0.0000,3.1310 2.5382,5.6693 5.6693 5.6693c 3.1310,-0.0000 5.6693,-2.5382 5.6693 -5.6693c 0.0000,-3.1311 -2.5382,-5.6693 -5.6693 -5.6693c -3.1311,-0.0000 -5.6693,2.5382 -5.6693 5.6693ZM 541.1905,1760.0959 c 0.0000,3.1311 2.5382,5.6693 5.6693 5.6693c 3.1311,-0.0000 5.6693,-2.5382 5.6693 -5.6693c 0.0000,-3.1310 -2.5382,-5.6693 -5.6693 -5.6693c -3.1310,-0.0000 -5.6693,2.5382 -5.6693 5.6693ZM 654.5764,1760.0959 c 0.0000,3.1311 2.5382,5.6693 5.6693 5.6693c 3.1310,-0.0000 5.6693,-2.5382 5.6693 -5.6693c 0.0000,-3.1310 -2.5382,-5.6693 -5.6693 -5.6693c -3.1311,-0.0000 -5.6693,2.5382 -5.6693 5.6693ZM 716.8029,2178.7525 c 0.0000,3.1310 2.5382,5.6693 5.6693 5.6693c 3.1311,-0.0000 5.6693,-2.5382 5.6693 -5.6693c 0.0000,-3.1311 -2.5382,-5.6693 -5.6693 -5.6693c -3.1310,-0.0000 -5.6693,2.5382 -5.6693 5.6693ZM 1081.8180,1684.5053 c 0.0000,3.1311 2.5382,5.6693 5.6693 5.6693c 3.1311,-0.0000 5.6693,-2.5382 5.6693 -5.6693c 0.0000,-3.1311 -2.5382,-5.6693 -5.6693 -5.6693c -3.1310,-0.0000 -5.6693,2.5382 -5.6693 5.6693ZM 1177.3074,1962.3341 c 0.0000,3.1310 2.5382,5.6693 5.6693 5.6693c 3.1311,-0.0000 5.6693,-2.5382 5.6693 -5.6693c 0.0000,-3.1311 -2.5382,-5.6693 -5.6693 -5.6693c -3.1310,-0.0000 -5.6693,2.5382 -5.6693 5.6693Z"/></g><g stroke-linejoin="miter" stroke-opacity="1.0" fill-opacity="0.5" stroke="rgb(0,0,0)" stroke-width="0.37795275590551186" fill="rgb(255,0,0)" stroke-linecap="butt" stroke-miterlimit="10.0"><path d="M 3.9685,1412.6530 c 0.0000,-1.7263 0.2744,-3.4783 0.8492 -5.1960c 31.8298,-95.1293 63.6596,-190.2586 95.4894 -285.3878c 2.2347,-6.6788 8.4889,-11.1811 15.5316 -11.1811c 80.7333,-0.0000 161.4666,-0.0000 242.1998 -0.0000c 3.6793,-0.0000 7.2513,1.2388 10.1405 3.5169c 49.4805,39.0136 108.9252,66.0133 173.8634 76.5732c 4.5881,0.7461 9.2035,1.4101 13.8449 1.9905c 15.6159,1.9527 31.5244,2.9588 47.6654 2.9588c 16.1410,-0.0000 32.0495,-1.0061 47.6654 -2.9588c 4.6413,-0.5804 9.2568,-1.2444 13.8449 -1.9905c 64.9382,-10.5599 124.3829,-37.5595 173.8634 -76.5732c 2.8892,-2.2780 6.4613,-3.5169 10.1405 -3.5169c 80.7332,-0.0000 161.4665,-0.0000 242.1998 -0.0000c 7.0427,-0.0000 13.2969,4.5023 15.5316 11.1811c 31.8298,95.1292 63.6596,190.2585 95.4894 285.3878c 0.5747,1.7177 0.8492,3.4696 0.8492 5.1960c 0.0000,6.2119 -3.5540,12.0917 -9.4613 14.8453c -154.7613,72.1395 -309.5227,144.2790 -464.2840 216.4184c -2.1670,1.0100 -4.5287,1.5335 -6.9195 1.5335c -39.6398,-0.0000 -79.2796,-0.0000 -118.9194 -0.0000c -39.6398,-0.0000 -79.2796,-0.0000 -118.9194 -0.0000c -2.3908,-0.0000 -4.7526,-0.5234 -6.9195 -1.5335c -154.7614,-72.1395 -309.5227,-144.2790 -464.2840 -216.4184c -5.9073,-2.7536 -9.4613,-8.6334 -9.4613 -14.8453ZM 18.4595,1408.8744 c 0.0000,3.1310 2.5382,5.6693 5.6693 5.6693c 3.1310,-0.0000 5.6693,-2.5382 5.6693 -5.6693c 0.0000,-3.1311 -2.5382,-5.6693 -5.6693 -5.6693c -3.1311,-0.0000 -5.6693,2.5382 -5.6693 5.6693ZM 35.6588,1397.2426 c 2.9937,2.9677 4.8480,7.0832 4.8480 11.6318c 0.0000,3.9432 -1.3935,7.5609 -3.7150 10.3876c 1.2763,1.2189 2.7999,2.2450 4.5371 3.0048c 144.5864,63.2385 289.1727,126.4771 433.7590 189.7157c 2.6875,-1.9307 5.9836,-3.0677 9.5454 -3.0677c 6.0622,-0.0000 11.3551,3.2936 14.1869 8.1890c 34.9108,-0.0000 69.8217,-0.0000 104.7325 -0.0000c 34.9109,-0.0000 69.8217,-0.0000 104.7325 -0.0000c 2.8318,-4.8954 8.1247,-8.1890 14.1869 -8.1890c 3.5617,-0.0000 6.8578,1.1369 9.5454 3.0677c 144.5864,-63.2386 289.1727,-126.4771 433.7590 -189.7157c 1.7372,-0.7598 3.2608,-1.7859 4.5371 -3.0048c -2.3214,-2.8267 -3.7150,-6.4444 -3.7150 -10.3876c 0.0000,-4.5485 1.8542,-8.6640 4.8480 -11.6318c -29.4800,-82.6709 -58.9601,-165.3419 -88.4402 -248.0127c -0.3671,-1.0295 -0.8481,-2.0012 -1.4272 -2.9043c -3.1200,-1.2072 -5.7778,-3.3424 -7.6350 -6.0670c -1.7897,-0.6642 -3.7289,-1.0240 -5.7352 -1.0240c -76.9164,-0.0000 -153.8329,-0.0000 -230.7493 -0.0000c -3.5053,-0.0000 -6.9085,1.1075 -9.6611 3.1439c -43.4643,32.1558 -94.9985,55.1817 -151.2642 65.9769c -0.8593,8.2372 -7.8242,14.6587 -16.2888 14.6587c -4.4006,-0.0000 -8.3959,-1.7356 -11.3386 -4.5595c 0.0000,7.9241 0.0000,15.8481 0.0000 23.7721c 0.0000,4.1747 -3.3843,7.5591 -7.5591 7.5591c -9.4488,-0.0000 -18.8976,-0.0000 -28.3464 -0.0000c 0.0000,-0.3150 0.0000,-0.6299 0.0000 -0.9449c -1.2598,-0.0000 -2.5197,-0.0000 -3.7796 -0.0000c 0.0000,-1.2598 0.0000,-2.5197 0.0000 -3.7796c 1.2598,-0.0000 2.5197,-0.0000 3.7796 -0.0000c 0.0000,-1.2598 0.0000,-2.5197 0.0000 -3.7795c -1.2598,-0.0000 -2.5197,-0.0000 -3.7796 -0.0000c 0.0000,-1.2598 0.0000,-2.5197 0.0000 -3.7796c 1.2598,-0.0000 2.5197,-0.0000 3.7796 -0.0000c 0.0000,-1.2598 0.0000,-2.5197 0.0000 -3.7795c -1.2598,-0.0000 -2.5197,-0.0000 -3.7796 -0.0000c 0.0000,-1.2598 0.0000,-2.5197 0.0000 -3.7796c 1.2598,-0.0000 2.5197,-0.0000 3.7796 -0.0000c 0.0000,-1.2598 0.0000,-2.5197 0.0000 -3.7795c -1.2598,-0.0000 -2.5197,-0.0000 -3.7796 -0.0000c 0.0000,-1.2598 0.0000,-2.5197 0.0000 -3.7796c 1.2598,-0.0000 2.5197,-0.0000 3.7796 -0.0000c 0.0000,-1.2598 0.0000,-2.5197 0.0000 -3.7795c -6.2992,-0.0000 -12.5984,-0.0000 -18.8977 -0.0000c 0.0000,0.3376 0.0000,0.6752 0.0000 1.0127c 0.0000,0.9223 0.0000,1.8446 0.0000 2.7668c 1.2598,-0.0000 2.5197,-0.0000 3.7796 -0.0000c 0.0000,1.2598 0.0000,2.5197 0.0000 3.7796c -1.2598,-0.0000 -2.5197,-0.0000 -3.7796 -0.0000c 0.0000,0.3376 0.0000,0.6752 0.0000 1.0127c 0.0000,0.9223 0.0000,1.8446 0.0000 2.7668c 1.2598,-0.0000 2.5197,-0.0000 3.7796 -0.0000c 0.0000,1.2598 0.0000,2.5197 0.0000 3.7796c -1.2598,-0.0000 -2.5197,-0.0000 -3.7796 -0.0000c 0.0000,0.3376 0.0000,0.6752 0.0000 1.0127c 0.0000,0.9223 0.0000,1.8446 0.0000 2.7668c 1.2598,-0.0000 2.5197,-0.0000 3.7796 -0.0000c 0.0000,1.2598 0.0000,2.5197 0.0000 3.7796c -1.2598,-0.0000 -2.5197,-0.0000 -3.7796 -0.0000c 0.0000,0.3376 0.0000,0.6752 0.0000 1.0127c 0.0000,0.9223 0.0000,1.8446 0.0000 2.7668c 1.2598,-0.0000 2.5197,-0.0000 3.7796 -0.0000c 0.0000,1.2598 0.0000,2.5197 0.0000 3.7796c -1.2598,-0.0000 -2.5197,-0.0000 -3.7796 -0.0000c 0.0000,0.3150 0.0000,0.6299 0.0000 0.9449c -9.4488,-0.0000 -18.8976,-0.0000 -28.3464 -0.0000c -4.1747,-0.0000 -7.5591,-3.3843 -7.5591 -7.5591c 0.0000,-1.3775 0.0000,-2.7550 0.0000 -4.1325c 0.0000,-6.5465 0.0000,-13.0930 0.0000 -19.6396c -2.9427,2.8240 -6.9380,4.5595 -11.3386 4.5595c -8.4646,-0.0000 -15.4295,-6.4215 -16.2888 -14.6587c -56.2658,-10.7952 -107.8000,-33.8212 -151.2642 -65.9769c -2.7526,-2.0364 -6.1558,-3.1439 -9.6611 -3.1439c -76.9164,-0.0000 -153.8329,-0.0000 -230.7493 -0.0000c -2.0063,-0.0000 -3.9455,0.3599 -5.7352 1.0240c -1.8571,2.7246 -4.5150,4.8598 -7.6350 6.0670c -0.5791,0.9031 -1.0601,1.8748 -1.4272 2.9043c -29.4800,82.6709 -58.9601,165.3418 -88.4402 248.0127ZM 113.9489,1131.0455 c 0.0000,3.1311 2.5382,5.6693 5.6693 5.6693c 3.1310,-0.0000 5.6693,-2.5382 5.6693 -5.6693c 0.0000,-3.1311 -2.5382,-5.6693 -5.6693 -5.6693c -3.1311,-0.0000 -5.6693,2.5382 -5.6693 5.6693ZM 478.9640,1625.2927 c 0.0000,3.1310 2.5382,5.6693 5.6693 5.6693c 3.1310,-0.0000 5.6693,-2.5382 5.6693 -5.6693c 0.0000,-3.1311 -2.5382,-5.6693 -5.6693 -5.6693c -3.1311,-0.0000 -5.6693,2.5382 -5.6693 5.6693ZM 541.1905,1206.6361 c 0.0000,3.1311 2.5382,5.6693 5.6693 5.6693c 3.1311,-0.0000 5.6693,-2.5382 5.6693 -5.6693c 0.0000,-3.1310 -2.5382,-5.6693 -5.6693 -5.6693c -3.1310,-0.0000 -5.6693,2.5382 -5.6693 5.6693ZM 654.5764,1206.6361 c 0.0000,3.1311 2.5382,5.6693 5.6693 5.6693c 3.1310,-0.0000 5.6693,-2.5382 5.6693 -5.6693c 0.0000,-3.1310 -2.5382,-5.6693 -5.6693 -5.6693c -3.1311,-0.0000 -5.6693,2.5382 -5.6693 5.6693ZM 716.8029,1625.2927 c 0.0000,3.1310 2.5382,5.6693 5.6693 5.6693c 3.1311,-0.0000 5.6693,-2.5382 5.6693 -5.6693c 0.0000,-3.1311 -2.5382,-5.6693 -5.6693 -5.6693c -3.1310,-0.0000 -5.6693,2.5382 -5.6693 5.6693ZM 1081.8180,1131.0455 c 0.0000,3.1311 2.5382,5.6693 5.6693 5.6693c 3.1311,-0.0000 5.6693,-2.5382 5.6693 -5.6693c 0.0000,-3.1311 -2.5382,-5.6693 -5.6693 -5.6693c -3.1310,-0.0000 -5.6693,2.5382 -5.6693 5.6693ZM 1177.3074,1408.8744 c 0.0000,3.1310 2.5382,5.6693 5.6693 5.6693c 3.1311,-0.0000 5.6693,-2.5382 5.6693 -5.6693c 0.0000,-3.1311 -2.5382,-5.6693 -5.6693 -5.6693c -3.1310,-0.0000 -5.6693,2.5382 -5.6693 5.6693Z"/></g><g stroke-linejoin="miter" stroke-opacity="1.0" fill-opacity="0.5" stroke="rgb(0,0,0)" stroke-width="0.37795275590551186" fill="rgb(0,0,0)" stroke-linecap="butt" stroke-miterlimit="10.0"><path d="M 3.9685,859.1932 c 0.0000,-1.7263 0.2744,-3.4783 0.8492 -5.1960c 31.8298,-95.1293 63.6596,-190.2586 95.4894 -285.3878c 2.2347,-6.6788 8.4889,-11.1811 15.5316 -11.1811c 80.7333,-0.0000 161.4666,-0.0000 242.1998 -0.0000c 3.6793,-0.0000 7.2513,1.2389 10.1405 3.5169c 64.7386,51.0442 146.5341,81.5225 235.3737 81.5225c 88.8396,-0.0000 170.6351,-30.4783 235.3737 -81.5225c 2.8892,-2.2780 6.4612,-3.5169 10.1405 -3.5169c 80.7332,-0.0000 161.4665,-0.0000 242.1998 -0.0000c 7.0427,-0.0000 13.2969,4.5024 15.5316 11.1811c 31.8298,95.1293 63.6596,190.2585 95.4894 285.3878c 0.5747,1.7177 0.8492,3.4697 0.8492 5.1960c 0.0000,6.2119 -3.5540,12.0917 -9.4613 14.8453c -55.8782,26.0467 -111.7565,52.0934 -167.6347 78.1402c 2.3958,5.0978 4.7915,10.1956 7.1873 15.2934c 0.1221,0.2598 0.1799,0.5333 0.1799 0.8025c 0.0000,0.7097 -0.4016,1.3898 -1.0864 1.7116c -19.9536,9.3774 -39.9071,18.7548 -59.8608 28.1321c -0.9445,0.4439 -2.0701,0.0380 -2.5141 -0.9066c -2.4269,-5.1640 -4.8538,-10.3280 -7.2807 -15.4920c -77.7582,36.2457 -155.5164,72.4914 -233.2746 108.7371c -2.1669,1.0100 -4.5287,1.5335 -6.9195 1.5335c -39.6398,-0.0000 -79.2796,-0.0000 -118.9194 -0.0000c -39.6398,-0.0000 -79.2796,-0.0000 -118.9194 -0.0000c -2.3908,-0.0000 -4.7526,-0.5234 -6.9195 -1.5335c -77.7582,-36.2457 -155.5164,-72.4915 -233.2746 -108.7371c -2.4269,5.1640 -4.8538,10.3280 -7.2807 15.4920c -0.4439,0.9446 -1.5695,1.3505 -2.5141 0.9066c -19.9536,-9.3774 -39.9072,-18.7547 -59.8608 -28.1321c -0.6848,-0.3218 -1.0864,-1.0019 -1.0864 -1.7116c 0.0000,-0.2692 0.0578,-0.5427 0.1799 -0.8025c 2.3957,-5.0978 4.7915,-10.1957 7.1873 -15.2934c -55.8783,-26.0468 -111.7565,-52.0935 -167.6347 -78.1402c -5.9073,-2.7536 -9.4613,-8.6334 -9.4613 -14.8453ZM 18.4595,855.4146 c 0.0000,3.1310 2.5382,5.6693 5.6693 5.6693c 3.1310,-0.0000 5.6693,-2.5382 5.6693 -5.6693c 0.0000,-3.1311 -2.5382,-5.6693 -5.6693 -5.6693c -3.1311,-0.0000 -5.6693,2.5382 -5.6693 5.6693ZM 54.6742,848.1726 c 0.9711,0.3249 1.9422,0.6498 2.9133 0.9747c -0.3920,1.1713 -0.7839,2.3427 -1.1759 3.5141c 16.6905,5.5846 33.3810,11.1691 50.0715 16.7537c 0.3920,-1.1714 0.7838,-2.3428 1.1758 -3.5142c 0.9711,0.3249 1.9422,0.6499 2.9133 0.9747c 1.3992,-4.1816 2.7983,-8.3634 4.1975 -12.5451c -0.9711,-0.3249 -1.9421,-0.6499 -2.9133 -0.9748c 2.0023,-5.9844 4.0046,-11.9687 6.0070 -17.9530c 0.9711,0.3249 1.9421,0.6499 2.9132 0.9748c 1.3992,-4.1817 2.7983,-8.3634 4.1975 -12.5451c -0.9711,-0.3249 -1.9422,-0.6499 -2.9133 -0.9748c 0.3920,-1.1714 0.7839,-2.3428 1.1759 -3.5142c -16.6905,-5.5846 -33.3810,-11.1691 -50.0715 -16.7537c -0.3920,1.1714 -0.7838,2.3428 -1.1758 3.5142c -0.9711,-0.3249 -1.9422,-0.6499 -2.9132 -0.9747c -1.3992,4.1817 -2.7984,8.3634 -4.1975 12.5451c 0.9710,0.3250 1.9421,0.6499 2.9132 0.9748c -2.0023,5.9844 -4.0046,11.9687 -6.0070 17.9530c -0.9710,-0.3249 -1.9421,-0.6498 -2.9132 -0.9748c -1.3992,4.1817 -2.7983,8.3634 -4.1975 12.5452ZM 77.4602,780.0725 c 0.9711,0.3249 1.9421,0.6499 2.9132 0.9748c -0.3920,1.1714 -0.7838,2.3428 -1.1758 3.5142c 16.6905,5.5846 33.3810,11.1691 50.0715 16.7537c 0.3920,-1.1713 0.7839,-2.3427 1.1758 -3.5141c 0.9711,0.3249 1.9421,0.6499 2.9132 0.9747c 1.3992,-4.1817 2.7984,-8.3634 4.1976 -12.5451c -0.9711,-0.3249 -1.9422,-0.6499 -2.9133 -0.9748c 2.0023,-5.9843 4.0046,-11.9687 6.0070 -17.9530c 0.9711,0.3249 1.9422,0.6498 2.9132 0.9748c 1.3992,-4.1817 2.7984,-8.3634 4.1976 -12.5451c -0.9711,-0.3249 -1.9421,-0.6498 -2.9133 -0.9748c 0.3920,-1.1713 0.7839,-2.3427 1.1758 -3.5141c -16.6905,-5.5846 -33.3810,-11.1691 -50.0715 -16.7537c -0.3920,1.1714 -0.7839,2.3428 -1.1759 3.5142c -0.9710,-0.3250 -1.9421,-0.6499 -2.9132 -0.9748c -1.3992,4.1817 -2.7983,8.3634 -4.1975 12.5451c 0.9711,0.3249 1.9422,0.6498 2.9133 0.9748c -2.0024,5.9843 -4.0047,11.9687 -6.0070 17.9530c -0.9711,-0.3249 -1.9422,-0.6499 -2.9132 -0.9748c -1.3992,4.1817 -2.7984,8.3634 -4.1975 12.5451ZM 100.2462,711.9724 c 0.9711,0.3249 1.9421,0.6498 2.9132 0.9748c -0.3920,1.1713 -0.7839,2.3427 -1.1759 3.5141c 16.6905,5.5846 33.3810,11.1691 50.0715 16.7537c 0.3920,-1.1714 0.7839,-2.3428 1.1758 -3.5142c 0.9711,0.3249 1.9422,0.6499 2.9133 0.9748c 1.3992,-4.1817 2.7983,-8.3634 4.1975 -12.5451c -0.9711,-0.3249 -1.9421,-0.6499 -2.9132 -0.9747c 2.0023,-5.9844 4.0047,-11.9687 6.0070 -17.9530c 0.9711,0.3249 1.9421,0.6499 2.9132 0.9748c 1.3992,-4.1817 2.7984,-8.3634 4.1976 -12.5451c -0.9711,-0.3250 -1.9422,-0.6499 -2.9133 -0.9748c 0.3919,-1.1714 0.7839,-2.3428 1.1758 -3.5142c -16.6905,-5.5845 -33.3810,-11.1691 -50.0715 -16.7537c -0.3919,1.1714 -0.7838,2.3428 -1.1758 3.5142c -0.9711,-0.3249 -1.9422,-0.6499 -2.9132 -0.9748c -1.3992,4.1817 -2.7984,8.3634 -4.1975 12.5451c 0.9711,0.3249 1.9421,0.6499 2.9132 0.9748c -2.0023,5.9843 -4.0046,11.9687 -6.0070 17.9530c -0.9711,-0.3249 -1.9421,-0.6498 -2.9133 -0.9748c -1.3991,4.1817 -2.7983,8.3634 -4.1975 12.5451ZM 113.9489,577.5857 c 0.0000,3.1311 2.5383,5.6693 5.6693 5.6693c 3.1310,-0.0000 5.6693,-2.5382 5.6693 -5.6693c 0.0000,-3.1311 -2.5382,-5.6693 -5.6693 -5.6693c -3.1311,-0.0000 -5.6693,2.5382 -5.6693 5.6693ZM 123.0321,643.8723 c 0.9711,0.3249 1.9422,0.6499 2.9132 0.9747c -0.3919,1.1714 -0.7838,2.3428 -1.1758 3.5142c 16.6905,5.5846 33.3810,11.1691 50.0715 16.7536c 0.3919,-1.1713 0.7838,-2.3427 1.1758 -3.5141c 0.9711,0.3249 1.9422,0.6498 2.9132 0.9748c 1.3992,-4.1817 2.7984,-8.3634 4.1975 -12.5451c -0.9711,-0.3249 -1.9422,-0.6499 -2.9132 -0.9747c 2.0023,-5.9844 4.0046,-11.9687 6.0070 -17.9530c 0.9711,0.3249 1.9422,0.6498 2.9133 0.9747c 1.3991,-4.1817 2.7983,-8.3634 4.1975 -12.5451c -0.9711,-0.3249 -1.9421,-0.6498 -2.9132 -0.9748c 0.3920,-1.1714 0.7839,-2.3427 1.1759 -3.5141c -16.6905,-5.5846 -33.3810,-11.1692 -50.0715 -16.7537c -0.3920,1.1714 -0.7839,2.3428 -1.1758 3.5141c -0.9711,-0.3249 -1.9421,-0.6498 -2.9132 -0.9748c -1.3992,4.1817 -2.7983,8.3634 -4.1976 12.5451c 0.9711,0.3249 1.9422,0.6498 2.9133 0.9748c -2.0024,5.9843 -4.0047,11.9686 -6.0070 17.9530c -0.9711,-0.3250 -1.9421,-0.6499 -2.9133 -0.9748c -1.3991,4.1817 -2.7984,8.3634 -4.1975 12.5451ZM 123.9736,867.3743 c 0.9711,0.3250 1.9422,0.6499 2.9133 0.9748c -0.3920,1.1714 -0.7839,2.3428 -1.1759 3.5142c 16.6905,5.5846 33.3810,11.1691 50.0715 16.7537c 0.3920,-1.1714 0.7839,-2.3428 1.1758 -3.5142c 0.9711,0.3249 1.9422,0.6499 2.9133 0.9748c 1.3992,-4.1817 2.7984,-8.3634 4.1975 -12.5451c -0.9711,-0.3249 -1.9421,-0.6499 -2.9132 -0.9747c 2.0023,-5.9844 4.0046,-11.9687 6.0070 -17.9530c 0.9711,0.3249 1.9421,0.6499 2.9132 0.9748c 1.3992,-4.1817 2.7983,-8.3634 4.1975 -12.5451c -0.9711,-0.3250 -1.9422,-0.6499 -2.9133 -0.9748c 0.3919,-1.1714 0.7839,-2.3428 1.1758 -3.5142c -16.6905,-5.5845 -33.3810,-11.1691 -50.0715 -16.7537c -0.3920,1.1714 -0.7839,2.3428 -1.1758 3.5142c -0.9711,-0.3249 -1.9422,-0.6499 -2.9133 -0.9748c -1.3992,4.1817 -2.7983,8.3634 -4.1975 12.5451c 0.9710,0.3249 1.9421,0.6499 2.9132 0.9748c -2.0023,5.9843 -4.0047,11.9686 -6.0070 17.9530c -0.9710,-0.3249 -1.9421,-0.6499 -2.9132 -0.9748c -1.3992,4.1817 -2.7983,8.3634 -4.1975 12.5451ZM 146.7596,799.2742 c 0.9711,0.3249 1.9421,0.6499 2.9132 0.9747c -0.3920,1.1714 -0.7839,2.3428 -1.1758 3.5141c 16.6905,5.5846 33.3810,11.1691 50.0715 16.7537c 0.3920,-1.1714 0.7839,-2.3427 1.1758 -3.5141c 0.9711,0.3249 1.9421,0.6498 2.9133 0.9748c 1.3991,-4.1817 2.7983,-8.3634 4.1975 -12.5451c -0.9711,-0.3249 -1.9422,-0.6498 -2.9133 -0.9748c 2.0024,-5.9843 4.0047,-11.9686 6.0070 -17.9530c 0.9711,0.3249 1.9422,0.6499 2.9133 0.9748c 1.3992,-4.1817 2.7984,-8.3634 4.1975 -12.5451c -0.9711,-0.3249 -1.9421,-0.6499 -2.9132 -0.9748c 0.3919,-1.1714 0.7838,-2.3428 1.1758 -3.5141c -16.6905,-5.5846 -33.3810,-11.1692 -50.0715 -16.7537c -0.3920,1.1714 -0.7839,2.3427 -1.1759 3.5141c -0.9710,-0.3249 -1.9421,-0.6498 -2.9132 -0.9748c -1.3992,4.1817 -2.7984,8.3634 -4.1975 12.5451c 0.9711,0.3249 1.9422,0.6498 2.9132 0.9748c -2.0023,5.9843 -4.0046,11.9686 -6.0070 17.9530c -0.9711,-0.3250 -1.9422,-0.6499 -2.9132 -0.9748c -1.3992,4.1817 -2.7984,8.3634 -4.1975 12.5451ZM 169.5455,731.1741 c 0.9711,0.3249 1.9422,0.6499 2.9133 0.9748c -0.3920,1.1714 -0.7839,2.3428 -1.1758 3.5142c 16.6905,5.5846 33.3810,11.1691 50.0715 16.7537c 0.3920,-1.1714 0.7839,-2.3428 1.1758 -3.5142c 0.9711,0.3249 1.9422,0.6499 2.9132 0.9748c 1.3992,-4.1817 2.7984,-8.3634 4.1975 -12.5451c -0.9711,-0.3249 -1.9421,-0.6499 -2.9132 -0.9748c 2.0023,-5.9843 4.0046,-11.9686 6.0070 -17.9530c 0.9711,0.3249 1.9421,0.6499 2.9133 0.9748c 1.3991,-4.1817 2.7983,-8.3634 4.1975 -12.5451c -0.9711,-0.3249 -1.9422,-0.6498 -2.9133 -0.9747c 0.3920,-1.1714 0.7839,-2.3428 1.1759 -3.5142c -16.6905,-5.5846 -33.3810,-11.1691 -50.0715 -16.7537c -0.3919,1.1714 -0.7838,2.3428 -1.1758 3.5142c -0.9711,-0.3250 -1.9422,-0.6499 -2.9132 -0.9748c -1.3992,4.1817 -2.7984,8.3634 -4.1975 12.5451c 0.9711,0.3249 1.9421,0.6499 2.9132 0.9748c -2.0023,5.9844 -4.0046,11.9687 -6.0070 17.9530c -0.9711,-0.3249 -1.9421,-0.6499 -2.9132 -0.9747c -1.3992,4.1817 -2.7983,8.3634 -4.1976 12.5451ZM 181.4708,966.8648 c 17.1031,8.0378 34.2062,16.0755 51.3092 24.1133c 1.0717,-2.2804 2.1434,-4.5609 3.2151 -6.8413c -17.1031,-8.0377 -34.2062,-16.0755 -51.3092 -24.1132c -1.0717,2.2804 -2.1434,4.5609 -3.2151 6.8412ZM 192.3315,663.0740 c 0.9711,0.3249 1.9422,0.6499 2.9133 0.9748c -0.3920,1.1714 -0.7839,2.3427 -1.1758 3.5141c 16.6905,5.5846 33.3810,11.1691 50.0714 16.7537c 0.3920,-1.1714 0.7839,-2.3427 1.1759 -3.5141c 0.9711,0.3249 1.9421,0.6498 2.9132 0.9748c 1.3992,-4.1817 2.7984,-8.3634 4.1975 -12.5452c -0.9711,-0.3249 -1.9422,-0.6498 -2.9132 -0.9747c 2.0023,-5.9843 4.0046,-11.9687 6.0070 -17.9530c 0.9711,0.3249 1.9422,0.6499 2.9132 0.9747c 1.3992,-4.1816 2.7984,-8.3634 4.1975 -12.5451c -0.9711,-0.3249 -1.9421,-0.6499 -2.9132 -0.9748c 0.3920,-1.1714 0.7839,-2.3428 1.1758 -3.5142c -16.6905,-5.5846 -33.3810,-11.1691 -50.0715 -16.7537c -0.3919,1.1713 -0.7839,2.3427 -1.1758 3.5141c -0.9711,-0.3249 -1.9421,-0.6498 -2.9132 -0.9748c -1.3992,4.1817 -2.7983,8.3634 -4.1976 12.5452c 0.9711,0.3249 1.9422,0.6498 2.9133 0.9747c -2.0024,5.9843 -4.0047,11.9687 -6.0070 17.9530c -0.9711,-0.3249 -1.9422,-0.6498 -2.9132 -0.9747c -1.3992,4.1816 -2.7984,8.3634 -4.1976 12.5451ZM 195.6715,879.4077 c 0.9711,0.3249 1.9421,0.6498 2.9132 0.9748c -0.3920,1.1713 -0.7838,2.3427 -1.1758 3.5141c 16.6905,5.5846 33.3810,11.1691 50.0715 16.7537c 0.3920,-1.1714 0.7839,-2.3428 1.1758 -3.5142c 0.9711,0.3249 1.9421,0.6499 2.9133 0.9748c 1.3991,-4.1817 2.7983,-8.3634 4.1975 -12.5451c -0.9711,-0.3249 -1.9422,-0.6498 -2.9132 -0.9748c 2.0023,-5.9843 4.0046,-11.9686 6.0069 -17.9530c 0.9711,0.3250 1.9422,0.6499 2.9133 0.9748c 1.3992,-4.1817 2.7984,-8.3634 4.1975 -12.5451c -0.9711,-0.3249 -1.9421,-0.6499 -2.9132 -0.9747c 0.3919,-1.1714 0.7838,-2.3428 1.1758 -3.5142c -16.6905,-5.5846 -33.3810,-11.1691 -50.0715 -16.7536c -0.3920,1.1713 -0.7839,2.3427 -1.1759 3.5141c -0.9710,-0.3249 -1.9421,-0.6499 -2.9132 -0.9748c -1.3992,4.1817 -2.7984,8.3634 -4.1975 12.5451c 0.9711,0.3249 1.9422,0.6499 2.9132 0.9747c -2.0023,5.9844 -4.0046,11.9687 -6.0070 17.9530c -0.9711,-0.3249 -1.9422,-0.6498 -2.9132 -0.9747c -1.3992,4.1817 -2.7984,8.3634 -4.1975 12.5451ZM 218.4574,811.3075 c 0.9711,0.3249 1.9422,0.6499 2.9133 0.9748c -0.3920,1.1714 -0.7839,2.3428 -1.1759 3.5142c 16.6905,5.5845 33.3810,11.1691 50.0715 16.7537c 0.3920,-1.1714 0.7839,-2.3428 1.1758 -3.5142c 0.9711,0.3249 1.9422,0.6499 2.9132 0.9748c 1.3992,-4.1817 2.7984,-8.3634 4.1975 -12.5451c -0.9711,-0.3249 -1.9421,-0.6499 -2.9132 -0.9748c 2.0023,-5.9843 4.0047,-11.9687 6.0070 -17.9530c 0.9711,0.3249 1.9421,0.6498 2.9133 0.9748c 1.3991,-4.1817 2.7983,-8.3634 4.1975 -12.5451c -0.9711,-0.3249 -1.9422,-0.6498 -2.9133 -0.9748c 0.3920,-1.1713 0.7839,-2.3427 1.1759 -3.5141c -16.6905,-5.5845 -33.3810,-11.1691 -50.0715 -16.7537c -0.3920,1.1714 -0.7838,2.3428 -1.1758 3.5141c -0.9711,-0.3249 -1.9422,-0.6498 -2.9132 -0.9747c -1.3992,4.1817 -2.7984,8.3634 -4.1975 12.5451c 0.9711,0.3249 1.9421,0.6499 2.9132 0.9747c -2.0023,5.9844 -4.0046,11.9687 -6.0070 17.9530c -0.9711,-0.3249 -1.9421,-0.6499 -2.9132 -0.9748c -1.3992,4.1817 -2.7983,8.3634 -4.1976 12.5451ZM 241.2434,743.2075 c 0.9711,0.3249 1.9422,0.6498 2.9133 0.9748c -0.3920,1.1713 -0.7839,2.3427 -1.1758 3.5141c 16.6905,5.5846 33.3810,11.1691 50.0714 16.7537c 0.3920,-1.1714 0.7839,-2.3428 1.1759 -3.5142c 0.9711,0.3250 1.9421,0.6499 2.9132 0.9748c 1.3992,-4.1816 2.7984,-8.3634 4.1975 -12.5451c -0.9711,-0.3249 -1.9422,-0.6498 -2.9132 -0.9748c 2.0023,-5.9843 4.0046,-11.9687 6.0070 -17.9530c 0.9711,0.3249 1.9422,0.6499 2.9132 0.9748c 1.3992,-4.1817 2.7984,-8.3634 4.1975 -12.5451c -0.9711,-0.3249 -1.9421,-0.6499 -2.9132 -0.9748c 0.3920,-1.1714 0.7839,-2.3428 1.1758 -3.5142c -16.6905,-5.5846 -33.3810,-11.1691 -50.0715 -16.7537c -0.3919,1.1714 -0.7839,2.3428 -1.1758 3.5142c -0.9711,-0.3249 -1.9421,-0.6499 -2.9132 -0.9747c -1.3992,4.1817 -2.7983,8.3634 -4.1976 12.5451c 0.9711,0.3249 1.9422,0.6499 2.9133 0.9748c -2.0024,5.9844 -4.0047,11.9687 -6.0070 17.9530c -0.9711,-0.3249 -1.9422,-0.6498 -2.9132 -0.9748c -1.3992,4.1817 -2.7984,8.3634 -4.1976 12.5451ZM 264.0294,675.1074 c 0.9711,0.3249 1.9421,0.6499 2.9133 0.9748c -0.3920,1.1714 -0.7839,2.3428 -1.1759 3.5142c 16.6905,5.5846 33.3810,11.1691 50.0715 16.7536c 0.3920,-1.1713 0.7839,-2.3427 1.1758 -3.5141c 0.9711,0.3249 1.9422,0.6499 2.9133 0.9747c 1.3992,-4.1817 2.7983,-8.3634 4.1975 -12.5451c -0.9710,-0.3249 -1.9421,-0.6498 -2.9132 -0.9747c 2.0023,-5.9844 4.0047,-11.9687 6.0070 -17.9530c 0.9710,0.3249 1.9421,0.6498 2.9132 0.9748c 1.3992,-4.1817 2.7984,-8.3634 4.1975 -12.5451c -0.9711,-0.3249 -1.9422,-0.6498 -2.9132 -0.9748c 0.3919,-1.1714 0.7838,-2.3427 1.1758 -3.5141c -16.6905,-5.5846 -33.3810,-11.1691 -50.0715 -16.7537c -0.3920,1.1714 -0.7838,2.3428 -1.1758 3.5141c -0.9711,-0.3249 -1.9422,-0.6498 -2.9132 -0.9747c -1.3992,4.1816 -2.7984,8.3634 -4.1976 12.5451c 0.9711,0.3249 1.9421,0.6498 2.9133 0.9748c -2.0023,5.9843 -4.0046,11.9687 -6.0070 17.9530c -0.9711,-0.3249 -1.9422,-0.6499 -2.9133 -0.9748c -1.3992,4.1817 -2.7983,8.3634 -4.1975 12.5451ZM 269.7679,884.2725 c 0.9711,0.3249 1.9422,0.6499 2.9132 0.9748c -0.3919,1.1714 -0.7838,2.3428 -1.1758 3.5142c 16.6905,5.5846 33.3810,11.1691 50.0715 16.7537c 0.3919,-1.1714 0.7838,-2.3428 1.1758 -3.5142c 0.9711,0.3250 1.9421,0.6499 2.9132 0.9748c 1.3992,-4.1817 2.7984,-8.3634 4.1975 -12.5451c -0.9711,-0.3249 -1.9422,-0.6499 -2.9132 -0.9748c 2.0023,-5.9844 4.0046,-11.9687 6.0070 -17.9530c 0.9711,0.3249 1.9422,0.6499 2.9133 0.9748c 1.3992,-4.1817 2.7983,-8.3634 4.1975 -12.5451c -0.9711,-0.3249 -1.9421,-0.6499 -2.9132 -0.9748c 0.3920,-1.1714 0.7839,-2.3428 1.1758 -3.5142c -16.6905,-5.5846 -33.3810,-11.1691 -50.0715 -16.7537c -0.3920,1.1714 -0.7839,2.3428 -1.1758 3.5142c -0.9711,-0.3249 -1.9422,-0.6499 -2.9133 -0.9747c -1.3991,4.1817 -2.7983,8.3634 -4.1975 12.5451c 0.9710,0.3249 1.9421,0.6499 2.9132 0.9748c -2.0023,5.9843 -4.0047,11.9686 -6.0070 17.9530c -0.9711,-0.3249 -1.9421,-0.6499 -2.9133 -0.9748c -1.3991,4.1817 -2.7984,8.3634 -4.1975 12.5451ZM 292.5538,816.1725 c 0.9711,0.3249 1.9421,0.6499 2.9132 0.9748c -0.3920,1.1714 -0.7839,2.3428 -1.1758 3.5141c 16.6905,5.5846 33.3810,11.1691 50.0715 16.7537c 0.3920,-1.1714 0.7839,-2.3427 1.1759 -3.5141c 0.9710,0.3249 1.9421,0.6498 2.9132 0.9747c 1.3992,-4.1817 2.7983,-8.3634 4.1975 -12.5451c -0.9711,-0.3249 -1.9422,-0.6498 -2.9133 -0.9748c 2.0024,-5.9843 4.0047,-11.9686 6.0070 -17.9530c 0.9711,0.3250 1.9421,0.6499 2.9132 0.9748c 1.3992,-4.1817 2.7984,-8.3634 4.1975 -12.5451c -0.9711,-0.3249 -1.9422,-0.6499 -2.9132 -0.9747c 0.3920,-1.1714 0.7838,-2.3428 1.1758 -3.5141c -16.6905,-5.5846 -33.3810,-11.1691 -50.0715 -16.7537c -0.3919,1.1714 -0.7839,2.3427 -1.1758 3.5141c -0.9711,-0.3249 -1.9421,-0.6498 -2.9133 -0.9748c -1.3991,4.1817 -2.7984,8.3634 -4.1975 12.5451c 0.9711,0.3249 1.9422,0.6498 2.9132 0.9748c -2.0023,5.9843 -4.0046,11.9687 -6.0069 17.9530c -0.9711,-0.3249 -1.9422,-0.6499 -2.9133 -0.9748c -1.3992,4.1817 -2.7983,8.3634 -4.1975 12.5451ZM 315.3398,748.0723 c 0.9711,0.3250 1.9422,0.6499 2.9132 0.9748c -0.3919,1.1714 -0.7838,2.3428 -1.1758 3.5142c 16.6905,5.5845 33.3810,11.1691 50.0715 16.7537c 0.3920,-1.1714 0.7838,-2.3428 1.1758 -3.5142c 0.9711,0.3249 1.9422,0.6499 2.9132 0.9748c 1.3992,-4.1817 2.7984,-8.3634 4.1975 -12.5451c -0.9711,-0.3249 -1.9421,-0.6499 -2.9132 -0.9748c 2.0023,-5.9843 4.0046,-11.9686 6.0070 -17.9530c 0.9710,0.3249 1.9421,0.6499 2.9132 0.9748c 1.3992,-4.1817 2.7983,-8.3634 4.1975 -12.5451c -0.9710,-0.3250 -1.9421,-0.6499 -2.9132 -0.9748c 0.3920,-1.1714 0.7839,-2.3428 1.1759 -3.5142c -16.6905,-5.5845 -33.3810,-11.1691 -50.0715 -16.7537c -0.3920,1.1714 -0.7839,2.3428 -1.1758 3.5142c -0.9711,-0.3249 -1.9422,-0.6499 -2.9133 -0.9748c -1.3992,4.1817 -2.7983,8.3634 -4.1975 12.5451c 0.9711,0.3249 1.9421,0.6499 2.9132 0.9747c -2.0023,5.9844 -4.0047,11.9687 -6.0070 17.9530c -0.9711,-0.3249 -1.9421,-0.6499 -2.9132 -0.9748c -1.3992,4.1817 -2.7983,8.3634 -4.1975 12.5451ZM 330.6724,928.5638 c 0.9710,0.3249 1.9421,0.6498 2.9132 0.9747c -0.3920,1.1713 -0.7839,2.3427 -1.1759 3.5141c 16.6905,5.5846 33.3810,11.1691 50.0715 16.7537c 0.3919,-1.1714 0.7839,-2.3428 1.1758 -3.5142c 0.9711,0.3249 1.9422,0.6499 2.9133 0.9748c 1.3992,-4.1817 2.7983,-8.3634 4.1975 -12.5451c -0.9711,-0.3249 -1.9421,-0.6499 -2.9132 -0.9748c 2.0023,-5.9843 4.0047,-11.9686 6.0070 -17.9530c 0.9711,0.3249 1.9421,0.6499 2.9132 0.9748c 1.3992,-4.1817 2.7984,-8.3634 4.1975 -12.5451c -0.9711,-0.3249 -1.9422,-0.6499 -2.9132 -0.9748c 0.3919,-1.1714 0.7839,-2.3428 1.1758 -3.5142c -16.6905,-5.5846 -33.3810,-11.1691 -50.0715 -16.7537c -0.3919,1.1714 -0.7838,2.3428 -1.1758 3.5142c -0.9711,-0.3249 -1.9421,-0.6499 -2.9132 -0.9748c -1.3992,4.1817 -2.7984,8.3634 -4.1975 12.5451c 0.9711,0.3250 1.9421,0.6499 2.9132 0.9748c -2.0023,5.9844 -4.0046,11.9687 -6.0070 17.9530c -0.9711,-0.3249 -1.9422,-0.6498 -2.9133 -0.9747c -1.3992,4.1817 -2.7983,8.3634 -4.1975 12.5451ZM 338.1258,679.9723 c 0.9711,0.3249 1.9421,0.6498 2.9132 0.9748c -0.3920,1.1714 -0.7839,2.3428 -1.1758 3.5141c 16.6905,5.5846 33.3810,11.1691 50.0714 16.7537c 0.3920,-1.1714 0.7839,-2.3427 1.1759 -3.5141c 0.9711,0.3249 1.9421,0.6498 2.9132 0.9748c 1.3992,-4.1817 2.7983,-8.3634 4.1975 -12.5451c -0.9711,-0.3249 -1.9422,-0.6498 -2.9133 -0.9748c 2.0023,-5.9843 4.0047,-11.9687 6.0070 -17.9530c 0.9711,0.3249 1.9422,0.6499 2.9132 0.9748c 1.3992,-4.1817 2.7984,-8.3634 4.1975 -12.5451c -0.9711,-0.3249 -1.9421,-0.6499 -2.9132 -0.9748c 0.3920,-1.1714 0.7838,-2.3428 1.1758 -3.5141c -16.6905,-5.5846 -33.3810,-11.1691 -50.0714 -16.7537c -0.3920,1.1713 -0.7839,2.3427 -1.1759 3.5141c -0.9711,-0.3249 -1.9421,-0.6498 -2.9132 -0.9747c -1.3992,4.1817 -2.7983,8.3634 -4.1975 12.5451c 0.9711,0.3249 1.9422,0.6498 2.9132 0.9747c -2.0023,5.9844 -4.0046,11.9687 -6.0070 17.9530c -0.9711,-0.3249 -1.9422,-0.6498 -2.9132 -0.9747c -1.3992,4.1817 -2.7984,8.3634 -4.1975 12.5451ZM 353.4584,860.4637 c 0.9711,0.3249 1.9422,0.6499 2.9132 0.9748c -0.3919,1.1714 -0.7838,2.3428 -1.1758 3.5141c 16.6905,5.5846 33.3810,11.1691 50.0715 16.7537c 0.3919,-1.1713 0.7838,-2.3427 1.1758 -3.5141c 0.9711,0.3249 1.9422,0.6499 2.9132 0.9748c 1.3992,-4.1817 2.7984,-8.3634 4.1975 -12.5452c -0.9711,-0.3249 -1.9421,-0.6498 -2.9132 -0.9747c 2.0023,-5.9843 4.0046,-11.9687 6.0070 -17.9530c 0.9711,0.3249 1.9422,0.6498 2.9133 0.9747c 1.3992,-4.1816 2.7983,-8.3634 4.1975 -12.5451c -0.9711,-0.3249 -1.9421,-0.6498 -2.9132 -0.9748c 0.3920,-1.1714 0.7839,-2.3427 1.1758 -3.5141c -16.6905,-5.5846 -33.3810,-11.1691 -50.0715 -16.7537c -0.3920,1.1714 -0.7839,2.3428 -1.1759 3.5141c -0.9710,-0.3249 -1.9421,-0.6498 -2.9132 -0.9748c -1.3991,4.1817 -2.7983,8.3634 -4.1975 12.5451c 0.9710,0.3249 1.9421,0.6498 2.9132 0.9748c -2.0023,5.9843 -4.0047,11.9687 -6.0070 17.9530c -0.9711,-0.3249 -1.9421,-0.6499 -2.9132 -0.9747c -1.3991,4.1817 -2.7984,8.3634 -4.1975 12.5451ZM 376.2443,792.3636 c 0.9711,0.3249 1.9421,0.6498 2.9132 0.9747c -0.3920,1.1714 -0.7839,2.3428 -1.1758 3.5142c 16.6905,5.5846 33.3810,11.1691 50.0715 16.7537c 0.3920,-1.1714 0.7839,-2.3428 1.1759 -3.5142c 0.9710,0.3250 1.9421,0.6499 2.9132 0.9748c 1.3992,-4.1817 2.7983,-8.3634 4.1975 -12.5451c -0.9710,-0.3249 -1.9421,-0.6499 -2.9132 -0.9748c 2.0024,-5.9844 4.0047,-11.9687 6.0070 -17.9530c 0.9711,0.3249 1.9422,0.6499 2.9132 0.9747c 1.3992,-4.1817 2.7984,-8.3634 4.1975 -12.5451c -0.9711,-0.3249 -1.9422,-0.6499 -2.9132 -0.9748c 0.3919,-1.1714 0.7838,-2.3428 1.1758 -3.5142c -16.6905,-5.5846 -33.3810,-11.1691 -50.0715 -16.7537c -0.3919,1.1714 -0.7839,2.3428 -1.1758 3.5142c -0.9711,-0.3249 -1.9421,-0.6499 -2.9133 -0.9748c -1.3991,4.1817 -2.7984,8.3634 -4.1975 12.5451c 0.9711,0.3249 1.9422,0.6499 2.9132 0.9748c -2.0023,5.9843 -4.0046,11.9687 -6.0069 17.9530c -0.9711,-0.3249 -1.9422,-0.6498 -2.9133 -0.9748c -1.3992,4.1817 -2.7983,8.3634 -4.1975 12.5451ZM 392.7761,969.2709 c 0.9711,0.3249 1.9422,0.6499 2.9133 0.9747c -0.3920,1.1714 -0.7839,2.3428 -1.1759 3.5141c 16.6905,5.5846 33.3810,11.1691 50.0715 16.7537c 0.3920,-1.1714 0.7838,-2.3427 1.1758 -3.5141c 0.9711,0.3249 1.9422,0.6498 2.9132 0.9748c 1.3992,-4.1817 2.7984,-8.3634 4.1975 -12.5451c -0.9711,-0.3249 -1.9421,-0.6498 -2.9132 -0.9747c 2.0023,-5.9844 4.0046,-11.9687 6.0070 -17.9530c 0.9711,0.3249 1.9421,0.6498 2.9133 0.9747c 1.3991,-4.1817 2.7983,-8.3634 4.1975 -12.5451c -0.9711,-0.3249 -1.9422,-0.6498 -2.9133 -0.9748c 0.3920,-1.1714 0.7839,-2.3427 1.1759 -3.5141c -16.6905,-5.5846 -33.3810,-11.1691 -50.0715 -16.7537c -0.3920,1.1714 -0.7838,2.3427 -1.1758 3.5141c -0.9711,-0.3249 -1.9422,-0.6498 -2.9132 -0.9747c -1.3992,4.1817 -2.7984,8.3634 -4.1975 12.5451c 0.9711,0.3249 1.9421,0.6498 2.9132 0.9748c -2.0023,5.9843 -4.0046,11.9686 -6.0070 17.9530c -0.9711,-0.3250 -1.9421,-0.6499 -2.9132 -0.9748c -1.3992,4.1817 -2.7983,8.3634 -4.1976 12.5451ZM 399.0303,724.2635 c 0.9711,0.3249 1.9422,0.6499 2.9133 0.9748c -0.3920,1.1714 -0.7839,2.3428 -1.1758 3.5141c 16.6905,5.5846 33.3810,11.1692 50.0715 16.7537c 0.3920,-1.1714 0.7838,-2.3427 1.1758 -3.5141c 0.9711,0.3249 1.9422,0.6498 2.9132 0.9748c 1.3992,-4.1817 2.7984,-8.3634 4.1975 -12.5451c -0.9711,-0.3249 -1.9421,-0.6498 -2.9132 -0.9747c 2.0023,-5.9844 4.0046,-11.9687 6.0070 -17.9530c 0.9710,0.3249 1.9421,0.6498 2.9132 0.9747c 1.3992,-4.1817 2.7983,-8.3634 4.1975 -12.5451c -0.9711,-0.3249 -1.9422,-0.6498 -2.9133 -0.9747c 0.3920,-1.1714 0.7839,-2.3427 1.1759 -3.5141c -16.6905,-5.5846 -33.3810,-11.1691 -50.0715 -16.7537c -0.3920,1.1714 -0.7839,2.3427 -1.1758 3.5141c -0.9711,-0.3249 -1.9422,-0.6498 -2.9133 -0.9748c -1.3992,4.1817 -2.7983,8.3634 -4.1975 12.5451c 0.9711,0.3249 1.9421,0.6498 2.9132 0.9748c -2.0023,5.9843 -4.0047,11.9686 -6.0070 17.9530c -0.9711,-0.3249 -1.9421,-0.6499 -2.9132 -0.9748c -1.3992,4.1817 -2.7983,8.3634 -4.1975 12.5451ZM 415.5621,901.1707 c 0.9711,0.3249 1.9421,0.6499 2.9133 0.9748c -0.3920,1.1714 -0.7839,2.3428 -1.1758 3.5142c 16.6905,5.5846 33.3810,11.1691 50.0715 16.7537c 0.3920,-1.1714 0.7839,-2.3428 1.1759 -3.5142c 0.9711,0.3249 1.9421,0.6499 2.9132 0.9747c 1.3992,-4.1817 2.7984,-8.3634 4.1975 -12.5451c -0.9711,-0.3249 -1.9422,-0.6499 -2.9132 -0.9748c 2.0023,-5.9843 4.0046,-11.9686 6.0070 -17.9530c 0.9711,0.3249 1.9422,0.6499 2.9132 0.9748c 1.3992,-4.1817 2.7984,-8.3634 4.1975 -12.5451c -0.9711,-0.3249 -1.9421,-0.6499 -2.9132 -0.9748c 0.3920,-1.1714 0.7839,-2.3428 1.1758 -3.5142c -16.6905,-5.5846 -33.3810,-11.1691 -50.0715 -16.7537c -0.3920,1.1714 -0.7839,2.3428 -1.1758 3.5142c -0.9711,-0.3250 -1.9421,-0.6499 -2.9132 -0.9748c -1.3992,4.1817 -2.7983,8.3634 -4.1976 12.5451c 0.9711,0.3249 1.9422,0.6499 2.9133 0.9748c -2.0024,5.9844 -4.0047,11.9687 -6.0070 17.9530c -0.9711,-0.3249 -1.9422,-0.6499 -2.9132 -0.9748c -1.3992,4.1817 -2.7984,8.3634 -4.1976 12.5451ZM 438.3481,833.0707 c 0.9711,0.3249 1.9421,0.6499 2.9133 0.9748c -0.3920,1.1714 -0.7839,2.3427 -1.1759 3.5141c 16.6905,5.5846 33.3810,11.1691 50.0715 16.7537c 0.3920,-1.1714 0.7839,-2.3427 1.1758 -3.5141c 0.9711,0.3249 1.9422,0.6498 2.9133 0.9748c 1.3992,-4.1817 2.7983,-8.3634 4.1975 -12.5452c -0.9710,-0.3249 -1.9421,-0.6498 -2.9132 -0.9747c 2.0023,-5.9843 4.0047,-11.9687 6.0070 -17.9530c 0.9711,0.3249 1.9421,0.6499 2.9132 0.9747c 1.3992,-4.1816 2.7983,-8.3634 4.1975 -12.5451c -0.9711,-0.3249 -1.9422,-0.6499 -2.9132 -0.9748c 0.3919,-1.1714 0.7838,-2.3428 1.1758 -3.5141c -16.6905,-5.5846 -33.3810,-11.1691 -50.0715 -16.7537c -0.3919,1.1714 -0.7838,2.3427 -1.1758 3.5141c -0.9711,-0.3249 -1.9422,-0.6498 -2.9132 -0.9748c -1.3992,4.1817 -2.7984,8.3634 -4.1976 12.5451c 0.9711,0.3249 1.9421,0.6498 2.9133 0.9748c -2.0023,5.9843 -4.0046,11.9687 -6.0070 17.9530c -0.9711,-0.3249 -1.9421,-0.6499 -2.9132 -0.9747c -1.3992,4.1816 -2.7983,8.3634 -4.1975 12.5451ZM 449.4833,1026.1069 c 0.9710,0.3249 1.9421,0.6498 2.9132 0.9748c -0.3920,1.1714 -0.7839,2.3427 -1.1759 3.5141c 16.6905,5.5846 33.3810,11.1691 50.0715 16.7537c 0.3920,-1.1714 0.7839,-2.3428 1.1759 -3.5141c 0.9711,0.3249 1.9421,0.6498 2.9132 0.9747c 1.3992,-4.1817 2.7983,-8.3634 4.1975 -12.5451c -0.9711,-0.3249 -1.9422,-0.6498 -2.9133 -0.9747c 2.0024,-5.9843 4.0047,-11.9687 6.0070 -17.9530c 0.9711,0.3250 1.9421,0.6499 2.9132 0.9748c 1.3992,-4.1817 2.7984,-8.3634 4.1975 -12.5451c -0.9711,-0.3249 -1.9422,-0.6499 -2.9132 -0.9748c 0.3920,-1.1714 0.7838,-2.3428 1.1758 -3.5141c -16.6905,-5.5846 -33.3810,-11.1691 -50.0715 -16.7537c -0.3919,1.1713 -0.7838,2.3427 -1.1758 3.5141c -0.9711,-0.3249 -1.9422,-0.6498 -2.9132 -0.9748c -1.3992,4.1817 -2.7984,8.3634 -4.1975 12.5451c 0.9711,0.3249 1.9422,0.6498 2.9132 0.9747c -2.0023,5.9844 -4.0046,11.9687 -6.0070 17.9530c -0.9711,-0.3249 -1.9422,-0.6498 -2.9133 -0.9747c -1.3992,4.1817 -2.7983,8.3634 -4.1975 12.5451ZM 461.1341,764.9706 c 0.9711,0.3249 1.9422,0.6499 2.9132 0.9747c -0.3920,1.1714 -0.7838,2.3428 -1.1758 3.5142c 16.6905,5.5846 33.3810,11.1691 50.0715 16.7537c 0.3919,-1.1714 0.7838,-2.3428 1.1758 -3.5142c 0.9711,0.3249 1.9421,0.6499 2.9132 0.9748c 1.3992,-4.1817 2.7984,-8.3634 4.1975 -12.5451c -0.9711,-0.3249 -1.9422,-0.6499 -2.9132 -0.9748c 2.0023,-5.9844 4.0046,-11.9687 6.0070 -17.9530c 0.9711,0.3249 1.9422,0.6499 2.9133 0.9747c 1.3992,-4.1817 2.7983,-8.3634 4.1975 -12.5451c -0.9710,-0.3249 -1.9421,-0.6499 -2.9132 -0.9748c 0.3920,-1.1714 0.7839,-2.3428 1.1759 -3.5142c -16.6905,-5.5846 -33.3810,-11.1692 -50.0715 -16.7537c -0.3920,1.1714 -0.7839,2.3428 -1.1759 3.5142c -0.9711,-0.3249 -1.9421,-0.6499 -2.9132 -0.9748c -1.3992,4.1817 -2.7983,8.3634 -4.1975 12.5451c 0.9711,0.3249 1.9422,0.6499 2.9133 0.9748c -2.0024,5.9843 -4.0047,11.9686 -6.0070 17.9530c -0.9711,-0.3249 -1.9421,-0.6499 -2.9132 -0.9748c -1.3992,4.1817 -2.7984,8.3634 -4.1975 12.5451ZM 472.2692,958.0068 c 0.9711,0.3249 1.9422,0.6499 2.9132 0.9747c -0.3919,1.1714 -0.7838,2.3428 -1.1758 3.5142c 16.6905,5.5846 33.3810,11.1691 50.0715 16.7537c 0.3919,-1.1714 0.7839,-2.3428 1.1758 -3.5142c 0.9711,0.3249 1.9422,0.6499 2.9133 0.9748c 1.3992,-4.1817 2.7984,-8.3634 4.1975 -12.5451c -0.9711,-0.3249 -1.9422,-0.6499 -2.9132 -0.9747c 2.0023,-5.9844 4.0046,-11.9687 6.0070 -17.9530c 0.9711,0.3249 1.9421,0.6498 2.9132 0.9748c 1.3992,-4.1817 2.7983,-8.3634 4.1975 -12.5451c -0.9711,-0.3249 -1.9421,-0.6498 -2.9132 -0.9747c 0.3920,-1.1714 0.7839,-2.3428 1.1758 -3.5142c -16.6905,-5.5845 -33.3810,-11.1691 -50.0715 -16.7537c -0.3920,1.1714 -0.7839,2.3428 -1.1758 3.5142c -0.9711,-0.3249 -1.9422,-0.6499 -2.9133 -0.9748c -1.3992,4.1817 -2.7983,8.3634 -4.1975 12.5451c 0.9710,0.3249 1.9421,0.6499 2.9132 0.9748c -2.0023,5.9843 -4.0047,11.9686 -6.0070 17.9530c -0.9711,-0.3249 -1.9421,-0.6499 -2.9132 -0.9748c -1.3992,4.1817 -2.7984,8.3634 -4.1975 12.5451ZM 478.9640,1071.8330 c 0.0000,3.1310 2.5382,5.6693 5.6693 5.6693c 3.1310,-0.0000 5.6693,-2.5382 5.6693 -5.6693c 0.0000,-3.1311 -2.5382,-5.6693 -5.6693 -5.6693c -3.1311,-0.0000 -5.6693,2.5382 -5.6693 5.6693ZM 537.4110,845.7859 c 0.0000,36.5291 29.6127,66.1417 66.1417 66.1417c 36.5291,-0.0000 66.1417,-29.6126 66.1417 -66.1417c 0.0000,-36.5291 -29.6127,-66.1417 -66.1417 -66.1417c -36.5291,-0.0000 -66.1417,29.6127 -66.1417 66.1417ZM 541.1905,653.1763 c 0.0000,3.1311 2.5382,5.6693 5.6693 5.6693c 3.1311,-0.0000 5.6693,-2.5382 5.6693 -5.6693c 0.0000,-3.1310 -2.5382,-5.6693 -5.6693 -5.6693c -3.1310,-0.0000 -5.6693,2.5382 -5.6693 5.6693ZM 654.5764,653.1763 c 0.0000,3.1311 2.5382,5.6693 5.6693 5.6693c 3.1310,-0.0000 5.6693,-2.5382 5.6693 -5.6693c 0.0000,-3.1310 -2.5382,-5.6693 -5.6693 -5.6693c -3.1311,-0.0000 -5.6693,2.5382 -5.6693 5.6693ZM 664.5362,933.6668 c 1.3992,4.1817 2.7983,8.3634 4.1975 12.5451c 0.9711,-0.3249 1.9422,-0.6499 2.9132 -0.9748c 2.0024,5.9843 4.0047,11.9687 6.0070 17.9530c -0.9710,0.3249 -1.9421,0.6498 -2.9132 0.9747c 1.3992,4.1817 2.7983,8.3634 4.1975 12.5451c 0.9711,-0.3249 1.9421,-0.6499 2.9133 -0.9748c 0.3919,1.1714 0.7839,2.3428 1.1758 3.5142c 16.6905,-5.5846 33.3810,-11.1691 50.0715 -16.7537c -0.3920,-1.1714 -0.7839,-2.3428 -1.1758 -3.5142c 0.9710,-0.3249 1.9421,-0.6498 2.9132 -0.9747c -1.3992,-4.1817 -2.7984,-8.3634 -4.1975 -12.5451c -0.9711,0.3249 -1.9421,0.6499 -2.9132 0.9748c -2.0023,-5.9844 -4.0047,-11.9687 -6.0070 -17.9530c 0.9711,-0.3249 1.9422,-0.6499 2.9132 -0.9748c -1.3992,-4.1817 -2.7983,-8.3634 -4.1975 -12.5451c -0.9711,0.3249 -1.9422,0.6498 -2.9133 0.9748c -0.3919,-1.1714 -0.7838,-2.3428 -1.1758 -3.5142c -16.6905,5.5845 -33.3810,11.1691 -50.0715 16.7537c 0.3920,1.1714 0.7839,2.3428 1.1758 3.5142c -0.9711,0.3249 -1.9422,0.6498 -2.9132 0.9747ZM 675.6714,740.6306 c 1.3991,4.1817 2.7983,8.3634 4.1975 12.5451c 0.9711,-0.3249 1.9422,-0.6499 2.9133 -0.9747c 2.0023,5.9843 4.0046,11.9686 6.0070 17.9530c -0.9711,0.3249 -1.9421,0.6499 -2.9132 0.9748c 1.3991,4.1817 2.7984,8.3634 4.1975 12.5451c 0.9711,-0.3249 1.9421,-0.6499 2.9132 -0.9748c 0.3920,1.1714 0.7839,2.3428 1.1758 3.5142c 16.6905,-5.5846 33.3810,-11.1691 50.0715 -16.7537c -0.3920,-1.1714 -0.7838,-2.3428 -1.1758 -3.5142c 0.9711,-0.3249 1.9421,-0.6498 2.9132 -0.9747c -1.3992,-4.1817 -2.7984,-8.3634 -4.1975 -12.5451c -0.9711,0.3249 -1.9421,0.6499 -2.9132 0.9748c -2.0023,-5.9844 -4.0046,-11.9687 -6.0070 -17.9530c 0.9711,-0.3249 1.9422,-0.6499 2.9133 -0.9748c -1.3992,-4.1817 -2.7984,-8.3634 -4.1975 -12.5451c -0.9711,0.3249 -1.9422,0.6498 -2.9132 0.9748c -0.3920,-1.1714 -0.7839,-2.3428 -1.1759 -3.5142c -16.6905,5.5845 -33.3810,11.1691 -50.0715 16.7537c 0.3920,1.1714 0.7839,2.3428 1.1759 3.5142c -0.9711,0.3249 -1.9422,0.6498 -2.9132 0.9748ZM 687.3222,1001.7669 c 1.3991,4.1817 2.7984,8.3634 4.1975 12.5451c 0.9711,-0.3249 1.9421,-0.6498 2.9132 -0.9748c 2.0023,5.9844 4.0046,11.9687 6.0070 17.9530c -0.9711,0.3249 -1.9422,0.6499 -2.9133 0.9747c 1.3992,4.1817 2.7984,8.3634 4.1975 12.5451c 0.9711,-0.3249 1.9422,-0.6499 2.9132 -0.9747c 0.3920,1.1713 0.7839,2.3427 1.1759 3.5141c 16.6905,-5.5846 33.3810,-11.1691 50.0715 -16.7537c -0.3920,-1.1714 -0.7839,-2.3427 -1.1759 -3.5141c 0.9711,-0.3250 1.9422,-0.6499 2.9132 -0.9748c -1.3992,-4.1817 -2.7983,-8.3634 -4.1975 -12.5451c -0.9711,0.3249 -1.9422,0.6498 -2.9133 0.9747c -2.0023,-5.9843 -4.0046,-11.9687 -6.0070 -17.9530c 0.9711,-0.3249 1.9421,-0.6498 2.9132 -0.9747c -1.3992,-4.1817 -2.7984,-8.3634 -4.1975 -12.5451c -0.9710,0.3249 -1.9421,0.6499 -2.9132 0.9748c -0.3920,-1.1714 -0.7839,-2.3428 -1.1758 -3.5141c -16.6905,5.5846 -33.3810,11.1691 -50.0715 16.7537c 0.3920,1.1713 0.7838,2.3427 1.1758 3.5141c -0.9711,0.3249 -1.9421,0.6499 -2.9132 0.9748ZM 698.4573,808.7307 c 1.3992,4.1817 2.7984,8.3634 4.1975 12.5451c 0.9711,-0.3249 1.9421,-0.6498 2.9132 -0.9747c 2.0023,5.9843 4.0047,11.9687 6.0070 17.9530c -0.9711,0.3249 -1.9422,0.6499 -2.9132 0.9747c 1.3991,4.1817 2.7983,8.3634 4.1975 12.5452c 0.9711,-0.3250 1.9422,-0.6499 2.9133 -0.9748c 0.3919,1.1714 0.7838,2.3427 1.1758 3.5141c 16.6905,-5.5846 33.3810,-11.1691 50.0715 -16.7537c -0.3920,-1.1714 -0.7839,-2.3427 -1.1759 -3.5141c 0.9711,-0.3249 1.9422,-0.6499 2.9133 -0.9748c -1.3992,-4.1817 -2.7983,-8.3634 -4.1975 -12.5451c -0.9711,0.3249 -1.9422,0.6498 -2.9132 0.9747c -2.0024,-5.9843 -4.0047,-11.9687 -6.0070 -17.9530c 0.9711,-0.3249 1.9421,-0.6499 2.9133 -0.9748c -1.3992,-4.1817 -2.7983,-8.3634 -4.1976 -12.5451c -0.9710,0.3250 -1.9421,0.6499 -2.9132 0.9748c -0.3920,-1.1714 -0.7839,-2.3427 -1.1758 -3.5141c -16.6905,5.5846 -33.3810,11.1691 -50.0715 16.7537c 0.3920,1.1713 0.7839,2.3427 1.1758 3.5141c -0.9711,0.3249 -1.9421,0.6499 -2.9132 0.9748ZM 716.8029,1071.8330 c 0.0000,3.1310 2.5382,5.6693 5.6693 5.6693c 3.1311,-0.0000 5.6693,-2.5382 5.6693 -5.6693c 0.0000,-3.1311 -2.5382,-5.6693 -5.6693 -5.6693c -3.1310,-0.0000 -5.6693,2.5382 -5.6693 5.6693ZM 721.2433,876.8308 c 1.3992,4.1817 2.7983,8.3634 4.1975 12.5451c 0.9711,-0.3249 1.9421,-0.6499 2.9132 -0.9748c 2.0023,5.9844 4.0046,11.9687 6.0070 17.9530c -0.9711,0.3249 -1.9421,0.6499 -2.9132 0.9748c 1.3992,4.1817 2.7984,8.3634 4.1975 12.5451c 0.9711,-0.3249 1.9421,-0.6498 2.9132 -0.9747c 0.3920,1.1714 0.7839,2.3428 1.1759 3.5142c 16.6905,-5.5846 33.3810,-11.1691 50.0715 -16.7537c -0.3920,-1.1714 -0.7839,-2.3428 -1.1758 -3.5142c 0.9711,-0.3249 1.9421,-0.6498 2.9133 -0.9748c -1.3992,-4.1817 -2.7983,-8.3634 -4.1976 -12.5451c -0.9710,0.3249 -1.9421,0.6499 -2.9132 0.9748c -2.0023,-5.9843 -4.0046,-11.9686 -6.0070 -17.9530c 0.9711,-0.3249 1.9422,-0.6499 2.9133 -0.9748c -1.3992,-4.1817 -2.7984,-8.3634 -4.1976 -12.5451c -0.9711,0.3249 -1.9422,0.6498 -2.9132 0.9748c -0.3920,-1.1714 -0.7839,-2.3428 -1.1758 -3.5142c -16.6905,5.5846 -33.3810,11.1691 -50.0715 16.7537c 0.3919,1.1714 0.7838,2.3428 1.1758 3.5142c -0.9711,0.3249 -1.9422,0.6498 -2.9132 0.9748ZM 737.7751,699.9235 c 1.3992,4.1817 2.7984,8.3634 4.1975 12.5451c 0.9711,-0.3249 1.9422,-0.6498 2.9132 -0.9747c 2.0024,5.9843 4.0047,11.9686 6.0070 17.9530c -0.9711,0.3249 -1.9421,0.6498 -2.9132 0.9747c 1.3992,4.1817 2.7983,8.3634 4.1975 12.5451c 0.9711,-0.3249 1.9421,-0.6499 2.9132 -0.9748c 0.3920,1.1714 0.7838,2.3427 1.1758 3.5141c 16.6905,-5.5845 33.3810,-11.1691 50.0715 -16.7537c -0.3920,-1.1713 -0.7839,-2.3427 -1.1758 -3.5141c 0.9711,-0.3249 1.9422,-0.6499 2.9133 -0.9748c -1.3992,-4.1817 -2.7984,-8.3634 -4.1975 -12.5451c -0.9711,0.3249 -1.9422,0.6498 -2.9132 0.9748c -2.0023,-5.9844 -4.0047,-11.9687 -6.0070 -17.9530c 0.9711,-0.3249 1.9422,-0.6499 2.9132 -0.9748c -1.3992,-4.1817 -2.7983,-8.3634 -4.1975 -12.5451c -0.9711,0.3249 -1.9422,0.6499 -2.9133 0.9748c -0.3919,-1.1714 -0.7838,-2.3427 -1.1758 -3.5141c -16.6905,5.5846 -33.3810,11.1691 -50.0715 16.7537c 0.3920,1.1714 0.7839,2.3427 1.1759 3.5141c -0.9711,0.3249 -1.9422,0.6499 -2.9133 0.9747ZM 744.0293,944.9308 c 1.3992,4.1817 2.7984,8.3634 4.1975 12.5451c 0.9711,-0.3249 1.9422,-0.6498 2.9133 -0.9747c 2.0024,5.9843 4.0047,11.9686 6.0070 17.9530c -0.9711,0.3249 -1.9422,0.6498 -2.9132 0.9747c 1.3992,4.1817 2.7983,8.3634 4.1975 12.5451c 0.9711,-0.3249 1.9421,-0.6499 2.9132 -0.9748c 0.3920,1.1714 0.7838,2.3427 1.1758 3.5141c 16.6905,-5.5846 33.3810,-11.1691 50.0715 -16.7537c -0.3920,-1.1713 -0.7839,-2.3427 -1.1759 -3.5141c 0.9711,-0.3249 1.9422,-0.6499 2.9133 -0.9747c -1.3992,-4.1817 -2.7984,-8.3634 -4.1976 -12.5451c -0.9711,0.3249 -1.9422,0.6498 -2.9132 0.9748c -2.0024,-5.9844 -4.0047,-11.9687 -6.0070 -17.9530c 0.9711,-0.3250 1.9422,-0.6499 2.9132 -0.9748c -1.3992,-4.1817 -2.7983,-8.3634 -4.1975 -12.5451c -0.9711,0.3249 -1.9421,0.6499 -2.9132 0.9747c -0.3920,-1.1714 -0.7838,-2.3427 -1.1758 -3.5141c -16.6905,5.5845 -33.3810,11.1691 -50.0715 16.7537c 0.3920,1.1714 0.7839,2.3427 1.1759 3.5141c -0.9711,0.3250 -1.9422,0.6499 -2.9133 0.9748ZM 760.5611,768.0236 c 1.3992,4.1817 2.7984,8.3634 4.1975 12.5451c 0.9711,-0.3249 1.9421,-0.6499 2.9132 -0.9747c 2.0023,5.9843 4.0046,11.9686 6.0070 17.9530c -0.9711,0.3249 -1.9422,0.6499 -2.9132 0.9748c 1.3992,4.1817 2.7983,8.3634 4.1975 12.5451c 0.9711,-0.3249 1.9422,-0.6498 2.9132 -0.9748c 0.3920,1.1714 0.7839,2.3428 1.1759 3.5142c 16.6905,-5.5846 33.3810,-11.1691 50.0715 -16.7537c -0.3919,-1.1714 -0.7838,-2.3428 -1.1758 -3.5142c 0.9711,-0.3249 1.9422,-0.6498 2.9132 -0.9747c -1.3992,-4.1817 -2.7983,-8.3634 -4.1975 -12.5451c -0.9711,0.3249 -1.9422,0.6499 -2.9133 0.9748c -2.0023,-5.9843 -4.0046,-11.9687 -6.0069 -17.9530c 0.9710,-0.3249 1.9421,-0.6498 2.9132 -0.9748c -1.3992,-4.1817 -2.7984,-8.3634 -4.1975 -12.5451c -0.9711,0.3249 -1.9421,0.6499 -2.9133 0.9748c -0.3919,-1.1714 -0.7839,-2.3428 -1.1758 -3.5142c -16.6905,5.5846 -33.3810,11.1691 -50.0715 16.7537c 0.3920,1.1714 0.7839,2.3428 1.1758 3.5142c -0.9710,0.3249 -1.9421,0.6498 -2.9132 0.9748ZM 783.3471,836.1237 c 1.3992,4.1817 2.7983,8.3634 4.1975 12.5451c 0.9711,-0.3249 1.9422,-0.6498 2.9133 -0.9747c 2.0023,5.9843 4.0046,11.9687 6.0070 17.9530c -0.9711,0.3249 -1.9421,0.6498 -2.9132 0.9747c 1.3992,4.1817 2.7984,8.3634 4.1975 12.5452c 0.9711,-0.3249 1.9421,-0.6499 2.9132 -0.9748c 0.3920,1.1714 0.7839,2.3428 1.1758 3.5141c 16.6905,-5.5846 33.3810,-11.1691 50.0715 -16.7537c -0.3920,-1.1713 -0.7839,-2.3427 -1.1758 -3.5141c 0.9710,-0.3249 1.9421,-0.6499 2.9132 -0.9748c -1.3992,-4.1817 -2.7984,-8.3634 -4.1975 -12.5451c -0.9711,0.3249 -1.9421,0.6498 -2.9132 0.9747c -2.0023,-5.9843 -4.0047,-11.9687 -6.0070 -17.9530c 0.9711,-0.3249 1.9422,-0.6499 2.9132 -0.9748c -1.3992,-4.1817 -2.7983,-8.3634 -4.1975 -12.5451c -0.9711,0.3250 -1.9422,0.6499 -2.9132 0.9748c -0.3920,-1.1713 -0.7839,-2.3427 -1.1759 -3.5141c -16.6905,5.5846 -33.3810,11.1691 -50.0715 16.7537c 0.3919,1.1714 0.7839,2.3427 1.1758 3.5141c -0.9711,0.3249 -1.9422,0.6499 -2.9132 0.9748ZM 798.6797,655.6323 c 1.3992,4.1817 2.7983,8.3634 4.1975 12.5451c 0.9710,-0.3249 1.9421,-0.6498 2.9132 -0.9748c 2.0023,5.9843 4.0046,11.9687 6.0070 17.9530c -0.9711,0.3249 -1.9422,0.6499 -2.9133 0.9748c 1.3992,4.1817 2.7984,8.3634 4.1975 12.5451c 0.9711,-0.3249 1.9422,-0.6499 2.9132 -0.9748c 0.3920,1.1714 0.7839,2.3427 1.1759 3.5141c 16.6905,-5.5846 33.3810,-11.1691 50.0714 -16.7537c -0.3919,-1.1713 -0.7838,-2.3427 -1.1758 -3.5141c 0.9711,-0.3249 1.9421,-0.6499 2.9132 -0.9748c -1.3991,-4.1817 -2.7983,-8.3634 -4.1975 -12.5451c -0.9710,0.3249 -1.9421,0.6498 -2.9132 0.9747c -2.0023,-5.9843 -4.0046,-11.9686 -6.0070 -17.9530c 0.9711,-0.3249 1.9421,-0.6498 2.9132 -0.9747c -1.3992,-4.1817 -2.7984,-8.3634 -4.1975 -12.5451c -0.9711,0.3249 -1.9421,0.6499 -2.9132 0.9747c -0.3920,-1.1714 -0.7839,-2.3428 -1.1759 -3.5141c -16.6905,5.5845 -33.3809,11.1691 -50.0714 16.7537c 0.3920,1.1713 0.7838,2.3427 1.1758 3.5141c -0.9711,0.3249 -1.9421,0.6499 -2.9132 0.9748ZM 806.1331,904.2238 c 1.3991,4.1817 2.7984,8.3634 4.1975 12.5451c 0.9711,-0.3249 1.9421,-0.6499 2.9132 -0.9748c 2.0023,5.9844 4.0047,11.9687 6.0070 17.9530c -0.9711,0.3249 -1.9422,0.6499 -2.9132 0.9748c 1.3992,4.1817 2.7983,8.3634 4.1975 12.5451c 0.9711,-0.3249 1.9422,-0.6498 2.9133 -0.9748c 0.3919,1.1714 0.7839,2.3428 1.1758 3.5142c 16.6905,-5.5846 33.3810,-11.1691 50.0715 -16.7537c -0.3920,-1.1714 -0.7839,-2.3428 -1.1759 -3.5141c 0.9711,-0.3249 1.9422,-0.6499 2.9132 -0.9747c -1.3992,-4.1817 -2.7983,-8.3634 -4.1975 -12.5451c -0.9711,0.3249 -1.9422,0.6499 -2.9133 0.9747c -2.0023,-5.9843 -4.0046,-11.9686 -6.0070 -17.9530c 0.9711,-0.3249 1.9421,-0.6498 2.9132 -0.9748c -1.3992,-4.1816 -2.7983,-8.3634 -4.1975 -12.5451c -0.9711,0.3249 -1.9421,0.6499 -2.9132 0.9748c -0.3920,-1.1714 -0.7839,-2.3428 -1.1758 -3.5142c -16.6905,5.5846 -33.3810,11.1691 -50.0715 16.7537c 0.3919,1.1714 0.7839,2.3428 1.1758 3.5142c -0.9711,0.3249 -1.9421,0.6498 -2.9132 0.9748ZM 821.4657,723.7324 c 1.3992,4.1816 2.7983,8.3634 4.1975 12.5451c 0.9711,-0.3249 1.9422,-0.6499 2.9132 -0.9748c 2.0024,5.9844 4.0047,11.9687 6.0070 17.9530c -0.9711,0.3249 -1.9421,0.6499 -2.9132 0.9748c 1.3992,4.1817 2.7983,8.3634 4.1975 12.5451c 0.9710,-0.3249 1.9421,-0.6499 2.9132 -0.9748c 0.3920,1.1714 0.7838,2.3428 1.1758 3.5142c 16.6905,-5.5846 33.3810,-11.1692 50.0715 -16.7537c -0.3920,-1.1714 -0.7839,-2.3428 -1.1758 -3.5142c 0.9711,-0.3249 1.9421,-0.6498 2.9132 -0.9748c -1.3992,-4.1816 -2.7984,-8.3634 -4.1975 -12.5451c -0.9711,0.3249 -1.9421,0.6499 -2.9132 0.9748c -2.0023,-5.9844 -4.0047,-11.9687 -6.0070 -17.9530c 0.9711,-0.3249 1.9422,-0.6499 2.9132 -0.9747c -1.3992,-4.1817 -2.7983,-8.3634 -4.1975 -12.5451c -0.9711,0.3249 -1.9422,0.6498 -2.9133 0.9748c -0.3919,-1.1714 -0.7838,-2.3428 -1.1758 -3.5142c -16.6905,5.5846 -33.3810,11.1692 -50.0715 16.7537c 0.3920,1.1714 0.7839,2.3428 1.1759 3.5142c -0.9711,0.3249 -1.9422,0.6498 -2.9132 0.9748ZM 844.2516,791.8324 c 1.3992,4.1817 2.7984,8.3634 4.1975 12.5451c 0.9711,-0.3249 1.9421,-0.6498 2.9132 -0.9748c 2.0023,5.9844 4.0046,11.9687 6.0070 17.9530c -0.9711,0.3250 -1.9422,0.6499 -2.9133 0.9748c 1.3992,4.1817 2.7984,8.3634 4.1975 12.5451c 0.9711,-0.3249 1.9422,-0.6499 2.9132 -0.9747c 0.3920,1.1714 0.7839,2.3427 1.1759 3.5141c 16.6905,-5.5845 33.3810,-11.1691 50.0715 -16.7537c -0.3920,-1.1713 -0.7839,-2.3427 -1.1758 -3.5141c 0.9711,-0.3249 1.9422,-0.6499 2.9132 -0.9748c -1.3992,-4.1817 -2.7983,-8.3634 -4.1975 -12.5451c -0.9711,0.3249 -1.9422,0.6498 -2.9133 0.9748c -2.0023,-5.9843 -4.0046,-11.9687 -6.0069 -17.9530c 0.9710,-0.3249 1.9421,-0.6499 2.9132 -0.9748c -1.3992,-4.1817 -2.7984,-8.3634 -4.1975 -12.5451c -0.9711,0.3249 -1.9421,0.6499 -2.9133 0.9748c -0.3919,-1.1714 -0.7839,-2.3427 -1.1758 -3.5141c -16.6905,5.5846 -33.3810,11.1691 -50.0715 16.7537c 0.3920,1.1713 0.7838,2.3427 1.1758 3.5141c -0.9710,0.3249 -1.9421,0.6499 -2.9132 0.9747ZM 867.0376,859.9326 c 1.3992,4.1817 2.7983,8.3634 4.1975 12.5451c 0.9711,-0.3249 1.9422,-0.6499 2.9133 -0.9748c 2.0023,5.9843 4.0046,11.9686 6.0070 17.9530c -0.9710,0.3249 -1.9421,0.6499 -2.9132 0.9748c 1.3992,4.1817 2.7984,8.3634 4.1975 12.5451c 0.9711,-0.3249 1.9421,-0.6498 2.9132 -0.9748c 0.3920,1.1714 0.7839,2.3428 1.1758 3.5142c 16.6905,-5.5846 33.3810,-11.1691 50.0715 -16.7537c -0.3920,-1.1714 -0.7839,-2.3428 -1.1758 -3.5142c 0.9710,-0.3249 1.9421,-0.6498 2.9132 -0.9748c -1.3992,-4.1817 -2.7984,-8.3634 -4.1975 -12.5451c -0.9711,0.3249 -1.9421,0.6499 -2.9133 0.9748c -2.0023,-5.9844 -4.0047,-11.9687 -6.0070 -17.9530c 0.9711,-0.3249 1.9422,-0.6499 2.9132 -0.9748c -1.3992,-4.1817 -2.7983,-8.3634 -4.1975 -12.5451c -0.9711,0.3249 -1.9422,0.6498 -2.9133 0.9747c -0.3919,-1.1714 -0.7838,-2.3428 -1.1758 -3.5142c -16.6905,5.5846 -33.3810,11.1691 -50.0715 16.7537c 0.3919,1.1714 0.7838,2.3428 1.1758 3.5142c -0.9711,0.3249 -1.9422,0.6498 -2.9132 0.9748ZM 872.7761,650.7674 c 1.3992,4.1817 2.7984,8.3634 4.1975 12.5451c 0.9711,-0.3250 1.9422,-0.6499 2.9132 -0.9748c 2.0023,5.9843 4.0047,11.9686 6.0070 17.9530c -0.9711,0.3249 -1.9422,0.6498 -2.9132 0.9747c 1.3991,4.1817 2.7983,8.3634 4.1975 12.5451c 0.9711,-0.3249 1.9422,-0.6499 2.9133 -0.9747c 0.3919,1.1714 0.7838,2.3428 1.1758 3.5141c 16.6905,-5.5845 33.3810,-11.1691 50.0715 -16.7536c -0.3920,-1.1714 -0.7839,-2.3428 -1.1759 -3.5142c 0.9711,-0.3249 1.9422,-0.6499 2.9133 -0.9748c -1.3992,-4.1817 -2.7983,-8.3634 -4.1975 -12.5451c -0.9711,0.3249 -1.9422,0.6498 -2.9133 0.9748c -2.0023,-5.9843 -4.0046,-11.9687 -6.0070 -17.9530c 0.9711,-0.3249 1.9421,-0.6499 2.9133 -0.9748c -1.3992,-4.1817 -2.7984,-8.3634 -4.1976 -12.5451c -0.9710,0.3249 -1.9421,0.6498 -2.9132 0.9747c -0.3920,-1.1713 -0.7838,-2.3427 -1.1758 -3.5141c -16.6905,5.5846 -33.3810,11.1691 -50.0715 16.7537c 0.3920,1.1714 0.7839,2.3427 1.1758 3.5141c -0.9711,0.3249 -1.9421,0.6499 -2.9132 0.9748ZM 895.5621,718.8675 c 1.3992,4.1817 2.7983,8.3634 4.1975 12.5451c 0.9711,-0.3249 1.9421,-0.6498 2.9132 -0.9748c 2.0023,5.9843 4.0046,11.9687 6.0070 17.9530c -0.9711,0.3249 -1.9421,0.6499 -2.9132 0.9748c 1.3992,4.1817 2.7984,8.3634 4.1975 12.5451c 0.9711,-0.3249 1.9421,-0.6498 2.9132 -0.9748c 0.3920,1.1714 0.7839,2.3428 1.1759 3.5142c 16.6905,-5.5846 33.3810,-11.1691 50.0714 -16.7537c -0.3919,-1.1714 -0.7838,-2.3428 -1.1758 -3.5141c 0.9711,-0.3249 1.9421,-0.6499 2.9133 -0.9748c -1.3992,-4.1817 -2.7984,-8.3634 -4.1976 -12.5451c -0.9710,0.3250 -1.9421,0.6499 -2.9132 0.9748c -2.0023,-5.9843 -4.0046,-11.9686 -6.0070 -17.9530c 0.9711,-0.3249 1.9422,-0.6498 2.9133 -0.9748c -1.3992,-4.1817 -2.7984,-8.3634 -4.1976 -12.5451c -0.9711,0.3249 -1.9422,0.6499 -2.9132 0.9747c -0.3920,-1.1714 -0.7839,-2.3428 -1.1758 -3.5142c -16.6905,5.5846 -33.3810,11.1691 -50.0715 16.7537c 0.3919,1.1714 0.7838,2.3428 1.1758 3.5142c -0.9711,0.3249 -1.9421,0.6499 -2.9132 0.9748ZM 918.3480,786.9675 c 1.3992,4.1817 2.7984,8.3634 4.1975 12.5451c 0.9711,-0.3249 1.9422,-0.6499 2.9133 -0.9748c 2.0023,5.9843 4.0047,11.9687 6.0070 17.9530c -0.9711,0.3249 -1.9422,0.6498 -2.9132 0.9748c 1.3992,4.1817 2.7983,8.3634 4.1975 12.5451c 0.9711,-0.3249 1.9421,-0.6499 2.9132 -0.9748c 0.3919,1.1714 0.7838,2.3428 1.1758 3.5142c 16.6905,-5.5846 33.3810,-11.1692 50.0715 -16.7537c -0.3920,-1.1714 -0.7839,-2.3428 -1.1759 -3.5142c 0.9711,-0.3249 1.9422,-0.6499 2.9133 -0.9748c -1.3992,-4.1817 -2.7984,-8.3634 -4.1976 -12.5451c -0.9711,0.3249 -1.9422,0.6499 -2.9132 0.9748c -2.0024,-5.9844 -4.0047,-11.9687 -6.0070 -17.9530c 0.9711,-0.3249 1.9421,-0.6499 2.9132 -0.9747c -1.3992,-4.1817 -2.7983,-8.3634 -4.1975 -12.5451c -0.9711,0.3249 -1.9421,0.6498 -2.9132 0.9747c -0.3920,-1.1713 -0.7838,-2.3427 -1.1758 -3.5141c -16.6905,5.5846 -33.3810,11.1692 -50.0715 16.7537c 0.3920,1.1714 0.7839,2.3428 1.1759 3.5141c -0.9711,0.3249 -1.9422,0.6499 -2.9133 0.9748ZM 941.1340,855.0676 c 1.3992,4.1817 2.7983,8.3634 4.1975 12.5451c 0.9711,-0.3249 1.9421,-0.6498 2.9133 -0.9748c 2.0023,5.9844 4.0046,11.9687 6.0069 17.9530c -0.9710,0.3250 -1.9421,0.6499 -2.9132 0.9748c 1.3992,4.1817 2.7984,8.3634 4.1975 12.5451c 0.9711,-0.3249 1.9422,-0.6498 2.9133 -0.9748c 0.3919,1.1714 0.7839,2.3428 1.1758 3.5142c 16.6905,-5.5845 33.3810,-11.1691 50.0715 -16.7537c -0.3920,-1.1714 -0.7838,-2.3428 -1.1758 -3.5141c 0.9711,-0.3250 1.9421,-0.6499 2.9132 -0.9748c -1.3992,-4.1817 -2.7983,-8.3634 -4.1975 -12.5451c -0.9711,0.3249 -1.9421,0.6499 -2.9132 0.9747c -2.0023,-5.9843 -4.0046,-11.9686 -6.0070 -17.9530c 0.9710,-0.3249 1.9421,-0.6498 2.9132 -0.9747c -1.3992,-4.1817 -2.7984,-8.3634 -4.1975 -12.5451c -0.9711,0.3249 -1.9422,0.6499 -2.9132 0.9748c -0.3920,-1.1714 -0.7839,-2.3428 -1.1759 -3.5141c -16.6905,5.5846 -33.3810,11.1691 -50.0715 16.7536c 0.3920,1.1714 0.7839,2.3428 1.1758 3.5142c -0.9711,0.3249 -1.9421,0.6499 -2.9132 0.9747ZM 944.4740,638.7341 c 1.3992,4.1817 2.7983,8.3634 4.1975 12.5451c 0.9711,-0.3249 1.9421,-0.6498 2.9132 -0.9747c 2.0023,5.9843 4.0046,11.9687 6.0070 17.9530c -0.9711,0.3249 -1.9421,0.6499 -2.9132 0.9747c 1.3992,4.1817 2.7984,8.3634 4.1975 12.5452c 0.9711,-0.3250 1.9421,-0.6499 2.9132 -0.9748c 0.3920,1.1714 0.7839,2.3427 1.1759 3.5141c 16.6905,-5.5846 33.3810,-11.1691 50.0714 -16.7537c -0.3919,-1.1714 -0.7838,-2.3427 -1.1758 -3.5141c 0.9711,-0.3249 1.9421,-0.6499 2.9133 -0.9748c -1.3992,-4.1817 -2.7983,-8.3634 -4.1976 -12.5451c -0.9710,0.3249 -1.9421,0.6498 -2.9132 0.9747c -2.0023,-5.9843 -4.0046,-11.9687 -6.0070 -17.9530c 0.9711,-0.3249 1.9422,-0.6498 2.9133 -0.9747c -1.3992,-4.1817 -2.7984,-8.3634 -4.1976 -12.5452c -0.9711,0.3250 -1.9422,0.6499 -2.9132 0.9748c -0.3920,-1.1714 -0.7839,-2.3428 -1.1758 -3.5141c -16.6905,5.5846 -33.3810,11.1691 -50.0715 16.7537c 0.3919,1.1714 0.7838,2.3428 1.1758 3.5142c -0.9711,0.3249 -1.9421,0.6499 -2.9132 0.9748ZM 967.2599,706.8341 c 1.3992,4.1817 2.7984,8.3634 4.1975 12.5451c 0.9711,-0.3249 1.9422,-0.6499 2.9133 -0.9748c 2.0023,5.9844 4.0047,11.9687 6.0070 17.9530c -0.9711,0.3249 -1.9422,0.6499 -2.9132 0.9748c 1.3992,4.1817 2.7983,8.3634 4.1975 12.5451c 0.9711,-0.3249 1.9421,-0.6498 2.9132 -0.9748c 0.3919,1.1714 0.7838,2.3428 1.1758 3.5142c 16.6905,-5.5846 33.3810,-11.1691 50.0715 -16.7537c -0.3919,-1.1714 -0.7839,-2.3428 -1.1758 -3.5142c 0.9711,-0.3249 1.9422,-0.6498 2.9133 -0.9748c -1.3992,-4.1817 -2.7984,-8.3634 -4.1976 -12.5451c -0.9711,0.3249 -1.9422,0.6499 -2.9132 0.9747c -2.0024,-5.9843 -4.0047,-11.9686 -6.0070 -17.9530c 0.9711,-0.3249 1.9421,-0.6499 2.9132 -0.9748c -1.3992,-4.1817 -2.7983,-8.3634 -4.1975 -12.5451c -0.9711,0.3249 -1.9421,0.6498 -2.9132 0.9748c -0.3920,-1.1714 -0.7839,-2.3428 -1.1758 -3.5142c -16.6905,5.5846 -33.3810,11.1691 -50.0715 16.7537c 0.3920,1.1714 0.7839,2.3428 1.1759 3.5142c -0.9711,0.3249 -1.9422,0.6498 -2.9133 0.9747ZM 971.1104,984.1368 c 1.0717,2.2804 2.1434,4.5609 3.2151 6.8413c 17.1031,-8.0378 34.2061,-16.0755 51.3092 -24.1133c -1.0717,-2.2804 -2.1434,-4.5608 -3.2151 -6.8412c -17.1031,8.0378 -34.2062,16.0755 -51.3092 24.1132ZM 990.0459,774.9342 c 1.3992,4.1817 2.7983,8.3634 4.1975 12.5451c 0.9711,-0.3249 1.9421,-0.6498 2.9133 -0.9748c 2.0023,5.9844 4.0046,11.9687 6.0070 17.9530c -0.9711,0.3249 -1.9422,0.6499 -2.9133 0.9748c 1.3992,4.1817 2.7984,8.3634 4.1975 12.5451c 0.9711,-0.3249 1.9422,-0.6499 2.9133 -0.9748c 0.3919,1.1714 0.7839,2.3427 1.1758 3.5141c 16.6905,-5.5846 33.3810,-11.1691 50.0715 -16.7537c -0.3919,-1.1713 -0.7838,-2.3427 -1.1758 -3.5141c 0.9711,-0.3249 1.9421,-0.6499 2.9132 -0.9747c -1.3992,-4.1817 -2.7983,-8.3634 -4.1975 -12.5451c -0.9711,0.3249 -1.9421,0.6498 -2.9132 0.9748c -2.0023,-5.9844 -4.0046,-11.9687 -6.0070 -17.9530c 0.9710,-0.3250 1.9421,-0.6499 2.9132 -0.9748c -1.3992,-4.1817 -2.7984,-8.3634 -4.1975 -12.5451c -0.9711,0.3249 -1.9422,0.6499 -2.9132 0.9748c -0.3920,-1.1714 -0.7839,-2.3427 -1.1759 -3.5141c -16.6905,5.5845 -33.3810,11.1691 -50.0715 16.7537c 0.3920,1.1713 0.7839,2.3427 1.1758 3.5141c -0.9711,0.3249 -1.9421,0.6499 -2.9132 0.9748ZM 1012.8319,843.0344 c 1.3992,4.1816 2.7984,8.3634 4.1975 12.5451c 0.9711,-0.3249 1.9422,-0.6499 2.9132 -0.9748c 2.0024,5.9844 4.0047,11.9687 6.0070 17.9530c -0.9711,0.3249 -1.9421,0.6499 -2.9132 0.9747c 1.3992,4.1817 2.7983,8.3634 4.1975 12.5451c 0.9711,-0.3249 1.9421,-0.6498 2.9133 -0.9748c 0.3919,1.1714 0.7838,2.3428 1.1758 3.5142c 16.6905,-5.5846 33.3810,-11.1691 50.0715 -16.7537c -0.3920,-1.1714 -0.7839,-2.3428 -1.1759 -3.5142c 0.9711,-0.3249 1.9422,-0.6498 2.9133 -0.9748c -1.3992,-4.1816 -2.7984,-8.3634 -4.1975 -12.5451c -0.9711,0.3249 -1.9422,0.6499 -2.9132 0.9748c -2.0023,-5.9844 -4.0047,-11.9687 -6.0070 -17.9530c 0.9711,-0.3249 1.9422,-0.6499 2.9132 -0.9748c -1.3992,-4.1817 -2.7983,-8.3634 -4.1975 -12.5451c -0.9711,0.3249 -1.9422,0.6499 -2.9133 0.9748c -0.3919,-1.1714 -0.7838,-2.3428 -1.1758 -3.5142c -16.6905,5.5846 -33.3810,11.1691 -50.0715 16.7537c 0.3920,1.1714 0.7839,2.3428 1.1758 3.5142c -0.9711,0.3249 -1.9422,0.6498 -2.9133 0.9748ZM 1013.7733,619.5323 c 1.3992,4.1817 2.7983,8.3634 4.1975 12.5451c 0.9711,-0.3249 1.9422,-0.6498 2.9133 -0.9747c 2.0023,5.9843 4.0046,11.9686 6.0070 17.9530c -0.9711,0.3249 -1.9421,0.6498 -2.9132 0.9747c 1.3992,4.1817 2.7984,8.3634 4.1975 12.5451c 0.9711,-0.3249 1.9421,-0.6499 2.9132 -0.9748c 0.3920,1.1714 0.7839,2.3428 1.1758 3.5141c 16.6905,-5.5846 33.3810,-11.1691 50.0715 -16.7536c -0.3920,-1.1714 -0.7839,-2.3428 -1.1758 -3.5142c 0.9710,-0.3249 1.9421,-0.6499 2.9132 -0.9747c -1.3992,-4.1817 -2.7984,-8.3634 -4.1975 -12.5451c -0.9711,0.3249 -1.9421,0.6498 -2.9133 0.9748c -2.0023,-5.9844 -4.0046,-11.9687 -6.0070 -17.9530c 0.9711,-0.3250 1.9422,-0.6499 2.9133 -0.9748c -1.3992,-4.1817 -2.7984,-8.3634 -4.1976 -12.5451c -0.9711,0.3249 -1.9422,0.6499 -2.9132 0.9748c -0.3920,-1.1713 -0.7839,-2.3427 -1.1758 -3.5141c -16.6905,5.5845 -33.3810,11.1691 -50.0715 16.7537c 0.3920,1.1714 0.7839,2.3427 1.1759 3.5141c -0.9711,0.3250 -1.9422,0.6499 -2.9132 0.9748ZM 1036.5593,687.6324 c 1.3992,4.1816 2.7984,8.3634 4.1976 12.5451c 0.9711,-0.3249 1.9421,-0.6499 2.9132 -0.9748c 2.0023,5.9844 4.0047,11.9687 6.0070 17.9530c -0.9711,0.3249 -1.9422,0.6499 -2.9132 0.9747c 1.3992,4.1817 2.7983,8.3634 4.1975 12.5451c 0.9711,-0.3249 1.9422,-0.6498 2.9133 -0.9748c 0.3919,1.1714 0.7838,2.3428 1.1758 3.5142c 16.6905,-5.5846 33.3810,-11.1691 50.0715 -16.7537c -0.3920,-1.1714 -0.7839,-2.3428 -1.1759 -3.5141c 0.9711,-0.3249 1.9422,-0.6499 2.9132 -0.9748c -1.3992,-4.1817 -2.7983,-8.3634 -4.1975 -12.5451c -0.9711,0.3249 -1.9422,0.6499 -2.9133 0.9748c -2.0024,-5.9843 -4.0047,-11.9687 -6.0070 -17.9530c 0.9711,-0.3249 1.9421,-0.6498 2.9132 -0.9748c -1.3992,-4.1817 -2.7983,-8.3634 -4.1975 -12.5451c -0.9711,0.3249 -1.9421,0.6499 -2.9132 0.9748c -0.3920,-1.1714 -0.7839,-2.3428 -1.1758 -3.5142c -16.6905,5.5846 -33.3810,11.1691 -50.0715 16.7537c 0.3920,1.1714 0.7839,2.3428 1.1758 3.5142c -0.9711,0.3249 -1.9421,0.6498 -2.9133 0.9748ZM 1059.3452,755.7325 c 1.3992,4.1817 2.7983,8.3634 4.1976 12.5451c 0.9710,-0.3250 1.9421,-0.6499 2.9132 -0.9748c 2.0023,5.9843 4.0046,11.9687 6.0070 17.9530c -0.9711,0.3249 -1.9421,0.6498 -2.9133 0.9748c 1.3992,4.1817 2.7984,8.3634 4.1976 12.5451c 0.9711,-0.3249 1.9421,-0.6499 2.9132 -0.9747c 0.3920,1.1714 0.7839,2.3428 1.1758 3.5141c 16.6905,-5.5846 33.3810,-11.1691 50.0715 -16.7537c -0.3920,-1.1714 -0.7838,-2.3428 -1.1758 -3.5142c 0.9711,-0.3249 1.9421,-0.6499 2.9132 -0.9748c -1.3992,-4.1817 -2.7983,-8.3634 -4.1975 -12.5451c -0.9711,0.3249 -1.9421,0.6498 -2.9132 0.9748c -2.0023,-5.9843 -4.0046,-11.9687 -6.0070 -17.9530c 0.9711,-0.3249 1.9422,-0.6499 2.9133 -0.9748c -1.3992,-4.1817 -2.7984,-8.3634 -4.1975 -12.5451c -0.9711,0.3249 -1.9422,0.6498 -2.9132 0.9748c -0.3920,-1.1714 -0.7839,-2.3428 -1.1759 -3.5142c -16.6905,5.5846 -33.3810,11.1691 -50.0715 16.7537c 0.3919,1.1714 0.7839,2.3428 1.1758 3.5141c -0.9711,0.3249 -1.9422,0.6499 -2.9133 0.9748ZM 1081.8179,577.5857 c 0.0000,3.1311 2.5382,5.6693 5.6693 5.6693c 3.1311,-0.0000 5.6693,-2.5382 5.6693 -5.6693c 0.0000,-3.1311 -2.5383,-5.6693 -5.6693 -5.6693c -3.1310,-0.0000 -5.6693,2.5382 -5.6693 5.6693ZM 1082.1312,823.8326 c 1.3992,4.1817 2.7984,8.3634 4.1975 12.5451c 0.9711,-0.3249 1.9422,-0.6499 2.9132 -0.9748c 2.0024,5.9843 4.0047,11.9686 6.0070 17.9530c -0.9711,0.3249 -1.9422,0.6499 -2.9133 0.9748c 1.3992,4.1817 2.7983,8.3634 4.1975 12.5451c 0.9711,-0.3249 1.9422,-0.6498 2.9133 -0.9747c 0.3920,1.1714 0.7838,2.3428 1.1758 3.5142c 16.6905,-5.5846 33.3810,-11.1691 50.0715 -16.7537c -0.3920,-1.1714 -0.7839,-2.3428 -1.1759 -3.5141c 0.9711,-0.3249 1.9422,-0.6499 2.9133 -0.9747c -1.3992,-4.1817 -2.7984,-8.3634 -4.1975 -12.5452c -0.9711,0.3250 -1.9422,0.6499 -2.9132 0.9748c -2.0024,-5.9843 -4.0047,-11.9686 -6.0070 -17.9530c 0.9711,-0.3249 1.9422,-0.6498 2.9132 -0.9748c -1.3991,-4.1817 -2.7983,-8.3634 -4.1975 -12.5451c -0.9710,0.3249 -1.9421,0.6499 -2.9132 0.9747c -0.3920,-1.1714 -0.7838,-2.3428 -1.1758 -3.5142c -16.6905,5.5846 -33.3810,11.1691 -50.0715 16.7537c 0.3920,1.1714 0.7839,2.3428 1.1759 3.5142c -0.9711,0.3249 -1.9422,0.6498 -2.9133 0.9748ZM 1177.3074,855.4146 c 0.0000,3.1310 2.5382,5.6693 5.6693 5.6693c 3.1311,-0.0000 5.6693,-2.5382 5.6693 -5.6693c 0.0000,-3.1311 -2.5382,-5.6693 -5.6693 -5.6693c -3.1310,-0.0000 -5.6693,2.5382 -5.6693 5.6693Z"/></g><g stroke-linejoin="miter" stroke-opacity="1.0" fill-opacity="0.5" stroke="rgb(0,0,0)" stroke-width="0.37795275590551186" fill="rgb(255,0,0)" stroke-linecap="butt" stroke-miterlimit="10.0"><path d="M 537.4110,292.3261 c 0.0000,-11.6868 3.0310,-22.6657 8.3499 -32.1934c 1.6723,-0.0584 3.3446,-0.1168 5.0168 -0.1752c -5.7886,9.4178 -9.1268,20.5033 -9.1268 32.3685c 0.0000,0.2227 0.0012,0.4452 0.0035 0.6674c -1.3769,1.0757 -2.7538,2.1515 -4.1306 3.2272c -0.0748,-1.2886 -0.1128,-2.5872 -0.1128 -3.8946ZM 537.8804,300.2465 c 1.3187,-1.0303 2.6374,-2.0606 3.9561 -3.0909c 0.9243,11.9774 5.2573,22.9996 12.0304 32.0979c -0.4812,1.6780 -0.9623,3.3561 -1.4435 5.0341c -7.8024,-9.4960 -13.0111,-21.2041 -14.5430 -34.0412ZM 545.9268,311.0499 c 9.6516,-7.0123 19.3031,-14.0246 28.9547 -21.0368c 2.4820,-0.8065 4.9641,-1.6129 7.4462 -2.4194c 1.6925,-0.5499 3.3850,-1.0998 5.0775 -1.6498c 0.0000,1.6297 0.0000,3.2594 0.0000 4.8890c 0.0000,2.6251 0.0000,5.2503 0.0000 7.8754c -0.5464,-0.1775 -1.0928,-0.3551 -1.6392 -0.5326c -0.5390,-1.6590 -1.0781,-3.3180 -1.6171 -4.9770c -4.5084,3.2756 -9.0169,6.5511 -13.5253 9.8267c 4.5345,-0.0000 9.0691,-0.0000 13.6036 -0.0000c 1.0593,0.3442 2.1186,0.6884 3.1779 1.0326c 0.0000,2.3306 0.0000,4.6613 0.0000 6.9919c -13.8261,-0.0000 -27.6522,-0.0000 -41.4784 -0.0000ZM 547.8375,256.6663 c 6.7611,-10.5418 16.4323,-19.0387 27.8796 -24.3569c 1.3860,0.9349 2.7720,1.8698 4.1580 2.8046c -10.8216,4.4836 -20.0955,11.9480 -26.7976 21.3693c -1.7467,0.0610 -3.4933,0.1220 -5.2400 0.1830ZM 555.0801,337.3281 c 0.4608,-1.6070 0.9216,-3.2140 1.3824 -4.8210c 7.4760,8.7531 17.3497,15.3967 28.6043 18.9137c 0.5972,1.6408 1.1944,3.2816 1.7916 4.9224c -12.3733,-3.2177 -23.3380,-9.9278 -31.7784 -19.0150ZM 567.9380,243.3066 c 9.6516,7.0123 19.3031,14.0246 28.9547 21.0368c 1.5340,2.1114 3.0680,4.2227 4.6020 6.3341c 1.0460,1.4397 2.0920,2.8794 3.1380 4.3192c -1.5499,0.5036 -3.0998,1.0072 -4.6497 1.5108c -2.4967,0.8112 -4.9933,1.6224 -7.4900 2.4336c 0.0000,-0.5745 0.0000,-1.1490 0.0000 -1.7235c 1.4112,-1.0253 2.8225,-2.0506 4.2337 -3.0760c -4.5084,-3.2756 -9.0168,-6.5511 -13.5253 -9.8267c 1.4013,4.3126 2.8025,8.6252 4.2038 12.9378c 0.0000,1.1138 0.0000,2.2276 0.0000 3.3415c -2.2166,0.7202 -4.4331,1.4404 -6.6497 2.1606c -4.2725,-13.1494 -8.5450,-26.2988 -12.8175 -39.4483ZM 579.4289,230.7217 c 7.4742,-2.9291 15.6112,-4.5373 24.1239 -4.5373c 4.3646,-0.0000 8.6304,0.4228 12.7588 1.2295c 0.5716,1.5705 1.1433,3.1411 1.7149 4.7116c -4.6431,-1.1123 -9.4896,-1.7013 -14.4737 -1.7013c -6.9169,-0.0000 -13.5688,1.1345 -19.7798 3.2275c -1.4480,-0.9767 -2.8960,-1.9534 -4.3441 -2.9301ZM 589.0790,352.5267 c 4.6431,1.1123 9.4896,1.7013 14.4737 1.7013c 6.9169,-0.0000 13.5688,-1.1345 19.7798 -3.2275c 1.4480,0.9767 2.8960,1.9534 4.3440 2.9301c -7.4742,2.9291 -15.6112,4.5373 -24.1239 4.5373c -4.3646,-0.0000 -8.6304,-0.4228 -12.7588 -1.2295c -0.5716,-1.5705 -1.1433,-3.1411 -1.7149 -4.7116ZM 592.4930,284.2908 c 2.3618,-0.7674 4.7236,-1.5348 7.0854 -2.3022c -2.3618,1.7159 -4.7236,3.4319 -7.0854 5.1478c 0.0000,-0.9485 0.0000,-1.8971 -0.0000 -2.8456ZM 592.4930,292.9115 c 0.9021,2.7764 1.8042,5.5529 2.7064 8.3293c -0.9021,-0.2931 -1.8042,-0.5862 -2.7064 -0.8794c 0.0000,-2.4833 0.0000,-4.9667 -0.0000 -7.4500ZM 592.4930,305.7111 c 1.5499,0.5036 3.0998,1.0072 4.6497 1.5108c 2.4967,0.8112 4.9933,1.6224 7.4900 2.4336c -0.3377,0.4648 -0.6754,0.9296 -1.0131 1.3944c -1.7444,-0.0000 -3.4887,-0.0000 -5.2331 -0.0000c 1.7221,5.3000 3.4441,10.5999 5.1662 15.8999c 1.4013,-4.3126 2.8025,-8.6252 4.2038 -12.9378c 0.6547,-0.9011 1.3094,-1.8022 1.9641 -2.7033c 2.2166,0.7202 4.4331,1.4404 6.6497 2.1606c -4.2725,13.1494 -8.5450,26.2989 -12.8175 39.4483c -3.6866,-11.3461 -7.3731,-22.6922 -11.0597 -34.0383c 0.0000,-2.6098 0.0000,-5.2196 0.0000 -7.8294c 0.0000,-1.7796 0.0000,-3.5592 -0.0000 -5.3388ZM 600.6918,303.0254 c 2.9193,-0.0000 5.8386,-0.0000 8.7580 -0.0000c -0.5575,0.7674 -1.1151,1.5348 -1.6726 2.3022c -2.3618,-0.7674 -4.7236,-1.5348 -7.0853 -2.3022ZM 605.0708,280.2040 c 0.9021,-0.2931 1.8042,-0.5862 2.7064 -0.8793c 1.4597,2.0091 2.9193,4.0181 4.3790 6.0272c -2.3618,-1.7159 -4.7236,-3.4319 -7.0853 -5.1478ZM 605.6108,267.6870 c 11.1856,-8.1268 22.3711,-16.2536 33.5567 -24.3804c -3.6866,11.3461 -7.3731,22.6922 -11.0597 34.0383c -1.5340,2.1114 -3.0680,4.2227 -4.6020 6.3341c -1.0460,1.4397 -2.0920,2.8794 -3.1381 4.3192c -0.9579,-1.3184 -1.9158,-2.6369 -2.8737 -3.9553c -1.5430,-2.1238 -3.0860,-4.2476 -4.6291 -6.3713c 0.5464,-0.1775 1.0928,-0.3551 1.6392 -0.5326c 1.4112,1.0253 2.8225,2.0506 4.2337 3.0760c 1.7221,-5.3000 3.4441,-10.5999 5.1662 -15.8999c -3.6685,2.6653 -7.3370,5.3307 -11.0056 7.9960c -1.0593,0.3442 -2.1186,0.6884 -3.1779 1.0326c -1.3699,-1.8855 -2.7398,-3.7710 -4.1097 -5.6566ZM 612.8443,298.3533 c 0.9021,-2.7764 1.8042,-5.5529 2.7064 -8.3293c 0.5575,0.7674 1.1151,1.5348 1.6726 2.3022c -1.4597,2.0090 -2.9193,4.0181 -4.3790 6.0272ZM 612.8650,306.9808 c 0.9579,-1.3184 1.9158,-2.6369 2.8737 -3.9553c 1.5430,-2.1238 3.0860,-4.2476 4.6291 -6.3713c 0.3377,0.4648 0.6754,0.9296 1.0131 1.3944c -0.5390,1.6590 -1.0781,3.3180 -1.6171 4.9770c 5.5727,-0.0000 11.1454,-0.0000 16.7181 -0.0000c -3.6685,-2.6653 -7.3370,-5.3307 -11.0056 -7.9960c -0.6547,-0.9011 -1.3094,-1.8022 -1.9641 -2.7033c 1.3699,-1.8855 2.7398,-3.7711 4.1097 -5.6566c 11.1856,8.1268 22.3711,16.2536 33.5567 24.3804c -11.9300,-0.0000 -23.8600,-0.0000 -35.7900 -0.0000c -2.4821,-0.8065 -4.9641,-1.6129 -7.4462 -2.4194c -1.6925,-0.5499 -3.3850,-1.0998 -5.0775 -1.6498ZM 620.2470,228.3092 c 12.3734,3.2177 23.3380,9.9278 31.7784 19.0150c -0.4608,1.6070 -0.9216,3.2140 -1.3824 4.8210c -7.4760,-8.7531 -17.3497,-15.3967 -28.6043 -18.9137c -0.5972,-1.6408 -1.1944,-3.2816 -1.7916 -4.9224ZM 627.2303,349.5382 c 10.8216,-4.4836 20.0955,-11.9480 26.7976 -21.3693c 1.7467,-0.0610 3.4933,-0.1220 5.2400 -0.1830c -6.7611,10.5418 -16.4323,19.0387 -27.8796 24.3569c -1.3860,-0.9349 -2.7720,-1.8698 -4.1580 -2.8046ZM 653.2386,255.3987 c 0.4812,-1.6780 0.9623,-3.3561 1.4435 -5.0341c 7.8024,9.4960 13.0111,21.2041 14.5430 34.0412c -1.3187,1.0303 -2.6374,2.0606 -3.9561 3.0909c -0.9243,-11.9774 -5.2573,-22.9996 -12.0304 -32.0979ZM 656.3278,324.6947 c 5.7886,-9.4178 9.1268,-20.5033 9.1268 -32.3685c 0.0000,-0.2227 -0.0012,-0.4452 -0.0035 -0.6674c 1.3769,-1.0757 2.7538,-2.1515 4.1306 -3.2272c 0.0748,1.2886 0.1128,2.5872 0.1128 3.8946c 0.0000,11.6868 -3.0310,22.6657 -8.3499 32.1934c -1.6723,0.0584 -3.3445,0.1168 -5.0168 0.1752ZM 3.9685,305.7334 c 0.0000,6.2119 3.5540,12.0917 9.4613 14.8453c 154.7613,72.1395 309.5227,144.2790 464.2840 216.4184c 2.1670,1.0100 4.5287,1.5335 6.9195 1.5335c 39.6398,-0.0000 79.2796,-0.0000 118.9194 0.0000c 39.6398,-0.0000 79.2796,-0.0000 118.9194 0.0000c 2.3908,-0.0000 4.7526,-0.5234 6.9195 -1.5335c 154.7614,-72.1395 309.5227,-144.2790 464.2840 -216.4184c 5.9073,-2.7536 9.4613,-8.6334 9.4613 -14.8453c 0.0000,-1.7263 -0.2744,-3.4783 -0.8492 -5.1960c -31.8298,-95.1293 -63.6596,-190.2586 -95.4894 -285.3878c -2.2347,-6.6788 -8.4889,-11.1811 -15.5316 -11.1811c -80.7333,-0.0000 -161.4666,-0.0000 -242.1998 0.0000c -3.6793,-0.0000 -7.2513,1.2388 -10.1405 3.5169c -64.7386,51.0441 -146.5341,81.5225 -235.3737 81.5225c -88.8396,-0.0000 -170.6351,-30.4783 -235.3737 -81.5225c -2.8892,-2.2780 -6.4613,-3.5169 -10.1405 -3.5169c -80.7332,-0.0000 -161.4665,-0.0000 -242.1998 0.0000c -7.0427,-0.0000 -13.2969,4.5023 -15.5316 11.1811c -31.8298,95.1292 -63.6596,190.2585 -95.4894 285.3878c -0.5747,1.7177 -0.8492,3.4696 -0.8492 5.1960ZM 18.4595,301.9548 c 0.0000,-3.1311 2.5382,-5.6693 5.6693 -5.6693c 3.1310,-0.0000 5.6693,2.5382 5.6693 5.6693c 0.0000,3.1310 -2.5382,5.6693 -5.6693 5.6693c -3.1311,-0.0000 -5.6693,-2.5382 -5.6693 -5.6693ZM 38.8786,306.0589 c 0.0000,-0.3976 0.0632,-0.8020 0.1963 -1.1998c 7.5948,-22.6984 15.1895,-45.3968 22.7843 -68.0951c 0.0006,-0.0016 0.0011,-0.0033 0.0017 -0.0050c 0.2879,-0.8602 0.5757,-1.7204 0.8635 -2.5806c 7.3071,-21.8387 14.6143,-43.6774 21.9214 -65.5161c 0.0004,-0.0011 0.0007,-0.0022 0.0011 -0.0033c 0.2878,-0.8602 0.5756,-1.7204 0.8635 -2.5806c 7.3075,-21.8398 14.6150,-43.6797 21.9225 -65.5195c 0.2879,-0.8602 0.5757,-1.7204 0.8635 -2.5806c 7.5953,-22.7000 15.1907,-45.4001 22.7860 -68.1001c 0.6623,-1.9795 2.8040,-3.0473 4.7835 -2.3850c 21.5053,7.1956 43.0106,14.3911 64.5159 21.5867c 0.6623,-1.9795 2.8040,-3.0473 4.7835 -2.3849c 21.5053,7.1956 43.0106,14.3911 64.5159 21.5867c 0.7995,-2.3895 1.5990,-4.7789 2.3985 -7.1684c 0.6623,-1.9795 2.8040,-3.0473 4.7835 -2.3850c 21.5053,7.1956 43.0106,14.3912 64.5159 21.5867c 1.5990,-4.7790 3.1980,-9.5579 4.7971 -14.3369c 0.6623,-1.9795 2.8040,-3.0473 4.7835 -2.3849c 23.5602,7.8832 47.1205,15.7663 70.6807 23.6494c 1.5817,0.5292 2.5813,2.0030 2.5813 3.5838c 0.0000,0.3976 -0.0632,0.8019 -0.1963 1.1998c -1.9988,5.9737 -3.9975,11.9474 -5.9963 17.9211c 21.5053,7.1956 43.0106,14.3911 64.5159 21.5867c 1.5817,0.5292 2.5813,2.0029 2.5813 3.5837c 0.0000,0.3976 -0.0632,0.8020 -0.1963 1.1998c -1.5990,4.7790 -3.1980,9.5579 -4.7970 14.3369c 21.5053,7.1956 43.0106,14.3911 64.5159 21.5867c 1.5817,0.5292 2.5813,2.0029 2.5813 3.5837c 0.0000,0.3976 -0.0632,0.8020 -0.1963 1.1998c -7.5953,22.7001 -15.1906,45.4001 -22.7860 68.1001c -0.2878,0.8602 -0.5756,1.7204 -0.8634 2.5806c -7.3075,21.8398 -14.6150,43.6797 -21.9225 65.5194c -0.2878,0.8602 -0.5757,1.7205 -0.8635 2.5806c -0.0006,0.0019 -0.0012,0.0037 -0.0018 0.0055c -3.1095,9.2932 -6.2189,18.5865 -9.3284 27.8797c 21.5053,7.1956 43.0106,14.3911 64.5159 21.5867c 1.5817,0.5292 2.5813,2.0029 2.5813 3.5837c 0.0000,0.3976 -0.0632,0.8020 -0.1963 1.1998c -7.5953,22.7001 -15.1906,45.4001 -22.7859 68.1001c -0.2879,0.8602 -0.5757,1.7204 -0.8635 2.5806c -7.5953,22.7000 -15.1907,45.4001 -22.7860 68.1001c -0.6623,1.9795 -2.8040,3.0473 -4.7835 2.3850c -23.5602,-7.8832 -47.1205,-15.7663 -70.6807 -23.6495c -1.5817,-0.5292 -2.5813,-2.0029 -2.5813 -3.5837c 0.0000,-0.3976 0.0632,-0.8020 0.1963 -1.1998c 3.3979,-10.1553 6.7958,-20.3105 10.1937 -30.4658c -21.5053,-7.1956 -43.0106,-14.3912 -64.5159 -21.5867c -1.5817,-0.5292 -2.5813,-2.0029 -2.5813 -3.5837c 0.0000,-0.3976 0.0632,-0.8019 0.1963 -1.1998c 1.5990,-4.7789 3.1980,-9.5579 4.7970 -14.3369c -21.5053,-7.1956 -43.0106,-14.3911 -64.5159 -21.5867c -1.5817,-0.5292 -2.5813,-2.0029 -2.5813 -3.5837c 0.0000,-0.3976 0.0632,-0.8020 0.1963 -1.1998c 1.9988,-5.9737 3.9975,-11.9474 5.9963 -17.9211c -19.4503,-6.5080 -38.9007,-13.0160 -58.3510 -19.5240c -1.5990,4.7790 -3.1980,9.5579 -4.7971 14.3369c -0.6623,1.9795 -2.8040,3.0473 -4.7835 2.3850c -21.5053,-7.1956 -43.0106,-14.3912 -64.5159 -21.5867c -0.7995,2.3895 -1.5990,4.7790 -2.3985 7.1685c -0.6623,1.9795 -2.8040,3.0473 -4.7835 2.3849c -21.5053,-7.1956 -43.0106,-14.3911 -64.5159 -21.5867c -0.6623,1.9795 -2.8040,3.0473 -4.7835 2.3849c -23.5602,-7.8831 -47.1205,-15.7663 -70.6807 -23.6494c -1.5817,-0.5292 -2.5813,-2.0029 -2.5813 -3.5837ZM 113.9489,24.1260 c 0.0000,-3.1311 2.5382,-5.6693 5.6693 -5.6693c 3.1310,-0.0000 5.6693,2.5382 5.6693 5.6693c 0.0000,3.1311 -2.5382,5.6693 -5.6693 5.6693c -3.1311,-0.0000 -5.6693,-2.5382 -5.6693 -5.6693ZM 478.9640,518.3732 c 0.0000,-3.1311 2.5382,-5.6693 5.6693 -5.6693c 3.1310,-0.0000 5.6693,2.5382 5.6693 5.6693c 0.0000,3.1310 -2.5382,5.6693 -5.6693 5.6693c -3.1311,-0.0000 -5.6693,-2.5382 -5.6693 -5.6693ZM 541.1905,99.7165 c 0.0000,-3.1310 2.5382,-5.6693 5.6693 -5.6693c 3.1311,-0.0000 5.6693,2.5382 5.6693 5.6693c 0.0000,3.1311 -2.5382,5.6693 -5.6693 5.6693c -3.1310,-0.0000 -5.6693,-2.5382 -5.6693 -5.6693ZM 648.7406,368.8608 c -0.0000,-1.5808 0.9996,-3.0545 2.5813 -3.5837c 21.5053,-7.1956 43.0106,-14.3911 64.5159 -21.5867c -3.1101,-9.2951 -6.2202,-18.5901 -9.3303 -27.8852c -0.2878,-0.8602 -0.5757,-1.7204 -0.8635 -2.5806c -7.3075,-21.8398 -14.6150,-43.6796 -21.9225 -65.5194c -0.2878,-0.8602 -0.5756,-1.7205 -0.8634 -2.5806c -0.0006,-0.0017 -0.0011,-0.0033 -0.0017 -0.0050c -7.5948,-22.6984 -15.1896,-45.3968 -22.7843 -68.0951c -0.1331,-0.3978 -0.1963,-0.8021 -0.1963 -1.1998c 0.0000,-1.5808 0.9996,-3.0545 2.5813 -3.5837c 21.5053,-7.1956 43.0106,-14.3911 64.5159 -21.5867c -1.5990,-4.7790 -3.1980,-9.5579 -4.7970 -14.3369c -0.1331,-0.3978 -0.1963,-0.8022 -0.1963 -1.1998c 0.0000,-1.5808 0.9996,-3.0545 2.5813 -3.5837c 21.5053,-7.1956 43.0106,-14.3911 64.5159 -21.5867c -1.9988,-5.9737 -3.9975,-11.9474 -5.9963 -17.9211c -0.1331,-0.3978 -0.1963,-0.8022 -0.1963 -1.1998c 0.0000,-1.5808 0.9996,-3.0545 2.5813 -3.5838c 23.5602,-7.8831 47.1205,-15.7663 70.6807 -23.6494c 1.9795,-0.6623 4.1212,0.4055 4.7835 2.3849c 1.5990,4.7790 3.1980,9.5579 4.7971 14.3369c 21.5053,-7.1956 43.0106,-14.3912 64.5159 -21.5867c 1.9795,-0.6623 4.1211,0.4055 4.7835 2.3850c 0.7995,2.3895 1.5990,4.7789 2.3985 7.1684c 21.5053,-7.1956 43.0106,-14.3911 64.5159 -21.5867c 1.9795,-0.6623 4.1212,0.4055 4.7835 2.3849c 21.5053,-7.1956 43.0106,-14.3911 64.5159 -21.5867c 1.9795,-0.6623 4.1211,0.4055 4.7835 2.3850c 7.5949,22.6987 15.1897,45.3973 22.7846 68.0959c 0.0005,0.0014 0.0009,0.0028 0.0014 0.0041c 0.2878,0.8602 0.5756,1.7205 0.8635 2.5806c 7.3075,21.8398 14.6150,43.6797 21.9225 65.5195c 0.2879,0.8602 0.5757,1.7204 0.8635 2.5806c 7.3075,21.8398 14.6150,43.6797 21.9225 65.5194c 0.2878,0.8602 0.5757,1.7205 0.8635 2.5806c 7.5953,22.7001 15.1906,45.4001 22.7859 68.1001c 0.1331,0.3978 0.1963,0.8022 0.1963 1.1998c 0.0000,1.5808 -0.9996,3.0545 -2.5813 3.5837c -23.5602,7.8832 -47.1205,15.7663 -70.6807 23.6494c -1.9795,0.6623 -4.1211,-0.4054 -4.7835 -2.3849c -21.5053,7.1956 -43.0106,14.3911 -64.5159 21.5867c -1.9795,0.6623 -4.1211,-0.4054 -4.7835 -2.3849c -0.7995,-2.3895 -1.5990,-4.7790 -2.3985 -7.1685c -21.5053,7.1956 -43.0106,14.3911 -64.5159 21.5867c -1.9795,0.6623 -4.1212,-0.4055 -4.7835 -2.3850c -1.5990,-4.7790 -3.1980,-9.5579 -4.7971 -14.3369c -19.4503,6.5080 -38.9007,13.0160 -58.3510 19.5240c 1.9988,5.9737 3.9976,11.9474 5.9963 17.9211c 0.1331,0.3978 0.1963,0.8022 0.1963 1.1998c 0.0000,1.5808 -0.9996,3.0545 -2.5813 3.5837c -21.5053,7.1956 -43.0106,14.3911 -64.5159 21.5867c 1.5990,4.7790 3.1980,9.5579 4.7970 14.3369c 0.1331,0.3978 0.1963,0.8022 0.1963 1.1998c 0.0000,1.5808 -0.9996,3.0545 -2.5813 3.5837c -21.5053,7.1956 -43.0106,14.3911 -64.5159 21.5867c 3.3979,10.1553 6.7958,20.3105 10.1937 30.4658c 0.1331,0.3978 0.1963,0.8022 0.1963 1.1998c 0.0000,1.5808 -0.9996,3.0545 -2.5813 3.5837c -23.5603,7.8832 -47.1205,15.7663 -70.6807 23.6495c -1.9795,0.6623 -4.1211,-0.4055 -4.7835 -2.3850c -7.5953,-22.7000 -15.1907,-45.4001 -22.7860 -68.1001c -0.2878,-0.8602 -0.5756,-1.7205 -0.8635 -2.5806c -0.0003,-0.0010 -0.0006,-0.0020 -0.0010 -0.0030c -7.5950,-22.6990 -15.1900,-45.3981 -22.7850 -68.0971c -0.1331,-0.3978 -0.1963,-0.8021 -0.1963 -1.1998ZM 654.5764,99.7165 c 0.0000,-3.1310 2.5382,-5.6693 5.6693 -5.6693c 3.1310,-0.0000 5.6693,2.5382 5.6693 5.6693c 0.0000,3.1311 -2.5382,5.6693 -5.6693 5.6693c -3.1311,-0.0000 -5.6693,-2.5382 -5.6693 -5.6693ZM 716.8029,518.3732 c 0.0000,-3.1311 2.5382,-5.6693 5.6693 -5.6693c 3.1311,-0.0000 5.6693,2.5382 5.6693 5.6693c 0.0000,3.1310 -2.5382,5.6693 -5.6693 5.6693c -3.1310,-0.0000 -5.6693,-2.5382 -5.6693 -5.6693ZM 1081.8180,24.1260 c 0.0000,-3.1311 2.5382,-5.6693 5.6693 -5.6693c 3.1311,-0.0000 5.6693,2.5382 5.6693 5.6693c 0.0000,3.1311 -2.5382,5.6693 -5.6693 5.6693c -3.1310,-0.0000 -5.6693,-2.5382 -5.6693 -5.6693ZM 1177.3074,301.9548 c 0.0000,-3.1311 2.5382,-5.6693 5.6693 -5.6693c 3.1311,-0.0000 5.6693,2.5382 5.6693 5.6693c 0.0000,3.1310 -2.5382,5.6693 -5.6693 5.6693c -3.1310,-0.0000 -5.6693,-2.5382 -5.6693 -5.6693Z"/></g></svg>