<?xml version="1.0" encoding="UTF-8"?>
<!DOCTYPE svg PUBLIC "-//W3C//DTD SVG 1.1//EN"
    "http://www.w3.org/Graphics/SVG/1.1/DTD/svg11.dtd"><svg xmlns="http://www.w3.org/2000/svg" height="231.1610" stroke-opacity="1" viewBox="0 0 844 231" font-size="1" width="843.7426" xmlns:xlink="http://www.w3.org/1999/xlink" stroke="rgb(0,0,0)" version="1.1"><defs></defs><g stroke-linejoin="miter" stroke-opacity="1.0" fill-opacity="0.5" stroke="rgb(0,0,0)" stroke-width="0.37795275590551186" fill="rgb(0,0,0)" stroke-linecap="butt" stroke-miterlimit="10.0"><path d="M 3.9685,104.8747 c 0.0000,-3.1884 0.4961,-6.4044 1.5635 -9.5946c 7.8831,-23.5602 15.7663,-47.1205 23.6494 -70.6807c 5.2697,-15.7496 22.5183,-24.3493 38.2678 -19.0796c 22.7000,7.5953 45.4001,15.1907 68.1001 22.7860c 0.8602,0.2878 1.7204,0.5757 2.5806 0.8635c 0.0015,0.0005 0.0030,0.0010 0.0045 0.0015c 21.8383,7.3070 43.6767,14.6140 65.5150 21.9210c 0.8602,0.2878 1.7204,0.5756 2.5807 0.8635c 21.8398,7.3075 43.6796,14.6150 65.5194 21.9225c 0.8602,0.2878 1.7204,0.5756 2.5806 0.8634c 0.0016,0.0005 0.0032,0.0011 0.0048 0.0016c 10.9183,3.6532 21.8366,7.3064 32.7549 10.9596c 1.9070,-0.0000 3.8139,-0.0000 5.7209 -0.0000c 7.4240,-10.9196 21.5466,-16.1178 34.6342 -11.7388c 11.6945,3.9129 23.3889,7.8258 35.0834 11.7388c 13.1143,-0.0000 26.2286,-0.0000 39.3429 -0.0000c 13.1143,-0.0000 26.2286,-0.0000 39.3429 -0.0000c 11.6945,-3.9129 23.3889,-7.8258 35.0834 -11.7388c 13.0875,-4.3790 27.2101,0.8192 34.6342 11.7388c 1.9070,-0.0000 3.8139,-0.0000 5.7209 -0.0000c 10.9183,-3.6532 21.8366,-7.3064 32.7549 -10.9596c 0.0016,-0.0005 0.0032,-0.0011 0.0048 -0.0016c 0.8602,-0.2878 1.7204,-0.5756 2.5806 -0.8634c 21.8398,-7.3075 43.6796,-14.6150 65.5194 -21.9225c 0.8602,-0.2878 1.7204,-0.5756 2.5807 -0.8635c 21.8383,-7.3070 43.6767,-14.6140 65.5150 -21.9210c 0.0015,-0.0005 0.0030,-0.0010 0.0045 -0.0015c 0.8602,-0.2878 1.7204,-0.5756 2.5806 -0.8635c 22.7000,-7.5953 45.4001,-15.1906 68.1001 -22.7860c 15.7496,-5.2697 32.9981,3.3301 38.2678 19.0796c 7.8832,23.5602 15.7663,47.1205 23.6494 70.6807c 1.0674,3.1902 1.5635,6.4062 1.5635 9.5946c 0.0000,12.6088 -8.0272,24.4520 -20.6431 28.6732c -22.7000,7.5953 -45.4001,15.1906 -68.1001 22.7860c -0.8602,0.2878 -1.7204,0.5756 -2.5806 0.8635c -0.0017,0.0006 -0.0034,0.0012 -0.0051 0.0017c -21.8381,7.3069 -43.6762,14.6139 -65.5143 21.9208c -0.8602,0.2878 -1.7204,0.5757 -2.5806 0.8635c -0.0011,0.0004 -0.0022,0.0007 -0.0033 0.0011c -21.8387,7.3071 -43.6774,14.6143 -65.5162 21.9214c -0.8603,0.2878 -1.7206,0.5757 -2.5808 0.8635c -10.9199,3.6537 -21.8397,7.3075 -32.7596 10.9612c -11.7802,3.9416 -23.5603,7.8832 -35.3405 11.8248c -13.1219,4.3905 -27.2842,-0.8465 -34.6924 -11.8248c -1.8019,-0.0000 -3.6037,-0.0000 -5.4056 -0.0000c -11.8658,3.9702 -23.7316,7.9405 -35.5974 11.9107c -13.1560,4.4019 -27.3580,-0.8739 -34.7502 -11.9107c -3.9443,-0.0000 -7.8886,-0.0000 -11.8329 -0.0000c -3.9443,-0.0000 -7.8886,-0.0000 -11.8329 -0.0000c -7.3922,11.0368 -21.5942,16.3127 -34.7502 11.9107c -11.8658,-3.9702 -23.7316,-7.9405 -35.5974 -11.9107c -1.8019,-0.0000 -3.6037,-0.0000 -5.4056 -0.0000c -7.4082,10.9783 -21.5705,16.2153 -34.6924 11.8248c -11.7802,-3.9416 -23.5603,-7.8832 -35.3405 -11.8248c -10.9199,-3.6537 -21.8397,-7.3075 -32.7596 -10.9612c -0.8603,-0.2878 -1.7206,-0.5757 -2.5808 -0.8635c -21.8387,-7.3071 -43.6774,-14.6143 -65.5162 -21.9214c -0.0011,-0.0004 -0.0022,-0.0007 -0.0033 -0.0011c -0.8602,-0.2878 -1.7204,-0.5757 -2.5806 -0.8635c -21.8381,-7.3069 -43.6762,-14.6139 -65.5143 -21.9208c -0.0017,-0.0006 -0.0034,-0.0012 -0.0051 -0.0017c -0.8602,-0.2878 -1.7204,-0.5756 -2.5806 -0.8635c -22.7000,-7.5953 -45.4001,-15.1906 -68.1001 -22.7860c -12.6159,-4.2213 -20.6431,-16.0644 -20.6431 -28.6732ZM 14.0986,112.0727 c 0.0000,3.1311 2.5382,5.6693 5.6693 5.6693c 3.1311,-0.0000 5.6693,-2.5382 5.6693 -5.6693c 0.0000,-3.1311 -2.5382,-5.6693 -5.6693 -5.6693c -3.1311,-0.0000 -5.6693,2.5382 -5.6693 5.6693ZM 44.9874,19.7556 c 0.0000,3.1311 2.5382,5.6693 5.6693 5.6693c 3.1311,-0.0000 5.6693,-2.5382 5.6693 -5.6693c 0.0000,-3.1311 -2.5382,-5.6693 -5.6693 -5.6693c -3.1311,-0.0000 -5.6693,2.5382 -5.6693 5.6693ZM 310.7159,211.3195 c 0.0000,3.1311 2.5382,5.6693 5.6693 5.6693c 3.1311,-0.0000 5.6693,-2.5382 5.6693 -5.6693c 0.0000,-3.1311 -2.5382,-5.6693 -5.6693 -5.6693c -3.1311,-0.0000 -5.6693,2.5382 -5.6693 5.6693ZM 387.8556,99.6450 c 0.0000,3.1311 2.5382,5.6693 5.6693 5.6693c 3.1311,-0.0000 5.6693,-2.5382 5.6693 -5.6693c 0.0000,-3.1311 -2.5382,-5.6693 -5.6693 -5.6693c -3.1311,-0.0000 -5.6693,2.5382 -5.6693 5.6693ZM 444.5485,99.6450 c 0.0000,3.1311 2.5382,5.6693 5.6693 5.6693c 3.1311,-0.0000 5.6693,-2.5382 5.6693 -5.6693c 0.0000,-3.1311 -2.5382,-5.6693 -5.6693 -5.6693c -3.1311,-0.0000 -5.6693,2.5382 -5.6693 5.6693ZM 521.6881,211.3195 c 0.0000,3.1311 2.5382,5.6693 5.6693 5.6693c 3.1311,-0.0000 5.6693,-2.5382 5.6693 -5.6693c 0.0000,-3.1311 -2.5382,-5.6693 -5.6693 -5.6693c -3.1311,-0.0000 -5.6693,2.5382 -5.6693 5.6693ZM 787.4166,19.7556 c 0.0000,3.1311 2.5382,5.6693 5.6693 5.6693c 3.1311,-0.0000 5.6693,-2.5382 5.6693 -5.6693c 0.0000,-3.1311 -2.5382,-5.6693 -5.6693 -5.6693c -3.1311,-0.0000 -5.6693,2.5382 -5.6693 5.6693ZM 818.3054,112.0727 c 0.0000,3.1311 2.5382,5.6693 5.6693 5.6693c 3.1311,-0.0000 5.6693,-2.5382 5.6693 -5.6693c 0.0000,-3.1311 -2.5382,-5.6693 -5.6693 -5.6693c -3.1311,-0.0000 -5.6693,2.5382 -5.6693 5.6693Z"/></g><g stroke-linejoin="miter" stroke-opacity="1.0" fill-opacity="0.5" stroke="rgb(0,0,0)" stroke-width="0.37795275590551186" fill="rgb(255,255,0)" stroke-linecap="butt" stroke-miterlimit="10.0"><path d="M 3.9685,104.8747 c 0.0000,-3.1884 0.4961,-6.4044 1.5635 -9.5946c 7.8831,-23.5602 15.7663,-47.1205 23.6494 -70.6807c 1.3356,-3.9917 3.4407,-7.5242 6.0959 -10.4880c 5.1656,-5.7660 12.4132,-9.3796 20.1270 -10.0351c 3.9650,-0.3369 8.0531,0.1078 12.0450 1.4434c 22.7000,7.5953 45.4001,15.1907 68.1001 22.7860c 0.8602,0.2878 1.7204,0.5757 2.5806 0.8635c 0.0015,0.0005 0.0030,0.0010 0.0045 0.0015c 21.8383,7.3070 43.6767,14.6140 65.5150 21.9210c 0.8602,0.2878 1.7204,0.5756 2.5807 0.8635c 21.8398,7.3075 43.6796,14.6150 65.5194 21.9225c 0.8602,0.2878 1.7204,0.5756 2.5806 0.8634c 0.0016,0.0005 0.0032,0.0011 0.0048 0.0016c 10.9183,3.6532 21.8366,7.3064 32.7549 10.9596c 1.9070,-0.0000 3.8139,-0.0000 5.7209 -0.0000c 7.4240,-10.9196 21.5466,-16.1178 34.6342 -11.7388c 11.6945,3.9129 23.3889,7.8258 35.0834 11.7388c 0.7997,-0.0000 1.5994,-0.0000 2.3991 -0.0000c 5.7316,-0.0000 11.4632,-0.0000 17.1948 -0.0000c 6.5830,-0.0000 13.1660,-0.0000 19.7491 -0.0000c 6.5830,-0.0000 13.1660,-0.0000 19.7491 -0.0000c 5.7316,-0.0000 11.4632,-0.0000 17.1948 -0.0000c 0.7997,-0.0000 1.5994,-0.0000 2.3991 -0.0000c 11.6945,-3.9129 23.3889,-7.8258 35.0834 -11.7388c 13.0875,-4.3790 27.2101,0.8192 34.6342 11.7388c 1.9070,-0.0000 3.8139,-0.0000 5.7209 -0.0000c 10.9183,-3.6532 21.8366,-7.3064 32.7549 -10.9596c 0.0016,-0.0005 0.0032,-0.0011 0.0048 -0.0016c 0.8602,-0.2878 1.7204,-0.5756 2.5806 -0.8634c 21.8398,-7.3075 43.6796,-14.6150 65.5194 -21.9225c 0.8602,-0.2878 1.7204,-0.5756 2.5807 -0.8635c 21.8383,-7.3070 43.6767,-14.6140 65.5150 -21.9210c 0.0015,-0.0005 0.0030,-0.0010 0.0045 -0.0015c 0.8602,-0.2878 1.7204,-0.5756 2.5806 -0.8635c 22.7000,-7.5953 45.4001,-15.1906 68.1001 -22.7860c 3.9918,-1.3357 8.0800,-1.7803 12.0450 -1.4434c 7.7137,0.6554 14.9613,4.2690 20.1270 10.0351c 2.6552,2.9638 4.7603,6.4962 6.0959 10.4879c 7.8832,23.5602 15.7663,47.1205 23.6494 70.6807c 1.0674,3.1902 1.5635,6.4062 1.5635 9.5946c 0.0000,0.8374 -0.0354,1.6714 -0.1052 2.5000c -0.6475,7.6861 -4.2545,14.9089 -10.0174 20.0655c -2.9707,2.6582 -6.5142,4.7673 -10.5205 6.1078c -22.7000,7.5953 -45.4001,15.1906 -68.1001 22.7860c -0.8602,0.2878 -1.7204,0.5756 -2.5806 0.8635c -0.0017,0.0006 -0.0034,0.0012 -0.0051 0.0017c -21.8381,7.3069 -43.6762,14.6139 -65.5143 21.9208c -0.8602,0.2878 -1.7204,0.5757 -2.5806 0.8635c -0.0011,0.0004 -0.0022,0.0007 -0.0033 0.0011c -21.8387,7.3071 -43.6774,14.6143 -65.5162 21.9214c -0.8603,0.2878 -1.7206,0.5757 -2.5808 0.8635c -10.9199,3.6537 -21.8397,7.3075 -32.7596 10.9612c -11.7802,3.9416 -23.5603,7.8832 -35.3405 11.8248c -3.9918,1.3356 -8.0799,1.7803 -12.0448 1.4434c -7.7137,-0.6554 -14.9613,-4.2689 -20.1270 -10.0349c -0.9074,-1.0128 -1.7505,-2.0921 -2.5207 -3.2333c -1.8019,-0.0000 -3.6037,-0.0000 -5.4056 -0.0000c -11.8658,3.9702 -23.7316,7.9405 -35.5974 11.9107c -13.1560,4.4020 -27.3580,-0.8739 -34.7502 -11.9107c -3.9443,-0.0000 -7.8886,-0.0000 -11.8329 -0.0000c -3.9443,-0.0000 -7.8886,-0.0000 -11.8329 -0.0000c -7.3922,11.0368 -21.5942,16.3127 -34.7502 11.9107c -11.8658,-3.9702 -23.7316,-7.9405 -35.5974 -11.9107c -1.8019,-0.0000 -3.6037,-0.0000 -5.4056 -0.0000c -0.7701,1.1413 -1.6133,2.2205 -2.5207 3.2333c -5.1657,5.7660 -12.4133,9.3795 -20.1270 10.0349c -3.9649,0.3369 -8.0530,-0.1078 -12.0448 -1.4434c -11.7802,-3.9416 -23.5603,-7.8832 -35.3405 -11.8248c -10.9199,-3.6537 -21.8397,-7.3075 -32.7596 -10.9612c -0.8603,-0.2878 -1.7206,-0.5757 -2.5808 -0.8635c -21.8387,-7.3071 -43.6774,-14.6143 -65.5162 -21.9214c -0.0011,-0.0004 -0.0022,-0.0007 -0.0033 -0.0011c -0.8602,-0.2878 -1.7204,-0.5757 -2.5806 -0.8635c -21.8381,-7.3069 -43.6762,-14.6139 -65.5143 -21.9208c -0.0017,-0.0006 -0.0034,-0.0012 -0.0051 -0.0017c -0.8602,-0.2878 -1.7204,-0.5756 -2.5806 -0.8635c -22.7000,-7.5953 -45.4001,-15.1906 -68.1001 -22.7860c -4.0063,-1.3405 -7.5498,-3.4496 -10.5205 -6.1078c -5.7628,-5.1566 -9.3699,-12.3794 -10.0174 -20.0655c -0.0698,-0.8286 -0.1052,-1.6626 -0.1052 -2.5000ZM 14.0986,112.0727 c 0.0000,3.1311 2.5382,5.6693 5.6693 5.6693c 3.1311,-0.0000 5.6693,-2.5382 5.6693 -5.6693c 0.0000,-3.1311 -2.5382,-5.6693 -5.6693 -5.6693c -3.1311,-0.0000 -5.6693,2.5382 -5.6693 5.6693ZM 28.4696,98.1951 c 4.6112,2.8975 7.6762,8.0296 7.6762 13.8776c 0.0000,0.4722 -0.0200,0.9398 -0.0592 1.4018c 21.2736,7.1180 42.5471,14.2361 63.8206 21.3541c 0.8602,0.2878 1.7204,0.5756 2.5806 0.8635c 0.0017,0.0006 0.0034,0.0011 0.0051 0.0017c 21.8381,7.3069 43.6762,14.6139 65.5143 21.9208c 0.8602,0.2878 1.7204,0.5756 2.5806 0.8635c 0.0011,0.0004 0.0022,0.0007 0.0033 0.0011c 21.8387,7.3071 43.6774,14.6143 65.5161 21.9214c 0.8602,0.2878 1.7204,0.5756 2.5807 0.8635c 10.9199,3.6538 21.8398,7.3075 32.7597 10.9613c 10.3532,3.4641 20.7065,6.9283 31.0597 10.3924c 2.8975,-4.6112 8.0296,-7.6762 13.8776 -7.6762c 0.4722,-0.0000 0.9398,0.0200 1.4019 0.0592c 0.3095,-0.9251 0.6191,-1.8503 0.9286 -2.7754c 9.3902,-0.0000 18.7805,-0.0000 28.1707 -0.0000c 11.8658,3.9702 23.7315,7.9404 35.5972 11.9107c 3.9467,1.3205 8.2464,-0.8233 9.5670 -4.7699c 0.7964,-2.3803 1.5928,-4.7605 2.3893 -7.1408c 9.1438,-0.0000 18.2876,-0.0000 27.4314 -0.0000c 9.1438,-0.0000 18.2876,-0.0000 27.4314 -0.0000c 0.7964,2.3803 1.5928,4.7605 2.3893 7.1408c 1.3205,3.9466 5.6203,6.0904 9.5670 4.7699c 11.8657,-3.9702 23.7315,-7.9405 35.5972 -11.9107c 9.3902,-0.0000 18.7805,-0.0000 28.1707 -0.0000c 0.3095,0.9251 0.6191,1.8503 0.9286 2.7754c 0.4621,-0.0392 0.9296,-0.0592 1.4019 -0.0592c 5.8480,-0.0000 10.9801,3.0650 13.8776 7.6762c 10.3532,-3.4641 20.7065,-6.9283 31.0597 -10.3924c 10.9199,-3.6538 21.8398,-7.3075 32.7597 -10.9613c 0.8602,-0.2878 1.7204,-0.5756 2.5807 -0.8635c 21.8387,-7.3071 43.6774,-14.6143 65.5161 -21.9214c 0.0011,-0.0004 0.0022,-0.0007 0.0033 -0.0011c 0.8602,-0.2878 1.7204,-0.5756 2.5806 -0.8635c 21.8381,-7.3069 43.6762,-14.6139 65.5143 -21.9208c 0.0017,-0.0006 0.0034,-0.0011 0.0051 -0.0017c 0.8602,-0.2878 1.7204,-0.5756 2.5806 -0.8635c 21.2735,-7.1180 42.5471,-14.2361 63.8206 -21.3541c -0.0392,-0.4621 -0.0592,-0.9296 -0.0592 -1.4018c 0.0000,-5.8480 3.0650,-10.9801 7.6762 -13.8776c -6.9284,-20.7069 -13.8569,-41.4138 -20.7853 -62.1207c -0.4621,0.0392 -0.9296,0.0592 -1.4019 0.0592c -5.8480,-0.0000 -10.9801,-3.0650 -13.8776 -7.6762c -21.2732,7.1179 -42.5463,14.2358 -63.8195 21.3537c -0.8602,0.2878 -1.7204,0.5757 -2.5806 0.8635c -0.0015,0.0005 -0.0030,0.0010 -0.0045 0.0015c -21.8383,7.3070 -43.6767,14.6140 -65.5150 21.9210c -0.8602,0.2878 -1.7204,0.5756 -2.5806 0.8635c -21.8398,7.3075 -43.6796,14.6150 -65.5195 21.9225c -0.8602,0.2878 -1.7204,0.5756 -2.5806 0.8635c -0.0016,0.0005 -0.0032,0.0011 -0.0048 0.0016c -10.9183,3.6532 -21.8366,7.3064 -32.7549 10.9596c 0.0000,-0.0000 -0.0000,-0.0000 -0.0000 -0.0000c -9.4854,-0.0000 -18.9709,-0.0000 -28.4563 -0.0000c -0.7773,-2.3230 -1.5545,-4.6459 -2.3318 -6.9689c -1.3205,-3.9467 -5.6203,-6.0904 -9.5670 -4.7699c -11.6945,3.9129 -23.3890,7.8259 -35.0835 11.7388c -1.2203,-0.0000 -2.4405,-0.0000 -3.6608 -0.0000c -2.7320,5.2387 -8.2139,8.8153 -14.5311 8.8153c -6.3172,-0.0000 -11.7991,-3.5766 -14.5311 -8.8153c -4.6051,-0.0000 -9.2102,-0.0000 -13.8153 -0.0000c -4.6051,-0.0000 -9.2102,-0.0000 -13.8153 -0.0000c -2.7321,5.2387 -8.2139,8.8153 -14.5311 8.8153c -6.3172,-0.0000 -11.7991,-3.5766 -14.5311 -8.8153c -1.2203,-0.0000 -2.4405,-0.0000 -3.6608 -0.0000c -11.6945,-3.9129 -23.3890,-7.8259 -35.0835 -11.7388c -3.9467,-1.3205 -8.2464,0.8232 -9.5670 4.7699c -0.7772,2.3230 -1.5545,4.6459 -2.3318 6.9689c -9.4854,-0.0000 -18.9709,-0.0000 -28.4563 -0.0000c -10.9183,-3.6532 -21.8366,-7.3064 -32.7549 -10.9596c -0.0016,-0.0005 -0.0032,-0.0011 -0.0048 -0.0016c -0.8602,-0.2878 -1.7204,-0.5756 -2.5806 -0.8635c -21.8398,-7.3075 -43.6796,-14.6150 -65.5195 -21.9225c -0.8602,-0.2878 -1.7204,-0.5757 -2.5806 -0.8635c -21.8383,-7.3070 -43.6767,-14.6140 -65.5150 -21.9210c -0.0015,-0.0005 -0.0030,-0.0010 -0.0045 -0.0015c -0.8602,-0.2878 -1.7204,-0.5757 -2.5806 -0.8635c -21.2732,-7.1179 -42.5463,-14.2358 -63.8195 -21.3537c -2.8975,4.6112 -8.0296,7.6762 -13.8776 7.6762c -0.4722,-0.0000 -0.9398,-0.0200 -1.4019 -0.0592c -6.9284,20.7069 -13.8568,41.4138 -20.7853 62.1207ZM 44.9874,19.7556 c 0.0000,3.1311 2.5382,5.6693 5.6693 5.6693c 3.1311,-0.0000 5.6693,-2.5382 5.6693 -5.6693c 0.0000,-3.1311 -2.5382,-5.6693 -5.6693 -5.6693c -3.1311,-0.0000 -5.6693,2.5382 -5.6693 5.6693ZM 310.7159,211.3195 c 0.0000,3.1311 2.5382,5.6693 5.6693 5.6693c 3.1311,-0.0000 5.6693,-2.5382 5.6693 -5.6693c 0.0000,-3.1311 -2.5382,-5.6693 -5.6693 -5.6693c -3.1311,-0.0000 -5.6693,2.5382 -5.6693 5.6693ZM 387.8556,99.6450 c 0.0000,3.1311 2.5382,5.6693 5.6693 5.6693c 3.1311,-0.0000 5.6693,-2.5382 5.6693 -5.6693c 0.0000,-3.1311 -2.5382,-5.6693 -5.6693 -5.6693c -3.1311,-0.0000 -5.6693,2.5382 -5.6693 5.6693ZM 444.5485,99.6450 c 0.0000,3.1311 2.5382,5.6693 5.6693 5.6693c 3.1311,-0.0000 5.6693,-2.5382 5.6693 -5.6693c 0.0000,-3.1311 -2.5382,-5.6693 -5.6693 -5.6693c -3.1311,-0.0000 -5.6693,2.5382 -5.6693 5.6693ZM 521.6881,211.3195 c 0.0000,3.1311 2.5382,5.6693 5.6693 5.6693c 3.1311,-0.0000 5.6693,-2.5382 5.6693 -5.6693c 0.0000,-3.1311 -2.5382,-5.6693 -5.6693 -5.6693c -3.1311,-0.0000 -5.6693,2.5382 -5.6693 5.6693ZM 787.4166,19.7556 c 0.0000,3.1311 2.5382,5.6693 5.6693 5.6693c 3.1311,-0.0000 5.6693,-2.5382 5.6693 -5.6693c 0.0000,-3.1311 -2.5382,-5.6693 -5.6693 -5.6693c -3.1311,-0.0000 -5.6693,2.5382 -5.6693 5.6693ZM 818.3054,112.0727 c 0.0000,3.1311 2.5382,5.6693 5.6693 5.6693c 3.1311,-0.0000 5.6693,-2.5382 5.6693 -5.6693c 0.0000,-3.1311 -2.5382,-5.6693 -5.6693 -5.6693c -3.1311,-0.0000 -5.6693,2.5382 -5.6693 5.6693Z"/></g><g stroke-linejoin="miter" stroke-opacity="1.0" fill-opacity="0.5" stroke="rgb(0,0,0)" stroke-width="0.37795275590551186" fill="rgb(0,0,0)" stroke-linecap="butt" stroke-miterlimit="10.0"><path d="M 3.9685,104.8747 c 0.0000,-3.1884 0.4961,-6.4044 1.5635 -9.5946c 7.8831,-23.5602 15.7663,-47.1205 23.6494 -70.6807c 5.2697,-15.7496 22.5183,-24.3493 38.2678 -19.0796c 22.7000,7.5953 45.4001,15.1907 68.1001 22.7860c 0.8602,0.2878 1.7204,0.5757 2.5806 0.8635c 0.0015,0.0005 0.0030,0.0010 0.0045 0.0015c 21.8383,7.3070 43.6767,14.6140 65.5150 21.9210c 0.8602,0.2878 1.7204,0.5756 2.5807 0.8635c 21.8398,7.3075 43.6796,14.6150 65.5194 21.9225c 0.8602,0.2878 1.7204,0.5756 2.5806 0.8634c 0.0016,0.0005 0.0032,0.0011 0.0048 0.0016c 10.9183,3.6532 21.8366,7.3064 32.7549 10.9596c 1.9070,-0.0000 3.8139,-0.0000 5.7209 -0.0000c 7.4240,-10.9196 21.5466,-16.1178 34.6342 -11.7388c 11.6945,3.9129 23.3889,7.8258 35.0834 11.7388c 13.1143,-0.0000 26.2286,-0.0000 39.3429 -0.0000c 13.1143,-0.0000 26.2286,-0.0000 39.3429 -0.0000c 11.6945,-3.9129 23.3889,-7.8258 35.0834 -11.7388c 13.0875,-4.3790 27.2101,0.8192 34.6342 11.7388c 1.9070,-0.0000 3.8139,-0.0000 5.7209 -0.0000c 10.9183,-3.6532 21.8366,-7.3064 32.7549 -10.9596c 0.0016,-0.0005 0.0032,-0.0011 0.0048 -0.0016c 0.8602,-0.2878 1.7204,-0.5756 2.5806 -0.8634c 21.8398,-7.3075 43.6796,-14.6150 65.5194 -21.9225c 0.8602,-0.2878 1.7204,-0.5756 2.5807 -0.8635c 21.8383,-7.3070 43.6767,-14.6140 65.5150 -21.9210c 0.0015,-0.0005 0.0030,-0.0010 0.0045 -0.0015c 0.8602,-0.2878 1.7204,-0.5756 2.5806 -0.8635c 22.7000,-7.5953 45.4001,-15.1906 68.1001 -22.7860c 15.7496,-5.2697 32.9981,3.3301 38.2678 19.0796c 7.8832,23.5602 15.7663,47.1205 23.6494 70.6807c 1.0674,3.1902 1.5635,6.4062 1.5635 9.5946c 0.0000,12.6088 -8.0272,24.4520 -20.6431 28.6732c -22.7000,7.5953 -45.4001,15.1906 -68.1001 22.7860c -0.8602,0.2878 -1.7204,0.5756 -2.5806 0.8635c -0.0017,0.0006 -0.0034,0.0012 -0.0051 0.0017c -21.8381,7.3069 -43.6762,14.6139 -65.5143 21.9208c -0.8602,0.2878 -1.7204,0.5757 -2.5806 0.8635c -0.0011,0.0004 -0.0022,0.0007 -0.0033 0.0011c -21.8387,7.3071 -43.6774,14.6143 -65.5162 21.9214c -0.8603,0.2878 -1.7206,0.5757 -2.5808 0.8635c -10.9199,3.6537 -21.8397,7.3075 -32.7596 10.9612c -11.7802,3.9416 -23.5603,7.8832 -35.3405 11.8248c -13.1219,4.3905 -27.2842,-0.8465 -34.6924 -11.8248c -1.8019,-0.0000 -3.6037,-0.0000 -5.4056 -0.0000c -11.8658,3.9702 -23.7316,7.9405 -35.5974 11.9107c -13.1560,4.4019 -27.3580,-0.8739 -34.7502 -11.9107c -3.9443,-0.0000 -7.8886,-0.0000 -11.8329 -0.0000c -3.9443,-0.0000 -7.8886,-0.0000 -11.8329 -0.0000c -7.3922,11.0368 -21.5942,16.3127 -34.7502 11.9107c -11.8658,-3.9702 -23.7316,-7.9405 -35.5974 -11.9107c -1.8019,-0.0000 -3.6037,-0.0000 -5.4056 -0.0000c -7.4082,10.9783 -21.5705,16.2153 -34.6924 11.8248c -11.7802,-3.9416 -23.5603,-7.8832 -35.3405 -11.8248c -10.9199,-3.6537 -21.8397,-7.3075 -32.7596 -10.9612c -0.8603,-0.2878 -1.7206,-0.5757 -2.5808 -0.8635c -21.8387,-7.3071 -43.6774,-14.6143 -65.5162 -21.9214c -0.0011,-0.0004 -0.0022,-0.0007 -0.0033 -0.0011c -0.8602,-0.2878 -1.7204,-0.5757 -2.5806 -0.8635c -21.8381,-7.3069 -43.6762,-14.6139 -65.5143 -21.9208c -0.0017,-0.0006 -0.0034,-0.0012 -0.0051 -0.0017c -0.8602,-0.2878 -1.7204,-0.5756 -2.5806 -0.8635c -22.7000,-7.5953 -45.4001,-15.1906 -68.1001 -22.7860c -12.6159,-4.2213 -20.6431,-16.0644 -20.6431 -28.6732ZM 14.0986,112.0727 c 0.0000,3.1311 2.5382,5.6693 5.6693 5.6693c 3.1311,-0.0000 5.6693,-2.5382 5.6693 -5.6693c 0.0000,-3.1311 -2.5382,-5.6693 -5.6693 -5.6693c -3.1311,-0.0000 -5.6693,2.5382 -5.6693 5.6693ZM 44.9874,19.7556 c 0.0000,3.1311 2.5382,5.6693 5.6693 5.6693c 3.1311,-0.0000 5.6693,-2.5382 5.6693 -5.6693c 0.0000,-3.1311 -2.5382,-5.6693 -5.6693 -5.6693c -3.1311,-0.0000 -5.6693,2.5382 -5.6693 5.6693ZM 46.2208,93.5286 c 0.9711,0.3249 1.9422,0.6498 2.9132 0.9748c -0.3919,1.1714 -0.7839,2.3428 -1.1758 3.5141c 16.6905,5.5846 33.3810,11.1691 50.0715 16.7537c 0.3919,-1.1714 0.7839,-2.3428 1.1758 -3.5141c 0.9711,0.3249 1.9422,0.6498 2.9133 0.9748c 1.3992,-4.1817 2.7984,-8.3634 4.1975 -12.5451c -0.9711,-0.3249 -1.9422,-0.6498 -2.9133 -0.9748c 2.0023,-5.9843 4.0047,-11.9687 6.0070 -17.9530c 0.9711,0.3249 1.9422,0.6498 2.9133 0.9748c 1.3992,-4.1817 2.7984,-8.3634 4.1975 -12.5451c -0.9711,-0.3249 -1.9422,-0.6498 -2.9133 -0.9748c 0.3919,-1.1714 0.7839,-2.3428 1.1758 -3.5141c -16.6905,-5.5846 -33.3810,-11.1691 -50.0715 -16.7537c -0.3919,1.1714 -0.7839,2.3428 -1.1758 3.5141c -0.9711,-0.3249 -1.9422,-0.6498 -2.9132 -0.9748c -1.3992,4.1817 -2.7984,8.3634 -4.1975 12.5451c 0.9711,0.3249 1.9422,0.6498 2.9133 0.9748c -2.0023,5.9843 -4.0047,11.9686 -6.0070 17.9530c -0.9711,-0.3249 -1.9422,-0.6498 -2.9132 -0.9748c -1.3992,4.1817 -2.7984,8.3634 -4.1975 12.5451ZM 114.3209,116.3146 c 0.9711,0.3249 1.9422,0.6498 2.9133 0.9748c -0.3919,1.1714 -0.7839,2.3428 -1.1758 3.5141c 16.6905,5.5846 33.3810,11.1691 50.0715 16.7537c 0.3919,-1.1714 0.7839,-2.3428 1.1758 -3.5141c 0.9711,0.3249 1.9422,0.6498 2.9133 0.9748c 1.3992,-4.1817 2.7984,-8.3634 4.1975 -12.5451c -0.9711,-0.3249 -1.9422,-0.6498 -2.9133 -0.9748c 2.0023,-5.9843 4.0047,-11.9687 6.0070 -17.9530c 0.9711,0.3249 1.9422,0.6498 2.9132 0.9748c 1.3992,-4.1817 2.7984,-8.3634 4.1975 -12.5451c -0.9711,-0.3249 -1.9422,-0.6498 -2.9133 -0.9748c 0.3919,-1.1714 0.7839,-2.3428 1.1758 -3.5142c -16.6905,-5.5846 -33.3810,-11.1691 -50.0715 -16.7537c -0.3919,1.1714 -0.7839,2.3428 -1.1758 3.5142c -0.9711,-0.3249 -1.9422,-0.6498 -2.9133 -0.9748c -1.3992,4.1817 -2.7984,8.3634 -4.1975 12.5451c 0.9711,0.3249 1.9422,0.6498 2.9133 0.9748c -2.0023,5.9843 -4.0047,11.9687 -6.0070 17.9530c -0.9711,-0.3249 -1.9422,-0.6498 -2.9133 -0.9748c -1.3992,4.1817 -2.7984,8.3634 -4.1975 12.5451ZM 182.4210,139.1005 c 0.9711,0.3249 1.9422,0.6498 2.9133 0.9748c -0.3919,1.1714 -0.7839,2.3428 -1.1758 3.5141c 16.6905,5.5846 33.3810,11.1691 50.0715 16.7537c 0.3919,-1.1714 0.7839,-2.3428 1.1758 -3.5141c 0.9711,0.3249 1.9422,0.6498 2.9133 0.9748c 1.3992,-4.1817 2.7984,-8.3634 4.1975 -12.5451c -0.9711,-0.3249 -1.9422,-0.6498 -2.9133 -0.9748c 2.0023,-5.9843 4.0047,-11.9687 6.0070 -17.9530c 0.9711,0.3249 1.9422,0.6498 2.9133 0.9748c 1.3992,-4.1817 2.7984,-8.3634 4.1975 -12.5451c -0.9711,-0.3249 -1.9422,-0.6498 -2.9133 -0.9748c 0.3919,-1.1714 0.7839,-2.3428 1.1758 -3.5141c -16.6905,-5.5846 -33.3810,-11.1691 -50.0715 -16.7537c -0.3919,1.1714 -0.7839,2.3428 -1.1758 3.5141c -0.9711,-0.3249 -1.9422,-0.6498 -2.9133 -0.9748c -1.3992,4.1817 -2.7984,8.3634 -4.1975 12.5451c 0.9711,0.3249 1.9422,0.6498 2.9132 0.9748c -2.0023,5.9843 -4.0046,11.9687 -6.0070 17.9530c -0.9711,-0.3249 -1.9422,-0.6498 -2.9133 -0.9748c -1.3992,4.1817 -2.7984,8.3634 -4.1975 12.5451ZM 250.5211,161.8865 c 0.9711,0.3249 1.9422,0.6498 2.9133 0.9748c -0.3919,1.1714 -0.7839,2.3428 -1.1758 3.5141c 16.6905,5.5846 33.3810,11.1691 50.0715 16.7537c 0.3919,-1.1714 0.7839,-2.3428 1.1758 -3.5141c 0.9711,0.3249 1.9422,0.6498 2.9133 0.9748c 1.3992,-4.1817 2.7984,-8.3634 4.1975 -12.5451c -0.9711,-0.3249 -1.9422,-0.6498 -2.9132 -0.9748c 2.0023,-5.9843 4.0046,-11.9687 6.0070 -17.9530c 0.9711,0.3249 1.9422,0.6498 2.9133 0.9748c 1.3992,-4.1817 2.7984,-8.3634 4.1975 -12.5451c -0.9711,-0.3249 -1.9422,-0.6498 -2.9133 -0.9748c 0.3919,-1.1714 0.7839,-2.3428 1.1758 -3.5141c -16.6905,-5.5846 -33.3810,-11.1691 -50.0715 -16.7537c -0.3919,1.1714 -0.7839,2.3428 -1.1758 3.5141c -0.9711,-0.3249 -1.9422,-0.6498 -2.9133 -0.9748c -1.3992,4.1817 -2.7984,8.3634 -4.1975 12.5451c 0.9711,0.3249 1.9422,0.6498 2.9132 0.9748c -2.0023,5.9843 -4.0046,11.9686 -6.0070 17.9530c -0.9711,-0.3249 -1.9422,-0.6498 -2.9133 -0.9748c -1.3992,4.1817 -2.7984,8.3634 -4.1975 12.5451ZM 310.7159,211.3195 c 0.0000,3.1311 2.5382,5.6693 5.6693 5.6693c 3.1311,-0.0000 5.6693,-2.5382 5.6693 -5.6693c 0.0000,-3.1311 -2.5382,-5.6693 -5.6693 -5.6693c -3.1311,-0.0000 -5.6693,2.5382 -5.6693 5.6693ZM 326.2165,161.9725 c 0.9711,0.3249 1.9422,0.6498 2.9132 0.9748c -0.3919,1.1714 -0.7839,2.3428 -1.1758 3.5141c 16.6905,5.5846 33.3810,11.1691 50.0715 16.7537c 0.3919,-1.1714 0.7839,-2.3428 1.1758 -3.5141c 0.9711,0.3249 1.9422,0.6498 2.9133 0.9748c 1.3992,-4.1817 2.7984,-8.3634 4.1975 -12.5451c -0.9711,-0.3249 -1.9422,-0.6498 -2.9133 -0.9748c 2.0023,-5.9843 4.0047,-11.9687 6.0070 -17.9530c 0.9711,0.3249 1.9422,0.6498 2.9133 0.9748c 1.3992,-4.1817 2.7984,-8.3634 4.1975 -12.5451c -0.9711,-0.3249 -1.9422,-0.6498 -2.9133 -0.9748c 0.3919,-1.1714 0.7839,-2.3428 1.1758 -3.5141c -16.6905,-5.5846 -33.3810,-11.1691 -50.0715 -16.7537c -0.3919,1.1714 -0.7839,2.3428 -1.1758 3.5142c -0.9711,-0.3249 -1.9422,-0.6498 -2.9132 -0.9748c -1.3992,4.1817 -2.7984,8.3634 -4.1975 12.5451c 0.9711,0.3249 1.9422,0.6498 2.9133 0.9748c -2.0023,5.9843 -4.0047,11.9687 -6.0070 17.9530c -0.9711,-0.3249 -1.9422,-0.6498 -2.9133 -0.9748c -1.3992,4.1817 -2.7984,8.3634 -4.1975 12.5451ZM 387.8556,99.6450 c 0.0000,3.1311 2.5382,5.6693 5.6693 5.6693c 3.1311,-0.0000 5.6693,-2.5382 5.6693 -5.6693c 0.0000,-3.1311 -2.5382,-5.6693 -5.6693 -5.6693c -3.1311,-0.0000 -5.6693,2.5382 -5.6693 5.6693ZM 444.5485,99.6450 c 0.0000,3.1311 2.5382,5.6693 5.6693 5.6693c 3.1311,-0.0000 5.6693,-2.5382 5.6693 -5.6693c 0.0000,-3.1311 -2.5382,-5.6693 -5.6693 -5.6693c -3.1311,-0.0000 -5.6693,2.5382 -5.6693 5.6693ZM 447.2261,137.6325 c 1.3992,4.1817 2.7984,8.3634 4.1975 12.5451c 0.9711,-0.3249 1.9422,-0.6498 2.9133 -0.9748c 2.0023,5.9843 4.0047,11.9687 6.0070 17.9530c -0.9711,0.3249 -1.9422,0.6498 -2.9133 0.9748c 1.3992,4.1817 2.7984,8.3634 4.1975 12.5451c 0.9711,-0.3249 1.9422,-0.6498 2.9133 -0.9748c 0.3919,1.1714 0.7839,2.3428 1.1758 3.5141c 16.6905,-5.5846 33.3810,-11.1691 50.0715 -16.7537c -0.3919,-1.1714 -0.7839,-2.3428 -1.1758 -3.5141c 0.9711,-0.3249 1.9422,-0.6498 2.9132 -0.9748c -1.3992,-4.1817 -2.7984,-8.3634 -4.1975 -12.5451c -0.9711,0.3249 -1.9422,0.6498 -2.9133 0.9748c -2.0023,-5.9843 -4.0047,-11.9687 -6.0070 -17.9530c 0.9711,-0.3249 1.9422,-0.6498 2.9133 -0.9748c -1.3992,-4.1817 -2.7984,-8.3634 -4.1975 -12.5451c -0.9711,0.3249 -1.9422,0.6498 -2.9132 0.9748c -0.3919,-1.1714 -0.7839,-2.3428 -1.1758 -3.5142c -16.6905,5.5846 -33.3810,11.1691 -50.0715 16.7537c 0.3919,1.1714 0.7839,2.3428 1.1758 3.5141c -0.9711,0.3249 -1.9422,0.6498 -2.9133 0.9748ZM 521.6881,211.3195 c 0.0000,3.1311 2.5382,5.6693 5.6693 5.6693c 3.1311,-0.0000 5.6693,-2.5382 5.6693 -5.6693c 0.0000,-3.1311 -2.5382,-5.6693 -5.6693 -5.6693c -3.1311,-0.0000 -5.6693,2.5382 -5.6693 5.6693ZM 522.9215,137.5465 c 1.3992,4.1817 2.7984,8.3634 4.1975 12.5451c 0.9711,-0.3249 1.9422,-0.6498 2.9133 -0.9748c 2.0023,5.9843 4.0046,11.9686 6.0070 17.9530c -0.9711,0.3249 -1.9422,0.6498 -2.9132 0.9748c 1.3992,4.1817 2.7984,8.3634 4.1975 12.5451c 0.9711,-0.3249 1.9422,-0.6498 2.9133 -0.9748c 0.3919,1.1714 0.7839,2.3428 1.1758 3.5141c 16.6905,-5.5846 33.3810,-11.1691 50.0715 -16.7537c -0.3919,-1.1714 -0.7839,-2.3428 -1.1758 -3.5141c 0.9711,-0.3249 1.9422,-0.6498 2.9133 -0.9748c -1.3992,-4.1817 -2.7984,-8.3634 -4.1975 -12.5451c -0.9711,0.3249 -1.9422,0.6498 -2.9133 0.9748c -2.0023,-5.9843 -4.0046,-11.9687 -6.0070 -17.9530c 0.9711,-0.3249 1.9422,-0.6498 2.9132 -0.9748c -1.3992,-4.1817 -2.7984,-8.3634 -4.1975 -12.5451c -0.9711,0.3249 -1.9422,0.6498 -2.9133 0.9748c -0.3919,-1.1714 -0.7839,-2.3428 -1.1758 -3.5141c -16.6905,5.5846 -33.3810,11.1691 -50.0715 16.7537c 0.3919,1.1714 0.7839,2.3428 1.1758 3.5141c -0.9711,0.3249 -1.9422,0.6498 -2.9133 0.9748ZM 591.0216,114.7606 c 1.3992,4.1817 2.7984,8.3634 4.1975 12.5451c 0.9711,-0.3249 1.9422,-0.6498 2.9133 -0.9748c 2.0023,5.9843 4.0046,11.9687 6.0070 17.9530c -0.9711,0.3249 -1.9422,0.6498 -2.9133 0.9748c 1.3992,4.1817 2.7984,8.3634 4.1975 12.5451c 0.9711,-0.3249 1.9422,-0.6498 2.9133 -0.9748c 0.3919,1.1714 0.7839,2.3428 1.1758 3.5141c 16.6905,-5.5846 33.3810,-11.1691 50.0715 -16.7537c -0.3919,-1.1714 -0.7839,-2.3428 -1.1758 -3.5141c 0.9711,-0.3249 1.9422,-0.6498 2.9133 -0.9748c -1.3992,-4.1817 -2.7984,-8.3634 -4.1975 -12.5451c -0.9711,0.3249 -1.9422,0.6498 -2.9133 0.9748c -2.0023,-5.9843 -4.0047,-11.9686 -6.0070 -17.9530c 0.9711,-0.3249 1.9422,-0.6498 2.9132 -0.9748c -1.3992,-4.1817 -2.7984,-8.3634 -4.1975 -12.5451c -0.9711,0.3249 -1.9422,0.6498 -2.9133 0.9748c -0.3919,-1.1714 -0.7839,-2.3428 -1.1758 -3.5141c -16.6905,5.5846 -33.3810,11.1691 -50.0715 16.7537c 0.3919,1.1714 0.7839,2.3428 1.1758 3.5141c -0.9711,0.3249 -1.9422,0.6498 -2.9133 0.9748ZM 659.1217,91.9746 c 1.3992,4.1817 2.7984,8.3634 4.1975 12.5451c 0.9711,-0.3249 1.9422,-0.6498 2.9132 -0.9748c 2.0023,5.9843 4.0047,11.9687 6.0070 17.9530c -0.9711,0.3249 -1.9422,0.6498 -2.9133 0.9748c 1.3992,4.1817 2.7984,8.3634 4.1975 12.5451c 0.9711,-0.3249 1.9422,-0.6498 2.9133 -0.9748c 0.3919,1.1714 0.7839,2.3428 1.1758 3.5141c 16.6905,-5.5846 33.3810,-11.1691 50.0715 -16.7537c -0.3919,-1.1714 -0.7839,-2.3428 -1.1758 -3.5141c 0.9711,-0.3249 1.9422,-0.6498 2.9133 -0.9748c -1.3992,-4.1817 -2.7984,-8.3634 -4.1975 -12.5451c -0.9711,0.3249 -1.9422,0.6498 -2.9133 0.9748c -2.0023,-5.9843 -4.0047,-11.9687 -6.0070 -17.9530c 0.9711,-0.3249 1.9422,-0.6498 2.9133 -0.9748c -1.3992,-4.1817 -2.7984,-8.3634 -4.1975 -12.5451c -0.9711,0.3249 -1.9422,0.6498 -2.9133 0.9748c -0.3919,-1.1714 -0.7839,-2.3428 -1.1758 -3.5142c -16.6905,5.5846 -33.3810,11.1691 -50.0715 16.7537c 0.3919,1.1714 0.7839,2.3428 1.1758 3.5142c -0.9711,0.3249 -1.9422,0.6498 -2.9133 0.9748ZM 727.2217,69.1886 c 1.3992,4.1817 2.7984,8.3634 4.1975 12.5451c 0.9711,-0.3249 1.9422,-0.6498 2.9133 -0.9748c 2.0023,5.9843 4.0047,11.9686 6.0070 17.9530c -0.9711,0.3249 -1.9422,0.6498 -2.9133 0.9748c 1.3992,4.1817 2.7983,8.3634 4.1975 12.5451c 0.9711,-0.3249 1.9422,-0.6498 2.9133 -0.9748c 0.3919,1.1714 0.7839,2.3428 1.1758 3.5141c 16.6905,-5.5846 33.3810,-11.1691 50.0715 -16.7537c -0.3919,-1.1714 -0.7839,-2.3428 -1.1758 -3.5141c 0.9711,-0.3249 1.9422,-0.6498 2.9132 -0.9748c -1.3992,-4.1817 -2.7984,-8.3634 -4.1975 -12.5451c -0.9711,0.3249 -1.9422,0.6498 -2.9132 0.9748c -2.0023,-5.9843 -4.0047,-11.9687 -6.0070 -17.9530c 0.9711,-0.3249 1.9422,-0.6498 2.9133 -0.9748c -1.3992,-4.1817 -2.7984,-8.3634 -4.1975 -12.5451c -0.9711,0.3249 -1.9422,0.6498 -2.9132 0.9748c -0.3919,-1.1714 -0.7839,-2.3428 -1.1758 -3.5141c -16.6905,5.5846 -33.3810,11.1691 -50.0715 16.7537c 0.3919,1.1714 0.7839,2.3428 1.1758 3.5141c -0.9711,0.3249 -1.9422,0.6498 -2.9133 0.9748ZM 787.4166,19.7556 c 0.0000,3.1311 2.5382,5.6693 5.6693 5.6693c 3.1311,-0.0000 5.6693,-2.5382 5.6693 -5.6693c 0.0000,-3.1311 -2.5382,-5.6693 -5.6693 -5.6693c -3.1311,-0.0000 -5.6693,2.5382 -5.6693 5.6693ZM 818.3054,112.0727 c 0.0000,3.1311 2.5382,5.6693 5.6693 5.6693c 3.1311,-0.0000 5.6693,-2.5382 5.6693 -5.6693c 0.0000,-3.1311 -2.5382,-5.6693 -5.6693 -5.6693c -3.1311,-0.0000 -5.6693,2.5382 -5.6693 5.6693Z"/></g><g stroke-linejoin="miter" stroke-opacity="1.0" fill-opacity="0.5" stroke="rgb(0,0,0)" stroke-width="0.37795275590551186" fill="rgb(0,0,255)" stroke-linecap="butt" stroke-miterlimit="10.0"><path d="M 3.9685,104.8747 c 0.0000,-3.1884 0.4961,-6.4044 1.5635 -9.5946c 7.8831,-23.5602 15.7663,-47.1205 23.6494 -70.6807c 5.2697,-15.7496 22.5183,-24.3493 38.2678 -19.0796c 22.7000,7.5953 45.4001,15.1907 68.1001 22.7860c 0.8602,0.2878 1.7204,0.5757 2.5806 0.8635c 0.0015,0.0005 0.0030,0.0010 0.0045 0.0015c 21.8383,7.3070 43.6767,14.6140 65.5150 21.9210c 0.8602,0.2878 1.7204,0.5756 2.5807 0.8635c 21.8398,7.3075 43.6796,14.6150 65.5194 21.9225c 0.8602,0.2878 1.7204,0.5756 2.5806 0.8634c 0.0016,0.0005 0.0032,0.0011 0.0048 0.0016c 10.9183,3.6532 21.8366,7.3064 32.7549 10.9596c 1.9070,-0.0000 3.8139,-0.0000 5.7209 -0.0000c 7.4240,-10.9196 21.5466,-16.1178 34.6342 -11.7387c 11.6945,3.9129 23.3889,7.8258 35.0834 11.7387c 13.1143,-0.0000 26.2286,-0.0000 39.3429 -0.0000c 13.1143,-0.0000 26.2286,-0.0000 39.3429 -0.0000c 11.6945,-3.9129 23.3889,-7.8258 35.0834 -11.7387c 13.0875,-4.3790 27.2101,0.8192 34.6342 11.7387c 1.9070,-0.0000 3.8139,-0.0000 5.7209 -0.0000c 10.9183,-3.6532 21.8366,-7.3064 32.7549 -10.9596c 0.0016,-0.0005 0.0032,-0.0011 0.0048 -0.0016c 0.8602,-0.2878 1.7204,-0.5756 2.5806 -0.8634c 21.8398,-7.3075 43.6796,-14.6150 65.5194 -21.9225c 0.8602,-0.2878 1.7204,-0.5756 2.5807 -0.8635c 21.8383,-7.3070 43.6767,-14.6140 65.5150 -21.9210c 0.0015,-0.0005 0.0030,-0.0010 0.0045 -0.0015c 0.8602,-0.2878 1.7204,-0.5756 2.5806 -0.8635c 22.7000,-7.5953 45.4001,-15.1906 68.1001 -22.7860c 15.7496,-5.2697 32.9981,3.3301 38.2678 19.0796c 7.8832,23.5602 15.7663,47.1205 23.6494 70.6807c 1.0674,3.1902 1.5635,6.4062 1.5635 9.5946c 0.0000,12.6088 -8.0272,24.4520 -20.6431 28.6732c -22.7000,7.5953 -45.4001,15.1906 -68.1001 22.7860c -0.8602,0.2878 -1.7204,0.5756 -2.5806 0.8635c -0.0017,0.0006 -0.0034,0.0012 -0.0051 0.0017c -21.8381,7.3069 -43.6762,14.6139 -65.5143 21.9208c -0.8602,0.2878 -1.7204,0.5757 -2.5806 0.8635c -0.0011,0.0004 -0.0022,0.0007 -0.0033 0.0011c -21.8387,7.3071 -43.6774,14.6143 -65.5162 21.9214c -0.8603,0.2878 -1.7206,0.5757 -2.5808 0.8635c -10.9199,3.6537 -21.8397,7.3075 -32.7596 10.9612c -11.7802,3.9416 -23.5603,7.8832 -35.3405 11.8248c -13.1219,4.3905 -27.2842,-0.8465 -34.6924 -11.8248c -1.8019,-0.0000 -3.6037,-0.0000 -5.4056 -0.0000c -11.8658,3.9702 -23.7316,7.9405 -35.5974 11.9107c -13.1560,4.4019 -27.3580,-0.8739 -34.7502 -11.9107c -3.9443,-0.0000 -7.8886,-0.0000 -11.8329 -0.0000c -3.9443,-0.0000 -7.8886,-0.0000 -11.8329 -0.0000c -7.3922,11.0368 -21.5942,16.3127 -34.7502 11.9107c -11.8658,-3.9702 -23.7316,-7.9405 -35.5974 -11.9107c -1.8019,-0.0000 -3.6037,-0.0000 -5.4056 -0.0000c -7.4082,10.9783 -21.5705,16.2153 -34.6924 11.8248c -11.7802,-3.9416 -23.5603,-7.8832 -35.3405 -11.8248c -10.9199,-3.6537 -21.8397,-7.3075 -32.7596 -10.9612c -0.8603,-0.2878 -1.7206,-0.5757 -2.5808 -0.8635c -21.8387,-7.3071 -43.6774,-14.6143 -65.5162 -21.9214c -0.0011,-0.0004 -0.0022,-0.0007 -0.0033 -0.0011c -0.8602,-0.2878 -1.7204,-0.5757 -2.5806 -0.8635c -21.8381,-7.3069 -43.6762,-14.6138 -65.5143 -21.9208c -0.0017,-0.0006 -0.0034,-0.0012 -0.0051 -0.0017c -0.8602,-0.2878 -1.7204,-0.5756 -2.5806 -0.8635c -22.7000,-7.5953 -45.4001,-15.1906 -68.1001 -22.7860c -12.6159,-4.2213 -20.6431,-16.0644 -20.6431 -28.6732ZM 14.0986,112.0727 c 0.0000,3.1311 2.5382,5.6693 5.6693 5.6693c 3.1311,-0.0000 5.6693,-2.5382 5.6693 -5.6693c 0.0000,-3.1311 -2.5382,-5.6693 -5.6693 -5.6693c -3.1311,-0.0000 -5.6693,2.5382 -5.6693 5.6693ZM 30.4252,104.8747 c 0.0000,1.5808 0.9996,3.0545 2.5813 3.5837c 22.7000,7.5953 45.4001,15.1906 68.1001 22.7860c 0.8602,0.2878 1.7204,0.5756 2.5806 0.8635c 0.0017,0.0006 0.0034,0.0011 0.0051 0.0017c 21.8381,7.3069 43.6762,14.6139 65.5143 21.9208c 0.8602,0.2878 1.7204,0.5756 2.5806 0.8635c 0.0011,0.0004 0.0022,0.0007 0.0033 0.0011c 21.8387,7.3071 43.6774,14.6143 65.5161 21.9214c 0.8602,0.2878 1.7204,0.5756 2.5806 0.8635c 22.7000,7.5953 45.4001,15.1907 68.1001 22.7860c 1.9795,0.6623 4.1211,-0.4054 4.7835 -2.3850c 2.1320,-6.3719 4.2640,-12.7439 6.3961 -19.1158c 21.5053,7.1956 43.0106,14.3911 64.5159 21.5867c 1.9795,0.6623 4.1211,-0.4054 4.7835 -2.3850c 7.8831,-23.5602 15.7663,-47.1205 23.6494 -70.6807c 0.1331,-0.3978 0.1963,-0.8022 0.1963 -1.1998c 0.0000,-1.5808 -0.9996,-3.0545 -2.5813 -3.5837c -23.5602,-7.8831 -47.1205,-15.7663 -70.6807 -23.6494c -1.9795,-0.6623 -4.1211,0.4054 -4.7835 2.3850c -2.1320,6.3719 -4.2640,12.7439 -6.3961 19.1158c -20.6435,-6.9072 -41.2869,-13.8144 -61.9304 -20.7216c -0.0016,-0.0005 -0.0032,-0.0011 -0.0048 -0.0016c -0.8602,-0.2878 -1.7204,-0.5756 -2.5806 -0.8635c -21.8398,-7.3075 -43.6796,-14.6150 -65.5195 -21.9225c -0.8602,-0.2878 -1.7204,-0.5756 -2.5806 -0.8635c -21.8383,-7.3070 -43.6767,-14.6140 -65.5150 -21.9210c -0.0015,-0.0005 -0.0030,-0.0010 -0.0045 -0.0015c -0.8602,-0.2878 -1.7204,-0.5756 -2.5806 -0.8635c -22.7000,-7.5953 -45.4001,-15.1906 -68.1001 -22.7860c -1.9795,-0.6623 -4.1211,0.4054 -4.7835 2.3850c -7.8831,23.5602 -15.7663,47.1205 -23.6494 70.6807c -0.1331,0.3978 -0.1963,0.8022 -0.1963 1.1998ZM 44.9874,19.7556 c 0.0000,3.1311 2.5382,5.6693 5.6693 5.6693c 3.1311,-0.0000 5.6693,-2.5382 5.6693 -5.6693c 0.0000,-3.1311 -2.5382,-5.6693 -5.6693 -5.6693c -3.1311,-0.0000 -5.6693,2.5382 -5.6693 5.6693ZM 310.7159,211.3195 c 0.0000,3.1311 2.5382,5.6693 5.6693 5.6693c 3.1311,-0.0000 5.6693,-2.5382 5.6693 -5.6693c 0.0000,-3.1311 -2.5382,-5.6693 -5.6693 -5.6693c -3.1311,-0.0000 -5.6693,2.5382 -5.6693 5.6693ZM 387.8556,99.6450 c 0.0000,3.1311 2.5382,5.6693 5.6693 5.6693c 3.1311,-0.0000 5.6693,-2.5382 5.6693 -5.6693c 0.0000,-3.1311 -2.5382,-5.6693 -5.6693 -5.6693c -3.1311,-0.0000 -5.6693,2.5382 -5.6693 5.6693ZM 431.4304,126.2863 c 0.0000,0.3976 0.0632,0.8020 0.1963 1.1998c 7.8831,23.5602 15.7663,47.1205 23.6494 70.6807c 0.6623,1.9795 2.8040,3.0473 4.7835 2.3850c 21.5053,-7.1956 43.0106,-14.3911 64.5159 -21.5867c 2.1320,6.3719 4.2640,12.7439 6.3961 19.1158c 0.6623,1.9795 2.8040,3.0473 4.7835 2.3850c 22.7000,-7.5953 45.4001,-15.1907 68.1001 -22.7860c 0.8602,-0.2878 1.7204,-0.5756 2.5806 -0.8635c 21.8387,-7.3071 43.6774,-14.6143 65.5161 -21.9214c 0.0011,-0.0004 0.0022,-0.0007 0.0033 -0.0011c 0.8602,-0.2878 1.7204,-0.5756 2.5806 -0.8635c 21.8381,-7.3069 43.6762,-14.6139 65.5143 -21.9208c 0.0017,-0.0006 0.0034,-0.0011 0.0051 -0.0017c 0.8602,-0.2878 1.7204,-0.5756 2.5806 -0.8635c 22.7000,-7.5953 45.4001,-15.1906 68.1001 -22.7860c 1.5817,-0.5292 2.5813,-2.0029 2.5813 -3.5837c 0.0000,-0.3976 -0.0632,-0.8020 -0.1963 -1.1998c -7.8831,-23.5602 -15.7663,-47.1205 -23.6494 -70.6807c -0.6623,-1.9795 -2.8040,-3.0473 -4.7835 -2.3850c -22.7000,7.5953 -45.4001,15.1907 -68.1001 22.7860c -0.8602,0.2878 -1.7204,0.5756 -2.5806 0.8635c -0.0015,0.0005 -0.0030,0.0010 -0.0045 0.0015c -21.8383,7.3070 -43.6767,14.6140 -65.5150 21.9210c -0.8602,0.2878 -1.7204,0.5756 -2.5806 0.8635c -21.8398,7.3075 -43.6796,14.6150 -65.5195 21.9225c -0.8602,0.2878 -1.7204,0.5756 -2.5806 0.8635c -0.0016,0.0005 -0.0032,0.0011 -0.0048 0.0016c -20.6435,6.9072 -41.2869,13.8144 -61.9304 20.7216c -2.1320,-6.3719 -4.2640,-12.7439 -6.3961 -19.1158c -0.6623,-1.9795 -2.8040,-3.0473 -4.7835 -2.3850c -23.5602,7.8831 -47.1205,15.7663 -70.6807 23.6494c -1.5817,0.5292 -2.5813,2.0029 -2.5813 3.5837ZM 444.5485,99.6450 c 0.0000,3.1311 2.5382,5.6693 5.6693 5.6693c 3.1311,-0.0000 5.6693,-2.5382 5.6693 -5.6693c 0.0000,-3.1311 -2.5382,-5.6693 -5.6693 -5.6693c -3.1311,-0.0000 -5.6693,2.5382 -5.6693 5.6693ZM 521.6881,211.3195 c 0.0000,3.1311 2.5382,5.6693 5.6693 5.6693c 3.1311,-0.0000 5.6693,-2.5382 5.6693 -5.6693c 0.0000,-3.1311 -2.5382,-5.6693 -5.6693 -5.6693c -3.1311,-0.0000 -5.6693,2.5382 -5.6693 5.6693ZM 787.4166,19.7556 c 0.0000,3.1311 2.5382,5.6693 5.6693 5.6693c 3.1311,-0.0000 5.6693,-2.5382 5.6693 -5.6693c 0.0000,-3.1311 -2.5382,-5.6693 -5.6693 -5.6693c -3.1311,-0.0000 -5.6693,2.5382 -5.6693 5.6693ZM 818.3054,112.0727 c 0.0000,3.1311 2.5382,5.6693 5.6693 5.6693c 3.1311,-0.0000 5.6693,-2.5382 5.6693 -5.6693c 0.0000,-3.1311 -2.5382,-5.6693 -5.6693 -5.6693c -3.1311,-0.0000 -5.6693,2.5382 -5.6693 5.6693Z"/></g><g stroke-linejoin="miter" stroke-opacity="1.0" fill-opacity="0.7" stroke="rgb(0,0,0)" stroke-width="0.37795275590551186" fill="rgb(0,0,0)" stroke-linecap="butt" stroke-miterlimit="10.0"><path d="M 319.1113,164.8976 l 17.5932,-52.5804 c 1.3247,-3.9590 5.6079,-6.0946 9.5670 -4.7699l 52.5804,17.5932 c 3.9590,1.3247 6.0946,5.6079 4.7699 9.5670l -17.5932,52.5804 c -1.3247,3.9590 -5.6079,6.0946 -9.5670 4.7699l -52.5804,-17.5932 c -3.9590,-1.3247 -6.0946,-5.6079 -4.7699 -9.5670Z"/></g><defs><linearGradient x2="5.0000" y1="0.0000" gradientUnits="userSpaceOnUse" spreadMethod="pad" gradientTransform="matrix(-3.5842,-1.1993,1.1993,-3.5842,361.3665,149.8025)" id="gradient10" y2="0.0000" x1="-5.0000"><stop stop-opacity="0.1000" offset="0.0000" stop-color="rgb(0,0,0)"/><stop stop-opacity="0.1000" offset="0.5000" stop-color="rgb(255,255,255)"/><stop stop-opacity="0.1000" offset="1.0000" stop-color="rgb(0,0,0)"/></linearGradient></defs><g stroke-linejoin="miter" stroke-opacity="1.0" fill-opacity="1" stroke="rgb(0,0,0)" stroke-width="0.37795275590551186" fill="url(#gradient10)" stroke-linecap="butt" stroke-miterlimit="10.0"><path d="M 332.7442,158.1005 l 10.7574,-32.1504 c 1.3247,-3.9590 5.6079,-6.0946 9.5670 -4.7699l 32.1504,10.7574 c 3.9590,1.3247 6.0946,5.6079 4.7699 9.5670l -10.7574,32.1504 c -1.3247,3.9590 -5.6079,6.0946 -9.5670 4.7699l -32.1504,-10.7574 c -3.9590,-1.3247 -6.0946,-5.6079 -4.7699 -9.5670Z"/></g><g stroke-linejoin="miter" stroke-opacity="1.0" fill-opacity="0.7" stroke="rgb(0,0,0)" stroke-width="0.37795275590551186" fill="rgb(0,0,0)" stroke-linecap="butt" stroke-miterlimit="10.0"><path d="M 39.1156,96.4537 l 17.5932,-52.5804 c 1.3247,-3.9590 5.6079,-6.0946 9.5670 -4.7699l 52.5804,17.5932 c 3.9590,1.3247 6.0946,5.6079 4.7699 9.5670l -17.5932,52.5804 c -1.3247,3.9590 -5.6079,6.0946 -9.5670 4.7699l -52.5804,-17.5932 c -3.9590,-1.3247 -6.0946,-5.6079 -4.7699 -9.5670Z"/></g><defs><linearGradient x2="5.0000" y1="0.0000" gradientUnits="userSpaceOnUse" spreadMethod="pad" gradientTransform="matrix(-3.5842,-1.1993,1.1993,-3.5842,81.3708,81.3586)" id="gradient14" y2="0.0000" x1="-5.0000"><stop stop-opacity="0.1000" offset="0.0000" stop-color="rgb(0,0,0)"/><stop stop-opacity="0.1000" offset="0.5000" stop-color="rgb(255,255,255)"/><stop stop-opacity="0.1000" offset="1.0000" stop-color="rgb(0,0,0)"/></linearGradient></defs><g stroke-linejoin="miter" stroke-opacity="1.0" fill-opacity="1" stroke="rgb(0,0,0)" stroke-width="0.37795275590551186" fill="url(#gradient14)" stroke-linecap="butt" stroke-miterlimit="10.0"><path d="M 52.7485,89.6566 l 10.7574,-32.1504 c 1.3247,-3.9590 5.6079,-6.0946 9.5670 -4.7699l 32.1504,10.7574 c 3.9590,1.3247 6.0946,5.6079 4.7699 9.5670l -10.7574,32.1504 c -1.3247,3.9590 -5.6079,6.0946 -9.5670 4.7699l -32.1504,-10.7574 c -3.9590,-1.3247 -6.0946,-5.6079 -4.7699 -9.5670Z"/></g><g stroke-linejoin="miter" stroke-opacity="1.0" fill-opacity="0.7" stroke="rgb(0,0,0)" stroke-width="0.37795275590551186" fill="rgb(0,0,0)" stroke-linecap="butt" stroke-miterlimit="10.0"><path d="M 107.2157,119.2397 l 17.5932,-52.5804 c 1.3247,-3.9590 5.6079,-6.0946 9.5670 -4.7699l 52.5804,17.5932 c 3.9590,1.3247 6.0946,5.6079 4.7699 9.5670l -17.5932,52.5804 c -1.3247,3.9590 -5.6079,6.0946 -9.5670 4.7699l -52.5804,-17.5932 c -3.9590,-1.3247 -6.0946,-5.6079 -4.7699 -9.5670Z"/></g><defs><linearGradient x2="5.0000" y1="0.0000" gradientUnits="userSpaceOnUse" spreadMethod="pad" gradientTransform="matrix(-3.5842,-1.1993,1.1993,-3.5842,149.4709,104.1446)" id="gradient18" y2="0.0000" x1="-5.0000"><stop stop-opacity="0.1000" offset="0.0000" stop-color="rgb(0,0,0)"/><stop stop-opacity="0.1000" offset="0.5000" stop-color="rgb(255,255,255)"/><stop stop-opacity="0.1000" offset="1.0000" stop-color="rgb(0,0,0)"/></linearGradient></defs><g stroke-linejoin="miter" stroke-opacity="1.0" fill-opacity="1" stroke="rgb(0,0,0)" stroke-width="0.37795275590551186" fill="url(#gradient18)" stroke-linecap="butt" stroke-miterlimit="10.0"><path d="M 120.8486,112.4426 l 10.7574,-32.1504 c 1.3247,-3.9590 5.6079,-6.0946 9.5670 -4.7699l 32.1504,10.7574 c 3.9590,1.3247 6.0946,5.6079 4.7699 9.5670l -10.7574,32.1504 c -1.3247,3.9590 -5.6079,6.0946 -9.5670 4.7699l -32.1504,-10.7574 c -3.9590,-1.3247 -6.0946,-5.6079 -4.7699 -9.5670Z"/></g><g stroke-linejoin="miter" stroke-opacity="1.0" fill-opacity="0.7" stroke="rgb(0,0,0)" stroke-width="0.37795275590551186" fill="rgb(0,0,0)" stroke-linecap="butt" stroke-miterlimit="10.0"><path d="M 175.3158,142.0257 l 17.5932,-52.5804 c 1.3247,-3.9590 5.6079,-6.0946 9.5670 -4.7699l 52.5804,17.5932 c 3.9590,1.3247 6.0946,5.6079 4.7699 9.5670l -17.5932,52.5804 c -1.3247,3.9590 -5.6079,6.0946 -9.5670 4.7699l -52.5804,-17.5932 c -3.9590,-1.3247 -6.0946,-5.6079 -4.7699 -9.5670Z"/></g><defs><linearGradient x2="5.0000" y1="0.0000" gradientUnits="userSpaceOnUse" spreadMethod="pad" gradientTransform="matrix(-3.5842,-1.1993,1.1993,-3.5842,217.5710,126.9305)" id="gradient22" y2="0.0000" x1="-5.0000"><stop stop-opacity="0.1000" offset="0.0000" stop-color="rgb(0,0,0)"/><stop stop-opacity="0.1000" offset="0.5000" stop-color="rgb(255,255,255)"/><stop stop-opacity="0.1000" offset="1.0000" stop-color="rgb(0,0,0)"/></linearGradient></defs><g stroke-linejoin="miter" stroke-opacity="1.0" fill-opacity="1" stroke="rgb(0,0,0)" stroke-width="0.37795275590551186" fill="url(#gradient22)" stroke-linecap="butt" stroke-miterlimit="10.0"><path d="M 188.9487,135.2285 l 10.7574,-32.1504 c 1.3247,-3.9590 5.6079,-6.0946 9.5670 -4.7699l 32.1504,10.7574 c 3.9590,1.3247 6.0946,5.6079 4.7699 9.5670l -10.7574,32.1504 c -1.3247,3.9590 -5.6079,6.0946 -9.5670 4.7699l -32.1504,-10.7574 c -3.9590,-1.3247 -6.0946,-5.6079 -4.7699 -9.5670Z"/></g><g stroke-linejoin="miter" stroke-opacity="1.0" fill-opacity="0.7" stroke="rgb(0,0,0)" stroke-width="0.37795275590551186" fill="rgb(0,0,0)" stroke-linecap="butt" stroke-miterlimit="10.0"><path d="M 243.4159,164.8116 l 17.5932,-52.5804 c 1.3247,-3.9590 5.6079,-6.0946 9.5670 -4.7699l 52.5804,17.5932 c 3.9590,1.3247 6.0946,5.6079 4.7699 9.5670l -17.5932,52.5804 c -1.3247,3.9590 -5.6079,6.0946 -9.5670 4.7699l -52.5804,-17.5932 c -3.9590,-1.3247 -6.0946,-5.6079 -4.7699 -9.5670Z"/></g><defs><linearGradient x2="5.0000" y1="0.0000" gradientUnits="userSpaceOnUse" spreadMethod="pad" gradientTransform="matrix(-3.5842,-1.1993,1.1993,-3.5842,285.6711,149.7165)" id="gradient26" y2="0.0000" x1="-5.0000"><stop stop-opacity="0.1000" offset="0.0000" stop-color="rgb(0,0,0)"/><stop stop-opacity="0.1000" offset="0.5000" stop-color="rgb(255,255,255)"/><stop stop-opacity="0.1000" offset="1.0000" stop-color="rgb(0,0,0)"/></linearGradient></defs><g stroke-linejoin="miter" stroke-opacity="1.0" fill-opacity="1" stroke="rgb(0,0,0)" stroke-width="0.37795275590551186" fill="url(#gradient26)" stroke-linecap="butt" stroke-miterlimit="10.0"><path d="M 257.0488,158.0145 l 10.7574,-32.1504 c 1.3247,-3.9590 5.6079,-6.0946 9.5670 -4.7699l 32.1504,10.7574 c 3.9590,1.3247 6.0946,5.6079 4.7699 9.5670l -10.7574,32.1504 c -1.3247,3.9590 -5.6079,6.0946 -9.5670 4.7699l -32.1504,-10.7574 c -3.9590,-1.3247 -6.0946,-5.6079 -4.7699 -9.5670Z"/></g><g stroke-linejoin="miter" stroke-opacity="1.0" fill-opacity="0.7" stroke="rgb(0,0,0)" stroke-width="0.37795275590551186" fill="rgb(0,0,0)" stroke-linecap="butt" stroke-miterlimit="10.0"><path d="M 524.6313,164.8976 l -17.5932,-52.5804 c -1.3247,-3.9590 -5.6079,-6.0946 -9.5670 -4.7699l -52.5804,17.5932 c -3.9590,1.3247 -6.0946,5.6079 -4.7699 9.5670l 17.5932,52.5804 c 1.3247,3.9590 5.6079,6.0946 9.5670 4.7699l 52.5804,-17.5932 c 3.9590,-1.3247 6.0946,-5.6079 4.7699 -9.5670Z"/></g><defs><linearGradient x2="5.0000" y1="0.0000" gradientUnits="userSpaceOnUse" spreadMethod="pad" gradientTransform="matrix(3.5842,-1.1993,-1.1993,-3.5842,482.3761,149.8025)" id="gradient30" y2="0.0000" x1="-5.0000"><stop stop-opacity="0.1000" offset="0.0000" stop-color="rgb(0,0,0)"/><stop stop-opacity="0.1000" offset="0.5000" stop-color="rgb(255,255,255)"/><stop stop-opacity="0.1000" offset="1.0000" stop-color="rgb(0,0,0)"/></linearGradient></defs><g stroke-linejoin="miter" stroke-opacity="1.0" fill-opacity="1" stroke="rgb(0,0,0)" stroke-width="0.37795275590551186" fill="url(#gradient30)" stroke-linecap="butt" stroke-miterlimit="10.0"><path d="M 510.9984,158.1005 l -10.7574,-32.1504 c -1.3247,-3.9590 -5.6079,-6.0946 -9.5670 -4.7699l -32.1504,10.7574 c -3.9590,1.3247 -6.0946,5.6079 -4.7699 9.5670l 10.7574,32.1504 c 1.3247,3.9590 5.6079,6.0946 9.5670 4.7699l 32.1504,-10.7574 c 3.9590,-1.3247 6.0946,-5.6079 4.7699 -9.5670Z"/></g><g stroke-linejoin="miter" stroke-opacity="1.0" fill-opacity="0.7" stroke="rgb(0,0,0)" stroke-width="0.37795275590551186" fill="rgb(0,0,0)" stroke-linecap="butt" stroke-miterlimit="10.0"><path d="M 804.6270,96.4537 l -17.5932,-52.5804 c -1.3247,-3.9590 -5.6079,-6.0946 -9.5670 -4.7699l -52.5804,17.5932 c -3.9590,1.3247 -6.0946,5.6079 -4.7699 9.5670l 17.5932,52.5804 c 1.3247,3.9590 5.6079,6.0946 9.5670 4.7699l 52.5804,-17.5932 c 3.9590,-1.3247 6.0946,-5.6079 4.7699 -9.5670Z"/></g><defs><linearGradient x2="5.0000" y1="0.0000" gradientUnits="userSpaceOnUse" spreadMethod="pad" gradientTransform="matrix(3.5842,-1.1993,-1.1993,-3.5842,762.3718,81.3586)" id="gradient34" y2="0.0000" x1="-5.0000"><stop stop-opacity="0.1000" offset="0.0000" stop-color="rgb(0,0,0)"/><stop stop-opacity="0.1000" offset="0.5000" stop-color="rgb(255,255,255)"/><stop stop-opacity="0.1000" offset="1.0000" stop-color="rgb(0,0,0)"/></linearGradient></defs><g stroke-linejoin="miter" stroke-opacity="1.0" fill-opacity="1" stroke="rgb(0,0,0)" stroke-width="0.37795275590551186" fill="url(#gradient34)" stroke-linecap="butt" stroke-miterlimit="10.0"><path d="M 790.9941,89.6566 l -10.7574,-32.1504 c -1.3247,-3.9590 -5.6079,-6.0946 -9.5670 -4.7699l -32.1504,10.7574 c -3.9590,1.3247 -6.0946,5.6079 -4.7699 9.5670l 10.7574,32.1504 c 1.3247,3.9590 5.6079,6.0946 9.5670 4.7699l 32.1504,-10.7574 c 3.9590,-1.3247 6.0946,-5.6079 4.7699 -9.5670Z"/></g><g stroke-linejoin="miter" stroke-opacity="1.0" fill-opacity="0.7" stroke="rgb(0,0,0)" stroke-width="0.37795275590551186" fill="rgb(0,0,0)" stroke-linecap="butt" stroke-miterlimit="10.0"><path d="M 736.5269,119.2397 l -17.5932,-52.5804 c -1.3247,-3.9590 -5.6079,-6.0946 -9.5670 -4.7699l -52.5804,17.5932 c -3.9590,1.3247 -6.0946,5.6079 -4.7699 9.5670l 17.5932,52.5804 c 1.3247,3.9590 5.6079,6.0946 9.5670 4.7699l 52.5804,-17.5932 c 3.9590,-1.3247 6.0946,-5.6079 4.7699 -9.5670Z"/></g><defs><linearGradient x2="5.0000" y1="0.0000" gradientUnits="userSpaceOnUse" spreadMethod="pad" gradientTransform="matrix(3.5842,-1.1993,-1.1993,-3.5842,694.2717,104.1446)" id="gradient38" y2="0.0000" x1="-5.0000"><stop stop-opacity="0.1000" offset="0.0000" stop-color="rgb(0,0,0)"/><stop stop-opacity="0.1000" offset="0.5000" stop-color="rgb(255,255,255)"/><stop stop-opacity="0.1000" offset="1.0000" stop-color="rgb(0,0,0)"/></linearGradient></defs><g stroke-linejoin="miter" stroke-opacity="1.0" fill-opacity="1" stroke="rgb(0,0,0)" stroke-width="0.37795275590551186" fill="url(#gradient38)" stroke-linecap="butt" stroke-miterlimit="10.0"><path d="M 722.8940,112.4426 l -10.7574,-32.1504 c -1.3247,-3.9590 -5.6079,-6.0946 -9.5670 -4.7699l -32.1504,10.7574 c -3.9590,1.3247 -6.0946,5.6079 -4.7699 9.5670l 10.7574,32.1504 c 1.3247,3.9590 5.6079,6.0946 9.5670 4.7699l 32.1504,-10.7574 c 3.9590,-1.3247 6.0946,-5.6079 4.7699 -9.5670Z"/></g><g stroke-linejoin="miter" stroke-opacity="1.0" fill-opacity="0.7" stroke="rgb(0,0,0)" stroke-width="0.37795275590551186" fill="rgb(0,0,0)" stroke-linecap="butt" stroke-miterlimit="10.0"><path d="M 668.4268,142.0257 l -17.5932,-52.5804 c -1.3247,-3.9590 -5.6079,-6.0946 -9.5670 -4.7699l -52.5804,17.5932 c -3.9590,1.3247 -6.0946,5.6079 -4.7699 9.5670l 17.5932,52.5804 c 1.3247,3.9590 5.6079,6.0946 9.5670 4.7699l 52.5804,-17.5932 c 3.9590,-1.3247 6.0946,-5.6079 4.7699 -9.5670Z"/></g><defs><linearGradient x2="5.0000" y1="0.0000" gradientUnits="userSpaceOnUse" spreadMethod="pad" gradientTransform="matrix(3.5842,-1.1993,-1.1993,-3.5842,626.1716,126.9305)" id="gradient42" y2="0.0000" x1="-5.0000"><stop stop-opacity="0.1000" offset="0.0000" stop-color="rgb(0,0,0)"/><stop stop-opacity="0.1000" offset="0.5000" stop-color="rgb(255,255,255)"/><stop stop-opacity="0.1000" offset="1.0000" stop-color="rgb(0,0,0)"/></linearGradient></defs><g stroke-linejoin="miter" stroke-opacity="1.0" fill-opacity="1" stroke="rgb(0,0,0)" stroke-width="0.37795275590551186" fill="url(#gradient42)" stroke-linecap="butt" stroke-miterlimit="10.0"><path d="M 654.7939,135.2285 l -10.7574,-32.1504 c -1.3247,-3.9590 -5.6079,-6.0946 -9.5670 -4.7699l -32.1504,10.7574 c -3.9590,1.3247 -6.0946,5.6079 -4.7699 9.5670l 10.7574,32.1504 c 1.3247,3.9590 5.6079,6.0946 9.5670 4.7699l 32.1504,-10.7574 c 3.9590,-1.3247 6.0946,-5.6079 4.7699 -9.5670Z"/></g><g stroke-linejoin="miter" stroke-opacity="1.0" fill-opacity="0.7" stroke="rgb(0,0,0)" stroke-width="0.37795275590551186" fill="rgb(0,0,0)" stroke-linecap="butt" stroke-miterlimit="10.0"><path d="M 600.3267,164.8116 l -17.5932,-52.5804 c -1.3247,-3.9590 -5.6079,-6.0946 -9.5670 -4.7699l -52.5804,17.5932 c -3.9590,1.3247 -6.0946,5.6079 -4.7699 9.5670l 17.5932,52.5804 c 1.3247,3.9590 5.6079,6.0946 9.5670 4.7699l 52.5804,-17.5932 c 3.9590,-1.3247 6.0946,-5.6079 4.7699 -9.5670Z"/></g><defs><linearGradient x2="5.0000" y1="0.0000" gradientUnits="userSpaceOnUse" spreadMethod="pad" gradientTransform="matrix(3.5842,-1.1993,-1.1993,-3.5842,558.0715,149.7165)" id="gradient46" y2="0.0000" x1="-5.0000"><stop stop-opacity="0.1000" offset="0.0000" stop-color="rgb(0,0,0)"/><stop stop-opacity="0.1000" offset="0.5000" stop-color="rgb(255,255,255)"/><stop stop-opacity="0.1000" offset="1.0000" stop-color="rgb(0,0,0)"/></linearGradient></defs><g stroke-linejoin="miter" stroke-opacity="1.0" fill-opacity="1" stroke="rgb(0,0,0)" stroke-width="0.37795275590551186" fill="url(#gradient46)" stroke-linecap="butt" stroke-miterlimit="10.0"><path d="M 586.6938,158.0145 l -10.7574,-32.1504 c -1.3247,-3.9590 -5.6079,-6.0946 -9.5670 -4.7699l -32.1504,10.7574 c -3.9590,1.3247 -6.0946,5.6079 -4.7699 9.5670l 10.7574,32.1504 c 1.3247,3.9590 5.6079,6.0946 9.5670 4.7699l 32.1504,-10.7574 c 3.9590,-1.3247 6.0946,-5.6079 4.7699 -9.5670Z"/></g><g stroke-linejoin="miter" stroke-opacity="1.0" fill-opacity="0.5" stroke="rgb(0,0,0)" stroke-width="0.37795275590551186" fill="rgb(0,0,0)" stroke-linecap="butt" stroke-miterlimit="10.0"><path d="M 44.6559,30.1493 l -6.0008,-10.3937 l 6.0008,-10.3937 l 12.0016,-0.0000 l 6.0008,10.3937 l -6.0008,10.3937 Z"/></g><g stroke-linejoin="miter" stroke-opacity="1.0" fill-opacity="0.5" stroke="rgb(0,0,0)" stroke-width="0.37795275590551186" fill="rgb(0,0,0)" stroke-linecap="butt" stroke-miterlimit="10.0"><path d="M 387.5240,110.0387 l -6.0008,-10.3937 l 6.0008,-10.3937 l 12.0016,-0.0000 l 6.0008,10.3937 l -6.0008,10.3937 Z"/></g><g stroke-linejoin="miter" stroke-opacity="1.0" fill-opacity="0.5" stroke="rgb(0,0,0)" stroke-width="0.37795275590551186" fill="rgb(0,0,0)" stroke-linecap="butt" stroke-miterlimit="10.0"><path d="M 13.7671,122.4664 l -6.0008,-10.3937 l 6.0008,-10.3937 l 12.0016,-0.0000 l 6.0008,10.3937 l -6.0008,10.3937 Z"/></g><g stroke-linejoin="miter" stroke-opacity="1.0" fill-opacity="0.5" stroke="rgb(0,0,0)" stroke-width="0.37795275590551186" fill="rgb(0,0,0)" stroke-linecap="butt" stroke-miterlimit="10.0"><path d="M 310.3844,221.7132 l -6.0008,-10.3937 l 6.0008,-10.3937 l 12.0016,-0.0000 l 6.0008,10.3937 l -6.0008,10.3937 Z"/></g><g stroke-linejoin="miter" stroke-opacity="1.0" fill-opacity="0.5" stroke="rgb(0,0,0)" stroke-width="0.37795275590551186" fill="rgb(0,0,0)" stroke-linecap="butt" stroke-miterlimit="10.0"><path d="M 799.0867,30.1493 l 6.0008,-10.3937 l -6.0008,-10.3937 l -12.0016,-0.0000 l -6.0008,10.3937 l 6.0008,10.3937 Z"/></g><g stroke-linejoin="miter" stroke-opacity="1.0" fill-opacity="0.5" stroke="rgb(0,0,0)" stroke-width="0.37795275590551186" fill="rgb(0,0,0)" stroke-linecap="butt" stroke-miterlimit="10.0"><path d="M 456.2186,110.0387 l 6.0008,-10.3937 l -6.0008,-10.3937 l -12.0016,-0.0000 l -6.0008,10.3937 l 6.0008,10.3937 Z"/></g><g stroke-linejoin="miter" stroke-opacity="1.0" fill-opacity="0.5" stroke="rgb(0,0,0)" stroke-width="0.37795275590551186" fill="rgb(0,0,0)" stroke-linecap="butt" stroke-miterlimit="10.0"><path d="M 829.9755,122.4664 l 6.0008,-10.3937 l -6.0008,-10.3937 l -12.0016,-0.0000 l -6.0008,10.3937 l 6.0008,10.3937 Z"/></g><g stroke-linejoin="miter" stroke-opacity="1.0" fill-opacity="0.5" stroke="rgb(0,0,0)" stroke-width="0.37795275590551186" fill="rgb(0,0,0)" stroke-linecap="butt" stroke-miterlimit="10.0"><path d="M 533.3582,221.7132 l 6.0008,-10.3937 l -6.0008,-10.3937 l -12.0016,-0.0000 l -6.0008,10.3937 l 6.0008,10.3937 Z"/></g></svg>