<?xml version="1.0" encoding="UTF-8"?>
<!DOCTYPE svg PUBLIC "-//W3C//DTD SVG 1.1//EN"
    "http://www.w3.org/Graphics/SVG/1.1/DTD/svg11.dtd"><svg xmlns="http://www.w3.org/2000/svg" height="2529.7937" stroke-opacity="1" viewBox="0 0 595 2530" font-size="1" width="595.2395" xmlns:xlink="http://www.w3.org/1999/xlink" stroke="rgb(0,0,0)" version="1.1"><defs></defs><defs><linearGradient x2="38.8476" y1="0.0000" gradientUnits="userSpaceOnUse" spreadMethod="pad" gradientTransform="matrix(3.7795,-0.0000,0.0000,-3.7795,16.2520,2481.2417)" id="gradient0" y2="-60.0000" x1="-38.8476"><stop stop-opacity="1.0000" offset="0.0000" stop-color="rgb(128,128,128)"/><stop stop-opacity="1.0000" offset="0.5000" stop-color="rgb(255,255,255)"/><stop stop-opacity="1.0000" offset="1.0000" stop-color="rgb(128,128,128)"/></linearGradient></defs><g stroke-linejoin="miter" stroke-opacity="1.0" fill-opacity="1" stroke="rgb(0,0,0)" stroke-width="0.7559055118110237" fill="url(#gradient0)" stroke-linecap="butt" stroke-miterlimit="10.0"><path d="M 3.9685,2048.8554 c 0.0000,-6.7840 5.4995,-12.2835 12.2835 -12.2835c 165.8190,-0.0000 331.6381,-0.0000 497.4571 -0.0000c 5.9611,-0.0000 11.0617,4.2799 12.0969 10.1505c 21.7589,123.4009 43.5178,246.8017 65.2767 370.2026c 0.1270,0.7202 0.1884,1.4373 0.1884 2.1451c 0.0000,5.6369 -3.8943,10.6833 -9.5744 11.9685c -139.1905,31.4946 -278.3811,62.9892 -417.5716 94.4837c -0.8896,0.2013 -1.7988,0.3029 -2.7108 0.3029c -48.3874,-0.0000 -96.7748,-0.0000 -145.1622 -0.0000c -6.7840,-0.0000 -12.2835,-5.4995 -12.2835 -12.2835c 0.0000,-154.8954 0.0000,-309.7909 0.0000 -464.6863ZM 86.1732,2052.6349 c 0.0000,3.1311 2.5382,5.6693 5.6693 5.6693c 3.1311,-0.0000 5.6693,-2.5382 5.6693 -5.6693c 0.0000,-3.1310 -2.5382,-5.6693 -5.6693 -5.6693c -3.1310,-0.0000 -5.6693,2.5382 -5.6693 5.6693ZM 155.7449,2509.7622 c 0.0000,3.1311 2.5382,5.6693 5.6693 5.6693c 3.1311,-0.0000 5.6693,-2.5382 5.6693 -5.6693c 0.0000,-3.1310 -2.5382,-5.6693 -5.6693 -5.6693c -3.1310,-0.0000 -5.6693,2.5382 -5.6693 5.6693ZM 504.2602,2052.6349 c 0.0000,3.1311 2.5382,5.6693 5.6693 5.6693c 3.1310,-0.0000 5.6693,-2.5382 5.6693 -5.6693c 0.0000,-3.1310 -2.5382,-5.6693 -5.6693 -5.6693c -3.1310,-0.0000 -5.6693,2.5382 -5.6693 5.6693ZM 569.5369,2415.2785 c 0.0000,3.1311 2.5382,5.6693 5.6693 5.6693c 3.1310,-0.0000 5.6693,-2.5382 5.6693 -5.6693c 0.0000,-3.1310 -2.5382,-5.6693 -5.6693 -5.6693c -3.1311,-0.0000 -5.6693,2.5382 -5.6693 5.6693Z"/></g><g stroke-linejoin="miter" stroke-opacity="1.0" fill-opacity="0.5" stroke="rgb(0,0,0)" stroke-width="0.7559055118110237" fill="rgb(255,255,0)" stroke-linecap="butt" stroke-miterlimit="10.0"><path d="M 3.9685,2048.8554 c 0.0000,-6.7839 5.4995,-12.2835 12.2835 -12.2835c 24.1260,-0.0000 48.2520,-0.0000 72.3780 -0.0000c 2.1416,-0.0000 4.2833,-0.0000 6.4250 -0.0000c 137.2206,-0.0000 274.4413,-0.0000 411.6620 -0.0000c 2.1416,-0.0000 4.2833,-0.0000 6.4250 -0.0000c 0.1890,-0.0000 0.3780,-0.0000 0.5670 -0.0000c 5.9611,-0.0000 11.0617,4.2799 12.0969 10.1505c 21.1744,120.0858 42.3488,240.1716 63.5231 360.2574c 0.5846,3.3150 1.1690,6.6301 1.7536 9.9453c 0.0953,0.5407 0.1537,1.0798 0.1769 1.6144c 0.0077,0.1775 0.0115,0.3544 0.0115 0.5307c 0.0000,5.6369 -3.8944,10.6833 -9.5744 11.9685c -137.7325,31.1647 -275.4649,62.3293 -413.1974 93.4940c -1.4581,0.3300 -2.9161,0.6599 -4.3742 0.9898c -0.8896,0.2013 -1.7988,0.3028 -2.7109 0.3028c -1.0709,-0.0000 -2.1418,-0.0000 -3.2127 -0.0000c -47.3165,-0.0000 -94.6330,-0.0000 -141.9495 -0.0000c -6.7840,-0.0000 -12.2835,-5.4995 -12.2835 -12.2835c 0.0000,-154.8954 0.0000,-309.7908 -0.0000 -464.6863ZM 27.5942,2070.3939 c 0.0000,140.5365 0.0000,281.0729 0.0000 421.6093c 0.0000,6.1552 5.0748,11.1448 11.3349 11.1448c 35.8325,-0.0000 71.6651,-0.0000 107.4976 -0.0000c 2.5416,-5.7507 8.2959,-9.7638 14.9874 -9.7638c 6.5138,-0.0000 12.1394,3.8026 14.7781 9.3089c 127.5966,-28.3870 255.1932,-56.7740 382.7898 -85.1611c -0.1014,-0.7367 -0.1538,-1.4890 -0.1538 -2.2536c 0.0000,-6.7095 4.0345,-12.4766 9.8100 -15.0078c -19.8029,-110.4241 -39.6058,-220.8483 -59.4087 -331.2724c -6.3910,-0.2687 -11.8350,-4.1999 -14.2876 -9.7491c -129.3707,-0.0000 -258.7413,-0.0000 -388.1120 -0.0000c -2.5415,5.7507 -8.2959,9.7638 -14.9875 9.7638c -6.6916,-0.0000 -12.4459,-4.0131 -14.9875 -9.7638c -12.6420,-0.0000 -25.2840,-0.0000 -37.9259 -0.0000c -6.2601,-0.0000 -11.3349,4.9897 -11.3349 11.1448ZM 86.1732,2052.6350 c 0.0000,3.1310 2.5383,5.6693 5.6693 5.6693c 3.1311,-0.0000 5.6693,-2.5383 5.6693 -5.6693c 0.0000,-3.1311 -2.5382,-5.6693 -5.6693 -5.6693c -3.1310,-0.0000 -5.6693,2.5382 -5.6693 5.6693ZM 155.7449,2509.7622 c 0.0000,3.1311 2.5382,5.6693 5.6693 5.6693c 3.1310,-0.0000 5.6693,-2.5382 5.6693 -5.6693c 0.0000,-3.1311 -2.5382,-5.6693 -5.6693 -5.6693c -3.1311,-0.0000 -5.6693,2.5382 -5.6693 5.6693ZM 504.2602,2052.6350 c 0.0000,3.1310 2.5382,5.6693 5.6693 5.6693c 3.1311,-0.0000 5.6693,-2.5383 5.6693 -5.6693c 0.0000,-3.1311 -2.5382,-5.6693 -5.6693 -5.6693c -3.1311,-0.0000 -5.6693,2.5382 -5.6693 5.6693ZM 569.5369,2415.2785 c 0.0000,3.1310 2.5382,5.6693 5.6693 5.6693c 3.1310,-0.0000 5.6693,-2.5383 5.6693 -5.6693c 0.0000,-3.1311 -2.5383,-5.6693 -5.6693 -5.6693c -3.1311,-0.0000 -5.6693,2.5382 -5.6693 5.6693Z"/></g><g stroke-linejoin="miter" stroke-opacity="1.0" fill-opacity="0.5" stroke="rgb(0,0,0)" stroke-width="0.7559055118110237" fill="rgb(0,128,0)" stroke-linecap="butt" stroke-miterlimit="10.0"><path d="M 3.9685,2048.8554 c 0.0000,-6.7840 5.4995,-12.2835 12.2835 -12.2835c 165.8190,-0.0000 331.6381,-0.0000 497.4571 -0.0000c 5.9611,-0.0000 11.0617,4.2799 12.0969 10.1505c 21.7589,123.4009 43.5178,246.8017 65.2767 370.2026c 0.1270,0.7202 0.1884,1.4373 0.1884 2.1451c 0.0000,5.6369 -3.8943,10.6833 -9.5744 11.9685c -139.1905,31.4946 -278.3811,62.9892 -417.5716 94.4837c -0.8896,0.2013 -1.7988,0.3029 -2.7108 0.3029c -48.3874,-0.0000 -96.7748,-0.0000 -145.1622 -0.0000c -6.7840,-0.0000 -12.2835,-5.4995 -12.2835 -12.2835c 0.0000,-154.8954 0.0000,-309.7909 0.0000 -464.6863ZM 51.4941,2415.5237 c 0.7657,4.3426 1.5314,8.6852 2.2972 13.0278c 1.0084,-0.1778 2.0169,-0.3556 3.0253 -0.5335c 1.0957,6.2146 2.1915,12.4291 3.2873 18.6437c -1.0084,0.1778 -2.0169,0.3556 -3.0253 0.5334c 0.7657,4.3426 1.5315,8.6852 2.2972 13.0278c 1.0084,-0.1778 2.0169,-0.3556 3.0253 -0.5334c 0.2145,1.2164 0.4290,2.4329 0.6435 3.6493c 17.3326,-3.0562 34.6652,-6.1125 51.9978 -9.1686c -0.2145,-1.2165 -0.4290,-2.4329 -0.6435 -3.6493c 1.0084,-0.1778 2.0169,-0.3556 3.0253 -0.5335c -0.7657,-4.3426 -1.5314,-8.6852 -2.2972 -13.0278c -1.0084,0.1778 -2.0169,0.3557 -3.0253 0.5335c -1.0958,-6.2145 -2.1916,-12.4291 -3.2874 -18.6436c 1.0085,-0.1778 2.0169,-0.3556 3.0253 -0.5335c -0.7657,-4.3426 -1.5314,-8.6852 -2.2971 -13.0278c -1.0084,0.1778 -2.0169,0.3556 -3.0253 0.5335c -0.2145,-1.2165 -0.4290,-2.4329 -0.6435 -3.6493c -17.3326,3.0562 -34.6652,6.1124 -51.9978 9.1686c 0.2145,1.2164 0.4290,2.4329 0.6435 3.6493c -1.0084,0.1778 -2.0169,0.3556 -3.0253 0.5334ZM 78.5697,2155.5336 c 0.7657,4.3426 1.5315,8.6852 2.2972 13.0278c 1.0084,-0.1778 2.0169,-0.3556 3.0253 -0.5335c 1.0958,6.2146 2.1916,12.4291 3.2874 18.6437c -1.0084,0.1778 -2.0169,0.3556 -3.0253 0.5334c 0.7657,4.3426 1.5314,8.6852 2.2972 13.0278c 1.0084,-0.1778 2.0169,-0.3556 3.0253 -0.5335c 0.2145,1.2165 0.4290,2.4329 0.6435 3.6493c 17.3326,-3.0562 34.6652,-6.1124 51.9978 -9.1686c -0.2145,-1.2165 -0.4290,-2.4329 -0.6435 -3.6493c 1.0084,-0.1778 2.0169,-0.3556 3.0253 -0.5335c -0.7657,-4.3426 -1.5314,-8.6852 -2.2971 -13.0278c -1.0084,0.1778 -2.0169,0.3556 -3.0253 0.5335c -1.0958,-6.2146 -2.1916,-12.4291 -3.2874 -18.6437c 1.0084,-0.1778 2.0169,-0.3556 3.0253 -0.5334c -0.7657,-4.3426 -1.5314,-8.6852 -2.2972 -13.0278c -1.0084,0.1778 -2.0169,0.3556 -3.0253 0.5334c -0.2145,-1.2164 -0.4290,-2.4329 -0.6435 -3.6493c -17.3326,3.0562 -34.6652,6.1124 -51.9978 9.1686c 0.2145,1.2165 0.4290,2.4329 0.6435 3.6493c -1.0084,0.1778 -2.0169,0.3556 -3.0253 0.5335ZM 86.1732,2052.6349 c 0.0000,3.1311 2.5382,5.6693 5.6693 5.6693c 3.1311,-0.0000 5.6693,-2.5382 5.6693 -5.6693c 0.0000,-3.1310 -2.5382,-5.6693 -5.6693 -5.6693c -3.1310,-0.0000 -5.6693,2.5382 -5.6693 5.6693ZM 91.0395,2226.2537 c 0.7657,4.3426 1.5314,8.6852 2.2972 13.0278c 1.0084,-0.1778 2.0169,-0.3556 3.0253 -0.5335c 1.0958,6.2146 2.1916,12.4291 3.2874 18.6437c -1.0084,0.1778 -2.0169,0.3556 -3.0253 0.5334c 0.7657,4.3426 1.5314,8.6852 2.2972 13.0278c 1.0084,-0.1778 2.0169,-0.3556 3.0253 -0.5334c 0.2145,1.2164 0.4290,2.4329 0.6435 3.6493c 17.3326,-3.0562 34.6652,-6.1125 51.9978 -9.1686c -0.2145,-1.2165 -0.4290,-2.4329 -0.6435 -3.6493c 1.0084,-0.1778 2.0169,-0.3556 3.0253 -0.5335c -0.7657,-4.3426 -1.5314,-8.6852 -2.2971 -13.0277c -1.0084,0.1778 -2.0169,0.3556 -3.0253 0.5334c -1.0958,-6.2145 -2.1916,-12.4291 -3.2874 -18.6436c 1.0084,-0.1778 2.0169,-0.3556 3.0253 -0.5335c -0.7657,-4.3426 -1.5314,-8.6852 -2.2972 -13.0278c -1.0084,0.1778 -2.0169,0.3556 -3.0253 0.5335c -0.2145,-1.2165 -0.4290,-2.4329 -0.6435 -3.6493c -17.3326,3.0562 -34.6652,6.1124 -51.9978 9.1686c 0.2145,1.2164 0.4290,2.4329 0.6435 3.6493c -1.0084,0.1778 -2.0169,0.3556 -3.0253 0.5335ZM 103.5094,2296.9737 c 0.7657,4.3426 1.5314,8.6852 2.2972 13.0278c 1.0084,-0.1778 2.0169,-0.3556 3.0253 -0.5335c 1.0958,6.2146 2.1916,12.4292 3.2874 18.6437c -1.0084,0.1778 -2.0169,0.3556 -3.0253 0.5335c 0.7657,4.3426 1.5314,8.6852 2.2971 13.0277c 1.0084,-0.1778 2.0169,-0.3556 3.0253 -0.5334c 0.2145,1.2164 0.4290,2.4329 0.6435 3.6493c 17.3326,-3.0562 34.6652,-6.1124 51.9978 -9.1686c -0.2145,-1.2164 -0.4290,-2.4329 -0.6435 -3.6493c 1.0084,-0.1778 2.0169,-0.3556 3.0253 -0.5334c -0.7657,-4.3426 -1.5314,-8.6852 -2.2971 -13.0278c -1.0084,0.1778 -2.0169,0.3556 -3.0253 0.5334c -1.0958,-6.2145 -2.1916,-12.4291 -3.2874 -18.6436c 1.0084,-0.1778 2.0169,-0.3556 3.0253 -0.5335c -0.7657,-4.3426 -1.5314,-8.6852 -2.2972 -13.0278c -1.0084,0.1778 -2.0169,0.3556 -3.0253 0.5335c -0.2145,-1.2164 -0.4290,-2.4329 -0.6435 -3.6493c -17.3326,3.0562 -34.6652,6.1124 -51.9978 9.1686c 0.2145,1.2164 0.4290,2.4329 0.6435 3.6493c -1.0084,0.1778 -2.0169,0.3556 -3.0253 0.5334ZM 115.9792,2367.6938 c 0.7657,4.3426 1.5314,8.6852 2.2972 13.0277c 1.0084,-0.1778 2.0169,-0.3556 3.0253 -0.5334c 1.0958,6.2145 2.1916,12.4291 3.2874 18.6436c -1.0084,0.1778 -2.0169,0.3556 -3.0253 0.5335c 0.7657,4.3426 1.5314,8.6852 2.2971 13.0278c 1.0084,-0.1778 2.0169,-0.3556 3.0253 -0.5335c 0.2145,1.2164 0.4290,2.4329 0.6435 3.6493c 17.3326,-3.0562 34.6652,-6.1124 51.9978 -9.1686c -0.2145,-1.2164 -0.4290,-2.4329 -0.6435 -3.6493c 1.0084,-0.1778 2.0169,-0.3556 3.0253 -0.5334c -0.7657,-4.3426 -1.5314,-8.6852 -2.2972 -13.0278c -1.0084,0.1778 -2.0169,0.3556 -3.0253 0.5334c -1.0958,-6.2145 -2.1916,-12.4291 -3.2874 -18.6436c 1.0084,-0.1778 2.0169,-0.3556 3.0253 -0.5335c -0.7657,-4.3426 -1.5314,-8.6852 -2.2972 -13.0277c -1.0084,0.1778 -2.0169,0.3556 -3.0253 0.5334c -0.2145,-1.2164 -0.4290,-2.4329 -0.6435 -3.6493c -17.3326,3.0562 -34.6652,6.1124 -51.9978 9.1686c 0.2145,1.2164 0.4290,2.4329 0.6435 3.6493c -1.0084,0.1778 -2.0169,0.3556 -3.0253 0.5335ZM 128.4491,2438.4139 c 0.7657,4.3426 1.5314,8.6852 2.2972 13.0278c 1.0084,-0.1778 2.0169,-0.3556 3.0253 -0.5335c 1.0958,6.2146 2.1916,12.4291 3.2874 18.6436c -1.0084,0.1778 -2.0169,0.3557 -3.0253 0.5335c 0.7657,4.3426 1.5314,8.6852 2.2971 13.0278c 1.0084,-0.1778 2.0169,-0.3556 3.0253 -0.5335c 0.2145,1.2165 0.4290,2.4329 0.6435 3.6493c 17.3326,-3.0562 34.6652,-6.1124 51.9978 -9.1686c -0.2145,-1.2164 -0.4290,-2.4329 -0.6435 -3.6493c 1.0084,-0.1778 2.0169,-0.3557 3.0253 -0.5335c -0.7657,-4.3426 -1.5314,-8.6852 -2.2971 -13.0278c -1.0084,0.1778 -2.0169,0.3556 -3.0253 0.5335c -1.0958,-6.2146 -2.1916,-12.4291 -3.2874 -18.6437c 1.0084,-0.1778 2.0169,-0.3556 3.0253 -0.5334c -0.7657,-4.3426 -1.5314,-8.6852 -2.2972 -13.0278c -1.0084,0.1778 -2.0169,0.3556 -3.0253 0.5334c -0.2145,-1.2164 -0.4290,-2.4329 -0.6435 -3.6493c -17.3326,3.0562 -34.6652,6.1125 -51.9978 9.1686c 0.2145,1.2165 0.4290,2.4329 0.6435 3.6493c -1.0084,0.1778 -2.0169,0.3556 -3.0253 0.5335ZM 146.0082,2124.4532 c 0.7657,4.3426 1.5314,8.6852 2.2972 13.0278c 1.0084,-0.1778 2.0169,-0.3556 3.0253 -0.5334c 1.0958,6.2145 2.1916,12.4291 3.2874 18.6436c -1.0084,0.1778 -2.0169,0.3556 -3.0253 0.5335c 0.7657,4.3426 1.5314,8.6852 2.2971 13.0278c 1.0084,-0.1778 2.0169,-0.3557 3.0253 -0.5335c 0.2145,1.2164 0.4290,2.4329 0.6435 3.6493c 17.3326,-3.0562 34.6652,-6.1124 51.9978 -9.1686c -0.2145,-1.2164 -0.4290,-2.4329 -0.6435 -3.6493c 1.0084,-0.1778 2.0169,-0.3556 3.0253 -0.5334c -0.7657,-4.3426 -1.5314,-8.6852 -2.2971 -13.0278c -1.0084,0.1778 -2.0169,0.3556 -3.0253 0.5334c -1.0958,-6.2145 -2.1916,-12.4291 -3.2874 -18.6436c 1.0084,-0.1778 2.0169,-0.3556 3.0253 -0.5335c -0.7657,-4.3426 -1.5314,-8.6852 -2.2972 -13.0277c -1.0084,0.1778 -2.0169,0.3556 -3.0253 0.5334c -0.2145,-1.2164 -0.4290,-2.4329 -0.6435 -3.6493c -17.3326,3.0562 -34.6652,6.1124 -51.9978 9.1686c 0.2145,1.2164 0.4290,2.4329 0.6435 3.6493c -1.0084,0.1778 -2.0169,0.3556 -3.0253 0.5334ZM 155.7449,2509.7622 c 0.0000,3.1311 2.5382,5.6693 5.6693 5.6693c 3.1311,-0.0000 5.6693,-2.5382 5.6693 -5.6693c 0.0000,-3.1310 -2.5382,-5.6693 -5.6693 -5.6693c -3.1310,-0.0000 -5.6693,2.5382 -5.6693 5.6693ZM 158.4780,2195.1733 c 0.7657,4.3426 1.5314,8.6852 2.2972 13.0277c 1.0084,-0.1778 2.0169,-0.3556 3.0253 -0.5334c 1.0958,6.2145 2.1916,12.4291 3.2874 18.6436c -1.0084,0.1778 -2.0169,0.3556 -3.0253 0.5335c 0.7657,4.3426 1.5314,8.6852 2.2971 13.0278c 1.0084,-0.1778 2.0169,-0.3556 3.0253 -0.5335c 0.2145,1.2165 0.4290,2.4329 0.6435 3.6493c 17.3326,-3.0562 34.6652,-6.1124 51.9978 -9.1686c -0.2145,-1.2164 -0.4290,-2.4329 -0.6435 -3.6493c 1.0084,-0.1778 2.0169,-0.3556 3.0253 -0.5334c -0.7657,-4.3426 -1.5314,-8.6852 -2.2971 -13.0278c -1.0084,0.1778 -2.0169,0.3556 -3.0253 0.5334c -1.0958,-6.2145 -2.1916,-12.4291 -3.2874 -18.6436c 1.0084,-0.1778 2.0169,-0.3556 3.0253 -0.5334c -0.7657,-4.3426 -1.5314,-8.6852 -2.2972 -13.0278c -1.0084,0.1778 -2.0169,0.3556 -3.0253 0.5334c -0.2145,-1.2164 -0.4290,-2.4329 -0.6435 -3.6493c -17.3326,3.0562 -34.6652,6.1125 -51.9978 9.1686c 0.2145,1.2164 0.4290,2.4329 0.6435 3.6493c -1.0084,0.1778 -2.0169,0.3556 -3.0253 0.5335ZM 170.9479,2265.8934 c 0.7657,4.3426 1.5314,8.6852 2.2972 13.0278c 1.0084,-0.1778 2.0169,-0.3556 3.0253 -0.5335c 1.0958,6.2146 2.1916,12.4291 3.2874 18.6437c -1.0084,0.1778 -2.0169,0.3556 -3.0253 0.5334c 0.7657,4.3426 1.5314,8.6852 2.2971 13.0278c 1.0084,-0.1778 2.0169,-0.3556 3.0253 -0.5335c 0.2145,1.2165 0.4290,2.4329 0.6435 3.6493c 17.3326,-3.0562 34.6652,-6.1124 51.9978 -9.1686c -0.2145,-1.2164 -0.4290,-2.4329 -0.6435 -3.6493c 1.0084,-0.1778 2.0169,-0.3556 3.0253 -0.5335c -0.7657,-4.3426 -1.5314,-8.6852 -2.2971 -13.0278c -1.0084,0.1778 -2.0169,0.3556 -3.0253 0.5335c -1.0958,-6.2146 -2.1916,-12.4291 -3.2874 -18.6437c 1.0084,-0.1778 2.0169,-0.3556 3.0253 -0.5334c -0.7657,-4.3426 -1.5314,-8.6852 -2.2972 -13.0278c -1.0084,0.1778 -2.0169,0.3556 -3.0253 0.5334c -0.2145,-1.2164 -0.4290,-2.4329 -0.6435 -3.6493c -17.3326,3.0562 -34.6652,6.1125 -51.9978 9.1686c 0.2145,1.2165 0.4290,2.4329 0.6435 3.6493c -1.0084,0.1778 -2.0169,0.3556 -3.0253 0.5335ZM 183.4177,2336.6134 c 0.7657,4.3426 1.5314,8.6852 2.2972 13.0278c 1.0084,-0.1778 2.0169,-0.3556 3.0253 -0.5335c 1.0958,6.2146 2.1916,12.4291 3.2874 18.6437c -1.0084,0.1778 -2.0169,0.3556 -3.0253 0.5334c 0.7657,4.3426 1.5314,8.6852 2.2971 13.0278c 1.0084,-0.1778 2.0169,-0.3556 3.0253 -0.5334c 0.2145,1.2164 0.4290,2.4329 0.6435 3.6493c 17.3326,-3.0562 34.6652,-6.1125 51.9978 -9.1686c -0.2145,-1.2165 -0.4290,-2.4329 -0.6435 -3.6493c 1.0084,-0.1778 2.0169,-0.3556 3.0253 -0.5335c -0.7657,-4.3426 -1.5314,-8.6852 -2.2971 -13.0277c -1.0085,0.1778 -2.0169,0.3556 -3.0253 0.5334c -1.0958,-6.2146 -2.1916,-12.4291 -3.2874 -18.6437c 1.0084,-0.1778 2.0169,-0.3556 3.0253 -0.5334c -0.7657,-4.3426 -1.5314,-8.6852 -2.2972 -13.0278c -1.0084,0.1778 -2.0169,0.3556 -3.0253 0.5335c -0.2145,-1.2165 -0.4290,-2.4329 -0.6435 -3.6493c -17.3326,3.0562 -34.6652,6.1124 -51.9978 9.1686c 0.2145,1.2164 0.4290,2.4329 0.6435 3.6493c -1.0084,0.1778 -2.0169,0.3557 -3.0253 0.5335ZM 195.8876,2407.3334 c 0.7657,4.3426 1.5314,8.6852 2.2972 13.0278c 1.0084,-0.1778 2.0169,-0.3556 3.0253 -0.5334c 1.0958,6.2145 2.1916,12.4291 3.2873 18.6436c -1.0084,0.1778 -2.0169,0.3556 -3.0253 0.5335c 0.7657,4.3426 1.5314,8.6852 2.2971 13.0277c 1.0084,-0.1778 2.0169,-0.3556 3.0253 -0.5334c 0.2145,1.2164 0.4290,2.4329 0.6435 3.6493c 17.3326,-3.0562 34.6652,-6.1124 51.9978 -9.1686c -0.2145,-1.2164 -0.4290,-2.4329 -0.6435 -3.6493c 1.0084,-0.1778 2.0169,-0.3556 3.0253 -0.5334c -0.7657,-4.3426 -1.5314,-8.6852 -2.2972 -13.0278c -1.0084,0.1778 -2.0169,0.3556 -3.0253 0.5334c -1.0957,-6.2145 -2.1915,-12.4291 -3.2873 -18.6436c 1.0084,-0.1778 2.0169,-0.3556 3.0253 -0.5335c -0.7657,-4.3426 -1.5314,-8.6852 -2.2972 -13.0278c -1.0084,0.1778 -2.0169,0.3556 -3.0253 0.5335c -0.2145,-1.2164 -0.4290,-2.4329 -0.6435 -3.6493c -17.3326,3.0562 -34.6652,6.1124 -51.9978 9.1686c 0.2145,1.2164 0.4290,2.4329 0.6435 3.6493c -1.0084,0.1778 -2.0169,0.3556 -3.0253 0.5334ZM 212.7904,2089.6507 c 0.7657,4.3426 1.5314,8.6852 2.2972 13.0278c 1.0084,-0.1778 2.0169,-0.3556 3.0253 -0.5334c 1.0958,6.2145 2.1915,12.4291 3.2873 18.6436c -1.0084,0.1778 -2.0169,0.3556 -3.0253 0.5335c 0.7657,4.3426 1.5315,8.6852 2.2972 13.0277c 1.0084,-0.1778 2.0169,-0.3556 3.0253 -0.5334c 0.2145,1.2164 0.4290,2.4329 0.6435 3.6493c 17.3326,-3.0562 34.6652,-6.1124 51.9978 -9.1686c -0.2145,-1.2164 -0.4290,-2.4329 -0.6435 -3.6493c 1.0084,-0.1778 2.0169,-0.3556 3.0253 -0.5334c -0.7657,-4.3426 -1.5314,-8.6852 -2.2972 -13.0278c -1.0084,0.1778 -2.0169,0.3556 -3.0253 0.5334c -1.0958,-6.2145 -2.1915,-12.4291 -3.2873 -18.6436c 1.0084,-0.1778 2.0169,-0.3556 3.0253 -0.5335c -0.7657,-4.3426 -1.5315,-8.6852 -2.2972 -13.0278c -1.0084,0.1778 -2.0169,0.3556 -3.0253 0.5335c -0.2145,-1.2164 -0.4290,-2.4329 -0.6435 -3.6493c -17.3326,3.0562 -34.6652,6.1124 -51.9978 9.1686c 0.2145,1.2164 0.4290,2.4329 0.6435 3.6493c -1.0084,0.1778 -2.0169,0.3556 -3.0253 0.5334ZM 225.2603,2160.3708 c 0.7657,4.3426 1.5314,8.6852 2.2972 13.0278c 1.0084,-0.1778 2.0169,-0.3556 3.0253 -0.5334c 1.0958,6.2145 2.1915,12.4291 3.2873 18.6436c -1.0084,0.1778 -2.0169,0.3556 -3.0253 0.5335c 0.7657,4.3426 1.5315,8.6852 2.2972 13.0278c 1.0084,-0.1778 2.0169,-0.3556 3.0253 -0.5335c 0.2145,1.2164 0.4290,2.4329 0.6435 3.6493c 17.3326,-3.0562 34.6652,-6.1124 51.9978 -9.1686c -0.2145,-1.2164 -0.4290,-2.4329 -0.6435 -3.6493c 1.0084,-0.1778 2.0169,-0.3556 3.0253 -0.5334c -0.7657,-4.3426 -1.5314,-8.6852 -2.2972 -13.0278c -1.0084,0.1778 -2.0169,0.3556 -3.0253 0.5334c -1.0958,-6.2145 -2.1915,-12.4291 -3.2873 -18.6436c 1.0084,-0.1778 2.0169,-0.3556 3.0253 -0.5335c -0.7657,-4.3426 -1.5314,-8.6852 -2.2971 -13.0277c -1.0084,0.1778 -2.0169,0.3556 -3.0253 0.5334c -0.2145,-1.2164 -0.4290,-2.4329 -0.6435 -3.6493c -17.3326,3.0562 -34.6652,6.1124 -51.9978 9.1686c 0.2145,1.2164 0.4290,2.4329 0.6435 3.6493c -1.0084,0.1778 -2.0169,0.3556 -3.0253 0.5334ZM 237.7301,2231.0909 c 0.7657,4.3426 1.5314,8.6852 2.2972 13.0277c 1.0084,-0.1778 2.0169,-0.3556 3.0253 -0.5334c 1.0957,6.2146 2.1915,12.4291 3.2873 18.6436c -1.0084,0.1778 -2.0169,0.3557 -3.0253 0.5335c 0.7657,4.3426 1.5315,8.6852 2.2972 13.0278c 1.0084,-0.1778 2.0169,-0.3556 3.0253 -0.5335c 0.2145,1.2165 0.4290,2.4329 0.6435 3.6493c 17.3326,-3.0562 34.6652,-6.1124 51.9978 -9.1686c -0.2145,-1.2164 -0.4290,-2.4329 -0.6435 -3.6493c 1.0084,-0.1778 2.0169,-0.3556 3.0253 -0.5335c -0.7657,-4.3426 -1.5314,-8.6852 -2.2972 -13.0278c -1.0084,0.1778 -2.0169,0.3556 -3.0253 0.5335c -1.0958,-6.2146 -2.1916,-12.4291 -3.2873 -18.6437c 1.0084,-0.1778 2.0169,-0.3556 3.0253 -0.5334c -0.7657,-4.3426 -1.5314,-8.6852 -2.2971 -13.0278c -1.0084,0.1778 -2.0169,0.3556 -3.0253 0.5334c -0.2145,-1.2164 -0.4290,-2.4329 -0.6435 -3.6493c -17.3326,3.0562 -34.6652,6.1125 -51.9978 9.1686c 0.2145,1.2165 0.4290,2.4329 0.6435 3.6493c -1.0084,0.1778 -2.0169,0.3556 -3.0253 0.5335ZM 250.2000,2301.8109 c 0.7657,4.3426 1.5314,8.6852 2.2972 13.0278c 1.0084,-0.1778 2.0169,-0.3556 3.0253 -0.5335c 1.0957,6.2146 2.1915,12.4291 3.2873 18.6437c -1.0084,0.1778 -2.0169,0.3556 -3.0253 0.5334c 0.7657,4.3426 1.5314,8.6852 2.2972 13.0278c 1.0084,-0.1778 2.0169,-0.3556 3.0253 -0.5334c 0.2145,1.2164 0.4290,2.4329 0.6435 3.6493c 17.3326,-3.0562 34.6652,-6.1124 51.9978 -9.1686c -0.2145,-1.2165 -0.4290,-2.4329 -0.6435 -3.6493c 1.0084,-0.1778 2.0169,-0.3556 3.0253 -0.5335c -0.7657,-4.3426 -1.5314,-8.6852 -2.2972 -13.0278c -1.0084,0.1778 -2.0169,0.3556 -3.0253 0.5335c -1.0958,-6.2146 -2.1916,-12.4291 -3.2874 -18.6437c 1.0084,-0.1778 2.0169,-0.3556 3.0253 -0.5334c -0.7657,-4.3426 -1.5314,-8.6852 -2.2971 -13.0278c -1.0084,0.1778 -2.0169,0.3556 -3.0253 0.5335c -0.2145,-1.2165 -0.4290,-2.4329 -0.6435 -3.6493c -17.3326,3.0562 -34.6652,6.1124 -51.9978 9.1686c 0.2145,1.2165 0.4290,2.4329 0.6435 3.6493c -1.0084,0.1778 -2.0169,0.3556 -3.0253 0.5335ZM 262.6698,2372.5309 c 0.7657,4.3426 1.5314,8.6852 2.2971 13.0278c 1.0084,-0.1778 2.0169,-0.3556 3.0253 -0.5335c 1.0958,6.2146 2.1916,12.4291 3.2874 18.6437c -1.0084,0.1778 -2.0169,0.3556 -3.0253 0.5334c 0.7657,4.3426 1.5314,8.6852 2.2972 13.0278c 1.0084,-0.1778 2.0169,-0.3556 3.0253 -0.5334c 0.2145,1.2164 0.4290,2.4329 0.6435 3.6493c 17.3326,-3.0562 34.6652,-6.1124 51.9978 -9.1686c -0.2145,-1.2164 -0.4290,-2.4329 -0.6435 -3.6493c 1.0084,-0.1778 2.0169,-0.3556 3.0253 -0.5335c -0.7657,-4.3426 -1.5314,-8.6852 -2.2972 -13.0277c -1.0084,0.1778 -2.0169,0.3556 -3.0253 0.5334c -1.0958,-6.2145 -2.1916,-12.4291 -3.2874 -18.6436c 1.0084,-0.1778 2.0169,-0.3556 3.0253 -0.5335c -0.7657,-4.3426 -1.5314,-8.6852 -2.2971 -13.0278c -1.0084,0.1778 -2.0169,0.3556 -3.0253 0.5335c -0.2145,-1.2165 -0.4290,-2.4329 -0.6435 -3.6493c -17.3326,3.0562 -34.6652,6.1124 -51.9978 9.1686c 0.2145,1.2164 0.4290,2.4329 0.6435 3.6493c -1.0084,0.1778 -2.0169,0.3556 -3.0253 0.5334ZM 286.7920,2095.7914 c 0.7657,4.3426 1.5315,8.6852 2.2972 13.0278c 1.0084,-0.1778 2.0169,-0.3556 3.0253 -0.5335c 1.0958,6.2146 2.1916,12.4291 3.2874 18.6437c -1.0084,0.1778 -2.0169,0.3556 -3.0253 0.5334c 0.7657,4.3426 1.5314,8.6852 2.2972 13.0278c 1.0084,-0.1778 2.0169,-0.3556 3.0253 -0.5335c 0.2145,1.2165 0.4290,2.4329 0.6435 3.6493c 17.3326,-3.0562 34.6652,-6.1124 51.9978 -9.1686c -0.2145,-1.2164 -0.4290,-2.4329 -0.6435 -3.6493c 1.0084,-0.1778 2.0169,-0.3556 3.0253 -0.5334c -0.7657,-4.3426 -1.5315,-8.6852 -2.2972 -13.0278c -1.0084,0.1778 -2.0169,0.3556 -3.0253 0.5335c -1.0958,-6.2146 -2.1916,-12.4291 -3.2874 -18.6437c 1.0084,-0.1778 2.0169,-0.3556 3.0253 -0.5334c -0.7657,-4.3426 -1.5314,-8.6852 -2.2972 -13.0278c -1.0084,0.1778 -2.0169,0.3556 -3.0253 0.5334c -0.2145,-1.2164 -0.4290,-2.4329 -0.6435 -3.6493c -17.3326,3.0562 -34.6652,6.1125 -51.9978 9.1686c 0.2145,1.2165 0.4290,2.4329 0.6435 3.6493c -1.0084,0.1778 -2.0169,0.3556 -3.0253 0.5335ZM 299.2619,2166.5115 c 0.7657,4.3426 1.5314,8.6852 2.2971 13.0278c 1.0084,-0.1778 2.0169,-0.3556 3.0253 -0.5335c 1.0958,6.2146 2.1916,12.4291 3.2874 18.6437c -1.0084,0.1778 -2.0169,0.3556 -3.0253 0.5334c 0.7657,4.3426 1.5314,8.6852 2.2972 13.0278c 1.0084,-0.1778 2.0169,-0.3556 3.0253 -0.5334c 0.2145,1.2164 0.4290,2.4329 0.6435 3.6493c 17.3326,-3.0562 34.6652,-6.1125 51.9978 -9.1686c -0.2145,-1.2165 -0.4290,-2.4329 -0.6435 -3.6493c 1.0084,-0.1778 2.0169,-0.3556 3.0253 -0.5335c -0.7657,-4.3426 -1.5314,-8.6852 -2.2971 -13.0277c -1.0084,0.1778 -2.0169,0.3556 -3.0253 0.5334c -1.0958,-6.2146 -2.1916,-12.4291 -3.2874 -18.6437c 1.0084,-0.1778 2.0169,-0.3556 3.0253 -0.5334c -0.7657,-4.3426 -1.5314,-8.6852 -2.2972 -13.0278c -1.0084,0.1778 -2.0169,0.3556 -3.0253 0.5335c -0.2145,-1.2165 -0.4290,-2.4329 -0.6435 -3.6493c -17.3326,3.0562 -34.6652,6.1124 -51.9978 9.1686c 0.2145,1.2164 0.4290,2.4329 0.6435 3.6493c -1.0084,0.1778 -2.0169,0.3557 -3.0253 0.5335ZM 311.7317,2237.2315 c 0.7657,4.3426 1.5315,8.6852 2.2972 13.0278c 1.0084,-0.1778 2.0169,-0.3556 3.0253 -0.5335c 1.0958,6.2146 2.1916,12.4292 3.2874 18.6437c -1.0084,0.1778 -2.0169,0.3556 -3.0253 0.5334c 0.7657,4.3426 1.5314,8.6852 2.2972 13.0278c 1.0084,-0.1778 2.0169,-0.3556 3.0253 -0.5334c 0.2145,1.2164 0.4290,2.4329 0.6435 3.6493c 17.3326,-3.0562 34.6652,-6.1124 51.9978 -9.1686c -0.2145,-1.2164 -0.4290,-2.4329 -0.6435 -3.6493c 1.0084,-0.1778 2.0169,-0.3556 3.0253 -0.5334c -0.7657,-4.3426 -1.5314,-8.6852 -2.2971 -13.0278c -1.0084,0.1778 -2.0169,0.3556 -3.0253 0.5334c -1.0958,-6.2145 -2.1916,-12.4291 -3.2874 -18.6436c 1.0084,-0.1778 2.0169,-0.3556 3.0253 -0.5335c -0.7657,-4.3426 -1.5314,-8.6852 -2.2972 -13.0278c -1.0084,0.1778 -2.0169,0.3556 -3.0253 0.5335c -0.2145,-1.2164 -0.4290,-2.4329 -0.6435 -3.6493c -17.3326,3.0562 -34.6652,6.1124 -51.9978 9.1686c 0.2145,1.2164 0.4290,2.4329 0.6435 3.6493c -1.0084,0.1778 -2.0169,0.3556 -3.0253 0.5334ZM 324.2015,2307.9516 c 0.7657,4.3426 1.5315,8.6852 2.2972 13.0278c 1.0084,-0.1778 2.0169,-0.3556 3.0253 -0.5334c 1.0958,6.2145 2.1916,12.4291 3.2874 18.6436c -1.0084,0.1778 -2.0169,0.3556 -3.0253 0.5335c 0.7657,4.3426 1.5314,8.6852 2.2972 13.0278c 1.0084,-0.1778 2.0168,-0.3556 3.0253 -0.5335c 0.2145,1.2164 0.4290,2.4329 0.6435 3.6493c 17.3326,-3.0562 34.6652,-6.1124 51.9978 -9.1686c -0.2145,-1.2164 -0.4290,-2.4329 -0.6435 -3.6493c 1.0084,-0.1778 2.0169,-0.3556 3.0253 -0.5334c -0.7657,-4.3426 -1.5314,-8.6852 -2.2971 -13.0278c -1.0084,0.1778 -2.0169,0.3556 -3.0253 0.5334c -1.0958,-6.2145 -2.1916,-12.4291 -3.2874 -18.6436c 1.0084,-0.1778 2.0169,-0.3556 3.0253 -0.5335c -0.7657,-4.3426 -1.5314,-8.6852 -2.2972 -13.0277c -1.0084,0.1778 -2.0169,0.3556 -3.0253 0.5334c -0.2145,-1.2164 -0.4290,-2.4329 -0.6435 -3.6493c -17.3326,3.0562 -34.6652,6.1124 -51.9978 9.1686c 0.2145,1.2164 0.4290,2.4329 0.6435 3.6493c -1.0084,0.1778 -2.0169,0.3556 -3.0253 0.5334ZM 336.6714,2378.6717 c 0.7657,4.3426 1.5314,8.6852 2.2972 13.0277c 1.0084,-0.1778 2.0169,-0.3556 3.0253 -0.5334c 1.0958,6.2146 2.1916,12.4291 3.2874 18.6437c -1.0084,0.1778 -2.0169,0.3556 -3.0253 0.5334c 0.7657,4.3426 1.5314,8.6852 2.2971 13.0278c 1.0084,-0.1778 2.0169,-0.3556 3.0253 -0.5335c 0.2145,1.2165 0.4290,2.4329 0.6435 3.6493c 17.3326,-3.0562 34.6652,-6.1124 51.9978 -9.1686c -0.2145,-1.2164 -0.4290,-2.4329 -0.6435 -3.6493c 1.0084,-0.1778 2.0169,-0.3556 3.0253 -0.5334c -0.7657,-4.3426 -1.5314,-8.6852 -2.2971 -13.0278c -1.0084,0.1778 -2.0169,0.3556 -3.0253 0.5335c -1.0958,-6.2146 -2.1916,-12.4291 -3.2874 -18.6437c 1.0084,-0.1778 2.0169,-0.3556 3.0253 -0.5334c -0.7657,-4.3426 -1.5314,-8.6852 -2.2972 -13.0278c -1.0084,0.1778 -2.0169,0.3556 -3.0253 0.5334c -0.2145,-1.2164 -0.4290,-2.4329 -0.6435 -3.6493c -17.3326,3.0562 -34.6652,6.1125 -51.9978 9.1686c 0.2145,1.2165 0.4290,2.4329 0.6435 3.6493c -1.0084,0.1778 -2.0169,0.3556 -3.0253 0.5335ZM 359.4810,2094.4879 c 0.7657,4.3426 1.5314,8.6852 2.2971 13.0278c 1.0084,-0.1778 2.0169,-0.3556 3.0253 -0.5335c 1.0958,6.2146 2.1916,12.4291 3.2874 18.6437c -1.0084,0.1778 -2.0169,0.3556 -3.0253 0.5334c 0.7657,4.3426 1.5314,8.6852 2.2972 13.0278c 1.0084,-0.1778 2.0169,-0.3556 3.0253 -0.5334c 0.2145,1.2164 0.4290,2.4329 0.6435 3.6493c 17.3326,-3.0562 34.6652,-6.1124 51.9978 -9.1686c -0.2145,-1.2165 -0.4290,-2.4329 -0.6435 -3.6493c 1.0084,-0.1778 2.0169,-0.3556 3.0253 -0.5335c -0.7657,-4.3426 -1.5315,-8.6852 -2.2972 -13.0278c -1.0084,0.1778 -2.0169,0.3556 -3.0253 0.5335c -1.0958,-6.2146 -2.1916,-12.4291 -3.2874 -18.6437c 1.0084,-0.1778 2.0169,-0.3556 3.0253 -0.5334c -0.7657,-4.3426 -1.5314,-8.6852 -2.2972 -13.0278c -1.0084,0.1778 -2.0169,0.3556 -3.0253 0.5335c -0.2145,-1.2165 -0.4290,-2.4329 -0.6435 -3.6493c -17.3326,3.0562 -34.6652,6.1124 -51.9978 9.1686c 0.2145,1.2165 0.4290,2.4329 0.6435 3.6493c -1.0084,0.1778 -2.0169,0.3556 -3.0253 0.5335ZM 371.9508,2165.2079 c 0.7657,4.3426 1.5314,8.6852 2.2971 13.0278c 1.0084,-0.1778 2.0169,-0.3556 3.0253 -0.5335c 1.0958,6.2146 2.1916,12.4291 3.2874 18.6437c -1.0084,0.1778 -2.0169,0.3556 -3.0253 0.5334c 0.7657,4.3426 1.5314,8.6852 2.2972 13.0278c 1.0084,-0.1778 2.0169,-0.3556 3.0253 -0.5334c 0.2145,1.2164 0.4290,2.4329 0.6435 3.6493c 17.3326,-3.0562 34.6652,-6.1124 51.9978 -9.1686c -0.2145,-1.2164 -0.4290,-2.4329 -0.6435 -3.6493c 1.0084,-0.1778 2.0169,-0.3556 3.0253 -0.5335c -0.7657,-4.3426 -1.5315,-8.6852 -2.2972 -13.0277c -1.0084,0.1778 -2.0169,0.3556 -3.0253 0.5334c -1.0958,-6.2145 -2.1916,-12.4291 -3.2874 -18.6436c 1.0084,-0.1778 2.0169,-0.3556 3.0253 -0.5335c -0.7657,-4.3426 -1.5314,-8.6852 -2.2972 -13.0278c -1.0084,0.1778 -2.0169,0.3556 -3.0253 0.5335c -0.2145,-1.2165 -0.4290,-2.4329 -0.6435 -3.6493c -17.3326,3.0562 -34.6652,6.1124 -51.9978 9.1686c 0.2145,1.2164 0.4290,2.4329 0.6435 3.6493c -1.0084,0.1778 -2.0169,0.3556 -3.0253 0.5334ZM 384.4206,2235.9280 c 0.7657,4.3426 1.5315,8.6852 2.2972 13.0278c 1.0084,-0.1778 2.0169,-0.3556 3.0253 -0.5334c 1.0958,6.2145 2.1916,12.4291 3.2874 18.6436c -1.0084,0.1778 -2.0169,0.3556 -3.0253 0.5335c 0.7657,4.3426 1.5314,8.6852 2.2972 13.0277c 1.0084,-0.1778 2.0169,-0.3556 3.0253 -0.5334c 0.2145,1.2164 0.4290,2.4329 0.6435 3.6493c 17.3326,-3.0562 34.6652,-6.1124 51.9978 -9.1686c -0.2145,-1.2164 -0.4290,-2.4329 -0.6435 -3.6493c 1.0084,-0.1778 2.0169,-0.3556 3.0253 -0.5334c -0.7657,-4.3426 -1.5314,-8.6852 -2.2971 -13.0278c -1.0084,0.1778 -2.0169,0.3556 -3.0253 0.5334c -1.0958,-6.2145 -2.1916,-12.4291 -3.2874 -18.6436c 1.0084,-0.1778 2.0169,-0.3556 3.0253 -0.5335c -0.7657,-4.3426 -1.5314,-8.6852 -2.2972 -13.0277c -1.0084,0.1778 -2.0169,0.3556 -3.0253 0.5334c -0.2145,-1.2164 -0.4290,-2.4329 -0.6435 -3.6493c -17.3326,3.0562 -34.6652,6.1124 -51.9978 9.1686c 0.2145,1.2164 0.4290,2.4329 0.6435 3.6493c -1.0084,0.1778 -2.0169,0.3556 -3.0253 0.5334ZM 396.8905,2306.6481 c 0.7657,4.3426 1.5315,8.6852 2.2972 13.0277c 1.0084,-0.1778 2.0169,-0.3556 3.0253 -0.5334c 1.0958,6.2145 2.1916,12.4291 3.2874 18.6436c -1.0084,0.1778 -2.0169,0.3556 -3.0253 0.5335c 0.7657,4.3426 1.5314,8.6852 2.2972 13.0278c 1.0084,-0.1778 2.0169,-0.3556 3.0253 -0.5335c 0.2145,1.2165 0.4290,2.4329 0.6435 3.6493c 17.3326,-3.0562 34.6652,-6.1124 51.9978 -9.1686c -0.2145,-1.2164 -0.4290,-2.4329 -0.6435 -3.6493c 1.0084,-0.1778 2.0169,-0.3556 3.0253 -0.5334c -0.7657,-4.3426 -1.5314,-8.6852 -2.2971 -13.0278c -1.0084,0.1778 -2.0169,0.3556 -3.0253 0.5335c -1.0958,-6.2146 -2.1916,-12.4291 -3.2874 -18.6437c 1.0084,-0.1778 2.0169,-0.3556 3.0253 -0.5334c -0.7657,-4.3426 -1.5314,-8.6852 -2.2972 -13.0278c -1.0084,0.1778 -2.0169,0.3556 -3.0253 0.5334c -0.2145,-1.2164 -0.4290,-2.4329 -0.6435 -3.6493c -17.3326,3.0562 -34.6652,6.1125 -51.9978 9.1686c 0.2145,1.2164 0.4290,2.4329 0.6435 3.6493c -1.0084,0.1778 -2.0169,0.3556 -3.0253 0.5335ZM 409.3604,2377.3681 c 0.7657,4.3426 1.5315,8.6852 2.2972 13.0278c 1.0084,-0.1778 2.0169,-0.3556 3.0253 -0.5335c 1.0958,6.2146 2.1916,12.4291 3.2874 18.6437c -1.0084,0.1778 -2.0169,0.3556 -3.0253 0.5334c 0.7657,4.3426 1.5314,8.6852 2.2971 13.0278c 1.0084,-0.1778 2.0169,-0.3556 3.0253 -0.5335c 0.2145,1.2165 0.4290,2.4329 0.6435 3.6493c 17.3326,-3.0562 34.6652,-6.1124 51.9978 -9.1686c -0.2145,-1.2165 -0.4290,-2.4329 -0.6435 -3.6493c 1.0084,-0.1778 2.0169,-0.3556 3.0253 -0.5335c -0.7657,-4.3426 -1.5314,-8.6852 -2.2971 -13.0278c -1.0084,0.1778 -2.0169,0.3556 -3.0253 0.5335c -1.0958,-6.2146 -2.1916,-12.4291 -3.2874 -18.6437c 1.0084,-0.1778 2.0169,-0.3556 3.0253 -0.5334c -0.7657,-4.3426 -1.5314,-8.6852 -2.2972 -13.0278c -1.0084,0.1778 -2.0169,0.3556 -3.0253 0.5334c -0.2145,-1.2164 -0.4290,-2.4329 -0.6435 -3.6493c -17.3326,3.0562 -34.6652,6.1124 -51.9978 9.1686c 0.2145,1.2165 0.4290,2.4329 0.6435 3.6493c -1.0084,0.1778 -2.0169,0.3556 -3.0253 0.5335ZM 430.8573,2085.7402 c 0.7657,4.3426 1.5314,8.6852 2.2972 13.0277c 1.0084,-0.1778 2.0169,-0.3556 3.0253 -0.5334c 1.0958,6.2145 2.1915,12.4291 3.2873 18.6437c -1.0084,0.1778 -2.0169,0.3556 -3.0253 0.5334c 0.7657,4.3426 1.5315,8.6852 2.2972 13.0278c 1.0084,-0.1778 2.0169,-0.3556 3.0253 -0.5335c 0.2145,1.2165 0.4290,2.4329 0.6435 3.6493c 17.3326,-3.0562 34.6652,-6.1124 51.9978 -9.1686c -0.2145,-1.2164 -0.4290,-2.4329 -0.6435 -3.6493c 1.0084,-0.1778 2.0169,-0.3556 3.0253 -0.5334c -0.7657,-4.3426 -1.5314,-8.6852 -2.2972 -13.0278c -1.0084,0.1778 -2.0169,0.3556 -3.0253 0.5335c -1.0958,-6.2146 -2.1915,-12.4291 -3.2873 -18.6437c 1.0084,-0.1778 2.0169,-0.3556 3.0253 -0.5334c -0.7657,-4.3426 -1.5314,-8.6852 -2.2972 -13.0278c -1.0084,0.1778 -2.0169,0.3556 -3.0253 0.5334c -0.2145,-1.2164 -0.4290,-2.4329 -0.6435 -3.6493c -17.3326,3.0562 -34.6652,6.1125 -51.9978 9.1686c 0.2145,1.2165 0.4290,2.4329 0.6435 3.6493c -1.0084,0.1778 -2.0169,0.3556 -3.0253 0.5335ZM 443.3272,2156.4602 c 0.7657,4.3426 1.5314,8.6852 2.2972 13.0278c 1.0084,-0.1778 2.0169,-0.3556 3.0253 -0.5335c 1.0958,6.2146 2.1915,12.4291 3.2873 18.6437c -1.0084,0.1778 -2.0169,0.3556 -3.0253 0.5334c 0.7657,4.3426 1.5314,8.6852 2.2972 13.0278c 1.0084,-0.1778 2.0169,-0.3556 3.0253 -0.5334c 0.2145,1.2164 0.4290,2.4329 0.6435 3.6493c 17.3326,-3.0562 34.6652,-6.1124 51.9978 -9.1686c -0.2145,-1.2165 -0.4290,-2.4329 -0.6435 -3.6493c 1.0084,-0.1778 2.0169,-0.3556 3.0253 -0.5335c -0.7657,-4.3426 -1.5314,-8.6852 -2.2972 -13.0278c -1.0084,0.1778 -2.0169,0.3556 -3.0253 0.5335c -1.0958,-6.2146 -2.1915,-12.4291 -3.2873 -18.6437c 1.0084,-0.1778 2.0168,-0.3556 3.0253 -0.5334c -0.7657,-4.3426 -1.5315,-8.6852 -2.2972 -13.0278c -1.0084,0.1778 -2.0169,0.3556 -3.0253 0.5335c -0.2145,-1.2165 -0.4290,-2.4329 -0.6435 -3.6493c -17.3326,3.0562 -34.6652,6.1124 -51.9978 9.1686c 0.2145,1.2165 0.4290,2.4329 0.6435 3.6493c -1.0084,0.1778 -2.0169,0.3556 -3.0253 0.5335ZM 455.7970,2227.1803 c 0.7657,4.3426 1.5314,8.6852 2.2972 13.0278c 1.0084,-0.1778 2.0169,-0.3556 3.0253 -0.5335c 1.0957,6.2146 2.1915,12.4291 3.2873 18.6437c -1.0084,0.1778 -2.0169,0.3556 -3.0253 0.5334c 0.7657,4.3426 1.5315,8.6852 2.2972 13.0278c 1.0084,-0.1778 2.0169,-0.3556 3.0253 -0.5334c 0.2145,1.2164 0.4290,2.4329 0.6435 3.6493c 17.3326,-3.0562 34.6652,-6.1125 51.9978 -9.1686c -0.2145,-1.2164 -0.4290,-2.4329 -0.6435 -3.6493c 1.0084,-0.1778 2.0169,-0.3556 3.0253 -0.5334c -0.7657,-4.3426 -1.5314,-8.6852 -2.2972 -13.0278c -1.0084,0.1778 -2.0169,0.3556 -3.0253 0.5334c -1.0958,-6.2145 -2.1916,-12.4291 -3.2873 -18.6436c 1.0084,-0.1778 2.0169,-0.3556 3.0253 -0.5335c -0.7657,-4.3426 -1.5315,-8.6852 -2.2972 -13.0278c -1.0084,0.1778 -2.0169,0.3556 -3.0253 0.5335c -0.2145,-1.2164 -0.4290,-2.4329 -0.6435 -3.6493c -17.3326,3.0562 -34.6652,6.1124 -51.9978 9.1686c 0.2145,1.2164 0.4290,2.4329 0.6435 3.6493c -1.0084,0.1778 -2.0169,0.3556 -3.0253 0.5334ZM 468.2669,2297.9003 c 0.7657,4.3426 1.5314,8.6852 2.2972 13.0278c 1.0084,-0.1778 2.0169,-0.3556 3.0253 -0.5334c 1.0957,6.2145 2.1915,12.4291 3.2873 18.6436c -1.0084,0.1778 -2.0169,0.3556 -3.0253 0.5335c 0.7657,4.3426 1.5314,8.6852 2.2972 13.0277c 1.0084,-0.1778 2.0169,-0.3556 3.0253 -0.5334c 0.2145,1.2164 0.4290,2.4329 0.6435 3.6493c 17.3326,-3.0562 34.6652,-6.1124 51.9978 -9.1686c -0.2145,-1.2164 -0.4290,-2.4329 -0.6435 -3.6493c 1.0084,-0.1778 2.0169,-0.3556 3.0253 -0.5334c -0.7657,-4.3426 -1.5314,-8.6852 -2.2972 -13.0278c -1.0084,0.1778 -2.0169,0.3556 -3.0253 0.5334c -1.0958,-6.2145 -2.1916,-12.4291 -3.2873 -18.6436c 1.0084,-0.1778 2.0168,-0.3556 3.0253 -0.5335c -0.7657,-4.3426 -1.5314,-8.6852 -2.2971 -13.0277c -1.0084,0.1778 -2.0169,0.3556 -3.0253 0.5334c -0.2145,-1.2164 -0.4290,-2.4329 -0.6435 -3.6493c -17.3326,3.0562 -34.6652,6.1124 -51.9978 9.1686c 0.2145,1.2164 0.4290,2.4329 0.6435 3.6493c -1.0084,0.1778 -2.0169,0.3556 -3.0253 0.5334ZM 480.7367,2368.6204 c 0.7657,4.3426 1.5314,8.6852 2.2971 13.0277c 1.0084,-0.1778 2.0169,-0.3556 3.0253 -0.5334c 1.0958,6.2145 2.1916,12.4291 3.2874 18.6436c -1.0084,0.1778 -2.0169,0.3557 -3.0253 0.5335c 0.7657,4.3426 1.5314,8.6852 2.2972 13.0278c 1.0084,-0.1778 2.0169,-0.3556 3.0253 -0.5335c 0.2145,1.2165 0.4290,2.4329 0.6435 3.6493c 17.3326,-3.0562 34.6652,-6.1124 51.9978 -9.1686c -0.2145,-1.2164 -0.4290,-2.4329 -0.6435 -3.6493c 1.0084,-0.1778 2.0169,-0.3556 3.0253 -0.5334c -0.7657,-4.3426 -1.5314,-8.6852 -2.2972 -13.0278c -1.0084,0.1778 -2.0169,0.3556 -3.0253 0.5335c -1.0958,-6.2146 -2.1916,-12.4291 -3.2874 -18.6437c 1.0084,-0.1778 2.0169,-0.3556 3.0253 -0.5334c -0.7657,-4.3426 -1.5314,-8.6852 -2.2971 -13.0278c -1.0084,0.1778 -2.0169,0.3556 -3.0253 0.5334c -0.2145,-1.2164 -0.4290,-2.4329 -0.6435 -3.6493c -17.3326,3.0562 -34.6652,6.1125 -51.9978 9.1686c 0.2145,1.2164 0.4290,2.4329 0.6435 3.6493c -1.0084,0.1778 -2.0169,0.3556 -3.0253 0.5335ZM 504.2602,2052.6349 c 0.0000,3.1311 2.5382,5.6693 5.6693 5.6693c 3.1310,-0.0000 5.6693,-2.5382 5.6693 -5.6693c 0.0000,-3.1310 -2.5382,-5.6693 -5.6693 -5.6693c -3.1310,-0.0000 -5.6693,2.5382 -5.6693 5.6693ZM 569.5369,2415.2785 c 0.0000,3.1311 2.5382,5.6693 5.6693 5.6693c 3.1310,-0.0000 5.6693,-2.5382 5.6693 -5.6693c 0.0000,-3.1310 -2.5382,-5.6693 -5.6693 -5.6693c -3.1311,-0.0000 -5.6693,2.5382 -5.6693 5.6693Z"/></g><g stroke-linejoin="miter" stroke-opacity="1.0" fill-opacity="0.5" stroke="rgb(0,0,0)" stroke-width="0.7559055118110237" fill="rgb(0,0,255)" stroke-linecap="butt" stroke-miterlimit="10.0"><path d="M 3.9685,2048.8554 c 0.0000,-6.7840 5.4995,-12.2835 12.2835 -12.2835c 165.8190,-0.0000 331.6381,-0.0000 497.4571 -0.0000c 5.9611,-0.0000 11.0617,4.2799 12.0969 10.1505c 21.7589,123.4009 43.5178,246.8017 65.2767 370.2026c 0.1270,0.7202 0.1884,1.4373 0.1884 2.1451c 0.0000,5.6369 -3.8943,10.6833 -9.5744 11.9685c -139.1905,31.4946 -278.3811,62.9892 -417.5716 94.4837c -0.8896,0.2013 -1.7988,0.3029 -2.7108 0.3029c -48.3874,-0.0000 -96.7748,-0.0000 -145.1622 -0.0000c -6.7840,-0.0000 -12.2835,-5.4995 -12.2835 -12.2835c 0.0000,-154.8954 0.0000,-309.7909 0.0000 -464.6863ZM 37.5079,2402.5223 c 0.0000,0.2179 0.0189,0.4388 0.0581 0.6607c 4.3141,24.4667 8.6282,48.9333 12.9424 73.4000c 0.3624,2.0556 2.3227,3.4283 4.3784 3.0658c 22.3326,-3.9378 44.6653,-7.8757 66.9979 -11.8135c 1.8595,10.5459 3.7191,21.0919 5.5786 31.6379c 0.3625,2.0557 2.3228,3.4283 4.3784 3.0658c 24.4667,-4.3141 48.9333,-8.6283 73.4000 -12.9424c 1.8337,-0.3233 3.1238,-1.9180 3.1238 -3.7177c 0.0000,-0.2179 -0.0189,-0.4388 -0.0581 -0.6607c -0.8751,-4.9628 -1.7502,-9.9256 -2.6252 -14.8884c 22.3326,-3.9378 44.6653,-7.8757 66.9980 -11.8136c 1.8337,-0.3233 3.1238,-1.9180 3.1238 -3.7176c 0.0000,-0.2179 -0.0189,-0.4388 -0.0581 -0.6608c -1.0939,-6.2035 -2.1877,-12.4070 -3.2815 -18.6105c 20.1986,-3.5615 40.3972,-7.1231 60.5959 -10.6847c 0.8751,4.9628 1.7502,9.9256 2.6252 14.8884c 0.3625,2.0557 2.3228,3.4283 4.3784 3.0658c 22.3326,-3.9379 44.6653,-7.8757 66.9980 -11.8136c 0.4375,2.4814 0.8751,4.9628 1.3126 7.4442c 0.3625,2.0556 2.3228,3.4282 4.3784 3.0658c 22.3326,-3.9379 44.6653,-7.8757 66.9980 -11.8136c 0.3624,2.0557 2.3227,3.4283 4.3784 3.0658c 24.4666,-4.3141 48.9333,-8.6283 73.3999 -12.9424c 1.8337,-0.3233 3.1239,-1.9180 3.1239 -3.7177c 0.0000,-0.2179 -0.0189,-0.4388 -0.0581 -0.6607c -4.1567,-23.5733 -8.3133,-47.1467 -12.4699 -70.7201c -0.1575,-0.8933 -0.3150,-1.7866 -0.4725 -2.6799c -3.9991,-22.6800 -7.9982,-45.3601 -11.9973 -68.0401c -0.1575,-0.8933 -0.3150,-1.7866 -0.4725 -2.6799c -3.9991,-22.6801 -7.9982,-45.3601 -11.9973 -68.0401c -0.1575,-0.8933 -0.3150,-1.7866 -0.4725 -2.6799c -3.9991,-22.6801 -7.9982,-45.3601 -11.9973 -68.0401c -0.1575,-0.8933 -0.3150,-1.7866 -0.4725 -2.6800c -4.1566,-23.5733 -8.3133,-47.1467 -12.4699 -70.7200c -0.3625,-2.0556 -2.3228,-3.4283 -4.3784 -3.0658c -22.3326,3.9378 -44.6653,7.8757 -66.9980 11.8136c -0.3624,-2.0557 -2.3227,-3.4283 -4.3784 -3.0658c -22.3327,3.9379 -44.6653,7.8757 -66.9980 11.8136c -0.4376,-2.4814 -0.8751,-4.9628 -1.3126 -7.4442c -0.3625,-2.0556 -2.3228,-3.4282 -4.3784 -3.0658c -22.3327,3.9378 -44.6653,7.8757 -66.9980 11.8136c -0.8751,-4.9628 -1.7502,-9.9256 -2.6252 -14.8884c -0.3625,-2.0556 -2.3227,-3.4283 -4.3784 -3.0658c -24.4667,4.3141 -48.9333,8.6282 -73.3999 12.9423c -1.8337,0.3233 -3.1239,1.9180 -3.1239 3.7177c 0.0000,0.2179 0.0189,0.4388 0.0581 0.6607c 1.0939,6.2035 2.1877,12.4070 3.2815 18.6106c -22.3326,3.9378 -44.6653,7.8757 -66.9979 11.8136c -1.8337,0.3233 -3.1239,1.9180 -3.1239 3.7176c 0.0000,0.2179 0.0189,0.4388 0.0581 0.6608c 0.8751,4.9628 1.7502,9.9256 2.6252 14.8884c -22.3326,3.9379 -44.6653,7.8757 -66.9979 11.8136c -1.8337,0.3233 -3.1239,1.9180 -3.1239 3.7177c 0.0000,0.2178 0.0190,0.4387 0.0581 0.6607c 4.1567,23.5733 8.3133,47.1467 12.4699 70.7200c 0.1575,0.8933 0.3150,1.7866 0.4726 2.6800c 3.9991,22.6800 7.9982,45.3601 11.9973 68.0401c 0.1575,0.8933 0.3150,1.7866 0.4725 2.6800c 3.9991,22.6800 7.9982,45.3601 11.9973 68.0401c 0.1575,0.8933 0.3150,1.7866 0.4725 2.6799c 1.7020,9.6527 3.4040,19.3053 5.1061 28.9580c -22.3326,3.9378 -44.6653,7.8757 -66.9980 11.8135c -1.8337,0.3233 -3.1238,1.9180 -3.1238 3.7177ZM 86.1732,2052.6349 c 0.0000,3.1311 2.5382,5.6693 5.6693 5.6693c 3.1311,-0.0000 5.6693,-2.5382 5.6693 -5.6693c 0.0000,-3.1310 -2.5382,-5.6693 -5.6693 -5.6693c -3.1310,-0.0000 -5.6693,2.5382 -5.6693 5.6693ZM 155.7449,2509.7622 c 0.0000,3.1311 2.5382,5.6693 5.6693 5.6693c 3.1311,-0.0000 5.6693,-2.5382 5.6693 -5.6693c 0.0000,-3.1310 -2.5382,-5.6693 -5.6693 -5.6693c -3.1310,-0.0000 -5.6693,2.5382 -5.6693 5.6693ZM 504.2602,2052.6349 c 0.0000,3.1311 2.5382,5.6693 5.6693 5.6693c 3.1310,-0.0000 5.6693,-2.5382 5.6693 -5.6693c 0.0000,-3.1310 -2.5382,-5.6693 -5.6693 -5.6693c -3.1310,-0.0000 -5.6693,2.5382 -5.6693 5.6693ZM 569.5369,2415.2785 c 0.0000,3.1311 2.5382,5.6693 5.6693 5.6693c 3.1310,-0.0000 5.6693,-2.5382 5.6693 -5.6693c 0.0000,-3.1310 -2.5382,-5.6693 -5.6693 -5.6693c -3.1311,-0.0000 -5.6693,2.5382 -5.6693 5.6693Z"/></g><defs><linearGradient x2="38.8476" y1="0.0000" gradientUnits="userSpaceOnUse" spreadMethod="pad" gradientTransform="matrix(3.7795,-0.0000,0.0000,-3.7795,16.2520,1973.0908)" id="gradient8" y2="-60.0000" x1="-38.8476"><stop stop-opacity="1.0000" offset="0.0000" stop-color="rgb(128,128,128)"/><stop stop-opacity="1.0000" offset="0.5000" stop-color="rgb(255,255,255)"/><stop stop-opacity="1.0000" offset="1.0000" stop-color="rgb(128,128,128)"/></linearGradient></defs><g stroke-linejoin="miter" stroke-opacity="1.0" fill-opacity="1" stroke="rgb(0,0,0)" stroke-width="0.7559055118110237" fill="url(#gradient8)" stroke-linecap="butt" stroke-miterlimit="10.0"><path d="M 3.9685,1540.7045 c 0.0000,-6.7840 5.4995,-12.2835 12.2835 -12.2835c 165.8190,-0.0000 331.6381,-0.0000 497.4571 -0.0000c 5.9611,-0.0000 11.0617,4.2799 12.0969 10.1505c 21.7589,123.4009 43.5178,246.8017 65.2767 370.2026c 0.1270,0.7202 0.1884,1.4373 0.1884 2.1451c 0.0000,5.6369 -3.8943,10.6833 -9.5744 11.9685c -139.1905,31.4946 -278.3811,62.9892 -417.5716 94.4837c -0.8896,0.2013 -1.7988,0.3029 -2.7108 0.3029c -48.3874,-0.0000 -96.7748,-0.0000 -145.1622 -0.0000c -6.7840,-0.0000 -12.2835,-5.4995 -12.2835 -12.2835c 0.0000,-154.8954 0.0000,-309.7909 0.0000 -464.6863ZM 86.1732,1544.4841 c 0.0000,3.1311 2.5382,5.6693 5.6693 5.6693c 3.1311,-0.0000 5.6693,-2.5382 5.6693 -5.6693c 0.0000,-3.1310 -2.5382,-5.6693 -5.6693 -5.6693c -3.1310,-0.0000 -5.6693,2.5382 -5.6693 5.6693ZM 155.7449,2001.6113 c 0.0000,3.1311 2.5382,5.6693 5.6693 5.6693c 3.1311,-0.0000 5.6693,-2.5382 5.6693 -5.6693c 0.0000,-3.1310 -2.5382,-5.6693 -5.6693 -5.6693c -3.1310,-0.0000 -5.6693,2.5382 -5.6693 5.6693ZM 504.2602,1544.4841 c 0.0000,3.1311 2.5382,5.6693 5.6693 5.6693c 3.1310,-0.0000 5.6693,-2.5382 5.6693 -5.6693c 0.0000,-3.1310 -2.5382,-5.6693 -5.6693 -5.6693c -3.1310,-0.0000 -5.6693,2.5382 -5.6693 5.6693ZM 569.5369,1907.1276 c 0.0000,3.1311 2.5382,5.6693 5.6693 5.6693c 3.1310,-0.0000 5.6693,-2.5382 5.6693 -5.6693c 0.0000,-3.1310 -2.5382,-5.6693 -5.6693 -5.6693c -3.1311,-0.0000 -5.6693,2.5382 -5.6693 5.6693Z"/></g><g stroke-linejoin="miter" stroke-opacity="1.0" fill-opacity="0.5" stroke="rgb(0,0,0)" stroke-width="0.7559055118110237" fill="rgb(255,255,0)" stroke-linecap="butt" stroke-miterlimit="10.0"><path d="M 3.9685,1032.5537 c 0.0000,-6.7839 5.4995,-12.2835 12.2835 -12.2835c 24.1260,-0.0000 48.2520,-0.0000 72.3780 -0.0000c 2.1416,-0.0000 4.2833,-0.0000 6.4250 -0.0000c 137.2206,-0.0000 274.4413,-0.0000 411.6620 -0.0000c 2.1416,-0.0000 4.2833,-0.0000 6.4250 -0.0000c 0.1890,-0.0000 0.3780,-0.0000 0.5670 -0.0000c 5.9611,-0.0000 11.0617,4.2799 12.0969 10.1505c 21.1744,120.0858 42.3488,240.1716 63.5231 360.2574c 0.5846,3.3150 1.1690,6.6301 1.7536 9.9453c 0.0953,0.5407 0.1537,1.0798 0.1769 1.6144c 0.0077,0.1775 0.0115,0.3544 0.0115 0.5307c 0.0000,5.6369 -3.8944,10.6833 -9.5744 11.9685c -137.7325,31.1647 -275.4649,62.3293 -413.1974 93.4940c -1.4581,0.3300 -2.9161,0.6599 -4.3742 0.9898c -0.8896,0.2013 -1.7988,0.3028 -2.7109 0.3028c -1.0709,-0.0000 -2.1418,-0.0000 -3.2127 -0.0000c -47.3165,-0.0000 -94.6330,-0.0000 -141.9495 -0.0000c -6.7840,-0.0000 -12.2835,-5.4995 -12.2835 -12.2835c 0.0000,-154.8954 0.0000,-309.7908 -0.0000 -464.6863ZM 27.5942,1054.0922 c 0.0000,140.5365 0.0000,281.0729 0.0000 421.6093c 0.0000,6.1552 5.0748,11.1448 11.3349 11.1448c 35.8325,-0.0000 71.6651,-0.0000 107.4976 -0.0000c 2.5416,-5.7507 8.2959,-9.7638 14.9874 -9.7638c 6.5138,-0.0000 12.1394,3.8026 14.7781 9.3089c 127.5966,-28.3870 255.1932,-56.7740 382.7898 -85.1611c -0.1014,-0.7367 -0.1538,-1.4890 -0.1538 -2.2536c 0.0000,-6.7095 4.0345,-12.4766 9.8100 -15.0078c -19.8029,-110.4241 -39.6058,-220.8483 -59.4087 -331.2724c -6.3910,-0.2687 -11.8350,-4.1999 -14.2876 -9.7491c -129.3707,-0.0000 -258.7413,-0.0000 -388.1120 -0.0000c -2.5415,5.7507 -8.2959,9.7638 -14.9875 9.7638c -6.6916,-0.0000 -12.4459,-4.0131 -14.9875 -9.7638c -12.6420,-0.0000 -25.2840,-0.0000 -37.9259 -0.0000c -6.2601,-0.0000 -11.3349,4.9897 -11.3349 11.1448ZM 86.1732,1036.3332 c 0.0000,3.1310 2.5383,5.6693 5.6693 5.6693c 3.1311,-0.0000 5.6693,-2.5383 5.6693 -5.6693c 0.0000,-3.1311 -2.5382,-5.6693 -5.6693 -5.6693c -3.1310,-0.0000 -5.6693,2.5382 -5.6693 5.6693ZM 155.7449,1493.4605 c 0.0000,3.1311 2.5382,5.6693 5.6693 5.6693c 3.1310,-0.0000 5.6693,-2.5382 5.6693 -5.6693c 0.0000,-3.1311 -2.5382,-5.6693 -5.6693 -5.6693c -3.1311,-0.0000 -5.6693,2.5382 -5.6693 5.6693ZM 504.2602,1036.3332 c 0.0000,3.1310 2.5382,5.6693 5.6693 5.6693c 3.1311,-0.0000 5.6693,-2.5383 5.6693 -5.6693c 0.0000,-3.1311 -2.5382,-5.6693 -5.6693 -5.6693c -3.1311,-0.0000 -5.6693,2.5382 -5.6693 5.6693ZM 569.5369,1398.9768 c 0.0000,3.1310 2.5382,5.6693 5.6693 5.6693c 3.1310,-0.0000 5.6693,-2.5383 5.6693 -5.6693c 0.0000,-3.1311 -2.5383,-5.6693 -5.6693 -5.6693c -3.1311,-0.0000 -5.6693,2.5382 -5.6693 5.6693Z"/></g><g stroke-linejoin="miter" stroke-opacity="1.0" fill-opacity="0.5" stroke="rgb(0,0,0)" stroke-width="0.7559055118110237" fill="rgb(0,128,0)" stroke-linecap="butt" stroke-miterlimit="10.0"><path d="M 3.9685,524.4028 c 0.0000,-6.7840 5.4995,-12.2835 12.2835 -12.2835c 165.8190,-0.0000 331.6381,-0.0000 497.4571 -0.0000c 5.9611,-0.0000 11.0617,4.2799 12.0969 10.1505c 21.7589,123.4009 43.5178,246.8017 65.2767 370.2026c 0.1270,0.7202 0.1884,1.4373 0.1884 2.1451c 0.0000,5.6369 -3.8943,10.6833 -9.5744 11.9685c -139.1905,31.4946 -278.3811,62.9892 -417.5716 94.4837c -0.8896,0.2013 -1.7988,0.3029 -2.7108 0.3029c -48.3874,-0.0000 -96.7748,-0.0000 -145.1622 -0.0000c -6.7840,-0.0000 -12.2835,-5.4995 -12.2835 -12.2835c 0.0000,-154.8954 0.0000,-309.7909 0.0000 -464.6863ZM 51.4941,891.0711 c 0.7657,4.3426 1.5314,8.6852 2.2972 13.0278c 1.0084,-0.1778 2.0169,-0.3556 3.0253 -0.5335c 1.0957,6.2146 2.1915,12.4291 3.2873 18.6437c -1.0084,0.1778 -2.0169,0.3556 -3.0253 0.5334c 0.7657,4.3426 1.5315,8.6852 2.2972 13.0278c 1.0084,-0.1778 2.0169,-0.3556 3.0253 -0.5334c 0.2145,1.2164 0.4290,2.4329 0.6435 3.6493c 17.3326,-3.0562 34.6652,-6.1125 51.9978 -9.1686c -0.2145,-1.2165 -0.4290,-2.4329 -0.6435 -3.6493c 1.0084,-0.1778 2.0169,-0.3556 3.0253 -0.5335c -0.7657,-4.3426 -1.5314,-8.6852 -2.2972 -13.0278c -1.0084,0.1778 -2.0169,0.3557 -3.0253 0.5335c -1.0958,-6.2145 -2.1916,-12.4291 -3.2874 -18.6436c 1.0085,-0.1778 2.0169,-0.3556 3.0253 -0.5335c -0.7657,-4.3426 -1.5314,-8.6852 -2.2971 -13.0278c -1.0084,0.1778 -2.0169,0.3556 -3.0253 0.5335c -0.2145,-1.2165 -0.4290,-2.4329 -0.6435 -3.6493c -17.3326,3.0562 -34.6652,6.1124 -51.9978 9.1686c 0.2145,1.2164 0.4290,2.4329 0.6435 3.6493c -1.0084,0.1778 -2.0169,0.3556 -3.0253 0.5334ZM 78.5697,631.0811 c 0.7657,4.3426 1.5315,8.6852 2.2972 13.0278c 1.0084,-0.1778 2.0169,-0.3556 3.0253 -0.5335c 1.0958,6.2146 2.1916,12.4291 3.2874 18.6437c -1.0084,0.1778 -2.0169,0.3556 -3.0253 0.5334c 0.7657,4.3426 1.5314,8.6852 2.2972 13.0278c 1.0084,-0.1778 2.0169,-0.3556 3.0253 -0.5335c 0.2145,1.2165 0.4290,2.4329 0.6435 3.6493c 17.3326,-3.0562 34.6652,-6.1124 51.9978 -9.1686c -0.2145,-1.2165 -0.4290,-2.4329 -0.6435 -3.6493c 1.0084,-0.1778 2.0169,-0.3556 3.0253 -0.5335c -0.7657,-4.3426 -1.5314,-8.6852 -2.2971 -13.0278c -1.0084,0.1778 -2.0169,0.3556 -3.0253 0.5335c -1.0958,-6.2146 -2.1916,-12.4291 -3.2874 -18.6437c 1.0084,-0.1778 2.0169,-0.3556 3.0253 -0.5334c -0.7657,-4.3426 -1.5314,-8.6852 -2.2972 -13.0278c -1.0084,0.1778 -2.0169,0.3556 -3.0253 0.5334c -0.2145,-1.2164 -0.4290,-2.4329 -0.6435 -3.6493c -17.3326,3.0562 -34.6652,6.1124 -51.9978 9.1686c 0.2145,1.2165 0.4290,2.4329 0.6435 3.6493c -1.0084,0.1778 -2.0169,0.3556 -3.0253 0.5335ZM 86.1732,528.1824 c 0.0000,3.1311 2.5382,5.6693 5.6693 5.6693c 3.1311,-0.0000 5.6693,-2.5382 5.6693 -5.6693c 0.0000,-3.1310 -2.5382,-5.6693 -5.6693 -5.6693c -3.1310,-0.0000 -5.6693,2.5382 -5.6693 5.6693ZM 91.0395,701.8011 c 0.7657,4.3426 1.5314,8.6852 2.2972 13.0278c 1.0084,-0.1778 2.0169,-0.3556 3.0253 -0.5335c 1.0958,6.2146 2.1916,12.4291 3.2874 18.6437c -1.0084,0.1778 -2.0169,0.3556 -3.0253 0.5334c 0.7657,4.3426 1.5314,8.6852 2.2972 13.0278c 1.0084,-0.1778 2.0169,-0.3556 3.0253 -0.5334c 0.2145,1.2164 0.4290,2.4329 0.6435 3.6493c 17.3326,-3.0562 34.6652,-6.1125 51.9978 -9.1686c -0.2145,-1.2165 -0.4290,-2.4329 -0.6435 -3.6493c 1.0084,-0.1778 2.0169,-0.3556 3.0253 -0.5335c -0.7657,-4.3426 -1.5314,-8.6852 -2.2971 -13.0277c -1.0084,0.1778 -2.0169,0.3556 -3.0253 0.5334c -1.0958,-6.2145 -2.1916,-12.4291 -3.2874 -18.6436c 1.0084,-0.1778 2.0169,-0.3556 3.0253 -0.5335c -0.7657,-4.3426 -1.5314,-8.6852 -2.2972 -13.0278c -1.0084,0.1778 -2.0169,0.3556 -3.0253 0.5335c -0.2145,-1.2165 -0.4290,-2.4329 -0.6435 -3.6493c -17.3326,3.0562 -34.6652,6.1124 -51.9978 9.1686c 0.2145,1.2164 0.4290,2.4329 0.6435 3.6493c -1.0084,0.1778 -2.0169,0.3556 -3.0253 0.5335ZM 103.5094,772.5211 c 0.7657,4.3426 1.5314,8.6852 2.2972 13.0278c 1.0084,-0.1778 2.0169,-0.3556 3.0253 -0.5335c 1.0958,6.2146 2.1916,12.4292 3.2874 18.6437c -1.0084,0.1778 -2.0169,0.3556 -3.0253 0.5335c 0.7657,4.3426 1.5314,8.6852 2.2971 13.0277c 1.0084,-0.1778 2.0169,-0.3556 3.0253 -0.5334c 0.2145,1.2164 0.4290,2.4329 0.6435 3.6493c 17.3326,-3.0562 34.6652,-6.1124 51.9978 -9.1686c -0.2145,-1.2164 -0.4290,-2.4329 -0.6435 -3.6493c 1.0084,-0.1778 2.0169,-0.3556 3.0253 -0.5334c -0.7657,-4.3426 -1.5314,-8.6852 -2.2971 -13.0278c -1.0084,0.1778 -2.0169,0.3556 -3.0253 0.5334c -1.0958,-6.2145 -2.1916,-12.4291 -3.2874 -18.6436c 1.0084,-0.1778 2.0169,-0.3556 3.0253 -0.5335c -0.7657,-4.3426 -1.5314,-8.6852 -2.2972 -13.0278c -1.0084,0.1778 -2.0169,0.3556 -3.0253 0.5335c -0.2145,-1.2164 -0.4290,-2.4329 -0.6435 -3.6493c -17.3326,3.0562 -34.6652,6.1124 -51.9978 9.1686c 0.2145,1.2164 0.4290,2.4329 0.6435 3.6493c -1.0084,0.1778 -2.0169,0.3556 -3.0253 0.5334ZM 115.9792,843.2412 c 0.7657,4.3426 1.5314,8.6852 2.2972 13.0277c 1.0084,-0.1778 2.0169,-0.3556 3.0253 -0.5334c 1.0958,6.2145 2.1916,12.4291 3.2874 18.6436c -1.0084,0.1778 -2.0169,0.3556 -3.0253 0.5335c 0.7657,4.3426 1.5314,8.6852 2.2971 13.0278c 1.0084,-0.1778 2.0169,-0.3556 3.0253 -0.5335c 0.2145,1.2164 0.4290,2.4329 0.6435 3.6493c 17.3326,-3.0562 34.6652,-6.1124 51.9978 -9.1686c -0.2145,-1.2164 -0.4290,-2.4329 -0.6435 -3.6493c 1.0084,-0.1778 2.0169,-0.3556 3.0253 -0.5334c -0.7657,-4.3426 -1.5314,-8.6852 -2.2972 -13.0278c -1.0084,0.1778 -2.0169,0.3556 -3.0253 0.5334c -1.0958,-6.2145 -2.1916,-12.4291 -3.2874 -18.6436c 1.0084,-0.1778 2.0169,-0.3556 3.0253 -0.5335c -0.7657,-4.3426 -1.5314,-8.6852 -2.2972 -13.0277c -1.0084,0.1778 -2.0169,0.3556 -3.0253 0.5334c -0.2145,-1.2164 -0.4290,-2.4329 -0.6435 -3.6493c -17.3326,3.0562 -34.6652,6.1124 -51.9978 9.1686c 0.2145,1.2164 0.4290,2.4329 0.6435 3.6493c -1.0084,0.1778 -2.0169,0.3556 -3.0253 0.5335ZM 128.4491,913.9613 c 0.7657,4.3426 1.5314,8.6852 2.2972 13.0278c 1.0084,-0.1778 2.0169,-0.3556 3.0253 -0.5335c 1.0958,6.2146 2.1916,12.4291 3.2874 18.6436c -1.0084,0.1778 -2.0169,0.3557 -3.0253 0.5335c 0.7657,4.3426 1.5314,8.6852 2.2971 13.0278c 1.0084,-0.1778 2.0169,-0.3556 3.0253 -0.5335c 0.2145,1.2165 0.4290,2.4329 0.6435 3.6493c 17.3326,-3.0562 34.6652,-6.1124 51.9978 -9.1686c -0.2145,-1.2164 -0.4290,-2.4329 -0.6435 -3.6493c 1.0084,-0.1778 2.0169,-0.3557 3.0253 -0.5335c -0.7657,-4.3426 -1.5314,-8.6852 -2.2971 -13.0278c -1.0084,0.1778 -2.0169,0.3556 -3.0253 0.5335c -1.0958,-6.2146 -2.1916,-12.4291 -3.2874 -18.6437c 1.0084,-0.1778 2.0169,-0.3556 3.0253 -0.5334c -0.7657,-4.3426 -1.5314,-8.6852 -2.2972 -13.0278c -1.0084,0.1778 -2.0169,0.3556 -3.0253 0.5334c -0.2145,-1.2164 -0.4290,-2.4329 -0.6435 -3.6493c -17.3326,3.0562 -34.6652,6.1125 -51.9978 9.1686c 0.2145,1.2165 0.4290,2.4329 0.6435 3.6493c -1.0084,0.1778 -2.0169,0.3556 -3.0253 0.5335ZM 146.0082,600.0006 c 0.7657,4.3426 1.5314,8.6852 2.2972 13.0278c 1.0084,-0.1778 2.0169,-0.3556 3.0253 -0.5334c 1.0958,6.2145 2.1916,12.4291 3.2874 18.6436c -1.0084,0.1778 -2.0169,0.3556 -3.0253 0.5335c 0.7657,4.3426 1.5314,8.6852 2.2971 13.0278c 1.0084,-0.1778 2.0169,-0.3557 3.0253 -0.5335c 0.2145,1.2164 0.4290,2.4329 0.6435 3.6493c 17.3326,-3.0562 34.6652,-6.1124 51.9978 -9.1686c -0.2145,-1.2164 -0.4290,-2.4329 -0.6435 -3.6493c 1.0084,-0.1778 2.0169,-0.3556 3.0253 -0.5334c -0.7657,-4.3426 -1.5314,-8.6852 -2.2971 -13.0278c -1.0084,0.1778 -2.0169,0.3556 -3.0253 0.5334c -1.0958,-6.2145 -2.1916,-12.4291 -3.2874 -18.6436c 1.0084,-0.1778 2.0169,-0.3556 3.0253 -0.5335c -0.7657,-4.3426 -1.5314,-8.6852 -2.2972 -13.0277c -1.0084,0.1778 -2.0169,0.3556 -3.0253 0.5334c -0.2145,-1.2164 -0.4290,-2.4329 -0.6435 -3.6493c -17.3326,3.0562 -34.6652,6.1124 -51.9978 9.1686c 0.2145,1.2164 0.4290,2.4329 0.6435 3.6493c -1.0084,0.1778 -2.0169,0.3556 -3.0253 0.5334ZM 155.7449,985.3096 c 0.0000,3.1311 2.5382,5.6693 5.6693 5.6693c 3.1311,-0.0000 5.6693,-2.5382 5.6693 -5.6693c 0.0000,-3.1310 -2.5382,-5.6693 -5.6693 -5.6693c -3.1310,-0.0000 -5.6693,2.5382 -5.6693 5.6693ZM 158.4780,670.7207 c 0.7657,4.3426 1.5314,8.6852 2.2972 13.0277c 1.0084,-0.1778 2.0169,-0.3556 3.0253 -0.5334c 1.0958,6.2145 2.1916,12.4291 3.2874 18.6436c -1.0084,0.1778 -2.0169,0.3556 -3.0253 0.5335c 0.7657,4.3426 1.5314,8.6852 2.2971 13.0278c 1.0084,-0.1778 2.0169,-0.3556 3.0253 -0.5335c 0.2145,1.2165 0.4290,2.4329 0.6435 3.6493c 17.3326,-3.0562 34.6652,-6.1124 51.9978 -9.1686c -0.2145,-1.2164 -0.4290,-2.4329 -0.6435 -3.6493c 1.0084,-0.1778 2.0169,-0.3556 3.0253 -0.5334c -0.7657,-4.3426 -1.5314,-8.6852 -2.2971 -13.0278c -1.0084,0.1778 -2.0169,0.3556 -3.0253 0.5334c -1.0958,-6.2145 -2.1916,-12.4291 -3.2874 -18.6436c 1.0084,-0.1778 2.0169,-0.3556 3.0253 -0.5334c -0.7657,-4.3426 -1.5314,-8.6852 -2.2972 -13.0278c -1.0084,0.1778 -2.0169,0.3556 -3.0253 0.5334c -0.2145,-1.2164 -0.4290,-2.4329 -0.6435 -3.6493c -17.3326,3.0562 -34.6652,6.1125 -51.9978 9.1686c 0.2145,1.2164 0.4290,2.4329 0.6435 3.6493c -1.0084,0.1778 -2.0169,0.3556 -3.0253 0.5335ZM 170.9479,741.4408 c 0.7657,4.3426 1.5314,8.6852 2.2972 13.0278c 1.0084,-0.1778 2.0169,-0.3556 3.0253 -0.5335c 1.0958,6.2146 2.1916,12.4291 3.2874 18.6437c -1.0084,0.1778 -2.0169,0.3556 -3.0253 0.5334c 0.7657,4.3426 1.5314,8.6852 2.2971 13.0278c 1.0084,-0.1778 2.0169,-0.3556 3.0253 -0.5335c 0.2145,1.2165 0.4290,2.4329 0.6435 3.6493c 17.3326,-3.0562 34.6652,-6.1124 51.9978 -9.1686c -0.2145,-1.2164 -0.4290,-2.4329 -0.6435 -3.6493c 1.0084,-0.1778 2.0169,-0.3556 3.0253 -0.5335c -0.7657,-4.3426 -1.5314,-8.6852 -2.2971 -13.0278c -1.0084,0.1778 -2.0169,0.3556 -3.0253 0.5335c -1.0958,-6.2146 -2.1916,-12.4291 -3.2874 -18.6437c 1.0084,-0.1778 2.0169,-0.3556 3.0253 -0.5334c -0.7657,-4.3426 -1.5314,-8.6852 -2.2972 -13.0278c -1.0084,0.1778 -2.0169,0.3556 -3.0253 0.5334c -0.2145,-1.2164 -0.4290,-2.4329 -0.6435 -3.6493c -17.3326,3.0562 -34.6652,6.1125 -51.9978 9.1686c 0.2145,1.2165 0.4290,2.4329 0.6435 3.6493c -1.0084,0.1778 -2.0169,0.3556 -3.0253 0.5335ZM 183.4177,812.1608 c 0.7657,4.3426 1.5314,8.6852 2.2972 13.0278c 1.0084,-0.1778 2.0169,-0.3556 3.0253 -0.5335c 1.0958,6.2146 2.1916,12.4291 3.2874 18.6437c -1.0084,0.1778 -2.0169,0.3556 -3.0253 0.5334c 0.7657,4.3426 1.5314,8.6852 2.2971 13.0278c 1.0084,-0.1778 2.0169,-0.3556 3.0253 -0.5334c 0.2145,1.2164 0.4290,2.4329 0.6435 3.6493c 17.3326,-3.0562 34.6652,-6.1125 51.9978 -9.1686c -0.2145,-1.2165 -0.4290,-2.4329 -0.6435 -3.6493c 1.0084,-0.1778 2.0169,-0.3556 3.0253 -0.5335c -0.7657,-4.3426 -1.5314,-8.6852 -2.2971 -13.0277c -1.0085,0.1778 -2.0169,0.3556 -3.0253 0.5334c -1.0958,-6.2146 -2.1916,-12.4291 -3.2874 -18.6437c 1.0084,-0.1778 2.0169,-0.3556 3.0253 -0.5334c -0.7657,-4.3426 -1.5314,-8.6852 -2.2972 -13.0278c -1.0084,0.1778 -2.0169,0.3556 -3.0253 0.5335c -0.2145,-1.2165 -0.4290,-2.4329 -0.6435 -3.6493c -17.3326,3.0562 -34.6652,6.1124 -51.9978 9.1686c 0.2145,1.2164 0.4290,2.4329 0.6435 3.6493c -1.0084,0.1778 -2.0169,0.3557 -3.0253 0.5335ZM 195.8876,882.8808 c 0.7657,4.3426 1.5314,8.6852 2.2972 13.0278c 1.0084,-0.1778 2.0169,-0.3556 3.0253 -0.5334c 1.0958,6.2145 2.1916,12.4291 3.2873 18.6436c -1.0084,0.1778 -2.0169,0.3556 -3.0253 0.5335c 0.7657,4.3426 1.5314,8.6852 2.2971 13.0277c 1.0084,-0.1778 2.0169,-0.3556 3.0253 -0.5334c 0.2145,1.2164 0.4290,2.4329 0.6435 3.6493c 17.3326,-3.0562 34.6652,-6.1124 51.9978 -9.1686c -0.2145,-1.2164 -0.4290,-2.4329 -0.6435 -3.6493c 1.0084,-0.1778 2.0169,-0.3556 3.0253 -0.5334c -0.7657,-4.3426 -1.5314,-8.6852 -2.2972 -13.0278c -1.0084,0.1778 -2.0169,0.3556 -3.0253 0.5334c -1.0957,-6.2145 -2.1915,-12.4291 -3.2873 -18.6436c 1.0084,-0.1778 2.0169,-0.3556 3.0253 -0.5335c -0.7657,-4.3426 -1.5314,-8.6852 -2.2972 -13.0278c -1.0084,0.1778 -2.0169,0.3556 -3.0253 0.5335c -0.2145,-1.2164 -0.4290,-2.4329 -0.6435 -3.6493c -17.3326,3.0562 -34.6652,6.1124 -51.9978 9.1686c 0.2145,1.2164 0.4290,2.4329 0.6435 3.6493c -1.0084,0.1778 -2.0169,0.3556 -3.0253 0.5334ZM 212.7904,565.1981 c 0.7657,4.3426 1.5314,8.6852 2.2972 13.0278c 1.0084,-0.1778 2.0169,-0.3556 3.0253 -0.5334c 1.0958,6.2145 2.1915,12.4291 3.2873 18.6436c -1.0084,0.1778 -2.0169,0.3556 -3.0253 0.5335c 0.7657,4.3426 1.5315,8.6852 2.2972 13.0277c 1.0084,-0.1778 2.0169,-0.3556 3.0253 -0.5334c 0.2145,1.2164 0.4290,2.4329 0.6435 3.6493c 17.3326,-3.0562 34.6652,-6.1124 51.9978 -9.1686c -0.2145,-1.2164 -0.4290,-2.4329 -0.6435 -3.6493c 1.0084,-0.1778 2.0169,-0.3556 3.0253 -0.5334c -0.7657,-4.3426 -1.5314,-8.6852 -2.2972 -13.0278c -1.0084,0.1778 -2.0169,0.3556 -3.0253 0.5334c -1.0958,-6.2145 -2.1915,-12.4291 -3.2873 -18.6436c 1.0084,-0.1778 2.0169,-0.3556 3.0253 -0.5335c -0.7657,-4.3426 -1.5315,-8.6852 -2.2972 -13.0278c -1.0084,0.1778 -2.0169,0.3556 -3.0253 0.5335c -0.2145,-1.2164 -0.4290,-2.4329 -0.6435 -3.6493c -17.3326,3.0562 -34.6652,6.1124 -51.9978 9.1686c 0.2145,1.2164 0.4290,2.4329 0.6435 3.6493c -1.0084,0.1778 -2.0169,0.3556 -3.0253 0.5334ZM 225.2603,635.9182 c 0.7657,4.3426 1.5314,8.6852 2.2972 13.0278c 1.0084,-0.1778 2.0169,-0.3556 3.0253 -0.5334c 1.0958,6.2145 2.1915,12.4291 3.2873 18.6436c -1.0084,0.1778 -2.0169,0.3556 -3.0253 0.5335c 0.7657,4.3426 1.5315,8.6852 2.2972 13.0278c 1.0084,-0.1778 2.0169,-0.3556 3.0253 -0.5335c 0.2145,1.2164 0.4290,2.4329 0.6435 3.6493c 17.3326,-3.0562 34.6652,-6.1124 51.9978 -9.1686c -0.2145,-1.2164 -0.4290,-2.4329 -0.6435 -3.6493c 1.0084,-0.1778 2.0169,-0.3556 3.0253 -0.5334c -0.7657,-4.3426 -1.5314,-8.6852 -2.2972 -13.0278c -1.0084,0.1778 -2.0169,0.3556 -3.0253 0.5334c -1.0958,-6.2145 -2.1915,-12.4291 -3.2873 -18.6436c 1.0084,-0.1778 2.0169,-0.3556 3.0253 -0.5335c -0.7657,-4.3426 -1.5314,-8.6852 -2.2971 -13.0277c -1.0084,0.1778 -2.0169,0.3556 -3.0253 0.5334c -0.2145,-1.2164 -0.4290,-2.4329 -0.6435 -3.6493c -17.3326,3.0562 -34.6652,6.1124 -51.9978 9.1686c 0.2145,1.2164 0.4290,2.4329 0.6435 3.6493c -1.0084,0.1778 -2.0169,0.3556 -3.0253 0.5334ZM 237.7301,706.6383 c 0.7657,4.3426 1.5314,8.6852 2.2972 13.0277c 1.0084,-0.1778 2.0169,-0.3556 3.0253 -0.5334c 1.0957,6.2146 2.1915,12.4291 3.2873 18.6436c -1.0084,0.1778 -2.0169,0.3557 -3.0253 0.5335c 0.7657,4.3426 1.5315,8.6852 2.2972 13.0278c 1.0084,-0.1778 2.0169,-0.3556 3.0253 -0.5335c 0.2145,1.2165 0.4290,2.4329 0.6435 3.6493c 17.3326,-3.0562 34.6652,-6.1124 51.9978 -9.1686c -0.2145,-1.2164 -0.4290,-2.4329 -0.6435 -3.6493c 1.0084,-0.1778 2.0169,-0.3556 3.0253 -0.5335c -0.7657,-4.3426 -1.5314,-8.6852 -2.2972 -13.0278c -1.0084,0.1778 -2.0169,0.3556 -3.0253 0.5335c -1.0958,-6.2146 -2.1916,-12.4291 -3.2873 -18.6437c 1.0084,-0.1778 2.0169,-0.3556 3.0253 -0.5334c -0.7657,-4.3426 -1.5314,-8.6852 -2.2971 -13.0278c -1.0084,0.1778 -2.0169,0.3556 -3.0253 0.5334c -0.2145,-1.2164 -0.4290,-2.4329 -0.6435 -3.6493c -17.3326,3.0562 -34.6652,6.1125 -51.9978 9.1686c 0.2145,1.2165 0.4290,2.4329 0.6435 3.6493c -1.0084,0.1778 -2.0169,0.3556 -3.0253 0.5335ZM 250.2000,777.3583 c 0.7657,4.3426 1.5314,8.6852 2.2972 13.0278c 1.0084,-0.1778 2.0169,-0.3556 3.0253 -0.5335c 1.0957,6.2146 2.1915,12.4291 3.2873 18.6437c -1.0084,0.1778 -2.0169,0.3556 -3.0253 0.5334c 0.7657,4.3426 1.5314,8.6852 2.2972 13.0278c 1.0084,-0.1778 2.0169,-0.3556 3.0253 -0.5334c 0.2145,1.2164 0.4290,2.4329 0.6435 3.6493c 17.3326,-3.0562 34.6652,-6.1124 51.9978 -9.1686c -0.2145,-1.2165 -0.4290,-2.4329 -0.6435 -3.6493c 1.0084,-0.1778 2.0169,-0.3556 3.0253 -0.5335c -0.7657,-4.3426 -1.5314,-8.6852 -2.2972 -13.0278c -1.0084,0.1778 -2.0169,0.3556 -3.0253 0.5335c -1.0958,-6.2146 -2.1916,-12.4291 -3.2874 -18.6437c 1.0084,-0.1778 2.0169,-0.3556 3.0253 -0.5334c -0.7657,-4.3426 -1.5314,-8.6852 -2.2971 -13.0278c -1.0084,0.1778 -2.0169,0.3556 -3.0253 0.5335c -0.2145,-1.2165 -0.4290,-2.4329 -0.6435 -3.6493c -17.3326,3.0562 -34.6652,6.1124 -51.9978 9.1686c 0.2145,1.2165 0.4290,2.4329 0.6435 3.6493c -1.0084,0.1778 -2.0169,0.3556 -3.0253 0.5335ZM 262.6698,848.0783 c 0.7657,4.3426 1.5314,8.6852 2.2971 13.0278c 1.0084,-0.1778 2.0169,-0.3556 3.0253 -0.5335c 1.0958,6.2146 2.1916,12.4291 3.2874 18.6437c -1.0084,0.1778 -2.0169,0.3556 -3.0253 0.5334c 0.7657,4.3426 1.5314,8.6852 2.2972 13.0278c 1.0084,-0.1778 2.0169,-0.3556 3.0253 -0.5334c 0.2145,1.2164 0.4290,2.4329 0.6435 3.6493c 17.3326,-3.0562 34.6652,-6.1124 51.9978 -9.1686c -0.2145,-1.2164 -0.4290,-2.4329 -0.6435 -3.6493c 1.0084,-0.1778 2.0169,-0.3556 3.0253 -0.5335c -0.7657,-4.3426 -1.5314,-8.6852 -2.2972 -13.0277c -1.0084,0.1778 -2.0169,0.3556 -3.0253 0.5334c -1.0958,-6.2145 -2.1916,-12.4291 -3.2874 -18.6436c 1.0084,-0.1778 2.0169,-0.3556 3.0253 -0.5335c -0.7657,-4.3426 -1.5314,-8.6852 -2.2971 -13.0278c -1.0084,0.1778 -2.0169,0.3556 -3.0253 0.5335c -0.2145,-1.2165 -0.4290,-2.4329 -0.6435 -3.6493c -17.3326,3.0562 -34.6652,6.1124 -51.9978 9.1686c 0.2145,1.2164 0.4290,2.4329 0.6435 3.6493c -1.0084,0.1778 -2.0169,0.3556 -3.0253 0.5334ZM 286.7920,571.3388 c 0.7657,4.3426 1.5315,8.6852 2.2972 13.0278c 1.0084,-0.1778 2.0169,-0.3556 3.0253 -0.5335c 1.0958,6.2146 2.1916,12.4291 3.2874 18.6437c -1.0084,0.1778 -2.0169,0.3556 -3.0253 0.5334c 0.7657,4.3426 1.5314,8.6852 2.2972 13.0278c 1.0084,-0.1778 2.0169,-0.3556 3.0253 -0.5335c 0.2145,1.2165 0.4290,2.4329 0.6435 3.6493c 17.3326,-3.0562 34.6652,-6.1124 51.9978 -9.1686c -0.2145,-1.2164 -0.4290,-2.4329 -0.6435 -3.6493c 1.0084,-0.1778 2.0169,-0.3556 3.0253 -0.5334c -0.7657,-4.3426 -1.5315,-8.6852 -2.2972 -13.0278c -1.0084,0.1778 -2.0169,0.3556 -3.0253 0.5335c -1.0958,-6.2146 -2.1916,-12.4291 -3.2874 -18.6437c 1.0084,-0.1778 2.0169,-0.3556 3.0253 -0.5334c -0.7657,-4.3426 -1.5314,-8.6852 -2.2972 -13.0278c -1.0084,0.1778 -2.0169,0.3556 -3.0253 0.5334c -0.2145,-1.2164 -0.4290,-2.4329 -0.6435 -3.6493c -17.3326,3.0562 -34.6652,6.1125 -51.9978 9.1686c 0.2145,1.2165 0.4290,2.4329 0.6435 3.6493c -1.0084,0.1778 -2.0169,0.3556 -3.0253 0.5335ZM 299.2619,642.0589 c 0.7657,4.3426 1.5314,8.6852 2.2971 13.0278c 1.0084,-0.1778 2.0169,-0.3556 3.0253 -0.5335c 1.0958,6.2146 2.1916,12.4291 3.2874 18.6437c -1.0084,0.1778 -2.0169,0.3556 -3.0253 0.5334c 0.7657,4.3426 1.5314,8.6852 2.2972 13.0278c 1.0084,-0.1778 2.0169,-0.3556 3.0253 -0.5334c 0.2145,1.2164 0.4290,2.4329 0.6435 3.6493c 17.3326,-3.0562 34.6652,-6.1125 51.9978 -9.1686c -0.2145,-1.2165 -0.4290,-2.4329 -0.6435 -3.6493c 1.0084,-0.1778 2.0169,-0.3556 3.0253 -0.5335c -0.7657,-4.3426 -1.5314,-8.6852 -2.2971 -13.0277c -1.0084,0.1778 -2.0169,0.3556 -3.0253 0.5334c -1.0958,-6.2146 -2.1916,-12.4291 -3.2874 -18.6437c 1.0084,-0.1778 2.0169,-0.3556 3.0253 -0.5334c -0.7657,-4.3426 -1.5314,-8.6852 -2.2972 -13.0278c -1.0084,0.1778 -2.0169,0.3556 -3.0253 0.5335c -0.2145,-1.2165 -0.4290,-2.4329 -0.6435 -3.6493c -17.3326,3.0562 -34.6652,6.1124 -51.9978 9.1686c 0.2145,1.2164 0.4290,2.4329 0.6435 3.6493c -1.0084,0.1778 -2.0169,0.3557 -3.0253 0.5335ZM 311.7317,712.7789 c 0.7657,4.3426 1.5315,8.6852 2.2972 13.0278c 1.0084,-0.1778 2.0169,-0.3556 3.0253 -0.5335c 1.0958,6.2146 2.1916,12.4292 3.2874 18.6437c -1.0084,0.1778 -2.0169,0.3556 -3.0253 0.5334c 0.7657,4.3426 1.5314,8.6852 2.2972 13.0278c 1.0084,-0.1778 2.0169,-0.3556 3.0253 -0.5334c 0.2145,1.2164 0.4290,2.4329 0.6435 3.6493c 17.3326,-3.0562 34.6652,-6.1124 51.9978 -9.1686c -0.2145,-1.2164 -0.4290,-2.4329 -0.6435 -3.6493c 1.0084,-0.1778 2.0169,-0.3556 3.0253 -0.5334c -0.7657,-4.3426 -1.5314,-8.6852 -2.2971 -13.0278c -1.0084,0.1778 -2.0169,0.3556 -3.0253 0.5334c -1.0958,-6.2145 -2.1916,-12.4291 -3.2874 -18.6436c 1.0084,-0.1778 2.0169,-0.3556 3.0253 -0.5335c -0.7657,-4.3426 -1.5314,-8.6852 -2.2972 -13.0278c -1.0084,0.1778 -2.0169,0.3556 -3.0253 0.5335c -0.2145,-1.2164 -0.4290,-2.4329 -0.6435 -3.6493c -17.3326,3.0562 -34.6652,6.1124 -51.9978 9.1686c 0.2145,1.2164 0.4290,2.4329 0.6435 3.6493c -1.0084,0.1778 -2.0169,0.3556 -3.0253 0.5334ZM 324.2015,783.4990 c 0.7657,4.3426 1.5315,8.6852 2.2972 13.0278c 1.0084,-0.1778 2.0169,-0.3556 3.0253 -0.5334c 1.0958,6.2145 2.1916,12.4291 3.2874 18.6436c -1.0084,0.1778 -2.0169,0.3556 -3.0253 0.5335c 0.7657,4.3426 1.5314,8.6852 2.2972 13.0278c 1.0084,-0.1778 2.0168,-0.3556 3.0253 -0.5335c 0.2145,1.2164 0.4290,2.4329 0.6435 3.6493c 17.3326,-3.0562 34.6652,-6.1124 51.9978 -9.1686c -0.2145,-1.2164 -0.4290,-2.4329 -0.6435 -3.6493c 1.0084,-0.1778 2.0169,-0.3556 3.0253 -0.5334c -0.7657,-4.3426 -1.5314,-8.6852 -2.2971 -13.0278c -1.0084,0.1778 -2.0169,0.3556 -3.0253 0.5334c -1.0958,-6.2145 -2.1916,-12.4291 -3.2874 -18.6436c 1.0084,-0.1778 2.0169,-0.3556 3.0253 -0.5335c -0.7657,-4.3426 -1.5314,-8.6852 -2.2972 -13.0277c -1.0084,0.1778 -2.0169,0.3556 -3.0253 0.5334c -0.2145,-1.2164 -0.4290,-2.4329 -0.6435 -3.6493c -17.3326,3.0562 -34.6652,6.1124 -51.9978 9.1686c 0.2145,1.2164 0.4290,2.4329 0.6435 3.6493c -1.0084,0.1778 -2.0169,0.3556 -3.0253 0.5334ZM 336.6714,854.2191 c 0.7657,4.3426 1.5314,8.6852 2.2972 13.0277c 1.0084,-0.1778 2.0169,-0.3556 3.0253 -0.5334c 1.0958,6.2146 2.1916,12.4291 3.2874 18.6437c -1.0084,0.1778 -2.0169,0.3556 -3.0253 0.5334c 0.7657,4.3426 1.5314,8.6852 2.2971 13.0278c 1.0084,-0.1778 2.0169,-0.3556 3.0253 -0.5335c 0.2145,1.2165 0.4290,2.4329 0.6435 3.6493c 17.3326,-3.0562 34.6652,-6.1124 51.9978 -9.1686c -0.2145,-1.2164 -0.4290,-2.4329 -0.6435 -3.6493c 1.0084,-0.1778 2.0169,-0.3556 3.0253 -0.5334c -0.7657,-4.3426 -1.5314,-8.6852 -2.2971 -13.0278c -1.0084,0.1778 -2.0169,0.3556 -3.0253 0.5335c -1.0958,-6.2146 -2.1916,-12.4291 -3.2874 -18.6437c 1.0084,-0.1778 2.0169,-0.3556 3.0253 -0.5334c -0.7657,-4.3426 -1.5314,-8.6852 -2.2972 -13.0278c -1.0084,0.1778 -2.0169,0.3556 -3.0253 0.5334c -0.2145,-1.2164 -0.4290,-2.4329 -0.6435 -3.6493c -17.3326,3.0562 -34.6652,6.1125 -51.9978 9.1686c 0.2145,1.2165 0.4290,2.4329 0.6435 3.6493c -1.0084,0.1778 -2.0169,0.3556 -3.0253 0.5335ZM 359.4810,570.0353 c 0.7657,4.3426 1.5314,8.6852 2.2971 13.0278c 1.0084,-0.1778 2.0169,-0.3556 3.0253 -0.5335c 1.0958,6.2146 2.1916,12.4291 3.2874 18.6437c -1.0084,0.1778 -2.0169,0.3556 -3.0253 0.5334c 0.7657,4.3426 1.5314,8.6852 2.2972 13.0278c 1.0084,-0.1778 2.0169,-0.3556 3.0253 -0.5334c 0.2145,1.2164 0.4290,2.4329 0.6435 3.6493c 17.3326,-3.0562 34.6652,-6.1124 51.9978 -9.1686c -0.2145,-1.2165 -0.4290,-2.4329 -0.6435 -3.6493c 1.0084,-0.1778 2.0169,-0.3556 3.0253 -0.5335c -0.7657,-4.3426 -1.5315,-8.6852 -2.2972 -13.0278c -1.0084,0.1778 -2.0169,0.3556 -3.0253 0.5335c -1.0958,-6.2146 -2.1916,-12.4291 -3.2874 -18.6437c 1.0084,-0.1778 2.0169,-0.3556 3.0253 -0.5334c -0.7657,-4.3426 -1.5314,-8.6852 -2.2972 -13.0278c -1.0084,0.1778 -2.0169,0.3556 -3.0253 0.5335c -0.2145,-1.2165 -0.4290,-2.4329 -0.6435 -3.6493c -17.3326,3.0562 -34.6652,6.1124 -51.9978 9.1686c 0.2145,1.2165 0.4290,2.4329 0.6435 3.6493c -1.0084,0.1778 -2.0169,0.3556 -3.0253 0.5335ZM 371.9508,640.7553 c 0.7657,4.3426 1.5314,8.6852 2.2971 13.0278c 1.0084,-0.1778 2.0169,-0.3556 3.0253 -0.5335c 1.0958,6.2146 2.1916,12.4291 3.2874 18.6437c -1.0084,0.1778 -2.0169,0.3556 -3.0253 0.5334c 0.7657,4.3426 1.5314,8.6852 2.2972 13.0278c 1.0084,-0.1778 2.0169,-0.3556 3.0253 -0.5334c 0.2145,1.2164 0.4290,2.4329 0.6435 3.6493c 17.3326,-3.0562 34.6652,-6.1124 51.9978 -9.1686c -0.2145,-1.2164 -0.4290,-2.4329 -0.6435 -3.6493c 1.0084,-0.1778 2.0169,-0.3556 3.0253 -0.5335c -0.7657,-4.3426 -1.5315,-8.6852 -2.2972 -13.0277c -1.0084,0.1778 -2.0169,0.3556 -3.0253 0.5334c -1.0958,-6.2145 -2.1916,-12.4291 -3.2874 -18.6436c 1.0084,-0.1778 2.0169,-0.3556 3.0253 -0.5335c -0.7657,-4.3426 -1.5314,-8.6852 -2.2972 -13.0278c -1.0084,0.1778 -2.0169,0.3556 -3.0253 0.5335c -0.2145,-1.2165 -0.4290,-2.4329 -0.6435 -3.6493c -17.3326,3.0562 -34.6652,6.1124 -51.9978 9.1686c 0.2145,1.2164 0.4290,2.4329 0.6435 3.6493c -1.0084,0.1778 -2.0169,0.3556 -3.0253 0.5334ZM 384.4206,711.4754 c 0.7657,4.3426 1.5315,8.6852 2.2972 13.0278c 1.0084,-0.1778 2.0169,-0.3556 3.0253 -0.5334c 1.0958,6.2145 2.1916,12.4291 3.2874 18.6436c -1.0084,0.1778 -2.0169,0.3556 -3.0253 0.5335c 0.7657,4.3426 1.5314,8.6852 2.2972 13.0277c 1.0084,-0.1778 2.0169,-0.3556 3.0253 -0.5334c 0.2145,1.2164 0.4290,2.4329 0.6435 3.6493c 17.3326,-3.0562 34.6652,-6.1124 51.9978 -9.1686c -0.2145,-1.2164 -0.4290,-2.4329 -0.6435 -3.6493c 1.0084,-0.1778 2.0169,-0.3556 3.0253 -0.5334c -0.7657,-4.3426 -1.5314,-8.6852 -2.2971 -13.0278c -1.0084,0.1778 -2.0169,0.3556 -3.0253 0.5334c -1.0958,-6.2145 -2.1916,-12.4291 -3.2874 -18.6436c 1.0084,-0.1778 2.0169,-0.3556 3.0253 -0.5335c -0.7657,-4.3426 -1.5314,-8.6852 -2.2972 -13.0277c -1.0084,0.1778 -2.0169,0.3556 -3.0253 0.5334c -0.2145,-1.2164 -0.4290,-2.4329 -0.6435 -3.6493c -17.3326,3.0562 -34.6652,6.1124 -51.9978 9.1686c 0.2145,1.2164 0.4290,2.4329 0.6435 3.6493c -1.0084,0.1778 -2.0169,0.3556 -3.0253 0.5334ZM 396.8905,782.1955 c 0.7657,4.3426 1.5315,8.6852 2.2972 13.0277c 1.0084,-0.1778 2.0169,-0.3556 3.0253 -0.5334c 1.0958,6.2145 2.1916,12.4291 3.2874 18.6436c -1.0084,0.1778 -2.0169,0.3556 -3.0253 0.5335c 0.7657,4.3426 1.5314,8.6852 2.2972 13.0278c 1.0084,-0.1778 2.0169,-0.3556 3.0253 -0.5335c 0.2145,1.2165 0.4290,2.4329 0.6435 3.6493c 17.3326,-3.0562 34.6652,-6.1124 51.9978 -9.1686c -0.2145,-1.2164 -0.4290,-2.4329 -0.6435 -3.6493c 1.0084,-0.1778 2.0169,-0.3556 3.0253 -0.5334c -0.7657,-4.3426 -1.5314,-8.6852 -2.2971 -13.0278c -1.0084,0.1778 -2.0169,0.3556 -3.0253 0.5335c -1.0958,-6.2146 -2.1916,-12.4291 -3.2874 -18.6437c 1.0084,-0.1778 2.0169,-0.3556 3.0253 -0.5334c -0.7657,-4.3426 -1.5314,-8.6852 -2.2972 -13.0278c -1.0084,0.1778 -2.0169,0.3556 -3.0253 0.5334c -0.2145,-1.2164 -0.4290,-2.4329 -0.6435 -3.6493c -17.3326,3.0562 -34.6652,6.1125 -51.9978 9.1686c 0.2145,1.2164 0.4290,2.4329 0.6435 3.6493c -1.0084,0.1778 -2.0169,0.3556 -3.0253 0.5335ZM 409.3604,852.9155 c 0.7657,4.3426 1.5315,8.6852 2.2972 13.0278c 1.0084,-0.1778 2.0169,-0.3556 3.0253 -0.5335c 1.0958,6.2146 2.1916,12.4291 3.2874 18.6437c -1.0084,0.1778 -2.0169,0.3556 -3.0253 0.5334c 0.7657,4.3426 1.5314,8.6852 2.2971 13.0278c 1.0084,-0.1778 2.0169,-0.3556 3.0253 -0.5335c 0.2145,1.2165 0.4290,2.4329 0.6435 3.6493c 17.3326,-3.0562 34.6652,-6.1124 51.9978 -9.1686c -0.2145,-1.2165 -0.4290,-2.4329 -0.6435 -3.6493c 1.0084,-0.1778 2.0169,-0.3556 3.0253 -0.5335c -0.7657,-4.3426 -1.5314,-8.6852 -2.2971 -13.0278c -1.0084,0.1778 -2.0169,0.3556 -3.0253 0.5335c -1.0958,-6.2146 -2.1916,-12.4291 -3.2874 -18.6437c 1.0084,-0.1778 2.0169,-0.3556 3.0253 -0.5334c -0.7657,-4.3426 -1.5314,-8.6852 -2.2972 -13.0278c -1.0084,0.1778 -2.0169,0.3556 -3.0253 0.5334c -0.2145,-1.2164 -0.4290,-2.4329 -0.6435 -3.6493c -17.3326,3.0562 -34.6652,6.1124 -51.9978 9.1686c 0.2145,1.2165 0.4290,2.4329 0.6435 3.6493c -1.0084,0.1778 -2.0169,0.3556 -3.0253 0.5335ZM 430.8573,561.2876 c 0.7657,4.3426 1.5314,8.6852 2.2972 13.0277c 1.0084,-0.1778 2.0169,-0.3556 3.0253 -0.5334c 1.0958,6.2145 2.1915,12.4291 3.2873 18.6437c -1.0084,0.1778 -2.0169,0.3556 -3.0253 0.5334c 0.7657,4.3426 1.5315,8.6852 2.2972 13.0278c 1.0084,-0.1778 2.0169,-0.3556 3.0253 -0.5335c 0.2145,1.2165 0.4290,2.4329 0.6435 3.6493c 17.3326,-3.0562 34.6652,-6.1124 51.9978 -9.1686c -0.2145,-1.2164 -0.4290,-2.4329 -0.6435 -3.6493c 1.0084,-0.1778 2.0169,-0.3556 3.0253 -0.5334c -0.7657,-4.3426 -1.5314,-8.6852 -2.2972 -13.0278c -1.0084,0.1778 -2.0169,0.3556 -3.0253 0.5335c -1.0958,-6.2146 -2.1915,-12.4291 -3.2873 -18.6437c 1.0084,-0.1778 2.0169,-0.3556 3.0253 -0.5334c -0.7657,-4.3426 -1.5314,-8.6852 -2.2972 -13.0278c -1.0084,0.1778 -2.0169,0.3556 -3.0253 0.5334c -0.2145,-1.2164 -0.4290,-2.4329 -0.6435 -3.6493c -17.3326,3.0562 -34.6652,6.1125 -51.9978 9.1686c 0.2145,1.2165 0.4290,2.4329 0.6435 3.6493c -1.0084,0.1778 -2.0169,0.3556 -3.0253 0.5335ZM 443.3272,632.0076 c 0.7657,4.3426 1.5314,8.6852 2.2972 13.0278c 1.0084,-0.1778 2.0169,-0.3556 3.0253 -0.5335c 1.0958,6.2146 2.1915,12.4291 3.2873 18.6437c -1.0084,0.1778 -2.0169,0.3556 -3.0253 0.5334c 0.7657,4.3426 1.5314,8.6852 2.2972 13.0278c 1.0084,-0.1778 2.0169,-0.3556 3.0253 -0.5334c 0.2145,1.2164 0.4290,2.4329 0.6435 3.6493c 17.3326,-3.0562 34.6652,-6.1124 51.9978 -9.1686c -0.2145,-1.2165 -0.4290,-2.4329 -0.6435 -3.6493c 1.0084,-0.1778 2.0169,-0.3556 3.0253 -0.5335c -0.7657,-4.3426 -1.5314,-8.6852 -2.2972 -13.0278c -1.0084,0.1778 -2.0169,0.3556 -3.0253 0.5335c -1.0958,-6.2146 -2.1915,-12.4291 -3.2873 -18.6437c 1.0084,-0.1778 2.0168,-0.3556 3.0253 -0.5334c -0.7657,-4.3426 -1.5315,-8.6852 -2.2972 -13.0278c -1.0084,0.1778 -2.0169,0.3556 -3.0253 0.5335c -0.2145,-1.2165 -0.4290,-2.4329 -0.6435 -3.6493c -17.3326,3.0562 -34.6652,6.1124 -51.9978 9.1686c 0.2145,1.2165 0.4290,2.4329 0.6435 3.6493c -1.0084,0.1778 -2.0169,0.3556 -3.0253 0.5335ZM 455.7970,702.7277 c 0.7657,4.3426 1.5314,8.6852 2.2972 13.0278c 1.0084,-0.1778 2.0169,-0.3556 3.0253 -0.5335c 1.0957,6.2146 2.1915,12.4291 3.2873 18.6437c -1.0084,0.1778 -2.0169,0.3556 -3.0253 0.5334c 0.7657,4.3426 1.5315,8.6852 2.2972 13.0278c 1.0084,-0.1778 2.0169,-0.3556 3.0253 -0.5334c 0.2145,1.2164 0.4290,2.4329 0.6435 3.6493c 17.3326,-3.0562 34.6652,-6.1125 51.9978 -9.1686c -0.2145,-1.2164 -0.4290,-2.4329 -0.6435 -3.6493c 1.0084,-0.1778 2.0169,-0.3556 3.0253 -0.5334c -0.7657,-4.3426 -1.5314,-8.6852 -2.2972 -13.0278c -1.0084,0.1778 -2.0169,0.3556 -3.0253 0.5334c -1.0958,-6.2145 -2.1916,-12.4291 -3.2873 -18.6436c 1.0084,-0.1778 2.0169,-0.3556 3.0253 -0.5335c -0.7657,-4.3426 -1.5315,-8.6852 -2.2972 -13.0278c -1.0084,0.1778 -2.0169,0.3556 -3.0253 0.5335c -0.2145,-1.2164 -0.4290,-2.4329 -0.6435 -3.6493c -17.3326,3.0562 -34.6652,6.1124 -51.9978 9.1686c 0.2145,1.2164 0.4290,2.4329 0.6435 3.6493c -1.0084,0.1778 -2.0169,0.3556 -3.0253 0.5334ZM 468.2669,773.4477 c 0.7657,4.3426 1.5314,8.6852 2.2972 13.0278c 1.0084,-0.1778 2.0169,-0.3556 3.0253 -0.5334c 1.0957,6.2145 2.1915,12.4291 3.2873 18.6436c -1.0084,0.1778 -2.0169,0.3556 -3.0253 0.5335c 0.7657,4.3426 1.5314,8.6852 2.2972 13.0277c 1.0084,-0.1778 2.0169,-0.3556 3.0253 -0.5334c 0.2145,1.2164 0.4290,2.4329 0.6435 3.6493c 17.3326,-3.0562 34.6652,-6.1124 51.9978 -9.1686c -0.2145,-1.2164 -0.4290,-2.4329 -0.6435 -3.6493c 1.0084,-0.1778 2.0169,-0.3556 3.0253 -0.5334c -0.7657,-4.3426 -1.5314,-8.6852 -2.2972 -13.0278c -1.0084,0.1778 -2.0169,0.3556 -3.0253 0.5334c -1.0958,-6.2145 -2.1916,-12.4291 -3.2873 -18.6436c 1.0084,-0.1778 2.0168,-0.3556 3.0253 -0.5335c -0.7657,-4.3426 -1.5314,-8.6852 -2.2971 -13.0277c -1.0084,0.1778 -2.0169,0.3556 -3.0253 0.5334c -0.2145,-1.2164 -0.4290,-2.4329 -0.6435 -3.6493c -17.3326,3.0562 -34.6652,6.1124 -51.9978 9.1686c 0.2145,1.2164 0.4290,2.4329 0.6435 3.6493c -1.0084,0.1778 -2.0169,0.3556 -3.0253 0.5334ZM 480.7367,844.1678 c 0.7657,4.3426 1.5314,8.6852 2.2971 13.0277c 1.0084,-0.1778 2.0169,-0.3556 3.0253 -0.5334c 1.0958,6.2145 2.1916,12.4291 3.2874 18.6436c -1.0084,0.1778 -2.0169,0.3557 -3.0253 0.5335c 0.7657,4.3426 1.5314,8.6852 2.2972 13.0278c 1.0084,-0.1778 2.0169,-0.3556 3.0253 -0.5335c 0.2145,1.2165 0.4290,2.4329 0.6435 3.6493c 17.3326,-3.0562 34.6652,-6.1124 51.9978 -9.1686c -0.2145,-1.2164 -0.4290,-2.4329 -0.6435 -3.6493c 1.0084,-0.1778 2.0169,-0.3556 3.0253 -0.5334c -0.7657,-4.3426 -1.5314,-8.6852 -2.2972 -13.0278c -1.0084,0.1778 -2.0169,0.3556 -3.0253 0.5335c -1.0958,-6.2146 -2.1916,-12.4291 -3.2874 -18.6437c 1.0084,-0.1778 2.0169,-0.3556 3.0253 -0.5334c -0.7657,-4.3426 -1.5314,-8.6852 -2.2971 -13.0278c -1.0084,0.1778 -2.0169,0.3556 -3.0253 0.5334c -0.2145,-1.2164 -0.4290,-2.4329 -0.6435 -3.6493c -17.3326,3.0562 -34.6652,6.1125 -51.9978 9.1686c 0.2145,1.2164 0.4290,2.4329 0.6435 3.6493c -1.0084,0.1778 -2.0169,0.3556 -3.0253 0.5335ZM 504.2602,528.1824 c 0.0000,3.1311 2.5382,5.6693 5.6693 5.6693c 3.1310,-0.0000 5.6693,-2.5382 5.6693 -5.6693c 0.0000,-3.1310 -2.5382,-5.6693 -5.6693 -5.6693c -3.1310,-0.0000 -5.6693,2.5382 -5.6693 5.6693ZM 569.5369,890.8259 c 0.0000,3.1311 2.5382,5.6693 5.6693 5.6693c 3.1310,-0.0000 5.6693,-2.5382 5.6693 -5.6693c 0.0000,-3.1310 -2.5382,-5.6693 -5.6693 -5.6693c -3.1311,-0.0000 -5.6693,2.5382 -5.6693 5.6693Z"/></g><g stroke-linejoin="miter" stroke-opacity="1.0" fill-opacity="0.5" stroke="rgb(0,0,0)" stroke-width="0.7559055118110237" fill="rgb(0,0,255)" stroke-linecap="butt" stroke-miterlimit="10.0"><path d="M 3.9685,16.2520 c 0.0000,-6.7840 5.4995,-12.2835 12.2835 -12.2835c 165.8190,-0.0000 331.6381,-0.0000 497.4571 -0.0000c 5.9611,-0.0000 11.0617,4.2799 12.0969 10.1505c 21.7589,123.4009 43.5178,246.8017 65.2767 370.2026c 0.1270,0.7202 0.1884,1.4373 0.1884 2.1451c 0.0000,5.6369 -3.8943,10.6833 -9.5744 11.9685c -139.1905,31.4946 -278.3811,62.9892 -417.5716 94.4837c -0.8896,0.2013 -1.7988,0.3029 -2.7108 0.3029c -48.3874,-0.0000 -96.7748,-0.0000 -145.1622 -0.0000c -6.7840,-0.0000 -12.2835,-5.4995 -12.2835 -12.2835c 0.0000,-154.8954 0.0000,-309.7909 0.0000 -464.6863ZM 37.5079,369.9188 c 0.0000,0.2179 0.0189,0.4388 0.0581 0.6607c 4.3141,24.4667 8.6282,48.9333 12.9424 73.4000c 0.3624,2.0556 2.3227,3.4283 4.3784 3.0658c 22.3326,-3.9378 44.6653,-7.8757 66.9979 -11.8135c 1.8595,10.5459 3.7191,21.0919 5.5786 31.6379c 0.3625,2.0557 2.3228,3.4283 4.3784 3.0658c 24.4667,-4.3141 48.9333,-8.6283 73.4000 -12.9424c 1.8337,-0.3233 3.1238,-1.9180 3.1238 -3.7177c 0.0000,-0.2179 -0.0189,-0.4388 -0.0581 -0.6607c -0.8751,-4.9628 -1.7502,-9.9256 -2.6252 -14.8884c 22.3326,-3.9378 44.6653,-7.8757 66.9980 -11.8136c 1.8337,-0.3233 3.1238,-1.9180 3.1238 -3.7176c 0.0000,-0.2179 -0.0189,-0.4388 -0.0581 -0.6608c -1.0939,-6.2035 -2.1877,-12.4070 -3.2815 -18.6105c 20.1986,-3.5615 40.3972,-7.1231 60.5959 -10.6847c 0.8751,4.9628 1.7502,9.9256 2.6252 14.8884c 0.3625,2.0557 2.3228,3.4283 4.3784 3.0658c 22.3326,-3.9379 44.6653,-7.8757 66.9980 -11.8136c 0.4375,2.4814 0.8751,4.9628 1.3126 7.4442c 0.3625,2.0556 2.3228,3.4282 4.3784 3.0658c 22.3326,-3.9379 44.6653,-7.8757 66.9980 -11.8136c 0.3624,2.0557 2.3227,3.4283 4.3784 3.0658c 24.4666,-4.3141 48.9333,-8.6283 73.3999 -12.9424c 1.8337,-0.3233 3.1239,-1.9180 3.1239 -3.7177c 0.0000,-0.2179 -0.0189,-0.4388 -0.0581 -0.6607c -4.1567,-23.5733 -8.3133,-47.1467 -12.4699 -70.7201c -0.1575,-0.8933 -0.3150,-1.7866 -0.4725 -2.6799c -3.9991,-22.6800 -7.9982,-45.3601 -11.9973 -68.0401c -0.1575,-0.8933 -0.3150,-1.7866 -0.4725 -2.6799c -3.9991,-22.6801 -7.9982,-45.3601 -11.9973 -68.0401c -0.1575,-0.8933 -0.3150,-1.7866 -0.4725 -2.6799c -3.9991,-22.6801 -7.9982,-45.3601 -11.9973 -68.0401c -0.1575,-0.8933 -0.3150,-1.7866 -0.4725 -2.6800c -4.1566,-23.5733 -8.3133,-47.1467 -12.4699 -70.7200c -0.3625,-2.0556 -2.3228,-3.4283 -4.3784 -3.0658c -22.3326,3.9378 -44.6653,7.8757 -66.9980 11.8136c -0.3624,-2.0557 -2.3227,-3.4283 -4.3784 -3.0658c -22.3327,3.9379 -44.6653,7.8757 -66.9980 11.8136c -0.4376,-2.4814 -0.8751,-4.9628 -1.3126 -7.4442c -0.3625,-2.0556 -2.3228,-3.4282 -4.3784 -3.0658c -22.3327,3.9378 -44.6653,7.8757 -66.9980 11.8136c -0.8751,-4.9628 -1.7502,-9.9256 -2.6252 -14.8884c -0.3625,-2.0556 -2.3227,-3.4283 -4.3784 -3.0658c -24.4667,4.3141 -48.9333,8.6282 -73.3999 12.9423c -1.8337,0.3233 -3.1239,1.9180 -3.1239 3.7177c 0.0000,0.2179 0.0189,0.4388 0.0581 0.6607c 1.0939,6.2035 2.1877,12.4070 3.2815 18.6106c -22.3326,3.9378 -44.6653,7.8757 -66.9979 11.8136c -1.8337,0.3233 -3.1239,1.9180 -3.1239 3.7176c 0.0000,0.2179 0.0189,0.4388 0.0581 0.6608c 0.8751,4.9628 1.7502,9.9256 2.6252 14.8884c -22.3326,3.9379 -44.6653,7.8757 -66.9979 11.8136c -1.8337,0.3233 -3.1239,1.9180 -3.1239 3.7177c 0.0000,0.2178 0.0190,0.4387 0.0581 0.6607c 4.1567,23.5733 8.3133,47.1467 12.4699 70.7200c 0.1575,0.8933 0.3150,1.7866 0.4726 2.6800c 3.9991,22.6800 7.9982,45.3601 11.9973 68.0401c 0.1575,0.8933 0.3150,1.7866 0.4725 2.6800c 3.9991,22.6800 7.9982,45.3601 11.9973 68.0401c 0.1575,0.8933 0.3150,1.7866 0.4725 2.6799c 1.7020,9.6527 3.4040,19.3053 5.1061 28.9580c -22.3326,3.9378 -44.6653,7.8757 -66.9980 11.8135c -1.8337,0.3233 -3.1238,1.9180 -3.1238 3.7177ZM 86.1732,20.0315 c 0.0000,3.1311 2.5382,5.6693 5.6693 5.6693c 3.1311,-0.0000 5.6693,-2.5382 5.6693 -5.6693c 0.0000,-3.1310 -2.5382,-5.6693 -5.6693 -5.6693c -3.1310,-0.0000 -5.6693,2.5382 -5.6693 5.6693ZM 155.7449,477.1587 c 0.0000,3.1311 2.5382,5.6693 5.6693 5.6693c 3.1311,-0.0000 5.6693,-2.5382 5.6693 -5.6693c 0.0000,-3.1310 -2.5382,-5.6693 -5.6693 -5.6693c -3.1310,-0.0000 -5.6693,2.5382 -5.6693 5.6693ZM 504.2602,20.0315 c 0.0000,3.1311 2.5382,5.6693 5.6693 5.6693c 3.1310,-0.0000 5.6693,-2.5382 5.6693 -5.6693c 0.0000,-3.1310 -2.5382,-5.6693 -5.6693 -5.6693c -3.1310,-0.0000 -5.6693,2.5382 -5.6693 5.6693ZM 569.5369,382.6750 c 0.0000,3.1311 2.5382,5.6693 5.6693 5.6693c 3.1310,-0.0000 5.6693,-2.5382 5.6693 -5.6693c 0.0000,-3.1310 -2.5382,-5.6693 -5.6693 -5.6693c -3.1311,-0.0000 -5.6693,2.5382 -5.6693 5.6693Z"/></g></svg>