<?xml version="1.0" encoding="UTF-8"?>
<!DOCTYPE svg PUBLIC "-//W3C//DTD SVG 1.1//EN"
    "http://www.w3.org/Graphics/SVG/1.1/DTD/svg11.dtd"><svg xmlns="http://www.w3.org/2000/svg" height="2472.1581" stroke-opacity="1" viewBox="0 0 1207 2472" font-size="1" width="1207.1072" xmlns:xlink="http://www.w3.org/1999/xlink" stroke="rgb(0,0,0)" version="1.1"><defs></defs><g stroke-linejoin="miter" stroke-opacity="1.0" fill-opacity="0.5" stroke="rgb(0,0,0)" stroke-width="0.37795275590551186" fill="rgb(0,0,0)" stroke-linecap="butt" stroke-miterlimit="10.0"><path d="M 3.9685,2292.2298 c 0.0000,-1.7243 0.2742,-3.4764 0.8500 -5.1974c 31.8298,-95.1293 63.6596,-190.2586 95.4894 -285.3878c 2.2347,-6.6788 8.4889,-11.1811 15.5316 -11.1811c 80.7332,-0.0000 161.4666,-0.0000 242.1998 -0.0000c 3.6792,-0.0000 7.2513,1.2388 10.1405 3.5169c 64.7386,51.0441 146.5341,81.5225 235.3737 81.5225c 88.8396,-0.0000 170.6351,-30.4784 235.3737 -81.5225c 2.8892,-2.2780 6.4613,-3.5169 10.1405 -3.5169c 80.7332,-0.0000 161.4666,-0.0000 242.1998 -0.0000c 7.0427,-0.0000 13.2969,4.5024 15.5316 11.1811c 31.8298,95.1293 63.6596,190.2586 95.4894 285.3878c 0.5758,1.7210 0.8500,3.4730 0.8500 5.1974c 0.0000,6.5661 -3.9756,12.7306 -10.4104 15.2501c -135.8590,53.1941 -271.7179,106.3883 -407.5769 159.5824c -1.9027,0.7450 -3.9279,1.1273 -5.9712 1.1273c -58.5422,-0.0000 -117.0844,-0.0000 -175.6266 -0.0000c -58.5422,-0.0000 -117.0844,-0.0000 -175.6266 -0.0000c -2.0433,-0.0000 -4.0686,-0.3823 -5.9712 -1.1273c -135.8590,-53.1941 -271.7179,-106.3883 -407.5769 -159.5824c -6.4348,-2.5195 -10.4104,-8.6840 -10.4104 -15.2501ZM 18.4603,2288.4498 c 0.0000,3.1310 2.5382,5.6693 5.6693 5.6693c 3.1310,-0.0000 5.6693,-2.5382 5.6693 -5.6693c 0.0000,-3.1311 -2.5382,-5.6693 -5.6693 -5.6693c -3.1311,-0.0000 -5.6693,2.5382 -5.6693 5.6693ZM 113.9498,2010.6209 c 0.0000,3.1311 2.5382,5.6693 5.6693 5.6693c 3.1310,-0.0000 5.6693,-2.5382 5.6693 -5.6693c 0.0000,-3.1310 -2.5382,-5.6693 -5.6693 -5.6693c -3.1311,-0.0000 -5.6693,2.5382 -5.6693 5.6693ZM 422.2578,2448.0321 c 0.0000,3.1311 2.5382,5.6693 5.6693 5.6693c 3.1311,-0.0000 5.6693,-2.5382 5.6693 -5.6693c 0.0000,-3.1310 -2.5382,-5.6693 -5.6693 -5.6693c -3.1310,-0.0000 -5.6693,2.5382 -5.6693 5.6693ZM 541.1914,2086.2115 c 0.0000,3.1311 2.5382,5.6693 5.6693 5.6693c 3.1311,-0.0000 5.6693,-2.5382 5.6693 -5.6693c 0.0000,-3.1310 -2.5382,-5.6693 -5.6693 -5.6693c -3.1310,-0.0000 -5.6693,2.5382 -5.6693 5.6693ZM 654.5772,2086.2115 c 0.0000,3.1311 2.5382,5.6693 5.6693 5.6693c 3.1310,-0.0000 5.6693,-2.5382 5.6693 -5.6693c 0.0000,-3.1310 -2.5382,-5.6693 -5.6693 -5.6693c -3.1311,-0.0000 -5.6693,2.5382 -5.6693 5.6693ZM 773.5108,2448.0321 c 0.0000,3.1311 2.5382,5.6693 5.6693 5.6693c 3.1310,-0.0000 5.6693,-2.5382 5.6693 -5.6693c 0.0000,-3.1310 -2.5382,-5.6693 -5.6693 -5.6693c -3.1311,-0.0000 -5.6693,2.5382 -5.6693 5.6693ZM 1081.8188,2010.6209 c 0.0000,3.1311 2.5382,5.6693 5.6693 5.6693c 3.1311,-0.0000 5.6693,-2.5382 5.6693 -5.6693c 0.0000,-3.1310 -2.5382,-5.6693 -5.6693 -5.6693c -3.1310,-0.0000 -5.6693,2.5382 -5.6693 5.6693ZM 1177.3082,2288.4498 c 0.0000,3.1310 2.5382,5.6693 5.6693 5.6693c 3.1311,-0.0000 5.6693,-2.5382 5.6693 -5.6693c 0.0000,-3.1311 -2.5382,-5.6693 -5.6693 -5.6693c -3.1310,-0.0000 -5.6693,2.5382 -5.6693 5.6693Z"/></g><g stroke-linejoin="miter" stroke-opacity="1.0" fill-opacity="0.5" stroke="rgb(0,0,0)" stroke-width="0.37795275590551186" fill="rgb(255,0,0)" stroke-linecap="butt" stroke-miterlimit="10.0"><path d="M 3.9685,1795.6061 c 0.0000,-1.7243 0.2742,-3.4764 0.8500 -5.1974c 31.8298,-95.1293 63.6596,-190.2586 95.4894 -285.3878c 2.2347,-6.6788 8.4889,-11.1811 15.5316 -11.1811c 80.7332,-0.0000 161.4666,-0.0000 242.1998 -0.0000c 3.6792,-0.0000 7.2513,1.2388 10.1405 3.5169c 49.4805,39.0136 108.9252,66.0133 173.8634 76.5731c 4.5881,0.7461 9.2035,1.4101 13.8448 1.9905c 12.5601,1.5706 25.3093,2.5288 38.2167 2.8437c 0.0000,0.0384 0.0000,0.0767 0.0000 0.1151c 1.2599,-0.0000 2.5197,-0.0000 3.7795 -0.0000c 0.0000,1.2599 0.0000,2.5197 0.0000 3.7795c -1.2599,-0.0000 -2.5197,-0.0000 -3.7795 -0.0000c 0.0000,0.3376 0.0000,0.6751 0.0000 1.0127c 0.0000,0.9223 0.0000,1.8445 0.0000 2.7668c 1.2599,-0.0000 2.5197,-0.0000 3.7795 -0.0000c 0.0000,1.2599 0.0000,2.5197 0.0000 3.7795c -1.2599,-0.0000 -2.5197,-0.0000 -3.7795 -0.0000c 0.0000,0.3376 0.0000,0.6752 0.0000 1.0127c 0.0000,0.9223 0.0000,1.8445 0.0000 2.7668c 1.2599,-0.0000 2.5197,-0.0000 3.7795 -0.0000c 0.0000,1.2599 0.0000,2.5197 0.0000 3.7795c -1.2599,-0.0000 -2.5197,-0.0000 -3.7795 -0.0000c 0.0000,0.3376 0.0000,0.6752 0.0000 1.0127c 0.0000,0.9223 0.0000,1.8446 0.0000 2.7668c 1.2599,-0.0000 2.5197,-0.0000 3.7795 -0.0000c 0.0000,1.2598 0.0000,2.5197 0.0000 3.7795c -1.2599,-0.0000 -2.5197,-0.0000 -3.7795 -0.0000c 0.0000,0.3376 0.0000,0.6752 0.0000 1.0127c 0.0000,0.9223 0.0000,1.8445 0.0000 2.7668c 1.2599,-0.0000 2.5197,-0.0000 3.7795 -0.0000c 0.0000,0.6299 0.0000,1.2599 0.0000 1.8898c 3.7795,-0.0000 7.5590,-0.0000 11.3385 -0.0000c 0.0000,-0.6299 0.0000,-1.2599 0.0000 -1.8898c 1.2599,-0.0000 2.5197,-0.0000 3.7795 -0.0000c 0.0000,-1.2599 0.0000,-2.5197 0.0000 -3.7795c -1.2599,-0.0000 -2.5197,-0.0000 -3.7795 -0.0000c 0.0000,-1.2598 0.0000,-2.5197 0.0000 -3.7795c 1.2599,-0.0000 2.5197,-0.0000 3.7795 -0.0000c 0.0000,-1.2599 0.0000,-2.5197 0.0000 -3.7795c -1.2599,-0.0000 -2.5197,-0.0000 -3.7795 -0.0000c 0.0000,-1.2599 0.0000,-2.5197 0.0000 -3.7795c 1.2599,-0.0000 2.5197,-0.0000 3.7795 -0.0000c 0.0000,-1.2598 0.0000,-2.5197 0.0000 -3.7795c -1.2599,-0.0000 -2.5197,-0.0000 -3.7795 -0.0000c 0.0000,-1.2599 0.0000,-2.5197 0.0000 -3.7795c 1.2599,-0.0000 2.5197,-0.0000 3.7795 -0.0000c 0.0000,-1.2598 0.0000,-2.5197 0.0000 -3.7795c -1.2599,-0.0000 -2.5197,-0.0000 -3.7795 -0.0000c 0.0000,-1.2599 0.0000,-2.5197 0.0000 -3.7795c 1.2599,-0.0000 2.5197,-0.0000 3.7795 -0.0000c 0.0000,-0.0384 0.0000,-0.0767 0.0000 -0.1151c 12.9073,-0.3149 25.6566,-1.2731 38.2167 -2.8437c 4.6413,-0.5804 9.2568,-1.2444 13.8448 -1.9905c 64.9382,-10.5598 124.3829,-37.5595 173.8634 -76.5731c 2.8892,-2.2780 6.4613,-3.5169 10.1405 -3.5169c 80.7332,-0.0000 161.4666,-0.0000 242.1998 -0.0000c 7.0427,-0.0000 13.2969,4.5024 15.5316 11.1811c 31.8298,95.1293 63.6596,190.2586 95.4894 285.3878c 0.5758,1.7210 0.8500,3.4730 0.8500 5.1974c 0.0000,6.5661 -3.9756,12.7306 -10.4104 15.2501c -135.8590,53.1941 -271.7179,106.3883 -407.5769 159.5824c -1.9027,0.7450 -3.9279,1.1273 -5.9712 1.1273c -58.5422,-0.0000 -117.0844,-0.0000 -175.6266 -0.0000c -58.5422,-0.0000 -117.0844,-0.0000 -175.6266 -0.0000c -2.0433,-0.0000 -4.0686,-0.3823 -5.9712 -1.1273c -135.8590,-53.1941 -271.7179,-106.3883 -407.5769 -159.5824c -6.4348,-2.5195 -10.4104,-8.6840 -10.4104 -15.2501ZM 18.4603,1791.8260 c 0.0000,3.1310 2.5382,5.6693 5.6693 5.6693c 3.1310,-0.0000 5.6693,-2.5382 5.6693 -5.6693c 0.0000,-3.1311 -2.5382,-5.6693 -5.6693 -5.6693c -3.1311,-0.0000 -5.6693,2.5382 -5.6693 5.6693ZM 34.6696,1779.2897 c 3.5697,3.0043 5.8380,7.5054 5.8380 12.5363c 0.0000,2.8382 -0.7219,5.5077 -1.9922 7.8351c 1.1135,0.7774 2.3580,1.4279 3.7177 1.9204c 125.4693,45.4447 250.9385,90.8894 376.4077 136.3341c 2.6390,-1.8197 5.8381,-2.8852 9.2861 -2.8852c 6.0622,-0.0000 11.3551,3.2936 14.1869 8.1890c 53.8132,-0.0000 107.6264,-0.0000 161.4397 -0.0000c 53.8132,-0.0000 107.6265,-0.0000 161.4397 -0.0000c 2.8318,-4.8954 8.1247,-8.1890 14.1869 -8.1890c 3.4480,-0.0000 6.6471,1.0655 9.2861 2.8852c 125.4693,-45.4447 250.9385,-90.8894 376.4077 -136.3341c 1.3598,-0.4925 2.6043,-1.1430 3.7177 -1.9204c -1.2702,-2.3273 -1.9922,-4.9969 -1.9922 -7.8351c 0.0000,-5.0309 2.2683,-9.5320 5.8380 -12.5363c -29.8101,-82.4164 -59.6201,-164.8328 -89.4302 -247.2492c -0.3489,-0.9647 -0.8008,-1.8779 -1.3419 -2.7305c -3.1642,-1.2039 -5.8588,-3.3603 -7.7334 -6.1190c -1.7860,-0.6517 -3.7206,-1.0048 -5.7220 -1.0048c -76.9164,-0.0000 -153.8329,-0.0000 -230.7494 -0.0000c -3.5053,-0.0000 -6.9085,1.0919 -9.6611 3.0995c -43.4454,31.6882 -94.9538,54.3831 -151.1911 65.0318c -0.3818,8.7067 -7.5612,15.6481 -16.3620 15.6481c -4.4006,-0.0000 -8.3958,-1.7355 -11.3386 -4.5595c 0.0000,7.9240 0.0000,15.8481 0.0000 23.7721c 0.0000,4.1748 -3.3843,7.5591 -7.5591 7.5591c -25.1969,-0.0000 -50.3937,-0.0000 -75.5905 -0.0000c -4.1748,-0.0000 -7.5591,-3.3843 -7.5591 -7.5591c 0.0000,-1.3775 0.0000,-2.7550 0.0000 -4.1325c 0.0000,-6.5465 0.0000,-13.0931 0.0000 -19.6396c -2.9427,2.8240 -6.9380,4.5595 -11.3386 4.5595c -8.8007,-0.0000 -15.9802,-6.9415 -16.3620 -15.6481c -56.2373,-10.6486 -107.7457,-33.3437 -151.1911 -65.0318c -2.7526,-2.0077 -6.1558,-3.0995 -9.6611 -3.0995c -76.9164,-0.0000 -153.8330,-0.0000 -230.7494 -0.0000c -2.0014,-0.0000 -3.9360,0.3530 -5.7220 1.0048c -1.8746,2.7587 -4.5692,4.9151 -7.7334 6.1190c -0.5411,0.8527 -0.9929,1.7658 -1.3419 2.7305c -29.8101,82.4164 -59.6201,164.8328 -89.4302 247.2492ZM 113.9498,1513.9972 c 0.0000,3.1311 2.5382,5.6693 5.6693 5.6693c 3.1310,-0.0000 5.6693,-2.5382 5.6693 -5.6693c 0.0000,-3.1310 -2.5382,-5.6693 -5.6693 -5.6693c -3.1311,-0.0000 -5.6693,2.5382 -5.6693 5.6693ZM 422.2578,1951.4084 c 0.0000,3.1311 2.5382,5.6693 5.6693 5.6693c 3.1311,-0.0000 5.6693,-2.5382 5.6693 -5.6693c 0.0000,-3.1310 -2.5382,-5.6693 -5.6693 -5.6693c -3.1310,-0.0000 -5.6693,2.5382 -5.6693 5.6693ZM 541.1914,1589.5877 c 0.0000,3.1311 2.5382,5.6693 5.6693 5.6693c 3.1311,-0.0000 5.6693,-2.5382 5.6693 -5.6693c 0.0000,-3.1310 -2.5382,-5.6693 -5.6693 -5.6693c -3.1310,-0.0000 -5.6693,2.5382 -5.6693 5.6693ZM 654.5772,1589.5877 c 0.0000,3.1311 2.5382,5.6693 5.6693 5.6693c 3.1310,-0.0000 5.6693,-2.5382 5.6693 -5.6693c 0.0000,-3.1310 -2.5382,-5.6693 -5.6693 -5.6693c -3.1311,-0.0000 -5.6693,2.5382 -5.6693 5.6693ZM 773.5108,1951.4084 c 0.0000,3.1311 2.5382,5.6693 5.6693 5.6693c 3.1310,-0.0000 5.6693,-2.5382 5.6693 -5.6693c 0.0000,-3.1310 -2.5382,-5.6693 -5.6693 -5.6693c -3.1311,-0.0000 -5.6693,2.5382 -5.6693 5.6693ZM 1081.8188,1513.9972 c 0.0000,3.1311 2.5382,5.6693 5.6693 5.6693c 3.1311,-0.0000 5.6693,-2.5382 5.6693 -5.6693c 0.0000,-3.1310 -2.5382,-5.6693 -5.6693 -5.6693c -3.1310,-0.0000 -5.6693,2.5382 -5.6693 5.6693ZM 1177.3082,1791.8260 c 0.0000,3.1310 2.5382,5.6693 5.6693 5.6693c 3.1311,-0.0000 5.6693,-2.5382 5.6693 -5.6693c 0.0000,-3.1311 -2.5382,-5.6693 -5.6693 -5.6693c -3.1310,-0.0000 -5.6693,2.5382 -5.6693 5.6693Z"/></g><g stroke-linejoin="miter" stroke-opacity="1.0" fill-opacity="0.5" stroke="rgb(0,0,0)" stroke-width="0.37795275590551186" fill="rgb(255,0,0)" stroke-linecap="butt" stroke-miterlimit="10.0"><path d="M 3.9685,1298.9823 c 0.0000,-1.7243 0.2742,-3.4764 0.8500 -5.1974c 31.8298,-95.1293 63.6596,-190.2586 95.4894 -285.3878c 2.2347,-6.6788 8.4889,-11.1811 15.5316 -11.1811c 80.7332,-0.0000 161.4666,-0.0000 242.1998 -0.0000c 3.6792,-0.0000 7.2513,1.2388 10.1405 3.5169c 49.4805,39.0136 108.9252,66.0133 173.8634 76.5731c 4.5881,0.7461 9.2035,1.4101 13.8448 1.9905c 15.6159,1.9527 31.5244,2.9588 47.6655 2.9588c 16.1410,-0.0000 32.0496,-1.0061 47.6655 -2.9588c 4.6413,-0.5804 9.2568,-1.2444 13.8448 -1.9905c 64.9382,-10.5598 124.3829,-37.5595 173.8634 -76.5731c 2.8892,-2.2780 6.4613,-3.5169 10.1405 -3.5169c 80.7332,-0.0000 161.4666,-0.0000 242.1998 -0.0000c 7.0427,-0.0000 13.2969,4.5024 15.5316 11.1811c 31.8298,95.1293 63.6596,190.2586 95.4894 285.3878c 0.5758,1.7210 0.8500,3.4730 0.8500 5.1974c 0.0000,6.5661 -3.9756,12.7306 -10.4104 15.2501c -135.8590,53.1941 -271.7179,106.3883 -407.5769 159.5824c -1.9027,0.7450 -3.9279,1.1273 -5.9712 1.1273c -58.5422,-0.0000 -117.0844,-0.0000 -175.6266 -0.0000c -58.5422,-0.0000 -117.0844,-0.0000 -175.6266 -0.0000c -2.0433,-0.0000 -4.0686,-0.3823 -5.9712 -1.1273c -135.8590,-53.1941 -271.7179,-106.3883 -407.5769 -159.5824c -6.4348,-2.5195 -10.4104,-8.6840 -10.4104 -15.2501ZM 18.4603,1295.2023 c 0.0000,3.1310 2.5382,5.6693 5.6693 5.6693c 3.1310,-0.0000 5.6693,-2.5382 5.6693 -5.6693c 0.0000,-3.1311 -2.5382,-5.6693 -5.6693 -5.6693c -3.1311,-0.0000 -5.6693,2.5382 -5.6693 5.6693ZM 34.6696,1282.6659 c 3.5697,3.0043 5.8380,7.5054 5.8380 12.5363c 0.0000,2.8382 -0.7219,5.5077 -1.9922 7.8351c 1.1135,0.7774 2.3580,1.4279 3.7177 1.9204c 125.4693,45.4447 250.9385,90.8894 376.4077 136.3341c 2.6390,-1.8197 5.8381,-2.8852 9.2861 -2.8852c 6.0622,-0.0000 11.3551,3.2936 14.1869 8.1890c 53.8132,-0.0000 107.6264,-0.0000 161.4397 -0.0000c 53.8132,-0.0000 107.6265,-0.0000 161.4397 -0.0000c 2.8318,-4.8954 8.1247,-8.1890 14.1869 -8.1890c 3.4480,-0.0000 6.6471,1.0655 9.2861 2.8852c 125.4693,-45.4447 250.9385,-90.8894 376.4077 -136.3341c 1.3598,-0.4925 2.6043,-1.1430 3.7177 -1.9204c -1.2702,-2.3273 -1.9922,-4.9969 -1.9922 -7.8351c 0.0000,-5.0309 2.2683,-9.5320 5.8380 -12.5363c -29.8101,-82.4164 -59.6201,-164.8328 -89.4302 -247.2492c -0.3489,-0.9647 -0.8008,-1.8779 -1.3419 -2.7305c -3.1642,-1.2039 -5.8588,-3.3603 -7.7334 -6.1190c -1.7860,-0.6517 -3.7206,-1.0048 -5.7220 -1.0048c -76.9164,-0.0000 -153.8329,-0.0000 -230.7494 -0.0000c -3.5053,-0.0000 -6.9085,1.0919 -9.6611 3.0995c -43.4454,31.6882 -94.9538,54.3831 -151.1911 65.0318c -0.3818,8.7067 -7.5612,15.6481 -16.3620 15.6481c -4.4006,-0.0000 -8.3958,-1.7355 -11.3386 -4.5595c 0.0000,7.9240 0.0000,15.8481 0.0000 23.7721c 0.0000,4.1748 -3.3843,7.5591 -7.5591 7.5591c -9.4488,-0.0000 -18.8976,-0.0000 -28.3464 -0.0000c 0.0000,-0.3150 0.0000,-0.6299 0.0000 -0.9449c -1.2599,-0.0000 -2.5197,-0.0000 -3.7795 -0.0000c 0.0000,-1.2599 0.0000,-2.5197 0.0000 -3.7795c 1.2599,-0.0000 2.5197,-0.0000 3.7795 -0.0000c 0.0000,-1.2598 0.0000,-2.5197 0.0000 -3.7795c -1.2599,-0.0000 -2.5197,-0.0000 -3.7795 -0.0000c 0.0000,-1.2599 0.0000,-2.5197 0.0000 -3.7795c 1.2599,-0.0000 2.5197,-0.0000 3.7795 -0.0000c 0.0000,-1.2599 0.0000,-2.5197 0.0000 -3.7795c -1.2599,-0.0000 -2.5197,-0.0000 -3.7795 -0.0000c 0.0000,-1.2598 0.0000,-2.5197 0.0000 -3.7795c 1.2599,-0.0000 2.5197,-0.0000 3.7795 -0.0000c 0.0000,-1.2599 0.0000,-2.5197 0.0000 -3.7795c -1.2599,-0.0000 -2.5197,-0.0000 -3.7795 -0.0000c 0.0000,-1.2599 0.0000,-2.5197 0.0000 -3.7795c 1.2599,-0.0000 2.5197,-0.0000 3.7795 -0.0000c 0.0000,-1.2598 0.0000,-2.5197 0.0000 -3.7795c -6.2992,-0.0000 -12.5984,-0.0000 -18.8976 -0.0000c 0.0000,0.3376 0.0000,0.6752 0.0000 1.0127c 0.0000,0.9223 0.0000,1.8445 0.0000 2.7668c 1.2599,-0.0000 2.5197,-0.0000 3.7795 -0.0000c 0.0000,1.2599 0.0000,2.5197 0.0000 3.7795c -1.2599,-0.0000 -2.5197,-0.0000 -3.7795 -0.0000c 0.0000,0.3376 0.0000,0.6752 0.0000 1.0127c 0.0000,0.9223 0.0000,1.8446 0.0000 2.7668c 1.2599,-0.0000 2.5197,-0.0000 3.7795 -0.0000c 0.0000,1.2598 0.0000,2.5197 0.0000 3.7795c -1.2599,-0.0000 -2.5197,-0.0000 -3.7795 -0.0000c 0.0000,0.3376 0.0000,0.6752 0.0000 1.0127c 0.0000,0.9223 0.0000,1.8445 0.0000 2.7668c 1.2599,-0.0000 2.5197,-0.0000 3.7795 -0.0000c 0.0000,1.2599 0.0000,2.5197 0.0000 3.7795c -1.2599,-0.0000 -2.5197,-0.0000 -3.7795 -0.0000c 0.0000,0.3376 0.0000,0.6752 0.0000 1.0127c 0.0000,0.9223 0.0000,1.8445 0.0000 2.7668c 1.2599,-0.0000 2.5197,-0.0000 3.7795 -0.0000c 0.0000,1.2599 0.0000,2.5197 0.0000 3.7795c -1.2599,-0.0000 -2.5197,-0.0000 -3.7795 -0.0000c 0.0000,0.3149 0.0000,0.6300 0.0000 0.9449c -9.4488,-0.0000 -18.8976,-0.0000 -28.3464 -0.0000c -4.1748,-0.0000 -7.5591,-3.3843 -7.5591 -7.5591c 0.0000,-1.3775 0.0000,-2.7550 0.0000 -4.1325c 0.0000,-6.5465 0.0000,-13.0931 0.0000 -19.6396c -2.9427,2.8240 -6.9380,4.5595 -11.3386 4.5595c -8.8007,-0.0000 -15.9802,-6.9415 -16.3620 -15.6481c -56.2373,-10.6486 -107.7457,-33.3437 -151.1911 -65.0318c -2.7526,-2.0077 -6.1558,-3.0995 -9.6611 -3.0995c -76.9164,-0.0000 -153.8330,-0.0000 -230.7494 -0.0000c -2.0014,-0.0000 -3.9360,0.3530 -5.7220 1.0048c -1.8746,2.7587 -4.5692,4.9151 -7.7334 6.1190c -0.5411,0.8527 -0.9929,1.7658 -1.3419 2.7305c -29.8101,82.4164 -59.6201,164.8328 -89.4302 247.2492ZM 113.9498,1017.3734 c 0.0000,3.1311 2.5382,5.6693 5.6693 5.6693c 3.1310,-0.0000 5.6693,-2.5382 5.6693 -5.6693c 0.0000,-3.1310 -2.5382,-5.6693 -5.6693 -5.6693c -3.1311,-0.0000 -5.6693,2.5382 -5.6693 5.6693ZM 422.2578,1454.7846 c 0.0000,3.1311 2.5382,5.6693 5.6693 5.6693c 3.1311,-0.0000 5.6693,-2.5382 5.6693 -5.6693c 0.0000,-3.1310 -2.5382,-5.6693 -5.6693 -5.6693c -3.1310,-0.0000 -5.6693,2.5382 -5.6693 5.6693ZM 541.1914,1092.9640 c 0.0000,3.1311 2.5382,5.6693 5.6693 5.6693c 3.1311,-0.0000 5.6693,-2.5382 5.6693 -5.6693c 0.0000,-3.1310 -2.5382,-5.6693 -5.6693 -5.6693c -3.1310,-0.0000 -5.6693,2.5382 -5.6693 5.6693ZM 654.5772,1092.9640 c 0.0000,3.1311 2.5382,5.6693 5.6693 5.6693c 3.1310,-0.0000 5.6693,-2.5382 5.6693 -5.6693c 0.0000,-3.1310 -2.5382,-5.6693 -5.6693 -5.6693c -3.1311,-0.0000 -5.6693,2.5382 -5.6693 5.6693ZM 773.5108,1454.7846 c 0.0000,3.1311 2.5382,5.6693 5.6693 5.6693c 3.1310,-0.0000 5.6693,-2.5382 5.6693 -5.6693c 0.0000,-3.1310 -2.5382,-5.6693 -5.6693 -5.6693c -3.1311,-0.0000 -5.6693,2.5382 -5.6693 5.6693ZM 1081.8188,1017.3734 c 0.0000,3.1311 2.5382,5.6693 5.6693 5.6693c 3.1311,-0.0000 5.6693,-2.5382 5.6693 -5.6693c 0.0000,-3.1310 -2.5382,-5.6693 -5.6693 -5.6693c -3.1310,-0.0000 -5.6693,2.5382 -5.6693 5.6693ZM 1177.3082,1295.2023 c 0.0000,3.1310 2.5382,5.6693 5.6693 5.6693c 3.1311,-0.0000 5.6693,-2.5382 5.6693 -5.6693c 0.0000,-3.1311 -2.5382,-5.6693 -5.6693 -5.6693c -3.1310,-0.0000 -5.6693,2.5382 -5.6693 5.6693Z"/></g><g stroke-linejoin="miter" stroke-opacity="1.0" fill-opacity="0.5" stroke="rgb(0,0,0)" stroke-width="0.37795275590551186" fill="rgb(0,0,0)" stroke-linecap="butt" stroke-miterlimit="10.0"><path d="M 3.9685,802.3586 c 0.0000,-1.7243 0.2742,-3.4764 0.8500 -5.1974c 31.8298,-95.1293 63.6596,-190.2586 95.4894 -285.3878c 2.2347,-6.6788 8.4889,-11.1811 15.5316 -11.1811c 80.7332,-0.0000 161.4666,-0.0000 242.1998 -0.0000c 3.6792,-0.0000 7.2513,1.2388 10.1405 3.5169c 64.7386,51.0441 146.5341,81.5225 235.3737 81.5225c 88.8396,-0.0000 170.6351,-30.4784 235.3737 -81.5225c 2.8892,-2.2780 6.4613,-3.5169 10.1405 -3.5169c 80.7332,-0.0000 161.4666,-0.0000 242.1998 -0.0000c 7.0427,-0.0000 13.2969,4.5024 15.5316 11.1811c 31.8298,95.1293 63.6596,190.2586 95.4894 285.3878c 0.5758,1.7210 0.8500,3.4730 0.8500 5.1974c 0.0000,6.5661 -3.9756,12.7306 -10.4104 15.2501c -135.8590,53.1941 -271.7179,106.3883 -407.5769 159.5824c -1.9027,0.7450 -3.9279,1.1273 -5.9712 1.1273c -58.5422,-0.0000 -117.0844,-0.0000 -175.6266 -0.0000c -58.5422,-0.0000 -117.0844,-0.0000 -175.6266 -0.0000c -2.0433,-0.0000 -4.0686,-0.3823 -5.9712 -1.1273c -135.8590,-53.1941 -271.7179,-106.3883 -407.5769 -159.5824c -6.4348,-2.5195 -10.4104,-8.6840 -10.4104 -15.2501ZM 18.4603,798.5785 c 0.0000,3.1310 2.5382,5.6693 5.6693 5.6693c 3.1310,-0.0000 5.6693,-2.5382 5.6693 -5.6693c 0.0000,-3.1311 -2.5382,-5.6693 -5.6693 -5.6693c -3.1311,-0.0000 -5.6693,2.5382 -5.6693 5.6693ZM 54.6751,791.3365 c 0.9711,0.3249 1.9422,0.6498 2.9132 0.9748c -0.3919,1.1714 -0.7839,2.3428 -1.1758 3.5142c 16.6905,5.5845 33.3810,11.1691 50.0715 16.7537c 0.3919,-1.1714 0.7839,-2.3428 1.1758 -3.5142c 0.9711,0.3249 1.9421,0.6498 2.9132 0.9748c 1.3992,-4.1817 2.7983,-8.3634 4.1976 -12.5451c -0.9711,-0.3249 -1.9422,-0.6498 -2.9133 -0.9748c 2.0023,-5.9843 4.0046,-11.9687 6.0070 -17.9530c 0.9711,0.3249 1.9422,0.6498 2.9133 0.9748c 1.3992,-4.1817 2.7983,-8.3634 4.1975 -12.5451c -0.9711,-0.3249 -1.9422,-0.6498 -2.9132 -0.9748c 0.3919,-1.1714 0.7839,-2.3428 1.1758 -3.5142c -16.6905,-5.5845 -33.3810,-11.1691 -50.0715 -16.7537c -0.3919,1.1714 -0.7839,2.3428 -1.1758 3.5141c -0.9711,-0.3249 -1.9421,-0.6498 -2.9132 -0.9748c -1.3992,4.1817 -2.7983,8.3634 -4.1976 12.5451c 0.9711,0.3249 1.9422,0.6498 2.9133 0.9748c -2.0023,5.9843 -4.0046,11.9687 -6.0070 17.9530c -0.9711,-0.3249 -1.9422,-0.6498 -2.9132 -0.9748c -1.3992,4.1817 -2.7984,8.3634 -4.1976 12.5451ZM 77.4611,723.2364 c 0.9711,0.3249 1.9421,0.6498 2.9132 0.9748c -0.3919,1.1714 -0.7839,2.3428 -1.1758 3.5141c 16.6905,5.5846 33.3810,11.1691 50.0715 16.7537c 0.3920,-1.1714 0.7839,-2.3428 1.1758 -3.5141c 0.9711,0.3249 1.9422,0.6498 2.9133 0.9748c 1.3992,-4.1817 2.7983,-8.3634 4.1975 -12.5451c -0.9711,-0.3249 -1.9422,-0.6498 -2.9132 -0.9748c 2.0023,-5.9843 4.0046,-11.9687 6.0070 -17.9530c 0.9711,0.3249 1.9421,0.6499 2.9132 0.9748c 1.3992,-4.1817 2.7983,-8.3634 4.1975 -12.5451c -0.9711,-0.3249 -1.9421,-0.6498 -2.9132 -0.9748c 0.3919,-1.1714 0.7839,-2.3428 1.1758 -3.5141c -16.6905,-5.5846 -33.3810,-11.1691 -50.0715 -16.7537c -0.3920,1.1714 -0.7839,2.3428 -1.1758 3.5141c -0.9711,-0.3249 -1.9422,-0.6498 -2.9133 -0.9748c -1.3992,4.1817 -2.7983,8.3634 -4.1975 12.5451c 0.9711,0.3249 1.9422,0.6498 2.9132 0.9748c -2.0023,5.9843 -4.0046,11.9687 -6.0069 17.9530c -0.9711,-0.3249 -1.9422,-0.6499 -2.9133 -0.9748c -1.3992,4.1817 -2.7983,8.3634 -4.1975 12.5451ZM 100.2470,655.1363 c 0.9711,0.3249 1.9422,0.6498 2.9132 0.9748c -0.3919,1.1714 -0.7839,2.3428 -1.1758 3.5142c 16.6905,5.5845 33.3810,11.1691 50.0715 16.7537c 0.3919,-1.1714 0.7839,-2.3428 1.1758 -3.5141c 0.9711,0.3249 1.9421,0.6498 2.9132 0.9748c 1.3992,-4.1817 2.7983,-8.3634 4.1976 -12.5451c -0.9711,-0.3249 -1.9422,-0.6498 -2.9133 -0.9748c 2.0023,-5.9843 4.0046,-11.9687 6.0070 -17.9530c 0.9711,0.3249 1.9422,0.6498 2.9132 0.9748c 1.3992,-4.1817 2.7984,-8.3634 4.1976 -12.5451c -0.9711,-0.3249 -1.9422,-0.6498 -2.9132 -0.9748c 0.3919,-1.1714 0.7839,-2.3428 1.1758 -3.5142c -16.6905,-5.5845 -33.3810,-11.1691 -50.0715 -16.7537c -0.3919,1.1714 -0.7839,2.3428 -1.1758 3.5142c -0.9711,-0.3249 -1.9421,-0.6498 -2.9132 -0.9748c -1.3992,4.1817 -2.7983,8.3634 -4.1976 12.5451c 0.9711,0.3249 1.9422,0.6498 2.9133 0.9748c -2.0023,5.9843 -4.0046,11.9687 -6.0070 17.9530c -0.9711,-0.3249 -1.9422,-0.6498 -2.9132 -0.9748c -1.3992,4.1817 -2.7984,8.3634 -4.1976 12.5451ZM 113.9498,520.7497 c 0.0000,3.1311 2.5382,5.6693 5.6693 5.6693c 3.1310,-0.0000 5.6693,-2.5382 5.6693 -5.6693c 0.0000,-3.1310 -2.5382,-5.6693 -5.6693 -5.6693c -3.1311,-0.0000 -5.6693,2.5382 -5.6693 5.6693ZM 123.0330,587.0363 c 0.9711,0.3249 1.9422,0.6498 2.9133 0.9748c -0.3919,1.1714 -0.7839,2.3428 -1.1758 3.5141c 16.6905,5.5846 33.3810,11.1691 50.0715 16.7537c 0.3919,-1.1714 0.7839,-2.3428 1.1758 -3.5142c 0.9711,0.3249 1.9422,0.6498 2.9133 0.9748c 1.3992,-4.1817 2.7983,-8.3634 4.1975 -12.5451c -0.9711,-0.3249 -1.9422,-0.6498 -2.9132 -0.9748c 2.0023,-5.9843 4.0046,-11.9687 6.0069 -17.9530c 0.9711,0.3249 1.9422,0.6498 2.9133 0.9748c 1.3992,-4.1817 2.7983,-8.3634 4.1975 -12.5451c -0.9711,-0.3249 -1.9421,-0.6498 -2.9132 -0.9748c 0.3919,-1.1714 0.7839,-2.3428 1.1758 -3.5141c -16.6905,-5.5846 -33.3810,-11.1692 -50.0715 -16.7537c -0.3920,1.1714 -0.7839,2.3428 -1.1758 3.5141c -0.9711,-0.3249 -1.9422,-0.6498 -2.9133 -0.9748c -1.3992,4.1817 -2.7983,8.3634 -4.1975 12.5451c 0.9711,0.3249 1.9422,0.6498 2.9132 0.9748c -2.0023,5.9843 -4.0046,11.9686 -6.0070 17.9529c -0.9711,-0.3249 -1.9421,-0.6498 -2.9132 -0.9748c -1.3992,4.1817 -2.7983,8.3634 -4.1976 12.5451ZM 123.9744,810.5383 c 0.9711,0.3249 1.9422,0.6498 2.9132 0.9748c -0.3919,1.1714 -0.7839,2.3428 -1.1758 3.5142c 16.6905,5.5845 33.3810,11.1691 50.0715 16.7537c 0.3919,-1.1714 0.7839,-2.3428 1.1758 -3.5142c 0.9711,0.3249 1.9421,0.6498 2.9132 0.9748c 1.3992,-4.1817 2.7983,-8.3634 4.1975 -12.5451c -0.9711,-0.3249 -1.9421,-0.6498 -2.9132 -0.9748c 2.0023,-5.9843 4.0046,-11.9687 6.0070 -17.9530c 0.9711,0.3249 1.9421,0.6498 2.9132 0.9748c 1.3992,-4.1817 2.7984,-8.3634 4.1976 -12.5451c -0.9711,-0.3249 -1.9422,-0.6498 -2.9133 -0.9748c 0.3920,-1.1714 0.7839,-2.3428 1.1758 -3.5142c -16.6905,-5.5845 -33.3810,-11.1691 -50.0715 -16.7537c -0.3919,1.1714 -0.7839,2.3428 -1.1758 3.5142c -0.9711,-0.3249 -1.9422,-0.6498 -2.9132 -0.9748c -1.3992,4.1817 -2.7984,8.3634 -4.1976 12.5451c 0.9711,0.3249 1.9422,0.6498 2.9133 0.9748c -2.0023,5.9843 -4.0047,11.9687 -6.0070 17.9530c -0.9711,-0.3249 -1.9422,-0.6498 -2.9133 -0.9748c -1.3992,4.1817 -2.7983,8.3634 -4.1975 12.5451ZM 146.7604,742.4382 c 0.9711,0.3249 1.9422,0.6498 2.9133 0.9748c -0.3920,1.1714 -0.7839,2.3428 -1.1758 3.5141c 16.6905,5.5846 33.3810,11.1691 50.0715 16.7537c 0.3919,-1.1714 0.7839,-2.3428 1.1758 -3.5142c 0.9711,0.3250 1.9422,0.6498 2.9132 0.9748c 1.3992,-4.1817 2.7984,-8.3634 4.1976 -12.5451c -0.9711,-0.3249 -1.9422,-0.6498 -2.9133 -0.9748c 2.0023,-5.9843 4.0047,-11.9687 6.0070 -17.9530c 0.9711,0.3249 1.9422,0.6498 2.9133 0.9748c 1.3992,-4.1817 2.7983,-8.3634 4.1975 -12.5451c -0.9711,-0.3249 -1.9421,-0.6498 -2.9132 -0.9748c 0.3919,-1.1714 0.7839,-2.3428 1.1758 -3.5141c -16.6905,-5.5846 -33.3810,-11.1691 -50.0715 -16.7537c -0.3920,1.1714 -0.7839,2.3428 -1.1758 3.5141c -0.9711,-0.3249 -1.9422,-0.6498 -2.9133 -0.9748c -1.3992,4.1817 -2.7983,8.3634 -4.1975 12.5451c 0.9711,0.3249 1.9421,0.6498 2.9132 0.9748c -2.0023,5.9843 -4.0046,11.9686 -6.0070 17.9529c -0.9711,-0.3249 -1.9421,-0.6498 -2.9132 -0.9748c -1.3992,4.1817 -2.7984,8.3634 -4.1976 12.5451ZM 169.5464,674.3381 c 0.9711,0.3249 1.9421,0.6498 2.9132 0.9748c -0.3919,1.1714 -0.7839,2.3428 -1.1758 3.5142c 16.6905,5.5845 33.3810,11.1691 50.0715 16.7537c 0.3920,-1.1714 0.7839,-2.3428 1.1758 -3.5141c 0.9711,0.3249 1.9422,0.6498 2.9133 0.9748c 1.3992,-4.1817 2.7983,-8.3634 4.1975 -12.5451c -0.9711,-0.3249 -1.9421,-0.6498 -2.9132 -0.9748c 2.0023,-5.9843 4.0046,-11.9687 6.0070 -17.9530c 0.9711,0.3249 1.9421,0.6498 2.9132 0.9748c 1.3992,-4.1817 2.7983,-8.3634 4.1976 -12.5451c -0.9711,-0.3249 -1.9422,-0.6498 -2.9133 -0.9748c 0.3920,-1.1714 0.7839,-2.3428 1.1758 -3.5141c -16.6905,-5.5846 -33.3810,-11.1691 -50.0715 -16.7537c -0.3919,1.1714 -0.7839,2.3428 -1.1758 3.5142c -0.9711,-0.3249 -1.9422,-0.6498 -2.9132 -0.9748c -1.3992,4.1817 -2.7984,8.3634 -4.1976 12.5451c 0.9711,0.3249 1.9422,0.6498 2.9132 0.9748c -2.0023,5.9843 -4.0046,11.9687 -6.0069 17.9530c -0.9711,-0.3249 -1.9422,-0.6498 -2.9133 -0.9748c -1.3992,4.1817 -2.7983,8.3634 -4.1975 12.5451ZM 192.3323,606.2380 c 0.9711,0.3249 1.9422,0.6498 2.9133 0.9748c -0.3920,1.1714 -0.7839,2.3428 -1.1758 3.5141c 16.6905,5.5846 33.3810,11.1691 50.0715 16.7537c 0.3919,-1.1714 0.7839,-2.3428 1.1758 -3.5142c 0.9711,0.3249 1.9421,0.6498 2.9132 0.9748c 1.3992,-4.1817 2.7984,-8.3634 4.1976 -12.5451c -0.9711,-0.3249 -1.9422,-0.6498 -2.9133 -0.9748c 2.0023,-5.9843 4.0047,-11.9687 6.0070 -17.9530c 0.9711,0.3249 1.9422,0.6498 2.9133 0.9748c 1.3992,-4.1817 2.7983,-8.3634 4.1975 -12.5451c -0.9711,-0.3249 -1.9421,-0.6498 -2.9132 -0.9748c 0.3919,-1.1714 0.7839,-2.3428 1.1758 -3.5142c -16.6905,-5.5845 -33.3810,-11.1691 -50.0715 -16.7537c -0.3919,1.1714 -0.7839,2.3428 -1.1758 3.5141c -0.9711,-0.3249 -1.9422,-0.6498 -2.9133 -0.9748c -1.3992,4.1817 -2.7983,8.3634 -4.1975 12.5451c 0.9711,0.3249 1.9421,0.6498 2.9132 0.9748c -2.0023,5.9843 -4.0046,11.9687 -6.0070 17.9530c -0.9711,-0.3249 -1.9421,-0.6498 -2.9132 -0.9748c -1.3992,4.1817 -2.7984,8.3634 -4.1976 12.5451ZM 195.6723,822.5716 c 0.9711,0.3249 1.9422,0.6498 2.9132 0.9748c -0.3919,1.1714 -0.7839,2.3428 -1.1758 3.5141c 16.6905,5.5846 33.3810,11.1691 50.0715 16.7537c 0.3919,-1.1714 0.7839,-2.3428 1.1758 -3.5141c 0.9711,0.3249 1.9421,0.6498 2.9132 0.9748c 1.3992,-4.1817 2.7983,-8.3634 4.1976 -12.5451c -0.9711,-0.3249 -1.9422,-0.6498 -2.9133 -0.9748c 2.0023,-5.9843 4.0046,-11.9686 6.0070 -17.9529c 0.9711,0.3249 1.9422,0.6498 2.9132 0.9748c 1.3992,-4.1817 2.7984,-8.3634 4.1976 -12.5451c -0.9711,-0.3249 -1.9422,-0.6498 -2.9133 -0.9748c 0.3920,-1.1714 0.7839,-2.3428 1.1758 -3.5141c -16.6905,-5.5846 -33.3810,-11.1691 -50.0715 -16.7537c -0.3919,1.1714 -0.7839,2.3428 -1.1758 3.5141c -0.9711,-0.3249 -1.9421,-0.6498 -2.9132 -0.9748c -1.3992,4.1817 -2.7984,8.3634 -4.1976 12.5451c 0.9711,0.3249 1.9422,0.6498 2.9133 0.9748c -2.0023,5.9843 -4.0047,11.9687 -6.0070 17.9530c -0.9711,-0.3249 -1.9422,-0.6498 -2.9132 -0.9748c -1.3992,4.1817 -2.7984,8.3634 -4.1976 12.5451ZM 218.4583,754.4715 c 0.9711,0.3249 1.9422,0.6498 2.9133 0.9748c -0.3919,1.1714 -0.7839,2.3428 -1.1758 3.5142c 16.6905,5.5845 33.3810,11.1691 50.0715 16.7537c 0.3919,-1.1714 0.7839,-2.3428 1.1758 -3.5141c 0.9711,0.3249 1.9422,0.6498 2.9132 0.9748c 1.3992,-4.1817 2.7984,-8.3634 4.1976 -12.5451c -0.9711,-0.3249 -1.9422,-0.6498 -2.9132 -0.9748c 2.0023,-5.9843 4.0046,-11.9687 6.0069 -17.9530c 0.9711,0.3249 1.9422,0.6498 2.9133 0.9748c 1.3992,-4.1817 2.7983,-8.3634 4.1975 -12.5451c -0.9711,-0.3249 -1.9421,-0.6498 -2.9132 -0.9748c 0.3919,-1.1714 0.7839,-2.3428 1.1758 -3.5142c -16.6905,-5.5845 -33.3810,-11.1691 -50.0715 -16.7537c -0.3920,1.1714 -0.7839,2.3428 -1.1758 3.5142c -0.9711,-0.3249 -1.9422,-0.6498 -2.9133 -0.9748c -1.3992,4.1817 -2.7983,8.3634 -4.1975 12.5451c 0.9711,0.3249 1.9421,0.6498 2.9132 0.9748c -2.0023,5.9843 -4.0046,11.9687 -6.0070 17.9530c -0.9711,-0.3249 -1.9421,-0.6498 -2.9132 -0.9748c -1.3992,4.1817 -2.7983,8.3634 -4.1976 12.5451ZM 241.2442,686.3714 c 0.9711,0.3249 1.9422,0.6498 2.9132 0.9748c -0.3919,1.1714 -0.7839,2.3428 -1.1758 3.5141c 16.6905,5.5846 33.3810,11.1691 50.0715 16.7537c 0.3919,-1.1714 0.7839,-2.3428 1.1758 -3.5141c 0.9711,0.3249 1.9421,0.6498 2.9132 0.9748c 1.3992,-4.1817 2.7983,-8.3634 4.1975 -12.5451c -0.9711,-0.3249 -1.9421,-0.6498 -2.9132 -0.9748c 2.0023,-5.9843 4.0046,-11.9687 6.0070 -17.9530c 0.9711,0.3249 1.9422,0.6498 2.9132 0.9748c 1.3992,-4.1817 2.7984,-8.3634 4.1976 -12.5451c -0.9711,-0.3249 -1.9422,-0.6498 -2.9133 -0.9748c 0.3920,-1.1714 0.7839,-2.3428 1.1758 -3.5141c -16.6905,-5.5846 -33.3810,-11.1692 -50.0715 -16.7537c -0.3919,1.1714 -0.7839,2.3428 -1.1758 3.5141c -0.9711,-0.3249 -1.9421,-0.6498 -2.9132 -0.9748c -1.3992,4.1817 -2.7984,8.3634 -4.1976 12.5451c 0.9711,0.3249 1.9422,0.6498 2.9133 0.9748c -2.0023,5.9843 -4.0047,11.9687 -6.0070 17.9529c -0.9711,-0.3249 -1.9422,-0.6498 -2.9132 -0.9748c -1.3992,4.1817 -2.7984,8.3634 -4.1976 12.5451ZM 264.0302,618.2713 c 0.9711,0.3249 1.9422,0.6498 2.9133 0.9748c -0.3920,1.1714 -0.7839,2.3428 -1.1758 3.5141c 16.6905,5.5846 33.3810,11.1692 50.0715 16.7537c 0.3919,-1.1714 0.7839,-2.3428 1.1758 -3.5141c 0.9711,0.3249 1.9422,0.6498 2.9132 0.9748c 1.3992,-4.1817 2.7984,-8.3634 4.1976 -12.5451c -0.9711,-0.3249 -1.9422,-0.6498 -2.9132 -0.9748c 2.0023,-5.9843 4.0046,-11.9687 6.0069 -17.9530c 0.9711,0.3249 1.9422,0.6498 2.9133 0.9748c 1.3992,-4.1817 2.7983,-8.3634 4.1975 -12.5451c -0.9711,-0.3249 -1.9421,-0.6498 -2.9132 -0.9748c 0.3919,-1.1714 0.7839,-2.3428 1.1758 -3.5141c -16.6905,-5.5846 -33.3810,-11.1691 -50.0715 -16.7537c -0.3920,1.1714 -0.7839,2.3428 -1.1758 3.5142c -0.9711,-0.3249 -1.9422,-0.6498 -2.9133 -0.9748c -1.3992,4.1817 -2.7983,8.3634 -4.1975 12.5451c 0.9711,0.3249 1.9421,0.6498 2.9132 0.9748c -2.0023,5.9843 -4.0046,11.9687 -6.0070 17.9530c -0.9711,-0.3249 -1.9421,-0.6498 -2.9132 -0.9748c -1.3992,4.1817 -2.7983,8.3634 -4.1976 12.5451ZM 269.7687,827.4365 c 0.9711,0.3249 1.9421,0.6498 2.9132 0.9748c -0.3919,1.1714 -0.7839,2.3428 -1.1758 3.5142c 16.6905,5.5845 33.3810,11.1691 50.0715 16.7537c 0.3920,-1.1714 0.7839,-2.3428 1.1758 -3.5142c 0.9711,0.3249 1.9422,0.6498 2.9132 0.9748c 1.3992,-4.1817 2.7984,-8.3634 4.1976 -12.5451c -0.9711,-0.3249 -1.9422,-0.6498 -2.9132 -0.9748c 2.0023,-5.9843 4.0046,-11.9687 6.0069 -17.9530c 0.9711,0.3249 1.9422,0.6498 2.9133 0.9748c 1.3992,-4.1817 2.7983,-8.3634 4.1975 -12.5451c -0.9711,-0.3249 -1.9421,-0.6498 -2.9132 -0.9748c 0.3919,-1.1714 0.7839,-2.3428 1.1758 -3.5142c -16.6905,-5.5845 -33.3810,-11.1691 -50.0715 -16.7537c -0.3920,1.1714 -0.7839,2.3428 -1.1758 3.5142c -0.9711,-0.3249 -1.9422,-0.6498 -2.9133 -0.9748c -1.3992,4.1817 -2.7983,8.3634 -4.1975 12.5451c 0.9711,0.3249 1.9421,0.6498 2.9132 0.9748c -2.0023,5.9843 -4.0046,11.9687 -6.0070 17.9530c -0.9711,-0.3249 -1.9421,-0.6498 -2.9132 -0.9748c -1.3992,4.1817 -2.7983,8.3634 -4.1975 12.5451ZM 292.5547,759.3364 c 0.9711,0.3249 1.9422,0.6498 2.9132 0.9748c -0.3919,1.1714 -0.7839,2.3428 -1.1758 3.5141c 16.6905,5.5846 33.3810,11.1691 50.0715 16.7537c 0.3919,-1.1714 0.7839,-2.3428 1.1758 -3.5141c 0.9711,0.3249 1.9421,0.6498 2.9132 0.9747c 1.3992,-4.1817 2.7983,-8.3634 4.1976 -12.5451c -0.9711,-0.3249 -1.9422,-0.6498 -2.9133 -0.9748c 2.0023,-5.9843 4.0046,-11.9687 6.0070 -17.9530c 0.9711,0.3249 1.9422,0.6498 2.9132 0.9748c 1.3992,-4.1817 2.7984,-8.3634 4.1976 -12.5451c -0.9711,-0.3249 -1.9422,-0.6498 -2.9133 -0.9748c 0.3920,-1.1714 0.7839,-2.3428 1.1758 -3.5141c -16.6905,-5.5846 -33.3810,-11.1691 -50.0715 -16.7537c -0.3919,1.1714 -0.7839,2.3428 -1.1758 3.5141c -0.9711,-0.3249 -1.9421,-0.6498 -2.9132 -0.9748c -1.3992,4.1817 -2.7984,8.3634 -4.1976 12.5451c 0.9711,0.3249 1.9422,0.6498 2.9133 0.9748c -2.0023,5.9843 -4.0047,11.9686 -6.0070 17.9529c -0.9711,-0.3249 -1.9422,-0.6498 -2.9132 -0.9748c -1.3992,4.1817 -2.7984,8.3634 -4.1976 12.5451ZM 315.3406,691.2363 c 0.9711,0.3249 1.9422,0.6498 2.9133 0.9748c -0.3920,1.1714 -0.7839,2.3428 -1.1758 3.5142c 16.6905,5.5845 33.3810,11.1691 50.0715 16.7537c 0.3919,-1.1714 0.7839,-2.3428 1.1758 -3.5141c 0.9711,0.3249 1.9422,0.6498 2.9132 0.9748c 1.3992,-4.1817 2.7984,-8.3634 4.1976 -12.5451c -0.9711,-0.3249 -1.9422,-0.6498 -2.9132 -0.9748c 2.0023,-5.9843 4.0046,-11.9687 6.0069 -17.9530c 0.9711,0.3249 1.9422,0.6498 2.9133 0.9748c 1.3992,-4.1817 2.7983,-8.3634 4.1975 -12.5451c -0.9711,-0.3249 -1.9421,-0.6499 -2.9132 -0.9748c 0.3919,-1.1714 0.7839,-2.3428 1.1758 -3.5141c -16.6905,-5.5845 -33.3810,-11.1691 -50.0715 -16.7537c -0.3920,1.1714 -0.7839,2.3428 -1.1758 3.5142c -0.9711,-0.3249 -1.9422,-0.6498 -2.9133 -0.9748c -1.3992,4.1817 -2.7983,8.3634 -4.1975 12.5451c 0.9711,0.3249 1.9421,0.6498 2.9132 0.9748c -2.0023,5.9843 -4.0046,11.9687 -6.0070 17.9530c -0.9711,-0.3249 -1.9421,-0.6498 -2.9132 -0.9748c -1.3992,4.1817 -2.7983,8.3634 -4.1976 12.5451ZM 330.6732,871.7277 c 0.9711,0.3249 1.9422,0.6498 2.9132 0.9748c -0.3919,1.1714 -0.7839,2.3428 -1.1758 3.5142c 16.6905,5.5845 33.3810,11.1691 50.0715 16.7537c 0.3919,-1.1714 0.7839,-2.3428 1.1758 -3.5142c 0.9711,0.3249 1.9421,0.6498 2.9132 0.9748c 1.3992,-4.1817 2.7983,-8.3634 4.1976 -12.5451c -0.9711,-0.3249 -1.9422,-0.6498 -2.9133 -0.9748c 2.0023,-5.9843 4.0046,-11.9687 6.0070 -17.9530c 0.9711,0.3249 1.9422,0.6498 2.9132 0.9748c 1.3992,-4.1817 2.7984,-8.3634 4.1976 -12.5451c -0.9711,-0.3249 -1.9422,-0.6498 -2.9132 -0.9748c 0.3919,-1.1714 0.7839,-2.3428 1.1758 -3.5142c -16.6905,-5.5845 -33.3810,-11.1691 -50.0715 -16.7537c -0.3919,1.1714 -0.7839,2.3428 -1.1758 3.5141c -0.9711,-0.3249 -1.9421,-0.6498 -2.9132 -0.9748c -1.3992,4.1817 -2.7983,8.3634 -4.1976 12.5451c 0.9711,0.3249 1.9422,0.6498 2.9133 0.9748c -2.0023,5.9843 -4.0046,11.9687 -6.0070 17.9530c -0.9711,-0.3249 -1.9422,-0.6498 -2.9132 -0.9748c -1.3992,4.1817 -2.7984,8.3634 -4.1976 12.5451ZM 338.1266,623.1362 c 0.9711,0.3249 1.9421,0.6498 2.9132 0.9748c -0.3919,1.1714 -0.7839,2.3428 -1.1758 3.5141c 16.6905,5.5846 33.3810,11.1691 50.0715 16.7537c 0.3919,-1.1714 0.7839,-2.3428 1.1758 -3.5142c 0.9711,0.3249 1.9421,0.6498 2.9132 0.9748c 1.3992,-4.1817 2.7983,-8.3634 4.1975 -12.5451c -0.9711,-0.3249 -1.9421,-0.6498 -2.9132 -0.9748c 2.0023,-5.9843 4.0046,-11.9687 6.0070 -17.9530c 0.9711,0.3249 1.9421,0.6498 2.9132 0.9748c 1.3992,-4.1817 2.7984,-8.3634 4.1976 -12.5451c -0.9711,-0.3249 -1.9422,-0.6498 -2.9133 -0.9748c 0.3920,-1.1714 0.7839,-2.3428 1.1758 -3.5141c -16.6905,-5.5846 -33.3810,-11.1692 -50.0715 -16.7537c -0.3919,1.1714 -0.7839,2.3428 -1.1758 3.5141c -0.9711,-0.3249 -1.9422,-0.6498 -2.9132 -0.9748c -1.3992,4.1817 -2.7984,8.3634 -4.1976 12.5451c 0.9711,0.3249 1.9422,0.6498 2.9133 0.9748c -2.0023,5.9843 -4.0047,11.9687 -6.0070 17.9530c -0.9711,-0.3249 -1.9422,-0.6498 -2.9133 -0.9748c -1.3992,4.1817 -2.7983,8.3634 -4.1975 12.5451ZM 353.4592,803.6277 c 0.9711,0.3249 1.9421,0.6498 2.9132 0.9748c -0.3920,1.1714 -0.7839,2.3428 -1.1758 3.5141c 16.6905,5.5846 33.3810,11.1691 50.0715 16.7537c 0.3919,-1.1714 0.7839,-2.3428 1.1758 -3.5141c 0.9711,0.3249 1.9422,0.6498 2.9132 0.9748c 1.3992,-4.1817 2.7984,-8.3634 4.1976 -12.5451c -0.9711,-0.3249 -1.9422,-0.6498 -2.9132 -0.9748c 2.0023,-5.9843 4.0046,-11.9687 6.0069 -17.9530c 0.9711,0.3250 1.9422,0.6498 2.9133 0.9748c 1.3992,-4.1817 2.7983,-8.3634 4.1975 -12.5451c -0.9711,-0.3249 -1.9421,-0.6498 -2.9132 -0.9748c 0.3919,-1.1714 0.7839,-2.3428 1.1758 -3.5141c -16.6905,-5.5846 -33.3810,-11.1691 -50.0715 -16.7537c -0.3920,1.1714 -0.7839,2.3428 -1.1758 3.5141c -0.9711,-0.3249 -1.9422,-0.6498 -2.9133 -0.9748c -1.3992,4.1817 -2.7983,8.3634 -4.1975 12.5451c 0.9711,0.3249 1.9421,0.6498 2.9132 0.9748c -2.0023,5.9843 -4.0046,11.9687 -6.0070 17.9529c -0.9711,-0.3249 -1.9421,-0.6498 -2.9132 -0.9747c -1.3992,4.1817 -2.7983,8.3634 -4.1975 12.5451ZM 376.2452,735.5276 c 0.9711,0.3249 1.9422,0.6498 2.9132 0.9748c -0.3919,1.1714 -0.7839,2.3428 -1.1758 3.5142c 16.6905,5.5845 33.3810,11.1691 50.0715 16.7537c 0.3919,-1.1714 0.7839,-2.3428 1.1758 -3.5141c 0.9711,0.3249 1.9422,0.6498 2.9133 0.9748c 1.3992,-4.1817 2.7983,-8.3634 4.1975 -12.5451c -0.9711,-0.3249 -1.9421,-0.6498 -2.9132 -0.9748c 2.0023,-5.9843 4.0046,-11.9687 6.0070 -17.9530c 0.9711,0.3249 1.9422,0.6498 2.9132 0.9748c 1.3992,-4.1817 2.7984,-8.3634 4.1976 -12.5451c -0.9711,-0.3249 -1.9422,-0.6498 -2.9133 -0.9748c 0.3920,-1.1714 0.7839,-2.3428 1.1758 -3.5142c -16.6905,-5.5845 -33.3810,-11.1691 -50.0715 -16.7537c -0.3919,1.1714 -0.7839,2.3428 -1.1758 3.5142c -0.9711,-0.3249 -1.9421,-0.6498 -2.9132 -0.9748c -1.3992,4.1817 -2.7984,8.3634 -4.1976 12.5451c 0.9711,0.3249 1.9422,0.6498 2.9133 0.9748c -2.0023,5.9843 -4.0047,11.9687 -6.0070 17.9530c -0.9711,-0.3249 -1.9422,-0.6498 -2.9133 -0.9748c -1.3992,4.1817 -2.7983,8.3634 -4.1975 12.5451ZM 392.7770,912.4348 c 0.9711,0.3249 1.9421,0.6498 2.9132 0.9748c -0.3919,1.1714 -0.7839,2.3428 -1.1758 3.5141c 16.6905,5.5846 33.3810,11.1691 50.0715 16.7537c 0.3920,-1.1714 0.7839,-2.3428 1.1758 -3.5141c 0.9711,0.3249 1.9422,0.6498 2.9133 0.9748c 1.3992,-4.1817 2.7983,-8.3634 4.1975 -12.5451c -0.9711,-0.3249 -1.9421,-0.6498 -2.9132 -0.9748c 2.0023,-5.9843 4.0046,-11.9686 6.0070 -17.9529c 0.9711,0.3249 1.9421,0.6498 2.9132 0.9748c 1.3992,-4.1817 2.7983,-8.3634 4.1976 -12.5451c -0.9711,-0.3249 -1.9422,-0.6498 -2.9133 -0.9748c 0.3920,-1.1714 0.7839,-2.3428 1.1758 -3.5141c -16.6905,-5.5846 -33.3810,-11.1691 -50.0715 -16.7537c -0.3919,1.1714 -0.7839,2.3428 -1.1758 3.5141c -0.9711,-0.3249 -1.9422,-0.6498 -2.9132 -0.9748c -1.3992,4.1817 -2.7984,8.3634 -4.1976 12.5451c 0.9711,0.3249 1.9422,0.6498 2.9132 0.9748c -2.0023,5.9843 -4.0046,11.9687 -6.0069 17.9530c -0.9711,-0.3249 -1.9422,-0.6498 -2.9133 -0.9748c -1.3992,4.1817 -2.7983,8.3634 -4.1975 12.5451ZM 399.0311,667.4275 c 0.9711,0.3249 1.9422,0.6498 2.9133 0.9748c -0.3920,1.1714 -0.7839,2.3428 -1.1758 3.5141c 16.6905,5.5846 33.3810,11.1691 50.0715 16.7537c 0.3919,-1.1714 0.7839,-2.3428 1.1758 -3.5142c 0.9711,0.3249 1.9422,0.6498 2.9132 0.9748c 1.3992,-4.1817 2.7984,-8.3634 4.1976 -12.5451c -0.9711,-0.3249 -1.9422,-0.6498 -2.9132 -0.9748c 2.0023,-5.9843 4.0046,-11.9687 6.0069 -17.9530c 0.9711,0.3249 1.9422,0.6498 2.9133 0.9748c 1.3992,-4.1817 2.7983,-8.3634 4.1975 -12.5451c -0.9711,-0.3249 -1.9421,-0.6498 -2.9132 -0.9748c 0.3919,-1.1714 0.7839,-2.3428 1.1758 -3.5141c -16.6905,-5.5846 -33.3810,-11.1692 -50.0715 -16.7537c -0.3920,1.1714 -0.7839,2.3428 -1.1758 3.5141c -0.9711,-0.3249 -1.9422,-0.6498 -2.9133 -0.9748c -1.3992,4.1817 -2.7983,8.3634 -4.1975 12.5451c 0.9711,0.3249 1.9421,0.6498 2.9132 0.9748c -2.0023,5.9843 -4.0046,11.9686 -6.0070 17.9529c -0.9711,-0.3249 -1.9421,-0.6498 -2.9132 -0.9748c -1.3992,4.1817 -2.7983,8.3634 -4.1976 12.5451ZM 415.5630,844.3347 c 0.9711,0.3249 1.9422,0.6498 2.9132 0.9748c -0.3919,1.1714 -0.7839,2.3428 -1.1758 3.5142c 16.6905,5.5845 33.3810,11.1691 50.0715 16.7537c 0.3919,-1.1714 0.7839,-2.3428 1.1758 -3.5142c 0.9711,0.3249 1.9421,0.6498 2.9132 0.9748c 1.3992,-4.1817 2.7983,-8.3634 4.1976 -12.5451c -0.9711,-0.3249 -1.9422,-0.6498 -2.9133 -0.9748c 2.0023,-5.9843 4.0046,-11.9687 6.0070 -17.9530c 0.9711,0.3249 1.9422,0.6498 2.9132 0.9748c 1.3992,-4.1817 2.7984,-8.3634 4.1976 -12.5451c -0.9711,-0.3249 -1.9422,-0.6498 -2.9132 -0.9748c 0.3919,-1.1714 0.7839,-2.3428 1.1758 -3.5142c -16.6905,-5.5845 -33.3810,-11.1691 -50.0715 -16.7537c -0.3919,1.1714 -0.7839,2.3428 -1.1758 3.5142c -0.9711,-0.3249 -1.9421,-0.6498 -2.9132 -0.9748c -1.3992,4.1817 -2.7983,8.3634 -4.1975 12.5451c 0.9711,0.3249 1.9421,0.6498 2.9132 0.9748c -2.0023,5.9843 -4.0046,11.9687 -6.0070 17.9530c -0.9711,-0.3249 -1.9422,-0.6498 -2.9132 -0.9748c -1.3992,4.1817 -2.7984,8.3634 -4.1976 12.5451ZM 422.2578,958.1609 c 0.0000,3.1311 2.5382,5.6693 5.6693 5.6693c 3.1311,-0.0000 5.6693,-2.5382 5.6693 -5.6693c 0.0000,-3.1310 -2.5382,-5.6693 -5.6693 -5.6693c -3.1310,-0.0000 -5.6693,2.5382 -5.6693 5.6693ZM 438.3490,776.2346 c 0.9711,0.3249 1.9421,0.6498 2.9132 0.9748c -0.3919,1.1714 -0.7839,2.3428 -1.1758 3.5141c 16.6905,5.5846 33.3810,11.1691 50.0715 16.7537c 0.3920,-1.1714 0.7839,-2.3428 1.1758 -3.5141c 0.9711,0.3249 1.9422,0.6498 2.9133 0.9748c 1.3992,-4.1817 2.7983,-8.3634 4.1975 -12.5451c -0.9711,-0.3249 -1.9422,-0.6498 -2.9132 -0.9748c 2.0023,-5.9843 4.0046,-11.9687 6.0070 -17.9530c 0.9711,0.3249 1.9421,0.6498 2.9132 0.9748c 1.3992,-4.1817 2.7983,-8.3634 4.1975 -12.5451c -0.9711,-0.3249 -1.9421,-0.6498 -2.9132 -0.9748c 0.3919,-1.1714 0.7839,-2.3428 1.1758 -3.5141c -16.6905,-5.5846 -33.3810,-11.1691 -50.0715 -16.7537c -0.3919,1.1714 -0.7839,2.3428 -1.1758 3.5141c -0.9711,-0.3249 -1.9422,-0.6498 -2.9133 -0.9748c -1.3992,4.1817 -2.7983,8.3634 -4.1975 12.5451c 0.9711,0.3249 1.9422,0.6498 2.9132 0.9748c -2.0023,5.9843 -4.0046,11.9687 -6.0070 17.9529c -0.9711,-0.3249 -1.9421,-0.6498 -2.9132 -0.9748c -1.3992,4.1817 -2.7983,8.3634 -4.1975 12.5451ZM 461.1349,708.1345 c 0.9711,0.3249 1.9422,0.6498 2.9132 0.9748c -0.3919,1.1714 -0.7839,2.3428 -1.1758 3.5142c 16.6905,5.5845 33.3810,11.1691 50.0715 16.7537c 0.3919,-1.1714 0.7839,-2.3428 1.1758 -3.5141c 0.9711,0.3249 1.9421,0.6498 2.9132 0.9748c 1.3992,-4.1817 2.7983,-8.3634 4.1976 -12.5451c -0.9711,-0.3249 -1.9422,-0.6498 -2.9133 -0.9748c 2.0023,-5.9843 4.0046,-11.9687 6.0070 -17.9530c 0.9711,0.3249 1.9422,0.6498 2.9132 0.9748c 1.3992,-4.1817 2.7984,-8.3634 4.1976 -12.5451c -0.9711,-0.3249 -1.9422,-0.6499 -2.9132 -0.9748c 0.3919,-1.1714 0.7839,-2.3428 1.1758 -3.5141c -16.6905,-5.5845 -33.3810,-11.1691 -50.0715 -16.7537c -0.3919,1.1714 -0.7839,2.3428 -1.1758 3.5142c -0.9711,-0.3249 -1.9421,-0.6498 -2.9132 -0.9748c -1.3992,4.1817 -2.7983,8.3634 -4.1976 12.5451c 0.9711,0.3249 1.9422,0.6498 2.9133 0.9748c -2.0023,5.9843 -4.0046,11.9687 -6.0070 17.9530c -0.9711,-0.3249 -1.9422,-0.6498 -2.9132 -0.9748c -1.3992,4.1817 -2.7984,8.3634 -4.1976 12.5451ZM 472.2701,901.1707 c 0.9711,0.3249 1.9422,0.6498 2.9132 0.9748c -0.3919,1.1714 -0.7839,2.3428 -1.1758 3.5141c 16.6905,5.5846 33.3810,11.1692 50.0715 16.7537c 0.3919,-1.1714 0.7839,-2.3428 1.1758 -3.5141c 0.9711,0.3249 1.9421,0.6498 2.9132 0.9748c 1.3992,-4.1817 2.7983,-8.3634 4.1976 -12.5451c -0.9711,-0.3249 -1.9422,-0.6498 -2.9133 -0.9748c 2.0023,-5.9843 4.0046,-11.9687 6.0070 -17.9530c 0.9711,0.3249 1.9422,0.6498 2.9132 0.9748c 1.3992,-4.1817 2.7984,-8.3634 4.1976 -12.5451c -0.9711,-0.3249 -1.9422,-0.6498 -2.9133 -0.9748c 0.3920,-1.1714 0.7839,-2.3428 1.1758 -3.5141c -16.6905,-5.5846 -33.3810,-11.1691 -50.0715 -16.7537c -0.3919,1.1714 -0.7839,2.3428 -1.1758 3.5142c -0.9711,-0.3249 -1.9421,-0.6498 -2.9132 -0.9748c -1.3992,4.1817 -2.7983,8.3634 -4.1976 12.5451c 0.9711,0.3249 1.9422,0.6498 2.9133 0.9748c -2.0023,5.9843 -4.0047,11.9687 -6.0070 17.9530c -0.9711,-0.3249 -1.9422,-0.6498 -2.9132 -0.9748c -1.3992,4.1817 -2.7984,8.3634 -4.1976 12.5451ZM 541.1914,596.3403 c 0.0000,3.1311 2.5382,5.6693 5.6693 5.6693c 3.1311,-0.0000 5.6693,-2.5382 5.6693 -5.6693c 0.0000,-3.1310 -2.5382,-5.6693 -5.6693 -5.6693c -3.1310,-0.0000 -5.6693,2.5382 -5.6693 5.6693ZM 654.5772,596.3403 c 0.0000,3.1311 2.5382,5.6693 5.6693 5.6693c 3.1310,-0.0000 5.6693,-2.5382 5.6693 -5.6693c 0.0000,-3.1310 -2.5382,-5.6693 -5.6693 -5.6693c -3.1311,-0.0000 -5.6693,2.5382 -5.6693 5.6693ZM 664.5370,876.8307 c 1.3992,4.1817 2.7984,8.3634 4.1976 12.5451c 0.9711,-0.3249 1.9421,-0.6498 2.9132 -0.9748c 2.0023,5.9843 4.0046,11.9687 6.0070 17.9530c -0.9711,0.3249 -1.9422,0.6498 -2.9133 0.9748c 1.3992,4.1817 2.7984,8.3634 4.1976 12.5451c 0.9711,-0.3249 1.9422,-0.6498 2.9132 -0.9748c 0.3920,1.1714 0.7839,2.3428 1.1758 3.5141c 16.6905,-5.5845 33.3810,-11.1691 50.0715 -16.7537c -0.3920,-1.1714 -0.7839,-2.3428 -1.1758 -3.5141c 0.9711,-0.3249 1.9421,-0.6498 2.9132 -0.9748c -1.3992,-4.1817 -2.7983,-8.3634 -4.1976 -12.5451c -0.9711,0.3249 -1.9421,0.6498 -2.9132 0.9748c -2.0023,-5.9843 -4.0046,-11.9687 -6.0070 -17.9530c 0.9711,-0.3249 1.9422,-0.6498 2.9133 -0.9748c -1.3992,-4.1817 -2.7984,-8.3634 -4.1976 -12.5451c -0.9711,0.3249 -1.9422,0.6498 -2.9132 0.9748c -0.3920,-1.1714 -0.7839,-2.3428 -1.1758 -3.5142c -16.6905,5.5846 -33.3810,11.1691 -50.0715 16.7537c 0.3919,1.1714 0.7839,2.3428 1.1758 3.5141c -0.9711,0.3249 -1.9422,0.6498 -2.9133 0.9748ZM 675.6722,683.7946 c 1.3992,4.1817 2.7984,8.3634 4.1976 12.5451c 0.9711,-0.3249 1.9421,-0.6498 2.9132 -0.9748c 2.0023,5.9843 4.0046,11.9687 6.0070 17.9530c -0.9711,0.3249 -1.9422,0.6498 -2.9133 0.9748c 1.3992,4.1817 2.7984,8.3634 4.1976 12.5451c 0.9711,-0.3249 1.9422,-0.6498 2.9132 -0.9748c 0.3920,1.1714 0.7839,2.3428 1.1758 3.5141c 16.6905,-5.5845 33.3810,-11.1691 50.0715 -16.7537c -0.3920,-1.1714 -0.7839,-2.3428 -1.1758 -3.5142c 0.9711,-0.3249 1.9421,-0.6498 2.9132 -0.9748c -1.3992,-4.1817 -2.7983,-8.3634 -4.1976 -12.5451c -0.9711,0.3249 -1.9421,0.6498 -2.9132 0.9748c -2.0023,-5.9843 -4.0046,-11.9687 -6.0070 -17.9530c 0.9711,-0.3249 1.9422,-0.6498 2.9133 -0.9748c -1.3992,-4.1817 -2.7984,-8.3634 -4.1976 -12.5451c -0.9711,0.3249 -1.9422,0.6498 -2.9132 0.9748c -0.3920,-1.1714 -0.7839,-2.3428 -1.1758 -3.5142c -16.6905,5.5846 -33.3810,11.1692 -50.0715 16.7537c 0.3920,1.1714 0.7839,2.3428 1.1758 3.5141c -0.9711,0.3249 -1.9421,0.6499 -2.9132 0.9748ZM 698.4582,751.8946 c 1.3992,4.1817 2.7983,8.3634 4.1975 12.5451c 0.9711,-0.3249 1.9422,-0.6498 2.9132 -0.9748c 2.0023,5.9843 4.0047,11.9687 6.0070 17.9530c -0.9711,0.3249 -1.9421,0.6498 -2.9132 0.9748c 1.3992,4.1817 2.7983,8.3634 4.1975 12.5451c 0.9711,-0.3249 1.9422,-0.6498 2.9133 -0.9748c 0.3919,1.1714 0.7839,2.3428 1.1758 3.5141c 16.6905,-5.5846 33.3810,-11.1691 50.0715 -16.7537c -0.3919,-1.1714 -0.7839,-2.3428 -1.1758 -3.5141c 0.9711,-0.3249 1.9422,-0.6498 2.9132 -0.9748c -1.3992,-4.1817 -2.7983,-8.3634 -4.1975 -12.5451c -0.9711,0.3249 -1.9422,0.6498 -2.9132 0.9748c -2.0023,-5.9843 -4.0047,-11.9686 -6.0070 -17.9529c 0.9711,-0.3249 1.9421,-0.6498 2.9132 -0.9748c -1.3992,-4.1817 -2.7983,-8.3634 -4.1975 -12.5451c -0.9711,0.3249 -1.9422,0.6498 -2.9133 0.9748c -0.3919,-1.1714 -0.7839,-2.3428 -1.1758 -3.5141c -16.6905,5.5846 -33.3810,11.1691 -50.0715 16.7537c 0.3919,1.1714 0.7839,2.3428 1.1758 3.5141c -0.9711,0.3249 -1.9422,0.6498 -2.9132 0.9748ZM 721.2441,819.9947 c 1.3992,4.1817 2.7983,8.3634 4.1976 12.5451c 0.9711,-0.3249 1.9421,-0.6498 2.9132 -0.9748c 2.0023,5.9843 4.0046,11.9687 6.0070 17.9530c -0.9711,0.3249 -1.9422,0.6498 -2.9133 0.9748c 1.3992,4.1817 2.7984,8.3634 4.1976 12.5451c 0.9711,-0.3249 1.9421,-0.6498 2.9132 -0.9748c 0.3920,1.1714 0.7839,2.3428 1.1758 3.5142c 16.6905,-5.5846 33.3810,-11.1692 50.0715 -16.7537c -0.3919,-1.1714 -0.7839,-2.3428 -1.1758 -3.5142c 0.9711,-0.3249 1.9421,-0.6498 2.9132 -0.9748c -1.3992,-4.1817 -2.7984,-8.3634 -4.1976 -12.5451c -0.9711,0.3249 -1.9421,0.6498 -2.9132 0.9748c -2.0023,-5.9843 -4.0046,-11.9687 -6.0070 -17.9530c 0.9711,-0.3249 1.9422,-0.6498 2.9132 -0.9748c -1.3992,-4.1817 -2.7983,-8.3634 -4.1975 -12.5451c -0.9711,0.3249 -1.9422,0.6498 -2.9132 0.9748c -0.3920,-1.1714 -0.7839,-2.3428 -1.1758 -3.5142c -16.6905,5.5846 -33.3810,11.1692 -50.0715 16.7537c 0.3920,1.1714 0.7839,2.3428 1.1758 3.5142c -0.9711,0.3249 -1.9421,0.6498 -2.9132 0.9748ZM 737.7760,643.0875 c 1.3992,4.1817 2.7983,8.3634 4.1975 12.5451c 0.9711,-0.3249 1.9422,-0.6498 2.9133 -0.9748c 2.0023,5.9843 4.0046,11.9687 6.0069 17.9530c -0.9711,0.3249 -1.9421,0.6498 -2.9132 0.9748c 1.3992,4.1817 2.7984,8.3634 4.1976 12.5451c 0.9711,-0.3249 1.9421,-0.6498 2.9132 -0.9748c 0.3919,1.1714 0.7839,2.3428 1.1758 3.5142c 16.6905,-5.5846 33.3810,-11.1691 50.0715 -16.7537c -0.3919,-1.1714 -0.7839,-2.3428 -1.1758 -3.5141c 0.9711,-0.3249 1.9422,-0.6498 2.9133 -0.9748c -1.3992,-4.1817 -2.7984,-8.3634 -4.1976 -12.5451c -0.9711,0.3249 -1.9422,0.6498 -2.9132 0.9748c -2.0023,-5.9843 -4.0047,-11.9687 -6.0070 -17.9529c 0.9711,-0.3249 1.9422,-0.6498 2.9132 -0.9748c -1.3992,-4.1817 -2.7983,-8.3634 -4.1975 -12.5451c -0.9711,0.3249 -1.9422,0.6498 -2.9133 0.9748c -0.3919,-1.1714 -0.7839,-2.3428 -1.1758 -3.5141c -16.6905,5.5845 -33.3810,11.1691 -50.0715 16.7537c 0.3919,1.1714 0.7839,2.3428 1.1758 3.5141c -0.9711,0.3249 -1.9421,0.6498 -2.9132 0.9748ZM 744.0301,888.0948 c 1.3992,4.1817 2.7984,8.3634 4.1976 12.5451c 0.9711,-0.3249 1.9422,-0.6498 2.9132 -0.9748c 2.0023,5.9843 4.0047,11.9686 6.0070 17.9529c -0.9711,0.3249 -1.9421,0.6498 -2.9132 0.9748c 1.3992,4.1817 2.7983,8.3634 4.1975 12.5451c 0.9711,-0.3249 1.9422,-0.6498 2.9133 -0.9748c 0.3919,1.1714 0.7839,2.3428 1.1758 3.5141c 16.6905,-5.5846 33.3810,-11.1691 50.0715 -16.7537c -0.3919,-1.1714 -0.7839,-2.3428 -1.1758 -3.5141c 0.9711,-0.3249 1.9422,-0.6498 2.9132 -0.9748c -1.3992,-4.1817 -2.7983,-8.3634 -4.1975 -12.5451c -0.9711,0.3249 -1.9422,0.6498 -2.9133 0.9748c -2.0023,-5.9843 -4.0046,-11.9687 -6.0069 -17.9530c 0.9711,-0.3249 1.9421,-0.6498 2.9132 -0.9748c -1.3992,-4.1817 -2.7983,-8.3634 -4.1976 -12.5451c -0.9711,0.3250 -1.9421,0.6498 -2.9132 0.9748c -0.3919,-1.1714 -0.7839,-2.3428 -1.1758 -3.5141c -16.6905,5.5846 -33.3810,11.1691 -50.0715 16.7537c 0.3919,1.1714 0.7839,2.3428 1.1758 3.5141c -0.9711,0.3249 -1.9422,0.6498 -2.9133 0.9748ZM 760.5619,711.1876 c 1.3992,4.1817 2.7984,8.3634 4.1976 12.5451c 0.9711,-0.3249 1.9421,-0.6498 2.9132 -0.9748c 2.0023,5.9843 4.0046,11.9687 6.0070 17.9530c -0.9711,0.3249 -1.9422,0.6498 -2.9132 0.9748c 1.3992,4.1817 2.7983,8.3634 4.1975 12.5451c 0.9711,-0.3249 1.9422,-0.6498 2.9133 -0.9748c 0.3919,1.1714 0.7839,2.3428 1.1758 3.5141c 16.6905,-5.5845 33.3810,-11.1691 50.0715 -16.7537c -0.3920,-1.1714 -0.7839,-2.3428 -1.1758 -3.5142c 0.9711,-0.3249 1.9421,-0.6498 2.9132 -0.9748c -1.3992,-4.1817 -2.7983,-8.3634 -4.1975 -12.5451c -0.9711,0.3249 -1.9422,0.6498 -2.9133 0.9748c -2.0023,-5.9843 -4.0046,-11.9687 -6.0070 -17.9530c 0.9711,-0.3249 1.9422,-0.6498 2.9133 -0.9748c -1.3992,-4.1817 -2.7984,-8.3634 -4.1976 -12.5451c -0.9711,0.3249 -1.9421,0.6498 -2.9132 0.9748c -0.3919,-1.1714 -0.7839,-2.3428 -1.1758 -3.5142c -16.6905,5.5846 -33.3810,11.1692 -50.0715 16.7537c 0.3919,1.1714 0.7839,2.3428 1.1758 3.5142c -0.9711,0.3249 -1.9422,0.6498 -2.9133 0.9748ZM 773.5108,958.1609 c 0.0000,3.1311 2.5382,5.6693 5.6693 5.6693c 3.1310,-0.0000 5.6693,-2.5382 5.6693 -5.6693c 0.0000,-3.1310 -2.5382,-5.6693 -5.6693 -5.6693c -3.1311,-0.0000 -5.6693,2.5382 -5.6693 5.6693ZM 783.3479,779.2877 c 1.3992,4.1817 2.7983,8.3634 4.1975 12.5451c 0.9711,-0.3249 1.9422,-0.6498 2.9133 -0.9748c 2.0023,5.9843 4.0046,11.9687 6.0069 17.9530c -0.9711,0.3249 -1.9421,0.6498 -2.9132 0.9748c 1.3992,4.1817 2.7983,8.3634 4.1976 12.5451c 0.9711,-0.3249 1.9421,-0.6498 2.9132 -0.9748c 0.3919,1.1714 0.7839,2.3428 1.1758 3.5141c 16.6905,-5.5846 33.3810,-11.1691 50.0715 -16.7537c -0.3919,-1.1714 -0.7839,-2.3428 -1.1758 -3.5141c 0.9711,-0.3249 1.9422,-0.6498 2.9132 -0.9748c -1.3992,-4.1817 -2.7983,-8.3634 -4.1975 -12.5451c -0.9711,0.3249 -1.9422,0.6498 -2.9132 0.9747c -2.0023,-5.9843 -4.0047,-11.9686 -6.0070 -17.9529c 0.9711,-0.3249 1.9421,-0.6498 2.9132 -0.9748c -1.3992,-4.1817 -2.7983,-8.3634 -4.1975 -12.5451c -0.9711,0.3249 -1.9422,0.6498 -2.9133 0.9748c -0.3919,-1.1714 -0.7839,-2.3428 -1.1758 -3.5141c -16.6905,5.5846 -33.3810,11.1691 -50.0715 16.7537c 0.3919,1.1714 0.7839,2.3428 1.1758 3.5141c -0.9711,0.3249 -1.9422,0.6498 -2.9132 0.9748ZM 798.6805,598.7962 c 1.3992,4.1817 2.7984,8.3634 4.1976 12.5451c 0.9711,-0.3249 1.9421,-0.6498 2.9132 -0.9748c 2.0023,5.9843 4.0046,11.9687 6.0070 17.9530c -0.9711,0.3249 -1.9422,0.6498 -2.9132 0.9748c 1.3992,4.1817 2.7983,8.3634 4.1975 12.5451c 0.9711,-0.3249 1.9422,-0.6498 2.9132 -0.9748c 0.3920,1.1714 0.7839,2.3428 1.1758 3.5142c 16.6905,-5.5846 33.3810,-11.1691 50.0715 -16.7537c -0.3920,-1.1714 -0.7839,-2.3428 -1.1758 -3.5141c 0.9711,-0.3249 1.9421,-0.6498 2.9132 -0.9748c -1.3992,-4.1817 -2.7983,-8.3634 -4.1975 -12.5451c -0.9711,0.3249 -1.9422,0.6498 -2.9133 0.9748c -2.0023,-5.9843 -4.0046,-11.9687 -6.0070 -17.9530c 0.9711,-0.3249 1.9422,-0.6498 2.9133 -0.9748c -1.3992,-4.1817 -2.7984,-8.3634 -4.1976 -12.5451c -0.9711,0.3249 -1.9421,0.6498 -2.9132 0.9748c -0.3920,-1.1714 -0.7839,-2.3428 -1.1758 -3.5141c -16.6905,5.5845 -33.3810,11.1691 -50.0715 16.7537c 0.3919,1.1714 0.7839,2.3428 1.1758 3.5141c -0.9711,0.3249 -1.9422,0.6498 -2.9133 0.9748ZM 806.1339,847.3878 c 1.3992,4.1817 2.7984,8.3634 4.1976 12.5451c 0.9711,-0.3249 1.9421,-0.6498 2.9132 -0.9748c 2.0023,5.9843 4.0046,11.9687 6.0070 17.9530c -0.9711,0.3249 -1.9422,0.6498 -2.9133 0.9748c 1.3992,4.1817 2.7984,8.3634 4.1976 12.5451c 0.9711,-0.3249 1.9422,-0.6498 2.9132 -0.9748c 0.3920,1.1714 0.7839,2.3428 1.1758 3.5142c 16.6905,-5.5846 33.3810,-11.1692 50.0715 -16.7537c -0.3920,-1.1714 -0.7839,-2.3428 -1.1758 -3.5142c 0.9711,-0.3249 1.9421,-0.6498 2.9132 -0.9748c -1.3992,-4.1817 -2.7983,-8.3634 -4.1976 -12.5451c -0.9711,0.3249 -1.9421,0.6498 -2.9132 0.9748c -2.0023,-5.9843 -4.0046,-11.9687 -6.0070 -17.9530c 0.9711,-0.3249 1.9422,-0.6498 2.9133 -0.9748c -1.3992,-4.1817 -2.7984,-8.3634 -4.1976 -12.5451c -0.9711,0.3249 -1.9422,0.6498 -2.9132 0.9748c -0.3920,-1.1714 -0.7839,-2.3428 -1.1758 -3.5141c -16.6905,5.5845 -33.3810,11.1691 -50.0715 16.7537c 0.3920,1.1714 0.7839,2.3428 1.1758 3.5142c -0.9711,0.3249 -1.9421,0.6498 -2.9132 0.9748ZM 821.4665,666.8963 c 1.3992,4.1817 2.7983,8.3634 4.1975 12.5451c 0.9711,-0.3249 1.9422,-0.6498 2.9133 -0.9748c 2.0023,5.9843 4.0046,11.9687 6.0069 17.9530c -0.9711,0.3249 -1.9421,0.6498 -2.9132 0.9748c 1.3992,4.1817 2.7983,8.3634 4.1976 12.5451c 0.9711,-0.3249 1.9421,-0.6498 2.9132 -0.9748c 0.3919,1.1714 0.7839,2.3428 1.1758 3.5141c 16.6905,-5.5845 33.3810,-11.1691 50.0715 -16.7537c -0.3919,-1.1714 -0.7839,-2.3428 -1.1758 -3.5142c 0.9711,-0.3249 1.9422,-0.6498 2.9133 -0.9748c -1.3992,-4.1817 -2.7984,-8.3634 -4.1976 -12.5451c -0.9711,0.3249 -1.9422,0.6498 -2.9132 0.9748c -2.0023,-5.9843 -4.0047,-11.9687 -6.0070 -17.9530c 0.9711,-0.3249 1.9421,-0.6498 2.9132 -0.9748c -1.3992,-4.1817 -2.7983,-8.3634 -4.1975 -12.5451c -0.9711,0.3249 -1.9422,0.6498 -2.9133 0.9748c -0.3919,-1.1714 -0.7839,-2.3428 -1.1758 -3.5142c -16.6905,5.5846 -33.3810,11.1692 -50.0715 16.7537c 0.3919,1.1714 0.7839,2.3428 1.1758 3.5141c -0.9711,0.3249 -1.9422,0.6499 -2.9132 0.9748ZM 844.2524,734.9964 c 1.3992,4.1817 2.7984,8.3634 4.1976 12.5451c 0.9711,-0.3249 1.9421,-0.6498 2.9132 -0.9748c 2.0023,5.9843 4.0046,11.9687 6.0070 17.9530c -0.9711,0.3249 -1.9422,0.6498 -2.9133 0.9748c 1.3992,4.1817 2.7984,8.3634 4.1976 12.5451c 0.9711,-0.3249 1.9422,-0.6498 2.9132 -0.9747c 0.3920,1.1714 0.7839,2.3428 1.1758 3.5141c 16.6905,-5.5846 33.3810,-11.1691 50.0715 -16.7537c -0.3920,-1.1714 -0.7839,-2.3428 -1.1758 -3.5141c 0.9711,-0.3249 1.9421,-0.6498 2.9132 -0.9748c -1.3992,-4.1817 -2.7983,-8.3634 -4.1976 -12.5451c -0.9711,0.3249 -1.9421,0.6498 -2.9132 0.9748c -2.0023,-5.9843 -4.0046,-11.9686 -6.0070 -17.9529c 0.9711,-0.3249 1.9422,-0.6498 2.9133 -0.9748c -1.3992,-4.1817 -2.7984,-8.3634 -4.1976 -12.5451c -0.9711,0.3249 -1.9422,0.6498 -2.9132 0.9748c -0.3920,-1.1714 -0.7839,-2.3428 -1.1758 -3.5141c -16.6905,5.5846 -33.3810,11.1691 -50.0715 16.7537c 0.3919,1.1714 0.7839,2.3428 1.1758 3.5141c -0.9711,0.3249 -1.9422,0.6498 -2.9133 0.9748ZM 867.0384,803.0965 c 1.3992,4.1817 2.7983,8.3634 4.1975 12.5451c 0.9711,-0.3249 1.9422,-0.6498 2.9133 -0.9748c 2.0023,5.9843 4.0046,11.9687 6.0069 17.9530c -0.9711,0.3249 -1.9421,0.6498 -2.9132 0.9748c 1.3992,4.1817 2.7983,8.3634 4.1976 12.5451c 0.9711,-0.3249 1.9421,-0.6498 2.9132 -0.9748c 0.3919,1.1714 0.7839,2.3428 1.1758 3.5142c 16.6905,-5.5846 33.3810,-11.1692 50.0715 -16.7537c -0.3919,-1.1714 -0.7839,-2.3428 -1.1758 -3.5142c 0.9711,-0.3249 1.9422,-0.6498 2.9132 -0.9748c -1.3992,-4.1817 -2.7983,-8.3634 -4.1975 -12.5451c -0.9711,0.3249 -1.9422,0.6498 -2.9132 0.9748c -2.0023,-5.9843 -4.0047,-11.9687 -6.0070 -17.9530c 0.9711,-0.3249 1.9421,-0.6498 2.9132 -0.9748c -1.3992,-4.1817 -2.7983,-8.3634 -4.1975 -12.5451c -0.9711,0.3249 -1.9422,0.6498 -2.9133 0.9748c -0.3919,-1.1714 -0.7839,-2.3428 -1.1758 -3.5142c -16.6905,5.5846 -33.3810,11.1692 -50.0715 16.7537c 0.3919,1.1714 0.7839,2.3428 1.1758 3.5142c -0.9711,0.3249 -1.9422,0.6498 -2.9132 0.9748ZM 872.7769,593.9313 c 1.3992,4.1817 2.7983,8.3634 4.1975 12.5451c 0.9711,-0.3249 1.9422,-0.6498 2.9133 -0.9748c 2.0023,5.9843 4.0046,11.9687 6.0069 17.9530c -0.9711,0.3249 -1.9421,0.6498 -2.9132 0.9748c 1.3992,4.1817 2.7983,8.3634 4.1976 12.5451c 0.9711,-0.3249 1.9421,-0.6498 2.9132 -0.9748c 0.3919,1.1714 0.7839,2.3428 1.1758 3.5141c 16.6905,-5.5845 33.3810,-11.1691 50.0715 -16.7537c -0.3919,-1.1714 -0.7839,-2.3428 -1.1758 -3.5141c 0.9711,-0.3249 1.9422,-0.6498 2.9133 -0.9748c -1.3992,-4.1817 -2.7984,-8.3634 -4.1976 -12.5451c -0.9711,0.3249 -1.9422,0.6498 -2.9132 0.9748c -2.0023,-5.9843 -4.0046,-11.9687 -6.0070 -17.9530c 0.9711,-0.3249 1.9421,-0.6498 2.9132 -0.9748c -1.3992,-4.1817 -2.7983,-8.3634 -4.1975 -12.5451c -0.9711,0.3249 -1.9422,0.6498 -2.9133 0.9748c -0.3919,-1.1714 -0.7839,-2.3428 -1.1758 -3.5142c -16.6905,5.5846 -33.3810,11.1691 -50.0715 16.7537c 0.3919,1.1714 0.7839,2.3428 1.1758 3.5141c -0.9711,0.3249 -1.9422,0.6499 -2.9132 0.9748ZM 895.5629,662.0314 c 1.3992,4.1817 2.7984,8.3634 4.1976 12.5451c 0.9711,-0.3249 1.9421,-0.6498 2.9132 -0.9748c 2.0023,5.9843 4.0046,11.9687 6.0070 17.9530c -0.9711,0.3249 -1.9422,0.6498 -2.9132 0.9748c 1.3992,4.1817 2.7983,8.3634 4.1975 12.5451c 0.9711,-0.3249 1.9422,-0.6499 2.9132 -0.9748c 0.3920,1.1714 0.7839,2.3428 1.1758 3.5141c 16.6905,-5.5846 33.3810,-11.1691 50.0715 -16.7537c -0.3920,-1.1714 -0.7839,-2.3428 -1.1758 -3.5141c 0.9711,-0.3249 1.9421,-0.6498 2.9132 -0.9748c -1.3992,-4.1817 -2.7983,-8.3634 -4.1976 -12.5451c -0.9711,0.3249 -1.9421,0.6498 -2.9132 0.9748c -2.0023,-5.9843 -4.0046,-11.9686 -6.0070 -17.9529c 0.9711,-0.3249 1.9422,-0.6498 2.9133 -0.9748c -1.3992,-4.1817 -2.7984,-8.3634 -4.1976 -12.5451c -0.9711,0.3249 -1.9421,0.6498 -2.9132 0.9748c -0.3920,-1.1714 -0.7839,-2.3428 -1.1758 -3.5141c -16.6905,5.5845 -33.3810,11.1691 -50.0715 16.7537c 0.3919,1.1714 0.7839,2.3428 1.1758 3.5141c -0.9711,0.3249 -1.9422,0.6498 -2.9133 0.9748ZM 918.3489,730.1315 c 1.3992,4.1817 2.7983,8.3634 4.1975 12.5451c 0.9711,-0.3249 1.9422,-0.6498 2.9133 -0.9748c 2.0023,5.9843 4.0046,11.9687 6.0069 17.9530c -0.9711,0.3249 -1.9421,0.6498 -2.9132 0.9748c 1.3992,4.1817 2.7983,8.3634 4.1976 12.5451c 0.9711,-0.3249 1.9421,-0.6498 2.9132 -0.9748c 0.3919,1.1714 0.7839,2.3428 1.1758 3.5141c 16.6905,-5.5845 33.3810,-11.1691 50.0715 -16.7537c -0.3919,-1.1714 -0.7839,-2.3428 -1.1758 -3.5142c 0.9711,-0.3249 1.9422,-0.6498 2.9133 -0.9748c -1.3992,-4.1817 -2.7984,-8.3634 -4.1976 -12.5451c -0.9711,0.3249 -1.9422,0.6498 -2.9132 0.9748c -2.0023,-5.9843 -4.0047,-11.9687 -6.0070 -17.9530c 0.9711,-0.3249 1.9421,-0.6498 2.9132 -0.9748c -1.3992,-4.1817 -2.7983,-8.3634 -4.1975 -12.5451c -0.9711,0.3249 -1.9422,0.6498 -2.9133 0.9748c -0.3919,-1.1714 -0.7839,-2.3428 -1.1758 -3.5142c -16.6905,5.5846 -33.3810,11.1692 -50.0715 16.7537c 0.3919,1.1714 0.7839,2.3428 1.1758 3.5142c -0.9711,0.3249 -1.9422,0.6498 -2.9132 0.9748ZM 941.1348,798.2316 c 1.3992,4.1817 2.7983,8.3634 4.1976 12.5451c 0.9711,-0.3249 1.9421,-0.6498 2.9132 -0.9748c 2.0023,5.9843 4.0046,11.9686 6.0070 17.9529c -0.9711,0.3249 -1.9422,0.6498 -2.9133 0.9748c 1.3992,4.1817 2.7984,8.3634 4.1976 12.5451c 0.9711,-0.3249 1.9422,-0.6498 2.9132 -0.9748c 0.3920,1.1714 0.7839,2.3428 1.1758 3.5141c 16.6905,-5.5846 33.3810,-11.1691 50.0715 -16.7537c -0.3920,-1.1714 -0.7839,-2.3428 -1.1758 -3.5141c 0.9711,-0.3249 1.9421,-0.6498 2.9132 -0.9748c -1.3992,-4.1817 -2.7983,-8.3634 -4.1976 -12.5451c -0.9711,0.3249 -1.9421,0.6498 -2.9132 0.9748c -2.0023,-5.9843 -4.0046,-11.9687 -6.0070 -17.9530c 0.9711,-0.3249 1.9422,-0.6498 2.9133 -0.9748c -1.3992,-4.1817 -2.7984,-8.3634 -4.1976 -12.5451c -0.9711,0.3249 -1.9422,0.6498 -2.9132 0.9748c -0.3920,-1.1714 -0.7839,-2.3428 -1.1758 -3.5141c -16.6905,5.5846 -33.3810,11.1691 -50.0715 16.7537c 0.3919,1.1714 0.7839,2.3428 1.1758 3.5141c -0.9711,0.3249 -1.9422,0.6498 -2.9133 0.9748ZM 944.4748,581.8980 c 1.3992,4.1817 2.7983,8.3634 4.1975 12.5451c 0.9711,-0.3249 1.9422,-0.6498 2.9133 -0.9748c 2.0023,5.9843 4.0046,11.9687 6.0070 17.9530c -0.9711,0.3249 -1.9422,0.6498 -2.9133 0.9748c 1.3992,4.1817 2.7984,8.3634 4.1976 12.5451c 0.9711,-0.3249 1.9421,-0.6498 2.9132 -0.9748c 0.3919,1.1714 0.7839,2.3428 1.1758 3.5142c 16.6905,-5.5846 33.3810,-11.1691 50.0715 -16.7537c -0.3919,-1.1714 -0.7839,-2.3428 -1.1758 -3.5141c 0.9711,-0.3249 1.9422,-0.6498 2.9133 -0.9748c -1.3992,-4.1817 -2.7984,-8.3634 -4.1976 -12.5451c -0.9711,0.3249 -1.9421,0.6498 -2.9132 0.9748c -2.0023,-5.9843 -4.0046,-11.9687 -6.0070 -17.9530c 0.9711,-0.3249 1.9422,-0.6498 2.9132 -0.9748c -1.3992,-4.1817 -2.7983,-8.3634 -4.1975 -12.5451c -0.9711,0.3249 -1.9422,0.6498 -2.9133 0.9748c -0.3919,-1.1714 -0.7839,-2.3428 -1.1758 -3.5141c -16.6905,5.5845 -33.3810,11.1691 -50.0715 16.7537c 0.3920,1.1714 0.7839,2.3428 1.1758 3.5142c -0.9711,0.3249 -1.9421,0.6498 -2.9132 0.9748ZM 967.2607,649.9981 c 1.3992,4.1817 2.7984,8.3634 4.1976 12.5451c 0.9711,-0.3249 1.9422,-0.6498 2.9132 -0.9748c 2.0023,5.9843 4.0046,11.9687 6.0070 17.9530c -0.9711,0.3249 -1.9422,0.6498 -2.9132 0.9748c 1.3992,4.1817 2.7983,8.3634 4.1975 12.5451c 0.9711,-0.3249 1.9422,-0.6498 2.9133 -0.9748c 0.3919,1.1714 0.7839,2.3428 1.1758 3.5141c 16.6905,-5.5845 33.3810,-11.1691 50.0715 -16.7537c -0.3920,-1.1714 -0.7839,-2.3428 -1.1758 -3.5142c 0.9711,-0.3249 1.9421,-0.6498 2.9132 -0.9748c -1.3992,-4.1817 -2.7983,-8.3634 -4.1975 -12.5451c -0.9711,0.3249 -1.9422,0.6498 -2.9133 0.9748c -2.0023,-5.9843 -4.0046,-11.9687 -6.0069 -17.9530c 0.9711,-0.3249 1.9421,-0.6498 2.9132 -0.9748c -1.3992,-4.1817 -2.7984,-8.3634 -4.1976 -12.5451c -0.9711,0.3249 -1.9421,0.6498 -2.9132 0.9748c -0.3919,-1.1714 -0.7839,-2.3428 -1.1758 -3.5142c -16.6905,5.5846 -33.3810,11.1691 -50.0715 16.7537c 0.3919,1.1714 0.7839,2.3428 1.1758 3.5141c -0.9711,0.3249 -1.9422,0.6498 -2.9133 0.9748ZM 990.0467,718.0982 c 1.3992,4.1817 2.7983,8.3634 4.1975 12.5451c 0.9711,-0.3249 1.9422,-0.6498 2.9133 -0.9748c 2.0023,5.9843 4.0046,11.9687 6.0070 17.9530c -0.9711,0.3249 -1.9422,0.6498 -2.9133 0.9748c 1.3992,4.1817 2.7983,8.3634 4.1976 12.5451c 0.9711,-0.3249 1.9421,-0.6498 2.9132 -0.9748c 0.3919,1.1714 0.7839,2.3428 1.1758 3.5142c 16.6905,-5.5846 33.3810,-11.1691 50.0715 -16.7537c -0.3919,-1.1714 -0.7839,-2.3428 -1.1758 -3.5141c 0.9711,-0.3249 1.9422,-0.6498 2.9133 -0.9748c -1.3992,-4.1817 -2.7984,-8.3634 -4.1976 -12.5451c -0.9711,0.3249 -1.9421,0.6498 -2.9132 0.9748c -2.0023,-5.9843 -4.0046,-11.9687 -6.0070 -17.9529c 0.9711,-0.3249 1.9422,-0.6498 2.9132 -0.9748c -1.3992,-4.1817 -2.7983,-8.3634 -4.1975 -12.5451c -0.9711,0.3249 -1.9422,0.6498 -2.9133 0.9748c -0.3919,-1.1714 -0.7839,-2.3428 -1.1758 -3.5141c -16.6905,5.5846 -33.3810,11.1691 -50.0715 16.7537c 0.3920,1.1714 0.7839,2.3428 1.1758 3.5141c -0.9711,0.3249 -1.9422,0.6498 -2.9132 0.9748ZM 1012.8327,786.1983 c 1.3992,4.1817 2.7984,8.3634 4.1976 12.5451c 0.9711,-0.3249 1.9421,-0.6498 2.9132 -0.9748c 2.0023,5.9843 4.0046,11.9687 6.0070 17.9530c -0.9711,0.3249 -1.9422,0.6498 -2.9132 0.9748c 1.3992,4.1817 2.7983,8.3634 4.1975 12.5451c 0.9711,-0.3249 1.9422,-0.6498 2.9132 -0.9748c 0.3920,1.1714 0.7839,2.3428 1.1758 3.5142c 16.6905,-5.5846 33.3810,-11.1692 50.0715 -16.7537c -0.3920,-1.1714 -0.7839,-2.3428 -1.1758 -3.5142c 0.9711,-0.3249 1.9421,-0.6498 2.9132 -0.9748c -1.3992,-4.1817 -2.7983,-8.3634 -4.1975 -12.5451c -0.9711,0.3249 -1.9422,0.6498 -2.9133 0.9748c -2.0023,-5.9843 -4.0046,-11.9687 -6.0070 -17.9530c 0.9711,-0.3249 1.9422,-0.6498 2.9133 -0.9748c -1.3992,-4.1817 -2.7984,-8.3634 -4.1976 -12.5451c -0.9711,0.3249 -1.9421,0.6498 -2.9132 0.9748c -0.3919,-1.1714 -0.7839,-2.3428 -1.1758 -3.5142c -16.6905,5.5846 -33.3810,11.1692 -50.0715 16.7537c 0.3919,1.1714 0.7839,2.3428 1.1758 3.5142c -0.9711,0.3249 -1.9422,0.6498 -2.9133 0.9748ZM 1013.7742,562.6962 c 1.3992,4.1817 2.7983,8.3634 4.1975 12.5451c 0.9711,-0.3249 1.9422,-0.6498 2.9133 -0.9748c 2.0023,5.9843 4.0046,11.9687 6.0069 17.9530c -0.9711,0.3249 -1.9421,0.6498 -2.9132 0.9748c 1.3992,4.1817 2.7983,8.3634 4.1975 12.5451c 0.9711,-0.3249 1.9422,-0.6498 2.9133 -0.9748c 0.3919,1.1714 0.7839,2.3428 1.1758 3.5142c 16.6905,-5.5846 33.3810,-11.1691 50.0715 -16.7537c -0.3919,-1.1714 -0.7839,-2.3428 -1.1758 -3.5141c 0.9711,-0.3249 1.9422,-0.6498 2.9133 -0.9748c -1.3992,-4.1817 -2.7984,-8.3634 -4.1976 -12.5451c -0.9711,0.3249 -1.9422,0.6498 -2.9132 0.9748c -2.0023,-5.9843 -4.0047,-11.9687 -6.0070 -17.9529c 0.9711,-0.3249 1.9421,-0.6498 2.9132 -0.9748c -1.3992,-4.1817 -2.7983,-8.3634 -4.1975 -12.5451c -0.9711,0.3249 -1.9422,0.6498 -2.9133 0.9748c -0.3919,-1.1714 -0.7839,-2.3428 -1.1758 -3.5141c -16.6905,5.5845 -33.3810,11.1691 -50.0715 16.7537c 0.3919,1.1714 0.7839,2.3428 1.1758 3.5141c -0.9711,0.3249 -1.9422,0.6498 -2.9132 0.9748ZM 1036.5601,630.7964 c 1.3992,4.1817 2.7983,8.3634 4.1976 12.5451c 0.9711,-0.3249 1.9421,-0.6498 2.9132 -0.9748c 2.0023,5.9843 4.0046,11.9687 6.0070 17.9530c -0.9711,0.3249 -1.9422,0.6498 -2.9133 0.9748c 1.3992,4.1817 2.7984,8.3634 4.1976 12.5451c 0.9711,-0.3249 1.9422,-0.6498 2.9132 -0.9748c 0.3920,1.1714 0.7839,2.3428 1.1758 3.5141c 16.6905,-5.5845 33.3810,-11.1691 50.0715 -16.7537c -0.3920,-1.1714 -0.7839,-2.3428 -1.1758 -3.5142c 0.9711,-0.3249 1.9421,-0.6498 2.9132 -0.9748c -1.3992,-4.1817 -2.7983,-8.3634 -4.1976 -12.5451c -0.9711,0.3249 -1.9421,0.6498 -2.9132 0.9748c -2.0023,-5.9843 -4.0046,-11.9687 -6.0070 -17.9530c 0.9711,-0.3249 1.9422,-0.6498 2.9133 -0.9748c -1.3992,-4.1817 -2.7984,-8.3634 -4.1976 -12.5451c -0.9711,0.3249 -1.9422,0.6498 -2.9132 0.9748c -0.3920,-1.1714 -0.7839,-2.3428 -1.1758 -3.5142c -16.6905,5.5846 -33.3810,11.1692 -50.0715 16.7537c 0.3919,1.1714 0.7839,2.3428 1.1758 3.5142c -0.9711,0.3249 -1.9421,0.6498 -2.9132 0.9748ZM 1059.3461,698.8964 c 1.3992,4.1817 2.7983,8.3634 4.1975 12.5451c 0.9711,-0.3249 1.9422,-0.6498 2.9132 -0.9748c 2.0023,5.9843 4.0047,11.9687 6.0070 17.9530c -0.9711,0.3249 -1.9421,0.6498 -2.9132 0.9748c 1.3992,4.1817 2.7983,8.3634 4.1975 12.5451c 0.9711,-0.3249 1.9422,-0.6498 2.9133 -0.9748c 0.3919,1.1714 0.7839,2.3428 1.1758 3.5141c 16.6905,-5.5846 33.3810,-11.1691 50.0715 -16.7537c -0.3919,-1.1714 -0.7839,-2.3428 -1.1758 -3.5141c 0.9711,-0.3249 1.9422,-0.6498 2.9132 -0.9748c -1.3992,-4.1817 -2.7983,-8.3634 -4.1975 -12.5451c -0.9711,0.3249 -1.9422,0.6498 -2.9133 0.9748c -2.0023,-5.9843 -4.0046,-11.9687 -6.0069 -17.9530c 0.9711,-0.3249 1.9421,-0.6498 2.9132 -0.9748c -1.3992,-4.1817 -2.7983,-8.3634 -4.1975 -12.5451c -0.9711,0.3249 -1.9422,0.6498 -2.9133 0.9748c -0.3919,-1.1714 -0.7839,-2.3428 -1.1758 -3.5141c -16.6905,5.5846 -33.3810,11.1691 -50.0715 16.7537c 0.3919,1.1714 0.7839,2.3428 1.1758 3.5141c -0.9711,0.3249 -1.9422,0.6498 -2.9132 0.9748ZM 1081.8188,520.7497 c 0.0000,3.1311 2.5382,5.6693 5.6693 5.6693c 3.1311,-0.0000 5.6693,-2.5382 5.6693 -5.6693c 0.0000,-3.1310 -2.5382,-5.6693 -5.6693 -5.6693c -3.1310,-0.0000 -5.6693,2.5382 -5.6693 5.6693ZM 1082.1321,766.9965 c 1.3992,4.1817 2.7983,8.3634 4.1975 12.5451c 0.9711,-0.3249 1.9422,-0.6498 2.9133 -0.9748c 2.0023,5.9843 4.0046,11.9687 6.0070 17.9530c -0.9711,0.3249 -1.9422,0.6498 -2.9133 0.9748c 1.3992,4.1817 2.7984,8.3634 4.1976 12.5451c 0.9711,-0.3249 1.9422,-0.6498 2.9132 -0.9748c 0.3920,1.1714 0.7839,2.3428 1.1758 3.5142c 16.6905,-5.5846 33.3810,-11.1692 50.0715 -16.7537c -0.3919,-1.1714 -0.7839,-2.3428 -1.1758 -3.5142c 0.9711,-0.3249 1.9421,-0.6498 2.9132 -0.9748c -1.3992,-4.1817 -2.7984,-8.3634 -4.1976 -12.5451c -0.9711,0.3249 -1.9421,0.6498 -2.9132 0.9748c -2.0023,-5.9843 -4.0046,-11.9687 -6.0070 -17.9530c 0.9711,-0.3249 1.9422,-0.6498 2.9133 -0.9748c -1.3992,-4.1817 -2.7984,-8.3634 -4.1976 -12.5451c -0.9711,0.3249 -1.9422,0.6498 -2.9132 0.9748c -0.3920,-1.1714 -0.7839,-2.3428 -1.1758 -3.5141c -16.6905,5.5845 -33.3810,11.1691 -50.0715 16.7537c 0.3920,1.1714 0.7839,2.3428 1.1758 3.5142c -0.9711,0.3249 -1.9421,0.6498 -2.9132 0.9748ZM 1177.3082,798.5785 c 0.0000,3.1310 2.5382,5.6693 5.6693 5.6693c 3.1311,-0.0000 5.6693,-2.5382 5.6693 -5.6693c 0.0000,-3.1311 -2.5382,-5.6693 -5.6693 -5.6693c -3.1310,-0.0000 -5.6693,2.5382 -5.6693 5.6693Z"/></g><g stroke-linejoin="miter" stroke-opacity="1.0" fill-opacity="0.5" stroke="rgb(0,0,0)" stroke-width="0.37795275590551186" fill="rgb(255,0,0)" stroke-linecap="butt" stroke-miterlimit="10.0"><path d="M 537.4119,292.3344 c 0.0016,-12.9099 3.6924,-24.9414 10.0743 -35.1128c 1.4990,-0.0523 2.9980,-0.1047 4.4970 -0.1570c -6.3614,9.2858 -10.2801,20.3768 -10.8299 32.3468c -1.2471,0.9744 -2.4942,1.9487 -3.7413 2.9231ZM 537.5660,296.8771 c 1.1818,-0.9233 2.3636,-1.8466 3.5453 -2.7699c 0.1608,5.7431 1.0967,11.2923 2.7069 16.5468c 9.5583,-6.9445 19.1166,-13.8890 28.6749 -20.8336c 2.6889,-0.8737 5.3778,-1.7473 8.0667 -2.6210c 1.8335,-0.5957 3.6671,-1.1915 5.5006 -1.7873c 0.0000,1.7655 0.0000,3.5310 0.0000 5.2965c 0.0000,2.8439 0.0000,5.6878 0.0000 8.5317c -0.5919,-0.1923 -1.1838,-0.3847 -1.7757 -0.5770c -0.5840,-1.7973 -1.1679,-3.5945 -1.7519 -5.3917c -4.8841,3.5485 -9.7683,7.0971 -14.6524 10.6456c 4.9124,-0.0000 9.8249,-0.0000 14.7373 -0.0000c 1.1476,0.3729 2.2951,0.7457 3.4427 1.1186c 0.0000,2.5249 0.0000,5.0497 0.0000 7.5746c -13.8690,-0.0000 -27.7380,-0.0000 -41.6070 -0.0000c 1.7148,4.9974 4.0456,9.7087 6.9018 14.0431c -0.4361,1.5208 -0.8721,3.0415 -1.3082 4.5623c -7.1105,-9.7663 -11.6123,-21.5539 -12.4811 -34.3386ZM 550.0330,253.4559 c 7.2452,-9.9588 17.2023,-17.8176 28.7862 -22.4915c 1.2426,0.8381 2.4852,1.6763 3.7278 2.5144c -5.3294,1.9026 -10.3245,4.5086 -14.8737 7.7062c 9.5551,6.9422 19.1102,13.8844 28.6652 20.8265c 1.6618,2.2873 3.3237,4.5746 4.9855 6.8619c 1.1332,1.5597 2.2664,3.1194 3.3996 4.6791c -1.6791,0.5456 -3.3581,1.0911 -5.0372 1.6367c -2.7047,0.8788 -5.4094,1.7576 -8.1141 2.6364c 0.0000,-0.6224 0.0000,-1.2448 0.0000 -1.8671c 1.5288,-1.1108 3.0577,-2.2215 4.5865 -3.3323c -4.8841,-3.5485 -9.7683,-7.0970 -14.6524 -10.6456c 1.5180,4.6720 3.0360,9.3440 4.5541 14.0160c 0.0000,1.2066 0.0000,2.4133 0.0000 3.6199c -2.4013,0.7802 -4.8026,1.5604 -7.2039 2.3407c -4.2843,-13.1857 -8.5686,-26.3714 -12.8529 -39.5571c -4.1795,3.1485 -7.9511,6.8096 -11.2212 10.8899c -1.5832,0.0553 -3.1663,0.1106 -4.7495 0.1659ZM 552.8438,334.7932 c 0.4130,-1.4402 0.8259,-2.8804 1.2389 -4.3205c 7.0206,9.0913 16.4913,16.1939 27.4231 20.3184c 0.5415,1.4878 1.0830,2.9756 1.6245 4.4634c -11.9448,-3.8739 -22.4002,-11.0543 -30.2865 -20.4613ZM 583.0880,229.4115 c 6.4443,-2.0948 13.3227,-3.2271 20.4656 -3.2271c 5.5379,-0.0000 10.9169,0.6806 16.0578 1.9627c 0.5125,1.4080 1.0250,2.8161 1.5374 4.2241c -5.5808,-1.6352 -11.4856,-2.5123 -17.5952 -2.5123c -5.7210,-0.0000 -11.2624,0.7691 -16.5265 2.2095c -1.3130,-0.8857 -2.6261,-1.7713 -3.9391 -2.6570ZM 585.9584,352.2811 c 5.2654,1.5427 10.8192,2.4107 16.5613 2.5039c -3.6492,-11.2310 -7.2983,-22.4619 -10.9475 -33.6929c 0.0000,-2.8273 0.0000,-5.6545 0.0000 -8.4818c 0.0000,-1.9279 0.0000,-3.8558 0.0000 -5.7837c 1.6791,0.5456 3.3581,1.0911 5.0372 1.6367c 2.7047,0.8788 5.4094,1.7576 8.1141 2.6364c -0.3658,0.5035 -0.7316,1.0070 -1.0975 1.5105c -1.8897,-0.0000 -3.7795,-0.0000 -5.6692 -0.0000c 1.8656,5.7416 3.7311,11.4833 5.5967 17.2249c 1.5180,-4.6720 3.0360,-9.3440 4.5541 -14.0160c 0.7092,-0.9762 1.4185,-1.9524 2.1277 -2.9286c 2.4013,0.7802 4.8026,1.5604 7.2039 2.3407c -4.2839,13.1846 -8.5678,26.3691 -12.8518 39.5537c 5.3550,-0.0869 10.5463,-0.8476 15.4926 -2.2011c 1.3130,0.8857 2.6261,1.7713 3.9391 2.6570c -6.4443,2.0948 -13.3227,3.2271 -20.4656 3.2271c -5.5379,-0.0000 -10.9169,-0.6806 -16.0578 -1.9627c -0.5125,-1.4080 -1.0250,-2.8161 -1.5374 -4.2241ZM 591.5722,283.6212 c 2.5586,-0.8313 5.1172,-1.6627 7.6758 -2.4940c -2.5586,1.8589 -5.1172,3.7179 -7.6758 5.5768c 0.0000,-1.0276 0.0000,-2.0552 -0.0000 -3.0828ZM 591.5722,292.9603 c 0.9773,3.0078 1.9546,6.0156 2.9319 9.0234c -0.9773,-0.3175 -1.9546,-0.6351 -2.9319 -0.9526c 0.0000,-2.6903 0.0000,-5.3805 -0.0000 -8.0708ZM 600.4543,303.9171 c 3.1626,-0.0000 6.3252,-0.0000 9.4878 -0.0000c -0.6040,0.8313 -1.2080,1.6627 -1.8120 2.4940c -2.5586,-0.8313 -5.1172,-1.6627 -7.6758 -2.4940ZM 605.1982,279.1938 c 0.9773,-0.3175 1.9546,-0.6351 2.9319 -0.9526c 1.5813,2.1765 3.1626,4.3529 4.7439 6.5294c -2.5586,-1.8589 -5.1172,-3.7179 -7.6758 -5.5768ZM 605.7832,265.6337 c 11.2169,-8.1496 22.4338,-16.2991 33.6507 -24.4487c -4.2517,-2.9885 -8.8929,-5.4602 -13.8325 -7.3239c -0.5415,-1.4878 -1.0830,-2.9756 -1.6245 -4.4634c 11.9448,3.8739 22.4002,11.0543 30.2865 20.4613c -0.4130,1.4402 -0.8259,2.8803 -1.2389 4.3205c -3.4279,-4.4390 -7.4400,-8.4038 -11.9210 -11.7794c -3.6495,11.2321 -7.2991,22.4642 -10.9486 33.6963c -1.6618,2.2873 -3.3237,4.5746 -4.9855 6.8619c -1.1332,1.5597 -2.2664,3.1194 -3.3996 4.6791c -1.0377,-1.4283 -2.0754,-2.8566 -3.1132 -4.2849c -1.6716,-2.3008 -3.3432,-4.6015 -5.0148 -6.9023c 0.5919,-0.1923 1.1838,-0.3846 1.7757 -0.5770c 1.5288,1.1108 3.0577,2.2215 4.5865 3.3323c 1.8656,-5.7416 3.7311,-11.4833 5.5967 -17.2249c -3.9742,2.8874 -7.9485,5.7749 -11.9227 8.6623c -1.1476,0.3729 -2.2952,0.7457 -3.4428 1.1186c -1.4841,-2.0426 -2.9681,-4.0853 -4.4522 -6.1279ZM 613.6195,298.8556 c 0.9773,-3.0078 1.9546,-6.0156 2.9319 -9.0234c 0.6040,0.8313 1.2080,1.6627 1.8120 2.4940c -1.5813,2.1765 -3.1626,4.3529 -4.7439 6.5294ZM 613.6419,308.2020 c 1.0377,-1.4283 2.0754,-2.8566 3.1132 -4.2849c 1.6716,-2.3008 3.3432,-4.6015 5.0148 -6.9023c 0.3658,0.5035 0.7317,1.0070 1.0975 1.5105c -0.5840,1.7973 -1.1679,3.5945 -1.7519 5.3917c 6.0371,-0.0000 12.0742,-0.0000 18.1113 -0.0000c -3.9742,-2.8874 -7.9485,-5.7749 -11.9227 -8.6623c -0.7092,-0.9762 -1.4185,-1.9524 -2.1277 -2.9286c 1.4841,-2.0427 2.9682,-4.0853 4.4522 -6.1280c 11.2201,8.1519 22.4403,16.3038 33.6604 24.4557c 1.5040,-4.9079 2.4197,-10.0729 2.6650 -15.4130c 1.2471,-0.9744 2.4942,-1.9487 3.7413 -2.9231c 0.0000,0.0028 0.0000,0.0055 0.0000 0.0083c 0.0000,12.8965 -3.6910,24.9309 -10.0743 35.1045c -1.4990,0.0523 -2.9980,0.1047 -4.4970 0.1570c 3.1437,-4.5889 5.6909,-9.6186 7.5297 -14.9774c -11.8149,-0.0000 -23.6297,-0.0000 -35.4446 -0.0000c -2.6889,-0.8737 -5.3778,-1.7474 -8.0667 -2.6210c -1.8335,-0.5958 -3.6671,-1.1915 -5.5006 -1.7873ZM 624.5602,351.1734 c 11.0095,-3.9304 20.5929,-10.8627 27.7645 -19.8112c 1.5832,-0.0553 3.1663,-0.1106 4.7495 -0.1659c -7.2452,9.9588 -17.2023,17.8176 -28.7862 22.4915c -1.2426,-0.8381 -2.4852,-1.6763 -3.7278 -2.5144ZM 655.7519,257.9990 c 0.4361,-1.5208 0.8721,-3.0415 1.3082 -4.5623c 7.1105,9.7663 11.6123,21.5539 12.4811 34.3386c -1.1818,0.9233 -2.3636,1.8466 -3.5453 2.7699c -0.3360,-12.0025 -4.0577,-23.1583 -10.2440 -32.5462ZM 3.9685,305.7349 c -0.0000,6.5661 3.9756,12.7306 10.4104 15.2501c 135.8590,53.1941 271.7179,106.3883 407.5769 159.5824c 1.9027,0.7450 3.9279,1.1273 5.9712 1.1273c 58.5422,-0.0000 117.0844,-0.0000 175.6266 0.0000c 58.5422,-0.0000 117.0844,-0.0000 175.6266 0.0000c 2.0433,-0.0000 4.0686,-0.3823 5.9712 -1.1273c 135.8590,-53.1941 271.7179,-106.3883 407.5769 -159.5824c 6.4348,-2.5195 10.4104,-8.6840 10.4104 -15.2501c 0.0000,-1.7243 -0.2742,-3.4764 -0.8500 -5.1974c -31.8298,-95.1293 -63.6596,-190.2586 -95.4894 -285.3878c -2.2347,-6.6788 -8.4889,-11.1811 -15.5316 -11.1811c -80.7332,-0.0000 -161.4666,-0.0000 -242.1998 0.0000c -3.6792,-0.0000 -7.2513,1.2388 -10.1405 3.5169c -64.7386,51.0441 -146.5341,81.5225 -235.3737 81.5225c -88.8396,-0.0000 -170.6351,-30.4784 -235.3737 -81.5225c -2.8892,-2.2780 -6.4613,-3.5169 -10.1405 -3.5169c -80.7332,-0.0000 -161.4666,-0.0000 -242.1998 0.0000c -7.0427,-0.0000 -13.2969,4.5024 -15.5316 11.1811c -31.8298,95.1293 -63.6596,190.2586 -95.4894 285.3878c -0.5758,1.7210 -0.8500,3.4730 -0.8500 5.1974ZM 18.4603,301.9548 c 0.0000,-3.1311 2.5382,-5.6693 5.6693 -5.6693c 3.1310,-0.0000 5.6693,2.5382 5.6693 5.6693c 0.0000,3.1310 -2.5382,5.6693 -5.6693 5.6693c -3.1311,-0.0000 -5.6693,-2.5382 -5.6693 -5.6693ZM 38.8795,306.0589 c 0.0000,-0.3976 0.0632,-0.8019 0.1963 -1.1997c 7.5948,-22.6984 15.1895,-45.3968 22.7843 -68.0951c 0.0005,-0.0017 0.0011,-0.0033 0.0016 -0.0050c 0.2878,-0.8602 0.5757,-1.7204 0.8635 -2.5806c 7.3071,-21.8387 14.6143,-43.6774 21.9214 -65.5162c 0.0004,-0.0011 0.0007,-0.0022 0.0011 -0.0033c 0.2878,-0.8602 0.5756,-1.7204 0.8635 -2.5806c 7.3075,-21.8398 14.6150,-43.6797 21.9225 -65.5195c 0.2878,-0.8602 0.5757,-1.7204 0.8635 -2.5807c 7.5953,-22.7000 15.1906,-45.4000 22.7860 -68.1001c 0.6624,-1.9795 2.8040,-3.0473 4.7835 -2.3850c 21.5053,7.1956 43.0106,14.3911 64.5159 21.5867c 0.6623,-1.9795 2.8040,-3.0472 4.7835 -2.3849c 21.5053,7.1956 43.0106,14.3911 64.5159 21.5867c 0.7995,-2.3895 1.5990,-4.7789 2.3985 -7.1684c 0.6624,-1.9795 2.8040,-3.0473 4.7835 -2.3849c 21.5053,7.1956 43.0106,14.3911 64.5159 21.5867c 1.5990,-4.7790 3.1980,-9.5579 4.7971 -14.3369c 0.6623,-1.9795 2.8040,-3.0472 4.7834 -2.3849c 23.5603,7.8831 47.1205,15.7663 70.6807 23.6494c 1.5817,0.5292 2.5813,2.0029 2.5813 3.5837c 0.0000,0.3976 -0.0632,0.8019 -0.1963 1.1998c -1.9988,5.9737 -3.9976,11.9474 -5.9963 17.9211c 21.5053,7.1956 43.0106,14.3911 64.5159 21.5867c 1.5817,0.5292 2.5813,2.0029 2.5813 3.5837c 0.0000,0.3976 -0.0633,0.8020 -0.1964 1.1998c -1.5990,4.7790 -3.1980,9.5579 -4.7970 14.3368c 21.5053,7.1956 43.0106,14.3911 64.5159 21.5867c 1.5817,0.5292 2.5813,2.0029 2.5813 3.5837c 0.0000,0.3976 -0.0632,0.8019 -0.1963 1.1997c -7.5953,22.7000 -15.1906,45.4001 -22.7860 68.1001c -0.2878,0.8602 -0.5757,1.7204 -0.8635 2.5806c -7.3075,21.8398 -14.6150,43.6797 -21.9225 65.5195c -0.2878,0.8602 -0.5756,1.7204 -0.8635 2.5806c -0.0006,0.0018 -0.0012,0.0036 -0.0018 0.0055c -3.1095,9.2932 -6.2190,18.5865 -9.3284 27.8797c 21.5053,7.1956 43.0106,14.3911 64.5159 21.5867c 1.5817,0.5292 2.5813,2.0030 2.5813 3.5837c 0.0000,0.3976 -0.0632,0.8019 -0.1963 1.1997c -7.8831,23.5603 -15.7663,47.1205 -23.6494 70.6807c -0.6623,1.9795 -2.8040,3.0473 -4.7835 2.3850c -21.5053,-7.1956 -43.0106,-14.3911 -64.5159 -21.5867c -3.3979,10.1553 -6.7958,20.3105 -10.1937 30.4658c -0.6624,1.9795 -2.8040,3.0473 -4.7835 2.3850c -23.5602,-7.8831 -47.1205,-15.7663 -70.6807 -23.6494c -1.5817,-0.5292 -2.5813,-2.0029 -2.5813 -3.5837c 0.0000,-0.3976 0.0633,-0.8019 0.1964 -1.1997c 1.5990,-4.7790 3.1980,-9.5579 4.7970 -14.3368c -21.5053,-7.1956 -43.0106,-14.3912 -64.5159 -21.5867c -1.5817,-0.5292 -2.5813,-2.0029 -2.5813 -3.5837c 0.0000,-0.3976 0.0632,-0.8019 0.1963 -1.1997c 1.9988,-5.9737 3.9976,-11.9474 5.9963 -17.9211c -19.4503,-6.5080 -38.9007,-13.0160 -58.3510 -19.5240c -1.5990,4.7790 -3.1980,9.5579 -4.7971 14.3368c -0.6623,1.9795 -2.8040,3.0473 -4.7835 2.3850c -21.5053,-7.1956 -43.0106,-14.3911 -64.5159 -21.5867c -0.7995,2.3895 -1.5990,4.7789 -2.3985 7.1684c -0.6624,1.9795 -2.8040,3.0473 -4.7835 2.3849c -21.5053,-7.1956 -43.0106,-14.3911 -64.5159 -21.5867c -0.6623,1.9795 -2.8040,3.0473 -4.7835 2.3849c -23.5602,-7.8831 -47.1205,-15.7663 -70.6807 -23.6494c -1.5817,-0.5292 -2.5813,-2.0029 -2.5813 -3.5837ZM 113.9498,24.1260 c 0.0000,-3.1310 2.5382,-5.6693 5.6693 -5.6693c 3.1310,-0.0000 5.6693,2.5382 5.6693 5.6693c 0.0000,3.1311 -2.5382,5.6693 -5.6693 5.6693c -3.1311,-0.0000 -5.6693,-2.5382 -5.6693 -5.6693ZM 422.2578,461.5371 c 0.0000,-3.1310 2.5382,-5.6693 5.6693 -5.6693c 3.1311,-0.0000 5.6693,2.5382 5.6693 5.6693c 0.0000,3.1311 -2.5382,5.6693 -5.6693 5.6693c -3.1310,-0.0000 -5.6693,-2.5382 -5.6693 -5.6693ZM 541.1914,99.7165 c 0.0000,-3.1310 2.5382,-5.6693 5.6693 -5.6693c 3.1311,-0.0000 5.6693,2.5382 5.6693 5.6693c 0.0000,3.1311 -2.5382,5.6693 -5.6693 5.6693c -3.1310,-0.0000 -5.6693,-2.5382 -5.6693 -5.6693ZM 648.7414,368.8609 c 0.0000,-1.5808 0.9996,-3.0545 2.5813 -3.5837c 21.5053,-7.1956 43.0106,-14.3911 64.5159 -21.5867c -3.1101,-9.2951 -6.2202,-18.5901 -9.3303 -27.8852c -0.2878,-0.8602 -0.5756,-1.7204 -0.8635 -2.5806c -7.3075,-21.8398 -14.6150,-43.6797 -21.9225 -65.5195c -0.2878,-0.8602 -0.5757,-1.7204 -0.8635 -2.5806c -0.0005,-0.0016 -0.0011,-0.0033 -0.0016 -0.0049c -7.5948,-22.6984 -15.1896,-45.3968 -22.7843 -68.0952c -0.1331,-0.3978 -0.1963,-0.8022 -0.1963 -1.1997c 0.0000,-1.5808 0.9996,-3.0545 2.5813 -3.5837c 21.5053,-7.1956 43.0106,-14.3912 64.5159 -21.5867c -1.5990,-4.7789 -3.1980,-9.5579 -4.7970 -14.3368c -0.1331,-0.3978 -0.1964,-0.8022 -0.1964 -1.1998c 0.0000,-1.5808 0.9996,-3.0545 2.5813 -3.5837c 21.5053,-7.1956 43.0106,-14.3911 64.5159 -21.5867c -1.9988,-5.9737 -3.9976,-11.9474 -5.9963 -17.9211c -0.1331,-0.3978 -0.1963,-0.8022 -0.1963 -1.1998c 0.0000,-1.5808 0.9996,-3.0545 2.5813 -3.5837c 23.5602,-7.8831 47.1205,-15.7663 70.6807 -23.6494c 1.9795,-0.6623 4.1211,0.4055 4.7834 2.3849c 1.5990,4.7790 3.1981,9.5579 4.7971 14.3369c 21.5053,-7.1956 43.0106,-14.3911 64.5159 -21.5867c 1.9795,-0.6624 4.1211,0.4055 4.7835 2.3849c 0.7995,2.3895 1.5990,4.7790 2.3985 7.1684c 21.5053,-7.1956 43.0106,-14.3911 64.5159 -21.5867c 1.9795,-0.6623 4.1212,0.4055 4.7835 2.3849c 21.5053,-7.1956 43.0106,-14.3911 64.5159 -21.5867c 1.9795,-0.6623 4.1211,0.4055 4.7835 2.3850c 7.5949,22.6987 15.1897,45.3973 22.7846 68.0960c 0.0005,0.0014 0.0009,0.0027 0.0014 0.0041c 0.2878,0.8602 0.5757,1.7204 0.8635 2.5807c 7.3075,21.8398 14.6150,43.6796 21.9225 65.5195c 0.2878,0.8602 0.5756,1.7204 0.8635 2.5806c 7.3075,21.8398 14.6150,43.6797 21.9225 65.5195c 0.2878,0.8602 0.5757,1.7204 0.8635 2.5806c 7.5953,22.7000 15.1906,45.4001 22.7860 68.1001c 0.1331,0.3978 0.1963,0.8022 0.1963 1.1997c 0.0000,1.5808 -0.9996,3.0545 -2.5813 3.5837c -23.5603,7.8831 -47.1205,15.7663 -70.6807 23.6494c -1.9795,0.6624 -4.1212,-0.4055 -4.7835 -2.3849c -21.5053,7.1956 -43.0106,14.3911 -64.5159 21.5867c -1.9795,0.6624 -4.1211,-0.4055 -4.7835 -2.3849c -0.7995,-2.3895 -1.5990,-4.7790 -2.3985 -7.1684c -21.5053,7.1956 -43.0106,14.3911 -64.5159 21.5867c -1.9795,0.6623 -4.1212,-0.4055 -4.7835 -2.3850c -1.5990,-4.7790 -3.1981,-9.5579 -4.7971 -14.3368c -19.4503,6.5080 -38.9007,13.0160 -58.3510 19.5240c 1.9988,5.9737 3.9976,11.9473 5.9963 17.9211c 0.1331,0.3978 0.1963,0.8022 0.1963 1.1997c 0.0000,1.5808 -0.9996,3.0545 -2.5813 3.5837c -21.5053,7.1956 -43.0106,14.3912 -64.5159 21.5867c 1.5990,4.7789 3.1980,9.5579 4.7970 14.3368c 0.1331,0.3978 0.1964,0.8022 0.1964 1.1997c 0.0000,1.5808 -0.9996,3.0545 -2.5813 3.5837c -23.5602,7.8831 -47.1205,15.7663 -70.6807 23.6494c -1.9795,0.6623 -4.1211,-0.4055 -4.7835 -2.3850c -3.3979,-10.1553 -6.7958,-20.3105 -10.1937 -30.4658c -21.5053,7.1956 -43.0106,14.3911 -64.5159 21.5867c -1.9795,0.6623 -4.1212,-0.4055 -4.7835 -2.3850c -7.8831,-23.5602 -15.7663,-47.1205 -23.6494 -70.6807c -0.1331,-0.3978 -0.1963,-0.8022 -0.1963 -1.1997ZM 654.5772,99.7165 c 0.0000,-3.1310 2.5382,-5.6693 5.6693 -5.6693c 3.1310,-0.0000 5.6693,2.5382 5.6693 5.6693c 0.0000,3.1311 -2.5382,5.6693 -5.6693 5.6693c -3.1311,-0.0000 -5.6693,-2.5382 -5.6693 -5.6693ZM 773.5108,461.5371 c 0.0000,-3.1310 2.5382,-5.6693 5.6693 -5.6693c 3.1310,-0.0000 5.6693,2.5382 5.6693 5.6693c 0.0000,3.1311 -2.5382,5.6693 -5.6693 5.6693c -3.1311,-0.0000 -5.6693,-2.5382 -5.6693 -5.6693ZM 1081.8188,24.1260 c 0.0000,-3.1310 2.5382,-5.6693 5.6693 -5.6693c 3.1311,-0.0000 5.6693,2.5382 5.6693 5.6693c 0.0000,3.1311 -2.5382,5.6693 -5.6693 5.6693c -3.1310,-0.0000 -5.6693,-2.5382 -5.6693 -5.6693ZM 1177.3082,301.9548 c 0.0000,-3.1311 2.5382,-5.6693 5.6693 -5.6693c 3.1311,-0.0000 5.6693,2.5382 5.6693 5.6693c 0.0000,3.1310 -2.5382,5.6693 -5.6693 5.6693c -3.1310,-0.0000 -5.6693,-2.5382 -5.6693 -5.6693Z"/></g></svg>