<?xml version="1.0" encoding="UTF-8"?>
<!DOCTYPE svg PUBLIC "-//W3C//DTD SVG 1.1//EN"
    "http://www.w3.org/Graphics/SVG/1.1/DTD/svg11.dtd"><svg xmlns="http://www.w3.org/2000/svg" height="2812.6586" stroke-opacity="1" viewBox="0 0 1189 2813" font-size="1" width="1189.1861" xmlns:xlink="http://www.w3.org/1999/xlink" stroke="rgb(0,0,0)" version="1.1"><defs></defs><g stroke-linejoin="miter" stroke-opacity="1.0" fill-opacity="0.5" stroke="rgb(0,0,0)" stroke-width="0.37795275590551186" fill="rgb(0,0,0)" stroke-linecap="butt" stroke-miterlimit="10.0"><path d="M 3.9685,2632.7304 c 0.0000,-1.7243 0.2742,-3.4764 0.8500 -5.1974c 39.4251,-117.8293 78.8502,-235.6586 118.2754 -353.4879c 2.2347,-6.6788 8.4889,-11.1811 15.5316 -11.1811c 70.1511,-0.0000 140.3022,-0.0000 210.4533 -0.0000c 3.6792,-0.0000 7.2513,1.2388 10.1405 3.5169c 64.7386,51.0442 146.5342,81.5226 235.3737 81.5226c 88.8396,-0.0000 170.6352,-30.4784 235.3737 -81.5226c 2.8892,-2.2780 6.4613,-3.5169 10.1405 -3.5169c 70.1511,-0.0000 140.3022,-0.0000 210.4533 -0.0000c 7.0427,-0.0000 13.2969,4.5024 15.5316 11.1811c 39.4251,117.8293 78.8502,235.6586 118.2754 353.4879c 0.5759,1.7210 0.8500,3.4730 0.8500 5.1974c 0.0000,6.5661 -3.9756,12.7306 -10.4104 15.2501c -135.8590,53.1942 -271.7180,106.3883 -407.5769 159.5824c -1.9027,0.7450 -3.9279,1.1273 -5.9712 1.1273c -55.5553,-0.0000 -111.1107,-0.0000 -166.6660 -0.0000c -55.5553,-0.0000 -111.1107,-0.0000 -166.6660 -0.0000c -2.0433,-0.0000 -4.0686,-0.3823 -5.9712 -1.1273c -135.8590,-53.1941 -271.7180,-106.3882 -407.5769 -159.5824c -6.4348,-2.5195 -10.4104,-8.6840 -10.4104 -15.2501ZM 18.4603,2628.9503 c 0.0000,3.1310 2.5382,5.6693 5.6693 5.6693c 3.1310,-0.0000 5.6693,-2.5382 5.6693 -5.6693c 0.0000,-3.1310 -2.5382,-5.6693 -5.6693 -5.6693c -3.1311,-0.0000 -5.6693,2.5382 -5.6693 5.6693ZM 136.7358,2283.0214 c 0.0000,3.1311 2.5382,5.6693 5.6693 5.6693c 3.1311,-0.0000 5.6693,-2.5382 5.6693 -5.6693c 0.0000,-3.1310 -2.5382,-5.6693 -5.6693 -5.6693c -3.1310,-0.0000 -5.6693,2.5382 -5.6693 5.6693ZM 422.2578,2788.5327 c 0.0000,3.1310 2.5382,5.6693 5.6693 5.6693c 3.1311,-0.0000 5.6693,-2.5382 5.6693 -5.6693c 0.0000,-3.1311 -2.5382,-5.6693 -5.6693 -5.6693c -3.1310,-0.0000 -5.6693,2.5382 -5.6693 5.6693ZM 532.2308,2358.6120 c 0.0000,3.1310 2.5382,5.6693 5.6693 5.6693c 3.1311,-0.0000 5.6693,-2.5382 5.6693 -5.6693c 0.0000,-3.1310 -2.5382,-5.6693 -5.6693 -5.6693c -3.1310,-0.0000 -5.6693,2.5382 -5.6693 5.6693ZM 645.6167,2358.6120 c 0.0000,3.1310 2.5382,5.6693 5.6693 5.6693c 3.1310,-0.0000 5.6693,-2.5382 5.6693 -5.6693c 0.0000,-3.1310 -2.5382,-5.6693 -5.6693 -5.6693c -3.1311,-0.0000 -5.6693,2.5382 -5.6693 5.6693ZM 755.5898,2788.5327 c 0.0000,3.1310 2.5382,5.6693 5.6693 5.6693c 3.1310,-0.0000 5.6693,-2.5382 5.6693 -5.6693c 0.0000,-3.1311 -2.5382,-5.6693 -5.6693 -5.6693c -3.1311,-0.0000 -5.6693,2.5382 -5.6693 5.6693ZM 1041.1117,2283.0214 c 0.0000,3.1311 2.5382,5.6693 5.6693 5.6693c 3.1310,-0.0000 5.6693,-2.5382 5.6693 -5.6693c 0.0000,-3.1310 -2.5382,-5.6693 -5.6693 -5.6693c -3.1311,-0.0000 -5.6693,2.5382 -5.6693 5.6693ZM 1159.3872,2628.9503 c 0.0000,3.1310 2.5382,5.6693 5.6693 5.6693c 3.1311,-0.0000 5.6693,-2.5382 5.6693 -5.6693c 0.0000,-3.1310 -2.5382,-5.6693 -5.6693 -5.6693c -3.1310,-0.0000 -5.6693,2.5382 -5.6693 5.6693Z"/></g><g stroke-linejoin="miter" stroke-opacity="1.0" fill-opacity="0.5" stroke="rgb(0,0,0)" stroke-width="0.37795275590551186" fill="rgb(255,0,0)" stroke-linecap="butt" stroke-miterlimit="10.0"><path d="M 3.9685,2068.0065 c 0.0000,-1.7243 0.2742,-3.4764 0.8500 -5.1974c 39.4251,-117.8293 78.8502,-235.6586 118.2754 -353.4879c 2.2347,-6.6788 8.4889,-11.1811 15.5316 -11.1811c 70.1511,-0.0000 140.3022,-0.0000 210.4533 -0.0000c 3.6792,-0.0000 7.2513,1.2388 10.1405 3.5169c 49.4805,39.0137 108.9252,66.0134 173.8634 76.5732c 4.5881,0.7461 9.2036,1.4101 13.8449 1.9905c 12.5600,1.5706 25.3093,2.5288 38.2166 2.8437c 0.0000,0.0384 0.0000,0.0767 0.0000 0.1151c 1.2599,-0.0000 2.5197,-0.0000 3.7795 -0.0000c 0.0000,1.2599 0.0000,2.5197 0.0000 3.7795c -1.2599,-0.0000 -2.5197,-0.0000 -3.7795 -0.0000c 0.0000,0.3376 0.0000,0.6752 0.0000 1.0127c 0.0000,0.9223 0.0000,1.8445 0.0000 2.7668c 1.2599,-0.0000 2.5197,-0.0000 3.7795 -0.0000c 0.0000,1.2599 0.0000,2.5197 0.0000 3.7795c -1.2599,-0.0000 -2.5197,-0.0000 -3.7795 -0.0000c 0.0000,0.3376 0.0000,0.6752 0.0000 1.0127c 0.0000,0.9223 0.0000,1.8445 0.0000 2.7668c 1.2599,-0.0000 2.5197,-0.0000 3.7795 -0.0000c 0.0000,1.2598 0.0000,2.5197 0.0000 3.7795c -1.2599,-0.0000 -2.5197,-0.0000 -3.7795 -0.0000c 0.0000,0.3376 0.0000,0.6752 0.0000 1.0127c 0.0000,0.9223 0.0000,1.8445 0.0000 2.7668c 1.2599,-0.0000 2.5197,-0.0000 3.7795 -0.0000c 0.0000,1.2598 0.0000,2.5197 0.0000 3.7795c -1.2599,-0.0000 -2.5197,-0.0000 -3.7795 -0.0000c 0.0000,0.3376 0.0000,0.6752 0.0000 1.0127c 0.0000,0.9223 0.0000,1.8445 0.0000 2.7668c 1.2599,-0.0000 2.5197,-0.0000 3.7795 -0.0000c 0.0000,0.6299 0.0000,1.2599 0.0000 1.8898c 3.7795,-0.0000 7.5590,-0.0000 11.3385 -0.0000c 0.0000,-0.6299 0.0000,-1.2599 0.0000 -1.8898c 1.2599,-0.0000 2.5197,-0.0000 3.7795 -0.0000c 0.0000,-1.2598 0.0000,-2.5197 0.0000 -3.7795c -1.2599,-0.0000 -2.5197,-0.0000 -3.7795 -0.0000c 0.0000,-1.2598 0.0000,-2.5197 0.0000 -3.7795c 1.2599,-0.0000 2.5197,-0.0000 3.7795 -0.0000c 0.0000,-1.2599 0.0000,-2.5197 0.0000 -3.7795c -1.2599,-0.0000 -2.5197,-0.0000 -3.7795 -0.0000c 0.0000,-1.2598 0.0000,-2.5197 0.0000 -3.7795c 1.2599,-0.0000 2.5197,-0.0000 3.7795 -0.0000c 0.0000,-1.2599 0.0000,-2.5197 0.0000 -3.7795c -1.2599,-0.0000 -2.5197,-0.0000 -3.7795 -0.0000c 0.0000,-1.2599 0.0000,-2.5197 0.0000 -3.7795c 1.2599,-0.0000 2.5197,-0.0000 3.7795 -0.0000c 0.0000,-1.2598 0.0000,-2.5197 0.0000 -3.7795c -1.2599,-0.0000 -2.5197,-0.0000 -3.7795 -0.0000c 0.0000,-1.2599 0.0000,-2.5197 0.0000 -3.7795c 1.2599,-0.0000 2.5197,-0.0000 3.7795 -0.0000c 0.0000,-0.0384 0.0000,-0.0767 0.0000 -0.1151c 12.9073,-0.3149 25.6566,-1.2731 38.2166 -2.8437c 4.6413,-0.5804 9.2568,-1.2444 13.8449 -1.9905c 64.9383,-10.5599 124.3830,-37.5596 173.8634 -76.5732c 2.8892,-2.2780 6.4613,-3.5169 10.1405 -3.5169c 70.1511,-0.0000 140.3022,-0.0000 210.4533 -0.0000c 7.0427,-0.0000 13.2969,4.5024 15.5316 11.1811c 39.4251,117.8293 78.8502,235.6586 118.2754 353.4879c 0.5759,1.7210 0.8500,3.4730 0.8500 5.1974c 0.0000,6.5661 -3.9756,12.7306 -10.4104 15.2501c -135.8590,53.1942 -271.7180,106.3883 -407.5769 159.5824c -1.9027,0.7450 -3.9279,1.1273 -5.9712 1.1273c -55.5553,-0.0000 -111.1107,-0.0000 -166.6660 -0.0000c -55.5553,-0.0000 -111.1107,-0.0000 -166.6660 -0.0000c -2.0433,-0.0000 -4.0686,-0.3823 -5.9712 -1.1273c -135.8590,-53.1941 -271.7180,-106.3882 -407.5769 -159.5824c -6.4348,-2.5195 -10.4104,-8.6840 -10.4104 -15.2501ZM 18.4603,2064.2265 c 0.0000,3.1310 2.5382,5.6693 5.6693 5.6693c 3.1310,-0.0000 5.6693,-2.5382 5.6693 -5.6693c 0.0000,-3.1310 -2.5382,-5.6693 -5.6693 -5.6693c -3.1311,-0.0000 -5.6693,2.5382 -5.6693 5.6693ZM 33.9044,2051.0840 c 4.0076,2.9855 6.6032,7.7609 6.6032 13.1425c 0.0000,2.1161 -0.4013,4.1385 -1.1320 5.9952c 0.8811,0.5414 1.8334,1.0061 2.8501 1.3808c 125.4660,46.2418 250.9321,92.4836 376.3981 138.7254c 2.6422,-1.8269 5.8478,-2.8970 9.3032 -2.8970c 6.0622,-0.0000 11.3551,3.2936 14.1869 8.1890c 50.8264,-0.0000 101.6528,-0.0000 152.4792 -0.0000c 50.8264,-0.0000 101.6528,-0.0000 152.4792 -0.0000c 2.8318,-4.8954 8.1247,-8.1890 14.1869 -8.1890c 3.4554,-0.0000 6.6609,1.0701 9.3032 2.8970c 125.4660,-46.2418 250.9321,-92.4836 376.3981 -138.7254c 1.0167,-0.3747 1.9690,-0.8394 2.8501 -1.3808c -0.7307,-1.8567 -1.1320,-3.8791 -1.1320 -5.9952c 0.0000,-5.3816 2.5956,-10.1570 6.6032 -13.1425c -37.2729,-104.8592 -74.5458,-209.7184 -111.8187 -314.5776c -0.3046,-0.8570 -0.6877,-1.6740 -1.1402 -2.4449c -3.9295,-1.1091 -7.2594,-3.6479 -9.3923 -7.0192c -1.3607,-0.3632 -2.7893,-0.5557 -4.2536 -0.5557c -66.7842,-0.0000 -133.5685,-0.0000 -200.3527 -0.0000c -3.5027,-0.0000 -6.9033,1.1102 -9.6538 3.1516c -43.4219,32.2274 -94.9042,55.3067 -151.1132 66.1313c -0.9331,8.1592 -7.8620,14.4966 -16.2711 14.4966c -4.4006,-0.0000 -8.3959,-1.7355 -11.3386 -4.5595c 0.0000,7.9240 0.0000,15.8481 0.0000 23.7722c 0.0000,4.1747 -3.3843,7.5590 -7.5591 7.5590c -25.1969,-0.0000 -50.3937,-0.0000 -75.5905 -0.0000c -4.1748,-0.0000 -7.5591,-3.3843 -7.5591 -7.5590c 0.0000,-1.3775 0.0000,-2.7551 0.0000 -4.1325c 0.0000,-6.5465 0.0000,-13.0931 0.0000 -19.6396c -2.9427,2.8240 -6.9380,4.5595 -11.3386 4.5595c -8.4090,-0.0000 -15.3379,-6.3374 -16.2711 -14.4966c -56.2090,-10.8247 -107.6913,-33.9040 -151.1132 -66.1313c -2.7505,-2.0414 -6.1512,-3.1516 -9.6538 -3.1516c -66.7843,-0.0000 -133.5685,-0.0000 -200.3527 -0.0000c -1.4644,-0.0000 -2.8929,0.1925 -4.2536 0.5557c -2.1329,3.3713 -5.4628,5.9101 -9.3923 7.0192c -0.4525,0.7709 -0.8356,1.5879 -1.1402 2.4449c -37.2729,104.8592 -74.5458,209.7184 -111.8187 314.5776ZM 136.7358,1718.2976 c 0.0000,3.1311 2.5382,5.6693 5.6693 5.6693c 3.1311,-0.0000 5.6693,-2.5382 5.6693 -5.6693c 0.0000,-3.1310 -2.5382,-5.6693 -5.6693 -5.6693c -3.1310,-0.0000 -5.6693,2.5382 -5.6693 5.6693ZM 422.2578,2223.8088 c 0.0000,3.1310 2.5382,5.6693 5.6693 5.6693c 3.1311,-0.0000 5.6693,-2.5382 5.6693 -5.6693c 0.0000,-3.1311 -2.5382,-5.6693 -5.6693 -5.6693c -3.1310,-0.0000 -5.6693,2.5382 -5.6693 5.6693ZM 532.2308,1793.8881 c 0.0000,3.1310 2.5382,5.6693 5.6693 5.6693c 3.1311,-0.0000 5.6693,-2.5382 5.6693 -5.6693c 0.0000,-3.1310 -2.5382,-5.6693 -5.6693 -5.6693c -3.1310,-0.0000 -5.6693,2.5382 -5.6693 5.6693ZM 645.6167,1793.8881 c 0.0000,3.1310 2.5382,5.6693 5.6693 5.6693c 3.1310,-0.0000 5.6693,-2.5382 5.6693 -5.6693c 0.0000,-3.1310 -2.5382,-5.6693 -5.6693 -5.6693c -3.1311,-0.0000 -5.6693,2.5382 -5.6693 5.6693ZM 755.5898,2223.8088 c 0.0000,3.1310 2.5382,5.6693 5.6693 5.6693c 3.1310,-0.0000 5.6693,-2.5382 5.6693 -5.6693c 0.0000,-3.1311 -2.5382,-5.6693 -5.6693 -5.6693c -3.1311,-0.0000 -5.6693,2.5382 -5.6693 5.6693ZM 1041.1117,1718.2976 c 0.0000,3.1311 2.5382,5.6693 5.6693 5.6693c 3.1310,-0.0000 5.6693,-2.5382 5.6693 -5.6693c 0.0000,-3.1310 -2.5382,-5.6693 -5.6693 -5.6693c -3.1311,-0.0000 -5.6693,2.5382 -5.6693 5.6693ZM 1159.3872,2064.2265 c 0.0000,3.1310 2.5382,5.6693 5.6693 5.6693c 3.1311,-0.0000 5.6693,-2.5382 5.6693 -5.6693c 0.0000,-3.1310 -2.5382,-5.6693 -5.6693 -5.6693c -3.1310,-0.0000 -5.6693,2.5382 -5.6693 5.6693Z"/></g><g stroke-linejoin="miter" stroke-opacity="1.0" fill-opacity="0.5" stroke="rgb(0,0,0)" stroke-width="0.37795275590551186" fill="rgb(255,0,0)" stroke-linecap="butt" stroke-miterlimit="10.0"><path d="M 3.9685,1503.2827 c 0.0000,-1.7243 0.2742,-3.4764 0.8500 -5.1974c 39.4251,-117.8293 78.8502,-235.6586 118.2754 -353.4879c 2.2347,-6.6788 8.4889,-11.1811 15.5316 -11.1811c 70.1511,-0.0000 140.3022,-0.0000 210.4533 -0.0000c 3.6792,-0.0000 7.2513,1.2388 10.1405 3.5169c 49.4805,39.0137 108.9252,66.0134 173.8634 76.5732c 4.5881,0.7461 9.2036,1.4101 13.8449 1.9905c 15.6159,1.9527 31.5244,2.9588 47.6654 2.9588c 16.1410,-0.0000 32.0495,-1.0061 47.6654 -2.9588c 4.6413,-0.5804 9.2568,-1.2444 13.8449 -1.9905c 64.9383,-10.5599 124.3830,-37.5596 173.8634 -76.5732c 2.8892,-2.2780 6.4613,-3.5169 10.1405 -3.5169c 70.1511,-0.0000 140.3022,-0.0000 210.4533 -0.0000c 7.0427,-0.0000 13.2969,4.5024 15.5316 11.1811c 39.4251,117.8293 78.8502,235.6586 118.2754 353.4879c 0.5759,1.7210 0.8500,3.4730 0.8500 5.1974c 0.0000,6.5661 -3.9756,12.7306 -10.4104 15.2501c -135.8590,53.1942 -271.7180,106.3883 -407.5769 159.5824c -1.9027,0.7450 -3.9279,1.1273 -5.9712 1.1273c -55.5553,-0.0000 -111.1107,-0.0000 -166.6660 -0.0000c -55.5553,-0.0000 -111.1107,-0.0000 -166.6660 -0.0000c -2.0433,-0.0000 -4.0686,-0.3823 -5.9712 -1.1273c -135.8590,-53.1941 -271.7180,-106.3882 -407.5769 -159.5824c -6.4348,-2.5195 -10.4104,-8.6840 -10.4104 -15.2501ZM 18.4603,1499.5026 c 0.0000,3.1310 2.5382,5.6693 5.6693 5.6693c 3.1310,-0.0000 5.6693,-2.5382 5.6693 -5.6693c 0.0000,-3.1310 -2.5382,-5.6693 -5.6693 -5.6693c -3.1311,-0.0000 -5.6693,2.5382 -5.6693 5.6693ZM 33.9044,1486.3601 c 4.0076,2.9855 6.6032,7.7609 6.6032 13.1425c 0.0000,2.1161 -0.4013,4.1385 -1.1320 5.9952c 0.8811,0.5414 1.8334,1.0061 2.8501 1.3808c 125.4660,46.2418 250.9321,92.4836 376.3981 138.7254c 2.6422,-1.8269 5.8478,-2.8970 9.3032 -2.8970c 6.0622,-0.0000 11.3551,3.2936 14.1869 8.1890c 50.8264,-0.0000 101.6528,-0.0000 152.4792 -0.0000c 50.8264,-0.0000 101.6528,-0.0000 152.4792 -0.0000c 2.8318,-4.8954 8.1247,-8.1890 14.1869 -8.1890c 3.4554,-0.0000 6.6609,1.0701 9.3032 2.8970c 125.4660,-46.2418 250.9321,-92.4836 376.3981 -138.7254c 1.0167,-0.3747 1.9690,-0.8394 2.8501 -1.3808c -0.7307,-1.8567 -1.1320,-3.8791 -1.1320 -5.9952c 0.0000,-5.3816 2.5956,-10.1570 6.6032 -13.1425c -37.2729,-104.8592 -74.5458,-209.7184 -111.8187 -314.5776c -0.3046,-0.8570 -0.6877,-1.6740 -1.1402 -2.4449c -3.9295,-1.1091 -7.2594,-3.6479 -9.3923 -7.0192c -1.3607,-0.3632 -2.7893,-0.5557 -4.2536 -0.5557c -66.7842,-0.0000 -133.5685,-0.0000 -200.3527 -0.0000c -3.5027,-0.0000 -6.9033,1.1102 -9.6538 3.1516c -43.4219,32.2274 -94.9042,55.3067 -151.1132 66.1313c -0.9331,8.1592 -7.8620,14.4966 -16.2711 14.4966c -4.4006,-0.0000 -8.3959,-1.7355 -11.3386 -4.5595c 0.0000,7.9240 0.0000,15.8481 0.0000 23.7722c 0.0000,4.1747 -3.3843,7.5590 -7.5591 7.5590c -9.4488,-0.0000 -18.8976,-0.0000 -28.3464 -0.0000c 0.0000,-0.3150 0.0000,-0.6299 0.0000 -0.9449c -1.2599,-0.0000 -2.5197,-0.0000 -3.7795 -0.0000c 0.0000,-1.2599 0.0000,-2.5197 0.0000 -3.7795c 1.2599,-0.0000 2.5197,-0.0000 3.7795 -0.0000c 0.0000,-1.2598 0.0000,-2.5197 0.0000 -3.7795c -1.2599,-0.0000 -2.5197,-0.0000 -3.7795 -0.0000c 0.0000,-1.2599 0.0000,-2.5197 0.0000 -3.7795c 1.2599,-0.0000 2.5197,-0.0000 3.7795 -0.0000c 0.0000,-1.2599 0.0000,-2.5197 0.0000 -3.7795c -1.2599,-0.0000 -2.5197,-0.0000 -3.7795 -0.0000c 0.0000,-1.2598 0.0000,-2.5197 0.0000 -3.7795c 1.2599,-0.0000 2.5197,-0.0000 3.7795 -0.0000c 0.0000,-1.2599 0.0000,-2.5197 0.0000 -3.7795c -1.2599,-0.0000 -2.5197,-0.0000 -3.7795 -0.0000c 0.0000,-1.2599 0.0000,-2.5197 0.0000 -3.7795c 1.2599,-0.0000 2.5197,-0.0000 3.7795 -0.0000c 0.0000,-1.2598 0.0000,-2.5197 0.0000 -3.7795c -6.2992,-0.0000 -12.5984,-0.0000 -18.8976 -0.0000c 0.0000,0.3376 0.0000,0.6752 0.0000 1.0127c 0.0000,0.9223 0.0000,1.8445 0.0000 2.7668c 1.2599,-0.0000 2.5197,-0.0000 3.7795 -0.0000c 0.0000,1.2599 0.0000,2.5197 0.0000 3.7795c -1.2599,-0.0000 -2.5197,-0.0000 -3.7795 -0.0000c 0.0000,0.3376 0.0000,0.6752 0.0000 1.0127c 0.0000,0.9223 0.0000,1.8446 0.0000 2.7668c 1.2599,-0.0000 2.5197,-0.0000 3.7795 -0.0000c 0.0000,1.2598 0.0000,2.5197 0.0000 3.7795c -1.2599,-0.0000 -2.5197,-0.0000 -3.7795 -0.0000c 0.0000,0.3376 0.0000,0.6752 0.0000 1.0127c 0.0000,0.9223 0.0000,1.8445 0.0000 2.7668c 1.2599,-0.0000 2.5197,-0.0000 3.7795 -0.0000c 0.0000,1.2599 0.0000,2.5197 0.0000 3.7795c -1.2599,-0.0000 -2.5197,-0.0000 -3.7795 -0.0000c 0.0000,0.3376 0.0000,0.6752 0.0000 1.0127c 0.0000,0.9223 0.0000,1.8445 0.0000 2.7668c 1.2599,-0.0000 2.5197,-0.0000 3.7795 -0.0000c 0.0000,1.2599 0.0000,2.5197 0.0000 3.7795c -1.2599,-0.0000 -2.5197,-0.0000 -3.7795 -0.0000c 0.0000,0.3149 0.0000,0.6300 0.0000 0.9449c -9.4488,-0.0000 -18.8976,-0.0000 -28.3464 -0.0000c -4.1748,-0.0000 -7.5591,-3.3843 -7.5591 -7.5590c 0.0000,-1.3775 0.0000,-2.7551 0.0000 -4.1325c 0.0000,-6.5465 0.0000,-13.0931 0.0000 -19.6396c -2.9427,2.8240 -6.9380,4.5595 -11.3386 4.5595c -8.4090,-0.0000 -15.3379,-6.3374 -16.2711 -14.4966c -56.2090,-10.8247 -107.6913,-33.9040 -151.1132 -66.1313c -2.7505,-2.0414 -6.1512,-3.1516 -9.6538 -3.1516c -66.7843,-0.0000 -133.5685,-0.0000 -200.3527 -0.0000c -1.4644,-0.0000 -2.8929,0.1925 -4.2536 0.5557c -2.1329,3.3713 -5.4628,5.9101 -9.3923 7.0192c -0.4525,0.7709 -0.8356,1.5879 -1.1402 2.4449c -37.2729,104.8592 -74.5458,209.7184 -111.8187 314.5776ZM 136.7358,1153.5737 c 0.0000,3.1311 2.5382,5.6693 5.6693 5.6693c 3.1311,-0.0000 5.6693,-2.5382 5.6693 -5.6693c 0.0000,-3.1310 -2.5382,-5.6693 -5.6693 -5.6693c -3.1310,-0.0000 -5.6693,2.5382 -5.6693 5.6693ZM 422.2578,1659.0850 c 0.0000,3.1310 2.5382,5.6693 5.6693 5.6693c 3.1311,-0.0000 5.6693,-2.5382 5.6693 -5.6693c 0.0000,-3.1311 -2.5382,-5.6693 -5.6693 -5.6693c -3.1310,-0.0000 -5.6693,2.5382 -5.6693 5.6693ZM 532.2308,1229.1643 c 0.0000,3.1310 2.5382,5.6693 5.6693 5.6693c 3.1311,-0.0000 5.6693,-2.5382 5.6693 -5.6693c 0.0000,-3.1310 -2.5382,-5.6693 -5.6693 -5.6693c -3.1310,-0.0000 -5.6693,2.5382 -5.6693 5.6693ZM 645.6167,1229.1643 c 0.0000,3.1310 2.5382,5.6693 5.6693 5.6693c 3.1310,-0.0000 5.6693,-2.5382 5.6693 -5.6693c 0.0000,-3.1310 -2.5382,-5.6693 -5.6693 -5.6693c -3.1311,-0.0000 -5.6693,2.5382 -5.6693 5.6693ZM 755.5898,1659.0850 c 0.0000,3.1310 2.5382,5.6693 5.6693 5.6693c 3.1310,-0.0000 5.6693,-2.5382 5.6693 -5.6693c 0.0000,-3.1311 -2.5382,-5.6693 -5.6693 -5.6693c -3.1311,-0.0000 -5.6693,2.5382 -5.6693 5.6693ZM 1041.1117,1153.5737 c 0.0000,3.1311 2.5382,5.6693 5.6693 5.6693c 3.1310,-0.0000 5.6693,-2.5382 5.6693 -5.6693c 0.0000,-3.1310 -2.5382,-5.6693 -5.6693 -5.6693c -3.1311,-0.0000 -5.6693,2.5382 -5.6693 5.6693ZM 1159.3872,1499.5026 c 0.0000,3.1310 2.5382,5.6693 5.6693 5.6693c 3.1311,-0.0000 5.6693,-2.5382 5.6693 -5.6693c 0.0000,-3.1310 -2.5382,-5.6693 -5.6693 -5.6693c -3.1310,-0.0000 -5.6693,2.5382 -5.6693 5.6693Z"/></g><g stroke-linejoin="miter" stroke-opacity="1.0" fill-opacity="0.5" stroke="rgb(0,0,0)" stroke-width="0.37795275590551186" fill="rgb(0,0,0)" stroke-linecap="butt" stroke-miterlimit="10.0"><path d="M 3.9685,938.5588 c 0.0000,-1.7243 0.2742,-3.4764 0.8500 -5.1974c 39.4251,-117.8293 78.8502,-235.6586 118.2754 -353.4879c 2.2347,-6.6788 8.4889,-11.1811 15.5316 -11.1811c 70.1511,-0.0000 140.3022,-0.0000 210.4533 -0.0000c 3.6792,-0.0000 7.2513,1.2388 10.1405 3.5169c 64.7386,51.0442 146.5342,81.5226 235.3737 81.5226c 88.8396,-0.0000 170.6352,-30.4784 235.3737 -81.5226c 2.8892,-2.2780 6.4613,-3.5169 10.1405 -3.5169c 70.1511,-0.0000 140.3022,-0.0000 210.4533 -0.0000c 7.0427,-0.0000 13.2969,4.5024 15.5316 11.1811c 39.4251,117.8293 78.8502,235.6586 118.2754 353.4879c 0.5759,1.7210 0.8500,3.4730 0.8500 5.1974c 0.0000,6.5661 -3.9756,12.7306 -10.4104 15.2501c -135.8590,53.1942 -271.7180,106.3883 -407.5769 159.5824c -1.9027,0.7450 -3.9279,1.1273 -5.9712 1.1273c -55.5553,-0.0000 -111.1107,-0.0000 -166.6660 -0.0000c -55.5553,-0.0000 -111.1107,-0.0000 -166.6660 -0.0000c -2.0433,-0.0000 -4.0686,-0.3823 -5.9712 -1.1273c -135.8590,-53.1941 -271.7180,-106.3882 -407.5769 -159.5824c -6.4348,-2.5195 -10.4104,-8.6840 -10.4104 -15.2501ZM 18.4603,934.7788 c 0.0000,3.1310 2.5382,5.6693 5.6693 5.6693c 3.1310,-0.0000 5.6693,-2.5382 5.6693 -5.6693c 0.0000,-3.1310 -2.5382,-5.6693 -5.6693 -5.6693c -3.1311,-0.0000 -5.6693,2.5382 -5.6693 5.6693ZM 54.6751,927.5368 c 0.9711,0.3249 1.9422,0.6498 2.9133 0.9748c -0.3920,1.1714 -0.7839,2.3428 -1.1758 3.5141c 16.6905,5.5846 33.3810,11.1691 50.0715 16.7537c 0.3919,-1.1714 0.7839,-2.3428 1.1758 -3.5141c 0.9711,0.3249 1.9421,0.6498 2.9132 0.9748c 1.3992,-4.1817 2.7983,-8.3634 4.1976 -12.5451c -0.9711,-0.3249 -1.9422,-0.6498 -2.9133 -0.9748c 2.0023,-5.9843 4.0047,-11.9687 6.0070 -17.9529c 0.9711,0.3249 1.9422,0.6498 2.9133 0.9748c 1.3992,-4.1817 2.7983,-8.3634 4.1975 -12.5451c -0.9711,-0.3249 -1.9422,-0.6498 -2.9132 -0.9748c 0.3919,-1.1714 0.7839,-2.3428 1.1758 -3.5141c -16.6905,-5.5846 -33.3810,-11.1691 -50.0715 -16.7537c -0.3919,1.1714 -0.7839,2.3428 -1.1758 3.5141c -0.9711,-0.3249 -1.9421,-0.6498 -2.9132 -0.9748c -1.3992,4.1817 -2.7983,8.3634 -4.1976 12.5451c 0.9711,0.3249 1.9422,0.6498 2.9133 0.9748c -2.0023,5.9843 -4.0046,11.9687 -6.0070 17.9530c -0.9711,-0.3249 -1.9422,-0.6498 -2.9132 -0.9748c -1.3992,4.1817 -2.7984,8.3634 -4.1976 12.5451ZM 77.4611,859.4367 c 0.9711,0.3249 1.9421,0.6498 2.9132 0.9748c -0.3919,1.1714 -0.7839,2.3428 -1.1758 3.5142c 16.6905,5.5845 33.3810,11.1691 50.0715 16.7537c 0.3920,-1.1714 0.7839,-2.3428 1.1758 -3.5141c 0.9711,0.3249 1.9422,0.6498 2.9133 0.9748c 1.3992,-4.1817 2.7983,-8.3634 4.1975 -12.5451c -0.9711,-0.3249 -1.9421,-0.6498 -2.9132 -0.9748c 2.0023,-5.9843 4.0046,-11.9687 6.0070 -17.9530c 0.9711,0.3249 1.9421,0.6498 2.9132 0.9748c 1.3992,-4.1817 2.7983,-8.3634 4.1975 -12.5451c -0.9711,-0.3249 -1.9421,-0.6498 -2.9132 -0.9748c 0.3920,-1.1714 0.7839,-2.3428 1.1758 -3.5142c -16.6905,-5.5845 -33.3810,-11.1691 -50.0715 -16.7537c -0.3920,1.1714 -0.7839,2.3428 -1.1758 3.5142c -0.9711,-0.3249 -1.9422,-0.6498 -2.9132 -0.9748c -1.3992,4.1817 -2.7984,8.3634 -4.1976 12.5451c 0.9711,0.3249 1.9422,0.6498 2.9132 0.9748c -2.0023,5.9843 -4.0046,11.9687 -6.0069 17.9530c -0.9711,-0.3249 -1.9422,-0.6498 -2.9133 -0.9748c -1.3992,4.1817 -2.7983,8.3634 -4.1975 12.5451ZM 100.2470,791.3366 c 0.9711,0.3249 1.9422,0.6498 2.9132 0.9748c -0.3919,1.1714 -0.7839,2.3428 -1.1758 3.5141c 16.6905,5.5846 33.3810,11.1691 50.0715 16.7537c 0.3919,-1.1714 0.7839,-2.3428 1.1758 -3.5141c 0.9711,0.3249 1.9421,0.6498 2.9132 0.9748c 1.3992,-4.1817 2.7983,-8.3634 4.1976 -12.5451c -0.9711,-0.3249 -1.9422,-0.6498 -2.9133 -0.9748c 2.0023,-5.9843 4.0046,-11.9687 6.0070 -17.9530c 0.9711,0.3249 1.9422,0.6498 2.9132 0.9748c 1.3992,-4.1817 2.7984,-8.3634 4.1976 -12.5451c -0.9711,-0.3249 -1.9422,-0.6498 -2.9132 -0.9748c 0.3919,-1.1714 0.7839,-2.3428 1.1758 -3.5141c -16.6905,-5.5846 -33.3810,-11.1691 -50.0715 -16.7537c -0.3919,1.1714 -0.7839,2.3428 -1.1758 3.5141c -0.9711,-0.3249 -1.9421,-0.6498 -2.9132 -0.9748c -1.3992,4.1817 -2.7983,8.3634 -4.1976 12.5451c 0.9711,0.3249 1.9422,0.6498 2.9133 0.9748c -2.0023,5.9843 -4.0046,11.9686 -6.0070 17.9529c -0.9711,-0.3249 -1.9422,-0.6498 -2.9132 -0.9748c -1.3992,4.1817 -2.7984,8.3634 -4.1976 12.5451ZM 123.0330,723.2365 c 0.9711,0.3249 1.9421,0.6498 2.9132 0.9748c -0.3919,1.1714 -0.7839,2.3428 -1.1758 3.5142c 16.6905,5.5845 33.3810,11.1691 50.0715 16.7537c 0.3920,-1.1714 0.7839,-2.3428 1.1758 -3.5141c 0.9711,0.3249 1.9422,0.6498 2.9133 0.9748c 1.3992,-4.1817 2.7983,-8.3634 4.1975 -12.5451c -0.9711,-0.3249 -1.9422,-0.6498 -2.9132 -0.9748c 2.0023,-5.9843 4.0046,-11.9687 6.0070 -17.9530c 0.9711,0.3249 1.9421,0.6498 2.9132 0.9748c 1.3992,-4.1817 2.7983,-8.3634 4.1975 -12.5451c -0.9711,-0.3249 -1.9421,-0.6499 -2.9132 -0.9748c 0.3919,-1.1714 0.7839,-2.3428 1.1758 -3.5141c -16.6905,-5.5845 -33.3810,-11.1691 -50.0715 -16.7537c -0.3920,1.1714 -0.7839,2.3428 -1.1758 3.5142c -0.9711,-0.3249 -1.9422,-0.6498 -2.9133 -0.9748c -1.3992,4.1817 -2.7983,8.3634 -4.1975 12.5451c 0.9711,0.3249 1.9422,0.6498 2.9132 0.9748c -2.0023,5.9843 -4.0046,11.9687 -6.0070 17.9530c -0.9711,-0.3249 -1.9421,-0.6498 -2.9132 -0.9748c -1.3992,4.1817 -2.7983,8.3634 -4.1975 12.5451ZM 123.9744,946.7385 c 0.9711,0.3249 1.9422,0.6498 2.9132 0.9748c -0.3919,1.1714 -0.7839,2.3428 -1.1758 3.5141c 16.6905,5.5846 33.3810,11.1691 50.0715 16.7537c 0.3919,-1.1714 0.7839,-2.3428 1.1758 -3.5141c 0.9711,0.3249 1.9421,0.6498 2.9132 0.9748c 1.3992,-4.1817 2.7983,-8.3634 4.1975 -12.5451c -0.9711,-0.3249 -1.9421,-0.6498 -2.9132 -0.9748c 2.0023,-5.9843 4.0046,-11.9687 6.0070 -17.9530c 0.9711,0.3249 1.9422,0.6498 2.9132 0.9748c 1.3992,-4.1817 2.7984,-8.3634 4.1976 -12.5451c -0.9711,-0.3249 -1.9422,-0.6498 -2.9133 -0.9748c 0.3920,-1.1714 0.7839,-2.3428 1.1758 -3.5141c -16.6905,-5.5846 -33.3810,-11.1692 -50.0715 -16.7537c -0.3919,1.1714 -0.7839,2.3428 -1.1758 3.5141c -0.9711,-0.3249 -1.9421,-0.6498 -2.9132 -0.9748c -1.3992,4.1817 -2.7984,8.3634 -4.1976 12.5451c 0.9711,0.3249 1.9422,0.6498 2.9133 0.9748c -2.0023,5.9843 -4.0047,11.9687 -6.0070 17.9529c -0.9711,-0.3249 -1.9422,-0.6498 -2.9132 -0.9748c -1.3992,4.1817 -2.7984,8.3634 -4.1976 12.5451ZM 136.7358,588.8498 c 0.0000,3.1311 2.5382,5.6693 5.6693 5.6693c 3.1311,-0.0000 5.6693,-2.5382 5.6693 -5.6693c 0.0000,-3.1310 -2.5382,-5.6693 -5.6693 -5.6693c -3.1310,-0.0000 -5.6693,2.5382 -5.6693 5.6693ZM 145.8190,655.1364 c 0.9711,0.3249 1.9422,0.6498 2.9132 0.9748c -0.3919,1.1714 -0.7839,2.3428 -1.1758 3.5141c 16.6905,5.5846 33.3810,11.1691 50.0715 16.7537c 0.3919,-1.1714 0.7839,-2.3428 1.1758 -3.5142c 0.9711,0.3249 1.9421,0.6498 2.9132 0.9748c 1.3992,-4.1817 2.7983,-8.3634 4.1976 -12.5451c -0.9711,-0.3249 -1.9422,-0.6498 -2.9133 -0.9748c 2.0023,-5.9843 4.0046,-11.9687 6.0070 -17.9530c 0.9711,0.3249 1.9422,0.6498 2.9132 0.9748c 1.3992,-4.1817 2.7984,-8.3634 4.1976 -12.5451c -0.9711,-0.3249 -1.9422,-0.6498 -2.9132 -0.9748c 0.3919,-1.1714 0.7839,-2.3428 1.1758 -3.5141c -16.6905,-5.5846 -33.3810,-11.1692 -50.0715 -16.7537c -0.3919,1.1714 -0.7839,2.3428 -1.1758 3.5141c -0.9711,-0.3249 -1.9421,-0.6498 -2.9132 -0.9748c -1.3992,4.1817 -2.7983,8.3634 -4.1976 12.5451c 0.9711,0.3249 1.9422,0.6498 2.9133 0.9748c -2.0023,5.9843 -4.0046,11.9687 -6.0070 17.9530c -0.9711,-0.3249 -1.9422,-0.6498 -2.9132 -0.9748c -1.3992,4.1817 -2.7984,8.3634 -4.1976 12.5451ZM 146.7604,878.6384 c 0.9711,0.3249 1.9422,0.6498 2.9133 0.9748c -0.3920,1.1714 -0.7839,2.3428 -1.1758 3.5141c 16.6905,5.5846 33.3810,11.1692 50.0715 16.7537c 0.3919,-1.1714 0.7839,-2.3428 1.1758 -3.5141c 0.9711,0.3249 1.9422,0.6498 2.9132 0.9748c 1.3992,-4.1817 2.7984,-8.3634 4.1976 -12.5451c -0.9711,-0.3249 -1.9422,-0.6498 -2.9132 -0.9748c 2.0023,-5.9843 4.0046,-11.9687 6.0069 -17.9530c 0.9711,0.3249 1.9422,0.6498 2.9133 0.9748c 1.3992,-4.1817 2.7983,-8.3634 4.1975 -12.5451c -0.9711,-0.3249 -1.9421,-0.6498 -2.9132 -0.9748c 0.3919,-1.1714 0.7839,-2.3428 1.1758 -3.5141c -16.6905,-5.5845 -33.3810,-11.1691 -50.0715 -16.7537c -0.3920,1.1714 -0.7839,2.3428 -1.1758 3.5142c -0.9711,-0.3249 -1.9422,-0.6498 -2.9133 -0.9748c -1.3992,4.1817 -2.7983,8.3634 -4.1975 12.5451c 0.9711,0.3249 1.9421,0.6498 2.9132 0.9748c -2.0023,5.9843 -4.0046,11.9687 -6.0070 17.9530c -0.9711,-0.3249 -1.9421,-0.6498 -2.9132 -0.9748c -1.3992,4.1817 -2.7983,8.3634 -4.1976 12.5451ZM 169.5464,810.5383 c 0.9711,0.3249 1.9421,0.6498 2.9132 0.9748c -0.3919,1.1714 -0.7839,2.3428 -1.1758 3.5141c 16.6905,5.5846 33.3810,11.1691 50.0715 16.7537c 0.3919,-1.1714 0.7839,-2.3428 1.1758 -3.5142c 0.9711,0.3249 1.9421,0.6498 2.9132 0.9748c 1.3992,-4.1817 2.7983,-8.3634 4.1975 -12.5451c -0.9711,-0.3249 -1.9421,-0.6498 -2.9132 -0.9748c 2.0023,-5.9843 4.0046,-11.9687 6.0070 -17.9530c 0.9711,0.3249 1.9421,0.6498 2.9132 0.9748c 1.3992,-4.1817 2.7984,-8.3634 4.1976 -12.5451c -0.9711,-0.3249 -1.9422,-0.6498 -2.9133 -0.9748c 0.3920,-1.1714 0.7839,-2.3428 1.1758 -3.5141c -16.6905,-5.5846 -33.3810,-11.1692 -50.0715 -16.7537c -0.3919,1.1714 -0.7839,2.3428 -1.1758 3.5141c -0.9711,-0.3249 -1.9422,-0.6498 -2.9132 -0.9748c -1.3992,4.1817 -2.7984,8.3634 -4.1976 12.5451c 0.9711,0.3249 1.9422,0.6499 2.9133 0.9748c -2.0023,5.9843 -4.0047,11.9687 -6.0070 17.9530c -0.9711,-0.3249 -1.9422,-0.6498 -2.9133 -0.9748c -1.3992,4.1817 -2.7983,8.3634 -4.1975 12.5451ZM 192.3323,742.4382 c 0.9711,0.3249 1.9422,0.6498 2.9133 0.9748c -0.3920,1.1714 -0.7839,2.3428 -1.1758 3.5141c 16.6905,5.5846 33.3810,11.1692 50.0715 16.7537c 0.3919,-1.1714 0.7839,-2.3428 1.1758 -3.5141c 0.9711,0.3249 1.9421,0.6498 2.9132 0.9748c 1.3992,-4.1817 2.7984,-8.3634 4.1976 -12.5451c -0.9711,-0.3249 -1.9422,-0.6498 -2.9133 -0.9748c 2.0023,-5.9843 4.0047,-11.9686 6.0070 -17.9529c 0.9711,0.3249 1.9422,0.6498 2.9133 0.9748c 1.3992,-4.1817 2.7983,-8.3634 4.1975 -12.5451c -0.9711,-0.3249 -1.9421,-0.6498 -2.9132 -0.9748c 0.3919,-1.1714 0.7839,-2.3428 1.1758 -3.5141c -16.6905,-5.5846 -33.3810,-11.1691 -50.0715 -16.7537c -0.3920,1.1714 -0.7839,2.3428 -1.1758 3.5141c -0.9711,-0.3249 -1.9422,-0.6498 -2.9133 -0.9747c -1.3992,4.1817 -2.7983,8.3634 -4.1975 12.5451c 0.9711,0.3249 1.9421,0.6498 2.9132 0.9748c -2.0023,5.9843 -4.0046,11.9687 -6.0070 17.9530c -0.9711,-0.3249 -1.9421,-0.6498 -2.9132 -0.9748c -1.3992,4.1817 -2.7984,8.3634 -4.1976 12.5451ZM 195.6723,958.7718 c 0.9711,0.3249 1.9422,0.6498 2.9132 0.9748c -0.3919,1.1714 -0.7839,2.3428 -1.1758 3.5142c 16.6905,5.5845 33.3810,11.1691 50.0715 16.7537c 0.3919,-1.1714 0.7839,-2.3428 1.1758 -3.5142c 0.9711,0.3249 1.9421,0.6498 2.9132 0.9748c 1.3992,-4.1817 2.7983,-8.3634 4.1976 -12.5451c -0.9711,-0.3249 -1.9422,-0.6498 -2.9133 -0.9748c 2.0023,-5.9843 4.0046,-11.9687 6.0070 -17.9530c 0.9711,0.3249 1.9422,0.6498 2.9132 0.9748c 1.3992,-4.1817 2.7984,-8.3634 4.1976 -12.5451c -0.9711,-0.3249 -1.9422,-0.6498 -2.9132 -0.9748c 0.3919,-1.1714 0.7839,-2.3428 1.1758 -3.5142c -16.6905,-5.5845 -33.3810,-11.1691 -50.0715 -16.7537c -0.3919,1.1714 -0.7839,2.3428 -1.1758 3.5141c -0.9711,-0.3249 -1.9421,-0.6498 -2.9132 -0.9748c -1.3992,4.1817 -2.7983,8.3634 -4.1976 12.5451c 0.9711,0.3249 1.9422,0.6498 2.9133 0.9748c -2.0023,5.9843 -4.0046,11.9687 -6.0070 17.9530c -0.9711,-0.3249 -1.9422,-0.6498 -2.9132 -0.9748c -1.3992,4.1817 -2.7984,8.3634 -4.1976 12.5451ZM 215.1183,674.3381 c 0.9711,0.3249 1.9421,0.6498 2.9132 0.9748c -0.3919,1.1714 -0.7839,2.3428 -1.1758 3.5142c 16.6905,5.5845 33.3810,11.1691 50.0715 16.7537c 0.3920,-1.1714 0.7839,-2.3428 1.1758 -3.5142c 0.9711,0.3249 1.9422,0.6498 2.9133 0.9748c 1.3992,-4.1817 2.7983,-8.3634 4.1975 -12.5451c -0.9711,-0.3249 -1.9421,-0.6498 -2.9132 -0.9748c 2.0023,-5.9843 4.0046,-11.9687 6.0070 -17.9530c 0.9711,0.3249 1.9421,0.6498 2.9132 0.9748c 1.3992,-4.1817 2.7983,-8.3634 4.1976 -12.5451c -0.9711,-0.3249 -1.9422,-0.6498 -2.9133 -0.9748c 0.3920,-1.1714 0.7839,-2.3428 1.1758 -3.5142c -16.6905,-5.5845 -33.3810,-11.1691 -50.0715 -16.7537c -0.3919,1.1714 -0.7839,2.3428 -1.1758 3.5141c -0.9711,-0.3249 -1.9422,-0.6498 -2.9132 -0.9748c -1.3992,4.1817 -2.7984,8.3634 -4.1976 12.5451c 0.9711,0.3249 1.9422,0.6498 2.9132 0.9748c -2.0023,5.9843 -4.0046,11.9687 -6.0069 17.9530c -0.9711,-0.3249 -1.9422,-0.6498 -2.9133 -0.9748c -1.3992,4.1817 -2.7983,8.3634 -4.1975 12.5451ZM 218.4583,890.6718 c 0.9711,0.3249 1.9421,0.6498 2.9132 0.9748c -0.3919,1.1714 -0.7839,2.3428 -1.1758 3.5141c 16.6905,5.5846 33.3810,11.1691 50.0715 16.7537c 0.3919,-1.1714 0.7839,-2.3428 1.1758 -3.5141c 0.9711,0.3249 1.9422,0.6498 2.9132 0.9748c 1.3992,-4.1817 2.7984,-8.3634 4.1976 -12.5451c -0.9711,-0.3249 -1.9422,-0.6498 -2.9132 -0.9748c 2.0023,-5.9843 4.0046,-11.9687 6.0070 -17.9530c 0.9711,0.3249 1.9421,0.6498 2.9132 0.9748c 1.3992,-4.1817 2.7983,-8.3634 4.1975 -12.5451c -0.9711,-0.3249 -1.9421,-0.6498 -2.9132 -0.9748c 0.3919,-1.1714 0.7839,-2.3428 1.1758 -3.5141c -16.6905,-5.5846 -33.3810,-11.1691 -50.0715 -16.7537c -0.3920,1.1714 -0.7839,2.3428 -1.1758 3.5141c -0.9711,-0.3249 -1.9422,-0.6498 -2.9133 -0.9748c -1.3992,4.1817 -2.7983,8.3634 -4.1975 12.5451c 0.9711,0.3249 1.9421,0.6498 2.9132 0.9748c -2.0023,5.9843 -4.0046,11.9687 -6.0070 17.9529c -0.9711,-0.3249 -1.9421,-0.6498 -2.9132 -0.9748c -1.3992,4.1817 -2.7983,8.3634 -4.1975 12.5451ZM 241.2442,822.5716 c 0.9711,0.3249 1.9422,0.6498 2.9132 0.9748c -0.3919,1.1714 -0.7839,2.3428 -1.1758 3.5142c 16.6905,5.5845 33.3810,11.1691 50.0715 16.7537c 0.3919,-1.1714 0.7839,-2.3428 1.1758 -3.5141c 0.9711,0.3249 1.9421,0.6498 2.9132 0.9748c 1.3992,-4.1817 2.7983,-8.3634 4.1975 -12.5451c -0.9711,-0.3249 -1.9421,-0.6498 -2.9132 -0.9748c 2.0023,-5.9843 4.0046,-11.9687 6.0070 -17.9530c 0.9711,0.3249 1.9422,0.6498 2.9132 0.9748c 1.3992,-4.1817 2.7984,-8.3634 4.1976 -12.5451c -0.9711,-0.3249 -1.9422,-0.6498 -2.9133 -0.9748c 0.3920,-1.1714 0.7839,-2.3428 1.1758 -3.5142c -16.6905,-5.5846 -33.3810,-11.1691 -50.0715 -16.7537c -0.3919,1.1714 -0.7839,2.3428 -1.1758 3.5142c -0.9711,-0.3249 -1.9421,-0.6498 -2.9132 -0.9748c -1.3992,4.1817 -2.7984,8.3634 -4.1976 12.5451c 0.9711,0.3249 1.9422,0.6498 2.9133 0.9748c -2.0023,5.9843 -4.0047,11.9687 -6.0070 17.9530c -0.9711,-0.3249 -1.9422,-0.6498 -2.9132 -0.9748c -1.3992,4.1817 -2.7984,8.3634 -4.1976 12.5451ZM 264.0302,754.4716 c 0.9711,0.3249 1.9422,0.6498 2.9133 0.9748c -0.3919,1.1714 -0.7839,2.3428 -1.1758 3.5141c 16.6905,5.5846 33.3810,11.1691 50.0715 16.7537c 0.3919,-1.1714 0.7839,-2.3428 1.1758 -3.5142c 0.9711,0.3249 1.9422,0.6498 2.9132 0.9748c 1.3992,-4.1817 2.7984,-8.3634 4.1976 -12.5451c -0.9711,-0.3249 -1.9422,-0.6498 -2.9132 -0.9748c 2.0023,-5.9843 4.0046,-11.9687 6.0069 -17.9530c 0.9711,0.3249 1.9422,0.6498 2.9133 0.9748c 1.3992,-4.1817 2.7983,-8.3634 4.1975 -12.5451c -0.9711,-0.3249 -1.9421,-0.6498 -2.9132 -0.9748c 0.3919,-1.1714 0.7839,-2.3428 1.1758 -3.5141c -16.6905,-5.5846 -33.3810,-11.1692 -50.0715 -16.7537c -0.3920,1.1714 -0.7839,2.3428 -1.1758 3.5141c -0.9711,-0.3249 -1.9422,-0.6498 -2.9133 -0.9748c -1.3992,4.1817 -2.7983,8.3634 -4.1975 12.5451c 0.9711,0.3250 1.9421,0.6498 2.9132 0.9748c -2.0023,5.9843 -4.0046,11.9687 -6.0070 17.9530c -0.9711,-0.3249 -1.9421,-0.6498 -2.9132 -0.9748c -1.3992,4.1817 -2.7983,8.3634 -4.1976 12.5451ZM 269.7687,963.6367 c 0.9711,0.3249 1.9421,0.6498 2.9132 0.9748c -0.3919,1.1714 -0.7839,2.3428 -1.1758 3.5141c 16.6905,5.5846 33.3810,11.1691 50.0715 16.7537c 0.3920,-1.1714 0.7839,-2.3428 1.1758 -3.5141c 0.9711,0.3249 1.9422,0.6498 2.9132 0.9748c 1.3992,-4.1817 2.7984,-8.3634 4.1976 -12.5451c -0.9711,-0.3249 -1.9422,-0.6498 -2.9132 -0.9748c 2.0023,-5.9843 4.0046,-11.9687 6.0070 -17.9530c 0.9711,0.3249 1.9421,0.6498 2.9132 0.9748c 1.3992,-4.1817 2.7983,-8.3634 4.1975 -12.5451c -0.9711,-0.3249 -1.9421,-0.6498 -2.9132 -0.9748c 0.3919,-1.1714 0.7839,-2.3428 1.1758 -3.5141c -16.6905,-5.5846 -33.3810,-11.1692 -50.0715 -16.7537c -0.3919,1.1714 -0.7839,2.3428 -1.1758 3.5141c -0.9711,-0.3249 -1.9422,-0.6498 -2.9133 -0.9748c -1.3992,4.1817 -2.7983,8.3634 -4.1975 12.5451c 0.9711,0.3249 1.9421,0.6498 2.9132 0.9748c -2.0023,5.9843 -4.0046,11.9687 -6.0070 17.9530c -0.9711,-0.3250 -1.9421,-0.6499 -2.9132 -0.9748c -1.3992,4.1817 -2.7983,8.3634 -4.1975 12.5451ZM 286.8162,686.3715 c 0.9711,0.3249 1.9422,0.6498 2.9132 0.9748c -0.3919,1.1714 -0.7839,2.3428 -1.1758 3.5141c 16.6905,5.5846 33.3810,11.1692 50.0715 16.7537c 0.3919,-1.1714 0.7839,-2.3428 1.1758 -3.5141c 0.9711,0.3249 1.9421,0.6498 2.9132 0.9748c 1.3992,-4.1817 2.7983,-8.3634 4.1975 -12.5451c -0.9711,-0.3250 -1.9421,-0.6498 -2.9132 -0.9748c 2.0023,-5.9843 4.0046,-11.9687 6.0070 -17.9530c 0.9711,0.3249 1.9421,0.6498 2.9132 0.9748c 1.3992,-4.1817 2.7984,-8.3634 4.1976 -12.5451c -0.9711,-0.3249 -1.9422,-0.6498 -2.9133 -0.9748c 0.3920,-1.1714 0.7839,-2.3428 1.1758 -3.5141c -16.6905,-5.5846 -33.3810,-11.1691 -50.0715 -16.7537c -0.3919,1.1714 -0.7839,2.3428 -1.1758 3.5142c -0.9711,-0.3249 -1.9422,-0.6498 -2.9132 -0.9748c -1.3992,4.1817 -2.7984,8.3634 -4.1976 12.5451c 0.9711,0.3249 1.9422,0.6498 2.9133 0.9748c -2.0023,5.9843 -4.0047,11.9687 -6.0070 17.9530c -0.9711,-0.3249 -1.9422,-0.6498 -2.9133 -0.9748c -1.3992,4.1817 -2.7983,8.3634 -4.1975 12.5451ZM 292.5547,895.5366 c 0.9711,0.3249 1.9422,0.6498 2.9132 0.9748c -0.3919,1.1714 -0.7839,2.3428 -1.1758 3.5142c 16.6905,5.5845 33.3810,11.1691 50.0715 16.7537c 0.3919,-1.1714 0.7839,-2.3428 1.1758 -3.5141c 0.9711,0.3249 1.9421,0.6498 2.9132 0.9748c 1.3992,-4.1817 2.7983,-8.3634 4.1976 -12.5451c -0.9711,-0.3249 -1.9422,-0.6498 -2.9133 -0.9748c 2.0023,-5.9843 4.0046,-11.9687 6.0070 -17.9530c 0.9711,0.3249 1.9422,0.6498 2.9132 0.9748c 1.3992,-4.1817 2.7984,-8.3634 4.1976 -12.5451c -0.9711,-0.3249 -1.9422,-0.6498 -2.9133 -0.9748c 0.3920,-1.1714 0.7839,-2.3428 1.1758 -3.5141c -16.6905,-5.5845 -33.3810,-11.1691 -50.0715 -16.7537c -0.3919,1.1714 -0.7839,2.3428 -1.1758 3.5142c -0.9711,-0.3249 -1.9421,-0.6498 -2.9132 -0.9748c -1.3992,4.1817 -2.7983,8.3634 -4.1976 12.5451c 0.9711,0.3249 1.9422,0.6498 2.9133 0.9748c -2.0023,5.9843 -4.0047,11.9687 -6.0070 17.9530c -0.9711,-0.3249 -1.9422,-0.6498 -2.9132 -0.9748c -1.3992,4.1817 -2.7984,8.3634 -4.1976 12.5451ZM 315.3406,827.4366 c 0.9711,0.3249 1.9422,0.6498 2.9133 0.9748c -0.3919,1.1714 -0.7839,2.3428 -1.1758 3.5141c 16.6905,5.5846 33.3810,11.1691 50.0715 16.7537c 0.3919,-1.1714 0.7839,-2.3428 1.1758 -3.5142c 0.9711,0.3249 1.9422,0.6498 2.9132 0.9748c 1.3992,-4.1817 2.7984,-8.3634 4.1976 -12.5451c -0.9711,-0.3249 -1.9422,-0.6498 -2.9132 -0.9748c 2.0023,-5.9843 4.0046,-11.9687 6.0069 -17.9530c 0.9711,0.3249 1.9422,0.6498 2.9133 0.9748c 1.3992,-4.1817 2.7983,-8.3634 4.1975 -12.5451c -0.9711,-0.3249 -1.9421,-0.6498 -2.9132 -0.9748c 0.3919,-1.1714 0.7839,-2.3428 1.1758 -3.5141c -16.6905,-5.5846 -33.3810,-11.1692 -50.0715 -16.7537c -0.3920,1.1714 -0.7839,2.3428 -1.1758 3.5141c -0.9711,-0.3249 -1.9422,-0.6498 -2.9133 -0.9748c -1.3992,4.1817 -2.7983,8.3634 -4.1975 12.5451c 0.9711,0.3249 1.9421,0.6499 2.9132 0.9748c -2.0023,5.9843 -4.0046,11.9687 -6.0070 17.9530c -0.9711,-0.3249 -1.9421,-0.6498 -2.9132 -0.9748c -1.3992,4.1817 -2.7983,8.3634 -4.1976 12.5451ZM 330.6732,1007.9280 c 0.9711,0.3249 1.9422,0.6498 2.9132 0.9748c -0.3919,1.1714 -0.7839,2.3428 -1.1758 3.5141c 16.6905,5.5846 33.3810,11.1691 50.0715 16.7537c 0.3919,-1.1714 0.7839,-2.3428 1.1758 -3.5141c 0.9711,0.3249 1.9421,0.6498 2.9132 0.9748c 1.3992,-4.1817 2.7983,-8.3634 4.1976 -12.5451c -0.9711,-0.3249 -1.9422,-0.6498 -2.9133 -0.9748c 2.0023,-5.9843 4.0046,-11.9686 6.0070 -17.9529c 0.9711,0.3249 1.9422,0.6498 2.9132 0.9748c 1.3992,-4.1817 2.7984,-8.3634 4.1976 -12.5451c -0.9711,-0.3249 -1.9422,-0.6498 -2.9132 -0.9748c 0.3919,-1.1714 0.7839,-2.3428 1.1758 -3.5141c -16.6905,-5.5846 -33.3810,-11.1691 -50.0715 -16.7537c -0.3919,1.1714 -0.7839,2.3428 -1.1758 3.5141c -0.9711,-0.3249 -1.9421,-0.6498 -2.9132 -0.9748c -1.3992,4.1817 -2.7983,8.3634 -4.1976 12.5451c 0.9711,0.3249 1.9422,0.6498 2.9133 0.9748c -2.0023,5.9843 -4.0046,11.9687 -6.0070 17.9530c -0.9711,-0.3249 -1.9422,-0.6498 -2.9132 -0.9748c -1.3992,4.1817 -2.7984,8.3634 -4.1976 12.5451ZM 338.1266,759.3365 c 0.9711,0.3249 1.9422,0.6498 2.9132 0.9748c -0.3919,1.1714 -0.7839,2.3428 -1.1758 3.5141c 16.6905,5.5846 33.3810,11.1692 50.0715 16.7537c 0.3919,-1.1714 0.7839,-2.3428 1.1758 -3.5141c 0.9711,0.3249 1.9421,0.6498 2.9132 0.9748c 1.3992,-4.1817 2.7983,-8.3634 4.1975 -12.5451c -0.9711,-0.3249 -1.9421,-0.6498 -2.9132 -0.9748c 2.0023,-5.9843 4.0046,-11.9686 6.0070 -17.9529c 0.9711,0.3249 1.9422,0.6498 2.9132 0.9748c 1.3992,-4.1817 2.7984,-8.3634 4.1976 -12.5451c -0.9711,-0.3249 -1.9422,-0.6498 -2.9133 -0.9748c 0.3920,-1.1714 0.7839,-2.3428 1.1758 -3.5141c -16.6905,-5.5846 -33.3810,-11.1691 -50.0715 -16.7537c -0.3919,1.1714 -0.7839,2.3428 -1.1758 3.5142c -0.9711,-0.3249 -1.9421,-0.6498 -2.9132 -0.9748c -1.3992,4.1817 -2.7984,8.3634 -4.1976 12.5451c 0.9711,0.3249 1.9422,0.6498 2.9133 0.9748c -2.0023,5.9843 -4.0047,11.9687 -6.0070 17.9530c -0.9711,-0.3249 -1.9422,-0.6498 -2.9133 -0.9748c -1.3992,4.1817 -2.7983,8.3634 -4.1975 12.5451ZM 353.4592,939.8279 c 0.9711,0.3249 1.9421,0.6498 2.9132 0.9748c -0.3920,1.1714 -0.7839,2.3428 -1.1758 3.5142c 16.6905,5.5845 33.3810,11.1691 50.0715 16.7537c 0.3920,-1.1714 0.7839,-2.3428 1.1758 -3.5141c 0.9711,0.3249 1.9422,0.6498 2.9132 0.9748c 1.3992,-4.1817 2.7984,-8.3634 4.1976 -12.5451c -0.9711,-0.3249 -1.9422,-0.6498 -2.9132 -0.9748c 2.0023,-5.9843 4.0046,-11.9687 6.0069 -17.9530c 0.9711,0.3249 1.9422,0.6498 2.9133 0.9748c 1.3992,-4.1817 2.7983,-8.3634 4.1975 -12.5451c -0.9711,-0.3249 -1.9421,-0.6498 -2.9132 -0.9748c 0.3919,-1.1714 0.7839,-2.3428 1.1758 -3.5142c -16.6905,-5.5845 -33.3810,-11.1691 -50.0715 -16.7537c -0.3920,1.1714 -0.7839,2.3428 -1.1758 3.5142c -0.9711,-0.3249 -1.9422,-0.6498 -2.9133 -0.9748c -1.3992,4.1817 -2.7983,8.3634 -4.1975 12.5451c 0.9711,0.3249 1.9421,0.6498 2.9132 0.9748c -2.0023,5.9843 -4.0046,11.9687 -6.0070 17.9530c -0.9711,-0.3249 -1.9421,-0.6498 -2.9132 -0.9748c -1.3992,4.1817 -2.7983,8.3634 -4.1975 12.5451ZM 360.9126,691.2363 c 0.9711,0.3249 1.9422,0.6498 2.9133 0.9748c -0.3920,1.1714 -0.7839,2.3428 -1.1758 3.5142c 16.6905,5.5845 33.3810,11.1691 50.0715 16.7537c 0.3919,-1.1714 0.7839,-2.3428 1.1758 -3.5142c 0.9711,0.3249 1.9422,0.6498 2.9132 0.9748c 1.3992,-4.1817 2.7984,-8.3634 4.1976 -12.5451c -0.9711,-0.3249 -1.9422,-0.6498 -2.9133 -0.9748c 2.0023,-5.9843 4.0047,-11.9687 6.0070 -17.9530c 0.9711,0.3249 1.9422,0.6498 2.9133 0.9748c 1.3992,-4.1817 2.7983,-8.3634 4.1975 -12.5451c -0.9711,-0.3249 -1.9421,-0.6498 -2.9132 -0.9748c 0.3919,-1.1714 0.7839,-2.3428 1.1758 -3.5142c -16.6905,-5.5845 -33.3810,-11.1691 -50.0715 -16.7537c -0.3920,1.1714 -0.7839,2.3428 -1.1758 3.5141c -0.9711,-0.3249 -1.9422,-0.6498 -2.9133 -0.9748c -1.3992,4.1817 -2.7983,8.3634 -4.1975 12.5451c 0.9711,0.3249 1.9421,0.6498 2.9132 0.9748c -2.0023,5.9843 -4.0046,11.9687 -6.0070 17.9530c -0.9711,-0.3249 -1.9421,-0.6498 -2.9132 -0.9748c -1.3992,4.1817 -2.7984,8.3634 -4.1976 12.5451ZM 376.2452,871.7278 c 0.9711,0.3249 1.9422,0.6498 2.9132 0.9748c -0.3919,1.1714 -0.7839,2.3428 -1.1758 3.5141c 16.6905,5.5846 33.3810,11.1691 50.0715 16.7537c 0.3919,-1.1714 0.7839,-2.3428 1.1758 -3.5142c 0.9711,0.3249 1.9421,0.6499 2.9132 0.9748c 1.3992,-4.1817 2.7983,-8.3634 4.1976 -12.5451c -0.9711,-0.3249 -1.9422,-0.6498 -2.9133 -0.9748c 2.0023,-5.9843 4.0046,-11.9687 6.0070 -17.9530c 0.9711,0.3249 1.9422,0.6498 2.9132 0.9748c 1.3992,-4.1817 2.7984,-8.3634 4.1976 -12.5451c -0.9711,-0.3249 -1.9422,-0.6498 -2.9133 -0.9748c 0.3920,-1.1714 0.7839,-2.3428 1.1758 -3.5141c -16.6905,-5.5846 -33.3810,-11.1692 -50.0715 -16.7537c -0.3919,1.1714 -0.7839,2.3428 -1.1758 3.5141c -0.9711,-0.3249 -1.9421,-0.6498 -2.9132 -0.9748c -1.3992,4.1817 -2.7984,8.3634 -4.1976 12.5451c 0.9711,0.3249 1.9422,0.6498 2.9133 0.9748c -2.0023,5.9843 -4.0047,11.9687 -6.0070 17.9529c -0.9711,-0.3249 -1.9422,-0.6498 -2.9133 -0.9748c -1.3992,4.1817 -2.7983,8.3634 -4.1975 12.5451ZM 392.7770,1048.6350 c 0.9711,0.3249 1.9421,0.6498 2.9132 0.9748c -0.3919,1.1714 -0.7839,2.3428 -1.1758 3.5142c 16.6905,5.5845 33.3810,11.1691 50.0715 16.7537c 0.3920,-1.1714 0.7839,-2.3428 1.1758 -3.5142c 0.9711,0.3249 1.9422,0.6498 2.9133 0.9748c 1.3992,-4.1817 2.7983,-8.3634 4.1975 -12.5451c -0.9711,-0.3249 -1.9421,-0.6498 -2.9132 -0.9748c 2.0023,-5.9843 4.0046,-11.9687 6.0070 -17.9530c 0.9711,0.3249 1.9421,0.6498 2.9132 0.9748c 1.3992,-4.1817 2.7983,-8.3634 4.1976 -12.5451c -0.9711,-0.3249 -1.9422,-0.6498 -2.9133 -0.9748c 0.3920,-1.1714 0.7839,-2.3428 1.1758 -3.5142c -16.6905,-5.5845 -33.3810,-11.1691 -50.0715 -16.7537c -0.3919,1.1714 -0.7839,2.3428 -1.1758 3.5141c -0.9711,-0.3249 -1.9422,-0.6498 -2.9132 -0.9748c -1.3992,4.1817 -2.7984,8.3634 -4.1976 12.5451c 0.9711,0.3249 1.9422,0.6498 2.9132 0.9748c -2.0023,5.9843 -4.0046,11.9687 -6.0069 17.9530c -0.9711,-0.3249 -1.9422,-0.6498 -2.9133 -0.9748c -1.3992,4.1817 -2.7983,8.3634 -4.1975 12.5451ZM 399.0311,803.6277 c 0.9711,0.3249 1.9422,0.6498 2.9133 0.9748c -0.3920,1.1714 -0.7839,2.3428 -1.1758 3.5142c 16.6905,5.5845 33.3810,11.1691 50.0715 16.7537c 0.3919,-1.1714 0.7839,-2.3428 1.1758 -3.5141c 0.9711,0.3249 1.9422,0.6498 2.9132 0.9748c 1.3992,-4.1817 2.7984,-8.3634 4.1976 -12.5451c -0.9711,-0.3249 -1.9422,-0.6498 -2.9132 -0.9748c 2.0023,-5.9843 4.0046,-11.9687 6.0069 -17.9530c 0.9711,0.3249 1.9422,0.6498 2.9133 0.9748c 1.3992,-4.1817 2.7983,-8.3634 4.1975 -12.5451c -0.9711,-0.3249 -1.9421,-0.6498 -2.9132 -0.9748c 0.3919,-1.1714 0.7839,-2.3428 1.1758 -3.5141c -16.6905,-5.5846 -33.3810,-11.1691 -50.0715 -16.7537c -0.3920,1.1714 -0.7839,2.3428 -1.1758 3.5142c -0.9711,-0.3249 -1.9422,-0.6498 -2.9133 -0.9748c -1.3992,4.1817 -2.7983,8.3634 -4.1975 12.5451c 0.9711,0.3249 1.9421,0.6498 2.9132 0.9748c -2.0023,5.9843 -4.0046,11.9687 -6.0070 17.9530c -0.9711,-0.3249 -1.9421,-0.6498 -2.9132 -0.9748c -1.3992,4.1817 -2.7983,8.3634 -4.1976 12.5451ZM 415.5630,980.5350 c 0.9711,0.3249 1.9422,0.6498 2.9133 0.9748c -0.3920,1.1714 -0.7839,2.3428 -1.1758 3.5141c 16.6905,5.5846 33.3810,11.1691 50.0715 16.7537c 0.3919,-1.1714 0.7839,-2.3428 1.1758 -3.5141c 0.9711,0.3249 1.9421,0.6498 2.9132 0.9748c 1.3992,-4.1817 2.7984,-8.3634 4.1976 -12.5451c -0.9711,-0.3249 -1.9422,-0.6498 -2.9133 -0.9748c 2.0023,-5.9843 4.0047,-11.9687 6.0070 -17.9530c 0.9711,0.3249 1.9422,0.6499 2.9133 0.9748c 1.3992,-4.1817 2.7983,-8.3634 4.1975 -12.5451c -0.9711,-0.3249 -1.9422,-0.6498 -2.9132 -0.9748c 0.3919,-1.1714 0.7839,-2.3428 1.1758 -3.5141c -16.6905,-5.5846 -33.3810,-11.1691 -50.0715 -16.7537c -0.3919,1.1714 -0.7839,2.3428 -1.1758 3.5141c -0.9711,-0.3249 -1.9421,-0.6498 -2.9132 -0.9748c -1.3992,4.1817 -2.7983,8.3634 -4.1975 12.5451c 0.9711,0.3249 1.9421,0.6498 2.9132 0.9748c -2.0023,5.9843 -4.0046,11.9687 -6.0070 17.9530c -0.9711,-0.3249 -1.9422,-0.6499 -2.9132 -0.9748c -1.3992,4.1817 -2.7984,8.3634 -4.1976 12.5451ZM 421.8171,735.5276 c 0.9711,0.3249 1.9421,0.6498 2.9132 0.9748c -0.3919,1.1714 -0.7839,2.3428 -1.1758 3.5141c 16.6905,5.5846 33.3810,11.1691 50.0715 16.7537c 0.3919,-1.1714 0.7839,-2.3428 1.1758 -3.5142c 0.9711,0.3249 1.9422,0.6498 2.9133 0.9748c 1.3992,-4.1817 2.7983,-8.3634 4.1975 -12.5451c -0.9711,-0.3249 -1.9421,-0.6498 -2.9132 -0.9748c 2.0023,-5.9843 4.0046,-11.9687 6.0070 -17.9530c 0.9711,0.3249 1.9422,0.6498 2.9132 0.9748c 1.3992,-4.1817 2.7984,-8.3634 4.1976 -12.5451c -0.9711,-0.3249 -1.9422,-0.6498 -2.9133 -0.9748c 0.3920,-1.1714 0.7839,-2.3428 1.1758 -3.5142c -16.6905,-5.5845 -33.3810,-11.1691 -50.0715 -16.7537c -0.3919,1.1714 -0.7839,2.3428 -1.1758 3.5141c -0.9711,-0.3249 -1.9421,-0.6498 -2.9132 -0.9748c -1.3992,4.1817 -2.7984,8.3634 -4.1976 12.5451c 0.9711,0.3249 1.9422,0.6498 2.9133 0.9748c -2.0023,5.9843 -4.0047,11.9687 -6.0070 17.9530c -0.9711,-0.3249 -1.9422,-0.6498 -2.9133 -0.9748c -1.3992,4.1817 -2.7983,8.3634 -4.1975 12.5451ZM 422.2578,1094.3611 c 0.0000,3.1310 2.5382,5.6693 5.6693 5.6693c 3.1311,-0.0000 5.6693,-2.5382 5.6693 -5.6693c 0.0000,-3.1311 -2.5382,-5.6693 -5.6693 -5.6693c -3.1310,-0.0000 -5.6693,2.5382 -5.6693 5.6693ZM 438.3490,912.4349 c 0.9711,0.3249 1.9421,0.6498 2.9132 0.9748c -0.3919,1.1714 -0.7839,2.3428 -1.1758 3.5142c 16.6905,5.5845 33.3810,11.1691 50.0715 16.7537c 0.3920,-1.1714 0.7839,-2.3428 1.1758 -3.5141c 0.9711,0.3249 1.9422,0.6498 2.9133 0.9748c 1.3992,-4.1817 2.7983,-8.3634 4.1975 -12.5451c -0.9711,-0.3249 -1.9422,-0.6498 -2.9132 -0.9748c 2.0023,-5.9843 4.0046,-11.9687 6.0070 -17.9530c 0.9711,0.3249 1.9421,0.6498 2.9132 0.9748c 1.3992,-4.1817 2.7983,-8.3634 4.1976 -12.5451c -0.9711,-0.3249 -1.9422,-0.6498 -2.9133 -0.9747c 0.3919,-1.1714 0.7839,-2.3428 1.1758 -3.5142c -16.6905,-5.5845 -33.3810,-11.1691 -50.0715 -16.7537c -0.3919,1.1714 -0.7839,2.3428 -1.1758 3.5142c -0.9711,-0.3249 -1.9422,-0.6498 -2.9133 -0.9748c -1.3992,4.1817 -2.7983,8.3634 -4.1975 12.5451c 0.9711,0.3249 1.9422,0.6498 2.9132 0.9748c -2.0023,5.9843 -4.0046,11.9687 -6.0069 17.9530c -0.9711,-0.3249 -1.9422,-0.6498 -2.9133 -0.9748c -1.3992,4.1817 -2.7983,8.3634 -4.1975 12.5451ZM 461.1349,844.3348 c 0.9711,0.3249 1.9422,0.6498 2.9132 0.9748c -0.3919,1.1714 -0.7839,2.3428 -1.1758 3.5141c 16.6905,5.5846 33.3810,11.1691 50.0715 16.7537c 0.3919,-1.1714 0.7839,-2.3428 1.1758 -3.5142c 0.9711,0.3249 1.9421,0.6498 2.9132 0.9748c 1.3992,-4.1817 2.7983,-8.3634 4.1976 -12.5451c -0.9711,-0.3249 -1.9422,-0.6498 -2.9133 -0.9748c 2.0023,-5.9843 4.0046,-11.9687 6.0070 -17.9530c 0.9711,0.3249 1.9422,0.6498 2.9132 0.9748c 1.3992,-4.1817 2.7984,-8.3634 4.1976 -12.5451c -0.9711,-0.3249 -1.9422,-0.6498 -2.9132 -0.9748c 0.3919,-1.1714 0.7839,-2.3428 1.1758 -3.5141c -16.6905,-5.5846 -33.3810,-11.1692 -50.0715 -16.7537c -0.3919,1.1714 -0.7839,2.3428 -1.1758 3.5141c -0.9711,-0.3249 -1.9421,-0.6498 -2.9132 -0.9748c -1.3992,4.1817 -2.7983,8.3634 -4.1976 12.5451c 0.9711,0.3250 1.9422,0.6499 2.9133 0.9748c -2.0023,5.9843 -4.0046,11.9687 -6.0070 17.9530c -0.9711,-0.3249 -1.9422,-0.6498 -2.9132 -0.9748c -1.3992,4.1817 -2.7984,8.3634 -4.1976 12.5451ZM 472.2701,1037.3710 c 0.9711,0.3249 1.9422,0.6498 2.9132 0.9747c -0.3919,1.1714 -0.7839,2.3428 -1.1758 3.5142c 16.6905,5.5846 33.3810,11.1691 50.0715 16.7537c 0.3919,-1.1714 0.7839,-2.3428 1.1758 -3.5142c 0.9711,0.3249 1.9421,0.6498 2.9132 0.9748c 1.3992,-4.1817 2.7983,-8.3634 4.1976 -12.5451c -0.9711,-0.3249 -1.9422,-0.6498 -2.9133 -0.9748c 2.0023,-5.9843 4.0046,-11.9687 6.0070 -17.9530c 0.9711,0.3249 1.9422,0.6498 2.9132 0.9748c 1.3992,-4.1817 2.7984,-8.3634 4.1976 -12.5451c -0.9711,-0.3249 -1.9422,-0.6498 -2.9132 -0.9748c 0.3919,-1.1714 0.7839,-2.3428 1.1758 -3.5142c -16.6905,-5.5845 -33.3810,-11.1691 -50.0715 -16.7537c -0.3919,1.1714 -0.7839,2.3428 -1.1758 3.5141c -0.9711,-0.3249 -1.9421,-0.6498 -2.9132 -0.9748c -1.3992,4.1817 -2.7983,8.3634 -4.1976 12.5451c 0.9711,0.3249 1.9422,0.6498 2.9133 0.9748c -2.0023,5.9843 -4.0046,11.9687 -6.0070 17.9530c -0.9711,-0.3249 -1.9422,-0.6498 -2.9132 -0.9748c -1.3992,4.1817 -2.7984,8.3634 -4.1976 12.5451ZM 483.9209,776.2347 c 0.9711,0.3249 1.9421,0.6498 2.9132 0.9748c -0.3919,1.1714 -0.7839,2.3428 -1.1758 3.5141c 16.6905,5.5846 33.3810,11.1692 50.0715 16.7537c 0.3920,-1.1714 0.7839,-2.3428 1.1758 -3.5141c 0.9711,0.3249 1.9422,0.6498 2.9132 0.9748c 1.3992,-4.1817 2.7984,-8.3634 4.1976 -12.5451c -0.9711,-0.3250 -1.9422,-0.6498 -2.9132 -0.9748c 2.0023,-5.9843 4.0046,-11.9687 6.0069 -17.9530c 0.9711,0.3249 1.9422,0.6498 2.9133 0.9748c 1.3992,-4.1817 2.7983,-8.3634 4.1975 -12.5451c -0.9711,-0.3249 -1.9421,-0.6498 -2.9132 -0.9748c 0.3919,-1.1714 0.7839,-2.3428 1.1758 -3.5141c -16.6905,-5.5846 -33.3810,-11.1691 -50.0715 -16.7537c -0.3920,1.1714 -0.7839,2.3428 -1.1758 3.5142c -0.9711,-0.3249 -1.9422,-0.6498 -2.9133 -0.9748c -1.3992,4.1817 -2.7983,8.3634 -4.1975 12.5451c 0.9711,0.3249 1.9421,0.6498 2.9132 0.9748c -2.0023,5.9843 -4.0046,11.9687 -6.0070 17.9530c -0.9711,-0.3249 -1.9421,-0.6498 -2.9132 -0.9748c -1.3992,4.1817 -2.7983,8.3634 -4.1975 12.5451ZM 528.4513,922.1520 c 0.0000,36.5291 29.6127,66.1417 66.1417 66.1417c 36.5291,-0.0000 66.1417,-29.6127 66.1417 -66.1417c 0.0000,-36.5291 -29.6127,-66.1417 -66.1417 -66.1417c -36.5291,-0.0000 -66.1417,29.6127 -66.1417 66.1417ZM 532.2308,664.4404 c 0.0000,3.1310 2.5382,5.6693 5.6693 5.6693c 3.1311,-0.0000 5.6693,-2.5382 5.6693 -5.6693c 0.0000,-3.1310 -2.5382,-5.6693 -5.6693 -5.6693c -3.1310,-0.0000 -5.6693,2.5382 -5.6693 5.6693ZM 634.9652,751.8947 c 1.3992,4.1817 2.7983,8.3634 4.1975 12.5451c 0.9711,-0.3249 1.9422,-0.6498 2.9133 -0.9748c 2.0023,5.9843 4.0046,11.9687 6.0069 17.9530c -0.9711,0.3249 -1.9421,0.6498 -2.9132 0.9748c 1.3992,4.1817 2.7983,8.3634 4.1976 12.5451c 0.9711,-0.3249 1.9421,-0.6498 2.9132 -0.9748c 0.3919,1.1714 0.7839,2.3428 1.1758 3.5141c 16.6905,-5.5845 33.3810,-11.1691 50.0715 -16.7537c -0.3919,-1.1714 -0.7839,-2.3428 -1.1758 -3.5141c 0.9711,-0.3249 1.9422,-0.6498 2.9132 -0.9748c -1.3992,-4.1817 -2.7983,-8.3634 -4.1975 -12.5451c -0.9711,0.3249 -1.9422,0.6498 -2.9132 0.9748c -2.0023,-5.9843 -4.0047,-11.9687 -6.0070 -17.9530c 0.9711,-0.3249 1.9421,-0.6498 2.9132 -0.9748c -1.3992,-4.1817 -2.7983,-8.3634 -4.1975 -12.5451c -0.9711,0.3249 -1.9422,0.6498 -2.9133 0.9748c -0.3919,-1.1714 -0.7839,-2.3428 -1.1758 -3.5142c -16.6905,5.5846 -33.3810,11.1691 -50.0715 16.7537c 0.3919,1.1714 0.7839,2.3428 1.1758 3.5141c -0.9711,0.3249 -1.9422,0.6498 -2.9132 0.9748ZM 645.6167,664.4404 c 0.0000,3.1310 2.5382,5.6693 5.6693 5.6693c 3.1310,-0.0000 5.6693,-2.5382 5.6693 -5.6693c 0.0000,-3.1310 -2.5382,-5.6693 -5.6693 -5.6693c -3.1311,-0.0000 -5.6693,2.5382 -5.6693 5.6693ZM 646.6160,1013.0310 c 1.3992,4.1817 2.7983,8.3634 4.1976 12.5451c 0.9711,-0.3249 1.9421,-0.6498 2.9132 -0.9748c 2.0023,5.9843 4.0046,11.9687 6.0070 17.9530c -0.9711,0.3249 -1.9422,0.6498 -2.9133 0.9748c 1.3992,4.1817 2.7984,8.3634 4.1976 12.5451c 0.9711,-0.3249 1.9422,-0.6498 2.9132 -0.9748c 0.3920,1.1714 0.7839,2.3428 1.1758 3.5142c 16.6905,-5.5846 33.3810,-11.1691 50.0715 -16.7537c -0.3920,-1.1714 -0.7839,-2.3428 -1.1758 -3.5142c 0.9711,-0.3249 1.9421,-0.6498 2.9132 -0.9747c -1.3992,-4.1817 -2.7983,-8.3634 -4.1976 -12.5451c -0.9711,0.3249 -1.9421,0.6498 -2.9132 0.9748c -2.0023,-5.9843 -4.0046,-11.9687 -6.0070 -17.9530c 0.9711,-0.3249 1.9422,-0.6498 2.9133 -0.9748c -1.3992,-4.1817 -2.7984,-8.3634 -4.1976 -12.5451c -0.9711,0.3249 -1.9422,0.6498 -2.9132 0.9748c -0.3920,-1.1714 -0.7839,-2.3428 -1.1758 -3.5141c -16.6905,5.5845 -33.3810,11.1691 -50.0715 16.7537c 0.3920,1.1714 0.7839,2.3428 1.1758 3.5142c -0.9711,0.3249 -1.9421,0.6498 -2.9132 0.9748ZM 657.7511,819.9948 c 1.3992,4.1817 2.7983,8.3634 4.1976 12.5451c 0.9711,-0.3249 1.9421,-0.6498 2.9132 -0.9748c 2.0023,5.9843 4.0046,11.9687 6.0070 17.9530c -0.9711,0.3249 -1.9422,0.6498 -2.9133 0.9748c 1.3992,4.1817 2.7984,8.3634 4.1976 12.5451c 0.9711,-0.3249 1.9422,-0.6498 2.9132 -0.9748c 0.3920,1.1714 0.7839,2.3428 1.1758 3.5142c 16.6905,-5.5846 33.3810,-11.1691 50.0715 -16.7537c -0.3919,-1.1714 -0.7839,-2.3428 -1.1758 -3.5141c 0.9711,-0.3249 1.9421,-0.6498 2.9132 -0.9748c -1.3992,-4.1817 -2.7983,-8.3634 -4.1976 -12.5451c -0.9711,0.3249 -1.9421,0.6498 -2.9132 0.9748c -2.0023,-5.9843 -4.0046,-11.9687 -6.0070 -17.9530c 0.9711,-0.3249 1.9422,-0.6498 2.9133 -0.9748c -1.3992,-4.1817 -2.7984,-8.3634 -4.1976 -12.5451c -0.9711,0.3249 -1.9422,0.6498 -2.9132 0.9748c -0.3920,-1.1714 -0.7839,-2.3428 -1.1758 -3.5141c -16.6905,5.5845 -33.3810,11.1691 -50.0715 16.7537c 0.3920,1.1714 0.7839,2.3428 1.1758 3.5141c -0.9711,0.3249 -1.9421,0.6498 -2.9132 0.9748ZM 680.5371,888.0949 c 1.3992,4.1817 2.7984,8.3634 4.1976 12.5451c 0.9711,-0.3249 1.9422,-0.6498 2.9132 -0.9748c 2.0023,5.9843 4.0047,11.9687 6.0070 17.9530c -0.9711,0.3249 -1.9421,0.6498 -2.9132 0.9748c 1.3992,4.1817 2.7983,8.3634 4.1975 12.5451c 0.9711,-0.3249 1.9422,-0.6498 2.9133 -0.9748c 0.3919,1.1714 0.7839,2.3428 1.1758 3.5141c 16.6905,-5.5845 33.3810,-11.1691 50.0715 -16.7537c -0.3919,-1.1714 -0.7839,-2.3428 -1.1758 -3.5142c 0.9711,-0.3249 1.9422,-0.6498 2.9132 -0.9748c -1.3992,-4.1817 -2.7983,-8.3634 -4.1975 -12.5451c -0.9711,0.3249 -1.9422,0.6498 -2.9133 0.9748c -2.0023,-5.9843 -4.0046,-11.9687 -6.0069 -17.9530c 0.9711,-0.3249 1.9421,-0.6498 2.9132 -0.9748c -1.3992,-4.1817 -2.7983,-8.3634 -4.1975 -12.5451c -0.9711,0.3249 -1.9422,0.6498 -2.9133 0.9748c -0.3919,-1.1714 -0.7839,-2.3428 -1.1758 -3.5142c -16.6905,5.5846 -33.3810,11.1692 -50.0715 16.7537c 0.3919,1.1714 0.7839,2.3428 1.1758 3.5142c -0.9711,0.3249 -1.9422,0.6498 -2.9133 0.9747ZM 697.0689,711.1876 c 1.3992,4.1817 2.7984,8.3634 4.1976 12.5451c 0.9711,-0.3249 1.9421,-0.6498 2.9132 -0.9748c 2.0023,5.9843 4.0046,11.9687 6.0070 17.9530c -0.9711,0.3249 -1.9422,0.6498 -2.9132 0.9748c 1.3992,4.1817 2.7983,8.3634 4.1975 12.5451c 0.9711,-0.3249 1.9422,-0.6498 2.9133 -0.9748c 0.3919,1.1714 0.7839,2.3428 1.1758 3.5142c 16.6905,-5.5846 33.3810,-11.1691 50.0715 -16.7537c -0.3920,-1.1714 -0.7839,-2.3428 -1.1758 -3.5141c 0.9711,-0.3249 1.9421,-0.6498 2.9132 -0.9748c -1.3992,-4.1817 -2.7983,-8.3634 -4.1975 -12.5451c -0.9711,0.3249 -1.9422,0.6498 -2.9133 0.9748c -2.0023,-5.9843 -4.0046,-11.9687 -6.0070 -17.9530c 0.9711,-0.3249 1.9422,-0.6498 2.9133 -0.9748c -1.3992,-4.1817 -2.7984,-8.3634 -4.1976 -12.5451c -0.9711,0.3249 -1.9421,0.6498 -2.9132 0.9748c -0.3919,-1.1714 -0.7839,-2.3428 -1.1758 -3.5141c -16.6905,5.5845 -33.3810,11.1691 -50.0715 16.7537c 0.3919,1.1714 0.7839,2.3428 1.1758 3.5142c -0.9711,0.3249 -1.9422,0.6498 -2.9133 0.9748ZM 703.3231,956.1950 c 1.3992,4.1817 2.7983,8.3634 4.1975 12.5451c 0.9711,-0.3249 1.9422,-0.6498 2.9133 -0.9748c 2.0023,5.9843 4.0046,11.9687 6.0070 17.9530c -0.9711,0.3249 -1.9422,0.6498 -2.9133 0.9748c 1.3992,4.1817 2.7984,8.3634 4.1976 12.5451c 0.9711,-0.3249 1.9421,-0.6498 2.9132 -0.9748c 0.3919,1.1714 0.7839,2.3428 1.1758 3.5141c 16.6905,-5.5846 33.3810,-11.1691 50.0715 -16.7537c -0.3919,-1.1714 -0.7839,-2.3428 -1.1758 -3.5141c 0.9711,-0.3249 1.9422,-0.6498 2.9133 -0.9748c -1.3992,-4.1817 -2.7984,-8.3634 -4.1976 -12.5451c -0.9711,0.3249 -1.9421,0.6499 -2.9132 0.9748c -2.0023,-5.9843 -4.0046,-11.9687 -6.0070 -17.9530c 0.9711,-0.3249 1.9422,-0.6498 2.9132 -0.9748c -1.3992,-4.1817 -2.7983,-8.3634 -4.1975 -12.5451c -0.9711,0.3249 -1.9422,0.6498 -2.9132 0.9748c -0.3920,-1.1714 -0.7839,-2.3428 -1.1758 -3.5141c -16.6905,5.5846 -33.3810,11.1691 -50.0715 16.7537c 0.3920,1.1714 0.7839,2.3428 1.1758 3.5141c -0.9711,0.3249 -1.9421,0.6498 -2.9132 0.9748ZM 719.8549,779.2877 c 1.3992,4.1817 2.7983,8.3634 4.1975 12.5451c 0.9711,-0.3249 1.9422,-0.6498 2.9133 -0.9748c 2.0023,5.9843 4.0046,11.9687 6.0069 17.9530c -0.9711,0.3249 -1.9421,0.6498 -2.9132 0.9748c 1.3992,4.1817 2.7983,8.3634 4.1976 12.5451c 0.9711,-0.3249 1.9421,-0.6498 2.9132 -0.9748c 0.3919,1.1714 0.7839,2.3428 1.1758 3.5141c 16.6905,-5.5845 33.3810,-11.1691 50.0715 -16.7537c -0.3919,-1.1714 -0.7839,-2.3428 -1.1758 -3.5142c 0.9711,-0.3249 1.9422,-0.6498 2.9133 -0.9748c -1.3992,-4.1817 -2.7984,-8.3634 -4.1976 -12.5451c -0.9711,0.3249 -1.9422,0.6498 -2.9132 0.9748c -2.0023,-5.9843 -4.0047,-11.9687 -6.0070 -17.9530c 0.9711,-0.3249 1.9422,-0.6498 2.9132 -0.9748c -1.3992,-4.1817 -2.7983,-8.3634 -4.1975 -12.5451c -0.9711,0.3249 -1.9422,0.6498 -2.9133 0.9748c -0.3919,-1.1714 -0.7839,-2.3428 -1.1758 -3.5142c -16.6905,5.5846 -33.3810,11.1691 -50.0715 16.7537c 0.3919,1.1714 0.7839,2.3428 1.1758 3.5141c -0.9711,0.3249 -1.9422,0.6498 -2.9132 0.9748ZM 726.1090,1024.2951 c 1.3992,4.1817 2.7984,8.3634 4.1976 12.5451c 0.9711,-0.3249 1.9422,-0.6498 2.9132 -0.9748c 2.0023,5.9843 4.0047,11.9687 6.0070 17.9530c -0.9711,0.3249 -1.9421,0.6498 -2.9132 0.9748c 1.3992,4.1817 2.7983,8.3634 4.1975 12.5451c 0.9711,-0.3249 1.9422,-0.6498 2.9133 -0.9748c 0.3919,1.1714 0.7839,2.3428 1.1758 3.5142c 16.6905,-5.5846 33.3810,-11.1692 50.0715 -16.7537c -0.3920,-1.1714 -0.7839,-2.3428 -1.1758 -3.5142c 0.9711,-0.3249 1.9422,-0.6498 2.9132 -0.9748c -1.3992,-4.1817 -2.7983,-8.3634 -4.1975 -12.5451c -0.9711,0.3249 -1.9422,0.6498 -2.9133 0.9748c -2.0023,-5.9843 -4.0046,-11.9687 -6.0069 -17.9530c 0.9711,-0.3249 1.9421,-0.6498 2.9132 -0.9748c -1.3992,-4.1817 -2.7983,-8.3634 -4.1976 -12.5451c -0.9711,0.3249 -1.9421,0.6498 -2.9132 0.9748c -0.3919,-1.1714 -0.7839,-2.3428 -1.1758 -3.5141c -16.6905,5.5845 -33.3810,11.1691 -50.0715 16.7537c 0.3919,1.1714 0.7839,2.3428 1.1758 3.5142c -0.9711,0.3249 -1.9422,0.6498 -2.9133 0.9748ZM 742.6409,847.3878 c 1.3992,4.1817 2.7984,8.3634 4.1976 12.5451c 0.9711,-0.3249 1.9421,-0.6498 2.9132 -0.9748c 2.0023,5.9843 4.0046,11.9687 6.0070 17.9530c -0.9711,0.3249 -1.9422,0.6498 -2.9133 0.9748c 1.3992,4.1817 2.7984,8.3634 4.1976 12.5451c 0.9711,-0.3249 1.9422,-0.6499 2.9132 -0.9748c 0.3920,1.1714 0.7839,2.3428 1.1758 3.5142c 16.6905,-5.5846 33.3810,-11.1691 50.0715 -16.7537c -0.3920,-1.1714 -0.7839,-2.3428 -1.1758 -3.5141c 0.9711,-0.3249 1.9421,-0.6498 2.9132 -0.9748c -1.3992,-4.1817 -2.7983,-8.3634 -4.1975 -12.5451c -0.9711,0.3249 -1.9422,0.6498 -2.9133 0.9748c -2.0023,-5.9843 -4.0046,-11.9686 -6.0070 -17.9529c 0.9711,-0.3249 1.9422,-0.6498 2.9133 -0.9748c -1.3992,-4.1817 -2.7984,-8.3634 -4.1976 -12.5451c -0.9711,0.3249 -1.9422,0.6498 -2.9132 0.9748c -0.3920,-1.1714 -0.7839,-2.3428 -1.1758 -3.5141c -16.6905,5.5845 -33.3810,11.1691 -50.0715 16.7537c 0.3919,1.1714 0.7839,2.3428 1.1758 3.5141c -0.9711,0.3249 -1.9422,0.6498 -2.9133 0.9748ZM 755.5898,1094.3611 c 0.0000,3.1310 2.5382,5.6693 5.6693 5.6693c 3.1310,-0.0000 5.6693,-2.5382 5.6693 -5.6693c 0.0000,-3.1311 -2.5382,-5.6693 -5.6693 -5.6693c -3.1311,-0.0000 -5.6693,2.5382 -5.6693 5.6693ZM 757.9735,666.8964 c 1.3992,4.1817 2.7983,8.3634 4.1975 12.5451c 0.9711,-0.3249 1.9422,-0.6498 2.9133 -0.9748c 2.0023,5.9843 4.0046,11.9687 6.0070 17.9530c -0.9711,0.3249 -1.9422,0.6498 -2.9133 0.9748c 1.3992,4.1817 2.7983,8.3634 4.1976 12.5451c 0.9711,-0.3249 1.9421,-0.6498 2.9132 -0.9748c 0.3919,1.1714 0.7839,2.3428 1.1758 3.5142c 16.6905,-5.5846 33.3810,-11.1692 50.0715 -16.7537c -0.3919,-1.1714 -0.7839,-2.3428 -1.1758 -3.5142c 0.9711,-0.3249 1.9422,-0.6498 2.9133 -0.9748c -1.3992,-4.1817 -2.7984,-8.3634 -4.1976 -12.5451c -0.9711,0.3249 -1.9422,0.6498 -2.9132 0.9748c -2.0023,-5.9843 -4.0046,-11.9687 -6.0070 -17.9530c 0.9711,-0.3249 1.9422,-0.6498 2.9132 -0.9748c -1.3992,-4.1817 -2.7983,-8.3634 -4.1975 -12.5451c -0.9711,0.3249 -1.9422,0.6498 -2.9133 0.9748c -0.3919,-1.1714 -0.7839,-2.3428 -1.1758 -3.5141c -16.6905,5.5845 -33.3810,11.1691 -50.0715 16.7537c 0.3919,1.1714 0.7839,2.3428 1.1758 3.5142c -0.9711,0.3249 -1.9422,0.6498 -2.9132 0.9748ZM 765.4269,915.4879 c 1.3992,4.1817 2.7983,8.3634 4.1975 12.5451c 0.9711,-0.3249 1.9422,-0.6498 2.9133 -0.9748c 2.0023,5.9843 4.0046,11.9687 6.0069 17.9530c -0.9711,0.3249 -1.9421,0.6498 -2.9132 0.9748c 1.3992,4.1817 2.7983,8.3634 4.1976 12.5451c 0.9711,-0.3249 1.9421,-0.6498 2.9132 -0.9748c 0.3919,1.1714 0.7839,2.3428 1.1758 3.5141c 16.6905,-5.5845 33.3810,-11.1691 50.0715 -16.7537c -0.3919,-1.1714 -0.7839,-2.3428 -1.1758 -3.5142c 0.9711,-0.3249 1.9422,-0.6498 2.9132 -0.9748c -1.3992,-4.1817 -2.7983,-8.3634 -4.1975 -12.5451c -0.9711,0.3249 -1.9422,0.6498 -2.9132 0.9748c -2.0023,-5.9843 -4.0047,-11.9687 -6.0070 -17.9530c 0.9711,-0.3249 1.9421,-0.6498 2.9132 -0.9748c -1.3992,-4.1817 -2.7983,-8.3634 -4.1975 -12.5451c -0.9711,0.3249 -1.9422,0.6498 -2.9133 0.9748c -0.3919,-1.1714 -0.7839,-2.3428 -1.1758 -3.5142c -16.6905,5.5846 -33.3810,11.1692 -50.0715 16.7537c 0.3919,1.1714 0.7839,2.3428 1.1758 3.5142c -0.9711,0.3249 -1.9422,0.6498 -2.9132 0.9748ZM 780.7594,734.9965 c 1.3992,4.1817 2.7984,8.3634 4.1976 12.5451c 0.9711,-0.3249 1.9421,-0.6498 2.9132 -0.9748c 2.0023,5.9843 4.0046,11.9687 6.0070 17.9529c -0.9711,0.3250 -1.9422,0.6498 -2.9132 0.9748c 1.3992,4.1817 2.7983,8.3634 4.1975 12.5451c 0.9711,-0.3249 1.9422,-0.6498 2.9132 -0.9748c 0.3920,1.1714 0.7839,2.3428 1.1758 3.5141c 16.6905,-5.5845 33.3810,-11.1691 50.0715 -16.7537c -0.3920,-1.1714 -0.7839,-2.3428 -1.1758 -3.5141c 0.9711,-0.3249 1.9421,-0.6498 2.9132 -0.9748c -1.3992,-4.1817 -2.7983,-8.3634 -4.1975 -12.5451c -0.9711,0.3249 -1.9422,0.6498 -2.9133 0.9748c -2.0023,-5.9843 -4.0046,-11.9687 -6.0070 -17.9530c 0.9711,-0.3249 1.9422,-0.6498 2.9133 -0.9748c -1.3992,-4.1817 -2.7984,-8.3634 -4.1976 -12.5451c -0.9711,0.3249 -1.9421,0.6498 -2.9132 0.9748c -0.3920,-1.1714 -0.7839,-2.3428 -1.1758 -3.5142c -16.6905,5.5846 -33.3810,11.1691 -50.0715 16.7537c 0.3919,1.1714 0.7839,2.3428 1.1758 3.5141c -0.9711,0.3249 -1.9422,0.6498 -2.9133 0.9748ZM 788.2128,983.5880 c 1.3992,4.1817 2.7984,8.3634 4.1976 12.5451c 0.9711,-0.3249 1.9421,-0.6499 2.9132 -0.9748c 2.0023,5.9843 4.0046,11.9686 6.0070 17.9529c -0.9711,0.3249 -1.9422,0.6498 -2.9133 0.9748c 1.3992,4.1817 2.7984,8.3634 4.1976 12.5451c 0.9711,-0.3249 1.9422,-0.6498 2.9132 -0.9748c 0.3920,1.1714 0.7839,2.3428 1.1758 3.5141c 16.6905,-5.5846 33.3810,-11.1691 50.0715 -16.7537c -0.3920,-1.1714 -0.7839,-2.3428 -1.1758 -3.5141c 0.9711,-0.3249 1.9421,-0.6498 2.9132 -0.9748c -1.3992,-4.1817 -2.7983,-8.3634 -4.1976 -12.5451c -0.9711,0.3249 -1.9421,0.6498 -2.9132 0.9748c -2.0023,-5.9843 -4.0046,-11.9687 -6.0070 -17.9530c 0.9711,-0.3249 1.9422,-0.6498 2.9133 -0.9748c -1.3992,-4.1817 -2.7984,-8.3634 -4.1976 -12.5451c -0.9711,0.3249 -1.9422,0.6498 -2.9132 0.9748c -0.3920,-1.1714 -0.7839,-2.3428 -1.1758 -3.5141c -16.6905,5.5846 -33.3810,11.1691 -50.0715 16.7537c 0.3920,1.1714 0.7839,2.3428 1.1758 3.5141c -0.9711,0.3249 -1.9421,0.6498 -2.9132 0.9748ZM 803.5454,803.0966 c 1.3992,4.1817 2.7983,8.3634 4.1975 12.5451c 0.9711,-0.3249 1.9422,-0.6498 2.9133 -0.9748c 2.0023,5.9843 4.0046,11.9687 6.0069 17.9530c -0.9711,0.3249 -1.9421,0.6498 -2.9132 0.9748c 1.3992,4.1817 2.7983,8.3634 4.1976 12.5451c 0.9711,-0.3249 1.9421,-0.6498 2.9132 -0.9748c 0.3919,1.1714 0.7839,2.3428 1.1758 3.5142c 16.6905,-5.5846 33.3810,-11.1691 50.0715 -16.7537c -0.3919,-1.1714 -0.7839,-2.3428 -1.1758 -3.5141c 0.9711,-0.3249 1.9422,-0.6498 2.9133 -0.9748c -1.3992,-4.1817 -2.7984,-8.3634 -4.1976 -12.5451c -0.9711,0.3249 -1.9422,0.6498 -2.9132 0.9748c -2.0023,-5.9843 -4.0047,-11.9687 -6.0070 -17.9530c 0.9711,-0.3249 1.9421,-0.6498 2.9132 -0.9748c -1.3992,-4.1817 -2.7983,-8.3634 -4.1975 -12.5451c -0.9711,0.3249 -1.9422,0.6498 -2.9133 0.9748c -0.3919,-1.1714 -0.7839,-2.3428 -1.1758 -3.5141c -16.6905,5.5845 -33.3810,11.1691 -50.0715 16.7537c 0.3919,1.1714 0.7839,2.3428 1.1758 3.5141c -0.9711,0.3249 -1.9422,0.6498 -2.9132 0.9748ZM 826.3314,871.1966 c 1.3992,4.1817 2.7984,8.3634 4.1976 12.5451c 0.9711,-0.3249 1.9421,-0.6498 2.9132 -0.9748c 2.0023,5.9843 4.0046,11.9687 6.0070 17.9530c -0.9711,0.3249 -1.9422,0.6498 -2.9133 0.9748c 1.3992,4.1817 2.7984,8.3634 4.1976 12.5451c 0.9711,-0.3249 1.9422,-0.6498 2.9132 -0.9748c 0.3920,1.1714 0.7839,2.3428 1.1758 3.5141c 16.6905,-5.5845 33.3810,-11.1691 50.0715 -16.7537c -0.3920,-1.1714 -0.7839,-2.3428 -1.1758 -3.5142c 0.9711,-0.3249 1.9421,-0.6498 2.9132 -0.9748c -1.3992,-4.1817 -2.7983,-8.3634 -4.1976 -12.5451c -0.9711,0.3249 -1.9421,0.6498 -2.9132 0.9748c -2.0023,-5.9843 -4.0046,-11.9687 -6.0070 -17.9530c 0.9711,-0.3249 1.9422,-0.6498 2.9133 -0.9748c -1.3992,-4.1817 -2.7984,-8.3634 -4.1976 -12.5451c -0.9711,0.3249 -1.9422,0.6498 -2.9132 0.9748c -0.3920,-1.1714 -0.7839,-2.3428 -1.1758 -3.5142c -16.6905,5.5846 -33.3810,11.1692 -50.0715 16.7537c 0.3919,1.1714 0.7839,2.3428 1.1758 3.5141c -0.9711,0.3250 -1.9422,0.6499 -2.9133 0.9748ZM 832.0699,662.0315 c 1.3992,4.1817 2.7984,8.3634 4.1976 12.5451c 0.9711,-0.3249 1.9421,-0.6498 2.9132 -0.9748c 2.0023,5.9843 4.0046,11.9687 6.0070 17.9530c -0.9711,0.3249 -1.9422,0.6498 -2.9132 0.9748c 1.3992,4.1817 2.7983,8.3634 4.1975 12.5451c 0.9711,-0.3249 1.9422,-0.6498 2.9132 -0.9748c 0.3920,1.1714 0.7839,2.3428 1.1758 3.5141c 16.6905,-5.5845 33.3810,-11.1691 50.0715 -16.7537c -0.3920,-1.1714 -0.7839,-2.3428 -1.1758 -3.5141c 0.9711,-0.3249 1.9421,-0.6498 2.9132 -0.9748c -1.3992,-4.1817 -2.7983,-8.3634 -4.1975 -12.5451c -0.9711,0.3249 -1.9422,0.6498 -2.9133 0.9748c -2.0023,-5.9843 -4.0046,-11.9687 -6.0070 -17.9530c 0.9711,-0.3249 1.9422,-0.6498 2.9133 -0.9748c -1.3992,-4.1817 -2.7984,-8.3634 -4.1976 -12.5451c -0.9711,0.3249 -1.9421,0.6498 -2.9132 0.9748c -0.3919,-1.1714 -0.7839,-2.3428 -1.1758 -3.5142c -16.6905,5.5846 -33.3810,11.1691 -50.0715 16.7537c 0.3919,1.1714 0.7839,2.3428 1.1758 3.5141c -0.9711,0.3249 -1.9422,0.6498 -2.9133 0.9748ZM 849.1174,939.2967 c 1.3992,4.1817 2.7983,8.3634 4.1975 12.5451c 0.9711,-0.3249 1.9422,-0.6498 2.9132 -0.9748c 2.0023,5.9843 4.0047,11.9687 6.0070 17.9530c -0.9711,0.3249 -1.9421,0.6498 -2.9132 0.9748c 1.3992,4.1817 2.7983,8.3634 4.1976 12.5451c 0.9711,-0.3249 1.9421,-0.6499 2.9132 -0.9748c 0.3919,1.1714 0.7839,2.3428 1.1758 3.5141c 16.6905,-5.5846 33.3810,-11.1691 50.0715 -16.7537c -0.3919,-1.1714 -0.7839,-2.3428 -1.1758 -3.5141c 0.9711,-0.3249 1.9422,-0.6498 2.9132 -0.9748c -1.3992,-4.1817 -2.7983,-8.3634 -4.1975 -12.5451c -0.9711,0.3249 -1.9422,0.6498 -2.9132 0.9748c -2.0023,-5.9843 -4.0047,-11.9687 -6.0070 -17.9530c 0.9711,-0.3249 1.9421,-0.6498 2.9132 -0.9748c -1.3992,-4.1817 -2.7983,-8.3634 -4.1975 -12.5451c -0.9711,0.3249 -1.9422,0.6498 -2.9133 0.9748c -0.3919,-1.1714 -0.7839,-2.3428 -1.1758 -3.5141c -16.6905,5.5845 -33.3810,11.1691 -50.0715 16.7537c 0.3919,1.1714 0.7839,2.3428 1.1758 3.5141c -0.9711,0.3249 -1.9422,0.6498 -2.9132 0.9748ZM 854.8558,730.1316 c 1.3992,4.1817 2.7983,8.3634 4.1975 12.5451c 0.9711,-0.3249 1.9422,-0.6498 2.9133 -0.9748c 2.0023,5.9843 4.0046,11.9687 6.0069 17.9530c -0.9711,0.3249 -1.9421,0.6498 -2.9132 0.9748c 1.3992,4.1817 2.7983,8.3634 4.1976 12.5451c 0.9711,-0.3249 1.9421,-0.6498 2.9132 -0.9748c 0.3919,1.1714 0.7839,2.3428 1.1758 3.5142c 16.6905,-5.5846 33.3810,-11.1691 50.0715 -16.7537c -0.3919,-1.1714 -0.7839,-2.3428 -1.1758 -3.5141c 0.9711,-0.3249 1.9422,-0.6498 2.9133 -0.9748c -1.3992,-4.1817 -2.7984,-8.3634 -4.1976 -12.5451c -0.9711,0.3249 -1.9422,0.6498 -2.9132 0.9748c -2.0023,-5.9843 -4.0046,-11.9687 -6.0070 -17.9530c 0.9711,-0.3249 1.9421,-0.6498 2.9132 -0.9748c -1.3992,-4.1817 -2.7983,-8.3634 -4.1975 -12.5451c -0.9711,0.3249 -1.9422,0.6498 -2.9133 0.9748c -0.3919,-1.1714 -0.7839,-2.3428 -1.1758 -3.5141c -16.6905,5.5845 -33.3810,11.1691 -50.0715 16.7537c 0.3919,1.1714 0.7839,2.3428 1.1758 3.5141c -0.9711,0.3249 -1.9422,0.6498 -2.9132 0.9748ZM 877.6418,798.2317 c 1.3992,4.1817 2.7984,8.3634 4.1976 12.5451c 0.9711,-0.3249 1.9421,-0.6498 2.9132 -0.9748c 2.0023,5.9843 4.0046,11.9687 6.0070 17.9530c -0.9711,0.3249 -1.9422,0.6498 -2.9132 0.9748c 1.3992,4.1817 2.7983,8.3634 4.1975 12.5451c 0.9711,-0.3249 1.9422,-0.6498 2.9132 -0.9748c 0.3920,1.1714 0.7839,2.3428 1.1758 3.5141c 16.6905,-5.5845 33.3810,-11.1691 50.0715 -16.7537c -0.3920,-1.1714 -0.7839,-2.3428 -1.1758 -3.5142c 0.9711,-0.3249 1.9421,-0.6498 2.9132 -0.9748c -1.3992,-4.1817 -2.7983,-8.3634 -4.1976 -12.5451c -0.9711,0.3249 -1.9421,0.6498 -2.9132 0.9748c -2.0023,-5.9843 -4.0046,-11.9687 -6.0070 -17.9530c 0.9711,-0.3249 1.9422,-0.6498 2.9133 -0.9748c -1.3992,-4.1817 -2.7984,-8.3634 -4.1976 -12.5451c -0.9711,0.3249 -1.9421,0.6498 -2.9132 0.9748c -0.3920,-1.1714 -0.7839,-2.3428 -1.1758 -3.5142c -16.6905,5.5846 -33.3810,11.1691 -50.0715 16.7537c 0.3919,1.1714 0.7839,2.3428 1.1758 3.5142c -0.9711,0.3249 -1.9422,0.6498 -2.9133 0.9748ZM 900.4278,866.3318 c 1.3992,4.1817 2.7983,8.3634 4.1975 12.5451c 0.9711,-0.3249 1.9422,-0.6498 2.9132 -0.9748c 2.0023,5.9843 4.0047,11.9687 6.0070 17.9530c -0.9711,0.3249 -1.9421,0.6498 -2.9132 0.9748c 1.3992,4.1817 2.7983,8.3634 4.1976 12.5451c 0.9711,-0.3249 1.9421,-0.6498 2.9132 -0.9748c 0.3919,1.1714 0.7839,2.3428 1.1758 3.5141c 16.6905,-5.5846 33.3810,-11.1691 50.0715 -16.7537c -0.3919,-1.1714 -0.7839,-2.3428 -1.1758 -3.5141c 0.9711,-0.3249 1.9422,-0.6498 2.9132 -0.9748c -1.3992,-4.1817 -2.7983,-8.3634 -4.1975 -12.5451c -0.9711,0.3249 -1.9422,0.6499 -2.9132 0.9748c -2.0023,-5.9843 -4.0047,-11.9686 -6.0070 -17.9529c 0.9711,-0.3249 1.9421,-0.6498 2.9132 -0.9748c -1.3992,-4.1817 -2.7983,-8.3634 -4.1975 -12.5451c -0.9711,0.3249 -1.9422,0.6498 -2.9133 0.9748c -0.3919,-1.1714 -0.7839,-2.3428 -1.1758 -3.5141c -16.6905,5.5846 -33.3810,11.1691 -50.0715 16.7537c 0.3919,1.1714 0.7839,2.3428 1.1758 3.5141c -0.9711,0.3249 -1.9422,0.6498 -2.9132 0.9748ZM 903.7677,649.9982 c 1.3992,4.1817 2.7984,8.3634 4.1976 12.5451c 0.9711,-0.3249 1.9422,-0.6498 2.9132 -0.9748c 2.0023,5.9843 4.0047,11.9687 6.0070 17.9530c -0.9711,0.3249 -1.9422,0.6498 -2.9132 0.9748c 1.3992,4.1817 2.7983,8.3634 4.1975 12.5451c 0.9711,-0.3249 1.9422,-0.6498 2.9133 -0.9748c 0.3919,1.1714 0.7839,2.3428 1.1758 3.5142c 16.6905,-5.5846 33.3810,-11.1692 50.0715 -16.7537c -0.3920,-1.1714 -0.7839,-2.3428 -1.1758 -3.5142c 0.9711,-0.3249 1.9421,-0.6498 2.9132 -0.9748c -1.3992,-4.1817 -2.7983,-8.3634 -4.1975 -12.5451c -0.9711,0.3249 -1.9422,0.6498 -2.9133 0.9748c -2.0023,-5.9843 -4.0046,-11.9687 -6.0069 -17.9530c 0.9711,-0.3249 1.9421,-0.6498 2.9132 -0.9748c -1.3992,-4.1817 -2.7984,-8.3634 -4.1976 -12.5451c -0.9711,0.3249 -1.9421,0.6498 -2.9132 0.9748c -0.3919,-1.1714 -0.7839,-2.3428 -1.1758 -3.5141c -16.6905,5.5845 -33.3810,11.1691 -50.0715 16.7537c 0.3919,1.1714 0.7839,2.3428 1.1758 3.5142c -0.9711,0.3249 -1.9422,0.6498 -2.9133 0.9748ZM 923.2137,934.4319 c 1.3992,4.1817 2.7983,8.3634 4.1976 12.5451c 0.9711,-0.3249 1.9421,-0.6498 2.9132 -0.9748c 2.0023,5.9843 4.0046,11.9687 6.0070 17.9530c -0.9711,0.3249 -1.9422,0.6498 -2.9133 0.9748c 1.3992,4.1817 2.7984,8.3634 4.1976 12.5451c 0.9711,-0.3249 1.9422,-0.6498 2.9132 -0.9748c 0.3920,1.1714 0.7839,2.3428 1.1758 3.5142c 16.6905,-5.5846 33.3810,-11.1692 50.0715 -16.7537c -0.3919,-1.1714 -0.7839,-2.3428 -1.1758 -3.5142c 0.9711,-0.3249 1.9421,-0.6498 2.9132 -0.9748c -1.3992,-4.1817 -2.7983,-8.3634 -4.1976 -12.5451c -0.9711,0.3249 -1.9421,0.6498 -2.9132 0.9748c -2.0023,-5.9843 -4.0046,-11.9687 -6.0070 -17.9530c 0.9711,-0.3249 1.9422,-0.6498 2.9133 -0.9748c -1.3992,-4.1817 -2.7984,-8.3634 -4.1976 -12.5451c -0.9711,0.3249 -1.9422,0.6498 -2.9132 0.9748c -0.3920,-1.1714 -0.7839,-2.3428 -1.1758 -3.5141c -16.6905,5.5845 -33.3810,11.1691 -50.0715 16.7537c 0.3920,1.1714 0.7839,2.3428 1.1758 3.5142c -0.9711,0.3249 -1.9421,0.6498 -2.9132 0.9748ZM 926.5537,718.0982 c 1.3992,4.1817 2.7983,8.3634 4.1975 12.5451c 0.9711,-0.3249 1.9422,-0.6498 2.9133 -0.9748c 2.0023,5.9843 4.0046,11.9686 6.0070 17.9529c -0.9711,0.3249 -1.9422,0.6498 -2.9133 0.9748c 1.3992,4.1817 2.7984,8.3634 4.1976 12.5451c 0.9711,-0.3249 1.9421,-0.6498 2.9132 -0.9748c 0.3919,1.1714 0.7839,2.3428 1.1758 3.5141c 16.6905,-5.5845 33.3810,-11.1691 50.0715 -16.7537c -0.3919,-1.1714 -0.7839,-2.3428 -1.1758 -3.5141c 0.9711,-0.3249 1.9422,-0.6498 2.9133 -0.9748c -1.3992,-4.1817 -2.7984,-8.3634 -4.1976 -12.5451c -0.9711,0.3249 -1.9421,0.6498 -2.9132 0.9748c -2.0023,-5.9843 -4.0046,-11.9687 -6.0070 -17.9530c 0.9711,-0.3249 1.9422,-0.6498 2.9132 -0.9748c -1.3992,-4.1817 -2.7983,-8.3634 -4.1975 -12.5451c -0.9711,0.3249 -1.9422,0.6498 -2.9133 0.9747c -0.3919,-1.1714 -0.7839,-2.3428 -1.1758 -3.5141c -16.6905,5.5846 -33.3810,11.1691 -50.0715 16.7537c 0.3920,1.1714 0.7839,2.3428 1.1758 3.5141c -0.9711,0.3249 -1.9421,0.6498 -2.9132 0.9748ZM 949.3397,786.1983 c 1.3992,4.1817 2.7984,8.3634 4.1976 12.5451c 0.9711,-0.3249 1.9421,-0.6498 2.9132 -0.9748c 2.0023,5.9843 4.0046,11.9687 6.0070 17.9530c -0.9711,0.3249 -1.9422,0.6498 -2.9132 0.9748c 1.3992,4.1817 2.7983,8.3634 4.1975 12.5451c 0.9711,-0.3249 1.9422,-0.6498 2.9132 -0.9748c 0.3920,1.1714 0.7839,2.3428 1.1758 3.5142c 16.6905,-5.5846 33.3810,-11.1691 50.0715 -16.7537c -0.3920,-1.1714 -0.7839,-2.3428 -1.1758 -3.5141c 0.9711,-0.3249 1.9421,-0.6498 2.9132 -0.9748c -1.3992,-4.1817 -2.7983,-8.3634 -4.1975 -12.5451c -0.9711,0.3249 -1.9422,0.6498 -2.9133 0.9748c -2.0023,-5.9843 -4.0046,-11.9687 -6.0070 -17.9530c 0.9711,-0.3249 1.9422,-0.6498 2.9133 -0.9748c -1.3992,-4.1817 -2.7984,-8.3634 -4.1976 -12.5451c -0.9711,0.3249 -1.9421,0.6498 -2.9132 0.9748c -0.3919,-1.1714 -0.7839,-2.3428 -1.1758 -3.5141c -16.6905,5.5845 -33.3810,11.1691 -50.0715 16.7537c 0.3919,1.1714 0.7839,2.3428 1.1758 3.5141c -0.9711,0.3249 -1.9422,0.6498 -2.9133 0.9748ZM 972.1257,854.2984 c 1.3992,4.1817 2.7983,8.3634 4.1975 12.5451c 0.9711,-0.3249 1.9422,-0.6498 2.9133 -0.9748c 2.0023,5.9843 4.0046,11.9687 6.0069 17.9530c -0.9711,0.3249 -1.9421,0.6498 -2.9132 0.9748c 1.3992,4.1817 2.7983,8.3634 4.1976 12.5451c 0.9711,-0.3249 1.9421,-0.6498 2.9132 -0.9748c 0.3919,1.1714 0.7839,2.3428 1.1758 3.5141c 16.6905,-5.5845 33.3810,-11.1691 50.0715 -16.7537c -0.3919,-1.1714 -0.7839,-2.3428 -1.1758 -3.5141c 0.9711,-0.3249 1.9422,-0.6498 2.9133 -0.9748c -1.3992,-4.1817 -2.7984,-8.3634 -4.1976 -12.5451c -0.9711,0.3249 -1.9422,0.6498 -2.9132 0.9748c -2.0023,-5.9843 -4.0046,-11.9687 -6.0070 -17.9530c 0.9711,-0.3249 1.9421,-0.6498 2.9132 -0.9748c -1.3992,-4.1817 -2.7983,-8.3634 -4.1975 -12.5451c -0.9711,0.3249 -1.9422,0.6498 -2.9133 0.9748c -0.3919,-1.1714 -0.7839,-2.3428 -1.1758 -3.5142c -16.6905,5.5846 -33.3810,11.1692 -50.0715 16.7537c 0.3919,1.1714 0.7839,2.3428 1.1758 3.5141c -0.9711,0.3249 -1.9422,0.6499 -2.9132 0.9748ZM 973.0671,630.7964 c 1.3992,4.1817 2.7984,8.3634 4.1976 12.5451c 0.9711,-0.3249 1.9421,-0.6498 2.9132 -0.9748c 2.0023,5.9843 4.0046,11.9687 6.0070 17.9530c -0.9711,0.3249 -1.9422,0.6498 -2.9133 0.9748c 1.3992,4.1817 2.7984,8.3634 4.1976 12.5451c 0.9711,-0.3249 1.9422,-0.6498 2.9132 -0.9748c 0.3920,1.1714 0.7839,2.3428 1.1758 3.5142c 16.6905,-5.5846 33.3810,-11.1691 50.0715 -16.7537c -0.3920,-1.1714 -0.7839,-2.3428 -1.1758 -3.5141c 0.9711,-0.3249 1.9421,-0.6498 2.9132 -0.9748c -1.3992,-4.1817 -2.7983,-8.3634 -4.1976 -12.5451c -0.9711,0.3249 -1.9421,0.6498 -2.9132 0.9748c -2.0023,-5.9843 -4.0046,-11.9687 -6.0070 -17.9530c 0.9711,-0.3249 1.9422,-0.6498 2.9133 -0.9748c -1.3992,-4.1817 -2.7984,-8.3634 -4.1976 -12.5451c -0.9711,0.3249 -1.9422,0.6498 -2.9132 0.9748c -0.3920,-1.1714 -0.7839,-2.3428 -1.1758 -3.5141c -16.6905,5.5845 -33.3810,11.1691 -50.0715 16.7537c 0.3919,1.1714 0.7839,2.3428 1.1758 3.5141c -0.9711,0.3249 -1.9421,0.6498 -2.9132 0.9748ZM 994.9116,922.3985 c 1.3992,4.1817 2.7984,8.3634 4.1976 12.5451c 0.9711,-0.3249 1.9421,-0.6498 2.9132 -0.9748c 2.0023,5.9843 4.0046,11.9687 6.0070 17.9530c -0.9711,0.3249 -1.9422,0.6498 -2.9132 0.9748c 1.3992,4.1817 2.7983,8.3634 4.1975 12.5451c 0.9711,-0.3249 1.9422,-0.6499 2.9132 -0.9748c 0.3920,1.1714 0.7839,2.3428 1.1758 3.5141c 16.6905,-5.5846 33.3810,-11.1691 50.0715 -16.7537c -0.3920,-1.1714 -0.7839,-2.3428 -1.1758 -3.5141c 0.9711,-0.3249 1.9421,-0.6498 2.9132 -0.9748c -1.3992,-4.1817 -2.7983,-8.3634 -4.1976 -12.5451c -0.9711,0.3249 -1.9421,0.6498 -2.9132 0.9748c -2.0023,-5.9843 -4.0046,-11.9686 -6.0070 -17.9529c 0.9711,-0.3249 1.9422,-0.6498 2.9133 -0.9748c -1.3992,-4.1817 -2.7984,-8.3634 -4.1976 -12.5451c -0.9711,0.3249 -1.9421,0.6498 -2.9132 0.9748c -0.3920,-1.1714 -0.7839,-2.3428 -1.1758 -3.5141c -16.6905,5.5845 -33.3810,11.1691 -50.0715 16.7537c 0.3919,1.1714 0.7839,2.3428 1.1758 3.5141c -0.9711,0.3249 -1.9422,0.6498 -2.9133 0.9748ZM 995.8531,698.8965 c 1.3992,4.1817 2.7983,8.3634 4.1975 12.5451c 0.9711,-0.3249 1.9422,-0.6498 2.9132 -0.9748c 2.0023,5.9843 4.0047,11.9687 6.0070 17.9530c -0.9711,0.3249 -1.9421,0.6498 -2.9132 0.9748c 1.3992,4.1817 2.7983,8.3634 4.1975 12.5451c 0.9711,-0.3249 1.9422,-0.6498 2.9133 -0.9748c 0.3919,1.1714 0.7839,2.3428 1.1758 3.5141c 16.6905,-5.5845 33.3810,-11.1691 50.0715 -16.7537c -0.3919,-1.1714 -0.7839,-2.3428 -1.1758 -3.5142c 0.9711,-0.3249 1.9422,-0.6498 2.9132 -0.9748c -1.3992,-4.1817 -2.7983,-8.3634 -4.1975 -12.5451c -0.9711,0.3249 -1.9422,0.6498 -2.9132 0.9748c -2.0023,-5.9843 -4.0047,-11.9687 -6.0070 -17.9530c 0.9711,-0.3249 1.9421,-0.6498 2.9132 -0.9748c -1.3992,-4.1817 -2.7983,-8.3634 -4.1975 -12.5451c -0.9711,0.3249 -1.9422,0.6498 -2.9133 0.9748c -0.3919,-1.1714 -0.7839,-2.3428 -1.1758 -3.5142c -16.6905,5.5846 -33.3810,11.1692 -50.0715 16.7537c 0.3919,1.1714 0.7839,2.3428 1.1758 3.5141c -0.9711,0.3249 -1.9422,0.6499 -2.9132 0.9748ZM 1018.6390,766.9966 c 1.3992,4.1817 2.7983,8.3634 4.1976 12.5451c 0.9711,-0.3249 1.9421,-0.6498 2.9132 -0.9748c 2.0023,5.9843 4.0046,11.9687 6.0070 17.9530c -0.9711,0.3249 -1.9422,0.6498 -2.9133 0.9748c 1.3992,4.1817 2.7984,8.3634 4.1976 12.5451c 0.9711,-0.3250 1.9422,-0.6498 2.9132 -0.9748c 0.3920,1.1714 0.7839,2.3428 1.1758 3.5141c 16.6905,-5.5846 33.3810,-11.1691 50.0715 -16.7537c -0.3920,-1.1714 -0.7839,-2.3428 -1.1758 -3.5141c 0.9711,-0.3249 1.9421,-0.6498 2.9132 -0.9748c -1.3992,-4.1817 -2.7984,-8.3634 -4.1976 -12.5451c -0.9711,0.3249 -1.9421,0.6498 -2.9132 0.9748c -2.0023,-5.9843 -4.0046,-11.9686 -6.0070 -17.9529c 0.9711,-0.3249 1.9422,-0.6498 2.9133 -0.9748c -1.3992,-4.1817 -2.7984,-8.3634 -4.1976 -12.5451c -0.9711,0.3249 -1.9422,0.6498 -2.9132 0.9748c -0.3920,-1.1714 -0.7839,-2.3428 -1.1758 -3.5141c -16.6905,5.5846 -33.3810,11.1691 -50.0715 16.7537c 0.3920,1.1714 0.7839,2.3428 1.1758 3.5141c -0.9711,0.3249 -1.9421,0.6498 -2.9132 0.9748ZM 1041.1117,588.8498 c 0.0000,3.1311 2.5382,5.6693 5.6693 5.6693c 3.1310,-0.0000 5.6693,-2.5382 5.6693 -5.6693c 0.0000,-3.1310 -2.5382,-5.6693 -5.6693 -5.6693c -3.1311,-0.0000 -5.6693,2.5382 -5.6693 5.6693ZM 1041.4250,835.0967 c 1.3992,4.1817 2.7983,8.3634 4.1975 12.5451c 0.9711,-0.3249 1.9422,-0.6498 2.9132 -0.9748c 2.0023,5.9843 4.0047,11.9687 6.0070 17.9530c -0.9711,0.3249 -1.9421,0.6498 -2.9132 0.9748c 1.3992,4.1817 2.7983,8.3634 4.1975 12.5451c 0.9711,-0.3249 1.9422,-0.6498 2.9133 -0.9748c 0.3919,1.1714 0.7839,2.3428 1.1758 3.5141c 16.6905,-5.5845 33.3810,-11.1691 50.0715 -16.7537c -0.3919,-1.1714 -0.7839,-2.3428 -1.1758 -3.5142c 0.9711,-0.3249 1.9422,-0.6498 2.9132 -0.9748c -1.3992,-4.1817 -2.7983,-8.3634 -4.1975 -12.5451c -0.9711,0.3249 -1.9422,0.6498 -2.9133 0.9748c -2.0023,-5.9843 -4.0046,-11.9687 -6.0069 -17.9530c 0.9711,-0.3249 1.9421,-0.6498 2.9132 -0.9748c -1.3992,-4.1817 -2.7983,-8.3634 -4.1976 -12.5451c -0.9711,0.3249 -1.9421,0.6498 -2.9132 0.9748c -0.3919,-1.1714 -0.7839,-2.3428 -1.1758 -3.5142c -16.6905,5.5846 -33.3810,11.1692 -50.0715 16.7537c 0.3919,1.1714 0.7839,2.3428 1.1758 3.5142c -0.9711,0.3249 -1.9422,0.6498 -2.9132 0.9748ZM 1064.2110,903.1968 c 1.3992,4.1817 2.7983,8.3634 4.1975 12.5451c 0.9711,-0.3249 1.9422,-0.6498 2.9133 -0.9748c 2.0023,5.9843 4.0046,11.9686 6.0070 17.9529c -0.9711,0.3249 -1.9422,0.6498 -2.9133 0.9748c 1.3992,4.1817 2.7984,8.3634 4.1976 12.5451c 0.9711,-0.3249 1.9422,-0.6498 2.9132 -0.9748c 0.3920,1.1714 0.7839,2.3428 1.1758 3.5141c 16.6905,-5.5846 33.3810,-11.1691 50.0715 -16.7537c -0.3919,-1.1714 -0.7839,-2.3428 -1.1758 -3.5141c 0.9711,-0.3249 1.9422,-0.6498 2.9133 -0.9748c -1.3992,-4.1817 -2.7984,-8.3634 -4.1976 -12.5451c -0.9711,0.3249 -1.9421,0.6498 -2.9132 0.9748c -2.0023,-5.9843 -4.0046,-11.9687 -6.0070 -17.9530c 0.9711,-0.3249 1.9422,-0.6498 2.9133 -0.9748c -1.3992,-4.1817 -2.7984,-8.3634 -4.1976 -12.5451c -0.9711,0.3249 -1.9422,0.6498 -2.9132 0.9748c -0.3920,-1.1714 -0.7839,-2.3428 -1.1758 -3.5141c -16.6905,5.5846 -33.3810,11.1691 -50.0715 16.7537c 0.3920,1.1714 0.7839,2.3428 1.1758 3.5141c -0.9711,0.3249 -1.9421,0.6498 -2.9132 0.9748ZM 1159.3872,934.7788 c 0.0000,3.1310 2.5382,5.6693 5.6693 5.6693c 3.1311,-0.0000 5.6693,-2.5382 5.6693 -5.6693c 0.0000,-3.1310 -2.5382,-5.6693 -5.6693 -5.6693c -3.1310,-0.0000 -5.6693,2.5382 -5.6693 5.6693Z"/></g><g stroke-linejoin="miter" stroke-opacity="1.0" fill-opacity="0.5" stroke="rgb(0,0,0)" stroke-width="0.37795275590551186" fill="rgb(255,0,0)" stroke-linecap="butt" stroke-miterlimit="10.0"><path d="M 528.4513,357.4281 c 0.0000,-11.6868 3.0310,-22.6657 8.3499 -32.1934c 1.6723,-0.0584 3.3446,-0.1168 5.0168 -0.1752c -5.7886,9.4178 -9.1268,20.5033 -9.1268 32.3685c 0.0000,0.2227 0.0012,0.4452 0.0035 0.6674c -1.3769,1.0757 -2.7538,2.1515 -4.1306 3.2272c -0.0748,-1.2886 -0.1128,-2.5872 -0.1128 -3.8946ZM 528.9207,365.3485 c 1.3187,-1.0303 2.6374,-2.0606 3.9561 -3.0909c 0.9243,11.9774 5.2573,22.9996 12.0304 32.0979c -0.4812,1.6780 -0.9623,3.3561 -1.4435 5.0341c -7.8024,-9.4960 -13.0111,-21.2041 -14.5430 -34.0412ZM 536.9671,376.1519 c 9.6516,-7.0123 19.3031,-14.0246 28.9547 -21.0368c 2.4820,-0.8065 4.9641,-1.6129 7.4462 -2.4194c 1.6925,-0.5499 3.3850,-1.0998 5.0775 -1.6498c 0.0000,1.6297 0.0000,3.2594 0.0000 4.8890c 0.0000,2.6251 0.0000,5.2503 0.0000 7.8754c -0.5464,-0.1775 -1.0928,-0.3551 -1.6392 -0.5326c -0.5390,-1.6590 -1.0781,-3.3180 -1.6171 -4.9770c -4.5084,3.2756 -9.0169,6.5511 -13.5253 9.8267c 4.5345,-0.0000 9.0691,-0.0000 13.6036 -0.0000c 1.0593,0.3442 2.1186,0.6884 3.1779 1.0326c 0.0000,2.3306 0.0000,4.6613 0.0000 6.9919c -13.8261,-0.0000 -27.6522,-0.0000 -41.4784 -0.0000ZM 538.8778,321.7683 c 6.7611,-10.5418 16.4323,-19.0387 27.8796 -24.3569c 1.3860,0.9349 2.7720,1.8698 4.1580 2.8046c -10.8216,4.4836 -20.0955,11.9480 -26.7976 21.3693c -1.7467,0.0610 -3.4933,0.1220 -5.2400 0.1830ZM 546.1204,402.4300 c 0.4608,-1.6070 0.9216,-3.2140 1.3824 -4.8210c 7.4760,8.7531 17.3497,15.3967 28.6043 18.9137c 0.5972,1.6408 1.1944,3.2816 1.7916 4.9224c -12.3733,-3.2177 -23.3380,-9.9278 -31.7784 -19.0150ZM 558.9783,308.4086 c 9.6516,7.0123 19.3031,14.0246 28.9547 21.0368c 1.5340,2.1114 3.0680,4.2227 4.6020 6.3341c 1.0460,1.4397 2.0920,2.8794 3.1380 4.3192c -1.5499,0.5036 -3.0998,1.0072 -4.6497 1.5108c -2.4967,0.8112 -4.9933,1.6224 -7.4900 2.4336c 0.0000,-0.5745 0.0000,-1.1490 0.0000 -1.7235c 1.4112,-1.0253 2.8225,-2.0506 4.2337 -3.0760c -4.5084,-3.2756 -9.0168,-6.5511 -13.5253 -9.8267c 1.4013,4.3126 2.8025,8.6252 4.2038 12.9378c 0.0000,1.1138 0.0000,2.2276 0.0000 3.3415c -2.2166,0.7202 -4.4331,1.4404 -6.6497 2.1606c -4.2725,-13.1494 -8.5450,-26.2988 -12.8175 -39.4483ZM 570.4692,295.8236 c 7.4742,-2.9291 15.6112,-4.5373 24.1239 -4.5373c 4.3646,-0.0000 8.6304,0.4228 12.7588 1.2295c 0.5716,1.5705 1.1433,3.1411 1.7149 4.7116c -4.6431,-1.1123 -9.4896,-1.7013 -14.4737 -1.7013c -6.9169,-0.0000 -13.5688,1.1345 -19.7798 3.2275c -1.4480,-0.9767 -2.8960,-1.9534 -4.3441 -2.9301ZM 580.1193,417.6287 c 4.6431,1.1123 9.4896,1.7013 14.4737 1.7013c 6.9169,-0.0000 13.5688,-1.1345 19.7798 -3.2275c 1.4480,0.9767 2.8960,1.9534 4.3440 2.9301c -7.4742,2.9291 -15.6112,4.5373 -24.1239 4.5373c -4.3646,-0.0000 -8.6304,-0.4228 -12.7588 -1.2295c -0.5716,-1.5705 -1.1433,-3.1411 -1.7149 -4.7116ZM 583.5333,349.3928 c 2.3618,-0.7674 4.7236,-1.5348 7.0854 -2.3022c -2.3618,1.7159 -4.7236,3.4319 -7.0854 5.1478c 0.0000,-0.9485 0.0000,-1.8971 -0.0000 -2.8456ZM 583.5333,358.0135 c 0.9021,2.7764 1.8042,5.5529 2.7064 8.3293c -0.9021,-0.2931 -1.8042,-0.5862 -2.7064 -0.8794c 0.0000,-2.4833 0.0000,-4.9667 -0.0000 -7.4500ZM 583.5333,370.8131 c 1.5499,0.5036 3.0998,1.0072 4.6497 1.5108c 2.4967,0.8112 4.9933,1.6224 7.4900 2.4336c -0.3377,0.4648 -0.6754,0.9296 -1.0131 1.3944c -1.7444,-0.0000 -3.4887,-0.0000 -5.2331 -0.0000c 1.7221,5.3000 3.4441,10.5999 5.1662 15.8999c 1.4013,-4.3126 2.8025,-8.6252 4.2038 -12.9378c 0.6547,-0.9011 1.3094,-1.8022 1.9641 -2.7033c 2.2166,0.7202 4.4331,1.4404 6.6497 2.1606c -4.2725,13.1494 -8.5450,26.2989 -12.8175 39.4483c -3.6866,-11.3461 -7.3731,-22.6922 -11.0597 -34.0383c 0.0000,-2.6098 0.0000,-5.2196 0.0000 -7.8294c 0.0000,-1.7796 0.0000,-3.5592 -0.0000 -5.3388ZM 591.7321,368.1274 c 2.9193,-0.0000 5.8386,-0.0000 8.7580 -0.0000c -0.5575,0.7674 -1.1151,1.5348 -1.6726 2.3022c -2.3618,-0.7674 -4.7236,-1.5348 -7.0853 -2.3022ZM 596.1111,345.3060 c 0.9021,-0.2931 1.8042,-0.5862 2.7064 -0.8793c 1.4597,2.0091 2.9193,4.0181 4.3790 6.0272c -2.3618,-1.7159 -4.7236,-3.4319 -7.0853 -5.1478ZM 596.6511,332.7890 c 11.1856,-8.1268 22.3711,-16.2536 33.5567 -24.3804c -3.6866,11.3461 -7.3731,22.6922 -11.0597 34.0383c -1.5340,2.1114 -3.0680,4.2227 -4.6020 6.3341c -1.0460,1.4397 -2.0920,2.8794 -3.1381 4.3192c -0.9579,-1.3184 -1.9158,-2.6369 -2.8737 -3.9553c -1.5430,-2.1238 -3.0860,-4.2476 -4.6291 -6.3713c 0.5464,-0.1775 1.0928,-0.3551 1.6392 -0.5326c 1.4112,1.0253 2.8225,2.0506 4.2337 3.0760c 1.7221,-5.3000 3.4441,-10.5999 5.1662 -15.8999c -3.6685,2.6653 -7.3370,5.3307 -11.0056 7.9960c -1.0593,0.3442 -2.1186,0.6884 -3.1779 1.0326c -1.3699,-1.8855 -2.7398,-3.7710 -4.1097 -5.6566ZM 603.8846,363.4553 c 0.9021,-2.7764 1.8042,-5.5529 2.7064 -8.3293c 0.5575,0.7674 1.1151,1.5348 1.6726 2.3022c -1.4597,2.0090 -2.9193,4.0181 -4.3790 6.0272ZM 603.9053,372.0827 c 0.9579,-1.3184 1.9158,-2.6369 2.8737 -3.9553c 1.5430,-2.1238 3.0860,-4.2476 4.6291 -6.3713c 0.3377,0.4648 0.6754,0.9296 1.0131 1.3944c -0.5390,1.6590 -1.0781,3.3180 -1.6171 4.9770c 5.5727,-0.0000 11.1454,-0.0000 16.7181 -0.0000c -3.6685,-2.6653 -7.3370,-5.3307 -11.0056 -7.9960c -0.6547,-0.9011 -1.3094,-1.8022 -1.9641 -2.7033c 1.3699,-1.8855 2.7398,-3.7711 4.1097 -5.6566c 11.1856,8.1268 22.3711,16.2536 33.5567 24.3804c -11.9300,-0.0000 -23.8600,-0.0000 -35.7900 -0.0000c -2.4821,-0.8065 -4.9641,-1.6129 -7.4462 -2.4194c -1.6925,-0.5499 -3.3850,-1.0998 -5.0775 -1.6498ZM 611.2873,293.4112 c 12.3734,3.2177 23.3380,9.9278 31.7784 19.0150c -0.4608,1.6070 -0.9216,3.2140 -1.3824 4.8210c -7.4760,-8.7531 -17.3497,-15.3967 -28.6043 -18.9137c -0.5972,-1.6408 -1.1944,-3.2816 -1.7916 -4.9224ZM 618.2706,414.6402 c 10.8216,-4.4836 20.0955,-11.9480 26.7976 -21.3693c 1.7467,-0.0610 3.4933,-0.1220 5.2400 -0.1830c -6.7611,10.5418 -16.4323,19.0387 -27.8796 24.3569c -1.3860,-0.9349 -2.7720,-1.8698 -4.1580 -2.8046ZM 644.2789,320.5007 c 0.4812,-1.6780 0.9623,-3.3561 1.4435 -5.0341c 7.8024,9.4960 13.0111,21.2041 14.5430 34.0412c -1.3187,1.0303 -2.6374,2.0606 -3.9561 3.0909c -0.9243,-11.9774 -5.2573,-22.9996 -12.0304 -32.0979ZM 647.3681,389.7967 c 5.7886,-9.4178 9.1268,-20.5033 9.1268 -32.3685c 0.0000,-0.2227 -0.0012,-0.4452 -0.0035 -0.6674c 1.3769,-1.0757 2.7538,-2.1515 4.1306 -3.2272c 0.0748,1.2886 0.1128,2.5872 0.1128 3.8946c 0.0000,11.6868 -3.0310,22.6657 -8.3499 32.1934c -1.6723,0.0584 -3.3445,0.1168 -5.0168 0.1752ZM 3.9685,373.8350 c 0.0000,6.5661 3.9756,12.7306 10.4104 15.2501c 135.8590,53.1942 271.7180,106.3883 407.5769 159.5824c 1.9027,0.7450 3.9279,1.1273 5.9712 1.1273c 55.5553,-0.0000 111.1107,-0.0000 166.6660 0.0000c 55.5553,-0.0000 111.1107,-0.0000 166.6660 0.0000c 2.0433,-0.0000 4.0686,-0.3823 5.9712 -1.1273c 135.8590,-53.1941 271.7180,-106.3882 407.5769 -159.5824c 6.4348,-2.5195 10.4104,-8.6840 10.4104 -15.2501c 0.0000,-1.7243 -0.2742,-3.4764 -0.8500 -5.1974c -39.4251,-117.8293 -78.8502,-235.6586 -118.2754 -353.4879c -2.2347,-6.6788 -8.4889,-11.1811 -15.5316 -11.1811c -70.1511,-0.0000 -140.3022,-0.0000 -210.4533 0.0000c -3.6792,-0.0000 -7.2513,1.2388 -10.1405 3.5169c -64.7386,51.0442 -146.5342,81.5226 -235.3737 81.5226c -88.8396,-0.0000 -170.6352,-30.4784 -235.3737 -81.5226c -2.8892,-2.2780 -6.4613,-3.5169 -10.1405 -3.5169c -70.1511,-0.0000 -140.3022,-0.0000 -210.4533 0.0000c -7.0427,-0.0000 -13.2969,4.5024 -15.5316 11.1811c -39.4251,117.8293 -78.8502,235.6586 -118.2754 353.4879c -0.5759,1.7210 -0.8500,3.4730 -0.8500 5.1974ZM 18.4603,370.0549 c 0.0000,-3.1310 2.5382,-5.6693 5.6693 -5.6693c 3.1310,-0.0000 5.6693,2.5382 5.6693 5.6693c 0.0000,3.1310 -2.5382,5.6693 -5.6693 5.6693c -3.1311,-0.0000 -5.6693,-2.5382 -5.6693 -5.6693ZM 38.8795,374.1590 c 0.0000,-0.3976 0.0632,-0.8019 0.1963 -1.1997c 7.5953,-22.7000 15.1906,-45.4001 22.7860 -68.1001c 0.2878,-0.8602 0.5756,-1.7204 0.8635 -2.5806c 7.3069,-21.8381 14.6139,-43.6762 21.9208 -65.5143c 0.0006,-0.0017 0.0011,-0.0034 0.0017 -0.0051c 0.2878,-0.8602 0.5756,-1.7204 0.8635 -2.5807c 7.3071,-21.8386 14.6142,-43.6772 21.9213 -65.5159c 0.0004,-0.0012 0.0008,-0.0024 0.0012 -0.0035c 0.2878,-0.8602 0.5757,-1.7204 0.8635 -2.5806c 7.3075,-21.8398 14.6150,-43.6797 21.9225 -65.5195c 0.2878,-0.8602 0.5756,-1.7204 0.8635 -2.5807c 7.5953,-22.7000 15.1907,-45.4001 22.7860 -68.1001c 0.6623,-1.9795 2.8040,-3.0473 4.7834 -2.3850c 21.5053,7.1956 43.0106,14.3911 64.5159 21.5867c 0.6624,-1.9795 2.8040,-3.0472 4.7835 -2.3849c 21.5053,7.1956 43.0106,14.3911 64.5159 21.5867c 0.7995,-2.3895 1.5990,-4.7790 2.3985 -7.1684c 0.6623,-1.9795 2.8040,-3.0473 4.7834 -2.3849c 21.5053,7.1956 43.0106,14.3911 64.5159 21.5867c 1.5990,-4.7790 3.1981,-9.5579 4.7971 -14.3369c 0.6624,-1.9795 2.8040,-3.0472 4.7835 -2.3849c 23.5602,7.8831 47.1205,15.7663 70.6807 23.6494c 1.5817,0.5292 2.5813,2.0029 2.5813 3.5837c 0.0000,0.3976 -0.0633,0.8019 -0.1964 1.1998c -1.9988,5.9737 -3.9975,11.9474 -5.9963 17.9211c 21.5053,7.1956 43.0106,14.3911 64.5158 21.5867c 1.5817,0.5292 2.5813,2.0029 2.5813 3.5837c 0.0000,0.3976 -0.0632,0.8019 -0.1963 1.1998c -1.5990,4.7790 -3.1981,9.5579 -4.7971 14.3368c 21.5053,7.1956 43.0106,14.3911 64.5159 21.5867c 1.5817,0.5292 2.5813,2.0030 2.5813 3.5837c 0.0000,0.3976 -0.0633,0.8019 -0.1963 1.1997c -7.5953,22.7000 -15.1907,45.4001 -22.7860 68.1001c -0.2878,0.8602 -0.5756,1.7204 -0.8635 2.5806c -7.3075,21.8398 -14.6150,43.6797 -21.9225 65.5195c -0.2878,0.8602 -0.5757,1.7204 -0.8635 2.5807c -0.0007,0.0019 -0.0013,0.0039 -0.0019 0.0058c -7.3069,21.8379 -14.6137,43.6758 -21.9206 65.5137c -0.2878,0.8602 -0.5756,1.7204 -0.8635 2.5806c -3.1101,9.2951 -6.2202,18.5902 -9.3303 27.8852c 21.5053,7.1956 43.0106,14.3911 64.5159 21.5867c 1.5817,0.5292 2.5813,2.0029 2.5813 3.5837c 0.0000,0.3976 -0.0632,0.8019 -0.1963 1.1998c -7.8831,23.5602 -15.7663,47.1205 -23.6494 70.6807c -0.6623,1.9795 -2.8040,3.0473 -4.7835 2.3849c -21.5053,-7.1956 -43.0106,-14.3911 -64.5159 -21.5867c -3.3979,10.1553 -6.7958,20.3106 -10.1937 30.4658c -0.6624,1.9795 -2.8040,3.0473 -4.7835 2.3849c -23.5602,-7.8831 -47.1205,-15.7663 -70.6807 -23.6494c -1.5817,-0.5292 -2.5813,-2.0029 -2.5813 -3.5837c 0.0000,-0.3976 0.0633,-0.8019 0.1964 -1.1998c 1.5990,-4.7789 3.1980,-9.5579 4.7970 -14.3368c -21.5053,-7.1956 -43.0106,-14.3911 -64.5159 -21.5867c -1.5817,-0.5292 -2.5813,-2.0029 -2.5813 -3.5837c 0.0000,-0.3976 0.0632,-0.8019 0.1963 -1.1997c 1.9988,-5.9737 3.9975,-11.9474 5.9963 -17.9211c -19.4503,-6.5080 -38.9007,-13.0160 -58.3510 -19.5240c -1.5990,4.7790 -3.1981,9.5579 -4.7971 14.3369c -0.6623,1.9795 -2.8040,3.0473 -4.7835 2.3849c -21.5053,-7.1956 -43.0106,-14.3911 -64.5158 -21.5867c -0.7995,2.3895 -1.5990,4.7790 -2.3985 7.1684c -0.6623,1.9795 -2.8040,3.0473 -4.7835 2.3849c -21.5053,-7.1956 -43.0106,-14.3911 -64.5159 -21.5867c -0.6623,1.9795 -2.8040,3.0473 -4.7834 2.3850c -23.5603,-7.8831 -47.1205,-15.7663 -70.6807 -23.6494c -1.5817,-0.5292 -2.5813,-2.0030 -2.5813 -3.5837ZM 136.7358,24.1260 c 0.0000,-3.1310 2.5382,-5.6693 5.6693 -5.6693c 3.1311,-0.0000 5.6693,2.5382 5.6693 5.6693c 0.0000,3.1311 -2.5382,5.6693 -5.6693 5.6693c -3.1310,-0.0000 -5.6693,-2.5382 -5.6693 -5.6693ZM 422.2578,529.6373 c 0.0000,-3.1311 2.5382,-5.6693 5.6693 -5.6693c 3.1311,-0.0000 5.6693,2.5382 5.6693 5.6693c 0.0000,3.1310 -2.5382,5.6693 -5.6693 5.6693c -3.1310,-0.0000 -5.6693,-2.5382 -5.6693 -5.6693ZM 532.2308,99.7166 c 0.0000,-3.1310 2.5382,-5.6693 5.6693 -5.6693c 3.1311,-0.0000 5.6693,2.5382 5.6693 5.6693c 0.0000,3.1310 -2.5382,5.6693 -5.6693 5.6693c -3.1310,-0.0000 -5.6693,-2.5382 -5.6693 -5.6693ZM 619.1695,175.8247 c 0.0000,-1.5808 0.9996,-3.0545 2.5813 -3.5837c 21.5053,-7.1956 43.0106,-14.3911 64.5159 -21.5867c -1.5990,-4.7790 -3.1981,-9.5579 -4.7971 -14.3368c -0.1331,-0.3978 -0.1963,-0.8022 -0.1963 -1.1998c 0.0000,-1.5808 0.9996,-3.0545 2.5813 -3.5837c 21.5053,-7.1956 43.0106,-14.3911 64.5159 -21.5867c -1.9988,-5.9737 -3.9976,-11.9474 -5.9963 -17.9211c -0.1331,-0.3978 -0.1964,-0.8022 -0.1964 -1.1998c 0.0000,-1.5808 0.9996,-3.0545 2.5813 -3.5837c 23.5602,-7.8831 47.1205,-15.7663 70.6807 -23.6494c 1.9795,-0.6623 4.1211,0.4055 4.7835 2.3849c 1.5990,4.7790 3.1980,9.5579 4.7971 14.3369c 21.5053,-7.1956 43.0106,-14.3911 64.5159 -21.5867c 1.9795,-0.6624 4.1211,0.4054 4.7834 2.3849c 0.7995,2.3895 1.5990,4.7790 2.3985 7.1684c 21.5053,-7.1956 43.0106,-14.3911 64.5159 -21.5867c 1.9795,-0.6623 4.1211,0.4055 4.7835 2.3849c 21.5053,-7.1956 43.0106,-14.3911 64.5159 -21.5867c 1.9795,-0.6623 4.1211,0.4055 4.7834 2.3850c 7.5947,22.6982 15.1894,45.3963 22.7841 68.0945c 0.0006,0.0018 0.0013,0.0037 0.0019 0.0055c 0.2878,0.8602 0.5756,1.7204 0.8635 2.5807c 7.3075,21.8398 14.6150,43.6796 21.9225 65.5195c 0.2878,0.8602 0.5757,1.7204 0.8635 2.5806c 7.3075,21.8398 14.6150,43.6797 21.9225 65.5195c 0.2878,0.8602 0.5756,1.7204 0.8635 2.5807c 7.3069,21.8379 14.6137,43.6757 21.9205 65.5136c 0.0007,0.0020 0.0013,0.0039 0.0020 0.0058c 0.2878,0.8602 0.5757,1.7204 0.8635 2.5806c 7.5954,22.7000 15.1907,45.4001 22.7860 68.1001c 0.1331,0.3978 0.1963,0.8022 0.1963 1.1997c 0.0000,1.5808 -0.9996,3.0545 -2.5813 3.5837c -23.5602,7.8831 -47.1205,15.7663 -70.6807 23.6494c -1.9795,0.6623 -4.1211,-0.4055 -4.7834 -2.3850c -21.5053,7.1956 -43.0106,14.3911 -64.5159 21.5867c -1.9795,0.6624 -4.1212,-0.4054 -4.7835 -2.3849c -0.7995,-2.3895 -1.5990,-4.7790 -2.3985 -7.1684c -21.5053,7.1956 -43.0106,14.3911 -64.5158 21.5867c -1.9795,0.6624 -4.1212,-0.4055 -4.7835 -2.3849c -1.5990,-4.7790 -3.1981,-9.5579 -4.7971 -14.3369c -19.4503,6.5080 -38.9007,13.0160 -58.3510 19.5240c 1.9988,5.9737 3.9976,11.9474 5.9963 17.9211c 0.1331,0.3978 0.1963,0.8022 0.1963 1.1997c 0.0000,1.5808 -0.9996,3.0545 -2.5813 3.5837c -21.5053,7.1956 -43.0106,14.3911 -64.5159 21.5867c 1.5990,4.7790 3.1980,9.5579 4.7970 14.3368c 0.1331,0.3978 0.1964,0.8022 0.1964 1.1998c 0.0000,1.5808 -0.9996,3.0545 -2.5813 3.5837c -23.5602,7.8831 -47.1205,15.7663 -70.6807 23.6494c -1.9795,0.6624 -4.1211,-0.4055 -4.7835 -2.3849c -3.3979,-10.1553 -6.7958,-20.3106 -10.1937 -30.4658c -21.5053,7.1956 -43.0106,14.3911 -64.5159 21.5867c -1.9795,0.6624 -4.1212,-0.4054 -4.7835 -2.3849c -7.8831,-23.5603 -15.7663,-47.1205 -23.6494 -70.6807c -0.1331,-0.3978 -0.1963,-0.8022 -0.1963 -1.1998c 0.0000,-1.5808 0.9996,-3.0545 2.5813 -3.5837c 21.5053,-7.1956 43.0106,-14.3911 64.5159 -21.5867c -3.1101,-9.2951 -6.2202,-18.5902 -9.3303 -27.8852c -0.2878,-0.8602 -0.5756,-1.7204 -0.8635 -2.5806c -0.0006,-0.0017 -0.0011,-0.0034 -0.0017 -0.0051c -7.3070,-21.8381 -14.6139,-43.6762 -21.9208 -65.5143c -0.2878,-0.8602 -0.5757,-1.7204 -0.8635 -2.5807c -7.3075,-21.8398 -14.6150,-43.6796 -21.9225 -65.5195c -0.2878,-0.8602 -0.5756,-1.7204 -0.8635 -2.5806c -0.0004,-0.0011 -0.0007,-0.0022 -0.0011 -0.0033c -7.5950,-22.6989 -15.1899,-45.3979 -22.7849 -68.0968c -0.1331,-0.3978 -0.1963,-0.8022 -0.1963 -1.1997ZM 645.6167,99.7166 c 0.0000,-3.1310 2.5382,-5.6693 5.6693 -5.6693c 3.1310,-0.0000 5.6693,2.5382 5.6693 5.6693c 0.0000,3.1310 -2.5382,5.6693 -5.6693 5.6693c -3.1311,-0.0000 -5.6693,-2.5382 -5.6693 -5.6693ZM 755.5898,529.6373 c 0.0000,-3.1311 2.5382,-5.6693 5.6693 -5.6693c 3.1310,-0.0000 5.6693,2.5382 5.6693 5.6693c 0.0000,3.1310 -2.5382,5.6693 -5.6693 5.6693c -3.1311,-0.0000 -5.6693,-2.5382 -5.6693 -5.6693ZM 1041.1117,24.1260 c 0.0000,-3.1310 2.5382,-5.6693 5.6693 -5.6693c 3.1310,-0.0000 5.6693,2.5382 5.6693 5.6693c 0.0000,3.1311 -2.5382,5.6693 -5.6693 5.6693c -3.1311,-0.0000 -5.6693,-2.5382 -5.6693 -5.6693ZM 1159.3872,370.0549 c 0.0000,-3.1310 2.5382,-5.6693 5.6693 -5.6693c 3.1311,-0.0000 5.6693,2.5382 5.6693 5.6693c 0.0000,3.1310 -2.5382,5.6693 -5.6693 5.6693c -3.1310,-0.0000 -5.6693,-2.5382 -5.6693 -5.6693Z"/></g></svg>