<?xml version="1.0" encoding="UTF-8"?>
<!DOCTYPE svg PUBLIC "-//W3C//DTD SVG 1.1//EN"
    "http://www.w3.org/Graphics/SVG/1.1/DTD/svg11.dtd"><svg xmlns="http://www.w3.org/2000/svg" height="2258.0898" stroke-opacity="1" viewBox="0 0 1154 2258" font-size="1" width="1154.3560" xmlns:xlink="http://www.w3.org/1999/xlink" stroke="rgb(0,0,0)" version="1.1"><defs></defs><g stroke-linejoin="miter" stroke-opacity="1.0" fill-opacity="0.5" stroke="rgb(0,0,0)" stroke-width="0.37795275590551186" fill="rgb(0,0,0)" stroke-linecap="butt" stroke-miterlimit="10.0"><path d="M 3.9685,2010.9630 c 0.0000,-3.1884 0.4961,-6.4043 1.5635 -9.5945c 7.5953,-22.7000 15.1907,-45.4001 22.7860 -68.1001c 0.2878,-0.8602 0.5756,-1.7204 0.8635 -2.5806c 7.3075,-21.8398 14.6150,-43.6796 21.9225 -65.5194c 0.2879,-0.8603 0.5757,-1.7206 0.8636 -2.5808c 7.3075,-21.8398 14.6150,-43.6797 21.9225 -65.5195c 0.2878,-0.8602 0.5756,-1.7204 0.8635 -2.5806c 7.5953,-22.7000 15.1907,-45.4001 22.7860 -68.1001c 5.2697,-15.7496 22.5182,-24.3494 38.2677 -19.0797c 18.0927,6.0538 36.1855,12.1075 54.2782 18.1612c 4.8706,-0.9075 10.0214,-0.6324 15.0211 1.0405c 15.2573,5.1050 30.5145,10.2100 45.7718 15.3150c 7.4598,-4.7790 16.9371,-6.2893 25.9261 -3.2816c 13.8456,4.6327 27.6911,9.2653 41.5367 13.8980c 7.7878,-9.0424 20.6055,-13.0329 32.5597 -9.0331c 23.5603,7.8831 47.1205,15.7663 70.6807 23.6494c 12.6159,4.2212 20.6431,16.0644 20.6431 28.6732c 0.0000,0.7062 -0.0243,1.4137 -0.0738 2.1220c 13.4451,4.4987 26.8901,8.9973 40.3352 13.4960c 11.9942,4.0132 19.8408,14.9157 20.5851 26.8155c 2.0594,0.6891 4.1188,1.3781 6.1782 2.0672c 22.6429,-0.0000 45.2857,-0.0000 67.9286 -0.0000c 22.6429,-0.0000 45.2857,-0.0000 67.9286 -0.0000c 2.0594,-0.6891 4.1188,-1.3781 6.1782 -2.0672c 0.7442,-11.8998 8.5909,-22.8023 20.5851 -26.8155c 13.4451,-4.4987 26.8901,-8.9973 40.3352 -13.4960c -0.0495,-0.7083 -0.0738,-1.4158 -0.0738 -2.1220c 0.0000,-12.6088 8.0273,-24.4520 20.6431 -28.6732c 23.5602,-7.8832 47.1205,-15.7663 70.6807 -23.6494c 11.9542,-3.9998 24.7719,-0.0093 32.5597 9.0331c 13.8456,-4.6327 27.6911,-9.2653 41.5367 -13.8980c 8.9890,-3.0077 18.4663,-1.4973 25.9261 3.2816c 15.2573,-5.1050 30.5146,-10.2100 45.7718 -15.3150c 4.9997,-1.6729 10.1505,-1.9480 15.0211 -1.0405c 18.0927,-6.0538 36.1855,-12.1075 54.2782 -18.1612c 15.7495,-5.2697 32.9980,3.3300 38.2677 19.0797c 7.5953,22.7000 15.1907,45.4001 22.7860 68.1001c 0.2878,0.8602 0.5756,1.7204 0.8635 2.5806c 7.3075,21.8398 14.6150,43.6797 21.9225 65.5195c 0.2879,0.8603 0.5757,1.7205 0.8636 2.5808c 7.3075,21.8398 14.6150,43.6796 21.9225 65.5194c 0.2878,0.8602 0.5756,1.7204 0.8635 2.5806c 7.5953,22.7000 15.1907,45.4001 22.7860 68.1001c 1.0674,3.1902 1.5635,6.4061 1.5635 9.5945c 0.0000,12.6088 -8.0273,24.4521 -20.6432 28.6733c -23.5602,7.8832 -47.1205,15.7663 -70.6807 23.6494c -4.9997,1.6729 -10.1505,1.9481 -15.0212 1.0405c -18.0927,6.0538 -36.1855,12.1075 -54.2782 18.1612c -8.9890,3.0077 -18.4663,1.4974 -25.9261 -3.2816c -15.2573,5.1050 -30.5145,10.2100 -45.7718 15.3150c -11.9542,3.9998 -24.7719,0.0093 -32.5597 -9.0330c -3.7304,1.2482 -7.4608,2.4964 -11.1912 3.7445c 0.0495,0.7083 0.0738,1.4158 0.0738 2.1220c 0.0000,12.6087 -8.0272,24.4520 -20.6431 28.6732c -13.8396,4.6307 -27.6792,9.2613 -41.5187 13.8920c -0.7444,11.8997 -8.5910,22.8019 -20.5850 26.8150c -11.7801,3.9416 -23.5602,7.8831 -35.3403 11.8247c -1.3620,0.4557 -2.7241,0.9114 -4.0861 1.3672c 1.8655,5.5754 3.7310,11.1509 5.5965 16.7263c 1.0674,3.1902 1.5635,6.4062 1.5635 9.5946c 0.0000,12.6087 -8.0273,24.4520 -20.6431 28.6732c -23.5602,7.8832 -47.1205,15.7663 -70.6807 23.6494c -15.7495,5.2697 -32.9981,-3.3301 -38.2678 -19.0796c -6.7957,-20.3104 -13.5915,-40.6208 -20.3873 -60.9312c -10.7397,-0.0000 -21.4794,-0.0000 -32.2192 -0.0000c -10.7397,-0.0000 -21.4794,-0.0000 -32.2192 -0.0000c -6.7957,20.3104 -13.5915,40.6208 -20.3873 60.9312c -5.2697,15.7495 -22.5183,24.3493 -38.2678 19.0796c -23.5602,-7.8832 -47.1205,-15.7663 -70.6807 -23.6494c -12.6159,-4.2212 -20.6431,-16.0646 -20.6431 -28.6732c 0.0000,-3.1884 0.4961,-6.4044 1.5635 -9.5946c 1.8655,-5.5754 3.7311,-11.1509 5.5965 -16.7263c -1.3620,-0.4557 -2.7241,-0.9114 -4.0861 -1.3672c -11.7801,-3.9415 -23.5602,-7.8831 -35.3403 -11.8247c -11.9941,-4.0132 -19.8406,-14.9154 -20.5850 -26.8150c -13.8396,-4.6307 -27.6792,-9.2613 -41.5187 -13.8920c -12.6159,-4.2212 -20.6431,-16.0645 -20.6431 -28.6732c 0.0000,-0.7062 0.0243,-1.4137 0.0738 -2.1220c -3.7304,-1.2482 -7.4608,-2.4964 -11.1912 -3.7445c -7.7878,9.0424 -20.6055,13.0329 -32.5597 9.0330c -15.2573,-5.1050 -30.5145,-10.2100 -45.7718 -15.3150c -7.4598,4.7790 -16.9371,6.2893 -25.9261 3.2816c -18.0927,-6.0538 -36.1855,-12.1075 -54.2782 -18.1612c -4.8707,0.9076 -10.0215,0.6324 -15.0212 -1.0405c -23.5602,-7.8831 -47.1205,-15.7663 -70.6807 -23.6494c -12.6159,-4.2212 -20.6432,-16.0645 -20.6432 -28.6733ZM 14.0983,2018.1616 c 0.0000,3.1311 2.5382,5.6693 5.6693 5.6693c 3.1311,-0.0000 5.6693,-2.5382 5.6693 -5.6693c 0.0000,-3.1311 -2.5382,-5.6693 -5.6693 -5.6693c -3.1311,-0.0000 -5.6693,2.5382 -5.6693 5.6693ZM 113.3451,1721.5442 c 0.0000,3.1311 2.5382,5.6693 5.6693 5.6693c 3.1311,-0.0000 5.6693,-2.5382 5.6693 -5.6693c 0.0000,-3.1311 -2.5382,-5.6693 -5.6693 -5.6693c -3.1311,-0.0000 -5.6693,2.5382 -5.6693 5.6693ZM 497.4268,2238.3348 c 0.0000,3.1311 2.5382,5.6693 5.6693 5.6693c 3.1311,-0.0000 5.6693,-2.5382 5.6693 -5.6693c 0.0000,-3.1311 -2.5382,-5.6693 -5.6693 -5.6693c -3.1311,-0.0000 -5.6693,2.5382 -5.6693 5.6693ZM 543.1623,1854.1740 c 0.0000,3.1311 2.5382,5.6693 5.6693 5.6693c 3.1311,-0.0000 5.6693,-2.5382 5.6693 -5.6693c 0.0000,-3.1311 -2.5382,-5.6693 -5.6693 -5.6693c -3.1311,-0.0000 -5.6693,2.5382 -5.6693 5.6693ZM 599.8552,1854.1740 c 0.0000,3.1311 2.5382,5.6693 5.6693 5.6693c 3.1311,-0.0000 5.6693,-2.5382 5.6693 -5.6693c 0.0000,-3.1311 -2.5382,-5.6693 -5.6693 -5.6693c -3.1311,-0.0000 -5.6693,2.5382 -5.6693 5.6693ZM 645.5906,2238.3348 c 0.0000,3.1311 2.5382,5.6693 5.6693 5.6693c 3.1311,-0.0000 5.6693,-2.5382 5.6693 -5.6693c 0.0000,-3.1311 -2.5382,-5.6693 -5.6693 -5.6693c -3.1311,-0.0000 -5.6693,2.5382 -5.6693 5.6693ZM 1029.6723,1721.5442 c 0.0000,3.1311 2.5382,5.6693 5.6693 5.6693c 3.1311,-0.0000 5.6693,-2.5382 5.6693 -5.6693c 0.0000,-3.1311 -2.5382,-5.6693 -5.6693 -5.6693c -3.1311,-0.0000 -5.6693,2.5382 -5.6693 5.6693ZM 1128.9191,2018.1616 c 0.0000,3.1311 2.5382,5.6693 5.6693 5.6693c 3.1311,-0.0000 5.6693,-2.5382 5.6693 -5.6693c 0.0000,-3.1311 -2.5382,-5.6693 -5.6693 -5.6693c -3.1311,-0.0000 -5.6693,2.5382 -5.6693 5.6693Z"/></g><g stroke-linejoin="miter" stroke-opacity="1.0" fill-opacity="0.5" stroke="rgb(0,0,0)" stroke-width="0.37795275590551186" fill="rgb(255,255,0)" stroke-linecap="butt" stroke-miterlimit="10.0"><path d="M 3.9685,1443.7004 c 0.0000,-3.1884 0.4961,-6.4043 1.5635 -9.5946c 7.5953,-22.7000 15.1907,-45.4001 22.7860 -68.1001c 0.2878,-0.8602 0.5756,-1.7204 0.8635 -2.5806c 7.3075,-21.8398 14.6150,-43.6796 21.9225 -65.5195c 0.2879,-0.8603 0.5757,-1.7206 0.8636 -2.5808c 7.3075,-21.8398 14.6150,-43.6797 21.9225 -65.5195c 0.2878,-0.8602 0.5756,-1.7204 0.8635 -2.5806c 7.5953,-22.7000 15.1907,-45.4001 22.7860 -68.1001c 1.3356,-3.9917 3.4407,-7.5242 6.0958 -10.4879c 5.1651,-5.7655 12.4118,-9.3790 20.1247 -10.0349c 3.9657,-0.3373 8.0546,0.1073 12.0472 1.4432c 18.0927,6.0538 36.1855,12.1075 54.2782 18.1612c 4.8706,-0.9075 10.0214,-0.6324 15.0211 1.0405c 15.2573,5.1050 30.5145,10.2100 45.7718 15.3150c 7.4598,-4.7790 16.9371,-6.2893 25.9261 -3.2816c 13.8456,4.6327 27.6911,9.2653 41.5367 13.8980c 7.7878,-9.0424 20.6056,-13.0329 32.5597 -9.0331c 23.5602,7.8831 47.1205,15.7663 70.6807 23.6494c 12.6159,4.2212 20.6431,16.0644 20.6431 28.6732c 0.0000,0.7062 -0.0243,1.4137 -0.0738 2.1220c 13.4451,4.4987 26.8901,8.9973 40.3352 13.4960c 11.9942,4.0132 19.8408,14.9157 20.5851 26.8155c 2.0594,0.6891 4.1188,1.3781 6.1782 2.0672c 10.3285,-0.0000 20.6569,-0.0000 30.9854 -0.0000c 5.7312,-0.0000 11.4624,-0.0000 17.1936 -0.0000c 6.5832,-0.0000 13.1665,-0.0000 19.7497 -0.0000c 6.5832,-0.0000 13.1665,-0.0000 19.7497 -0.0000c 5.7312,-0.0000 11.4624,-0.0000 17.1936 -0.0000c 10.3285,-0.0000 20.6569,-0.0000 30.9854 -0.0000c 2.0594,-0.6891 4.1188,-1.3781 6.1782 -2.0672c 0.7442,-11.8998 8.5909,-22.8023 20.5851 -26.8155c 13.4451,-4.4987 26.8901,-8.9973 40.3352 -13.4960c -0.0495,-0.7083 -0.0738,-1.4158 -0.0738 -2.1220c 0.0000,-12.6088 8.0273,-24.4520 20.6431 -28.6732c 23.5602,-7.8832 47.1205,-15.7663 70.6807 -23.6494c 11.9542,-3.9998 24.7719,-0.0093 32.5597 9.0331c 13.8456,-4.6327 27.6911,-9.2653 41.5367 -13.8980c 8.9890,-3.0077 18.4663,-1.4973 25.9261 3.2816c 15.2573,-5.1050 30.5146,-10.2100 45.7718 -15.3150c 4.9997,-1.6729 10.1505,-1.9480 15.0211 -1.0405c 18.0927,-6.0538 36.1855,-12.1075 54.2782 -18.1612c 3.9926,-1.3359 8.0815,-1.7805 12.0472 -1.4432c 7.7129,0.6560 14.9596,4.2694 20.1247 10.0349c 2.6551,2.9638 4.7602,6.4962 6.0958 10.4879c 7.5953,22.7000 15.1907,45.4001 22.7860 68.1001c 0.2878,0.8602 0.5756,1.7204 0.8635 2.5806c 7.3075,21.8398 14.6150,43.6797 21.9225 65.5195c 0.2879,0.8603 0.5757,1.7205 0.8636 2.5808c 7.3075,21.8398 14.6150,43.6796 21.9225 65.5195c 0.2878,0.8602 0.5756,1.7204 0.8635 2.5806c 7.5953,22.7000 15.1907,45.4001 22.7860 68.1001c 1.0674,3.1902 1.5635,6.4061 1.5635 9.5946c 0.0000,0.8373 -0.0354,1.6712 -0.1052 2.4998c -0.6475,7.6867 -4.2550,14.9101 -10.0186 20.0668c -2.9705,2.6577 -6.5136,4.7664 -10.5194 6.1067c -23.5602,7.8832 -47.1205,15.7663 -70.6807 23.6494c -4.9997,1.6729 -10.1505,1.9481 -15.0212 1.0405c -18.0927,6.0538 -36.1855,12.1075 -54.2782 18.1612c -8.9890,3.0077 -18.4663,1.4974 -25.9261 -3.2816c -15.2573,5.1050 -30.5145,10.2100 -45.7718 15.3150c -11.9542,3.9998 -24.7719,0.0093 -32.5597 -9.0331c -3.7304,1.2482 -7.4608,2.4964 -11.1912 3.7445c 0.0495,0.7083 0.0738,1.4159 0.0738 2.1221c 0.0000,12.6087 -8.0272,24.4520 -20.6431 28.6732c -13.8396,4.6307 -27.6791,9.2613 -41.5187 13.8920c -0.7444,11.8997 -8.5910,22.8019 -20.5850 26.8150c -11.7801,3.9416 -23.5602,7.8831 -35.3403 11.8247c -1.3620,0.4557 -2.7241,0.9114 -4.0861 1.3672c 1.8655,5.5754 3.7310,11.1509 5.5965 16.7264c 1.0674,3.1902 1.5635,6.4062 1.5635 9.5946c 0.0000,12.6087 -8.0273,24.4520 -20.6431 28.6732c -23.5602,7.8832 -47.1205,15.7663 -70.6807 23.6494c -3.9913,1.3355 -8.0788,1.7802 -12.0432 1.4436c -7.7144,-0.6551 -14.9627,-4.2688 -20.1287 -10.0353c -2.6551,-2.9638 -4.7602,-6.4962 -6.0958 -10.4879c -6.7958,-20.3104 -13.5915,-40.6208 -20.3873 -60.9312c -10.7397,-0.0000 -21.4794,-0.0000 -32.2192 -0.0000c -10.7397,-0.0000 -21.4794,-0.0000 -32.2192 -0.0000c -6.7957,20.3104 -13.5915,40.6208 -20.3873 60.9312c -1.3356,3.9917 -3.4407,7.5241 -6.0958 10.4879c -5.1660,5.7665 -12.4144,9.3802 -20.1287 10.0353c -3.9645,0.3366 -8.0520,-0.1081 -12.0432 -1.4436c -23.5602,-7.8832 -47.1205,-15.7663 -70.6807 -23.6494c -12.6159,-4.2212 -20.6431,-16.0646 -20.6431 -28.6732c 0.0000,-3.1884 0.4961,-6.4044 1.5635 -9.5946c 1.8655,-5.5754 3.7310,-11.1509 5.5965 -16.7264c -1.3620,-0.4557 -2.7241,-0.9114 -4.0861 -1.3672c -11.7801,-3.9415 -23.5602,-7.8831 -35.3403 -11.8247c -11.9941,-4.0132 -19.8406,-14.9154 -20.5850 -26.8150c -13.8396,-4.6307 -27.6792,-9.2613 -41.5187 -13.8920c -12.6159,-4.2212 -20.6431,-16.0645 -20.6431 -28.6732c 0.0000,-0.7062 0.0243,-1.4137 0.0738 -2.1221c -3.7304,-1.2482 -7.4608,-2.4964 -11.1912 -3.7445c -7.7878,9.0424 -20.6055,13.0329 -32.5597 9.0331c -15.2573,-5.1050 -30.5145,-10.2100 -45.7718 -15.3150c -7.4598,4.7790 -16.9371,6.2893 -25.9261 3.2816c -18.0927,-6.0538 -36.1855,-12.1075 -54.2782 -18.1612c -4.8707,0.9076 -10.0215,0.6324 -15.0212 -1.0405c -23.5602,-7.8831 -47.1205,-15.7663 -70.6807 -23.6494c -4.0058,-1.3403 -7.5489,-3.4490 -10.5194 -6.1067c -5.7636,-5.1567 -9.3712,-12.3800 -10.0186 -20.0668c -0.0698,-0.8285 -0.1052,-1.6625 -0.1052 -2.4998ZM 28.4694,1437.0214 c 4.6112,2.8975 7.6762,8.0296 7.6762 13.8776c 0.0000,0.4722 -0.0200,0.9397 -0.0591 1.4018c 22.1338,7.4058 44.2676,14.8117 66.4013 22.2176c 2.6428,0.8843 5.4439,0.2151 7.4028 -1.5086c 20.6322,6.9034 41.2644,13.8069 61.8966 20.7103c 3.9466,1.3205 8.2464,-0.8232 9.5670 -4.7699c 0.3998,-1.1947 0.7995,-2.3895 1.1992 -3.5842c 20.3106,6.7958 40.6211,13.5916 60.9317 20.3875c 3.9467,1.3205 8.2464,-0.8233 9.5669 -4.7699c 1.1993,-3.5842 2.3985,-7.1684 3.5978 -10.7526c 17.0608,5.7085 34.1217,11.4170 51.1826 17.1254c -1.5990,4.7789 -3.1980,9.5579 -4.7971 14.3369c -0.2666,0.7967 -0.3916,1.6028 -0.3916 2.3990c 0.0000,3.1562 2.0036,6.1113 5.1616 7.1679c 20.3105,6.7958 40.6211,13.5916 60.9316 20.3875c -1.1992,3.5842 -2.3985,7.1684 -3.5978 10.7526c -0.2666,0.7967 -0.3917,1.6027 -0.3917 2.3990c 0.0000,3.1562 2.0036,6.1113 5.1616 7.1679c 11.7801,3.9416 23.5602,7.8831 35.3403 11.8247c 8.5304,2.8542 17.0609,5.7085 25.5913 8.5627c -4.2640,12.7439 -8.5281,25.4877 -12.7921 38.2316c -0.2666,0.7967 -0.3916,1.6028 -0.3916 2.3990c 0.0000,3.1562 2.0035,6.1113 5.1615 7.1679c 22.1333,7.4057 44.2667,14.8114 66.4001 22.2172c 2.8975,-4.6112 8.0296,-7.6761 13.8776 -7.6761c 0.4722,-0.0000 0.9398,0.0200 1.4019 0.0592c 7.1180,-21.2736 14.2361,-42.5472 21.3541 -63.8207c 0.2878,-0.8602 0.5756,-1.7204 0.8635 -2.5806c 0.0000,-0.0001 0.0001,-0.0002 0.0001 -0.0003c 0.5086,-1.5199 1.0171,-3.0399 1.5257 -4.5598c 16.3122,-0.0000 32.6245,-0.0000 48.9367 -0.0000c 16.3122,-0.0000 32.6245,-0.0000 48.9367 -0.0000c 0.5086,1.5199 1.0171,3.0399 1.5257 4.5598c 0.0000,0.0001 0.0001,0.0002 0.0001 0.0003c 0.2878,0.8602 0.5757,1.7204 0.8635 2.5806c 7.1181,21.2736 14.2361,42.5471 21.3541 63.8207c 0.4621,-0.0392 0.9296,-0.0592 1.4019 -0.0592c 5.8480,-0.0000 10.9801,3.0650 13.8776 7.6761c 22.1334,-7.4057 44.2668,-14.8114 66.4001 -22.2172c 3.1580,-1.0566 5.1615,-4.0117 5.1615 -7.1679c 0.0000,-0.7963 -0.1251,-1.6023 -0.3916 -2.3990c -4.2640,-12.7439 -8.5281,-25.4877 -12.7921 -38.2316c 8.5304,-2.8542 17.0609,-5.7085 25.5913 -8.5627c 11.7801,-3.9416 23.5602,-7.8831 35.3403 -11.8247c 3.1580,-1.0567 5.1616,-4.0117 5.1616 -7.1679c 0.0000,-0.7963 -0.1251,-1.6023 -0.3917 -2.3990c -1.1993,-3.5842 -2.3985,-7.1684 -3.5978 -10.7526c 20.3105,-6.7958 40.6211,-13.5916 60.9316 -20.3875c 3.1580,-1.0566 5.1616,-4.0117 5.1616 -7.1679c 0.0000,-0.7963 -0.1251,-1.6023 -0.3916 -2.3990c -1.5990,-4.7789 -3.1981,-9.5579 -4.7971 -14.3369c 17.0609,-5.7085 34.1217,-11.4170 51.1826 -17.1254c 1.1993,3.5842 2.3985,7.1684 3.5978 10.7526c 1.3205,3.9466 5.6203,6.0904 9.5669 4.7699c 20.3106,-6.7958 40.6211,-13.5916 60.9317 -20.3875c 0.3997,1.1947 0.7995,2.3895 1.1992 3.5842c 1.3206,3.9467 5.6203,6.0904 9.5670 4.7699c 20.6322,-6.9034 41.2644,-13.8069 61.8966 -20.7103c 1.9589,1.7237 4.7600,2.3928 7.4028 1.5086c 22.1338,-7.4059 44.2675,-14.8117 66.4013 -22.2176c -0.0392,-0.4621 -0.0591,-0.9296 -0.0591 -1.4018c 0.0000,-5.8480 3.0650,-10.9801 7.6762 -13.8776c -7.1179,-21.2732 -14.2358,-42.5464 -21.3537 -63.8196c -0.2878,-0.8602 -0.5757,-1.7204 -0.8635 -2.5806c -7.3075,-21.8398 -14.6150,-43.6796 -21.9225 -65.5195c -0.2878,-0.8602 -0.5757,-1.7204 -0.8635 -2.5807c -7.3075,-21.8398 -14.6150,-43.6796 -21.9225 -65.5195c -0.2878,-0.8602 -0.5757,-1.7204 -0.8635 -2.5806c -7.1180,-21.2735 -14.2360,-42.5470 -21.3541 -63.8205c -0.4621,0.0392 -0.9296,0.0592 -1.4018 0.0592c -5.8480,-0.0000 -10.9802,-3.0650 -13.8777 -7.6763c -19.2053,6.4260 -38.4106,12.8520 -57.6159 19.2780c -1.9589,-1.7237 -4.7600,-2.3928 -7.4028 -1.5085c -20.3105,6.7958 -40.6211,13.5916 -60.9316 20.3874c -0.3998,-1.1948 -0.7995,-2.3895 -1.1993 -3.5842c -1.3205,-3.9466 -5.6203,-6.0904 -9.5669 -4.7699c -20.3106,6.7958 -40.6211,13.5917 -60.9317 20.3875c -1.1993,-3.5842 -2.3985,-7.1685 -3.5978 -10.7527c -1.3206,-3.9466 -5.6203,-6.0904 -9.5670 -4.7699c -23.5602,7.8831 -47.1205,15.7663 -70.6807 23.6495c -3.1580,1.0566 -5.1616,4.0117 -5.1616 7.1679c 0.0000,0.7963 0.1251,1.6023 0.3917 2.3990c 1.5990,4.7789 3.1980,9.5579 4.7970 14.3369c -20.3105,6.7958 -40.6211,13.5916 -60.9316 20.3874c -3.1580,1.0567 -5.1616,4.0117 -5.1616 7.1679c 0.0000,0.7963 0.1251,1.6023 0.3917 2.3991c 1.1993,3.5842 2.3985,7.1684 3.5978 10.7526c -8.5304,2.8542 -17.0609,5.7085 -25.5913 8.5627c -10.7489,-0.0000 -21.4978,-0.0000 -32.2467 -0.0000c -2.7320,5.2387 -8.2139,8.8153 -14.5312 8.8153c -6.3172,-0.0000 -11.7991,-3.5766 -14.5312 -8.8153c -4.6051,-0.0000 -9.2102,-0.0000 -13.8153 -0.0000c -4.6051,-0.0000 -9.2102,-0.0000 -13.8153 -0.0000c -2.7320,5.2387 -8.2139,8.8153 -14.5312 8.8153c -6.3172,-0.0000 -11.7991,-3.5766 -14.5312 -8.8153c -10.7489,-0.0000 -21.4978,-0.0000 -32.2467 -0.0000c -8.5304,-2.8542 -17.0609,-5.7085 -25.5913 -8.5627c 1.1993,-3.5842 2.3985,-7.1684 3.5978 -10.7526c 0.2666,-0.7968 0.3917,-1.6028 0.3917 -2.3991c 0.0000,-3.1562 -2.0035,-6.1113 -5.1616 -7.1679c -20.3105,-6.7958 -40.6211,-13.5917 -60.9316 -20.3874c 1.5990,-4.7790 3.1980,-9.5579 4.7970 -14.3369c 0.2666,-0.7967 0.3917,-1.6027 0.3917 -2.3990c 0.0000,-3.1562 -2.0036,-6.1113 -5.1616 -7.1679c -23.5602,-7.8832 -47.1205,-15.7663 -70.6807 -23.6495c -3.9466,-1.3205 -8.2464,0.8233 -9.5670 4.7699c -1.1993,3.5842 -2.3985,7.1684 -3.5978 10.7527c -20.3105,-6.7958 -40.6211,-13.5916 -60.9317 -20.3875c -3.9466,-1.3205 -8.2464,0.8233 -9.5669 4.7699c -0.3998,1.1947 -0.7995,2.3895 -1.1993 3.5842c -20.3105,-6.7958 -40.6211,-13.5916 -60.9316 -20.3874c -2.6428,-0.8843 -5.4439,-0.2152 -7.4028 1.5085c -19.2053,-6.4260 -38.4106,-12.8520 -57.6159 -19.2780c -2.8975,4.6113 -8.0296,7.6763 -13.8777 7.6763c -0.4722,-0.0000 -0.9398,-0.0200 -1.4018 -0.0592c -7.1180,21.2735 -14.2360,42.5470 -21.3541 63.8205c -0.2878,0.8602 -0.5757,1.7204 -0.8635 2.5806c -7.3075,21.8398 -14.6150,43.6796 -21.9225 65.5195c -0.2878,0.8602 -0.5757,1.7204 -0.8635 2.5807c -7.3075,21.8398 -14.6150,43.6796 -21.9225 65.5195c -0.2878,0.8602 -0.5756,1.7204 -0.8635 2.5806c -7.1179,21.2732 -14.2358,42.5464 -21.3537 63.8196ZM 14.0983,1450.8990 c 0.0000,3.1311 2.5382,5.6693 5.6693 5.6693c 3.1311,-0.0000 5.6693,-2.5382 5.6693 -5.6693c 0.0000,-3.1311 -2.5382,-5.6693 -5.6693 -5.6693c -3.1311,-0.0000 -5.6693,2.5382 -5.6693 5.6693ZM 113.3451,1154.2816 c 0.0000,3.1311 2.5382,5.6693 5.6693 5.6693c 3.1311,-0.0000 5.6693,-2.5382 5.6693 -5.6693c 0.0000,-3.1311 -2.5382,-5.6693 -5.6693 -5.6693c -3.1311,-0.0000 -5.6693,2.5382 -5.6693 5.6693ZM 497.4268,1671.0722 c 0.0000,3.1311 2.5382,5.6693 5.6693 5.6693c 3.1311,-0.0000 5.6693,-2.5382 5.6693 -5.6693c 0.0000,-3.1311 -2.5382,-5.6693 -5.6693 -5.6693c -3.1311,-0.0000 -5.6693,2.5382 -5.6693 5.6693ZM 543.1623,1286.9114 c 0.0000,3.1311 2.5382,5.6693 5.6693 5.6693c 3.1311,-0.0000 5.6693,-2.5382 5.6693 -5.6693c 0.0000,-3.1311 -2.5382,-5.6693 -5.6693 -5.6693c -3.1311,-0.0000 -5.6693,2.5382 -5.6693 5.6693ZM 599.8552,1286.9114 c 0.0000,3.1311 2.5382,5.6693 5.6693 5.6693c 3.1311,-0.0000 5.6693,-2.5382 5.6693 -5.6693c 0.0000,-3.1311 -2.5382,-5.6693 -5.6693 -5.6693c -3.1311,-0.0000 -5.6693,2.5382 -5.6693 5.6693ZM 645.5906,1671.0722 c 0.0000,3.1311 2.5382,5.6693 5.6693 5.6693c 3.1311,-0.0000 5.6693,-2.5382 5.6693 -5.6693c 0.0000,-3.1311 -2.5382,-5.6693 -5.6693 -5.6693c -3.1311,-0.0000 -5.6693,2.5382 -5.6693 5.6693ZM 1029.6723,1154.2816 c 0.0000,3.1311 2.5382,5.6693 5.6693 5.6693c 3.1311,-0.0000 5.6693,-2.5382 5.6693 -5.6693c 0.0000,-3.1311 -2.5382,-5.6693 -5.6693 -5.6693c -3.1311,-0.0000 -5.6693,2.5382 -5.6693 5.6693ZM 1128.9191,1450.8990 c 0.0000,3.1311 2.5382,5.6693 5.6693 5.6693c 3.1311,-0.0000 5.6693,-2.5382 5.6693 -5.6693c 0.0000,-3.1311 -2.5382,-5.6693 -5.6693 -5.6693c -3.1311,-0.0000 -5.6693,2.5382 -5.6693 5.6693Z"/></g><g stroke-linejoin="miter" stroke-opacity="1.0" fill-opacity="0.5" stroke="rgb(0,0,0)" stroke-width="0.37795275590551186" fill="rgb(0,0,0)" stroke-linecap="butt" stroke-miterlimit="10.0"><path d="M 3.9685,876.4378 c 0.0000,-3.1884 0.4961,-6.4043 1.5635 -9.5945c 7.5953,-22.7000 15.1907,-45.4001 22.7860 -68.1001c 0.2878,-0.8602 0.5756,-1.7204 0.8635 -2.5806c 7.3075,-21.8398 14.6150,-43.6796 21.9225 -65.5194c 0.2879,-0.8603 0.5757,-1.7206 0.8636 -2.5808c 7.3075,-21.8398 14.6150,-43.6797 21.9225 -65.5195c 0.2878,-0.8602 0.5756,-1.7204 0.8635 -2.5806c 7.5953,-22.7000 15.1907,-45.4001 22.7860 -68.1001c 5.2697,-15.7496 22.5182,-24.3494 38.2677 -19.0797c 18.0927,6.0538 36.1855,12.1075 54.2782 18.1612c 4.8706,-0.9075 10.0214,-0.6324 15.0211 1.0405c 15.2573,5.1050 30.5145,10.2100 45.7718 15.3150c 7.4598,-4.7790 16.9371,-6.2893 25.9261 -3.2816c 13.8456,4.6327 27.6911,9.2653 41.5367 13.8980c 7.7878,-9.0424 20.6055,-13.0329 32.5597 -9.0331c 23.5603,7.8831 47.1205,15.7663 70.6807 23.6494c 12.6159,4.2212 20.6431,16.0644 20.6431 28.6732c 0.0000,0.7062 -0.0243,1.4137 -0.0738 2.1220c 13.4451,4.4987 26.8901,8.9973 40.3352 13.4960c 11.9942,4.0132 19.8408,14.9157 20.5851 26.8155c 2.0594,0.6891 4.1188,1.3781 6.1782 2.0672c 22.6429,-0.0000 45.2857,-0.0000 67.9286 -0.0000c 22.6429,-0.0000 45.2857,-0.0000 67.9286 -0.0000c 2.0594,-0.6891 4.1188,-1.3781 6.1782 -2.0672c 0.7442,-11.8998 8.5909,-22.8023 20.5851 -26.8155c 13.4451,-4.4987 26.8901,-8.9973 40.3352 -13.4960c -0.0495,-0.7083 -0.0738,-1.4158 -0.0738 -2.1220c 0.0000,-12.6088 8.0273,-24.4520 20.6431 -28.6732c 23.5602,-7.8832 47.1205,-15.7663 70.6807 -23.6494c 11.9542,-3.9998 24.7719,-0.0093 32.5597 9.0331c 13.8456,-4.6327 27.6911,-9.2653 41.5367 -13.8980c 8.9890,-3.0077 18.4663,-1.4973 25.9261 3.2816c 15.2573,-5.1050 30.5146,-10.2100 45.7718 -15.3150c 4.9997,-1.6729 10.1505,-1.9480 15.0211 -1.0405c 18.0927,-6.0538 36.1855,-12.1075 54.2782 -18.1612c 15.7495,-5.2697 32.9980,3.3300 38.2677 19.0797c 7.5953,22.7000 15.1907,45.4001 22.7860 68.1001c 0.2878,0.8602 0.5756,1.7204 0.8635 2.5806c 7.3075,21.8398 14.6150,43.6797 21.9225 65.5195c 0.2879,0.8603 0.5757,1.7205 0.8636 2.5808c 7.3075,21.8398 14.6150,43.6796 21.9225 65.5194c 0.2878,0.8602 0.5756,1.7204 0.8635 2.5806c 7.5953,22.7000 15.1907,45.4001 22.7860 68.1001c 1.0674,3.1902 1.5635,6.4061 1.5635 9.5945c 0.0000,12.6088 -8.0273,24.4521 -20.6432 28.6733c -23.5602,7.8832 -47.1205,15.7663 -70.6807 23.6494c -4.9997,1.6729 -10.1505,1.9481 -15.0212 1.0405c -18.0927,6.0538 -36.1855,12.1075 -54.2782 18.1612c -8.9890,3.0077 -18.4663,1.4974 -25.9261 -3.2816c -15.2573,5.1050 -30.5145,10.2100 -45.7718 15.3150c -11.9542,3.9998 -24.7719,0.0093 -32.5597 -9.0330c -3.7304,1.2482 -7.4608,2.4964 -11.1912 3.7445c 0.0495,0.7083 0.0738,1.4158 0.0738 2.1220c 0.0000,12.6087 -8.0272,24.4520 -20.6431 28.6732c -13.8396,4.6307 -27.6792,9.2613 -41.5187 13.8920c -0.7444,11.8997 -8.5910,22.8019 -20.5850 26.8150c -11.7801,3.9416 -23.5602,7.8831 -35.3403 11.8247c -1.3620,0.4557 -2.7241,0.9114 -4.0861 1.3672c 1.8655,5.5754 3.7310,11.1509 5.5965 16.7263c 1.0674,3.1902 1.5635,6.4062 1.5635 9.5946c 0.0000,12.6087 -8.0273,24.4520 -20.6431 28.6732c -23.5602,7.8832 -47.1205,15.7663 -70.6807 23.6494c -15.7495,5.2697 -32.9981,-3.3301 -38.2678 -19.0796c -6.7957,-20.3104 -13.5915,-40.6208 -20.3873 -60.9312c -10.7397,-0.0000 -21.4794,-0.0000 -32.2192 -0.0000c -10.7397,-0.0000 -21.4794,-0.0000 -32.2192 -0.0000c -6.7957,20.3104 -13.5915,40.6208 -20.3873 60.9312c -5.2697,15.7495 -22.5183,24.3493 -38.2678 19.0796c -23.5602,-7.8832 -47.1205,-15.7663 -70.6807 -23.6494c -12.6159,-4.2212 -20.6431,-16.0646 -20.6431 -28.6732c 0.0000,-3.1884 0.4961,-6.4044 1.5635 -9.5946c 1.8655,-5.5754 3.7311,-11.1509 5.5965 -16.7263c -1.3620,-0.4557 -2.7241,-0.9114 -4.0861 -1.3672c -11.7801,-3.9415 -23.5602,-7.8831 -35.3403 -11.8247c -11.9941,-4.0132 -19.8406,-14.9154 -20.5850 -26.8150c -13.8396,-4.6307 -27.6792,-9.2613 -41.5187 -13.8920c -12.6159,-4.2212 -20.6431,-16.0645 -20.6431 -28.6732c 0.0000,-0.7062 0.0243,-1.4137 0.0738 -2.1220c -3.7304,-1.2482 -7.4608,-2.4964 -11.1912 -3.7445c -7.7878,9.0424 -20.6055,13.0329 -32.5597 9.0330c -15.2573,-5.1050 -30.5145,-10.2100 -45.7718 -15.3150c -7.4598,4.7790 -16.9371,6.2893 -25.9261 3.2816c -18.0927,-6.0538 -36.1855,-12.1075 -54.2782 -18.1612c -4.8707,0.9076 -10.0215,0.6324 -15.0212 -1.0405c -23.5602,-7.8831 -47.1205,-15.7663 -70.6807 -23.6494c -12.6159,-4.2212 -20.6432,-16.0645 -20.6432 -28.6733ZM 46.2206,865.0923 c 0.9711,0.3249 1.9422,0.6498 2.9132 0.9748c -0.3919,1.1714 -0.7839,2.3428 -1.1758 3.5141c 16.6905,5.5846 33.3810,11.1691 50.0715 16.7537c 0.3919,-1.1714 0.7839,-2.3428 1.1758 -3.5141c 0.9711,0.3249 1.9422,0.6498 2.9133 0.9748c 1.3992,-4.1817 2.7984,-8.3634 4.1975 -12.5451c -0.9711,-0.3249 -1.9422,-0.6498 -2.9132 -0.9748c 2.0023,-5.9843 4.0047,-11.9687 6.0070 -17.9530c 0.9711,0.3249 1.9422,0.6498 2.9133 0.9748c 1.3992,-4.1817 2.7984,-8.3634 4.1975 -12.5451c -0.9711,-0.3249 -1.9422,-0.6498 -2.9132 -0.9748c 0.3919,-1.1714 0.7839,-2.3428 1.1758 -3.5141c -16.6905,-5.5846 -33.3810,-11.1691 -50.0715 -16.7537c -0.3919,1.1714 -0.7839,2.3428 -1.1758 3.5141c -0.9711,-0.3249 -1.9422,-0.6498 -2.9133 -0.9748c -1.3992,4.1817 -2.7983,8.3634 -4.1975 12.5451c 0.9711,0.3249 1.9422,0.6498 2.9132 0.9748c -2.0023,5.9843 -4.0047,11.9687 -6.0070 17.9530c -0.9711,-0.3249 -1.9422,-0.6498 -2.9133 -0.9748c -1.3992,4.1817 -2.7983,8.3634 -4.1975 12.5451ZM 69.0065,796.9922 c 0.9711,0.3249 1.9422,0.6498 2.9133 0.9748c -0.3919,1.1714 -0.7839,2.3428 -1.1758 3.5141c 16.6905,5.5846 33.3810,11.1691 50.0715 16.7537c 0.3919,-1.1714 0.7839,-2.3428 1.1758 -3.5141c 0.9711,0.3249 1.9422,0.6498 2.9133 0.9748c 1.3992,-4.1817 2.7984,-8.3634 4.1975 -12.5451c -0.9711,-0.3249 -1.9422,-0.6498 -2.9133 -0.9748c 2.0023,-5.9843 4.0047,-11.9687 6.0070 -17.9530c 0.9711,0.3249 1.9422,0.6498 2.9132 0.9748c 1.3992,-4.1817 2.7984,-8.3634 4.1975 -12.5451c -0.9711,-0.3249 -1.9422,-0.6498 -2.9133 -0.9748c 0.3919,-1.1714 0.7839,-2.3428 1.1758 -3.5141c -16.6905,-5.5846 -33.3810,-11.1691 -50.0715 -16.7537c -0.3919,1.1714 -0.7839,2.3428 -1.1758 3.5141c -0.9711,-0.3249 -1.9422,-0.6498 -2.9133 -0.9748c -1.3992,4.1817 -2.7984,8.3634 -4.1975 12.5451c 0.9711,0.3249 1.9422,0.6498 2.9133 0.9748c -2.0023,5.9843 -4.0047,11.9687 -6.0070 17.9530c -0.9711,-0.3249 -1.9422,-0.6498 -2.9133 -0.9748c -1.3992,4.1817 -2.7984,8.3634 -4.1975 12.5451ZM 91.7925,728.8921 c 0.9711,0.3249 1.9422,0.6498 2.9133 0.9748c -0.3919,1.1714 -0.7839,2.3428 -1.1758 3.5141c 16.6905,5.5846 33.3810,11.1691 50.0715 16.7537c 0.3919,-1.1714 0.7839,-2.3428 1.1758 -3.5141c 0.9711,0.3249 1.9422,0.6498 2.9133 0.9748c 1.3992,-4.1817 2.7984,-8.3634 4.1975 -12.5451c -0.9711,-0.3249 -1.9422,-0.6498 -2.9133 -0.9748c 2.0023,-5.9843 4.0047,-11.9687 6.0070 -17.9530c 0.9711,0.3249 1.9422,0.6498 2.9133 0.9748c 1.3992,-4.1817 2.7984,-8.3634 4.1975 -12.5451c -0.9711,-0.3249 -1.9422,-0.6498 -2.9132 -0.9748c 0.3919,-1.1714 0.7839,-2.3428 1.1758 -3.5141c -16.6905,-5.5846 -33.3810,-11.1691 -50.0715 -16.7537c -0.3919,1.1714 -0.7839,2.3428 -1.1758 3.5141c -0.9711,-0.3249 -1.9422,-0.6498 -2.9132 -0.9748c -1.3992,4.1817 -2.7984,8.3634 -4.1975 12.5451c 0.9711,0.3249 1.9422,0.6498 2.9133 0.9748c -2.0023,5.9843 -4.0047,11.9687 -6.0070 17.9530c -0.9711,-0.3249 -1.9422,-0.6498 -2.9132 -0.9748c -1.3992,4.1817 -2.7984,8.3634 -4.1975 12.5451ZM 114.5785,660.7920 c 0.9711,0.3249 1.9422,0.6498 2.9132 0.9748c -0.3919,1.1714 -0.7839,2.3428 -1.1758 3.5141c 16.6905,5.5846 33.3810,11.1691 50.0715 16.7537c 0.3919,-1.1714 0.7839,-2.3428 1.1758 -3.5141c 0.9711,0.3249 1.9422,0.6498 2.9133 0.9748c 1.3992,-4.1817 2.7984,-8.3634 4.1975 -12.5451c -0.9711,-0.3249 -1.9422,-0.6498 -2.9132 -0.9748c 2.0023,-5.9843 4.0047,-11.9687 6.0070 -17.9530c 0.9711,0.3249 1.9422,0.6498 2.9133 0.9748c 1.3992,-4.1817 2.7984,-8.3634 4.1975 -12.5451c -0.9711,-0.3249 -1.9422,-0.6498 -2.9132 -0.9748c 0.3919,-1.1714 0.7839,-2.3428 1.1758 -3.5141c -16.6905,-5.5846 -33.3810,-11.1691 -50.0715 -16.7537c -0.3919,1.1714 -0.7839,2.3428 -1.1758 3.5141c -0.9711,-0.3249 -1.9422,-0.6498 -2.9132 -0.9748c -1.3992,4.1817 -2.7984,8.3634 -4.1975 12.5451c 0.9711,0.3249 1.9422,0.6498 2.9132 0.9748c -2.0023,5.9843 -4.0047,11.9687 -6.0070 17.9530c -0.9711,-0.3249 -1.9422,-0.6498 -2.9133 -0.9748c -1.3992,4.1817 -2.7983,8.3634 -4.1975 12.5451ZM 115.5199,884.2940 c 0.9711,0.3249 1.9422,0.6498 2.9133 0.9748c -0.3919,1.1714 -0.7839,2.3428 -1.1758 3.5141c 16.6905,5.5846 33.3810,11.1691 50.0715 16.7537c 0.3919,-1.1714 0.7839,-2.3428 1.1758 -3.5141c 0.9711,0.3249 1.9422,0.6498 2.9133 0.9748c 1.3992,-4.1817 2.7984,-8.3634 4.1975 -12.5451c -0.9711,-0.3249 -1.9422,-0.6498 -2.9133 -0.9748c 2.0023,-5.9843 4.0047,-11.9687 6.0070 -17.9530c 0.9711,0.3249 1.9422,0.6498 2.9133 0.9748c 1.3992,-4.1817 2.7984,-8.3634 4.1975 -12.5451c -0.9711,-0.3249 -1.9422,-0.6498 -2.9133 -0.9748c 0.3919,-1.1714 0.7839,-2.3428 1.1758 -3.5141c -16.6905,-5.5846 -33.3810,-11.1691 -50.0715 -16.7537c -0.3919,1.1714 -0.7839,2.3428 -1.1758 3.5141c -0.9711,-0.3249 -1.9422,-0.6498 -2.9132 -0.9748c -1.3992,4.1817 -2.7984,8.3634 -4.1975 12.5451c 0.9711,0.3249 1.9422,0.6498 2.9132 0.9748c -2.0023,5.9843 -4.0047,11.9687 -6.0070 17.9530c -0.9711,-0.3249 -1.9422,-0.6498 -2.9133 -0.9748c -1.3992,4.1817 -2.7984,8.3634 -4.1975 12.5451ZM 138.3059,816.1939 c 0.9711,0.3249 1.9422,0.6498 2.9132 0.9748c -0.3919,1.1714 -0.7839,2.3428 -1.1758 3.5141c 16.6905,5.5846 33.3810,11.1691 50.0715 16.7537c 0.3919,-1.1714 0.7839,-2.3428 1.1758 -3.5141c 0.9711,0.3249 1.9422,0.6498 2.9133 0.9748c 1.3992,-4.1817 2.7983,-8.3634 4.1975 -12.5451c -0.9711,-0.3249 -1.9422,-0.6498 -2.9132 -0.9748c 2.0023,-5.9843 4.0047,-11.9687 6.0070 -17.9530c 0.9711,0.3249 1.9422,0.6498 2.9133 0.9748c 1.3992,-4.1817 2.7984,-8.3634 4.1975 -12.5451c -0.9711,-0.3249 -1.9422,-0.6498 -2.9132 -0.9748c 0.3919,-1.1714 0.7839,-2.3428 1.1758 -3.5141c -16.6905,-5.5846 -33.3810,-11.1691 -50.0715 -16.7537c -0.3919,1.1714 -0.7839,2.3428 -1.1758 3.5141c -0.9711,-0.3249 -1.9422,-0.6498 -2.9133 -0.9748c -1.3992,4.1817 -2.7984,8.3634 -4.1975 12.5451c 0.9711,0.3249 1.9422,0.6498 2.9132 0.9748c -2.0023,5.9843 -4.0047,11.9687 -6.0070 17.9530c -0.9711,-0.3249 -1.9422,-0.6498 -2.9133 -0.9748c -1.3992,4.1817 -2.7984,8.3634 -4.1975 12.5451ZM 161.0919,748.0938 c 0.9711,0.3249 1.9422,0.6498 2.9133 0.9748c -0.3919,1.1714 -0.7839,2.3428 -1.1758 3.5141c 16.6905,5.5846 33.3810,11.1691 50.0715 16.7537c 0.3919,-1.1714 0.7839,-2.3428 1.1758 -3.5141c 0.9711,0.3249 1.9422,0.6498 2.9132 0.9748c 1.3992,-4.1817 2.7984,-8.3634 4.1975 -12.5451c -0.9711,-0.3249 -1.9422,-0.6498 -2.9133 -0.9748c 2.0023,-5.9843 4.0047,-11.9687 6.0070 -17.9530c 0.9711,0.3249 1.9422,0.6498 2.9133 0.9748c 1.3992,-4.1817 2.7984,-8.3634 4.1975 -12.5451c -0.9711,-0.3249 -1.9422,-0.6498 -2.9132 -0.9748c 0.3919,-1.1714 0.7839,-2.3428 1.1758 -3.5141c -16.6905,-5.5846 -33.3810,-11.1691 -50.0715 -16.7537c -0.3919,1.1714 -0.7839,2.3428 -1.1758 3.5141c -0.9711,-0.3249 -1.9422,-0.6498 -2.9133 -0.9748c -1.3992,4.1817 -2.7984,8.3634 -4.1975 12.5451c 0.9711,0.3249 1.9422,0.6498 2.9133 0.9748c -2.0023,5.9843 -4.0047,11.9687 -6.0070 17.9530c -0.9711,-0.3249 -1.9422,-0.6498 -2.9133 -0.9748c -1.3992,4.1817 -2.7984,8.3634 -4.1975 12.5451ZM 183.8778,679.9937 c 0.9711,0.3249 1.9422,0.6498 2.9132 0.9748c -0.3919,1.1714 -0.7839,2.3428 -1.1758 3.5141c 16.6905,5.5846 33.3810,11.1691 50.0715 16.7537c 0.3919,-1.1714 0.7839,-2.3428 1.1758 -3.5141c 0.9711,0.3249 1.9422,0.6498 2.9133 0.9748c 1.3992,-4.1817 2.7984,-8.3634 4.1975 -12.5451c -0.9711,-0.3249 -1.9422,-0.6498 -2.9133 -0.9748c 2.0023,-5.9843 4.0047,-11.9687 6.0070 -17.9530c 0.9711,0.3249 1.9422,0.6498 2.9133 0.9748c 1.3992,-4.1817 2.7984,-8.3634 4.1975 -12.5451c -0.9711,-0.3249 -1.9422,-0.6498 -2.9133 -0.9748c 0.3919,-1.1714 0.7839,-2.3428 1.1758 -3.5141c -16.6905,-5.5846 -33.3810,-11.1691 -50.0715 -16.7537c -0.3919,1.1714 -0.7839,2.3428 -1.1758 3.5141c -0.9711,-0.3249 -1.9422,-0.6498 -2.9132 -0.9748c -1.3992,4.1817 -2.7984,8.3634 -4.1975 12.5451c 0.9711,0.3249 1.9422,0.6498 2.9133 0.9748c -2.0023,5.9843 -4.0047,11.9687 -6.0070 17.9530c -0.9711,-0.3249 -1.9422,-0.6498 -2.9133 -0.9748c -1.3992,4.1817 -2.7984,8.3634 -4.1975 12.5451ZM 187.2178,896.3273 c 0.9711,0.3249 1.9422,0.6498 2.9133 0.9748c -0.3919,1.1714 -0.7839,2.3428 -1.1758 3.5141c 16.6905,5.5846 33.3810,11.1691 50.0715 16.7537c 0.3919,-1.1714 0.7839,-2.3428 1.1758 -3.5141c 0.9711,0.3249 1.9422,0.6498 2.9132 0.9748c 1.3992,-4.1817 2.7984,-8.3634 4.1975 -12.5451c -0.9711,-0.3249 -1.9422,-0.6498 -2.9133 -0.9748c 2.0023,-5.9843 4.0047,-11.9687 6.0070 -17.9530c 0.9711,0.3249 1.9422,0.6498 2.9133 0.9748c 1.3992,-4.1817 2.7983,-8.3634 4.1975 -12.5451c -0.9711,-0.3249 -1.9422,-0.6498 -2.9132 -0.9748c 0.3919,-1.1714 0.7839,-2.3428 1.1758 -3.5141c -16.6905,-5.5846 -33.3810,-11.1691 -50.0715 -16.7537c -0.3919,1.1714 -0.7839,2.3428 -1.1758 3.5141c -0.9711,-0.3249 -1.9422,-0.6498 -2.9133 -0.9748c -1.3992,4.1817 -2.7984,8.3634 -4.1975 12.5451c 0.9711,0.3249 1.9422,0.6498 2.9132 0.9748c -2.0023,5.9843 -4.0047,11.9687 -6.0070 17.9530c -0.9711,-0.3249 -1.9422,-0.6498 -2.9133 -0.9748c -1.3992,4.1817 -2.7984,8.3634 -4.1975 12.5451ZM 210.0038,828.2272 c 0.9711,0.3249 1.9422,0.6498 2.9132 0.9748c -0.3919,1.1714 -0.7839,2.3428 -1.1758 3.5141c 16.6905,5.5846 33.3810,11.1691 50.0715 16.7537c 0.3919,-1.1714 0.7839,-2.3428 1.1758 -3.5141c 0.9711,0.3249 1.9422,0.6498 2.9133 0.9748c 1.3992,-4.1817 2.7984,-8.3634 4.1975 -12.5451c -0.9711,-0.3249 -1.9422,-0.6498 -2.9133 -0.9748c 2.0023,-5.9843 4.0047,-11.9687 6.0070 -17.9530c 0.9711,0.3249 1.9422,0.6498 2.9132 0.9748c 1.3992,-4.1817 2.7984,-8.3634 4.1975 -12.5451c -0.9711,-0.3249 -1.9422,-0.6498 -2.9133 -0.9748c 0.3919,-1.1714 0.7839,-2.3428 1.1758 -3.5141c -16.6905,-5.5846 -33.3810,-11.1691 -50.0715 -16.7537c -0.3919,1.1714 -0.7839,2.3428 -1.1758 3.5141c -0.9711,-0.3249 -1.9422,-0.6498 -2.9133 -0.9748c -1.3992,4.1817 -2.7984,8.3634 -4.1975 12.5451c 0.9711,0.3249 1.9422,0.6498 2.9132 0.9748c -2.0023,5.9843 -4.0047,11.9687 -6.0070 17.9530c -0.9711,-0.3249 -1.9422,-0.6498 -2.9133 -0.9748c -1.3992,4.1817 -2.7984,8.3634 -4.1975 12.5451ZM 232.7898,760.1272 c 0.9711,0.3249 1.9422,0.6498 2.9132 0.9748c -0.3919,1.1714 -0.7839,2.3428 -1.1758 3.5141c 16.6905,5.5846 33.3810,11.1691 50.0715 16.7537c 0.3919,-1.1714 0.7839,-2.3428 1.1758 -3.5141c 0.9711,0.3249 1.9422,0.6498 2.9133 0.9748c 1.3992,-4.1817 2.7983,-8.3634 4.1975 -12.5451c -0.9711,-0.3249 -1.9422,-0.6498 -2.9132 -0.9748c 2.0023,-5.9843 4.0047,-11.9687 6.0070 -17.9530c 0.9711,0.3249 1.9422,0.6498 2.9133 0.9748c 1.3992,-4.1817 2.7984,-8.3634 4.1975 -12.5451c -0.9711,-0.3249 -1.9422,-0.6498 -2.9133 -0.9748c 0.3919,-1.1714 0.7839,-2.3428 1.1758 -3.5141c -16.6905,-5.5846 -33.3810,-11.1691 -50.0715 -16.7537c -0.3919,1.1714 -0.7839,2.3428 -1.1758 3.5141c -0.9711,-0.3249 -1.9422,-0.6498 -2.9132 -0.9748c -1.3992,4.1817 -2.7984,8.3634 -4.1975 12.5451c 0.9711,0.3249 1.9422,0.6498 2.9133 0.9748c -2.0023,5.9843 -4.0047,11.9687 -6.0070 17.9530c -0.9711,-0.3249 -1.9422,-0.6498 -2.9133 -0.9748c -1.3992,4.1817 -2.7984,8.3634 -4.1975 12.5451ZM 255.5757,692.0271 c 0.9711,0.3249 1.9422,0.6498 2.9133 0.9748c -0.3919,1.1714 -0.7839,2.3428 -1.1758 3.5141c 16.6905,5.5846 33.3810,11.1691 50.0715 16.7537c 0.3919,-1.1714 0.7839,-2.3428 1.1758 -3.5141c 0.9711,0.3249 1.9422,0.6498 2.9132 0.9748c 1.3992,-4.1817 2.7984,-8.3634 4.1975 -12.5451c -0.9711,-0.3249 -1.9422,-0.6498 -2.9132 -0.9748c 2.0023,-5.9843 4.0047,-11.9687 6.0070 -17.9530c 0.9711,0.3249 1.9422,0.6498 2.9133 0.9748c 1.3992,-4.1817 2.7983,-8.3634 4.1975 -12.5451c -0.9711,-0.3249 -1.9422,-0.6498 -2.9132 -0.9748c 0.3919,-1.1714 0.7839,-2.3428 1.1758 -3.5141c -16.6905,-5.5846 -33.3810,-11.1691 -50.0715 -16.7537c -0.3919,1.1714 -0.7839,2.3428 -1.1758 3.5141c -0.9711,-0.3249 -1.9422,-0.6498 -2.9133 -0.9748c -1.3992,4.1817 -2.7984,8.3634 -4.1975 12.5451c 0.9711,0.3249 1.9422,0.6498 2.9132 0.9748c -2.0023,5.9843 -4.0047,11.9687 -6.0070 17.9530c -0.9711,-0.3249 -1.9422,-0.6498 -2.9133 -0.9748c -1.3992,4.1817 -2.7984,8.3634 -4.1975 12.5451ZM 261.3142,901.1922 c 0.9711,0.3249 1.9422,0.6498 2.9132 0.9748c -0.3919,1.1714 -0.7839,2.3428 -1.1758 3.5141c 16.6905,5.5846 33.3810,11.1691 50.0715 16.7537c 0.3919,-1.1714 0.7839,-2.3428 1.1758 -3.5141c 0.9711,0.3249 1.9422,0.6498 2.9133 0.9748c 1.3992,-4.1817 2.7984,-8.3634 4.1975 -12.5451c -0.9711,-0.3249 -1.9422,-0.6498 -2.9133 -0.9748c 2.0023,-5.9843 4.0047,-11.9687 6.0070 -17.9530c 0.9711,0.3249 1.9422,0.6498 2.9132 0.9748c 1.3992,-4.1817 2.7984,-8.3634 4.1975 -12.5451c -0.9711,-0.3249 -1.9422,-0.6498 -2.9133 -0.9748c 0.3919,-1.1714 0.7839,-2.3428 1.1758 -3.5141c -16.6905,-5.5846 -33.3810,-11.1691 -50.0715 -16.7537c -0.3919,1.1714 -0.7839,2.3428 -1.1758 3.5141c -0.9711,-0.3249 -1.9422,-0.6498 -2.9133 -0.9748c -1.3992,4.1817 -2.7984,8.3634 -4.1975 12.5451c 0.9711,0.3249 1.9422,0.6498 2.9132 0.9748c -2.0023,5.9843 -4.0047,11.9687 -6.0070 17.9530c -0.9711,-0.3249 -1.9422,-0.6498 -2.9133 -0.9748c -1.3992,4.1817 -2.7984,8.3634 -4.1975 12.5451ZM 284.1002,833.0921 c 0.9711,0.3249 1.9422,0.6498 2.9132 0.9748c -0.3919,1.1714 -0.7839,2.3428 -1.1758 3.5141c 16.6905,5.5846 33.3810,11.1691 50.0715 16.7537c 0.3919,-1.1714 0.7839,-2.3428 1.1758 -3.5141c 0.9711,0.3249 1.9422,0.6498 2.9133 0.9748c 1.3992,-4.1817 2.7983,-8.3634 4.1975 -12.5451c -0.9711,-0.3249 -1.9422,-0.6498 -2.9132 -0.9748c 2.0023,-5.9843 4.0047,-11.9687 6.0070 -17.9530c 0.9711,0.3249 1.9422,0.6498 2.9133 0.9748c 1.3992,-4.1817 2.7984,-8.3634 4.1975 -12.5451c -0.9711,-0.3249 -1.9422,-0.6498 -2.9133 -0.9748c 0.3919,-1.1714 0.7839,-2.3428 1.1758 -3.5141c -16.6905,-5.5846 -33.3810,-11.1691 -50.0715 -16.7537c -0.3919,1.1714 -0.7839,2.3428 -1.1758 3.5141c -0.9711,-0.3249 -1.9422,-0.6498 -2.9132 -0.9748c -1.3992,4.1817 -2.7984,8.3634 -4.1975 12.5451c 0.9711,0.3249 1.9422,0.6498 2.9133 0.9748c -2.0023,5.9843 -4.0047,11.9687 -6.0070 17.9530c -0.9711,-0.3249 -1.9422,-0.6498 -2.9133 -0.9748c -1.3992,4.1817 -2.7984,8.3634 -4.1975 12.5451ZM 306.8862,764.9921 c 0.9711,0.3249 1.9422,0.6498 2.9133 0.9748c -0.3919,1.1714 -0.7839,2.3428 -1.1758 3.5141c 16.6905,5.5846 33.3810,11.1691 50.0715 16.7537c 0.3919,-1.1714 0.7839,-2.3428 1.1758 -3.5141c 0.9711,0.3249 1.9422,0.6498 2.9132 0.9748c 1.3992,-4.1817 2.7984,-8.3634 4.1975 -12.5451c -0.9711,-0.3249 -1.9422,-0.6498 -2.9133 -0.9748c 2.0023,-5.9843 4.0047,-11.9687 6.0070 -17.9530c 0.9711,0.3249 1.9422,0.6498 2.9133 0.9748c 1.3992,-4.1817 2.7983,-8.3634 4.1975 -12.5451c -0.9711,-0.3249 -1.9422,-0.6498 -2.9132 -0.9748c 0.3919,-1.1714 0.7839,-2.3428 1.1758 -3.5141c -16.6905,-5.5846 -33.3810,-11.1691 -50.0715 -16.7537c -0.3919,1.1714 -0.7839,2.3428 -1.1758 3.5141c -0.9711,-0.3249 -1.9422,-0.6498 -2.9133 -0.9748c -1.3992,4.1817 -2.7984,8.3634 -4.1975 12.5451c 0.9711,0.3249 1.9422,0.6498 2.9132 0.9748c -2.0023,5.9843 -4.0047,11.9687 -6.0070 17.9530c -0.9711,-0.3249 -1.9422,-0.6498 -2.9133 -0.9748c -1.3992,4.1817 -2.7984,8.3634 -4.1975 12.5451ZM 322.2187,945.4835 c 0.9711,0.3249 1.9422,0.6498 2.9133 0.9748c -0.3919,1.1714 -0.7839,2.3428 -1.1758 3.5141c 16.6905,5.5846 33.3810,11.1691 50.0715 16.7537c 0.3919,-1.1714 0.7839,-2.3428 1.1758 -3.5141c 0.9711,0.3249 1.9422,0.6498 2.9133 0.9748c 1.3992,-4.1817 2.7984,-8.3634 4.1975 -12.5451c -0.9711,-0.3249 -1.9422,-0.6498 -2.9132 -0.9748c 2.0023,-5.9843 4.0047,-11.9687 6.0070 -17.9530c 0.9711,0.3249 1.9422,0.6498 2.9133 0.9748c 1.3992,-4.1817 2.7984,-8.3634 4.1975 -12.5451c -0.9711,-0.3249 -1.9422,-0.6498 -2.9132 -0.9748c 0.3919,-1.1714 0.7839,-2.3428 1.1758 -3.5141c -16.6905,-5.5846 -33.3810,-11.1691 -50.0715 -16.7537c -0.3919,1.1714 -0.7839,2.3428 -1.1758 3.5141c -0.9711,-0.3249 -1.9422,-0.6498 -2.9132 -0.9748c -1.3992,4.1817 -2.7984,8.3634 -4.1975 12.5451c 0.9711,0.3249 1.9422,0.6498 2.9133 0.9748c -2.0023,5.9843 -4.0047,11.9687 -6.0070 17.9530c -0.9711,-0.3249 -1.9422,-0.6498 -2.9132 -0.9748c -1.3992,4.1817 -2.7984,8.3634 -4.1975 12.5451ZM 329.6721,696.8920 c 0.9711,0.3249 1.9422,0.6498 2.9132 0.9748c -0.3919,1.1714 -0.7839,2.3428 -1.1758 3.5141c 16.6905,5.5846 33.3810,11.1691 50.0715 16.7537c 0.3919,-1.1714 0.7839,-2.3428 1.1758 -3.5141c 0.9711,0.3249 1.9422,0.6498 2.9133 0.9748c 1.3992,-4.1817 2.7984,-8.3634 4.1975 -12.5451c -0.9711,-0.3249 -1.9422,-0.6498 -2.9133 -0.9748c 2.0023,-5.9843 4.0047,-11.9687 6.0070 -17.9530c 0.9711,0.3249 1.9422,0.6498 2.9132 0.9748c 1.3992,-4.1817 2.7984,-8.3634 4.1975 -12.5451c -0.9711,-0.3249 -1.9422,-0.6498 -2.9133 -0.9748c 0.3919,-1.1714 0.7839,-2.3428 1.1758 -3.5141c -16.6905,-5.5846 -33.3810,-11.1691 -50.0715 -16.7537c -0.3919,1.1714 -0.7839,2.3428 -1.1758 3.5141c -0.9711,-0.3249 -1.9422,-0.6498 -2.9133 -0.9748c -1.3992,4.1817 -2.7984,8.3634 -4.1975 12.5451c 0.9711,0.3249 1.9422,0.6498 2.9133 0.9748c -2.0023,5.9843 -4.0047,11.9687 -6.0070 17.9530c -0.9711,-0.3249 -1.9422,-0.6498 -2.9133 -0.9748c -1.3992,4.1817 -2.7984,8.3634 -4.1975 12.5451ZM 345.0047,877.3834 c 0.9711,0.3249 1.9422,0.6498 2.9133 0.9748c -0.3919,1.1714 -0.7839,2.3428 -1.1758 3.5141c 16.6905,5.5846 33.3810,11.1691 50.0715 16.7537c 0.3919,-1.1714 0.7839,-2.3428 1.1758 -3.5141c 0.9711,0.3249 1.9422,0.6498 2.9132 0.9748c 1.3992,-4.1817 2.7984,-8.3634 4.1975 -12.5451c -0.9711,-0.3249 -1.9422,-0.6498 -2.9132 -0.9748c 2.0023,-5.9843 4.0047,-11.9687 6.0070 -17.9530c 0.9711,0.3249 1.9422,0.6498 2.9133 0.9748c 1.3992,-4.1817 2.7984,-8.3634 4.1975 -12.5451c -0.9711,-0.3249 -1.9422,-0.6498 -2.9132 -0.9748c 0.3919,-1.1714 0.7839,-2.3428 1.1758 -3.5141c -16.6905,-5.5846 -33.3810,-11.1691 -50.0715 -16.7537c -0.3919,1.1714 -0.7839,2.3428 -1.1758 3.5141c -0.9711,-0.3249 -1.9422,-0.6498 -2.9132 -0.9748c -1.3992,4.1817 -2.7984,8.3634 -4.1975 12.5451c 0.9711,0.3249 1.9422,0.6498 2.9132 0.9748c -2.0023,5.9843 -4.0047,11.9687 -6.0070 17.9530c -0.9711,-0.3249 -1.9422,-0.6498 -2.9133 -0.9748c -1.3992,4.1817 -2.7983,8.3634 -4.1975 12.5451ZM 367.7907,809.2833 c 0.9711,0.3249 1.9422,0.6498 2.9133 0.9748c -0.3919,1.1714 -0.7839,2.3428 -1.1758 3.5141c 16.6905,5.5846 33.3810,11.1691 50.0715 16.7537c 0.3919,-1.1714 0.7839,-2.3428 1.1758 -3.5141c 0.9711,0.3249 1.9422,0.6498 2.9132 0.9748c 1.3992,-4.1817 2.7984,-8.3634 4.1975 -12.5451c -0.9711,-0.3249 -1.9422,-0.6498 -2.9133 -0.9748c 2.0023,-5.9843 4.0047,-11.9687 6.0070 -17.9530c 0.9711,0.3249 1.9422,0.6498 2.9132 0.9748c 1.3992,-4.1817 2.7984,-8.3634 4.1975 -12.5451c -0.9711,-0.3249 -1.9422,-0.6498 -2.9133 -0.9748c 0.3919,-1.1714 0.7839,-2.3428 1.1758 -3.5141c -16.6905,-5.5846 -33.3810,-11.1691 -50.0715 -16.7537c -0.3919,1.1714 -0.7839,2.3428 -1.1758 3.5141c -0.9711,-0.3249 -1.9422,-0.6498 -2.9133 -0.9748c -1.3992,4.1817 -2.7983,8.3634 -4.1975 12.5451c 0.9711,0.3249 1.9422,0.6498 2.9133 0.9748c -2.0023,5.9843 -4.0047,11.9687 -6.0070 17.9530c -0.9711,-0.3249 -1.9422,-0.6498 -2.9132 -0.9748c -1.3992,4.1817 -2.7984,8.3634 -4.1975 12.5451ZM 384.3225,986.1906 c 0.9711,0.3249 1.9422,0.6498 2.9132 0.9748c -0.3919,1.1714 -0.7839,2.3428 -1.1758 3.5141c 16.6905,5.5846 33.3810,11.1691 50.0715 16.7537c 0.3919,-1.1714 0.7839,-2.3428 1.1758 -3.5141c 0.9711,0.3249 1.9422,0.6498 2.9132 0.9748c 1.3992,-4.1817 2.7984,-8.3634 4.1975 -12.5451c -0.9711,-0.3249 -1.9422,-0.6498 -2.9133 -0.9748c 2.0023,-5.9843 4.0047,-11.9687 6.0070 -17.9530c 0.9711,0.3249 1.9422,0.6498 2.9133 0.9748c 1.3992,-4.1817 2.7983,-8.3634 4.1975 -12.5451c -0.9711,-0.3249 -1.9422,-0.6498 -2.9132 -0.9748c 0.3919,-1.1714 0.7839,-2.3428 1.1758 -3.5141c -16.6905,-5.5846 -33.3810,-11.1691 -50.0715 -16.7537c -0.3919,1.1714 -0.7839,2.3428 -1.1758 3.5141c -0.9711,-0.3249 -1.9422,-0.6498 -2.9133 -0.9748c -1.3992,4.1817 -2.7984,8.3634 -4.1975 12.5451c 0.9711,0.3249 1.9422,0.6498 2.9132 0.9748c -2.0023,5.9843 -4.0047,11.9687 -6.0070 17.9530c -0.9711,-0.3249 -1.9422,-0.6498 -2.9133 -0.9748c -1.3992,4.1817 -2.7984,8.3634 -4.1975 12.5451ZM 390.5766,741.1832 c 0.9711,0.3249 1.9422,0.6498 2.9133 0.9748c -0.3919,1.1714 -0.7839,2.3428 -1.1758 3.5141c 16.6905,5.5846 33.3810,11.1691 50.0715 16.7537c 0.3919,-1.1714 0.7839,-2.3428 1.1758 -3.5141c 0.9711,0.3249 1.9422,0.6498 2.9133 0.9748c 1.3992,-4.1817 2.7984,-8.3634 4.1975 -12.5451c -0.9711,-0.3249 -1.9422,-0.6498 -2.9133 -0.9748c 2.0023,-5.9843 4.0047,-11.9687 6.0070 -17.9530c 0.9711,0.3249 1.9422,0.6498 2.9133 0.9748c 1.3992,-4.1817 2.7984,-8.3634 4.1975 -12.5451c -0.9711,-0.3249 -1.9422,-0.6498 -2.9132 -0.9748c 0.3919,-1.1714 0.7839,-2.3428 1.1758 -3.5141c -16.6905,-5.5846 -33.3810,-11.1691 -50.0715 -16.7537c -0.3919,1.1714 -0.7839,2.3428 -1.1758 3.5141c -0.9711,-0.3249 -1.9422,-0.6498 -2.9132 -0.9748c -1.3992,4.1817 -2.7984,8.3634 -4.1975 12.5451c 0.9711,0.3249 1.9422,0.6498 2.9133 0.9748c -2.0023,5.9843 -4.0047,11.9687 -6.0070 17.9530c -0.9711,-0.3249 -1.9422,-0.6498 -2.9132 -0.9748c -1.3992,4.1817 -2.7984,8.3634 -4.1975 12.5451ZM 407.1085,918.0905 c 0.9711,0.3249 1.9422,0.6498 2.9132 0.9748c -0.3919,1.1714 -0.7839,2.3428 -1.1758 3.5141c 16.6905,5.5846 33.3810,11.1691 50.0715 16.7537c 0.3919,-1.1714 0.7839,-2.3428 1.1758 -3.5141c 0.9711,0.3249 1.9422,0.6498 2.9132 0.9748c 1.3992,-4.1817 2.7984,-8.3634 4.1975 -12.5451c -0.9711,-0.3249 -1.9422,-0.6498 -2.9133 -0.9748c 2.0023,-5.9843 4.0047,-11.9687 6.0070 -17.9530c 0.9711,0.3249 1.9422,0.6498 2.9132 0.9748c 1.3992,-4.1817 2.7984,-8.3634 4.1975 -12.5451c -0.9711,-0.3249 -1.9422,-0.6498 -2.9133 -0.9748c 0.3919,-1.1714 0.7839,-2.3428 1.1758 -3.5141c -16.6905,-5.5846 -33.3810,-11.1691 -50.0715 -16.7537c -0.3919,1.1714 -0.7839,2.3428 -1.1758 3.5141c -0.9711,-0.3249 -1.9422,-0.6498 -2.9133 -0.9748c -1.3992,4.1817 -2.7984,8.3634 -4.1975 12.5451c 0.9711,0.3249 1.9422,0.6498 2.9133 0.9748c -2.0023,5.9843 -4.0047,11.9687 -6.0070 17.9530c -0.9711,-0.3249 -1.9422,-0.6498 -2.9133 -0.9748c -1.3992,4.1817 -2.7984,8.3634 -4.1975 12.5451ZM 429.8945,849.9904 c 0.9711,0.3249 1.9422,0.6498 2.9133 0.9748c -0.3919,1.1714 -0.7839,2.3428 -1.1758 3.5141c 16.6905,5.5846 33.3810,11.1691 50.0715 16.7537c 0.3919,-1.1714 0.7839,-2.3428 1.1758 -3.5141c 0.9711,0.3249 1.9422,0.6498 2.9133 0.9748c 1.3992,-4.1817 2.7983,-8.3634 4.1975 -12.5451c -0.9711,-0.3249 -1.9422,-0.6498 -2.9133 -0.9748c 2.0023,-5.9843 4.0047,-11.9687 6.0070 -17.9530c 0.9711,0.3249 1.9422,0.6498 2.9132 0.9748c 1.3992,-4.1817 2.7984,-8.3634 4.1975 -12.5451c -0.9711,-0.3249 -1.9422,-0.6498 -2.9133 -0.9748c 0.3919,-1.1714 0.7839,-2.3428 1.1758 -3.5141c -16.6905,-5.5846 -33.3810,-11.1691 -50.0715 -16.7537c -0.3919,1.1714 -0.7839,2.3428 -1.1758 3.5141c -0.9711,-0.3249 -1.9422,-0.6498 -2.9132 -0.9748c -1.3992,4.1817 -2.7984,8.3634 -4.1975 12.5451c 0.9711,0.3249 1.9422,0.6498 2.9133 0.9748c -2.0023,5.9843 -4.0047,11.9687 -6.0070 17.9530c -0.9711,-0.3249 -1.9422,-0.6498 -2.9132 -0.9748c -1.3992,4.1817 -2.7984,8.3634 -4.1975 12.5451ZM 437.2320,1054.3766 c 0.9711,0.3249 1.9422,0.6498 2.9133 0.9748c -0.3919,1.1714 -0.7839,2.3428 -1.1758 3.5141c 16.6905,5.5846 33.3810,11.1691 50.0715 16.7537c 0.3919,-1.1714 0.7839,-2.3428 1.1758 -3.5141c 0.9711,0.3249 1.9422,0.6498 2.9132 0.9748c 1.3992,-4.1817 2.7984,-8.3634 4.1975 -12.5451c -0.9711,-0.3249 -1.9422,-0.6498 -2.9133 -0.9748c 2.0023,-5.9843 4.0047,-11.9687 6.0070 -17.9530c 0.9711,0.3249 1.9422,0.6498 2.9132 0.9748c 1.3992,-4.1817 2.7984,-8.3634 4.1975 -12.5451c -0.9711,-0.3249 -1.9422,-0.6498 -2.9133 -0.9748c 0.3919,-1.1714 0.7839,-2.3428 1.1758 -3.5141c -16.6905,-5.5846 -33.3810,-11.1691 -50.0715 -16.7537c -0.3919,1.1714 -0.7839,2.3428 -1.1758 3.5141c -0.9711,-0.3249 -1.9422,-0.6498 -2.9133 -0.9748c -1.3992,4.1817 -2.7983,8.3634 -4.1975 12.5451c 0.9711,0.3249 1.9422,0.6498 2.9133 0.9748c -2.0023,5.9843 -4.0047,11.9687 -6.0070 17.9530c -0.9711,-0.3249 -1.9422,-0.6498 -2.9132 -0.9748c -1.3992,4.1817 -2.7984,8.3634 -4.1975 12.5451ZM 452.6804,781.8903 c 0.9711,0.3249 1.9422,0.6498 2.9132 0.9748c -0.3919,1.1714 -0.7839,2.3428 -1.1758 3.5141c 16.6905,5.5846 33.3810,11.1691 50.0715 16.7537c 0.3919,-1.1714 0.7839,-2.3428 1.1758 -3.5141c 0.9711,0.3249 1.9422,0.6498 2.9132 0.9748c 1.3992,-4.1817 2.7984,-8.3634 4.1975 -12.5451c -0.9711,-0.3249 -1.9422,-0.6498 -2.9132 -0.9748c 2.0023,-5.9843 4.0047,-11.9687 6.0070 -17.9530c 0.9711,0.3249 1.9422,0.6498 2.9133 0.9748c 1.3992,-4.1817 2.7983,-8.3634 4.1975 -12.5451c -0.9711,-0.3249 -1.9422,-0.6498 -2.9133 -0.9748c 0.3919,-1.1714 0.7839,-2.3428 1.1758 -3.5141c -16.6905,-5.5846 -33.3810,-11.1691 -50.0715 -16.7537c -0.3919,1.1714 -0.7839,2.3428 -1.1758 3.5141c -0.9711,-0.3249 -1.9422,-0.6498 -2.9132 -0.9748c -1.3992,4.1817 -2.7984,8.3634 -4.1975 12.5451c 0.9711,0.3249 1.9422,0.6498 2.9132 0.9748c -2.0023,5.9843 -4.0047,11.9687 -6.0070 17.9530c -0.9711,-0.3249 -1.9422,-0.6498 -2.9133 -0.9748c -1.3992,4.1817 -2.7984,8.3634 -4.1975 12.5451ZM 460.0179,986.2765 c 0.9711,0.3249 1.9422,0.6498 2.9132 0.9748c -0.3919,1.1714 -0.7839,2.3428 -1.1758 3.5141c 16.6905,5.5846 33.3810,11.1691 50.0715 16.7537c 0.3919,-1.1714 0.7839,-2.3428 1.1758 -3.5141c 0.9711,0.3249 1.9422,0.6498 2.9133 0.9748c 1.3992,-4.1817 2.7984,-8.3634 4.1975 -12.5451c -0.9711,-0.3249 -1.9422,-0.6498 -2.9132 -0.9748c 2.0023,-5.9843 4.0047,-11.9687 6.0070 -17.9530c 0.9711,0.3249 1.9422,0.6498 2.9132 0.9748c 1.3992,-4.1817 2.7984,-8.3634 4.1975 -12.5451c -0.9711,-0.3249 -1.9422,-0.6498 -2.9133 -0.9748c 0.3919,-1.1714 0.7839,-2.3428 1.1758 -3.5141c -16.6905,-5.5846 -33.3810,-11.1691 -50.0715 -16.7537c -0.3919,1.1714 -0.7839,2.3428 -1.1758 3.5141c -0.9711,-0.3249 -1.9422,-0.6498 -2.9132 -0.9748c -1.3992,4.1817 -2.7984,8.3634 -4.1975 12.5451c 0.9711,0.3249 1.9422,0.6498 2.9133 0.9748c -2.0023,5.9843 -4.0047,11.9687 -6.0070 17.9530c -0.9711,-0.3249 -1.9422,-0.6498 -2.9133 -0.9748c -1.3992,4.1817 -2.7984,8.3634 -4.1975 12.5451ZM 624.0380,961.9365 c 1.3992,4.1817 2.7984,8.3634 4.1975 12.5451c 0.9711,-0.3249 1.9422,-0.6498 2.9132 -0.9748c 2.0023,5.9843 4.0047,11.9687 6.0070 17.9530c -0.9711,0.3249 -1.9422,0.6498 -2.9132 0.9748c 1.3992,4.1817 2.7983,8.3634 4.1975 12.5451c 0.9711,-0.3249 1.9422,-0.6498 2.9133 -0.9748c 0.3919,1.1714 0.7839,2.3428 1.1758 3.5141c 16.6905,-5.5846 33.3810,-11.1691 50.0715 -16.7537c -0.3919,-1.1714 -0.7839,-2.3428 -1.1758 -3.5141c 0.9711,-0.3249 1.9422,-0.6498 2.9132 -0.9748c -1.3992,-4.1817 -2.7983,-8.3634 -4.1975 -12.5451c -0.9711,0.3249 -1.9422,0.6498 -2.9133 0.9748c -2.0023,-5.9843 -4.0047,-11.9687 -6.0070 -17.9530c 0.9711,-0.3249 1.9422,-0.6498 2.9133 -0.9748c -1.3992,-4.1817 -2.7984,-8.3634 -4.1975 -12.5451c -0.9711,0.3249 -1.9422,0.6498 -2.9132 0.9748c -0.3919,-1.1714 -0.7839,-2.3428 -1.1758 -3.5141c -16.6905,5.5846 -33.3810,11.1691 -50.0715 16.7537c 0.3919,1.1714 0.7839,2.3428 1.1758 3.5141c -0.9711,0.3249 -1.9422,0.6498 -2.9133 0.9748ZM 631.3756,757.5503 c 1.3992,4.1817 2.7984,8.3634 4.1975 12.5451c 0.9711,-0.3249 1.9422,-0.6498 2.9133 -0.9748c 2.0023,5.9843 4.0047,11.9687 6.0070 17.9530c -0.9711,0.3249 -1.9422,0.6498 -2.9132 0.9748c 1.3992,4.1817 2.7984,8.3634 4.1975 12.5451c 0.9711,-0.3249 1.9422,-0.6498 2.9132 -0.9748c 0.3919,1.1714 0.7839,2.3428 1.1758 3.5141c 16.6905,-5.5846 33.3810,-11.1691 50.0715 -16.7537c -0.3919,-1.1714 -0.7839,-2.3428 -1.1758 -3.5141c 0.9711,-0.3249 1.9422,-0.6498 2.9132 -0.9748c -1.3992,-4.1817 -2.7984,-8.3634 -4.1975 -12.5451c -0.9711,0.3249 -1.9422,0.6498 -2.9133 0.9748c -2.0023,-5.9843 -4.0047,-11.9687 -6.0070 -17.9530c 0.9711,-0.3249 1.9422,-0.6498 2.9132 -0.9748c -1.3992,-4.1817 -2.7984,-8.3634 -4.1975 -12.5451c -0.9711,0.3249 -1.9422,0.6498 -2.9132 0.9748c -0.3919,-1.1714 -0.7839,-2.3428 -1.1758 -3.5141c -16.6905,5.5846 -33.3810,11.1691 -50.0715 16.7537c 0.3919,1.1714 0.7839,2.3428 1.1758 3.5141c -0.9711,0.3249 -1.9422,0.6498 -2.9133 0.9748ZM 646.8240,1030.0366 c 1.3992,4.1817 2.7984,8.3634 4.1975 12.5451c 0.9711,-0.3249 1.9422,-0.6498 2.9132 -0.9748c 2.0023,5.9843 4.0047,11.9687 6.0070 17.9530c -0.9711,0.3249 -1.9422,0.6498 -2.9133 0.9748c 1.3992,4.1817 2.7984,8.3634 4.1975 12.5451c 0.9711,-0.3249 1.9422,-0.6498 2.9132 -0.9748c 0.3919,1.1714 0.7839,2.3428 1.1758 3.5141c 16.6905,-5.5846 33.3810,-11.1691 50.0715 -16.7537c -0.3919,-1.1714 -0.7839,-2.3428 -1.1758 -3.5141c 0.9711,-0.3249 1.9422,-0.6498 2.9133 -0.9748c -1.3992,-4.1817 -2.7984,-8.3634 -4.1975 -12.5451c -0.9711,0.3249 -1.9422,0.6498 -2.9132 0.9748c -2.0023,-5.9843 -4.0047,-11.9687 -6.0070 -17.9530c 0.9711,-0.3249 1.9422,-0.6498 2.9133 -0.9748c -1.3992,-4.1817 -2.7984,-8.3634 -4.1975 -12.5451c -0.9711,0.3249 -1.9422,0.6498 -2.9133 0.9748c -0.3919,-1.1714 -0.7839,-2.3428 -1.1758 -3.5141c -16.6905,5.5846 -33.3810,11.1691 -50.0715 16.7537c 0.3919,1.1714 0.7839,2.3428 1.1758 3.5141c -0.9711,0.3249 -1.9422,0.6498 -2.9133 0.9748ZM 654.1615,825.6504 c 1.3992,4.1817 2.7984,8.3634 4.1975 12.5451c 0.9711,-0.3249 1.9422,-0.6498 2.9132 -0.9748c 2.0023,5.9843 4.0047,11.9687 6.0070 17.9530c -0.9711,0.3249 -1.9422,0.6498 -2.9133 0.9748c 1.3992,4.1817 2.7984,8.3634 4.1975 12.5451c 0.9711,-0.3249 1.9422,-0.6498 2.9133 -0.9748c 0.3919,1.1714 0.7839,2.3428 1.1758 3.5141c 16.6905,-5.5846 33.3810,-11.1691 50.0715 -16.7537c -0.3919,-1.1714 -0.7839,-2.3428 -1.1758 -3.5141c 0.9711,-0.3249 1.9422,-0.6498 2.9133 -0.9748c -1.3992,-4.1817 -2.7984,-8.3634 -4.1975 -12.5451c -0.9711,0.3249 -1.9422,0.6498 -2.9132 0.9748c -2.0023,-5.9843 -4.0047,-11.9687 -6.0070 -17.9530c 0.9711,-0.3249 1.9422,-0.6498 2.9133 -0.9748c -1.3992,-4.1817 -2.7984,-8.3634 -4.1975 -12.5451c -0.9711,0.3249 -1.9422,0.6498 -2.9132 0.9748c -0.3919,-1.1714 -0.7839,-2.3428 -1.1758 -3.5141c -16.6905,5.5846 -33.3810,11.1691 -50.0715 16.7537c 0.3919,1.1714 0.7839,2.3428 1.1758 3.5141c -0.9711,0.3249 -1.9422,0.6498 -2.9133 0.9748ZM 676.9475,893.7505 c 1.3992,4.1817 2.7984,8.3634 4.1975 12.5451c 0.9711,-0.3249 1.9422,-0.6498 2.9132 -0.9748c 2.0023,5.9843 4.0047,11.9687 6.0070 17.9530c -0.9711,0.3249 -1.9422,0.6498 -2.9133 0.9748c 1.3992,4.1817 2.7984,8.3634 4.1975 12.5451c 0.9711,-0.3249 1.9422,-0.6498 2.9132 -0.9748c 0.3919,1.1714 0.7839,2.3428 1.1758 3.5141c 16.6905,-5.5846 33.3810,-11.1691 50.0715 -16.7537c -0.3919,-1.1714 -0.7839,-2.3428 -1.1758 -3.5141c 0.9711,-0.3249 1.9422,-0.6498 2.9132 -0.9748c -1.3992,-4.1817 -2.7983,-8.3634 -4.1975 -12.5451c -0.9711,0.3249 -1.9422,0.6498 -2.9133 0.9748c -2.0023,-5.9843 -4.0047,-11.9687 -6.0070 -17.9530c 0.9711,-0.3249 1.9422,-0.6498 2.9133 -0.9748c -1.3992,-4.1817 -2.7983,-8.3634 -4.1975 -12.5451c -0.9711,0.3249 -1.9422,0.6498 -2.9133 0.9748c -0.3919,-1.1714 -0.7839,-2.3428 -1.1758 -3.5141c -16.6905,5.5846 -33.3810,11.1691 -50.0715 16.7537c 0.3919,1.1714 0.7839,2.3428 1.1758 3.5141c -0.9711,0.3249 -1.9422,0.6498 -2.9133 0.9748ZM 693.4793,716.8432 c 1.3992,4.1817 2.7983,8.3634 4.1975 12.5451c 0.9711,-0.3249 1.9422,-0.6498 2.9133 -0.9748c 2.0023,5.9843 4.0047,11.9687 6.0070 17.9530c -0.9711,0.3249 -1.9422,0.6498 -2.9133 0.9748c 1.3992,4.1817 2.7983,8.3634 4.1975 12.5451c 0.9711,-0.3249 1.9422,-0.6498 2.9133 -0.9748c 0.3919,1.1714 0.7839,2.3428 1.1758 3.5141c 16.6905,-5.5846 33.3810,-11.1691 50.0715 -16.7537c -0.3919,-1.1714 -0.7839,-2.3428 -1.1758 -3.5141c 0.9711,-0.3249 1.9422,-0.6498 2.9133 -0.9748c -1.3992,-4.1817 -2.7984,-8.3634 -4.1975 -12.5451c -0.9711,0.3249 -1.9422,0.6498 -2.9132 0.9748c -2.0023,-5.9843 -4.0047,-11.9687 -6.0070 -17.9530c 0.9711,-0.3249 1.9422,-0.6498 2.9133 -0.9748c -1.3992,-4.1817 -2.7984,-8.3634 -4.1975 -12.5451c -0.9711,0.3249 -1.9422,0.6498 -2.9132 0.9748c -0.3919,-1.1714 -0.7839,-2.3428 -1.1758 -3.5141c -16.6905,5.5846 -33.3810,11.1691 -50.0715 16.7537c 0.3919,1.1714 0.7839,2.3428 1.1758 3.5141c -0.9711,0.3249 -1.9422,0.6498 -2.9132 0.9748ZM 699.7335,961.8506 c 1.3992,4.1817 2.7984,8.3634 4.1975 12.5451c 0.9711,-0.3249 1.9422,-0.6498 2.9133 -0.9748c 2.0023,5.9843 4.0047,11.9687 6.0070 17.9530c -0.9711,0.3249 -1.9422,0.6498 -2.9133 0.9748c 1.3992,4.1817 2.7984,8.3634 4.1975 12.5451c 0.9711,-0.3249 1.9422,-0.6498 2.9132 -0.9748c 0.3919,1.1714 0.7839,2.3428 1.1758 3.5141c 16.6905,-5.5846 33.3810,-11.1691 50.0715 -16.7537c -0.3919,-1.1714 -0.7839,-2.3428 -1.1758 -3.5141c 0.9711,-0.3249 1.9422,-0.6498 2.9132 -0.9748c -1.3992,-4.1817 -2.7984,-8.3634 -4.1975 -12.5451c -0.9711,0.3249 -1.9422,0.6498 -2.9133 0.9748c -2.0023,-5.9843 -4.0047,-11.9687 -6.0070 -17.9530c 0.9711,-0.3249 1.9422,-0.6498 2.9132 -0.9748c -1.3992,-4.1817 -2.7984,-8.3634 -4.1975 -12.5451c -0.9711,0.3249 -1.9422,0.6498 -2.9133 0.9748c -0.3919,-1.1714 -0.7839,-2.3428 -1.1758 -3.5141c -16.6905,5.5846 -33.3810,11.1691 -50.0715 16.7537c 0.3919,1.1714 0.7839,2.3428 1.1758 3.5141c -0.9711,0.3249 -1.9422,0.6498 -2.9132 0.9748ZM 716.2653,784.9433 c 1.3992,4.1817 2.7984,8.3634 4.1975 12.5451c 0.9711,-0.3249 1.9422,-0.6498 2.9132 -0.9748c 2.0023,5.9843 4.0047,11.9687 6.0070 17.9530c -0.9711,0.3249 -1.9422,0.6498 -2.9133 0.9748c 1.3992,4.1817 2.7984,8.3634 4.1975 12.5451c 0.9711,-0.3249 1.9422,-0.6498 2.9132 -0.9748c 0.3919,1.1714 0.7839,2.3428 1.1758 3.5141c 16.6905,-5.5846 33.3810,-11.1691 50.0715 -16.7537c -0.3919,-1.1714 -0.7839,-2.3428 -1.1758 -3.5141c 0.9711,-0.3249 1.9422,-0.6498 2.9133 -0.9748c -1.3992,-4.1817 -2.7984,-8.3634 -4.1975 -12.5451c -0.9711,0.3249 -1.9422,0.6498 -2.9132 0.9748c -2.0023,-5.9843 -4.0047,-11.9687 -6.0070 -17.9530c 0.9711,-0.3249 1.9422,-0.6498 2.9133 -0.9748c -1.3992,-4.1817 -2.7984,-8.3634 -4.1975 -12.5451c -0.9711,0.3249 -1.9422,0.6498 -2.9133 0.9748c -0.3919,-1.1714 -0.7839,-2.3428 -1.1758 -3.5141c -16.6905,5.5846 -33.3810,11.1691 -50.0715 16.7537c 0.3919,1.1714 0.7839,2.3428 1.1758 3.5141c -0.9711,0.3249 -1.9422,0.6498 -2.9133 0.9748ZM 739.0513,853.0434 c 1.3992,4.1817 2.7984,8.3634 4.1975 12.5451c 0.9711,-0.3249 1.9422,-0.6498 2.9133 -0.9748c 2.0023,5.9843 4.0047,11.9687 6.0070 17.9530c -0.9711,0.3249 -1.9422,0.6498 -2.9132 0.9748c 1.3992,4.1817 2.7984,8.3634 4.1975 12.5451c 0.9711,-0.3249 1.9422,-0.6498 2.9132 -0.9748c 0.3919,1.1714 0.7839,2.3428 1.1758 3.5141c 16.6905,-5.5846 33.3810,-11.1691 50.0715 -16.7537c -0.3919,-1.1714 -0.7839,-2.3428 -1.1758 -3.5141c 0.9711,-0.3249 1.9422,-0.6498 2.9133 -0.9748c -1.3992,-4.1817 -2.7984,-8.3634 -4.1975 -12.5451c -0.9711,0.3249 -1.9422,0.6498 -2.9133 0.9748c -2.0023,-5.9843 -4.0047,-11.9687 -6.0070 -17.9530c 0.9711,-0.3249 1.9422,-0.6498 2.9132 -0.9748c -1.3992,-4.1817 -2.7984,-8.3634 -4.1975 -12.5451c -0.9711,0.3249 -1.9422,0.6498 -2.9132 0.9748c -0.3919,-1.1714 -0.7839,-2.3428 -1.1758 -3.5141c -16.6905,5.5846 -33.3810,11.1691 -50.0715 16.7537c 0.3919,1.1714 0.7839,2.3428 1.1758 3.5141c -0.9711,0.3249 -1.9422,0.6498 -2.9132 0.9748ZM 754.3839,672.5520 c 1.3992,4.1817 2.7984,8.3634 4.1975 12.5451c 0.9711,-0.3249 1.9422,-0.6498 2.9132 -0.9748c 2.0023,5.9843 4.0047,11.9687 6.0070 17.9530c -0.9711,0.3249 -1.9422,0.6498 -2.9133 0.9748c 1.3992,4.1817 2.7984,8.3634 4.1975 12.5451c 0.9711,-0.3249 1.9422,-0.6498 2.9133 -0.9748c 0.3919,1.1714 0.7839,2.3428 1.1758 3.5141c 16.6905,-5.5846 33.3810,-11.1691 50.0715 -16.7537c -0.3919,-1.1714 -0.7839,-2.3428 -1.1758 -3.5141c 0.9711,-0.3249 1.9422,-0.6498 2.9132 -0.9748c -1.3992,-4.1817 -2.7984,-8.3634 -4.1975 -12.5451c -0.9711,0.3249 -1.9422,0.6498 -2.9133 0.9748c -2.0023,-5.9843 -4.0047,-11.9687 -6.0070 -17.9530c 0.9711,-0.3249 1.9422,-0.6498 2.9133 -0.9748c -1.3992,-4.1817 -2.7983,-8.3634 -4.1975 -12.5451c -0.9711,0.3249 -1.9422,0.6498 -2.9133 0.9748c -0.3919,-1.1714 -0.7839,-2.3428 -1.1758 -3.5141c -16.6905,5.5846 -33.3810,11.1691 -50.0715 16.7537c 0.3919,1.1714 0.7839,2.3428 1.1758 3.5141c -0.9711,0.3249 -1.9422,0.6498 -2.9133 0.9748ZM 761.8373,921.1435 c 1.3992,4.1817 2.7983,8.3634 4.1975 12.5451c 0.9711,-0.3249 1.9422,-0.6498 2.9133 -0.9748c 2.0023,5.9843 4.0047,11.9687 6.0070 17.9530c -0.9711,0.3249 -1.9422,0.6498 -2.9132 0.9748c 1.3992,4.1817 2.7983,8.3634 4.1975 12.5451c 0.9711,-0.3249 1.9422,-0.6498 2.9133 -0.9748c 0.3919,1.1714 0.7839,2.3428 1.1758 3.5141c 16.6905,-5.5846 33.3810,-11.1691 50.0715 -16.7537c -0.3919,-1.1714 -0.7839,-2.3428 -1.1758 -3.5141c 0.9711,-0.3249 1.9422,-0.6498 2.9133 -0.9748c -1.3992,-4.1817 -2.7984,-8.3634 -4.1975 -12.5451c -0.9711,0.3249 -1.9422,0.6498 -2.9132 0.9748c -2.0023,-5.9843 -4.0047,-11.9687 -6.0070 -17.9530c 0.9711,-0.3249 1.9422,-0.6498 2.9133 -0.9748c -1.3992,-4.1817 -2.7984,-8.3634 -4.1975 -12.5451c -0.9711,0.3249 -1.9422,0.6498 -2.9132 0.9748c -0.3919,-1.1714 -0.7839,-2.3428 -1.1758 -3.5141c -16.6905,5.5846 -33.3810,11.1691 -50.0715 16.7537c 0.3919,1.1714 0.7839,2.3428 1.1758 3.5141c -0.9711,0.3249 -1.9422,0.6498 -2.9132 0.9748ZM 777.1698,740.6521 c 1.3992,4.1817 2.7984,8.3634 4.1975 12.5451c 0.9711,-0.3249 1.9422,-0.6498 2.9133 -0.9748c 2.0023,5.9843 4.0047,11.9687 6.0070 17.9530c -0.9711,0.3249 -1.9422,0.6498 -2.9133 0.9748c 1.3992,4.1817 2.7984,8.3634 4.1975 12.5451c 0.9711,-0.3249 1.9422,-0.6498 2.9132 -0.9748c 0.3919,1.1714 0.7839,2.3428 1.1758 3.5141c 16.6905,-5.5846 33.3810,-11.1691 50.0715 -16.7537c -0.3919,-1.1714 -0.7839,-2.3428 -1.1758 -3.5141c 0.9711,-0.3249 1.9422,-0.6498 2.9133 -0.9748c -1.3992,-4.1817 -2.7984,-8.3634 -4.1975 -12.5451c -0.9711,0.3249 -1.9422,0.6498 -2.9133 0.9748c -2.0023,-5.9843 -4.0047,-11.9687 -6.0070 -17.9530c 0.9711,-0.3249 1.9422,-0.6498 2.9132 -0.9748c -1.3992,-4.1817 -2.7984,-8.3634 -4.1975 -12.5451c -0.9711,0.3249 -1.9422,0.6498 -2.9133 0.9748c -0.3919,-1.1714 -0.7839,-2.3428 -1.1758 -3.5141c -16.6905,5.5846 -33.3810,11.1691 -50.0715 16.7537c 0.3919,1.1714 0.7839,2.3428 1.1758 3.5141c -0.9711,0.3249 -1.9422,0.6498 -2.9132 0.9748ZM 799.9558,808.7522 c 1.3992,4.1817 2.7984,8.3634 4.1975 12.5451c 0.9711,-0.3249 1.9422,-0.6498 2.9133 -0.9748c 2.0023,5.9843 4.0047,11.9687 6.0070 17.9530c -0.9711,0.3249 -1.9422,0.6498 -2.9132 0.9748c 1.3992,4.1817 2.7984,8.3634 4.1975 12.5451c 0.9711,-0.3249 1.9422,-0.6498 2.9133 -0.9748c 0.3919,1.1714 0.7839,2.3428 1.1758 3.5141c 16.6905,-5.5846 33.3810,-11.1691 50.0715 -16.7537c -0.3919,-1.1714 -0.7839,-2.3428 -1.1758 -3.5141c 0.9711,-0.3249 1.9422,-0.6498 2.9132 -0.9748c -1.3992,-4.1817 -2.7984,-8.3634 -4.1975 -12.5451c -0.9711,0.3249 -1.9422,0.6498 -2.9133 0.9748c -2.0023,-5.9843 -4.0047,-11.9687 -6.0070 -17.9530c 0.9711,-0.3249 1.9422,-0.6498 2.9133 -0.9748c -1.3992,-4.1817 -2.7984,-8.3634 -4.1975 -12.5451c -0.9711,0.3249 -1.9422,0.6498 -2.9132 0.9748c -0.3919,-1.1714 -0.7839,-2.3428 -1.1758 -3.5141c -16.6905,5.5846 -33.3810,11.1691 -50.0715 16.7537c 0.3919,1.1714 0.7839,2.3428 1.1758 3.5141c -0.9711,0.3249 -1.9422,0.6498 -2.9133 0.9748ZM 822.7418,876.8522 c 1.3992,4.1817 2.7984,8.3634 4.1975 12.5451c 0.9711,-0.3249 1.9422,-0.6498 2.9132 -0.9748c 2.0023,5.9843 4.0047,11.9687 6.0070 17.9530c -0.9711,0.3249 -1.9422,0.6498 -2.9133 0.9748c 1.3992,4.1817 2.7984,8.3634 4.1975 12.5451c 0.9711,-0.3249 1.9422,-0.6498 2.9133 -0.9748c 0.3919,1.1714 0.7839,2.3428 1.1758 3.5141c 16.6905,-5.5846 33.3810,-11.1691 50.0715 -16.7537c -0.3919,-1.1714 -0.7839,-2.3428 -1.1758 -3.5141c 0.9711,-0.3249 1.9422,-0.6498 2.9132 -0.9748c -1.3992,-4.1817 -2.7984,-8.3634 -4.1975 -12.5451c -0.9711,0.3249 -1.9422,0.6498 -2.9133 0.9748c -2.0023,-5.9843 -4.0047,-11.9687 -6.0070 -17.9530c 0.9711,-0.3249 1.9422,-0.6498 2.9132 -0.9748c -1.3992,-4.1817 -2.7983,-8.3634 -4.1975 -12.5451c -0.9711,0.3249 -1.9422,0.6498 -2.9133 0.9748c -0.3919,-1.1714 -0.7839,-2.3428 -1.1758 -3.5141c -16.6905,5.5846 -33.3810,11.1691 -50.0715 16.7537c 0.3919,1.1714 0.7839,2.3428 1.1758 3.5141c -0.9711,0.3249 -1.9422,0.6498 -2.9133 0.9748ZM 828.4803,667.6871 c 1.3992,4.1817 2.7984,8.3634 4.1975 12.5451c 0.9711,-0.3249 1.9422,-0.6498 2.9133 -0.9748c 2.0023,5.9843 4.0047,11.9687 6.0070 17.9530c -0.9711,0.3249 -1.9422,0.6498 -2.9132 0.9748c 1.3992,4.1817 2.7984,8.3634 4.1975 12.5451c 0.9711,-0.3249 1.9422,-0.6498 2.9132 -0.9748c 0.3919,1.1714 0.7839,2.3428 1.1758 3.5141c 16.6905,-5.5846 33.3810,-11.1691 50.0715 -16.7537c -0.3919,-1.1714 -0.7839,-2.3428 -1.1758 -3.5141c 0.9711,-0.3249 1.9422,-0.6498 2.9133 -0.9748c -1.3992,-4.1817 -2.7984,-8.3634 -4.1975 -12.5451c -0.9711,0.3249 -1.9422,0.6498 -2.9133 0.9748c -2.0023,-5.9843 -4.0047,-11.9687 -6.0070 -17.9530c 0.9711,-0.3249 1.9422,-0.6498 2.9132 -0.9748c -1.3992,-4.1817 -2.7984,-8.3634 -4.1975 -12.5451c -0.9711,0.3249 -1.9422,0.6498 -2.9133 0.9748c -0.3919,-1.1714 -0.7839,-2.3428 -1.1758 -3.5141c -16.6905,5.5846 -33.3810,11.1691 -50.0715 16.7537c 0.3919,1.1714 0.7839,2.3428 1.1758 3.5141c -0.9711,0.3249 -1.9422,0.6498 -2.9132 0.9748ZM 851.2662,735.7872 c 1.3992,4.1817 2.7984,8.3634 4.1975 12.5451c 0.9711,-0.3249 1.9422,-0.6498 2.9133 -0.9748c 2.0023,5.9843 4.0047,11.9687 6.0070 17.9530c -0.9711,0.3249 -1.9422,0.6498 -2.9132 0.9748c 1.3992,4.1817 2.7984,8.3634 4.1975 12.5451c 0.9711,-0.3249 1.9422,-0.6498 2.9133 -0.9748c 0.3919,1.1714 0.7839,2.3428 1.1758 3.5141c 16.6905,-5.5846 33.3810,-11.1691 50.0715 -16.7537c -0.3919,-1.1714 -0.7839,-2.3428 -1.1758 -3.5141c 0.9711,-0.3249 1.9422,-0.6498 2.9132 -0.9748c -1.3992,-4.1817 -2.7984,-8.3634 -4.1975 -12.5451c -0.9711,0.3249 -1.9422,0.6498 -2.9133 0.9748c -2.0023,-5.9843 -4.0047,-11.9687 -6.0070 -17.9530c 0.9711,-0.3249 1.9422,-0.6498 2.9133 -0.9748c -1.3992,-4.1817 -2.7984,-8.3634 -4.1975 -12.5451c -0.9711,0.3249 -1.9422,0.6498 -2.9132 0.9748c -0.3919,-1.1714 -0.7839,-2.3428 -1.1758 -3.5141c -16.6905,5.5846 -33.3810,11.1691 -50.0715 16.7537c 0.3919,1.1714 0.7839,2.3428 1.1758 3.5141c -0.9711,0.3249 -1.9422,0.6498 -2.9133 0.9748ZM 874.0522,803.8873 c 1.3992,4.1817 2.7984,8.3634 4.1975 12.5451c 0.9711,-0.3249 1.9422,-0.6498 2.9132 -0.9748c 2.0023,5.9843 4.0047,11.9687 6.0070 17.9530c -0.9711,0.3249 -1.9422,0.6498 -2.9133 0.9748c 1.3992,4.1817 2.7984,8.3634 4.1975 12.5451c 0.9711,-0.3249 1.9422,-0.6498 2.9133 -0.9748c 0.3919,1.1714 0.7839,2.3428 1.1758 3.5141c 16.6905,-5.5846 33.3810,-11.1691 50.0715 -16.7537c -0.3919,-1.1714 -0.7839,-2.3428 -1.1758 -3.5141c 0.9711,-0.3249 1.9422,-0.6498 2.9132 -0.9748c -1.3992,-4.1817 -2.7984,-8.3634 -4.1975 -12.5451c -0.9711,0.3249 -1.9422,0.6498 -2.9133 0.9748c -2.0023,-5.9843 -4.0047,-11.9687 -6.0070 -17.9530c 0.9711,-0.3249 1.9422,-0.6498 2.9132 -0.9748c -1.3992,-4.1817 -2.7983,-8.3634 -4.1975 -12.5451c -0.9711,0.3249 -1.9422,0.6498 -2.9133 0.9748c -0.3919,-1.1714 -0.7839,-2.3428 -1.1758 -3.5141c -16.6905,5.5846 -33.3810,11.1691 -50.0715 16.7537c 0.3919,1.1714 0.7839,2.3428 1.1758 3.5141c -0.9711,0.3249 -1.9422,0.6498 -2.9133 0.9748ZM 896.8382,871.9874 c 1.3992,4.1817 2.7984,8.3634 4.1975 12.5451c 0.9711,-0.3249 1.9422,-0.6498 2.9133 -0.9748c 2.0023,5.9843 4.0047,11.9687 6.0070 17.9530c -0.9711,0.3249 -1.9422,0.6498 -2.9133 0.9748c 1.3992,4.1817 2.7984,8.3634 4.1975 12.5451c 0.9711,-0.3249 1.9422,-0.6498 2.9132 -0.9748c 0.3919,1.1714 0.7839,2.3428 1.1758 3.5141c 16.6905,-5.5846 33.3810,-11.1691 50.0715 -16.7537c -0.3919,-1.1714 -0.7839,-2.3428 -1.1758 -3.5141c 0.9711,-0.3249 1.9422,-0.6498 2.9133 -0.9748c -1.3992,-4.1817 -2.7984,-8.3634 -4.1975 -12.5451c -0.9711,0.3249 -1.9422,0.6498 -2.9133 0.9748c -2.0023,-5.9843 -4.0047,-11.9687 -6.0070 -17.9530c 0.9711,-0.3249 1.9422,-0.6498 2.9132 -0.9748c -1.3992,-4.1817 -2.7984,-8.3634 -4.1975 -12.5451c -0.9711,0.3249 -1.9422,0.6498 -2.9133 0.9748c -0.3919,-1.1714 -0.7839,-2.3428 -1.1758 -3.5141c -16.6905,5.5846 -33.3810,11.1691 -50.0715 16.7537c 0.3919,1.1714 0.7839,2.3428 1.1758 3.5141c -0.9711,0.3249 -1.9422,0.6498 -2.9132 0.9748ZM 900.1781,655.6537 c 1.3992,4.1817 2.7984,8.3634 4.1975 12.5451c 0.9711,-0.3249 1.9422,-0.6498 2.9133 -0.9748c 2.0023,5.9843 4.0047,11.9687 6.0070 17.9530c -0.9711,0.3249 -1.9422,0.6498 -2.9133 0.9748c 1.3992,4.1817 2.7984,8.3634 4.1975 12.5451c 0.9711,-0.3249 1.9422,-0.6498 2.9133 -0.9748c 0.3919,1.1714 0.7839,2.3428 1.1758 3.5141c 16.6905,-5.5846 33.3810,-11.1691 50.0715 -16.7537c -0.3919,-1.1714 -0.7839,-2.3428 -1.1758 -3.5141c 0.9711,-0.3249 1.9422,-0.6498 2.9132 -0.9748c -1.3992,-4.1817 -2.7984,-8.3634 -4.1975 -12.5451c -0.9711,0.3249 -1.9422,0.6498 -2.9133 0.9748c -2.0023,-5.9843 -4.0047,-11.9687 -6.0070 -17.9530c 0.9711,-0.3249 1.9422,-0.6498 2.9133 -0.9748c -1.3992,-4.1817 -2.7984,-8.3634 -4.1975 -12.5451c -0.9711,0.3249 -1.9422,0.6498 -2.9132 0.9748c -0.3919,-1.1714 -0.7839,-2.3428 -1.1758 -3.5141c -16.6905,5.5846 -33.3810,11.1691 -50.0715 16.7537c 0.3919,1.1714 0.7839,2.3428 1.1758 3.5141c -0.9711,0.3249 -1.9422,0.6498 -2.9133 0.9748ZM 922.9641,723.7538 c 1.3992,4.1817 2.7984,8.3634 4.1975 12.5451c 0.9711,-0.3249 1.9422,-0.6498 2.9133 -0.9748c 2.0023,5.9843 4.0047,11.9687 6.0070 17.9530c -0.9711,0.3249 -1.9422,0.6498 -2.9133 0.9748c 1.3992,4.1817 2.7984,8.3634 4.1975 12.5451c 0.9711,-0.3249 1.9422,-0.6498 2.9132 -0.9748c 0.3919,1.1714 0.7839,2.3428 1.1758 3.5141c 16.6905,-5.5846 33.3810,-11.1691 50.0715 -16.7537c -0.3919,-1.1714 -0.7839,-2.3428 -1.1758 -3.5141c 0.9711,-0.3249 1.9422,-0.6498 2.9133 -0.9748c -1.3992,-4.1817 -2.7984,-8.3634 -4.1975 -12.5451c -0.9711,0.3249 -1.9422,0.6498 -2.9133 0.9748c -2.0023,-5.9843 -4.0047,-11.9687 -6.0070 -17.9530c 0.9711,-0.3249 1.9422,-0.6498 2.9133 -0.9748c -1.3992,-4.1817 -2.7984,-8.3634 -4.1975 -12.5451c -0.9711,0.3249 -1.9422,0.6498 -2.9133 0.9748c -0.3919,-1.1714 -0.7839,-2.3428 -1.1758 -3.5141c -16.6905,5.5846 -33.3810,11.1691 -50.0715 16.7537c 0.3919,1.1714 0.7839,2.3428 1.1758 3.5141c -0.9711,0.3249 -1.9422,0.6498 -2.9132 0.9748ZM 945.7501,791.8539 c 1.3992,4.1817 2.7984,8.3634 4.1975 12.5451c 0.9711,-0.3249 1.9422,-0.6498 2.9133 -0.9748c 2.0023,5.9843 4.0047,11.9687 6.0070 17.9530c -0.9711,0.3249 -1.9422,0.6498 -2.9132 0.9748c 1.3992,4.1817 2.7984,8.3634 4.1975 12.5451c 0.9711,-0.3249 1.9422,-0.6498 2.9133 -0.9748c 0.3919,1.1714 0.7839,2.3428 1.1758 3.5141c 16.6905,-5.5846 33.3810,-11.1691 50.0715 -16.7537c -0.3919,-1.1714 -0.7839,-2.3428 -1.1758 -3.5141c 0.9711,-0.3249 1.9422,-0.6498 2.9132 -0.9748c -1.3992,-4.1817 -2.7984,-8.3634 -4.1975 -12.5451c -0.9711,0.3249 -1.9422,0.6498 -2.9133 0.9748c -2.0023,-5.9843 -4.0047,-11.9687 -6.0070 -17.9530c 0.9711,-0.3249 1.9422,-0.6498 2.9132 -0.9748c -1.3992,-4.1817 -2.7984,-8.3634 -4.1975 -12.5451c -0.9711,0.3249 -1.9422,0.6498 -2.9133 0.9748c -0.3919,-1.1714 -0.7839,-2.3428 -1.1758 -3.5141c -16.6905,5.5846 -33.3810,11.1691 -50.0715 16.7537c 0.3919,1.1714 0.7839,2.3428 1.1758 3.5141c -0.9711,0.3249 -1.9422,0.6498 -2.9132 0.9748ZM 968.5361,859.9540 c 1.3992,4.1817 2.7984,8.3634 4.1975 12.5451c 0.9711,-0.3249 1.9422,-0.6498 2.9133 -0.9748c 2.0023,5.9843 4.0047,11.9687 6.0070 17.9530c -0.9711,0.3249 -1.9422,0.6498 -2.9133 0.9748c 1.3992,4.1817 2.7984,8.3634 4.1975 12.5451c 0.9711,-0.3249 1.9422,-0.6498 2.9133 -0.9748c 0.3919,1.1714 0.7839,2.3428 1.1758 3.5141c 16.6905,-5.5846 33.3810,-11.1691 50.0715 -16.7537c -0.3919,-1.1714 -0.7839,-2.3428 -1.1758 -3.5141c 0.9711,-0.3249 1.9422,-0.6498 2.9133 -0.9748c -1.3992,-4.1817 -2.7984,-8.3634 -4.1975 -12.5451c -0.9711,0.3249 -1.9422,0.6498 -2.9133 0.9748c -2.0023,-5.9843 -4.0047,-11.9687 -6.0070 -17.9530c 0.9711,-0.3249 1.9422,-0.6498 2.9132 -0.9748c -1.3992,-4.1817 -2.7984,-8.3634 -4.1975 -12.5451c -0.9711,0.3249 -1.9422,0.6498 -2.9132 0.9748c -0.3919,-1.1714 -0.7839,-2.3428 -1.1758 -3.5141c -16.6905,5.5846 -33.3810,11.1691 -50.0715 16.7537c 0.3919,1.1714 0.7839,2.3428 1.1758 3.5141c -0.9711,0.3249 -1.9422,0.6498 -2.9133 0.9748ZM 969.4775,636.4520 c 1.3992,4.1817 2.7984,8.3634 4.1975 12.5451c 0.9711,-0.3249 1.9422,-0.6498 2.9133 -0.9748c 2.0023,5.9843 4.0047,11.9687 6.0070 17.9530c -0.9711,0.3249 -1.9422,0.6498 -2.9132 0.9748c 1.3992,4.1817 2.7984,8.3634 4.1975 12.5451c 0.9711,-0.3249 1.9422,-0.6498 2.9133 -0.9748c 0.3919,1.1714 0.7839,2.3428 1.1758 3.5141c 16.6905,-5.5846 33.3810,-11.1691 50.0715 -16.7537c -0.3919,-1.1714 -0.7839,-2.3428 -1.1758 -3.5141c 0.9711,-0.3249 1.9422,-0.6498 2.9132 -0.9748c -1.3992,-4.1817 -2.7984,-8.3634 -4.1975 -12.5451c -0.9711,0.3249 -1.9422,0.6498 -2.9133 0.9748c -2.0023,-5.9843 -4.0047,-11.9687 -6.0070 -17.9530c 0.9711,-0.3249 1.9422,-0.6498 2.9132 -0.9748c -1.3992,-4.1817 -2.7984,-8.3634 -4.1975 -12.5451c -0.9711,0.3249 -1.9422,0.6498 -2.9132 0.9748c -0.3919,-1.1714 -0.7839,-2.3428 -1.1758 -3.5141c -16.6905,5.5846 -33.3810,11.1691 -50.0715 16.7537c 0.3919,1.1714 0.7839,2.3428 1.1758 3.5141c -0.9711,0.3249 -1.9422,0.6498 -2.9132 0.9748ZM 992.2635,704.5521 c 1.3992,4.1817 2.7983,8.3634 4.1975 12.5451c 0.9711,-0.3249 1.9422,-0.6498 2.9133 -0.9748c 2.0023,5.9843 4.0047,11.9687 6.0070 17.9530c -0.9711,0.3249 -1.9422,0.6498 -2.9133 0.9748c 1.3992,4.1817 2.7983,8.3634 4.1975 12.5451c 0.9711,-0.3249 1.9422,-0.6498 2.9133 -0.9748c 0.3919,1.1714 0.7839,2.3428 1.1758 3.5141c 16.6905,-5.5846 33.3810,-11.1691 50.0715 -16.7537c -0.3919,-1.1714 -0.7839,-2.3428 -1.1758 -3.5141c 0.9711,-0.3249 1.9422,-0.6498 2.9133 -0.9748c -1.3992,-4.1817 -2.7984,-8.3634 -4.1975 -12.5451c -0.9711,0.3249 -1.9422,0.6498 -2.9132 0.9748c -2.0023,-5.9843 -4.0047,-11.9687 -6.0070 -17.9530c 0.9711,-0.3249 1.9422,-0.6498 2.9133 -0.9748c -1.3992,-4.1817 -2.7984,-8.3634 -4.1975 -12.5451c -0.9711,0.3249 -1.9422,0.6498 -2.9132 0.9748c -0.3919,-1.1714 -0.7839,-2.3428 -1.1758 -3.5141c -16.6905,5.5846 -33.3810,11.1691 -50.0715 16.7537c 0.3919,1.1714 0.7839,2.3428 1.1758 3.5141c -0.9711,0.3249 -1.9422,0.6498 -2.9132 0.9748ZM 1015.0494,772.6522 c 1.3992,4.1817 2.7984,8.3634 4.1975 12.5451c 0.9711,-0.3249 1.9422,-0.6498 2.9132 -0.9748c 2.0023,5.9843 4.0047,11.9686 6.0070 17.9530c -0.9711,0.3249 -1.9422,0.6498 -2.9133 0.9748c 1.3992,4.1817 2.7984,8.3634 4.1975 12.5451c 0.9711,-0.3249 1.9422,-0.6498 2.9133 -0.9748c 0.3919,1.1714 0.7839,2.3428 1.1758 3.5141c 16.6905,-5.5846 33.3810,-11.1691 50.0715 -16.7537c -0.3919,-1.1714 -0.7839,-2.3428 -1.1758 -3.5141c 0.9711,-0.3249 1.9422,-0.6498 2.9133 -0.9748c -1.3992,-4.1817 -2.7984,-8.3634 -4.1975 -12.5451c -0.9711,0.3249 -1.9422,0.6498 -2.9133 0.9748c -2.0023,-5.9843 -4.0047,-11.9687 -6.0070 -17.9530c 0.9711,-0.3249 1.9422,-0.6498 2.9133 -0.9748c -1.3992,-4.1817 -2.7984,-8.3634 -4.1975 -12.5451c -0.9711,0.3249 -1.9422,0.6498 -2.9133 0.9748c -0.3919,-1.1714 -0.7839,-2.3428 -1.1758 -3.5141c -16.6905,5.5846 -33.3810,11.1691 -50.0715 16.7537c 0.3919,1.1714 0.7839,2.3428 1.1758 3.5141c -0.9711,0.3249 -1.9422,0.6498 -2.9133 0.9748ZM 1037.8354,840.7523 c 1.3992,4.1817 2.7984,8.3634 4.1975 12.5451c 0.9711,-0.3249 1.9422,-0.6498 2.9133 -0.9748c 2.0023,5.9843 4.0047,11.9687 6.0070 17.9530c -0.9711,0.3249 -1.9422,0.6498 -2.9132 0.9748c 1.3992,4.1817 2.7984,8.3634 4.1975 12.5451c 0.9711,-0.3249 1.9422,-0.6498 2.9133 -0.9748c 0.3919,1.1714 0.7839,2.3428 1.1758 3.5141c 16.6905,-5.5846 33.3810,-11.1691 50.0715 -16.7537c -0.3919,-1.1714 -0.7839,-2.3428 -1.1758 -3.5141c 0.9711,-0.3249 1.9422,-0.6498 2.9132 -0.9748c -1.3992,-4.1817 -2.7984,-8.3634 -4.1975 -12.5451c -0.9711,0.3249 -1.9422,0.6498 -2.9133 0.9748c -2.0023,-5.9843 -4.0047,-11.9687 -6.0070 -17.9530c 0.9711,-0.3249 1.9422,-0.6498 2.9132 -0.9748c -1.3992,-4.1817 -2.7984,-8.3634 -4.1975 -12.5451c -0.9711,0.3249 -1.9422,0.6498 -2.9133 0.9748c -0.3919,-1.1714 -0.7839,-2.3428 -1.1758 -3.5141c -16.6905,5.5846 -33.3810,11.1691 -50.0715 16.7537c 0.3919,1.1714 0.7839,2.3428 1.1758 3.5141c -0.9711,0.3249 -1.9422,0.6498 -2.9132 0.9748ZM 14.0983,883.6364 c 0.0000,3.1311 2.5382,5.6693 5.6693 5.6693c 3.1311,-0.0000 5.6693,-2.5382 5.6693 -5.6693c 0.0000,-3.1311 -2.5382,-5.6693 -5.6693 -5.6693c -3.1311,-0.0000 -5.6693,2.5382 -5.6693 5.6693ZM 113.3451,587.0190 c 0.0000,3.1311 2.5382,5.6693 5.6693 5.6693c 3.1311,-0.0000 5.6693,-2.5382 5.6693 -5.6693c 0.0000,-3.1311 -2.5382,-5.6693 -5.6693 -5.6693c -3.1311,-0.0000 -5.6693,2.5382 -5.6693 5.6693ZM 497.4268,1103.8096 c 0.0000,3.1311 2.5382,5.6693 5.6693 5.6693c 3.1311,-0.0000 5.6693,-2.5382 5.6693 -5.6693c 0.0000,-3.1311 -2.5382,-5.6693 -5.6693 -5.6693c -3.1311,-0.0000 -5.6693,2.5382 -5.6693 5.6693ZM 543.1623,719.6488 c 0.0000,3.1311 2.5382,5.6693 5.6693 5.6693c 3.1311,-0.0000 5.6693,-2.5382 5.6693 -5.6693c 0.0000,-3.1311 -2.5382,-5.6693 -5.6693 -5.6693c -3.1311,-0.0000 -5.6693,2.5382 -5.6693 5.6693ZM 599.8552,719.6488 c 0.0000,3.1311 2.5382,5.6693 5.6693 5.6693c 3.1311,-0.0000 5.6693,-2.5382 5.6693 -5.6693c 0.0000,-3.1311 -2.5382,-5.6693 -5.6693 -5.6693c -3.1311,-0.0000 -5.6693,2.5382 -5.6693 5.6693ZM 645.5906,1103.8096 c 0.0000,3.1311 2.5382,5.6693 5.6693 5.6693c 3.1311,-0.0000 5.6693,-2.5382 5.6693 -5.6693c 0.0000,-3.1311 -2.5382,-5.6693 -5.6693 -5.6693c -3.1311,-0.0000 -5.6693,2.5382 -5.6693 5.6693ZM 1029.6723,587.0190 c 0.0000,3.1311 2.5382,5.6693 5.6693 5.6693c 3.1311,-0.0000 5.6693,-2.5382 5.6693 -5.6693c 0.0000,-3.1311 -2.5382,-5.6693 -5.6693 -5.6693c -3.1311,-0.0000 -5.6693,2.5382 -5.6693 5.6693ZM 1128.9191,883.6364 c 0.0000,3.1311 2.5382,5.6693 5.6693 5.6693c 3.1311,-0.0000 5.6693,-2.5382 5.6693 -5.6693c 0.0000,-3.1311 -2.5382,-5.6693 -5.6693 -5.6693c -3.1311,-0.0000 -5.6693,2.5382 -5.6693 5.6693Z"/></g><g stroke-linejoin="miter" stroke-opacity="1.0" fill-opacity="0.5" stroke="rgb(0,0,0)" stroke-width="0.37795275590551186" fill="rgb(0,0,255)" stroke-linecap="butt" stroke-miterlimit="10.0"><path d="M 3.9685,309.1752 c 0.0000,-3.1884 0.4961,-6.4043 1.5635 -9.5945c 7.5953,-22.7000 15.1907,-45.4001 22.7860 -68.1001c 0.2878,-0.8602 0.5756,-1.7204 0.8635 -2.5806c 7.3075,-21.8398 14.6150,-43.6796 21.9225 -65.5194c 0.2879,-0.8603 0.5757,-1.7206 0.8636 -2.5808c 7.3075,-21.8398 14.6150,-43.6797 21.9225 -65.5195c 0.2878,-0.8602 0.5756,-1.7204 0.8635 -2.5806c 7.5953,-22.7000 15.1907,-45.4001 22.7860 -68.1001c 5.2697,-15.7496 22.5182,-24.3494 38.2677 -19.0797c 18.0927,6.0538 36.1855,12.1075 54.2782 18.1612c 4.8706,-0.9075 10.0214,-0.6324 15.0211 1.0405c 15.2573,5.1050 30.5145,10.2100 45.7718 15.3150c 7.4598,-4.7790 16.9371,-6.2893 25.9261 -3.2816c 13.8456,4.6327 27.6911,9.2653 41.5367 13.8980c 7.7878,-9.0424 20.6055,-13.0329 32.5597 -9.0331c 23.5603,7.8831 47.1205,15.7663 70.6807 23.6494c 12.6159,4.2212 20.6431,16.0644 20.6431 28.6732c 0.0000,0.7062 -0.0243,1.4137 -0.0738 2.1220c 13.4451,4.4987 26.8901,8.9973 40.3352 13.4960c 11.9942,4.0132 19.8408,14.9157 20.5851 26.8155c 2.0594,0.6891 4.1188,1.3781 6.1782 2.0672c 22.6429,-0.0000 45.2857,-0.0000 67.9286 -0.0000c 22.6429,-0.0000 45.2857,-0.0000 67.9286 -0.0000c 2.0594,-0.6891 4.1188,-1.3781 6.1782 -2.0672c 0.7442,-11.8998 8.5909,-22.8023 20.5851 -26.8155c 13.4451,-4.4987 26.8901,-8.9973 40.3352 -13.4960c -0.0495,-0.7083 -0.0738,-1.4158 -0.0738 -2.1220c 0.0000,-12.6088 8.0273,-24.4520 20.6431 -28.6732c 23.5602,-7.8832 47.1205,-15.7663 70.6807 -23.6494c 11.9542,-3.9998 24.7719,-0.0093 32.5597 9.0331c 13.8456,-4.6327 27.6911,-9.2653 41.5367 -13.8980c 8.9890,-3.0077 18.4663,-1.4973 25.9261 3.2816c 15.2573,-5.1050 30.5146,-10.2100 45.7718 -15.3150c 4.9997,-1.6729 10.1505,-1.9480 15.0211 -1.0405c 18.0927,-6.0538 36.1855,-12.1075 54.2782 -18.1612c 15.7495,-5.2697 32.9980,3.3300 38.2677 19.0797c 7.5953,22.7000 15.1907,45.4001 22.7860 68.1001c 0.2878,0.8602 0.5756,1.7204 0.8635 2.5806c 7.3075,21.8398 14.6150,43.6797 21.9225 65.5195c 0.2879,0.8603 0.5757,1.7205 0.8636 2.5808c 7.3075,21.8398 14.6150,43.6796 21.9225 65.5194c 0.2878,0.8602 0.5756,1.7204 0.8635 2.5806c 7.5953,22.7000 15.1907,45.4001 22.7860 68.1001c 1.0674,3.1902 1.5635,6.4061 1.5635 9.5945c 0.0000,12.6088 -8.0273,24.4521 -20.6432 28.6733c -23.5602,7.8832 -47.1205,15.7663 -70.6807 23.6494c -4.9997,1.6729 -10.1505,1.9481 -15.0212 1.0405c -18.0927,6.0538 -36.1855,12.1075 -54.2782 18.1612c -8.9890,3.0077 -18.4663,1.4974 -25.9261 -3.2816c -15.2573,5.1050 -30.5145,10.2100 -45.7718 15.3150c -11.9542,3.9998 -24.7719,0.0093 -32.5597 -9.0330c -3.7304,1.2482 -7.4608,2.4964 -11.1912 3.7445c 0.0495,0.7083 0.0738,1.4158 0.0738 2.1220c 0.0000,12.6087 -8.0272,24.4520 -20.6431 28.6732c -13.8396,4.6307 -27.6792,9.2613 -41.5187 13.8920c -0.7444,11.8997 -8.5910,22.8019 -20.5850 26.8150c -11.7801,3.9416 -23.5602,7.8831 -35.3403 11.8247c -1.3620,0.4557 -2.7241,0.9114 -4.0861 1.3672c 1.8655,5.5754 3.7310,11.1509 5.5965 16.7263c 1.0674,3.1902 1.5635,6.4062 1.5635 9.5946c 0.0000,12.6087 -8.0273,24.4520 -20.6431 28.6732c -23.5602,7.8832 -47.1205,15.7663 -70.6807 23.6494c -15.7495,5.2697 -32.9981,-3.3301 -38.2678 -19.0796c -6.7957,-20.3104 -13.5915,-40.6208 -20.3873 -60.9312c -10.7397,-0.0000 -21.4794,-0.0000 -32.2192 -0.0000c -10.7397,-0.0000 -21.4794,-0.0000 -32.2192 -0.0000c -6.7957,20.3104 -13.5915,40.6208 -20.3873 60.9312c -5.2697,15.7495 -22.5183,24.3493 -38.2678 19.0796c -23.5602,-7.8832 -47.1205,-15.7663 -70.6807 -23.6494c -12.6159,-4.2212 -20.6431,-16.0646 -20.6431 -28.6732c 0.0000,-3.1884 0.4961,-6.4044 1.5635 -9.5946c 1.8655,-5.5754 3.7311,-11.1509 5.5965 -16.7263c -1.3620,-0.4557 -2.7241,-0.9114 -4.0861 -1.3672c -11.7801,-3.9415 -23.5602,-7.8831 -35.3403 -11.8247c -11.9941,-4.0132 -19.8406,-14.9154 -20.5850 -26.8150c -13.8396,-4.6307 -27.6792,-9.2613 -41.5187 -13.8920c -12.6159,-4.2212 -20.6431,-16.0645 -20.6431 -28.6732c 0.0000,-0.7062 0.0243,-1.4137 0.0738 -2.1220c -3.7304,-1.2482 -7.4608,-2.4964 -11.1912 -3.7445c -7.7878,9.0424 -20.6055,13.0329 -32.5597 9.0330c -15.2573,-5.1050 -30.5145,-10.2100 -45.7718 -15.3150c -7.4598,4.7790 -16.9371,6.2893 -25.9261 3.2816c -18.0927,-6.0538 -36.1855,-12.1075 -54.2782 -18.1612c -4.8707,0.9076 -10.0215,0.6324 -15.0212 -1.0405c -23.5602,-7.8831 -47.1205,-15.7663 -70.6807 -23.6494c -12.6159,-4.2212 -20.6432,-16.0645 -20.6432 -28.6733ZM 30.4250,309.1758 c 0.0000,1.5808 0.9996,3.0545 2.5813 3.5837c 23.5602,7.8831 47.1205,15.7663 70.6807 23.6494c 1.9795,0.6623 4.1211,-0.4054 4.7835 -2.3850c 21.5053,7.1956 43.0106,14.3911 64.5159 21.5867c 1.9795,0.6623 4.1211,-0.4054 4.7835 -2.3850c 0.7995,-2.3895 1.5990,-4.7790 2.3985 -7.1684c 21.5053,7.1956 43.0106,14.3911 64.5159 21.5867c 1.9795,0.6623 4.1211,-0.4054 4.7835 -2.3850c 1.5990,-4.7790 3.1980,-9.5579 4.7970 -14.3369c 19.4503,6.5080 38.9007,13.0160 58.3510 19.5240c -1.9988,5.9737 -3.9975,11.9474 -5.9963 17.9211c -0.1331,0.3978 -0.1963,0.8022 -0.1963 1.1998c 0.0000,1.5808 0.9996,3.0545 2.5813 3.5837c 21.5053,7.1956 43.0106,14.3911 64.5159 21.5867c -1.5990,4.7790 -3.1980,9.5579 -4.7970 14.3369c -0.1331,0.3978 -0.1963,0.8022 -0.1963 1.1998c 0.0000,1.5808 0.9996,3.0545 2.5813 3.5837c 21.5053,7.1956 43.0106,14.3911 64.5159 21.5867c -4.6638,13.9386 -9.3276,27.8772 -13.9914 41.8158c -0.1331,0.3978 -0.1963,0.8022 -0.1963 1.1998c 0.0000,1.5808 0.9996,3.0545 2.5813 3.5837c 23.5602,7.8831 47.1205,15.7663 70.6807 23.6494c 1.9795,0.6623 4.1211,-0.4054 4.7835 -2.3850c 7.5953,-22.7000 15.1906,-45.4001 22.7860 -68.1001c 0.2878,-0.8602 0.5756,-1.7204 0.8635 -2.5806c 0.0006,-0.0017 0.0011,-0.0033 0.0017 -0.0050c 7.5948,-22.6984 15.1896,-45.3968 22.7843 -68.0951c 0.1331,-0.3978 0.1963,-0.8022 0.1963 -1.1998c 0.0000,-1.5808 -0.9996,-3.0545 -2.5813 -3.5837c -21.5053,-7.1956 -43.0106,-14.3911 -64.5159 -21.5867c 4.3760,-13.0784 8.7520,-26.1568 13.1279 -39.2352c 0.2878,-0.8602 0.5756,-1.7204 0.8635 -2.5806c 7.3075,-21.8398 14.6150,-43.6796 21.9225 -65.5195c 0.2878,-0.8602 0.5756,-1.7204 0.8635 -2.5806c 0.0004,-0.0011 0.0007,-0.0022 0.0011 -0.0033c 7.5950,-22.6990 15.1899,-45.3979 22.7849 -68.0968c 0.1331,-0.3978 0.1963,-0.8022 0.1963 -1.1998c 0.0000,-1.5808 -0.9996,-3.0545 -2.5813 -3.5837c -21.5053,-7.1956 -43.0106,-14.3911 -64.5159 -21.5867c 1.5990,-4.7790 3.1980,-9.5579 4.7970 -14.3369c 0.1331,-0.3978 0.1963,-0.8022 0.1963 -1.1998c 0.0000,-1.5808 -0.9996,-3.0545 -2.5813 -3.5837c -21.5053,-7.1956 -43.0106,-14.3911 -64.5159 -21.5867c 1.9988,-5.9737 3.9975,-11.9474 5.9963 -17.9211c 0.1331,-0.3978 0.1963,-0.8022 0.1963 -1.1998c 0.0000,-1.5808 -0.9996,-3.0545 -2.5813 -3.5837c -23.5602,-7.8832 -47.1205,-15.7663 -70.6807 -23.6494c -1.9795,-0.6623 -4.1211,0.4054 -4.7835 2.3850c -1.5990,4.7790 -3.1980,9.5579 -4.7970 14.3369c -21.5053,-7.1956 -43.0106,-14.3911 -64.5159 -21.5867c -1.9795,-0.6623 -4.1211,0.4054 -4.7835 2.3850c -0.7995,2.3895 -1.5990,4.7790 -2.3985 7.1684c -21.5053,-7.1956 -43.0106,-14.3911 -64.5159 -21.5867c -1.9795,-0.6623 -4.1211,0.4054 -4.7835 2.3850c -21.5053,-7.1956 -43.0106,-14.3911 -64.5159 -21.5867c -1.9795,-0.6623 -4.1211,0.4054 -4.7835 2.3850c -7.5953,22.7000 -15.1906,45.4001 -22.7860 68.1001c -0.2878,0.8602 -0.5756,1.7204 -0.8635 2.5806c -7.3075,21.8398 -14.6150,43.6796 -21.9225 65.5195c -0.2878,0.8602 -0.5757,1.7204 -0.8635 2.5806c -7.3075,21.8398 -14.6150,43.6796 -21.9225 65.5195c -0.2878,0.8602 -0.5756,1.7204 -0.8635 2.5806c -7.5953,22.7000 -15.1906,45.4001 -22.7860 68.1001c -0.1331,0.3978 -0.1963,0.8022 -0.1963 1.1998ZM 608.2424,383.3278 c 0.0000,0.3976 0.0632,0.8019 0.1963 1.1998c 7.5948,22.6984 15.1895,45.3968 22.7843 68.0951c 0.0006,0.0016 0.0011,0.0033 0.0017 0.0050c 0.2878,0.8602 0.5756,1.7204 0.8635 2.5806c 7.5953,22.7000 15.1906,45.4001 22.7860 68.1001c 0.6623,1.9795 2.8040,3.0473 4.7835 2.3850c 23.5602,-7.8831 47.1205,-15.7663 70.6807 -23.6494c 1.5817,-0.5292 2.5813,-2.0029 2.5813 -3.5837c 0.0000,-0.3976 -0.0632,-0.8020 -0.1963 -1.1998c -4.6638,-13.9386 -9.3276,-27.8772 -13.9914 -41.8158c 21.5053,-7.1956 43.0106,-14.3911 64.5159 -21.5867c 1.5817,-0.5292 2.5813,-2.0029 2.5813 -3.5837c 0.0000,-0.3976 -0.0632,-0.8019 -0.1963 -1.1998c -1.5990,-4.7790 -3.1980,-9.5579 -4.7970 -14.3369c 21.5053,-7.1956 43.0106,-14.3911 64.5159 -21.5867c 1.5817,-0.5292 2.5813,-2.0029 2.5813 -3.5837c 0.0000,-0.3976 -0.0632,-0.8020 -0.1963 -1.1998c -1.9988,-5.9737 -3.9975,-11.9474 -5.9963 -17.9211c 19.4503,-6.5080 38.9007,-13.0160 58.3510 -19.5240c 1.5990,4.7790 3.1980,9.5579 4.7970 14.3369c 0.6623,1.9795 2.8040,3.0473 4.7835 2.3850c 21.5053,-7.1956 43.0106,-14.3911 64.5159 -21.5867c 0.7995,2.3895 1.5990,4.7790 2.3985 7.1684c 0.6623,1.9795 2.8040,3.0473 4.7835 2.3850c 21.5053,-7.1956 43.0106,-14.3911 64.5159 -21.5867c 0.6623,1.9795 2.8040,3.0473 4.7835 2.3850c 23.5602,-7.8832 47.1205,-15.7663 70.6807 -23.6494c 1.5817,-0.5292 2.5813,-2.0029 2.5813 -3.5837c 0.0000,-0.3976 -0.0632,-0.8019 -0.1963 -1.1998c -7.5953,-22.7000 -15.1906,-45.4001 -22.7860 -68.1001c -0.2878,-0.8602 -0.5756,-1.7204 -0.8635 -2.5806c -7.3075,-21.8398 -14.6150,-43.6796 -21.9225 -65.5195c -0.2878,-0.8602 -0.5756,-1.7204 -0.8635 -2.5806c -7.3075,-21.8398 -14.6150,-43.6796 -21.9225 -65.5195c -0.2878,-0.8602 -0.5756,-1.7204 -0.8635 -2.5806c -7.5953,-22.7000 -15.1907,-45.4001 -22.7860 -68.1001c -0.6623,-1.9795 -2.8040,-3.0473 -4.7835 -2.3850c -21.5053,7.1956 -43.0106,14.3911 -64.5159 21.5867c -0.6623,-1.9795 -2.8040,-3.0473 -4.7835 -2.3850c -21.5053,7.1956 -43.0106,14.3911 -64.5159 21.5867c -0.7995,-2.3895 -1.5990,-4.7790 -2.3985 -7.1684c -0.6623,-1.9795 -2.8040,-3.0473 -4.7835 -2.3850c -21.5053,7.1956 -43.0106,14.3911 -64.5159 21.5867c -1.5990,-4.7789 -3.1980,-9.5579 -4.7970 -14.3369c -0.6623,-1.9795 -2.8040,-3.0473 -4.7835 -2.3850c -23.5602,7.8831 -47.1205,15.7663 -70.6807 23.6494c -1.5817,0.5292 -2.5813,2.0029 -2.5813 3.5837c 0.0000,0.3976 0.0632,0.8019 0.1963 1.1998c 1.9988,5.9737 3.9975,11.9474 5.9963 17.9211c -21.5053,7.1956 -43.0106,14.3911 -64.5159 21.5867c -1.5817,0.5292 -2.5813,2.0029 -2.5813 3.5837c 0.0000,0.3976 0.0632,0.8019 0.1963 1.1998c 1.5990,4.7790 3.1980,9.5579 4.7970 14.3369c -21.5053,7.1956 -43.0106,14.3911 -64.5159 21.5867c -1.5817,0.5292 -2.5813,2.0029 -2.5813 3.5837c 0.0000,0.3976 0.0632,0.8020 0.1963 1.1998c 7.5950,22.6989 15.1899,45.3979 22.7849 68.0968c 0.0004,0.0011 0.0007,0.0022 0.0011 0.0033c 0.2878,0.8602 0.5756,1.7204 0.8635 2.5806c 7.3075,21.8398 14.6150,43.6796 21.9225 65.5195c 0.2878,0.8602 0.5756,1.7204 0.8635 2.5806c 4.3760,13.0784 8.7519,26.1568 13.1279 39.2352c -21.5053,7.1956 -43.0106,14.3911 -64.5159 21.5867c -1.5817,0.5292 -2.5813,2.0029 -2.5813 3.5837ZM 532.8797,340.7646 h 0.0000 l -8.9944,-27.0453 h -3.8547 l -8.9944,27.0453 h 3.0465 l 0.7885,-2.1256 l 0.8877,-1.8518 l 0.9713,-1.5761 l 1.0392,-1.2982 l 1.0914,-1.0182 l 1.1279,-0.7362 l 1.1488,-0.4521 l 1.1541,-0.1659 l 1.1436,0.1223 l 1.1176,0.4127 l 1.0758,0.7051 l 1.0184,0.9995 l 0.9453,1.2961 l 0.8566,1.5947 l 0.7522,1.8955 l 0.6321,2.1983 ZM 556.1739,322.8588 l 0.0000,-0.0000 v -9.1394 h -19.3151 v 9.1394 h 2.4248 l 0.8103,-1.3768 l 0.4440,-1.2648 l 0.4731,-2.1105 l 0.3712,-0.8041 l 0.6889,-0.6090 l 1.1777,-0.3931 l 1.8376,-0.1564 v 22.1958 h -4.3728 v 2.4247 h 11.5849 v -2.4247 h -4.3521 v -22.1958 l 1.8143,0.1934 l 1.2625,0.4798 l 0.8310,0.7152 l 0.5198,0.8997 l 0.5877,2.1495 l 0.3086,1.1480 l 0.4789,1.1290 ZM 578.7012,340.7646 v 0.0000 l -8.1447,-11.7092 l 1.6320,-0.2383 l 1.4973,-0.4663 l 1.3471,-0.6735 l 1.1398,-0.8601 l 0.9274,-1.0518 l 0.7098,-1.2487 l 0.4507,-1.4507 l 0.1503,-1.6165 l -0.1528,-1.8069 l -0.4585,-1.5660 l -0.7642,-1.3251 l -1.0699,-1.0842 l -1.3484,-0.8523 l -1.5997,-0.6088 l -1.8509,-0.3653 l -2.1022,-0.1218 h -8.9115 v 2.4244 l 2.8392,0.0003 h 6.0722 l 2.6631,0.3212 l 1.0906,0.4015 l 0.9300,0.5621 l 0.7525,0.7254 l 0.5375,0.9119 l 0.3225,1.0984 l 0.1075,1.2849 h -0.0000 l -0.1075,1.3031 l -0.3225,1.1113 l -0.5375,0.9196 l -0.7525,0.7279 l -0.9300,0.5440 l -1.0906,0.3886 l -2.6631,0.3109 h -6.0722 l -2.8392,0.0007 v 14.0089 h 2.8392 v -11.5849 h 4.2070 l 7.8960,11.5849 ZM 599.9644,340.7646 v -0.0000 v -2.4247 h -14.4449 v -10.0928 h 10.6523 v -2.4247 h -10.6523 v -9.6783 h 14.4449 v -2.4247 h -17.2841 v 27.0453 ZM 621.2276,330.8895 l 0.0000,-0.0000 v -17.4084 h -2.8600 v 17.4084 l -0.2072,2.5905 l -0.3161,1.3056 l -0.5336,1.1813 l -0.7564,1.0259 l -1.0258,0.8393 l -1.3108,0.5596 l -1.6528,0.1865 l -1.6528,-0.1865 l -1.3108,-0.5596 l -0.9999,-0.8393 l -0.7616,-1.0259 l -0.5233,-1.1813 l -0.3264,-1.3056 l -0.2072,-2.5905 v -17.4084 h -2.8392 v 17.3670 l 0.1243,2.1968 l 0.3730,1.9895 l 0.6476,1.7460 l 0.9067,1.4662 l 1.1968,1.1606 l 1.4766,0.8704 l 1.7927,0.5440 l 2.1035,0.1813 l 2.0880,-0.1813 l 1.7875,-0.5440 l 1.4921,-0.8704 l 1.2020,-1.1606 l 0.9326,-1.4611 l 0.6425,-1.7305 l 0.3886,-1.9740 ZM 643.3197,333.7080 h 0.0000 l -0.1917,-1.7978 l -0.5751,-1.4973 l -0.8756,-1.2590 l -1.0932,-1.0414 l -2.7149,-1.5958 l -3.0465,-1.2020 l -2.4040,-0.9326 l -2.0517,-1.0362 l -1.4300,-1.3264 l -0.3886,-0.8238 l -0.1295,-0.9792 l 0.1088,-1.1191 l 0.3264,-0.9533 l 0.5285,-0.7875 l 0.6735,-0.6217 l 1.7408,-0.8083 l 2.0932,-0.2487 l 1.2124,0.1140 l 1.1502,0.3419 l 1.0569,0.5181 l 0.9326,0.6839 l 0.7772,0.8290 l 0.5907,0.9948 l 0.3886,1.0984 l 0.1295,1.1813 h 2.5076 v -7.7302 h -2.5076 l -0.6832,0.8748 l -0.7737,-0.2090 l -1.6048,-0.6559 l -1.3454,-0.2965 l -1.8309,-0.1694 l -1.5751,0.1192 l -1.5336,0.3575 l -1.4196,0.5648 l -1.2331,0.7823 l -1.0310,0.9948 l -0.8134,1.2020 l -0.5285,1.3782 l -0.1762,1.5647 l 0.1813,1.7149 l 0.5440,1.4144 l 0.8342,1.1502 l 1.0518,0.9637 l 1.2383,0.7979 l 1.3937,0.6528 l 2.9429,1.0777 l 2.4455,0.9326 l 2.1553,1.1191 l 0.8704,0.7305 l 0.6632,0.8652 l 0.4352,1.0259 l 0.1451,1.2124 l -0.1140,1.0984 l -0.3419,0.9740 l -0.5181,0.8445 l -0.6839,0.7098 l -1.7823,0.9740 l -2.2175,0.3316 l -1.3367,-0.1140 l -1.3160,-0.3420 l -1.2124,-0.5647 l -1.0673,-0.7409 l -0.9067,-0.9067 l -0.7305,-1.0621 l -0.4818,-1.2175 l -0.1606,-1.3315 h -2.4040 v 8.2276 h 2.4040 l 0.7758,-1.3814 l 0.3142,-0.3726 l 0.5256,0.4111 l 1.4102,0.9698 l 1.9999,0.6373 l 2.1864,0.2124 l 1.6269,-0.1347 l 1.5647,-0.4041 l 1.4455,-0.6528 l 1.2694,-0.8808 l 1.0621,-1.0880 l 0.8238,-1.2745 l 0.5285,-1.4663 ZM 14.0983,316.3738 c 0.0000,3.1311 2.5382,5.6693 5.6693 5.6693c 3.1311,-0.0000 5.6693,-2.5382 5.6693 -5.6693c 0.0000,-3.1311 -2.5382,-5.6693 -5.6693 -5.6693c -3.1311,-0.0000 -5.6693,2.5382 -5.6693 5.6693ZM 113.3451,19.7564 c 0.0000,3.1311 2.5382,5.6693 5.6693 5.6693c 3.1311,-0.0000 5.6693,-2.5382 5.6693 -5.6693c 0.0000,-3.1311 -2.5382,-5.6693 -5.6693 -5.6693c -3.1311,-0.0000 -5.6693,2.5382 -5.6693 5.6693ZM 497.4268,536.5470 c 0.0000,3.1311 2.5382,5.6693 5.6693 5.6693c 3.1311,-0.0000 5.6693,-2.5382 5.6693 -5.6693c 0.0000,-3.1311 -2.5382,-5.6693 -5.6693 -5.6693c -3.1311,-0.0000 -5.6693,2.5382 -5.6693 5.6693ZM 543.1623,152.3862 c 0.0000,3.1311 2.5382,5.6693 5.6693 5.6693c 3.1311,-0.0000 5.6693,-2.5382 5.6693 -5.6693c 0.0000,-3.1311 -2.5382,-5.6693 -5.6693 -5.6693c -3.1311,-0.0000 -5.6693,2.5382 -5.6693 5.6693ZM 599.8552,152.3862 c 0.0000,3.1311 2.5382,5.6693 5.6693 5.6693c 3.1311,-0.0000 5.6693,-2.5382 5.6693 -5.6693c 0.0000,-3.1311 -2.5382,-5.6693 -5.6693 -5.6693c -3.1311,-0.0000 -5.6693,2.5382 -5.6693 5.6693ZM 645.5906,536.5470 c 0.0000,3.1311 2.5382,5.6693 5.6693 5.6693c 3.1311,-0.0000 5.6693,-2.5382 5.6693 -5.6693c 0.0000,-3.1311 -2.5382,-5.6693 -5.6693 -5.6693c -3.1311,-0.0000 -5.6693,2.5382 -5.6693 5.6693ZM 1029.6723,19.7564 c 0.0000,3.1311 2.5382,5.6693 5.6693 5.6693c 3.1311,-0.0000 5.6693,-2.5382 5.6693 -5.6693c 0.0000,-3.1311 -2.5382,-5.6693 -5.6693 -5.6693c -3.1311,-0.0000 -5.6693,2.5382 -5.6693 5.6693ZM 1128.9191,316.3738 c 0.0000,3.1311 2.5382,5.6693 5.6693 5.6693c 3.1311,-0.0000 5.6693,-2.5382 5.6693 -5.6693c 0.0000,-3.1311 -2.5382,-5.6693 -5.6693 -5.6693c -3.1311,-0.0000 -5.6693,2.5382 -5.6693 5.6693Z"/></g></svg>