<?xml version="1.0" encoding="UTF-8"?>
<!DOCTYPE svg PUBLIC "-//W3C//DTD SVG 1.1//EN"
    "http://www.w3.org/Graphics/SVG/1.1/DTD/svg11.dtd"><svg xmlns="http://www.w3.org/2000/svg" height="1466.3999" stroke-opacity="1" viewBox="0 0 717 1466" font-size="1" width="717.4312" xmlns:xlink="http://www.w3.org/1999/xlink" stroke="rgb(0,0,0)" version="1.1"><defs></defs><g stroke-linejoin="miter" stroke-opacity="1.0" fill-opacity="0.5" stroke="rgb(0,0,0)" stroke-width="0.37795275590551186" fill="rgb(0,0,0)" stroke-linecap="butt" stroke-miterlimit="10.0"><path d="M 3.9685,1432.1901 c 0.0004,-23.9370 0.0008,-47.8740 0.0013 -71.8110c 0.0000,-0.9072 0.0000,-1.8143 0.0000 -2.7213c 0.0004,-23.0360 0.0008,-46.0629 0.0012 -69.0897c 0.0000,-0.0000 0.0000,-0.0001 0.0000 -0.0001c 0.0000,-0.9071 0.0000,-1.8142 0.0000 -2.7213c 0.0004,-23.0360 0.0008,-46.0628 0.0012 -69.0897c 0.0000,-0.9072 0.0000,-1.8143 0.0001 -2.7213c 0.0000,-0.0015 0.0000,-0.0030 0.0000 -0.0045c 0.0004,-23.9355 0.0008,-47.8710 0.0013 -71.8065c 0.0002,-16.6077 13.6290,-30.2361 30.2368 -30.2358c 23.9370,0.0004 47.8740,0.0008 71.8110 0.0013c 0.9071,0.0000 1.8142,0.0000 2.7213 0.0000c 0.0015,-0.0000 0.0031,-0.0000 0.0046 -0.0000c 23.0284,0.0004 46.0568,0.0008 69.0852 0.0012c 0.9071,-0.0000 1.8142,0.0000 2.7213 0.0000c 0.0015,-0.0000 0.0030,-0.0000 0.0046 -0.0000c 23.0284,0.0004 46.0568,0.0008 69.0852 0.0012c 0.9071,-0.0000 1.8142,0.0000 2.7213 0.0000c 0.0015,-0.0000 0.0030,-0.0000 0.0045 -0.0000c 11.5134,0.0002 23.0269,0.0004 34.5403 0.0006c 23.9354,-0.0000 47.8707,-0.0000 71.8061 -0.0000c 23.9354,-0.0000 47.8707,-0.0000 71.8061 -0.0000c 11.5134,-0.0002 23.0269,-0.0004 34.5403 -0.0006c 0.0015,-0.0000 0.0030,-0.0000 0.0045 -0.0000c 0.9071,-0.0000 1.8142,-0.0000 2.7213 -0.0000c 23.0284,-0.0004 46.0568,-0.0008 69.0852 -0.0012c 0.0015,-0.0000 0.0031,-0.0000 0.0046 -0.0000c 0.9071,-0.0000 1.8142,-0.0000 2.7213 -0.0000c 23.0284,-0.0004 46.0568,-0.0008 69.0852 -0.0012c 0.0015,-0.0000 0.0030,-0.0000 0.0046 -0.0000c 0.9071,-0.0000 1.8142,-0.0000 2.7213 -0.0000c 23.9370,-0.0004 47.8740,-0.0008 71.8110 -0.0013c 16.6078,-0.0003 30.2365,13.6281 30.2368 30.2358c 0.0004,23.9355 0.0008,47.8710 0.0013 71.8065c 0.0000,0.0015 0.0000,0.0030 0.0000 0.0045c 0.0000,0.9071 0.0000,1.8142 0.0001 2.7213c 0.0000,0.0000 0.0000,0.0001 0.0000 0.0001c 0.0004,23.0284 0.0008,46.0568 0.0012 69.0851c 0.0000,0.0015 0.0000,0.0031 0.0000 0.0046c 0.0000,0.9071 0.0000,1.8141 0.0000 2.7213c 0.0000,-0.0000 0.0000,0.0000 0.0000 0.0001c 0.0004,23.0284 0.0008,46.0567 0.0012 69.0851c 0.0000,0.0015 0.0000,0.0030 0.0000 0.0046c 0.0000,0.9071 0.0000,1.8142 0.0000 2.7213c 0.0000,0.0000 0.0000,0.0001 0.0000 0.0001c 0.0004,23.9370 0.0008,47.8740 0.0013 71.8110c 0.0000,-0.0000 0.0000,0.0000 0.0000 0.0001c 0.0000,16.6075 -13.6282,30.2360 -30.2358 30.2362c -23.9370,0.0004 -47.8740,0.0008 -71.8110 0.0013c -0.9071,0.0000 -1.8142,0.0000 -2.7213 0.0000c -23.0299,0.0004 -46.0598,0.0008 -69.0898 0.0012c -0.9071,-0.0000 -1.8142,0.0000 -2.7213 0.0000c -23.0299,0.0004 -46.0598,0.0008 -69.0898 0.0012c -0.9071,-0.0000 -1.8142,0.0000 -2.7213 0.0000c -11.5149,0.0002 -23.0299,0.0004 -34.5448 0.0006c -12.4221,0.0002 -24.8442,0.0005 -37.2663 0.0007c -0.0672,-0.0000 -0.1344,-0.0002 -0.2015 -0.0007c -11.4481,-0.0000 -22.8963,-0.0000 -34.3444 -0.0000c -11.4481,-0.0000 -22.8963,-0.0000 -34.3444 -0.0000c -0.0672,0.0005 -0.1343,0.0007 -0.2015 0.0007c -12.4221,-0.0002 -24.8442,-0.0004 -37.2663 -0.0007c -11.5149,-0.0002 -23.0299,-0.0004 -34.5448 -0.0006c -0.9071,-0.0000 -1.8142,-0.0000 -2.7213 -0.0000c -23.0299,-0.0004 -46.0599,-0.0008 -69.0898 -0.0012c -0.9071,-0.0000 -1.8142,-0.0000 -2.7213 -0.0000c -23.0299,-0.0004 -46.0599,-0.0008 -69.0898 -0.0012c -0.9071,-0.0000 -1.8142,-0.0000 -2.7213 -0.0000c -23.9370,-0.0004 -47.8740,-0.0008 -71.8110 -0.0013c -16.6076,-0.0002 -30.2358,-13.6287 -30.2358 -30.2362c 0.0000,-0.0000 0.0000,-0.0001 -0.0000 -0.0001ZM 17.1276,1443.5980 c 0.0000,3.1311 2.5382,5.6693 5.6693 5.6693c 3.1311,-0.0000 5.6693,-2.5382 5.6693 -5.6693c 0.0000,-3.1311 -2.5382,-5.6693 -5.6693 -5.6693c -3.1311,-0.0000 -5.6693,2.5382 -5.6693 5.6693ZM 17.1330,1130.8173 c 0.0000,3.1311 2.5382,5.6693 5.6693 5.6693c 3.1311,-0.0000 5.6693,-2.5382 5.6693 -5.6693c 0.0000,-3.1311 -2.5382,-5.6693 -5.6693 -5.6693c -3.1311,-0.0000 -5.6693,2.5382 -5.6693 5.6693ZM 281.2344,1447.7288 c 0.0000,3.1311 2.5382,5.6693 5.6693 5.6693c 3.1311,-0.0000 5.6693,-2.5382 5.6693 -5.6693c 0.0000,-3.1311 -2.5382,-5.6693 -5.6693 -5.6693c -3.1311,-0.0000 -5.6693,2.5382 -5.6693 5.6693ZM 324.6999,1126.6957 c 0.0000,3.1311 2.5382,5.6693 5.6693 5.6693c 3.1311,-0.0000 5.6693,-2.5382 5.6693 -5.6693c 0.0000,-3.1311 -2.5382,-5.6693 -5.6693 -5.6693c -3.1311,-0.0000 -5.6693,2.5382 -5.6693 5.6693ZM 381.3928,1126.6957 c 0.0000,3.1311 2.5382,5.6693 5.6693 5.6693c 3.1311,-0.0000 5.6693,-2.5382 5.6693 -5.6693c 0.0000,-3.1311 -2.5382,-5.6693 -5.6693 -5.6693c -3.1311,-0.0000 -5.6693,2.5382 -5.6693 5.6693ZM 424.8583,1447.7288 c 0.0000,3.1311 2.5382,5.6693 5.6693 5.6693c 3.1311,-0.0000 5.6693,-2.5382 5.6693 -5.6693c 0.0000,-3.1311 -2.5382,-5.6693 -5.6693 -5.6693c -3.1311,-0.0000 -5.6693,2.5382 -5.6693 5.6693ZM 688.9596,1130.8173 c 0.0000,3.1311 2.5382,5.6693 5.6693 5.6693c 3.1311,-0.0000 5.6693,-2.5382 5.6693 -5.6693c 0.0000,-3.1311 -2.5382,-5.6693 -5.6693 -5.6693c -3.1311,-0.0000 -5.6693,2.5382 -5.6693 5.6693ZM 688.9651,1443.5980 c 0.0000,3.1311 2.5382,5.6693 5.6693 5.6693c 3.1311,-0.0000 5.6693,-2.5382 5.6693 -5.6693c 0.0000,-3.1311 -2.5382,-5.6693 -5.6693 -5.6693c -3.1311,-0.0000 -5.6693,2.5382 -5.6693 5.6693Z"/></g><g stroke-linejoin="miter" stroke-opacity="1.0" fill-opacity="0.5" stroke="rgb(0,0,0)" stroke-width="0.37795275590551186" fill="rgb(255,255,0)" stroke-linecap="butt" stroke-miterlimit="10.0"><path d="M 3.9685,1062.8500 c 0.0004,-23.9370 0.0008,-47.8740 0.0013 -71.8110c 0.0000,-0.9072 0.0000,-1.8143 0.0000 -2.7213c 0.0004,-23.0360 0.0008,-46.0629 0.0012 -69.0897c 0.0000,-0.0000 0.0000,-0.0001 0.0000 -0.0001c 0.0000,-0.9071 0.0000,-1.8142 0.0000 -2.7213c 0.0004,-23.0360 0.0008,-46.0628 0.0012 -69.0897c 0.0000,-0.9072 0.0000,-1.8143 0.0001 -2.7213c 0.0000,-0.0015 0.0000,-0.0030 0.0000 -0.0045c 0.0004,-23.9355 0.0008,-47.8710 0.0013 -71.8065c 0.0001,-4.2133 0.8773,-8.2349 2.4578 -11.8908c 3.0689,-7.0988 8.7892,-12.8190 15.8881 -15.8876c 3.6560,-1.5804 7.6776,-2.4575 11.8909 -2.4574c 23.9370,0.0004 47.8740,0.0008 71.8110 0.0013c 0.9071,0.0000 1.8142,0.0000 2.7213 0.0000c 0.0015,-0.0000 0.0031,-0.0000 0.0046 -0.0000c 23.0284,0.0004 46.0568,0.0008 69.0852 0.0012c 0.9071,-0.0000 1.8142,0.0000 2.7213 0.0000c 0.0015,-0.0000 0.0030,-0.0000 0.0046 -0.0000c 23.0284,0.0004 46.0568,0.0008 69.0852 0.0012c 0.9071,-0.0000 1.8142,0.0000 2.7213 0.0000c 0.0015,-0.0000 0.0030,-0.0000 0.0045 -0.0000c 11.5134,0.0002 23.0269,0.0004 34.5403 0.0006c 12.0783,-0.0000 24.1566,-0.0000 36.2348 -0.0000c 4.8165,-0.0000 9.6331,-0.0000 14.4496 -0.0000c 7.0406,-0.0000 14.0811,-0.0000 21.1217 -0.0000c 7.0405,-0.0000 14.0811,-0.0000 21.1217 -0.0000c 4.8165,-0.0000 9.6331,-0.0000 14.4496 -0.0000c 12.0783,-0.0000 24.1566,-0.0000 36.2348 -0.0000c 11.5134,-0.0002 23.0269,-0.0004 34.5403 -0.0006c 0.0015,-0.0000 0.0030,-0.0000 0.0045 -0.0000c 0.9071,-0.0000 1.8142,-0.0000 2.7213 -0.0000c 23.0284,-0.0004 46.0568,-0.0008 69.0852 -0.0012c 0.0015,-0.0000 0.0031,-0.0000 0.0046 -0.0000c 0.9071,-0.0000 1.8142,-0.0000 2.7213 -0.0000c 23.0284,-0.0004 46.0568,-0.0008 69.0852 -0.0012c 0.0015,-0.0000 0.0030,-0.0000 0.0046 -0.0000c 0.9071,-0.0000 1.8142,-0.0000 2.7213 -0.0000c 23.9370,-0.0004 47.8740,-0.0008 71.8110 -0.0013c 4.2133,-0.0001 8.2349,0.8770 11.8909 2.4574c 7.0989,3.0686 12.8193,8.7888 15.8881 15.8876c 1.5805,3.6559 2.4577,7.6775 2.4578 11.8908c 0.0004,23.9355 0.0008,47.8710 0.0013 71.8065c 0.0000,0.0015 0.0000,0.0030 0.0000 0.0045c 0.0000,0.9071 0.0000,1.8142 0.0001 2.7213c 0.0000,0.0000 0.0000,0.0001 0.0000 0.0001c 0.0004,23.0284 0.0008,46.0568 0.0012 69.0851c 0.0000,0.0015 0.0000,0.0031 0.0000 0.0046c 0.0000,0.9071 0.0000,1.8141 0.0000 2.7213c 0.0000,-0.0000 0.0000,0.0000 0.0000 0.0001c 0.0004,23.0284 0.0008,46.0567 0.0012 69.0851c 0.0000,0.0015 0.0000,0.0030 0.0000 0.0046c 0.0000,0.9071 0.0000,1.8142 0.0000 2.7213c 0.0000,0.0000 0.0000,0.0001 0.0000 0.0001c 0.0004,23.9370 0.0008,47.8740 0.0013 71.8110c 0.0000,-0.0000 0.0000,0.0000 0.0000 0.0001c 0.0000,4.2131 -0.8771,8.2345 -2.4574 11.8903c -3.0687,7.0992 -8.7893,12.8197 -15.8884 15.8885c -3.6557,1.5803 -7.6770,2.4573 -11.8900 2.4574c -23.9370,0.0004 -47.8740,0.0008 -71.8110 0.0013c -0.9071,0.0000 -1.8142,0.0000 -2.7213 0.0000c -23.0299,0.0004 -46.0598,0.0008 -69.0898 0.0012c -0.9071,-0.0000 -1.8142,0.0000 -2.7213 0.0000c -23.0299,0.0004 -46.0598,0.0008 -69.0898 0.0012c -0.9071,-0.0000 -1.8142,0.0000 -2.7213 0.0000c -9.1064,0.0002 -18.2128,0.0003 -27.3192 0.0005c -2.4085,0.0000 -4.8170,0.0001 -7.2256 0.0001c -2.4085,0.0001 -4.8170,0.0001 -7.2256 0.0001c -10.0136,0.0002 -20.0271,0.0004 -30.0407 0.0005c -0.0672,-0.0000 -0.1344,-0.0002 -0.2015 -0.0007c -11.4481,-0.0000 -22.8963,-0.0000 -34.3444 -0.0000c -11.4481,-0.0000 -22.8963,-0.0000 -34.3444 -0.0000c -0.0672,0.0005 -0.1343,0.0007 -0.2015 0.0007c -10.0136,-0.0002 -20.0271,-0.0003 -30.0407 -0.0005c -2.4085,-0.0000 -4.8170,-0.0001 -7.2256 -0.0001c -2.4085,-0.0000 -4.8170,-0.0001 -7.2256 -0.0001c -9.1064,-0.0002 -18.2128,-0.0003 -27.3192 -0.0005c -0.9071,-0.0000 -1.8142,-0.0000 -2.7213 -0.0000c -23.0299,-0.0004 -46.0599,-0.0008 -69.0898 -0.0012c -0.9071,-0.0000 -1.8142,-0.0000 -2.7213 -0.0000c -23.0299,-0.0004 -46.0599,-0.0008 -69.0898 -0.0012c -0.9071,-0.0000 -1.8142,-0.0000 -2.7213 -0.0000c -23.9370,-0.0004 -47.8740,-0.0008 -71.8110 -0.0013c -4.2130,-0.0001 -8.2343,-0.8771 -11.8900 -2.4574c -7.0992,-3.0688 -12.8197,-8.7893 -15.8884 -15.8885c -1.5803,-3.6558 -2.4574,-7.6772 -2.4574 -11.8903c 0.0000,-0.0000 0.0000,-0.0001 -0.0000 -0.0001ZM 17.1276,1074.2579 c 0.0000,3.1311 2.5382,5.6693 5.6693 5.6693c 3.1311,-0.0000 5.6693,-2.5382 5.6693 -5.6693c 0.0000,-3.1311 -2.5382,-5.6693 -5.6693 -5.6693c -3.1311,-0.0000 -5.6693,2.5382 -5.6693 5.6693ZM 17.1330,761.4772 c 0.0000,3.1311 2.5382,5.6693 5.6693 5.6693c 3.1311,-0.0000 5.6693,-2.5382 5.6693 -5.6693c 0.0000,-3.1311 -2.5382,-5.6693 -5.6693 -5.6693c -3.1311,-0.0000 -5.6693,2.5382 -5.6693 5.6693ZM 26.6457,1058.3347 c 5.9540,1.4340 10.6405,6.1207 12.0744 12.0747c 22.4318,0.0004 44.8637,0.0008 67.2955 0.0012c 0.9071,-0.0000 1.8142,0.0000 2.7213 0.0000c 23.0299,0.0004 46.0598,0.0008 69.0898 0.0012c 0.9071,-0.0000 1.8142,0.0000 2.7213 0.0000c 23.0299,0.0004 46.0598,0.0008 69.0898 0.0012c 0.9071,-0.0000 1.8142,0.0000 2.7213 0.0000c 6.7454,0.0001 13.4909,0.0002 20.2363 0.0004c 2.8001,-5.0131 8.1584,-8.4028 14.3085 -8.4028c 6.1502,-0.0000 11.5087,3.3900 14.3087 8.4033c 7.6525,0.0001 15.3050,0.0003 22.9576 0.0004c 0.0331,-0.0000 0.0661,-0.0002 0.0991 -0.0006c 11.4822,-0.0000 22.9644,-0.0000 34.4465 -0.0000c 11.4822,-0.0000 22.9644,-0.0000 34.4465 -0.0000c 0.0330,0.0004 0.0661,0.0006 0.0991 0.0006c 7.6525,-0.0001 15.3050,-0.0003 22.9576 -0.0004c 2.8001,-5.0134 8.1585,-8.4033 14.3087 -8.4033c 6.1500,-0.0000 11.5083,3.3898 14.3085 8.4028c 6.7454,-0.0001 13.4908,-0.0002 20.2363 -0.0004c 0.9071,-0.0000 1.8142,-0.0000 2.7213 -0.0000c 23.0299,-0.0004 46.0598,-0.0008 69.0898 -0.0012c 0.9071,-0.0000 1.8142,-0.0000 2.7213 -0.0000c 23.0299,-0.0004 46.0598,-0.0008 69.0898 -0.0012c 0.9071,-0.0000 1.8141,-0.0000 2.7213 -0.0000c 22.4318,-0.0004 44.8637,-0.0008 67.2955 -0.0012c 1.4338,-5.9540 6.1204,-10.6407 12.0744 -12.0747c -0.0004,-22.4318 -0.0008,-44.8636 -0.0012 -67.2954c 0.0000,-0.0000 0.0000,-0.0000 0.0000 -0.0001c 0.0000,-0.9071 -0.0000,-1.8142 -0.0000 -2.7213c 0.0000,-0.0015 0.0000,-0.0031 0.0000 -0.0046c -0.0004,-23.0284 -0.0008,-46.0567 -0.0012 -69.0851c 0.0000,-0.0000 0.0000,-0.0000 0.0000 -0.0001c 0.0000,-0.9071 -0.0000,-1.8142 -0.0000 -2.7213c 0.0000,-0.0015 0.0000,-0.0031 0.0000 -0.0046c -0.0004,-23.0284 -0.0008,-46.0567 -0.0012 -69.0851c 0.0000,-0.0000 0.0000,-0.0000 0.0000 -0.0001c 0.0000,-0.9071 -0.0000,-1.8142 -0.0000 -2.7213c 0.0000,-0.0015 0.0000,-0.0030 0.0000 -0.0045c -0.0004,-22.4303 -0.0008,-44.8607 -0.0012 -67.2910c -5.9541,-1.4338 -10.6408,-6.1204 -12.0748 -12.0744c -22.4318,0.0004 -44.8637,0.0008 -67.2955 0.0012c -0.9071,-0.0000 -1.8142,0.0000 -2.7213 0.0000c -0.0015,-0.0000 -0.0031,-0.0000 -0.0046 -0.0000c -23.0284,0.0004 -46.0568,0.0008 -69.0852 0.0012c -0.9071,-0.0000 -1.8142,0.0000 -2.7213 0.0000c -0.0015,-0.0000 -0.0031,-0.0000 -0.0046 -0.0000c -23.0284,0.0004 -46.0568,0.0008 -69.0852 0.0012c -0.9071,-0.0000 -1.8142,0.0000 -2.7213 0.0000c -0.0015,-0.0000 -0.0030,-0.0000 -0.0045 -0.0000c -11.5134,0.0002 -23.0269,0.0004 -34.5404 0.0006c -0.1588,-0.0000 -0.3176,-0.0000 -0.4764 -0.0000c -9.5583,-0.0000 -19.1167,-0.0000 -28.6750 -0.0000c -2.8001,5.0133 -8.1585,8.4031 -14.3086 8.4031c -6.1501,-0.0000 -11.5085,-3.3899 -14.3086 -8.4031c -4.6793,-0.0000 -9.3586,-0.0000 -14.0378 -0.0000c -4.6793,-0.0000 -9.3586,-0.0000 -14.0378 -0.0000c -2.8001,5.0133 -8.1585,8.4031 -14.3086 8.4031c -6.1501,-0.0000 -11.5085,-3.3899 -14.3086 -8.4031c -9.7171,-0.0000 -19.4343,-0.0000 -29.1514 -0.0000c -11.5134,-0.0002 -23.0269,-0.0004 -34.5404 -0.0006c -0.0015,-0.0000 -0.0030,-0.0000 -0.0045 -0.0000c -0.9071,-0.0000 -1.8142,-0.0000 -2.7213 -0.0000c -23.0284,-0.0004 -46.0568,-0.0008 -69.0852 -0.0012c -0.0015,-0.0000 -0.0031,-0.0000 -0.0046 -0.0000c -0.9071,-0.0000 -1.8141,-0.0000 -2.7213 -0.0000c -23.0284,-0.0004 -46.0568,-0.0008 -69.0852 -0.0012c -0.0015,-0.0000 -0.0031,-0.0000 -0.0046 -0.0000c -0.9071,-0.0000 -1.8142,-0.0000 -2.7213 -0.0000c -22.4318,-0.0004 -44.8637,-0.0008 -67.2955 -0.0012c -1.4340,5.9540 -6.1207,10.6406 -12.0748 12.0744c -0.0004,22.4303 -0.0008,44.8607 -0.0012 67.2910c 0.0000,0.0015 0.0000,0.0030 0.0000 0.0045c 0.0000,0.9070 -0.0000,1.8141 -0.0000 2.7213c -0.0004,23.0268 -0.0008,46.0537 -0.0012 69.0897c 0.0000,0.9070 -0.0000,1.8141 -0.0000 2.7213c -0.0004,23.0268 -0.0008,46.0537 -0.0012 69.0897c 0.0000,0.9070 -0.0000,1.8141 -0.0000 2.7213c -0.0004,22.4318 -0.0008,44.8635 -0.0012 67.2954ZM 281.2344,1078.3886 c 0.0000,3.1311 2.5382,5.6693 5.6693 5.6693c 3.1311,-0.0000 5.6693,-2.5382 5.6693 -5.6693c 0.0000,-3.1311 -2.5382,-5.6693 -5.6693 -5.6693c -3.1311,-0.0000 -5.6693,2.5382 -5.6693 5.6693ZM 324.6999,757.3556 c 0.0000,3.1311 2.5382,5.6693 5.6693 5.6693c 3.1311,-0.0000 5.6693,-2.5382 5.6693 -5.6693c 0.0000,-3.1311 -2.5382,-5.6693 -5.6693 -5.6693c -3.1311,-0.0000 -5.6693,2.5382 -5.6693 5.6693ZM 381.3928,757.3556 c 0.0000,3.1311 2.5382,5.6693 5.6693 5.6693c 3.1311,-0.0000 5.6693,-2.5382 5.6693 -5.6693c 0.0000,-3.1311 -2.5382,-5.6693 -5.6693 -5.6693c -3.1311,-0.0000 -5.6693,2.5382 -5.6693 5.6693ZM 424.8583,1078.3886 c 0.0000,3.1311 2.5382,5.6693 5.6693 5.6693c 3.1311,-0.0000 5.6693,-2.5382 5.6693 -5.6693c 0.0000,-3.1311 -2.5382,-5.6693 -5.6693 -5.6693c -3.1311,-0.0000 -5.6693,2.5382 -5.6693 5.6693ZM 688.9596,761.4772 c 0.0000,3.1311 2.5382,5.6693 5.6693 5.6693c 3.1311,-0.0000 5.6693,-2.5382 5.6693 -5.6693c 0.0000,-3.1311 -2.5382,-5.6693 -5.6693 -5.6693c -3.1311,-0.0000 -5.6693,2.5382 -5.6693 5.6693ZM 688.9651,1074.2579 c 0.0000,3.1311 2.5382,5.6693 5.6693 5.6693c 3.1311,-0.0000 5.6693,-2.5382 5.6693 -5.6693c 0.0000,-3.1311 -2.5382,-5.6693 -5.6693 -5.6693c -3.1311,-0.0000 -5.6693,2.5382 -5.6693 5.6693Z"/></g><g stroke-linejoin="miter" stroke-opacity="1.0" fill-opacity="0.5" stroke="rgb(0,0,0)" stroke-width="0.37795275590551186" fill="rgb(0,0,0)" stroke-linecap="butt" stroke-miterlimit="10.0"><path d="M 3.9685,693.5098 c 0.0004,-23.9370 0.0008,-47.8740 0.0013 -71.8110c 0.0000,-0.9072 0.0000,-1.8143 0.0000 -2.7213c 0.0004,-23.0360 0.0008,-46.0629 0.0012 -69.0897c 0.0000,-0.0000 0.0000,-0.0001 0.0000 -0.0001c 0.0000,-0.9071 0.0000,-1.8142 0.0000 -2.7213c 0.0004,-23.0360 0.0008,-46.0628 0.0012 -69.0897c 0.0000,-0.9072 0.0000,-1.8143 0.0001 -2.7213c 0.0000,-0.0015 0.0000,-0.0030 0.0000 -0.0045c 0.0004,-23.9355 0.0008,-47.8710 0.0013 -71.8065c 0.0002,-16.6077 13.6290,-30.2361 30.2368 -30.2358c 23.9370,0.0004 47.8740,0.0008 71.8110 0.0013c 0.9071,0.0000 1.8142,0.0000 2.7213 0.0000c 0.0015,-0.0000 0.0031,-0.0000 0.0046 -0.0000c 23.0284,0.0004 46.0568,0.0008 69.0852 0.0012c 0.9071,-0.0000 1.8142,0.0000 2.7213 0.0000c 0.0015,-0.0000 0.0030,-0.0000 0.0046 -0.0000c 23.0284,0.0004 46.0568,0.0008 69.0852 0.0012c 0.9071,-0.0000 1.8142,0.0000 2.7213 0.0000c 0.0015,-0.0000 0.0030,-0.0000 0.0045 -0.0000c 11.5134,0.0002 23.0269,0.0004 34.5403 0.0006c 23.9354,-0.0000 47.8707,-0.0000 71.8061 -0.0000c 23.9354,-0.0000 47.8707,-0.0000 71.8061 -0.0000c 11.5134,-0.0002 23.0269,-0.0004 34.5403 -0.0006c 0.0015,-0.0000 0.0030,-0.0000 0.0045 -0.0000c 0.9071,-0.0000 1.8142,-0.0000 2.7213 -0.0000c 23.0284,-0.0004 46.0568,-0.0008 69.0852 -0.0012c 0.0015,-0.0000 0.0031,-0.0000 0.0046 -0.0000c 0.9071,-0.0000 1.8142,-0.0000 2.7213 -0.0000c 23.0284,-0.0004 46.0568,-0.0008 69.0852 -0.0012c 0.0015,-0.0000 0.0030,-0.0000 0.0046 -0.0000c 0.9071,-0.0000 1.8142,-0.0000 2.7213 -0.0000c 23.9370,-0.0004 47.8740,-0.0008 71.8110 -0.0013c 16.6078,-0.0003 30.2365,13.6281 30.2368 30.2358c 0.0004,23.9355 0.0008,47.8710 0.0013 71.8065c 0.0000,0.0015 0.0000,0.0030 0.0000 0.0045c 0.0000,0.9071 0.0000,1.8142 0.0001 2.7213c 0.0000,0.0000 0.0000,0.0001 0.0000 0.0001c 0.0004,23.0284 0.0008,46.0568 0.0012 69.0851c 0.0000,0.0015 0.0000,0.0031 0.0000 0.0046c 0.0000,0.9071 0.0000,1.8141 0.0000 2.7213c 0.0000,-0.0000 0.0000,0.0000 0.0000 0.0001c 0.0004,23.0284 0.0008,46.0567 0.0012 69.0851c 0.0000,0.0015 0.0000,0.0030 0.0000 0.0046c 0.0000,0.9071 0.0000,1.8142 0.0000 2.7213c 0.0000,0.0000 0.0000,0.0001 0.0000 0.0001c 0.0004,23.9370 0.0008,47.8740 0.0013 71.8110c 0.0000,-0.0000 0.0000,0.0000 0.0000 0.0001c 0.0000,16.6075 -13.6282,30.2360 -30.2358 30.2362c -23.9370,0.0004 -47.8740,0.0008 -71.8110 0.0013c -0.9071,0.0000 -1.8142,0.0000 -2.7213 0.0000c -23.0299,0.0004 -46.0598,0.0008 -69.0898 0.0012c -0.9071,-0.0000 -1.8142,0.0000 -2.7213 0.0000c -23.0299,0.0004 -46.0598,0.0008 -69.0898 0.0012c -0.9071,-0.0000 -1.8142,0.0000 -2.7213 0.0000c -11.5149,0.0002 -23.0299,0.0004 -34.5448 0.0006c -12.4221,0.0002 -24.8442,0.0005 -37.2663 0.0007c -0.0672,-0.0000 -0.1344,-0.0002 -0.2015 -0.0007c -11.4481,-0.0000 -22.8963,-0.0000 -34.3444 -0.0000c -11.4481,-0.0000 -22.8963,-0.0000 -34.3444 -0.0000c -0.0672,0.0005 -0.1343,0.0007 -0.2015 0.0007c -12.4221,-0.0002 -24.8442,-0.0004 -37.2663 -0.0007c -11.5149,-0.0002 -23.0299,-0.0004 -34.5448 -0.0006c -0.9071,-0.0000 -1.8142,-0.0000 -2.7213 -0.0000c -23.0299,-0.0004 -46.0599,-0.0008 -69.0898 -0.0012c -0.9071,-0.0000 -1.8142,-0.0000 -2.7213 -0.0000c -23.0299,-0.0004 -46.0599,-0.0008 -69.0898 -0.0012c -0.9071,-0.0000 -1.8142,-0.0000 -2.7213 -0.0000c -23.9370,-0.0004 -47.8740,-0.0008 -71.8110 -0.0013c -16.6076,-0.0002 -30.2358,-13.6287 -30.2358 -30.2362c 0.0000,-0.0000 0.0000,-0.0001 -0.0000 -0.0001ZM 17.1276,704.9177 c 0.0000,3.1311 2.5382,5.6693 5.6693 5.6693c 3.1311,-0.0000 5.6693,-2.5382 5.6693 -5.6693c 0.0000,-3.1311 -2.5382,-5.6693 -5.6693 -5.6693c -3.1311,-0.0000 -5.6693,2.5382 -5.6693 5.6693ZM 17.1330,392.1370 c 0.0000,3.1311 2.5382,5.6693 5.6693 5.6693c 3.1311,-0.0000 5.6693,-2.5382 5.6693 -5.6693c 0.0000,-3.1311 -2.5382,-5.6693 -5.6693 -5.6693c -3.1311,-0.0000 -5.6693,2.5382 -5.6693 5.6693ZM 41.9991,678.9386 c 1.0240,0.0000 2.0480,0.0000 3.0720 0.0001c -0.0000,1.2352 -0.0000,2.4704 -0.0001 3.7056c 17.6000,0.0003 35.2000,0.0006 52.8000 0.0009c 0.0000,-1.2352 0.0000,-2.4704 0.0001 -3.7056c 1.0240,0.0000 2.0480,0.0000 3.0720 0.0001c 0.0001,-4.4096 0.0002,-8.8191 0.0002 -13.2287c -1.0240,-0.0000 -2.0480,-0.0000 -3.0720 -0.0001c 0.0001,-6.3104 0.0002,-12.6209 0.0003 -18.9313c 1.0240,0.0000 2.0480,0.0000 3.0720 0.0001c 0.0001,-4.4096 0.0002,-8.8191 0.0002 -13.2287c -1.0240,-0.0000 -2.0480,-0.0000 -3.0720 -0.0001c 0.0000,-1.2352 0.0000,-2.4704 0.0001 -3.7056c -17.6000,-0.0003 -35.2000,-0.0006 -52.8000 -0.0009c -0.0000,1.2352 -0.0000,2.4704 -0.0001 3.7056c -1.0240,-0.0000 -2.0480,-0.0000 -3.0720 -0.0001c -0.0001,4.4096 -0.0002,8.8191 -0.0002 13.2287c 1.0240,0.0000 2.0480,0.0000 3.0720 0.0001c -0.0001,6.3104 -0.0002,12.6209 -0.0003 18.9313c -1.0240,-0.0000 -2.0480,-0.0000 -3.0720 -0.0001c -0.0001,4.4096 -0.0002,8.8191 -0.0002 13.2287ZM 42.0004,607.1276 c 1.0240,0.0000 2.0480,0.0000 3.0720 0.0001c -0.0000,1.2352 -0.0000,2.4704 -0.0001 3.7056c 17.6000,0.0003 35.2000,0.0006 52.8000 0.0009c 0.0000,-1.2352 0.0000,-2.4704 0.0001 -3.7056c 1.0240,0.0000 2.0480,0.0000 3.0720 0.0001c 0.0001,-4.4096 0.0002,-8.8192 0.0002 -13.2287c -1.0240,-0.0000 -2.0480,-0.0000 -3.0720 -0.0001c 0.0001,-6.3104 0.0002,-12.6208 0.0003 -18.9313c 1.0240,0.0000 2.0480,0.0000 3.0720 0.0001c 0.0001,-4.4096 0.0002,-8.8191 0.0002 -13.2287c -1.0240,-0.0000 -2.0480,-0.0000 -3.0720 -0.0001c 0.0000,-1.2352 0.0001,-2.4704 0.0001 -3.7056c -17.6000,-0.0003 -35.2000,-0.0006 -52.8000 -0.0009c -0.0000,1.2352 -0.0000,2.4704 -0.0001 3.7056c -1.0240,-0.0000 -2.0480,-0.0000 -3.0720 -0.0001c -0.0001,4.4096 -0.0002,8.8191 -0.0002 13.2287c 1.0240,0.0000 2.0480,0.0000 3.0720 0.0001c -0.0001,6.3104 -0.0002,12.6209 -0.0003 18.9313c -1.0240,-0.0000 -2.0480,-0.0000 -3.0720 -0.0001c -0.0001,4.4096 -0.0002,8.8191 -0.0002 13.2287ZM 42.0016,535.3165 c 1.0240,0.0000 2.0480,0.0000 3.0720 0.0001c -0.0000,1.2352 -0.0000,2.4704 -0.0001 3.7056c 17.6000,0.0003 35.2000,0.0006 52.8000 0.0009c 0.0000,-1.2352 0.0001,-2.4704 0.0001 -3.7056c 1.0240,0.0000 2.0480,0.0000 3.0720 0.0001c 0.0001,-4.4096 0.0002,-8.8191 0.0002 -13.2287c -1.0240,-0.0000 -2.0480,-0.0000 -3.0720 -0.0001c 0.0001,-6.3104 0.0002,-12.6208 0.0003 -18.9313c 1.0240,0.0000 2.0480,0.0000 3.0720 0.0001c 0.0001,-4.4096 0.0002,-8.8191 0.0002 -13.2287c -1.0240,-0.0000 -2.0480,-0.0000 -3.0720 -0.0001c 0.0000,-1.2352 0.0000,-2.4704 0.0001 -3.7056c -17.6000,-0.0003 -35.2000,-0.0006 -52.8000 -0.0009c -0.0000,1.2352 -0.0000,2.4704 -0.0001 3.7056c -1.0240,-0.0000 -2.0480,-0.0000 -3.0720 -0.0001c -0.0001,4.4096 -0.0002,8.8191 -0.0002 13.2287c 1.0240,0.0000 2.0480,0.0000 3.0720 0.0001c -0.0001,6.3104 -0.0002,12.6209 -0.0003 18.9313c -1.0240,-0.0000 -2.0480,-0.0000 -3.0720 -0.0001c -0.0001,4.4096 -0.0002,8.8191 -0.0002 13.2287ZM 42.0029,463.5055 c 1.0240,0.0000 2.0480,0.0000 3.0720 0.0001c -0.0000,1.2352 -0.0000,2.4704 -0.0001 3.7056c 17.6000,0.0003 35.2000,0.0006 52.8000 0.0009c 0.0000,-1.2352 0.0000,-2.4704 0.0001 -3.7056c 1.0240,0.0000 2.0480,0.0000 3.0720 0.0001c 0.0001,-4.4096 0.0002,-8.8191 0.0002 -13.2287c -1.0240,-0.0000 -2.0480,-0.0000 -3.0720 -0.0001c 0.0001,-6.3104 0.0002,-12.6209 0.0003 -18.9313c 1.0240,0.0000 2.0480,0.0000 3.0720 0.0001c 0.0001,-4.4096 0.0002,-8.8192 0.0002 -13.2287c -1.0240,-0.0000 -2.0480,-0.0000 -3.0720 -0.0001c 0.0000,-1.2352 0.0000,-2.4704 0.0001 -3.7056c -17.6000,-0.0003 -35.2000,-0.0006 -52.8000 -0.0009c -0.0000,1.2352 -0.0000,2.4704 -0.0001 3.7056c -1.0240,-0.0000 -2.0480,-0.0000 -3.0720 -0.0001c -0.0001,4.4096 -0.0002,8.8191 -0.0002 13.2287c 1.0240,0.0000 2.0480,0.0000 3.0720 0.0001c -0.0001,6.3104 -0.0002,12.6208 -0.0003 18.9313c -1.0240,-0.0000 -2.0480,-0.0000 -3.0720 -0.0001c -0.0001,4.4096 -0.0002,8.8191 -0.0002 13.2287ZM 113.8101,678.9398 c 1.0240,0.0000 2.0480,0.0000 3.0720 0.0001c -0.0000,1.2352 -0.0000,2.4704 -0.0001 3.7056c 17.6000,0.0003 35.2000,0.0006 52.8000 0.0009c 0.0000,-1.2352 0.0001,-2.4704 0.0001 -3.7056c 1.0240,0.0000 2.0480,0.0000 3.0720 0.0001c 0.0001,-4.4096 0.0002,-8.8192 0.0002 -13.2287c -1.0240,-0.0000 -2.0480,-0.0000 -3.0720 -0.0001c 0.0001,-6.3104 0.0002,-12.6208 0.0003 -18.9313c 1.0240,0.0000 2.0480,0.0000 3.0720 0.0001c 0.0001,-4.4096 0.0002,-8.8191 0.0002 -13.2287c -1.0240,-0.0000 -2.0480,-0.0000 -3.0720 -0.0001c 0.0000,-1.2352 0.0000,-2.4704 0.0001 -3.7056c -17.6000,-0.0003 -35.2000,-0.0006 -52.8000 -0.0009c -0.0000,1.2352 -0.0000,2.4704 -0.0001 3.7056c -1.0240,-0.0000 -2.0480,-0.0000 -3.0720 -0.0001c -0.0001,4.4096 -0.0002,8.8191 -0.0002 13.2287c 1.0240,0.0000 2.0480,0.0000 3.0720 0.0001c -0.0001,6.3104 -0.0002,12.6208 -0.0003 18.9313c -1.0240,-0.0000 -2.0480,-0.0000 -3.0720 -0.0001c -0.0001,4.4096 -0.0002,8.8191 -0.0002 13.2287ZM 113.8114,607.1288 c 1.0240,0.0000 2.0480,0.0000 3.0720 0.0001c -0.0000,1.2352 -0.0000,2.4704 -0.0001 3.7056c 17.6000,0.0003 35.2000,0.0006 52.8000 0.0009c 0.0000,-1.2352 0.0000,-2.4704 0.0001 -3.7056c 1.0240,0.0000 2.0480,0.0000 3.0720 0.0001c 0.0001,-4.4096 0.0002,-8.8191 0.0002 -13.2287c -1.0240,-0.0000 -2.0480,-0.0000 -3.0720 -0.0001c 0.0001,-6.3104 0.0002,-12.6208 0.0003 -18.9313c 1.0240,0.0000 2.0480,0.0000 3.0720 0.0001c 0.0001,-4.4096 0.0002,-8.8191 0.0002 -13.2287c -1.0240,-0.0000 -2.0480,-0.0000 -3.0720 -0.0001c 0.0000,-1.2352 0.0000,-2.4704 0.0001 -3.7056c -17.6000,-0.0003 -35.2000,-0.0006 -52.8000 -0.0009c -0.0000,1.2352 -0.0000,2.4704 -0.0001 3.7056c -1.0240,-0.0000 -2.0480,-0.0000 -3.0720 -0.0001c -0.0001,4.4096 -0.0002,8.8191 -0.0002 13.2287c 1.0240,0.0000 2.0480,0.0000 3.0720 0.0001c -0.0001,6.3104 -0.0002,12.6209 -0.0003 18.9313c -1.0240,-0.0000 -2.0480,-0.0000 -3.0720 -0.0001c -0.0001,4.4096 -0.0002,8.8191 -0.0002 13.2287ZM 113.8126,535.3178 c 1.0240,0.0000 2.0480,0.0000 3.0720 0.0001c -0.0000,1.2352 -0.0000,2.4704 -0.0001 3.7056c 17.6000,0.0003 35.2000,0.0006 52.8000 0.0009c 0.0000,-1.2352 0.0000,-2.4704 0.0001 -3.7056c 1.0240,0.0000 2.0480,0.0000 3.0720 0.0001c 0.0001,-4.4096 0.0002,-8.8191 0.0002 -13.2287c -1.0240,-0.0000 -2.0480,-0.0000 -3.0720 -0.0001c 0.0001,-6.3104 0.0002,-12.6209 0.0003 -18.9313c 1.0240,0.0000 2.0480,0.0000 3.0720 0.0001c 0.0001,-4.4096 0.0002,-8.8192 0.0002 -13.2287c -1.0240,-0.0000 -2.0480,-0.0000 -3.0720 -0.0001c 0.0000,-1.2352 0.0000,-2.4704 0.0001 -3.7056c -17.6000,-0.0003 -35.2000,-0.0006 -52.8000 -0.0009c -0.0000,1.2352 -0.0000,2.4704 -0.0001 3.7056c -1.0240,-0.0000 -2.0480,-0.0000 -3.0720 -0.0001c -0.0001,4.4096 -0.0002,8.8191 -0.0002 13.2287c 1.0240,0.0000 2.0480,0.0000 3.0720 0.0001c -0.0001,6.3104 -0.0002,12.6208 -0.0003 18.9313c -1.0240,-0.0000 -2.0480,-0.0000 -3.0720 -0.0001c -0.0001,4.4096 -0.0002,8.8191 -0.0002 13.2287ZM 113.8139,463.5068 c 1.0240,0.0000 2.0480,0.0000 3.0720 0.0001c -0.0000,1.2352 -0.0000,2.4704 -0.0001 3.7056c 17.6000,0.0003 35.2000,0.0006 52.8000 0.0009c 0.0000,-1.2352 0.0000,-2.4704 0.0001 -3.7056c 1.0240,0.0000 2.0480,0.0000 3.0720 0.0001c 0.0001,-4.4096 0.0002,-8.8191 0.0002 -13.2287c -1.0240,-0.0000 -2.0480,-0.0000 -3.0720 -0.0001c 0.0001,-6.3104 0.0002,-12.6209 0.0003 -18.9313c 1.0240,0.0000 2.0480,0.0000 3.0720 0.0001c 0.0001,-4.4096 0.0002,-8.8191 0.0002 -13.2287c -1.0240,-0.0000 -2.0480,-0.0000 -3.0720 -0.0001c 0.0000,-1.2352 0.0000,-2.4704 0.0001 -3.7056c -17.6000,-0.0003 -35.2000,-0.0006 -52.8000 -0.0009c -0.0000,1.2352 -0.0000,2.4704 -0.0001 3.7056c -1.0240,-0.0000 -2.0480,-0.0000 -3.0720 -0.0001c -0.0001,4.4096 -0.0002,8.8191 -0.0002 13.2287c 1.0240,0.0000 2.0480,0.0000 3.0720 0.0001c -0.0001,6.3104 -0.0002,12.6209 -0.0003 18.9313c -1.0240,-0.0000 -2.0480,-0.0000 -3.0720 -0.0001c -0.0001,4.4096 -0.0002,8.8191 -0.0002 13.2287ZM 185.6212,678.9411 c 1.0240,0.0000 2.0480,0.0000 3.0720 0.0001c -0.0000,1.2352 -0.0000,2.4704 -0.0001 3.7056c 17.6000,0.0003 35.2000,0.0006 52.8000 0.0009c 0.0000,-1.2352 0.0000,-2.4704 0.0001 -3.7056c 1.0240,0.0000 2.0480,0.0000 3.0720 0.0001c 0.0001,-4.4096 0.0002,-8.8191 0.0002 -13.2287c -1.0240,-0.0000 -2.0480,-0.0000 -3.0720 -0.0001c 0.0001,-6.3104 0.0002,-12.6209 0.0003 -18.9313c 1.0240,0.0000 2.0480,0.0000 3.0720 0.0001c 0.0001,-4.4096 0.0002,-8.8191 0.0002 -13.2287c -1.0240,-0.0000 -2.0480,-0.0000 -3.0720 -0.0001c 0.0000,-1.2352 0.0000,-2.4704 0.0001 -3.7056c -17.6000,-0.0003 -35.2000,-0.0006 -52.8000 -0.0009c -0.0000,1.2352 -0.0000,2.4704 -0.0001 3.7056c -1.0240,-0.0000 -2.0480,-0.0000 -3.0720 -0.0001c -0.0001,4.4096 -0.0002,8.8191 -0.0002 13.2287c 1.0240,0.0000 2.0480,0.0000 3.0720 0.0001c -0.0001,6.3104 -0.0002,12.6209 -0.0003 18.9313c -1.0240,-0.0000 -2.0480,-0.0000 -3.0720 -0.0001c -0.0001,4.4096 -0.0002,8.8191 -0.0002 13.2287ZM 185.6224,607.1301 c 1.0240,0.0000 2.0480,0.0000 3.0720 0.0001c -0.0000,1.2352 -0.0000,2.4704 -0.0001 3.7056c 17.6000,0.0003 35.2000,0.0006 52.8000 0.0009c 0.0000,-1.2352 0.0000,-2.4704 0.0001 -3.7056c 1.0240,0.0000 2.0480,0.0000 3.0720 0.0001c 0.0001,-4.4096 0.0002,-8.8191 0.0002 -13.2287c -1.0240,-0.0000 -2.0480,-0.0000 -3.0720 -0.0001c 0.0001,-6.3104 0.0002,-12.6209 0.0003 -18.9313c 1.0240,0.0000 2.0480,0.0000 3.0720 0.0001c 0.0001,-4.4096 0.0002,-8.8191 0.0002 -13.2287c -1.0240,-0.0000 -2.0480,-0.0000 -3.0720 -0.0001c 0.0000,-1.2352 0.0000,-2.4704 0.0001 -3.7056c -17.6000,-0.0003 -35.2000,-0.0006 -52.8000 -0.0009c -0.0000,1.2352 -0.0000,2.4704 -0.0001 3.7056c -1.0240,-0.0000 -2.0480,-0.0000 -3.0720 -0.0001c -0.0001,4.4096 -0.0002,8.8191 -0.0002 13.2287c 1.0240,0.0000 2.0480,0.0000 3.0720 0.0001c -0.0001,6.3104 -0.0002,12.6209 -0.0003 18.9313c -1.0240,-0.0000 -2.0480,-0.0000 -3.0720 -0.0001c -0.0001,4.4096 -0.0002,8.8191 -0.0002 13.2287ZM 185.6237,535.3191 c 1.0240,0.0000 2.0480,0.0000 3.0720 0.0001c -0.0000,1.2352 -0.0000,2.4704 -0.0001 3.7056c 17.6000,0.0003 35.2000,0.0006 52.8000 0.0009c 0.0000,-1.2352 0.0000,-2.4704 0.0001 -3.7056c 1.0240,0.0000 2.0480,0.0000 3.0720 0.0001c 0.0001,-4.4096 0.0002,-8.8191 0.0002 -13.2287c -1.0240,-0.0000 -2.0480,-0.0000 -3.0720 -0.0001c 0.0001,-6.3104 0.0002,-12.6209 0.0003 -18.9313c 1.0240,0.0000 2.0480,0.0000 3.0720 0.0001c 0.0001,-4.4096 0.0002,-8.8191 0.0002 -13.2287c -1.0240,-0.0000 -2.0480,-0.0000 -3.0720 -0.0001c 0.0000,-1.2352 0.0000,-2.4704 0.0001 -3.7056c -17.6000,-0.0003 -35.2000,-0.0006 -52.8000 -0.0009c -0.0000,1.2352 -0.0001,2.4704 -0.0001 3.7056c -1.0240,-0.0000 -2.0480,-0.0000 -3.0720 -0.0001c -0.0001,4.4096 -0.0002,8.8191 -0.0002 13.2287c 1.0240,0.0000 2.0480,0.0000 3.0720 0.0001c -0.0001,6.3104 -0.0002,12.6209 -0.0003 18.9313c -1.0240,-0.0000 -2.0480,-0.0000 -3.0720 -0.0001c -0.0001,4.4096 -0.0002,8.8191 -0.0002 13.2287ZM 185.6249,463.5080 c 1.0240,0.0000 2.0480,0.0000 3.0720 0.0001c -0.0000,1.2352 -0.0001,2.4704 -0.0001 3.7056c 17.6000,0.0003 35.2000,0.0006 52.8000 0.0009c 0.0000,-1.2352 0.0000,-2.4704 0.0001 -3.7056c 1.0240,0.0000 2.0480,0.0000 3.0720 0.0001c 0.0001,-4.4096 0.0002,-8.8191 0.0002 -13.2287c -1.0240,-0.0000 -2.0480,-0.0000 -3.0720 -0.0001c 0.0001,-6.3104 0.0002,-12.6209 0.0003 -18.9313c 1.0240,0.0000 2.0480,0.0000 3.0720 0.0001c 0.0001,-4.4096 0.0002,-8.8191 0.0002 -13.2287c -1.0240,-0.0000 -2.0480,-0.0000 -3.0720 -0.0001c 0.0000,-1.2352 0.0000,-2.4704 0.0001 -3.7056c -17.6000,-0.0003 -35.2000,-0.0006 -52.8000 -0.0009c -0.0000,1.2352 -0.0000,2.4704 -0.0001 3.7056c -1.0240,-0.0000 -2.0480,-0.0000 -3.0720 -0.0001c -0.0001,4.4096 -0.0002,8.8191 -0.0002 13.2287c 1.0240,0.0000 2.0480,0.0000 3.0720 0.0001c -0.0001,6.3104 -0.0002,12.6208 -0.0003 18.9313c -1.0240,-0.0000 -2.0480,-0.0000 -3.0720 -0.0001c -0.0001,4.4096 -0.0002,8.8191 -0.0002 13.2287ZM 257.4322,678.9424 c 1.0240,0.0000 2.0480,0.0000 3.0720 0.0001c -0.0000,1.2352 -0.0000,2.4704 -0.0001 3.7056c 17.6000,0.0003 35.2000,0.0006 52.8000 0.0009c 0.0000,-1.2352 0.0000,-2.4704 0.0001 -3.7056c 1.0240,0.0000 2.0480,0.0000 3.0720 0.0001c 0.0001,-4.4096 0.0002,-8.8191 0.0002 -13.2287c -1.0240,-0.0000 -2.0480,-0.0000 -3.0720 -0.0001c 0.0001,-6.3104 0.0002,-12.6208 0.0003 -18.9313c 1.0240,0.0000 2.0480,0.0000 3.0720 0.0001c 0.0001,-4.4096 0.0002,-8.8191 0.0002 -13.2287c -1.0240,-0.0000 -2.0480,-0.0000 -3.0720 -0.0001c 0.0000,-1.2352 0.0000,-2.4704 0.0001 -3.7056c -17.6000,-0.0003 -35.2000,-0.0006 -52.8000 -0.0009c -0.0000,1.2352 -0.0000,2.4704 -0.0001 3.7056c -1.0240,-0.0000 -2.0480,-0.0000 -3.0720 -0.0001c -0.0001,4.4096 -0.0002,8.8191 -0.0002 13.2287c 1.0240,0.0000 2.0480,0.0000 3.0720 0.0001c -0.0001,6.3104 -0.0002,12.6209 -0.0003 18.9313c -1.0240,-0.0000 -2.0480,-0.0000 -3.0720 -0.0001c -0.0001,4.4096 -0.0002,8.8191 -0.0002 13.2287ZM 257.4334,607.1313 c 1.0240,0.0000 2.0480,0.0000 3.0720 0.0001c -0.0000,1.2352 -0.0001,2.4704 -0.0001 3.7056c 17.6000,0.0003 35.2000,0.0006 52.8000 0.0009c 0.0000,-1.2352 0.0001,-2.4704 0.0001 -3.7056c 1.0240,0.0000 2.0480,0.0000 3.0720 0.0001c 0.0001,-4.4096 0.0002,-8.8191 0.0002 -13.2287c -1.0240,-0.0000 -2.0480,-0.0000 -3.0720 -0.0001c 0.0001,-6.3104 0.0002,-12.6209 0.0003 -18.9313c 1.0240,0.0000 2.0480,0.0000 3.0720 0.0001c 0.0001,-4.4096 0.0002,-8.8191 0.0002 -13.2287c -1.0240,-0.0000 -2.0480,-0.0000 -3.0720 -0.0001c 0.0000,-1.2352 0.0000,-2.4704 0.0001 -3.7056c -17.6000,-0.0003 -35.2000,-0.0006 -52.8000 -0.0009c -0.0000,1.2352 -0.0000,2.4704 -0.0001 3.7056c -1.0240,-0.0000 -2.0480,-0.0000 -3.0720 -0.0001c -0.0001,4.4096 -0.0002,8.8191 -0.0002 13.2287c 1.0240,0.0000 2.0480,0.0000 3.0720 0.0001c -0.0001,6.3104 -0.0002,12.6208 -0.0003 18.9313c -1.0240,-0.0000 -2.0480,-0.0000 -3.0720 -0.0001c -0.0001,4.4096 -0.0002,8.8191 -0.0002 13.2287ZM 257.4347,535.3203 c 1.0240,0.0000 2.0480,0.0000 3.0720 0.0001c -0.0000,1.2352 -0.0000,2.4704 -0.0001 3.7056c 17.6000,0.0003 35.2000,0.0006 52.8000 0.0009c 0.0000,-1.2352 0.0000,-2.4704 0.0001 -3.7056c 1.0240,0.0000 2.0480,0.0000 3.0720 0.0001c 0.0001,-4.4096 0.0002,-8.8191 0.0002 -13.2287c -1.0240,-0.0000 -2.0480,-0.0000 -3.0720 -0.0001c 0.0001,-6.3104 0.0002,-12.6209 0.0003 -18.9313c 1.0240,0.0000 2.0480,0.0000 3.0720 0.0001c 0.0001,-4.4096 0.0002,-8.8191 0.0002 -13.2287c -1.0240,-0.0000 -2.0480,-0.0000 -3.0720 -0.0001c 0.0000,-1.2352 0.0000,-2.4704 0.0001 -3.7056c -17.6000,-0.0003 -35.2000,-0.0006 -52.8000 -0.0009c -0.0000,1.2352 -0.0000,2.4704 -0.0001 3.7056c -1.0240,-0.0000 -2.0480,-0.0000 -3.0720 -0.0001c -0.0001,4.4096 -0.0002,8.8192 -0.0002 13.2287c 1.0240,0.0000 2.0480,0.0000 3.0720 0.0001c -0.0001,6.3104 -0.0002,12.6208 -0.0003 18.9313c -1.0240,-0.0000 -2.0480,-0.0000 -3.0720 -0.0001c -0.0001,4.4096 -0.0002,8.8191 -0.0002 13.2287ZM 257.4360,463.5093 c 1.0240,0.0000 2.0480,0.0000 3.0720 0.0001c -0.0000,1.2352 -0.0000,2.4704 -0.0001 3.7056c 17.6000,0.0003 35.2000,0.0006 52.8000 0.0009c 0.0000,-1.2352 0.0000,-2.4704 0.0001 -3.7056c 1.0240,0.0000 2.0480,0.0000 3.0720 0.0001c 0.0001,-4.4096 0.0002,-8.8191 0.0002 -13.2287c -1.0240,-0.0000 -2.0480,-0.0000 -3.0720 -0.0001c 0.0001,-6.3104 0.0002,-12.6209 0.0003 -18.9313c 1.0240,0.0000 2.0480,0.0000 3.0720 0.0001c 0.0001,-4.4096 0.0002,-8.8191 0.0002 -13.2287c -1.0240,-0.0000 -2.0480,-0.0000 -3.0720 -0.0001c 0.0000,-1.2352 0.0000,-2.4704 0.0001 -3.7056c -17.6000,-0.0003 -35.2000,-0.0006 -52.8000 -0.0009c -0.0000,1.2352 -0.0001,2.4704 -0.0001 3.7056c -1.0240,-0.0000 -2.0480,-0.0000 -3.0720 -0.0001c -0.0001,4.4096 -0.0002,8.8191 -0.0002 13.2287c 1.0240,0.0000 2.0480,0.0000 3.0720 0.0001c -0.0001,6.3104 -0.0002,12.6209 -0.0003 18.9313c -1.0240,-0.0000 -2.0480,-0.0000 -3.0720 -0.0001c -0.0001,4.4096 -0.0002,8.8191 -0.0002 13.2287ZM 281.2344,709.0485 c 0.0000,3.1311 2.5382,5.6693 5.6693 5.6693c 3.1311,-0.0000 5.6693,-2.5382 5.6693 -5.6693c 0.0000,-3.1311 -2.5382,-5.6693 -5.6693 -5.6693c -3.1311,-0.0000 -5.6693,2.5382 -5.6693 5.6693ZM 324.6999,388.0154 c 0.0000,3.1311 2.5382,5.6693 5.6693 5.6693c 3.1311,-0.0000 5.6693,-2.5382 5.6693 -5.6693c 0.0000,-3.1311 -2.5382,-5.6693 -5.6693 -5.6693c -3.1311,-0.0000 -5.6693,2.5382 -5.6693 5.6693ZM 381.3928,388.0154 c 0.0000,3.1311 2.5382,5.6693 5.6693 5.6693c 3.1311,-0.0000 5.6693,-2.5382 5.6693 -5.6693c 0.0000,-3.1311 -2.5382,-5.6693 -5.6693 -5.6693c -3.1311,-0.0000 -5.6693,2.5382 -5.6693 5.6693ZM 401.0505,418.1216 c 0.0001,4.4096 0.0002,8.8191 0.0002 13.2287c 1.0240,-0.0000 2.0480,-0.0000 3.0720 -0.0001c 0.0001,6.3104 0.0002,12.6208 0.0003 18.9313c -1.0240,0.0000 -2.0480,0.0000 -3.0720 0.0001c 0.0001,4.4096 0.0002,8.8191 0.0002 13.2287c 1.0240,-0.0000 2.0480,-0.0000 3.0720 -0.0001c 0.0000,1.2352 0.0000,2.4704 0.0001 3.7056c 17.6000,-0.0003 35.2000,-0.0006 52.8000 -0.0009c -0.0000,-1.2352 -0.0000,-2.4704 -0.0001 -3.7056c 1.0240,-0.0000 2.0480,-0.0000 3.0720 -0.0001c -0.0001,-4.4096 -0.0002,-8.8191 -0.0002 -13.2287c -1.0240,0.0000 -2.0480,0.0000 -3.0720 0.0001c -0.0001,-6.3104 -0.0002,-12.6208 -0.0003 -18.9313c 1.0240,-0.0000 2.0480,-0.0000 3.0720 -0.0001c -0.0001,-4.4096 -0.0002,-8.8191 -0.0002 -13.2287c -1.0240,0.0000 -2.0480,0.0000 -3.0720 0.0001c -0.0000,-1.2352 -0.0001,-2.4704 -0.0001 -3.7056c -17.6000,0.0003 -35.2000,0.0006 -52.8000 0.0009c 0.0000,1.2352 0.0001,2.4704 0.0001 3.7056c -1.0240,0.0000 -2.0480,0.0000 -3.0720 0.0001ZM 401.0517,489.9326 c 0.0001,4.4096 0.0002,8.8191 0.0002 13.2287c 1.0240,-0.0000 2.0480,-0.0000 3.0720 -0.0001c 0.0001,6.3104 0.0002,12.6209 0.0003 18.9313c -1.0240,0.0000 -2.0480,0.0000 -3.0720 0.0001c 0.0001,4.4096 0.0002,8.8191 0.0002 13.2287c 1.0240,-0.0000 2.0480,-0.0000 3.0720 -0.0001c 0.0000,1.2352 0.0000,2.4704 0.0001 3.7056c 17.6000,-0.0003 35.2000,-0.0006 52.8000 -0.0009c -0.0000,-1.2352 -0.0000,-2.4704 -0.0001 -3.7056c 1.0240,-0.0000 2.0480,-0.0000 3.0720 -0.0001c -0.0001,-4.4096 -0.0002,-8.8191 -0.0002 -13.2287c -1.0240,0.0000 -2.0480,0.0000 -3.0720 0.0001c -0.0001,-6.3104 -0.0002,-12.6209 -0.0003 -18.9313c 1.0240,-0.0000 2.0480,-0.0000 3.0720 -0.0001c -0.0001,-4.4096 -0.0002,-8.8191 -0.0002 -13.2287c -1.0240,0.0000 -2.0480,0.0000 -3.0720 0.0001c -0.0000,-1.2352 -0.0000,-2.4704 -0.0001 -3.7056c -17.6000,0.0003 -35.2000,0.0006 -52.8000 0.0009c 0.0000,1.2352 0.0000,2.4704 0.0001 3.7056c -1.0240,0.0000 -2.0480,0.0000 -3.0720 0.0001ZM 401.0530,561.7436 c 0.0001,4.4096 0.0002,8.8191 0.0002 13.2287c 1.0240,-0.0000 2.0480,-0.0000 3.0720 -0.0001c 0.0001,6.3104 0.0002,12.6209 0.0003 18.9313c -1.0240,0.0000 -2.0480,0.0000 -3.0720 0.0001c 0.0001,4.4096 0.0002,8.8191 0.0002 13.2287c 1.0240,-0.0000 2.0480,-0.0000 3.0720 -0.0001c 0.0000,1.2352 0.0001,2.4704 0.0001 3.7056c 17.6000,-0.0003 35.2000,-0.0006 52.8000 -0.0009c -0.0000,-1.2352 -0.0001,-2.4704 -0.0001 -3.7056c 1.0240,-0.0000 2.0480,-0.0000 3.0720 -0.0001c -0.0001,-4.4096 -0.0002,-8.8191 -0.0002 -13.2287c -1.0240,0.0000 -2.0480,0.0000 -3.0720 0.0001c -0.0001,-6.3104 -0.0002,-12.6209 -0.0003 -18.9313c 1.0240,-0.0000 2.0480,-0.0000 3.0720 -0.0001c -0.0001,-4.4096 -0.0002,-8.8191 -0.0002 -13.2287c -1.0240,0.0000 -2.0480,0.0000 -3.0720 0.0001c -0.0000,-1.2352 -0.0000,-2.4704 -0.0001 -3.7056c -17.6000,0.0003 -35.2000,0.0006 -52.8000 0.0009c 0.0000,1.2352 0.0000,2.4704 0.0001 3.7056c -1.0240,0.0000 -2.0480,0.0000 -3.0720 0.0001ZM 401.0542,633.5547 c 0.0001,4.4096 0.0002,8.8191 0.0002 13.2287c 1.0240,-0.0000 2.0480,-0.0000 3.0720 -0.0001c 0.0001,6.3104 0.0002,12.6209 0.0003 18.9313c -1.0240,0.0000 -2.0480,0.0000 -3.0720 0.0001c 0.0001,4.4096 0.0002,8.8191 0.0002 13.2287c 1.0240,-0.0000 2.0480,-0.0000 3.0720 -0.0001c 0.0000,1.2352 0.0000,2.4704 0.0001 3.7056c 17.6000,-0.0003 35.2000,-0.0006 52.8000 -0.0009c -0.0000,-1.2352 -0.0000,-2.4704 -0.0001 -3.7056c 1.0240,-0.0000 2.0480,-0.0000 3.0720 -0.0001c -0.0001,-4.4096 -0.0002,-8.8191 -0.0002 -13.2287c -1.0240,0.0000 -2.0480,0.0000 -3.0720 0.0001c -0.0001,-6.3104 -0.0002,-12.6209 -0.0003 -18.9313c 1.0240,-0.0000 2.0480,-0.0000 3.0720 -0.0001c -0.0001,-4.4096 -0.0002,-8.8191 -0.0002 -13.2287c -1.0240,0.0000 -2.0480,0.0000 -3.0720 0.0001c -0.0000,-1.2352 -0.0000,-2.4704 -0.0001 -3.7056c -17.6000,0.0003 -35.2000,0.0006 -52.8000 0.0009c 0.0000,1.2352 0.0001,2.4704 0.0001 3.7056c -1.0240,0.0000 -2.0480,0.0000 -3.0720 0.0001ZM 424.8583,709.0485 c 0.0000,3.1311 2.5382,5.6693 5.6693 5.6693c 3.1311,-0.0000 5.6693,-2.5382 5.6693 -5.6693c 0.0000,-3.1311 -2.5382,-5.6693 -5.6693 -5.6693c -3.1311,-0.0000 -5.6693,2.5382 -5.6693 5.6693ZM 472.8615,418.1203 c 0.0001,4.4096 0.0002,8.8191 0.0002 13.2287c 1.0240,-0.0000 2.0480,-0.0000 3.0720 -0.0001c 0.0001,6.3104 0.0002,12.6209 0.0003 18.9313c -1.0240,0.0000 -2.0480,0.0000 -3.0720 0.0001c 0.0001,4.4096 0.0002,8.8191 0.0002 13.2287c 1.0240,-0.0000 2.0480,-0.0000 3.0720 -0.0001c 0.0000,1.2352 0.0000,2.4704 0.0001 3.7056c 17.6000,-0.0003 35.2000,-0.0006 52.8000 -0.0009c -0.0000,-1.2352 -0.0000,-2.4704 -0.0001 -3.7056c 1.0240,-0.0000 2.0480,-0.0000 3.0720 -0.0001c -0.0001,-4.4096 -0.0002,-8.8191 -0.0002 -13.2287c -1.0240,0.0000 -2.0480,0.0000 -3.0720 0.0001c -0.0001,-6.3104 -0.0002,-12.6209 -0.0003 -18.9313c 1.0240,-0.0000 2.0480,-0.0000 3.0720 -0.0001c -0.0001,-4.4096 -0.0002,-8.8191 -0.0002 -13.2287c -1.0240,0.0000 -2.0480,0.0000 -3.0720 0.0001c -0.0000,-1.2352 -0.0000,-2.4704 -0.0001 -3.7056c -17.6000,0.0003 -35.2000,0.0006 -52.8000 0.0009c 0.0000,1.2352 0.0000,2.4704 0.0001 3.7056c -1.0240,0.0000 -2.0480,0.0000 -3.0720 0.0001ZM 472.8628,489.9314 c 0.0001,4.4096 0.0002,8.8191 0.0002 13.2287c 1.0240,-0.0000 2.0480,-0.0000 3.0720 -0.0001c 0.0001,6.3104 0.0002,12.6209 0.0003 18.9313c -1.0240,0.0000 -2.0480,0.0000 -3.0720 0.0001c 0.0001,4.4096 0.0002,8.8191 0.0002 13.2287c 1.0240,-0.0000 2.0480,-0.0000 3.0720 -0.0001c 0.0000,1.2352 0.0000,2.4704 0.0001 3.7056c 17.6000,-0.0003 35.2000,-0.0006 52.8000 -0.0009c -0.0000,-1.2352 -0.0000,-2.4704 -0.0001 -3.7056c 1.0240,-0.0000 2.0480,-0.0000 3.0720 -0.0001c -0.0001,-4.4096 -0.0002,-8.8192 -0.0002 -13.2287c -1.0240,0.0000 -2.0480,0.0000 -3.0720 0.0001c -0.0001,-6.3104 -0.0002,-12.6209 -0.0003 -18.9313c 1.0240,-0.0000 2.0480,-0.0000 3.0720 -0.0001c -0.0001,-4.4096 -0.0002,-8.8191 -0.0002 -13.2287c -1.0240,0.0000 -2.0480,0.0000 -3.0720 0.0001c -0.0000,-1.2352 -0.0000,-2.4704 -0.0001 -3.7056c -17.6000,0.0003 -35.2000,0.0006 -52.8000 0.0009c 0.0000,1.2352 0.0000,2.4704 0.0001 3.7056c -1.0240,0.0000 -2.0480,0.0000 -3.0720 0.0001ZM 472.8640,561.7424 c 0.0001,4.4096 0.0002,8.8192 0.0002 13.2287c 1.0240,-0.0000 2.0480,-0.0000 3.0720 -0.0001c 0.0001,6.3104 0.0002,12.6209 0.0003 18.9313c -1.0240,0.0000 -2.0480,0.0000 -3.0720 0.0001c 0.0001,4.4096 0.0002,8.8191 0.0002 13.2287c 1.0240,-0.0000 2.0480,-0.0000 3.0720 -0.0001c 0.0000,1.2352 0.0000,2.4704 0.0001 3.7056c 17.6000,-0.0003 35.2000,-0.0006 52.8000 -0.0009c -0.0000,-1.2352 -0.0000,-2.4704 -0.0001 -3.7056c 1.0240,-0.0000 2.0480,-0.0000 3.0720 -0.0001c -0.0001,-4.4096 -0.0002,-8.8191 -0.0002 -13.2287c -1.0240,0.0000 -2.0480,0.0000 -3.0720 0.0001c -0.0001,-6.3104 -0.0002,-12.6209 -0.0003 -18.9313c 1.0240,-0.0000 2.0480,-0.0000 3.0720 -0.0001c -0.0001,-4.4096 -0.0002,-8.8191 -0.0002 -13.2287c -1.0240,0.0000 -2.0480,0.0000 -3.0720 0.0001c -0.0000,-1.2352 -0.0000,-2.4704 -0.0001 -3.7056c -17.6000,0.0003 -35.2000,0.0006 -52.8000 0.0009c 0.0000,1.2352 0.0000,2.4704 0.0001 3.7056c -1.0240,0.0000 -2.0480,0.0000 -3.0720 0.0001ZM 472.8653,633.5534 c 0.0001,4.4096 0.0002,8.8191 0.0002 13.2287c 1.0240,-0.0000 2.0480,-0.0000 3.0720 -0.0001c 0.0001,6.3104 0.0002,12.6209 0.0003 18.9313c -1.0240,0.0000 -2.0480,0.0000 -3.0720 0.0001c 0.0001,4.4096 0.0002,8.8191 0.0002 13.2287c 1.0240,-0.0000 2.0480,-0.0000 3.0720 -0.0001c 0.0000,1.2352 0.0000,2.4704 0.0001 3.7056c 17.6000,-0.0003 35.2000,-0.0006 52.8000 -0.0009c -0.0000,-1.2352 -0.0000,-2.4704 -0.0001 -3.7056c 1.0240,-0.0000 2.0480,-0.0000 3.0720 -0.0001c -0.0001,-4.4096 -0.0002,-8.8191 -0.0002 -13.2287c -1.0240,0.0000 -2.0480,0.0000 -3.0720 0.0001c -0.0001,-6.3104 -0.0002,-12.6208 -0.0003 -18.9313c 1.0240,-0.0000 2.0480,-0.0000 3.0720 -0.0001c -0.0001,-4.4096 -0.0002,-8.8191 -0.0002 -13.2287c -1.0240,0.0000 -2.0480,0.0000 -3.0720 0.0001c -0.0000,-1.2352 -0.0000,-2.4704 -0.0001 -3.7056c -17.6000,0.0003 -35.2000,0.0006 -52.8000 0.0009c 0.0000,1.2352 0.0000,2.4704 0.0001 3.7056c -1.0240,0.0000 -2.0480,0.0000 -3.0720 0.0001ZM 544.6725,418.1191 c 0.0001,4.4096 0.0002,8.8191 0.0002 13.2287c 1.0240,-0.0000 2.0480,-0.0000 3.0720 -0.0001c 0.0001,6.3104 0.0002,12.6208 0.0003 18.9313c -1.0240,0.0000 -2.0480,0.0000 -3.0720 0.0001c 0.0001,4.4096 0.0002,8.8191 0.0002 13.2287c 1.0240,-0.0000 2.0480,-0.0000 3.0720 -0.0001c 0.0000,1.2352 0.0000,2.4704 0.0001 3.7056c 17.6000,-0.0003 35.2000,-0.0006 52.8000 -0.0009c -0.0000,-1.2352 -0.0000,-2.4704 -0.0001 -3.7056c 1.0240,-0.0000 2.0480,-0.0000 3.0720 -0.0001c -0.0001,-4.4096 -0.0002,-8.8192 -0.0002 -13.2287c -1.0240,0.0000 -2.0480,0.0000 -3.0720 0.0001c -0.0001,-6.3104 -0.0002,-12.6209 -0.0003 -18.9313c 1.0240,-0.0000 2.0480,-0.0000 3.0720 -0.0001c -0.0001,-4.4096 -0.0002,-8.8191 -0.0002 -13.2287c -1.0240,0.0000 -2.0480,0.0000 -3.0720 0.0001c -0.0000,-1.2352 -0.0000,-2.4704 -0.0001 -3.7056c -17.6000,0.0003 -35.2000,0.0006 -52.8000 0.0009c 0.0000,1.2352 0.0000,2.4704 0.0001 3.7056c -1.0240,0.0000 -2.0480,0.0000 -3.0720 0.0001ZM 544.6738,489.9301 c 0.0001,4.4096 0.0002,8.8192 0.0002 13.2287c 1.0240,-0.0000 2.0480,-0.0000 3.0720 -0.0001c 0.0001,6.3104 0.0002,12.6209 0.0003 18.9313c -1.0240,0.0000 -2.0480,0.0000 -3.0720 0.0001c 0.0001,4.4096 0.0002,8.8191 0.0002 13.2287c 1.0240,-0.0000 2.0480,-0.0000 3.0720 -0.0001c 0.0000,1.2352 0.0000,2.4704 0.0001 3.7056c 17.6000,-0.0003 35.2000,-0.0006 52.8000 -0.0009c -0.0000,-1.2352 -0.0000,-2.4704 -0.0001 -3.7056c 1.0240,-0.0000 2.0480,-0.0000 3.0720 -0.0001c -0.0001,-4.4096 -0.0002,-8.8191 -0.0002 -13.2287c -1.0240,0.0000 -2.0480,0.0000 -3.0720 0.0001c -0.0001,-6.3104 -0.0002,-12.6209 -0.0003 -18.9313c 1.0240,-0.0000 2.0480,-0.0000 3.0720 -0.0001c -0.0001,-4.4096 -0.0002,-8.8191 -0.0002 -13.2287c -1.0240,0.0000 -2.0480,0.0000 -3.0720 0.0001c -0.0000,-1.2352 -0.0000,-2.4704 -0.0001 -3.7056c -17.6000,0.0003 -35.2000,0.0006 -52.8000 0.0009c 0.0000,1.2352 0.0000,2.4704 0.0001 3.7056c -1.0240,0.0000 -2.0480,0.0000 -3.0720 0.0001ZM 544.6750,561.7411 c 0.0001,4.4096 0.0002,8.8191 0.0002 13.2287c 1.0240,-0.0000 2.0480,-0.0000 3.0720 -0.0001c 0.0001,6.3104 0.0002,12.6209 0.0003 18.9313c -1.0240,0.0000 -2.0480,0.0000 -3.0720 0.0001c 0.0001,4.4096 0.0002,8.8191 0.0002 13.2287c 1.0240,-0.0000 2.0480,-0.0000 3.0720 -0.0001c 0.0000,1.2352 0.0000,2.4704 0.0001 3.7056c 17.6000,-0.0003 35.2000,-0.0006 52.8000 -0.0009c -0.0000,-1.2352 -0.0000,-2.4704 -0.0001 -3.7056c 1.0240,-0.0000 2.0480,-0.0000 3.0720 -0.0001c -0.0001,-4.4096 -0.0002,-8.8191 -0.0002 -13.2287c -1.0240,0.0000 -2.0480,0.0000 -3.0720 0.0001c -0.0001,-6.3104 -0.0002,-12.6208 -0.0003 -18.9313c 1.0240,-0.0000 2.0480,-0.0000 3.0720 -0.0001c -0.0001,-4.4096 -0.0002,-8.8191 -0.0002 -13.2287c -1.0240,0.0000 -2.0480,0.0000 -3.0720 0.0001c -0.0000,-1.2352 -0.0000,-2.4704 -0.0001 -3.7056c -17.6000,0.0003 -35.2000,0.0006 -52.8000 0.0009c 0.0000,1.2352 0.0000,2.4704 0.0001 3.7056c -1.0240,0.0000 -2.0480,0.0000 -3.0720 0.0001ZM 544.6763,633.5522 c 0.0001,4.4096 0.0002,8.8191 0.0002 13.2287c 1.0240,-0.0000 2.0480,-0.0000 3.0720 -0.0001c 0.0001,6.3104 0.0002,12.6208 0.0003 18.9313c -1.0240,0.0000 -2.0480,0.0000 -3.0720 0.0001c 0.0001,4.4096 0.0002,8.8192 0.0002 13.2287c 1.0240,-0.0000 2.0480,-0.0000 3.0720 -0.0001c 0.0000,1.2352 0.0000,2.4704 0.0001 3.7056c 17.6000,-0.0003 35.2000,-0.0006 52.8000 -0.0009c -0.0000,-1.2352 -0.0001,-2.4704 -0.0001 -3.7056c 1.0240,-0.0000 2.0480,-0.0000 3.0720 -0.0001c -0.0001,-4.4096 -0.0002,-8.8191 -0.0002 -13.2287c -1.0240,0.0000 -2.0480,0.0000 -3.0720 0.0001c -0.0001,-6.3104 -0.0002,-12.6209 -0.0003 -18.9313c 1.0240,-0.0000 2.0480,-0.0000 3.0720 -0.0001c -0.0001,-4.4096 -0.0002,-8.8191 -0.0002 -13.2287c -1.0240,0.0000 -2.0480,0.0000 -3.0720 0.0001c -0.0000,-1.2352 -0.0000,-2.4704 -0.0001 -3.7056c -17.6000,0.0003 -35.2000,0.0006 -52.8000 0.0009c 0.0000,1.2352 0.0000,2.4704 0.0001 3.7056c -1.0240,0.0000 -2.0480,0.0000 -3.0720 0.0001ZM 616.4835,418.1178 c 0.0001,4.4096 0.0002,8.8192 0.0002 13.2287c 1.0240,-0.0000 2.0480,-0.0000 3.0720 -0.0001c 0.0001,6.3104 0.0002,12.6209 0.0003 18.9313c -1.0240,0.0000 -2.0480,0.0000 -3.0720 0.0001c 0.0001,4.4096 0.0002,8.8191 0.0002 13.2287c 1.0240,-0.0000 2.0480,-0.0000 3.0720 -0.0001c 0.0000,1.2352 0.0000,2.4704 0.0001 3.7056c 17.6000,-0.0003 35.2000,-0.0006 52.8000 -0.0009c -0.0000,-1.2352 -0.0000,-2.4704 -0.0001 -3.7056c 1.0240,-0.0000 2.0480,-0.0000 3.0720 -0.0001c -0.0001,-4.4096 -0.0002,-8.8191 -0.0002 -13.2287c -1.0240,0.0000 -2.0480,0.0000 -3.0720 0.0001c -0.0001,-6.3104 -0.0002,-12.6209 -0.0003 -18.9313c 1.0240,-0.0000 2.0480,-0.0000 3.0720 -0.0001c -0.0001,-4.4096 -0.0002,-8.8191 -0.0002 -13.2287c -1.0240,0.0000 -2.0480,0.0000 -3.0720 0.0001c -0.0000,-1.2352 -0.0000,-2.4704 -0.0001 -3.7056c -17.6000,0.0003 -35.2000,0.0006 -52.8000 0.0009c 0.0000,1.2352 0.0000,2.4704 0.0001 3.7056c -1.0240,0.0000 -2.0480,0.0000 -3.0720 0.0001ZM 616.4848,489.9289 c 0.0001,4.4096 0.0002,8.8191 0.0002 13.2287c 1.0240,-0.0000 2.0480,-0.0000 3.0720 -0.0001c 0.0001,6.3104 0.0002,12.6209 0.0003 18.9313c -1.0240,0.0000 -2.0480,0.0000 -3.0720 0.0001c 0.0001,4.4096 0.0002,8.8191 0.0002 13.2287c 1.0240,-0.0000 2.0480,-0.0000 3.0720 -0.0001c 0.0000,1.2352 0.0000,2.4704 0.0001 3.7056c 17.6000,-0.0003 35.2000,-0.0006 52.8000 -0.0009c -0.0000,-1.2352 -0.0000,-2.4704 -0.0001 -3.7056c 1.0240,-0.0000 2.0480,-0.0000 3.0720 -0.0001c -0.0001,-4.4096 -0.0002,-8.8191 -0.0002 -13.2287c -1.0240,0.0000 -2.0480,0.0000 -3.0720 0.0001c -0.0001,-6.3104 -0.0002,-12.6209 -0.0003 -18.9313c 1.0240,-0.0000 2.0480,-0.0000 3.0720 -0.0001c -0.0001,-4.4096 -0.0002,-8.8191 -0.0002 -13.2287c -1.0240,0.0000 -2.0480,0.0000 -3.0720 0.0001c -0.0000,-1.2352 -0.0000,-2.4704 -0.0001 -3.7056c -17.6000,0.0003 -35.2000,0.0006 -52.8000 0.0009c 0.0000,1.2352 0.0000,2.4704 0.0001 3.7056c -1.0240,0.0000 -2.0480,0.0000 -3.0720 0.0001ZM 616.4861,561.7399 c 0.0001,4.4096 0.0002,8.8191 0.0002 13.2287c 1.0240,-0.0000 2.0480,-0.0000 3.0720 -0.0001c 0.0001,6.3104 0.0002,12.6208 0.0003 18.9313c -1.0240,0.0000 -2.0480,0.0000 -3.0720 0.0001c 0.0001,4.4096 0.0002,8.8192 0.0002 13.2287c 1.0240,-0.0000 2.0480,-0.0000 3.0720 -0.0001c 0.0000,1.2352 0.0000,2.4704 0.0001 3.7056c 17.6000,-0.0003 35.2000,-0.0006 52.8000 -0.0009c -0.0000,-1.2352 -0.0000,-2.4704 -0.0001 -3.7056c 1.0240,-0.0000 2.0480,-0.0000 3.0720 -0.0001c -0.0001,-4.4096 -0.0002,-8.8191 -0.0002 -13.2287c -1.0240,0.0000 -2.0480,0.0000 -3.0720 0.0001c -0.0001,-6.3104 -0.0002,-12.6208 -0.0003 -18.9313c 1.0240,-0.0000 2.0480,-0.0000 3.0720 -0.0001c -0.0001,-4.4096 -0.0002,-8.8191 -0.0002 -13.2287c -1.0240,0.0000 -2.0480,0.0000 -3.0720 0.0001c -0.0000,-1.2352 -0.0000,-2.4704 -0.0001 -3.7056c -17.6000,0.0003 -35.2000,0.0006 -52.8000 0.0009c 0.0000,1.2352 0.0000,2.4704 0.0001 3.7056c -1.0240,0.0000 -2.0480,0.0000 -3.0720 0.0001ZM 616.4873,633.5509 c 0.0001,4.4096 0.0002,8.8191 0.0002 13.2287c 1.0240,-0.0000 2.0480,-0.0000 3.0720 -0.0001c 0.0001,6.3104 0.0002,12.6208 0.0003 18.9313c -1.0240,0.0000 -2.0480,0.0000 -3.0720 0.0001c 0.0001,4.4096 0.0002,8.8191 0.0002 13.2287c 1.0240,-0.0000 2.0480,-0.0000 3.0720 -0.0001c 0.0000,1.2352 0.0000,2.4704 0.0001 3.7056c 17.6000,-0.0003 35.2000,-0.0006 52.8000 -0.0009c -0.0000,-1.2352 -0.0000,-2.4704 -0.0001 -3.7056c 1.0240,-0.0000 2.0480,-0.0000 3.0720 -0.0001c -0.0001,-4.4096 -0.0002,-8.8191 -0.0002 -13.2287c -1.0240,0.0000 -2.0480,0.0000 -3.0720 0.0001c -0.0001,-6.3104 -0.0002,-12.6208 -0.0003 -18.9313c 1.0240,-0.0000 2.0480,-0.0000 3.0720 -0.0001c -0.0001,-4.4096 -0.0002,-8.8191 -0.0002 -13.2287c -1.0240,0.0000 -2.0480,0.0000 -3.0720 0.0001c -0.0000,-1.2352 -0.0000,-2.4704 -0.0001 -3.7056c -17.6000,0.0003 -35.2000,0.0006 -52.8000 0.0009c 0.0000,1.2352 0.0000,2.4704 0.0001 3.7056c -1.0240,0.0000 -2.0480,0.0000 -3.0720 0.0001ZM 688.9596,392.1370 c 0.0000,3.1311 2.5382,5.6693 5.6693 5.6693c 3.1311,-0.0000 5.6693,-2.5382 5.6693 -5.6693c 0.0000,-3.1311 -2.5382,-5.6693 -5.6693 -5.6693c -3.1311,-0.0000 -5.6693,2.5382 -5.6693 5.6693ZM 688.9651,704.9177 c 0.0000,3.1311 2.5382,5.6693 5.6693 5.6693c 3.1311,-0.0000 5.6693,-2.5382 5.6693 -5.6693c 0.0000,-3.1311 -2.5382,-5.6693 -5.6693 -5.6693c -3.1311,-0.0000 -5.6693,2.5382 -5.6693 5.6693Z"/></g><g stroke-linejoin="miter" stroke-opacity="1.0" fill-opacity="0.5" stroke="rgb(0,0,0)" stroke-width="0.37795275590551186" fill="rgb(0,0,255)" stroke-linecap="butt" stroke-miterlimit="10.0"><path d="M 3.9685,324.1697 c 0.0004,-23.9370 0.0008,-47.8740 0.0013 -71.8110c 0.0000,-0.9072 0.0000,-1.8143 0.0000 -2.7213c 0.0004,-23.0360 0.0008,-46.0629 0.0012 -69.0897c 0.0000,-0.0000 0.0000,-0.0001 0.0000 -0.0001c 0.0000,-0.9071 0.0000,-1.8142 0.0000 -2.7213c 0.0004,-23.0360 0.0008,-46.0628 0.0012 -69.0897c 0.0000,-0.9072 0.0000,-1.8143 0.0001 -2.7213c 0.0000,-0.0015 0.0000,-0.0030 0.0000 -0.0045c 0.0004,-23.9355 0.0008,-47.8710 0.0013 -71.8065c 0.0002,-16.6077 13.6290,-30.2361 30.2368 -30.2358c 23.9370,0.0004 47.8740,0.0008 71.8110 0.0013c 0.9071,0.0000 1.8142,0.0000 2.7213 0.0000c 0.0015,-0.0000 0.0031,-0.0000 0.0046 -0.0000c 23.0284,0.0004 46.0568,0.0008 69.0852 0.0012c 0.9071,-0.0000 1.8142,0.0000 2.7213 0.0000c 0.0015,-0.0000 0.0030,-0.0000 0.0046 -0.0000c 23.0284,0.0004 46.0568,0.0008 69.0852 0.0012c 0.9071,-0.0000 1.8142,0.0000 2.7213 0.0000c 0.0015,-0.0000 0.0030,-0.0000 0.0045 -0.0000c 11.5134,0.0002 23.0269,0.0004 34.5403 0.0006c 23.9354,-0.0000 47.8707,-0.0000 71.8061 -0.0000c 23.9354,-0.0000 47.8707,-0.0000 71.8061 -0.0000c 11.5134,-0.0002 23.0269,-0.0004 34.5403 -0.0006c 0.0015,-0.0000 0.0030,-0.0000 0.0045 -0.0000c 0.9071,-0.0000 1.8142,-0.0000 2.7213 -0.0000c 23.0284,-0.0004 46.0568,-0.0008 69.0852 -0.0012c 0.0015,-0.0000 0.0031,-0.0000 0.0046 -0.0000c 0.9071,-0.0000 1.8142,-0.0000 2.7213 -0.0000c 23.0284,-0.0004 46.0568,-0.0008 69.0852 -0.0012c 0.0015,-0.0000 0.0030,-0.0000 0.0046 -0.0000c 0.9071,-0.0000 1.8142,-0.0000 2.7213 -0.0000c 23.9370,-0.0004 47.8740,-0.0008 71.8110 -0.0013c 16.6078,-0.0003 30.2365,13.6281 30.2368 30.2358c 0.0004,23.9355 0.0008,47.8710 0.0013 71.8065c 0.0000,0.0015 0.0000,0.0030 0.0000 0.0045c 0.0000,0.9071 0.0000,1.8142 0.0001 2.7213c 0.0000,0.0000 0.0000,0.0001 0.0000 0.0001c 0.0004,23.0284 0.0008,46.0568 0.0012 69.0851c 0.0000,0.0015 0.0000,0.0031 0.0000 0.0046c 0.0000,0.9071 0.0000,1.8141 0.0000 2.7213c 0.0000,-0.0000 0.0000,0.0000 0.0000 0.0001c 0.0004,23.0284 0.0008,46.0567 0.0012 69.0851c 0.0000,0.0015 0.0000,0.0030 0.0000 0.0046c 0.0000,0.9071 0.0000,1.8142 0.0000 2.7213c 0.0000,0.0000 0.0000,0.0001 0.0000 0.0001c 0.0004,23.9370 0.0008,47.8740 0.0013 71.8110c 0.0000,-0.0000 0.0000,0.0000 0.0000 0.0001c 0.0000,16.6075 -13.6282,30.2360 -30.2358 30.2362c -23.9370,0.0004 -47.8740,0.0008 -71.8110 0.0013c -0.9071,0.0000 -1.8142,0.0000 -2.7213 0.0000c -23.0299,0.0004 -46.0598,0.0008 -69.0898 0.0012c -0.9071,-0.0000 -1.8142,0.0000 -2.7213 0.0000c -23.0299,0.0004 -46.0598,0.0008 -69.0898 0.0012c -0.9071,-0.0000 -1.8142,0.0000 -2.7213 0.0000c -11.5149,0.0002 -23.0299,0.0004 -34.5448 0.0006c -12.4221,0.0002 -24.8442,0.0005 -37.2663 0.0007c -0.0672,-0.0000 -0.1344,-0.0002 -0.2015 -0.0007c -11.4481,-0.0000 -22.8963,-0.0000 -34.3444 -0.0000c -11.4481,-0.0000 -22.8963,-0.0000 -34.3444 -0.0000c -0.0672,0.0005 -0.1343,0.0007 -0.2015 0.0007c -12.4221,-0.0002 -24.8442,-0.0004 -37.2663 -0.0007c -11.5149,-0.0002 -23.0299,-0.0004 -34.5448 -0.0006c -0.9071,-0.0000 -1.8142,-0.0000 -2.7213 -0.0000c -23.0299,-0.0004 -46.0599,-0.0008 -69.0898 -0.0012c -0.9071,-0.0000 -1.8142,-0.0000 -2.7213 -0.0000c -23.0299,-0.0004 -46.0599,-0.0008 -69.0898 -0.0012c -0.9071,-0.0000 -1.8142,-0.0000 -2.7213 -0.0000c -23.9370,-0.0004 -47.8740,-0.0008 -71.8110 -0.0013c -16.6076,-0.0002 -30.2358,-13.6287 -30.2358 -30.2362c 0.0000,-0.0000 0.0000,-0.0001 -0.0000 -0.0001ZM 17.1276,335.5776 c 0.0000,3.1311 2.5382,5.6693 5.6693 5.6693c 3.1311,-0.0000 5.6693,-2.5382 5.6693 -5.6693c 0.0000,-3.1311 -2.5382,-5.6693 -5.6693 -5.6693c -3.1311,-0.0000 -5.6693,2.5382 -5.6693 5.6693ZM 17.1330,22.7969 c 0.0000,3.1311 2.5382,5.6693 5.6693 5.6693c 3.1311,-0.0000 5.6693,-2.5382 5.6693 -5.6693c 0.0000,-3.1311 -2.5382,-5.6693 -5.6693 -5.6693c -3.1311,-0.0000 -5.6693,2.5382 -5.6693 5.6693ZM 30.4252,324.1700 c 0.0000,0.0000 0.0000,0.0000 0.0000 0.0001c 0.0000,2.0873 1.6921,3.7795 3.7795 3.7795c 23.9370,0.0004 47.8740,0.0008 71.8110 0.0013c 0.9071,0.0000 1.8142,0.0000 2.7213 0.0001c 23.0299,0.0004 46.0598,0.0008 69.0898 0.0012c 0.9071,0.0000 1.8142,0.0000 2.7213 0.0000c 23.0299,0.0004 46.0598,0.0008 69.0898 0.0012c 0.9071,0.0000 1.8142,0.0000 2.7213 0.0000c 23.9370,0.0004 47.8740,0.0008 71.8110 0.0013c 2.0874,0.0000 3.7796,-1.6921 3.7796 -3.7795c 0.0004,-23.9370 0.0008,-47.8740 0.0013 -71.8110c 0.0000,-0.9071 0.0000,-1.8142 0.0000 -2.7213c 0.0000,-0.0000 0.0000,-0.0000 0.0000 -0.0001c 0.0004,-23.0299 0.0008,-46.0598 0.0012 -69.0897c 0.0000,-0.9071 0.0000,-1.8142 0.0000 -2.7213c 0.0000,-0.0000 0.0000,-0.0001 0.0000 -0.0001c 0.0004,-23.0299 0.0008,-46.0598 0.0012 -69.0897c 0.0000,-0.9071 0.0000,-1.8142 0.0001 -2.7213c 0.0000,-0.0000 0.0000,-0.0000 0.0000 -0.0001c 0.0004,-23.9370 0.0008,-47.8740 0.0012 -71.8110c -0.0000,-2.0875 -1.6921,-3.7796 -3.7795 -3.7796c -23.9355,-0.0004 -47.8710,-0.0008 -71.8065 -0.0012c -0.0015,-0.0000 -0.0030,-0.0000 -0.0045 -0.0000c -0.9071,-0.0000 -1.8142,-0.0000 -2.7213 -0.0000c -23.0284,-0.0004 -46.0568,-0.0008 -69.0852 -0.0012c -0.0015,-0.0000 -0.0031,-0.0000 -0.0046 -0.0000c -0.9071,-0.0000 -1.8142,-0.0000 -2.7213 -0.0001c -23.0284,-0.0004 -46.0568,-0.0008 -69.0852 -0.0012c -0.0015,-0.0000 -0.0031,-0.0000 -0.0046 -0.0000c -0.9071,-0.0000 -1.8142,-0.0000 -2.7213 -0.0000c -23.9370,-0.0004 -47.8740,-0.0008 -71.8110 -0.0013c -2.0874,-0.0000 -3.7796,1.6921 -3.7796 3.7795c -0.0004,23.9355 -0.0008,47.8710 -0.0013 71.8065c 0.0000,0.0015 0.0000,0.0030 0.0000 0.0045c -0.0000,0.9071 -0.0000,1.8142 -0.0000 2.7213c 0.0000,0.0000 0.0000,0.0001 0.0000 0.0001c -0.0004,23.0284 -0.0008,46.0567 -0.0012 69.0851c 0.0000,0.0015 0.0000,0.0031 0.0000 0.0046c -0.0000,0.9071 -0.0000,1.8142 -0.0000 2.7213c 0.0000,0.0000 0.0000,0.0001 0.0000 0.0001c -0.0004,23.0284 -0.0008,46.0567 -0.0012 69.0851c 0.0000,0.0015 0.0000,0.0031 0.0000 0.0046c -0.0000,0.9071 -0.0000,1.8142 -0.0001 2.7213c 0.0000,0.0000 0.0000,0.0001 0.0000 0.0001c -0.0004,23.9370 -0.0008,47.8740 -0.0012 71.8109ZM 281.2344,339.7084 c 0.0000,3.1311 2.5382,5.6693 5.6693 5.6693c 3.1311,-0.0000 5.6693,-2.5382 5.6693 -5.6693c 0.0000,-3.1311 -2.5382,-5.6693 -5.6693 -5.6693c -3.1311,-0.0000 -5.6693,2.5382 -5.6693 5.6693ZM 324.6999,18.6753 c 0.0000,3.1311 2.5382,5.6693 5.6693 5.6693c 3.1311,-0.0000 5.6693,-2.5382 5.6693 -5.6693c 0.0000,-3.1311 -2.5382,-5.6693 -5.6693 -5.6693c -3.1311,-0.0000 -5.6693,2.5382 -5.6693 5.6693ZM 381.3928,18.6753 c 0.0000,3.1311 2.5382,5.6693 5.6693 5.6693c 3.1311,-0.0000 5.6693,-2.5382 5.6693 -5.6693c 0.0000,-3.1311 -2.5382,-5.6693 -5.6693 -5.6693c -3.1311,-0.0000 -5.6693,2.5382 -5.6693 5.6693ZM 389.4766,34.2099 c 0.0004,23.9370 0.0008,47.8740 0.0012 71.8110c 0.0000,0.0000 0.0000,0.0000 0.0000 0.0001c 0.0000,0.9071 0.0000,1.8142 0.0001 2.7213c 0.0004,23.0299 0.0008,46.0598 0.0012 69.0897c 0.0000,0.0000 0.0000,0.0001 0.0000 0.0001c 0.0000,0.9071 0.0000,1.8142 0.0000 2.7213c 0.0004,23.0299 0.0008,46.0598 0.0012 69.0897c 0.0000,0.0000 0.0000,0.0000 0.0000 0.0001c 0.0000,0.9071 0.0000,1.8142 0.0000 2.7213c 0.0004,23.9370 0.0008,47.8740 0.0013 71.8110c 0.0000,2.0874 1.6922,3.7795 3.7796 3.7795c 23.9370,-0.0004 47.8740,-0.0008 71.8110 -0.0013c 0.9071,-0.0000 1.8142,-0.0000 2.7213 -0.0000c 23.0299,-0.0004 46.0598,-0.0008 69.0898 -0.0012c 0.9071,-0.0000 1.8142,-0.0000 2.7213 -0.0000c 23.0299,-0.0004 46.0598,-0.0008 69.0898 -0.0012c 0.9071,-0.0000 1.8142,-0.0000 2.7213 -0.0001c 23.9370,-0.0004 47.8740,-0.0008 71.8110 -0.0013c 2.0874,-0.0000 3.7795,-1.6922 3.7795 -3.7795c 0.0000,-0.0000 0.0000,-0.0001 0.0000 -0.0001c -0.0004,-23.9370 -0.0008,-47.8740 -0.0012 -71.8109c 0.0000,-0.0000 0.0000,-0.0001 0.0000 -0.0001c -0.0000,-0.9071 -0.0000,-1.8142 -0.0001 -2.7213c 0.0000,-0.0015 0.0000,-0.0031 0.0000 -0.0046c -0.0004,-23.0284 -0.0008,-46.0567 -0.0012 -69.0851c 0.0000,-0.0000 0.0000,-0.0001 0.0000 -0.0001c -0.0000,-0.9071 -0.0000,-1.8142 -0.0000 -2.7213c 0.0000,-0.0015 0.0000,-0.0031 0.0000 -0.0046c -0.0004,-23.0284 -0.0008,-46.0567 -0.0012 -69.0851c 0.0000,-0.0000 0.0000,-0.0001 0.0000 -0.0001c -0.0000,-0.9071 -0.0000,-1.8142 -0.0000 -2.7213c 0.0000,-0.0015 0.0000,-0.0030 0.0000 -0.0045c -0.0004,-23.9355 -0.0008,-47.8710 -0.0013 -71.8065c -0.0000,-2.0874 -1.6922,-3.7795 -3.7796 -3.7795c -23.9370,0.0004 -47.8740,0.0008 -71.8110 0.0013c -0.9071,0.0000 -1.8142,0.0000 -2.7213 0.0000c -0.0015,-0.0000 -0.0031,-0.0000 -0.0046 -0.0000c -23.0284,0.0004 -46.0568,0.0008 -69.0852 0.0012c -0.9071,0.0000 -1.8142,0.0000 -2.7213 0.0001c -0.0015,-0.0000 -0.0031,-0.0000 -0.0046 -0.0000c -23.0284,0.0004 -46.0568,0.0008 -69.0852 0.0012c -0.9071,0.0000 -1.8142,0.0000 -2.7213 0.0000c -0.0015,-0.0000 -0.0030,-0.0000 -0.0045 -0.0000c -23.9355,0.0004 -47.8710,0.0008 -71.8065 0.0012c -2.0873,0.0000 -3.7794,1.6921 -3.7795 3.7796ZM 424.8583,339.7084 c 0.0000,3.1311 2.5382,5.6693 5.6693 5.6693c 3.1311,-0.0000 5.6693,-2.5382 5.6693 -5.6693c 0.0000,-3.1311 -2.5382,-5.6693 -5.6693 -5.6693c -3.1311,-0.0000 -5.6693,2.5382 -5.6693 5.6693ZM 688.9596,22.7969 c 0.0000,3.1311 2.5382,5.6693 5.6693 5.6693c 3.1311,-0.0000 5.6693,-2.5382 5.6693 -5.6693c 0.0000,-3.1311 -2.5382,-5.6693 -5.6693 -5.6693c -3.1311,-0.0000 -5.6693,2.5382 -5.6693 5.6693ZM 688.9651,335.5776 c 0.0000,3.1311 2.5382,5.6693 5.6693 5.6693c 3.1311,-0.0000 5.6693,-2.5382 5.6693 -5.6693c 0.0000,-3.1311 -2.5382,-5.6693 -5.6693 -5.6693c -3.1311,-0.0000 -5.6693,2.5382 -5.6693 5.6693Z"/></g></svg>