<?xml version="1.0" encoding="UTF-8"?>
<!DOCTYPE svg PUBLIC "-//W3C//DTD SVG 1.1//EN"
    "http://www.w3.org/Graphics/SVG/1.1/DTD/svg11.dtd"><svg xmlns="http://www.w3.org/2000/svg" height="2778.1984" stroke-opacity="1" viewBox="0 0 592 2778" font-size="1" width="591.9878" xmlns:xlink="http://www.w3.org/1999/xlink" stroke="rgb(0,0,0)" version="1.1"><defs></defs><g stroke-linejoin="miter" stroke-opacity="1.0" fill-opacity="0.5" stroke="rgb(0,0,0)" stroke-width="0.37795275590551186" fill="rgb(0,0,0)" stroke-linecap="butt" stroke-miterlimit="10.0"><path d="M 3.9685,2400.8368 c 0.0000,-12.6088 8.0272,-24.4520 20.6432 -28.6732c 13.8396,-4.6307 27.6792,-9.2613 41.5187 -13.8920c 0.7444,-11.8996 8.5911,-22.8020 20.5851 -26.8151c 13.4451,-4.4987 26.8901,-8.9973 40.3352 -13.4960c -0.0495,-0.7083 -0.0738,-1.4159 -0.0738 -2.1220c 0.0000,-12.6088 8.0273,-24.4521 20.6433 -28.6733c 23.5602,-7.8831 47.1205,-15.7663 70.6807 -23.6494c 11.9542,-3.9998 24.7718,-0.0093 32.5597 9.0331c 13.8456,-4.6327 27.6911,-9.2653 41.5367 -13.8980c 8.9890,-3.0077 18.4663,-1.4974 25.9261 3.2817c 15.2573,-5.1050 30.5145,-10.2100 45.7718 -15.3150c 4.9997,-1.6729 10.1504,-1.9480 15.0211 -1.0405c 18.0927,-6.0537 36.1855,-12.1075 54.2782 -18.1613c 15.7496,-5.2698 32.9981,3.3300 38.2678 19.0796c 7.5947,22.6982 15.1894,45.3964 22.7841 68.0945c 0.0006,0.0019 0.0012,0.0037 0.0019 0.0056c 0.2878,0.8603 0.5757,1.7205 0.8635 2.5808c 7.3075,21.8398 14.6150,43.6796 21.9225 65.5195c 0.2878,0.8602 0.5756,1.7204 0.8635 2.5806c 7.3075,21.8398 14.6150,43.6796 21.9225 65.5195c 0.2878,0.8603 0.5757,1.7205 0.8635 2.5808c 7.3069,21.8379 14.6137,43.6758 21.9206 65.5137c 0.0007,0.0019 0.0013,0.0039 0.0020 0.0058c 0.2878,0.8603 0.5757,1.7206 0.8635 2.5808c 7.5953,22.7000 15.1906,45.4001 22.7860 68.1001c 1.0674,3.1902 1.5635,6.4062 1.5635 9.5946c 0.0000,12.6087 -8.0272,24.4520 -20.6432 28.6732c -23.5602,7.8831 -47.1205,15.7663 -70.6807 23.6494c -4.9997,1.6729 -10.1504,1.9481 -15.0211 1.0405c -18.0928,6.0538 -36.1855,12.1075 -54.2783 18.1613c -8.9890,3.0077 -18.4663,1.4973 -25.9261 -3.2817c -15.2573,5.1050 -30.5145,10.2100 -45.7718 15.3150c -11.9542,3.9998 -24.7718,0.0093 -32.5597 -9.0331c -3.7304,1.2482 -7.4608,2.4963 -11.1912 3.7445c 0.0495,0.7083 0.0738,1.4159 0.0738 2.1221c 0.0000,12.6088 -8.0272,24.4520 -20.6432 28.6732c -13.8396,4.6307 -27.6791,9.2613 -41.5187 13.8920c -0.7444,11.8997 -8.5910,22.8020 -20.5852 26.8151c -23.5602,7.8831 -47.1205,15.7663 -70.6807 23.6494c -13.7032,4.5850 -28.5412,-1.3295 -35.6366 -13.3176c -13.3529,4.4678 -26.7058,8.9356 -40.0587 13.4035c -15.7496,5.2697 -32.9981,-3.3300 -38.2678 -19.0796c -7.8831,-23.5602 -15.7663,-47.1205 -23.6494 -70.6807c -1.0674,-3.1902 -1.5635,-6.4061 -1.5635 -9.5946c 0.0000,-12.6088 8.0272,-24.4520 20.6431 -28.6732c 13.1421,-4.3973 26.2842,-8.7946 39.4264 -13.1919c -1.5777,-4.7152 -3.1554,-9.4305 -4.7331 -14.1457c -0.2878,-0.8602 -0.5756,-1.7204 -0.8635 -2.5806c -0.0006,-0.0017 -0.0011,-0.0034 -0.0017 -0.0051c -7.3069,-21.8381 -14.6139,-43.6762 -21.9208 -65.5143c -0.2878,-0.8603 -0.5757,-1.7206 -0.8635 -2.5808c -7.3075,-21.8398 -14.6150,-43.6796 -21.9225 -65.5195c -0.2878,-0.8602 -0.5756,-1.7204 -0.8635 -2.5806c -0.0004,-0.0011 -0.0007,-0.0022 -0.0011 -0.0033c -7.5950,-22.6990 -15.1899,-45.3979 -22.7849 -68.0968c -1.0674,-3.1902 -1.5635,-6.4062 -1.5638 -9.5950ZM 147.4699,2758.3562 c 0.0000,-3.1311 -2.5382,-5.6693 -5.6693 -5.6693c -3.1311,-0.0000 -5.6693,2.5382 -5.6693 5.6693c 0.0000,3.1311 2.5382,5.6693 5.6693 5.6693c 3.1311,0.0000 5.6693,-2.5382 5.6693 -5.6693ZM 577.8889,2606.3691 c 0.0000,-3.1311 -2.5382,-5.6693 -5.6693 -5.6693c -3.1311,-0.0000 -5.6693,2.5382 -5.6693 5.6693c 0.0000,3.1311 2.5382,5.6693 5.6693 5.6693c 3.1311,0.0000 5.6693,-2.5382 5.6693 -5.6693ZM 70.2864,2374.2814 c 0.0000,-3.1311 -2.5382,-5.6693 -5.6693 -5.6693c -3.1311,-0.0000 -5.6693,2.5382 -5.6693 5.6693c 0.0000,3.1311 2.5382,5.6693 5.6693 5.6693c 3.1311,0.0000 5.6693,-2.5382 5.6693 -5.6693ZM 455.8562,2241.6516 c 0.0000,-3.1311 -2.5382,-5.6693 -5.6693 -5.6693c -3.1311,-0.0000 -5.6693,2.5382 -5.6693 5.6693c 0.0000,3.1311 2.5382,5.6693 5.6693 5.6693c 3.1311,0.0000 5.6693,-2.5382 5.6693 -5.6693Z"/></g><g stroke-linejoin="miter" stroke-opacity="1.0" fill-opacity="0.5" stroke="rgb(0,0,0)" stroke-width="0.37795275590551186" fill="rgb(128,128,128)" stroke-linecap="butt" stroke-miterlimit="10.0"><path d="M 26.6457,1856.2409 c 0.0000,-3.1562 2.0035,-6.1113 5.1616 -7.1679c 7.2581,-2.4285 14.5162,-4.8570 21.7743 -7.2856c 2.9112,2.6562 6.7843,4.2761 11.0357 4.2761c 8.0127,-0.0000 14.6814,-5.7540 16.0996 -13.3554c 4.0074,-1.3408 8.0147,-2.6817 12.0221 -4.0225c -1.1993,-3.5842 -2.3985,-7.1684 -3.5978 -10.7527c -0.2666,-0.7967 -0.3916,-1.6027 -0.3916 -2.3990c 0.0000,-3.1562 2.0036,-6.1113 5.1616 -7.1679c 20.3106,-6.7958 40.6211,-13.5916 60.9317 -20.3875c -1.5990,-4.7790 -3.1980,-9.5579 -4.7971 -14.3369c -0.2666,-0.7967 -0.3916,-1.6027 -0.3916 -2.3990c 0.0000,-3.1562 2.0035,-6.1113 5.1616 -7.1679c 23.5602,-7.8831 47.1205,-15.7663 70.6807 -23.6494c 3.9467,-1.3205 8.2464,0.8232 9.5669 4.7699c 1.1993,3.5842 2.3985,7.1684 3.5978 10.7526c 20.3106,-6.7958 40.6211,-13.5916 60.9317 -20.3874c 3.9467,-1.3205 8.2464,0.8232 9.5670 4.7699c 0.3997,1.1947 0.7995,2.3895 1.1993 3.5842c 20.3106,-6.7958 40.6211,-13.5916 60.9317 -20.3875c 2.6428,-0.8843 5.4439,-0.2151 7.4028 1.5086c 19.2053,-6.4260 38.4106,-12.8520 57.6159 -19.2780c 2.8975,4.6112 8.0296,7.6762 13.8776 7.6762c 0.4722,-0.0000 0.9398,-0.0200 1.4019 -0.0592c 7.1174,21.2717 14.2348,42.5434 21.3522 63.8151c 0.0006,0.0019 0.0012,0.0037 0.0019 0.0056c 0.2878,0.8602 0.5757,1.7204 0.8635 2.5807c 7.3075,21.8398 14.6150,43.6796 21.9225 65.5195c 0.2878,0.8602 0.5756,1.7204 0.8635 2.5806c 7.3075,21.8398 14.6150,43.6796 21.9225 65.5195c 0.2878,0.8602 0.5757,1.7204 0.8635 2.5807c 7.3069,21.8379 14.6137,43.6758 21.9206 65.5136c 0.0007,0.0019 0.0013,0.0039 0.0020 0.0058c 0.2878,0.8602 0.5757,1.7204 0.8635 2.5807c 7.1179,21.2731 14.2358,42.5462 21.3537 63.8194c -4.6112,2.8975 -7.6762,8.0296 -7.6762 13.8776c 0.0000,0.4723 0.0200,0.9398 0.0592 1.4019c -22.1337,7.4058 -44.2675,14.8117 -66.4013 22.2175c -2.6428,0.8843 -5.4439,0.2151 -7.4028 -1.5085c -20.6322,6.9034 -41.2644,13.8069 -61.8966 20.7103c -3.9466,1.3205 -8.2464,-0.8233 -9.5670 -4.7699c -0.3998,-1.1947 -0.7995,-2.3895 -1.1993 -3.5842c -20.3106,6.7958 -40.6211,13.5916 -60.9317 20.3875c -3.9467,1.3205 -8.2464,-0.8232 -9.5669 -4.7699c -1.1993,-3.5842 -2.3985,-7.1684 -3.5978 -10.7526c -17.0609,5.7085 -34.1217,11.4170 -51.1826 17.1255c 1.5990,4.7790 3.1980,9.5579 4.7970 14.3369c 0.2666,0.7967 0.3916,1.6028 0.3916 2.3990c 0.0000,3.1562 -2.0035,6.1113 -5.1616 7.1679c -20.3106,6.7958 -40.6211,13.5916 -60.9317 20.3874c 1.1993,3.5842 2.3985,7.1684 3.5978 10.7526c 0.2666,0.7967 0.3916,1.6027 0.3916 2.3990c 0.0000,3.1562 -2.0035,6.1113 -5.1616 7.1679c -22.1334,7.4057 -44.2667,14.8114 -66.4001 22.2172c -2.8975,-4.6113 -8.0296,-7.6763 -13.8777 -7.6763c -0.4722,-0.0000 -0.9398,0.0200 -1.4018 0.0592c -1.2550,-3.7507 -2.5099,-7.5014 -3.7649 -11.2521c -20.3106,6.7958 -40.6211,13.5916 -60.9317 20.3874c -3.9467,1.3205 -8.2464,-0.8232 -9.5670 -4.7699c -7.8831,-23.5602 -15.7663,-47.1205 -23.6494 -70.6807c -0.2666,-0.7967 -0.3916,-1.6027 -0.3916 -2.3990c 0.0000,-3.1562 2.0035,-6.1113 5.1616 -7.1679c 20.3106,-6.7958 40.6211,-13.5916 60.9317 -20.3875c -3.9762,-11.8837 -7.9524,-23.7673 -11.9287 -35.6510c -0.2878,-0.8602 -0.5756,-1.7204 -0.8635 -2.5806c -0.0006,-0.0017 -0.0011,-0.0034 -0.0017 -0.0051c -7.3069,-21.8381 -14.6139,-43.6762 -21.9208 -65.5143c -0.2878,-0.8602 -0.5757,-1.7204 -0.8635 -2.5807c -7.3075,-21.8398 -14.6150,-43.6796 -21.9225 -65.5195c -0.2878,-0.8602 -0.5756,-1.7204 -0.8635 -2.5806c -0.0004,-0.0011 -0.0007,-0.0022 -0.0011 -0.0033c -7.5950,-22.6990 -15.1899,-45.3979 -22.7849 -68.0968c -0.2666,-0.7967 -0.3916,-1.6028 -0.3917 -2.3991Z"/></g><g stroke-linejoin="miter" stroke-opacity="1.0" fill-opacity="0.5" stroke="rgb(0,0,0)" stroke-width="0.37795275590551186" fill="rgb(255,255,0)" stroke-linecap="butt" stroke-miterlimit="10.0"><path d="M 3.9685,1313.4668 c 0.0000,-12.6088 8.0272,-24.4520 20.6432 -28.6732c 13.8396,-4.6307 27.6792,-9.2613 41.5187 -13.8920c 0.7444,-11.8996 8.5911,-22.8020 20.5851 -26.8151c 13.4451,-4.4987 26.8901,-8.9973 40.3352 -13.4960c -0.0495,-0.7083 -0.0738,-1.4159 -0.0738 -2.1220c 0.0000,-12.6088 8.0273,-24.4521 20.6433 -28.6733c 23.5602,-7.8831 47.1205,-15.7663 70.6807 -23.6494c 11.9542,-3.9998 24.7718,-0.0093 32.5597 9.0331c 13.8456,-4.6327 27.6911,-9.2653 41.5367 -13.8980c 8.9890,-3.0077 18.4663,-1.4974 25.9261 3.2817c 15.2573,-5.1050 30.5145,-10.2100 45.7718 -15.3150c 4.9997,-1.6729 10.1504,-1.9480 15.0211 -1.0405c 18.0927,-6.0537 36.1855,-12.1075 54.2782 -18.1613c 15.7496,-5.2698 32.9981,3.3300 38.2678 19.0796c 7.5947,22.6982 15.1894,45.3964 22.7841 68.0945c 0.0006,0.0019 0.0012,0.0037 0.0019 0.0056c 0.2878,0.8603 0.5757,1.7205 0.8635 2.5808c 7.3075,21.8398 14.6150,43.6796 21.9225 65.5195c 0.2878,0.8602 0.5756,1.7204 0.8635 2.5806c 7.3075,21.8398 14.6150,43.6796 21.9225 65.5195c 0.2878,0.8603 0.5757,1.7205 0.8635 2.5808c 7.3069,21.8379 14.6137,43.6758 21.9206 65.5137c 0.0007,0.0019 0.0013,0.0039 0.0020 0.0058c 0.2878,0.8603 0.5757,1.7206 0.8635 2.5808c 7.5953,22.7000 15.1906,45.4001 22.7860 68.1001c 1.0674,3.1902 1.5635,6.4062 1.5635 9.5946c 0.0000,12.6087 -8.0272,24.4520 -20.6432 28.6732c -23.5602,7.8831 -47.1205,15.7663 -70.6807 23.6494c -4.9997,1.6729 -10.1504,1.9481 -15.0211 1.0405c -18.0928,6.0538 -36.1855,12.1075 -54.2783 18.1613c -8.9890,3.0077 -18.4663,1.4973 -25.9261 -3.2817c -15.2573,5.1050 -30.5145,10.2100 -45.7718 15.3150c -11.9542,3.9998 -24.7718,0.0093 -32.5597 -9.0331c -3.7304,1.2482 -7.4608,2.4963 -11.1912 3.7445c 0.0495,0.7083 0.0738,1.4159 0.0738 2.1221c 0.0000,12.6088 -8.0272,24.4520 -20.6432 28.6732c -13.8396,4.6307 -27.6791,9.2613 -41.5187 13.8920c -0.7444,11.8997 -8.5910,22.8020 -20.5852 26.8151c -23.5602,7.8831 -47.1205,15.7663 -70.6807 23.6494c -13.7032,4.5850 -28.5412,-1.3295 -35.6366 -13.3176c -13.3529,4.4678 -26.7058,8.9356 -40.0587 13.4035c -15.7496,5.2697 -32.9981,-3.3300 -38.2678 -19.0796c -7.8831,-23.5602 -15.7663,-47.1205 -23.6494 -70.6807c -1.0674,-3.1902 -1.5635,-6.4061 -1.5635 -9.5946c 0.0000,-12.6088 8.0272,-24.4520 20.6431 -28.6732c 13.1421,-4.3973 26.2842,-8.7946 39.4264 -13.1919c -1.5777,-4.7152 -3.1554,-9.4305 -4.7331 -14.1457c -0.2878,-0.8602 -0.5756,-1.7204 -0.8635 -2.5806c -0.0006,-0.0017 -0.0011,-0.0034 -0.0017 -0.0051c -7.3069,-21.8381 -14.6139,-43.6762 -21.9208 -65.5143c -0.2878,-0.8603 -0.5757,-1.7206 -0.8635 -2.5808c -7.3075,-21.8398 -14.6150,-43.6796 -21.9225 -65.5195c -0.2878,-0.8602 -0.5756,-1.7204 -0.8635 -2.5806c -0.0004,-0.0011 -0.0007,-0.0022 -0.0011 -0.0033c -7.5950,-22.6990 -15.1899,-45.3979 -22.7849 -68.0968c -1.0674,-3.1902 -1.5635,-6.4062 -1.5638 -9.5950ZM 26.6457,1313.4668 c 0.0000,0.7963 0.1251,1.6024 0.3917 2.3991c 7.5950,22.6989 15.1899,45.3979 22.7849 68.0968c 0.0004,0.0011 0.0007,0.0022 0.0011 0.0033c 0.2878,0.8602 0.5756,1.7204 0.8635 2.5806c 7.3075,21.8398 14.6150,43.6796 21.9225 65.5195c 0.2878,0.8602 0.5756,1.7204 0.8635 2.5807c 7.3069,21.8381 14.6139,43.6762 21.9208 65.5143c 0.0006,0.0017 0.0011,0.0034 0.0017 0.0051c 0.2878,0.8602 0.5756,1.7204 0.8635 2.5806c 1.5778,4.7154 3.1555,9.4308 4.7333 14.1463c 2.3985,7.1682 4.7969,14.3365 7.1954 21.5047c -7.1684,2.3985 -14.3368,4.7970 -21.5052 7.1955c -13.1421,4.3973 -26.2843,8.7946 -39.4264 13.1919c -3.1580,1.0567 -5.1616,4.0117 -5.1616 7.1679c 0.0000,0.7963 0.1251,1.6023 0.3916 2.3990c 7.8831,23.5602 15.7663,47.1205 23.6494 70.6807c 1.3205,3.9467 5.6203,6.0905 9.5670 4.7699c 13.1421,-4.3973 26.2843,-8.7946 39.4265 -13.1919c 7.1684,-2.3985 14.3368,-4.7970 21.5052 -7.1955c 1.2550,3.7507 2.5099,7.5014 3.7649 11.2521c 0.4621,-0.0392 0.9296,-0.0592 1.4018 -0.0592c 4.9618,-0.0000 9.4083,2.2065 12.4118 5.6918c 0.5364,0.6225 1.0268,1.2857 1.4659 1.9845c 19.0177,-6.3632 38.0354,-12.7265 57.0532 -19.0897c 3.1156,-1.0425 6.2313,-2.0850 9.3469 -3.1274c 3.1580,-1.0566 5.1616,-4.0117 5.1616 -7.1679c 0.0000,-0.7963 -0.1251,-1.6023 -0.3916 -2.3990c -1.1993,-3.5842 -2.3985,-7.1684 -3.5978 -10.7526c 7.1685,-2.3985 14.3369,-4.7971 21.5054 -7.1956c 13.1421,-4.3973 26.2842,-8.7946 39.4262 -13.1918c 0.4229,-0.1415 0.8251,-0.3170 1.2046 -0.5226c 2.4541,-1.3292 3.9570,-3.9118 3.9570 -6.6454c 0.0000,-0.7963 -0.1251,-1.6023 -0.3916 -2.3990c -1.5990,-4.7790 -3.1980,-9.5579 -4.7970 -14.3369c 7.1685,-2.3985 14.3369,-4.7971 21.5054 -7.1956c 2.7240,-0.9114 5.4480,-1.8229 8.1720 -2.7343c 7.1684,-2.3985 14.3368,-4.7970 21.5052 -7.1955c 1.1993,3.5842 2.3985,7.1684 3.5978 10.7526c 1.3205,3.9467 5.6203,6.0904 9.5669 4.7699c 3.1157,-1.0425 6.2315,-2.0850 9.3472 -3.1275c 10.0264,-3.3548 20.0528,-6.7096 30.0792 -10.0644c 7.1684,-2.3985 14.3368,-4.7970 21.5052 -7.1956c 0.3998,1.1947 0.7995,2.3895 1.1993 3.5842c 1.3205,3.9466 5.6203,6.0904 9.5670 4.7699c 5.6696,-1.8970 11.3391,-3.7940 17.0087 -5.6910c 7.5477,-2.5254 15.0954,-5.0508 22.6431 -7.5763c 7.4149,-2.4810 14.8299,-4.9620 22.2448 -7.4430c 1.9589,1.7237 4.7600,2.3928 7.4028 1.5085c 6.8222,-2.2827 13.6444,-4.5653 20.4665 -6.8480c 15.3116,-5.1232 30.6231,-10.2464 45.9347 -15.3695c -0.0392,-0.4621 -0.0592,-0.9297 -0.0592 -1.4019c 0.0000,-5.8480 3.0650,-10.9801 7.6762 -13.8776c -7.1179,-21.2731 -14.2358,-42.5462 -21.3537 -63.8194c -0.2878,-0.8602 -0.5756,-1.7204 -0.8635 -2.5807c -0.0007,-0.0019 -0.0013,-0.0039 -0.0020 -0.0058c -7.3068,-21.8379 -14.6137,-43.6758 -21.9206 -65.5137c -0.2878,-0.8602 -0.5757,-1.7204 -0.8635 -2.5807c -7.3075,-21.8398 -14.6150,-43.6796 -21.9225 -65.5195c -0.2878,-0.8602 -0.5756,-1.7204 -0.8635 -2.5806c -7.3075,-21.8398 -14.6150,-43.6796 -21.9225 -65.5194c -0.2878,-0.8602 -0.5756,-1.7204 -0.8635 -2.5807c -0.0006,-0.0019 -0.0012,-0.0037 -0.0019 -0.0056c -7.1174,-21.2717 -14.2348,-42.5434 -21.3522 -63.8151c -0.4621,0.0392 -0.9296,0.0592 -1.4019 0.0592c -5.8480,-0.0000 -10.9801,-3.0650 -13.8776 -7.6762c -11.7904,3.9450 -23.5807,7.8900 -35.3710 11.8350c -7.4150,2.4810 -14.8299,4.9620 -22.2449 7.4430c -1.9589,-1.7237 -4.7600,-2.3928 -7.4028 -1.5086c -6.8221,2.2826 -13.6442,4.5653 -20.4662 6.8479c -6.3200,2.1146 -12.6400,4.2293 -18.9600 6.3439c -7.1685,2.3985 -14.3369,4.7971 -21.5054 7.1956c -0.3998,-1.1947 -0.7995,-2.3895 -1.1993 -3.5842c -1.3205,-3.9467 -5.6203,-6.0904 -9.5670 -4.7699c -5.6694,1.8969 -11.3387,3.7939 -17.0081 5.6908c -7.4727,2.5003 -14.9454,5.0007 -22.4182 7.5010c -7.1685,2.3985 -14.3369,4.7971 -21.5054 7.1956c -1.1993,-3.5842 -2.3985,-7.1684 -3.5978 -10.7526c -1.3205,-3.9467 -5.6203,-6.0904 -9.5669 -4.7699c -3.1153,1.0424 -6.2306,2.0847 -9.3460 3.1271c -20.4449,6.8408 -40.8898,13.6816 -61.3348 20.5223c -0.4236,0.1417 -0.8264,0.3176 -1.2065 0.5236c -2.4530,1.3295 -3.9551,3.9115 -3.9551 6.6444c 0.0000,0.7963 0.1251,1.6023 0.3916 2.3990c 1.5990,4.7790 3.1980,9.5579 4.7971 14.3369c -7.1684,2.3985 -14.3368,4.7970 -21.5052 7.1955c -10.0268,3.3549 -20.0535,6.7098 -30.0803 10.0647c -3.1154,1.0424 -6.2308,2.0848 -9.3462 3.1272c -3.1580,1.0566 -5.1616,4.0117 -5.1616 7.1679c 0.0000,0.7963 0.1251,1.6023 0.3916 2.3990c 1.1993,3.5842 2.3985,7.1684 3.5978 10.7526c -4.0074,1.3408 -8.0147,2.6817 -12.0221 4.0225c -0.8027,4.3025 -3.2875,8.0131 -6.7460 10.4235c -2.6518,1.8482 -5.8762,2.9320 -9.3536 2.9320c -4.2514,-0.0000 -8.1245,-1.6199 -11.0357 -4.2761c -7.2581,2.4285 -14.5162,4.8570 -21.7743 7.2856c -3.1580,1.0567 -5.1616,4.0117 -5.1616 7.1679ZM 147.4699,1670.9862 c 0.0000,-3.1311 -2.5382,-5.6693 -5.6693 -5.6693c -3.1311,-0.0000 -5.6693,2.5382 -5.6693 5.6693c 0.0000,3.1311 2.5382,5.6693 5.6693 5.6693c 3.1311,0.0000 5.6693,-2.5382 5.6693 -5.6693ZM 577.8889,1518.9991 c 0.0000,-3.1311 -2.5382,-5.6693 -5.6693 -5.6693c -3.1311,-0.0000 -5.6693,2.5382 -5.6693 5.6693c 0.0000,3.1311 2.5382,5.6693 5.6693 5.6693c 3.1311,0.0000 5.6693,-2.5382 5.6693 -5.6693ZM 70.2864,1286.9114 c 0.0000,-3.1311 -2.5382,-5.6693 -5.6693 -5.6693c -3.1311,-0.0000 -5.6693,2.5382 -5.6693 5.6693c 0.0000,3.1311 2.5382,5.6693 5.6693 5.6693c 3.1311,0.0000 5.6693,-2.5382 5.6693 -5.6693ZM 455.8562,1154.2817 c 0.0000,-3.1311 -2.5382,-5.6693 -5.6693 -5.6693c -3.1311,-0.0000 -5.6693,2.5382 -5.6693 5.6693c 0.0000,3.1311 2.5382,5.6693 5.6693 5.6693c 3.1311,0.0000 5.6693,-2.5382 5.6693 -5.6693Z"/></g><g stroke-linejoin="miter" stroke-opacity="1.0" fill-opacity="0.5" stroke="rgb(0,0,0)" stroke-width="0.37795275590551186" fill="rgb(0,0,0)" stroke-linecap="butt" stroke-miterlimit="10.0"><path d="M 3.9685,746.2038 c 0.0000,-12.6088 8.0272,-24.4520 20.6432 -28.6732c 13.8396,-4.6307 27.6792,-9.2613 41.5187 -13.8920c 0.7444,-11.8996 8.5911,-22.8020 20.5851 -26.8151c 13.4451,-4.4987 26.8901,-8.9973 40.3352 -13.4960c -0.0495,-0.7083 -0.0738,-1.4159 -0.0738 -2.1220c 0.0000,-12.6088 8.0273,-24.4521 20.6433 -28.6733c 23.5602,-7.8831 47.1205,-15.7663 70.6807 -23.6494c 11.9542,-3.9998 24.7718,-0.0093 32.5597 9.0331c 13.8456,-4.6327 27.6911,-9.2653 41.5367 -13.8980c 8.9890,-3.0077 18.4663,-1.4974 25.9261 3.2817c 15.2573,-5.1050 30.5145,-10.2100 45.7718 -15.3150c 4.9997,-1.6729 10.1504,-1.9480 15.0211 -1.0405c 18.0927,-6.0537 36.1855,-12.1075 54.2782 -18.1613c 15.7496,-5.2698 32.9981,3.3300 38.2678 19.0796c 7.5947,22.6982 15.1894,45.3964 22.7841 68.0945c 0.0006,0.0019 0.0012,0.0037 0.0019 0.0056c 0.2878,0.8603 0.5757,1.7205 0.8635 2.5808c 7.3075,21.8398 14.6150,43.6796 21.9225 65.5195c 0.2878,0.8602 0.5756,1.7204 0.8635 2.5806c 7.3075,21.8398 14.6150,43.6796 21.9225 65.5195c 0.2878,0.8603 0.5757,1.7205 0.8635 2.5808c 7.3069,21.8379 14.6137,43.6758 21.9206 65.5137c 0.0007,0.0019 0.0013,0.0039 0.0020 0.0058c 0.2878,0.8603 0.5757,1.7206 0.8635 2.5808c 7.5953,22.7000 15.1906,45.4001 22.7860 68.1001c 1.0674,3.1902 1.5635,6.4062 1.5635 9.5946c 0.0000,12.6087 -8.0272,24.4520 -20.6432 28.6732c -23.5602,7.8831 -47.1205,15.7663 -70.6807 23.6494c -4.9997,1.6729 -10.1504,1.9481 -15.0211 1.0405c -18.0928,6.0538 -36.1855,12.1075 -54.2783 18.1613c -8.9890,3.0077 -18.4663,1.4973 -25.9261 -3.2817c -15.2573,5.1050 -30.5145,10.2100 -45.7718 15.3150c -11.9542,3.9998 -24.7718,0.0093 -32.5597 -9.0331c -3.7304,1.2482 -7.4608,2.4963 -11.1912 3.7445c 0.0495,0.7083 0.0738,1.4159 0.0738 2.1221c 0.0000,12.6088 -8.0272,24.4520 -20.6432 28.6732c -13.8396,4.6307 -27.6791,9.2613 -41.5187 13.8920c -0.7444,11.8997 -8.5910,22.8020 -20.5852 26.8151c -23.5602,7.8831 -47.1205,15.7663 -70.6807 23.6494c -13.7032,4.5850 -28.5412,-1.3295 -35.6366 -13.3176c -13.3529,4.4678 -26.7058,8.9356 -40.0587 13.4035c -15.7496,5.2697 -32.9981,-3.3300 -38.2678 -19.0796c -7.8831,-23.5602 -15.7663,-47.1205 -23.6494 -70.6807c -1.0674,-3.1902 -1.5635,-6.4061 -1.5635 -9.5946c 0.0000,-12.6088 8.0272,-24.4520 20.6431 -28.6732c 13.1421,-4.3973 26.2842,-8.7946 39.4264 -13.1919c -1.5777,-4.7152 -3.1554,-9.4305 -4.7331 -14.1457c -0.2878,-0.8602 -0.5756,-1.7204 -0.8635 -2.5806c -0.0006,-0.0017 -0.0011,-0.0034 -0.0017 -0.0051c -7.3069,-21.8381 -14.6139,-43.6762 -21.9208 -65.5143c -0.2878,-0.8603 -0.5757,-1.7206 -0.8635 -2.5808c -7.3075,-21.8398 -14.6150,-43.6796 -21.9225 -65.5195c -0.2878,-0.8602 -0.5756,-1.7204 -0.8635 -2.5806c -0.0004,-0.0011 -0.0007,-0.0022 -0.0011 -0.0033c -7.5950,-22.6990 -15.1899,-45.3979 -22.7849 -68.0968c -1.0674,-3.1902 -1.5635,-6.4062 -1.5638 -9.5950ZM 46.2208,757.5499 c 1.3992,4.1817 2.7984,8.3634 4.1975 12.5451c 0.9711,-0.3249 1.9422,-0.6498 2.9132 -0.9748c 2.0023,5.9843 4.0047,11.9687 6.0070 17.9530c -0.9711,0.3249 -1.9422,0.6498 -2.9133 0.9748c 1.3992,4.1817 2.7984,8.3634 4.1975 12.5451c 0.9711,-0.3249 1.9422,-0.6498 2.9133 -0.9748c 0.3919,1.1714 0.7839,2.3428 1.1758 3.5141c 16.6905,-5.5846 33.3810,-11.1691 50.0715 -16.7537c -0.3919,-1.1714 -0.7839,-2.3428 -1.1758 -3.5141c 0.9711,-0.3249 1.9422,-0.6498 2.9133 -0.9748c -1.3992,-4.1817 -2.7984,-8.3634 -4.1975 -12.5451c -0.9711,0.3249 -1.9422,0.6498 -2.9132 0.9748c -2.0023,-5.9843 -4.0047,-11.9687 -6.0070 -17.9530c 0.9711,-0.3249 1.9422,-0.6498 2.9133 -0.9748c -1.3992,-4.1817 -2.7984,-8.3634 -4.1975 -12.5451c -0.9711,0.3249 -1.9422,0.6498 -2.9132 0.9748c -0.3919,-1.1714 -0.7839,-2.3428 -1.1758 -3.5141c -16.6905,5.5846 -33.3810,11.1691 -50.0715 16.7537c 0.3919,1.1714 0.7839,2.3428 1.1758 3.5141c -0.9711,0.3249 -1.9422,0.6498 -2.9133 0.9748ZM 61.6693,1030.0362 c 1.3992,4.1817 2.7984,8.3634 4.1975 12.5451c 0.9711,-0.3249 1.9422,-0.6498 2.9133 -0.9748c 2.0023,5.9843 4.0047,11.9687 6.0070 17.9530c -0.9711,0.3249 -1.9422,0.6498 -2.9133 0.9748c 1.3992,4.1817 2.7984,8.3634 4.1975 12.5451c 0.9711,-0.3249 1.9422,-0.6498 2.9132 -0.9748c 0.3919,1.1714 0.7839,2.3428 1.1758 3.5141c 16.6905,-5.5846 33.3810,-11.1691 50.0715 -16.7537c -0.3919,-1.1714 -0.7839,-2.3428 -1.1758 -3.5141c 0.9711,-0.3249 1.9422,-0.6498 2.9133 -0.9748c -1.3992,-4.1817 -2.7984,-8.3634 -4.1975 -12.5451c -0.9711,0.3249 -1.9422,0.6498 -2.9133 0.9748c -2.0023,-5.9843 -4.0046,-11.9687 -6.0070 -17.9530c 0.9711,-0.3249 1.9422,-0.6498 2.9132 -0.9748c -1.3992,-4.1817 -2.7984,-8.3634 -4.1975 -12.5451c -0.9711,0.3249 -1.9422,0.6498 -2.9133 0.9748c -0.3919,-1.1714 -0.7839,-2.3428 -1.1758 -3.5141c -16.6905,5.5846 -33.3810,11.1691 -50.0715 16.7537c 0.3919,1.1714 0.7839,2.3428 1.1758 3.5141c -0.9711,0.3249 -1.9422,0.6498 -2.9132 0.9748ZM 69.0068,825.6500 c 1.3992,4.1817 2.7984,8.3634 4.1975 12.5451c 0.9711,-0.3249 1.9422,-0.6498 2.9133 -0.9748c 2.0023,5.9843 4.0047,11.9687 6.0070 17.9530c -0.9711,0.3249 -1.9422,0.6498 -2.9133 0.9748c 1.3992,4.1817 2.7984,8.3634 4.1975 12.5451c 0.9711,-0.3249 1.9422,-0.6498 2.9133 -0.9748c 0.3919,1.1714 0.7839,2.3428 1.1758 3.5141c 16.6905,-5.5846 33.3810,-11.1691 50.0715 -16.7537c -0.3919,-1.1714 -0.7839,-2.3428 -1.1758 -3.5141c 0.9711,-0.3249 1.9422,-0.6498 2.9132 -0.9748c -1.3992,-4.1817 -2.7984,-8.3634 -4.1975 -12.5451c -0.9711,0.3249 -1.9422,0.6498 -2.9133 0.9748c -2.0023,-5.9843 -4.0047,-11.9687 -6.0070 -17.9530c 0.9711,-0.3249 1.9422,-0.6498 2.9132 -0.9748c -1.3992,-4.1817 -2.7984,-8.3634 -4.1975 -12.5451c -0.9711,0.3249 -1.9422,0.6498 -2.9133 0.9748c -0.3919,-1.1714 -0.7839,-2.3428 -1.1758 -3.5141c -16.6905,5.5846 -33.3810,11.1691 -50.0715 16.7537c 0.3919,1.1714 0.7839,2.3428 1.1758 3.5141c -0.9711,0.3249 -1.9422,0.6498 -2.9132 0.9748ZM 91.7928,893.7501 c 1.3992,4.1817 2.7984,8.3634 4.1975 12.5451c 0.9711,-0.3249 1.9422,-0.6498 2.9132 -0.9748c 2.0023,5.9843 4.0047,11.9687 6.0070 17.9530c -0.9711,0.3249 -1.9422,0.6498 -2.9133 0.9748c 1.3992,4.1817 2.7984,8.3634 4.1975 12.5451c 0.9711,-0.3249 1.9422,-0.6498 2.9133 -0.9748c 0.3919,1.1714 0.7839,2.3428 1.1758 3.5141c 16.6905,-5.5846 33.3810,-11.1691 50.0715 -16.7537c -0.3919,-1.1714 -0.7839,-2.3428 -1.1758 -3.5141c 0.9711,-0.3249 1.9422,-0.6498 2.9133 -0.9748c -1.3992,-4.1817 -2.7984,-8.3634 -4.1975 -12.5451c -0.9711,0.3249 -1.9422,0.6498 -2.9132 0.9748c -2.0023,-5.9843 -4.0047,-11.9687 -6.0070 -17.9530c 0.9711,-0.3249 1.9422,-0.6498 2.9133 -0.9748c -1.3992,-4.1817 -2.7984,-8.3634 -4.1975 -12.5451c -0.9711,0.3249 -1.9422,0.6498 -2.9133 0.9748c -0.3919,-1.1714 -0.7839,-2.3428 -1.1758 -3.5141c -16.6905,5.5846 -33.3810,11.1691 -50.0715 16.7537c 0.3919,1.1714 0.7839,2.3428 1.1758 3.5141c -0.9711,0.3249 -1.9422,0.6498 -2.9133 0.9748ZM 108.3246,716.8429 c 1.3992,4.1817 2.7984,8.3634 4.1975 12.5451c 0.9711,-0.3249 1.9422,-0.6498 2.9133 -0.9748c 2.0023,5.9843 4.0047,11.9687 6.0070 17.9530c -0.9711,0.3249 -1.9422,0.6498 -2.9133 0.9748c 1.3992,4.1817 2.7984,8.3634 4.1975 12.5451c 0.9711,-0.3249 1.9422,-0.6498 2.9132 -0.9748c 0.3919,1.1714 0.7839,2.3428 1.1758 3.5141c 16.6905,-5.5846 33.3810,-11.1691 50.0715 -16.7537c -0.3919,-1.1714 -0.7839,-2.3428 -1.1758 -3.5141c 0.9711,-0.3249 1.9422,-0.6498 2.9133 -0.9748c -1.3992,-4.1817 -2.7984,-8.3634 -4.1975 -12.5451c -0.9711,0.3249 -1.9422,0.6498 -2.9133 0.9748c -2.0023,-5.9843 -4.0046,-11.9687 -6.0070 -17.9530c 0.9711,-0.3249 1.9422,-0.6498 2.9132 -0.9748c -1.3992,-4.1817 -2.7984,-8.3634 -4.1975 -12.5451c -0.9711,0.3249 -1.9422,0.6498 -2.9133 0.9748c -0.3919,-1.1714 -0.7839,-2.3428 -1.1758 -3.5141c -16.6905,5.5846 -33.3810,11.1691 -50.0715 16.7537c 0.3919,1.1714 0.7839,2.3428 1.1758 3.5141c -0.9711,0.3249 -1.9422,0.6498 -2.9133 0.9748ZM 114.5787,961.8502 c 1.3992,4.1817 2.7984,8.3634 4.1975 12.5451c 0.9711,-0.3249 1.9422,-0.6498 2.9133 -0.9748c 2.0023,5.9843 4.0047,11.9687 6.0070 17.9530c -0.9711,0.3249 -1.9422,0.6498 -2.9132 0.9748c 1.3992,4.1817 2.7984,8.3634 4.1975 12.5451c 0.9711,-0.3249 1.9422,-0.6498 2.9133 -0.9748c 0.3919,1.1714 0.7839,2.3428 1.1758 3.5141c 16.6905,-5.5846 33.3810,-11.1691 50.0715 -16.7537c -0.3919,-1.1714 -0.7839,-2.3428 -1.1758 -3.5141c 0.9711,-0.3249 1.9422,-0.6498 2.9132 -0.9748c -1.3992,-4.1817 -2.7984,-8.3634 -4.1975 -12.5451c -0.9711,0.3249 -1.9422,0.6498 -2.9133 0.9748c -2.0023,-5.9843 -4.0047,-11.9687 -6.0070 -17.9530c 0.9711,-0.3249 1.9422,-0.6498 2.9133 -0.9748c -1.3992,-4.1817 -2.7984,-8.3634 -4.1975 -12.5451c -0.9711,0.3249 -1.9422,0.6498 -2.9133 0.9748c -0.3919,-1.1714 -0.7839,-2.3428 -1.1758 -3.5141c -16.6905,5.5846 -33.3810,11.1691 -50.0715 16.7537c 0.3919,1.1714 0.7839,2.3428 1.1758 3.5141c -0.9711,0.3249 -1.9422,0.6498 -2.9132 0.9748ZM 131.1106,784.9430 c 1.3992,4.1817 2.7984,8.3634 4.1975 12.5451c 0.9711,-0.3249 1.9422,-0.6498 2.9133 -0.9748c 2.0023,5.9843 4.0046,11.9687 6.0070 17.9530c -0.9711,0.3249 -1.9422,0.6498 -2.9132 0.9748c 1.3992,4.1817 2.7984,8.3634 4.1975 12.5451c 0.9711,-0.3249 1.9422,-0.6498 2.9133 -0.9748c 0.3919,1.1714 0.7839,2.3428 1.1758 3.5141c 16.6905,-5.5846 33.3810,-11.1691 50.0715 -16.7537c -0.3919,-1.1714 -0.7839,-2.3428 -1.1758 -3.5141c 0.9711,-0.3249 1.9422,-0.6498 2.9133 -0.9748c -1.3992,-4.1817 -2.7984,-8.3634 -4.1975 -12.5451c -0.9711,0.3249 -1.9422,0.6498 -2.9133 0.9748c -2.0023,-5.9843 -4.0047,-11.9687 -6.0070 -17.9530c 0.9711,-0.3249 1.9422,-0.6498 2.9133 -0.9748c -1.3992,-4.1817 -2.7984,-8.3634 -4.1975 -12.5451c -0.9711,0.3249 -1.9422,0.6498 -2.9132 0.9748c -0.3919,-1.1714 -0.7839,-2.3428 -1.1758 -3.5141c -16.6905,5.5846 -33.3810,11.1691 -50.0715 16.7537c 0.3919,1.1714 0.7839,2.3428 1.1758 3.5141c -0.9711,0.3249 -1.9422,0.6498 -2.9133 0.9748ZM 137.3647,1029.9503 c 1.3992,4.1817 2.7984,8.3634 4.1975 12.5451c 0.9711,-0.3249 1.9422,-0.6498 2.9132 -0.9748c 2.0023,5.9843 4.0047,11.9687 6.0070 17.9530c -0.9711,0.3249 -1.9422,0.6498 -2.9133 0.9748c 1.3992,4.1817 2.7984,8.3634 4.1975 12.5451c 0.9711,-0.3249 1.9422,-0.6498 2.9132 -0.9748c 0.3919,1.1714 0.7839,2.3428 1.1758 3.5141c 16.6905,-5.5846 33.3810,-11.1691 50.0715 -16.7537c -0.3919,-1.1714 -0.7839,-2.3428 -1.1758 -3.5141c 0.9711,-0.3249 1.9422,-0.6498 2.9133 -0.9748c -1.3992,-4.1817 -2.7984,-8.3634 -4.1975 -12.5451c -0.9711,0.3249 -1.9422,0.6498 -2.9132 0.9748c -2.0023,-5.9843 -4.0047,-11.9687 -6.0070 -17.9530c 0.9711,-0.3249 1.9422,-0.6498 2.9133 -0.9748c -1.3992,-4.1817 -2.7984,-8.3634 -4.1975 -12.5451c -0.9711,0.3249 -1.9422,0.6498 -2.9133 0.9748c -0.3919,-1.1714 -0.7839,-2.3428 -1.1758 -3.5141c -16.6905,5.5846 -33.3810,11.1691 -50.0715 16.7537c 0.3919,1.1714 0.7839,2.3428 1.1758 3.5141c -0.9711,0.3249 -1.9422,0.6498 -2.9133 0.9748ZM 153.8965,853.0430 c 1.3992,4.1817 2.7984,8.3634 4.1975 12.5451c 0.9711,-0.3249 1.9422,-0.6498 2.9133 -0.9748c 2.0023,5.9843 4.0047,11.9687 6.0070 17.9530c -0.9711,0.3249 -1.9422,0.6498 -2.9133 0.9748c 1.3992,4.1817 2.7984,8.3634 4.1975 12.5451c 0.9711,-0.3249 1.9422,-0.6498 2.9132 -0.9748c 0.3919,1.1714 0.7839,2.3428 1.1758 3.5141c 16.6905,-5.5846 33.3810,-11.1691 50.0715 -16.7537c -0.3919,-1.1714 -0.7839,-2.3428 -1.1758 -3.5141c 0.9711,-0.3249 1.9422,-0.6498 2.9133 -0.9748c -1.3992,-4.1817 -2.7984,-8.3634 -4.1975 -12.5451c -0.9711,0.3249 -1.9422,0.6498 -2.9133 0.9748c -2.0023,-5.9843 -4.0046,-11.9687 -6.0070 -17.9530c 0.9711,-0.3249 1.9422,-0.6498 2.9132 -0.9748c -1.3992,-4.1817 -2.7984,-8.3634 -4.1975 -12.5451c -0.9711,0.3249 -1.9422,0.6498 -2.9133 0.9748c -0.3919,-1.1714 -0.7839,-2.3428 -1.1758 -3.5141c -16.6905,5.5846 -33.3810,11.1691 -50.0715 16.7537c 0.3919,1.1714 0.7839,2.3428 1.1758 3.5141c -0.9711,0.3249 -1.9422,0.6498 -2.9133 0.9748ZM 169.2291,672.5516 c 1.3992,4.1817 2.7984,8.3634 4.1975 12.5451c 0.9711,-0.3249 1.9422,-0.6498 2.9133 -0.9748c 2.0023,5.9843 4.0047,11.9687 6.0070 17.9530c -0.9711,0.3249 -1.9422,0.6498 -2.9132 0.9748c 1.3992,4.1817 2.7984,8.3634 4.1975 12.5451c 0.9711,-0.3249 1.9422,-0.6498 2.9133 -0.9748c 0.3919,1.1714 0.7839,2.3428 1.1758 3.5141c 16.6905,-5.5846 33.3810,-11.1691 50.0715 -16.7537c -0.3919,-1.1714 -0.7839,-2.3428 -1.1758 -3.5141c 0.9711,-0.3249 1.9422,-0.6498 2.9132 -0.9748c -1.3992,-4.1817 -2.7984,-8.3634 -4.1975 -12.5451c -0.9711,0.3249 -1.9422,0.6498 -2.9133 0.9748c -2.0023,-5.9843 -4.0047,-11.9687 -6.0070 -17.9530c 0.9711,-0.3249 1.9422,-0.6498 2.9133 -0.9748c -1.3992,-4.1817 -2.7984,-8.3634 -4.1975 -12.5451c -0.9711,0.3249 -1.9422,0.6498 -2.9133 0.9748c -0.3919,-1.1714 -0.7839,-2.3428 -1.1758 -3.5141c -16.6905,5.5846 -33.3810,11.1691 -50.0715 16.7537c 0.3919,1.1714 0.7839,2.3428 1.1758 3.5141c -0.9711,0.3249 -1.9422,0.6498 -2.9132 0.9748ZM 176.6825,921.1431 c 1.3992,4.1817 2.7984,8.3634 4.1975 12.5451c 0.9711,-0.3249 1.9422,-0.6498 2.9133 -0.9748c 2.0023,5.9843 4.0046,11.9687 6.0070 17.9530c -0.9711,0.3249 -1.9422,0.6498 -2.9132 0.9748c 1.3992,4.1817 2.7984,8.3634 4.1975 12.5451c 0.9711,-0.3249 1.9422,-0.6498 2.9133 -0.9748c 0.3919,1.1714 0.7839,2.3428 1.1758 3.5141c 16.6905,-5.5846 33.3810,-11.1691 50.0715 -16.7537c -0.3919,-1.1714 -0.7839,-2.3428 -1.1758 -3.5141c 0.9711,-0.3249 1.9422,-0.6498 2.9133 -0.9748c -1.3992,-4.1817 -2.7984,-8.3634 -4.1975 -12.5451c -0.9711,0.3249 -1.9422,0.6498 -2.9133 0.9748c -2.0023,-5.9843 -4.0047,-11.9687 -6.0070 -17.9530c 0.9711,-0.3249 1.9422,-0.6498 2.9133 -0.9748c -1.3992,-4.1817 -2.7984,-8.3634 -4.1975 -12.5451c -0.9711,0.3249 -1.9422,0.6498 -2.9132 0.9748c -0.3919,-1.1714 -0.7839,-2.3428 -1.1758 -3.5141c -16.6905,5.5846 -33.3810,11.1691 -50.0715 16.7537c 0.3919,1.1714 0.7839,2.3428 1.1758 3.5141c -0.9711,0.3249 -1.9422,0.6498 -2.9133 0.9748ZM 192.0151,740.6517 c 1.3992,4.1817 2.7984,8.3634 4.1975 12.5451c 0.9711,-0.3249 1.9422,-0.6498 2.9132 -0.9748c 2.0023,5.9843 4.0047,11.9687 6.0070 17.9530c -0.9711,0.3249 -1.9422,0.6498 -2.9133 0.9748c 1.3992,4.1817 2.7984,8.3634 4.1975 12.5451c 0.9711,-0.3249 1.9422,-0.6498 2.9132 -0.9748c 0.3919,1.1714 0.7839,2.3428 1.1758 3.5141c 16.6905,-5.5846 33.3810,-11.1691 50.0715 -16.7537c -0.3919,-1.1714 -0.7839,-2.3428 -1.1758 -3.5141c 0.9711,-0.3249 1.9422,-0.6498 2.9133 -0.9748c -1.3992,-4.1817 -2.7984,-8.3634 -4.1975 -12.5451c -0.9711,0.3249 -1.9422,0.6498 -2.9132 0.9748c -2.0023,-5.9843 -4.0047,-11.9687 -6.0070 -17.9530c 0.9711,-0.3249 1.9422,-0.6498 2.9133 -0.9748c -1.3992,-4.1817 -2.7984,-8.3634 -4.1975 -12.5451c -0.9711,0.3249 -1.9422,0.6498 -2.9133 0.9748c -0.3919,-1.1714 -0.7839,-2.3428 -1.1758 -3.5141c -16.6905,5.5846 -33.3810,11.1691 -50.0715 16.7537c 0.3919,1.1714 0.7839,2.3428 1.1758 3.5141c -0.9711,0.3249 -1.9422,0.6498 -2.9133 0.9748ZM 199.4685,989.2432 c 1.3992,4.1817 2.7984,8.3634 4.1975 12.5451c 0.9711,-0.3249 1.9422,-0.6498 2.9133 -0.9748c 2.0023,5.9843 4.0047,11.9687 6.0070 17.9530c -0.9711,0.3249 -1.9422,0.6498 -2.9133 0.9748c 1.3992,4.1817 2.7984,8.3634 4.1975 12.5451c 0.9711,-0.3249 1.9422,-0.6498 2.9132 -0.9748c 0.3919,1.1714 0.7839,2.3428 1.1758 3.5141c 16.6905,-5.5846 33.3810,-11.1691 50.0715 -16.7537c -0.3919,-1.1714 -0.7839,-2.3428 -1.1758 -3.5141c 0.9711,-0.3249 1.9422,-0.6498 2.9133 -0.9748c -1.3992,-4.1817 -2.7984,-8.3634 -4.1975 -12.5451c -0.9711,0.3249 -1.9422,0.6498 -2.9133 0.9748c -2.0023,-5.9843 -4.0046,-11.9687 -6.0070 -17.9530c 0.9711,-0.3249 1.9422,-0.6498 2.9132 -0.9748c -1.3992,-4.1817 -2.7984,-8.3634 -4.1975 -12.5451c -0.9711,0.3249 -1.9422,0.6498 -2.9133 0.9748c -0.3919,-1.1714 -0.7839,-2.3428 -1.1758 -3.5141c -16.6905,5.5846 -33.3810,11.1691 -50.0715 16.7537c 0.3919,1.1714 0.7839,2.3428 1.1758 3.5141c -0.9711,0.3249 -1.9422,0.6498 -2.9132 0.9748ZM 214.8011,808.7518 c 1.3992,4.1817 2.7984,8.3634 4.1975 12.5451c 0.9711,-0.3249 1.9422,-0.6498 2.9133 -0.9748c 2.0023,5.9843 4.0047,11.9687 6.0070 17.9530c -0.9711,0.3249 -1.9422,0.6498 -2.9132 0.9748c 1.3992,4.1817 2.7984,8.3634 4.1975 12.5451c 0.9711,-0.3249 1.9422,-0.6498 2.9133 -0.9748c 0.3919,1.1714 0.7839,2.3428 1.1758 3.5141c 16.6905,-5.5846 33.3810,-11.1691 50.0715 -16.7537c -0.3919,-1.1714 -0.7839,-2.3428 -1.1758 -3.5141c 0.9711,-0.3249 1.9422,-0.6498 2.9132 -0.9748c -1.3992,-4.1817 -2.7984,-8.3634 -4.1975 -12.5451c -0.9711,0.3249 -1.9422,0.6498 -2.9133 0.9748c -2.0023,-5.9843 -4.0047,-11.9687 -6.0070 -17.9530c 0.9711,-0.3249 1.9422,-0.6498 2.9133 -0.9748c -1.3992,-4.1817 -2.7984,-8.3634 -4.1975 -12.5451c -0.9711,0.3249 -1.9422,0.6498 -2.9133 0.9748c -0.3919,-1.1714 -0.7839,-2.3428 -1.1758 -3.5141c -16.6905,5.5846 -33.3810,11.1691 -50.0715 16.7537c 0.3919,1.1714 0.7839,2.3428 1.1758 3.5141c -0.9711,0.3249 -1.9422,0.6498 -2.9132 0.9748ZM 237.5870,876.8519 c 1.3992,4.1817 2.7984,8.3634 4.1975 12.5451c 0.9711,-0.3249 1.9422,-0.6498 2.9132 -0.9748c 2.0023,5.9843 4.0047,11.9687 6.0070 17.9530c -0.9711,0.3249 -1.9422,0.6498 -2.9133 0.9748c 1.3992,4.1817 2.7984,8.3634 4.1975 12.5451c 0.9711,-0.3249 1.9422,-0.6498 2.9132 -0.9748c 0.3919,1.1714 0.7839,2.3428 1.1758 3.5141c 16.6905,-5.5846 33.3810,-11.1691 50.0715 -16.7537c -0.3919,-1.1714 -0.7839,-2.3428 -1.1758 -3.5141c 0.9711,-0.3249 1.9422,-0.6498 2.9133 -0.9748c -1.3992,-4.1817 -2.7984,-8.3634 -4.1975 -12.5451c -0.9711,0.3249 -1.9422,0.6498 -2.9132 0.9748c -2.0023,-5.9843 -4.0047,-11.9687 -6.0070 -17.9530c 0.9711,-0.3249 1.9422,-0.6498 2.9133 -0.9748c -1.3992,-4.1817 -2.7984,-8.3634 -4.1975 -12.5451c -0.9711,0.3249 -1.9422,0.6498 -2.9133 0.9748c -0.3919,-1.1714 -0.7839,-2.3428 -1.1758 -3.5141c -16.6905,5.5846 -33.3810,11.1691 -50.0715 16.7537c 0.3919,1.1714 0.7839,2.3428 1.1758 3.5141c -0.9711,0.3249 -1.9422,0.6498 -2.9133 0.9748ZM 243.3255,667.6867 c 1.3992,4.1817 2.7984,8.3634 4.1975 12.5451c 0.9711,-0.3249 1.9422,-0.6498 2.9132 -0.9748c 2.0023,5.9843 4.0047,11.9687 6.0070 17.9530c -0.9711,0.3249 -1.9422,0.6498 -2.9133 0.9748c 1.3992,4.1817 2.7984,8.3634 4.1975 12.5451c 0.9711,-0.3249 1.9422,-0.6498 2.9132 -0.9748c 0.3919,1.1714 0.7839,2.3428 1.1758 3.5141c 16.6905,-5.5846 33.3810,-11.1691 50.0715 -16.7537c -0.3919,-1.1714 -0.7839,-2.3428 -1.1758 -3.5141c 0.9711,-0.3249 1.9422,-0.6498 2.9133 -0.9748c -1.3992,-4.1817 -2.7984,-8.3634 -4.1975 -12.5451c -0.9711,0.3249 -1.9422,0.6498 -2.9132 0.9748c -2.0023,-5.9843 -4.0047,-11.9687 -6.0070 -17.9530c 0.9711,-0.3249 1.9422,-0.6498 2.9133 -0.9748c -1.3992,-4.1817 -2.7984,-8.3634 -4.1975 -12.5451c -0.9711,0.3249 -1.9422,0.6498 -2.9133 0.9748c -0.3919,-1.1714 -0.7839,-2.3428 -1.1758 -3.5141c -16.6905,5.5846 -33.3810,11.1691 -50.0715 16.7537c 0.3919,1.1714 0.7839,2.3428 1.1758 3.5141c -0.9711,0.3249 -1.9422,0.6498 -2.9133 0.9748ZM 260.3730,944.9520 c 1.3992,4.1817 2.7984,8.3634 4.1975 12.5451c 0.9711,-0.3249 1.9422,-0.6498 2.9133 -0.9748c 2.0023,5.9843 4.0046,11.9687 6.0070 17.9530c -0.9711,0.3249 -1.9422,0.6498 -2.9132 0.9748c 1.3992,4.1817 2.7984,8.3634 4.1975 12.5451c 0.9711,-0.3249 1.9422,-0.6498 2.9133 -0.9748c 0.3919,1.1714 0.7839,2.3428 1.1758 3.5141c 16.6905,-5.5846 33.3810,-11.1691 50.0715 -16.7537c -0.3919,-1.1714 -0.7839,-2.3428 -1.1758 -3.5141c 0.9711,-0.3249 1.9422,-0.6498 2.9132 -0.9748c -1.3992,-4.1817 -2.7984,-8.3634 -4.1975 -12.5451c -0.9711,0.3249 -1.9422,0.6498 -2.9133 0.9748c -2.0023,-5.9843 -4.0047,-11.9687 -6.0070 -17.9530c 0.9711,-0.3249 1.9422,-0.6498 2.9133 -0.9748c -1.3992,-4.1817 -2.7984,-8.3634 -4.1975 -12.5451c -0.9711,0.3249 -1.9422,0.6498 -2.9133 0.9748c -0.3919,-1.1714 -0.7839,-2.3428 -1.1758 -3.5141c -16.6905,5.5846 -33.3810,11.1691 -50.0715 16.7537c 0.3919,1.1714 0.7839,2.3428 1.1758 3.5141c -0.9711,0.3249 -1.9422,0.6498 -2.9133 0.9748ZM 266.1115,735.7868 c 1.3992,4.1817 2.7984,8.3634 4.1975 12.5451c 0.9711,-0.3249 1.9422,-0.6498 2.9133 -0.9748c 2.0023,5.9843 4.0047,11.9687 6.0070 17.9530c -0.9711,0.3249 -1.9422,0.6498 -2.9132 0.9748c 1.3992,4.1817 2.7984,8.3634 4.1975 12.5451c 0.9711,-0.3249 1.9422,-0.6498 2.9133 -0.9748c 0.3919,1.1714 0.7839,2.3428 1.1758 3.5141c 16.6905,-5.5846 33.3810,-11.1691 50.0715 -16.7537c -0.3919,-1.1714 -0.7839,-2.3428 -1.1758 -3.5141c 0.9711,-0.3249 1.9422,-0.6498 2.9132 -0.9748c -1.3992,-4.1817 -2.7984,-8.3634 -4.1975 -12.5451c -0.9711,0.3249 -1.9422,0.6498 -2.9133 0.9748c -2.0023,-5.9843 -4.0047,-11.9687 -6.0070 -17.9530c 0.9711,-0.3249 1.9422,-0.6498 2.9133 -0.9748c -1.3992,-4.1817 -2.7984,-8.3634 -4.1975 -12.5451c -0.9711,0.3249 -1.9422,0.6498 -2.9133 0.9748c -0.3919,-1.1714 -0.7839,-2.3428 -1.1758 -3.5141c -16.6905,5.5846 -33.3810,11.1691 -50.0715 16.7537c 0.3919,1.1714 0.7839,2.3428 1.1758 3.5141c -0.9711,0.3249 -1.9422,0.6498 -2.9132 0.9748ZM 288.8975,803.8869 c 1.3992,4.1817 2.7984,8.3634 4.1975 12.5451c 0.9711,-0.3249 1.9422,-0.6498 2.9132 -0.9748c 2.0023,5.9843 4.0047,11.9687 6.0070 17.9530c -0.9711,0.3249 -1.9422,0.6498 -2.9133 0.9748c 1.3992,4.1817 2.7984,8.3634 4.1975 12.5451c 0.9711,-0.3249 1.9422,-0.6498 2.9132 -0.9748c 0.3919,1.1714 0.7839,2.3428 1.1758 3.5141c 16.6905,-5.5846 33.3810,-11.1691 50.0715 -16.7537c -0.3919,-1.1714 -0.7839,-2.3428 -1.1758 -3.5141c 0.9711,-0.3249 1.9422,-0.6498 2.9133 -0.9748c -1.3992,-4.1817 -2.7984,-8.3634 -4.1975 -12.5451c -0.9711,0.3249 -1.9422,0.6498 -2.9132 0.9748c -2.0023,-5.9843 -4.0047,-11.9687 -6.0070 -17.9530c 0.9711,-0.3249 1.9422,-0.6498 2.9133 -0.9748c -1.3992,-4.1817 -2.7984,-8.3634 -4.1975 -12.5451c -0.9711,0.3249 -1.9422,0.6498 -2.9133 0.9748c -0.3919,-1.1714 -0.7839,-2.3428 -1.1758 -3.5141c -16.6905,5.5846 -33.3810,11.1691 -50.0715 16.7537c 0.3919,1.1714 0.7839,2.3428 1.1758 3.5141c -0.9711,0.3249 -1.9422,0.6498 -2.9133 0.9748ZM 311.6834,871.9870 c 1.3992,4.1817 2.7984,8.3634 4.1975 12.5451c 0.9711,-0.3249 1.9422,-0.6498 2.9133 -0.9748c 2.0023,5.9843 4.0046,11.9687 6.0070 17.9530c -0.9711,0.3249 -1.9422,0.6498 -2.9132 0.9748c 1.3992,4.1817 2.7984,8.3634 4.1975 12.5451c 0.9711,-0.3249 1.9422,-0.6498 2.9133 -0.9748c 0.3919,1.1714 0.7839,2.3428 1.1758 3.5141c 16.6905,-5.5846 33.3810,-11.1691 50.0715 -16.7537c -0.3919,-1.1714 -0.7839,-2.3428 -1.1758 -3.5141c 0.9711,-0.3249 1.9422,-0.6498 2.9132 -0.9748c -1.3992,-4.1817 -2.7984,-8.3634 -4.1975 -12.5451c -0.9711,0.3249 -1.9422,0.6498 -2.9133 0.9748c -2.0023,-5.9843 -4.0047,-11.9687 -6.0070 -17.9530c 0.9711,-0.3249 1.9422,-0.6498 2.9133 -0.9748c -1.3992,-4.1817 -2.7984,-8.3634 -4.1975 -12.5451c -0.9711,0.3249 -1.9422,0.6498 -2.9133 0.9748c -0.3919,-1.1714 -0.7839,-2.3428 -1.1758 -3.5141c -16.6905,5.5846 -33.3810,11.1691 -50.0715 16.7537c 0.3919,1.1714 0.7839,2.3428 1.1758 3.5141c -0.9711,0.3249 -1.9422,0.6498 -2.9132 0.9748ZM 315.0234,655.6534 c 1.3992,4.1817 2.7984,8.3634 4.1975 12.5451c 0.9711,-0.3249 1.9422,-0.6498 2.9133 -0.9748c 2.0023,5.9843 4.0046,11.9687 6.0070 17.9530c -0.9711,0.3249 -1.9422,0.6498 -2.9132 0.9748c 1.3992,4.1817 2.7984,8.3634 4.1975 12.5451c 0.9711,-0.3249 1.9422,-0.6498 2.9133 -0.9748c 0.3919,1.1714 0.7839,2.3428 1.1758 3.5141c 16.6905,-5.5846 33.3810,-11.1691 50.0715 -16.7537c -0.3919,-1.1714 -0.7839,-2.3428 -1.1758 -3.5141c 0.9711,-0.3249 1.9422,-0.6498 2.9132 -0.9748c -1.3992,-4.1817 -2.7984,-8.3634 -4.1975 -12.5451c -0.9711,0.3249 -1.9422,0.6498 -2.9133 0.9748c -2.0023,-5.9843 -4.0047,-11.9687 -6.0070 -17.9530c 0.9711,-0.3249 1.9422,-0.6498 2.9133 -0.9748c -1.3992,-4.1817 -2.7984,-8.3634 -4.1975 -12.5451c -0.9711,0.3249 -1.9422,0.6498 -2.9132 0.9748c -0.3919,-1.1714 -0.7839,-2.3428 -1.1758 -3.5141c -16.6905,5.5846 -33.3810,11.1691 -50.0715 16.7537c 0.3919,1.1714 0.7839,2.3428 1.1758 3.5141c -0.9711,0.3249 -1.9422,0.6498 -2.9133 0.9748ZM 334.4694,940.0871 c 1.3992,4.1817 2.7984,8.3634 4.1975 12.5451c 0.9711,-0.3249 1.9422,-0.6498 2.9132 -0.9748c 2.0023,5.9843 4.0047,11.9687 6.0070 17.9530c -0.9711,0.3249 -1.9422,0.6498 -2.9133 0.9748c 1.3992,4.1817 2.7984,8.3634 4.1975 12.5451c 0.9711,-0.3249 1.9422,-0.6498 2.9132 -0.9748c 0.3919,1.1714 0.7839,2.3428 1.1758 3.5141c 16.6905,-5.5846 33.3810,-11.1691 50.0715 -16.7537c -0.3919,-1.1714 -0.7839,-2.3428 -1.1758 -3.5141c 0.9711,-0.3249 1.9422,-0.6498 2.9133 -0.9748c -1.3992,-4.1817 -2.7984,-8.3634 -4.1975 -12.5451c -0.9711,0.3249 -1.9422,0.6498 -2.9132 0.9748c -2.0023,-5.9843 -4.0047,-11.9687 -6.0070 -17.9530c 0.9711,-0.3249 1.9422,-0.6498 2.9133 -0.9748c -1.3992,-4.1817 -2.7984,-8.3634 -4.1975 -12.5451c -0.9711,0.3249 -1.9422,0.6498 -2.9133 0.9748c -0.3919,-1.1714 -0.7839,-2.3428 -1.1758 -3.5141c -16.6905,5.5846 -33.3810,11.1691 -50.0715 16.7537c 0.3919,1.1714 0.7839,2.3428 1.1758 3.5141c -0.9711,0.3249 -1.9422,0.6498 -2.9133 0.9748ZM 337.8094,723.7535 c 1.3992,4.1817 2.7984,8.3634 4.1975 12.5451c 0.9711,-0.3249 1.9422,-0.6498 2.9133 -0.9748c 2.0023,5.9843 4.0047,11.9687 6.0070 17.9530c -0.9711,0.3249 -1.9422,0.6498 -2.9133 0.9748c 1.3992,4.1817 2.7984,8.3634 4.1975 12.5451c 0.9711,-0.3249 1.9422,-0.6498 2.9132 -0.9748c 0.3919,1.1714 0.7839,2.3428 1.1758 3.5141c 16.6905,-5.5846 33.3810,-11.1691 50.0715 -16.7537c -0.3919,-1.1714 -0.7839,-2.3428 -1.1758 -3.5141c 0.9711,-0.3249 1.9422,-0.6498 2.9133 -0.9748c -1.3992,-4.1817 -2.7984,-8.3634 -4.1975 -12.5451c -0.9711,0.3249 -1.9422,0.6498 -2.9132 0.9748c -2.0023,-5.9843 -4.0047,-11.9687 -6.0070 -17.9530c 0.9711,-0.3249 1.9422,-0.6498 2.9132 -0.9748c -1.3992,-4.1817 -2.7984,-8.3634 -4.1975 -12.5451c -0.9711,0.3249 -1.9422,0.6498 -2.9133 0.9748c -0.3919,-1.1714 -0.7839,-2.3428 -1.1758 -3.5141c -16.6905,5.5846 -33.3810,11.1691 -50.0715 16.7537c 0.3919,1.1714 0.7839,2.3428 1.1758 3.5141c -0.9711,0.3249 -1.9422,0.6498 -2.9133 0.9748ZM 360.5953,791.8536 c 1.3992,4.1817 2.7984,8.3634 4.1975 12.5451c 0.9711,-0.3249 1.9422,-0.6498 2.9133 -0.9748c 2.0023,5.9843 4.0046,11.9687 6.0070 17.9530c -0.9711,0.3249 -1.9422,0.6498 -2.9132 0.9748c 1.3992,4.1817 2.7984,8.3634 4.1975 12.5451c 0.9711,-0.3249 1.9422,-0.6498 2.9133 -0.9748c 0.3919,1.1714 0.7839,2.3428 1.1758 3.5141c 16.6905,-5.5846 33.3810,-11.1691 50.0715 -16.7537c -0.3919,-1.1714 -0.7839,-2.3428 -1.1758 -3.5141c 0.9711,-0.3249 1.9422,-0.6498 2.9133 -0.9748c -1.3992,-4.1817 -2.7984,-8.3634 -4.1975 -12.5451c -0.9711,0.3249 -1.9422,0.6498 -2.9133 0.9748c -2.0023,-5.9843 -4.0047,-11.9687 -6.0070 -17.9530c 0.9711,-0.3249 1.9422,-0.6498 2.9133 -0.9748c -1.3992,-4.1817 -2.7984,-8.3634 -4.1975 -12.5451c -0.9711,0.3249 -1.9422,0.6498 -2.9132 0.9748c -0.3919,-1.1714 -0.7839,-2.3428 -1.1758 -3.5141c -16.6905,5.5846 -33.3810,11.1691 -50.0715 16.7537c 0.3919,1.1714 0.7839,2.3428 1.1758 3.5141c -0.9711,0.3249 -1.9422,0.6498 -2.9133 0.9748ZM 383.3813,859.9536 c 1.3992,4.1817 2.7984,8.3634 4.1975 12.5451c 0.9711,-0.3249 1.9422,-0.6498 2.9133 -0.9748c 2.0023,5.9843 4.0047,11.9687 6.0070 17.9530c -0.9711,0.3249 -1.9422,0.6498 -2.9133 0.9748c 1.3992,4.1817 2.7984,8.3634 4.1975 12.5451c 0.9711,-0.3249 1.9422,-0.6498 2.9132 -0.9748c 0.3919,1.1714 0.7839,2.3428 1.1758 3.5141c 16.6905,-5.5846 33.3810,-11.1691 50.0715 -16.7537c -0.3919,-1.1714 -0.7839,-2.3428 -1.1758 -3.5141c 0.9711,-0.3249 1.9422,-0.6498 2.9133 -0.9748c -1.3992,-4.1817 -2.7984,-8.3634 -4.1975 -12.5451c -0.9711,0.3249 -1.9422,0.6498 -2.9133 0.9748c -2.0023,-5.9843 -4.0046,-11.9687 -6.0070 -17.9530c 0.9711,-0.3249 1.9422,-0.6498 2.9132 -0.9748c -1.3992,-4.1817 -2.7984,-8.3634 -4.1975 -12.5451c -0.9711,0.3249 -1.9422,0.6498 -2.9133 0.9748c -0.3919,-1.1714 -0.7839,-2.3428 -1.1758 -3.5141c -16.6905,5.5846 -33.3810,11.1691 -50.0715 16.7537c 0.3919,1.1714 0.7839,2.3428 1.1758 3.5141c -0.9711,0.3249 -1.9422,0.6498 -2.9133 0.9748ZM 384.3228,636.4516 c 1.3992,4.1817 2.7984,8.3634 4.1975 12.5451c 0.9711,-0.3249 1.9422,-0.6498 2.9133 -0.9748c 2.0023,5.9843 4.0047,11.9687 6.0070 17.9530c -0.9711,0.3249 -1.9422,0.6498 -2.9133 0.9748c 1.3992,4.1817 2.7984,8.3634 4.1975 12.5451c 0.9711,-0.3249 1.9422,-0.6498 2.9133 -0.9748c 0.3919,1.1714 0.7839,2.3428 1.1758 3.5141c 16.6905,-5.5846 33.3810,-11.1691 50.0715 -16.7537c -0.3919,-1.1714 -0.7839,-2.3428 -1.1758 -3.5141c 0.9711,-0.3249 1.9422,-0.6498 2.9132 -0.9748c -1.3992,-4.1817 -2.7984,-8.3634 -4.1975 -12.5451c -0.9711,0.3249 -1.9422,0.6498 -2.9133 0.9748c -2.0023,-5.9843 -4.0047,-11.9687 -6.0070 -17.9530c 0.9711,-0.3249 1.9422,-0.6498 2.9132 -0.9748c -1.3992,-4.1817 -2.7984,-8.3634 -4.1975 -12.5451c -0.9711,0.3249 -1.9422,0.6498 -2.9133 0.9748c -0.3919,-1.1714 -0.7839,-2.3428 -1.1758 -3.5141c -16.6905,5.5846 -33.3810,11.1691 -50.0715 16.7537c 0.3919,1.1714 0.7839,2.3428 1.1758 3.5141c -0.9711,0.3249 -1.9422,0.6498 -2.9132 0.9748ZM 406.1673,928.0537 c 1.3992,4.1817 2.7984,8.3634 4.1975 12.5451c 0.9711,-0.3249 1.9422,-0.6498 2.9133 -0.9748c 2.0023,5.9843 4.0046,11.9687 6.0070 17.9530c -0.9711,0.3249 -1.9422,0.6498 -2.9132 0.9748c 1.3992,4.1817 2.7984,8.3634 4.1975 12.5451c 0.9711,-0.3249 1.9422,-0.6498 2.9133 -0.9748c 0.3919,1.1714 0.7839,2.3428 1.1758 3.5141c 16.6905,-5.5846 33.3810,-11.1691 50.0715 -16.7537c -0.3919,-1.1714 -0.7839,-2.3428 -1.1758 -3.5141c 0.9711,-0.3249 1.9422,-0.6498 2.9133 -0.9748c -1.3992,-4.1817 -2.7984,-8.3634 -4.1975 -12.5451c -0.9711,0.3249 -1.9422,0.6498 -2.9133 0.9748c -2.0023,-5.9843 -4.0047,-11.9687 -6.0070 -17.9530c 0.9711,-0.3249 1.9422,-0.6498 2.9133 -0.9748c -1.3992,-4.1817 -2.7984,-8.3634 -4.1975 -12.5451c -0.9711,0.3249 -1.9422,0.6498 -2.9132 0.9748c -0.3919,-1.1714 -0.7839,-2.3428 -1.1758 -3.5141c -16.6905,5.5846 -33.3810,11.1691 -50.0715 16.7537c 0.3919,1.1714 0.7839,2.3428 1.1758 3.5141c -0.9711,0.3249 -1.9422,0.6498 -2.9133 0.9748ZM 407.1087,704.5517 c 1.3992,4.1817 2.7984,8.3634 4.1975 12.5451c 0.9711,-0.3249 1.9422,-0.6498 2.9132 -0.9748c 2.0023,5.9843 4.0047,11.9687 6.0070 17.9530c -0.9711,0.3249 -1.9422,0.6498 -2.9133 0.9748c 1.3992,4.1817 2.7984,8.3634 4.1975 12.5451c 0.9711,-0.3249 1.9422,-0.6498 2.9133 -0.9748c 0.3919,1.1714 0.7839,2.3428 1.1758 3.5141c 16.6905,-5.5846 33.3810,-11.1691 50.0715 -16.7537c -0.3919,-1.1714 -0.7839,-2.3428 -1.1758 -3.5141c 0.9711,-0.3249 1.9422,-0.6498 2.9133 -0.9748c -1.3992,-4.1817 -2.7984,-8.3634 -4.1975 -12.5451c -0.9711,0.3249 -1.9422,0.6498 -2.9132 0.9748c -2.0023,-5.9843 -4.0047,-11.9687 -6.0070 -17.9530c 0.9711,-0.3249 1.9422,-0.6498 2.9133 -0.9748c -1.3992,-4.1817 -2.7984,-8.3634 -4.1975 -12.5451c -0.9711,0.3249 -1.9422,0.6498 -2.9132 0.9748c -0.3919,-1.1714 -0.7839,-2.3428 -1.1758 -3.5141c -16.6905,5.5846 -33.3810,11.1691 -50.0715 16.7537c 0.3919,1.1714 0.7839,2.3428 1.1758 3.5141c -0.9711,0.3249 -1.9422,0.6498 -2.9133 0.9748ZM 429.8947,772.6518 c 1.3992,4.1817 2.7984,8.3634 4.1975 12.5451c 0.9711,-0.3249 1.9422,-0.6498 2.9133 -0.9748c 2.0023,5.9843 4.0047,11.9687 6.0070 17.9530c -0.9711,0.3249 -1.9422,0.6498 -2.9132 0.9748c 1.3992,4.1817 2.7984,8.3634 4.1975 12.5451c 0.9711,-0.3249 1.9422,-0.6498 2.9133 -0.9748c 0.3919,1.1714 0.7839,2.3428 1.1758 3.5141c 16.6905,-5.5846 33.3810,-11.1691 50.0715 -16.7537c -0.3919,-1.1714 -0.7839,-2.3428 -1.1758 -3.5141c 0.9711,-0.3249 1.9422,-0.6498 2.9132 -0.9748c -1.3992,-4.1817 -2.7984,-8.3634 -4.1975 -12.5451c -0.9711,0.3249 -1.9422,0.6498 -2.9133 0.9748c -2.0023,-5.9843 -4.0047,-11.9687 -6.0070 -17.9530c 0.9711,-0.3249 1.9422,-0.6498 2.9132 -0.9748c -1.3992,-4.1817 -2.7984,-8.3634 -4.1975 -12.5451c -0.9711,0.3249 -1.9422,0.6498 -2.9133 0.9748c -0.3919,-1.1714 -0.7839,-2.3428 -1.1758 -3.5141c -16.6905,5.5846 -33.3810,11.1691 -50.0715 16.7537c 0.3919,1.1714 0.7839,2.3428 1.1758 3.5141c -0.9711,0.3249 -1.9422,0.6498 -2.9132 0.9748ZM 452.6807,840.7519 c 1.3992,4.1817 2.7984,8.3634 4.1975 12.5451c 0.9711,-0.3249 1.9422,-0.6498 2.9132 -0.9748c 2.0023,5.9843 4.0047,11.9687 6.0070 17.9530c -0.9711,0.3249 -1.9422,0.6498 -2.9133 0.9748c 1.3992,4.1817 2.7984,8.3634 4.1975 12.5451c 0.9711,-0.3249 1.9422,-0.6498 2.9132 -0.9748c 0.3919,1.1714 0.7839,2.3428 1.1758 3.5141c 16.6905,-5.5846 33.3810,-11.1691 50.0715 -16.7537c -0.3919,-1.1714 -0.7839,-2.3428 -1.1758 -3.5141c 0.9711,-0.3249 1.9422,-0.6498 2.9133 -0.9748c -1.3992,-4.1817 -2.7984,-8.3634 -4.1975 -12.5451c -0.9711,0.3249 -1.9422,0.6498 -2.9132 0.9748c -2.0023,-5.9843 -4.0047,-11.9687 -6.0070 -17.9530c 0.9711,-0.3249 1.9422,-0.6498 2.9133 -0.9748c -1.3992,-4.1817 -2.7984,-8.3634 -4.1975 -12.5451c -0.9711,0.3249 -1.9422,0.6498 -2.9133 0.9748c -0.3919,-1.1714 -0.7839,-2.3428 -1.1758 -3.5141c -16.6905,5.5846 -33.3810,11.1691 -50.0715 16.7537c 0.3919,1.1714 0.7839,2.3428 1.1758 3.5141c -0.9711,0.3249 -1.9422,0.6498 -2.9133 0.9748ZM 475.4666,908.8520 c 1.3992,4.1817 2.7984,8.3634 4.1975 12.5451c 0.9711,-0.3249 1.9422,-0.6498 2.9133 -0.9748c 2.0023,5.9843 4.0047,11.9687 6.0070 17.9530c -0.9711,0.3249 -1.9422,0.6498 -2.9132 0.9748c 1.3992,4.1817 2.7984,8.3634 4.1975 12.5451c 0.9711,-0.3249 1.9422,-0.6498 2.9133 -0.9748c 0.3919,1.1714 0.7839,2.3428 1.1758 3.5141c 16.6905,-5.5846 33.3810,-11.1691 50.0715 -16.7537c -0.3919,-1.1714 -0.7839,-2.3428 -1.1758 -3.5141c 0.9711,-0.3249 1.9422,-0.6498 2.9132 -0.9748c -1.3992,-4.1817 -2.7984,-8.3634 -4.1975 -12.5451c -0.9711,0.3249 -1.9422,0.6498 -2.9133 0.9748c -2.0023,-5.9843 -4.0047,-11.9687 -6.0070 -17.9530c 0.9711,-0.3249 1.9422,-0.6498 2.9133 -0.9748c -1.3992,-4.1817 -2.7984,-8.3634 -4.1975 -12.5451c -0.9711,0.3249 -1.9422,0.6498 -2.9133 0.9748c -0.3919,-1.1714 -0.7839,-2.3428 -1.1758 -3.5141c -16.6905,5.5846 -33.3810,11.1691 -50.0715 16.7537c 0.3919,1.1714 0.7839,2.3428 1.1758 3.5141c -0.9711,0.3249 -1.9422,0.6498 -2.9132 0.9748ZM 147.4699,1103.7232 c 0.0000,-3.1311 -2.5382,-5.6693 -5.6693 -5.6693c -3.1311,-0.0000 -5.6693,2.5382 -5.6693 5.6693c 0.0000,3.1311 2.5382,5.6693 5.6693 5.6693c 3.1311,0.0000 5.6693,-2.5382 5.6693 -5.6693ZM 577.8889,951.7361 c 0.0000,-3.1311 -2.5382,-5.6693 -5.6693 -5.6693c -3.1311,-0.0000 -5.6693,2.5382 -5.6693 5.6693c 0.0000,3.1311 2.5382,5.6693 5.6693 5.6693c 3.1311,0.0000 5.6693,-2.5382 5.6693 -5.6693ZM 70.2864,719.6484 c 0.0000,-3.1311 -2.5382,-5.6693 -5.6693 -5.6693c -3.1311,-0.0000 -5.6693,2.5382 -5.6693 5.6693c 0.0000,3.1311 2.5382,5.6693 5.6693 5.6693c 3.1311,0.0000 5.6693,-2.5382 5.6693 -5.6693ZM 455.8562,587.0186 c 0.0000,-3.1311 -2.5382,-5.6693 -5.6693 -5.6693c -3.1311,-0.0000 -5.6693,2.5382 -5.6693 5.6693c 0.0000,3.1311 2.5382,5.6693 5.6693 5.6693c 3.1311,0.0000 5.6693,-2.5382 5.6693 -5.6693Z"/></g><g stroke-linejoin="miter" stroke-opacity="1.0" fill-opacity="0.5" stroke="rgb(0,0,0)" stroke-width="0.37795275590551186" fill="rgb(0,0,255)" stroke-linecap="butt" stroke-miterlimit="10.0"><path d="M 3.9685,178.9407 c 0.0000,-12.6088 8.0272,-24.4520 20.6432 -28.6732c 13.8396,-4.6307 27.6792,-9.2613 41.5187 -13.8920c 0.7444,-11.8996 8.5911,-22.8020 20.5851 -26.8151c 13.4451,-4.4987 26.8901,-8.9973 40.3352 -13.4960c -0.0495,-0.7083 -0.0738,-1.4159 -0.0738 -2.1220c 0.0000,-12.6088 8.0273,-24.4521 20.6433 -28.6733c 23.5602,-7.8831 47.1205,-15.7663 70.6807 -23.6494c 11.9542,-3.9998 24.7718,-0.0093 32.5597 9.0331c 13.8456,-4.6327 27.6911,-9.2653 41.5367 -13.8980c 8.9890,-3.0077 18.4663,-1.4974 25.9261 3.2817c 15.2573,-5.1050 30.5145,-10.2100 45.7718 -15.3150c 4.9997,-1.6729 10.1504,-1.9480 15.0211 -1.0405c 18.0927,-6.0537 36.1855,-12.1075 54.2782 -18.1613c 15.7496,-5.2698 32.9981,3.3300 38.2678 19.0796c 7.5947,22.6982 15.1894,45.3964 22.7841 68.0945c 0.0006,0.0019 0.0012,0.0037 0.0019 0.0056c 0.2878,0.8603 0.5757,1.7205 0.8635 2.5808c 7.3075,21.8398 14.6150,43.6796 21.9225 65.5195c 0.2878,0.8602 0.5756,1.7204 0.8635 2.5806c 7.3075,21.8398 14.6150,43.6796 21.9225 65.5195c 0.2878,0.8603 0.5757,1.7205 0.8635 2.5808c 7.3069,21.8379 14.6137,43.6758 21.9206 65.5137c 0.0007,0.0019 0.0013,0.0039 0.0020 0.0058c 0.2878,0.8603 0.5757,1.7206 0.8635 2.5808c 7.5953,22.7000 15.1906,45.4001 22.7860 68.1001c 1.0674,3.1902 1.5635,6.4062 1.5635 9.5946c 0.0000,12.6087 -8.0272,24.4520 -20.6432 28.6732c -23.5602,7.8831 -47.1205,15.7663 -70.6807 23.6494c -4.9997,1.6729 -10.1504,1.9481 -15.0211 1.0405c -18.0928,6.0538 -36.1855,12.1075 -54.2783 18.1613c -8.9890,3.0077 -18.4663,1.4973 -25.9261 -3.2817c -15.2573,5.1050 -30.5145,10.2100 -45.7718 15.3150c -11.9542,3.9998 -24.7718,0.0093 -32.5597 -9.0331c -3.7304,1.2482 -7.4608,2.4963 -11.1912 3.7445c 0.0495,0.7083 0.0738,1.4159 0.0738 2.1221c 0.0000,12.6088 -8.0272,24.4520 -20.6432 28.6732c -13.8396,4.6307 -27.6791,9.2613 -41.5187 13.8920c -0.7444,11.8997 -8.5910,22.8020 -20.5852 26.8151c -23.5602,7.8831 -47.1205,15.7663 -70.6807 23.6494c -13.7032,4.5850 -28.5412,-1.3295 -35.6366 -13.3176c -13.3529,4.4678 -26.7058,8.9356 -40.0587 13.4035c -15.7496,5.2697 -32.9981,-3.3300 -38.2678 -19.0796c -7.8831,-23.5602 -15.7663,-47.1205 -23.6494 -70.6807c -1.0674,-3.1902 -1.5635,-6.4061 -1.5635 -9.5946c 0.0000,-12.6088 8.0272,-24.4520 20.6431 -28.6732c 13.1421,-4.3973 26.2842,-8.7946 39.4264 -13.1919c -1.5777,-4.7152 -3.1554,-9.4305 -4.7331 -14.1457c -0.2878,-0.8602 -0.5756,-1.7204 -0.8635 -2.5806c -0.0006,-0.0017 -0.0011,-0.0034 -0.0017 -0.0051c -7.3069,-21.8381 -14.6139,-43.6762 -21.9208 -65.5143c -0.2878,-0.8603 -0.5757,-1.7206 -0.8635 -2.5808c -7.3075,-21.8398 -14.6150,-43.6796 -21.9225 -65.5195c -0.2878,-0.8602 -0.5756,-1.7204 -0.8635 -2.5806c -0.0004,-0.0011 -0.0007,-0.0022 -0.0011 -0.0033c -7.5950,-22.6990 -15.1899,-45.3979 -22.7849 -68.0968c -1.0674,-3.1902 -1.5635,-6.4062 -1.5638 -9.5950ZM 30.4252,178.9407 c 0.0000,0.3976 0.0632,0.8020 0.1963 1.1998c 7.5950,22.6989 15.1899,45.3979 22.7849 68.0968c 0.0004,0.0011 0.0007,0.0022 0.0011 0.0033c 0.2878,0.8602 0.5756,1.7204 0.8635 2.5806c 7.3075,21.8398 14.6150,43.6796 21.9225 65.5195c 0.2878,0.8602 0.5756,1.7204 0.8635 2.5806c 7.3069,21.8381 14.6139,43.6762 21.9208 65.5143c 0.0006,0.0017 0.0011,0.0034 0.0017 0.0051c 0.2878,0.8602 0.5756,1.7204 0.8635 2.5806c 1.5778,4.7155 3.1555,9.4309 4.7333 14.1463c 2.7982,8.3630 5.5964,16.7259 8.3946 25.0889c -8.3631,2.7983 -16.7263,5.5965 -25.0894 8.3948c -13.1421,4.3973 -26.2843,8.7946 -39.4264 13.1919c -1.5817,0.5292 -2.5813,2.0029 -2.5813 3.5837c 0.0000,0.3976 0.0632,0.8019 0.1963 1.1998c 7.8831,23.5602 15.7663,47.1205 23.6494 70.6807c 0.6623,1.9795 2.8040,3.0473 4.7835 2.3850c 13.1422,-4.3973 26.2843,-8.7946 39.4265 -13.1919c 8.3631,-2.7983 16.7263,-5.5965 25.0894 -8.3948c 1.8054,5.3957 3.6108,10.7915 5.4162 16.1872c 3.3438,0.5407 6.3484,2.0937 8.6893 4.3345c 1.3971,-0.4675 2.7942,-0.9349 4.1912 -1.4024c 16.5294,-5.5307 33.0588,-11.0613 49.5882 -16.5920c 4.6584,-1.5587 9.3169,-3.1174 13.9753 -4.6761c 1.5817,-0.5292 2.5813,-2.0029 2.5813 -3.5837c 0.0000,-0.3976 -0.0632,-0.8019 -0.1963 -1.1998c -1.5990,-4.7790 -3.1980,-9.5579 -4.7970 -14.3369c 8.3632,-2.7983 16.7264,-5.5966 25.0897 -8.3949c 10.0264,-3.3548 20.0528,-6.7096 30.0791 -10.0643c 3.1157,-1.0425 6.2314,-2.0850 9.3471 -3.1275c 1.5817,-0.5292 2.5813,-2.0029 2.5813 -3.5837c 0.0000,-0.3976 -0.0632,-0.8020 -0.1963 -1.1998c -1.9988,-5.9737 -3.9975,-11.9474 -5.9963 -17.9211c 8.3632,-2.7983 16.7264,-5.5966 25.0896 -8.3949c 2.7240,-0.9114 5.4480,-1.8229 8.1720 -2.7343c 8.3631,-2.7983 16.7263,-5.5965 25.0894 -8.3948c 1.5990,4.7789 3.1980,9.5579 4.7970 14.3369c 0.6623,1.9795 2.8040,3.0473 4.7835 2.3850c 4.6585,-1.5587 9.3171,-3.1174 13.9756 -4.6762c 8.4836,-2.8386 16.9672,-5.6772 25.4509 -8.5157c 8.3631,-2.7983 16.7263,-5.5965 25.0894 -8.3948c 0.7995,2.3895 1.5990,4.7790 2.3985 7.1684c 0.6623,1.9795 2.8040,3.0473 4.7835 2.3850c 6.3637,-2.1293 12.7275,-4.2586 19.0912 -6.3878c 6.7784,-2.2680 13.5568,-4.5360 20.3352 -6.8041c 8.3631,-2.7983 16.7263,-5.5965 25.0894 -8.3948c 0.6623,1.9795 2.8040,3.0473 4.7835 2.3850c 7.0838,-2.3702 14.1676,-4.7404 21.2514 -7.1106c 15.5003,-5.1863 31.0005,-10.3726 46.5008 -15.5589c 0.5407,-3.3438 2.0937,-6.3484 4.3345 -8.6893c -7.2690,-21.7247 -14.5380,-43.4494 -21.8070 -65.1741c -0.2878,-0.8602 -0.5756,-1.7204 -0.8635 -2.5806c -0.0007,-0.0019 -0.0013,-0.0039 -0.0020 -0.0058c -7.3068,-21.8379 -14.6137,-43.6758 -21.9206 -65.5137c -0.2878,-0.8602 -0.5756,-1.7204 -0.8635 -2.5806c -7.3075,-21.8398 -14.6150,-43.6796 -21.9225 -65.5195c -0.2878,-0.8602 -0.5756,-1.7204 -0.8635 -2.5806c -7.3075,-21.8398 -14.6150,-43.6796 -21.9225 -65.5195c -0.2878,-0.8602 -0.5756,-1.7204 -0.8635 -2.5806c -0.0006,-0.0019 -0.0012,-0.0037 -0.0019 -0.0056c -7.2681,-21.7220 -14.5361,-43.4440 -21.8042 -65.1659c -3.3438,-0.5407 -6.3484,-2.0937 -8.6893 -4.3345c -12.1668,4.0709 -24.3335,8.1419 -36.5003 12.2128c -8.3632,2.7983 -16.7264,5.5966 -25.0896 8.3949c -0.6623,-1.9795 -2.8040,-3.0473 -4.7835 -2.3850c -7.0837,2.3702 -14.1674,4.7404 -21.2511 7.1105c -6.0584,2.0271 -12.1167,4.0542 -18.1751 6.0813c -8.3632,2.7983 -16.7264,5.5966 -25.0897 8.3949c -0.7995,-2.3895 -1.5990,-4.7790 -2.3985 -7.1684c -0.6623,-1.9795 -2.8040,-3.0473 -4.7835 -2.3850c -6.3636,2.1292 -12.7271,4.2584 -19.0907 6.3877c -6.7785,2.2681 -13.5570,4.5361 -20.3355 6.8042c -8.3632,2.7983 -16.7264,5.5966 -25.0896 8.3949c -1.5990,-4.7790 -3.1980,-9.5579 -4.7970 -14.3369c -0.6623,-1.9795 -2.8040,-3.0473 -4.7835 -2.3850c -4.6582,1.5586 -9.3164,3.1172 -13.9746 4.6758c -15.7866,5.2821 -31.5733,10.5643 -47.3599 15.8464c -3.1154,1.0424 -6.2308,2.0848 -9.3462 3.1272c -1.5817,0.5292 -2.5813,2.0029 -2.5813 3.5837c 0.0000,0.3976 0.0632,0.8019 0.1963 1.1998c 1.9988,5.9737 3.9975,11.9474 5.9963 17.9211c -8.3631,2.7983 -16.7263,5.5965 -25.0894 8.3948c -8.4839,2.8387 -16.9678,5.6773 -25.4517 8.5160c -4.6583,1.5586 -9.3165,3.1173 -13.9748 4.6759c -1.5817,0.5292 -2.5813,2.0029 -2.5813 3.5837c 0.0000,0.3976 0.0632,0.8019 0.1963 1.1998c 1.5990,4.7790 3.1980,9.5579 4.7971 14.3369c -6.1184,2.0472 -12.2369,4.0944 -18.3553 6.1416c -1.2287,2.3704 -3.0197,4.4025 -5.1963 5.9195c -2.6518,1.8482 -5.8762,2.9320 -9.3536 2.9320c -2.5402,-0.0000 -4.9454,-0.5783 -7.0910 -1.6105c -8.1732,2.7347 -16.3464,5.4694 -24.5196 8.2042c -1.5817,0.5292 -2.5813,2.0029 -2.5813 3.5837ZM 147.4699,536.4602 c 0.0000,-3.1311 -2.5382,-5.6693 -5.6693 -5.6693c -3.1311,-0.0000 -5.6693,2.5382 -5.6693 5.6693c 0.0000,3.1311 2.5382,5.6693 5.6693 5.6693c 3.1311,0.0000 5.6693,-2.5382 5.6693 -5.6693ZM 577.8889,384.4731 c 0.0000,-3.1311 -2.5382,-5.6693 -5.6693 -5.6693c -3.1311,-0.0000 -5.6693,2.5382 -5.6693 5.6693c 0.0000,3.1311 2.5382,5.6693 5.6693 5.6693c 3.1311,0.0000 5.6693,-2.5382 5.6693 -5.6693ZM 70.2864,152.3854 c 0.0000,-3.1311 -2.5382,-5.6693 -5.6693 -5.6693c -3.1311,-0.0000 -5.6693,2.5382 -5.6693 5.6693c 0.0000,3.1311 2.5382,5.6693 5.6693 5.6693c 3.1311,0.0000 5.6693,-2.5382 5.6693 -5.6693ZM 455.8562,19.7556 c 0.0000,-3.1311 -2.5382,-5.6693 -5.6693 -5.6693c -3.1311,-0.0000 -5.6693,2.5382 -5.6693 5.6693c 0.0000,3.1311 2.5382,5.6693 5.6693 5.6693c 3.1311,0.0000 5.6693,-2.5382 5.6693 -5.6693Z"/></g></svg>